<?xml version="1.0" encoding="UTF-8" standalone="no"?>
<!DOCTYPE svg PUBLIC "-//W3C//DTD SVG 1.1//EN"
 "http://www.w3.org/Graphics/SVG/1.1/DTD/svg11.dtd">
<!-- Generated by graphviz version 2.36.0 (20140111.2315)
 -->
<!-- Title: /home/travis/build/STORM&#45;IRIT/Radium&#45;Engine/Plugins/Animation/src/AnimationSystem.hpp Pages: 1 -->
<svg width="1510pt" height="522pt"
 viewBox="0.00 0.00 1510.00 522.00" xmlns="http://www.w3.org/2000/svg" xmlns:xlink="http://www.w3.org/1999/xlink">
<g id="graph0" class="graph" transform="scale(1 1) rotate(0) translate(4 518)">
<title>/home/travis/build/STORM&#45;IRIT/Radium&#45;Engine/Plugins/Animation/src/AnimationSystem.hpp</title>
<polygon fill="white" stroke="none" points="-4,4 -4,-518 1506,-518 1506,4 -4,4"/>
<!-- Node1 -->
<g id="node1" class="node"><title>Node1</title>
<polygon fill="#bfbfbf" stroke="black" points="230.5,-461 230.5,-513 391.5,-513 391.5,-461 230.5,-461"/>
<text text-anchor="start" x="238.5" y="-501" font-family="Helvetica,sans-Serif" font-size="10.00">/home/travis/build</text>
<text text-anchor="start" x="238.5" y="-490" font-family="Helvetica,sans-Serif" font-size="10.00">/STORM&#45;IRIT/Radium&#45;Engine</text>
<text text-anchor="start" x="238.5" y="-479" font-family="Helvetica,sans-Serif" font-size="10.00">/Plugins/Animation/src/Animation</text>
<text text-anchor="middle" x="311" y="-468" font-family="Helvetica,sans-Serif" font-size="10.00">System.hpp</text>
</g>
<!-- Node2 -->
<g id="node2" class="node"><title>Node2</title>
<g id="a_node2"><a xlink:href="TimedSystem_8hpp.html" target="_top" xlink:title="Engine/System/TimedSystem.hpp">
<polygon fill="white" stroke="black" points="228,-404.5 228,-423.5 394,-423.5 394,-404.5 228,-404.5"/>
<text text-anchor="middle" x="311" y="-411.5" font-family="Helvetica,sans-Serif" font-size="10.00">Engine/System/TimedSystem.hpp</text>
</a>
</g>
</g>
<!-- Node1&#45;&gt;Node2 -->
<g id="edge1" class="edge"><title>Node1&#45;&gt;Node2</title>
<path fill="none" stroke="midnightblue" d="M311,-460.768C311,-451.89 311,-442.074 311,-433.816"/>
<polygon fill="midnightblue" stroke="midnightblue" points="314.5,-433.757 311,-423.757 307.5,-433.757 314.5,-433.757"/>
</g>
<!-- Node15 -->
<g id="node15" class="node"><title>Node15</title>
<g id="a_node15"><a xlink:href="AnimationPluginMacros_8hpp.html" target="_top" xlink:title="AnimationPluginMacros.hpp">
<polygon fill="white" stroke="black" points="0,-404.5 0,-423.5 138,-423.5 138,-404.5 0,-404.5"/>
<text text-anchor="middle" x="69" y="-411.5" font-family="Helvetica,sans-Serif" font-size="10.00">AnimationPluginMacros.hpp</text>
</a>
</g>
</g>
<!-- Node1&#45;&gt;Node15 -->
<g id="edge18" class="edge"><title>Node1&#45;&gt;Node15</title>
<path fill="none" stroke="midnightblue" d="M230.418,-462.358C189.173,-450.257 140.85,-436.08 107.9,-426.413"/>
<polygon fill="midnightblue" stroke="midnightblue" points="108.774,-423.022 98.1927,-423.565 106.803,-429.739 108.774,-423.022"/>
</g>
<!-- Node16 -->
<g id="node16" class="node"><title>Node16</title>
<g id="a_node16"><a xlink:href="ItemEntry_8hpp.html" target="_top" xlink:title="Engine/ItemModel/ItemEntry.hpp">
<polygon fill="white" stroke="black" points="560,-404.5 560,-423.5 720,-423.5 720,-404.5 560,-404.5"/>
<text text-anchor="middle" x="640" y="-411.5" font-family="Helvetica,sans-Serif" font-size="10.00">Engine/ItemModel/ItemEntry.hpp</text>
</a>
</g>
</g>
<!-- Node1&#45;&gt;Node16 -->
<g id="edge20" class="edge"><title>Node1&#45;&gt;Node16</title>
<path fill="none" stroke="midnightblue" d="M391.904,-468.541C453.977,-455.145 537.678,-437.082 590.241,-425.738"/>
<polygon fill="midnightblue" stroke="midnightblue" points="591.286,-429.093 600.323,-423.563 589.809,-422.251 591.286,-429.093"/>
</g>
<!-- Node3 -->
<g id="node3" class="node"><title>Node3</title>
<g id="a_node3"><a xlink:href="RaEngine_8hpp.html" target="_top" xlink:title="Engine/RaEngine.hpp">
<polygon fill="white" stroke="black" points="399.5,-236.5 399.5,-255.5 510.5,-255.5 510.5,-236.5 399.5,-236.5"/>
<text text-anchor="middle" x="455" y="-243.5" font-family="Helvetica,sans-Serif" font-size="10.00">Engine/RaEngine.hpp</text>
</a>
</g>
</g>
<!-- Node2&#45;&gt;Node3 -->
<g id="edge2" class="edge"><title>Node2&#45;&gt;Node3</title>
<path fill="none" stroke="midnightblue" d="M318.742,-404.075C341.9,-377.38 410.876,-297.865 440.841,-263.322"/>
<polygon fill="midnightblue" stroke="midnightblue" points="443.658,-265.416 447.567,-255.568 438.371,-260.829 443.658,-265.416"/>
</g>
<!-- Node10 -->
<g id="node10" class="node"><title>Node10</title>
<g id="a_node10"><a xlink:href="CouplingSystem_8hpp.html" target="_top" xlink:title="Engine/System/CouplingSystem.hpp">
<polygon fill="white" stroke="black" points="110.5,-348.5 110.5,-367.5 287.5,-367.5 287.5,-348.5 110.5,-348.5"/>
<text text-anchor="middle" x="199" y="-355.5" font-family="Helvetica,sans-Serif" font-size="10.00">Engine/System/CouplingSystem.hpp</text>
</a>
</g>
</g>
<!-- Node2&#45;&gt;Node10 -->
<g id="edge9" class="edge"><title>Node2&#45;&gt;Node10</title>
<path fill="none" stroke="midnightblue" d="M293.005,-404.324C274.962,-395.625 246.953,-382.12 226.197,-372.113"/>
<polygon fill="midnightblue" stroke="midnightblue" points="227.478,-368.845 216.95,-367.655 224.438,-375.15 227.478,-368.845"/>
</g>
<!-- Node4 -->
<g id="node4" class="node"><title>Node4</title>
<g id="a_node4"><a xlink:href="CoreMacros_8hpp.html" target="_top" xlink:title="Core/CoreMacros.hpp">
<polygon fill="white" stroke="black" points="434.5,-56.5 434.5,-75.5 547.5,-75.5 547.5,-56.5 434.5,-56.5"/>
<text text-anchor="middle" x="491" y="-63.5" font-family="Helvetica,sans-Serif" font-size="10.00">Core/CoreMacros.hpp</text>
</a>
</g>
</g>
<!-- Node3&#45;&gt;Node4 -->
<g id="edge3" class="edge"><title>Node3&#45;&gt;Node4</title>
<path fill="none" stroke="midnightblue" d="M454.345,-236.353C452.988,-214.792 451.064,-157.135 465,-112 468.023,-102.21 473.48,-92.25 478.617,-84.198"/>
<polygon fill="midnightblue" stroke="midnightblue" points="481.631,-85.99 484.336,-75.7462 475.833,-82.0673 481.631,-85.99"/>
</g>
<!-- Node5 -->
<g id="node5" class="node"><title>Node5</title>
<polygon fill="white" stroke="#bfbfbf" points="335.5,-0.5 335.5,-19.5 384.5,-19.5 384.5,-0.5 335.5,-0.5"/>
<text text-anchor="middle" x="360" y="-7.5" font-family="Helvetica,sans-Serif" font-size="10.00">cassert</text>
</g>
<!-- Node4&#45;&gt;Node5 -->
<g id="edge4" class="edge"><title>Node4&#45;&gt;Node5</title>
<path fill="none" stroke="midnightblue" d="M470.243,-56.4435C448.684,-47.5566 414.737,-33.5632 390.206,-23.4514"/>
<polygon fill="midnightblue" stroke="midnightblue" points="391.239,-20.0917 380.66,-19.5164 388.572,-26.5634 391.239,-20.0917"/>
</g>
<!-- Node6 -->
<g id="node6" class="node"><title>Node6</title>
<polygon fill="white" stroke="#bfbfbf" points="402.5,-0.5 402.5,-19.5 445.5,-19.5 445.5,-0.5 402.5,-0.5"/>
<text text-anchor="middle" x="424" y="-7.5" font-family="Helvetica,sans-Serif" font-size="10.00">cstdio</text>
</g>
<!-- Node4&#45;&gt;Node6 -->
<g id="edge5" class="edge"><title>Node4&#45;&gt;Node6</title>
<path fill="none" stroke="midnightblue" d="M480.235,-56.324C470.234,-48.2631 455.113,-36.0765 443.07,-26.3695"/>
<polygon fill="midnightblue" stroke="midnightblue" points="444.943,-23.3841 434.961,-19.8339 440.55,-28.8343 444.943,-23.3841"/>
</g>
<!-- Node7 -->
<g id="node7" class="node"><title>Node7</title>
<polygon fill="white" stroke="#bfbfbf" points="464,-0.5 464,-19.5 518,-19.5 518,-0.5 464,-0.5"/>
<text text-anchor="middle" x="491" y="-7.5" font-family="Helvetica,sans-Serif" font-size="10.00">iostream</text>
</g>
<!-- Node4&#45;&gt;Node7 -->
<g id="edge6" class="edge"><title>Node4&#45;&gt;Node7</title>
<path fill="none" stroke="midnightblue" d="M491,-56.083C491,-49.0059 491,-38.8611 491,-29.9865"/>
<polygon fill="midnightblue" stroke="midnightblue" points="494.5,-29.751 491,-19.7511 487.5,-29.7511 494.5,-29.751"/>
</g>
<!-- Node8 -->
<g id="node8" class="node"><title>Node8</title>
<polygon fill="white" stroke="#bfbfbf" points="536,-0.5 536,-19.5 588,-19.5 588,-0.5 536,-0.5"/>
<text text-anchor="middle" x="562" y="-7.5" font-family="Helvetica,sans-Serif" font-size="10.00">sstream</text>
</g>
<!-- Node4&#45;&gt;Node8 -->
<g id="edge7" class="edge"><title>Node4&#45;&gt;Node8</title>
<path fill="none" stroke="midnightblue" d="M502.407,-56.324C513.109,-48.1849 529.341,-35.8395 542.163,-26.0874"/>
<polygon fill="midnightblue" stroke="midnightblue" points="544.544,-28.6734 550.385,-19.8339 540.307,-23.1018 544.544,-28.6734"/>
</g>
<!-- Node9 -->
<g id="node9" class="node"><title>Node9</title>
<polygon fill="white" stroke="#bfbfbf" points="606,-0.5 606,-19.5 650,-19.5 650,-0.5 606,-0.5"/>
<text text-anchor="middle" x="628" y="-7.5" font-family="Helvetica,sans-Serif" font-size="10.00">thread</text>
</g>
<!-- Node4&#45;&gt;Node9 -->
<g id="edge8" class="edge"><title>Node4&#45;&gt;Node9</title>
<path fill="none" stroke="midnightblue" d="M512.708,-56.4435C535.355,-47.5171 571.072,-33.4387 596.752,-23.3168"/>
<polygon fill="midnightblue" stroke="midnightblue" points="598.374,-26.4397 606.394,-19.5164 595.807,-19.9273 598.374,-26.4397"/>
</g>
<!-- Node10&#45;&gt;Node3 -->
<g id="edge10" class="edge"><title>Node10&#45;&gt;Node3</title>
<path fill="none" stroke="midnightblue" d="M248.588,-348.44C282.477,-341.432 327.809,-329.741 365,-312 392.507,-298.878 420.371,-277.167 437.655,-262.484"/>
<polygon fill="midnightblue" stroke="midnightblue" points="439.978,-265.103 445.243,-255.909 435.393,-259.813 439.978,-265.103"/>
</g>
<!-- Node11 -->
<g id="node11" class="node"><title>Node11</title>
<g id="a_node11"><a xlink:href="System_8hpp.html" target="_top" xlink:title="Engine/System/System.hpp">
<polygon fill="white" stroke="black" points="217.5,-292.5 217.5,-311.5 356.5,-311.5 356.5,-292.5 217.5,-292.5"/>
<text text-anchor="middle" x="287" y="-299.5" font-family="Helvetica,sans-Serif" font-size="10.00">Engine/System/System.hpp</text>
</a>
</g>
</g>
<!-- Node10&#45;&gt;Node11 -->
<g id="edge11" class="edge"><title>Node10&#45;&gt;Node11</title>
<path fill="none" stroke="midnightblue" d="M213.139,-348.324C226.866,-339.9 247.936,-326.971 264.064,-317.074"/>
<polygon fill="midnightblue" stroke="midnightblue" points="266.204,-319.868 272.896,-311.655 262.543,-313.902 266.204,-319.868"/>
</g>
<!-- Node12 -->
<g id="node12" class="node"><title>Node12</title>
<polygon fill="white" stroke="#bfbfbf" points="335,-236.5 335,-255.5 379,-255.5 379,-236.5 335,-236.5"/>
<text text-anchor="middle" x="357" y="-243.5" font-family="Helvetica,sans-Serif" font-size="10.00">vector</text>
</g>
<!-- Node10&#45;&gt;Node12 -->
<g id="edge17" class="edge"><title>Node10&#45;&gt;Node12</title>
<path fill="none" stroke="midnightblue" d="M176.558,-348.35C149.346,-336.605 109.302,-314.487 128,-292 156.034,-258.285 279.187,-265.465 322,-256 322.911,-255.799 323.835,-255.59 324.766,-255.376"/>
<polygon fill="midnightblue" stroke="midnightblue" points="325.939,-258.694 334.836,-252.942 324.294,-251.89 325.939,-258.694"/>
</g>
<!-- Node13 -->
<g id="node13" class="node"><title>Node13</title>
<polygon fill="white" stroke="#bfbfbf" points="261,-236.5 261,-255.5 313,-255.5 313,-236.5 261,-236.5"/>
<text text-anchor="middle" x="287" y="-243.5" font-family="Helvetica,sans-Serif" font-size="10.00">memory</text>
</g>
<!-- Node10&#45;&gt;Node13 -->
<g id="edge15" class="edge"><title>Node10&#45;&gt;Node13</title>
<path fill="none" stroke="midnightblue" d="M159.954,-348.452C122.091,-338.344 73.308,-319.364 95,-292 114.062,-267.954 200.562,-255.52 250.715,-250.225"/>
<polygon fill="midnightblue" stroke="midnightblue" points="251.231,-253.691 260.828,-249.202 250.527,-246.726 251.231,-253.691"/>
</g>
<!-- Node14 -->
<g id="node14" class="node"><title>Node14</title>
<polygon fill="white" stroke="#bfbfbf" points="137,-292.5 137,-311.5 199,-311.5 199,-292.5 137,-292.5"/>
<text text-anchor="middle" x="168" y="-299.5" font-family="Helvetica,sans-Serif" font-size="10.00">type_traits</text>
</g>
<!-- Node10&#45;&gt;Node14 -->
<g id="edge16" class="edge"><title>Node10&#45;&gt;Node14</title>
<path fill="none" stroke="midnightblue" d="M193.881,-348.083C189.592,-340.613 183.342,-329.724 178.058,-320.52"/>
<polygon fill="midnightblue" stroke="midnightblue" points="181.038,-318.681 173.024,-311.751 174.967,-322.166 181.038,-318.681"/>
</g>
<!-- Node11&#45;&gt;Node3 -->
<g id="edge12" class="edge"><title>Node11&#45;&gt;Node3</title>
<path fill="none" stroke="midnightblue" d="M313.62,-292.444C342.006,-283.32 387.137,-268.813 418.753,-258.651"/>
<polygon fill="midnightblue" stroke="midnightblue" points="420.055,-261.909 428.504,-255.516 417.913,-255.244 420.055,-261.909"/>
</g>
<!-- Node11&#45;&gt;Node12 -->
<g id="edge13" class="edge"><title>Node11&#45;&gt;Node12</title>
<path fill="none" stroke="midnightblue" d="M298.247,-292.324C308.797,-284.185 324.801,-271.839 337.442,-262.087"/>
<polygon fill="midnightblue" stroke="midnightblue" points="339.769,-264.713 345.549,-255.834 335.493,-259.171 339.769,-264.713"/>
</g>
<!-- Node11&#45;&gt;Node13 -->
<g id="edge14" class="edge"><title>Node11&#45;&gt;Node13</title>
<path fill="none" stroke="midnightblue" d="M287,-292.083C287,-285.006 287,-274.861 287,-265.986"/>
<polygon fill="midnightblue" stroke="midnightblue" points="290.5,-265.751 287,-255.751 283.5,-265.751 290.5,-265.751"/>
</g>
<!-- Node15&#45;&gt;Node4 -->
<g id="edge19" class="edge"><title>Node15&#45;&gt;Node4</title>
<path fill="none" stroke="midnightblue" d="M64.1449,-404.473C54.3184,-386.386 33,-342.585 33,-303 33,-303 33,-303 33,-183 33,-103.238 297.332,-77.7177 424.37,-70.0584"/>
<polygon fill="midnightblue" stroke="midnightblue" points="424.602,-73.5509 434.381,-69.4747 424.194,-66.5628 424.602,-73.5509"/>
</g>
<!-- Node16&#45;&gt;Node3 -->
<g id="edge21" class="edge"><title>Node16&#45;&gt;Node3</title>
<path fill="none" stroke="midnightblue" d="M705.233,-404.47C727.269,-398.123 749.648,-387.103 763,-368 781.122,-342.073 746.367,-301.537 733,-292 699.855,-268.351 592.161,-256.426 520.954,-250.98"/>
<polygon fill="midnightblue" stroke="midnightblue" points="520.957,-247.471 510.726,-250.223 520.44,-254.452 520.957,-247.471"/>
</g>
<!-- Node16&#45;&gt;Node12 -->
<g id="edge26" class="edge"><title>Node16&#45;&gt;Node12</title>
<path fill="none" stroke="midnightblue" d="M559.989,-406.041C501.12,-399.421 427.439,-387.517 404,-368 387.805,-354.514 370.187,-296.148 361.869,-265.679"/>
<polygon fill="midnightblue" stroke="midnightblue" points="365.207,-264.609 359.246,-255.85 358.443,-266.414 365.207,-264.609"/>
</g>
<!-- Node17 -->
<g id="node17" class="node"><title>Node17</title>
<g id="a_node17"><a xlink:href="Index_8hpp.html" target="_top" xlink:title="Core/Index/Index.hpp">
<polygon fill="white" stroke="black" points="585,-348.5 585,-367.5 695,-367.5 695,-348.5 585,-348.5"/>
<text text-anchor="middle" x="640" y="-355.5" font-family="Helvetica,sans-Serif" font-size="10.00">Core/Index/Index.hpp</text>
</a>
</g>
</g>
<!-- Node16&#45;&gt;Node17 -->
<g id="edge22" class="edge"><title>Node16&#45;&gt;Node17</title>
<path fill="none" stroke="midnightblue" d="M640,-404.083C640,-397.006 640,-386.861 640,-377.986"/>
<polygon fill="midnightblue" stroke="midnightblue" points="643.5,-377.751 640,-367.751 636.5,-377.751 643.5,-377.751"/>
</g>
<!-- Node20 -->
<g id="node20" class="node"><title>Node20</title>
<polygon fill="white" stroke="#bfbfbf" points="713.5,-348.5 713.5,-367.5 754.5,-367.5 754.5,-348.5 713.5,-348.5"/>
<text text-anchor="middle" x="734" y="-355.5" font-family="Helvetica,sans-Serif" font-size="10.00">string</text>
</g>
<!-- Node16&#45;&gt;Node20 -->
<g id="edge25" class="edge"><title>Node16&#45;&gt;Node20</title>
<path fill="none" stroke="midnightblue" d="M655.103,-404.324C669.903,-395.822 692.694,-382.729 709.982,-372.797"/>
<polygon fill="midnightblue" stroke="midnightblue" points="712.007,-375.671 718.935,-367.655 708.52,-369.601 712.007,-375.671"/>
</g>
<!-- Node21 -->
<g id="node21" class="node"><title>Node21</title>
<g id="a_node21"><a xlink:href="PickingManager_8hpp.html" target="_top" xlink:title="GuiBase/Utils/PickingManager.hpp">
<polygon fill="white" stroke="black" points="810.5,-348.5 810.5,-367.5 979.5,-367.5 979.5,-348.5 810.5,-348.5"/>
<text text-anchor="middle" x="895" y="-355.5" font-family="Helvetica,sans-Serif" font-size="10.00">GuiBase/Utils/PickingManager.hpp</text>
</a>
</g>
</g>
<!-- Node16&#45;&gt;Node21 -->
<g id="edge27" class="edge"><title>Node16&#45;&gt;Node21</title>
<path fill="none" stroke="midnightblue" d="M680.406,-404.444C724.983,-395.004 796.768,-379.802 844.892,-369.611"/>
<polygon fill="midnightblue" stroke="midnightblue" points="845.726,-373.012 854.784,-367.516 844.275,-366.164 845.726,-373.012"/>
</g>
<!-- Node42 -->
<g id="node42" class="node"><title>Node42</title>
<g id="a_node42"><a xlink:href="ItemEntry_8inl.html" target="_top" xlink:title="Engine/ItemModel/ItemEntry.inl">
<polygon fill="white" stroke="black" points="413,-348.5 413,-367.5 567,-367.5 567,-348.5 413,-348.5"/>
<text text-anchor="middle" x="490" y="-355.5" font-family="Helvetica,sans-Serif" font-size="10.00">Engine/ItemModel/ItemEntry.inl</text>
</a>
</g>
</g>
<!-- Node16&#45;&gt;Node42 -->
<g id="edge58" class="edge"><title>Node16&#45;&gt;Node42</title>
<path fill="none" stroke="midnightblue" d="M616.232,-404.444C591.107,-395.399 551.289,-381.064 523.1,-370.916"/>
<polygon fill="midnightblue" stroke="midnightblue" points="524.251,-367.611 513.657,-367.516 521.88,-374.197 524.251,-367.611"/>
</g>
<!-- Node18 -->
<g id="node18" class="node"><title>Node18</title>
<polygon fill="white" stroke="#bfbfbf" points="562,-292.5 562,-311.5 602,-311.5 602,-292.5 562,-292.5"/>
<text text-anchor="middle" x="582" y="-299.5" font-family="Helvetica,sans-Serif" font-size="10.00">limits</text>
</g>
<!-- Node17&#45;&gt;Node18 -->
<g id="edge23" class="edge"><title>Node17&#45;&gt;Node18</title>
<path fill="none" stroke="midnightblue" d="M630.681,-348.324C622.107,-340.341 609.188,-328.313 598.812,-318.653"/>
<polygon fill="midnightblue" stroke="midnightblue" points="601.192,-316.086 591.488,-311.834 596.422,-321.21 601.192,-316.086"/>
</g>
<!-- Node19 -->
<g id="node19" class="node"><title>Node19</title>
<g id="a_node19"><a xlink:href="Index_8inl.html" target="_top" xlink:title="Core/Index/Index.inl">
<polygon fill="white" stroke="black" points="620,-292.5 620,-311.5 724,-311.5 724,-292.5 620,-292.5"/>
<text text-anchor="middle" x="672" y="-299.5" font-family="Helvetica,sans-Serif" font-size="10.00">Core/Index/Index.inl</text>
</a>
</g>
</g>
<!-- Node17&#45;&gt;Node19 -->
<g id="edge24" class="edge"><title>Node17&#45;&gt;Node19</title>
<path fill="none" stroke="midnightblue" d="M645.284,-348.083C649.711,-340.613 656.163,-329.724 661.618,-320.52"/>
<polygon fill="midnightblue" stroke="midnightblue" points="664.727,-322.138 666.814,-311.751 658.705,-318.57 664.727,-322.138"/>
</g>
<!-- Node22 -->
<g id="node22" class="node"><title>Node22</title>
<g id="a_node22"><a xlink:href="RaGuiBase_8hpp.html" target="_top" xlink:title="GuiBase/RaGuiBase.hpp">
<polygon fill="white" stroke="black" points="474,-112.5 474,-131.5 600,-131.5 600,-112.5 474,-112.5"/>
<text text-anchor="middle" x="537" y="-119.5" font-family="Helvetica,sans-Serif" font-size="10.00">GuiBase/RaGuiBase.hpp</text>
</a>
</g>
</g>
<!-- Node21&#45;&gt;Node22 -->
<g id="edge28" class="edge"><title>Node21&#45;&gt;Node22</title>
<path fill="none" stroke="midnightblue" d="M894.524,-348.056C893.291,-334.086 888.868,-307.124 873,-292 765.257,-189.315 650.938,-310.295 551,-200 536.706,-184.224 534.664,-158.916 535.232,-141.653"/>
<polygon fill="midnightblue" stroke="midnightblue" points="538.726,-141.857 535.879,-131.652 531.741,-141.405 538.726,-141.857"/>
</g>
<!-- Node23 -->
<g id="node23" class="node"><title>Node23</title>
<g id="a_node23"><a xlink:href="Renderer_8hpp.html" target="_top" xlink:title="Engine/Renderer/Renderer.hpp">
<polygon fill="white" stroke="black" points="929.5,-292.5 929.5,-311.5 1080.5,-311.5 1080.5,-292.5 929.5,-292.5"/>
<text text-anchor="middle" x="1005" y="-299.5" font-family="Helvetica,sans-Serif" font-size="10.00">Engine/Renderer/Renderer.hpp</text>
</a>
</g>
</g>
<!-- Node21&#45;&gt;Node23 -->
<g id="edge30" class="edge"><title>Node21&#45;&gt;Node23</title>
<path fill="none" stroke="midnightblue" d="M912.673,-348.324C930.394,-339.625 957.903,-326.12 978.288,-316.113"/>
<polygon fill="midnightblue" stroke="midnightblue" points="979.936,-319.203 987.37,-311.655 976.851,-312.919 979.936,-319.203"/>
</g>
<!-- Node41 -->
<g id="node41" class="node"><title>Node41</title>
<polygon fill="white" stroke="#bfbfbf" points="811.5,-292.5 811.5,-311.5 864.5,-311.5 864.5,-292.5 811.5,-292.5"/>
<text text-anchor="middle" x="838" y="-299.5" font-family="Helvetica,sans-Serif" font-size="10.00">QObject</text>
</g>
<!-- Node21&#45;&gt;Node41 -->
<g id="edge57" class="edge"><title>Node21&#45;&gt;Node41</title>
<path fill="none" stroke="midnightblue" d="M885.842,-348.324C877.499,-340.42 864.968,-328.548 854.823,-318.938"/>
<polygon fill="midnightblue" stroke="midnightblue" points="856.991,-316.171 847.325,-311.834 852.177,-321.252 856.991,-316.171"/>
</g>
<!-- Node22&#45;&gt;Node4 -->
<g id="edge29" class="edge"><title>Node22&#45;&gt;Node4</title>
<path fill="none" stroke="midnightblue" d="M529.404,-112.083C522.773,-104.298 512.979,-92.8015 504.942,-83.3665"/>
<polygon fill="midnightblue" stroke="midnightblue" points="507.604,-81.0939 498.455,-75.7511 502.275,-85.6332 507.604,-81.0939"/>
</g>
<!-- Node23&#45;&gt;Node3 -->
<g id="edge31" class="edge"><title>Node23&#45;&gt;Node3</title>
<path fill="none" stroke="midnightblue" d="M929.39,-293.577C821.074,-282.942 623.513,-263.545 520.866,-253.467"/>
<polygon fill="midnightblue" stroke="midnightblue" points="520.928,-249.956 510.633,-252.462 520.244,-256.923 520.928,-249.956"/>
</g>
<!-- Node23&#45;&gt;Node12 -->
<g id="edge36" class="edge"><title>Node23&#45;&gt;Node12</title>
<path fill="none" stroke="midnightblue" d="M929.222,-295.847C770.624,-285.008 416.149,-260.479 390,-256 389.671,-255.944 389.34,-255.885 389.008,-255.825"/>
<polygon fill="midnightblue" stroke="midnightblue" points="389.752,-252.405 379.236,-253.691 388.258,-259.244 389.752,-252.405"/>
</g>
<!-- Node23&#45;&gt;Node13 -->
<g id="edge34" class="edge"><title>Node23&#45;&gt;Node13</title>
<path fill="none" stroke="midnightblue" d="M929.266,-295.806C910.854,-294.551 891.22,-293.221 873,-292 629.908,-275.713 567.036,-291.507 326,-256 325.098,-255.867 324.185,-255.724 323.267,-255.573"/>
<polygon fill="midnightblue" stroke="midnightblue" points="323.802,-252.112 313.324,-253.68 322.493,-258.988 323.802,-252.112"/>
</g>
<!-- Node24 -->
<g id="node24" class="node"><title>Node24</title>
<polygon fill="white" stroke="#bfbfbf" points="1002,-236.5 1002,-255.5 1040,-255.5 1040,-236.5 1002,-236.5"/>
<text text-anchor="middle" x="1021" y="-243.5" font-family="Helvetica,sans-Serif" font-size="10.00">array</text>
</g>
<!-- Node23&#45;&gt;Node24 -->
<g id="edge32" class="edge"><title>Node23&#45;&gt;Node24</title>
<path fill="none" stroke="midnightblue" d="M1007.64,-292.083C1009.79,-284.849 1012.88,-274.409 1015.55,-265.397"/>
<polygon fill="midnightblue" stroke="midnightblue" points="1018.92,-266.333 1018.41,-255.751 1012.21,-264.345 1018.92,-266.333"/>
</g>
<!-- Node25 -->
<g id="node25" class="node"><title>Node25</title>
<polygon fill="white" stroke="#bfbfbf" points="1425,-174.5 1425,-193.5 1471,-193.5 1471,-174.5 1425,-174.5"/>
<text text-anchor="middle" x="1448" y="-181.5" font-family="Helvetica,sans-Serif" font-size="10.00">chrono</text>
</g>
<!-- Node23&#45;&gt;Node25 -->
<g id="edge33" class="edge"><title>Node23&#45;&gt;Node25</title>
<path fill="none" stroke="midnightblue" d="M1080.77,-292.671C1134.75,-285.665 1208.67,-273.884 1272,-256 1326.54,-240.598 1387.25,-213.837 1421.22,-197.937"/>
<polygon fill="midnightblue" stroke="midnightblue" points="1422.91,-201.005 1430.46,-193.567 1419.92,-194.677 1422.91,-201.005"/>
</g>
<!-- Node26 -->
<g id="node26" class="node"><title>Node26</title>
<polygon fill="white" stroke="#bfbfbf" points="1220,-236.5 1220,-255.5 1264,-255.5 1264,-236.5 1220,-236.5"/>
<text text-anchor="middle" x="1242" y="-243.5" font-family="Helvetica,sans-Serif" font-size="10.00">mutex</text>
</g>
<!-- Node23&#45;&gt;Node26 -->
<g id="edge35" class="edge"><title>Node23&#45;&gt;Node26</title>
<path fill="none" stroke="midnightblue" d="M1048.2,-292.446C1087.9,-284.39 1148.57,-271.582 1209.86,-256.166"/>
<polygon fill="midnightblue" stroke="midnightblue" points="1210.87,-259.522 1219.7,-253.67 1209.14,-252.736 1210.87,-259.522"/>
</g>
<!-- Node27 -->
<g id="node27" class="node"><title>Node27</title>
<g id="a_node27"><a xlink:href="EventEnums_8hpp.html" target="_top" xlink:title="Core/Event/EventEnums.hpp">
<polygon fill="white" stroke="black" points="1058,-236.5 1058,-255.5 1202,-255.5 1202,-236.5 1058,-236.5"/>
<text text-anchor="middle" x="1130" y="-243.5" font-family="Helvetica,sans-Serif" font-size="10.00">Core/Event/EventEnums.hpp</text>
</a>
</g>
</g>
<!-- Node23&#45;&gt;Node27 -->
<g id="edge37" class="edge"><title>Node23&#45;&gt;Node27</title>
<path fill="none" stroke="midnightblue" d="M1024.81,-292.444C1045.29,-283.596 1077.48,-269.687 1100.86,-259.586"/>
<polygon fill="midnightblue" stroke="midnightblue" points="1102.49,-262.695 1110.29,-255.516 1099.72,-256.269 1102.49,-262.695"/>
</g>
<!-- Node29 -->
<g id="node29" class="node"><title>Node29</title>
<g id="a_node29"><a xlink:href="LinearAlgebra_8hpp.html" target="_top" xlink:title="Core/Math/LinearAlgebra.hpp">
<polygon fill="white" stroke="black" points="840.5,-236.5 840.5,-255.5 983.5,-255.5 983.5,-236.5 840.5,-236.5"/>
<text text-anchor="middle" x="912" y="-243.5" font-family="Helvetica,sans-Serif" font-size="10.00">Core/Math/LinearAlgebra.hpp</text>
</a>
</g>
</g>
<!-- Node23&#45;&gt;Node29 -->
<g id="edge40" class="edge"><title>Node23&#45;&gt;Node29</title>
<path fill="none" stroke="midnightblue" d="M990.058,-292.324C975.415,-283.822 952.866,-270.729 935.762,-260.797"/>
<polygon fill="midnightblue" stroke="midnightblue" points="937.31,-257.649 926.905,-255.655 933.795,-263.703 937.31,-257.649"/>
</g>
<!-- Node40 -->
<g id="node40" class="node"><title>Node40</title>
<g id="a_node40"><a xlink:href="Timer_8hpp.html" target="_top" xlink:title="Core/Time/Timer.hpp">
<polygon fill="white" stroke="black" points="1393.5,-236.5 1393.5,-255.5 1502.5,-255.5 1502.5,-236.5 1393.5,-236.5"/>
<text text-anchor="middle" x="1448" y="-243.5" font-family="Helvetica,sans-Serif" font-size="10.00">Core/Time/Timer.hpp</text>
</a>
</g>
</g>
<!-- Node23&#45;&gt;Node40 -->
<g id="edge54" class="edge"><title>Node23&#45;&gt;Node40</title>
<path fill="none" stroke="midnightblue" d="M1075.19,-292.444C1159.98,-282.109 1301.41,-264.869 1383.54,-254.858"/>
<polygon fill="midnightblue" stroke="midnightblue" points="1383.99,-258.328 1393.5,-253.644 1383.15,-251.38 1383.99,-258.328"/>
</g>
<!-- Node28 -->
<g id="node28" class="node"><title>Node28</title>
<g id="a_node28"><a xlink:href="RaCore_8hpp.html" target="_top" xlink:title="Core/RaCore.hpp">
<polygon fill="white" stroke="black" points="1312.5,-112.5 1312.5,-131.5 1405.5,-131.5 1405.5,-112.5 1312.5,-112.5"/>
<text text-anchor="middle" x="1359" y="-119.5" font-family="Helvetica,sans-Serif" font-size="10.00">Core/RaCore.hpp</text>
</a>
</g>
</g>
<!-- Node27&#45;&gt;Node28 -->
<g id="edge38" class="edge"><title>Node27&#45;&gt;Node28</title>
<path fill="none" stroke="midnightblue" d="M1200.99,-236.493C1268.69,-227.652 1361.96,-213.276 1373,-200 1386.8,-183.409 1378.09,-157.766 1369.49,-140.689"/>
<polygon fill="midnightblue" stroke="midnightblue" points="1372.47,-138.854 1364.6,-131.757 1366.33,-142.211 1372.47,-138.854"/>
</g>
<!-- Node28&#45;&gt;Node4 -->
<g id="edge39" class="edge"><title>Node28&#45;&gt;Node4</title>
<path fill="none" stroke="midnightblue" d="M1312.33,-118.097C1167.66,-109.096 726.289,-81.6378 557.554,-71.1405"/>
<polygon fill="midnightblue" stroke="midnightblue" points="557.758,-67.6465 547.56,-70.5187 557.323,-74.6329 557.758,-67.6465"/>
</g>
<!-- Node29&#45;&gt;Node28 -->
<g id="edge41" class="edge"><title>Node29&#45;&gt;Node28</title>
<path fill="none" stroke="midnightblue" d="M983.551,-237.023C986.744,-236.675 989.905,-236.333 993,-236 1069.86,-227.732 1280.38,-250.399 1339,-200 1355.57,-185.75 1359.3,-159.694 1359.73,-141.873"/>
<polygon fill="midnightblue" stroke="midnightblue" points="1363.23,-141.76 1359.65,-131.79 1356.23,-141.818 1363.23,-141.76"/>
</g>
<!-- Node30 -->
<g id="node30" class="node"><title>Node30</title>
<polygon fill="white" stroke="#bfbfbf" points="1265.5,-174.5 1265.5,-193.5 1330.5,-193.5 1330.5,-174.5 1265.5,-174.5"/>
<text text-anchor="middle" x="1298" y="-181.5" font-family="Helvetica,sans-Serif" font-size="10.00">Eigen/Core</text>
</g>
<!-- Node29&#45;&gt;Node30 -->
<g id="edge42" class="edge"><title>Node29&#45;&gt;Node30</title>
<path fill="none" stroke="midnightblue" d="M983.445,-236.478C1076.43,-225.259 1230.16,-206.228 1256,-200 1259.68,-199.113 1263.48,-198.018 1267.23,-196.827"/>
<polygon fill="midnightblue" stroke="midnightblue" points="1268.57,-200.069 1276.9,-193.525 1266.31,-193.445 1268.57,-200.069"/>
</g>
<!-- Node31 -->
<g id="node31" class="node"><title>Node31</title>
<polygon fill="white" stroke="#bfbfbf" points="560.5,-174.5 560.5,-193.5 647.5,-193.5 647.5,-174.5 560.5,-174.5"/>
<text text-anchor="middle" x="604" y="-181.5" font-family="Helvetica,sans-Serif" font-size="10.00">Eigen/Geometry</text>
</g>
<!-- Node29&#45;&gt;Node31 -->
<g id="edge43" class="edge"><title>Node29&#45;&gt;Node31</title>
<path fill="none" stroke="midnightblue" d="M853.938,-236.468C802.033,-228.435 724.044,-215.362 657,-200 652.185,-198.897 647.155,-197.628 642.193,-196.305"/>
<polygon fill="midnightblue" stroke="midnightblue" points="642.765,-192.833 632.194,-193.551 640.906,-199.581 642.765,-192.833"/>
</g>
<!-- Node32 -->
<g id="node32" class="node"><title>Node32</title>
<polygon fill="white" stroke="#bfbfbf" points="789.5,-174.5 789.5,-193.5 864.5,-193.5 864.5,-174.5 789.5,-174.5"/>
<text text-anchor="middle" x="827" y="-181.5" font-family="Helvetica,sans-Serif" font-size="10.00">Eigen/Sparse</text>
</g>
<!-- Node29&#45;&gt;Node32 -->
<g id="edge44" class="edge"><title>Node29&#45;&gt;Node32</title>
<path fill="none" stroke="midnightblue" d="M899.822,-236.403C886.188,-226.78 863.868,-211.024 847.526,-199.489"/>
<polygon fill="midnightblue" stroke="midnightblue" points="849.344,-196.488 839.156,-193.581 845.307,-202.207 849.344,-196.488"/>
</g>
<!-- Node33 -->
<g id="node33" class="node"><title>Node33</title>
<polygon fill="white" stroke="#bfbfbf" points="882.5,-174.5 882.5,-193.5 941.5,-193.5 941.5,-174.5 882.5,-174.5"/>
<text text-anchor="middle" x="912" y="-181.5" font-family="Helvetica,sans-Serif" font-size="10.00">functional</text>
</g>
<!-- Node29&#45;&gt;Node33 -->
<g id="edge45" class="edge"><title>Node29&#45;&gt;Node33</title>
<path fill="none" stroke="midnightblue" d="M912,-236.403C912,-227.938 912,-214.728 912,-203.82"/>
<polygon fill="midnightblue" stroke="midnightblue" points="915.5,-203.581 912,-193.581 908.5,-203.581 915.5,-203.581"/>
</g>
<!-- Node34 -->
<g id="node34" class="node"><title>Node34</title>
<polygon fill="white" stroke="#bfbfbf" points="959.5,-169 959.5,-199 1092.5,-199 1092.5,-169 959.5,-169"/>
<text text-anchor="start" x="967.5" y="-187" font-family="Helvetica,sans-Serif" font-size="10.00">unsupported/Eigen/Aligned</text>
<text text-anchor="middle" x="1026" y="-176" font-family="Helvetica,sans-Serif" font-size="10.00">Vector3</text>
</g>
<!-- Node29&#45;&gt;Node34 -->
<g id="edge46" class="edge"><title>Node29&#45;&gt;Node34</title>
<path fill="none" stroke="midnightblue" d="M928.333,-236.403C944.422,-227.936 969.531,-214.72 990.261,-203.81"/>
<polygon fill="midnightblue" stroke="midnightblue" points="991.913,-206.896 999.132,-199.141 988.653,-200.701 991.913,-206.896"/>
</g>
<!-- Node35 -->
<g id="node35" class="node"><title>Node35</title>
<g id="a_node35"><a xlink:href="Math_8hpp.html" target="_top" xlink:title="Core/Math/Math.hpp">
<polygon fill="white" stroke="black" points="666,-174.5 666,-193.5 772,-193.5 772,-174.5 666,-174.5"/>
<text text-anchor="middle" x="719" y="-181.5" font-family="Helvetica,sans-Serif" font-size="10.00">Core/Math/Math.hpp</text>
</a>
</g>
</g>
<!-- Node29&#45;&gt;Node35 -->
<g id="edge47" class="edge"><title>Node29&#45;&gt;Node35</title>
<path fill="none" stroke="midnightblue" d="M884.348,-236.403C850.668,-225.933 793.643,-208.205 756.153,-196.55"/>
<polygon fill="midnightblue" stroke="midnightblue" points="757.189,-193.207 746.601,-193.581 755.111,-199.892 757.189,-193.207"/>
</g>
<!-- Node39 -->
<g id="node39" class="node"><title>Node39</title>
<g id="a_node39"><a xlink:href="LinearAlgebra_8inl.html" target="_top" xlink:title="Core/Math/LinearAlgebra.inl">
<polygon fill="white" stroke="black" points="1110.5,-174.5 1110.5,-193.5 1247.5,-193.5 1247.5,-174.5 1110.5,-174.5"/>
<text text-anchor="middle" x="1179" y="-181.5" font-family="Helvetica,sans-Serif" font-size="10.00">Core/Math/LinearAlgebra.inl</text>
</a>
</g>
</g>
<!-- Node29&#45;&gt;Node39 -->
<g id="edge53" class="edge"><title>Node29&#45;&gt;Node39</title>
<path fill="none" stroke="midnightblue" d="M949.971,-236.467C997.617,-225.76 1079.35,-207.392 1131.21,-195.74"/>
<polygon fill="midnightblue" stroke="midnightblue" points="1132.17,-199.111 1141.16,-193.503 1130.64,-192.281 1132.17,-199.111"/>
</g>
<!-- Node35&#45;&gt;Node28 -->
<g id="edge48" class="edge"><title>Node35&#45;&gt;Node28</title>
<path fill="none" stroke="midnightblue" d="M749.519,-174.458C759.198,-172.029 769.986,-169.609 780,-168 969.596,-137.531 1197.56,-127.491 1301.86,-124.347"/>
<polygon fill="midnightblue" stroke="midnightblue" points="1302.27,-127.837 1312.16,-124.047 1302.06,-120.84 1302.27,-127.837"/>
</g>
<!-- Node36 -->
<g id="node36" class="node"><title>Node36</title>
<polygon fill="white" stroke="#bfbfbf" points="621,-112.5 621,-131.5 677,-131.5 677,-112.5 621,-112.5"/>
<text text-anchor="middle" x="649" y="-119.5" font-family="Helvetica,sans-Serif" font-size="10.00">algorithm</text>
</g>
<!-- Node35&#45;&gt;Node36 -->
<g id="edge49" class="edge"><title>Node35&#45;&gt;Node36</title>
<path fill="none" stroke="midnightblue" d="M708.971,-174.403C697.951,-164.958 680.04,-149.606 666.657,-138.134"/>
<polygon fill="midnightblue" stroke="midnightblue" points="668.881,-135.431 659.011,-131.581 664.325,-140.746 668.881,-135.431"/>
</g>
<!-- Node37 -->
<g id="node37" class="node"><title>Node37</title>
<polygon fill="white" stroke="#bfbfbf" points="695,-112.5 695,-131.5 739,-131.5 739,-112.5 695,-112.5"/>
<text text-anchor="middle" x="717" y="-119.5" font-family="Helvetica,sans-Serif" font-size="10.00">cmath</text>
</g>
<!-- Node35&#45;&gt;Node37 -->
<g id="edge50" class="edge"><title>Node35&#45;&gt;Node37</title>
<path fill="none" stroke="midnightblue" d="M718.713,-174.403C718.431,-165.938 717.991,-152.728 717.627,-141.82"/>
<polygon fill="midnightblue" stroke="midnightblue" points="721.117,-141.458 717.286,-131.581 714.121,-141.692 721.117,-141.458"/>
</g>
<!-- Node38 -->
<g id="node38" class="node"><title>Node38</title>
<g id="a_node38"><a xlink:href="Math_8inl.html" target="_top" xlink:title="Core/Math/Math.inl">
<polygon fill="white" stroke="black" points="757,-112.5 757,-131.5 857,-131.5 857,-112.5 757,-112.5"/>
<text text-anchor="middle" x="807" y="-119.5" font-family="Helvetica,sans-Serif" font-size="10.00">Core/Math/Math.inl</text>
</a>
</g>
</g>
<!-- Node35&#45;&gt;Node38 -->
<g id="edge51" class="edge"><title>Node35&#45;&gt;Node38</title>
<path fill="none" stroke="midnightblue" d="M726.708,-174.403C738.964,-164.601 762.372,-148.439 780.89,-136.853"/>
<polygon fill="midnightblue" stroke="midnightblue" points="782.81,-139.781 789.518,-131.581 779.16,-133.808 782.81,-139.781"/>
</g>
<!-- Node38&#45;&gt;Node35 -->
<g id="edge52" class="edge"><title>Node38&#45;&gt;Node35</title>
<path fill="none" stroke="midnightblue" d="M799.312,-131.581C787.068,-141.376 763.663,-157.538 745.14,-169.129"/>
<polygon fill="midnightblue" stroke="midnightblue" points="743.216,-166.202 736.509,-174.403 746.867,-172.175 743.216,-166.202"/>
</g>
<!-- Node40&#45;&gt;Node25 -->
<g id="edge56" class="edge"><title>Node40&#45;&gt;Node25</title>
<path fill="none" stroke="midnightblue" d="M1448,-236.403C1448,-227.938 1448,-214.728 1448,-203.82"/>
<polygon fill="midnightblue" stroke="midnightblue" points="1451.5,-203.581 1448,-193.581 1444.5,-203.581 1451.5,-203.581"/>
</g>
<!-- Node40&#45;&gt;Node28 -->
<g id="edge55" class="edge"><title>Node40&#45;&gt;Node28</title>
<path fill="none" stroke="midnightblue" d="M1456.86,-236.318C1470.99,-221.399 1495.53,-190.348 1480,-168 1465.33,-146.891 1439.52,-135.664 1415.49,-129.701"/>
<polygon fill="midnightblue" stroke="midnightblue" points="1416.21,-126.277 1405.69,-127.525 1414.7,-133.111 1416.21,-126.277"/>
</g>
</g>
</svg>
