<?xml version="1.0" encoding="UTF-8" standalone="no"?>
<!DOCTYPE svg PUBLIC "-//W3C//DTD SVG 1.1//EN"
 "http://www.w3.org/Graphics/SVG/1.1/DTD/svg11.dtd">
<!-- Generated by graphviz version 2.36.0 (20140111.2315)
 -->
<!-- Title: /home/travis/build/STORM&#45;IRIT/Radium&#45;Engine/src/Core/File/KeyFrame/AnimationTime.hpp Pages: 1 -->
<svg width="2993pt" height="680pt"
 viewBox="0.00 0.00 2993.00 680.00" xmlns="http://www.w3.org/2000/svg" xmlns:xlink="http://www.w3.org/1999/xlink">
<g id="graph0" class="graph" transform="scale(1 1) rotate(0) translate(4 676)">
<title>/home/travis/build/STORM&#45;IRIT/Radium&#45;Engine/src/Core/File/KeyFrame/AnimationTime.hpp</title>
<polygon fill="white" stroke="none" points="-4,4 -4,-676 2989,-676 2989,4 -4,4"/>
<!-- Node1 -->
<g id="node1" class="node"><title>Node1</title>
<polygon fill="#bfbfbf" stroke="black" points="2075,-619 2075,-671 2223,-671 2223,-619 2075,-619"/>
<text text-anchor="start" x="2083" y="-659" font-family="Helvetica,sans-Serif" font-size="10.00">/home/travis/build</text>
<text text-anchor="start" x="2083" y="-648" font-family="Helvetica,sans-Serif" font-size="10.00">/STORM&#45;IRIT/Radium&#45;Engine</text>
<text text-anchor="start" x="2083" y="-637" font-family="Helvetica,sans-Serif" font-size="10.00">/src/Core/File/KeyFrame</text>
<text text-anchor="middle" x="2149" y="-626" font-family="Helvetica,sans-Serif" font-size="10.00">/AnimationTime.hpp</text>
</g>
<!-- Node2 -->
<g id="node2" class="node"><title>Node2</title>
<g id="a_node2"><a xlink:href="AnimationData_8hpp.html" target="_top" xlink:title="/home/travis/build\l/STORM&#45;IRIT/Radium&#45;Engine\l/src/Core/File/AnimationData.hpp">
<polygon fill="white" stroke="black" points="2285,-354.5 2285,-395.5 2447,-395.5 2447,-354.5 2285,-354.5"/>
<text text-anchor="start" x="2293" y="-383.5" font-family="Helvetica,sans-Serif" font-size="10.00">/home/travis/build</text>
<text text-anchor="start" x="2293" y="-372.5" font-family="Helvetica,sans-Serif" font-size="10.00">/STORM&#45;IRIT/Radium&#45;Engine</text>
<text text-anchor="middle" x="2366" y="-361.5" font-family="Helvetica,sans-Serif" font-size="10.00">/src/Core/File/AnimationData.hpp</text>
</a>
</g>
</g>
<!-- Node1&#45;&gt;Node2 -->
<g id="edge1" class="edge"><title>Node1&#45;&gt;Node2</title>
<path fill="none" stroke="midnightblue" d="M2232.69,-617.543C2290.44,-594.41 2362.9,-554.549 2398,-492 2415.48,-460.846 2395.33,-419.555 2380.02,-395.569"/>
<polygon fill="midnightblue" stroke="midnightblue" points="2231.23,-614.355 2223.19,-621.252 2233.78,-620.875 2231.23,-614.355"/>
</g>
<!-- Node27 -->
<g id="node27" class="node"><title>Node27</title>
<g id="a_node27"><a xlink:href="KeyFrame_8hpp.html" target="_top" xlink:title="/home/travis/build\l/STORM&#45;IRIT/Radium&#45;Engine\l/src/Core/File/KeyFrame\l/KeyFrame.hpp">
<polygon fill="white" stroke="black" points="2075,-529 2075,-581 2223,-581 2223,-529 2075,-529"/>
<text text-anchor="start" x="2083" y="-569" font-family="Helvetica,sans-Serif" font-size="10.00">/home/travis/build</text>
<text text-anchor="start" x="2083" y="-558" font-family="Helvetica,sans-Serif" font-size="10.00">/STORM&#45;IRIT/Radium&#45;Engine</text>
<text text-anchor="start" x="2083" y="-547" font-family="Helvetica,sans-Serif" font-size="10.00">/src/Core/File/KeyFrame</text>
<text text-anchor="middle" x="2149" y="-536" font-family="Helvetica,sans-Serif" font-size="10.00">/KeyFrame.hpp</text>
</a>
</g>
</g>
<!-- Node1&#45;&gt;Node27 -->
<g id="edge30" class="edge"><title>Node1&#45;&gt;Node27</title>
<path fill="none" stroke="midnightblue" d="M2149,-608.489C2149,-599.309 2149,-589.616 2149,-581.092"/>
<polygon fill="midnightblue" stroke="midnightblue" points="2145.5,-608.547 2149,-618.547 2152.5,-608.547 2145.5,-608.547"/>
</g>
<!-- Node33 -->
<g id="node33" class="node"><title>Node33</title>
<g id="a_node33"><a xlink:href="AssimpAnimationDataLoader_8hpp.html" target="_top" xlink:title="/home/travis/build\l/STORM&#45;IRIT/Radium&#45;Engine\l/src/IO/AssimpLoader/AssimpAnimation\lDataLoader.hpp">
<polygon fill="white" stroke="black" points="1725.5,-349 1725.5,-401 1916.5,-401 1916.5,-349 1725.5,-349"/>
<text text-anchor="start" x="1733.5" y="-389" font-family="Helvetica,sans-Serif" font-size="10.00">/home/travis/build</text>
<text text-anchor="start" x="1733.5" y="-378" font-family="Helvetica,sans-Serif" font-size="10.00">/STORM&#45;IRIT/Radium&#45;Engine</text>
<text text-anchor="start" x="1733.5" y="-367" font-family="Helvetica,sans-Serif" font-size="10.00">/src/IO/AssimpLoader/AssimpAnimation</text>
<text text-anchor="middle" x="1821" y="-356" font-family="Helvetica,sans-Serif" font-size="10.00">DataLoader.hpp</text>
</a>
</g>
</g>
<!-- Node1&#45;&gt;Node33 -->
<g id="edge42" class="edge"><title>Node1&#45;&gt;Node33</title>
<path fill="none" stroke="midnightblue" d="M2065.05,-618.34C2001.28,-594.878 1915.68,-554.235 1862,-492 1839.54,-465.96 1829.11,-426.792 1824.47,-401.309"/>
<polygon fill="midnightblue" stroke="midnightblue" points="2064.09,-621.716 2074.69,-621.818 2066.47,-615.132 2064.09,-621.716"/>
</g>
<!-- Node3 -->
<g id="node3" class="node"><title>Node3</title>
<g id="a_node3"><a xlink:href="AnimationData_8cpp.html" target="_top" xlink:title="/home/travis/build\l/STORM&#45;IRIT/Radium&#45;Engine\l/src/Core/File/AnimationData.cpp">
<polygon fill="white" stroke="black" points="2225,-264.5 2225,-305.5 2387,-305.5 2387,-264.5 2225,-264.5"/>
<text text-anchor="start" x="2233" y="-293.5" font-family="Helvetica,sans-Serif" font-size="10.00">/home/travis/build</text>
<text text-anchor="start" x="2233" y="-282.5" font-family="Helvetica,sans-Serif" font-size="10.00">/STORM&#45;IRIT/Radium&#45;Engine</text>
<text text-anchor="middle" x="2306" y="-271.5" font-family="Helvetica,sans-Serif" font-size="10.00">/src/Core/File/AnimationData.cpp</text>
</a>
</g>
</g>
<!-- Node2&#45;&gt;Node3 -->
<g id="edge2" class="edge"><title>Node2&#45;&gt;Node3</title>
<path fill="none" stroke="midnightblue" d="M2346.8,-345.845C2337.9,-332.793 2327.54,-317.594 2319.49,-305.78"/>
<polygon fill="midnightblue" stroke="midnightblue" points="2344.16,-348.179 2352.68,-354.47 2349.94,-344.236 2344.16,-348.179"/>
</g>
<!-- Node4 -->
<g id="node4" class="node"><title>Node4</title>
<g id="a_node4"><a xlink:href="AnimationData_8inl.html" target="_top" xlink:title="/home/travis/build\l/STORM&#45;IRIT/Radium&#45;Engine\l/src/Core/File/AnimationData.inl">
<polygon fill="white" stroke="black" points="2405,-264.5 2405,-305.5 2561,-305.5 2561,-264.5 2405,-264.5"/>
<text text-anchor="start" x="2413" y="-293.5" font-family="Helvetica,sans-Serif" font-size="10.00">/home/travis/build</text>
<text text-anchor="start" x="2413" y="-282.5" font-family="Helvetica,sans-Serif" font-size="10.00">/STORM&#45;IRIT/Radium&#45;Engine</text>
<text text-anchor="middle" x="2483" y="-271.5" font-family="Helvetica,sans-Serif" font-size="10.00">/src/Core/File/AnimationData.inl</text>
</a>
</g>
</g>
<!-- Node2&#45;&gt;Node4 -->
<g id="edge3" class="edge"><title>Node2&#45;&gt;Node4</title>
<path fill="none" stroke="midnightblue" d="M2394.24,-348.081C2411.38,-334.558 2433.18,-318.276 2450.96,-305.78"/>
<polygon fill="midnightblue" stroke="midnightblue" points="2391.88,-345.494 2386.25,-354.47 2396.24,-350.964 2391.88,-345.494"/>
</g>
<!-- Node5 -->
<g id="node5" class="node"><title>Node5</title>
<g id="a_node5"><a xlink:href="FileData_8inl.html" target="_top" xlink:title="/home/travis/build\l/STORM&#45;IRIT/Radium&#45;Engine\l/src/Core/File/FileData.inl">
<polygon fill="white" stroke="black" points="2059,-264.5 2059,-305.5 2207,-305.5 2207,-264.5 2059,-264.5"/>
<text text-anchor="start" x="2067" y="-293.5" font-family="Helvetica,sans-Serif" font-size="10.00">/home/travis/build</text>
<text text-anchor="start" x="2067" y="-282.5" font-family="Helvetica,sans-Serif" font-size="10.00">/STORM&#45;IRIT/Radium&#45;Engine</text>
<text text-anchor="middle" x="2133" y="-271.5" font-family="Helvetica,sans-Serif" font-size="10.00">/src/Core/File/FileData.inl</text>
</a>
</g>
</g>
<!-- Node2&#45;&gt;Node5 -->
<g id="edge5" class="edge"><title>Node2&#45;&gt;Node5</title>
<path fill="none" stroke="midnightblue" d="M2304.56,-350.794C2267.32,-336.732 2220.35,-318.989 2184.97,-305.627"/>
<polygon fill="midnightblue" stroke="midnightblue" points="2303.7,-354.211 2314.29,-354.47 2306.17,-347.662 2303.7,-354.211"/>
</g>
<!-- Node22 -->
<g id="node22" class="node"><title>Node22</title>
<g id="a_node22"><a xlink:href="AssimpAnimationDataLoader_8cpp.html" target="_top" xlink:title="/home/travis/build\l/STORM&#45;IRIT/Radium&#45;Engine\l/src/IO/AssimpLoader/AssimpAnimation\lDataLoader.cpp">
<polygon fill="white" stroke="black" points="1849.5,-259 1849.5,-311 2040.5,-311 2040.5,-259 1849.5,-259"/>
<text text-anchor="start" x="1857.5" y="-299" font-family="Helvetica,sans-Serif" font-size="10.00">/home/travis/build</text>
<text text-anchor="start" x="1857.5" y="-288" font-family="Helvetica,sans-Serif" font-size="10.00">/STORM&#45;IRIT/Radium&#45;Engine</text>
<text text-anchor="start" x="1857.5" y="-277" font-family="Helvetica,sans-Serif" font-size="10.00">/src/IO/AssimpLoader/AssimpAnimation</text>
<text text-anchor="middle" x="1945" y="-266" font-family="Helvetica,sans-Serif" font-size="10.00">DataLoader.cpp</text>
</a>
</g>
</g>
<!-- Node2&#45;&gt;Node22 -->
<g id="edge22" class="edge"><title>Node2&#45;&gt;Node22</title>
<path fill="none" stroke="midnightblue" d="M2274.97,-357.362C2211.7,-345.5 2125.51,-328.746 2050,-312 2046.88,-311.309 2043.72,-310.595 2040.52,-309.864"/>
<polygon fill="midnightblue" stroke="midnightblue" points="2274.45,-360.826 2284.92,-359.223 2275.73,-353.945 2274.45,-360.826"/>
</g>
<!-- Node23 -->
<g id="node23" class="node"><title>Node23</title>
<g id="a_node23"><a xlink:href="AnimationComponent_8hpp.html" target="_top" xlink:title="/home/travis/build\l/STORM&#45;IRIT/Radium&#45;Engine\l/Plugins/Animation/src/Animation\lComponent.hpp">
<polygon fill="white" stroke="black" points="2579.5,-259 2579.5,-311 2740.5,-311 2740.5,-259 2579.5,-259"/>
<text text-anchor="start" x="2587.5" y="-299" font-family="Helvetica,sans-Serif" font-size="10.00">/home/travis/build</text>
<text text-anchor="start" x="2587.5" y="-288" font-family="Helvetica,sans-Serif" font-size="10.00">/STORM&#45;IRIT/Radium&#45;Engine</text>
<text text-anchor="start" x="2587.5" y="-277" font-family="Helvetica,sans-Serif" font-size="10.00">/Plugins/Animation/src/Animation</text>
<text text-anchor="middle" x="2660" y="-266" font-family="Helvetica,sans-Serif" font-size="10.00">Component.hpp</text>
</a>
</g>
</g>
<!-- Node2&#45;&gt;Node23 -->
<g id="edge23" class="edge"><title>Node2&#45;&gt;Node23</title>
<path fill="none" stroke="midnightblue" d="M2440.94,-351.569C2483.29,-338.894 2536.23,-323.047 2579.46,-310.107"/>
<polygon fill="midnightblue" stroke="midnightblue" points="2439.82,-348.249 2431.25,-354.47 2441.83,-354.955 2439.82,-348.249"/>
</g>
<!-- Node4&#45;&gt;Node2 -->
<g id="edge4" class="edge"><title>Node4&#45;&gt;Node2</title>
<path fill="none" stroke="midnightblue" d="M2454.41,-312.19C2437.22,-325.75 2415.41,-342.025 2397.69,-354.47"/>
<polygon fill="midnightblue" stroke="midnightblue" points="2456.81,-314.753 2462.45,-305.78 2452.45,-309.281 2456.81,-314.753"/>
</g>
<!-- Node6 -->
<g id="node6" class="node"><title>Node6</title>
<g id="a_node6"><a xlink:href="FileData_8hpp.html" target="_top" xlink:title="/home/travis/build\l/STORM&#45;IRIT/Radium&#45;Engine\l/src/Core/File/FileData.hpp">
<polygon fill="white" stroke="black" points="1359,-174.5 1359,-215.5 1507,-215.5 1507,-174.5 1359,-174.5"/>
<text text-anchor="start" x="1367" y="-203.5" font-family="Helvetica,sans-Serif" font-size="10.00">/home/travis/build</text>
<text text-anchor="start" x="1367" y="-192.5" font-family="Helvetica,sans-Serif" font-size="10.00">/STORM&#45;IRIT/Radium&#45;Engine</text>
<text text-anchor="middle" x="1433" y="-181.5" font-family="Helvetica,sans-Serif" font-size="10.00">/src/Core/File/FileData.hpp</text>
</a>
</g>
</g>
<!-- Node5&#45;&gt;Node6 -->
<g id="edge6" class="edge"><title>Node5&#45;&gt;Node6</title>
<path fill="none" stroke="midnightblue" d="M2065.28,-261.775C2059.8,-260.366 2054.33,-259.082 2049,-258 1855.97,-218.822 1623.65,-203.964 1507.2,-198.683"/>
<polygon fill="midnightblue" stroke="midnightblue" points="2064.53,-265.199 2075.1,-264.43 2066.36,-258.442 2064.53,-265.199"/>
</g>
<!-- Node7 -->
<g id="node7" class="node"><title>Node7</title>
<g id="a_node7"><a xlink:href="FileData_8cpp.html" target="_top" xlink:title="/home/travis/build\l/STORM&#45;IRIT/Radium&#45;Engine\l/src/Core/File/FileData.cpp">
<polygon fill="white" stroke="black" points="975,-84.5 975,-125.5 1123,-125.5 1123,-84.5 975,-84.5"/>
<text text-anchor="start" x="983" y="-113.5" font-family="Helvetica,sans-Serif" font-size="10.00">/home/travis/build</text>
<text text-anchor="start" x="983" y="-102.5" font-family="Helvetica,sans-Serif" font-size="10.00">/STORM&#45;IRIT/Radium&#45;Engine</text>
<text text-anchor="middle" x="1049" y="-91.5" font-family="Helvetica,sans-Serif" font-size="10.00">/src/Core/File/FileData.cpp</text>
</a>
</g>
</g>
<!-- Node6&#45;&gt;Node7 -->
<g id="edge7" class="edge"><title>Node6&#45;&gt;Node7</title>
<path fill="none" stroke="midnightblue" d="M1349.01,-178.887C1288.58,-167.47 1205.33,-150.622 1133,-132 1125.46,-130.059 1117.59,-127.859 1109.82,-125.581"/>
<polygon fill="midnightblue" stroke="midnightblue" points="1348.4,-182.335 1358.88,-180.743 1349.7,-175.456 1348.4,-182.335"/>
</g>
<!-- Node8 -->
<g id="node8" class="node"><title>Node8</title>
<g id="a_node8"><a xlink:href="CameraManager_8cpp.html" target="_top" xlink:title="/home/travis/build\l/STORM&#45;IRIT/Radium&#45;Engine\l/src/Engine/Managers/CameraManager\l/CameraManager.cpp">
<polygon fill="white" stroke="black" points="1141.5,-79 1141.5,-131 1328.5,-131 1328.5,-79 1141.5,-79"/>
<text text-anchor="start" x="1149.5" y="-119" font-family="Helvetica,sans-Serif" font-size="10.00">/home/travis/build</text>
<text text-anchor="start" x="1149.5" y="-108" font-family="Helvetica,sans-Serif" font-size="10.00">/STORM&#45;IRIT/Radium&#45;Engine</text>
<text text-anchor="start" x="1149.5" y="-97" font-family="Helvetica,sans-Serif" font-size="10.00">/src/Engine/Managers/CameraManager</text>
<text text-anchor="middle" x="1235" y="-86" font-family="Helvetica,sans-Serif" font-size="10.00">/CameraManager.cpp</text>
</a>
</g>
</g>
<!-- Node6&#45;&gt;Node8 -->
<g id="edge8" class="edge"><title>Node6&#45;&gt;Node8</title>
<path fill="none" stroke="midnightblue" d="M1379.65,-170.289C1352.3,-158.135 1319.01,-143.336 1291.25,-131.002"/>
<polygon fill="midnightblue" stroke="midnightblue" points="1378.5,-173.607 1389.06,-174.47 1381.34,-167.21 1378.5,-173.607"/>
</g>
<!-- Node9 -->
<g id="node9" class="node"><title>Node9</title>
<g id="a_node9"><a xlink:href="LightManager_8cpp.html" target="_top" xlink:title="/home/travis/build\l/STORM&#45;IRIT/Radium&#45;Engine\l/src/Engine/Managers/LightManager\l/LightManager.cpp">
<polygon fill="white" stroke="black" points="1346.5,-79 1346.5,-131 1519.5,-131 1519.5,-79 1346.5,-79"/>
<text text-anchor="start" x="1354.5" y="-119" font-family="Helvetica,sans-Serif" font-size="10.00">/home/travis/build</text>
<text text-anchor="start" x="1354.5" y="-108" font-family="Helvetica,sans-Serif" font-size="10.00">/STORM&#45;IRIT/Radium&#45;Engine</text>
<text text-anchor="start" x="1354.5" y="-97" font-family="Helvetica,sans-Serif" font-size="10.00">/src/Engine/Managers/LightManager</text>
<text text-anchor="middle" x="1433" y="-86" font-family="Helvetica,sans-Serif" font-size="10.00">/LightManager.cpp</text>
</a>
</g>
</g>
<!-- Node6&#45;&gt;Node9 -->
<g id="edge9" class="edge"><title>Node6&#45;&gt;Node9</title>
<path fill="none" stroke="midnightblue" d="M1433,-164.255C1433,-153.506 1433,-141.484 1433,-131.166"/>
<polygon fill="midnightblue" stroke="midnightblue" points="1429.5,-164.47 1433,-174.47 1436.5,-164.47 1429.5,-164.47"/>
</g>
<!-- Node10 -->
<g id="node10" class="node"><title>Node10</title>
<g id="a_node10"><a xlink:href="RadiumEngine_8cpp.html" target="_top" xlink:title="/home/travis/build\l/STORM&#45;IRIT/Radium&#45;Engine\l/src/Engine/RadiumEngine.cpp">
<polygon fill="white" stroke="black" points="1538,-84.5 1538,-125.5 1690,-125.5 1690,-84.5 1538,-84.5"/>
<text text-anchor="start" x="1546" y="-113.5" font-family="Helvetica,sans-Serif" font-size="10.00">/home/travis/build</text>
<text text-anchor="start" x="1546" y="-102.5" font-family="Helvetica,sans-Serif" font-size="10.00">/STORM&#45;IRIT/Radium&#45;Engine</text>
<text text-anchor="middle" x="1614" y="-91.5" font-family="Helvetica,sans-Serif" font-size="10.00">/src/Engine/RadiumEngine.cpp</text>
</a>
</g>
</g>
<!-- Node6&#45;&gt;Node10 -->
<g id="edge10" class="edge"><title>Node6&#45;&gt;Node10</title>
<path fill="none" stroke="midnightblue" d="M1482.21,-170.073C1510.89,-156.129 1546.62,-138.762 1573.63,-125.627"/>
<polygon fill="midnightblue" stroke="midnightblue" points="1480.63,-166.95 1473.17,-174.47 1483.69,-173.245 1480.63,-166.95"/>
</g>
<!-- Node11 -->
<g id="node11" class="node"><title>Node11</title>
<g id="a_node11"><a xlink:href="Renderer_8cpp.html" target="_top" xlink:title="/home/travis/build\l/STORM&#45;IRIT/Radium&#45;Engine\l/src/Engine/Renderer/Renderer.cpp">
<polygon fill="white" stroke="black" points="1708,-84.5 1708,-125.5 1878,-125.5 1878,-84.5 1708,-84.5"/>
<text text-anchor="start" x="1716" y="-113.5" font-family="Helvetica,sans-Serif" font-size="10.00">/home/travis/build</text>
<text text-anchor="start" x="1716" y="-102.5" font-family="Helvetica,sans-Serif" font-size="10.00">/STORM&#45;IRIT/Radium&#45;Engine</text>
<text text-anchor="middle" x="1793" y="-91.5" font-family="Helvetica,sans-Serif" font-size="10.00">/src/Engine/Renderer/Renderer.cpp</text>
</a>
</g>
</g>
<!-- Node6&#45;&gt;Node11 -->
<g id="edge11" class="edge"><title>Node6&#45;&gt;Node11</title>
<path fill="none" stroke="midnightblue" d="M1517.08,-175.326C1569.53,-163.45 1638.35,-147.45 1699,-132 1706.96,-129.973 1715.27,-127.781 1723.53,-125.559"/>
<polygon fill="midnightblue" stroke="midnightblue" points="1516.14,-171.951 1507.15,-177.569 1517.68,-178.779 1516.14,-171.951"/>
</g>
<!-- Node12 -->
<g id="node12" class="node"><title>Node12</title>
<g id="a_node12"><a xlink:href="Viewer_8cpp.html" target="_top" xlink:title="/home/travis/build\l/STORM&#45;IRIT/Radium&#45;Engine\l/src/GuiBase/Viewer/Viewer.cpp">
<polygon fill="white" stroke="black" points="1896,-84.5 1896,-125.5 2054,-125.5 2054,-84.5 1896,-84.5"/>
<text text-anchor="start" x="1904" y="-113.5" font-family="Helvetica,sans-Serif" font-size="10.00">/home/travis/build</text>
<text text-anchor="start" x="1904" y="-102.5" font-family="Helvetica,sans-Serif" font-size="10.00">/STORM&#45;IRIT/Radium&#45;Engine</text>
<text text-anchor="middle" x="1975" y="-91.5" font-family="Helvetica,sans-Serif" font-size="10.00">/src/GuiBase/Viewer/Viewer.cpp</text>
</a>
</g>
</g>
<!-- Node6&#45;&gt;Node12 -->
<g id="edge12" class="edge"><title>Node6&#45;&gt;Node12</title>
<path fill="none" stroke="midnightblue" d="M1517.17,-186.361C1608.82,-177.151 1759.37,-159.405 1887,-132 1895.57,-130.161 1904.51,-127.912 1913.28,-125.514"/>
<polygon fill="midnightblue" stroke="midnightblue" points="1516.72,-182.889 1507.12,-187.361 1517.42,-189.854 1516.72,-182.889"/>
</g>
<!-- Node13 -->
<g id="node13" class="node"><title>Node13</title>
<g id="a_node13"><a xlink:href="AssimpFileLoader_8cpp.html" target="_top" xlink:title="/home/travis/build\l/STORM&#45;IRIT/Radium&#45;Engine\l/src/IO/AssimpLoader/AssimpFile\lLoader.cpp">
<polygon fill="white" stroke="black" points="0,-79 0,-131 164,-131 164,-79 0,-79"/>
<text text-anchor="start" x="8" y="-119" font-family="Helvetica,sans-Serif" font-size="10.00">/home/travis/build</text>
<text text-anchor="start" x="8" y="-108" font-family="Helvetica,sans-Serif" font-size="10.00">/STORM&#45;IRIT/Radium&#45;Engine</text>
<text text-anchor="start" x="8" y="-97" font-family="Helvetica,sans-Serif" font-size="10.00">/src/IO/AssimpLoader/AssimpFile</text>
<text text-anchor="middle" x="82" y="-86" font-family="Helvetica,sans-Serif" font-size="10.00">Loader.cpp</text>
</a>
</g>
</g>
<!-- Node6&#45;&gt;Node13 -->
<g id="edge13" class="edge"><title>Node6&#45;&gt;Node13</title>
<path fill="none" stroke="midnightblue" d="M1348.6,-190.97C1085.06,-181.351 288.148,-151.024 173,-132 170.082,-131.518 167.124,-130.975 164.147,-130.382"/>
<polygon fill="midnightblue" stroke="midnightblue" points="1348.75,-194.477 1358.87,-191.344 1349.01,-187.482 1348.75,-194.477"/>
</g>
<!-- Node14 -->
<g id="node14" class="node"><title>Node14</title>
<g id="a_node14"><a xlink:href="CameraLoader_8cpp.html" target="_top" xlink:title="/home/travis/build\l/STORM&#45;IRIT/Radium&#45;Engine\l/src/IO/CameraLoader/CameraLoader.cpp">
<polygon fill="white" stroke="black" points="2072.5,-84.5 2072.5,-125.5 2271.5,-125.5 2271.5,-84.5 2072.5,-84.5"/>
<text text-anchor="start" x="2080.5" y="-113.5" font-family="Helvetica,sans-Serif" font-size="10.00">/home/travis/build</text>
<text text-anchor="start" x="2080.5" y="-102.5" font-family="Helvetica,sans-Serif" font-size="10.00">/STORM&#45;IRIT/Radium&#45;Engine</text>
<text text-anchor="middle" x="2172" y="-91.5" font-family="Helvetica,sans-Serif" font-size="10.00">/src/IO/CameraLoader/CameraLoader.cpp</text>
</a>
</g>
</g>
<!-- Node6&#45;&gt;Node14 -->
<g id="edge14" class="edge"><title>Node6&#45;&gt;Node14</title>
<path fill="none" stroke="midnightblue" d="M1517.33,-189.286C1638.47,-181.699 1868.48,-164.258 2062,-132 2072.84,-130.193 2084.2,-127.933 2095.34,-125.503"/>
<polygon fill="midnightblue" stroke="midnightblue" points="1516.78,-185.813 1507.02,-189.924 1517.21,-192.799 1516.78,-185.813"/>
</g>
<!-- Node15 -->
<g id="node15" class="node"><title>Node15</title>
<g id="a_node15"><a xlink:href="TinyPlyFileLoader_8cpp.html" target="_top" xlink:title="/home/travis/build\l/STORM&#45;IRIT/Radium&#45;Engine\l/src/IO/TinyPlyLoader/TinyPlyFile\lLoader.cpp">
<polygon fill="white" stroke="black" points="2290,-79 2290,-131 2454,-131 2454,-79 2290,-79"/>
<text text-anchor="start" x="2298" y="-119" font-family="Helvetica,sans-Serif" font-size="10.00">/home/travis/build</text>
<text text-anchor="start" x="2298" y="-108" font-family="Helvetica,sans-Serif" font-size="10.00">/STORM&#45;IRIT/Radium&#45;Engine</text>
<text text-anchor="start" x="2298" y="-97" font-family="Helvetica,sans-Serif" font-size="10.00">/src/IO/TinyPlyLoader/TinyPlyFile</text>
<text text-anchor="middle" x="2372" y="-86" font-family="Helvetica,sans-Serif" font-size="10.00">Loader.cpp</text>
</a>
</g>
</g>
<!-- Node6&#45;&gt;Node15 -->
<g id="edge15" class="edge"><title>Node6&#45;&gt;Node15</title>
<path fill="none" stroke="midnightblue" d="M1517.53,-193.451C1670.72,-191.209 2003.91,-180.601 2280,-132 2283.27,-131.424 2286.59,-130.78 2289.93,-130.081"/>
<polygon fill="midnightblue" stroke="midnightblue" points="1517.21,-189.955 1507.26,-193.593 1517.31,-196.954 1517.21,-189.955"/>
</g>
<!-- Node16 -->
<g id="node16" class="node"><title>Node16</title>
<g id="a_node16"><a xlink:href="AnimationSystem_8cpp.html" target="_top" xlink:title="/home/travis/build\l/STORM&#45;IRIT/Radium&#45;Engine\l/Plugins/Animation/src/Animation\lSystem.cpp">
<polygon fill="white" stroke="black" points="2472.5,-79 2472.5,-131 2633.5,-131 2633.5,-79 2472.5,-79"/>
<text text-anchor="start" x="2480.5" y="-119" font-family="Helvetica,sans-Serif" font-size="10.00">/home/travis/build</text>
<text text-anchor="start" x="2480.5" y="-108" font-family="Helvetica,sans-Serif" font-size="10.00">/STORM&#45;IRIT/Radium&#45;Engine</text>
<text text-anchor="start" x="2480.5" y="-97" font-family="Helvetica,sans-Serif" font-size="10.00">/Plugins/Animation/src/Animation</text>
<text text-anchor="middle" x="2553" y="-86" font-family="Helvetica,sans-Serif" font-size="10.00">System.cpp</text>
</a>
</g>
</g>
<!-- Node6&#45;&gt;Node16 -->
<g id="edge16" class="edge"><title>Node6&#45;&gt;Node16</title>
<path fill="none" stroke="midnightblue" d="M1517.37,-191.326C1729.66,-184.213 2281.92,-163.209 2463,-132 2466.05,-131.475 2469.13,-130.885 2472.24,-130.242"/>
<polygon fill="midnightblue" stroke="midnightblue" points="1517.09,-187.834 1507.21,-191.665 1517.32,-194.83 1517.09,-187.834"/>
</g>
<!-- Node17 -->
<g id="node17" class="node"><title>Node17</title>
<g id="a_node17"><a xlink:href="FancyMeshComponent_8cpp.html" target="_top" xlink:title="/home/travis/build\l/STORM&#45;IRIT/Radium&#45;Engine\l/Plugins/FancyMesh/src/FancyMesh\lComponent.cpp">
<polygon fill="white" stroke="black" points="182,-79 182,-131 358,-131 358,-79 182,-79"/>
<text text-anchor="start" x="190" y="-119" font-family="Helvetica,sans-Serif" font-size="10.00">/home/travis/build</text>
<text text-anchor="start" x="190" y="-108" font-family="Helvetica,sans-Serif" font-size="10.00">/STORM&#45;IRIT/Radium&#45;Engine</text>
<text text-anchor="start" x="190" y="-97" font-family="Helvetica,sans-Serif" font-size="10.00">/Plugins/FancyMesh/src/FancyMesh</text>
<text text-anchor="middle" x="270" y="-86" font-family="Helvetica,sans-Serif" font-size="10.00">Component.cpp</text>
</a>
</g>
</g>
<!-- Node6&#45;&gt;Node17 -->
<g id="edge17" class="edge"><title>Node6&#45;&gt;Node17</title>
<path fill="none" stroke="midnightblue" d="M1348.79,-191.321C1131.47,-184.051 555.6,-162.434 367,-132 364.074,-131.528 361.109,-131.004 358.123,-130.437"/>
<polygon fill="midnightblue" stroke="midnightblue" points="1348.75,-194.821 1358.87,-191.656 1348.99,-187.825 1348.75,-194.821"/>
</g>
<!-- Node18 -->
<g id="node18" class="node"><title>Node18</title>
<g id="a_node18"><a xlink:href="FancyMeshSystem_8cpp.html" target="_top" xlink:title="/home/travis/build\l/STORM&#45;IRIT/Radium&#45;Engine\l/Plugins/FancyMesh/src/FancyMesh\lSystem.cpp">
<polygon fill="white" stroke="black" points="376,-79 376,-131 552,-131 552,-79 376,-79"/>
<text text-anchor="start" x="384" y="-119" font-family="Helvetica,sans-Serif" font-size="10.00">/home/travis/build</text>
<text text-anchor="start" x="384" y="-108" font-family="Helvetica,sans-Serif" font-size="10.00">/STORM&#45;IRIT/Radium&#45;Engine</text>
<text text-anchor="start" x="384" y="-97" font-family="Helvetica,sans-Serif" font-size="10.00">/Plugins/FancyMesh/src/FancyMesh</text>
<text text-anchor="middle" x="464" y="-86" font-family="Helvetica,sans-Serif" font-size="10.00">System.cpp</text>
</a>
</g>
</g>
<!-- Node6&#45;&gt;Node18 -->
<g id="edge18" class="edge"><title>Node6&#45;&gt;Node18</title>
<path fill="none" stroke="midnightblue" d="M1348.92,-193.338C1192.66,-190.934 847.326,-180.099 561,-132 558.077,-131.509 555.115,-130.969 552.131,-130.387"/>
<polygon fill="midnightblue" stroke="midnightblue" points="1348.89,-196.838 1358.94,-193.485 1348.99,-189.839 1348.89,-196.838"/>
</g>
<!-- Node19 -->
<g id="node19" class="node"><title>Node19</title>
<g id="a_node19"><a xlink:href="MeshPaintSystem_8cpp.html" target="_top" xlink:title="/home/travis/build\l/STORM&#45;IRIT/Radium&#45;Engine\l/Plugins/MeshPaint/src/MeshPaint\lSystem.cpp">
<polygon fill="white" stroke="black" points="569.5,-79 569.5,-131 736.5,-131 736.5,-79 569.5,-79"/>
<text text-anchor="start" x="577.5" y="-119" font-family="Helvetica,sans-Serif" font-size="10.00">/home/travis/build</text>
<text text-anchor="start" x="577.5" y="-108" font-family="Helvetica,sans-Serif" font-size="10.00">/STORM&#45;IRIT/Radium&#45;Engine</text>
<text text-anchor="start" x="577.5" y="-97" font-family="Helvetica,sans-Serif" font-size="10.00">/Plugins/MeshPaint/src/MeshPaint</text>
<text text-anchor="middle" x="653" y="-86" font-family="Helvetica,sans-Serif" font-size="10.00">System.cpp</text>
</a>
</g>
</g>
<!-- Node6&#45;&gt;Node19 -->
<g id="edge19" class="edge"><title>Node6&#45;&gt;Node19</title>
<path fill="none" stroke="midnightblue" d="M1348.65,-191.342C1218.4,-186.128 960.894,-171.394 746,-132 742.949,-131.441 739.854,-130.827 736.736,-130.168"/>
<polygon fill="midnightblue" stroke="midnightblue" points="1348.82,-194.852 1358.95,-191.745 1349.09,-187.857 1348.82,-194.852"/>
</g>
<!-- Node20 -->
<g id="node20" class="node"><title>Node20</title>
<g id="a_node20"><a xlink:href="SkinningSystem_8hpp.html" target="_top" xlink:title="/home/travis/build\l/STORM&#45;IRIT/Radium&#45;Engine\l/Plugins/Skinning/src/SkinningSystem.hpp">
<polygon fill="white" stroke="black" points="755,-84.5 755,-125.5 957,-125.5 957,-84.5 755,-84.5"/>
<text text-anchor="start" x="763" y="-113.5" font-family="Helvetica,sans-Serif" font-size="10.00">/home/travis/build</text>
<text text-anchor="start" x="763" y="-102.5" font-family="Helvetica,sans-Serif" font-size="10.00">/STORM&#45;IRIT/Radium&#45;Engine</text>
<text text-anchor="middle" x="856" y="-91.5" font-family="Helvetica,sans-Serif" font-size="10.00">/Plugins/Skinning/src/SkinningSystem.hpp</text>
</a>
</g>
</g>
<!-- Node6&#45;&gt;Node20 -->
<g id="edge20" class="edge"><title>Node6&#45;&gt;Node20</title>
<path fill="none" stroke="midnightblue" d="M1348.63,-185.371C1254.79,-175.178 1098.9,-156.466 966,-132 955.675,-130.099 944.861,-127.858 934.214,-125.5"/>
<polygon fill="midnightblue" stroke="midnightblue" points="1348.31,-188.858 1358.63,-186.451 1349.07,-181.898 1348.31,-188.858"/>
</g>
<!-- Node21 -->
<g id="node21" class="node"><title>Node21</title>
<g id="a_node21"><a xlink:href="SkinningPlugin_8cpp.html" target="_top" xlink:title="/home/travis/build\l/STORM&#45;IRIT/Radium&#45;Engine\l/Plugins/Skinning/src/SkinningPlugin.cpp">
<polygon fill="white" stroke="black" points="758.5,-0.5 758.5,-41.5 953.5,-41.5 953.5,-0.5 758.5,-0.5"/>
<text text-anchor="start" x="766.5" y="-29.5" font-family="Helvetica,sans-Serif" font-size="10.00">/home/travis/build</text>
<text text-anchor="start" x="766.5" y="-18.5" font-family="Helvetica,sans-Serif" font-size="10.00">/STORM&#45;IRIT/Radium&#45;Engine</text>
<text text-anchor="middle" x="856" y="-7.5" font-family="Helvetica,sans-Serif" font-size="10.00">/Plugins/Skinning/src/SkinningPlugin.cpp</text>
</a>
</g>
</g>
<!-- Node20&#45;&gt;Node21 -->
<g id="edge21" class="edge"><title>Node20&#45;&gt;Node21</title>
<path fill="none" stroke="midnightblue" d="M856,-73.881C856,-63.1328 856,-51.309 856,-41.6671"/>
<polygon fill="midnightblue" stroke="midnightblue" points="852.5,-74.1501 856,-84.1501 859.5,-74.1501 852.5,-74.1501"/>
</g>
<!-- Node23&#45;&gt;Node16 -->
<g id="edge25" class="edge"><title>Node23&#45;&gt;Node16</title>
<path fill="none" stroke="midnightblue" d="M2603.5,-252.849C2592.2,-244.224 2581.51,-233.902 2574,-222 2556.53,-194.302 2552.7,-155.914 2552.28,-131.018"/>
<polygon fill="midnightblue" stroke="midnightblue" points="2601.65,-255.825 2611.81,-258.827 2605.74,-250.144 2601.65,-255.825"/>
</g>
<!-- Node24 -->
<g id="node24" class="node"><title>Node24</title>
<g id="a_node24"><a xlink:href="AnimationComponent_8cpp.html" target="_top" xlink:title="/home/travis/build\l/STORM&#45;IRIT/Radium&#45;Engine\l/Plugins/Animation/src/Animation\lComponent.cpp">
<polygon fill="white" stroke="black" points="2824.5,-79 2824.5,-131 2985.5,-131 2985.5,-79 2824.5,-79"/>
<text text-anchor="start" x="2832.5" y="-119" font-family="Helvetica,sans-Serif" font-size="10.00">/home/travis/build</text>
<text text-anchor="start" x="2832.5" y="-108" font-family="Helvetica,sans-Serif" font-size="10.00">/STORM&#45;IRIT/Radium&#45;Engine</text>
<text text-anchor="start" x="2832.5" y="-97" font-family="Helvetica,sans-Serif" font-size="10.00">/Plugins/Animation/src/Animation</text>
<text text-anchor="middle" x="2905" y="-86" font-family="Helvetica,sans-Serif" font-size="10.00">Component.cpp</text>
</a>
</g>
</g>
<!-- Node23&#45;&gt;Node24 -->
<g id="edge24" class="edge"><title>Node23&#45;&gt;Node24</title>
<path fill="none" stroke="midnightblue" d="M2707.82,-253.045C2720.78,-243.737 2734.42,-233.043 2746,-222 2768.21,-200.831 2765.43,-187.637 2789,-168 2806.37,-153.53 2827.65,-140.98 2847.22,-131.028"/>
<polygon fill="midnightblue" stroke="midnightblue" points="2705.59,-250.333 2699.43,-258.952 2709.62,-256.057 2705.59,-250.333"/>
</g>
<!-- Node25 -->
<g id="node25" class="node"><title>Node25</title>
<g id="a_node25"><a xlink:href="SkeletonBoneDrawable_8hpp.html" target="_top" xlink:title="/home/travis/build\l/STORM&#45;IRIT/Radium&#45;Engine\l/Plugins/Animation/src/Drawing\l/SkeletonBoneDrawable.hpp">
<polygon fill="white" stroke="black" points="2583,-169 2583,-221 2737,-221 2737,-169 2583,-169"/>
<text text-anchor="start" x="2591" y="-209" font-family="Helvetica,sans-Serif" font-size="10.00">/home/travis/build</text>
<text text-anchor="start" x="2591" y="-198" font-family="Helvetica,sans-Serif" font-size="10.00">/STORM&#45;IRIT/Radium&#45;Engine</text>
<text text-anchor="start" x="2591" y="-187" font-family="Helvetica,sans-Serif" font-size="10.00">/Plugins/Animation/src/Drawing</text>
<text text-anchor="middle" x="2660" y="-176" font-family="Helvetica,sans-Serif" font-size="10.00">/SkeletonBoneDrawable.hpp</text>
</a>
</g>
</g>
<!-- Node23&#45;&gt;Node25 -->
<g id="edge26" class="edge"><title>Node23&#45;&gt;Node25</title>
<path fill="none" stroke="midnightblue" d="M2660,-248.489C2660,-239.309 2660,-229.616 2660,-221.092"/>
<polygon fill="midnightblue" stroke="midnightblue" points="2656.5,-248.547 2660,-258.547 2663.5,-248.547 2656.5,-248.547"/>
</g>
<!-- Node25&#45;&gt;Node16 -->
<g id="edge28" class="edge"><title>Node25&#45;&gt;Node16</title>
<path fill="none" stroke="midnightblue" d="M2621.39,-162.242C2608.98,-152.042 2595.42,-140.887 2583.67,-131.221"/>
<polygon fill="midnightblue" stroke="midnightblue" points="2619.39,-165.134 2629.34,-168.783 2623.84,-159.727 2619.39,-165.134"/>
</g>
<!-- Node25&#45;&gt;Node24 -->
<g id="edge27" class="edge"><title>Node25&#45;&gt;Node24</title>
<path fill="none" stroke="midnightblue" d="M2739.3,-165.516C2770.13,-154.442 2805.15,-141.864 2835.03,-131.133"/>
<polygon fill="midnightblue" stroke="midnightblue" points="2738.11,-162.226 2729.88,-168.901 2740.47,-168.814 2738.11,-162.226"/>
</g>
<!-- Node26 -->
<g id="node26" class="node"><title>Node26</title>
<g id="a_node26"><a xlink:href="SkeletonBoneDrawable_8cpp.html" target="_top" xlink:title="/home/travis/build\l/STORM&#45;IRIT/Radium&#45;Engine\l/Plugins/Animation/src/Drawing\l/SkeletonBoneDrawable.cpp">
<polygon fill="white" stroke="black" points="2652,-79 2652,-131 2806,-131 2806,-79 2652,-79"/>
<text text-anchor="start" x="2660" y="-119" font-family="Helvetica,sans-Serif" font-size="10.00">/home/travis/build</text>
<text text-anchor="start" x="2660" y="-108" font-family="Helvetica,sans-Serif" font-size="10.00">/STORM&#45;IRIT/Radium&#45;Engine</text>
<text text-anchor="start" x="2660" y="-97" font-family="Helvetica,sans-Serif" font-size="10.00">/Plugins/Animation/src/Drawing</text>
<text text-anchor="middle" x="2729" y="-86" font-family="Helvetica,sans-Serif" font-size="10.00">/SkeletonBoneDrawable.cpp</text>
</a>
</g>
</g>
<!-- Node25&#45;&gt;Node26 -->
<g id="edge29" class="edge"><title>Node25&#45;&gt;Node26</title>
<path fill="none" stroke="midnightblue" d="M2686.23,-160.553C2693.89,-150.775 2702.14,-140.258 2709.33,-131.092"/>
<polygon fill="midnightblue" stroke="midnightblue" points="2683.37,-158.518 2679.96,-168.547 2688.88,-162.837 2683.37,-158.518"/>
</g>
<!-- Node28 -->
<g id="node28" class="node"><title>Node28</title>
<g id="a_node28"><a xlink:href="KeyPose_8hpp.html" target="_top" xlink:title="/home/travis/build\l/STORM&#45;IRIT/Radium&#45;Engine\l/src/Core/File/KeyFrame\l/KeyPose.hpp">
<polygon fill="white" stroke="black" points="2831,-169 2831,-221 2979,-221 2979,-169 2831,-169"/>
<text text-anchor="start" x="2839" y="-209" font-family="Helvetica,sans-Serif" font-size="10.00">/home/travis/build</text>
<text text-anchor="start" x="2839" y="-198" font-family="Helvetica,sans-Serif" font-size="10.00">/STORM&#45;IRIT/Radium&#45;Engine</text>
<text text-anchor="start" x="2839" y="-187" font-family="Helvetica,sans-Serif" font-size="10.00">/src/Core/File/KeyFrame</text>
<text text-anchor="middle" x="2905" y="-176" font-family="Helvetica,sans-Serif" font-size="10.00">/KeyPose.hpp</text>
</a>
</g>
</g>
<!-- Node27&#45;&gt;Node28 -->
<g id="edge31" class="edge"><title>Node27&#45;&gt;Node28</title>
<path fill="none" stroke="midnightblue" d="M2233.04,-539.614C2337.62,-519.38 2519.56,-476.403 2660,-402 2752.57,-352.96 2841.65,-264.45 2882.19,-221.184"/>
<polygon fill="midnightblue" stroke="midnightblue" points="2232.33,-536.187 2223.16,-541.502 2233.64,-543.062 2232.33,-536.187"/>
</g>
<!-- Node29 -->
<g id="node29" class="node"><title>Node29</title>
<g id="a_node29"><a xlink:href="KeyRotation_8hpp.html" target="_top" xlink:title="/home/travis/build\l/STORM&#45;IRIT/Radium&#45;Engine\l/src/Core/File/KeyFrame\l/KeyRotation.hpp">
<polygon fill="white" stroke="black" points="1973,-349 1973,-401 2121,-401 2121,-349 1973,-349"/>
<text text-anchor="start" x="1981" y="-389" font-family="Helvetica,sans-Serif" font-size="10.00">/home/travis/build</text>
<text text-anchor="start" x="1981" y="-378" font-family="Helvetica,sans-Serif" font-size="10.00">/STORM&#45;IRIT/Radium&#45;Engine</text>
<text text-anchor="start" x="1981" y="-367" font-family="Helvetica,sans-Serif" font-size="10.00">/src/Core/File/KeyFrame</text>
<text text-anchor="middle" x="2047" y="-356" font-family="Helvetica,sans-Serif" font-size="10.00">/KeyRotation.hpp</text>
</a>
</g>
</g>
<!-- Node27&#45;&gt;Node29 -->
<g id="edge33" class="edge"><title>Node27&#45;&gt;Node29</title>
<path fill="none" stroke="midnightblue" d="M2094.66,-522.899C2083.63,-514.23 2073.21,-503.876 2066,-492 2049.16,-464.267 2045.91,-426.235 2045.86,-401.397"/>
<polygon fill="midnightblue" stroke="midnightblue" points="2092.65,-525.764 2102.77,-528.912 2096.82,-520.143 2092.65,-525.764"/>
</g>
<!-- Node30 -->
<g id="node30" class="node"><title>Node30</title>
<g id="a_node30"><a xlink:href="KeyScaling_8hpp.html" target="_top" xlink:title="/home/travis/build\l/STORM&#45;IRIT/Radium&#45;Engine\l/src/Core/File/KeyFrame\l/KeyScaling.hpp">
<polygon fill="white" stroke="black" points="2075,-439 2075,-491 2223,-491 2223,-439 2075,-439"/>
<text text-anchor="start" x="2083" y="-479" font-family="Helvetica,sans-Serif" font-size="10.00">/home/travis/build</text>
<text text-anchor="start" x="2083" y="-468" font-family="Helvetica,sans-Serif" font-size="10.00">/STORM&#45;IRIT/Radium&#45;Engine</text>
<text text-anchor="start" x="2083" y="-457" font-family="Helvetica,sans-Serif" font-size="10.00">/src/Core/File/KeyFrame</text>
<text text-anchor="middle" x="2149" y="-446" font-family="Helvetica,sans-Serif" font-size="10.00">/KeyScaling.hpp</text>
</a>
</g>
</g>
<!-- Node27&#45;&gt;Node30 -->
<g id="edge35" class="edge"><title>Node27&#45;&gt;Node30</title>
<path fill="none" stroke="midnightblue" d="M2149,-518.489C2149,-509.309 2149,-499.616 2149,-491.092"/>
<polygon fill="midnightblue" stroke="midnightblue" points="2145.5,-518.547 2149,-528.547 2152.5,-518.547 2145.5,-518.547"/>
</g>
<!-- Node31 -->
<g id="node31" class="node"><title>Node31</title>
<g id="a_node31"><a xlink:href="KeyTransform_8hpp.html" target="_top" xlink:title="/home/travis/build\l/STORM&#45;IRIT/Radium&#45;Engine\l/src/Core/File/KeyFrame\l/KeyTransform.hpp">
<polygon fill="white" stroke="black" points="2241,-439 2241,-491 2389,-491 2389,-439 2241,-439"/>
<text text-anchor="start" x="2249" y="-479" font-family="Helvetica,sans-Serif" font-size="10.00">/home/travis/build</text>
<text text-anchor="start" x="2249" y="-468" font-family="Helvetica,sans-Serif" font-size="10.00">/STORM&#45;IRIT/Radium&#45;Engine</text>
<text text-anchor="start" x="2249" y="-457" font-family="Helvetica,sans-Serif" font-size="10.00">/src/Core/File/KeyFrame</text>
<text text-anchor="middle" x="2315" y="-446" font-family="Helvetica,sans-Serif" font-size="10.00">/KeyTransform.hpp</text>
</a>
</g>
</g>
<!-- Node27&#45;&gt;Node31 -->
<g id="edge37" class="edge"><title>Node27&#45;&gt;Node31</title>
<path fill="none" stroke="midnightblue" d="M2205.67,-523.96C2225.86,-513.253 2248.38,-501.315 2267.71,-491.069"/>
<polygon fill="midnightblue" stroke="midnightblue" points="2203.76,-521.007 2196.57,-528.783 2207.04,-527.191 2203.76,-521.007"/>
</g>
<!-- Node32 -->
<g id="node32" class="node"><title>Node32</title>
<g id="a_node32"><a xlink:href="KeyTranslation_8hpp.html" target="_top" xlink:title="/home/travis/build\l/STORM&#45;IRIT/Radium&#45;Engine\l/src/Core/File/KeyFrame\l/KeyTranslation.hpp">
<polygon fill="white" stroke="black" points="1871,-439 1871,-491 2019,-491 2019,-439 1871,-439"/>
<text text-anchor="start" x="1879" y="-479" font-family="Helvetica,sans-Serif" font-size="10.00">/home/travis/build</text>
<text text-anchor="start" x="1879" y="-468" font-family="Helvetica,sans-Serif" font-size="10.00">/STORM&#45;IRIT/Radium&#45;Engine</text>
<text text-anchor="start" x="1879" y="-457" font-family="Helvetica,sans-Serif" font-size="10.00">/src/Core/File/KeyFrame</text>
<text text-anchor="middle" x="1945" y="-446" font-family="Helvetica,sans-Serif" font-size="10.00">/KeyTranslation.hpp</text>
</a>
</g>
</g>
<!-- Node27&#45;&gt;Node32 -->
<g id="edge40" class="edge"><title>Node27&#45;&gt;Node32</title>
<path fill="none" stroke="midnightblue" d="M2081.3,-524.798C2056.04,-513.9 2027.6,-501.632 2003.26,-491.133"/>
<polygon fill="midnightblue" stroke="midnightblue" points="2080.25,-528.153 2090.81,-528.901 2083.02,-521.726 2080.25,-528.153"/>
</g>
<!-- Node28&#45;&gt;Node24 -->
<g id="edge32" class="edge"><title>Node28&#45;&gt;Node24</title>
<path fill="none" stroke="midnightblue" d="M2905,-158.489C2905,-149.309 2905,-139.616 2905,-131.092"/>
<polygon fill="midnightblue" stroke="midnightblue" points="2901.5,-158.547 2905,-168.547 2908.5,-158.547 2901.5,-158.547"/>
</g>
<!-- Node29&#45;&gt;Node22 -->
<g id="edge34" class="edge"><title>Node29&#45;&gt;Node22</title>
<path fill="none" stroke="midnightblue" d="M2010.19,-342.242C1998.37,-332.042 1985.44,-320.887 1974.23,-311.221"/>
<polygon fill="midnightblue" stroke="midnightblue" points="2007.91,-344.9 2017.77,-348.783 2012.49,-339.6 2007.91,-344.9"/>
</g>
<!-- Node30&#45;&gt;Node22 -->
<g id="edge36" class="edge"><title>Node30&#45;&gt;Node22</title>
<path fill="none" stroke="midnightblue" d="M2152.22,-428.475C2152.56,-403.232 2148.74,-370.033 2130,-348 2123.02,-339.792 2077.27,-324.425 2033.01,-311.044"/>
<polygon fill="midnightblue" stroke="midnightblue" points="2148.72,-428.633 2151.86,-438.751 2155.71,-428.881 2148.72,-428.633"/>
</g>
<!-- Node31&#45;&gt;Node2 -->
<g id="edge38" class="edge"><title>Node31&#45;&gt;Node2</title>
<path fill="none" stroke="midnightblue" d="M2334.77,-429.889C2341.52,-418.243 2348.83,-405.623 2354.68,-395.525"/>
<polygon fill="midnightblue" stroke="midnightblue" points="2331.74,-428.14 2329.75,-438.547 2337.79,-431.65 2331.74,-428.14"/>
</g>
<!-- Node31&#45;&gt;Node24 -->
<g id="edge39" class="edge"><title>Node31&#45;&gt;Node24</title>
<path fill="none" stroke="midnightblue" d="M2399.25,-453.553C2494.28,-437.83 2648.6,-399.92 2749,-312 2802.98,-264.727 2775.82,-222.917 2822,-168 2833.81,-153.959 2849.38,-141.264 2863.85,-131.072"/>
<polygon fill="midnightblue" stroke="midnightblue" points="2398.43,-450.141 2389.11,-455.185 2399.54,-457.053 2398.43,-450.141"/>
</g>
<!-- Node32&#45;&gt;Node22 -->
<g id="edge41" class="edge"><title>Node32&#45;&gt;Node22</title>
<path fill="none" stroke="midnightblue" d="M1945,-428.717C1945,-394.052 1945,-342.016 1945,-311.285"/>
<polygon fill="midnightblue" stroke="midnightblue" points="1941.5,-428.874 1945,-438.874 1948.5,-428.875 1941.5,-428.874"/>
</g>
<!-- Node33&#45;&gt;Node13 -->
<g id="edge44" class="edge"><title>Node33&#45;&gt;Node13</title>
<path fill="none" stroke="midnightblue" d="M1715.16,-363.38C1452.25,-335.938 749.084,-256.024 173,-132 170.109,-131.378 167.174,-130.714 164.217,-130.018"/>
<polygon fill="midnightblue" stroke="midnightblue" points="1715.15,-366.898 1725.46,-364.452 1715.88,-359.936 1715.15,-366.898"/>
</g>
<!-- Node33&#45;&gt;Node22 -->
<g id="edge43" class="edge"><title>Node33&#45;&gt;Node22</title>
<path fill="none" stroke="midnightblue" d="M1864.93,-342.824C1879.52,-332.467 1895.58,-321.071 1909.46,-311.221"/>
<polygon fill="midnightblue" stroke="midnightblue" points="1862.66,-340.141 1856.53,-348.783 1866.71,-345.85 1862.66,-340.141"/>
</g>
</g>
</svg>
