<?xml version="1.0" encoding="UTF-8" standalone="no"?>
<!DOCTYPE svg PUBLIC "-//W3C//DTD SVG 1.1//EN"
 "http://www.w3.org/Graphics/SVG/1.1/DTD/svg11.dtd">
<!-- Generated by graphviz version 2.36.0 (20140111.2315)
 -->
<!-- Title: Ra::Core::LoopSubdivider::subdivide Pages: 1 -->
<svg width="662pt" height="295pt"
 viewBox="0.00 0.00 662.00 295.00" xmlns="http://www.w3.org/2000/svg" xmlns:xlink="http://www.w3.org/1999/xlink">
<g id="graph0" class="graph" transform="scale(1 1) rotate(0) translate(4 291)">
<title>Ra::Core::LoopSubdivider::subdivide</title>
<polygon fill="white" stroke="none" points="-4,4 -4,-291 658,-291 658,4 -4,4"/>
<!-- Node1 -->
<g id="node1" class="node"><title>Node1</title>
<polygon fill="#bfbfbf" stroke="black" points="0.5,-139 0.5,-169 129.5,-169 129.5,-139 0.5,-139"/>
<text text-anchor="start" x="8.5" y="-157" font-family="Helvetica,sans-Serif" font-size="10.00">Ra::Core::LoopSubdivider</text>
<text text-anchor="middle" x="65" y="-146" font-family="Helvetica,sans-Serif" font-size="10.00">::subdivide</text>
</g>
<!-- Node2 -->
<g id="node2" class="node"><title>Node2</title>
<g id="a_node2"><a xlink:href="namespaceRa_1_1Core.html#af3945d8f9cd011513ba70d575795e694" target="_top" xlink:title="Update copy properties from input. ">
<polygon fill="white" stroke="black" points="174,-262.5 174,-281.5 294,-281.5 294,-262.5 174,-262.5"/>
<text text-anchor="middle" x="234" y="-269.5" font-family="Helvetica,sans-Serif" font-size="10.00">Ra::Core::commitProps</text>
</a>
</g>
</g>
<!-- Node1&#45;&gt;Node2 -->
<g id="edge1" class="edge"><title>Node1&#45;&gt;Node2</title>
<path fill="none" stroke="midnightblue" d="M77.5254,-169.267C94.5612,-190.794 128.517,-229.903 166,-252 170.397,-254.592 175.157,-256.872 180.042,-258.873"/>
<polygon fill="midnightblue" stroke="midnightblue" points="178.935,-262.195 189.528,-262.385 181.365,-255.631 178.935,-262.195"/>
</g>
<!-- Node4 -->
<g id="node4" class="node"><title>Node4</title>
<g id="a_node4"><a xlink:href="classRa_1_1Core_1_1TopologicalMesh.html#aa1016df75edb65e69fcdec5465e49245" target="_top" xlink:title="Ra::Core::TopologicalMesh\l::getFloatPropsHandles">
<polygon fill="white" stroke="black" points="166,-213 166,-243 302,-243 302,-213 166,-213"/>
<text text-anchor="start" x="174" y="-231" font-family="Helvetica,sans-Serif" font-size="10.00">Ra::Core::TopologicalMesh</text>
<text text-anchor="middle" x="234" y="-220" font-family="Helvetica,sans-Serif" font-size="10.00">::getFloatPropsHandles</text>
</a>
</g>
</g>
<!-- Node1&#45;&gt;Node4 -->
<g id="edge3" class="edge"><title>Node1&#45;&gt;Node4</title>
<path fill="none" stroke="midnightblue" d="M94.9639,-169.133C114.742,-179.233 141.67,-192.53 166,-203 170.795,-205.063 175.823,-207.124 180.877,-209.126"/>
<polygon fill="midnightblue" stroke="midnightblue" points="179.986,-212.534 190.574,-212.89 182.519,-206.009 179.986,-212.534"/>
</g>
<!-- Node5 -->
<g id="node5" class="node"><title>Node5</title>
<g id="a_node5"><a xlink:href="classRa_1_1Core_1_1TopologicalMesh.html#acf1e58078add6e5cc9ce13b30fb3baf3" target="_top" xlink:title="Ra::Core::TopologicalMesh\l::getVector2PropsHandles">
<polygon fill="white" stroke="black" points="166,-164 166,-194 302,-194 302,-164 166,-164"/>
<text text-anchor="start" x="174" y="-182" font-family="Helvetica,sans-Serif" font-size="10.00">Ra::Core::TopologicalMesh</text>
<text text-anchor="middle" x="234" y="-171" font-family="Helvetica,sans-Serif" font-size="10.00">::getVector2PropsHandles</text>
</a>
</g>
</g>
<!-- Node1&#45;&gt;Node5 -->
<g id="edge4" class="edge"><title>Node1&#45;&gt;Node5</title>
<path fill="none" stroke="midnightblue" d="M129.612,-163.523C138.251,-164.816 147.192,-166.155 156.035,-167.478"/>
<polygon fill="midnightblue" stroke="midnightblue" points="155.547,-170.944 165.955,-168.963 156.584,-164.021 155.547,-170.944"/>
</g>
<!-- Node6 -->
<g id="node6" class="node"><title>Node6</title>
<g id="a_node6"><a xlink:href="classRa_1_1Core_1_1TopologicalMesh.html#a6865aee84eb0d92f6acc12081bf8a6f8" target="_top" xlink:title="Ra::Core::TopologicalMesh\l::getVector3PropsHandles">
<polygon fill="white" stroke="black" points="166,-115 166,-145 302,-145 302,-115 166,-115"/>
<text text-anchor="start" x="174" y="-133" font-family="Helvetica,sans-Serif" font-size="10.00">Ra::Core::TopologicalMesh</text>
<text text-anchor="middle" x="234" y="-122" font-family="Helvetica,sans-Serif" font-size="10.00">::getVector3PropsHandles</text>
</a>
</g>
</g>
<!-- Node1&#45;&gt;Node6 -->
<g id="edge5" class="edge"><title>Node1&#45;&gt;Node6</title>
<path fill="none" stroke="midnightblue" d="M129.612,-144.858C138.251,-143.617 147.192,-142.332 156.035,-141.061"/>
<polygon fill="midnightblue" stroke="midnightblue" points="156.555,-144.522 165.955,-139.635 155.559,-137.593 156.555,-144.522"/>
</g>
<!-- Node7 -->
<g id="node7" class="node"><title>Node7</title>
<g id="a_node7"><a xlink:href="classRa_1_1Core_1_1TopologicalMesh.html#a938483e7f6900eeb3914d662b9aac21c" target="_top" xlink:title="Ra::Core::TopologicalMesh\l::getVector4PropsHandles">
<polygon fill="white" stroke="black" points="166,-66 166,-96 302,-96 302,-66 166,-66"/>
<text text-anchor="start" x="174" y="-84" font-family="Helvetica,sans-Serif" font-size="10.00">Ra::Core::TopologicalMesh</text>
<text text-anchor="middle" x="234" y="-73" font-family="Helvetica,sans-Serif" font-size="10.00">::getVector4PropsHandles</text>
</a>
</g>
</g>
<!-- Node1&#45;&gt;Node7 -->
<g id="edge6" class="edge"><title>Node1&#45;&gt;Node7</title>
<path fill="none" stroke="midnightblue" d="M95.8698,-138.789C115.577,-128.971 142.078,-116.18 166,-106 170.998,-103.873 176.245,-101.743 181.509,-99.6731"/>
<polygon fill="midnightblue" stroke="midnightblue" points="182.886,-102.893 190.953,-96.0254 180.364,-96.3633 182.886,-102.893"/>
</g>
<!-- Node8 -->
<g id="node8" class="node"><title>Node8</title>
<g id="a_node8"><a xlink:href="namespaceRa_1_1Core_1_1Graph.html#a3b2b602f627a47463a09d850e1781760" target="_top" xlink:title="Ra::Core::Graph::check">
<polygon fill="white" stroke="black" points="173.5,-27.5 173.5,-46.5 294.5,-46.5 294.5,-27.5 173.5,-27.5"/>
<text text-anchor="middle" x="234" y="-34.5" font-family="Helvetica,sans-Serif" font-size="10.00">Ra::Core::Graph::check</text>
</a>
</g>
</g>
<!-- Node1&#45;&gt;Node8 -->
<g id="edge7" class="edge"><title>Node1&#45;&gt;Node8</title>
<path fill="none" stroke="midnightblue" d="M77.4844,-138.663C94.4703,-117.05 128.366,-77.8391 166,-56 169.706,-53.8495 173.67,-51.9303 177.749,-50.2195"/>
<polygon fill="midnightblue" stroke="midnightblue" points="179.276,-53.3849 187.409,-46.5954 176.817,-46.8309 179.276,-53.3849"/>
</g>
<!-- Node3 -->
<g id="node3" class="node"><title>Node3</title>
<g id="a_node3"><a xlink:href="classRa_1_1Core_1_1TopologicalMesh.html#abe2a6ac857a94f53fa1180c12ce034f8" target="_top" xlink:title="Return the half&#45;edge associated with a given vertex and face. ">
<polygon fill="white" stroke="black" points="340,-257 340,-287 476,-287 476,-257 340,-257"/>
<text text-anchor="start" x="348" y="-275" font-family="Helvetica,sans-Serif" font-size="10.00">Ra::Core::TopologicalMesh</text>
<text text-anchor="middle" x="408" y="-264" font-family="Helvetica,sans-Serif" font-size="10.00">::halfedge_handle</text>
</a>
</g>
</g>
<!-- Node2&#45;&gt;Node3 -->
<g id="edge2" class="edge"><title>Node2&#45;&gt;Node3</title>
<path fill="none" stroke="midnightblue" d="M294.193,-272C305.542,-272 317.583,-272 329.409,-272"/>
<polygon fill="midnightblue" stroke="midnightblue" points="329.725,-275.5 339.725,-272 329.725,-268.5 329.725,-275.5"/>
</g>
<!-- Node9 -->
<g id="node9" class="node"><title>Node9</title>
<g id="a_node9"><a xlink:href="classRa_1_1Core_1_1Graph_1_1AdjacencyList.html#a63e089f5da2ddc2da39dfd5bd6adb410" target="_top" xlink:title="SIZE. ">
<polygon fill="white" stroke="black" points="514,-22 514,-52 654,-52 654,-22 514,-22"/>
<text text-anchor="start" x="522" y="-40" font-family="Helvetica,sans-Serif" font-size="10.00">Ra::Core::Graph::Adjacency</text>
<text text-anchor="middle" x="584" y="-29" font-family="Helvetica,sans-Serif" font-size="10.00">List::size</text>
</a>
</g>
</g>
<!-- Node8&#45;&gt;Node9 -->
<g id="edge8" class="edge"><title>Node8&#45;&gt;Node9</title>
<path fill="none" stroke="midnightblue" d="M294.637,-38.3546C308.846,-38.6229 323.961,-38.8637 338,-39 400.219,-39.604 415.781,-39.5925 478,-39 486.321,-38.9208 495.012,-38.8062 503.678,-38.6714"/>
<polygon fill="midnightblue" stroke="midnightblue" points="503.873,-42.1688 513.814,-38.5049 503.758,-35.1697 503.873,-42.1688"/>
</g>
<!-- Node10 -->
<g id="node10" class="node"><title>Node10</title>
<g id="a_node10"><a xlink:href="classRa_1_1Core_1_1Graph_1_1AdjacencyList.html#a209e8c037a722c617b3feebdbb85c044" target="_top" xlink:title="Ra::Core::Graph::Adjacency\lList::isLeaf">
<polygon fill="white" stroke="black" points="338,-0 338,-30 478,-30 478,-0 338,-0"/>
<text text-anchor="start" x="346" y="-18" font-family="Helvetica,sans-Serif" font-size="10.00">Ra::Core::Graph::Adjacency</text>
<text text-anchor="middle" x="408" y="-7" font-family="Helvetica,sans-Serif" font-size="10.00">List::isLeaf</text>
</a>
</g>
</g>
<!-- Node8&#45;&gt;Node10 -->
<g id="edge9" class="edge"><title>Node8&#45;&gt;Node10</title>
<path fill="none" stroke="midnightblue" d="M294.675,-29.3672C305.372,-27.999 316.67,-26.5538 327.815,-25.1283"/>
<polygon fill="midnightblue" stroke="midnightblue" points="328.511,-28.5679 337.986,-23.8274 327.622,-21.6245 328.511,-28.5679"/>
</g>
<!-- Node10&#45;&gt;Node9 -->
<g id="edge10" class="edge"><title>Node10&#45;&gt;Node9</title>
<path fill="none" stroke="midnightblue" d="M478.019,-23.7266C486.476,-24.7958 495.169,-25.8949 503.761,-26.9812"/>
<polygon fill="midnightblue" stroke="midnightblue" points="503.419,-30.4659 513.779,-28.248 504.298,-23.5212 503.419,-30.4659"/>
</g>
</g>
</svg>
