<?xml version="1.0" encoding="UTF-8" standalone="no"?>
<!DOCTYPE svg PUBLIC "-//W3C//DTD SVG 1.1//EN"
 "http://www.w3.org/Graphics/SVG/1.1/DTD/svg11.dtd">
<!-- Generated by graphviz version 2.36.0 (20140111.2315)
 -->
<!-- Title: Ra::Core::CatmullClarkSubdivider Pages: 1 -->
<svg width="172pt" height="248pt"
 viewBox="0.00 0.00 172.00 248.00" xmlns="http://www.w3.org/2000/svg" xmlns:xlink="http://www.w3.org/1999/xlink">
<g id="graph0" class="graph" transform="scale(1 1) rotate(0) translate(4 244)">
<title>Ra::Core::CatmullClarkSubdivider</title>
<polygon fill="white" stroke="none" points="-4,4 -4,-244 168,-244 168,4 -4,4"/>
<!-- Node1 -->
<g id="node1" class="node"><title>Node1</title>
<polygon fill="#bfbfbf" stroke="black" points="-0.5,-0.5 -0.5,-123.5 164.5,-123.5 164.5,-0.5 -0.5,-0.5"/>
<text text-anchor="middle" x="82" y="-111.5" font-family="Helvetica,sans-Serif" font-size="10.00">Ra::Core::CatmullClarkSubdivider</text>
<polyline fill="none" stroke="black" points="-0.5,-104.5 164.5,-104.5 "/>
<text text-anchor="middle" x="82" y="-92.5" font-family="Helvetica,sans-Serif" font-size="10.00"> </text>
<polyline fill="none" stroke="black" points="-0.5,-85.5 164.5,-85.5 "/>
<text text-anchor="start" x="7.5" y="-73.5" font-family="Helvetica,sans-Serif" font-size="10.00">+ CatmullClarkSubdivider()</text>
<text text-anchor="start" x="7.5" y="-62.5" font-family="Helvetica,sans-Serif" font-size="10.00">+ CatmullClarkSubdivider()</text>
<text text-anchor="start" x="7.5" y="-51.5" font-family="Helvetica,sans-Serif" font-size="10.00">+ ~CatmullClarkSubdivider()</text>
<text text-anchor="start" x="7.5" y="-40.5" font-family="Helvetica,sans-Serif" font-size="10.00">+ name()</text>
<text text-anchor="start" x="7.5" y="-29.5" font-family="Helvetica,sans-Serif" font-size="10.00"># prepare()</text>
<text text-anchor="start" x="7.5" y="-18.5" font-family="Helvetica,sans-Serif" font-size="10.00"># cleanup()</text>
<text text-anchor="start" x="7.5" y="-7.5" font-family="Helvetica,sans-Serif" font-size="10.00"># subdivide()</text>
</g>
<!-- Node2 -->
<g id="node2" class="node"><title>Node2</title>
<polygon fill="white" stroke="#bfbfbf" points="11,-160.5 11,-239.5 153,-239.5 153,-160.5 11,-160.5"/>
<text text-anchor="start" x="19" y="-227.5" font-family="Helvetica,sans-Serif" font-size="10.00">OpenMesh::Subdivider</text>
<text text-anchor="start" x="19" y="-216.5" font-family="Helvetica,sans-Serif" font-size="10.00">::Uniform::SubdividerT</text>
<text text-anchor="middle" x="82" y="-205.5" font-family="Helvetica,sans-Serif" font-size="10.00">&lt; TopologicalMesh, Scalar &gt;</text>
<polyline fill="none" stroke="#bfbfbf" points="11,-198.5 153,-198.5 "/>
<text text-anchor="middle" x="82" y="-186.5" font-family="Helvetica,sans-Serif" font-size="10.00"> </text>
<polyline fill="none" stroke="#bfbfbf" points="11,-179.5 153,-179.5 "/>
<text text-anchor="middle" x="82" y="-167.5" font-family="Helvetica,sans-Serif" font-size="10.00"> </text>
</g>
<!-- Node2&#45;&gt;Node1 -->
<g id="edge1" class="edge"><title>Node2&#45;&gt;Node1</title>
<path fill="none" stroke="midnightblue" d="M82,-150.144C82,-141.528 82,-132.465 82,-123.574"/>
<polygon fill="none" stroke="midnightblue" points="78.5001,-150.392 82,-160.392 85.5001,-150.392 78.5001,-150.392"/>
</g>
</g>
</svg>
