<?xml version="1.0" encoding="UTF-8" standalone="no"?>
<!DOCTYPE svg PUBLIC "-//W3C//DTD SVG 1.1//EN"
 "http://www.w3.org/Graphics/SVG/1.1/DTD/svg11.dtd">
<!-- Generated by graphviz version 2.36.0 (20140111.2315)
 -->
<!-- Title: SkinningPlugin::SkinningComponent::skin Pages: 1 -->
<svg width="772pt" height="449pt"
 viewBox="0.00 0.00 772.00 449.00" xmlns="http://www.w3.org/2000/svg" xmlns:xlink="http://www.w3.org/1999/xlink">
<g id="graph0" class="graph" transform="scale(1 1) rotate(0) translate(4 445)">
<title>SkinningPlugin::SkinningComponent::skin</title>
<polygon fill="white" stroke="none" points="-4,4 -4,-445 768,-445 768,4 -4,4"/>
<!-- Node1 -->
<g id="node1" class="node"><title>Node1</title>
<polygon fill="#bfbfbf" stroke="black" points="0.5,-203 0.5,-233 125.5,-233 125.5,-203 0.5,-203"/>
<text text-anchor="start" x="8.5" y="-221" font-family="Helvetica,sans-Serif" font-size="10.00">SkinningPlugin::Skinning</text>
<text text-anchor="middle" x="63" y="-210" font-family="Helvetica,sans-Serif" font-size="10.00">Component::skin</text>
</g>
<!-- Node2 -->
<g id="node2" class="node"><title>Node2</title>
<g id="a_node2"><a xlink:href="namespaceRa_1_1Core.html#ac7dcba77ae415181131e52eecea4dab2" target="_top" xlink:title="RESET. ">
<polygon fill="white" stroke="black" points="183,-421.5 183,-440.5 267,-440.5 267,-421.5 183,-421.5"/>
<text text-anchor="middle" x="225" y="-428.5" font-family="Helvetica,sans-Serif" font-size="10.00">Ra::Core::reset</text>
</a>
</g>
</g>
<!-- Node1&#45;&gt;Node2 -->
<g id="edge1" class="edge"><title>Node1&#45;&gt;Node2</title>
<path fill="none" stroke="midnightblue" d="M67.4008,-233.024C76.3513,-269.136 103.974,-361.478 162,-411 165.481,-413.971 169.412,-416.503 173.562,-418.66"/>
<polygon fill="midnightblue" stroke="midnightblue" points="172.349,-421.951 182.909,-422.808 175.188,-415.552 172.349,-421.951"/>
</g>
<!-- Node3 -->
<g id="node3" class="node"><title>Node3</title>
<g id="a_node3"><a xlink:href="classRa_1_1Engine_1_1Component.html#a207c1dc2e97856c22e0767fb77162933" target="_top" xlink:title="Return the entity the component belongs to. ">
<polygon fill="white" stroke="black" points="164,-372 164,-402 286,-402 286,-372 164,-372"/>
<text text-anchor="start" x="172" y="-390" font-family="Helvetica,sans-Serif" font-size="10.00">Ra::Engine::Component</text>
<text text-anchor="middle" x="225" y="-379" font-family="Helvetica,sans-Serif" font-size="10.00">::getEntity</text>
</a>
</g>
</g>
<!-- Node1&#45;&gt;Node3 -->
<g id="edge2" class="edge"><title>Node1&#45;&gt;Node3</title>
<path fill="none" stroke="midnightblue" d="M70.6272,-233.217C83.9315,-262.13 116.554,-325.38 162,-362 164.056,-363.657 166.236,-365.216 168.502,-366.683"/>
<polygon fill="midnightblue" stroke="midnightblue" points="167.171,-369.954 177.587,-371.889 170.651,-363.881 167.171,-369.954"/>
</g>
<!-- Node4 -->
<g id="node4" class="node"><title>Node4</title>
<g id="a_node4"><a xlink:href="classRa_1_1Core_1_1Animation_1_1Skeleton.html#acb6381c3f288f580800589eb718c1759" target="_top" xlink:title="Ra::Core::Animation\l::Skeleton::getPose">
<polygon fill="white" stroke="black" points="172,-323 172,-353 278,-353 278,-323 172,-323"/>
<text text-anchor="start" x="180" y="-341" font-family="Helvetica,sans-Serif" font-size="10.00">Ra::Core::Animation</text>
<text text-anchor="middle" x="225" y="-330" font-family="Helvetica,sans-Serif" font-size="10.00">::Skeleton::getPose</text>
</a>
</g>
</g>
<!-- Node1&#45;&gt;Node4 -->
<g id="edge3" class="edge"><title>Node1&#45;&gt;Node4</title>
<path fill="none" stroke="midnightblue" d="M76.1925,-233.025C93.4507,-253.474 126.839,-290.135 162,-313 164.91,-314.892 167.986,-316.683 171.15,-318.372"/>
<polygon fill="midnightblue" stroke="midnightblue" points="169.716,-321.567 180.233,-322.854 172.814,-315.29 169.716,-321.567"/>
</g>
<!-- Node5 -->
<g id="node5" class="node"><title>Node5</title>
<g id="a_node5"><a xlink:href="namespaceRa_1_1Core_1_1Animation.html#a11c1b81e9ee797fa8989a34dc2514d2f" target="_top" xlink:title="Ra::Core::Animation\l::areEqual">
<polygon fill="white" stroke="black" points="172,-274 172,-304 278,-304 278,-274 172,-274"/>
<text text-anchor="start" x="180" y="-292" font-family="Helvetica,sans-Serif" font-size="10.00">Ra::Core::Animation</text>
<text text-anchor="middle" x="225" y="-281" font-family="Helvetica,sans-Serif" font-size="10.00">::areEqual</text>
</a>
</g>
</g>
<!-- Node1&#45;&gt;Node5 -->
<g id="edge4" class="edge"><title>Node1&#45;&gt;Node5</title>
<path fill="none" stroke="midnightblue" d="M95.1342,-233.155C114.297,-242.347 139.43,-254.161 162,-264 166.668,-266.035 171.557,-268.106 176.454,-270.143"/>
<polygon fill="midnightblue" stroke="midnightblue" points="175.246,-273.43 185.826,-273.995 177.908,-266.956 175.246,-273.43"/>
</g>
<!-- Node7 -->
<g id="node7" class="node"><title>Node7</title>
<g id="a_node7"><a xlink:href="namespaceRa_1_1Core_1_1Animation.html#a03d7eb179bf339237a3e5b06d6d06100" target="_top" xlink:title="Ra::Core::Animation\l::relativePose">
<polygon fill="white" stroke="black" points="172,-225 172,-255 278,-255 278,-225 172,-225"/>
<text text-anchor="start" x="180" y="-243" font-family="Helvetica,sans-Serif" font-size="10.00">Ra::Core::Animation</text>
<text text-anchor="middle" x="225" y="-232" font-family="Helvetica,sans-Serif" font-size="10.00">::relativePose</text>
</a>
</g>
</g>
<!-- Node1&#45;&gt;Node7 -->
<g id="edge6" class="edge"><title>Node1&#45;&gt;Node7</title>
<path fill="none" stroke="midnightblue" d="M125.86,-226.506C137.627,-228.124 149.946,-229.818 161.725,-231.437"/>
<polygon fill="midnightblue" stroke="midnightblue" points="161.526,-234.943 171.91,-232.838 162.48,-228.008 161.526,-234.943"/>
</g>
<!-- Node8 -->
<g id="node8" class="node"><title>Node8</title>
<g id="a_node8"><a xlink:href="namespaceRa_1_1Core_1_1Animation.html#a19bc7bcc26d8a3662f182f6d9a61764d" target="_top" xlink:title="Ra::Core::Animation\l::linearBlendSkinning">
<polygon fill="white" stroke="black" points="332,-171 332,-201 440,-201 440,-171 332,-171"/>
<text text-anchor="start" x="340" y="-189" font-family="Helvetica,sans-Serif" font-size="10.00">Ra::Core::Animation</text>
<text text-anchor="middle" x="386" y="-178" font-family="Helvetica,sans-Serif" font-size="10.00">::linearBlendSkinning</text>
</a>
</g>
</g>
<!-- Node1&#45;&gt;Node8 -->
<g id="edge8" class="edge"><title>Node1&#45;&gt;Node8</title>
<path fill="none" stroke="midnightblue" d="M125.512,-211.868C181.81,-206.256 264.767,-197.986 321.64,-192.316"/>
<polygon fill="midnightblue" stroke="midnightblue" points="322.34,-195.764 331.943,-191.289 321.645,-188.798 322.34,-195.764"/>
</g>
<!-- Node9 -->
<g id="node9" class="node"><title>Node9</title>
<g id="a_node9"><a xlink:href="classRa_1_1Core_1_1TriangleMesh.html#a495116f40cfec8bb6504698d786d4b8c" target="_top" xlink:title="Access the vertices positions. ">
<polygon fill="white" stroke="black" points="164.5,-0 164.5,-30 285.5,-30 285.5,-0 164.5,-0"/>
<text text-anchor="start" x="172.5" y="-18" font-family="Helvetica,sans-Serif" font-size="10.00">Ra::Core::TriangleMesh</text>
<text text-anchor="middle" x="225" y="-7" font-family="Helvetica,sans-Serif" font-size="10.00">::vertices</text>
</a>
</g>
</g>
<!-- Node1&#45;&gt;Node9 -->
<g id="edge9" class="edge"><title>Node1&#45;&gt;Node9</title>
<path fill="none" stroke="midnightblue" d="M68.3667,-202.755C78.8713,-168.685 108.71,-85.7019 162,-39 163.343,-37.8232 164.75,-36.7011 166.208,-35.6312"/>
<polygon fill="midnightblue" stroke="midnightblue" points="168.447,-38.3569 175.035,-30.0592 164.71,-32.4376 168.447,-38.3569"/>
</g>
<!-- Node11 -->
<g id="node11" class="node"><title>Node11</title>
<g id="a_node11"><a xlink:href="namespaceRa_1_1Core_1_1Animation.html#a18e75548900106987573622831f3aae5" target="_top" xlink:title="Ra::Core::Animation\l::computeDQ">
<polygon fill="white" stroke="black" points="333,-103 333,-133 439,-133 439,-103 333,-103"/>
<text text-anchor="start" x="341" y="-121" font-family="Helvetica,sans-Serif" font-size="10.00">Ra::Core::Animation</text>
<text text-anchor="middle" x="386" y="-110" font-family="Helvetica,sans-Serif" font-size="10.00">::computeDQ</text>
</a>
</g>
</g>
<!-- Node1&#45;&gt;Node11 -->
<g id="edge11" class="edge"><title>Node1&#45;&gt;Node11</title>
<path fill="none" stroke="midnightblue" d="M74.5814,-202.947C90.6409,-181.523 123.416,-143.057 162,-127 213.05,-105.755 276.482,-105.399 322.627,-109.245"/>
<polygon fill="midnightblue" stroke="midnightblue" points="322.508,-112.749 332.787,-110.183 323.151,-105.779 322.508,-112.749"/>
</g>
<!-- Node16 -->
<g id="node16" class="node"><title>Node16</title>
<g id="a_node16"><a xlink:href="namespaceRa_1_1Core_1_1Animation.html#ac00813d1e8a00ddb0c98dccfc91d4828" target="_top" xlink:title="Ra::Core::Animation\l::dualQuaternionSkinning">
<polygon fill="white" stroke="black" points="162.5,-49 162.5,-79 287.5,-79 287.5,-49 162.5,-49"/>
<text text-anchor="start" x="170.5" y="-67" font-family="Helvetica,sans-Serif" font-size="10.00">Ra::Core::Animation</text>
<text text-anchor="middle" x="225" y="-56" font-family="Helvetica,sans-Serif" font-size="10.00">::dualQuaternionSkinning</text>
</a>
</g>
</g>
<!-- Node1&#45;&gt;Node16 -->
<g id="edge16" class="edge"><title>Node1&#45;&gt;Node16</title>
<path fill="none" stroke="midnightblue" d="M72.7991,-202.831C88.1371,-177.478 121.983,-126.117 162,-94 166.6,-90.3079 171.729,-86.9248 177.013,-83.8687"/>
<polygon fill="midnightblue" stroke="midnightblue" points="178.84,-86.8603 185.985,-79.0374 175.521,-80.6971 178.84,-86.8603"/>
</g>
<!-- Node18 -->
<g id="node18" class="node"><title>Node18</title>
<g id="a_node18"><a xlink:href="namespaceRa_1_1Core_1_1Animation.html#a6ed92a8ce349fc8e84c099d05ae0a35b" target="_top" xlink:title="Skin the vertices with the optimal centers of rotation. ">
<polygon fill="white" stroke="black" points="172,-137 172,-167 278,-167 278,-137 172,-137"/>
<text text-anchor="start" x="180" y="-155" font-family="Helvetica,sans-Serif" font-size="10.00">Ra::Core::Animation</text>
<text text-anchor="middle" x="225" y="-144" font-family="Helvetica,sans-Serif" font-size="10.00">::corSkinning</text>
</a>
</g>
</g>
<!-- Node1&#45;&gt;Node18 -->
<g id="edge18" class="edge"><title>Node1&#45;&gt;Node18</title>
<path fill="none" stroke="midnightblue" d="M100.707,-202.858C123.676,-193.384 153.458,-181.099 177.997,-170.976"/>
<polygon fill="midnightblue" stroke="midnightblue" points="179.554,-174.12 187.464,-167.071 176.884,-167.649 179.554,-174.12"/>
</g>
<!-- Node6 -->
<g id="node6" class="node"><title>Node6</title>
<g id="a_node6"><a xlink:href="namespaceRa_1_1Core_1_1Animation.html#a44a3a0320649edf2829268bf80555800" target="_top" xlink:title="Ra::Core::Animation\l::compatible">
<polygon fill="white" stroke="black" points="333,-249 333,-279 439,-279 439,-249 333,-249"/>
<text text-anchor="start" x="341" y="-267" font-family="Helvetica,sans-Serif" font-size="10.00">Ra::Core::Animation</text>
<text text-anchor="middle" x="386" y="-256" font-family="Helvetica,sans-Serif" font-size="10.00">::compatible</text>
</a>
</g>
</g>
<!-- Node5&#45;&gt;Node6 -->
<g id="edge5" class="edge"><title>Node5&#45;&gt;Node6</title>
<path fill="none" stroke="midnightblue" d="M278.063,-280.814C292.338,-278.569 307.96,-276.113 322.745,-273.789"/>
<polygon fill="midnightblue" stroke="midnightblue" points="323.486,-277.215 332.82,-272.204 322.398,-270.3 323.486,-277.215"/>
</g>
<!-- Node7&#45;&gt;Node6 -->
<g id="edge7" class="edge"><title>Node7&#45;&gt;Node6</title>
<path fill="none" stroke="midnightblue" d="M278.063,-247.858C292.338,-250.013 307.96,-252.371 322.745,-254.603"/>
<polygon fill="midnightblue" stroke="midnightblue" points="322.41,-258.092 332.82,-256.124 323.455,-251.17 322.41,-258.092"/>
</g>
<!-- Node10 -->
<g id="node10" class="node"><title>Node10</title>
<g id="a_node10"><a xlink:href="classRa_1_1Core_1_1AttribManager.html#aaa6088620425c1e1d74b50f1b50eb596" target="_top" xlink:title="Get attribute by handle. ">
<polygon fill="white" stroke="black" points="324.5,-0 324.5,-30 447.5,-30 447.5,-0 324.5,-0"/>
<text text-anchor="start" x="332.5" y="-18" font-family="Helvetica,sans-Serif" font-size="10.00">Ra::Core::AttribManager</text>
<text text-anchor="middle" x="386" y="-7" font-family="Helvetica,sans-Serif" font-size="10.00">::getAttrib</text>
</a>
</g>
</g>
<!-- Node9&#45;&gt;Node10 -->
<g id="edge10" class="edge"><title>Node9&#45;&gt;Node10</title>
<path fill="none" stroke="midnightblue" d="M285.658,-15C294.977,-15 304.684,-15 314.221,-15"/>
<polygon fill="midnightblue" stroke="midnightblue" points="314.478,-18.5001 324.478,-15 314.478,-11.5001 314.478,-18.5001"/>
</g>
<!-- Node12 -->
<g id="node12" class="node"><title>Node12</title>
<g id="a_node12"><a xlink:href="namespaceRa_1_1Core_1_1Math.html#a90f0fe9079f5bb86c721ea4b61738470" target="_top" xlink:title="Returns the sign of any numeric type as { &#45;1, 0, 1}. ">
<polygon fill="white" stroke="black" points="491,-146.5 491,-165.5 599,-165.5 599,-146.5 491,-146.5"/>
<text text-anchor="middle" x="545" y="-153.5" font-family="Helvetica,sans-Serif" font-size="10.00">Ra::Core::Math::sign</text>
</a>
</g>
</g>
<!-- Node11&#45;&gt;Node12 -->
<g id="edge12" class="edge"><title>Node11&#45;&gt;Node12</title>
<path fill="none" stroke="midnightblue" d="M439.279,-130.653C457.026,-134.949 476.793,-139.733 494.33,-143.978"/>
<polygon fill="midnightblue" stroke="midnightblue" points="493.824,-147.456 504.366,-146.407 495.47,-140.653 493.824,-147.456"/>
</g>
<!-- Node14 -->
<g id="node14" class="node"><title>Node14</title>
<g id="a_node14"><a xlink:href="namespaceRa_1_1Core_1_1Math.html#a810d6d50b61cc01cda1d54527de864d0" target="_top" xlink:title="Returns the sign of any numeric type as { &#45;1, 1} Note: signNZ(0) returns 1 for any integral type but ...">
<polygon fill="white" stroke="black" points="484,-108.5 484,-127.5 606,-127.5 606,-108.5 484,-108.5"/>
<text text-anchor="middle" x="545" y="-115.5" font-family="Helvetica,sans-Serif" font-size="10.00">Ra::Core::Math::signNZ</text>
</a>
</g>
</g>
<!-- Node11&#45;&gt;Node14 -->
<g id="edge14" class="edge"><title>Node11&#45;&gt;Node14</title>
<path fill="none" stroke="midnightblue" d="M439.279,-118C450.317,-118 462.138,-118 473.717,-118"/>
<polygon fill="midnightblue" stroke="midnightblue" points="473.805,-121.5 483.805,-118 473.805,-114.5 473.805,-121.5"/>
</g>
<!-- Node15 -->
<g id="node15" class="node"><title>Node15</title>
<g id="a_node15"><a xlink:href="namespaceOpenMesh.html#a575b338f0fc9ecb5393d23e977e6ac38" target="_top" xlink:title="OpenMesh::dot">
<polygon fill="white" stroke="black" points="503.5,-70.5 503.5,-89.5 586.5,-89.5 586.5,-70.5 503.5,-70.5"/>
<text text-anchor="middle" x="545" y="-77.5" font-family="Helvetica,sans-Serif" font-size="10.00">OpenMesh::dot</text>
</a>
</g>
</g>
<!-- Node11&#45;&gt;Node15 -->
<g id="edge15" class="edge"><title>Node11&#45;&gt;Node15</title>
<path fill="none" stroke="midnightblue" d="M439.279,-105.347C457.026,-101.051 476.793,-96.2667 494.33,-92.022"/>
<polygon fill="midnightblue" stroke="midnightblue" points="495.47,-95.3471 504.366,-89.5928 493.824,-88.5436 495.47,-95.3471"/>
</g>
<!-- Node13 -->
<g id="node13" class="node"><title>Node13</title>
<g id="a_node13"><a xlink:href="namespaceRa_1_1Core_1_1Math.html#ae4e681e0738fe7e5bfd028c6270b597a" target="_top" xlink:title="Ra::Core::Math::signum">
<polygon fill="white" stroke="black" points="642,-146.5 642,-165.5 764,-165.5 764,-146.5 642,-146.5"/>
<text text-anchor="middle" x="703" y="-153.5" font-family="Helvetica,sans-Serif" font-size="10.00">Ra::Core::Math::signum</text>
</a>
</g>
</g>
<!-- Node12&#45;&gt;Node13 -->
<g id="edge13" class="edge"><title>Node12&#45;&gt;Node13</title>
<path fill="none" stroke="midnightblue" d="M599.25,-156C609.618,-156 620.636,-156 631.462,-156"/>
<polygon fill="midnightblue" stroke="midnightblue" points="631.753,-159.5 641.753,-156 631.753,-152.5 631.753,-159.5"/>
</g>
<!-- Node17 -->
<g id="node17" class="node"><title>Node17</title>
<g id="a_node17"><a xlink:href="namespaceRa_1_1Core.html#abc0a3625137098b67838fe52edd480f9" target="_top" xlink:title="SIZE. ">
<polygon fill="white" stroke="black" points="346,-54.5 346,-73.5 426,-73.5 426,-54.5 346,-54.5"/>
<text text-anchor="middle" x="386" y="-61.5" font-family="Helvetica,sans-Serif" font-size="10.00">Ra::Core::size</text>
</a>
</g>
</g>
<!-- Node16&#45;&gt;Node17 -->
<g id="edge17" class="edge"><title>Node16&#45;&gt;Node17</title>
<path fill="none" stroke="midnightblue" d="M287.929,-64C303.799,-64 320.652,-64 335.784,-64"/>
<polygon fill="midnightblue" stroke="midnightblue" points="335.952,-67.5001 345.952,-64 335.951,-60.5001 335.952,-67.5001"/>
</g>
<!-- Node18&#45;&gt;Node8 -->
<g id="edge21" class="edge"><title>Node18&#45;&gt;Node8</title>
<path fill="none" stroke="midnightblue" d="M278.063,-163.133C292.044,-166.123 307.316,-169.388 321.829,-172.492"/>
<polygon fill="midnightblue" stroke="midnightblue" points="321.22,-175.941 331.731,-174.609 322.684,-169.095 321.22,-175.941"/>
</g>
<!-- Node18&#45;&gt;Node11 -->
<g id="edge20" class="edge"><title>Node18&#45;&gt;Node11</title>
<path fill="none" stroke="midnightblue" d="M278.063,-140.867C292.338,-137.814 307.96,-134.474 322.745,-131.312"/>
<polygon fill="midnightblue" stroke="midnightblue" points="323.773,-134.672 332.82,-129.158 322.31,-127.826 323.773,-134.672"/>
</g>
<!-- Node18&#45;&gt;Node17 -->
<g id="edge19" class="edge"><title>Node18&#45;&gt;Node17</title>
<path fill="none" stroke="midnightblue" d="M249.783,-136.783C269.398,-124.453 298.106,-106.906 324,-93 333.685,-87.7987 344.457,-82.5177 354.221,-77.913"/>
<polygon fill="midnightblue" stroke="midnightblue" points="355.982,-80.954 363.572,-73.5617 353.029,-74.6075 355.982,-80.954"/>
</g>
</g>
</svg>
