<?xml version="1.0" encoding="UTF-8" standalone="no"?>
<!DOCTYPE svg PUBLIC "-//W3C//DTD SVG 1.1//EN"
 "http://www.w3.org/Graphics/SVG/1.1/DTD/svg11.dtd">
<!-- Generated by graphviz version 2.36.0 (20140111.2315)
 -->
<!-- Title: AnimationPlugin::AnimationSystem::reset Pages: 1 -->
<svg width="814pt" height="127pt"
 viewBox="0.00 0.00 814.00 127.00" xmlns="http://www.w3.org/2000/svg" xmlns:xlink="http://www.w3.org/1999/xlink">
<g id="graph0" class="graph" transform="scale(1 1) rotate(0) translate(4 123)">
<title>AnimationPlugin::AnimationSystem::reset</title>
<polygon fill="white" stroke="none" points="-4,4 -4,-123 810,-123 810,4 -4,4"/>
<!-- Node1 -->
<g id="node1" class="node"><title>Node1</title>
<polygon fill="#bfbfbf" stroke="black" points="0.5,-23 0.5,-53 137.5,-53 137.5,-23 0.5,-23"/>
<text text-anchor="start" x="8.5" y="-41" font-family="Helvetica,sans-Serif" font-size="10.00">AnimationPlugin::Animation</text>
<text text-anchor="middle" x="69" y="-30" font-family="Helvetica,sans-Serif" font-size="10.00">System::reset</text>
</g>
<!-- Node2 -->
<g id="node2" class="node"><title>Node2</title>
<g id="a_node2"><a xlink:href="classAnimationPlugin_1_1AnimationComponent.html#a8003df2b5f3137642ec4698502a32666" target="_top" xlink:title="Resets the animation, thus posing the skeleton into the reference pose. ">
<polygon fill="white" stroke="black" points="174.5,-45 174.5,-75 311.5,-75 311.5,-45 174.5,-45"/>
<text text-anchor="start" x="182.5" y="-63" font-family="Helvetica,sans-Serif" font-size="10.00">AnimationPlugin::Animation</text>
<text text-anchor="middle" x="243" y="-52" font-family="Helvetica,sans-Serif" font-size="10.00">Component::reset</text>
</a>
</g>
</g>
<!-- Node1&#45;&gt;Node2 -->
<g id="edge1" class="edge"><title>Node1&#45;&gt;Node2</title>
<path fill="none" stroke="midnightblue" d="M137.979,-46.695C146.55,-47.7913 155.372,-48.9196 164.082,-50.0337"/>
<polygon fill="midnightblue" stroke="midnightblue" points="163.87,-53.5351 174.233,-51.3322 164.758,-46.5916 163.87,-53.5351"/>
</g>
<!-- Node7 -->
<g id="node7" class="node"><title>Node7</title>
<g id="a_node7"><a xlink:href="namespaceRa_1_1Core.html#ac7dcba77ae415181131e52eecea4dab2" target="_top" xlink:title="RESET. ">
<polygon fill="white" stroke="black" points="201,-6.5 201,-25.5 285,-25.5 285,-6.5 201,-6.5"/>
<text text-anchor="middle" x="243" y="-13.5" font-family="Helvetica,sans-Serif" font-size="10.00">Ra::Core::reset</text>
</a>
</g>
</g>
<!-- Node1&#45;&gt;Node7 -->
<g id="edge7" class="edge"><title>Node1&#45;&gt;Node7</title>
<path fill="none" stroke="midnightblue" d="M137.979,-29.305C155.553,-27.0572 174.178,-24.6749 190.738,-22.5568"/>
<polygon fill="midnightblue" stroke="midnightblue" points="191.279,-26.0162 200.754,-21.2757 190.391,-19.0728 191.279,-26.0162"/>
</g>
<!-- Node3 -->
<g id="node3" class="node"><title>Node3</title>
<g id="a_node3"><a xlink:href="classRa_1_1Core_1_1Animation_1_1Skeleton.html#a7aec08b57bfa9dbce1c5b47e96de81d9" target="_top" xlink:title="Set the current pose. ">
<polygon fill="white" stroke="black" points="348,-45 348,-75 454,-75 454,-45 348,-45"/>
<text text-anchor="start" x="356" y="-63" font-family="Helvetica,sans-Serif" font-size="10.00">Ra::Core::Animation</text>
<text text-anchor="middle" x="401" y="-52" font-family="Helvetica,sans-Serif" font-size="10.00">::Skeleton::setPose</text>
</a>
</g>
</g>
<!-- Node2&#45;&gt;Node3 -->
<g id="edge2" class="edge"><title>Node2&#45;&gt;Node3</title>
<path fill="none" stroke="midnightblue" d="M311.517,-60C320.276,-60 329.215,-60 337.881,-60"/>
<polygon fill="midnightblue" stroke="midnightblue" points="337.902,-63.5001 347.902,-60 337.902,-56.5001 337.902,-63.5001"/>
</g>
<!-- Node4 -->
<g id="node4" class="node"><title>Node4</title>
<g id="a_node4"><a xlink:href="classRa_1_1Core_1_1Animation_1_1Skeleton.html#a5679e1beb544b515c4539ce48a2f2ba3" target="_top" xlink:title="Ra::Core::Animation\l::Skeleton::size">
<polygon fill="white" stroke="black" points="507,-89 507,-119 613,-119 613,-89 507,-89"/>
<text text-anchor="start" x="515" y="-107" font-family="Helvetica,sans-Serif" font-size="10.00">Ra::Core::Animation</text>
<text text-anchor="middle" x="560" y="-96" font-family="Helvetica,sans-Serif" font-size="10.00">::Skeleton::size</text>
</a>
</g>
</g>
<!-- Node3&#45;&gt;Node4 -->
<g id="edge3" class="edge"><title>Node3&#45;&gt;Node4</title>
<path fill="none" stroke="midnightblue" d="M454.279,-74.6514C468.049,-78.5106 483.036,-82.7107 497.254,-86.6953"/>
<polygon fill="midnightblue" stroke="midnightblue" points="496.376,-90.0841 506.95,-89.4126 498.265,-83.3438 496.376,-90.0841"/>
</g>
<!-- Node5 -->
<g id="node5" class="node"><title>Node5</title>
<g id="a_node5"><a xlink:href="classRa_1_1Core_1_1Graph_1_1AdjacencyList.html#a63e089f5da2ddc2da39dfd5bd6adb410" target="_top" xlink:title="SIZE. ">
<polygon fill="white" stroke="black" points="666,-23 666,-53 806,-53 806,-23 666,-23"/>
<text text-anchor="start" x="674" y="-41" font-family="Helvetica,sans-Serif" font-size="10.00">Ra::Core::Graph::Adjacency</text>
<text text-anchor="middle" x="736" y="-30" font-family="Helvetica,sans-Serif" font-size="10.00">List::size</text>
</a>
</g>
</g>
<!-- Node3&#45;&gt;Node5 -->
<g id="edge4" class="edge"><title>Node3&#45;&gt;Node5</title>
<path fill="none" stroke="midnightblue" d="M454.031,-56.5625C508.007,-52.9966 593.089,-47.3755 655.496,-43.2525"/>
<polygon fill="midnightblue" stroke="midnightblue" points="655.951,-46.7302 665.699,-42.5785 655.49,-39.7454 655.951,-46.7302"/>
</g>
<!-- Node6 -->
<g id="node6" class="node"><title>Node6</title>
<g id="a_node6"><a xlink:href="classRa_1_1Core_1_1Graph_1_1AdjacencyList.html#a8671f51516bd82a2ea4246bc0c1e34f1" target="_top" xlink:title="Ra::Core::Graph::Adjacency\lList::isRoot">
<polygon fill="white" stroke="black" points="490,-1 490,-31 630,-31 630,-1 490,-1"/>
<text text-anchor="start" x="498" y="-19" font-family="Helvetica,sans-Serif" font-size="10.00">Ra::Core::Graph::Adjacency</text>
<text text-anchor="middle" x="560" y="-8" font-family="Helvetica,sans-Serif" font-size="10.00">List::isRoot</text>
</a>
</g>
</g>
<!-- Node3&#45;&gt;Node6 -->
<g id="edge5" class="edge"><title>Node3&#45;&gt;Node6</title>
<path fill="none" stroke="midnightblue" d="M454.279,-45.3486C467.486,-41.6472 481.812,-37.6322 495.506,-33.7945"/>
<polygon fill="midnightblue" stroke="midnightblue" points="496.656,-37.1073 505.34,-31.0385 494.767,-30.3669 496.656,-37.1073"/>
</g>
<!-- Node6&#45;&gt;Node5 -->
<g id="edge6" class="edge"><title>Node6&#45;&gt;Node5</title>
<path fill="none" stroke="midnightblue" d="M630.019,-24.7266C638.476,-25.7958 647.169,-26.8949 655.761,-27.9812"/>
<polygon fill="midnightblue" stroke="midnightblue" points="655.419,-31.4659 665.779,-29.248 656.298,-24.5212 655.419,-31.4659"/>
</g>
</g>
</svg>
