<?xml version="1.0" encoding="UTF-8" standalone="no"?>
<!DOCTYPE svg PUBLIC "-//W3C//DTD SVG 1.1//EN"
 "http://www.w3.org/Graphics/SVG/1.1/DTD/svg11.dtd">
<!-- Generated by graphviz version 2.36.0 (20140111.2315)
 -->
<!-- Title: Ra::IO::AssimpGeometryDataLoader::fetchTextureCoordinates Pages: 1 -->
<svg width="336pt" height="165pt"
 viewBox="0.00 0.00 336.00 165.00" xmlns="http://www.w3.org/2000/svg" xmlns:xlink="http://www.w3.org/1999/xlink">
<g id="graph0" class="graph" transform="scale(1 1) rotate(0) translate(4 161)">
<title>Ra::IO::AssimpGeometryDataLoader::fetchTextureCoordinates</title>
<polygon fill="white" stroke="none" points="-4,4 -4,-161 332,-161 332,4 -4,4"/>
<!-- Node1 -->
<g id="node1" class="node"><title>Node1</title>
<polygon fill="#bfbfbf" stroke="black" points="0.5,-63 0.5,-93 159.5,-93 159.5,-63 0.5,-63"/>
<text text-anchor="start" x="8.5" y="-81" font-family="Helvetica,sans-Serif" font-size="10.00">Ra::IO::AssimpGeometryData</text>
<text text-anchor="middle" x="80" y="-70" font-family="Helvetica,sans-Serif" font-size="10.00">Loader::fetchTextureCoordinates</text>
</g>
<!-- Node2 -->
<g id="node2" class="node"><title>Node2</title>
<g id="a_node2"><a xlink:href="namespaceRa_1_1Core.html#abc0a3625137098b67838fe52edd480f9" target="_top" xlink:title="SIZE. ">
<polygon fill="white" stroke="black" points="222,-137.5 222,-156.5 302,-156.5 302,-137.5 222,-137.5"/>
<text text-anchor="middle" x="262" y="-144.5" font-family="Helvetica,sans-Serif" font-size="10.00">Ra::Core::size</text>
</a>
</g>
</g>
<!-- Node1&#45;&gt;Node2 -->
<g id="edge1" class="edge"><title>Node1&#45;&gt;Node2</title>
<path fill="none" stroke="midnightblue" d="M113.848,-93.0776C136.653,-103.277 167.873,-116.712 196,-127 203.013,-129.565 210.529,-132.084 217.871,-134.422"/>
<polygon fill="midnightblue" stroke="midnightblue" points="217.122,-137.855 227.71,-137.486 219.203,-131.171 217.122,-137.855"/>
</g>
<!-- Node3 -->
<g id="node3" class="node"><title>Node3</title>
<g id="a_node3"><a xlink:href="classRa_1_1Asset_1_1GeometryData.html#a55dc4072ed4026280b5e124f35d5b550" target="_top" xlink:title="Ra::Asset::GeometryData\l::getTexCoords">
<polygon fill="white" stroke="black" points="196.5,-88 196.5,-118 327.5,-118 327.5,-88 196.5,-88"/>
<text text-anchor="start" x="204.5" y="-106" font-family="Helvetica,sans-Serif" font-size="10.00">Ra::Asset::GeometryData</text>
<text text-anchor="middle" x="262" y="-95" font-family="Helvetica,sans-Serif" font-size="10.00">::getTexCoords</text>
</a>
</g>
</g>
<!-- Node1&#45;&gt;Node3 -->
<g id="edge2" class="edge"><title>Node1&#45;&gt;Node3</title>
<path fill="none" stroke="midnightblue" d="M159.689,-88.929C168.46,-90.1472 177.377,-91.3857 186.099,-92.5971"/>
<polygon fill="midnightblue" stroke="midnightblue" points="185.842,-96.0948 196.228,-94.0039 186.805,-89.1614 185.842,-96.0948"/>
</g>
<!-- Node4 -->
<g id="node4" class="node"><title>Node4</title>
<g id="a_node4"><a xlink:href="classRa_1_1Asset_1_1GeometryData.html#ad31c0f120d5e88c40afefa79c29ae28a" target="_top" xlink:title="DATA. ">
<polygon fill="white" stroke="black" points="196.5,-39 196.5,-69 327.5,-69 327.5,-39 196.5,-39"/>
<text text-anchor="start" x="204.5" y="-57" font-family="Helvetica,sans-Serif" font-size="10.00">Ra::Asset::GeometryData</text>
<text text-anchor="middle" x="262" y="-46" font-family="Helvetica,sans-Serif" font-size="10.00">::getVerticesSize</text>
</a>
</g>
</g>
<!-- Node1&#45;&gt;Node4 -->
<g id="edge3" class="edge"><title>Node1&#45;&gt;Node4</title>
<path fill="none" stroke="midnightblue" d="M159.689,-67.5082C168.46,-66.3387 177.377,-65.1498 186.099,-63.9868"/>
<polygon fill="midnightblue" stroke="midnightblue" points="186.778,-67.4273 196.228,-62.6363 185.853,-60.4887 186.778,-67.4273"/>
</g>
<!-- Node5 -->
<g id="node5" class="node"><title>Node5</title>
<g id="a_node5"><a xlink:href="namespaceRa_1_1IO.html#aef6c50424873964fcea0008be55d4a34" target="_top" xlink:title="Ra::IO::assimpToCore">
<polygon fill="white" stroke="black" points="204,-0.5 204,-19.5 320,-19.5 320,-0.5 204,-0.5"/>
<text text-anchor="middle" x="262" y="-7.5" font-family="Helvetica,sans-Serif" font-size="10.00">Ra::IO::assimpToCore</text>
</a>
</g>
</g>
<!-- Node1&#45;&gt;Node5 -->
<g id="edge4" class="edge"><title>Node1&#45;&gt;Node5</title>
<path fill="none" stroke="midnightblue" d="M114.877,-62.8421C137.603,-52.9264 168.33,-40.0049 196,-30 203.023,-27.4607 210.543,-24.9553 217.887,-22.622"/>
<polygon fill="midnightblue" stroke="midnightblue" points="219.219,-25.8731 227.727,-19.56 217.139,-19.1892 219.219,-25.8731"/>
</g>
</g>
</svg>
