<?xml version="1.0" encoding="UTF-8" standalone="no"?>
<!DOCTYPE svg PUBLIC "-//W3C//DTD SVG 1.1//EN"
 "http://www.w3.org/Graphics/SVG/1.1/DTD/svg11.dtd">
<!-- Generated by graphviz version 2.36.0 (20140111.2315)
 -->
<!-- Title: MeshFeatureTrackingPlugin::MeshFeatureTrackingPluginC::triangleIdChanged Pages: 1 -->
<svg width="1252pt" height="483pt"
 viewBox="0.00 0.00 1252.00 483.00" xmlns="http://www.w3.org/2000/svg" xmlns:xlink="http://www.w3.org/1999/xlink">
<g id="graph0" class="graph" transform="scale(1 1) rotate(0) translate(4 479)">
<title>MeshFeatureTrackingPlugin::MeshFeatureTrackingPluginC::triangleIdChanged</title>
<polygon fill="white" stroke="none" points="-4,4 -4,-479 1248,-479 1248,4 -4,4"/>
<!-- Node1 -->
<g id="node1" class="node"><title>Node1</title>
<polygon fill="#bfbfbf" stroke="black" points="0,-212.5 0,-253.5 152,-253.5 152,-212.5 0,-212.5"/>
<text text-anchor="start" x="8" y="-241.5" font-family="Helvetica,sans-Serif" font-size="10.00">MeshFeatureTrackingPlugin</text>
<text text-anchor="start" x="8" y="-230.5" font-family="Helvetica,sans-Serif" font-size="10.00">::MeshFeatureTrackingPluginC</text>
<text text-anchor="middle" x="76" y="-219.5" font-family="Helvetica,sans-Serif" font-size="10.00">::triangleIdChanged</text>
</g>
<!-- Node2 -->
<g id="node2" class="node"><title>Node2</title>
<g id="a_node2"><a xlink:href="classMeshFeatureTrackingPlugin_1_1MeshFeatureTrackingComponent.html#aae4f19d1ab141e7f312914ffdc113abf" target="_top" xlink:title="MeshFeatureTrackingPlugin\l::MeshFeatureTrackingComponent\l::setTriangleIdx">
<polygon fill="white" stroke="black" points="580.5,-313.5 580.5,-354.5 747.5,-354.5 747.5,-313.5 580.5,-313.5"/>
<text text-anchor="start" x="588.5" y="-342.5" font-family="Helvetica,sans-Serif" font-size="10.00">MeshFeatureTrackingPlugin</text>
<text text-anchor="start" x="588.5" y="-331.5" font-family="Helvetica,sans-Serif" font-size="10.00">::MeshFeatureTrackingComponent</text>
<text text-anchor="middle" x="664" y="-320.5" font-family="Helvetica,sans-Serif" font-size="10.00">::setTriangleIdx</text>
</a>
</g>
</g>
<!-- Node1&#45;&gt;Node2 -->
<g id="edge1" class="edge"><title>Node1&#45;&gt;Node2</title>
<path fill="none" stroke="midnightblue" d="M152.111,-245.946C258.943,-264.359 454.621,-298.085 570.328,-318.028"/>
<polygon fill="midnightblue" stroke="midnightblue" points="569.788,-321.486 580.237,-319.735 570.977,-314.588 569.788,-321.486"/>
</g>
<!-- Node8 -->
<g id="node8" class="node"><title>Node8</title>
<g id="a_node8"><a xlink:href="classMeshFeatureTrackingPlugin_1_1MeshFeatureTrackingPluginC.html#a044454a5138e9d6549ade7c9648a0cc1" target="_top" xlink:title="MeshFeatureTrackingPlugin\l::MeshFeatureTrackingPluginC\l::update">
<polygon fill="white" stroke="black" points="188,-117.5 188,-158.5 340,-158.5 340,-117.5 188,-117.5"/>
<text text-anchor="start" x="196" y="-146.5" font-family="Helvetica,sans-Serif" font-size="10.00">MeshFeatureTrackingPlugin</text>
<text text-anchor="start" x="196" y="-135.5" font-family="Helvetica,sans-Serif" font-size="10.00">::MeshFeatureTrackingPluginC</text>
<text text-anchor="middle" x="264" y="-124.5" font-family="Helvetica,sans-Serif" font-size="10.00">::update</text>
</a>
</g>
</g>
<!-- Node1&#45;&gt;Node8 -->
<g id="edge7" class="edge"><title>Node1&#45;&gt;Node8</title>
<path fill="none" stroke="midnightblue" d="M117.359,-212.386C145.633,-197.946 183.585,-178.561 213.659,-163.201"/>
<polygon fill="midnightblue" stroke="midnightblue" points="215.406,-166.239 222.72,-158.573 212.222,-160.005 215.406,-166.239"/>
</g>
<!-- Node3 -->
<g id="node3" class="node"><title>Node3</title>
<g id="a_node3"><a xlink:href="classRa_1_1Engine_1_1Component.html#a10b0bc182b76165744ebea603ae32dfe" target="_top" xlink:title="Shortcut to access the render object manager. ">
<polygon fill="white" stroke="black" points="790,-200 790,-230 912,-230 912,-200 790,-200"/>
<text text-anchor="start" x="798" y="-218" font-family="Helvetica,sans-Serif" font-size="10.00">Ra::Engine::Component</text>
<text text-anchor="middle" x="851" y="-207" font-family="Helvetica,sans-Serif" font-size="10.00">::getRoMgr</text>
</a>
</g>
</g>
<!-- Node2&#45;&gt;Node3 -->
<g id="edge2" class="edge"><title>Node2&#45;&gt;Node3</title>
<path fill="none" stroke="midnightblue" d="M729.535,-313.391C735.926,-310.552 742.19,-307.421 748,-304 779.109,-285.683 809.609,-257.304 829.031,-237.533"/>
<polygon fill="midnightblue" stroke="midnightblue" points="831.725,-239.782 836.155,-230.158 826.69,-234.919 831.725,-239.782"/>
</g>
<!-- Node4 -->
<g id="node4" class="node"><title>Node4</title>
<g id="a_node4"><a xlink:href="classRa_1_1Engine_1_1RenderObjectManager.html#a32bd0db0d9620bb7e3f0fe50b541dae3" target="_top" xlink:title="Returns the render object corresponding to the given index. ">
<polygon fill="white" stroke="black" points="784,-151 784,-181 918,-181 918,-151 784,-151"/>
<text text-anchor="start" x="792" y="-169" font-family="Helvetica,sans-Serif" font-size="10.00">Ra::Engine::RenderObject</text>
<text text-anchor="middle" x="851" y="-158" font-family="Helvetica,sans-Serif" font-size="10.00">Manager::getRenderObject</text>
</a>
</g>
</g>
<!-- Node2&#45;&gt;Node4 -->
<g id="edge3" class="edge"><title>Node2&#45;&gt;Node4</title>
<path fill="none" stroke="midnightblue" d="M736.635,-313.414C740.761,-310.659 744.605,-307.537 748,-304 784.793,-265.668 747.244,-228.368 784,-190 784.925,-189.034 785.892,-188.107 786.896,-187.217"/>
<polygon fill="midnightblue" stroke="midnightblue" points="789.236,-189.841 795.219,-181.097 785.089,-184.201 789.236,-189.841"/>
</g>
<!-- Node7 -->
<g id="node7" class="node"><title>Node7</title>
<g id="a_node7"><a xlink:href="namespaceRa_1_1Core_1_1Algorithm.html#aea294cdb6f4f0d85955bdcccb22886ec" target="_top" xlink:title="Ra::Core::Algorithm::t">
<polygon fill="white" stroke="black" points="794.5,-324.5 794.5,-343.5 907.5,-343.5 907.5,-324.5 794.5,-324.5"/>
<text text-anchor="middle" x="851" y="-331.5" font-family="Helvetica,sans-Serif" font-size="10.00">Ra::Core::Algorithm::t</text>
</a>
</g>
</g>
<!-- Node2&#45;&gt;Node7 -->
<g id="edge6" class="edge"><title>Node2&#45;&gt;Node7</title>
<path fill="none" stroke="midnightblue" d="M747.76,-334C759.963,-334 772.395,-334 784.193,-334"/>
<polygon fill="midnightblue" stroke="midnightblue" points="784.376,-337.5 794.376,-334 784.376,-330.5 784.376,-337.5"/>
</g>
<!-- Node5 -->
<g id="node5" class="node"><title>Node5</title>
<g id="a_node5"><a xlink:href="classRa_1_1Engine_1_1RenderObjectManager.html#a4077b9cf9e1e4d62fd5456386f2d72c8" target="_top" xlink:title="Returns true if the index points to a valid render object. ">
<polygon fill="white" stroke="black" points="954.5,-151 954.5,-181 1085.5,-181 1085.5,-151 954.5,-151"/>
<text text-anchor="start" x="962.5" y="-169" font-family="Helvetica,sans-Serif" font-size="10.00">Ra::Engine::RenderObject</text>
<text text-anchor="middle" x="1020" y="-158" font-family="Helvetica,sans-Serif" font-size="10.00">Manager::exists</text>
</a>
</g>
</g>
<!-- Node4&#45;&gt;Node5 -->
<g id="edge4" class="edge"><title>Node4&#45;&gt;Node5</title>
<path fill="none" stroke="midnightblue" d="M918.003,-166C926.587,-166 935.43,-166 944.145,-166"/>
<polygon fill="midnightblue" stroke="midnightblue" points="944.295,-169.5 954.295,-166 944.295,-162.5 944.295,-169.5"/>
</g>
<!-- Node6 -->
<g id="node6" class="node"><title>Node6</title>
<g id="a_node6"><a xlink:href="classRa_1_1Core_1_1Index.html#a87c70243f30c65c1a24834d1829bda01" target="_top" xlink:title="DESTRUCTOR: Must not be defined, we need it trivial to be constexpr. ">
<polygon fill="white" stroke="black" points="1122,-156.5 1122,-175.5 1244,-175.5 1244,-156.5 1122,-156.5"/>
<text text-anchor="middle" x="1183" y="-163.5" font-family="Helvetica,sans-Serif" font-size="10.00">Ra::Core::Index::isValid</text>
</a>
</g>
</g>
<!-- Node5&#45;&gt;Node6 -->
<g id="edge5" class="edge"><title>Node5&#45;&gt;Node6</title>
<path fill="none" stroke="midnightblue" d="M1085.56,-166C1094.17,-166 1103.04,-166 1111.75,-166"/>
<polygon fill="midnightblue" stroke="midnightblue" points="1111.87,-169.5 1121.87,-166 1111.87,-162.5 1111.87,-169.5"/>
</g>
<!-- Node9 -->
<g id="node9" class="node"><title>Node9</title>
<g id="a_node9"><a xlink:href="classMeshFeatureTrackingPlugin_1_1MeshFeatureTrackingComponent.html#a7f9f785a0e97dfec002b5a569f087ad6" target="_top" xlink:title="MeshFeatureTrackingPlugin\l::MeshFeatureTrackingComponent\l::update">
<polygon fill="white" stroke="black" points="376.5,-215.5 376.5,-256.5 543.5,-256.5 543.5,-215.5 376.5,-215.5"/>
<text text-anchor="start" x="384.5" y="-244.5" font-family="Helvetica,sans-Serif" font-size="10.00">MeshFeatureTrackingPlugin</text>
<text text-anchor="start" x="384.5" y="-233.5" font-family="Helvetica,sans-Serif" font-size="10.00">::MeshFeatureTrackingComponent</text>
<text text-anchor="middle" x="460" y="-222.5" font-family="Helvetica,sans-Serif" font-size="10.00">::update</text>
</a>
</g>
</g>
<!-- Node8&#45;&gt;Node9 -->
<g id="edge8" class="edge"><title>Node8&#45;&gt;Node9</title>
<path fill="none" stroke="midnightblue" d="M305.669,-158.544C335.804,-173.767 377.04,-194.598 409.159,-210.823"/>
<polygon fill="midnightblue" stroke="midnightblue" points="407.881,-214.098 418.385,-215.483 411.037,-207.85 407.881,-214.098"/>
</g>
<!-- Node12 -->
<g id="node12" class="node"><title>Node12</title>
<g id="a_node12"><a xlink:href="classMeshFeatureTrackingPlugin_1_1MeshFeatureTrackingComponent.html#a070c4cf514a05514998983ef9ea8333c" target="_top" xlink:title="MeshFeatureTrackingPlugin\l::MeshFeatureTrackingComponent\l::getFeaturePosition">
<polygon fill="white" stroke="black" points="580.5,-106.5 580.5,-147.5 747.5,-147.5 747.5,-106.5 580.5,-106.5"/>
<text text-anchor="start" x="588.5" y="-135.5" font-family="Helvetica,sans-Serif" font-size="10.00">MeshFeatureTrackingPlugin</text>
<text text-anchor="start" x="588.5" y="-124.5" font-family="Helvetica,sans-Serif" font-size="10.00">::MeshFeatureTrackingComponent</text>
<text text-anchor="middle" x="664" y="-113.5" font-family="Helvetica,sans-Serif" font-size="10.00">::getFeaturePosition</text>
</a>
</g>
</g>
<!-- Node8&#45;&gt;Node12 -->
<g id="edge25" class="edge"><title>Node8&#45;&gt;Node12</title>
<path fill="none" stroke="midnightblue" d="M340.211,-137.313C396.374,-136.639 475.006,-135.357 544,-133 552.562,-132.708 561.468,-132.353 570.383,-131.963"/>
<polygon fill="midnightblue" stroke="midnightblue" points="570.601,-135.457 580.434,-131.51 570.286,-128.464 570.601,-135.457"/>
</g>
<!-- Node18 -->
<g id="node18" class="node"><title>Node18</title>
<g id="a_node18"><a xlink:href="classMeshFeatureTrackingUI.html#a625d0d3786b6ecac8ecbf3027798e4e9" target="_top" xlink:title="MeshFeatureTrackingUI\l::updateTracking">
<polygon fill="white" stroke="black" points="399,-60 399,-90 521,-90 521,-60 399,-60"/>
<text text-anchor="start" x="407" y="-78" font-family="Helvetica,sans-Serif" font-size="10.00">MeshFeatureTrackingUI</text>
<text text-anchor="middle" x="460" y="-67" font-family="Helvetica,sans-Serif" font-size="10.00">::updateTracking</text>
</a>
</g>
</g>
<!-- Node8&#45;&gt;Node18 -->
<g id="edge23" class="edge"><title>Node8&#45;&gt;Node18</title>
<path fill="none" stroke="midnightblue" d="M328.254,-117.459C352.345,-109.635 379.609,-100.782 402.982,-93.1913"/>
<polygon fill="midnightblue" stroke="midnightblue" points="404.311,-96.44 412.741,-90.0224 402.149,-89.7822 404.311,-96.44"/>
</g>
<!-- Node19 -->
<g id="node19" class="node"><title>Node19</title>
<g id="a_node19"><a xlink:href="classMeshFeatureTrackingPlugin_1_1MeshFeatureTrackingComponent.html#a8be16956b81c04b73837d1bc2277a50f" target="_top" xlink:title="MeshFeatureTrackingPlugin\l::MeshFeatureTrackingComponent\l::getFeatureData">
<polygon fill="white" stroke="black" points="376.5,-0.5 376.5,-41.5 543.5,-41.5 543.5,-0.5 376.5,-0.5"/>
<text text-anchor="start" x="384.5" y="-29.5" font-family="Helvetica,sans-Serif" font-size="10.00">MeshFeatureTrackingPlugin</text>
<text text-anchor="start" x="384.5" y="-18.5" font-family="Helvetica,sans-Serif" font-size="10.00">::MeshFeatureTrackingComponent</text>
<text text-anchor="middle" x="460" y="-7.5" font-family="Helvetica,sans-Serif" font-size="10.00">::getFeatureData</text>
</a>
</g>
</g>
<!-- Node8&#45;&gt;Node19 -->
<g id="edge24" class="edge"><title>Node8&#45;&gt;Node19</title>
<path fill="none" stroke="midnightblue" d="M286.381,-117.424C307.657,-97.8677 341.961,-68.7386 376,-50 378.656,-48.5381 381.399,-47.1285 384.199,-45.7719"/>
<polygon fill="midnightblue" stroke="midnightblue" points="385.659,-48.9533 393.306,-41.6204 382.755,-42.584 385.659,-48.9533"/>
</g>
<!-- Node20 -->
<g id="node20" class="node"><title>Node20</title>
<g id="a_node20"><a xlink:href="classMeshFeatureTrackingPlugin_1_1MeshFeatureTrackingComponent.html#a2488fa8b1b29a5cc427ccd2f079e86cf" target="_top" xlink:title="MeshFeatureTrackingPlugin\l::MeshFeatureTrackingComponent\l::getFeatureVector">
<polygon fill="white" stroke="black" points="580.5,-46.5 580.5,-87.5 747.5,-87.5 747.5,-46.5 580.5,-46.5"/>
<text text-anchor="start" x="588.5" y="-75.5" font-family="Helvetica,sans-Serif" font-size="10.00">MeshFeatureTrackingPlugin</text>
<text text-anchor="start" x="588.5" y="-64.5" font-family="Helvetica,sans-Serif" font-size="10.00">::MeshFeatureTrackingComponent</text>
<text text-anchor="middle" x="664" y="-53.5" font-family="Helvetica,sans-Serif" font-size="10.00">::getFeatureVector</text>
</a>
</g>
</g>
<!-- Node8&#45;&gt;Node20 -->
<g id="edge26" class="edge"><title>Node8&#45;&gt;Node20</title>
<path fill="none" stroke="midnightblue" d="M340.031,-130.065C396.442,-123.483 475.466,-112.949 544,-99 556.529,-96.4499 569.694,-93.3464 582.515,-90.0869"/>
<polygon fill="midnightblue" stroke="midnightblue" points="583.432,-93.4649 592.236,-87.5704 581.678,-86.6882 583.432,-93.4649"/>
</g>
<!-- Node9&#45;&gt;Node3 -->
<g id="edge9" class="edge"><title>Node9&#45;&gt;Node3</title>
<path fill="none" stroke="midnightblue" d="M543.973,-231.521C614.08,-227.736 713.385,-222.375 779.653,-218.798"/>
<polygon fill="midnightblue" stroke="midnightblue" points="780.199,-222.273 789.996,-218.239 779.822,-215.284 780.199,-222.273"/>
</g>
<!-- Node10 -->
<g id="node10" class="node"><title>Node10</title>
<g id="a_node10"><a xlink:href="classMeshFeatureTrackingPlugin_1_1MeshFeatureTrackingComponent.html#ae7f3f822c5cd05548c11d92b3ef98931" target="_top" xlink:title="Registers the new center for the sphere. ">
<polygon fill="white" stroke="black" points="580.5,-433.5 580.5,-474.5 747.5,-474.5 747.5,-433.5 580.5,-433.5"/>
<text text-anchor="start" x="588.5" y="-462.5" font-family="Helvetica,sans-Serif" font-size="10.00">MeshFeatureTrackingPlugin</text>
<text text-anchor="start" x="588.5" y="-451.5" font-family="Helvetica,sans-Serif" font-size="10.00">::MeshFeatureTrackingComponent</text>
<text text-anchor="middle" x="664" y="-440.5" font-family="Helvetica,sans-Serif" font-size="10.00">::setPosition</text>
</a>
</g>
</g>
<!-- Node9&#45;&gt;Node10 -->
<g id="edge10" class="edge"><title>Node9&#45;&gt;Node10</title>
<path fill="none" stroke="midnightblue" d="M468.95,-256.798C484.554,-294.988 522.734,-376.62 580,-423 582.241,-424.815 584.599,-426.531 587.045,-428.152"/>
<polygon fill="midnightblue" stroke="midnightblue" points="585.279,-431.174 595.658,-433.305 588.873,-425.167 585.279,-431.174"/>
</g>
<!-- Node9&#45;&gt;Node12 -->
<g id="edge12" class="edge"><title>Node9&#45;&gt;Node12</title>
<path fill="none" stroke="midnightblue" d="M488.223,-215.187C511.632,-197.975 546.777,-173.728 580,-157 583.772,-155.101 587.694,-153.263 591.69,-151.495"/>
<polygon fill="midnightblue" stroke="midnightblue" points="593.271,-154.626 601.112,-147.501 590.539,-148.181 593.271,-154.626"/>
</g>
<!-- Node14 -->
<g id="node14" class="node"><title>Node14</title>
<g id="a_node14"><a xlink:href="classMeshFeatureTrackingPlugin_1_1MeshFeatureTrackingComponent.html#a66ff6e44bfadaa9cb0b5a3f2c09e205e" target="_top" xlink:title="Registers the new scale for the sphere. ">
<polygon fill="white" stroke="black" points="580.5,-373.5 580.5,-414.5 747.5,-414.5 747.5,-373.5 580.5,-373.5"/>
<text text-anchor="start" x="588.5" y="-402.5" font-family="Helvetica,sans-Serif" font-size="10.00">MeshFeatureTrackingPlugin</text>
<text text-anchor="start" x="588.5" y="-391.5" font-family="Helvetica,sans-Serif" font-size="10.00">::MeshFeatureTrackingComponent</text>
<text text-anchor="middle" x="664" y="-380.5" font-family="Helvetica,sans-Serif" font-size="10.00">::setScale</text>
</a>
</g>
</g>
<!-- Node9&#45;&gt;Node14 -->
<g id="edge16" class="edge"><title>Node9&#45;&gt;Node14</title>
<path fill="none" stroke="midnightblue" d="M475.634,-256.818C496.093,-284.545 535.743,-333.516 580,-363 583.06,-365.039 586.273,-366.967 589.583,-368.788"/>
<polygon fill="midnightblue" stroke="midnightblue" points="588.035,-371.927 598.532,-373.358 591.218,-365.693 588.035,-371.927"/>
</g>
<!-- Node16 -->
<g id="node16" class="node"><title>Node16</title>
<g id="a_node16"><a xlink:href="classMeshFeatureTrackingPlugin_1_1MeshFeatureTrackingComponent.html#ab8cb3c199c646746382ee3b5f9a76565" target="_top" xlink:title="MeshFeatureTrackingPlugin\l::MeshFeatureTrackingComponent\l::getFeatureScale">
<polygon fill="white" stroke="black" points="580.5,-166.5 580.5,-207.5 747.5,-207.5 747.5,-166.5 580.5,-166.5"/>
<text text-anchor="start" x="588.5" y="-195.5" font-family="Helvetica,sans-Serif" font-size="10.00">MeshFeatureTrackingPlugin</text>
<text text-anchor="start" x="588.5" y="-184.5" font-family="Helvetica,sans-Serif" font-size="10.00">::MeshFeatureTrackingComponent</text>
<text text-anchor="middle" x="664" y="-173.5" font-family="Helvetica,sans-Serif" font-size="10.00">::getFeatureScale</text>
</a>
</g>
</g>
<!-- Node9&#45;&gt;Node16 -->
<g id="edge19" class="edge"><title>Node9&#45;&gt;Node16</title>
<path fill="none" stroke="midnightblue" d="M543.744,-215.928C552.531,-213.797 561.509,-211.619 570.399,-209.463"/>
<polygon fill="midnightblue" stroke="midnightblue" points="571.492,-212.799 580.385,-207.04 569.841,-205.996 571.492,-212.799"/>
</g>
<!-- Node17 -->
<g id="node17" class="node"><title>Node17</title>
<g id="a_node17"><a xlink:href="classRa_1_1Engine_1_1RenderObject.html#a62e0eb3a7de5a7d352b565a28260cc06" target="_top" xlink:title="Ra::Engine::RenderObject\l::setVisible">
<polygon fill="white" stroke="black" points="598.5,-265 598.5,-295 729.5,-295 729.5,-265 598.5,-265"/>
<text text-anchor="start" x="606.5" y="-283" font-family="Helvetica,sans-Serif" font-size="10.00">Ra::Engine::RenderObject</text>
<text text-anchor="middle" x="664" y="-272" font-family="Helvetica,sans-Serif" font-size="10.00">::setVisible</text>
</a>
</g>
</g>
<!-- Node9&#45;&gt;Node17 -->
<g id="edge22" class="edge"><title>Node9&#45;&gt;Node17</title>
<path fill="none" stroke="midnightblue" d="M543.744,-254.023C558.528,-257.244 573.851,-260.582 588.391,-263.748"/>
<polygon fill="midnightblue" stroke="midnightblue" points="587.799,-267.201 598.314,-265.91 589.288,-260.362 587.799,-267.201"/>
</g>
<!-- Node11 -->
<g id="node11" class="node"><title>Node11</title>
<g id="a_node11"><a xlink:href="classRa_1_1Engine_1_1RenderObject.html#a2d6a1bc2b7646fe0912035a2ece24864" target="_top" xlink:title="Ra::Engine::RenderObject\l::setLocalTransform">
<polygon fill="white" stroke="black" points="785.5,-433 785.5,-463 916.5,-463 916.5,-433 785.5,-433"/>
<text text-anchor="start" x="793.5" y="-451" font-family="Helvetica,sans-Serif" font-size="10.00">Ra::Engine::RenderObject</text>
<text text-anchor="middle" x="851" y="-440" font-family="Helvetica,sans-Serif" font-size="10.00">::setLocalTransform</text>
</a>
</g>
</g>
<!-- Node10&#45;&gt;Node11 -->
<g id="edge11" class="edge"><title>Node10&#45;&gt;Node11</title>
<path fill="none" stroke="midnightblue" d="M747.76,-451.316C756.917,-451.019 766.203,-450.718 775.253,-450.424"/>
<polygon fill="midnightblue" stroke="midnightblue" points="775.47,-453.919 785.351,-450.097 775.243,-446.923 775.47,-453.919"/>
</g>
<!-- Node12&#45;&gt;Node3 -->
<g id="edge13" class="edge"><title>Node12&#45;&gt;Node3</title>
<path fill="none" stroke="midnightblue" d="M730.056,-147.659C736.279,-150.476 742.364,-153.588 748,-157 766.567,-168.241 765.519,-178.618 784,-190 787.309,-192.038 790.812,-193.955 794.408,-195.749"/>
<polygon fill="midnightblue" stroke="midnightblue" points="792.943,-198.928 803.488,-199.956 795.886,-192.576 792.943,-198.928"/>
</g>
<!-- Node12&#45;&gt;Node4 -->
<g id="edge14" class="edge"><title>Node12&#45;&gt;Node4</title>
<path fill="none" stroke="midnightblue" d="M747.76,-144.447C756.473,-146.283 765.302,-148.145 773.934,-149.964"/>
<polygon fill="midnightblue" stroke="midnightblue" points="773.451,-153.439 783.958,-152.078 774.895,-146.59 773.451,-153.439"/>
</g>
<!-- Node13 -->
<g id="node13" class="node"><title>Node13</title>
<g id="a_node13"><a xlink:href="namespaceRa_1_1Core.html#af4d19e3d7e24ba7cf24654cee06474b7" target="_top" xlink:title="POINT. ">
<polygon fill="white" stroke="black" points="816.5,-112.5 816.5,-131.5 885.5,-131.5 885.5,-112.5 816.5,-112.5"/>
<text text-anchor="middle" x="851" y="-119.5" font-family="Helvetica,sans-Serif" font-size="10.00">Ra::Core::P</text>
</a>
</g>
</g>
<!-- Node12&#45;&gt;Node13 -->
<g id="edge15" class="edge"><title>Node12&#45;&gt;Node13</title>
<path fill="none" stroke="midnightblue" d="M747.76,-124.763C767.837,-124.221 788.533,-123.661 806.008,-123.189"/>
<polygon fill="midnightblue" stroke="midnightblue" points="806.536,-126.676 816.438,-122.907 806.347,-119.679 806.536,-126.676"/>
</g>
<!-- Node14&#45;&gt;Node11 -->
<g id="edge18" class="edge"><title>Node14&#45;&gt;Node11</title>
<path fill="none" stroke="midnightblue" d="M735.468,-414.569C752.967,-419.677 771.582,-425.11 788.607,-430.08"/>
<polygon fill="midnightblue" stroke="midnightblue" points="787.846,-433.504 798.426,-432.946 789.807,-426.784 787.846,-433.504"/>
</g>
<!-- Node15 -->
<g id="node15" class="node"><title>Node15</title>
<g id="a_node15"><a xlink:href="classRa_1_1Engine_1_1RenderObject.html#af6b3614bed03854e25328b143343fe1e" target="_top" xlink:title="Ra::Engine::RenderObject\l::getLocalTransform">
<polygon fill="white" stroke="black" points="785.5,-379 785.5,-409 916.5,-409 916.5,-379 785.5,-379"/>
<text text-anchor="start" x="793.5" y="-397" font-family="Helvetica,sans-Serif" font-size="10.00">Ra::Engine::RenderObject</text>
<text text-anchor="middle" x="851" y="-386" font-family="Helvetica,sans-Serif" font-size="10.00">::getLocalTransform</text>
</a>
</g>
</g>
<!-- Node14&#45;&gt;Node15 -->
<g id="edge17" class="edge"><title>Node14&#45;&gt;Node15</title>
<path fill="none" stroke="midnightblue" d="M747.76,-394C756.917,-394 766.203,-394 775.253,-394"/>
<polygon fill="midnightblue" stroke="midnightblue" points="775.351,-397.5 785.351,-394 775.351,-390.5 775.351,-397.5"/>
</g>
<!-- Node16&#45;&gt;Node3 -->
<g id="edge20" class="edge"><title>Node16&#45;&gt;Node3</title>
<path fill="none" stroke="midnightblue" d="M747.76,-199.526C758.477,-201.148 769.371,-202.797 779.857,-204.384"/>
<polygon fill="midnightblue" stroke="midnightblue" points="779.355,-207.848 789.766,-205.884 780.402,-200.926 779.355,-207.848"/>
</g>
<!-- Node16&#45;&gt;Node4 -->
<g id="edge21" class="edge"><title>Node16&#45;&gt;Node4</title>
<path fill="none" stroke="midnightblue" d="M747.76,-177.606C756.473,-176.617 765.302,-175.614 773.934,-174.635"/>
<polygon fill="midnightblue" stroke="midnightblue" points="774.416,-178.102 783.958,-173.497 773.627,-171.147 774.416,-178.102"/>
</g>
<!-- Node20&#45;&gt;Node3 -->
<g id="edge27" class="edge"><title>Node20&#45;&gt;Node3</title>
<path fill="none" stroke="midnightblue" d="M735.988,-87.5861C740.322,-90.343 744.385,-93.4651 748,-97 779.691,-127.986 752.546,-158.773 784,-190 785.467,-191.457 787.028,-192.83 788.663,-194.125"/>
<polygon fill="midnightblue" stroke="midnightblue" points="787.12,-197.304 797.376,-199.963 791.017,-191.488 787.12,-197.304"/>
</g>
<!-- Node20&#45;&gt;Node4 -->
<g id="edge28" class="edge"><title>Node20&#45;&gt;Node4</title>
<path fill="none" stroke="midnightblue" d="M732.294,-87.6817C737.805,-90.451 743.123,-93.5477 748,-97 768.624,-111.598 763.488,-126.246 784,-141 786.636,-142.896 789.433,-144.667 792.331,-146.32"/>
<polygon fill="midnightblue" stroke="midnightblue" points="790.768,-149.452 801.26,-150.924 793.976,-143.23 790.768,-149.452"/>
</g>
<!-- Node21 -->
<g id="node21" class="node"><title>Node21</title>
<g id="a_node21"><a xlink:href="namespaceRa_1_1Core.html#a75b01d58a77f0045a477762d0b686b60" target="_top" xlink:title="VERTEX. ">
<polygon fill="white" stroke="black" points="816.5,-25.5 816.5,-44.5 885.5,-44.5 885.5,-25.5 816.5,-25.5"/>
<text text-anchor="middle" x="851" y="-32.5" font-family="Helvetica,sans-Serif" font-size="10.00">Ra::Core::V</text>
</a>
</g>
</g>
<!-- Node20&#45;&gt;Node21 -->
<g id="edge29" class="edge"><title>Node20&#45;&gt;Node21</title>
<path fill="none" stroke="midnightblue" d="M747.76,-52.6847C768.027,-49.1792 788.923,-45.5646 806.501,-42.5241"/>
<polygon fill="midnightblue" stroke="midnightblue" points="807.18,-45.9587 816.438,-40.8054 805.987,-39.0611 807.18,-45.9587"/>
</g>
<!-- Node23 -->
<g id="node23" class="node"><title>Node23</title>
<g id="a_node23"><a xlink:href="namespaceOpenMesh.html#a71e7f1dd3eac016d2b8245ac408a291c" target="_top" xlink:title="OpenMesh::cross">
<polygon fill="white" stroke="black" points="804,-63.5 804,-82.5 898,-82.5 898,-63.5 804,-63.5"/>
<text text-anchor="middle" x="851" y="-70.5" font-family="Helvetica,sans-Serif" font-size="10.00">OpenMesh::cross</text>
</a>
</g>
</g>
<!-- Node20&#45;&gt;Node23 -->
<g id="edge31" class="edge"><title>Node20&#45;&gt;Node23</title>
<path fill="none" stroke="midnightblue" d="M747.76,-69.6841C763.243,-70.1863 779.094,-70.7004 793.552,-71.1693"/>
<polygon fill="midnightblue" stroke="midnightblue" points="793.701,-74.6758 803.809,-71.5019 793.928,-67.6795 793.701,-74.6758"/>
</g>
<!-- Node22 -->
<g id="node22" class="node"><title>Node22</title>
<g id="a_node22"><a xlink:href="namespaceRa_1_1Core.html#a6dd9d23e2286b21c927c0cee124c6c1e" target="_top" xlink:title="HALFEDGE. ">
<polygon fill="white" stroke="black" points="981.5,-25.5 981.5,-44.5 1058.5,-44.5 1058.5,-25.5 981.5,-25.5"/>
<text text-anchor="middle" x="1020" y="-32.5" font-family="Helvetica,sans-Serif" font-size="10.00">Ra::Core::HE</text>
</a>
</g>
</g>
<!-- Node21&#45;&gt;Node22 -->
<g id="edge30" class="edge"><title>Node21&#45;&gt;Node22</title>
<path fill="none" stroke="midnightblue" d="M885.795,-35C910.388,-35 944.025,-35 971.344,-35"/>
<polygon fill="midnightblue" stroke="midnightblue" points="971.473,-38.5001 981.473,-35 971.473,-31.5001 971.473,-38.5001"/>
</g>
</g>
</svg>
