<?xml version="1.0" encoding="UTF-8" standalone="no"?>
<!DOCTYPE svg PUBLIC "-//W3C//DTD SVG 1.1//EN"
 "http://www.w3.org/Graphics/SVG/1.1/DTD/svg11.dtd">
<!-- Generated by graphviz version 2.36.0 (20140111.2315)
 -->
<!-- Title: CameraManipPlugin::CameraManipPluginC::createCamera Pages: 1 -->
<svg width="810pt" height="681pt"
 viewBox="0.00 0.00 810.00 681.00" xmlns="http://www.w3.org/2000/svg" xmlns:xlink="http://www.w3.org/1999/xlink">
<g id="graph0" class="graph" transform="scale(1 1) rotate(0) translate(4 677)">
<title>CameraManipPlugin::CameraManipPluginC::createCamera</title>
<polygon fill="white" stroke="none" points="-4,4 -4,-677 806,-677 806,4 -4,4"/>
<!-- Node1 -->
<g id="node1" class="node"><title>Node1</title>
<polygon fill="#bfbfbf" stroke="black" points="0,-343.5 0,-384.5 118,-384.5 118,-343.5 0,-343.5"/>
<text text-anchor="start" x="8" y="-372.5" font-family="Helvetica,sans-Serif" font-size="10.00">CameraManipPlugin::</text>
<text text-anchor="start" x="8" y="-361.5" font-family="Helvetica,sans-Serif" font-size="10.00">CameraManipPluginC::</text>
<text text-anchor="middle" x="59" y="-350.5" font-family="Helvetica,sans-Serif" font-size="10.00">createCamera</text>
</g>
<!-- Node2 -->
<g id="node2" class="node"><title>Node2</title>
<g id="a_node2"><a xlink:href="classRa_1_1Engine_1_1RadiumEngine.html#a23bc4cf581345f7333e0f7e3f743c401" target="_top" xlink:title="Ra::Engine::RadiumEngine\l::getSystem">
<polygon fill="white" stroke="black" points="156.5,-643 156.5,-673 291.5,-673 291.5,-643 156.5,-643"/>
<text text-anchor="start" x="164.5" y="-661" font-family="Helvetica,sans-Serif" font-size="10.00">Ra::Engine::RadiumEngine</text>
<text text-anchor="middle" x="224" y="-650" font-family="Helvetica,sans-Serif" font-size="10.00">::getSystem</text>
</a>
</g>
</g>
<!-- Node1&#45;&gt;Node2 -->
<g id="edge1" class="edge"><title>Node1&#45;&gt;Node2</title>
<path fill="none" stroke="midnightblue" d="M61.3401,-384.632C65.6582,-434.282 83.3955,-561.584 154,-633 155.444,-634.461 156.981,-635.837 158.591,-637.133"/>
<polygon fill="midnightblue" stroke="midnightblue" points="156.947,-640.247 167.186,-642.971 160.88,-634.457 156.947,-640.247"/>
</g>
<!-- Node3 -->
<g id="node3" class="node"><title>Node3</title>
<g id="a_node3"><a xlink:href="classRa_1_1Engine_1_1RadiumEngine.html#a79f6626ce468268791bc5bdfe17b5586" target="_top" xlink:title="Ra::Engine::RadiumEngine\l::getEntityManager">
<polygon fill="white" stroke="black" points="156.5,-594 156.5,-624 291.5,-624 291.5,-594 156.5,-594"/>
<text text-anchor="start" x="164.5" y="-612" font-family="Helvetica,sans-Serif" font-size="10.00">Ra::Engine::RadiumEngine</text>
<text text-anchor="middle" x="224" y="-601" font-family="Helvetica,sans-Serif" font-size="10.00">::getEntityManager</text>
</a>
</g>
</g>
<!-- Node1&#45;&gt;Node3 -->
<g id="edge2" class="edge"><title>Node1&#45;&gt;Node3</title>
<path fill="none" stroke="midnightblue" d="M63.2024,-384.713C70.9277,-427.811 94.5396,-527.79 154,-584 155.655,-585.565 157.415,-587.033 159.258,-588.41"/>
<polygon fill="midnightblue" stroke="midnightblue" points="157.489,-591.433 167.796,-593.885 161.268,-585.54 157.489,-591.433"/>
</g>
<!-- Node4 -->
<g id="node4" class="node"><title>Node4</title>
<g id="a_node4"><a xlink:href="classRa_1_1Engine_1_1EntityManager.html#a130f412ff1044ee5dc67f2c9bc2e36f4" target="_top" xlink:title="Create (if does not exist) an entity given its name. ">
<polygon fill="white" stroke="black" points="157,-545 157,-575 291,-575 291,-545 157,-545"/>
<text text-anchor="start" x="165" y="-563" font-family="Helvetica,sans-Serif" font-size="10.00">Ra::Engine::EntityManager</text>
<text text-anchor="middle" x="224" y="-552" font-family="Helvetica,sans-Serif" font-size="10.00">::createEntity</text>
</a>
</g>
</g>
<!-- Node1&#45;&gt;Node4 -->
<g id="edge3" class="edge"><title>Node1&#45;&gt;Node4</title>
<path fill="none" stroke="midnightblue" d="M66.0403,-384.736C77.4507,-420.39 105.484,-493.477 154,-535 155.948,-536.667 158.016,-538.227 160.174,-539.686"/>
<polygon fill="midnightblue" stroke="midnightblue" points="158.482,-542.751 168.872,-544.825 162.043,-536.725 158.482,-542.751"/>
</g>
<!-- Node10 -->
<g id="node10" class="node"><title>Node10</title>
<g id="a_node10"><a xlink:href="classRa_1_1Gui_1_1Viewer.html#a4c52ddd225ed6e8fe630a7b1ac4c138f" target="_top" xlink:title="Access to camera interface. ">
<polygon fill="white" stroke="black" points="154,-496 154,-526 294,-526 294,-496 154,-496"/>
<text text-anchor="start" x="162" y="-514" font-family="Helvetica,sans-Serif" font-size="10.00">Ra::Gui::Viewer::getCamera</text>
<text text-anchor="middle" x="224" y="-503" font-family="Helvetica,sans-Serif" font-size="10.00">Interface</text>
</a>
</g>
</g>
<!-- Node1&#45;&gt;Node10 -->
<g id="edge9" class="edge"><title>Node1&#45;&gt;Node10</title>
<path fill="none" stroke="midnightblue" d="M70.929,-384.622C86.1643,-411.521 116.217,-458.396 154,-486 156.623,-487.917 159.409,-489.7 162.298,-491.356"/>
<polygon fill="midnightblue" stroke="midnightblue" points="160.726,-494.484 171.218,-495.956 163.934,-488.262 160.726,-494.484"/>
</g>
<!-- Node11 -->
<g id="node11" class="node"><title>Node11</title>
<g id="a_node11"><a xlink:href="classRa_1_1Engine_1_1Camera.html#a2acbb1a258f8d0af86edcd978cfbf3e1" target="_top" xlink:title="Change the viewport size. ">
<polygon fill="white" stroke="black" points="171,-300 171,-330 277,-330 277,-300 171,-300"/>
<text text-anchor="start" x="179" y="-318" font-family="Helvetica,sans-Serif" font-size="10.00">Ra::Engine::Camera</text>
<text text-anchor="middle" x="224" y="-307" font-family="Helvetica,sans-Serif" font-size="10.00">::resize</text>
</a>
</g>
</g>
<!-- Node1&#45;&gt;Node11 -->
<g id="edge10" class="edge"><title>Node1&#45;&gt;Node11</title>
<path fill="none" stroke="midnightblue" d="M118.386,-346.448C132.934,-342.075 148.552,-337.38 163.168,-332.986"/>
<polygon fill="midnightblue" stroke="midnightblue" points="164.532,-336.231 173.101,-330 162.517,-329.527 164.532,-336.231"/>
</g>
<!-- Node14 -->
<g id="node14" class="node"><title>Node14</title>
<g id="a_node14"><a xlink:href="classRa_1_1Engine_1_1Camera.html#af986d111c94ed3668b846865f7d572d5" target="_top" xlink:title="Set the projection type to &#39;projectionType&#39;. ">
<polygon fill="white" stroke="black" points="171,-114 171,-144 277,-144 277,-114 171,-114"/>
<text text-anchor="start" x="179" y="-132" font-family="Helvetica,sans-Serif" font-size="10.00">Ra::Engine::Camera</text>
<text text-anchor="middle" x="224" y="-121" font-family="Helvetica,sans-Serif" font-size="10.00">::setType</text>
</a>
</g>
</g>
<!-- Node1&#45;&gt;Node14 -->
<g id="edge13" class="edge"><title>Node1&#45;&gt;Node14</title>
<path fill="none" stroke="midnightblue" d="M64.2533,-343.422C73.6116,-302.95 99.6208,-212.313 154,-159 157.751,-155.322 162.027,-152.059 166.57,-149.172"/>
<polygon fill="midnightblue" stroke="midnightblue" points="168.593,-152.048 175.567,-144.072 165.142,-145.959 168.593,-152.048"/>
</g>
<!-- Node15 -->
<g id="node15" class="node"><title>Node15</title>
<g id="a_node15"><a xlink:href="classRa_1_1Engine_1_1Camera.html#afb2eb1eaed43dfbad89a89f90c067b4e" target="_top" xlink:title="Set the frame of the camera to &#39;frame&#39;. ">
<polygon fill="white" stroke="black" points="171,-65 171,-95 277,-95 277,-65 171,-65"/>
<text text-anchor="start" x="179" y="-83" font-family="Helvetica,sans-Serif" font-size="10.00">Ra::Engine::Camera</text>
<text text-anchor="middle" x="224" y="-72" font-family="Helvetica,sans-Serif" font-size="10.00">::setFrame</text>
</a>
</g>
</g>
<!-- Node1&#45;&gt;Node15 -->
<g id="edge14" class="edge"><title>Node1&#45;&gt;Node15</title>
<path fill="none" stroke="midnightblue" d="M61.5759,-343.27C66.3749,-294.628 85.025,-172.14 154,-104 156.391,-101.638 159.026,-99.5077 161.83,-97.5866"/>
<polygon fill="midnightblue" stroke="midnightblue" points="163.796,-100.492 170.669,-92.4282 160.268,-94.4459 163.796,-100.492"/>
</g>
<!-- Node16 -->
<g id="node16" class="node"><title>Node16</title>
<g id="a_node16"><a xlink:href="classRa_1_1Engine_1_1Camera.html#a54a29618a5515e0b4ef00402f2f42cd5" target="_top" xlink:title="Set the Field Of View to &#39;fov&#39;. ">
<polygon fill="white" stroke="black" points="171,-251 171,-281 277,-281 277,-251 171,-251"/>
<text text-anchor="start" x="179" y="-269" font-family="Helvetica,sans-Serif" font-size="10.00">Ra::Engine::Camera</text>
<text text-anchor="middle" x="224" y="-258" font-family="Helvetica,sans-Serif" font-size="10.00">::setFOV</text>
</a>
</g>
</g>
<!-- Node1&#45;&gt;Node16 -->
<g id="edge15" class="edge"><title>Node1&#45;&gt;Node16</title>
<path fill="none" stroke="midnightblue" d="M82.5191,-343.217C100.724,-327.263 127.583,-305.568 154,-291 157.87,-288.866 161.958,-286.851 166.134,-284.962"/>
<polygon fill="midnightblue" stroke="midnightblue" points="167.537,-288.169 175.366,-281.032 164.795,-281.729 167.537,-288.169"/>
</g>
<!-- Node17 -->
<g id="node17" class="node"><title>Node17</title>
<g id="a_node17"><a xlink:href="classRa_1_1Engine_1_1Camera.html#a4a3fabf640b33f4438acbf9497585680" target="_top" xlink:title="Set the Z Near plane distance to &#39;zNear&#39;. ">
<polygon fill="white" stroke="black" points="171,-447 171,-477 277,-477 277,-447 171,-447"/>
<text text-anchor="start" x="179" y="-465" font-family="Helvetica,sans-Serif" font-size="10.00">Ra::Engine::Camera</text>
<text text-anchor="middle" x="224" y="-454" font-family="Helvetica,sans-Serif" font-size="10.00">::setZNear</text>
</a>
</g>
</g>
<!-- Node1&#45;&gt;Node17 -->
<g id="edge17" class="edge"><title>Node1&#45;&gt;Node17</title>
<path fill="none" stroke="midnightblue" d="M82.5191,-384.783C100.724,-400.737 127.583,-422.432 154,-437 157.87,-439.134 161.958,-441.149 166.134,-443.038"/>
<polygon fill="midnightblue" stroke="midnightblue" points="164.795,-446.271 175.366,-446.968 167.537,-439.831 164.795,-446.271"/>
</g>
<!-- Node18 -->
<g id="node18" class="node"><title>Node18</title>
<g id="a_node18"><a xlink:href="classRa_1_1Engine_1_1Camera.html#a1f51ef3da326d7017bd8a457b5ce7edb" target="_top" xlink:title="Set the Z Far plane distance to &#39;zFar&#39;. ">
<polygon fill="white" stroke="black" points="171,-398 171,-428 277,-428 277,-398 171,-398"/>
<text text-anchor="start" x="179" y="-416" font-family="Helvetica,sans-Serif" font-size="10.00">Ra::Engine::Camera</text>
<text text-anchor="middle" x="224" y="-405" font-family="Helvetica,sans-Serif" font-size="10.00">::setZFar</text>
</a>
</g>
</g>
<!-- Node1&#45;&gt;Node18 -->
<g id="edge19" class="edge"><title>Node1&#45;&gt;Node18</title>
<path fill="none" stroke="midnightblue" d="M118.386,-381.552C132.934,-385.925 148.552,-390.62 163.168,-395.014"/>
<polygon fill="midnightblue" stroke="midnightblue" points="162.517,-398.473 173.101,-398 164.532,-391.769 162.517,-398.473"/>
</g>
<!-- Node19 -->
<g id="node19" class="node"><title>Node19</title>
<g id="a_node19"><a xlink:href="classRa_1_1Engine_1_1Camera.html#a6c6f55e7821123b64e4b84bdeacf12ea" target="_top" xlink:title="Set the zoom factor to &#39;zoomFactor&#39;. ">
<polygon fill="white" stroke="black" points="171,-349 171,-379 277,-379 277,-349 171,-349"/>
<text text-anchor="start" x="179" y="-367" font-family="Helvetica,sans-Serif" font-size="10.00">Ra::Engine::Camera</text>
<text text-anchor="middle" x="224" y="-356" font-family="Helvetica,sans-Serif" font-size="10.00">::setZoomFactor</text>
</a>
</g>
</g>
<!-- Node1&#45;&gt;Node19 -->
<g id="edge21" class="edge"><title>Node1&#45;&gt;Node19</title>
<path fill="none" stroke="midnightblue" d="M118.386,-364C132.206,-364 146.992,-364 160.967,-364"/>
<polygon fill="midnightblue" stroke="midnightblue" points="160.974,-367.5 170.974,-364 160.974,-360.5 160.974,-367.5"/>
</g>
<!-- Node20 -->
<g id="node20" class="node"><title>Node20</title>
<g id="a_node20"><a xlink:href="classRa_1_1Engine_1_1Camera.html#abec46e062874d71bf9cfc9143c889a60" target="_top" xlink:title="Pure virtual method to be overridden by any component. ">
<polygon fill="white" stroke="black" points="171,-202 171,-232 277,-232 277,-202 171,-202"/>
<text text-anchor="start" x="179" y="-220" font-family="Helvetica,sans-Serif" font-size="10.00">Ra::Engine::Camera</text>
<text text-anchor="middle" x="224" y="-209" font-family="Helvetica,sans-Serif" font-size="10.00">::initialize</text>
</a>
</g>
</g>
<!-- Node1&#45;&gt;Node20 -->
<g id="edge23" class="edge"><title>Node1&#45;&gt;Node20</title>
<path fill="none" stroke="midnightblue" d="M70.929,-343.378C86.1643,-316.479 116.217,-269.604 154,-242 156.623,-240.083 159.409,-238.3 162.298,-236.644"/>
<polygon fill="midnightblue" stroke="midnightblue" points="163.934,-239.738 171.218,-232.044 160.726,-233.516 163.934,-239.738"/>
</g>
<!-- Node32 -->
<g id="node32" class="node"><title>Node32</title>
<g id="a_node32"><a xlink:href="classRa_1_1Engine_1_1Camera.html#a4c2aac5ad419cef7720e2a18d93b3703" target="_top" xlink:title="Toggle on/off displaying the Camera. ">
<polygon fill="white" stroke="black" points="357,-12 357,-42 463,-42 463,-12 357,-12"/>
<text text-anchor="start" x="365" y="-30" font-family="Helvetica,sans-Serif" font-size="10.00">Ra::Engine::Camera</text>
<text text-anchor="middle" x="410" y="-19" font-family="Helvetica,sans-Serif" font-size="10.00">::show</text>
</a>
</g>
</g>
<!-- Node1&#45;&gt;Node32 -->
<g id="edge36" class="edge"><title>Node1&#45;&gt;Node32</title>
<path fill="none" stroke="midnightblue" d="M65.5733,-343.482C76.4177,-307.495 103.81,-233.029 154,-193 204.592,-152.651 244.855,-195.1 294,-153 322.996,-128.16 304.578,-103.487 330,-75 339.888,-63.9196 352.951,-54.5778 365.6,-47.1655"/>
<polygon fill="midnightblue" stroke="midnightblue" points="367.648,-50.0313 374.687,-42.112 364.246,-43.9137 367.648,-50.0313"/>
</g>
<!-- Node5 -->
<g id="node5" class="node"><title>Node5</title>
<g id="a_node5"><a xlink:href="namespaceRa_1_1Core_1_1StringUtils.html#a63b10a7c14473b4aa762cf00e0432690" target="_top" xlink:title="Writes a formatted print into the given string, similarly to sprintf. ">
<polygon fill="white" stroke="black" points="356,-496 356,-526 464,-526 464,-496 356,-496"/>
<text text-anchor="start" x="364" y="-514" font-family="Helvetica,sans-Serif" font-size="10.00">Ra::Core::StringUtils</text>
<text text-anchor="middle" x="410" y="-503" font-family="Helvetica,sans-Serif" font-size="10.00">::stringPrintf</text>
</a>
</g>
</g>
<!-- Node4&#45;&gt;Node5 -->
<g id="edge4" class="edge"><title>Node4&#45;&gt;Node5</title>
<path fill="none" stroke="midnightblue" d="M281.457,-544.965C301.885,-539.525 325.076,-533.349 346.028,-527.77"/>
<polygon fill="midnightblue" stroke="midnightblue" points="347.032,-531.124 355.795,-525.169 345.231,-524.36 347.032,-531.124"/>
</g>
<!-- Node8 -->
<g id="node8" class="node"><title>Node8</title>
<g id="a_node8"><a xlink:href="classRa_1_1Core_1_1Index.html#a06abaf1320f1682bb6ab3aac9a89b13b" target="_top" xlink:title="INDEX. ">
<polygon fill="white" stroke="black" points="344.5,-594.5 344.5,-613.5 475.5,-613.5 475.5,-594.5 344.5,-594.5"/>
<text text-anchor="middle" x="410" y="-601.5" font-family="Helvetica,sans-Serif" font-size="10.00">Ra::Core::Index::getValue</text>
</a>
</g>
</g>
<!-- Node4&#45;&gt;Node8 -->
<g id="edge7" class="edge"><title>Node4&#45;&gt;Node8</title>
<path fill="none" stroke="midnightblue" d="M287.808,-575.019C311.191,-580.611 337.38,-586.874 359.414,-592.143"/>
<polygon fill="midnightblue" stroke="midnightblue" points="358.681,-595.566 369.221,-594.488 360.309,-588.758 358.681,-595.566"/>
</g>
<!-- Node9 -->
<g id="node9" class="node"><title>Node9</title>
<g id="a_node9"><a xlink:href="classRa_1_1Engine_1_1EntityManager.html#a5115cccae6aaef614ad4bd08e64d8185" target="_top" xlink:title="Check wether an entity with a given name exists or not. ">
<polygon fill="white" stroke="black" points="343,-545 343,-575 477,-575 477,-545 343,-545"/>
<text text-anchor="start" x="351" y="-563" font-family="Helvetica,sans-Serif" font-size="10.00">Ra::Engine::EntityManager</text>
<text text-anchor="middle" x="410" y="-552" font-family="Helvetica,sans-Serif" font-size="10.00">::entityExists</text>
</a>
</g>
</g>
<!-- Node4&#45;&gt;Node9 -->
<g id="edge8" class="edge"><title>Node4&#45;&gt;Node9</title>
<path fill="none" stroke="midnightblue" d="M291.168,-560C304.551,-560 318.727,-560 332.433,-560"/>
<polygon fill="midnightblue" stroke="midnightblue" points="332.801,-563.5 342.801,-560 332.801,-556.5 332.801,-563.5"/>
</g>
<!-- Node6 -->
<g id="node6" class="node"><title>Node6</title>
<g id="a_node6"><a xlink:href="namespaceRa_1_1Core_1_1StringUtils.html#ac348328b878bb8f1b1c1a3335ea20c4b" target="_top" xlink:title="Ra::Core::StringUtils\l::stringvPrintf">
<polygon fill="white" stroke="black" points="552,-496 552,-526 660,-526 660,-496 552,-496"/>
<text text-anchor="start" x="560" y="-514" font-family="Helvetica,sans-Serif" font-size="10.00">Ra::Core::StringUtils</text>
<text text-anchor="middle" x="606" y="-503" font-family="Helvetica,sans-Serif" font-size="10.00">::stringvPrintf</text>
</a>
</g>
</g>
<!-- Node5&#45;&gt;Node6 -->
<g id="edge5" class="edge"><title>Node5&#45;&gt;Node6</title>
<path fill="none" stroke="midnightblue" d="M464.011,-511C487.972,-511 516.475,-511 541.562,-511"/>
<polygon fill="midnightblue" stroke="midnightblue" points="541.716,-514.5 551.716,-511 541.716,-507.5 541.716,-514.5"/>
</g>
<!-- Node7 -->
<g id="node7" class="node"><title>Node7</title>
<g id="a_node7"><a xlink:href="namespaceRa_1_1Core.html#abc0a3625137098b67838fe52edd480f9" target="_top" xlink:title="SIZE. ">
<polygon fill="white" stroke="black" points="722,-501.5 722,-520.5 802,-520.5 802,-501.5 722,-501.5"/>
<text text-anchor="middle" x="762" y="-508.5" font-family="Helvetica,sans-Serif" font-size="10.00">Ra::Core::size</text>
</a>
</g>
</g>
<!-- Node6&#45;&gt;Node7 -->
<g id="edge6" class="edge"><title>Node6&#45;&gt;Node7</title>
<path fill="none" stroke="midnightblue" d="M660.43,-511C676.963,-511 695.1,-511 711.365,-511"/>
<polygon fill="midnightblue" stroke="midnightblue" points="711.747,-514.5 721.747,-511 711.747,-507.5 711.747,-514.5"/>
</g>
<!-- Node12 -->
<g id="node12" class="node"><title>Node12</title>
<g id="a_node12"><a xlink:href="classRa_1_1Engine_1_1Camera.html#a2124136d939bd433f9630e23c403cdd6" target="_top" xlink:title="Update the projection matrix according to the current parameters. ">
<polygon fill="white" stroke="black" points="357,-369 357,-399 463,-399 463,-369 357,-369"/>
<text text-anchor="start" x="365" y="-387" font-family="Helvetica,sans-Serif" font-size="10.00">Ra::Engine::Camera</text>
<text text-anchor="middle" x="410" y="-376" font-family="Helvetica,sans-Serif" font-size="10.00">::updateProjMatrix</text>
</a>
</g>
</g>
<!-- Node11&#45;&gt;Node12 -->
<g id="edge11" class="edge"><title>Node11&#45;&gt;Node12</title>
<path fill="none" stroke="midnightblue" d="M267.019,-330.048C275.941,-333.292 285.293,-336.73 294,-340 310.071,-346.036 313.975,-347.842 330,-354 339.552,-357.671 349.763,-361.568 359.566,-365.297"/>
<polygon fill="midnightblue" stroke="midnightblue" points="358.601,-368.674 369.192,-368.954 361.087,-362.131 358.601,-368.674"/>
</g>
<!-- Node13 -->
<g id="node13" class="node"><title>Node13</title>
<g id="a_node13"><a xlink:href="namespaceRa_1_1Core_1_1Algorithm.html#aea294cdb6f4f0d85955bdcccb22886ec" target="_top" xlink:title="Ra::Core::Algorithm::t">
<polygon fill="white" stroke="black" points="549.5,-352.5 549.5,-371.5 662.5,-371.5 662.5,-352.5 549.5,-352.5"/>
<text text-anchor="middle" x="606" y="-359.5" font-family="Helvetica,sans-Serif" font-size="10.00">Ra::Core::Algorithm::t</text>
</a>
</g>
</g>
<!-- Node12&#45;&gt;Node13 -->
<g id="edge12" class="edge"><title>Node12&#45;&gt;Node13</title>
<path fill="none" stroke="midnightblue" d="M463.244,-378.075C486.62,-375.424 514.439,-372.27 539.216,-369.46"/>
<polygon fill="midnightblue" stroke="midnightblue" points="539.723,-372.925 549.265,-368.32 538.934,-365.97 539.723,-372.925"/>
</g>
<!-- Node16&#45;&gt;Node12 -->
<g id="edge16" class="edge"><title>Node16&#45;&gt;Node12</title>
<path fill="none" stroke="midnightblue" d="M277.312,-280.369C283.299,-283.306 289.028,-286.816 294,-291 318.673,-311.766 305.487,-333.045 330,-354 335.245,-358.483 341.229,-362.332 347.504,-365.628"/>
<polygon fill="midnightblue" stroke="midnightblue" points="346.318,-368.939 356.852,-370.07 349.323,-362.617 346.318,-368.939"/>
</g>
<!-- Node17&#45;&gt;Node12 -->
<g id="edge18" class="edge"><title>Node17&#45;&gt;Node12</title>
<path fill="none" stroke="midnightblue" d="M268.279,-446.952C276.853,-443.793 285.75,-440.389 294,-437 319.154,-426.668 346.848,-413.947 368.756,-403.558"/>
<polygon fill="midnightblue" stroke="midnightblue" points="370.555,-406.577 378.074,-399.114 367.542,-400.259 370.555,-406.577"/>
</g>
<!-- Node18&#45;&gt;Node12 -->
<g id="edge20" class="edge"><title>Node18&#45;&gt;Node12</title>
<path fill="none" stroke="midnightblue" d="M277.235,-404.767C298.887,-401.355 324.178,-397.369 346.78,-393.806"/>
<polygon fill="midnightblue" stroke="midnightblue" points="347.62,-397.217 356.953,-392.203 346.53,-390.303 347.62,-397.217"/>
</g>
<!-- Node19&#45;&gt;Node12 -->
<g id="edge22" class="edge"><title>Node19&#45;&gt;Node12</title>
<path fill="none" stroke="midnightblue" d="M277.235,-369.678C298.887,-372.031 324.178,-374.78 346.78,-377.237"/>
<polygon fill="midnightblue" stroke="midnightblue" points="346.634,-380.742 356.953,-378.343 347.39,-373.783 346.634,-380.742"/>
</g>
<!-- Node20&#45;&gt;Node13 -->
<g id="edge24" class="edge"><title>Node20&#45;&gt;Node13</title>
<path fill="none" stroke="midnightblue" d="M277.321,-230.786C283.377,-233.825 289.121,-237.518 294,-242 322.118,-267.829 299.489,-297.047 330,-320 362.095,-344.145 468.563,-354.645 539.218,-359.038"/>
<polygon fill="midnightblue" stroke="midnightblue" points="539.179,-362.542 549.369,-359.643 539.595,-355.554 539.179,-362.542"/>
</g>
<!-- Node21 -->
<g id="node21" class="node"><title>Node21</title>
<g id="a_node21"><a xlink:href="classRa_1_1Engine_1_1RenderObject.html#ae9cb914f351555a60d29e8d6afedc06b" target="_top" xlink:title="Sort of factory method to easily create a render object. ">
<polygon fill="white" stroke="black" points="344.5,-85 344.5,-115 475.5,-115 475.5,-85 344.5,-85"/>
<text text-anchor="start" x="352.5" y="-103" font-family="Helvetica,sans-Serif" font-size="10.00">Ra::Engine::RenderObject</text>
<text text-anchor="middle" x="410" y="-92" font-family="Helvetica,sans-Serif" font-size="10.00">::createRenderObject</text>
</a>
</g>
</g>
<!-- Node20&#45;&gt;Node21 -->
<g id="edge25" class="edge"><title>Node20&#45;&gt;Node21</title>
<path fill="none" stroke="midnightblue" d="M270.922,-201.994C279.183,-197.969 287.289,-193.017 294,-187 318.012,-165.473 304.789,-144.109 330,-124 331.775,-122.584 333.634,-121.251 335.558,-119.997"/>
<polygon fill="midnightblue" stroke="midnightblue" points="337.403,-122.973 344.362,-114.985 333.94,-116.89 337.403,-122.973"/>
</g>
<!-- Node26 -->
<g id="node26" class="node"><title>Node26</title>
<g id="a_node26"><a xlink:href="classRa_1_1Engine_1_1RenderObject.html#acc91aff99b91e06143b28940ec49d0e0" target="_top" xlink:title="Ra::Engine::RenderObject\l::getRenderTechnique">
<polygon fill="white" stroke="black" points="344.5,-232 344.5,-262 475.5,-262 475.5,-232 344.5,-232"/>
<text text-anchor="start" x="352.5" y="-250" font-family="Helvetica,sans-Serif" font-size="10.00">Ra::Engine::RenderObject</text>
<text text-anchor="middle" x="410" y="-239" font-family="Helvetica,sans-Serif" font-size="10.00">::getRenderTechnique</text>
</a>
</g>
</g>
<!-- Node20&#45;&gt;Node26 -->
<g id="edge30" class="edge"><title>Node20&#45;&gt;Node26</title>
<path fill="none" stroke="midnightblue" d="M277.235,-225.517C294.968,-228.408 315.142,-231.697 334.281,-234.818"/>
<polygon fill="midnightblue" stroke="midnightblue" points="333.744,-238.276 344.177,-236.431 334.871,-231.367 333.744,-238.276"/>
</g>
<!-- Node27 -->
<g id="node27" class="node"><title>Node27</title>
<g id="a_node27"><a xlink:href="namespaceRa_1_1Engine_1_1ShaderConfigurationFactory.html#a0bc60f21dbabd745961037f3d2f019c8" target="_top" xlink:title="Ra::Engine::ShaderConfiguration\lFactory::getConfiguration">
<polygon fill="white" stroke="black" points="330,-183 330,-213 490,-213 490,-183 330,-183"/>
<text text-anchor="start" x="338" y="-201" font-family="Helvetica,sans-Serif" font-size="10.00">Ra::Engine::ShaderConfiguration</text>
<text text-anchor="middle" x="410" y="-190" font-family="Helvetica,sans-Serif" font-size="10.00">Factory::getConfiguration</text>
</a>
</g>
</g>
<!-- Node20&#45;&gt;Node27 -->
<g id="edge31" class="edge"><title>Node20&#45;&gt;Node27</title>
<path fill="none" stroke="midnightblue" d="M277.235,-211.606C290.529,-210.233 305.195,-208.719 319.768,-207.214"/>
<polygon fill="midnightblue" stroke="midnightblue" points="320.237,-210.684 329.824,-206.176 319.518,-203.721 320.237,-210.684"/>
</g>
<!-- Node29 -->
<g id="node29" class="node"><title>Node29</title>
<g id="a_node29"><a xlink:href="classRa_1_1Engine_1_1RenderObject.html#a2d6a1bc2b7646fe0912035a2ece24864" target="_top" xlink:title="Ra::Engine::RenderObject\l::setLocalTransform">
<polygon fill="white" stroke="black" points="344.5,-134 344.5,-164 475.5,-164 475.5,-134 344.5,-134"/>
<text text-anchor="start" x="352.5" y="-152" font-family="Helvetica,sans-Serif" font-size="10.00">Ra::Engine::RenderObject</text>
<text text-anchor="middle" x="410" y="-141" font-family="Helvetica,sans-Serif" font-size="10.00">::setLocalTransform</text>
</a>
</g>
</g>
<!-- Node20&#45;&gt;Node29 -->
<g id="edge33" class="edge"><title>Node20&#45;&gt;Node29</title>
<path fill="none" stroke="midnightblue" d="M259.72,-201.942C280.044,-193.339 306.294,-182.589 330,-174 336.27,-171.728 342.86,-169.46 349.449,-167.267"/>
<polygon fill="midnightblue" stroke="midnightblue" points="350.649,-170.557 359.063,-164.118 348.47,-163.905 350.649,-170.557"/>
</g>
<!-- Node30 -->
<g id="node30" class="node"><title>Node30</title>
<g id="a_node30"><a xlink:href="classRa_1_1Engine_1_1Component.html#a8faa6f03b4a5a8bc30bb8ff402e6b61f" target="_top" xlink:title="Add a new render object to the component. This adds the RO to the manager for drawing. ">
<polygon fill="white" stroke="black" points="349,-281 349,-311 471,-311 471,-281 349,-281"/>
<text text-anchor="start" x="357" y="-299" font-family="Helvetica,sans-Serif" font-size="10.00">Ra::Engine::Component</text>
<text text-anchor="middle" x="410" y="-288" font-family="Helvetica,sans-Serif" font-size="10.00">::addRenderObject</text>
</a>
</g>
</g>
<!-- Node20&#45;&gt;Node30 -->
<g id="edge34" class="edge"><title>Node20&#45;&gt;Node30</title>
<path fill="none" stroke="midnightblue" d="M273.058,-232.076C280.254,-234.995 287.45,-238.311 294,-242 311.902,-252.081 311.894,-261.289 330,-271 334.031,-273.162 338.279,-275.173 342.629,-277.036"/>
<polygon fill="midnightblue" stroke="midnightblue" points="341.683,-280.427 352.268,-280.882 344.277,-273.925 341.683,-280.427"/>
</g>
<!-- Node22 -->
<g id="node22" class="node"><title>Node22</title>
<g id="a_node22"><a xlink:href="classRa_1_1Engine_1_1RenderObject.html#acf300c8fdb55fee54d27b3fb46a1e523" target="_top" xlink:title="A &#45;1 (or any other negative value) lifetime is considered infinite, 0 is an &quot;invalid value&quot; (would ...">
<polygon fill="white" stroke="black" points="540.5,-49 540.5,-79 671.5,-79 671.5,-49 540.5,-49"/>
<text text-anchor="start" x="548.5" y="-67" font-family="Helvetica,sans-Serif" font-size="10.00">Ra::Engine::RenderObject</text>
<text text-anchor="middle" x="606" y="-56" font-family="Helvetica,sans-Serif" font-size="10.00">::RenderObject</text>
</a>
</g>
</g>
<!-- Node21&#45;&gt;Node22 -->
<g id="edge26" class="edge"><title>Node21&#45;&gt;Node22</title>
<path fill="none" stroke="midnightblue" d="M475.599,-88.0125C493.176,-84.7508 512.357,-81.1914 530.438,-77.8362"/>
<polygon fill="midnightblue" stroke="midnightblue" points="531.159,-81.2623 540.352,-75.9965 529.882,-74.3798 531.159,-81.2623"/>
</g>
<!-- Node23 -->
<g id="node23" class="node"><title>Node23</title>
<g id="a_node23"><a xlink:href="classRa_1_1Engine_1_1RenderObject.html#ae8e94954e783a2012fd774598af1eb52" target="_top" xlink:title="Ra::Engine::RenderObject\l::setMesh">
<polygon fill="white" stroke="black" points="540.5,-147 540.5,-177 671.5,-177 671.5,-147 540.5,-147"/>
<text text-anchor="start" x="548.5" y="-165" font-family="Helvetica,sans-Serif" font-size="10.00">Ra::Engine::RenderObject</text>
<text text-anchor="middle" x="606" y="-154" font-family="Helvetica,sans-Serif" font-size="10.00">::setMesh</text>
</a>
</g>
</g>
<!-- Node21&#45;&gt;Node23 -->
<g id="edge27" class="edge"><title>Node21&#45;&gt;Node23</title>
<path fill="none" stroke="midnightblue" d="M462.118,-115.108C471.422,-117.977 481.022,-121.017 490,-124 506.144,-129.363 509.888,-131.544 526,-137 532.745,-139.284 539.835,-141.619 546.884,-143.901"/>
<polygon fill="midnightblue" stroke="midnightblue" points="545.845,-147.243 556.436,-146.969 547.986,-140.578 545.845,-147.243"/>
</g>
<!-- Node24 -->
<g id="node24" class="node"><title>Node24</title>
<g id="a_node24"><a xlink:href="classRa_1_1Engine_1_1RenderObject.html#a62e0eb3a7de5a7d352b565a28260cc06" target="_top" xlink:title="Ra::Engine::RenderObject\l::setVisible">
<polygon fill="white" stroke="black" points="540.5,-0 540.5,-30 671.5,-30 671.5,-0 540.5,-0"/>
<text text-anchor="start" x="548.5" y="-18" font-family="Helvetica,sans-Serif" font-size="10.00">Ra::Engine::RenderObject</text>
<text text-anchor="middle" x="606" y="-7" font-family="Helvetica,sans-Serif" font-size="10.00">::setVisible</text>
</a>
</g>
</g>
<!-- Node21&#45;&gt;Node24 -->
<g id="edge28" class="edge"><title>Node21&#45;&gt;Node24</title>
<path fill="none" stroke="midnightblue" d="M435.899,-84.9873C458.746,-71.6527 493.827,-52.2746 526,-39 530.764,-37.0344 535.748,-35.1475 540.796,-33.356"/>
<polygon fill="midnightblue" stroke="midnightblue" points="542.208,-36.5728 550.543,-30.0328 539.949,-29.9473 542.208,-36.5728"/>
</g>
<!-- Node25 -->
<g id="node25" class="node"><title>Node25</title>
<g id="a_node25"><a xlink:href="classRa_1_1Engine_1_1RenderObject.html#ae1ea453e2b698cda9956586d11b9cfbd" target="_top" xlink:title="Ra::Engine::RenderObject\l::setRenderTechnique">
<polygon fill="white" stroke="black" points="540.5,-98 540.5,-128 671.5,-128 671.5,-98 540.5,-98"/>
<text text-anchor="start" x="548.5" y="-116" font-family="Helvetica,sans-Serif" font-size="10.00">Ra::Engine::RenderObject</text>
<text text-anchor="middle" x="606" y="-105" font-family="Helvetica,sans-Serif" font-size="10.00">::setRenderTechnique</text>
</a>
</g>
</g>
<!-- Node21&#45;&gt;Node25 -->
<g id="edge29" class="edge"><title>Node21&#45;&gt;Node25</title>
<path fill="none" stroke="midnightblue" d="M475.599,-104.329C493.095,-105.501 512.18,-106.78 530.187,-107.987"/>
<polygon fill="midnightblue" stroke="midnightblue" points="530.141,-111.491 540.352,-108.668 530.609,-104.507 530.141,-111.491"/>
</g>
<!-- Node28 -->
<g id="node28" class="node"><title>Node28</title>
<g id="a_node28"><a xlink:href="classRa_1_1Engine_1_1ShaderConfiguration.html#a7e20a600c78e8627f0238b342f4b42f2" target="_top" xlink:title="Ra::Engine::ShaderConfiguration\l::getDefaultShaderConfig">
<polygon fill="white" stroke="black" points="526,-196 526,-226 686,-226 686,-196 526,-196"/>
<text text-anchor="start" x="534" y="-214" font-family="Helvetica,sans-Serif" font-size="10.00">Ra::Engine::ShaderConfiguration</text>
<text text-anchor="middle" x="606" y="-203" font-family="Helvetica,sans-Serif" font-size="10.00">::getDefaultShaderConfig</text>
</a>
</g>
</g>
<!-- Node27&#45;&gt;Node28 -->
<g id="edge32" class="edge"><title>Node27&#45;&gt;Node28</title>
<path fill="none" stroke="midnightblue" d="M490.187,-203.306C498.529,-203.865 507.054,-204.437 515.502,-205.003"/>
<polygon fill="midnightblue" stroke="midnightblue" points="515.54,-208.513 525.752,-205.69 516.008,-201.529 515.54,-208.513"/>
</g>
<!-- Node31 -->
<g id="node31" class="node"><title>Node31</title>
<g id="a_node31"><a xlink:href="classRa_1_1Engine_1_1Component.html#a10b0bc182b76165744ebea603ae32dfe" target="_top" xlink:title="Shortcut to access the render object manager. ">
<polygon fill="white" stroke="black" points="545,-281 545,-311 667,-311 667,-281 545,-281"/>
<text text-anchor="start" x="553" y="-299" font-family="Helvetica,sans-Serif" font-size="10.00">Ra::Engine::Component</text>
<text text-anchor="middle" x="606" y="-288" font-family="Helvetica,sans-Serif" font-size="10.00">::getRoMgr</text>
</a>
</g>
</g>
<!-- Node30&#45;&gt;Node31 -->
<g id="edge35" class="edge"><title>Node30&#45;&gt;Node31</title>
<path fill="none" stroke="midnightblue" d="M471.054,-296C491.233,-296 513.919,-296 534.805,-296"/>
<polygon fill="midnightblue" stroke="midnightblue" points="534.896,-299.5 544.896,-296 534.896,-292.5 534.896,-299.5"/>
</g>
<!-- Node32&#45;&gt;Node24 -->
<g id="edge37" class="edge"><title>Node32&#45;&gt;Node24</title>
<path fill="none" stroke="midnightblue" d="M463.244,-23.7684C483.778,-22.4982 507.741,-21.016 530.058,-19.6356"/>
<polygon fill="midnightblue" stroke="midnightblue" points="530.413,-23.1204 540.178,-19.0096 529.981,-16.1338 530.413,-23.1204"/>
</g>
</g>
</svg>
