<?xml version="1.0" encoding="UTF-8" standalone="no"?>
<!DOCTYPE svg PUBLIC "-//W3C//DTD SVG 1.1//EN"
 "http://www.w3.org/Graphics/SVG/1.1/DTD/svg11.dtd">
<!-- Generated by graphviz version 2.36.0 (20140111.2315)
 -->
<!-- Title: Ra::Core::EIterator&lt; OBJECT &gt; Pages: 1 -->
<svg width="128pt" height="490pt"
 viewBox="0.00 0.00 128.00 490.00" xmlns="http://www.w3.org/2000/svg" xmlns:xlink="http://www.w3.org/1999/xlink">
<g id="graph0" class="graph" transform="scale(1 1) rotate(0) translate(4 486)">
<title>Ra::Core::EIterator&lt; OBJECT &gt;</title>
<polygon fill="white" stroke="none" points="-4,4 -4,-486 124,-486 124,4 -4,4"/>
<!-- Node1 -->
<g id="node1" class="node"><title>Node1</title>
<polygon fill="#bfbfbf" stroke="black" points="10,-1 10,-157 110,-157 110,-1 10,-1"/>
<text text-anchor="start" x="18" y="-145" font-family="Helvetica,sans-Serif" font-size="10.00">Ra::Core::EIterator</text>
<text text-anchor="middle" x="60" y="-134" font-family="Helvetica,sans-Serif" font-size="10.00">&lt; OBJECT &gt;</text>
<polyline fill="none" stroke="black" points="10,-127 110,-127 "/>
<text text-anchor="middle" x="60" y="-115" font-family="Helvetica,sans-Serif" font-size="10.00"> </text>
<polyline fill="none" stroke="black" points="10,-108 110,-108 "/>
<text text-anchor="start" x="18" y="-96" font-family="Helvetica,sans-Serif" font-size="10.00">+ EIterator()</text>
<text text-anchor="start" x="18" y="-85" font-family="Helvetica,sans-Serif" font-size="10.00">+ EIterator()</text>
<text text-anchor="start" x="18" y="-74" font-family="Helvetica,sans-Serif" font-size="10.00">+ ~EIterator()</text>
<text text-anchor="start" x="18" y="-63" font-family="Helvetica,sans-Serif" font-size="10.00">+ size()</text>
<text text-anchor="start" x="18" y="-52" font-family="Helvetica,sans-Serif" font-size="10.00">+ reset()</text>
<text text-anchor="start" x="18" y="-41" font-family="Helvetica,sans-Serif" font-size="10.00">+ operator=()</text>
<text text-anchor="start" x="18" y="-30" font-family="Helvetica,sans-Serif" font-size="10.00">+ operator++()</text>
<text text-anchor="start" x="18" y="-19" font-family="Helvetica,sans-Serif" font-size="10.00">+ operator&#45;&#45;()</text>
<text text-anchor="start" x="18" y="-8" font-family="Helvetica,sans-Serif" font-size="10.00">+ operator==()</text>
</g>
<!-- Node2 -->
<g id="node2" class="node"><title>Node2</title>
<g id="a_node2"><a xlink:href="classRa_1_1Core_1_1Iterator.html" target="_top" xlink:title="{Ra::Core::Iterator\l\&lt; OBJECT \&gt;\n||+ Iterator()\l+ Iterator()\l+ ~Iterator()\l+ size()\l+ list()\l+ reset()\l+ operator&#45;\&gt;()\l+ operator++()\l+ operator&#45;&#45;()\l+ operator+=()\l+ operator&#45;=()\l}">
<polygon fill="white" stroke="black" points="13.5,-197 13.5,-375 106.5,-375 106.5,-197 13.5,-197"/>
<text text-anchor="start" x="21.5" y="-363" font-family="Helvetica,sans-Serif" font-size="10.00">Ra::Core::Iterator</text>
<text text-anchor="middle" x="60" y="-352" font-family="Helvetica,sans-Serif" font-size="10.00">&lt; OBJECT &gt;</text>
<polyline fill="none" stroke="black" points="13.5,-345 106.5,-345 "/>
<text text-anchor="middle" x="60" y="-333" font-family="Helvetica,sans-Serif" font-size="10.00"> </text>
<polyline fill="none" stroke="black" points="13.5,-326 106.5,-326 "/>
<text text-anchor="start" x="21.5" y="-314" font-family="Helvetica,sans-Serif" font-size="10.00">+ Iterator()</text>
<text text-anchor="start" x="21.5" y="-303" font-family="Helvetica,sans-Serif" font-size="10.00">+ Iterator()</text>
<text text-anchor="start" x="21.5" y="-292" font-family="Helvetica,sans-Serif" font-size="10.00">+ ~Iterator()</text>
<text text-anchor="start" x="21.5" y="-281" font-family="Helvetica,sans-Serif" font-size="10.00">+ size()</text>
<text text-anchor="start" x="21.5" y="-270" font-family="Helvetica,sans-Serif" font-size="10.00">+ list()</text>
<text text-anchor="start" x="21.5" y="-259" font-family="Helvetica,sans-Serif" font-size="10.00">+ reset()</text>
<text text-anchor="start" x="21.5" y="-248" font-family="Helvetica,sans-Serif" font-size="10.00">+ operator&#45;&gt;()</text>
<text text-anchor="start" x="21.5" y="-237" font-family="Helvetica,sans-Serif" font-size="10.00">+ operator++()</text>
<text text-anchor="start" x="21.5" y="-226" font-family="Helvetica,sans-Serif" font-size="10.00">+ operator&#45;&#45;()</text>
<text text-anchor="start" x="21.5" y="-215" font-family="Helvetica,sans-Serif" font-size="10.00">+ operator+=()</text>
<text text-anchor="start" x="21.5" y="-204" font-family="Helvetica,sans-Serif" font-size="10.00">+ operator&#45;=()</text>
</a>
</g>
</g>
<!-- Node2&#45;&gt;Node1 -->
<g id="edge1" class="edge"><title>Node2&#45;&gt;Node1</title>
<path fill="none" stroke="midnightblue" d="M60,-186.582C60,-176.676 60,-166.719 60,-157.082"/>
<polygon fill="none" stroke="midnightblue" points="56.5001,-186.872 60,-196.872 63.5001,-186.872 56.5001,-186.872"/>
</g>
<!-- Node3 -->
<g id="node3" class="node"><title>Node3</title>
<polygon fill="white" stroke="#bfbfbf" points="-0.5,-424.5 -0.5,-481.5 120.5,-481.5 120.5,-424.5 -0.5,-424.5"/>
<text text-anchor="middle" x="60" y="-469.5" font-family="Helvetica,sans-Serif" font-size="10.00">shared_ptr&lt; HalfEdge &gt;</text>
<polyline fill="none" stroke="#bfbfbf" points="-0.5,-462.5 120.5,-462.5 "/>
<text text-anchor="middle" x="60" y="-450.5" font-family="Helvetica,sans-Serif" font-size="10.00"> </text>
<polyline fill="none" stroke="#bfbfbf" points="-0.5,-443.5 120.5,-443.5 "/>
<text text-anchor="middle" x="60" y="-431.5" font-family="Helvetica,sans-Serif" font-size="10.00"> </text>
</g>
<!-- Node3&#45;&gt;Node2 -->
<g id="edge2" class="edge"><title>Node3&#45;&gt;Node2</title>
<path fill="none" stroke="#404040" d="M60,-424.383C60,-413.739 60,-400.866 60,-387.319"/>
<polygon fill="none" stroke="#404040" points="60.0001,-387.28 56,-381.28 60,-375.28 64,-381.28 60.0001,-387.28"/>
<text text-anchor="middle" x="76.5" y="-397.5" font-family="Helvetica,sans-Serif" font-size="10.00"> #m_he</text>
</g>
</g>
</svg>
