<?xml version="1.0" encoding="UTF-8" standalone="no"?>
<!DOCTYPE svg PUBLIC "-//W3C//DTD SVG 1.1//EN"
 "http://www.w3.org/Graphics/SVG/1.1/DTD/svg11.dtd">
<!-- Generated by graphviz version 2.36.0 (20140111.2315)
 -->
<!-- Title: Ra::Core::TopologicalMesh Pages: 1 -->
<svg width="148pt" height="314pt"
 viewBox="0.00 0.00 148.00 314.00" xmlns="http://www.w3.org/2000/svg" xmlns:xlink="http://www.w3.org/1999/xlink">
<g id="graph0" class="graph" transform="scale(1 1) rotate(0) translate(4 310)">
<title>Ra::Core::TopologicalMesh</title>
<polygon fill="white" stroke="none" points="-4,4 -4,-310 144,-310 144,4 -4,4"/>
<!-- Node1 -->
<g id="node1" class="node"><title>Node1</title>
<polygon fill="#bfbfbf" stroke="black" points="0,-0.5 0,-189.5 140,-189.5 140,-0.5 0,-0.5"/>
<text text-anchor="middle" x="70" y="-177.5" font-family="Helvetica,sans-Serif" font-size="10.00">Ra::Core::TopologicalMesh</text>
<polyline fill="none" stroke="black" points="0,-170.5 140,-170.5 "/>
<text text-anchor="middle" x="70" y="-158.5" font-family="Helvetica,sans-Serif" font-size="10.00"> </text>
<polyline fill="none" stroke="black" points="0,-151.5 140,-151.5 "/>
<text text-anchor="start" x="8" y="-139.5" font-family="Helvetica,sans-Serif" font-size="10.00">+ TopologicalMesh()</text>
<text text-anchor="start" x="8" y="-128.5" font-family="Helvetica,sans-Serif" font-size="10.00">+ TopologicalMesh()</text>
<text text-anchor="start" x="8" y="-117.5" font-family="Helvetica,sans-Serif" font-size="10.00">+ toTriangleMesh()</text>
<text text-anchor="start" x="8" y="-106.5" font-family="Helvetica,sans-Serif" font-size="10.00">+ halfedge_handle()</text>
<text text-anchor="start" x="8" y="-95.5" font-family="Helvetica,sans-Serif" font-size="10.00">+ normal()</text>
<text text-anchor="start" x="8" y="-84.5" font-family="Helvetica,sans-Serif" font-size="10.00">+ getFloatPropsHandles()</text>
<text text-anchor="start" x="8" y="-73.5" font-family="Helvetica,sans-Serif" font-size="10.00">+ getVector2PropsHandles()</text>
<text text-anchor="start" x="8" y="-62.5" font-family="Helvetica,sans-Serif" font-size="10.00">+ getVector3PropsHandles()</text>
<text text-anchor="start" x="8" y="-51.5" font-family="Helvetica,sans-Serif" font-size="10.00">+ getVector4PropsHandles()</text>
<text text-anchor="start" x="8" y="-40.5" font-family="Helvetica,sans-Serif" font-size="10.00">* getFloatPropsHandles()</text>
<text text-anchor="start" x="8" y="-29.5" font-family="Helvetica,sans-Serif" font-size="10.00">* getVector2PropsHandles()</text>
<text text-anchor="start" x="8" y="-18.5" font-family="Helvetica,sans-Serif" font-size="10.00">* getVector3PropsHandles()</text>
<text text-anchor="start" x="8" y="-7.5" font-family="Helvetica,sans-Serif" font-size="10.00">* getVector4PropsHandles()</text>
</g>
<!-- Node2 -->
<g id="node2" class="node"><title>Node2</title>
<polygon fill="white" stroke="#bfbfbf" points="1.5,-226.5 1.5,-305.5 138.5,-305.5 138.5,-226.5 1.5,-226.5"/>
<text text-anchor="start" x="9.5" y="-293.5" font-family="Helvetica,sans-Serif" font-size="10.00">OpenMesh::PolyMesh</text>
<text text-anchor="start" x="9.5" y="-282.5" font-family="Helvetica,sans-Serif" font-size="10.00">_ArrayKernelT&lt; Topological</text>
<text text-anchor="middle" x="70" y="-271.5" font-family="Helvetica,sans-Serif" font-size="10.00">MeshTraits &gt;</text>
<polyline fill="none" stroke="#bfbfbf" points="1.5,-264.5 138.5,-264.5 "/>
<text text-anchor="middle" x="70" y="-252.5" font-family="Helvetica,sans-Serif" font-size="10.00"> </text>
<polyline fill="none" stroke="#bfbfbf" points="1.5,-245.5 138.5,-245.5 "/>
<text text-anchor="middle" x="70" y="-233.5" font-family="Helvetica,sans-Serif" font-size="10.00"> </text>
</g>
<!-- Node2&#45;&gt;Node1 -->
<g id="edge1" class="edge"><title>Node2&#45;&gt;Node1</title>
<path fill="none" stroke="midnightblue" d="M70,-215.967C70,-207.601 70,-198.669 70,-189.596"/>
<polygon fill="none" stroke="midnightblue" points="66.5001,-216.228 70,-226.228 73.5001,-216.228 66.5001,-216.228"/>
</g>
</g>
</svg>
