<?xml version="1.0" encoding="UTF-8" standalone="no"?>
<!DOCTYPE svg PUBLIC "-//W3C//DTD SVG 1.1//EN"
 "http://www.w3.org/Graphics/SVG/1.1/DTD/svg11.dtd">
<!-- Generated by graphviz version 2.36.0 (20140111.2315)
 -->
<!-- Title: Ra::Asset::MaterialData Pages: 1 -->
<svg width="130pt" height="454pt"
 viewBox="0.00 0.00 130.00 454.00" xmlns="http://www.w3.org/2000/svg" xmlns:xlink="http://www.w3.org/1999/xlink">
<g id="graph0" class="graph" transform="scale(1 1) rotate(0) translate(4 450)">
<title>Ra::Asset::MaterialData</title>
<polygon fill="white" stroke="none" points="-4,4 -4,-450 126,-450 126,4 -4,4"/>
<!-- Node1 -->
<g id="node1" class="node"><title>Node1</title>
<polygon fill="#bfbfbf" stroke="black" points="0,-1 0,-113 122,-113 122,-1 0,-1"/>
<text text-anchor="middle" x="61" y="-101" font-family="Helvetica,sans-Serif" font-size="10.00">Ra::Asset::MaterialData</text>
<polyline fill="none" stroke="black" points="0,-94 122,-94 "/>
<text text-anchor="middle" x="61" y="-82" font-family="Helvetica,sans-Serif" font-size="10.00"> </text>
<polyline fill="none" stroke="black" points="0,-75 122,-75 "/>
<text text-anchor="start" x="8" y="-63" font-family="Helvetica,sans-Serif" font-size="10.00">+ MaterialData()</text>
<text text-anchor="start" x="8" y="-52" font-family="Helvetica,sans-Serif" font-size="10.00">+ ~MaterialData()</text>
<text text-anchor="start" x="8" y="-41" font-family="Helvetica,sans-Serif" font-size="10.00">+ setName()</text>
<text text-anchor="start" x="8" y="-30" font-family="Helvetica,sans-Serif" font-size="10.00">+ getType()</text>
<text text-anchor="start" x="8" y="-19" font-family="Helvetica,sans-Serif" font-size="10.00">+ setType()</text>
<text text-anchor="start" x="8" y="-8" font-family="Helvetica,sans-Serif" font-size="10.00">+ displayInfo()</text>
</g>
<!-- Node2 -->
<g id="node2" class="node"><title>Node2</title>
<g id="a_node2"><a xlink:href="classRa_1_1Asset_1_1AssetData.html" target="_top" xlink:title="{Ra::Asset::AssetData\n||+ AssetData()\l+ ~AssetData()\l+ getName()\l}">
<polygon fill="white" stroke="black" points="4.5,-152.5 4.5,-231.5 117.5,-231.5 117.5,-152.5 4.5,-152.5"/>
<text text-anchor="middle" x="61" y="-219.5" font-family="Helvetica,sans-Serif" font-size="10.00">Ra::Asset::AssetData</text>
<polyline fill="none" stroke="black" points="4.5,-212.5 117.5,-212.5 "/>
<text text-anchor="middle" x="61" y="-200.5" font-family="Helvetica,sans-Serif" font-size="10.00"> </text>
<polyline fill="none" stroke="black" points="4.5,-193.5 117.5,-193.5 "/>
<text text-anchor="start" x="12.5" y="-181.5" font-family="Helvetica,sans-Serif" font-size="10.00">+ AssetData()</text>
<text text-anchor="start" x="12.5" y="-170.5" font-family="Helvetica,sans-Serif" font-size="10.00">+ ~AssetData()</text>
<text text-anchor="start" x="12.5" y="-159.5" font-family="Helvetica,sans-Serif" font-size="10.00">+ getName()</text>
</a>
</g>
</g>
<!-- Node2&#45;&gt;Node1 -->
<g id="edge1" class="edge"><title>Node2&#45;&gt;Node1</title>
<path fill="none" stroke="midnightblue" d="M61,-141.944C61,-132.662 61,-122.892 61,-113.43"/>
<polygon fill="none" stroke="midnightblue" points="57.5001,-142.173 61,-152.173 64.5001,-142.173 57.5001,-142.173"/>
</g>
<!-- Node3 -->
<g id="node3" class="node"><title>Node3</title>
<g id="a_node3"><a xlink:title="STL class. ">
<polygon fill="white" stroke="#bfbfbf" points="31,-280.5 31,-337.5 91,-337.5 91,-280.5 31,-280.5"/>
<text text-anchor="middle" x="61" y="-325.5" font-family="Helvetica,sans-Serif" font-size="10.00">std::string</text>
<polyline fill="none" stroke="#bfbfbf" points="31,-318.5 91,-318.5 "/>
<text text-anchor="middle" x="61" y="-306.5" font-family="Helvetica,sans-Serif" font-size="10.00"> </text>
<polyline fill="none" stroke="#bfbfbf" points="31,-299.5 91,-299.5 "/>
<text text-anchor="middle" x="61" y="-287.5" font-family="Helvetica,sans-Serif" font-size="10.00"> </text>
</a>
</g>
</g>
<!-- Node3&#45;&gt;Node2 -->
<g id="edge2" class="edge"><title>Node3&#45;&gt;Node2</title>
<path fill="none" stroke="#404040" d="M61,-280.455C61,-269.491 61,-256.511 61,-243.953"/>
<polygon fill="none" stroke="#404040" points="61.0001,-243.626 57,-237.626 61,-231.626 65,-237.626 61.0001,-243.626"/>
<text text-anchor="middle" x="84" y="-253.5" font-family="Helvetica,sans-Serif" font-size="10.00"> #m_name</text>
</g>
<!-- Node4 -->
<g id="node4" class="node"><title>Node4</title>
<g id="a_node4"><a xlink:title="STL class. ">
<polygon fill="white" stroke="#bfbfbf" points="13.5,-377 13.5,-445 108.5,-445 108.5,-377 13.5,-377"/>
<text text-anchor="start" x="21.5" y="-433" font-family="Helvetica,sans-Serif" font-size="10.00">std::basic_string&lt;</text>
<text text-anchor="middle" x="61" y="-422" font-family="Helvetica,sans-Serif" font-size="10.00"> char &gt;</text>
<polyline fill="none" stroke="#bfbfbf" points="13.5,-415 108.5,-415 "/>
<text text-anchor="middle" x="61" y="-403" font-family="Helvetica,sans-Serif" font-size="10.00"> </text>
<polyline fill="none" stroke="#bfbfbf" points="13.5,-396 108.5,-396 "/>
<text text-anchor="middle" x="61" y="-384" font-family="Helvetica,sans-Serif" font-size="10.00"> </text>
</a>
</g>
</g>
<!-- Node4&#45;&gt;Node3 -->
<g id="edge3" class="edge"><title>Node4&#45;&gt;Node3</title>
<path fill="none" stroke="midnightblue" d="M61,-366.857C61,-356.952 61,-346.682 61,-337.64"/>
<polygon fill="none" stroke="midnightblue" points="57.5001,-366.979 61,-376.979 64.5001,-366.979 57.5001,-366.979"/>
</g>
</g>
</svg>
