<?xml version="1.0" encoding="UTF-8" standalone="no"?>
<!DOCTYPE svg PUBLIC "-//W3C//DTD SVG 1.1//EN"
 "http://www.w3.org/Graphics/SVG/1.1/DTD/svg11.dtd">
<!-- Generated by graphviz version 2.36.0 (20140111.2315)
 -->
<!-- Title: Ra::IO::AssimpGeometryDataLoader::fetchEdges Pages: 1 -->
<svg width="326pt" height="214pt"
 viewBox="0.00 0.00 326.00 214.00" xmlns="http://www.w3.org/2000/svg" xmlns:xlink="http://www.w3.org/1999/xlink">
<g id="graph0" class="graph" transform="scale(1 1) rotate(0) translate(4 210)">
<title>Ra::IO::AssimpGeometryDataLoader::fetchEdges</title>
<polygon fill="white" stroke="none" points="-4,4 -4,-210 322,-210 322,4 -4,4"/>
<!-- Node1 -->
<g id="node1" class="node"><title>Node1</title>
<polygon fill="#bfbfbf" stroke="black" points="0.5,-93 0.5,-123 149.5,-123 149.5,-93 0.5,-93"/>
<text text-anchor="start" x="8.5" y="-111" font-family="Helvetica,sans-Serif" font-size="10.00">Ra::IO::AssimpGeometryData</text>
<text text-anchor="middle" x="75" y="-100" font-family="Helvetica,sans-Serif" font-size="10.00">Loader::fetchEdges</text>
</g>
<!-- Node2 -->
<g id="node2" class="node"><title>Node2</title>
<g id="a_node2"><a xlink:href="namespaceRa_1_1Core.html#abc0a3625137098b67838fe52edd480f9" target="_top" xlink:title="SIZE. ">
<polygon fill="white" stroke="black" points="212,-186.5 212,-205.5 292,-205.5 292,-186.5 212,-186.5"/>
<text text-anchor="middle" x="252" y="-193.5" font-family="Helvetica,sans-Serif" font-size="10.00">Ra::Core::size</text>
</a>
</g>
</g>
<!-- Node1&#45;&gt;Node2 -->
<g id="edge1" class="edge"><title>Node1&#45;&gt;Node2</title>
<path fill="none" stroke="midnightblue" d="M97.0049,-123.252C118.498,-138.302 153.289,-161.153 186,-176 191.856,-178.658 198.163,-181.09 204.463,-183.273"/>
<polygon fill="midnightblue" stroke="midnightblue" points="203.7,-186.706 214.293,-186.493 205.879,-180.054 203.7,-186.706"/>
</g>
<!-- Node3 -->
<g id="node3" class="node"><title>Node3</title>
<g id="a_node3"><a xlink:href="classRa_1_1Asset_1_1GeometryData.html#abe4083fd2256390f3d90734cc9003599" target="_top" xlink:title="Ra::Asset::GeometryData\l::getEdges">
<polygon fill="white" stroke="black" points="186.5,-137 186.5,-167 317.5,-167 317.5,-137 186.5,-137"/>
<text text-anchor="start" x="194.5" y="-155" font-family="Helvetica,sans-Serif" font-size="10.00">Ra::Asset::GeometryData</text>
<text text-anchor="middle" x="252" y="-144" font-family="Helvetica,sans-Serif" font-size="10.00">::getEdges</text>
</a>
</g>
</g>
<!-- Node1&#45;&gt;Node3 -->
<g id="edge2" class="edge"><title>Node1&#45;&gt;Node3</title>
<path fill="none" stroke="midnightblue" d="M135.736,-123.019C150.437,-126.716 166.305,-130.705 181.427,-134.507"/>
<polygon fill="midnightblue" stroke="midnightblue" points="180.685,-137.93 191.237,-136.974 182.392,-131.141 180.685,-137.93"/>
</g>
<!-- Node4 -->
<g id="node4" class="node"><title>Node4</title>
<g id="a_node4"><a xlink:href="namespaceRa_1_1IO.html#aef6c50424873964fcea0008be55d4a34" target="_top" xlink:title="Ra::IO::assimpToCore">
<polygon fill="white" stroke="black" points="194,-98.5 194,-117.5 310,-117.5 310,-98.5 194,-98.5"/>
<text text-anchor="middle" x="252" y="-105.5" font-family="Helvetica,sans-Serif" font-size="10.00">Ra::IO::assimpToCore</text>
</a>
</g>
</g>
<!-- Node1&#45;&gt;Node4 -->
<g id="edge3" class="edge"><title>Node1&#45;&gt;Node4</title>
<path fill="none" stroke="midnightblue" d="M149.709,-108C161.008,-108 172.623,-108 183.773,-108"/>
<polygon fill="midnightblue" stroke="midnightblue" points="183.859,-111.5 193.859,-108 183.859,-104.5 183.859,-111.5"/>
</g>
<!-- Node5 -->
<g id="node5" class="node"><title>Node5</title>
<g id="a_node5"><a xlink:href="classRa_1_1Asset_1_1GeometryData.html#ae7f137aae9b6723ff6b0fc7125b0fd35" target="_top" xlink:title="Ra::Asset::GeometryData\l::isLoadingDuplicates">
<polygon fill="white" stroke="black" points="186.5,-49 186.5,-79 317.5,-79 317.5,-49 186.5,-49"/>
<text text-anchor="start" x="194.5" y="-67" font-family="Helvetica,sans-Serif" font-size="10.00">Ra::Asset::GeometryData</text>
<text text-anchor="middle" x="252" y="-56" font-family="Helvetica,sans-Serif" font-size="10.00">::isLoadingDuplicates</text>
</a>
</g>
</g>
<!-- Node1&#45;&gt;Node5 -->
<g id="edge4" class="edge"><title>Node1&#45;&gt;Node5</title>
<path fill="none" stroke="midnightblue" d="M135.736,-92.9808C150.437,-89.2844 166.305,-85.2947 181.427,-81.4926"/>
<polygon fill="midnightblue" stroke="midnightblue" points="182.392,-84.859 191.237,-79.0262 180.685,-78.0703 182.392,-84.859"/>
</g>
<!-- Node6 -->
<g id="node6" class="node"><title>Node6</title>
<g id="a_node6"><a xlink:href="classRa_1_1Asset_1_1GeometryData.html#ad917f1a50860ee72fa2aa8f0d557c8c5" target="_top" xlink:title="DUPLICATES. ">
<polygon fill="white" stroke="black" points="186.5,-0 186.5,-30 317.5,-30 317.5,-0 186.5,-0"/>
<text text-anchor="start" x="194.5" y="-18" font-family="Helvetica,sans-Serif" font-size="10.00">Ra::Asset::GeometryData</text>
<text text-anchor="middle" x="252" y="-7" font-family="Helvetica,sans-Serif" font-size="10.00">::getDuplicateTable</text>
</a>
</g>
</g>
<!-- Node1&#45;&gt;Node6 -->
<g id="edge5" class="edge"><title>Node1&#45;&gt;Node6</title>
<path fill="none" stroke="midnightblue" d="M97.6358,-92.9419C119.331,-78.2518 154.019,-55.8618 186,-40 190.245,-37.8948 194.713,-35.8482 199.237,-33.8918"/>
<polygon fill="midnightblue" stroke="midnightblue" points="200.662,-37.0894 208.547,-30.0124 197.97,-30.6279 200.662,-37.0894"/>
</g>
</g>
</svg>
