<?xml version="1.0" encoding="UTF-8" standalone="no"?>
<!DOCTYPE svg PUBLIC "-//W3C//DTD SVG 1.1//EN"
 "http://www.w3.org/Graphics/SVG/1.1/DTD/svg11.dtd">
<!-- Generated by graphviz version 2.36.0 (20140111.2315)
 -->
<!-- Title: RaTests::DummyTestFail Pages: 1 -->
<svg width="138pt" height="182pt"
 viewBox="0.00 0.00 138.00 182.00" xmlns="http://www.w3.org/2000/svg" xmlns:xlink="http://www.w3.org/1999/xlink">
<g id="graph0" class="graph" transform="scale(1 1) rotate(0) translate(4 178)">
<title>RaTests::DummyTestFail</title>
<polygon fill="white" stroke="none" points="-4,4 -4,-178 134,-178 134,4 -4,4"/>
<!-- Node1 -->
<g id="node1" class="node"><title>Node1</title>
<polygon fill="#bfbfbf" stroke="black" points="0,-0.5 0,-57.5 130,-57.5 130,-0.5 0,-0.5"/>
<text text-anchor="middle" x="65" y="-45.5" font-family="Helvetica,sans-Serif" font-size="10.00">RaTests::DummyTestFail</text>
<polyline fill="none" stroke="black" points="0,-38.5 130,-38.5 "/>
<text text-anchor="middle" x="65" y="-26.5" font-family="Helvetica,sans-Serif" font-size="10.00"> </text>
<polyline fill="none" stroke="black" points="0,-19.5 130,-19.5 "/>
<text text-anchor="middle" x="65" y="-7.5" font-family="Helvetica,sans-Serif" font-size="10.00"> </text>
</g>
<!-- Node2 -->
<g id="node2" class="node"><title>Node2</title>
<g id="a_node2"><a xlink:href="classRaTests_1_1Test.html" target="_top" xlink:title="Base class for all tests. ">
<polygon fill="white" stroke="black" points="25,-94.5 25,-173.5 105,-173.5 105,-94.5 25,-94.5"/>
<text text-anchor="middle" x="65" y="-161.5" font-family="Helvetica,sans-Serif" font-size="10.00">RaTests::Test</text>
<polyline fill="none" stroke="black" points="25,-154.5 105,-154.5 "/>
<text text-anchor="middle" x="65" y="-142.5" font-family="Helvetica,sans-Serif" font-size="10.00"> </text>
<polyline fill="none" stroke="black" points="25,-135.5 105,-135.5 "/>
<text text-anchor="start" x="33" y="-123.5" font-family="Helvetica,sans-Serif" font-size="10.00">+ Test()</text>
<text text-anchor="start" x="33" y="-112.5" font-family="Helvetica,sans-Serif" font-size="10.00">+ run()</text>
<text text-anchor="start" x="33" y="-101.5" font-family="Helvetica,sans-Serif" font-size="10.00">+ ~Test()</text>
</a>
</g>
</g>
<!-- Node2&#45;&gt;Node1 -->
<g id="edge1" class="edge"><title>Node2&#45;&gt;Node1</title>
<path fill="none" stroke="midnightblue" d="M65,-84.1628C65,-75.0404 65,-65.8063 65,-57.6095"/>
<polygon fill="none" stroke="midnightblue" points="61.5001,-84.3535 65,-94.3536 68.5001,-84.3536 61.5001,-84.3535"/>
</g>
</g>
</svg>
