<?xml version="1.0" encoding="UTF-8" standalone="no"?>
<!DOCTYPE svg PUBLIC "-//W3C//DTD SVG 1.1//EN"
 "http://www.w3.org/Graphics/SVG/1.1/DTD/svg11.dtd">
<!-- Generated by graphviz version 2.36.0 (20140111.2315)
 -->
<!-- Title: SkinningPlugin::SkinningComponent::setSkinningType Pages: 1 -->
<svg width="1134pt" height="475pt"
 viewBox="0.00 0.00 1134.00 475.00" xmlns="http://www.w3.org/2000/svg" xmlns:xlink="http://www.w3.org/1999/xlink">
<g id="graph0" class="graph" transform="scale(1 1) rotate(0) translate(4 471)">
<title>SkinningPlugin::SkinningComponent::setSkinningType</title>
<polygon fill="white" stroke="none" points="-4,4 -4,-471 1130,-471 1130,4 -4,4"/>
<!-- Node1 -->
<g id="node1" class="node"><title>Node1</title>
<polygon fill="#bfbfbf" stroke="black" points="0,-189 0,-219 146,-219 146,-189 0,-189"/>
<text text-anchor="start" x="8" y="-207" font-family="Helvetica,sans-Serif" font-size="10.00">SkinningPlugin::Skinning</text>
<text text-anchor="middle" x="73" y="-196" font-family="Helvetica,sans-Serif" font-size="10.00">Component::setSkinningType</text>
</g>
<!-- Node2 -->
<g id="node2" class="node"><title>Node2</title>
<g id="a_node2"><a xlink:href="classSkinningPlugin_1_1SkinningComponent.html#a0ba759710b12a03a59faca912566d328" target="_top" xlink:title="SkinningPlugin::Skinning\lComponent::setupSkinningType">
<polygon fill="white" stroke="black" points="182,-189 182,-219 338,-219 338,-189 182,-189"/>
<text text-anchor="start" x="190" y="-207" font-family="Helvetica,sans-Serif" font-size="10.00">SkinningPlugin::Skinning</text>
<text text-anchor="middle" x="260" y="-196" font-family="Helvetica,sans-Serif" font-size="10.00">Component::setupSkinningType</text>
</a>
</g>
</g>
<!-- Node1&#45;&gt;Node2 -->
<g id="edge1" class="edge"><title>Node1&#45;&gt;Node2</title>
<path fill="none" stroke="midnightblue" d="M146.056,-204C154.514,-204 163.213,-204 171.85,-204"/>
<polygon fill="midnightblue" stroke="midnightblue" points="171.942,-207.5 181.942,-204 171.941,-200.5 171.942,-207.5"/>
</g>
<!-- Node3 -->
<g id="node3" class="node"><title>Node3</title>
<g id="a_node3"><a xlink:href="namespaceRa_1_1Core_1_1Animation.html#a40700cdabdd47fdb360f6bbfe692b36d" target="_top" xlink:title="Compute the optimal center of rotations (1 per vertex) based on weight similarity. ">
<polygon fill="white" stroke="black" points="374,-189 374,-219 480,-219 480,-189 374,-189"/>
<text text-anchor="start" x="382" y="-207" font-family="Helvetica,sans-Serif" font-size="10.00">Ra::Core::Animation</text>
<text text-anchor="middle" x="427" y="-196" font-family="Helvetica,sans-Serif" font-size="10.00">::computeCoR</text>
</a>
</g>
</g>
<!-- Node2&#45;&gt;Node3 -->
<g id="edge2" class="edge"><title>Node2&#45;&gt;Node3</title>
<path fill="none" stroke="midnightblue" d="M338.186,-204C346.772,-204 355.436,-204 363.803,-204"/>
<polygon fill="midnightblue" stroke="midnightblue" points="363.835,-207.5 373.835,-204 363.835,-200.5 363.835,-207.5"/>
</g>
<!-- Node4 -->
<g id="node4" class="node"><title>Node4</title>
<g id="a_node4"><a xlink:href="classRa_1_1Core_1_1TriangleMesh.html#a21ae39474fd85af3bfbcceb34e29d8ad" target="_top" xlink:title="Copy only the mesh faces and geometry. ">
<polygon fill="white" stroke="black" points="520.5,-388 520.5,-418 641.5,-418 641.5,-388 520.5,-388"/>
<text text-anchor="start" x="528.5" y="-406" font-family="Helvetica,sans-Serif" font-size="10.00">Ra::Core::TriangleMesh</text>
<text text-anchor="middle" x="581" y="-395" font-family="Helvetica,sans-Serif" font-size="10.00">::copyBaseGeometry</text>
</a>
</g>
</g>
<!-- Node3&#45;&gt;Node4 -->
<g id="edge3" class="edge"><title>Node3&#45;&gt;Node4</title>
<path fill="none" stroke="midnightblue" d="M436.259,-219.014C450.797,-244.881 482.6,-299.015 516,-340 527.909,-354.613 542.844,-369.475 555.291,-381.092"/>
<polygon fill="midnightblue" stroke="midnightblue" points="552.94,-383.684 562.671,-387.875 557.677,-378.531 552.94,-383.684"/>
</g>
<!-- Node8 -->
<g id="node8" class="node"><title>Node8</title>
<g id="a_node8"><a xlink:href="namespaceRa_1_1Core.html#a1992d0f90662705985222f69287915d0" target="_top" xlink:title="Ra::Core::convert">
<polygon fill="white" stroke="black" points="533.5,-311.5 533.5,-330.5 628.5,-330.5 628.5,-311.5 533.5,-311.5"/>
<text text-anchor="middle" x="581" y="-318.5" font-family="Helvetica,sans-Serif" font-size="10.00">Ra::Core::convert</text>
</a>
</g>
</g>
<!-- Node3&#45;&gt;Node8 -->
<g id="edge7" class="edge"><title>Node3&#45;&gt;Node8</title>
<path fill="none" stroke="midnightblue" d="M438.86,-219.232C454.033,-239.523 483.403,-275.368 516,-297 522.186,-301.105 529.171,-304.637 536.194,-307.631"/>
<polygon fill="midnightblue" stroke="midnightblue" points="535.138,-310.977 545.725,-311.383 537.702,-304.463 535.138,-310.977"/>
</g>
<!-- Node9 -->
<g id="node9" class="node"><title>Node9</title>
<g id="a_node9"><a xlink:href="classRa_1_1Core_1_1TriangleMesh.html#a495116f40cfec8bb6504698d786d4b8c" target="_top" xlink:title="Access the vertices positions. ">
<polygon fill="white" stroke="black" points="843.5,-245 843.5,-275 964.5,-275 964.5,-245 843.5,-245"/>
<text text-anchor="start" x="851.5" y="-263" font-family="Helvetica,sans-Serif" font-size="10.00">Ra::Core::TriangleMesh</text>
<text text-anchor="middle" x="904" y="-252" font-family="Helvetica,sans-Serif" font-size="10.00">::vertices</text>
</a>
</g>
</g>
<!-- Node3&#45;&gt;Node9 -->
<g id="edge15" class="edge"><title>Node3&#45;&gt;Node9</title>
<path fill="none" stroke="midnightblue" d="M480.091,-211.299C491.892,-212.898 504.372,-214.546 516,-216 626.771,-229.848 755.614,-244.133 833.155,-252.533"/>
<polygon fill="midnightblue" stroke="midnightblue" points="832.965,-256.033 843.283,-253.629 833.718,-249.074 832.965,-256.033"/>
</g>
<!-- Node12 -->
<g id="node12" class="node"><title>Node12</title>
<g id="a_node12"><a xlink:href="namespaceRa_1_1Core_1_1Algorithm.html#aea294cdb6f4f0d85955bdcccb22886ec" target="_top" xlink:title="Ra::Core::Algorithm::t">
<polygon fill="white" stroke="black" points="687.5,-273.5 687.5,-292.5 800.5,-292.5 800.5,-273.5 687.5,-273.5"/>
<text text-anchor="middle" x="744" y="-280.5" font-family="Helvetica,sans-Serif" font-size="10.00">Ra::Core::Algorithm::t</text>
</a>
</g>
</g>
<!-- Node3&#45;&gt;Node12 -->
<g id="edge16" class="edge"><title>Node3&#45;&gt;Node12</title>
<path fill="none" stroke="midnightblue" d="M446.617,-219.183C463.597,-232.125 489.94,-250.016 516,-259 568.247,-277.011 630.932,-282.521 677.18,-283.805"/>
<polygon fill="midnightblue" stroke="midnightblue" points="677.305,-287.309 687.379,-284.028 677.458,-280.31 677.305,-287.309"/>
</g>
<!-- Node13 -->
<g id="node13" class="node"><title>Node13</title>
<g id="a_node13"><a xlink:href="namespaceOpenMesh.html#a8205f789ce08919bc11c58383574596c" target="_top" xlink:title="OpenMesh::norm">
<polygon fill="white" stroke="black" points="858,-101.5 858,-120.5 950,-120.5 950,-101.5 858,-101.5"/>
<text text-anchor="middle" x="904" y="-108.5" font-family="Helvetica,sans-Serif" font-size="10.00">OpenMesh::norm</text>
</a>
</g>
</g>
<!-- Node3&#45;&gt;Node13 -->
<g id="edge13" class="edge"><title>Node3&#45;&gt;Node13</title>
<path fill="none" stroke="midnightblue" d="M441.865,-188.896C457.917,-172.556 486.018,-147.327 516,-136 627.964,-93.703 771.043,-98.0937 848.035,-104.727"/>
<polygon fill="midnightblue" stroke="midnightblue" points="847.721,-108.213 857.997,-105.63 848.353,-101.242 847.721,-108.213"/>
</g>
<!-- Node14 -->
<g id="node14" class="node"><title>Node14</title>
<g id="a_node14"><a xlink:href="namespaceRa_1_1Core_1_1DcelOperations.html#aaded34dd44fea8859e294864900a11ed" target="_top" xlink:title="Ra::Core::DcelOperations\l::splitEdge">
<polygon fill="white" stroke="black" points="516,-49 516,-79 646,-79 646,-49 516,-49"/>
<text text-anchor="start" x="524" y="-67" font-family="Helvetica,sans-Serif" font-size="10.00">Ra::Core::DcelOperations</text>
<text text-anchor="middle" x="581" y="-56" font-family="Helvetica,sans-Serif" font-size="10.00">::splitEdge</text>
</a>
</g>
</g>
<!-- Node3&#45;&gt;Node14 -->
<g id="edge14" class="edge"><title>Node3&#45;&gt;Node14</title>
<path fill="none" stroke="midnightblue" d="M437.043,-188.644C451.307,-165.521 481.034,-121.543 516,-94 520.693,-90.303 525.916,-86.9272 531.298,-83.884"/>
<polygon fill="midnightblue" stroke="midnightblue" points="533.216,-86.8299 540.439,-79.0787 529.959,-80.6339 533.216,-86.8299"/>
</g>
<!-- Node15 -->
<g id="node15" class="node"><title>Node15</title>
<g id="a_node15"><a xlink:href="namespaceRa_1_1Core_1_1MeshUtils.html#afbee0fe3203a295fb1f93b33dfb33f81" target="_top" xlink:title="Fills the given array with the vertices of a given triangle. ">
<polygon fill="white" stroke="black" points="690.5,-186 690.5,-216 797.5,-216 797.5,-186 690.5,-186"/>
<text text-anchor="start" x="698.5" y="-204" font-family="Helvetica,sans-Serif" font-size="10.00">Ra::Core::MeshUtils</text>
<text text-anchor="middle" x="744" y="-193" font-family="Helvetica,sans-Serif" font-size="10.00">::getTriangleVertices</text>
</a>
</g>
</g>
<!-- Node3&#45;&gt;Node15 -->
<g id="edge17" class="edge"><title>Node3&#45;&gt;Node15</title>
<path fill="none" stroke="midnightblue" d="M480.016,-203.505C534.91,-202.982 621.442,-202.158 680.125,-201.599"/>
<polygon fill="midnightblue" stroke="midnightblue" points="680.415,-205.096 690.381,-201.501 680.348,-198.097 680.415,-205.096"/>
</g>
<!-- Node16 -->
<g id="node16" class="node"><title>Node16</title>
<g id="a_node16"><a xlink:href="namespaceRa_1_1Core_1_1MeshUtils.html#a746199d436bb1dc31c4bccb3953743b9" target="_top" xlink:title="Returns the area of a given triangle. ">
<polygon fill="white" stroke="black" points="527.5,-145 527.5,-175 634.5,-175 634.5,-145 527.5,-145"/>
<text text-anchor="start" x="535.5" y="-163" font-family="Helvetica,sans-Serif" font-size="10.00">Ra::Core::MeshUtils</text>
<text text-anchor="middle" x="581" y="-152" font-family="Helvetica,sans-Serif" font-size="10.00">::getTriangleArea</text>
</a>
</g>
</g>
<!-- Node3&#45;&gt;Node16 -->
<g id="edge19" class="edge"><title>Node3&#45;&gt;Node16</title>
<path fill="none" stroke="midnightblue" d="M479.885,-188.981C492.289,-185.39 505.65,-181.522 518.444,-177.819"/>
<polygon fill="midnightblue" stroke="midnightblue" points="519.459,-181.169 528.091,-175.026 517.512,-174.445 519.459,-181.169"/>
</g>
<!-- Node19 -->
<g id="node19" class="node"><title>Node19</title>
<g id="a_node19"><a xlink:href="namespaceRa_1_1Core_1_1Animation.html#a71236244c5603a8a5bc63595db9b7717" target="_top" xlink:title="Computes the similarity between two weights vector. ">
<polygon fill="white" stroke="black" points="528,-0 528,-30 634,-30 634,-0 528,-0"/>
<text text-anchor="start" x="536" y="-18" font-family="Helvetica,sans-Serif" font-size="10.00">Ra::Core::Animation</text>
<text text-anchor="middle" x="581" y="-7" font-family="Helvetica,sans-Serif" font-size="10.00">::weightSimilarity</text>
</a>
</g>
</g>
<!-- Node3&#45;&gt;Node19 -->
<g id="edge24" class="edge"><title>Node3&#45;&gt;Node19</title>
<path fill="none" stroke="midnightblue" d="M432.061,-188.955C441.456,-156.906 467.665,-81.3766 516,-39 517.35,-37.8168 518.763,-36.6896 520.228,-35.616"/>
<polygon fill="midnightblue" stroke="midnightblue" points="522.499,-38.3226 529.099,-30.0351 518.771,-32.3976 522.499,-38.3226"/>
</g>
<!-- Node5 -->
<g id="node5" class="node"><title>Node5</title>
<g id="a_node5"><a xlink:href="classRa_1_1Core_1_1TriangleMesh.html#aa838b995226a922fc10f2f8f4c6dec31" target="_top" xlink:title="Erases all data, making the mesh empty. ">
<polygon fill="white" stroke="black" points="683.5,-388 683.5,-418 804.5,-418 804.5,-388 683.5,-388"/>
<text text-anchor="start" x="691.5" y="-406" font-family="Helvetica,sans-Serif" font-size="10.00">Ra::Core::TriangleMesh</text>
<text text-anchor="middle" x="744" y="-395" font-family="Helvetica,sans-Serif" font-size="10.00">::clear</text>
</a>
</g>
</g>
<!-- Node4&#45;&gt;Node5 -->
<g id="edge4" class="edge"><title>Node4&#45;&gt;Node5</title>
<path fill="none" stroke="midnightblue" d="M641.95,-403C652.075,-403 662.665,-403 673.019,-403"/>
<polygon fill="midnightblue" stroke="midnightblue" points="673.268,-406.5 683.268,-403 673.268,-399.5 673.268,-406.5"/>
</g>
<!-- Node7 -->
<g id="node7" class="node"><title>Node7</title>
<g id="a_node7"><a xlink:href="classRa_1_1Core_1_1AttribManager.html#ab973dc08cbca7da7108c40bb56c4a708" target="_top" xlink:title="Base copy, does nothing. ">
<polygon fill="white" stroke="black" points="682.5,-437 682.5,-467 805.5,-467 805.5,-437 682.5,-437"/>
<text text-anchor="start" x="690.5" y="-455" font-family="Helvetica,sans-Serif" font-size="10.00">Ra::Core::AttribManager</text>
<text text-anchor="middle" x="744" y="-444" font-family="Helvetica,sans-Serif" font-size="10.00">::copyAttributes</text>
</a>
</g>
</g>
<!-- Node4&#45;&gt;Node7 -->
<g id="edge6" class="edge"><title>Node4&#45;&gt;Node7</title>
<path fill="none" stroke="midnightblue" d="M631.619,-418.101C648.07,-423.108 666.549,-428.732 683.657,-433.939"/>
<polygon fill="midnightblue" stroke="midnightblue" points="682.959,-437.385 693.545,-436.948 684.997,-430.688 682.959,-437.385"/>
</g>
<!-- Node6 -->
<g id="node6" class="node"><title>Node6</title>
<g id="a_node6"><a xlink:href="classRa_1_1Core_1_1AttribManager.html#ae53b7e22a2098c6151c6b2702569a3be" target="_top" xlink:title="clear all attribs, invalidate handles. ">
<polygon fill="white" stroke="black" points="842.5,-388 842.5,-418 965.5,-418 965.5,-388 842.5,-388"/>
<text text-anchor="start" x="850.5" y="-406" font-family="Helvetica,sans-Serif" font-size="10.00">Ra::Core::AttribManager</text>
<text text-anchor="middle" x="904" y="-395" font-family="Helvetica,sans-Serif" font-size="10.00">::clear</text>
</a>
</g>
</g>
<!-- Node5&#45;&gt;Node6 -->
<g id="edge5" class="edge"><title>Node5&#45;&gt;Node6</title>
<path fill="none" stroke="midnightblue" d="M804.733,-403C813.686,-403 822.99,-403 832.146,-403"/>
<polygon fill="midnightblue" stroke="midnightblue" points="832.395,-406.5 842.395,-403 832.395,-399.5 832.395,-406.5"/>
</g>
<!-- Node8&#45;&gt;Node9 -->
<g id="edge8" class="edge"><title>Node8&#45;&gt;Node9</title>
<path fill="none" stroke="midnightblue" d="M628.622,-321.403C674.439,-320.787 746.011,-317.102 806,-302 826.421,-296.859 848.024,-287.888 865.647,-279.554"/>
<polygon fill="midnightblue" stroke="midnightblue" points="867.526,-282.532 874.995,-275.018 864.47,-276.235 867.526,-282.532"/>
</g>
<!-- Node11 -->
<g id="node11" class="node"><title>Node11</title>
<g id="a_node11"><a xlink:href="classRa_1_1Core_1_1TriangleMesh.html#a40d31b7b2943947d6eac5d906f0182fd" target="_top" xlink:title="Access the vertices normals. ">
<polygon fill="white" stroke="black" points="843.5,-309 843.5,-339 964.5,-339 964.5,-309 843.5,-309"/>
<text text-anchor="start" x="851.5" y="-327" font-family="Helvetica,sans-Serif" font-size="10.00">Ra::Core::TriangleMesh</text>
<text text-anchor="middle" x="904" y="-316" font-family="Helvetica,sans-Serif" font-size="10.00">::normals</text>
</a>
</g>
</g>
<!-- Node8&#45;&gt;Node11 -->
<g id="edge10" class="edge"><title>Node8&#45;&gt;Node11</title>
<path fill="none" stroke="midnightblue" d="M628.663,-328.903C645.428,-331.379 664.512,-333.782 682,-335 736.978,-338.83 750.977,-338.11 806,-335 814.79,-334.503 824.008,-333.755 833.116,-332.878"/>
<polygon fill="midnightblue" stroke="midnightblue" points="833.731,-336.334 843.326,-331.84 833.023,-329.369 833.731,-336.334"/>
</g>
<!-- Node8&#45;&gt;Node12 -->
<g id="edge12" class="edge"><title>Node8&#45;&gt;Node12</title>
<path fill="none" stroke="midnightblue" d="M622.627,-311.411C643.968,-306.374 670.312,-300.156 692.908,-294.823"/>
<polygon fill="midnightblue" stroke="midnightblue" points="693.736,-298.224 702.665,-292.52 692.128,-291.411 693.736,-298.224"/>
</g>
<!-- Node10 -->
<g id="node10" class="node"><title>Node10</title>
<g id="a_node10"><a xlink:href="classRa_1_1Core_1_1AttribManager.html#aaa6088620425c1e1d74b50f1b50eb596" target="_top" xlink:title="Get attribute by handle. ">
<polygon fill="white" stroke="black" points="1002.5,-284 1002.5,-314 1125.5,-314 1125.5,-284 1002.5,-284"/>
<text text-anchor="start" x="1010.5" y="-302" font-family="Helvetica,sans-Serif" font-size="10.00">Ra::Core::AttribManager</text>
<text text-anchor="middle" x="1064" y="-291" font-family="Helvetica,sans-Serif" font-size="10.00">::getAttrib</text>
</a>
</g>
</g>
<!-- Node9&#45;&gt;Node10 -->
<g id="edge9" class="edge"><title>Node9&#45;&gt;Node10</title>
<path fill="none" stroke="midnightblue" d="M964.733,-274.744C973.782,-276.978 983.19,-279.3 992.442,-281.584"/>
<polygon fill="midnightblue" stroke="midnightblue" points="991.848,-285.042 1002.39,-284.041 993.525,-278.246 991.848,-285.042"/>
</g>
<!-- Node11&#45;&gt;Node10 -->
<g id="edge11" class="edge"><title>Node11&#45;&gt;Node10</title>
<path fill="none" stroke="midnightblue" d="M964.733,-314.549C973.782,-313.117 983.19,-311.628 992.442,-310.164"/>
<polygon fill="midnightblue" stroke="midnightblue" points="993.065,-313.609 1002.39,-308.589 991.971,-306.695 993.065,-313.609"/>
</g>
<!-- Node15&#45;&gt;Node9 -->
<g id="edge18" class="edge"><title>Node15&#45;&gt;Node9</title>
<path fill="none" stroke="midnightblue" d="M785.279,-216.041C805.986,-223.773 831.409,-233.267 853.323,-241.45"/>
<polygon fill="midnightblue" stroke="midnightblue" points="852.202,-244.767 862.795,-244.987 854.651,-238.209 852.202,-244.767"/>
</g>
<!-- Node16&#45;&gt;Node15 -->
<g id="edge20" class="edge"><title>Node16&#45;&gt;Node15</title>
<path fill="none" stroke="midnightblue" d="M634.717,-173.425C649.387,-177.161 665.46,-181.254 680.627,-185.116"/>
<polygon fill="midnightblue" stroke="midnightblue" points="679.885,-188.539 690.439,-187.615 681.612,-181.755 679.885,-188.539"/>
</g>
<!-- Node17 -->
<g id="node17" class="node"><title>Node17</title>
<g id="a_node17"><a xlink:href="namespaceRa_1_1Core_1_1Geometry.html#a178f2b7309fe2ea5bc31a3abcb25368e" target="_top" xlink:title="Ra::Core::Geometry\l::triangleArea">
<polygon fill="white" stroke="black" points="691.5,-137 691.5,-167 796.5,-167 796.5,-137 691.5,-137"/>
<text text-anchor="start" x="699.5" y="-155" font-family="Helvetica,sans-Serif" font-size="10.00">Ra::Core::Geometry</text>
<text text-anchor="middle" x="744" y="-144" font-family="Helvetica,sans-Serif" font-size="10.00">::triangleArea</text>
</a>
</g>
</g>
<!-- Node16&#45;&gt;Node17 -->
<g id="edge21" class="edge"><title>Node16&#45;&gt;Node17</title>
<path fill="none" stroke="midnightblue" d="M634.717,-157.381C649.471,-156.647 665.643,-155.844 680.887,-155.086"/>
<polygon fill="midnightblue" stroke="midnightblue" points="681.449,-158.563 691.263,-154.571 681.101,-151.571 681.449,-158.563"/>
</g>
<!-- Node17&#45;&gt;Node13 -->
<g id="edge23" class="edge"><title>Node17&#45;&gt;Node13</title>
<path fill="none" stroke="midnightblue" d="M796.735,-138.575C815.96,-133.586 837.64,-127.961 856.38,-123.098"/>
<polygon fill="midnightblue" stroke="midnightblue" points="857.368,-126.457 866.168,-120.558 855.609,-119.682 857.368,-126.457"/>
</g>
<!-- Node18 -->
<g id="node18" class="node"><title>Node18</title>
<g id="a_node18"><a xlink:href="namespaceOpenMesh.html#a71e7f1dd3eac016d2b8245ac408a291c" target="_top" xlink:title="OpenMesh::cross">
<polygon fill="white" stroke="black" points="857,-142.5 857,-161.5 951,-161.5 951,-142.5 857,-142.5"/>
<text text-anchor="middle" x="904" y="-149.5" font-family="Helvetica,sans-Serif" font-size="10.00">OpenMesh::cross</text>
</a>
</g>
</g>
<!-- Node17&#45;&gt;Node18 -->
<g id="edge22" class="edge"><title>Node17&#45;&gt;Node18</title>
<path fill="none" stroke="midnightblue" d="M796.735,-152C812.608,-152 830.155,-152 846.338,-152"/>
<polygon fill="midnightblue" stroke="midnightblue" points="846.746,-155.5 856.746,-152 846.745,-148.5 846.746,-155.5"/>
</g>
</g>
</svg>
