<?xml version="1.0" encoding="UTF-8" standalone="no"?>
<!DOCTYPE svg PUBLIC "-//W3C//DTD SVG 1.1//EN"
 "http://www.w3.org/Graphics/SVG/1.1/DTD/svg11.dtd">
<!-- Generated by graphviz version 2.36.0 (20140111.2315)
 -->
<!-- Title: Ra::IO::AssimpHandleDataLoader::loadHandleData Pages: 1 -->
<svg width="634pt" height="635pt"
 viewBox="0.00 0.00 634.00 635.00" xmlns="http://www.w3.org/2000/svg" xmlns:xlink="http://www.w3.org/1999/xlink">
<g id="graph0" class="graph" transform="scale(1 1) rotate(0) translate(4 631)">
<title>Ra::IO::AssimpHandleDataLoader::loadHandleData</title>
<polygon fill="white" stroke="none" points="-4,4 -4,-631 630,-631 630,4 -4,4"/>
<!-- Node1 -->
<g id="node1" class="node"><title>Node1</title>
<polygon fill="#bfbfbf" stroke="black" points="0.5,-186 0.5,-216 137.5,-216 137.5,-186 0.5,-186"/>
<text text-anchor="start" x="8.5" y="-204" font-family="Helvetica,sans-Serif" font-size="10.00">Ra::IO::AssimpHandleData</text>
<text text-anchor="middle" x="69" y="-193" font-family="Helvetica,sans-Serif" font-size="10.00">Loader::loadHandleData</text>
</g>
<!-- Node2 -->
<g id="node2" class="node"><title>Node2</title>
<g id="a_node2"><a xlink:href="classRa_1_1IO_1_1AssimpHandleDataLoader.html#a19b7ea207946b06952e15bff627d4887" target="_top" xlink:title="NAME. ">
<polygon fill="white" stroke="black" points="191.5,-553 191.5,-583 328.5,-583 328.5,-553 191.5,-553"/>
<text text-anchor="start" x="199.5" y="-571" font-family="Helvetica,sans-Serif" font-size="10.00">Ra::IO::AssimpHandleData</text>
<text text-anchor="middle" x="260" y="-560" font-family="Helvetica,sans-Serif" font-size="10.00">Loader::fetchName</text>
</a>
</g>
</g>
<!-- Node1&#45;&gt;Node2 -->
<g id="edge1" class="edge"><title>Node1&#45;&gt;Node2</title>
<path fill="none" stroke="midnightblue" d="M70.3817,-216.094C72.4759,-267.376 86.0518,-437.044 174,-533 179.459,-538.956 186.083,-543.925 193.198,-548.065"/>
<polygon fill="midnightblue" stroke="midnightblue" points="191.936,-551.354 202.421,-552.876 195.174,-545.148 191.936,-551.354"/>
</g>
<!-- Node5 -->
<g id="node5" class="node"><title>Node5</title>
<g id="a_node5"><a xlink:href="classRa_1_1IO_1_1AssimpHandleDataLoader.html#aba6ae2e060a45d0f6883cdbfa22cbee6" target="_top" xlink:title="TYPE. ">
<polygon fill="white" stroke="black" points="191.5,-137 191.5,-167 328.5,-167 328.5,-137 191.5,-137"/>
<text text-anchor="start" x="199.5" y="-155" font-family="Helvetica,sans-Serif" font-size="10.00">Ra::IO::AssimpHandleData</text>
<text text-anchor="middle" x="260" y="-144" font-family="Helvetica,sans-Serif" font-size="10.00">Loader::fetchType</text>
</a>
</g>
</g>
<!-- Node1&#45;&gt;Node5 -->
<g id="edge4" class="edge"><title>Node1&#45;&gt;Node5</title>
<path fill="none" stroke="midnightblue" d="M127.991,-185.965C148.037,-180.768 170.674,-174.899 191.421,-169.52"/>
<polygon fill="midnightblue" stroke="midnightblue" points="192.317,-172.904 201.119,-167.006 190.561,-166.128 192.317,-172.904"/>
</g>
<!-- Node7 -->
<g id="node7" class="node"><title>Node7</title>
<g id="a_node7"><a xlink:href="classRa_1_1IO_1_1AssimpHandleDataLoader.html#a46e6b0b9e109dd74e6bd619592678545" target="_top" xlink:title="Ra::IO::AssimpHandleData\lLoader::loadHandleComponentData">
<polygon fill="white" stroke="black" points="174,-426 174,-456 346,-456 346,-426 174,-426"/>
<text text-anchor="start" x="182" y="-444" font-family="Helvetica,sans-Serif" font-size="10.00">Ra::IO::AssimpHandleData</text>
<text text-anchor="middle" x="260" y="-433" font-family="Helvetica,sans-Serif" font-size="10.00">Loader::loadHandleComponentData</text>
</a>
</g>
</g>
<!-- Node1&#45;&gt;Node7 -->
<g id="edge6" class="edge"><title>Node1&#45;&gt;Node7</title>
<path fill="none" stroke="midnightblue" d="M81.8228,-216.013C113.842,-256.673 202.407,-369.135 240.827,-417.923"/>
<polygon fill="midnightblue" stroke="midnightblue" points="238.245,-420.302 247.182,-425.993 243.744,-415.971 238.245,-420.302"/>
</g>
<!-- Node12 -->
<g id="node12" class="node"><title>Node12</title>
<g id="a_node12"><a xlink:href="classRa_1_1IO_1_1AssimpHandleDataLoader.html#af3185635871638d8bc19e85d0c978f80" target="_top" xlink:title="Ra::IO::AssimpHandleData\lLoader::loadHandleTopologyData">
<polygon fill="white" stroke="black" points="179.5,-235 179.5,-265 340.5,-265 340.5,-235 179.5,-235"/>
<text text-anchor="start" x="187.5" y="-253" font-family="Helvetica,sans-Serif" font-size="10.00">Ra::IO::AssimpHandleData</text>
<text text-anchor="middle" x="260" y="-242" font-family="Helvetica,sans-Serif" font-size="10.00">Loader::loadHandleTopologyData</text>
</a>
</g>
</g>
<!-- Node1&#45;&gt;Node12 -->
<g id="edge13" class="edge"><title>Node1&#45;&gt;Node12</title>
<path fill="none" stroke="midnightblue" d="M127.991,-216.035C148.037,-221.232 170.674,-227.101 191.421,-232.48"/>
<polygon fill="midnightblue" stroke="midnightblue" points="190.561,-235.872 201.119,-234.994 192.317,-229.096 190.561,-235.872"/>
</g>
<!-- Node17 -->
<g id="node17" class="node"><title>Node17</title>
<g id="a_node17"><a xlink:href="classRa_1_1IO_1_1AssimpHandleDataLoader.html#a6deb78de76d1650cbb521a7c9c85a86e" target="_top" xlink:title="VERTEX SIZE. ">
<polygon fill="white" stroke="black" points="191.5,-186 191.5,-216 328.5,-216 328.5,-186 191.5,-186"/>
<text text-anchor="start" x="199.5" y="-204" font-family="Helvetica,sans-Serif" font-size="10.00">Ra::IO::AssimpHandleData</text>
<text text-anchor="middle" x="260" y="-193" font-family="Helvetica,sans-Serif" font-size="10.00">Loader::fetchVertexSize</text>
</a>
</g>
</g>
<!-- Node1&#45;&gt;Node17 -->
<g id="edge21" class="edge"><title>Node1&#45;&gt;Node17</title>
<path fill="none" stroke="midnightblue" d="M137.7,-201C151.763,-201 166.69,-201 181.086,-201"/>
<polygon fill="midnightblue" stroke="midnightblue" points="181.456,-204.5 191.456,-201 181.456,-197.5 181.456,-204.5"/>
</g>
<!-- Node19 -->
<g id="node19" class="node"><title>Node19</title>
<g id="a_node19"><a xlink:href="classRa_1_1Asset_1_1HandleData.html#adeb89ae26f34f0878a089ed7ecd64e24" target="_top" xlink:title="Ra::Asset::HandleData\l::getComponentData">
<polygon fill="white" stroke="black" points="200.5,-88 200.5,-118 319.5,-118 319.5,-88 200.5,-88"/>
<text text-anchor="start" x="208.5" y="-106" font-family="Helvetica,sans-Serif" font-size="10.00">Ra::Asset::HandleData</text>
<text text-anchor="middle" x="260" y="-95" font-family="Helvetica,sans-Serif" font-size="10.00">::getComponentData</text>
</a>
</g>
</g>
<!-- Node1&#45;&gt;Node19 -->
<g id="edge26" class="edge"><title>Node1&#45;&gt;Node19</title>
<path fill="none" stroke="midnightblue" d="M87.2235,-185.886C106.946,-169.291 140.826,-142.894 174,-127 179.315,-124.453 184.951,-122.13 190.69,-120.021"/>
<polygon fill="midnightblue" stroke="midnightblue" points="192.096,-123.239 200.41,-116.672 189.815,-116.621 192.096,-123.239"/>
</g>
<!-- Node20 -->
<g id="node20" class="node"><title>Node20</title>
<g id="a_node20"><a xlink:href="namespaceRa_1_1Core_1_1Algorithm.html#aea294cdb6f4f0d85955bdcccb22886ec" target="_top" xlink:title="Ra::Core::Algorithm::t">
<polygon fill="white" stroke="black" points="203.5,-49.5 203.5,-68.5 316.5,-68.5 316.5,-49.5 203.5,-49.5"/>
<text text-anchor="middle" x="260" y="-56.5" font-family="Helvetica,sans-Serif" font-size="10.00">Ra::Core::Algorithm::t</text>
</a>
</g>
</g>
<!-- Node1&#45;&gt;Node20 -->
<g id="edge27" class="edge"><title>Node1&#45;&gt;Node20</title>
<path fill="none" stroke="midnightblue" d="M78.3516,-185.76C93.6483,-159.37 128.788,-105.373 174,-78 180.136,-74.285 186.917,-71.2943 193.892,-68.8872"/>
<polygon fill="midnightblue" stroke="midnightblue" points="194.945,-72.2255 203.483,-65.9532 192.897,-65.5317 194.945,-72.2255"/>
</g>
<!-- Node21 -->
<g id="node21" class="node"><title>Node21</title>
<g id="a_node21"><a xlink:href="classRa_1_1Asset_1_1HandleData.html#a8d76fcc29440acb7fe3489f4c0fd9914" target="_top" xlink:title="DEBUG. ">
<polygon fill="white" stroke="black" points="200.5,-0 200.5,-30 319.5,-30 319.5,-0 200.5,-0"/>
<text text-anchor="start" x="208.5" y="-18" font-family="Helvetica,sans-Serif" font-size="10.00">Ra::Asset::HandleData</text>
<text text-anchor="middle" x="260" y="-7" font-family="Helvetica,sans-Serif" font-size="10.00">::displayInfo</text>
</a>
</g>
</g>
<!-- Node1&#45;&gt;Node21 -->
<g id="edge28" class="edge"><title>Node1&#45;&gt;Node21</title>
<path fill="none" stroke="midnightblue" d="M75.6577,-185.539C88.2072,-153.426 121.485,-79.2353 174,-40 179.095,-36.1937 184.761,-32.9648 190.681,-30.226"/>
<polygon fill="midnightblue" stroke="midnightblue" points="192.242,-33.3678 200.147,-26.3132 189.568,-26.8986 192.242,-33.3678"/>
</g>
<!-- Node22 -->
<g id="node22" class="node"><title>Node22</title>
<g id="a_node22"><a xlink:href="classRa_1_1IO_1_1AssimpHandleDataLoader.html#acc34e56d68b6b1094a993eaa8730cdb2" target="_top" xlink:title="Ra::IO::AssimpHandleData\lLoader::loadHandleFrame">
<polygon fill="white" stroke="black" points="191.5,-494 191.5,-524 328.5,-524 328.5,-494 191.5,-494"/>
<text text-anchor="start" x="199.5" y="-512" font-family="Helvetica,sans-Serif" font-size="10.00">Ra::IO::AssimpHandleData</text>
<text text-anchor="middle" x="260" y="-501" font-family="Helvetica,sans-Serif" font-size="10.00">Loader::loadHandleFrame</text>
</a>
</g>
</g>
<!-- Node1&#45;&gt;Node22 -->
<g id="edge29" class="edge"><title>Node1&#45;&gt;Node22</title>
<path fill="none" stroke="midnightblue" d="M72.1534,-216.07C79.1087,-259.752 104.69,-388.203 174,-465 182.96,-474.928 194.688,-482.963 206.558,-489.313"/>
<polygon fill="midnightblue" stroke="midnightblue" points="205.109,-492.502 215.619,-493.845 208.24,-486.241 205.109,-492.502"/>
</g>
<!-- Node3 -->
<g id="node3" class="node"><title>Node3</title>
<g id="a_node3"><a xlink:href="namespaceRa_1_1IO.html#aef6c50424873964fcea0008be55d4a34" target="_top" xlink:title="Ra::IO::assimpToCore">
<polygon fill="white" stroke="black" points="388,-558.5 388,-577.5 504,-577.5 504,-558.5 388,-558.5"/>
<text text-anchor="middle" x="446" y="-565.5" font-family="Helvetica,sans-Serif" font-size="10.00">Ra::IO::assimpToCore</text>
</a>
</g>
</g>
<!-- Node2&#45;&gt;Node3 -->
<g id="edge2" class="edge"><title>Node2&#45;&gt;Node3</title>
<path fill="none" stroke="midnightblue" d="M328.731,-568C344.702,-568 361.723,-568 377.676,-568"/>
<polygon fill="midnightblue" stroke="midnightblue" points="377.983,-571.5 387.983,-568 377.983,-564.5 377.983,-571.5"/>
</g>
<!-- Node4 -->
<g id="node4" class="node"><title>Node4</title>
<g id="a_node4"><a xlink:href="classRa_1_1Asset_1_1HandleData.html#a3bfb8067f397b53e3d45d490e8ebfc20" target="_top" xlink:title="NAME. ">
<polygon fill="white" stroke="black" points="386.5,-597 386.5,-627 505.5,-627 505.5,-597 386.5,-597"/>
<text text-anchor="start" x="394.5" y="-615" font-family="Helvetica,sans-Serif" font-size="10.00">Ra::Asset::HandleData</text>
<text text-anchor="middle" x="446" y="-604" font-family="Helvetica,sans-Serif" font-size="10.00">::setName</text>
</a>
</g>
</g>
<!-- Node2&#45;&gt;Node4 -->
<g id="edge3" class="edge"><title>Node2&#45;&gt;Node4</title>
<path fill="none" stroke="midnightblue" d="M323.808,-583.019C340.691,-587.057 359.038,-591.444 376.227,-595.554"/>
<polygon fill="midnightblue" stroke="midnightblue" points="375.654,-599.016 386.194,-597.938 377.282,-592.208 375.654,-599.016"/>
</g>
<!-- Node6 -->
<g id="node6" class="node"><title>Node6</title>
<g id="a_node6"><a xlink:href="classRa_1_1Asset_1_1HandleData.html#a41fe733034adf1db3901419f859bbffd" target="_top" xlink:title="Ra::Asset::HandleData\l::setType">
<polygon fill="white" stroke="black" points="386.5,-39 386.5,-69 505.5,-69 505.5,-39 386.5,-39"/>
<text text-anchor="start" x="394.5" y="-57" font-family="Helvetica,sans-Serif" font-size="10.00">Ra::Asset::HandleData</text>
<text text-anchor="middle" x="446" y="-46" font-family="Helvetica,sans-Serif" font-size="10.00">::setType</text>
</a>
</g>
</g>
<!-- Node5&#45;&gt;Node6 -->
<g id="edge5" class="edge"><title>Node5&#45;&gt;Node6</title>
<path fill="none" stroke="midnightblue" d="M327.93,-136.957C334.311,-134.175 340.459,-130.886 346,-127 368.125,-111.484 360.496,-94.3666 382,-78 383.816,-76.6177 385.721,-75.3068 387.691,-74.0643"/>
<polygon fill="midnightblue" stroke="midnightblue" points="389.646,-76.9809 396.668,-69.0466 386.231,-70.8707 389.646,-76.9809"/>
</g>
<!-- Node7&#45;&gt;Node3 -->
<g id="edge9" class="edge"><title>Node7&#45;&gt;Node3</title>
<path fill="none" stroke="midnightblue" d="M301.258,-456.057C316.532,-463.167 333.289,-472.806 346,-485 369.272,-507.326 356.914,-527.734 382,-548 384.762,-550.231 387.776,-552.215 390.941,-553.979"/>
<polygon fill="midnightblue" stroke="midnightblue" points="389.646,-557.239 400.178,-558.39 392.663,-550.922 389.646,-557.239"/>
</g>
<!-- Node8 -->
<g id="node8" class="node"><title>Node8</title>
<g id="a_node8"><a xlink:href="namespaceRa_1_1Core.html#abc0a3625137098b67838fe52edd480f9" target="_top" xlink:title="SIZE. ">
<polygon fill="white" stroke="black" points="546,-333.5 546,-352.5 626,-352.5 626,-333.5 546,-333.5"/>
<text text-anchor="middle" x="586" y="-340.5" font-family="Helvetica,sans-Serif" font-size="10.00">Ra::Core::size</text>
</a>
</g>
</g>
<!-- Node7&#45;&gt;Node8 -->
<g id="edge7" class="edge"><title>Node7&#45;&gt;Node8</title>
<path fill="none" stroke="midnightblue" d="M346.025,-443.405C395.831,-441.787 458.803,-434.368 510,-411 534.823,-399.67 557.122,-377.073 570.828,-361.042"/>
<polygon fill="midnightblue" stroke="midnightblue" points="573.86,-362.867 577.521,-352.924 568.459,-358.414 573.86,-362.867"/>
</g>
<!-- Node9 -->
<g id="node9" class="node"><title>Node9</title>
<g id="a_node9"><a xlink:href="classRa_1_1Asset_1_1HandleData.html#ace178af654bd9751e7cc0122cf7e7a34" target="_top" xlink:title="Ra::Asset::HandleData\l::needEndNodes">
<polygon fill="white" stroke="black" points="386.5,-460 386.5,-490 505.5,-490 505.5,-460 386.5,-460"/>
<text text-anchor="start" x="394.5" y="-478" font-family="Helvetica,sans-Serif" font-size="10.00">Ra::Asset::HandleData</text>
<text text-anchor="middle" x="446" y="-467" font-family="Helvetica,sans-Serif" font-size="10.00">::needEndNodes</text>
</a>
</g>
</g>
<!-- Node7&#45;&gt;Node9 -->
<g id="edge8" class="edge"><title>Node7&#45;&gt;Node9</title>
<path fill="none" stroke="midnightblue" d="M342.241,-456.012C353.592,-458.109 365.164,-460.248 376.254,-462.297"/>
<polygon fill="midnightblue" stroke="midnightblue" points="375.814,-465.775 386.283,-464.15 377.086,-458.891 375.814,-465.775"/>
</g>
<!-- Node10 -->
<g id="node10" class="node"><title>Node10</title>
<g id="a_node10"><a xlink:href="classRa_1_1Asset_1_1HandleData.html#a5ba6a5c751773be688faae15b092359d" target="_top" xlink:title="Ra::Asset::HandleData\l::setComponents">
<polygon fill="white" stroke="black" points="386.5,-372 386.5,-402 505.5,-402 505.5,-372 386.5,-372"/>
<text text-anchor="start" x="394.5" y="-390" font-family="Helvetica,sans-Serif" font-size="10.00">Ra::Asset::HandleData</text>
<text text-anchor="middle" x="446" y="-379" font-family="Helvetica,sans-Serif" font-size="10.00">::setComponents</text>
</a>
</g>
</g>
<!-- Node7&#45;&gt;Node10 -->
<g id="edge10" class="edge"><title>Node7&#45;&gt;Node10</title>
<path fill="none" stroke="midnightblue" d="M312.254,-425.958C334.492,-419.432 360.709,-411.737 383.946,-404.918"/>
<polygon fill="midnightblue" stroke="midnightblue" points="385.092,-408.229 393.702,-402.055 383.121,-401.513 385.092,-408.229"/>
</g>
<!-- Node11 -->
<g id="node11" class="node"><title>Node11</title>
<g id="a_node11"><a xlink:href="classRa_1_1Asset_1_1HandleData.html#a713b25fdea78737ec5e664a6aabc9549" target="_top" xlink:title="NAME TABLE. ">
<polygon fill="white" stroke="black" points="386.5,-509 386.5,-539 505.5,-539 505.5,-509 386.5,-509"/>
<text text-anchor="start" x="394.5" y="-527" font-family="Helvetica,sans-Serif" font-size="10.00">Ra::Asset::HandleData</text>
<text text-anchor="middle" x="446" y="-516" font-family="Helvetica,sans-Serif" font-size="10.00">::setNameTable</text>
</a>
</g>
</g>
<!-- Node7&#45;&gt;Node11 -->
<g id="edge12" class="edge"><title>Node7&#45;&gt;Node11</title>
<path fill="none" stroke="midnightblue" d="M291.065,-456.126C315.386,-468.188 350.626,-485.275 382,-499 386.664,-501.04 391.552,-503.105 396.453,-505.128"/>
<polygon fill="midnightblue" stroke="midnightblue" points="395.26,-508.421 405.842,-508.948 397.898,-501.937 395.26,-508.421"/>
</g>
<!-- Node10&#45;&gt;Node8 -->
<g id="edge11" class="edge"><title>Node10&#45;&gt;Node8</title>
<path fill="none" stroke="midnightblue" d="M494.106,-371.981C510.788,-366.662 529.376,-360.735 545.373,-355.635"/>
<polygon fill="midnightblue" stroke="midnightblue" points="546.495,-358.951 554.959,-352.578 544.368,-352.281 546.495,-358.951"/>
</g>
<!-- Node12&#45;&gt;Node3 -->
<g id="edge17" class="edge"><title>Node12&#45;&gt;Node3</title>
<path fill="none" stroke="midnightblue" d="M270.052,-265.172C286.908,-293.939 323.442,-358.753 346,-417 367.806,-473.306 340.15,-504.476 382,-548 383.844,-549.918 385.871,-551.653 388.033,-553.221"/>
<polygon fill="midnightblue" stroke="midnightblue" points="386.546,-556.408 396.935,-558.487 390.11,-550.383 386.546,-556.408"/>
</g>
<!-- Node12&#45;&gt;Node8 -->
<g id="edge14" class="edge"><title>Node12&#45;&gt;Node8</title>
<path fill="none" stroke="midnightblue" d="M279.792,-265.036C302.521,-282.307 342.649,-309.937 382,-323 432.504,-339.766 493.661,-343.74 535.563,-344.163"/>
<polygon fill="midnightblue" stroke="midnightblue" points="535.771,-347.664 545.784,-344.2 535.796,-340.664 535.771,-347.664"/>
</g>
<!-- Node13 -->
<g id="node13" class="node"><title>Node13</title>
<g id="a_node13"><a xlink:href="classRa_1_1Asset_1_1HandleData.html#aac2741c32466647b58b76e8310d90ecb" target="_top" xlink:title="DATA. ">
<polygon fill="white" stroke="black" points="382.5,-137 382.5,-167 509.5,-167 509.5,-137 382.5,-137"/>
<text text-anchor="start" x="390.5" y="-155" font-family="Helvetica,sans-Serif" font-size="10.00">Ra::Asset::HandleData</text>
<text text-anchor="middle" x="446" y="-144" font-family="Helvetica,sans-Serif" font-size="10.00">::getComponentDataSize</text>
</a>
</g>
</g>
<!-- Node12&#45;&gt;Node13 -->
<g id="edge15" class="edge"><title>Node12&#45;&gt;Node13</title>
<path fill="none" stroke="midnightblue" d="M327.93,-234.957C334.311,-232.175 340.459,-228.886 346,-225 368.125,-209.484 360.496,-192.367 382,-176 383.816,-174.618 385.721,-173.307 387.691,-172.064"/>
<polygon fill="midnightblue" stroke="midnightblue" points="389.646,-174.981 396.668,-167.047 386.231,-168.871 389.646,-174.981"/>
</g>
<!-- Node14 -->
<g id="node14" class="node"><title>Node14</title>
<g id="a_node14"><a xlink:href="classRa_1_1Asset_1_1HandleData.html#af6b0000a98985534b50a9817de5bfd58" target="_top" xlink:title="Ra::Asset::HandleData\l::getComponent">
<polygon fill="white" stroke="black" points="386.5,-186 386.5,-216 505.5,-216 505.5,-186 386.5,-186"/>
<text text-anchor="start" x="394.5" y="-204" font-family="Helvetica,sans-Serif" font-size="10.00">Ra::Asset::HandleData</text>
<text text-anchor="middle" x="446" y="-193" font-family="Helvetica,sans-Serif" font-size="10.00">::getComponent</text>
</a>
</g>
</g>
<!-- Node12&#45;&gt;Node14 -->
<g id="edge16" class="edge"><title>Node12&#45;&gt;Node14</title>
<path fill="none" stroke="midnightblue" d="M317.457,-234.965C336.884,-229.792 358.811,-223.952 378.935,-218.593"/>
<polygon fill="midnightblue" stroke="midnightblue" points="379.888,-221.962 388.65,-216.006 378.086,-215.197 379.888,-221.962"/>
</g>
<!-- Node15 -->
<g id="node15" class="node"><title>Node15</title>
<g id="a_node15"><a xlink:href="classRa_1_1Asset_1_1HandleData.html#aaee6cb0cd26f0745e444ac7bd0412454" target="_top" xlink:title="Ra::Asset::HandleData\l::getIndexOf">
<polygon fill="white" stroke="black" points="386.5,-235 386.5,-265 505.5,-265 505.5,-235 386.5,-235"/>
<text text-anchor="start" x="394.5" y="-253" font-family="Helvetica,sans-Serif" font-size="10.00">Ra::Asset::HandleData</text>
<text text-anchor="middle" x="446" y="-242" font-family="Helvetica,sans-Serif" font-size="10.00">::getIndexOf</text>
</a>
</g>
</g>
<!-- Node12&#45;&gt;Node15 -->
<g id="edge18" class="edge"><title>Node12&#45;&gt;Node15</title>
<path fill="none" stroke="midnightblue" d="M340.635,-250C352.504,-250 364.653,-250 376.271,-250"/>
<polygon fill="midnightblue" stroke="midnightblue" points="376.325,-253.5 386.325,-250 376.325,-246.5 376.325,-253.5"/>
</g>
<!-- Node16 -->
<g id="node16" class="node"><title>Node16</title>
<g id="a_node16"><a xlink:href="classRa_1_1Asset_1_1HandleData.html#ad54e901fb20565f1006b721ad17c375a" target="_top" xlink:title="Ra::Asset::HandleData\l::setEdges">
<polygon fill="white" stroke="black" points="386.5,-284 386.5,-314 505.5,-314 505.5,-284 386.5,-284"/>
<text text-anchor="start" x="394.5" y="-302" font-family="Helvetica,sans-Serif" font-size="10.00">Ra::Asset::HandleData</text>
<text text-anchor="middle" x="446" y="-291" font-family="Helvetica,sans-Serif" font-size="10.00">::setEdges</text>
</a>
</g>
</g>
<!-- Node12&#45;&gt;Node16 -->
<g id="edge19" class="edge"><title>Node12&#45;&gt;Node16</title>
<path fill="none" stroke="midnightblue" d="M317.457,-265.035C336.884,-270.208 358.811,-276.048 378.935,-281.407"/>
<polygon fill="midnightblue" stroke="midnightblue" points="378.086,-284.803 388.65,-283.994 379.888,-278.038 378.086,-284.803"/>
</g>
<!-- Node16&#45;&gt;Node8 -->
<g id="edge20" class="edge"><title>Node16&#45;&gt;Node8</title>
<path fill="none" stroke="midnightblue" d="M494.106,-314.019C510.788,-319.338 529.376,-325.265 545.373,-330.365"/>
<polygon fill="midnightblue" stroke="midnightblue" points="544.368,-333.719 554.959,-333.422 546.495,-327.049 544.368,-333.719"/>
</g>
<!-- Node17&#45;&gt;Node13 -->
<g id="edge22" class="edge"><title>Node17&#45;&gt;Node13</title>
<path fill="none" stroke="midnightblue" d="M317.457,-185.965C336.884,-180.792 358.811,-174.952 378.935,-169.593"/>
<polygon fill="midnightblue" stroke="midnightblue" points="379.888,-172.962 388.65,-167.006 378.086,-166.197 379.888,-172.962"/>
</g>
<!-- Node17&#45;&gt;Node14 -->
<g id="edge23" class="edge"><title>Node17&#45;&gt;Node14</title>
<path fill="none" stroke="midnightblue" d="M328.731,-201C344.281,-201 360.828,-201 376.415,-201"/>
<polygon fill="midnightblue" stroke="midnightblue" points="376.498,-204.5 386.498,-201 376.498,-197.5 376.498,-204.5"/>
</g>
<!-- Node18 -->
<g id="node18" class="node"><title>Node18</title>
<g id="a_node18"><a xlink:href="classRa_1_1Asset_1_1HandleData.html#ade0d6afbabf40955b6d6b5c5214336e9" target="_top" xlink:title="Ra::Asset::HandleData\l::setVertexSize">
<polygon fill="white" stroke="black" points="386.5,-88 386.5,-118 505.5,-118 505.5,-88 386.5,-88"/>
<text text-anchor="start" x="394.5" y="-106" font-family="Helvetica,sans-Serif" font-size="10.00">Ra::Asset::HandleData</text>
<text text-anchor="middle" x="446" y="-95" font-family="Helvetica,sans-Serif" font-size="10.00">::setVertexSize</text>
</a>
</g>
</g>
<!-- Node17&#45;&gt;Node18 -->
<g id="edge24" class="edge"><title>Node17&#45;&gt;Node18</title>
<path fill="none" stroke="midnightblue" d="M327.93,-185.957C334.311,-183.175 340.459,-179.886 346,-176 368.125,-160.484 360.496,-143.367 382,-127 383.816,-125.618 385.721,-124.307 387.691,-123.064"/>
<polygon fill="midnightblue" stroke="midnightblue" points="389.646,-125.981 396.668,-118.047 386.231,-119.871 389.646,-125.981"/>
</g>
<!-- Node18&#45;&gt;Node8 -->
<g id="edge25" class="edge"><title>Node18&#45;&gt;Node8</title>
<path fill="none" stroke="midnightblue" d="M498.597,-118.064C502.77,-120.601 506.658,-123.557 510,-127 564.705,-183.359 579.65,-281.628 583.617,-323.358"/>
<polygon fill="midnightblue" stroke="midnightblue" points="580.13,-323.661 584.453,-333.334 587.105,-323.076 580.13,-323.661"/>
</g>
<!-- Node22&#45;&gt;Node3 -->
<g id="edge30" class="edge"><title>Node22&#45;&gt;Node3</title>
<path fill="none" stroke="midnightblue" d="M307.526,-524.049C330.017,-531.31 357.404,-540.132 382,-548 389.531,-550.409 397.573,-552.97 405.304,-555.427"/>
<polygon fill="midnightblue" stroke="midnightblue" points="404.279,-558.774 414.869,-558.464 406.397,-552.102 404.279,-558.774"/>
</g>
</g>
</svg>
