<?xml version="1.0" encoding="UTF-8" standalone="no"?>
<!DOCTYPE svg PUBLIC "-//W3C//DTD SVG 1.1//EN"
 "http://www.w3.org/Graphics/SVG/1.1/DTD/svg11.dtd">
<!-- Generated by graphviz version 2.36.0 (20140111.2315)
 -->
<!-- Title: Ra::Engine::RenderObject::render Pages: 1 -->
<svg width="824pt" height="299pt"
 viewBox="0.00 0.00 824.00 299.00" xmlns="http://www.w3.org/2000/svg" xmlns:xlink="http://www.w3.org/1999/xlink">
<g id="graph0" class="graph" transform="scale(1 1) rotate(0) translate(4 295)">
<title>Ra::Engine::RenderObject::render</title>
<polygon fill="white" stroke="none" points="-4,4 -4,-295 820,-295 820,4 -4,4"/>
<!-- Node1 -->
<g id="node1" class="node"><title>Node1</title>
<polygon fill="#bfbfbf" stroke="black" points="0.5,-98 0.5,-128 131.5,-128 131.5,-98 0.5,-98"/>
<text text-anchor="start" x="8.5" y="-116" font-family="Helvetica,sans-Serif" font-size="10.00">Ra::Engine::RenderObject</text>
<text text-anchor="middle" x="66" y="-105" font-family="Helvetica,sans-Serif" font-size="10.00">::render</text>
</g>
<!-- Node2 -->
<g id="node2" class="node"><title>Node2</title>
<g id="a_node2"><a xlink:href="classRa_1_1Engine_1_1RenderObject.html#aea46f9cc24f70cbfaa270a8edbcbbe25" target="_top" xlink:title="Ra::Engine::RenderObject\l::render">
<polygon fill="white" stroke="black" points="168.5,-123 168.5,-153 299.5,-153 299.5,-123 168.5,-123"/>
<text text-anchor="start" x="176.5" y="-141" font-family="Helvetica,sans-Serif" font-size="10.00">Ra::Engine::RenderObject</text>
<text text-anchor="middle" x="234" y="-130" font-family="Helvetica,sans-Serif" font-size="10.00">::render</text>
</a>
</g>
</g>
<!-- Node1&#45;&gt;Node2 -->
<g id="edge1" class="edge"><title>Node1&#45;&gt;Node2</title>
<path fill="none" stroke="midnightblue" d="M131.655,-122.737C140.386,-124.052 149.402,-125.41 158.29,-126.748"/>
<polygon fill="midnightblue" stroke="midnightblue" points="157.838,-130.22 168.248,-128.248 158.881,-123.298 157.838,-130.22"/>
</g>
<!-- Node12 -->
<g id="node12" class="node"><title>Node12</title>
<g id="a_node12"><a xlink:href="classRa_1_1Engine_1_1RenderObject.html#acc91aff99b91e06143b28940ec49d0e0" target="_top" xlink:title="Ra::Engine::RenderObject\l::getRenderTechnique">
<polygon fill="white" stroke="black" points="168.5,-74 168.5,-104 299.5,-104 299.5,-74 168.5,-74"/>
<text text-anchor="start" x="176.5" y="-92" font-family="Helvetica,sans-Serif" font-size="10.00">Ra::Engine::RenderObject</text>
<text text-anchor="middle" x="234" y="-81" font-family="Helvetica,sans-Serif" font-size="10.00">::getRenderTechnique</text>
</a>
</g>
</g>
<!-- Node1&#45;&gt;Node12 -->
<g id="edge11" class="edge"><title>Node1&#45;&gt;Node12</title>
<path fill="none" stroke="midnightblue" d="M131.655,-103.652C140.386,-102.39 149.402,-101.086 158.29,-99.8015"/>
<polygon fill="midnightblue" stroke="midnightblue" points="158.852,-103.257 168.248,-98.3617 157.85,-96.3287 158.852,-103.257"/>
</g>
<!-- Node3 -->
<g id="node3" class="node"><title>Node3</title>
<g id="a_node3"><a xlink:href="classRa_1_1Engine_1_1RenderObject.html#a0c9fad6464792d18ca873404fd657567" target="_top" xlink:title="Ra::Engine::RenderObject\l::getTransformAsMatrix">
<polygon fill="white" stroke="black" points="347.5,-236 347.5,-266 478.5,-266 478.5,-236 347.5,-236"/>
<text text-anchor="start" x="355.5" y="-254" font-family="Helvetica,sans-Serif" font-size="10.00">Ra::Engine::RenderObject</text>
<text text-anchor="middle" x="413" y="-243" font-family="Helvetica,sans-Serif" font-size="10.00">::getTransformAsMatrix</text>
</a>
</g>
</g>
<!-- Node2&#45;&gt;Node3 -->
<g id="edge2" class="edge"><title>Node2&#45;&gt;Node3</title>
<path fill="none" stroke="midnightblue" d="M248.623,-153.143C266.808,-172.527 300.827,-205.989 336,-226 339.839,-228.184 343.896,-230.211 348.059,-232.087"/>
<polygon fill="midnightblue" stroke="midnightblue" points="346.721,-235.321 357.297,-235.953 349.423,-228.863 346.721,-235.321"/>
</g>
<!-- Node7 -->
<g id="node7" class="node"><title>Node7</title>
<g id="a_node7"><a xlink:href="namespaceRa_1_1Core.html#a28c10004edc39878acecb94c2ca5b837" target="_top" xlink:title="NORMAL. ">
<polygon fill="white" stroke="black" points="378,-197.5 378,-216.5 448,-216.5 448,-197.5 378,-197.5"/>
<text text-anchor="middle" x="413" y="-204.5" font-family="Helvetica,sans-Serif" font-size="10.00">Ra::Core::N</text>
</a>
</g>
</g>
<!-- Node2&#45;&gt;Node7 -->
<g id="edge6" class="edge"><title>Node2&#45;&gt;Node7</title>
<path fill="none" stroke="midnightblue" d="M262.231,-153.005C282.207,-163.565 310.229,-177.461 336,-187 346.181,-190.769 357.376,-194.127 367.97,-196.965"/>
<polygon fill="midnightblue" stroke="midnightblue" points="367.334,-200.416 377.891,-199.524 369.082,-193.637 367.334,-200.416"/>
</g>
<!-- Node8 -->
<g id="node8" class="node"><title>Node8</title>
<g id="a_node8"><a xlink:href="classRa_1_1Engine_1_1ShaderProgram.html#a63faeab38c95dbcb4514a94c1e785890" target="_top" xlink:title="Ra::Engine::ShaderProgram\l::bind">
<polygon fill="white" stroke="black" points="343.5,-148 343.5,-178 482.5,-178 482.5,-148 343.5,-148"/>
<text text-anchor="start" x="351.5" y="-166" font-family="Helvetica,sans-Serif" font-size="10.00">Ra::Engine::ShaderProgram</text>
<text text-anchor="middle" x="413" y="-155" font-family="Helvetica,sans-Serif" font-size="10.00">::bind</text>
</a>
</g>
</g>
<!-- Node2&#45;&gt;Node8 -->
<g id="edge7" class="edge"><title>Node2&#45;&gt;Node8</title>
<path fill="none" stroke="midnightblue" d="M299.652,-147.132C310.54,-148.67 321.948,-150.281 333.148,-151.863"/>
<polygon fill="midnightblue" stroke="midnightblue" points="332.962,-155.371 343.353,-153.304 333.941,-148.44 332.962,-155.371"/>
</g>
<!-- Node9 -->
<g id="node9" class="node"><title>Node9</title>
<g id="a_node9"><a xlink:href="classRa_1_1Engine_1_1ShaderProgram.html#a5f7ae2880276f421c378810e3da65c4c" target="_top" xlink:title="Ra::Engine::ShaderProgram\l::setUniform">
<polygon fill="white" stroke="black" points="343.5,-99 343.5,-129 482.5,-129 482.5,-99 343.5,-99"/>
<text text-anchor="start" x="351.5" y="-117" font-family="Helvetica,sans-Serif" font-size="10.00">Ra::Engine::ShaderProgram</text>
<text text-anchor="middle" x="413" y="-106" font-family="Helvetica,sans-Serif" font-size="10.00">::setUniform</text>
</a>
</g>
</g>
<!-- Node2&#45;&gt;Node9 -->
<g id="edge8" class="edge"><title>Node2&#45;&gt;Node9</title>
<path fill="none" stroke="midnightblue" d="M299.652,-129.234C310.54,-127.757 321.948,-126.21 333.148,-124.692"/>
<polygon fill="midnightblue" stroke="midnightblue" points="333.914,-128.12 343.353,-123.308 332.974,-121.183 333.914,-128.12"/>
</g>
<!-- Node10 -->
<g id="node10" class="node"><title>Node10</title>
<g id="a_node10"><a xlink:href="classRa_1_1Engine_1_1RenderParameters.html#a0e08655c1c564da49146bcf7b382a1e4" target="_top" xlink:title="Ra::Engine::RenderParameters\l::bind">
<polygon fill="white" stroke="black" points="336.5,-50 336.5,-80 489.5,-80 489.5,-50 336.5,-50"/>
<text text-anchor="start" x="344.5" y="-68" font-family="Helvetica,sans-Serif" font-size="10.00">Ra::Engine::RenderParameters</text>
<text text-anchor="middle" x="413" y="-57" font-family="Helvetica,sans-Serif" font-size="10.00">::bind</text>
</a>
</g>
</g>
<!-- Node2&#45;&gt;Node10 -->
<g id="edge9" class="edge"><title>Node2&#45;&gt;Node10</title>
<path fill="none" stroke="midnightblue" d="M277.843,-122.935C285.343,-119.9 292.986,-116.544 300,-113 316.946,-104.438 318.847,-98.1414 336,-90 340.664,-87.786 345.577,-85.6879 350.566,-83.7187"/>
<polygon fill="midnightblue" stroke="midnightblue" points="352.083,-86.8879 360.213,-80.0941 349.62,-80.3352 352.083,-86.8879"/>
</g>
<!-- Node11 -->
<g id="node11" class="node"><title>Node11</title>
<g id="a_node11"><a xlink:href="classRa_1_1Engine_1_1RenderObject.html#a2d4f1d69544319def1b53ae6a66def9f" target="_top" xlink:title="Ra::Engine::RenderObject\l::getMesh">
<polygon fill="white" stroke="black" points="347.5,-1 347.5,-31 478.5,-31 478.5,-1 347.5,-1"/>
<text text-anchor="start" x="355.5" y="-19" font-family="Helvetica,sans-Serif" font-size="10.00">Ra::Engine::RenderObject</text>
<text text-anchor="middle" x="413" y="-8" font-family="Helvetica,sans-Serif" font-size="10.00">::getMesh</text>
</a>
</g>
</g>
<!-- Node2&#45;&gt;Node11 -->
<g id="edge10" class="edge"><title>Node2&#45;&gt;Node11</title>
<path fill="none" stroke="midnightblue" d="M285.819,-122.856C290.939,-120.08 295.793,-116.82 300,-113 326.489,-88.951 308.926,-64.3877 336,-41 337.977,-39.2918 340.075,-37.6997 342.263,-36.2158"/>
<polygon fill="midnightblue" stroke="midnightblue" points="344.259,-39.1027 351.099,-31.0122 340.706,-33.0709 344.259,-39.1027"/>
</g>
<!-- Node4 -->
<g id="node4" class="node"><title>Node4</title>
<g id="a_node4"><a xlink:href="classRa_1_1Engine_1_1RenderObject.html#a46deaf8ca7b8eed5f2cbfaca72354d1a" target="_top" xlink:title="Ra::Engine::RenderObject\l::getTransform">
<polygon fill="white" stroke="black" points="526.5,-236 526.5,-266 657.5,-266 657.5,-236 526.5,-236"/>
<text text-anchor="start" x="534.5" y="-254" font-family="Helvetica,sans-Serif" font-size="10.00">Ra::Engine::RenderObject</text>
<text text-anchor="middle" x="592" y="-243" font-family="Helvetica,sans-Serif" font-size="10.00">::getTransform</text>
</a>
</g>
</g>
<!-- Node3&#45;&gt;Node4 -->
<g id="edge3" class="edge"><title>Node3&#45;&gt;Node4</title>
<path fill="none" stroke="midnightblue" d="M478.652,-251C490.765,-251 503.522,-251 515.92,-251"/>
<polygon fill="midnightblue" stroke="midnightblue" points="516.227,-254.5 526.227,-251 516.227,-247.5 516.227,-254.5"/>
</g>
<!-- Node5 -->
<g id="node5" class="node"><title>Node5</title>
<g id="a_node5"><a xlink:href="classRa_1_1Engine_1_1Component.html#a207c1dc2e97856c22e0767fb77162933" target="_top" xlink:title="Return the entity the component belongs to. ">
<polygon fill="white" stroke="black" points="694,-261 694,-291 816,-291 816,-261 694,-261"/>
<text text-anchor="start" x="702" y="-279" font-family="Helvetica,sans-Serif" font-size="10.00">Ra::Engine::Component</text>
<text text-anchor="middle" x="755" y="-268" font-family="Helvetica,sans-Serif" font-size="10.00">::getEntity</text>
</a>
</g>
</g>
<!-- Node4&#45;&gt;Node5 -->
<g id="edge4" class="edge"><title>Node4&#45;&gt;Node5</title>
<path fill="none" stroke="midnightblue" d="M657.557,-261.024C666.172,-262.362 675.04,-263.739 683.745,-265.091"/>
<polygon fill="midnightblue" stroke="midnightblue" points="683.447,-268.586 693.865,-266.662 684.521,-261.669 683.447,-268.586"/>
</g>
<!-- Node6 -->
<g id="node6" class="node"><title>Node6</title>
<g id="a_node6"><a xlink:href="classRa_1_1Engine_1_1Entity.html#adf0ef19e4b56e1d213b9898b60fe0e74" target="_top" xlink:title="Ra::Engine::Entity\l::getTransform">
<polygon fill="white" stroke="black" points="706.5,-212 706.5,-242 803.5,-242 803.5,-212 706.5,-212"/>
<text text-anchor="start" x="714.5" y="-230" font-family="Helvetica,sans-Serif" font-size="10.00">Ra::Engine::Entity</text>
<text text-anchor="middle" x="755" y="-219" font-family="Helvetica,sans-Serif" font-size="10.00">::getTransform</text>
</a>
</g>
</g>
<!-- Node4&#45;&gt;Node6 -->
<g id="edge5" class="edge"><title>Node4&#45;&gt;Node6</title>
<path fill="none" stroke="midnightblue" d="M657.557,-241.377C670.397,-239.463 683.8,-237.465 696.389,-235.588"/>
<polygon fill="midnightblue" stroke="midnightblue" points="696.909,-239.049 706.284,-234.113 695.877,-232.126 696.909,-239.049"/>
</g>
</g>
</svg>
