<?xml version="1.0" encoding="UTF-8" standalone="no"?>
<!DOCTYPE svg PUBLIC "-//W3C//DTD SVG 1.1//EN"
 "http://www.w3.org/Graphics/SVG/1.1/DTD/svg11.dtd">
<!-- Generated by graphviz version 2.36.0 (20140111.2315)
 -->
<!-- Title: Ra::IO::AssimpGeometryDataLoader::fetchVertices Pages: 1 -->
<svg width="326pt" height="252pt"
 viewBox="0.00 0.00 326.00 252.00" xmlns="http://www.w3.org/2000/svg" xmlns:xlink="http://www.w3.org/1999/xlink">
<g id="graph0" class="graph" transform="scale(1 1) rotate(0) translate(4 248)">
<title>Ra::IO::AssimpGeometryDataLoader::fetchVertices</title>
<polygon fill="white" stroke="none" points="-4,4 -4,-248 322,-248 322,4 -4,4"/>
<!-- Node1 -->
<g id="node1" class="node"><title>Node1</title>
<polygon fill="#bfbfbf" stroke="black" points="0.5,-104 0.5,-134 149.5,-134 149.5,-104 0.5,-104"/>
<text text-anchor="start" x="8.5" y="-122" font-family="Helvetica,sans-Serif" font-size="10.00">Ra::IO::AssimpGeometryData</text>
<text text-anchor="middle" x="75" y="-111" font-family="Helvetica,sans-Serif" font-size="10.00">Loader::fetchVertices</text>
</g>
<!-- Node2 -->
<g id="node2" class="node"><title>Node2</title>
<g id="a_node2"><a xlink:href="namespaceRa_1_1Core.html#abc0a3625137098b67838fe52edd480f9" target="_top" xlink:title="SIZE. ">
<polygon fill="white" stroke="black" points="212,-224.5 212,-243.5 292,-243.5 292,-224.5 212,-224.5"/>
<text text-anchor="middle" x="252" y="-231.5" font-family="Helvetica,sans-Serif" font-size="10.00">Ra::Core::size</text>
</a>
</g>
</g>
<!-- Node1&#45;&gt;Node2 -->
<g id="edge1" class="edge"><title>Node1&#45;&gt;Node2</title>
<path fill="none" stroke="midnightblue" d="M89.4675,-134.027C108.871,-154.819 146.7,-192.253 186,-214 191.096,-216.82 196.641,-219.296 202.274,-221.455"/>
<polygon fill="midnightblue" stroke="midnightblue" points="201.176,-224.779 211.771,-224.796 203.499,-218.176 201.176,-224.779"/>
</g>
<!-- Node3 -->
<g id="node3" class="node"><title>Node3</title>
<g id="a_node3"><a xlink:href="classRa_1_1Asset_1_1GeometryData.html#a20394106458e5e8deade13af0bec3ebb" target="_top" xlink:title="Ra::Asset::GeometryData\l::getVertices">
<polygon fill="white" stroke="black" points="186.5,-175 186.5,-205 317.5,-205 317.5,-175 186.5,-175"/>
<text text-anchor="start" x="194.5" y="-193" font-family="Helvetica,sans-Serif" font-size="10.00">Ra::Asset::GeometryData</text>
<text text-anchor="middle" x="252" y="-182" font-family="Helvetica,sans-Serif" font-size="10.00">::getVertices</text>
</a>
</g>
</g>
<!-- Node1&#45;&gt;Node3 -->
<g id="edge2" class="edge"><title>Node1&#45;&gt;Node3</title>
<path fill="none" stroke="midnightblue" d="M111.561,-134.178C133.05,-143.272 161.026,-154.978 186,-165 191.119,-167.054 196.479,-169.171 201.83,-171.261"/>
<polygon fill="midnightblue" stroke="midnightblue" points="200.81,-174.62 211.399,-174.978 203.345,-168.095 200.81,-174.62"/>
</g>
<!-- Node4 -->
<g id="node4" class="node"><title>Node4</title>
<g id="a_node4"><a xlink:href="classRa_1_1Asset_1_1GeometryData.html#ad917f1a50860ee72fa2aa8f0d557c8c5" target="_top" xlink:title="DUPLICATES. ">
<polygon fill="white" stroke="black" points="186.5,-126 186.5,-156 317.5,-156 317.5,-126 186.5,-126"/>
<text text-anchor="start" x="194.5" y="-144" font-family="Helvetica,sans-Serif" font-size="10.00">Ra::Asset::GeometryData</text>
<text text-anchor="middle" x="252" y="-133" font-family="Helvetica,sans-Serif" font-size="10.00">::getDuplicateTable</text>
</a>
</g>
</g>
<!-- Node1&#45;&gt;Node4 -->
<g id="edge3" class="edge"><title>Node1&#45;&gt;Node4</title>
<path fill="none" stroke="midnightblue" d="M149.709,-128.266C158.437,-129.363 167.352,-130.484 176.097,-131.584"/>
<polygon fill="midnightblue" stroke="midnightblue" points="175.903,-135.087 186.262,-132.861 176.777,-128.141 175.903,-135.087"/>
</g>
<!-- Node5 -->
<g id="node5" class="node"><title>Node5</title>
<g id="a_node5"><a xlink:href="namespaceRa_1_1IO.html#aef6c50424873964fcea0008be55d4a34" target="_top" xlink:title="Ra::IO::assimpToCore">
<polygon fill="white" stroke="black" points="194,-87.5 194,-106.5 310,-106.5 310,-87.5 194,-87.5"/>
<text text-anchor="middle" x="252" y="-94.5" font-family="Helvetica,sans-Serif" font-size="10.00">Ra::IO::assimpToCore</text>
</a>
</g>
</g>
<!-- Node1&#45;&gt;Node5 -->
<g id="edge4" class="edge"><title>Node1&#45;&gt;Node5</title>
<path fill="none" stroke="midnightblue" d="M149.709,-109.734C161.008,-108.313 172.623,-106.853 183.773,-105.451"/>
<polygon fill="midnightblue" stroke="midnightblue" points="184.374,-108.903 193.859,-104.183 183.501,-101.958 184.374,-108.903"/>
</g>
<!-- Node6 -->
<g id="node6" class="node"><title>Node6</title>
<g id="a_node6"><a xlink:href="namespaceRa_1_1Core_1_1Algorithm.html#aea294cdb6f4f0d85955bdcccb22886ec" target="_top" xlink:title="Ra::Core::Algorithm::t">
<polygon fill="white" stroke="black" points="195.5,-49.5 195.5,-68.5 308.5,-68.5 308.5,-49.5 195.5,-49.5"/>
<text text-anchor="middle" x="252" y="-56.5" font-family="Helvetica,sans-Serif" font-size="10.00">Ra::Core::Algorithm::t</text>
</a>
</g>
</g>
<!-- Node1&#45;&gt;Node6 -->
<g id="edge5" class="edge"><title>Node1&#45;&gt;Node6</title>
<path fill="none" stroke="midnightblue" d="M114.193,-103.989C135.244,-95.9115 161.919,-85.9958 186,-78 192.597,-75.8095 199.614,-73.6174 206.505,-71.5412"/>
<polygon fill="midnightblue" stroke="midnightblue" points="207.854,-74.7922 216.448,-68.596 205.865,-68.0804 207.854,-74.7922"/>
</g>
<!-- Node7 -->
<g id="node7" class="node"><title>Node7</title>
<g id="a_node7"><a xlink:href="classRa_1_1Asset_1_1GeometryData.html#ae7f137aae9b6723ff6b0fc7125b0fd35" target="_top" xlink:title="Ra::Asset::GeometryData\l::isLoadingDuplicates">
<polygon fill="white" stroke="black" points="186.5,-0 186.5,-30 317.5,-30 317.5,-0 186.5,-0"/>
<text text-anchor="start" x="194.5" y="-18" font-family="Helvetica,sans-Serif" font-size="10.00">Ra::Asset::GeometryData</text>
<text text-anchor="middle" x="252" y="-7" font-family="Helvetica,sans-Serif" font-size="10.00">::isLoadingDuplicates</text>
</a>
</g>
</g>
<!-- Node1&#45;&gt;Node7 -->
<g id="edge6" class="edge"><title>Node1&#45;&gt;Node7</title>
<path fill="none" stroke="midnightblue" d="M94.1128,-103.757C115.165,-86.5877 151.448,-58.6521 186,-40 189.875,-37.9081 193.963,-35.9055 198.125,-34.009"/>
<polygon fill="midnightblue" stroke="midnightblue" points="199.517,-37.2205 207.301,-30.0333 196.734,-30.7974 199.517,-37.2205"/>
</g>
</g>
</svg>
