<?xml version="1.0" encoding="UTF-8" standalone="no"?>
<!DOCTYPE svg PUBLIC "-//W3C//DTD SVG 1.1//EN"
 "http://www.w3.org/Graphics/SVG/1.1/DTD/svg11.dtd">
<!-- Generated by graphviz version 2.36.0 (20140111.2315)
 -->
<!-- Title: AnimationPlugin::AnimationSystem::handleAssetLoading Pages: 1 -->
<svg width="694pt" height="297pt"
 viewBox="0.00 0.00 694.00 297.00" xmlns="http://www.w3.org/2000/svg" xmlns:xlink="http://www.w3.org/1999/xlink">
<g id="graph0" class="graph" transform="scale(1 1) rotate(0) translate(4 293)">
<title>AnimationPlugin::AnimationSystem::handleAssetLoading</title>
<polygon fill="white" stroke="none" points="-4,4 -4,-293 690,-293 690,4 -4,4"/>
<!-- Node1 -->
<g id="node1" class="node"><title>Node1</title>
<polygon fill="#bfbfbf" stroke="black" points="0,-161 0,-191 144,-191 144,-161 0,-161"/>
<text text-anchor="start" x="8" y="-179" font-family="Helvetica,sans-Serif" font-size="10.00">AnimationPlugin::Animation</text>
<text text-anchor="middle" x="72" y="-168" font-family="Helvetica,sans-Serif" font-size="10.00">System::handleAssetLoading</text>
</g>
<!-- Node2 -->
<g id="node2" class="node"><title>Node2</title>
<g id="a_node2"><a xlink:href="classRa_1_1Asset_1_1FileData.html#a067251ed4ac8d221a1bc373ea7a4b158" target="_top" xlink:title="DATA. ">
<polygon fill="white" stroke="black" points="215,-259 215,-289 319,-289 319,-259 215,-259"/>
<text text-anchor="start" x="223" y="-277" font-family="Helvetica,sans-Serif" font-size="10.00">Ra::Asset::FileData</text>
<text text-anchor="middle" x="267" y="-266" font-family="Helvetica,sans-Serif" font-size="10.00">::getGeometryData</text>
</a>
</g>
</g>
<!-- Node1&#45;&gt;Node2 -->
<g id="edge1" class="edge"><title>Node1&#45;&gt;Node2</title>
<path fill="none" stroke="midnightblue" d="M91.2279,-191.113C111.692,-207.419 146.442,-233.169 180,-249 187.969,-252.76 196.625,-256.08 205.272,-258.971"/>
<polygon fill="midnightblue" stroke="midnightblue" points="204.405,-262.368 214.995,-262.053 206.52,-255.695 204.405,-262.368"/>
</g>
<!-- Node4 -->
<g id="node4" class="node"><title>Node4</title>
<g id="a_node4"><a xlink:href="classRa_1_1Asset_1_1FileData.html#ac709c4000bd91796eea12d4899d93283" target="_top" xlink:title="Ra::Asset::FileData\l::getHandleData">
<polygon fill="white" stroke="black" points="215,-210 215,-240 319,-240 319,-210 215,-210"/>
<text text-anchor="start" x="223" y="-228" font-family="Helvetica,sans-Serif" font-size="10.00">Ra::Asset::FileData</text>
<text text-anchor="middle" x="267" y="-217" font-family="Helvetica,sans-Serif" font-size="10.00">::getHandleData</text>
</a>
</g>
</g>
<!-- Node1&#45;&gt;Node4 -->
<g id="edge3" class="edge"><title>Node1&#45;&gt;Node4</title>
<path fill="none" stroke="midnightblue" d="M132.218,-191.035C155.294,-196.893 181.73,-203.605 204.976,-209.507"/>
<polygon fill="midnightblue" stroke="midnightblue" points="204.17,-212.913 214.724,-211.982 205.893,-206.128 204.17,-212.913"/>
</g>
<!-- Node5 -->
<g id="node5" class="node"><title>Node5</title>
<g id="a_node5"><a xlink:href="classRa_1_1Asset_1_1FileData.html#a4ff19e44385ab0599eb85f9ae1df2784" target="_top" xlink:title="Ra::Asset::FileData\l::getAnimationData">
<polygon fill="white" stroke="black" points="215,-161 215,-191 319,-191 319,-161 215,-161"/>
<text text-anchor="start" x="223" y="-179" font-family="Helvetica,sans-Serif" font-size="10.00">Ra::Asset::FileData</text>
<text text-anchor="middle" x="267" y="-168" font-family="Helvetica,sans-Serif" font-size="10.00">::getAnimationData</text>
</a>
</g>
</g>
<!-- Node1&#45;&gt;Node5 -->
<g id="edge5" class="edge"><title>Node1&#45;&gt;Node5</title>
<path fill="none" stroke="midnightblue" d="M144.044,-176C163.905,-176 185.316,-176 204.571,-176"/>
<polygon fill="midnightblue" stroke="midnightblue" points="204.722,-179.5 214.722,-176 204.722,-172.5 204.722,-179.5"/>
</g>
<!-- Node6 -->
<g id="node6" class="node"><title>Node6</title>
<g id="a_node6"><a xlink:href="classAnimationPlugin_1_1AnimationComponent.html#a6c2e655619c45bd330f1f067e5171073" target="_top" xlink:title="Create the skeleton from the given data. ">
<polygon fill="white" stroke="black" points="180.5,-112 180.5,-142 353.5,-142 353.5,-112 180.5,-112"/>
<text text-anchor="start" x="188.5" y="-130" font-family="Helvetica,sans-Serif" font-size="10.00">AnimationPlugin::Animation</text>
<text text-anchor="middle" x="267" y="-119" font-family="Helvetica,sans-Serif" font-size="10.00">Component::handleSkeletonLoading</text>
</a>
</g>
</g>
<!-- Node1&#45;&gt;Node6 -->
<g id="edge7" class="edge"><title>Node1&#45;&gt;Node6</title>
<path fill="none" stroke="midnightblue" d="M132.218,-160.965C152.689,-155.768 175.804,-149.899 196.991,-144.52"/>
<polygon fill="midnightblue" stroke="midnightblue" points="198.063,-147.859 206.894,-142.006 196.34,-141.075 198.063,-147.859"/>
</g>
<!-- Node15 -->
<g id="node15" class="node"><title>Node15</title>
<g id="a_node15"><a xlink:href="classRa_1_1Engine_1_1BaseCouplingSystem.html#ac0e5715e8cdafcffc4812318d505c2f3" target="_top" xlink:title="Registers a component belonging to an entity, making it active within the system. ...">
<polygon fill="white" stroke="black" points="188.5,-33.5 188.5,-74.5 345.5,-74.5 345.5,-33.5 188.5,-33.5"/>
<text text-anchor="start" x="196.5" y="-62.5" font-family="Helvetica,sans-Serif" font-size="10.00">Ra::Engine::BaseCoupling</text>
<text text-anchor="start" x="196.5" y="-51.5" font-family="Helvetica,sans-Serif" font-size="10.00">System&lt; AbstractTimedSystem</text>
<text text-anchor="middle" x="267" y="-40.5" font-family="Helvetica,sans-Serif" font-size="10.00"> &gt;::registerComponent</text>
</a>
</g>
</g>
<!-- Node1&#45;&gt;Node15 -->
<g id="edge16" class="edge"><title>Node1&#45;&gt;Node15</title>
<path fill="none" stroke="midnightblue" d="M93.5173,-160.934C114.771,-145.538 149.134,-121.225 180,-102 192.146,-94.4346 205.541,-86.686 218.071,-79.6823"/>
<polygon fill="midnightblue" stroke="midnightblue" points="219.962,-82.6363 227.012,-74.7276 216.569,-76.5136 219.962,-82.6363"/>
</g>
<!-- Node3 -->
<g id="node3" class="node"><title>Node3</title>
<g id="a_node3"><a xlink:href="namespaceRa_1_1Core.html#af6bcd3f2b48d9770b18ec88249e607bc" target="_top" xlink:title="LIST. ">
<polygon fill="white" stroke="black" points="418.5,-235.5 418.5,-254.5 493.5,-254.5 493.5,-235.5 418.5,-235.5"/>
<text text-anchor="middle" x="456" y="-242.5" font-family="Helvetica,sans-Serif" font-size="10.00">Ra::Core::list</text>
</a>
</g>
</g>
<!-- Node2&#45;&gt;Node3 -->
<g id="edge2" class="edge"><title>Node2&#45;&gt;Node3</title>
<path fill="none" stroke="midnightblue" d="M319.099,-266.076C347.002,-261.748 381.298,-256.43 408.456,-252.218"/>
<polygon fill="midnightblue" stroke="midnightblue" points="409.141,-255.654 418.487,-250.662 408.068,-248.736 409.141,-255.654"/>
</g>
<!-- Node4&#45;&gt;Node3 -->
<g id="edge4" class="edge"><title>Node4&#45;&gt;Node3</title>
<path fill="none" stroke="midnightblue" d="M319.099,-230.465C347.002,-233.449 381.298,-237.117 408.456,-240.022"/>
<polygon fill="midnightblue" stroke="midnightblue" points="408.171,-243.511 418.487,-241.095 408.916,-236.551 408.171,-243.511"/>
</g>
<!-- Node5&#45;&gt;Node3 -->
<g id="edge6" class="edge"><title>Node5&#45;&gt;Node3</title>
<path fill="none" stroke="midnightblue" d="M319.418,-188.168C331.039,-191.676 343.145,-195.95 354,-201 371.435,-209.111 372.629,-216.753 390,-225 395.81,-227.758 402.09,-230.248 408.377,-232.459"/>
<polygon fill="midnightblue" stroke="midnightblue" points="407.603,-235.889 418.196,-235.702 409.798,-229.242 407.603,-235.889"/>
</g>
<!-- Node7 -->
<g id="node7" class="node"><title>Node7</title>
<g id="a_node7"><a xlink:href="classRa_1_1Asset_1_1AssetData.html#a8b107d2673623febe173f37f14ff777d" target="_top" xlink:title="Ra::Asset::AssetData\l::getName">
<polygon fill="white" stroke="black" points="399.5,-186 399.5,-216 512.5,-216 512.5,-186 399.5,-186"/>
<text text-anchor="start" x="407.5" y="-204" font-family="Helvetica,sans-Serif" font-size="10.00">Ra::Asset::AssetData</text>
<text text-anchor="middle" x="456" y="-193" font-family="Helvetica,sans-Serif" font-size="10.00">::getName</text>
</a>
</g>
</g>
<!-- Node6&#45;&gt;Node7 -->
<g id="edge8" class="edge"><title>Node6&#45;&gt;Node7</title>
<path fill="none" stroke="midnightblue" d="M331.358,-142.05C339.129,-144.66 346.846,-147.636 354,-151 371.628,-159.29 372.786,-166.883 390,-176 393.891,-178.061 397.991,-180.042 402.162,-181.923"/>
<polygon fill="midnightblue" stroke="midnightblue" points="400.781,-185.139 411.35,-185.876 403.547,-178.709 400.781,-185.139"/>
</g>
<!-- Node8 -->
<g id="node8" class="node"><title>Node8</title>
<g id="a_node8"><a xlink:href="classRa_1_1Core_1_1Animation_1_1Handle.html#ae8dab79a9d571d2a876ec9aaeb36959c" target="_top" xlink:title="Set the Handle&#39;s name. ">
<polygon fill="white" stroke="black" points="403,-137 403,-167 509,-167 509,-137 403,-137"/>
<text text-anchor="start" x="411" y="-155" font-family="Helvetica,sans-Serif" font-size="10.00">Ra::Core::Animation</text>
<text text-anchor="middle" x="456" y="-144" font-family="Helvetica,sans-Serif" font-size="10.00">::Handle::setName</text>
</a>
</g>
</g>
<!-- Node6&#45;&gt;Node8 -->
<g id="edge9" class="edge"><title>Node6&#45;&gt;Node8</title>
<path fill="none" stroke="midnightblue" d="M353.565,-138.439C366.844,-140.215 380.339,-142.019 392.967,-143.707"/>
<polygon fill="midnightblue" stroke="midnightblue" points="392.513,-147.177 402.888,-145.033 393.44,-140.239 392.513,-147.177"/>
</g>
<!-- Node9 -->
<g id="node9" class="node"><title>Node9</title>
<g id="a_node9"><a xlink:href="namespaceRa_1_1Asset.html#a6af505cc4650dadb43465972bf52117d" target="_top" xlink:title="Create a skeleton from a Handle Data extracted from a file Outputs the skeleton and a map from the co...">
<polygon fill="white" stroke="black" points="390,-98.5 390,-117.5 522,-117.5 522,-98.5 390,-98.5"/>
<text text-anchor="middle" x="456" y="-105.5" font-family="Helvetica,sans-Serif" font-size="10.00">Ra::Asset::createSkeleton</text>
</a>
</g>
</g>
<!-- Node6&#45;&gt;Node9 -->
<g id="edge10" class="edge"><title>Node6&#45;&gt;Node9</title>
<path fill="none" stroke="midnightblue" d="M353.565,-118.306C362.343,-117.414 371.216,-116.513 379.87,-115.634"/>
<polygon fill="midnightblue" stroke="midnightblue" points="380.315,-119.106 389.91,-114.613 379.607,-112.142 380.315,-119.106"/>
</g>
<!-- Node14 -->
<g id="node14" class="node"><title>Node14</title>
<g id="a_node14"><a xlink:href="classRa_1_1Core_1_1Animation_1_1Skeleton.html#acb6381c3f288f580800589eb718c1759" target="_top" xlink:title="Ra::Core::Animation\l::Skeleton::getPose">
<polygon fill="white" stroke="black" points="403,-49 403,-79 509,-79 509,-49 403,-49"/>
<text text-anchor="start" x="411" y="-67" font-family="Helvetica,sans-Serif" font-size="10.00">Ra::Core::Animation</text>
<text text-anchor="middle" x="456" y="-56" font-family="Helvetica,sans-Serif" font-size="10.00">::Skeleton::getPose</text>
</a>
</g>
</g>
<!-- Node6&#45;&gt;Node14 -->
<g id="edge15" class="edge"><title>Node6&#45;&gt;Node14</title>
<path fill="none" stroke="midnightblue" d="M312.791,-111.91C339.178,-103.02 372.746,-91.7113 400.641,-82.3134"/>
<polygon fill="midnightblue" stroke="midnightblue" points="401.891,-85.5856 410.251,-79.076 399.657,-78.9519 401.891,-85.5856"/>
</g>
<!-- Node10 -->
<g id="node10" class="node"><title>Node10</title>
<g id="a_node10"><a xlink:href="namespaceRa_1_1Core.html#abc0a3625137098b67838fe52edd480f9" target="_top" xlink:title="SIZE. ">
<polygon fill="white" stroke="black" points="582,-167.5 582,-186.5 662,-186.5 662,-167.5 582,-167.5"/>
<text text-anchor="middle" x="622" y="-174.5" font-family="Helvetica,sans-Serif" font-size="10.00">Ra::Core::size</text>
</a>
</g>
</g>
<!-- Node9&#45;&gt;Node10 -->
<g id="edge11" class="edge"><title>Node9&#45;&gt;Node10</title>
<path fill="none" stroke="midnightblue" d="M499.262,-117.608C507.051,-120.138 514.944,-123.241 522,-127 540.381,-136.794 539.733,-146.995 558,-157 562.781,-159.618 567.956,-161.954 573.216,-164.021"/>
<polygon fill="midnightblue" stroke="midnightblue" points="572.111,-167.343 582.706,-167.455 574.493,-160.761 572.111,-167.343"/>
</g>
<!-- Node11 -->
<g id="node11" class="node"><title>Node11</title>
<g id="a_node11"><a xlink:href="classRa_1_1Asset_1_1HandleData.html#aac2741c32466647b58b76e8310d90ecb" target="_top" xlink:title="DATA. ">
<polygon fill="white" stroke="black" points="558.5,-118 558.5,-148 685.5,-148 685.5,-118 558.5,-118"/>
<text text-anchor="start" x="566.5" y="-136" font-family="Helvetica,sans-Serif" font-size="10.00">Ra::Asset::HandleData</text>
<text text-anchor="middle" x="622" y="-125" font-family="Helvetica,sans-Serif" font-size="10.00">::getComponentDataSize</text>
</a>
</g>
</g>
<!-- Node9&#45;&gt;Node11 -->
<g id="edge12" class="edge"><title>Node9&#45;&gt;Node11</title>
<path fill="none" stroke="midnightblue" d="M519.469,-117.523C528.942,-118.967 538.784,-120.467 548.449,-121.94"/>
<polygon fill="midnightblue" stroke="midnightblue" points="548.02,-125.415 558.433,-123.462 549.075,-118.495 548.02,-125.415"/>
</g>
<!-- Node12 -->
<g id="node12" class="node"><title>Node12</title>
<g id="a_node12"><a xlink:href="classRa_1_1Asset_1_1HandleData.html#adeb89ae26f34f0878a089ed7ecd64e24" target="_top" xlink:title="Ra::Asset::HandleData\l::getComponentData">
<polygon fill="white" stroke="black" points="562.5,-69 562.5,-99 681.5,-99 681.5,-69 562.5,-69"/>
<text text-anchor="start" x="570.5" y="-87" font-family="Helvetica,sans-Serif" font-size="10.00">Ra::Asset::HandleData</text>
<text text-anchor="middle" x="622" y="-76" font-family="Helvetica,sans-Serif" font-size="10.00">::getComponentData</text>
</a>
</g>
</g>
<!-- Node9&#45;&gt;Node12 -->
<g id="edge13" class="edge"><title>Node9&#45;&gt;Node12</title>
<path fill="none" stroke="midnightblue" d="M522.288,-98.4456C532.1,-97.0097 542.245,-95.5251 552.129,-94.0787"/>
<polygon fill="midnightblue" stroke="midnightblue" points="552.922,-97.5 562.31,-92.5888 551.908,-90.5738 552.922,-97.5"/>
</g>
<!-- Node13 -->
<g id="node13" class="node"><title>Node13</title>
<g id="a_node13"><a xlink:href="classRa_1_1Asset_1_1HandleData.html#abc56131631200e94ff38cf9e2af920bc" target="_top" xlink:title="Ra::Asset::HandleData\l::getEdgeData">
<polygon fill="white" stroke="black" points="562.5,-20 562.5,-50 681.5,-50 681.5,-20 562.5,-20"/>
<text text-anchor="start" x="570.5" y="-38" font-family="Helvetica,sans-Serif" font-size="10.00">Ra::Asset::HandleData</text>
<text text-anchor="middle" x="622" y="-27" font-family="Helvetica,sans-Serif" font-size="10.00">::getEdgeData</text>
</a>
</g>
</g>
<!-- Node9&#45;&gt;Node13 -->
<g id="edge14" class="edge"><title>Node9&#45;&gt;Node13</title>
<path fill="none" stroke="midnightblue" d="M496.462,-98.485C505.127,-95.6825 514.076,-92.2096 522,-88 540.144,-78.3614 540.181,-69.2274 558,-59 560.842,-57.3686 563.817,-55.807 566.86,-54.3194"/>
<polygon fill="midnightblue" stroke="midnightblue" points="568.492,-57.4217 576.134,-50.0829 565.584,-51.0545 568.492,-57.4217"/>
</g>
<!-- Node16 -->
<g id="node16" class="node"><title>Node16</title>
<g id="a_node16"><a xlink:href="classRa_1_1Engine_1_1BaseCouplingSystem.html#a43a2a84e1f928d9a763b357553219567" target="_top" xlink:title="Call a functor on subsystems. ">
<polygon fill="white" stroke="black" points="390,-0 390,-30 522,-30 522,-0 390,-0"/>
<text text-anchor="start" x="398" y="-18" font-family="Helvetica,sans-Serif" font-size="10.00">Ra::Engine::BaseCoupling</text>
<text text-anchor="middle" x="456" y="-7" font-family="Helvetica,sans-Serif" font-size="10.00">System::dispatch</text>
</a>
</g>
</g>
<!-- Node15&#45;&gt;Node16 -->
<g id="edge17" class="edge"><title>Node15&#45;&gt;Node16</title>
<path fill="none" stroke="midnightblue" d="M345.68,-37.7993C357.012,-35.4361 368.662,-33.0062 379.94,-30.6541"/>
<polygon fill="midnightblue" stroke="midnightblue" points="380.663,-34.0788 389.738,-28.6108 379.234,-27.2262 380.663,-34.0788"/>
</g>
</g>
</svg>
