<?xml version="1.0" encoding="UTF-8" standalone="no"?>
<!DOCTYPE svg PUBLIC "-//W3C//DTD SVG 1.1//EN"
 "http://www.w3.org/Graphics/SVG/1.1/DTD/svg11.dtd">
<!-- Generated by graphviz version 2.36.0 (20140111.2315)
 -->
<!-- Title: Ra::Core::Iterator&lt; OBJECT &gt; Pages: 1 -->
<svg width="128pt" height="294pt"
 viewBox="0.00 0.00 128.00 294.00" xmlns="http://www.w3.org/2000/svg" xmlns:xlink="http://www.w3.org/1999/xlink">
<g id="graph0" class="graph" transform="scale(1 1) rotate(0) translate(4 290)">
<title>Ra::Core::Iterator&lt; OBJECT &gt;</title>
<polygon fill="white" stroke="none" points="-4,4 -4,-290 124,-290 124,4 -4,4"/>
<!-- Node1 -->
<g id="node1" class="node"><title>Node1</title>
<polygon fill="#bfbfbf" stroke="black" points="13.5,-1 13.5,-179 106.5,-179 106.5,-1 13.5,-1"/>
<text text-anchor="start" x="21.5" y="-167" font-family="Helvetica,sans-Serif" font-size="10.00">Ra::Core::Iterator</text>
<text text-anchor="middle" x="60" y="-156" font-family="Helvetica,sans-Serif" font-size="10.00">&lt; OBJECT &gt;</text>
<polyline fill="none" stroke="black" points="13.5,-149 106.5,-149 "/>
<text text-anchor="middle" x="60" y="-137" font-family="Helvetica,sans-Serif" font-size="10.00"> </text>
<polyline fill="none" stroke="black" points="13.5,-130 106.5,-130 "/>
<text text-anchor="start" x="21.5" y="-118" font-family="Helvetica,sans-Serif" font-size="10.00">+ Iterator()</text>
<text text-anchor="start" x="21.5" y="-107" font-family="Helvetica,sans-Serif" font-size="10.00">+ Iterator()</text>
<text text-anchor="start" x="21.5" y="-96" font-family="Helvetica,sans-Serif" font-size="10.00">+ ~Iterator()</text>
<text text-anchor="start" x="21.5" y="-85" font-family="Helvetica,sans-Serif" font-size="10.00">+ size()</text>
<text text-anchor="start" x="21.5" y="-74" font-family="Helvetica,sans-Serif" font-size="10.00">+ list()</text>
<text text-anchor="start" x="21.5" y="-63" font-family="Helvetica,sans-Serif" font-size="10.00">+ reset()</text>
<text text-anchor="start" x="21.5" y="-52" font-family="Helvetica,sans-Serif" font-size="10.00">+ operator&#45;&gt;()</text>
<text text-anchor="start" x="21.5" y="-41" font-family="Helvetica,sans-Serif" font-size="10.00">+ operator++()</text>
<text text-anchor="start" x="21.5" y="-30" font-family="Helvetica,sans-Serif" font-size="10.00">+ operator&#45;&#45;()</text>
<text text-anchor="start" x="21.5" y="-19" font-family="Helvetica,sans-Serif" font-size="10.00">+ operator+=()</text>
<text text-anchor="start" x="21.5" y="-8" font-family="Helvetica,sans-Serif" font-size="10.00">+ operator&#45;=()</text>
</g>
<!-- Node2 -->
<g id="node2" class="node"><title>Node2</title>
<polygon fill="white" stroke="#bfbfbf" points="-0.5,-228.5 -0.5,-285.5 120.5,-285.5 120.5,-228.5 -0.5,-228.5"/>
<text text-anchor="middle" x="60" y="-273.5" font-family="Helvetica,sans-Serif" font-size="10.00">shared_ptr&lt; HalfEdge &gt;</text>
<polyline fill="none" stroke="#bfbfbf" points="-0.5,-266.5 120.5,-266.5 "/>
<text text-anchor="middle" x="60" y="-254.5" font-family="Helvetica,sans-Serif" font-size="10.00"> </text>
<polyline fill="none" stroke="#bfbfbf" points="-0.5,-247.5 120.5,-247.5 "/>
<text text-anchor="middle" x="60" y="-235.5" font-family="Helvetica,sans-Serif" font-size="10.00"> </text>
</g>
<!-- Node2&#45;&gt;Node1 -->
<g id="edge1" class="edge"><title>Node2&#45;&gt;Node1</title>
<path fill="none" stroke="#404040" d="M60,-228.383C60,-217.739 60,-204.866 60,-191.319"/>
<polygon fill="none" stroke="#404040" points="60.0001,-191.28 56,-185.28 60,-179.28 64,-185.28 60.0001,-191.28"/>
<text text-anchor="middle" x="76.5" y="-201.5" font-family="Helvetica,sans-Serif" font-size="10.00"> #m_he</text>
</g>
</g>
</svg>
