<?xml version="1.0" encoding="UTF-8" standalone="no"?>
<!DOCTYPE svg PUBLIC "-//W3C//DTD SVG 1.1//EN"
 "http://www.w3.org/Graphics/SVG/1.1/DTD/svg11.dtd">
<!-- Generated by graphviz version 2.36.0 (20140111.2315)
 -->
<!-- Title: Ra::IO::AssimpAnimationDataLoader::loadAnimationData Pages: 1 -->
<svg width="692pt" height="694pt"
 viewBox="0.00 0.00 692.00 694.00" xmlns="http://www.w3.org/2000/svg" xmlns:xlink="http://www.w3.org/1999/xlink">
<g id="graph0" class="graph" transform="scale(1 1) rotate(0) translate(4 690)">
<title>Ra::IO::AssimpAnimationDataLoader::loadAnimationData</title>
<polygon fill="white" stroke="none" points="-4,4 -4,-690 688,-690 688,4 -4,4"/>
<!-- Node1 -->
<g id="node1" class="node"><title>Node1</title>
<polygon fill="#bfbfbf" stroke="black" points="0.5,-370 0.5,-400 149.5,-400 149.5,-370 0.5,-370"/>
<text text-anchor="start" x="8.5" y="-388" font-family="Helvetica,sans-Serif" font-size="10.00">Ra::IO::AssimpAnimationData</text>
<text text-anchor="middle" x="75" y="-377" font-family="Helvetica,sans-Serif" font-size="10.00">Loader::loadAnimationData</text>
</g>
<!-- Node2 -->
<g id="node2" class="node"><title>Node2</title>
<g id="a_node2"><a xlink:href="namespaceRa_1_1Core.html#abc0a3625137098b67838fe52edd480f9" target="_top" xlink:title="SIZE. ">
<polygon fill="white" stroke="black" points="581,-186.5 581,-205.5 661,-205.5 661,-186.5 581,-186.5"/>
<text text-anchor="middle" x="621" y="-193.5" font-family="Helvetica,sans-Serif" font-size="10.00">Ra::Core::size</text>
</a>
</g>
</g>
<!-- Node1&#45;&gt;Node2 -->
<g id="edge1" class="edge"><title>Node1&#45;&gt;Node2</title>
<path fill="none" stroke="midnightblue" d="M86.7319,-369.9C121.379,-322.642 235.94,-177.707 372,-127 434.469,-103.719 458.445,-106.87 522,-127 554.34,-137.243 585.235,-162.424 603.409,-179.362"/>
<polygon fill="midnightblue" stroke="midnightblue" points="601.186,-182.08 610.824,-186.481 606.034,-177.031 601.186,-182.08"/>
</g>
<!-- Node3 -->
<g id="node3" class="node"><title>Node3</title>
<g id="a_node3"><a xlink:href="classRa_1_1IO_1_1AssimpAnimationDataLoader.html#ab0bc77b937a09f8e770b8826d526f980" target="_top" xlink:title="Ra::IO::AssimpAnimationData\lLoader::sceneAnimationSize">
<polygon fill="white" stroke="black" points="186.5,-492 186.5,-522 335.5,-522 335.5,-492 186.5,-492"/>
<text text-anchor="start" x="194.5" y="-510" font-family="Helvetica,sans-Serif" font-size="10.00">Ra::IO::AssimpAnimationData</text>
<text text-anchor="middle" x="261" y="-499" font-family="Helvetica,sans-Serif" font-size="10.00">Loader::sceneAnimationSize</text>
</a>
</g>
</g>
<!-- Node1&#45;&gt;Node3 -->
<g id="edge2" class="edge"><title>Node1&#45;&gt;Node3</title>
<path fill="none" stroke="midnightblue" d="M89.4854,-400.209C108.91,-421.28 146.765,-459.314 186,-482 189.632,-484.1 193.467,-486.058 197.402,-487.876"/>
<polygon fill="midnightblue" stroke="midnightblue" points="196.15,-491.148 206.72,-491.87 198.908,-484.714 196.15,-491.148"/>
</g>
<!-- Node4 -->
<g id="node4" class="node"><title>Node4</title>
<g id="a_node4"><a xlink:href="classRa_1_1IO_1_1AssimpAnimationDataLoader.html#ae6d5be5f9895033f807047b305b79ef8" target="_top" xlink:title="NAME. ">
<polygon fill="white" stroke="black" points="186.5,-563 186.5,-593 335.5,-593 335.5,-563 186.5,-563"/>
<text text-anchor="start" x="194.5" y="-581" font-family="Helvetica,sans-Serif" font-size="10.00">Ra::IO::AssimpAnimationData</text>
<text text-anchor="middle" x="261" y="-570" font-family="Helvetica,sans-Serif" font-size="10.00">Loader::fetchName</text>
</a>
</g>
</g>
<!-- Node1&#45;&gt;Node4 -->
<g id="edge3" class="edge"><title>Node1&#45;&gt;Node4</title>
<path fill="none" stroke="midnightblue" d="M84.7928,-400.063C101.739,-428.209 141.228,-489.667 186,-531 196.888,-541.052 210.199,-550.257 222.514,-557.804"/>
<polygon fill="midnightblue" stroke="midnightblue" points="220.871,-560.899 231.256,-562.996 224.445,-554.88 220.871,-560.899"/>
</g>
<!-- Node7 -->
<g id="node7" class="node"><title>Node7</title>
<g id="a_node7"><a xlink:href="classRa_1_1IO_1_1AssimpAnimationDataLoader.html#a27689dc210ccf9597f87e330a97f8e9a" target="_top" xlink:title="TIME. ">
<polygon fill="white" stroke="black" points="186.5,-443 186.5,-473 335.5,-473 335.5,-443 186.5,-443"/>
<text text-anchor="start" x="194.5" y="-461" font-family="Helvetica,sans-Serif" font-size="10.00">Ra::IO::AssimpAnimationData</text>
<text text-anchor="middle" x="261" y="-450" font-family="Helvetica,sans-Serif" font-size="10.00">Loader::fetchTime</text>
</a>
</g>
</g>
<!-- Node1&#45;&gt;Node7 -->
<g id="edge6" class="edge"><title>Node1&#45;&gt;Node7</title>
<path fill="none" stroke="midnightblue" d="M114.125,-400.126C142.62,-411.431 181.762,-426.96 212.326,-439.086"/>
<polygon fill="midnightblue" stroke="midnightblue" points="211.338,-442.459 221.924,-442.894 213.919,-435.953 211.338,-442.459"/>
</g>
<!-- Node13 -->
<g id="node13" class="node"><title>Node13</title>
<g id="a_node13"><a xlink:href="classRa_1_1IO_1_1AssimpAnimationDataLoader.html#aa0ff91f44c0889489ef1370d4d041bfd" target="_top" xlink:title="Ra::IO::AssimpAnimationData\lLoader::fetchAnimation">
<polygon fill="white" stroke="black" points="186.5,-298 186.5,-328 335.5,-328 335.5,-298 186.5,-298"/>
<text text-anchor="start" x="194.5" y="-316" font-family="Helvetica,sans-Serif" font-size="10.00">Ra::IO::AssimpAnimationData</text>
<text text-anchor="middle" x="261" y="-305" font-family="Helvetica,sans-Serif" font-size="10.00">Loader::fetchAnimation</text>
</a>
</g>
</g>
<!-- Node1&#45;&gt;Node13 -->
<g id="edge12" class="edge"><title>Node1&#45;&gt;Node13</title>
<path fill="none" stroke="midnightblue" d="M114.572,-369.906C142.909,-358.818 181.594,-343.681 211.942,-331.805"/>
<polygon fill="midnightblue" stroke="midnightblue" points="213.441,-334.977 221.478,-328.074 210.89,-328.458 213.441,-334.977"/>
</g>
<!-- Node23 -->
<g id="node23" class="node"><title>Node23</title>
<g id="a_node23"><a xlink:href="classRa_1_1Asset_1_1AnimationData.html#a69850f70524d5c5b7d549a8837edd28b" target="_top" xlink:title="DEBUG. ">
<polygon fill="white" stroke="black" points="195.5,-49 195.5,-79 326.5,-79 326.5,-49 195.5,-49"/>
<text text-anchor="start" x="203.5" y="-67" font-family="Helvetica,sans-Serif" font-size="10.00">Ra::Asset::AnimationData</text>
<text text-anchor="middle" x="261" y="-56" font-family="Helvetica,sans-Serif" font-size="10.00">::displayInfo</text>
</a>
</g>
</g>
<!-- Node1&#45;&gt;Node23 -->
<g id="edge26" class="edge"><title>Node1&#45;&gt;Node23</title>
<path fill="none" stroke="midnightblue" d="M77.5032,-369.762C82.9561,-322.413 105.814,-176.113 186,-94 189.6,-90.3132 193.715,-87.0646 198.119,-84.2046"/>
<polygon fill="midnightblue" stroke="midnightblue" points="199.957,-87.1854 206.886,-79.1706 196.471,-81.1149 199.957,-87.1854"/>
</g>
<!-- Node5 -->
<g id="node5" class="node"><title>Node5</title>
<g id="a_node5"><a xlink:href="classRa_1_1Asset_1_1AnimationData.html#af45d542d021bbfcf85c60284bb649714" target="_top" xlink:title="NAME. ">
<polygon fill="white" stroke="black" points="381.5,-656 381.5,-686 512.5,-686 512.5,-656 381.5,-656"/>
<text text-anchor="start" x="389.5" y="-674" font-family="Helvetica,sans-Serif" font-size="10.00">Ra::Asset::AnimationData</text>
<text text-anchor="middle" x="447" y="-663" font-family="Helvetica,sans-Serif" font-size="10.00">::setName</text>
</a>
</g>
</g>
<!-- Node4&#45;&gt;Node5 -->
<g id="edge4" class="edge"><title>Node4&#45;&gt;Node5</title>
<path fill="none" stroke="midnightblue" d="M283.092,-593.064C304.653,-607.968 339.495,-630.708 372,-646 376.711,-648.216 381.673,-650.33 386.705,-652.322"/>
<polygon fill="midnightblue" stroke="midnightblue" points="385.829,-655.733 396.42,-655.998 388.306,-649.186 385.829,-655.733"/>
</g>
<!-- Node6 -->
<g id="node6" class="node"><title>Node6</title>
<g id="a_node6"><a xlink:href="namespaceRa_1_1IO.html#aef6c50424873964fcea0008be55d4a34" target="_top" xlink:title="Ra::IO::assimpToCore">
<polygon fill="white" stroke="black" points="563,-490.5 563,-509.5 679,-509.5 679,-490.5 563,-490.5"/>
<text text-anchor="middle" x="621" y="-497.5" font-family="Helvetica,sans-Serif" font-size="10.00">Ra::IO::assimpToCore</text>
</a>
</g>
</g>
<!-- Node4&#45;&gt;Node6 -->
<g id="edge5" class="edge"><title>Node4&#45;&gt;Node6</title>
<path fill="none" stroke="midnightblue" d="M335.691,-581.145C388.69,-581.307 461.231,-577.17 522,-558 551.135,-548.809 580.804,-529.581 599.747,-515.782"/>
<polygon fill="midnightblue" stroke="midnightblue" points="601.978,-518.484 607.895,-509.696 597.789,-512.876 601.978,-518.484"/>
</g>
<!-- Node8 -->
<g id="node8" class="node"><title>Node8</title>
<g id="a_node8"><a xlink:href="classRa_1_1Asset_1_1AnimationTime.html#a3d66a6bbd2d5bbcc7e69326bd00c820a" target="_top" xlink:title="Ra::Asset::AnimationTime\l::setStart">
<polygon fill="white" stroke="black" points="381,-470 381,-500 513,-500 513,-470 381,-470"/>
<text text-anchor="start" x="389" y="-488" font-family="Helvetica,sans-Serif" font-size="10.00">Ra::Asset::AnimationTime</text>
<text text-anchor="middle" x="447" y="-477" font-family="Helvetica,sans-Serif" font-size="10.00">::setStart</text>
</a>
</g>
</g>
<!-- Node7&#45;&gt;Node8 -->
<g id="edge7" class="edge"><title>Node7&#45;&gt;Node8</title>
<path fill="none" stroke="midnightblue" d="M335.515,-468.788C347.128,-470.492 359.151,-472.256 370.802,-473.966"/>
<polygon fill="midnightblue" stroke="midnightblue" points="370.523,-477.462 380.925,-475.451 371.539,-470.536 370.523,-477.462"/>
</g>
<!-- Node9 -->
<g id="node9" class="node"><title>Node9</title>
<g id="a_node9"><a xlink:href="classRa_1_1Asset_1_1AnimationTime.html#a99e02d1a87c8a6b61d1826592e191e50" target="_top" xlink:title="Ra::Asset::AnimationTime\l::setEnd">
<polygon fill="white" stroke="black" points="381,-519 381,-549 513,-549 513,-519 381,-519"/>
<text text-anchor="start" x="389" y="-537" font-family="Helvetica,sans-Serif" font-size="10.00">Ra::Asset::AnimationTime</text>
<text text-anchor="middle" x="447" y="-526" font-family="Helvetica,sans-Serif" font-size="10.00">::setEnd</text>
</a>
</g>
</g>
<!-- Node7&#45;&gt;Node9 -->
<g id="edge8" class="edge"><title>Node7&#45;&gt;Node9</title>
<path fill="none" stroke="midnightblue" d="M313.384,-473.12C321.123,-476.034 328.887,-479.336 336,-483 353.546,-492.038 354.454,-499.962 372,-509 376.223,-511.175 380.676,-513.223 385.217,-515.138"/>
<polygon fill="midnightblue" stroke="midnightblue" points="384.03,-518.433 394.616,-518.88 386.62,-511.929 384.03,-518.433"/>
</g>
<!-- Node10 -->
<g id="node10" class="node"><title>Node10</title>
<g id="a_node10"><a xlink:href="classRa_1_1Asset_1_1AnimationData.html#ada0a04150c4c9051261d95fcad8b78db" target="_top" xlink:title="Ra::Asset::AnimationData\l::setTime">
<polygon fill="white" stroke="black" points="381.5,-421 381.5,-451 512.5,-451 512.5,-421 381.5,-421"/>
<text text-anchor="start" x="389.5" y="-439" font-family="Helvetica,sans-Serif" font-size="10.00">Ra::Asset::AnimationData</text>
<text text-anchor="middle" x="447" y="-428" font-family="Helvetica,sans-Serif" font-size="10.00">::setTime</text>
</a>
</g>
</g>
<!-- Node7&#45;&gt;Node10 -->
<g id="edge9" class="edge"><title>Node7&#45;&gt;Node10</title>
<path fill="none" stroke="midnightblue" d="M335.515,-449.21C347.206,-447.812 359.311,-446.365 371.035,-444.963"/>
<polygon fill="midnightblue" stroke="midnightblue" points="371.705,-448.408 381.219,-443.746 370.874,-441.458 371.705,-448.408"/>
</g>
<!-- Node11 -->
<g id="node11" class="node"><title>Node11</title>
<g id="a_node11"><a xlink:href="classRa_1_1Asset_1_1AnimationData.html#a7a56f036e3a6b2a7db50ae0bd3a0fb32" target="_top" xlink:title="Ra::Asset::AnimationData\l::setTimeStep">
<polygon fill="white" stroke="black" points="381.5,-607 381.5,-637 512.5,-637 512.5,-607 381.5,-607"/>
<text text-anchor="start" x="389.5" y="-625" font-family="Helvetica,sans-Serif" font-size="10.00">Ra::Asset::AnimationData</text>
<text text-anchor="middle" x="447" y="-614" font-family="Helvetica,sans-Serif" font-size="10.00">::setTimeStep</text>
</a>
</g>
</g>
<!-- Node7&#45;&gt;Node11 -->
<g id="edge10" class="edge"><title>Node7&#45;&gt;Node11</title>
<path fill="none" stroke="midnightblue" d="M321.37,-473.095C326.646,-475.863 331.634,-479.135 336,-483 363.687,-507.506 349.546,-528.624 372,-558 384.33,-574.132 401.28,-589.153 415.847,-600.583"/>
<polygon fill="midnightblue" stroke="midnightblue" points="414.023,-603.594 424.096,-606.879 418.271,-598.029 414.023,-603.594"/>
</g>
<!-- Node12 -->
<g id="node12" class="node"><title>Node12</title>
<g id="a_node12"><a xlink:href="namespaceRa_1_1Core_1_1Algorithm.html#abebfe08bb2303204bea2baea8195439d" target="_top" xlink:title="Ra::Core::Algorithm\l::delta">
<polygon fill="white" stroke="black" points="569,-607 569,-637 673,-637 673,-607 569,-607"/>
<text text-anchor="start" x="577" y="-625" font-family="Helvetica,sans-Serif" font-size="10.00">Ra::Core::Algorithm</text>
<text text-anchor="middle" x="621" y="-614" font-family="Helvetica,sans-Serif" font-size="10.00">::delta</text>
</a>
</g>
</g>
<!-- Node11&#45;&gt;Node12 -->
<g id="edge11" class="edge"><title>Node11&#45;&gt;Node12</title>
<path fill="none" stroke="midnightblue" d="M512.536,-622C527.639,-622 543.685,-622 558.645,-622"/>
<polygon fill="midnightblue" stroke="midnightblue" points="558.803,-625.5 568.803,-622 558.803,-618.5 558.803,-625.5"/>
</g>
<!-- Node13&#45;&gt;Node2 -->
<g id="edge13" class="edge"><title>Node13&#45;&gt;Node2</title>
<path fill="none" stroke="midnightblue" d="M292.272,-297.892C314.067,-287.418 344.375,-273.67 372,-264 437.015,-241.242 455.632,-243.442 522,-225 540.721,-219.798 561.358,-213.74 578.846,-208.51"/>
<polygon fill="midnightblue" stroke="midnightblue" points="580.169,-211.767 588.741,-205.539 578.156,-205.063 580.169,-211.767"/>
</g>
<!-- Node13&#45;&gt;Node10 -->
<g id="edge25" class="edge"><title>Node13&#45;&gt;Node10</title>
<path fill="none" stroke="midnightblue" d="M275.127,-328.017C294.413,-349.241 332.424,-387.983 372,-411 375.627,-413.109 379.457,-415.074 383.39,-416.898"/>
<polygon fill="midnightblue" stroke="midnightblue" points="382.133,-420.167 392.703,-420.901 384.898,-413.736 382.133,-420.167"/>
</g>
<!-- Node14 -->
<g id="node14" class="node"><title>Node14</title>
<g id="a_node14"><a xlink:href="classRa_1_1Asset_1_1AnimationData.html#abbf0364d025ccbeb3ae77ef211c1e855" target="_top" xlink:title="TIME. ">
<polygon fill="white" stroke="black" points="381.5,-137 381.5,-167 512.5,-167 512.5,-137 381.5,-137"/>
<text text-anchor="start" x="389.5" y="-155" font-family="Helvetica,sans-Serif" font-size="10.00">Ra::Asset::AnimationData</text>
<text text-anchor="middle" x="447" y="-144" font-family="Helvetica,sans-Serif" font-size="10.00">::getTime</text>
</a>
</g>
</g>
<!-- Node13&#45;&gt;Node14 -->
<g id="edge14" class="edge"><title>Node13&#45;&gt;Node14</title>
<path fill="none" stroke="midnightblue" d="M270.149,-297.83C286.022,-269.692 323.795,-209.259 372,-176 374.267,-174.436 376.642,-172.969 379.094,-171.593"/>
<polygon fill="midnightblue" stroke="midnightblue" points="380.881,-174.613 388.251,-167.002 377.743,-168.355 380.881,-174.613"/>
</g>
<!-- Node15 -->
<g id="node15" class="node"><title>Node15</title>
<g id="a_node15"><a xlink:href="classRa_1_1IO_1_1AssimpAnimationDataLoader.html#a130765ba65955c0d5c3217f813c0a812" target="_top" xlink:title="Ra::IO::AssimpAnimationData\lLoader::fetchHandleAnimation">
<polygon fill="white" stroke="black" points="372.5,-274 372.5,-304 521.5,-304 521.5,-274 372.5,-274"/>
<text text-anchor="start" x="380.5" y="-292" font-family="Helvetica,sans-Serif" font-size="10.00">Ra::IO::AssimpAnimationData</text>
<text text-anchor="middle" x="447" y="-281" font-family="Helvetica,sans-Serif" font-size="10.00">Loader::fetchHandleAnimation</text>
</a>
</g>
</g>
<!-- Node13&#45;&gt;Node15 -->
<g id="edge15" class="edge"><title>Node13&#45;&gt;Node15</title>
<path fill="none" stroke="midnightblue" d="M335.515,-303.411C344.315,-302.263 353.351,-301.085 362.281,-299.92"/>
<polygon fill="midnightblue" stroke="midnightblue" points="362.838,-303.377 372.302,-298.613 361.933,-296.436 362.838,-303.377"/>
</g>
<!-- Node20 -->
<g id="node20" class="node"><title>Node20</title>
<g id="a_node20"><a xlink:href="classRa_1_1Asset_1_1AnimationData.html#adf6d483b196fea688300b82fc0c3d185" target="_top" xlink:title="Ra::Asset::AnimationData\l::getTimeStep">
<polygon fill="white" stroke="black" points="381.5,-372 381.5,-402 512.5,-402 512.5,-372 381.5,-372"/>
<text text-anchor="start" x="389.5" y="-390" font-family="Helvetica,sans-Serif" font-size="10.00">Ra::Asset::AnimationData</text>
<text text-anchor="middle" x="447" y="-379" font-family="Helvetica,sans-Serif" font-size="10.00">::getTimeStep</text>
</a>
</g>
</g>
<!-- Node13&#45;&gt;Node20 -->
<g id="edge21" class="edge"><title>Node13&#45;&gt;Node20</title>
<path fill="none" stroke="midnightblue" d="M293.915,-328.164C315.695,-338.277 345.322,-351.578 372,-362 377.583,-364.181 383.445,-366.354 389.322,-368.458"/>
<polygon fill="midnightblue" stroke="midnightblue" points="388.586,-371.909 399.181,-371.92 390.905,-365.304 388.586,-371.909"/>
</g>
<!-- Node21 -->
<g id="node21" class="node"><title>Node21</title>
<g id="a_node21"><a xlink:href="classRa_1_1Asset_1_1AnimationTime.html#a189ab9544e851ed6ab2d36a2b5d6a952" target="_top" xlink:title="Ra::Asset::AnimationTime\l::merge">
<polygon fill="white" stroke="black" points="381,-323 381,-353 513,-353 513,-323 381,-323"/>
<text text-anchor="start" x="389" y="-341" font-family="Helvetica,sans-Serif" font-size="10.00">Ra::Asset::AnimationTime</text>
<text text-anchor="middle" x="447" y="-330" font-family="Helvetica,sans-Serif" font-size="10.00">::merge</text>
</a>
</g>
</g>
<!-- Node13&#45;&gt;Node21 -->
<g id="edge22" class="edge"><title>Node13&#45;&gt;Node21</title>
<path fill="none" stroke="midnightblue" d="M335.515,-322.988C347.128,-324.566 359.151,-326.2 370.802,-327.783"/>
<polygon fill="midnightblue" stroke="midnightblue" points="370.545,-331.28 380.925,-329.158 371.487,-324.344 370.545,-331.28"/>
</g>
<!-- Node22 -->
<g id="node22" class="node"><title>Node22</title>
<g id="a_node22"><a xlink:href="classRa_1_1Asset_1_1AnimationData.html#ae05331a7e0461688bedfa79ce4e34b4e" target="_top" xlink:title="Ra::Asset::AnimationData\l::setFrames">
<polygon fill="white" stroke="black" points="381.5,-186 381.5,-216 512.5,-216 512.5,-186 381.5,-186"/>
<text text-anchor="start" x="389.5" y="-204" font-family="Helvetica,sans-Serif" font-size="10.00">Ra::Asset::AnimationData</text>
<text text-anchor="middle" x="447" y="-193" font-family="Helvetica,sans-Serif" font-size="10.00">::setFrames</text>
</a>
</g>
</g>
<!-- Node13&#45;&gt;Node22 -->
<g id="edge23" class="edge"><title>Node13&#45;&gt;Node22</title>
<path fill="none" stroke="midnightblue" d="M279.325,-297.869C300.221,-280.162 336.924,-250.752 372,-231 379.042,-227.035 386.714,-223.319 394.364,-219.946"/>
<polygon fill="midnightblue" stroke="midnightblue" points="395.804,-223.137 403.641,-216.007 393.068,-216.694 395.804,-223.137"/>
</g>
<!-- Node15&#45;&gt;Node6 -->
<g id="edge18" class="edge"><title>Node15&#45;&gt;Node6</title>
<path fill="none" stroke="midnightblue" d="M509.767,-304.178C514.187,-306.683 518.337,-309.601 522,-313 552.975,-341.744 538.715,-363.4 558,-401 573.112,-430.464 594.169,-462.617 607.439,-482.042"/>
<polygon fill="midnightblue" stroke="midnightblue" points="604.708,-484.246 613.268,-490.489 610.469,-480.27 604.708,-484.246"/>
</g>
<!-- Node16 -->
<g id="node16" class="node"><title>Node16</title>
<g id="a_node16"><a xlink:href="classRa_1_1Asset_1_1KeyFrame.html#a42442ed8c9ee7f7c24ef52ff62ee30ae" target="_top" xlink:title="RESET. ">
<polygon fill="white" stroke="black" points="565,-274 565,-304 677,-304 677,-274 565,-274"/>
<text text-anchor="start" x="573" y="-292" font-family="Helvetica,sans-Serif" font-size="10.00">Ra::Asset::KeyFrame</text>
<text text-anchor="middle" x="621" y="-281" font-family="Helvetica,sans-Serif" font-size="10.00">::reset</text>
</a>
</g>
</g>
<!-- Node15&#45;&gt;Node16 -->
<g id="edge16" class="edge"><title>Node15&#45;&gt;Node16</title>
<path fill="none" stroke="midnightblue" d="M521.942,-289C532.844,-289 544.009,-289 554.719,-289"/>
<polygon fill="midnightblue" stroke="midnightblue" points="554.824,-292.5 564.824,-289 554.824,-285.5 554.824,-292.5"/>
</g>
<!-- Node17 -->
<g id="node17" class="node"><title>Node17</title>
<g id="a_node17"><a xlink:href="classRa_1_1Asset_1_1KeyFrame.html#aea56e20481b32c5a81ff6d9eb34f9e97" target="_top" xlink:title="Ra::Asset::KeyFrame\l::insertKeyFrame">
<polygon fill="white" stroke="black" points="565,-225 565,-255 677,-255 677,-225 565,-225"/>
<text text-anchor="start" x="573" y="-243" font-family="Helvetica,sans-Serif" font-size="10.00">Ra::Asset::KeyFrame</text>
<text text-anchor="middle" x="621" y="-232" font-family="Helvetica,sans-Serif" font-size="10.00">::insertKeyFrame</text>
</a>
</g>
</g>
<!-- Node15&#45;&gt;Node17 -->
<g id="edge17" class="edge"><title>Node15&#45;&gt;Node17</title>
<path fill="none" stroke="midnightblue" d="M501.009,-273.899C518.831,-268.821 538.88,-263.11 557.37,-257.842"/>
<polygon fill="midnightblue" stroke="midnightblue" points="558.508,-261.158 567.166,-255.052 556.59,-254.425 558.508,-261.158"/>
</g>
<!-- Node18 -->
<g id="node18" class="node"><title>Node18</title>
<g id="a_node18"><a xlink:href="classRa_1_1Asset_1_1KeyFrame.html#a11502b1be2a8476d891058748a4158be" target="_top" xlink:title="Ra::Asset::KeyFrame\l::setAnimationTime">
<polygon fill="white" stroke="black" points="565,-362 565,-392 677,-392 677,-362 565,-362"/>
<text text-anchor="start" x="573" y="-380" font-family="Helvetica,sans-Serif" font-size="10.00">Ra::Asset::KeyFrame</text>
<text text-anchor="middle" x="621" y="-369" font-family="Helvetica,sans-Serif" font-size="10.00">::setAnimationTime</text>
</a>
</g>
</g>
<!-- Node15&#45;&gt;Node18 -->
<g id="edge19" class="edge"><title>Node15&#45;&gt;Node18</title>
<path fill="none" stroke="midnightblue" d="M504.743,-304.026C510.777,-306.602 516.654,-309.577 522,-313 541.866,-325.719 538.589,-338.596 558,-352 560.722,-353.879 563.606,-355.65 566.583,-357.313"/>
<polygon fill="midnightblue" stroke="midnightblue" points="565.223,-360.549 575.721,-361.98 568.407,-354.315 565.223,-360.549"/>
</g>
<!-- Node19 -->
<g id="node19" class="node"><title>Node19</title>
<g id="a_node19"><a xlink:href="classRa_1_1Asset_1_1KeyFrame.html#a061bfb7750328282a1965eb2fee01915" target="_top" xlink:title="Ra::Asset::KeyFrame::at">
<polygon fill="white" stroke="black" points="558,-323.5 558,-342.5 684,-342.5 684,-323.5 558,-323.5"/>
<text text-anchor="middle" x="621" y="-330.5" font-family="Helvetica,sans-Serif" font-size="10.00">Ra::Asset::KeyFrame::at</text>
</a>
</g>
</g>
<!-- Node15&#45;&gt;Node19 -->
<g id="edge20" class="edge"><title>Node15&#45;&gt;Node19</title>
<path fill="none" stroke="midnightblue" d="M506.712,-304.019C528.373,-309.56 552.61,-315.761 573.091,-321"/>
<polygon fill="midnightblue" stroke="midnightblue" points="572.26,-324.4 582.815,-323.488 573.995,-317.618 572.26,-324.4"/>
</g>
<!-- Node22&#45;&gt;Node2 -->
<g id="edge24" class="edge"><title>Node22&#45;&gt;Node2</title>
<path fill="none" stroke="midnightblue" d="M512.536,-199.124C531.83,-198.563 552.663,-197.957 570.804,-197.43"/>
<polygon fill="midnightblue" stroke="midnightblue" points="570.965,-200.927 580.859,-197.138 570.761,-193.93 570.965,-200.927"/>
</g>
<!-- Node24 -->
<g id="node24" class="node"><title>Node24</title>
<g id="a_node24"><a xlink:href="classRa_1_1Asset_1_1AnimationTime.html#adab2c237d3d61b3dac6189cc2a66155a" target="_top" xlink:title="TIME. ">
<polygon fill="white" stroke="black" points="381,-0 381,-30 513,-30 513,-0 381,-0"/>
<text text-anchor="start" x="389" y="-18" font-family="Helvetica,sans-Serif" font-size="10.00">Ra::Asset::AnimationTime</text>
<text text-anchor="middle" x="447" y="-7" font-family="Helvetica,sans-Serif" font-size="10.00">::getStart</text>
</a>
</g>
</g>
<!-- Node23&#45;&gt;Node24 -->
<g id="edge27" class="edge"><title>Node23&#45;&gt;Node24</title>
<path fill="none" stroke="midnightblue" d="M318.457,-48.9654C337.884,-43.7917 359.811,-37.9525 379.935,-32.5934"/>
<polygon fill="midnightblue" stroke="midnightblue" points="380.888,-35.9617 389.65,-30.0062 379.086,-29.1975 380.888,-35.9617"/>
</g>
<!-- Node25 -->
<g id="node25" class="node"><title>Node25</title>
<g id="a_node25"><a xlink:href="classRa_1_1Asset_1_1AnimationTime.html#a80aac004bfc4237dec4a36a83fe8466a" target="_top" xlink:title="Ra::Asset::AnimationTime\l::getEnd">
<polygon fill="white" stroke="black" points="381,-49 381,-79 513,-79 513,-49 381,-49"/>
<text text-anchor="start" x="389" y="-67" font-family="Helvetica,sans-Serif" font-size="10.00">Ra::Asset::AnimationTime</text>
<text text-anchor="middle" x="447" y="-56" font-family="Helvetica,sans-Serif" font-size="10.00">::getEnd</text>
</a>
</g>
</g>
<!-- Node23&#45;&gt;Node25 -->
<g id="edge28" class="edge"><title>Node23&#45;&gt;Node25</title>
<path fill="none" stroke="midnightblue" d="M326.613,-64C340.916,-64 356.19,-64 370.871,-64"/>
<polygon fill="midnightblue" stroke="midnightblue" points="370.921,-67.5001 380.921,-64 370.921,-60.5001 370.921,-67.5001"/>
</g>
</g>
</svg>
