<?xml version="1.0" encoding="UTF-8" standalone="no"?>
<!DOCTYPE svg PUBLIC "-//W3C//DTD SVG 1.1//EN"
 "http://www.w3.org/Graphics/SVG/1.1/DTD/svg11.dtd">
<!-- Generated by graphviz version 2.36.0 (20140111.2315)
 -->
<!-- Title: Ra::IO::AssimpGeometryDataLoader::fetchBoneWeights Pages: 1 -->
<svg width="326pt" height="87pt"
 viewBox="0.00 0.00 326.00 87.00" xmlns="http://www.w3.org/2000/svg" xmlns:xlink="http://www.w3.org/1999/xlink">
<g id="graph0" class="graph" transform="scale(1 1) rotate(0) translate(4 83)">
<title>Ra::IO::AssimpGeometryDataLoader::fetchBoneWeights</title>
<polygon fill="white" stroke="none" points="-4,4 -4,-83 322,-83 322,4 -4,4"/>
<!-- Node1 -->
<g id="node1" class="node"><title>Node1</title>
<polygon fill="#bfbfbf" stroke="black" points="0.5,-24 0.5,-54 149.5,-54 149.5,-24 0.5,-24"/>
<text text-anchor="start" x="8.5" y="-42" font-family="Helvetica,sans-Serif" font-size="10.00">Ra::IO::AssimpGeometryData</text>
<text text-anchor="middle" x="75" y="-31" font-family="Helvetica,sans-Serif" font-size="10.00">Loader::fetchBoneWeights</text>
</g>
<!-- Node2 -->
<g id="node2" class="node"><title>Node2</title>
<g id="a_node2"><a xlink:href="classRa_1_1Asset_1_1GeometryData.html#ad31c0f120d5e88c40afefa79c29ae28a" target="_top" xlink:title="DATA. ">
<polygon fill="white" stroke="black" points="186.5,-49 186.5,-79 317.5,-79 317.5,-49 186.5,-49"/>
<text text-anchor="start" x="194.5" y="-67" font-family="Helvetica,sans-Serif" font-size="10.00">Ra::Asset::GeometryData</text>
<text text-anchor="middle" x="252" y="-56" font-family="Helvetica,sans-Serif" font-size="10.00">::getVerticesSize</text>
</a>
</g>
</g>
<!-- Node1&#45;&gt;Node2 -->
<g id="edge1" class="edge"><title>Node1&#45;&gt;Node2</title>
<path fill="none" stroke="midnightblue" d="M149.709,-49.5298C158.437,-50.7767 167.352,-52.0504 176.097,-53.2996"/>
<polygon fill="midnightblue" stroke="midnightblue" points="175.867,-56.8022 186.262,-54.7517 176.857,-49.8726 175.867,-56.8022"/>
</g>
<!-- Node3 -->
<g id="node3" class="node"><title>Node3</title>
<g id="a_node3"><a xlink:href="classRa_1_1Asset_1_1GeometryData.html#ab05c8d598e2ab350724b45912422d5af" target="_top" xlink:title="Ra::Asset::GeometryData\l::setWeights">
<polygon fill="white" stroke="black" points="186.5,-0 186.5,-30 317.5,-30 317.5,-0 186.5,-0"/>
<text text-anchor="start" x="194.5" y="-18" font-family="Helvetica,sans-Serif" font-size="10.00">Ra::Asset::GeometryData</text>
<text text-anchor="middle" x="252" y="-7" font-family="Helvetica,sans-Serif" font-size="10.00">::setWeights</text>
</a>
</g>
</g>
<!-- Node1&#45;&gt;Node3 -->
<g id="edge2" class="edge"><title>Node1&#45;&gt;Node3</title>
<path fill="none" stroke="midnightblue" d="M149.709,-28.8914C158.437,-27.6944 167.352,-26.4717 176.097,-25.2724"/>
<polygon fill="midnightblue" stroke="midnightblue" points="176.83,-28.7047 186.262,-23.8784 175.879,-21.7696 176.83,-28.7047"/>
</g>
</g>
</svg>
