<?xml version="1.0" encoding="UTF-8" standalone="no"?>
<!DOCTYPE svg PUBLIC "-//W3C//DTD SVG 1.1//EN"
 "http://www.w3.org/Graphics/SVG/1.1/DTD/svg11.dtd">
<!-- Generated by graphviz version 2.36.0 (20140111.2315)
 -->
<!-- Title: Ra::Core::Tex::fetch Pages: 1 -->
<svg width="422pt" height="104pt"
 viewBox="0.00 0.00 422.00 104.00" xmlns="http://www.w3.org/2000/svg" xmlns:xlink="http://www.w3.org/1999/xlink">
<g id="graph0" class="graph" transform="scale(1 1) rotate(0) translate(4 100)">
<title>Ra::Core::Tex::fetch</title>
<polygon fill="white" stroke="none" points="-4,4 -4,-100 418,-100 418,4 -4,4"/>
<!-- Node1 -->
<g id="node1" class="node"><title>Node1</title>
<polygon fill="#bfbfbf" stroke="black" points="0.5,-38.5 0.5,-57.5 107.5,-57.5 107.5,-38.5 0.5,-38.5"/>
<text text-anchor="middle" x="54" y="-45.5" font-family="Helvetica,sans-Serif" font-size="10.00">Ra::Core::Tex::fetch</text>
</g>
<!-- Node2 -->
<g id="node2" class="node"><title>Node2</title>
<g id="a_node2"><a xlink:href="namespaceRa_1_1Core_1_1Vector.html#a9ee859e471c539559bec21b69ca4da7b" target="_top" xlink:title="Component&#45;wise trunc() function on a floating&#45;point vector. ">
<polygon fill="white" stroke="black" points="144.5,-76.5 144.5,-95.5 263.5,-95.5 263.5,-76.5 144.5,-76.5"/>
<text text-anchor="middle" x="204" y="-83.5" font-family="Helvetica,sans-Serif" font-size="10.00">Ra::Core::Vector::trunc</text>
</a>
</g>
</g>
<!-- Node1&#45;&gt;Node2 -->
<g id="edge1" class="edge"><title>Node1&#45;&gt;Node2</title>
<path fill="none" stroke="midnightblue" d="M92.3466,-57.589C111.701,-62.5583 135.53,-68.6767 156.113,-73.9613"/>
<polygon fill="midnightblue" stroke="midnightblue" points="155.366,-77.383 165.922,-76.4799 157.107,-70.6029 155.366,-77.383"/>
</g>
<!-- Node3 -->
<g id="node3" class="node"><title>Node3</title>
<g id="a_node3"><a xlink:href="namespaceRa_1_1Core.html#abc0a3625137098b67838fe52edd480f9" target="_top" xlink:title="SIZE. ">
<polygon fill="white" stroke="black" points="164,-38.5 164,-57.5 244,-57.5 244,-38.5 164,-38.5"/>
<text text-anchor="middle" x="204" y="-45.5" font-family="Helvetica,sans-Serif" font-size="10.00">Ra::Core::size</text>
</a>
</g>
</g>
<!-- Node1&#45;&gt;Node3 -->
<g id="edge2" class="edge"><title>Node1&#45;&gt;Node3</title>
<path fill="none" stroke="midnightblue" d="M107.596,-48C122.438,-48 138.538,-48 153.21,-48"/>
<polygon fill="midnightblue" stroke="midnightblue" points="153.603,-51.5001 163.603,-48 153.603,-44.5001 153.603,-51.5001"/>
</g>
<!-- Node4 -->
<g id="node4" class="node"><title>Node4</title>
<g id="a_node4"><a xlink:href="namespaceRa_1_1Core.html#a7ff443d568bf8d7cc3920a4db318ab77" target="_top" xlink:title="Ra::Core::interpolate">
<polygon fill="white" stroke="black" points="150.5,-0.5 150.5,-19.5 257.5,-19.5 257.5,-0.5 150.5,-0.5"/>
<text text-anchor="middle" x="204" y="-7.5" font-family="Helvetica,sans-Serif" font-size="10.00">Ra::Core::interpolate</text>
</a>
</g>
</g>
<!-- Node1&#45;&gt;Node4 -->
<g id="edge3" class="edge"><title>Node1&#45;&gt;Node4</title>
<path fill="none" stroke="midnightblue" d="M92.3466,-38.411C111.701,-33.4417 135.53,-27.3233 156.113,-22.0387"/>
<polygon fill="midnightblue" stroke="midnightblue" points="157.107,-25.3971 165.922,-19.5201 155.366,-18.617 157.107,-25.3971"/>
</g>
<!-- Node5 -->
<g id="node5" class="node"><title>Node5</title>
<g id="a_node5"><a xlink:href="namespaceRa_1_1Core_1_1Algorithm.html#aea294cdb6f4f0d85955bdcccb22886ec" target="_top" xlink:title="Ra::Core::Algorithm::t">
<polygon fill="white" stroke="black" points="300.5,-0.5 300.5,-19.5 413.5,-19.5 413.5,-0.5 300.5,-0.5"/>
<text text-anchor="middle" x="357" y="-7.5" font-family="Helvetica,sans-Serif" font-size="10.00">Ra::Core::Algorithm::t</text>
</a>
</g>
</g>
<!-- Node4&#45;&gt;Node5 -->
<g id="edge4" class="edge"><title>Node4&#45;&gt;Node5</title>
<path fill="none" stroke="midnightblue" d="M257.812,-10C268.253,-10 279.332,-10 290.143,-10"/>
<polygon fill="midnightblue" stroke="midnightblue" points="290.396,-13.5001 300.396,-10 290.396,-6.5001 290.396,-13.5001"/>
</g>
</g>
</svg>
