<?xml version="1.0" encoding="UTF-8" standalone="no"?>
<!DOCTYPE svg PUBLIC "-//W3C//DTD SVG 1.1//EN"
 "http://www.w3.org/Graphics/SVG/1.1/DTD/svg11.dtd">
<!-- Generated by graphviz version 2.36.0 (20140111.2315)
 -->
<!-- Title: Ra::IO::AssimpHandleDataLoader::loadHandleComponentData Pages: 1 -->
<svg width="452pt" height="195pt"
 viewBox="0.00 0.00 452.00 194.56" xmlns="http://www.w3.org/2000/svg" xmlns:xlink="http://www.w3.org/1999/xlink">
<g id="graph0" class="graph" transform="scale(1 1) rotate(0) translate(4 190.558)">
<title>Ra::IO::AssimpHandleDataLoader::loadHandleComponentData</title>
<polygon fill="white" stroke="none" points="-4,4 -4,-190.558 448,-190.558 448,4 -4,4"/>
<!-- Node1 -->
<g id="node1" class="node"><title>Node1</title>
<polygon fill="#bfbfbf" stroke="black" points="0,-93 0,-123 172,-123 172,-93 0,-93"/>
<text text-anchor="start" x="8" y="-111" font-family="Helvetica,sans-Serif" font-size="10.00">Ra::IO::AssimpHandleData</text>
<text text-anchor="middle" x="86" y="-100" font-family="Helvetica,sans-Serif" font-size="10.00">Loader::loadHandleComponentData</text>
</g>
<!-- Node2 -->
<g id="node2" class="node"><title>Node2</title>
<g id="a_node2"><a xlink:href="namespaceRa_1_1Core.html#abc0a3625137098b67838fe52edd480f9" target="_top" xlink:title="SIZE. ">
<polygon fill="white" stroke="black" points="364,-120.5 364,-139.5 444,-139.5 444,-120.5 364,-120.5"/>
<text text-anchor="middle" x="404" y="-127.5" font-family="Helvetica,sans-Serif" font-size="10.00">Ra::Core::size</text>
</a>
</g>
</g>
<!-- Node1&#45;&gt;Node2 -->
<g id="edge1" class="edge"><title>Node1&#45;&gt;Node2</title>
<path fill="none" stroke="midnightblue" d="M106.589,-123.247C129.439,-139.977 169.07,-165.81 208,-176 259.595,-189.505 276.672,-190.487 328,-176 348.696,-170.159 369.311,-156.831 383.675,-146.017"/>
<polygon fill="midnightblue" stroke="midnightblue" points="386.034,-148.615 391.756,-139.698 381.722,-143.101 386.034,-148.615"/>
</g>
<!-- Node3 -->
<g id="node3" class="node"><title>Node3</title>
<g id="a_node3"><a xlink:href="classRa_1_1Asset_1_1HandleData.html#ace178af654bd9751e7cc0122cf7e7a34" target="_top" xlink:title="Ra::Asset::HandleData\l::needEndNodes">
<polygon fill="white" stroke="black" points="208.5,-137 208.5,-167 327.5,-167 327.5,-137 208.5,-137"/>
<text text-anchor="start" x="216.5" y="-155" font-family="Helvetica,sans-Serif" font-size="10.00">Ra::Asset::HandleData</text>
<text text-anchor="middle" x="268" y="-144" font-family="Helvetica,sans-Serif" font-size="10.00">::needEndNodes</text>
</a>
</g>
</g>
<!-- Node1&#45;&gt;Node3 -->
<g id="edge2" class="edge"><title>Node1&#45;&gt;Node3</title>
<path fill="none" stroke="midnightblue" d="M148.442,-123.019C164.467,-126.936 181.839,-131.183 198.217,-135.186"/>
<polygon fill="midnightblue" stroke="midnightblue" points="197.72,-138.668 208.266,-137.643 199.383,-131.868 197.72,-138.668"/>
</g>
<!-- Node4 -->
<g id="node4" class="node"><title>Node4</title>
<g id="a_node4"><a xlink:href="namespaceRa_1_1IO.html#aef6c50424873964fcea0008be55d4a34" target="_top" xlink:title="Ra::IO::assimpToCore">
<polygon fill="white" stroke="black" points="210,-98.5 210,-117.5 326,-117.5 326,-98.5 210,-98.5"/>
<text text-anchor="middle" x="268" y="-105.5" font-family="Helvetica,sans-Serif" font-size="10.00">Ra::IO::assimpToCore</text>
</a>
</g>
</g>
<!-- Node1&#45;&gt;Node4 -->
<g id="edge3" class="edge"><title>Node1&#45;&gt;Node4</title>
<path fill="none" stroke="midnightblue" d="M172.256,-108C181.399,-108 190.609,-108 199.504,-108"/>
<polygon fill="midnightblue" stroke="midnightblue" points="199.78,-111.5 209.78,-108 199.78,-104.5 199.78,-111.5"/>
</g>
<!-- Node5 -->
<g id="node5" class="node"><title>Node5</title>
<g id="a_node5"><a xlink:href="classRa_1_1Asset_1_1HandleData.html#a5ba6a5c751773be688faae15b092359d" target="_top" xlink:title="Ra::Asset::HandleData\l::setComponents">
<polygon fill="white" stroke="black" points="208.5,-49 208.5,-79 327.5,-79 327.5,-49 208.5,-49"/>
<text text-anchor="start" x="216.5" y="-67" font-family="Helvetica,sans-Serif" font-size="10.00">Ra::Asset::HandleData</text>
<text text-anchor="middle" x="268" y="-56" font-family="Helvetica,sans-Serif" font-size="10.00">::setComponents</text>
</a>
</g>
</g>
<!-- Node1&#45;&gt;Node5 -->
<g id="edge4" class="edge"><title>Node1&#45;&gt;Node5</title>
<path fill="none" stroke="midnightblue" d="M148.442,-92.9808C164.467,-89.0636 181.839,-84.8171 198.217,-80.8135"/>
<polygon fill="midnightblue" stroke="midnightblue" points="199.383,-84.1318 208.266,-78.3573 197.72,-77.332 199.383,-84.1318"/>
</g>
<!-- Node6 -->
<g id="node6" class="node"><title>Node6</title>
<g id="a_node6"><a xlink:href="classRa_1_1Asset_1_1HandleData.html#a713b25fdea78737ec5e664a6aabc9549" target="_top" xlink:title="NAME TABLE. ">
<polygon fill="white" stroke="black" points="208.5,-0 208.5,-30 327.5,-30 327.5,-0 208.5,-0"/>
<text text-anchor="start" x="216.5" y="-18" font-family="Helvetica,sans-Serif" font-size="10.00">Ra::Asset::HandleData</text>
<text text-anchor="middle" x="268" y="-7" font-family="Helvetica,sans-Serif" font-size="10.00">::setNameTable</text>
</a>
</g>
</g>
<!-- Node1&#45;&gt;Node6 -->
<g id="edge6" class="edge"><title>Node1&#45;&gt;Node6</title>
<path fill="none" stroke="midnightblue" d="M112.055,-92.8375C136.224,-78.4714 174.04,-56.6732 208,-40 211.983,-38.0442 216.158,-36.091 220.368,-34.1869"/>
<polygon fill="midnightblue" stroke="midnightblue" points="221.847,-37.3598 229.578,-30.1152 219.016,-30.9575 221.847,-37.3598"/>
</g>
<!-- Node5&#45;&gt;Node2 -->
<g id="edge5" class="edge"><title>Node5&#45;&gt;Node2</title>
<path fill="none" stroke="midnightblue" d="M306.077,-79.0444C313.402,-82.2033 320.99,-85.609 328,-89 344.876,-97.1631 363.36,-107.254 377.755,-115.382"/>
<polygon fill="midnightblue" stroke="midnightblue" points="376.145,-118.492 386.566,-120.4 379.609,-112.41 376.145,-118.492"/>
</g>
</g>
</svg>
