<?xml version="1.0" encoding="UTF-8" standalone="no"?>
<!DOCTYPE svg PUBLIC "-//W3C//DTD SVG 1.1//EN"
 "http://www.w3.org/Graphics/SVG/1.1/DTD/svg11.dtd">
<!-- Generated by graphviz version 2.36.0 (20140111.2315)
 -->
<!-- Title: SkinningPlugin::SkinningComponent::setupSkinningType Pages: 1 -->
<svg width="952pt" height="475pt"
 viewBox="0.00 0.00 952.00 475.00" xmlns="http://www.w3.org/2000/svg" xmlns:xlink="http://www.w3.org/1999/xlink">
<g id="graph0" class="graph" transform="scale(1 1) rotate(0) translate(4 471)">
<title>SkinningPlugin::SkinningComponent::setupSkinningType</title>
<polygon fill="white" stroke="none" points="-4,4 -4,-471 948,-471 948,4 -4,4"/>
<!-- Node1 -->
<g id="node1" class="node"><title>Node1</title>
<polygon fill="#bfbfbf" stroke="black" points="0,-189 0,-219 156,-219 156,-189 0,-189"/>
<text text-anchor="start" x="8" y="-207" font-family="Helvetica,sans-Serif" font-size="10.00">SkinningPlugin::Skinning</text>
<text text-anchor="middle" x="78" y="-196" font-family="Helvetica,sans-Serif" font-size="10.00">Component::setupSkinningType</text>
</g>
<!-- Node2 -->
<g id="node2" class="node"><title>Node2</title>
<g id="a_node2"><a xlink:href="namespaceRa_1_1Core_1_1Animation.html#a40700cdabdd47fdb360f6bbfe692b36d" target="_top" xlink:title="Compute the optimal center of rotations (1 per vertex) based on weight similarity. ">
<polygon fill="white" stroke="black" points="192,-189 192,-219 298,-219 298,-189 192,-189"/>
<text text-anchor="start" x="200" y="-207" font-family="Helvetica,sans-Serif" font-size="10.00">Ra::Core::Animation</text>
<text text-anchor="middle" x="245" y="-196" font-family="Helvetica,sans-Serif" font-size="10.00">::computeCoR</text>
</a>
</g>
</g>
<!-- Node1&#45;&gt;Node2 -->
<g id="edge1" class="edge"><title>Node1&#45;&gt;Node2</title>
<path fill="none" stroke="midnightblue" d="M156.186,-204C164.772,-204 173.436,-204 181.803,-204"/>
<polygon fill="midnightblue" stroke="midnightblue" points="181.835,-207.5 191.835,-204 181.835,-200.5 181.835,-207.5"/>
</g>
<!-- Node3 -->
<g id="node3" class="node"><title>Node3</title>
<g id="a_node3"><a xlink:href="classRa_1_1Core_1_1TriangleMesh.html#a21ae39474fd85af3bfbcceb34e29d8ad" target="_top" xlink:title="Copy only the mesh faces and geometry. ">
<polygon fill="white" stroke="black" points="338.5,-388 338.5,-418 459.5,-418 459.5,-388 338.5,-388"/>
<text text-anchor="start" x="346.5" y="-406" font-family="Helvetica,sans-Serif" font-size="10.00">Ra::Core::TriangleMesh</text>
<text text-anchor="middle" x="399" y="-395" font-family="Helvetica,sans-Serif" font-size="10.00">::copyBaseGeometry</text>
</a>
</g>
</g>
<!-- Node2&#45;&gt;Node3 -->
<g id="edge2" class="edge"><title>Node2&#45;&gt;Node3</title>
<path fill="none" stroke="midnightblue" d="M254.259,-219.014C268.797,-244.881 300.6,-299.015 334,-340 345.909,-354.613 360.844,-369.475 373.291,-381.092"/>
<polygon fill="midnightblue" stroke="midnightblue" points="370.94,-383.684 380.671,-387.875 375.677,-378.531 370.94,-383.684"/>
</g>
<!-- Node7 -->
<g id="node7" class="node"><title>Node7</title>
<g id="a_node7"><a xlink:href="namespaceRa_1_1Core.html#a1992d0f90662705985222f69287915d0" target="_top" xlink:title="Ra::Core::convert">
<polygon fill="white" stroke="black" points="351.5,-311.5 351.5,-330.5 446.5,-330.5 446.5,-311.5 351.5,-311.5"/>
<text text-anchor="middle" x="399" y="-318.5" font-family="Helvetica,sans-Serif" font-size="10.00">Ra::Core::convert</text>
</a>
</g>
</g>
<!-- Node2&#45;&gt;Node7 -->
<g id="edge6" class="edge"><title>Node2&#45;&gt;Node7</title>
<path fill="none" stroke="midnightblue" d="M256.86,-219.232C272.033,-239.523 301.403,-275.368 334,-297 340.186,-301.105 347.171,-304.637 354.194,-307.631"/>
<polygon fill="midnightblue" stroke="midnightblue" points="353.138,-310.977 363.725,-311.383 355.702,-304.463 353.138,-310.977"/>
</g>
<!-- Node8 -->
<g id="node8" class="node"><title>Node8</title>
<g id="a_node8"><a xlink:href="classRa_1_1Core_1_1TriangleMesh.html#a495116f40cfec8bb6504698d786d4b8c" target="_top" xlink:title="Access the vertices positions. ">
<polygon fill="white" stroke="black" points="661.5,-245 661.5,-275 782.5,-275 782.5,-245 661.5,-245"/>
<text text-anchor="start" x="669.5" y="-263" font-family="Helvetica,sans-Serif" font-size="10.00">Ra::Core::TriangleMesh</text>
<text text-anchor="middle" x="722" y="-252" font-family="Helvetica,sans-Serif" font-size="10.00">::vertices</text>
</a>
</g>
</g>
<!-- Node2&#45;&gt;Node8 -->
<g id="edge14" class="edge"><title>Node2&#45;&gt;Node8</title>
<path fill="none" stroke="midnightblue" d="M298.091,-211.299C309.892,-212.898 322.372,-214.546 334,-216 444.771,-229.848 573.614,-244.133 651.155,-252.533"/>
<polygon fill="midnightblue" stroke="midnightblue" points="650.965,-256.033 661.283,-253.629 651.718,-249.074 650.965,-256.033"/>
</g>
<!-- Node11 -->
<g id="node11" class="node"><title>Node11</title>
<g id="a_node11"><a xlink:href="namespaceRa_1_1Core_1_1Algorithm.html#aea294cdb6f4f0d85955bdcccb22886ec" target="_top" xlink:title="Ra::Core::Algorithm::t">
<polygon fill="white" stroke="black" points="505.5,-273.5 505.5,-292.5 618.5,-292.5 618.5,-273.5 505.5,-273.5"/>
<text text-anchor="middle" x="562" y="-280.5" font-family="Helvetica,sans-Serif" font-size="10.00">Ra::Core::Algorithm::t</text>
</a>
</g>
</g>
<!-- Node2&#45;&gt;Node11 -->
<g id="edge15" class="edge"><title>Node2&#45;&gt;Node11</title>
<path fill="none" stroke="midnightblue" d="M264.617,-219.183C281.597,-232.125 307.94,-250.016 334,-259 386.247,-277.011 448.932,-282.521 495.18,-283.805"/>
<polygon fill="midnightblue" stroke="midnightblue" points="495.305,-287.309 505.379,-284.028 495.458,-280.31 495.305,-287.309"/>
</g>
<!-- Node12 -->
<g id="node12" class="node"><title>Node12</title>
<g id="a_node12"><a xlink:href="namespaceOpenMesh.html#a8205f789ce08919bc11c58383574596c" target="_top" xlink:title="OpenMesh::norm">
<polygon fill="white" stroke="black" points="676,-101.5 676,-120.5 768,-120.5 768,-101.5 676,-101.5"/>
<text text-anchor="middle" x="722" y="-108.5" font-family="Helvetica,sans-Serif" font-size="10.00">OpenMesh::norm</text>
</a>
</g>
</g>
<!-- Node2&#45;&gt;Node12 -->
<g id="edge12" class="edge"><title>Node2&#45;&gt;Node12</title>
<path fill="none" stroke="midnightblue" d="M259.865,-188.896C275.917,-172.556 304.018,-147.327 334,-136 445.964,-93.703 589.043,-98.0937 666.035,-104.727"/>
<polygon fill="midnightblue" stroke="midnightblue" points="665.721,-108.213 675.997,-105.63 666.353,-101.242 665.721,-108.213"/>
</g>
<!-- Node13 -->
<g id="node13" class="node"><title>Node13</title>
<g id="a_node13"><a xlink:href="namespaceRa_1_1Core_1_1DcelOperations.html#aaded34dd44fea8859e294864900a11ed" target="_top" xlink:title="Ra::Core::DcelOperations\l::splitEdge">
<polygon fill="white" stroke="black" points="334,-49 334,-79 464,-79 464,-49 334,-49"/>
<text text-anchor="start" x="342" y="-67" font-family="Helvetica,sans-Serif" font-size="10.00">Ra::Core::DcelOperations</text>
<text text-anchor="middle" x="399" y="-56" font-family="Helvetica,sans-Serif" font-size="10.00">::splitEdge</text>
</a>
</g>
</g>
<!-- Node2&#45;&gt;Node13 -->
<g id="edge13" class="edge"><title>Node2&#45;&gt;Node13</title>
<path fill="none" stroke="midnightblue" d="M255.043,-188.644C269.307,-165.521 299.034,-121.543 334,-94 338.693,-90.303 343.916,-86.9272 349.298,-83.884"/>
<polygon fill="midnightblue" stroke="midnightblue" points="351.216,-86.8299 358.439,-79.0787 347.959,-80.6339 351.216,-86.8299"/>
</g>
<!-- Node14 -->
<g id="node14" class="node"><title>Node14</title>
<g id="a_node14"><a xlink:href="namespaceRa_1_1Core_1_1MeshUtils.html#afbee0fe3203a295fb1f93b33dfb33f81" target="_top" xlink:title="Fills the given array with the vertices of a given triangle. ">
<polygon fill="white" stroke="black" points="508.5,-186 508.5,-216 615.5,-216 615.5,-186 508.5,-186"/>
<text text-anchor="start" x="516.5" y="-204" font-family="Helvetica,sans-Serif" font-size="10.00">Ra::Core::MeshUtils</text>
<text text-anchor="middle" x="562" y="-193" font-family="Helvetica,sans-Serif" font-size="10.00">::getTriangleVertices</text>
</a>
</g>
</g>
<!-- Node2&#45;&gt;Node14 -->
<g id="edge16" class="edge"><title>Node2&#45;&gt;Node14</title>
<path fill="none" stroke="midnightblue" d="M298.016,-203.505C352.91,-202.982 439.442,-202.158 498.125,-201.599"/>
<polygon fill="midnightblue" stroke="midnightblue" points="498.415,-205.096 508.381,-201.501 498.348,-198.097 498.415,-205.096"/>
</g>
<!-- Node15 -->
<g id="node15" class="node"><title>Node15</title>
<g id="a_node15"><a xlink:href="namespaceRa_1_1Core_1_1MeshUtils.html#a746199d436bb1dc31c4bccb3953743b9" target="_top" xlink:title="Returns the area of a given triangle. ">
<polygon fill="white" stroke="black" points="345.5,-145 345.5,-175 452.5,-175 452.5,-145 345.5,-145"/>
<text text-anchor="start" x="353.5" y="-163" font-family="Helvetica,sans-Serif" font-size="10.00">Ra::Core::MeshUtils</text>
<text text-anchor="middle" x="399" y="-152" font-family="Helvetica,sans-Serif" font-size="10.00">::getTriangleArea</text>
</a>
</g>
</g>
<!-- Node2&#45;&gt;Node15 -->
<g id="edge18" class="edge"><title>Node2&#45;&gt;Node15</title>
<path fill="none" stroke="midnightblue" d="M297.885,-188.981C310.289,-185.39 323.65,-181.522 336.444,-177.819"/>
<polygon fill="midnightblue" stroke="midnightblue" points="337.459,-181.169 346.091,-175.026 335.512,-174.445 337.459,-181.169"/>
</g>
<!-- Node18 -->
<g id="node18" class="node"><title>Node18</title>
<g id="a_node18"><a xlink:href="namespaceRa_1_1Core_1_1Animation.html#a71236244c5603a8a5bc63595db9b7717" target="_top" xlink:title="Computes the similarity between two weights vector. ">
<polygon fill="white" stroke="black" points="346,-0 346,-30 452,-30 452,-0 346,-0"/>
<text text-anchor="start" x="354" y="-18" font-family="Helvetica,sans-Serif" font-size="10.00">Ra::Core::Animation</text>
<text text-anchor="middle" x="399" y="-7" font-family="Helvetica,sans-Serif" font-size="10.00">::weightSimilarity</text>
</a>
</g>
</g>
<!-- Node2&#45;&gt;Node18 -->
<g id="edge23" class="edge"><title>Node2&#45;&gt;Node18</title>
<path fill="none" stroke="midnightblue" d="M250.061,-188.955C259.456,-156.906 285.665,-81.3766 334,-39 335.35,-37.8168 336.763,-36.6896 338.228,-35.616"/>
<polygon fill="midnightblue" stroke="midnightblue" points="340.499,-38.3226 347.099,-30.0351 336.771,-32.3976 340.499,-38.3226"/>
</g>
<!-- Node4 -->
<g id="node4" class="node"><title>Node4</title>
<g id="a_node4"><a xlink:href="classRa_1_1Core_1_1TriangleMesh.html#aa838b995226a922fc10f2f8f4c6dec31" target="_top" xlink:title="Erases all data, making the mesh empty. ">
<polygon fill="white" stroke="black" points="501.5,-388 501.5,-418 622.5,-418 622.5,-388 501.5,-388"/>
<text text-anchor="start" x="509.5" y="-406" font-family="Helvetica,sans-Serif" font-size="10.00">Ra::Core::TriangleMesh</text>
<text text-anchor="middle" x="562" y="-395" font-family="Helvetica,sans-Serif" font-size="10.00">::clear</text>
</a>
</g>
</g>
<!-- Node3&#45;&gt;Node4 -->
<g id="edge3" class="edge"><title>Node3&#45;&gt;Node4</title>
<path fill="none" stroke="midnightblue" d="M459.95,-403C470.075,-403 480.665,-403 491.019,-403"/>
<polygon fill="midnightblue" stroke="midnightblue" points="491.268,-406.5 501.268,-403 491.268,-399.5 491.268,-406.5"/>
</g>
<!-- Node6 -->
<g id="node6" class="node"><title>Node6</title>
<g id="a_node6"><a xlink:href="classRa_1_1Core_1_1AttribManager.html#ab973dc08cbca7da7108c40bb56c4a708" target="_top" xlink:title="Base copy, does nothing. ">
<polygon fill="white" stroke="black" points="500.5,-437 500.5,-467 623.5,-467 623.5,-437 500.5,-437"/>
<text text-anchor="start" x="508.5" y="-455" font-family="Helvetica,sans-Serif" font-size="10.00">Ra::Core::AttribManager</text>
<text text-anchor="middle" x="562" y="-444" font-family="Helvetica,sans-Serif" font-size="10.00">::copyAttributes</text>
</a>
</g>
</g>
<!-- Node3&#45;&gt;Node6 -->
<g id="edge5" class="edge"><title>Node3&#45;&gt;Node6</title>
<path fill="none" stroke="midnightblue" d="M449.619,-418.101C466.07,-423.108 484.549,-428.732 501.657,-433.939"/>
<polygon fill="midnightblue" stroke="midnightblue" points="500.959,-437.385 511.545,-436.948 502.997,-430.688 500.959,-437.385"/>
</g>
<!-- Node5 -->
<g id="node5" class="node"><title>Node5</title>
<g id="a_node5"><a xlink:href="classRa_1_1Core_1_1AttribManager.html#ae53b7e22a2098c6151c6b2702569a3be" target="_top" xlink:title="clear all attribs, invalidate handles. ">
<polygon fill="white" stroke="black" points="660.5,-388 660.5,-418 783.5,-418 783.5,-388 660.5,-388"/>
<text text-anchor="start" x="668.5" y="-406" font-family="Helvetica,sans-Serif" font-size="10.00">Ra::Core::AttribManager</text>
<text text-anchor="middle" x="722" y="-395" font-family="Helvetica,sans-Serif" font-size="10.00">::clear</text>
</a>
</g>
</g>
<!-- Node4&#45;&gt;Node5 -->
<g id="edge4" class="edge"><title>Node4&#45;&gt;Node5</title>
<path fill="none" stroke="midnightblue" d="M622.733,-403C631.686,-403 640.99,-403 650.146,-403"/>
<polygon fill="midnightblue" stroke="midnightblue" points="650.395,-406.5 660.395,-403 650.395,-399.5 650.395,-406.5"/>
</g>
<!-- Node7&#45;&gt;Node8 -->
<g id="edge7" class="edge"><title>Node7&#45;&gt;Node8</title>
<path fill="none" stroke="midnightblue" d="M446.622,-321.403C492.439,-320.787 564.011,-317.102 624,-302 644.421,-296.859 666.024,-287.888 683.647,-279.554"/>
<polygon fill="midnightblue" stroke="midnightblue" points="685.526,-282.532 692.995,-275.018 682.47,-276.235 685.526,-282.532"/>
</g>
<!-- Node10 -->
<g id="node10" class="node"><title>Node10</title>
<g id="a_node10"><a xlink:href="classRa_1_1Core_1_1TriangleMesh.html#a40d31b7b2943947d6eac5d906f0182fd" target="_top" xlink:title="Access the vertices normals. ">
<polygon fill="white" stroke="black" points="661.5,-309 661.5,-339 782.5,-339 782.5,-309 661.5,-309"/>
<text text-anchor="start" x="669.5" y="-327" font-family="Helvetica,sans-Serif" font-size="10.00">Ra::Core::TriangleMesh</text>
<text text-anchor="middle" x="722" y="-316" font-family="Helvetica,sans-Serif" font-size="10.00">::normals</text>
</a>
</g>
</g>
<!-- Node7&#45;&gt;Node10 -->
<g id="edge9" class="edge"><title>Node7&#45;&gt;Node10</title>
<path fill="none" stroke="midnightblue" d="M446.663,-328.903C463.428,-331.379 482.512,-333.782 500,-335 554.978,-338.83 568.977,-338.11 624,-335 632.79,-334.503 642.008,-333.755 651.116,-332.878"/>
<polygon fill="midnightblue" stroke="midnightblue" points="651.731,-336.334 661.326,-331.84 651.023,-329.369 651.731,-336.334"/>
</g>
<!-- Node7&#45;&gt;Node11 -->
<g id="edge11" class="edge"><title>Node7&#45;&gt;Node11</title>
<path fill="none" stroke="midnightblue" d="M440.627,-311.411C461.968,-306.374 488.312,-300.156 510.908,-294.823"/>
<polygon fill="midnightblue" stroke="midnightblue" points="511.736,-298.224 520.665,-292.52 510.128,-291.411 511.736,-298.224"/>
</g>
<!-- Node9 -->
<g id="node9" class="node"><title>Node9</title>
<g id="a_node9"><a xlink:href="classRa_1_1Core_1_1AttribManager.html#aaa6088620425c1e1d74b50f1b50eb596" target="_top" xlink:title="Get attribute by handle. ">
<polygon fill="white" stroke="black" points="820.5,-284 820.5,-314 943.5,-314 943.5,-284 820.5,-284"/>
<text text-anchor="start" x="828.5" y="-302" font-family="Helvetica,sans-Serif" font-size="10.00">Ra::Core::AttribManager</text>
<text text-anchor="middle" x="882" y="-291" font-family="Helvetica,sans-Serif" font-size="10.00">::getAttrib</text>
</a>
</g>
</g>
<!-- Node8&#45;&gt;Node9 -->
<g id="edge8" class="edge"><title>Node8&#45;&gt;Node9</title>
<path fill="none" stroke="midnightblue" d="M782.733,-274.744C791.782,-276.978 801.19,-279.3 810.442,-281.584"/>
<polygon fill="midnightblue" stroke="midnightblue" points="809.848,-285.042 820.395,-284.041 811.525,-278.246 809.848,-285.042"/>
</g>
<!-- Node10&#45;&gt;Node9 -->
<g id="edge10" class="edge"><title>Node10&#45;&gt;Node9</title>
<path fill="none" stroke="midnightblue" d="M782.733,-314.549C791.782,-313.117 801.19,-311.628 810.442,-310.164"/>
<polygon fill="midnightblue" stroke="midnightblue" points="811.065,-313.609 820.395,-308.589 809.971,-306.695 811.065,-313.609"/>
</g>
<!-- Node14&#45;&gt;Node8 -->
<g id="edge17" class="edge"><title>Node14&#45;&gt;Node8</title>
<path fill="none" stroke="midnightblue" d="M603.279,-216.041C623.986,-223.773 649.409,-233.267 671.323,-241.45"/>
<polygon fill="midnightblue" stroke="midnightblue" points="670.202,-244.767 680.795,-244.987 672.651,-238.209 670.202,-244.767"/>
</g>
<!-- Node15&#45;&gt;Node14 -->
<g id="edge19" class="edge"><title>Node15&#45;&gt;Node14</title>
<path fill="none" stroke="midnightblue" d="M452.717,-173.425C467.387,-177.161 483.46,-181.254 498.627,-185.116"/>
<polygon fill="midnightblue" stroke="midnightblue" points="497.885,-188.539 508.439,-187.615 499.612,-181.755 497.885,-188.539"/>
</g>
<!-- Node16 -->
<g id="node16" class="node"><title>Node16</title>
<g id="a_node16"><a xlink:href="namespaceRa_1_1Core_1_1Geometry.html#a178f2b7309fe2ea5bc31a3abcb25368e" target="_top" xlink:title="Ra::Core::Geometry\l::triangleArea">
<polygon fill="white" stroke="black" points="509.5,-137 509.5,-167 614.5,-167 614.5,-137 509.5,-137"/>
<text text-anchor="start" x="517.5" y="-155" font-family="Helvetica,sans-Serif" font-size="10.00">Ra::Core::Geometry</text>
<text text-anchor="middle" x="562" y="-144" font-family="Helvetica,sans-Serif" font-size="10.00">::triangleArea</text>
</a>
</g>
</g>
<!-- Node15&#45;&gt;Node16 -->
<g id="edge20" class="edge"><title>Node15&#45;&gt;Node16</title>
<path fill="none" stroke="midnightblue" d="M452.717,-157.381C467.471,-156.647 483.643,-155.844 498.887,-155.086"/>
<polygon fill="midnightblue" stroke="midnightblue" points="499.449,-158.563 509.263,-154.571 499.101,-151.571 499.449,-158.563"/>
</g>
<!-- Node16&#45;&gt;Node12 -->
<g id="edge22" class="edge"><title>Node16&#45;&gt;Node12</title>
<path fill="none" stroke="midnightblue" d="M614.735,-138.575C633.96,-133.586 655.64,-127.961 674.38,-123.098"/>
<polygon fill="midnightblue" stroke="midnightblue" points="675.368,-126.457 684.168,-120.558 673.609,-119.682 675.368,-126.457"/>
</g>
<!-- Node17 -->
<g id="node17" class="node"><title>Node17</title>
<g id="a_node17"><a xlink:href="namespaceOpenMesh.html#a71e7f1dd3eac016d2b8245ac408a291c" target="_top" xlink:title="OpenMesh::cross">
<polygon fill="white" stroke="black" points="675,-142.5 675,-161.5 769,-161.5 769,-142.5 675,-142.5"/>
<text text-anchor="middle" x="722" y="-149.5" font-family="Helvetica,sans-Serif" font-size="10.00">OpenMesh::cross</text>
</a>
</g>
</g>
<!-- Node16&#45;&gt;Node17 -->
<g id="edge21" class="edge"><title>Node16&#45;&gt;Node17</title>
<path fill="none" stroke="midnightblue" d="M614.735,-152C630.608,-152 648.155,-152 664.338,-152"/>
<polygon fill="midnightblue" stroke="midnightblue" points="664.746,-155.5 674.746,-152 664.745,-148.5 664.746,-155.5"/>
</g>
</g>
</svg>
