<?xml version="1.0" encoding="UTF-8" standalone="no"?>
<!DOCTYPE svg PUBLIC "-//W3C//DTD SVG 1.1//EN"
 "http://www.w3.org/Graphics/SVG/1.1/DTD/svg11.dtd">
<!-- Generated by graphviz version 2.36.0 (20140111.2315)
 -->
<!-- Title: MeshFeatureTrackingPlugin::MeshFeatureTrackingComponent::initialize Pages: 1 -->
<svg width="1190pt" height="632pt"
 viewBox="0.00 0.00 1190.00 632.00" xmlns="http://www.w3.org/2000/svg" xmlns:xlink="http://www.w3.org/1999/xlink">
<g id="graph0" class="graph" transform="scale(1 1) rotate(0) translate(4 628)">
<title>MeshFeatureTrackingPlugin::MeshFeatureTrackingComponent::initialize</title>
<polygon fill="white" stroke="none" points="-4,4 -4,-628 1186,-628 1186,4 -4,4"/>
<!-- Node1 -->
<g id="node1" class="node"><title>Node1</title>
<polygon fill="#bfbfbf" stroke="black" points="0.5,-164.5 0.5,-205.5 167.5,-205.5 167.5,-164.5 0.5,-164.5"/>
<text text-anchor="start" x="8.5" y="-193.5" font-family="Helvetica,sans-Serif" font-size="10.00">MeshFeatureTrackingPlugin</text>
<text text-anchor="start" x="8.5" y="-182.5" font-family="Helvetica,sans-Serif" font-size="10.00">::MeshFeatureTrackingComponent</text>
<text text-anchor="middle" x="84" y="-171.5" font-family="Helvetica,sans-Serif" font-size="10.00">::initialize</text>
</g>
<!-- Node2 -->
<g id="node2" class="node"><title>Node2</title>
<g id="a_node2"><a xlink:href="namespaceRa_1_1Core_1_1MeshUtils.html#acf5b460cf3a22cd1e35eff5a5e1127ab" target="_top" xlink:title="Create a parametric spherical mesh of given radius. Template parameters set the resolution. ">
<polygon fill="white" stroke="black" points="220.5,-447 220.5,-477 345.5,-477 345.5,-447 220.5,-447"/>
<text text-anchor="start" x="228.5" y="-465" font-family="Helvetica,sans-Serif" font-size="10.00">Ra::Core::MeshUtils</text>
<text text-anchor="middle" x="283" y="-454" font-family="Helvetica,sans-Serif" font-size="10.00">::makeParametricSphere</text>
</a>
</g>
</g>
<!-- Node1&#45;&gt;Node2 -->
<g id="edge1" class="edge"><title>Node1&#45;&gt;Node2</title>
<path fill="none" stroke="midnightblue" d="M99.807,-205.82C135.757,-256.369 227.47,-385.325 265.297,-438.515"/>
<polygon fill="midnightblue" stroke="midnightblue" points="262.652,-440.834 271.3,-446.955 268.357,-436.777 262.652,-440.834"/>
</g>
<!-- Node16 -->
<g id="node16" class="node"><title>Node16</title>
<g id="a_node16"><a xlink:href="classRa_1_1Engine_1_1RenderObject.html#ae9cb914f351555a60d29e8d6afedc06b" target="_top" xlink:title="Sort of factory method to easily create a render object. ">
<polygon fill="white" stroke="black" points="217.5,-245 217.5,-275 348.5,-275 348.5,-245 217.5,-245"/>
<text text-anchor="start" x="225.5" y="-263" font-family="Helvetica,sans-Serif" font-size="10.00">Ra::Engine::RenderObject</text>
<text text-anchor="middle" x="283" y="-252" font-family="Helvetica,sans-Serif" font-size="10.00">::createRenderObject</text>
</a>
</g>
</g>
<!-- Node1&#45;&gt;Node16 -->
<g id="edge19" class="edge"><title>Node1&#45;&gt;Node16</title>
<path fill="none" stroke="midnightblue" d="M139.092,-205.593C168.462,-216.775 204.496,-230.493 233.032,-241.357"/>
<polygon fill="midnightblue" stroke="midnightblue" points="231.81,-244.637 242.401,-244.924 234.301,-238.095 231.81,-244.637"/>
</g>
<!-- Node19 -->
<g id="node19" class="node"><title>Node19</title>
<g id="a_node19"><a xlink:href="classRa_1_1Engine_1_1RenderObject.html#a62e0eb3a7de5a7d352b565a28260cc06" target="_top" xlink:title="Ra::Engine::RenderObject\l::setVisible">
<polygon fill="white" stroke="black" points="414.5,-196 414.5,-226 545.5,-226 545.5,-196 414.5,-196"/>
<text text-anchor="start" x="422.5" y="-214" font-family="Helvetica,sans-Serif" font-size="10.00">Ra::Engine::RenderObject</text>
<text text-anchor="middle" x="480" y="-203" font-family="Helvetica,sans-Serif" font-size="10.00">::setVisible</text>
</a>
</g>
</g>
<!-- Node1&#45;&gt;Node19 -->
<g id="edge29" class="edge"><title>Node1&#45;&gt;Node19</title>
<path fill="none" stroke="midnightblue" d="M167.595,-190.45C237.458,-195.061 336.698,-201.61 404.24,-206.067"/>
<polygon fill="midnightblue" stroke="midnightblue" points="404.174,-209.57 414.383,-206.736 404.635,-202.585 404.174,-209.57"/>
</g>
<!-- Node21 -->
<g id="node21" class="node"><title>Node21</title>
<g id="a_node21"><a xlink:href="classRa_1_1Engine_1_1RenderTechnique.html#a7d0c94a20081423baa758dd6e5b3f954" target="_top" xlink:title="Ra::Engine::RenderTechnique\l::createDefaultRenderTechnique">
<polygon fill="white" stroke="black" points="204,-147 204,-177 362,-177 362,-147 204,-147"/>
<text text-anchor="start" x="212" y="-165" font-family="Helvetica,sans-Serif" font-size="10.00">Ra::Engine::RenderTechnique</text>
<text text-anchor="middle" x="283" y="-154" font-family="Helvetica,sans-Serif" font-size="10.00">::createDefaultRenderTechnique</text>
</a>
</g>
</g>
<!-- Node1&#45;&gt;Node21 -->
<g id="edge24" class="edge"><title>Node1&#45;&gt;Node21</title>
<path fill="none" stroke="midnightblue" d="M167.689,-175.346C176.317,-174.339 185.111,-173.312 193.797,-172.298"/>
<polygon fill="midnightblue" stroke="midnightblue" points="194.4,-175.751 203.927,-171.115 193.589,-168.798 194.4,-175.751"/>
</g>
<!-- Node25 -->
<g id="node25" class="node"><title>Node25</title>
<g id="a_node25"><a xlink:href="classRa_1_1Engine_1_1RenderObject.html#ab80fe6e6565273eac1984ec6e213c354" target="_top" xlink:title="Ra::Engine::RenderObject\l::setPickable">
<polygon fill="white" stroke="black" points="217.5,-98 217.5,-128 348.5,-128 348.5,-98 217.5,-98"/>
<text text-anchor="start" x="225.5" y="-116" font-family="Helvetica,sans-Serif" font-size="10.00">Ra::Engine::RenderObject</text>
<text text-anchor="middle" x="283" y="-105" font-family="Helvetica,sans-Serif" font-size="10.00">::setPickable</text>
</a>
</g>
</g>
<!-- Node1&#45;&gt;Node25 -->
<g id="edge28" class="edge"><title>Node1&#45;&gt;Node25</title>
<path fill="none" stroke="midnightblue" d="M133.278,-164.443C154.769,-155.573 180.486,-145.343 204,-137 209.56,-135.027 215.375,-133.061 221.215,-131.152"/>
<polygon fill="midnightblue" stroke="midnightblue" points="222.575,-134.391 231.026,-128.001 220.435,-127.727 222.575,-134.391"/>
</g>
<!-- Node26 -->
<g id="node26" class="node"><title>Node26</title>
<g id="a_node26"><a xlink:href="classRa_1_1Engine_1_1Component.html#a8faa6f03b4a5a8bc30bb8ff402e6b61f" target="_top" xlink:title="Add a new render object to the component. This adds the RO to the manager for drawing. ">
<polygon fill="white" stroke="black" points="222,-25 222,-55 344,-55 344,-25 222,-25"/>
<text text-anchor="start" x="230" y="-43" font-family="Helvetica,sans-Serif" font-size="10.00">Ra::Engine::Component</text>
<text text-anchor="middle" x="283" y="-32" font-family="Helvetica,sans-Serif" font-size="10.00">::addRenderObject</text>
</a>
</g>
</g>
<!-- Node1&#45;&gt;Node26 -->
<g id="edge30" class="edge"><title>Node1&#45;&gt;Node26</title>
<path fill="none" stroke="midnightblue" d="M108.428,-164.347C131.915,-144.021 169.454,-112.547 204,-88 217.61,-78.3297 233.177,-68.5171 246.806,-60.3057"/>
<polygon fill="midnightblue" stroke="midnightblue" points="248.645,-63.2846 255.443,-55.1585 245.061,-57.2715 248.645,-63.2846"/>
</g>
<!-- Node3 -->
<g id="node3" class="node"><title>Node3</title>
<g id="a_node3"><a xlink:href="namespaceRa_1_1Core.html#a75b01d58a77f0045a477762d0b686b60" target="_top" xlink:title="VERTEX. ">
<polygon fill="white" stroke="black" points="445.5,-392.5 445.5,-411.5 514.5,-411.5 514.5,-392.5 445.5,-392.5"/>
<text text-anchor="middle" x="480" y="-399.5" font-family="Helvetica,sans-Serif" font-size="10.00">Ra::Core::V</text>
</a>
</g>
</g>
<!-- Node2&#45;&gt;Node3 -->
<g id="edge2" class="edge"><title>Node2&#45;&gt;Node3</title>
<path fill="none" stroke="midnightblue" d="M331.086,-446.923C351.612,-440.405 375.97,-432.741 398,-426 410.505,-422.173 424.125,-418.101 436.567,-414.418"/>
<polygon fill="midnightblue" stroke="midnightblue" points="437.649,-417.748 446.248,-411.56 435.667,-411.034 437.649,-417.748"/>
</g>
<!-- Node5 -->
<g id="node5" class="node"><title>Node5</title>
<g id="a_node5"><a xlink:href="classRa_1_1Core_1_1TriangleMesh.html#a495116f40cfec8bb6504698d786d4b8c" target="_top" xlink:title="Access the vertices positions. ">
<polygon fill="white" stroke="black" points="900.5,-470 900.5,-500 1021.5,-500 1021.5,-470 900.5,-470"/>
<text text-anchor="start" x="908.5" y="-488" font-family="Helvetica,sans-Serif" font-size="10.00">Ra::Core::TriangleMesh</text>
<text text-anchor="middle" x="961" y="-477" font-family="Helvetica,sans-Serif" font-size="10.00">::vertices</text>
</a>
</g>
</g>
<!-- Node2&#45;&gt;Node5 -->
<g id="edge4" class="edge"><title>Node2&#45;&gt;Node5</title>
<path fill="none" stroke="midnightblue" d="M345.783,-464.102C471.734,-468.387 757.45,-478.109 890.017,-482.619"/>
<polygon fill="midnightblue" stroke="midnightblue" points="889.948,-486.118 900.061,-482.961 890.186,-479.123 889.948,-486.118"/>
</g>
<!-- Node7 -->
<g id="node7" class="node"><title>Node7</title>
<g id="a_node7"><a xlink:href="classRa_1_1Core_1_1TriangleMesh.html#a40d31b7b2943947d6eac5d906f0182fd" target="_top" xlink:title="Access the vertices normals. ">
<polygon fill="white" stroke="black" points="598.5,-594 598.5,-624 719.5,-624 719.5,-594 598.5,-594"/>
<text text-anchor="start" x="606.5" y="-612" font-family="Helvetica,sans-Serif" font-size="10.00">Ra::Core::TriangleMesh</text>
<text text-anchor="middle" x="659" y="-601" font-family="Helvetica,sans-Serif" font-size="10.00">::normals</text>
</a>
</g>
</g>
<!-- Node2&#45;&gt;Node7 -->
<g id="edge6" class="edge"><title>Node2&#45;&gt;Node7</title>
<path fill="none" stroke="midnightblue" d="M296.207,-477.191C315.329,-499.848 354.668,-542.065 398,-563 458.103,-592.037 533.953,-602.924 588.19,-606.914"/>
<polygon fill="midnightblue" stroke="midnightblue" points="588.185,-610.422 598.398,-607.603 588.656,-603.438 588.185,-610.422"/>
</g>
<!-- Node8 -->
<g id="node8" class="node"><title>Node8</title>
<g id="a_node8"><a xlink:href="namespaceRa_1_1Core_1_1Vector.html#a42d87f3bd0658bac532d72f0ec528827" target="_top" xlink:title="Get the cosine of the angle between two vectors. ">
<polygon fill="white" stroke="black" points="423.5,-534.5 423.5,-553.5 536.5,-553.5 536.5,-534.5 423.5,-534.5"/>
<text text-anchor="middle" x="480" y="-541.5" font-family="Helvetica,sans-Serif" font-size="10.00">Ra::Core::Vector::cos</text>
</a>
</g>
</g>
<!-- Node2&#45;&gt;Node8 -->
<g id="edge8" class="edge"><title>Node2&#45;&gt;Node8</title>
<path fill="none" stroke="midnightblue" d="M307.596,-477.171C330.069,-491.046 365.234,-511.288 398,-524 405.584,-526.943 413.74,-529.557 421.85,-531.845"/>
<polygon fill="midnightblue" stroke="midnightblue" points="421.115,-535.271 431.68,-534.474 422.924,-528.509 421.115,-535.271"/>
</g>
<!-- Node9 -->
<g id="node9" class="node"><title>Node9</title>
<g id="a_node9"><a xlink:href="namespaceRa_1_1Core_1_1MeshUtils.html#a5398f7b15335cb47b83a2d573f277640" target="_top" xlink:title="Check that the mesh is well built, asserting when it is not. ">
<polygon fill="white" stroke="black" points="426.5,-485 426.5,-515 533.5,-515 533.5,-485 426.5,-485"/>
<text text-anchor="start" x="434.5" y="-503" font-family="Helvetica,sans-Serif" font-size="10.00">Ra::Core::MeshUtils</text>
<text text-anchor="middle" x="480" y="-492" font-family="Helvetica,sans-Serif" font-size="10.00">::checkConsistency</text>
</a>
</g>
</g>
<!-- Node2&#45;&gt;Node9 -->
<g id="edge9" class="edge"><title>Node2&#45;&gt;Node9</title>
<path fill="none" stroke="midnightblue" d="M345.699,-474.023C368.249,-478.418 393.765,-483.39 416.393,-487.8"/>
<polygon fill="midnightblue" stroke="midnightblue" points="415.745,-491.239 426.23,-489.717 417.084,-484.368 415.745,-491.239"/>
</g>
<!-- Node4 -->
<g id="node4" class="node"><title>Node4</title>
<g id="a_node4"><a xlink:href="namespaceRa_1_1Core.html#a6dd9d23e2286b21c927c0cee124c6c1e" target="_top" xlink:title="HALFEDGE. ">
<polygon fill="white" stroke="black" points="620.5,-392.5 620.5,-411.5 697.5,-411.5 697.5,-392.5 620.5,-392.5"/>
<text text-anchor="middle" x="659" y="-399.5" font-family="Helvetica,sans-Serif" font-size="10.00">Ra::Core::HE</text>
</a>
</g>
</g>
<!-- Node3&#45;&gt;Node4 -->
<g id="edge3" class="edge"><title>Node3&#45;&gt;Node4</title>
<path fill="none" stroke="midnightblue" d="M514.709,-402C541.716,-402 579.946,-402 610.126,-402"/>
<polygon fill="midnightblue" stroke="midnightblue" points="610.433,-405.5 620.433,-402 610.433,-398.5 610.433,-405.5"/>
</g>
<!-- Node6 -->
<g id="node6" class="node"><title>Node6</title>
<g id="a_node6"><a xlink:href="classRa_1_1Core_1_1AttribManager.html#aaa6088620425c1e1d74b50f1b50eb596" target="_top" xlink:title="Get attribute by handle. ">
<polygon fill="white" stroke="black" points="1058.5,-538 1058.5,-568 1181.5,-568 1181.5,-538 1058.5,-538"/>
<text text-anchor="start" x="1066.5" y="-556" font-family="Helvetica,sans-Serif" font-size="10.00">Ra::Core::AttribManager</text>
<text text-anchor="middle" x="1120" y="-545" font-family="Helvetica,sans-Serif" font-size="10.00">::getAttrib</text>
</a>
</g>
</g>
<!-- Node5&#45;&gt;Node6 -->
<g id="edge5" class="edge"><title>Node5&#45;&gt;Node6</title>
<path fill="none" stroke="midnightblue" d="M996.843,-500.091C1019.81,-510.04 1050.09,-523.155 1074.76,-533.838"/>
<polygon fill="midnightblue" stroke="midnightblue" points="1073.69,-537.188 1084.25,-537.951 1076.47,-530.765 1073.69,-537.188"/>
</g>
<!-- Node7&#45;&gt;Node6 -->
<g id="edge7" class="edge"><title>Node7&#45;&gt;Node6</title>
<path fill="none" stroke="midnightblue" d="M719.758,-612.615C792.207,-615.571 917.578,-616.093 1022,-593 1042.11,-588.553 1063.38,-580.232 1080.86,-572.326"/>
<polygon fill="midnightblue" stroke="midnightblue" points="1082.56,-575.395 1090.15,-568.004 1079.6,-569.049 1082.56,-575.395"/>
</g>
<!-- Node9&#45;&gt;Node5 -->
<g id="edge10" class="edge"><title>Node9&#45;&gt;Node5</title>
<path fill="none" stroke="midnightblue" d="M533.632,-498.352C620.274,-495.639 792.979,-490.23 889.887,-487.196"/>
<polygon fill="midnightblue" stroke="midnightblue" points="890.285,-490.685 900.17,-486.874 890.066,-483.688 890.285,-490.685"/>
</g>
<!-- Node9&#45;&gt;Node7 -->
<g id="edge18" class="edge"><title>Node9&#45;&gt;Node7</title>
<path fill="none" stroke="midnightblue" d="M533.843,-510.246C543.85,-513.804 553.753,-518.584 562,-525 586.245,-543.862 574.682,-564.003 598,-584 599.949,-585.671 602.025,-587.243 604.191,-588.719"/>
<polygon fill="midnightblue" stroke="midnightblue" points="602.532,-591.806 612.907,-593.953 606.135,-585.804 602.532,-591.806"/>
</g>
<!-- Node10 -->
<g id="node10" class="node"><title>Node10</title>
<g id="a_node10"><a xlink:href="namespaceRa_1_1Core_1_1Algorithm.html#aea294cdb6f4f0d85955bdcccb22886ec" target="_top" xlink:title="Ra::Core::Algorithm::t">
<polygon fill="white" stroke="black" points="602.5,-506.5 602.5,-525.5 715.5,-525.5 715.5,-506.5 602.5,-506.5"/>
<text text-anchor="middle" x="659" y="-513.5" font-family="Helvetica,sans-Serif" font-size="10.00">Ra::Core::Algorithm::t</text>
</a>
</g>
</g>
<!-- Node9&#45;&gt;Node10 -->
<g id="edge11" class="edge"><title>Node9&#45;&gt;Node10</title>
<path fill="none" stroke="midnightblue" d="M533.627,-504.757C552.11,-506.428 573.107,-508.326 592.516,-510.081"/>
<polygon fill="midnightblue" stroke="midnightblue" points="592.225,-513.568 602.5,-510.983 592.855,-506.597 592.225,-513.568"/>
</g>
<!-- Node11 -->
<g id="node11" class="node"><title>Node11</title>
<g id="a_node11"><a xlink:href="namespaceRa_1_1Core_1_1MeshUtils.html#a746199d436bb1dc31c4bccb3953743b9" target="_top" xlink:title="Returns the area of a given triangle. ">
<polygon fill="white" stroke="black" points="605.5,-545 605.5,-575 712.5,-575 712.5,-545 605.5,-545"/>
<text text-anchor="start" x="613.5" y="-563" font-family="Helvetica,sans-Serif" font-size="10.00">Ra::Core::MeshUtils</text>
<text text-anchor="middle" x="659" y="-552" font-family="Helvetica,sans-Serif" font-size="10.00">::getTriangleArea</text>
</a>
</g>
</g>
<!-- Node9&#45;&gt;Node11 -->
<g id="edge12" class="edge"><title>Node9&#45;&gt;Node11</title>
<path fill="none" stroke="midnightblue" d="M531.248,-515.078C541.455,-518.262 552.096,-521.669 562,-525 577.172,-530.104 593.576,-535.958 608.457,-541.399"/>
<polygon fill="midnightblue" stroke="midnightblue" points="607.395,-544.738 617.989,-544.904 609.811,-538.168 607.395,-544.738"/>
</g>
<!-- Node12 -->
<g id="node12" class="node"><title>Node12</title>
<g id="a_node12"><a xlink:href="namespaceRa_1_1Core_1_1MeshUtils.html#afbee0fe3203a295fb1f93b33dfb33f81" target="_top" xlink:title="Fills the given array with the vertices of a given triangle. ">
<polygon fill="white" stroke="black" points="756.5,-507 756.5,-537 863.5,-537 863.5,-507 756.5,-507"/>
<text text-anchor="start" x="764.5" y="-525" font-family="Helvetica,sans-Serif" font-size="10.00">Ra::Core::MeshUtils</text>
<text text-anchor="middle" x="810" y="-514" font-family="Helvetica,sans-Serif" font-size="10.00">::getTriangleVertices</text>
</a>
</g>
</g>
<!-- Node11&#45;&gt;Node12 -->
<g id="edge13" class="edge"><title>Node11&#45;&gt;Node12</title>
<path fill="none" stroke="midnightblue" d="M712.532,-546.603C723.548,-543.793 735.269,-540.804 746.605,-537.913"/>
<polygon fill="midnightblue" stroke="midnightblue" points="747.615,-541.267 756.44,-535.404 745.886,-534.484 747.615,-541.267"/>
</g>
<!-- Node13 -->
<g id="node13" class="node"><title>Node13</title>
<g id="a_node13"><a xlink:href="namespaceRa_1_1Core_1_1Geometry.html#a178f2b7309fe2ea5bc31a3abcb25368e" target="_top" xlink:title="Ra::Core::Geometry\l::triangleArea">
<polygon fill="white" stroke="black" points="757.5,-556 757.5,-586 862.5,-586 862.5,-556 757.5,-556"/>
<text text-anchor="start" x="765.5" y="-574" font-family="Helvetica,sans-Serif" font-size="10.00">Ra::Core::Geometry</text>
<text text-anchor="middle" x="810" y="-563" font-family="Helvetica,sans-Serif" font-size="10.00">::triangleArea</text>
</a>
</g>
</g>
<!-- Node11&#45;&gt;Node13 -->
<g id="edge15" class="edge"><title>Node11&#45;&gt;Node13</title>
<path fill="none" stroke="midnightblue" d="M712.532,-563.878C723.807,-564.711 735.82,-565.597 747.404,-566.453"/>
<polygon fill="midnightblue" stroke="midnightblue" points="747.213,-569.948 757.444,-567.194 747.729,-562.967 747.213,-569.948"/>
</g>
<!-- Node12&#45;&gt;Node5 -->
<g id="edge14" class="edge"><title>Node12&#45;&gt;Node5</title>
<path fill="none" stroke="midnightblue" d="M863.532,-508.955C872.269,-506.786 881.449,-504.506 890.529,-502.251"/>
<polygon fill="midnightblue" stroke="midnightblue" points="891.455,-505.628 900.317,-499.821 889.768,-498.834 891.455,-505.628"/>
</g>
<!-- Node14 -->
<g id="node14" class="node"><title>Node14</title>
<g id="a_node14"><a xlink:href="namespaceOpenMesh.html#a71e7f1dd3eac016d2b8245ac408a291c" target="_top" xlink:title="OpenMesh::cross">
<polygon fill="white" stroke="black" points="914,-564.5 914,-583.5 1008,-583.5 1008,-564.5 914,-564.5"/>
<text text-anchor="middle" x="961" y="-571.5" font-family="Helvetica,sans-Serif" font-size="10.00">OpenMesh::cross</text>
</a>
</g>
</g>
<!-- Node13&#45;&gt;Node14 -->
<g id="edge16" class="edge"><title>Node13&#45;&gt;Node14</title>
<path fill="none" stroke="midnightblue" d="M862.695,-572.041C875.957,-572.308 890.286,-572.596 903.764,-572.868"/>
<polygon fill="midnightblue" stroke="midnightblue" points="903.806,-576.369 913.874,-573.071 903.947,-569.371 903.806,-576.369"/>
</g>
<!-- Node15 -->
<g id="node15" class="node"><title>Node15</title>
<g id="a_node15"><a xlink:href="namespaceOpenMesh.html#a8205f789ce08919bc11c58383574596c" target="_top" xlink:title="OpenMesh::norm">
<polygon fill="white" stroke="black" points="915,-526.5 915,-545.5 1007,-545.5 1007,-526.5 915,-526.5"/>
<text text-anchor="middle" x="961" y="-533.5" font-family="Helvetica,sans-Serif" font-size="10.00">OpenMesh::norm</text>
</a>
</g>
</g>
<!-- Node13&#45;&gt;Node15 -->
<g id="edge17" class="edge"><title>Node13&#45;&gt;Node15</title>
<path fill="none" stroke="midnightblue" d="M862.695,-558.857C877.719,-555.328 894.113,-551.477 909.089,-547.959"/>
<polygon fill="midnightblue" stroke="midnightblue" points="910.261,-551.279 919.196,-545.585 908.66,-544.464 910.261,-551.279"/>
</g>
<!-- Node17 -->
<g id="node17" class="node"><title>Node17</title>
<g id="a_node17"><a xlink:href="classRa_1_1Engine_1_1RenderObject.html#acf300c8fdb55fee54d27b3fb46a1e523" target="_top" xlink:title="A &#45;1 (or any other negative value) lifetime is considered infinite, 0 is an &quot;invalid value&quot; (would ...">
<polygon fill="white" stroke="black" points="414.5,-294 414.5,-324 545.5,-324 545.5,-294 414.5,-294"/>
<text text-anchor="start" x="422.5" y="-312" font-family="Helvetica,sans-Serif" font-size="10.00">Ra::Engine::RenderObject</text>
<text text-anchor="middle" x="480" y="-301" font-family="Helvetica,sans-Serif" font-size="10.00">::RenderObject</text>
</a>
</g>
</g>
<!-- Node16&#45;&gt;Node17 -->
<g id="edge20" class="edge"><title>Node16&#45;&gt;Node17</title>
<path fill="none" stroke="midnightblue" d="M343.832,-275.035C364.608,-280.255 388.081,-286.154 409.567,-291.553"/>
<polygon fill="midnightblue" stroke="midnightblue" points="408.73,-294.951 419.282,-293.994 410.436,-288.162 408.73,-294.951"/>
</g>
<!-- Node18 -->
<g id="node18" class="node"><title>Node18</title>
<g id="a_node18"><a xlink:href="classRa_1_1Engine_1_1RenderObject.html#ae8e94954e783a2012fd774598af1eb52" target="_top" xlink:title="Ra::Engine::RenderObject\l::setMesh">
<polygon fill="white" stroke="black" points="414.5,-245 414.5,-275 545.5,-275 545.5,-245 414.5,-245"/>
<text text-anchor="start" x="422.5" y="-263" font-family="Helvetica,sans-Serif" font-size="10.00">Ra::Engine::RenderObject</text>
<text text-anchor="middle" x="480" y="-252" font-family="Helvetica,sans-Serif" font-size="10.00">::setMesh</text>
</a>
</g>
</g>
<!-- Node16&#45;&gt;Node18 -->
<g id="edge21" class="edge"><title>Node16&#45;&gt;Node18</title>
<path fill="none" stroke="midnightblue" d="M348.661,-260C366.434,-260 385.856,-260 404.151,-260"/>
<polygon fill="midnightblue" stroke="midnightblue" points="404.181,-263.5 414.181,-260 404.181,-256.5 404.181,-263.5"/>
</g>
<!-- Node16&#45;&gt;Node19 -->
<g id="edge22" class="edge"><title>Node16&#45;&gt;Node19</title>
<path fill="none" stroke="midnightblue" d="M343.832,-244.965C364.608,-239.745 388.081,-233.846 409.567,-228.447"/>
<polygon fill="midnightblue" stroke="midnightblue" points="410.436,-231.838 419.282,-226.006 408.73,-225.049 410.436,-231.838"/>
</g>
<!-- Node20 -->
<g id="node20" class="node"><title>Node20</title>
<g id="a_node20"><a xlink:href="classRa_1_1Engine_1_1RenderObject.html#ae1ea453e2b698cda9956586d11b9cfbd" target="_top" xlink:title="Ra::Engine::RenderObject\l::setRenderTechnique">
<polygon fill="white" stroke="black" points="414.5,-343 414.5,-373 545.5,-373 545.5,-343 414.5,-343"/>
<text text-anchor="start" x="422.5" y="-361" font-family="Helvetica,sans-Serif" font-size="10.00">Ra::Engine::RenderObject</text>
<text text-anchor="middle" x="480" y="-350" font-family="Helvetica,sans-Serif" font-size="10.00">::setRenderTechnique</text>
</a>
</g>
</g>
<!-- Node16&#45;&gt;Node20 -->
<g id="edge23" class="edge"><title>Node16&#45;&gt;Node20</title>
<path fill="none" stroke="midnightblue" d="M304.041,-275.222C326.085,-291.38 363.038,-316.776 398,-333 402.923,-335.284 408.108,-337.429 413.378,-339.428"/>
<polygon fill="midnightblue" stroke="midnightblue" points="412.322,-342.768 422.917,-342.865 414.695,-336.182 412.322,-342.768"/>
</g>
<!-- Node22 -->
<g id="node22" class="node"><title>Node22</title>
<g id="a_node22"><a xlink:href="namespaceRa_1_1Engine.html#ae16a1eeeb93530e2a7604d5a53e5fbc4" target="_top" xlink:title="Ra::Engine::RadiumDefault\lRenderTechnique">
<polygon fill="white" stroke="black" points="411.5,-98 411.5,-128 548.5,-128 548.5,-98 411.5,-98"/>
<text text-anchor="start" x="419.5" y="-116" font-family="Helvetica,sans-Serif" font-size="10.00">Ra::Engine::RadiumDefault</text>
<text text-anchor="middle" x="480" y="-105" font-family="Helvetica,sans-Serif" font-size="10.00">RenderTechnique</text>
</a>
</g>
</g>
<!-- Node21&#45;&gt;Node22 -->
<g id="edge25" class="edge"><title>Node21&#45;&gt;Node22</title>
<path fill="none" stroke="midnightblue" d="M343.832,-146.965C364.608,-141.745 388.081,-135.846 409.567,-130.447"/>
<polygon fill="midnightblue" stroke="midnightblue" points="410.436,-133.838 419.282,-128.006 408.73,-127.049 410.436,-133.838"/>
</g>
<!-- Node23 -->
<g id="node23" class="node"><title>Node23</title>
<g id="a_node23"><a xlink:href="classRa_1_1Engine_1_1RenderTechnique.html#a9bddcd20723ee582fd81c363b9148cf9" target="_top" xlink:title="Ra::Engine::RenderTechnique\l::setMaterial">
<polygon fill="white" stroke="black" points="406,-49 406,-79 554,-79 554,-49 406,-49"/>
<text text-anchor="start" x="414" y="-67" font-family="Helvetica,sans-Serif" font-size="10.00">Ra::Engine::RenderTechnique</text>
<text text-anchor="middle" x="480" y="-56" font-family="Helvetica,sans-Serif" font-size="10.00">::setMaterial</text>
</a>
</g>
</g>
<!-- Node21&#45;&gt;Node23 -->
<g id="edge26" class="edge"><title>Node21&#45;&gt;Node23</title>
<path fill="none" stroke="midnightblue" d="M344.631,-146.844C350.77,-144.075 356.69,-140.82 362,-137 383.936,-121.218 375.891,-103.539 398,-88 400.152,-86.4872 402.401,-85.0687 404.721,-83.7385"/>
<polygon fill="midnightblue" stroke="midnightblue" points="406.649,-86.6849 413.978,-79.0338 403.477,-80.4446 406.649,-86.6849"/>
</g>
<!-- Node24 -->
<g id="node24" class="node"><title>Node24</title>
<g id="a_node24"><a xlink:href="namespaceRa_1_1Engine_1_1EngineRenderTechniques.html#a5e831d5088144082e9bd3828323aa57a" target="_top" xlink:title="Ra::Engine::EngineRender\lTechniques::getDefaultTechnique">
<polygon fill="white" stroke="black" points="398.5,-147 398.5,-177 561.5,-177 561.5,-147 398.5,-147"/>
<text text-anchor="start" x="406.5" y="-165" font-family="Helvetica,sans-Serif" font-size="10.00">Ra::Engine::EngineRender</text>
<text text-anchor="middle" x="480" y="-154" font-family="Helvetica,sans-Serif" font-size="10.00">Techniques::getDefaultTechnique</text>
</a>
</g>
</g>
<!-- Node21&#45;&gt;Node24 -->
<g id="edge27" class="edge"><title>Node21&#45;&gt;Node24</title>
<path fill="none" stroke="midnightblue" d="M362.19,-162C370.72,-162 379.455,-162 388.12,-162"/>
<polygon fill="midnightblue" stroke="midnightblue" points="388.243,-165.5 398.243,-162 388.243,-158.5 388.243,-165.5"/>
</g>
<!-- Node27 -->
<g id="node27" class="node"><title>Node27</title>
<g id="a_node27"><a xlink:href="classRa_1_1Engine_1_1Component.html#a10b0bc182b76165744ebea603ae32dfe" target="_top" xlink:title="Shortcut to access the render object manager. ">
<polygon fill="white" stroke="black" points="419,-0 419,-30 541,-30 541,-0 419,-0"/>
<text text-anchor="start" x="427" y="-18" font-family="Helvetica,sans-Serif" font-size="10.00">Ra::Engine::Component</text>
<text text-anchor="middle" x="480" y="-7" font-family="Helvetica,sans-Serif" font-size="10.00">::getRoMgr</text>
</a>
</g>
</g>
<!-- Node26&#45;&gt;Node27 -->
<g id="edge31" class="edge"><title>Node26&#45;&gt;Node27</title>
<path fill="none" stroke="midnightblue" d="M344.098,-32.2952C364.485,-29.6814 387.445,-26.7378 408.565,-24.0302"/>
<polygon fill="midnightblue" stroke="midnightblue" points="409.291,-27.4657 418.765,-22.7224 408.401,-20.5226 409.291,-27.4657"/>
</g>
</g>
</svg>
