<?xml version="1.0" encoding="UTF-8" standalone="no"?>
<!DOCTYPE svg PUBLIC "-//W3C//DTD SVG 1.1//EN"
 "http://www.w3.org/Graphics/SVG/1.1/DTD/svg11.dtd">
<!-- Generated by graphviz version 2.36.0 (20140111.2315)
 -->
<!-- Title: Ra::IO::AssimpGeometryDataLoader::loadMeshData Pages: 1 -->
<svg width="522pt" height="714pt"
 viewBox="0.00 0.00 522.00 714.00" xmlns="http://www.w3.org/2000/svg" xmlns:xlink="http://www.w3.org/1999/xlink">
<g id="graph0" class="graph" transform="scale(1 1) rotate(0) translate(4 710)">
<title>Ra::IO::AssimpGeometryDataLoader::loadMeshData</title>
<polygon fill="white" stroke="none" points="-4,4 -4,-710 518,-710 518,4 -4,4"/>
<!-- Node1 -->
<g id="node1" class="node"><title>Node1</title>
<polygon fill="#bfbfbf" stroke="black" points="0.5,-343 0.5,-373 149.5,-373 149.5,-343 0.5,-343"/>
<text text-anchor="start" x="8.5" y="-361" font-family="Helvetica,sans-Serif" font-size="10.00">Ra::IO::AssimpGeometryData</text>
<text text-anchor="middle" x="75" y="-350" font-family="Helvetica,sans-Serif" font-size="10.00">Loader::loadMeshData</text>
</g>
<!-- Node2 -->
<g id="node2" class="node"><title>Node2</title>
<g id="a_node2"><a xlink:href="classRa_1_1IO_1_1AssimpGeometryDataLoader.html#a52df2ebcfac6c77d72d725f6833bccc8" target="_top" xlink:title="NAME. ">
<polygon fill="white" stroke="black" points="191.5,-588 191.5,-618 340.5,-618 340.5,-588 191.5,-588"/>
<text text-anchor="start" x="199.5" y="-606" font-family="Helvetica,sans-Serif" font-size="10.00">Ra::IO::AssimpGeometryData</text>
<text text-anchor="middle" x="266" y="-595" font-family="Helvetica,sans-Serif" font-size="10.00">Loader::fetchName</text>
</a>
</g>
</g>
<!-- Node1&#45;&gt;Node2 -->
<g id="edge1" class="edge"><title>Node1&#45;&gt;Node2</title>
<path fill="none" stroke="midnightblue" d="M79.2263,-373.072C88.4947,-412.707 118.944,-520.734 186,-578 187.962,-579.676 190.037,-581.239 192.2,-582.699"/>
<polygon fill="midnightblue" stroke="midnightblue" points="190.526,-585.774 200.921,-587.823 194.072,-579.739 190.526,-585.774"/>
</g>
<!-- Node5 -->
<g id="node5" class="node"><title>Node5</title>
<g id="a_node5"><a xlink:href="classRa_1_1IO_1_1AssimpGeometryDataLoader.html#a0da619e2173b7a422405fd1d2767af42" target="_top" xlink:title="TYPE. ">
<polygon fill="white" stroke="black" points="191.5,-656 191.5,-686 340.5,-686 340.5,-656 191.5,-656"/>
<text text-anchor="start" x="199.5" y="-674" font-family="Helvetica,sans-Serif" font-size="10.00">Ra::IO::AssimpGeometryData</text>
<text text-anchor="middle" x="266" y="-663" font-family="Helvetica,sans-Serif" font-size="10.00">Loader::fetchType</text>
</a>
</g>
</g>
<!-- Node1&#45;&gt;Node5 -->
<g id="edge4" class="edge"><title>Node1&#45;&gt;Node5</title>
<path fill="none" stroke="midnightblue" d="M78.5696,-373.256C86.7175,-417.495 115.705,-547.72 186,-627 194.547,-636.64 205.732,-644.62 216.986,-651.015"/>
<polygon fill="midnightblue" stroke="midnightblue" points="215.506,-654.192 225.977,-655.805 218.797,-648.014 215.506,-654.192"/>
</g>
<!-- Node7 -->
<g id="node7" class="node"><title>Node7</title>
<g id="a_node7"><a xlink:href="classRa_1_1IO_1_1AssimpGeometryDataLoader.html#ad369689491711d63ac789df228f4db94" target="_top" xlink:title="VERTEX. ">
<polygon fill="white" stroke="black" points="191.5,-539 191.5,-569 340.5,-569 340.5,-539 191.5,-539"/>
<text text-anchor="start" x="199.5" y="-557" font-family="Helvetica,sans-Serif" font-size="10.00">Ra::IO::AssimpGeometryData</text>
<text text-anchor="middle" x="266" y="-546" font-family="Helvetica,sans-Serif" font-size="10.00">Loader::fetchVertices</text>
</a>
</g>
</g>
<!-- Node1&#45;&gt;Node7 -->
<g id="edge6" class="edge"><title>Node1&#45;&gt;Node7</title>
<path fill="none" stroke="midnightblue" d="M81.5344,-373.061C94.5036,-406.269 130.058,-486.223 186,-529 188.435,-530.862 191.013,-532.588 193.692,-534.186"/>
<polygon fill="midnightblue" stroke="midnightblue" points="192.068,-537.287 202.544,-538.872 195.343,-531.1 192.068,-537.287"/>
</g>
<!-- Node13 -->
<g id="node13" class="node"><title>Node13</title>
<g id="a_node13"><a xlink:href="classRa_1_1Asset_1_1GeometryData.html#aedb628595b4768888ea0c02c37242ef7" target="_top" xlink:title="Ra::Asset::GeometryData\l::isLineMesh">
<polygon fill="white" stroke="black" points="200.5,-490 200.5,-520 331.5,-520 331.5,-490 200.5,-490"/>
<text text-anchor="start" x="208.5" y="-508" font-family="Helvetica,sans-Serif" font-size="10.00">Ra::Asset::GeometryData</text>
<text text-anchor="middle" x="266" y="-497" font-family="Helvetica,sans-Serif" font-size="10.00">::isLineMesh</text>
</a>
</g>
</g>
<!-- Node1&#45;&gt;Node13 -->
<g id="edge13" class="edge"><title>Node1&#45;&gt;Node13</title>
<path fill="none" stroke="midnightblue" d="M85.6169,-373.11C102.724,-398.792 140.913,-450.987 186,-480 189.149,-482.026 192.475,-483.899 195.908,-485.629"/>
<polygon fill="midnightblue" stroke="midnightblue" points="194.652,-488.903 205.202,-489.879 197.563,-482.537 194.652,-488.903"/>
</g>
<!-- Node14 -->
<g id="node14" class="node"><title>Node14</title>
<g id="a_node14"><a xlink:href="classRa_1_1IO_1_1AssimpGeometryDataLoader.html#ae1a8d24d2eff35f746cfdb4c5dbb740f" target="_top" xlink:title="EDGE. ">
<polygon fill="white" stroke="black" points="191.5,-441 191.5,-471 340.5,-471 340.5,-441 191.5,-441"/>
<text text-anchor="start" x="199.5" y="-459" font-family="Helvetica,sans-Serif" font-size="10.00">Ra::IO::AssimpGeometryData</text>
<text text-anchor="middle" x="266" y="-448" font-family="Helvetica,sans-Serif" font-size="10.00">Loader::fetchEdges</text>
</a>
</g>
</g>
<!-- Node1&#45;&gt;Node14 -->
<g id="edge14" class="edge"><title>Node1&#45;&gt;Node14</title>
<path fill="none" stroke="midnightblue" d="M95.2707,-373.223C116.484,-389.382 152.091,-414.779 186,-431 190.666,-433.232 195.579,-435.33 200.579,-437.288"/>
<polygon fill="midnightblue" stroke="midnightblue" points="199.663,-440.681 210.256,-440.878 202.098,-434.119 199.663,-440.681"/>
</g>
<!-- Node16 -->
<g id="node16" class="node"><title>Node16</title>
<g id="a_node16"><a xlink:href="classRa_1_1IO_1_1AssimpGeometryDataLoader.html#a7f554a1a591245ed063fdb5539e4669e" target="_top" xlink:title="FACE. ">
<polygon fill="white" stroke="black" points="191.5,-392 191.5,-422 340.5,-422 340.5,-392 191.5,-392"/>
<text text-anchor="start" x="199.5" y="-410" font-family="Helvetica,sans-Serif" font-size="10.00">Ra::IO::AssimpGeometryData</text>
<text text-anchor="middle" x="266" y="-399" font-family="Helvetica,sans-Serif" font-size="10.00">Loader::fetchFaces</text>
</a>
</g>
</g>
<!-- Node1&#45;&gt;Node16 -->
<g id="edge20" class="edge"><title>Node1&#45;&gt;Node16</title>
<path fill="none" stroke="midnightblue" d="M133.991,-373.035C154.037,-378.232 176.674,-384.101 197.421,-389.48"/>
<polygon fill="midnightblue" stroke="midnightblue" points="196.561,-392.872 207.119,-391.994 198.317,-386.096 196.561,-392.872"/>
</g>
<!-- Node18 -->
<g id="node18" class="node"><title>Node18</title>
<g id="a_node18"><a xlink:href="classRa_1_1Asset_1_1GeometryData.html#a2f6d8fbb107960e57e1986447cdff885" target="_top" xlink:title="Ra::Asset::GeometryData\l::isTetraMesh">
<polygon fill="white" stroke="black" points="200.5,-343 200.5,-373 331.5,-373 331.5,-343 200.5,-343"/>
<text text-anchor="start" x="208.5" y="-361" font-family="Helvetica,sans-Serif" font-size="10.00">Ra::Asset::GeometryData</text>
<text text-anchor="middle" x="266" y="-350" font-family="Helvetica,sans-Serif" font-size="10.00">::isTetraMesh</text>
</a>
</g>
</g>
<!-- Node1&#45;&gt;Node18 -->
<g id="edge26" class="edge"><title>Node1&#45;&gt;Node18</title>
<path fill="none" stroke="midnightblue" d="M149.614,-358C162.994,-358 176.962,-358 190.372,-358"/>
<polygon fill="midnightblue" stroke="midnightblue" points="190.498,-361.5 200.498,-358 190.498,-354.5 190.498,-361.5"/>
</g>
<!-- Node19 -->
<g id="node19" class="node"><title>Node19</title>
<g id="a_node19"><a xlink:href="classRa_1_1Asset_1_1GeometryData.html#acd7a4eb5fa51846e16a49d08a704a92d" target="_top" xlink:title="Ra::Asset::GeometryData\l::isHexMesh">
<polygon fill="white" stroke="black" points="200.5,-294 200.5,-324 331.5,-324 331.5,-294 200.5,-294"/>
<text text-anchor="start" x="208.5" y="-312" font-family="Helvetica,sans-Serif" font-size="10.00">Ra::Asset::GeometryData</text>
<text text-anchor="middle" x="266" y="-301" font-family="Helvetica,sans-Serif" font-size="10.00">::isHexMesh</text>
</a>
</g>
</g>
<!-- Node1&#45;&gt;Node19 -->
<g id="edge27" class="edge"><title>Node1&#45;&gt;Node19</title>
<path fill="none" stroke="midnightblue" d="M133.991,-342.965C154.037,-337.768 176.674,-331.899 197.421,-326.52"/>
<polygon fill="midnightblue" stroke="midnightblue" points="198.317,-329.904 207.119,-324.006 196.561,-323.128 198.317,-329.904"/>
</g>
<!-- Node20 -->
<g id="node20" class="node"><title>Node20</title>
<g id="a_node20"><a xlink:href="classRa_1_1IO_1_1AssimpGeometryDataLoader.html#a93585196c7817640e31447e229d83c6c" target="_top" xlink:title="POLYHEDRON. ">
<polygon fill="white" stroke="black" points="191.5,-245 191.5,-275 340.5,-275 340.5,-245 191.5,-245"/>
<text text-anchor="start" x="199.5" y="-263" font-family="Helvetica,sans-Serif" font-size="10.00">Ra::IO::AssimpGeometryData</text>
<text text-anchor="middle" x="266" y="-252" font-family="Helvetica,sans-Serif" font-size="10.00">Loader::fetchPolyhedron</text>
</a>
</g>
</g>
<!-- Node1&#45;&gt;Node20 -->
<g id="edge28" class="edge"><title>Node1&#45;&gt;Node20</title>
<path fill="none" stroke="midnightblue" d="M94.8136,-342.774C115.917,-326.328 151.698,-300.298 186,-284 190.042,-282.08 194.273,-280.271 198.587,-278.574"/>
<polygon fill="midnightblue" stroke="midnightblue" points="199.96,-281.798 208.121,-275.042 197.528,-275.234 199.96,-281.798"/>
</g>
<!-- Node21 -->
<g id="node21" class="node"><title>Node21</title>
<g id="a_node21"><a xlink:href="classRa_1_1IO_1_1AssimpGeometryDataLoader.html#a104cc1f1ccf9e9ba3c11f506e8b4947e" target="_top" xlink:title="NORMAL. ">
<polygon fill="white" stroke="black" points="191.5,-98 191.5,-128 340.5,-128 340.5,-98 191.5,-98"/>
<text text-anchor="start" x="199.5" y="-116" font-family="Helvetica,sans-Serif" font-size="10.00">Ra::IO::AssimpGeometryData</text>
<text text-anchor="middle" x="266" y="-105" font-family="Helvetica,sans-Serif" font-size="10.00">Loader::fetchNormals</text>
</a>
</g>
</g>
<!-- Node1&#45;&gt;Node21 -->
<g id="edge29" class="edge"><title>Node1&#45;&gt;Node21</title>
<path fill="none" stroke="midnightblue" d="M79.1677,-342.817C88.2924,-302.897 118.421,-194.146 186,-137 187.519,-135.716 189.105,-134.5 190.747,-133.35"/>
<polygon fill="midnightblue" stroke="midnightblue" points="192.63,-136.301 199.365,-128.122 189,-130.316 192.63,-136.301"/>
</g>
<!-- Node24 -->
<g id="node24" class="node"><title>Node24</title>
<g id="a_node24"><a xlink:href="classRa_1_1IO_1_1AssimpGeometryDataLoader.html#a394b1ea37658c2e6c0150c987c6e4b9f" target="_top" xlink:title="TANGENT. ">
<polygon fill="white" stroke="black" points="191.5,-196 191.5,-226 340.5,-226 340.5,-196 191.5,-196"/>
<text text-anchor="start" x="199.5" y="-214" font-family="Helvetica,sans-Serif" font-size="10.00">Ra::IO::AssimpGeometryData</text>
<text text-anchor="middle" x="266" y="-203" font-family="Helvetica,sans-Serif" font-size="10.00">Loader::fetchTangents</text>
</a>
</g>
</g>
<!-- Node1&#45;&gt;Node24 -->
<g id="edge34" class="edge"><title>Node1&#45;&gt;Node24</title>
<path fill="none" stroke="midnightblue" d="M85.5507,-342.708C102.557,-316.727 140.6,-263.974 186,-235 188.575,-233.356 191.269,-231.82 194.044,-230.385"/>
<polygon fill="midnightblue" stroke="midnightblue" points="195.559,-233.54 203.137,-226.136 192.596,-227.199 195.559,-233.54"/>
</g>
<!-- Node26 -->
<g id="node26" class="node"><title>Node26</title>
<g id="a_node26"><a xlink:href="classRa_1_1IO_1_1AssimpGeometryDataLoader.html#a438274cd5cf254ab710431b59ddd3396" target="_top" xlink:title="BITANGENT. ">
<polygon fill="white" stroke="black" points="191.5,-147 191.5,-177 340.5,-177 340.5,-147 191.5,-147"/>
<text text-anchor="start" x="199.5" y="-165" font-family="Helvetica,sans-Serif" font-size="10.00">Ra::IO::AssimpGeometryData</text>
<text text-anchor="middle" x="266" y="-154" font-family="Helvetica,sans-Serif" font-size="10.00">Loader::fetchBitangents</text>
</a>
</g>
</g>
<!-- Node1&#45;&gt;Node26 -->
<g id="edge38" class="edge"><title>Node1&#45;&gt;Node26</title>
<path fill="none" stroke="midnightblue" d="M81.4728,-342.804C94.3173,-309.306 129.636,-228.704 186,-186 187.857,-184.593 189.796,-183.269 191.8,-182.021"/>
<polygon fill="midnightblue" stroke="midnightblue" points="193.843,-184.893 200.944,-177.03 190.489,-178.749 193.843,-184.893"/>
</g>
<!-- Node28 -->
<g id="node28" class="node"><title>Node28</title>
<g id="a_node28"><a xlink:href="classRa_1_1IO_1_1AssimpGeometryDataLoader.html#afaae07a29263cd344435571cc964dac2" target="_top" xlink:title="TEXTURE COORDINATE. ">
<polygon fill="white" stroke="black" points="186.5,-49 186.5,-79 345.5,-79 345.5,-49 186.5,-49"/>
<text text-anchor="start" x="194.5" y="-67" font-family="Helvetica,sans-Serif" font-size="10.00">Ra::IO::AssimpGeometryData</text>
<text text-anchor="middle" x="266" y="-56" font-family="Helvetica,sans-Serif" font-size="10.00">Loader::fetchTextureCoordinates</text>
</a>
</g>
</g>
<!-- Node1&#45;&gt;Node28 -->
<g id="edge42" class="edge"><title>Node1&#45;&gt;Node28</title>
<path fill="none" stroke="midnightblue" d="M77.6459,-342.9C83.4201,-297.371 106.904,-160.139 186,-88 187.311,-86.8047 188.679,-85.6688 190.097,-84.5895"/>
<polygon fill="midnightblue" stroke="midnightblue" points="192.215,-87.3874 198.695,-79.0053 188.402,-81.5169 192.215,-87.3874"/>
</g>
<!-- Node3 -->
<g id="node3" class="node"><title>Node3</title>
<g id="a_node3"><a xlink:href="namespaceRa_1_1IO.html#aef6c50424873964fcea0008be55d4a34" target="_top" xlink:title="Ra::IO::assimpToCore">
<polygon fill="white" stroke="black" points="390,-299.5 390,-318.5 506,-318.5 506,-299.5 390,-299.5"/>
<text text-anchor="middle" x="448" y="-306.5" font-family="Helvetica,sans-Serif" font-size="10.00">Ra::IO::assimpToCore</text>
</a>
</g>
</g>
<!-- Node2&#45;&gt;Node3 -->
<g id="edge2" class="edge"><title>Node2&#45;&gt;Node3</title>
<path fill="none" stroke="midnightblue" d="M334.678,-587.847C338.889,-585.088 342.737,-581.834 346,-578 417.33,-494.186 312.668,-418.475 382,-333 385.06,-329.228 388.771,-326.049 392.852,-323.369"/>
<polygon fill="midnightblue" stroke="midnightblue" points="394.573,-326.417 401.659,-318.541 391.208,-320.279 394.573,-326.417"/>
</g>
<!-- Node4 -->
<g id="node4" class="node"><title>Node4</title>
<g id="a_node4"><a xlink:href="classRa_1_1Asset_1_1GeometryData.html#a243148184c6a5c3aeba47951f75fc73c" target="_top" xlink:title="NAME. ">
<polygon fill="white" stroke="black" points="382.5,-627 382.5,-657 513.5,-657 513.5,-627 382.5,-627"/>
<text text-anchor="start" x="390.5" y="-645" font-family="Helvetica,sans-Serif" font-size="10.00">Ra::Asset::GeometryData</text>
<text text-anchor="middle" x="448" y="-634" font-family="Helvetica,sans-Serif" font-size="10.00">::setName</text>
</a>
</g>
</g>
<!-- Node2&#45;&gt;Node4 -->
<g id="edge3" class="edge"><title>Node2&#45;&gt;Node4</title>
<path fill="none" stroke="midnightblue" d="M336.335,-618.023C348.173,-620.588 360.515,-623.262 372.481,-625.854"/>
<polygon fill="midnightblue" stroke="midnightblue" points="371.91,-629.312 382.425,-628.009 373.392,-622.47 371.91,-629.312"/>
</g>
<!-- Node6 -->
<g id="node6" class="node"><title>Node6</title>
<g id="a_node6"><a xlink:href="classRa_1_1Asset_1_1GeometryData.html#a23f044c78e92cc740444a06ab9690e3b" target="_top" xlink:title="Ra::Asset::GeometryData\l::setType">
<polygon fill="white" stroke="black" points="382.5,-676 382.5,-706 513.5,-706 513.5,-676 382.5,-676"/>
<text text-anchor="start" x="390.5" y="-694" font-family="Helvetica,sans-Serif" font-size="10.00">Ra::Asset::GeometryData</text>
<text text-anchor="middle" x="448" y="-683" font-family="Helvetica,sans-Serif" font-size="10.00">::setType</text>
</a>
</g>
</g>
<!-- Node5&#45;&gt;Node6 -->
<g id="edge5" class="edge"><title>Node5&#45;&gt;Node6</title>
<path fill="none" stroke="midnightblue" d="M340.732,-679.192C351.072,-680.341 361.708,-681.523 372.07,-682.674"/>
<polygon fill="midnightblue" stroke="midnightblue" points="371.994,-686.188 382.32,-683.813 372.768,-679.23 371.994,-686.188"/>
</g>
<!-- Node7&#45;&gt;Node3 -->
<g id="edge10" class="edge"><title>Node7&#45;&gt;Node3</title>
<path fill="none" stroke="midnightblue" d="M334.161,-538.948C338.549,-536.169 342.574,-532.883 346,-529 404.599,-462.588 324.985,-400.777 382,-333 385.173,-329.229 388.994,-326.05 393.176,-323.37"/>
<polygon fill="midnightblue" stroke="midnightblue" points="395.017,-326.354 402.174,-318.542 391.707,-320.186 395.017,-326.354"/>
</g>
<!-- Node8 -->
<g id="node8" class="node"><title>Node8</title>
<g id="a_node8"><a xlink:href="namespaceRa_1_1Core.html#abc0a3625137098b67838fe52edd480f9" target="_top" xlink:title="SIZE. ">
<polygon fill="white" stroke="black" points="408,-251.5 408,-270.5 488,-270.5 488,-251.5 408,-251.5"/>
<text text-anchor="middle" x="448" y="-258.5" font-family="Helvetica,sans-Serif" font-size="10.00">Ra::Core::size</text>
</a>
</g>
</g>
<!-- Node7&#45;&gt;Node8 -->
<g id="edge7" class="edge"><title>Node7&#45;&gt;Node8</title>
<path fill="none" stroke="midnightblue" d="M334.662,-538.834C338.877,-536.077 342.73,-532.828 346,-529 415.768,-447.32 316.963,-375.495 382,-290 386.629,-283.915 392.818,-279.077 399.542,-275.239"/>
<polygon fill="midnightblue" stroke="midnightblue" points="401.525,-278.164 408.946,-270.602 398.429,-271.885 401.525,-278.164"/>
</g>
<!-- Node9 -->
<g id="node9" class="node"><title>Node9</title>
<g id="a_node9"><a xlink:href="classRa_1_1Asset_1_1GeometryData.html#a20394106458e5e8deade13af0bec3ebb" target="_top" xlink:title="Ra::Asset::GeometryData\l::getVertices">
<polygon fill="white" stroke="black" points="382.5,-539 382.5,-569 513.5,-569 513.5,-539 382.5,-539"/>
<text text-anchor="start" x="390.5" y="-557" font-family="Helvetica,sans-Serif" font-size="10.00">Ra::Asset::GeometryData</text>
<text text-anchor="middle" x="448" y="-546" font-family="Helvetica,sans-Serif" font-size="10.00">::getVertices</text>
</a>
</g>
</g>
<!-- Node7&#45;&gt;Node9 -->
<g id="edge8" class="edge"><title>Node7&#45;&gt;Node9</title>
<path fill="none" stroke="midnightblue" d="M340.732,-554C351.072,-554 361.708,-554 372.07,-554"/>
<polygon fill="midnightblue" stroke="midnightblue" points="372.32,-557.5 382.32,-554 372.32,-550.5 372.32,-557.5"/>
</g>
<!-- Node10 -->
<g id="node10" class="node"><title>Node10</title>
<g id="a_node10"><a xlink:href="classRa_1_1Asset_1_1GeometryData.html#ad917f1a50860ee72fa2aa8f0d557c8c5" target="_top" xlink:title="DUPLICATES. ">
<polygon fill="white" stroke="black" points="382.5,-392 382.5,-422 513.5,-422 513.5,-392 382.5,-392"/>
<text text-anchor="start" x="390.5" y="-410" font-family="Helvetica,sans-Serif" font-size="10.00">Ra::Asset::GeometryData</text>
<text text-anchor="middle" x="448" y="-399" font-family="Helvetica,sans-Serif" font-size="10.00">::getDuplicateTable</text>
</a>
</g>
</g>
<!-- Node7&#45;&gt;Node10 -->
<g id="edge9" class="edge"><title>Node7&#45;&gt;Node10</title>
<path fill="none" stroke="midnightblue" d="M332.314,-538.918C337.29,-536.151 341.944,-532.876 346,-529 379.55,-496.945 349.217,-463.838 382,-431 383.062,-429.936 384.176,-428.918 385.333,-427.946"/>
<polygon fill="midnightblue" stroke="midnightblue" points="387.381,-430.784 393.526,-422.153 383.34,-425.069 387.381,-430.784"/>
</g>
<!-- Node11 -->
<g id="node11" class="node"><title>Node11</title>
<g id="a_node11"><a xlink:href="namespaceRa_1_1Core_1_1Algorithm.html#aea294cdb6f4f0d85955bdcccb22886ec" target="_top" xlink:title="Ra::Core::Algorithm::t">
<polygon fill="white" stroke="black" points="391.5,-588.5 391.5,-607.5 504.5,-607.5 504.5,-588.5 391.5,-588.5"/>
<text text-anchor="middle" x="448" y="-595.5" font-family="Helvetica,sans-Serif" font-size="10.00">Ra::Core::Algorithm::t</text>
</a>
</g>
</g>
<!-- Node7&#45;&gt;Node11 -->
<g id="edge11" class="edge"><title>Node7&#45;&gt;Node11</title>
<path fill="none" stroke="midnightblue" d="M328.442,-569.019C351.214,-574.586 376.706,-580.817 398.201,-586.071"/>
<polygon fill="midnightblue" stroke="midnightblue" points="397.54,-589.513 408.086,-588.488 399.203,-582.713 397.54,-589.513"/>
</g>
<!-- Node12 -->
<g id="node12" class="node"><title>Node12</title>
<g id="a_node12"><a xlink:href="classRa_1_1Asset_1_1GeometryData.html#ae7f137aae9b6723ff6b0fc7125b0fd35" target="_top" xlink:title="Ra::Asset::GeometryData\l::isLoadingDuplicates">
<polygon fill="white" stroke="black" points="382.5,-490 382.5,-520 513.5,-520 513.5,-490 382.5,-490"/>
<text text-anchor="start" x="390.5" y="-508" font-family="Helvetica,sans-Serif" font-size="10.00">Ra::Asset::GeometryData</text>
<text text-anchor="middle" x="448" y="-497" font-family="Helvetica,sans-Serif" font-size="10.00">::isLoadingDuplicates</text>
</a>
</g>
</g>
<!-- Node7&#45;&gt;Node12 -->
<g id="edge12" class="edge"><title>Node7&#45;&gt;Node12</title>
<path fill="none" stroke="midnightblue" d="M322.475,-538.899C341.297,-533.775 362.494,-528.004 381.991,-522.697"/>
<polygon fill="midnightblue" stroke="midnightblue" points="382.979,-526.055 391.708,-520.052 381.14,-519.301 382.979,-526.055"/>
</g>
<!-- Node14&#45;&gt;Node3 -->
<g id="edge17" class="edge"><title>Node14&#45;&gt;Node3</title>
<path fill="none" stroke="midnightblue" d="M332.314,-440.918C337.29,-438.151 341.944,-434.876 346,-431 379.55,-398.945 349.217,-365.838 382,-333 385.931,-329.063 390.563,-325.765 395.514,-323.004"/>
<polygon fill="midnightblue" stroke="midnightblue" points="397.195,-326.079 404.69,-318.591 394.161,-319.771 397.195,-326.079"/>
</g>
<!-- Node14&#45;&gt;Node8 -->
<g id="edge15" class="edge"><title>Node14&#45;&gt;Node8</title>
<path fill="none" stroke="midnightblue" d="M333.5,-440.909C338.095,-438.141 342.344,-434.869 346,-431 390.423,-383.993 340.306,-339.444 382,-290 387.209,-283.823 393.998,-278.909 401.22,-275.017"/>
<polygon fill="midnightblue" stroke="midnightblue" points="402.974,-278.059 410.512,-270.614 399.977,-271.733 402.974,-278.059"/>
</g>
<!-- Node14&#45;&gt;Node10 -->
<g id="edge19" class="edge"><title>Node14&#45;&gt;Node10</title>
<path fill="none" stroke="midnightblue" d="M322.475,-440.899C341.297,-435.775 362.494,-430.004 381.991,-424.697"/>
<polygon fill="midnightblue" stroke="midnightblue" points="382.979,-428.055 391.708,-422.052 381.14,-421.301 382.979,-428.055"/>
</g>
<!-- Node14&#45;&gt;Node12 -->
<g id="edge18" class="edge"><title>Node14&#45;&gt;Node12</title>
<path fill="none" stroke="midnightblue" d="M322.475,-471.101C341.297,-476.225 362.494,-481.996 381.991,-487.303"/>
<polygon fill="midnightblue" stroke="midnightblue" points="381.14,-490.699 391.708,-489.948 382.979,-483.945 381.14,-490.699"/>
</g>
<!-- Node15 -->
<g id="node15" class="node"><title>Node15</title>
<g id="a_node15"><a xlink:href="classRa_1_1Asset_1_1GeometryData.html#abe4083fd2256390f3d90734cc9003599" target="_top" xlink:title="Ra::Asset::GeometryData\l::getEdges">
<polygon fill="white" stroke="black" points="382.5,-441 382.5,-471 513.5,-471 513.5,-441 382.5,-441"/>
<text text-anchor="start" x="390.5" y="-459" font-family="Helvetica,sans-Serif" font-size="10.00">Ra::Asset::GeometryData</text>
<text text-anchor="middle" x="448" y="-448" font-family="Helvetica,sans-Serif" font-size="10.00">::getEdges</text>
</a>
</g>
</g>
<!-- Node14&#45;&gt;Node15 -->
<g id="edge16" class="edge"><title>Node14&#45;&gt;Node15</title>
<path fill="none" stroke="midnightblue" d="M340.732,-456C351.072,-456 361.708,-456 372.07,-456"/>
<polygon fill="midnightblue" stroke="midnightblue" points="372.32,-459.5 382.32,-456 372.32,-452.5 372.32,-459.5"/>
</g>
<!-- Node16&#45;&gt;Node3 -->
<g id="edge23" class="edge"><title>Node16&#45;&gt;Node3</title>
<path fill="none" stroke="midnightblue" d="M328.406,-391.913C334.625,-389.131 340.621,-385.855 346,-382 367.965,-366.258 360.413,-349.256 382,-333 387.488,-328.867 393.762,-325.384 400.199,-322.467"/>
<polygon fill="midnightblue" stroke="midnightblue" points="401.745,-325.615 409.673,-318.586 399.092,-319.138 401.745,-325.615"/>
</g>
<!-- Node16&#45;&gt;Node8 -->
<g id="edge21" class="edge"><title>Node16&#45;&gt;Node8</title>
<path fill="none" stroke="midnightblue" d="M332.227,-391.826C337.221,-389.078 341.903,-385.833 346,-382 378.063,-352.002 351.685,-321.763 382,-290 387.948,-283.768 395.477,-278.779 403.285,-274.819"/>
<polygon fill="midnightblue" stroke="midnightblue" points="404.846,-277.954 412.501,-270.63 401.949,-271.582 404.846,-277.954"/>
</g>
<!-- Node16&#45;&gt;Node10 -->
<g id="edge25" class="edge"><title>Node16&#45;&gt;Node10</title>
<path fill="none" stroke="midnightblue" d="M340.732,-407C351.072,-407 361.708,-407 372.07,-407"/>
<polygon fill="midnightblue" stroke="midnightblue" points="372.32,-410.5 382.32,-407 372.32,-403.5 372.32,-410.5"/>
</g>
<!-- Node16&#45;&gt;Node12 -->
<g id="edge24" class="edge"><title>Node16&#45;&gt;Node12</title>
<path fill="none" stroke="midnightblue" d="M330.42,-422.165C335.917,-424.68 341.203,-427.604 346,-431 368.056,-446.615 360.523,-463.599 382,-480 384.42,-481.848 386.994,-483.575 389.666,-485.186"/>
<polygon fill="midnightblue" stroke="midnightblue" points="388.013,-488.271 398.475,-489.945 391.341,-482.112 388.013,-488.271"/>
</g>
<!-- Node17 -->
<g id="node17" class="node"><title>Node17</title>
<g id="a_node17"><a xlink:href="classRa_1_1Asset_1_1GeometryData.html#acdad9f2b09a7d942db229ace49a4fea0" target="_top" xlink:title="Ra::Asset::GeometryData\l::getFaces">
<polygon fill="white" stroke="black" points="382.5,-343 382.5,-373 513.5,-373 513.5,-343 382.5,-343"/>
<text text-anchor="start" x="390.5" y="-361" font-family="Helvetica,sans-Serif" font-size="10.00">Ra::Asset::GeometryData</text>
<text text-anchor="middle" x="448" y="-350" font-family="Helvetica,sans-Serif" font-size="10.00">::getFaces</text>
</a>
</g>
</g>
<!-- Node16&#45;&gt;Node17 -->
<g id="edge22" class="edge"><title>Node16&#45;&gt;Node17</title>
<path fill="none" stroke="midnightblue" d="M322.475,-391.899C341.297,-386.775 362.494,-381.004 381.991,-375.697"/>
<polygon fill="midnightblue" stroke="midnightblue" points="382.979,-379.055 391.708,-373.052 381.14,-372.301 382.979,-379.055"/>
</g>
<!-- Node21&#45;&gt;Node3 -->
<g id="edge33" class="edge"><title>Node21&#45;&gt;Node3</title>
<path fill="none" stroke="midnightblue" d="M334.972,-128.111C339.002,-130.635 342.737,-133.575 346,-137 391.21,-184.449 339.835,-229.826 382,-280 387.199,-286.186 393.982,-291.104 401.202,-294.998"/>
<polygon fill="midnightblue" stroke="midnightblue" points="399.959,-298.282 410.494,-299.401 402.956,-291.956 399.959,-298.282"/>
</g>
<!-- Node21&#45;&gt;Node10 -->
<g id="edge32" class="edge"><title>Node21&#45;&gt;Node10</title>
<path fill="none" stroke="midnightblue" d="M336.086,-128.226C339.745,-130.729 343.101,-133.633 346,-137 417.813,-220.401 313.246,-296.06 382,-382 382.968,-383.21 384.001,-384.361 385.092,-385.456"/>
<polygon fill="midnightblue" stroke="midnightblue" points="383.055,-388.311 393.021,-391.909 387.474,-382.882 383.055,-388.311"/>
</g>
<!-- Node22 -->
<g id="node22" class="node"><title>Node22</title>
<g id="a_node22"><a xlink:href="classRa_1_1Asset_1_1GeometryData.html#a3b706a2f7490107865f20c4cb71c5777" target="_top" xlink:title="Ra::Asset::GeometryData\l::getNormals">
<polygon fill="white" stroke="black" points="382.5,-98 382.5,-128 513.5,-128 513.5,-98 382.5,-98"/>
<text text-anchor="start" x="390.5" y="-116" font-family="Helvetica,sans-Serif" font-size="10.00">Ra::Asset::GeometryData</text>
<text text-anchor="middle" x="448" y="-105" font-family="Helvetica,sans-Serif" font-size="10.00">::getNormals</text>
</a>
</g>
</g>
<!-- Node21&#45;&gt;Node22 -->
<g id="edge30" class="edge"><title>Node21&#45;&gt;Node22</title>
<path fill="none" stroke="midnightblue" d="M340.732,-113C351.072,-113 361.708,-113 372.07,-113"/>
<polygon fill="midnightblue" stroke="midnightblue" points="372.32,-116.5 382.32,-113 372.32,-109.5 372.32,-116.5"/>
</g>
<!-- Node23 -->
<g id="node23" class="node"><title>Node23</title>
<g id="a_node23"><a xlink:href="classRa_1_1Asset_1_1GeometryData.html#ad31c0f120d5e88c40afefa79c29ae28a" target="_top" xlink:title="DATA. ">
<polygon fill="white" stroke="black" points="382.5,-49 382.5,-79 513.5,-79 513.5,-49 382.5,-49"/>
<text text-anchor="start" x="390.5" y="-67" font-family="Helvetica,sans-Serif" font-size="10.00">Ra::Asset::GeometryData</text>
<text text-anchor="middle" x="448" y="-56" font-family="Helvetica,sans-Serif" font-size="10.00">::getVerticesSize</text>
</a>
</g>
</g>
<!-- Node21&#45;&gt;Node23 -->
<g id="edge31" class="edge"><title>Node21&#45;&gt;Node23</title>
<path fill="none" stroke="midnightblue" d="M322.475,-97.8986C341.297,-92.7747 362.494,-87.0044 381.991,-81.6968"/>
<polygon fill="midnightblue" stroke="midnightblue" points="382.979,-85.0554 391.708,-79.0516 381.14,-78.3012 382.979,-85.0554"/>
</g>
<!-- Node24&#45;&gt;Node3 -->
<g id="edge37" class="edge"><title>Node24&#45;&gt;Node3</title>
<path fill="none" stroke="midnightblue" d="M329.465,-226.016C335.28,-228.57 340.897,-231.543 346,-235 367.204,-249.367 361.733,-264.34 382,-280 389.91,-286.112 399.312,-291.257 408.473,-295.436"/>
<polygon fill="midnightblue" stroke="midnightblue" points="407.288,-298.736 417.86,-299.441 410.036,-292.298 407.288,-298.736"/>
</g>
<!-- Node24&#45;&gt;Node8 -->
<g id="edge35" class="edge"><title>Node24&#45;&gt;Node8</title>
<path fill="none" stroke="midnightblue" d="M321.006,-226.002C347.127,-233.258 378.092,-241.859 402.787,-248.719"/>
<polygon fill="midnightblue" stroke="midnightblue" points="402.037,-252.143 412.609,-251.447 403.91,-245.398 402.037,-252.143"/>
</g>
<!-- Node25 -->
<g id="node25" class="node"><title>Node25</title>
<g id="a_node25"><a xlink:href="classRa_1_1Asset_1_1GeometryData.html#a5090ec004b5ff8a9c0de0da4c049a5bc" target="_top" xlink:title="Ra::Asset::GeometryData\l::getTangents">
<polygon fill="white" stroke="black" points="382.5,-196 382.5,-226 513.5,-226 513.5,-196 382.5,-196"/>
<text text-anchor="start" x="390.5" y="-214" font-family="Helvetica,sans-Serif" font-size="10.00">Ra::Asset::GeometryData</text>
<text text-anchor="middle" x="448" y="-203" font-family="Helvetica,sans-Serif" font-size="10.00">::getTangents</text>
</a>
</g>
</g>
<!-- Node24&#45;&gt;Node25 -->
<g id="edge36" class="edge"><title>Node24&#45;&gt;Node25</title>
<path fill="none" stroke="midnightblue" d="M340.732,-211C351.072,-211 361.708,-211 372.07,-211"/>
<polygon fill="midnightblue" stroke="midnightblue" points="372.32,-214.5 382.32,-211 372.32,-207.5 372.32,-214.5"/>
</g>
<!-- Node26&#45;&gt;Node3 -->
<g id="edge41" class="edge"><title>Node26&#45;&gt;Node3</title>
<path fill="none" stroke="midnightblue" d="M333.767,-177.131C338.185,-179.647 342.329,-182.58 346,-186 378.734,-216.494 351.23,-247.525 382,-280 387.925,-286.254 395.444,-291.252 403.249,-295.215"/>
<polygon fill="midnightblue" stroke="midnightblue" points="401.913,-298.452 412.465,-299.405 404.81,-292.08 401.913,-298.452"/>
</g>
<!-- Node26&#45;&gt;Node8 -->
<g id="edge39" class="edge"><title>Node26&#45;&gt;Node8</title>
<path fill="none" stroke="midnightblue" d="M330.42,-177.165C335.917,-179.68 341.203,-182.604 346,-186 368.056,-201.615 360.632,-218.456 382,-235 388.491,-240.025 396.081,-244.209 403.738,-247.645"/>
<polygon fill="midnightblue" stroke="midnightblue" points="402.463,-250.905 413.043,-251.471 405.126,-244.431 402.463,-250.905"/>
</g>
<!-- Node27 -->
<g id="node27" class="node"><title>Node27</title>
<g id="a_node27"><a xlink:href="classRa_1_1Asset_1_1GeometryData.html#a863b5b343ec5ea7af019eebbf859b7eb" target="_top" xlink:title="Ra::Asset::GeometryData\l::getBiTangents">
<polygon fill="white" stroke="black" points="382.5,-147 382.5,-177 513.5,-177 513.5,-147 382.5,-147"/>
<text text-anchor="start" x="390.5" y="-165" font-family="Helvetica,sans-Serif" font-size="10.00">Ra::Asset::GeometryData</text>
<text text-anchor="middle" x="448" y="-154" font-family="Helvetica,sans-Serif" font-size="10.00">::getBiTangents</text>
</a>
</g>
</g>
<!-- Node26&#45;&gt;Node27 -->
<g id="edge40" class="edge"><title>Node26&#45;&gt;Node27</title>
<path fill="none" stroke="midnightblue" d="M340.732,-162C351.072,-162 361.708,-162 372.07,-162"/>
<polygon fill="midnightblue" stroke="midnightblue" points="372.32,-165.5 382.32,-162 372.32,-158.5 372.32,-165.5"/>
</g>
<!-- Node28&#45;&gt;Node3 -->
<g id="edge46" class="edge"><title>Node28&#45;&gt;Node3</title>
<path fill="none" stroke="midnightblue" d="M335.575,-79.1221C339.409,-81.6466 342.939,-84.5838 346,-88 403.937,-152.661 328.205,-211.854 382,-280 386.899,-286.206 393.41,-291.121 400.42,-295.003"/>
<polygon fill="midnightblue" stroke="midnightblue" points="398.958,-298.184 409.484,-299.388 402.006,-291.882 398.958,-298.184"/>
</g>
<!-- Node28&#45;&gt;Node8 -->
<g id="edge43" class="edge"><title>Node28&#45;&gt;Node8</title>
<path fill="none" stroke="midnightblue" d="M334.997,-79.0866C339.022,-81.6165 342.748,-84.5649 346,-88 392.243,-136.847 337.889,-184.22 382,-235 386.552,-240.24 392.308,-244.436 398.504,-247.793"/>
<polygon fill="midnightblue" stroke="midnightblue" points="397.266,-251.078 407.808,-252.135 400.226,-244.735 397.266,-251.078"/>
</g>
<!-- Node28&#45;&gt;Node23 -->
<g id="edge45" class="edge"><title>Node28&#45;&gt;Node23</title>
<path fill="none" stroke="midnightblue" d="M345.689,-64C354.46,-64 363.377,-64 372.099,-64"/>
<polygon fill="midnightblue" stroke="midnightblue" points="372.228,-67.5001 382.228,-64 372.228,-60.5001 372.228,-67.5001"/>
</g>
<!-- Node29 -->
<g id="node29" class="node"><title>Node29</title>
<g id="a_node29"><a xlink:href="classRa_1_1Asset_1_1GeometryData.html#a55dc4072ed4026280b5e124f35d5b550" target="_top" xlink:title="Ra::Asset::GeometryData\l::getTexCoords">
<polygon fill="white" stroke="black" points="382.5,-0 382.5,-30 513.5,-30 513.5,-0 382.5,-0"/>
<text text-anchor="start" x="390.5" y="-18" font-family="Helvetica,sans-Serif" font-size="10.00">Ra::Asset::GeometryData</text>
<text text-anchor="middle" x="448" y="-7" font-family="Helvetica,sans-Serif" font-size="10.00">::getTexCoords</text>
</a>
</g>
</g>
<!-- Node28&#45;&gt;Node29 -->
<g id="edge44" class="edge"><title>Node28&#45;&gt;Node29</title>
<path fill="none" stroke="midnightblue" d="M322.475,-48.8986C341.297,-43.7747 362.494,-38.0044 381.991,-32.6968"/>
<polygon fill="midnightblue" stroke="midnightblue" points="382.979,-36.0554 391.708,-30.0516 381.14,-29.3012 382.979,-36.0554"/>
</g>
</g>
</svg>
