<?xml version="1.0" encoding="UTF-8" standalone="no"?>
<!DOCTYPE svg PUBLIC "-//W3C//DTD SVG 1.1//EN"
 "http://www.w3.org/Graphics/SVG/1.1/DTD/svg11.dtd">
<!-- Generated by graphviz version 2.36.0 (20140111.2315)
 -->
<!-- Title: Ra::IO::AssimpHandleDataLoader::loadHandleComponentData Pages: 1 -->
<svg width="332pt" height="66pt"
 viewBox="0.00 0.00 332.00 66.00" xmlns="http://www.w3.org/2000/svg" xmlns:xlink="http://www.w3.org/1999/xlink">
<g id="graph0" class="graph" transform="scale(1 1) rotate(0) translate(4 62)">
<title>Ra::IO::AssimpHandleDataLoader::loadHandleComponentData</title>
<polygon fill="white" stroke="none" points="-4,4 -4,-62 328,-62 328,4 -4,4"/>
<!-- Node1 -->
<g id="node1" class="node"><title>Node1</title>
<polygon fill="#bfbfbf" stroke="black" points="0,-14 0,-44 172,-44 172,-14 0,-14"/>
<text text-anchor="start" x="8" y="-32" font-family="Helvetica,sans-Serif" font-size="10.00">Ra::IO::AssimpHandleData</text>
<text text-anchor="middle" x="86" y="-21" font-family="Helvetica,sans-Serif" font-size="10.00">Loader::loadHandleComponentData</text>
</g>
<!-- Node2 -->
<g id="node2" class="node"><title>Node2</title>
<g id="a_node2"><a xlink:href="namespaceRa_1_1IO.html#aef6c50424873964fcea0008be55d4a34" target="_top" xlink:title="Ra::IO::assimpToCore">
<polygon fill="white" stroke="black" points="208,-38.5 208,-57.5 324,-57.5 324,-38.5 208,-38.5"/>
<text text-anchor="middle" x="266" y="-45.5" font-family="Helvetica,sans-Serif" font-size="10.00">Ra::IO::assimpToCore</text>
</a>
</g>
</g>
<!-- Node1&#45;&gt;Node2 -->
<g id="edge1" class="edge"><title>Node1&#45;&gt;Node2</title>
<path fill="none" stroke="midnightblue" d="M172.09,-38.0826C180.732,-39.0051 189.424,-39.9329 197.838,-40.831"/>
<polygon fill="midnightblue" stroke="midnightblue" points="197.626,-44.3282 207.941,-41.9095 198.369,-37.3678 197.626,-44.3282"/>
</g>
<!-- Node3 -->
<g id="node3" class="node"><title>Node3</title>
<g id="a_node3"><a xlink:href="namespaceRa_1_1Core.html#abc0a3625137098b67838fe52edd480f9" target="_top" xlink:title="SIZE. ">
<polygon fill="white" stroke="black" points="226,-0.5 226,-19.5 306,-19.5 306,-0.5 226,-0.5"/>
<text text-anchor="middle" x="266" y="-7.5" font-family="Helvetica,sans-Serif" font-size="10.00">Ra::Core::size</text>
</a>
</g>
</g>
<!-- Node1&#45;&gt;Node3 -->
<g id="edge2" class="edge"><title>Node1&#45;&gt;Node3</title>
<path fill="none" stroke="midnightblue" d="M172.09,-19.9174C187.048,-18.3207 202.153,-16.7084 215.712,-15.2611"/>
<polygon fill="midnightblue" stroke="midnightblue" points="216.178,-18.7313 225.75,-14.1896 215.435,-11.7708 216.178,-18.7313"/>
</g>
</g>
</svg>
