<?xml version="1.0" encoding="UTF-8" standalone="no"?>
<!DOCTYPE svg PUBLIC "-//W3C//DTD SVG 1.1//EN"
 "http://www.w3.org/Graphics/SVG/1.1/DTD/svg11.dtd">
<!-- Generated by graphviz version 2.36.0 (20140111.2315)
 -->
<!-- Title: Ra::Gui::TrackballCamera::handleCameraZoom Pages: 1 -->
<svg width="406pt" height="142pt"
 viewBox="0.00 0.00 406.00 142.00" xmlns="http://www.w3.org/2000/svg" xmlns:xlink="http://www.w3.org/1999/xlink">
<g id="graph0" class="graph" transform="scale(1 1) rotate(0) translate(4 138)">
<title>Ra::Gui::TrackballCamera::handleCameraZoom</title>
<polygon fill="white" stroke="none" points="-4,4 -4,-138 402,-138 402,4 -4,4"/>
<!-- Node1 -->
<g id="node1" class="node"><title>Node1</title>
<polygon fill="#bfbfbf" stroke="black" points="0.5,-52 0.5,-82 131.5,-82 131.5,-52 0.5,-52"/>
<text text-anchor="start" x="8.5" y="-70" font-family="Helvetica,sans-Serif" font-size="10.00">Ra::Gui::TrackballCamera</text>
<text text-anchor="middle" x="66" y="-59" font-family="Helvetica,sans-Serif" font-size="10.00">::handleCameraZoom</text>
</g>
<!-- Node2 -->
<g id="node2" class="node"><title>Node2</title>
<g id="a_node2"><a xlink:href="namespaceRa_1_1Core_1_1Math.html#a43a856c00d750c5f5c28f362b5df8664" target="_top" xlink:title="Returns value v clamped between bounds min and max. ">
<polygon fill="white" stroke="black" points="168,-114.5 168,-133.5 284,-133.5 284,-114.5 168,-114.5"/>
<text text-anchor="middle" x="226" y="-121.5" font-family="Helvetica,sans-Serif" font-size="10.00">Ra::Core::Math::clamp</text>
</a>
</g>
</g>
<!-- Node1&#45;&gt;Node2 -->
<g id="edge1" class="edge"><title>Node1&#45;&gt;Node2</title>
<path fill="none" stroke="midnightblue" d="M106.204,-82.1468C124.86,-89.2529 147.518,-97.7361 168,-105 173.731,-107.033 179.808,-109.125 185.776,-111.144"/>
<polygon fill="midnightblue" stroke="midnightblue" points="185.042,-114.589 195.636,-114.45 187.268,-107.952 185.042,-114.589"/>
</g>
<!-- Node3 -->
<g id="node3" class="node"><title>Node3</title>
<g id="a_node3"><a xlink:href="namespaceRa_1_1Core.html#ac89d3cec9f26a1c19c5d11de691d1327" target="_top" xlink:title="FACE. ">
<polygon fill="white" stroke="black" points="192,-76.5 192,-95.5 260,-95.5 260,-76.5 192,-76.5"/>
<text text-anchor="middle" x="226" y="-83.5" font-family="Helvetica,sans-Serif" font-size="10.00">Ra::Core::F</text>
</a>
</g>
</g>
<!-- Node1&#45;&gt;Node3 -->
<g id="edge2" class="edge"><title>Node1&#45;&gt;Node3</title>
<path fill="none" stroke="midnightblue" d="M131.721,-74.7828C148.477,-76.7979 166.121,-78.9196 181.499,-80.7688"/>
<polygon fill="midnightblue" stroke="midnightblue" points="181.398,-84.2818 191.744,-82.0009 182.234,-77.3319 181.398,-84.2818"/>
</g>
<!-- Node5 -->
<g id="node5" class="node"><title>Node5</title>
<g id="a_node5"><a xlink:href="namespaceOpenMesh.html#a8205f789ce08919bc11c58383574596c" target="_top" xlink:title="OpenMesh::norm">
<polygon fill="white" stroke="black" points="180,-38.5 180,-57.5 272,-57.5 272,-38.5 180,-38.5"/>
<text text-anchor="middle" x="226" y="-45.5" font-family="Helvetica,sans-Serif" font-size="10.00">OpenMesh::norm</text>
</a>
</g>
</g>
<!-- Node1&#45;&gt;Node5 -->
<g id="edge4" class="edge"><title>Node1&#45;&gt;Node5</title>
<path fill="none" stroke="midnightblue" d="M131.721,-59.2172C144.371,-57.6959 157.526,-56.1139 169.831,-54.6343"/>
<polygon fill="midnightblue" stroke="midnightblue" points="170.426,-58.088 179.937,-53.419 169.59,-51.1381 170.426,-58.088"/>
</g>
<!-- Node6 -->
<g id="node6" class="node"><title>Node6</title>
<g id="a_node6"><a xlink:href="namespaceRa_1_1Core_1_1Algorithm.html#aea294cdb6f4f0d85955bdcccb22886ec" target="_top" xlink:title="Ra::Core::Algorithm::t">
<polygon fill="white" stroke="black" points="169.5,-0.5 169.5,-19.5 282.5,-19.5 282.5,-0.5 169.5,-0.5"/>
<text text-anchor="middle" x="226" y="-7.5" font-family="Helvetica,sans-Serif" font-size="10.00">Ra::Core::Algorithm::t</text>
</a>
</g>
</g>
<!-- Node1&#45;&gt;Node6 -->
<g id="edge5" class="edge"><title>Node1&#45;&gt;Node6</title>
<path fill="none" stroke="midnightblue" d="M106.204,-51.8532C124.86,-44.7471 147.518,-36.2639 168,-29 173.731,-26.9675 179.808,-24.8753 185.776,-22.8562"/>
<polygon fill="midnightblue" stroke="midnightblue" points="187.268,-26.0476 195.636,-19.5503 185.042,-19.4107 187.268,-26.0476"/>
</g>
<!-- Node4 -->
<g id="node4" class="node"><title>Node4</title>
<g id="a_node4"><a xlink:href="namespaceRa_1_1Core.html#a6dd9d23e2286b21c927c0cee124c6c1e" target="_top" xlink:title="HALFEDGE. ">
<polygon fill="white" stroke="black" points="320.5,-76.5 320.5,-95.5 397.5,-95.5 397.5,-76.5 320.5,-76.5"/>
<text text-anchor="middle" x="359" y="-83.5" font-family="Helvetica,sans-Serif" font-size="10.00">Ra::Core::HE</text>
</a>
</g>
</g>
<!-- Node3&#45;&gt;Node4 -->
<g id="edge3" class="edge"><title>Node3&#45;&gt;Node4</title>
<path fill="none" stroke="midnightblue" d="M260.057,-86C275.247,-86 293.551,-86 310.205,-86"/>
<polygon fill="midnightblue" stroke="midnightblue" points="310.318,-89.5001 320.318,-86 310.318,-82.5001 310.318,-89.5001"/>
</g>
</g>
</svg>
