<?xml version="1.0" encoding="UTF-8" standalone="no"?>
<!DOCTYPE svg PUBLIC "-//W3C//DTD SVG 1.1//EN"
 "http://www.w3.org/Graphics/SVG/1.1/DTD/svg11.dtd">
<!-- Generated by graphviz version 2.36.0 (20140111.2315)
 -->
<!-- Title: Ra::Core::CatmullClarkSubdivider::prepare Pages: 1 -->
<svg width="518pt" height="268pt"
 viewBox="0.00 0.00 518.00 268.00" xmlns="http://www.w3.org/2000/svg" xmlns:xlink="http://www.w3.org/1999/xlink">
<g id="graph0" class="graph" transform="scale(1 1) rotate(0) translate(4 264)">
<title>Ra::Core::CatmullClarkSubdivider::prepare</title>
<polygon fill="white" stroke="none" points="-4,4 -4,-264 514,-264 514,4 -4,4"/>
<!-- Node1 -->
<g id="node1" class="node"><title>Node1</title>
<polygon fill="#bfbfbf" stroke="black" points="0.5,-112 0.5,-142 165.5,-142 165.5,-112 0.5,-112"/>
<text text-anchor="start" x="8.5" y="-130" font-family="Helvetica,sans-Serif" font-size="10.00">Ra::Core::CatmullClarkSubdivider</text>
<text text-anchor="middle" x="83" y="-119" font-family="Helvetica,sans-Serif" font-size="10.00">::prepare</text>
</g>
<!-- Node2 -->
<g id="node2" class="node"><title>Node2</title>
<g id="a_node2"><a xlink:href="namespaceRa_1_1Core.html#a23404744459a750d7bfe220788a5f604" target="_top" xlink:title="Copy input properties of mesh. ">
<polygon fill="white" stroke="black" points="206.5,-235.5 206.5,-254.5 333.5,-254.5 333.5,-235.5 206.5,-235.5"/>
<text text-anchor="middle" x="270" y="-242.5" font-family="Helvetica,sans-Serif" font-size="10.00">Ra::Core::addPropsCopy</text>
</a>
</g>
</g>
<!-- Node1&#45;&gt;Node2 -->
<g id="edge1" class="edge"><title>Node1&#45;&gt;Node2</title>
<path fill="none" stroke="midnightblue" d="M98.1988,-142.158C119.029,-163.552 159.977,-202.5 202,-225 206.95,-227.65 212.298,-229.995 217.738,-232.06"/>
<polygon fill="midnightblue" stroke="midnightblue" points="216.972,-235.498 227.566,-235.477 219.27,-228.887 216.972,-235.498"/>
</g>
<!-- Node4 -->
<g id="node4" class="node"><title>Node4</title>
<g id="a_node4"><a xlink:href="classRa_1_1Core_1_1TopologicalMesh.html#aa1016df75edb65e69fcdec5465e49245" target="_top" xlink:title="Ra::Core::TopologicalMesh\l::getFloatPropsHandles">
<polygon fill="white" stroke="black" points="202,-186 202,-216 338,-216 338,-186 202,-186"/>
<text text-anchor="start" x="210" y="-204" font-family="Helvetica,sans-Serif" font-size="10.00">Ra::Core::TopologicalMesh</text>
<text text-anchor="middle" x="270" y="-193" font-family="Helvetica,sans-Serif" font-size="10.00">::getFloatPropsHandles</text>
</a>
</g>
</g>
<!-- Node1&#45;&gt;Node4 -->
<g id="edge3" class="edge"><title>Node1&#45;&gt;Node4</title>
<path fill="none" stroke="midnightblue" d="M119.233,-142.025C142.616,-151.899 174.036,-164.981 202,-176 207.198,-178.048 212.639,-180.149 218.076,-182.22"/>
<polygon fill="midnightblue" stroke="midnightblue" points="217.216,-185.637 227.807,-185.899 219.691,-179.089 217.216,-185.637"/>
</g>
<!-- Node5 -->
<g id="node5" class="node"><title>Node5</title>
<g id="a_node5"><a xlink:href="classRa_1_1Core_1_1TopologicalMesh.html#acf1e58078add6e5cc9ce13b30fb3baf3" target="_top" xlink:title="Ra::Core::TopologicalMesh\l::getVector2PropsHandles">
<polygon fill="white" stroke="black" points="202,-137 202,-167 338,-167 338,-137 202,-137"/>
<text text-anchor="start" x="210" y="-155" font-family="Helvetica,sans-Serif" font-size="10.00">Ra::Core::TopologicalMesh</text>
<text text-anchor="middle" x="270" y="-144" font-family="Helvetica,sans-Serif" font-size="10.00">::getVector2PropsHandles</text>
</a>
</g>
</g>
<!-- Node1&#45;&gt;Node5 -->
<g id="edge4" class="edge"><title>Node1&#45;&gt;Node5</title>
<path fill="none" stroke="midnightblue" d="M165.682,-138.038C174.379,-139.213 183.204,-140.406 191.846,-141.574"/>
<polygon fill="midnightblue" stroke="midnightblue" points="191.509,-145.06 201.888,-142.931 192.447,-138.123 191.509,-145.06"/>
</g>
<!-- Node6 -->
<g id="node6" class="node"><title>Node6</title>
<g id="a_node6"><a xlink:href="classRa_1_1Core_1_1TopologicalMesh.html#a6865aee84eb0d92f6acc12081bf8a6f8" target="_top" xlink:title="Ra::Core::TopologicalMesh\l::getVector3PropsHandles">
<polygon fill="white" stroke="black" points="202,-88 202,-118 338,-118 338,-88 202,-88"/>
<text text-anchor="start" x="210" y="-106" font-family="Helvetica,sans-Serif" font-size="10.00">Ra::Core::TopologicalMesh</text>
<text text-anchor="middle" x="270" y="-95" font-family="Helvetica,sans-Serif" font-size="10.00">::getVector3PropsHandles</text>
</a>
</g>
</g>
<!-- Node1&#45;&gt;Node6 -->
<g id="edge5" class="edge"><title>Node1&#45;&gt;Node6</title>
<path fill="none" stroke="midnightblue" d="M165.682,-116.403C174.379,-115.275 183.204,-114.13 191.846,-113.009"/>
<polygon fill="midnightblue" stroke="midnightblue" points="192.421,-116.464 201.888,-111.706 191.521,-109.522 192.421,-116.464"/>
</g>
<!-- Node7 -->
<g id="node7" class="node"><title>Node7</title>
<g id="a_node7"><a xlink:href="classRa_1_1Core_1_1TopologicalMesh.html#a938483e7f6900eeb3914d662b9aac21c" target="_top" xlink:title="Ra::Core::TopologicalMesh\l::getVector4PropsHandles">
<polygon fill="white" stroke="black" points="202,-39 202,-69 338,-69 338,-39 202,-39"/>
<text text-anchor="start" x="210" y="-57" font-family="Helvetica,sans-Serif" font-size="10.00">Ra::Core::TopologicalMesh</text>
<text text-anchor="middle" x="270" y="-46" font-family="Helvetica,sans-Serif" font-size="10.00">::getVector4PropsHandles</text>
</a>
</g>
</g>
<!-- Node1&#45;&gt;Node7 -->
<g id="edge6" class="edge"><title>Node1&#45;&gt;Node7</title>
<path fill="none" stroke="midnightblue" d="M120.303,-111.913C143.584,-102.317 174.492,-89.7245 202,-79 207.41,-76.891 213.079,-74.7183 218.732,-72.5755"/>
<polygon fill="midnightblue" stroke="midnightblue" points="220.059,-75.8158 228.182,-69.0141 217.59,-69.2655 220.059,-75.8158"/>
</g>
<!-- Node8 -->
<g id="node8" class="node"><title>Node8</title>
<g id="a_node8"><a xlink:href="namespaceRa_1_1Core.html#a07a9d67267d8b0d69da5d41141ee26f2" target="_top" xlink:title="Add a copy of input properties of mesh on faces. ">
<polygon fill="white" stroke="black" points="203.5,-0.5 203.5,-19.5 336.5,-19.5 336.5,-0.5 203.5,-0.5"/>
<text text-anchor="middle" x="270" y="-7.5" font-family="Helvetica,sans-Serif" font-size="10.00">Ra::Core::addPropsCopyF</text>
</a>
</g>
</g>
<!-- Node1&#45;&gt;Node8 -->
<g id="edge7" class="edge"><title>Node1&#45;&gt;Node8</title>
<path fill="none" stroke="midnightblue" d="M98.5825,-111.649C119.559,-90.4093 160.329,-52.1765 202,-30 206.956,-27.3624 212.308,-25.0251 217.752,-22.9656"/>
<polygon fill="midnightblue" stroke="midnightblue" points="219.283,-26.139 227.583,-19.5537 216.988,-19.526 219.283,-26.139"/>
</g>
<!-- Node3 -->
<g id="node3" class="node"><title>Node3</title>
<g id="a_node3"><a xlink:href="classRa_1_1Core_1_1TopologicalMesh.html#abe2a6ac857a94f53fa1180c12ce034f8" target="_top" xlink:title="Return the half&#45;edge associated with a given vertex and face. ">
<polygon fill="white" stroke="black" points="374,-230 374,-260 510,-260 510,-230 374,-230"/>
<text text-anchor="start" x="382" y="-248" font-family="Helvetica,sans-Serif" font-size="10.00">Ra::Core::TopologicalMesh</text>
<text text-anchor="middle" x="442" y="-237" font-family="Helvetica,sans-Serif" font-size="10.00">::halfedge_handle</text>
</a>
</g>
</g>
<!-- Node2&#45;&gt;Node3 -->
<g id="edge2" class="edge"><title>Node2&#45;&gt;Node3</title>
<path fill="none" stroke="midnightblue" d="M333.819,-245C343.506,-245 353.607,-245 363.568,-245"/>
<polygon fill="midnightblue" stroke="midnightblue" points="363.874,-248.5 373.874,-245 363.874,-241.5 363.874,-248.5"/>
</g>
</g>
</svg>
