<?xml version="1.0" encoding="UTF-8" standalone="no"?>
<!DOCTYPE svg PUBLIC "-//W3C//DTD SVG 1.1//EN"
 "http://www.w3.org/Graphics/SVG/1.1/DTD/svg11.dtd">
<!-- Generated by graphviz version 2.36.0 (20140111.2315)
 -->
<!-- Title: Ra::GuiBase::SelectionManager::SelectionManager Pages: 1 -->
<svg width="1246pt" height="500pt"
 viewBox="0.00 0.00 1246.00 500.40" xmlns="http://www.w3.org/2000/svg" xmlns:xlink="http://www.w3.org/1999/xlink">
<g id="graph0" class="graph" transform="scale(1 1) rotate(0) translate(4 496.403)">
<title>Ra::GuiBase::SelectionManager::SelectionManager</title>
<polygon fill="white" stroke="none" points="-4,4 -4,-496.403 1242,-496.403 1242,4 -4,4"/>
<!-- Node1 -->
<g id="node1" class="node"><title>Node1</title>
<polygon fill="#bfbfbf" stroke="black" points="0.5,-299.403 0.5,-329.403 157.5,-329.403 157.5,-299.403 0.5,-299.403"/>
<text text-anchor="start" x="8.5" y="-317.403" font-family="Helvetica,sans-Serif" font-size="10.00">Ra::GuiBase::SelectionManager</text>
<text text-anchor="middle" x="79" y="-306.403" font-family="Helvetica,sans-Serif" font-size="10.00">::SelectionManager</text>
</g>
<!-- Node2 -->
<g id="node2" class="node"><title>Node2</title>
<g id="a_node2"><a xlink:href="classRa_1_1GuiBase_1_1SelectionManager.html#a1496f52d627bf335f9020ce0bee77d81" target="_top" xlink:title="Ra::GuiBase::SelectionManager\l::printSelection">
<polygon fill="white" stroke="black" points="194.5,-344.403 194.5,-374.403 351.5,-374.403 351.5,-344.403 194.5,-344.403"/>
<text text-anchor="start" x="202.5" y="-362.403" font-family="Helvetica,sans-Serif" font-size="10.00">Ra::GuiBase::SelectionManager</text>
<text text-anchor="middle" x="273" y="-351.403" font-family="Helvetica,sans-Serif" font-size="10.00">::printSelection</text>
</a>
</g>
</g>
<!-- Node1&#45;&gt;Node2 -->
<g id="edge1" class="edge"><title>Node1&#45;&gt;Node2</title>
<path fill="none" stroke="midnightblue" d="M144.2,-329.449C161.493,-333.502 180.337,-337.919 198.112,-342.085"/>
<polygon fill="midnightblue" stroke="midnightblue" points="197.325,-345.496 207.86,-344.37 198.923,-338.68 197.325,-345.496"/>
</g>
<!-- Node25 -->
<g id="node25" class="node"><title>Node25</title>
<g id="a_node25"><a xlink:href="classRa_1_1GuiBase_1_1SelectionManager.html#a2fcab4f0b1fd16de85a985380075784f" target="_top" xlink:title="Ra::GuiBase::SelectionManager\l::onModelRebuilt">
<polygon fill="white" stroke="black" points="194.5,-255.403 194.5,-285.403 351.5,-285.403 351.5,-255.403 194.5,-255.403"/>
<text text-anchor="start" x="202.5" y="-273.403" font-family="Helvetica,sans-Serif" font-size="10.00">Ra::GuiBase::SelectionManager</text>
<text text-anchor="middle" x="273" y="-262.403" font-family="Helvetica,sans-Serif" font-size="10.00">::onModelRebuilt</text>
</a>
</g>
</g>
<!-- Node1&#45;&gt;Node25 -->
<g id="edge34" class="edge"><title>Node1&#45;&gt;Node25</title>
<path fill="none" stroke="midnightblue" d="M145.539,-299.383C161.975,-295.617 179.741,-291.545 196.616,-287.678"/>
<polygon fill="midnightblue" stroke="midnightblue" points="197.466,-291.074 206.431,-285.429 195.902,-284.251 197.466,-291.074"/>
</g>
<!-- Node3 -->
<g id="node3" class="node"><title>Node3</title>
<g id="a_node3"><a xlink:href="classRa_1_1GuiBase_1_1SelectionManager.html#a34082047d9104b97d5a655c6dd36b8e0" target="_top" xlink:title="Return the set of selected entries. ">
<polygon fill="white" stroke="black" points="388.5,-365.403 388.5,-395.403 545.5,-395.403 545.5,-365.403 388.5,-365.403"/>
<text text-anchor="start" x="396.5" y="-383.403" font-family="Helvetica,sans-Serif" font-size="10.00">Ra::GuiBase::SelectionManager</text>
<text text-anchor="middle" x="467" y="-372.403" font-family="Helvetica,sans-Serif" font-size="10.00">::selectedEntries</text>
</a>
</g>
</g>
<!-- Node2&#45;&gt;Node3 -->
<g id="edge2" class="edge"><title>Node2&#45;&gt;Node3</title>
<path fill="none" stroke="midnightblue" d="M351.54,-367.884C360.388,-368.851 369.452,-369.843 378.418,-370.823"/>
<polygon fill="midnightblue" stroke="midnightblue" points="378.161,-374.316 388.482,-371.924 378.922,-367.357 378.161,-374.316"/>
</g>
<!-- Node6 -->
<g id="node6" class="node"><title>Node6</title>
<g id="a_node6"><a xlink:href="namespaceRa_1_1Engine.html#a318db0d77f9e9b965c12bd100fb8de50" target="_top" xlink:title="Returns the name associated to the given item. ">
<polygon fill="white" stroke="black" points="400,-218.903 400,-237.903 534,-237.903 534,-218.903 400,-218.903"/>
<text text-anchor="middle" x="467" y="-225.903" font-family="Helvetica,sans-Serif" font-size="10.00">Ra::Engine::getEntryName</text>
</a>
</g>
</g>
<!-- Node2&#45;&gt;Node6 -->
<g id="edge5" class="edge"><title>Node2&#45;&gt;Node6</title>
<path fill="none" stroke="midnightblue" d="M296.025,-344.375C332.71,-319.345 405.964,-269.364 443.174,-243.976"/>
<polygon fill="midnightblue" stroke="midnightblue" points="445.526,-246.609 451.814,-238.082 441.58,-240.827 445.526,-246.609"/>
</g>
<!-- Node21 -->
<g id="node21" class="node"><title>Node21</title>
<g id="a_node21"><a xlink:href="classRa_1_1GuiBase_1_1SelectionManager.html#a29cbd250208f1e18d2ab1e0f4d91105d" target="_top" xlink:title="Return the current selected item, or an invalid entry if there is no current item. ">
<polygon fill="white" stroke="black" points="388.5,-414.403 388.5,-444.403 545.5,-444.403 545.5,-414.403 388.5,-414.403"/>
<text text-anchor="start" x="396.5" y="-432.403" font-family="Helvetica,sans-Serif" font-size="10.00">Ra::GuiBase::SelectionManager</text>
<text text-anchor="middle" x="467" y="-421.403" font-family="Helvetica,sans-Serif" font-size="10.00">::currentItem</text>
</a>
</g>
</g>
<!-- Node2&#45;&gt;Node21 -->
<g id="edge29" class="edge"><title>Node2&#45;&gt;Node21</title>
<path fill="none" stroke="midnightblue" d="M310.221,-374.405C332.514,-383.463 361.75,-395.026 388,-404.403 394.298,-406.652 400.915,-408.919 407.52,-411.121"/>
<polygon fill="midnightblue" stroke="midnightblue" points="406.559,-414.489 417.152,-414.291 408.747,-407.84 406.559,-414.489"/>
</g>
<!-- Node4 -->
<g id="node4" class="node"><title>Node4</title>
<g id="a_node4"><a xlink:href="namespaceRa_1_1Core.html#abc0a3625137098b67838fe52edd480f9" target="_top" xlink:title="SIZE. ">
<polygon fill="white" stroke="black" points="621,-373.903 621,-392.903 701,-392.903 701,-373.903 621,-373.903"/>
<text text-anchor="middle" x="661" y="-380.903" font-family="Helvetica,sans-Serif" font-size="10.00">Ra::Core::size</text>
</a>
</g>
</g>
<!-- Node3&#45;&gt;Node4 -->
<g id="edge3" class="edge"><title>Node3&#45;&gt;Node4</title>
<path fill="none" stroke="midnightblue" d="M545.54,-381.614C567.609,-381.959 591.029,-382.325 610.897,-382.635"/>
<polygon fill="midnightblue" stroke="midnightblue" points="610.884,-386.135 620.937,-382.792 610.993,-379.136 610.884,-386.135"/>
</g>
<!-- Node5 -->
<g id="node5" class="node"><title>Node5</title>
<g id="a_node5"><a xlink:href="classRa_1_1GuiBase_1_1SelectionManager.html#aec178a6b3de1c04e5e1d16ff72c6e966" target="_top" xlink:title="Ra::GuiBase::SelectionManager\l::itemModel">
<polygon fill="white" stroke="black" points="582.5,-412.403 582.5,-442.403 739.5,-442.403 739.5,-412.403 582.5,-412.403"/>
<text text-anchor="start" x="590.5" y="-430.403" font-family="Helvetica,sans-Serif" font-size="10.00">Ra::GuiBase::SelectionManager</text>
<text text-anchor="middle" x="661" y="-419.403" font-family="Helvetica,sans-Serif" font-size="10.00">::itemModel</text>
</a>
</g>
</g>
<!-- Node3&#45;&gt;Node5 -->
<g id="edge4" class="edge"><title>Node3&#45;&gt;Node5</title>
<path fill="none" stroke="midnightblue" d="M529.278,-395.403C548.243,-400.045 569.297,-405.199 588.869,-409.99"/>
<polygon fill="midnightblue" stroke="midnightblue" points="588.1,-413.405 598.646,-412.384 589.765,-406.606 588.1,-413.405"/>
</g>
<!-- Node7 -->
<g id="node7" class="node"><title>Node7</title>
<g id="a_node7"><a xlink:href="structRa_1_1Engine_1_1ItemEntry.html#aceafc81a73631955b64999dd39a639da" target="_top" xlink:title="Returns true if the item represents any valid object. ">
<polygon fill="white" stroke="black" points="604,-148.403 604,-178.403 718,-178.403 718,-148.403 604,-148.403"/>
<text text-anchor="start" x="612" y="-166.403" font-family="Helvetica,sans-Serif" font-size="10.00">Ra::Engine::ItemEntry</text>
<text text-anchor="middle" x="661" y="-155.403" font-family="Helvetica,sans-Serif" font-size="10.00">::isValid</text>
</a>
</g>
</g>
<!-- Node6&#45;&gt;Node7 -->
<g id="edge6" class="edge"><title>Node6&#45;&gt;Node7</title>
<path fill="none" stroke="midnightblue" d="M513.355,-218.81C524.161,-216.125 535.578,-212.956 546,-209.403 562.572,-203.752 565.824,-200.103 582,-193.403 591.053,-189.653 600.758,-185.793 610.142,-182.143"/>
<polygon fill="midnightblue" stroke="midnightblue" points="611.695,-185.296 619.763,-178.429 609.173,-178.765 611.695,-185.296"/>
</g>
<!-- Node12 -->
<g id="node12" class="node"><title>Node12</title>
<g id="a_node12"><a xlink:href="classRa_1_1Engine_1_1Entity.html#aaf256bea44bbc5bff6aa504aca05ca35" target="_top" xlink:title="Ra::Engine::Entity\l::getName">
<polygon fill="white" stroke="black" points="795.5,-285.403 795.5,-315.403 892.5,-315.403 892.5,-285.403 795.5,-285.403"/>
<text text-anchor="start" x="803.5" y="-303.403" font-family="Helvetica,sans-Serif" font-size="10.00">Ra::Engine::Entity</text>
<text text-anchor="middle" x="844" y="-292.403" font-family="Helvetica,sans-Serif" font-size="10.00">::getName</text>
</a>
</g>
</g>
<!-- Node6&#45;&gt;Node12 -->
<g id="edge28" class="edge"><title>Node6&#45;&gt;Node12</title>
<path fill="none" stroke="midnightblue" d="M503.13,-218.876C557.045,-206.227 662.119,-189.496 740,-226.403 762.833,-237.223 755.932,-255.051 776,-270.403 780.982,-274.214 786.525,-277.669 792.229,-280.763"/>
<polygon fill="midnightblue" stroke="midnightblue" points="790.764,-283.944 801.268,-285.328 793.92,-277.696 790.764,-283.944"/>
</g>
<!-- Node13 -->
<g id="node13" class="node"><title>Node13</title>
<g id="a_node13"><a xlink:href="structRa_1_1Engine_1_1ItemEntry.html#a898047549069e5b64d3a9a65c058af56" target="_top" xlink:title="Returns true if the item represents a render object. ">
<polygon fill="white" stroke="black" points="787,-99.4026 787,-129.403 901,-129.403 901,-99.4026 787,-99.4026"/>
<text text-anchor="start" x="795" y="-117.403" font-family="Helvetica,sans-Serif" font-size="10.00">Ra::Engine::ItemEntry</text>
<text text-anchor="middle" x="844" y="-106.403" font-family="Helvetica,sans-Serif" font-size="10.00">::isRoNode</text>
</a>
</g>
</g>
<!-- Node6&#45;&gt;Node13 -->
<g id="edge18" class="edge"><title>Node6&#45;&gt;Node13</title>
<path fill="none" stroke="midnightblue" d="M529.6,-218.897C535.488,-216.412 541.085,-213.299 546,-209.403 573.727,-187.426 552.732,-158.281 582,-138.403 639.054,-99.6532 720.038,-98.3747 776.617,-103.78"/>
<polygon fill="midnightblue" stroke="midnightblue" points="776.575,-107.295 786.886,-104.86 777.307,-100.333 776.575,-107.295"/>
</g>
<!-- Node15 -->
<g id="node15" class="node"><title>Node15</title>
<g id="a_node15"><a xlink:href="classRa_1_1Engine_1_1RadiumEngine.html#a58b27bc600ea769f68b0e2938abc7862" target="_top" xlink:title="Manager getters. ">
<polygon fill="white" stroke="black" points="776.5,-1.40258 776.5,-31.4026 911.5,-31.4026 911.5,-1.40258 776.5,-1.40258"/>
<text text-anchor="start" x="784.5" y="-19.4026" font-family="Helvetica,sans-Serif" font-size="10.00">Ra::Engine::RadiumEngine</text>
<text text-anchor="middle" x="844" y="-8.40258" font-family="Helvetica,sans-Serif" font-size="10.00">::getRenderObjectManager</text>
</a>
</g>
</g>
<!-- Node6&#45;&gt;Node15 -->
<g id="edge19" class="edge"><title>Node6&#45;&gt;Node15</title>
<path fill="none" stroke="midnightblue" d="M533.311,-218.784C537.985,-216.28 542.303,-213.195 546,-209.403 598.7,-155.348 525.753,-93.7554 582,-43.4026 631.229,0.667088 708.455,3.46679 766.152,-2.38531"/>
<polygon fill="midnightblue" stroke="midnightblue" points="765.996,-5.8896 776.323,-3.52593 766.776,1.0668 765.996,-5.8896"/>
</g>
<!-- Node17 -->
<g id="node17" class="node"><title>Node17</title>
<g id="a_node17"><a xlink:href="classRa_1_1Engine_1_1RenderObjectManager.html#a32bd0db0d9620bb7e3f0fe50b541dae3" target="_top" xlink:title="Returns the render object corresponding to the given index. ">
<polygon fill="white" stroke="black" points="594,-53.4026 594,-83.4026 728,-83.4026 728,-53.4026 594,-53.4026"/>
<text text-anchor="start" x="602" y="-71.4026" font-family="Helvetica,sans-Serif" font-size="10.00">Ra::Engine::RenderObject</text>
<text text-anchor="middle" x="661" y="-60.4026" font-family="Helvetica,sans-Serif" font-size="10.00">Manager::getRenderObject</text>
</a>
</g>
</g>
<!-- Node6&#45;&gt;Node17 -->
<g id="edge20" class="edge"><title>Node6&#45;&gt;Node17</title>
<path fill="none" stroke="midnightblue" d="M531.73,-218.885C536.928,-216.38 541.79,-213.267 546,-209.403 582.965,-175.474 548.088,-139.383 582,-102.403 587.011,-96.9384 593.055,-92.31 599.534,-88.3995"/>
<polygon fill="midnightblue" stroke="midnightblue" points="601.455,-91.3395 608.583,-83.5012 598.123,-85.1835 601.455,-91.3395"/>
</g>
<!-- Node18 -->
<g id="node18" class="node"><title>Node18</title>
<g id="a_node18"><a xlink:href="structRa_1_1Engine_1_1ItemEntry.html#ac78e7430338c62ed664a16da7e3ea206" target="_top" xlink:title="Returns true if the item represents a component. ">
<polygon fill="white" stroke="black" points="787,-373.403 787,-403.403 901,-403.403 901,-373.403 787,-373.403"/>
<text text-anchor="start" x="795" y="-391.403" font-family="Helvetica,sans-Serif" font-size="10.00">Ra::Engine::ItemEntry</text>
<text text-anchor="middle" x="844" y="-380.403" font-family="Helvetica,sans-Serif" font-size="10.00">::isComponentNode</text>
</a>
</g>
</g>
<!-- Node6&#45;&gt;Node18 -->
<g id="edge22" class="edge"><title>Node6&#45;&gt;Node18</title>
<path fill="none" stroke="midnightblue" d="M488.66,-238.016C511.234,-248.259 548.635,-264.474 582,-275.403 650.737,-297.916 677.729,-277.608 740,-314.403 760.309,-326.403 757.27,-339.063 776,-353.403 783.193,-358.909 791.377,-363.99 799.496,-368.476"/>
<polygon fill="midnightblue" stroke="midnightblue" points="798.102,-371.698 808.578,-373.277 801.374,-365.509 798.102,-371.698"/>
</g>
<!-- Node19 -->
<g id="node19" class="node"><title>Node19</title>
<g id="a_node19"><a xlink:href="classRa_1_1Engine_1_1Component.html#aa3e5cb90432a9a49e4362b673652ff76" target="_top" xlink:title="Return the component&#39;s name. ">
<polygon fill="white" stroke="black" points="600,-324.403 600,-354.403 722,-354.403 722,-324.403 600,-324.403"/>
<text text-anchor="start" x="608" y="-342.403" font-family="Helvetica,sans-Serif" font-size="10.00">Ra::Engine::Component</text>
<text text-anchor="middle" x="661" y="-331.403" font-family="Helvetica,sans-Serif" font-size="10.00">::getName</text>
</a>
</g>
</g>
<!-- Node6&#45;&gt;Node19 -->
<g id="edge25" class="edge"><title>Node6&#45;&gt;Node19</title>
<path fill="none" stroke="midnightblue" d="M479.344,-237.944C499.152,-254.254 541.78,-287.822 582,-309.403 589.443,-313.396 597.535,-317.125 605.595,-320.503"/>
<polygon fill="midnightblue" stroke="midnightblue" points="604.419,-323.802 615.002,-324.302 607.041,-317.312 604.419,-323.802"/>
</g>
<!-- Node20 -->
<g id="node20" class="node"><title>Node20</title>
<g id="a_node20"><a xlink:href="structRa_1_1Engine_1_1ItemEntry.html#a4823dfa3c113db71733979f1719f3b28" target="_top" xlink:title="Returns true if the item represents an entity. ">
<polygon fill="white" stroke="black" points="604,-236.403 604,-266.403 718,-266.403 718,-236.403 604,-236.403"/>
<text text-anchor="start" x="612" y="-254.403" font-family="Helvetica,sans-Serif" font-size="10.00">Ra::Engine::ItemEntry</text>
<text text-anchor="middle" x="661" y="-243.403" font-family="Helvetica,sans-Serif" font-size="10.00">::isEntityNode</text>
</a>
</g>
</g>
<!-- Node6&#45;&gt;Node20 -->
<g id="edge26" class="edge"><title>Node6&#45;&gt;Node20</title>
<path fill="none" stroke="midnightblue" d="M534.076,-236.318C553.293,-238.62 574.288,-241.135 593.529,-243.44"/>
<polygon fill="midnightblue" stroke="midnightblue" points="593.368,-246.946 603.713,-244.66 594.201,-239.995 593.368,-246.946"/>
</g>
<!-- Node8 -->
<g id="node8" class="node"><title>Node8</title>
<g id="a_node8"><a xlink:href="structRa_1_1Engine_1_1ItemEntry.html#a1fb9fdd74413a1fa5878f53c1cfcf8fd" target="_top" xlink:title="Debug checks. ">
<polygon fill="white" stroke="black" points="954,-329.403 954,-359.403 1068,-359.403 1068,-329.403 954,-329.403"/>
<text text-anchor="start" x="962" y="-347.403" font-family="Helvetica,sans-Serif" font-size="10.00">Ra::Engine::ItemEntry</text>
<text text-anchor="middle" x="1011" y="-336.403" font-family="Helvetica,sans-Serif" font-size="10.00">::checkConsistency</text>
</a>
</g>
</g>
<!-- Node7&#45;&gt;Node8 -->
<g id="edge7" class="edge"><title>Node7&#45;&gt;Node8</title>
<path fill="none" stroke="midnightblue" d="M700.344,-178.434C713.461,-184.381 727.873,-191.852 740,-200.403 758.492,-213.442 756.504,-224.918 776,-236.403 830.18,-268.317 855.28,-248.258 912,-275.403 938.487,-288.079 965.551,-307.746 984.508,-322.846"/>
<polygon fill="midnightblue" stroke="midnightblue" points="982.39,-325.634 992.363,-329.211 986.797,-320.196 982.39,-325.634"/>
</g>
<!-- Node10 -->
<g id="node10" class="node"><title>Node10</title>
<g id="a_node10"><a xlink:href="classRa_1_1Engine_1_1RadiumEngine.html#a79f6626ce468268791bc5bdfe17b5586" target="_top" xlink:title="Ra::Engine::RadiumEngine\l::getEntityManager">
<polygon fill="white" stroke="black" points="776.5,-197.403 776.5,-227.403 911.5,-227.403 911.5,-197.403 776.5,-197.403"/>
<text text-anchor="start" x="784.5" y="-215.403" font-family="Helvetica,sans-Serif" font-size="10.00">Ra::Engine::RadiumEngine</text>
<text text-anchor="middle" x="844" y="-204.403" font-family="Helvetica,sans-Serif" font-size="10.00">::getEntityManager</text>
</a>
</g>
</g>
<!-- Node7&#45;&gt;Node10 -->
<g id="edge9" class="edge"><title>Node7&#45;&gt;Node10</title>
<path fill="none" stroke="midnightblue" d="M717.783,-178.504C736.71,-183.628 758.025,-189.398 777.63,-194.706"/>
<polygon fill="midnightblue" stroke="midnightblue" points="776.834,-198.116 787.401,-197.351 778.663,-191.359 776.834,-198.116"/>
</g>
<!-- Node11 -->
<g id="node11" class="node"><title>Node11</title>
<g id="a_node11"><a xlink:href="classRa_1_1Engine_1_1EntityManager.html#a5115cccae6aaef614ad4bd08e64d8185" target="_top" xlink:title="Check wether an entity with a given name exists or not. ">
<polygon fill="white" stroke="black" points="777,-148.403 777,-178.403 911,-178.403 911,-148.403 777,-148.403"/>
<text text-anchor="start" x="785" y="-166.403" font-family="Helvetica,sans-Serif" font-size="10.00">Ra::Engine::EntityManager</text>
<text text-anchor="middle" x="844" y="-155.403" font-family="Helvetica,sans-Serif" font-size="10.00">::entityExists</text>
</a>
</g>
</g>
<!-- Node7&#45;&gt;Node11 -->
<g id="edge10" class="edge"><title>Node7&#45;&gt;Node11</title>
<path fill="none" stroke="midnightblue" d="M718.277,-163.403C733.66,-163.403 750.591,-163.403 766.883,-163.403"/>
<polygon fill="midnightblue" stroke="midnightblue" points="766.925,-166.903 776.925,-163.403 766.925,-159.903 766.925,-166.903"/>
</g>
<!-- Node7&#45;&gt;Node12 -->
<g id="edge11" class="edge"><title>Node7&#45;&gt;Node12</title>
<path fill="none" stroke="midnightblue" d="M717.155,-178.409C725.452,-182.347 733.42,-187.269 740,-193.403 767.633,-219.162 749.07,-243.909 776,-270.403 779.709,-274.052 783.94,-277.3 788.431,-280.182"/>
<polygon fill="midnightblue" stroke="midnightblue" points="786.904,-283.342 797.319,-285.284 790.388,-277.271 786.904,-283.342"/>
</g>
<!-- Node7&#45;&gt;Node13 -->
<g id="edge12" class="edge"><title>Node7&#45;&gt;Node13</title>
<path fill="none" stroke="midnightblue" d="M717.783,-148.301C736.71,-143.177 758.025,-137.407 777.63,-132.099"/>
<polygon fill="midnightblue" stroke="midnightblue" points="778.663,-135.446 787.401,-129.454 776.834,-128.689 778.663,-135.446"/>
</g>
<!-- Node7&#45;&gt;Node15 -->
<g id="edge15" class="edge"><title>Node7&#45;&gt;Node15</title>
<path fill="none" stroke="midnightblue" d="M681.084,-148.14C697.608,-134.451 721.669,-113.347 740,-92.4026 758.512,-71.2504 753.701,-57.5168 776,-40.4026 777.792,-39.0273 779.669,-37.7261 781.611,-36.4953"/>
<polygon fill="midnightblue" stroke="midnightblue" points="783.453,-39.4757 790.472,-31.5394 780.036,-33.3664 783.453,-39.4757"/>
</g>
<!-- Node16 -->
<g id="node16" class="node"><title>Node16</title>
<g id="a_node16"><a xlink:href="classRa_1_1Engine_1_1RenderObjectManager.html#a4077b9cf9e1e4d62fd5456386f2d72c8" target="_top" xlink:title="Returns true if the index points to a valid render object. ">
<polygon fill="white" stroke="black" points="778.5,-50.4026 778.5,-80.4026 909.5,-80.4026 909.5,-50.4026 778.5,-50.4026"/>
<text text-anchor="start" x="786.5" y="-68.4026" font-family="Helvetica,sans-Serif" font-size="10.00">Ra::Engine::RenderObject</text>
<text text-anchor="middle" x="844" y="-57.4026" font-family="Helvetica,sans-Serif" font-size="10.00">Manager::exists</text>
</a>
</g>
</g>
<!-- Node7&#45;&gt;Node16 -->
<g id="edge16" class="edge"><title>Node7&#45;&gt;Node16</title>
<path fill="none" stroke="midnightblue" d="M682.152,-148.255C704.29,-132.117 741.323,-106.577 776,-89.4026 779.572,-87.6332 783.309,-85.9286 787.111,-84.3005"/>
<polygon fill="midnightblue" stroke="midnightblue" points="788.701,-87.4322 796.641,-80.418 786.06,-80.9495 788.701,-87.4322"/>
</g>
<!-- Node9 -->
<g id="node9" class="node"><title>Node9</title>
<g id="a_node9"><a xlink:href="classRa_1_1Core_1_1Index.html#a7283e7fb9cc134e04ef3cde8877f8fe2" target="_top" xlink:title="INVALID. ">
<polygon fill="white" stroke="black" points="1110,-356.903 1110,-375.903 1238,-375.903 1238,-356.903 1110,-356.903"/>
<text text-anchor="middle" x="1174" y="-363.903" font-family="Helvetica,sans-Serif" font-size="10.00">Ra::Core::Index::isInvalid</text>
</a>
</g>
</g>
<!-- Node8&#45;&gt;Node9 -->
<g id="edge8" class="edge"><title>Node8&#45;&gt;Node9</title>
<path fill="none" stroke="midnightblue" d="M1068.31,-352.097C1078.48,-353.487 1089.22,-354.954 1099.79,-356.398"/>
<polygon fill="midnightblue" stroke="midnightblue" points="1099.46,-359.887 1109.85,-357.773 1100.41,-352.951 1099.46,-359.887"/>
</g>
<!-- Node13&#45;&gt;Node8 -->
<g id="edge13" class="edge"><title>Node13&#45;&gt;Node8</title>
<path fill="none" stroke="midnightblue" d="M899.445,-129.562C903.971,-132.079 908.243,-135.004 912,-138.403 967.37,-188.491 994.336,-276.524 1004.7,-319.452"/>
<polygon fill="midnightblue" stroke="midnightblue" points="1001.33,-320.388 1006.99,-329.343 1008.15,-318.812 1001.33,-320.388"/>
</g>
<!-- Node14 -->
<g id="node14" class="node"><title>Node14</title>
<g id="a_node14"><a xlink:href="classRa_1_1Core_1_1Index.html#a87c70243f30c65c1a24834d1829bda01" target="_top" xlink:title="DESTRUCTOR: Must not be defined, we need it trivial to be constexpr. ">
<polygon fill="white" stroke="black" points="950,-80.9026 950,-99.9026 1072,-99.9026 1072,-80.9026 950,-80.9026"/>
<text text-anchor="middle" x="1011" y="-87.9026" font-family="Helvetica,sans-Serif" font-size="10.00">Ra::Core::Index::isValid</text>
</a>
</g>
</g>
<!-- Node13&#45;&gt;Node14 -->
<g id="edge14" class="edge"><title>Node13&#45;&gt;Node14</title>
<path fill="none" stroke="midnightblue" d="M901.322,-106.21C913.698,-104.41 926.95,-102.483 939.796,-100.614"/>
<polygon fill="midnightblue" stroke="midnightblue" points="940.594,-104.035 949.986,-99.1318 939.587,-97.1078 940.594,-104.035"/>
</g>
<!-- Node16&#45;&gt;Node14 -->
<g id="edge17" class="edge"><title>Node16&#45;&gt;Node14</title>
<path fill="none" stroke="midnightblue" d="M909.739,-75.2115C919.625,-76.7094 929.868,-78.2614 939.864,-79.7759"/>
<polygon fill="midnightblue" stroke="midnightblue" points="939.343,-83.2368 949.755,-81.2745 940.392,-76.3158 939.343,-83.2368"/>
</g>
<!-- Node17&#45;&gt;Node16 -->
<g id="edge21" class="edge"><title>Node17&#45;&gt;Node16</title>
<path fill="none" stroke="midnightblue" d="M728.113,-67.3068C741.15,-67.0907 754.917,-66.8625 768.216,-66.6421"/>
<polygon fill="midnightblue" stroke="midnightblue" points="768.334,-70.1407 778.275,-66.4754 768.218,-63.1417 768.334,-70.1407"/>
</g>
<!-- Node18&#45;&gt;Node8 -->
<g id="edge23" class="edge"><title>Node18&#45;&gt;Node8</title>
<path fill="none" stroke="midnightblue" d="M901.322,-373.383C915.127,-369.702 930.024,-365.73 944.229,-361.941"/>
<polygon fill="midnightblue" stroke="midnightblue" points="945.171,-365.313 953.932,-359.354 943.367,-358.549 945.171,-365.313"/>
</g>
<!-- Node18&#45;&gt;Node9 -->
<g id="edge24" class="edge"><title>Node18&#45;&gt;Node9</title>
<path fill="none" stroke="midnightblue" d="M901.013,-384.646C955.842,-380.968 1039.66,-375.346 1099.75,-371.316"/>
<polygon fill="midnightblue" stroke="midnightblue" points="1100.19,-374.794 1109.93,-370.633 1099.72,-367.81 1100.19,-374.794"/>
</g>
<!-- Node20&#45;&gt;Node8 -->
<g id="edge27" class="edge"><title>Node20&#45;&gt;Node8</title>
<path fill="none" stroke="midnightblue" d="M712.608,-266.549C722.161,-270.579 731.737,-275.498 740,-281.403 760.279,-295.894 753.886,-312.904 776,-324.403 827.672,-351.272 894.532,-354.383 943.544,-351.884"/>
<polygon fill="midnightblue" stroke="midnightblue" points="943.949,-355.366 953.72,-351.272 943.528,-348.379 943.949,-355.366"/>
</g>
<!-- Node21&#45;&gt;Node5 -->
<g id="edge30" class="edge"><title>Node21&#45;&gt;Node5</title>
<path fill="none" stroke="midnightblue" d="M545.54,-428.595C554.388,-428.503 563.452,-428.408 572.418,-428.315"/>
<polygon fill="midnightblue" stroke="midnightblue" points="572.519,-431.814 582.482,-428.21 572.446,-424.815 572.519,-431.814"/>
</g>
<!-- Node22 -->
<g id="node22" class="node"><title>Node22</title>
<g id="a_node22"><a xlink:href="classRa_1_1GuiBase_1_1ItemModel.html#a3236433d461ad6cac5e9390b2685fa3f" target="_top" xlink:title="Returns the entry corresponding to a given index or an invalid entry if the index doesn&#39;t match any e...">
<polygon fill="white" stroke="black" points="598.5,-461.403 598.5,-491.403 723.5,-491.403 723.5,-461.403 598.5,-461.403"/>
<text text-anchor="start" x="606.5" y="-479.403" font-family="Helvetica,sans-Serif" font-size="10.00">Ra::GuiBase::ItemModel</text>
<text text-anchor="middle" x="661" y="-468.403" font-family="Helvetica,sans-Serif" font-size="10.00">::getEntry</text>
</a>
</g>
</g>
<!-- Node21&#45;&gt;Node22 -->
<g id="edge31" class="edge"><title>Node21&#45;&gt;Node22</title>
<path fill="none" stroke="midnightblue" d="M529.278,-444.403C548.243,-449.045 569.297,-454.199 588.869,-458.99"/>
<polygon fill="midnightblue" stroke="midnightblue" points="588.1,-462.405 598.646,-461.384 589.765,-455.606 588.1,-462.405"/>
</g>
<!-- Node23 -->
<g id="node23" class="node"><title>Node23</title>
<g id="a_node23"><a xlink:href="classRa_1_1GuiBase_1_1TreeModel.html#a5aa24ace72c1c3d29e268cb34dc576f2" target="_top" xlink:title="Get the tree item corresponding to the given index. ">
<polygon fill="white" stroke="black" points="781.5,-461.403 781.5,-491.403 906.5,-491.403 906.5,-461.403 781.5,-461.403"/>
<text text-anchor="start" x="789.5" y="-479.403" font-family="Helvetica,sans-Serif" font-size="10.00">Ra::GuiBase::TreeModel</text>
<text text-anchor="middle" x="844" y="-468.403" font-family="Helvetica,sans-Serif" font-size="10.00">::getItem</text>
</a>
</g>
</g>
<!-- Node22&#45;&gt;Node23 -->
<g id="edge32" class="edge"><title>Node22&#45;&gt;Node23</title>
<path fill="none" stroke="midnightblue" d="M723.531,-476.403C738.832,-476.403 755.367,-476.403 771.117,-476.403"/>
<polygon fill="midnightblue" stroke="midnightblue" points="771.332,-479.903 781.332,-476.403 771.332,-472.903 771.332,-479.903"/>
</g>
<!-- Node24 -->
<g id="node24" class="node"><title>Node24</title>
<g id="a_node24"><a xlink:href="classRa_1_1GuiBase_1_1TreeModel.html#a972106921da4c960f23f81722d3b4cf5" target="_top" xlink:title="Internal functions to check if an item is in the tree. ">
<polygon fill="white" stroke="black" points="948.5,-461.403 948.5,-491.403 1073.5,-491.403 1073.5,-461.403 948.5,-461.403"/>
<text text-anchor="start" x="956.5" y="-479.403" font-family="Helvetica,sans-Serif" font-size="10.00">Ra::GuiBase::TreeModel</text>
<text text-anchor="middle" x="1011" y="-468.403" font-family="Helvetica,sans-Serif" font-size="10.00">::findInTree</text>
</a>
</g>
</g>
<!-- Node23&#45;&gt;Node24 -->
<g id="edge33" class="edge"><title>Node23&#45;&gt;Node24</title>
<path fill="none" stroke="midnightblue" d="M906.909,-476.403C917.06,-476.403 927.654,-476.403 938.023,-476.403"/>
<polygon fill="midnightblue" stroke="midnightblue" points="938.292,-479.903 948.292,-476.403 938.292,-472.903 938.292,-479.903"/>
</g>
<!-- Node26 -->
<g id="node26" class="node"><title>Node26</title>
<g id="a_node26"><a xlink:href="namespaceRa_1_1Core.html#afbcfb893482b94cd32a00586b953098b" target="_top" xlink:title="CLEAR. ">
<polygon fill="white" stroke="black" points="425.5,-180.903 425.5,-199.903 508.5,-199.903 508.5,-180.903 425.5,-180.903"/>
<text text-anchor="middle" x="467" y="-187.903" font-family="Helvetica,sans-Serif" font-size="10.00">Ra::Core::clear</text>
</a>
</g>
</g>
<!-- Node25&#45;&gt;Node26 -->
<g id="edge35" class="edge"><title>Node25&#45;&gt;Node26</title>
<path fill="none" stroke="midnightblue" d="M298.056,-255.211C320.565,-241.568 355.501,-221.826 388,-209.403 396.7,-206.077 406.173,-203.193 415.423,-200.746"/>
<polygon fill="midnightblue" stroke="midnightblue" points="416.477,-204.09 425.325,-198.263 414.774,-197.3 416.477,-204.09"/>
</g>
</g>
</svg>
