<?xml version="1.0" encoding="UTF-8" standalone="no"?>
<!DOCTYPE svg PUBLIC "-//W3C//DTD SVG 1.1//EN"
 "http://www.w3.org/Graphics/SVG/1.1/DTD/svg11.dtd">
<!-- Generated by graphviz version 2.36.0 (20140111.2315)
 -->
<!-- Title: Ra::IO::AssimpGeometryDataLoader::loadGeometryData Pages: 1 -->
<svg width="708pt" height="885pt"
 viewBox="0.00 0.00 708.00 885.00" xmlns="http://www.w3.org/2000/svg" xmlns:xlink="http://www.w3.org/1999/xlink">
<g id="graph0" class="graph" transform="scale(1 1) rotate(0) translate(4 881)">
<title>Ra::IO::AssimpGeometryDataLoader::loadGeometryData</title>
<polygon fill="white" stroke="none" points="-4,4 -4,-881 704,-881 704,4 -4,4"/>
<!-- Node1 -->
<g id="node1" class="node"><title>Node1</title>
<polygon fill="#bfbfbf" stroke="black" points="0.5,-403 0.5,-433 149.5,-433 149.5,-403 0.5,-403"/>
<text text-anchor="start" x="8.5" y="-421" font-family="Helvetica,sans-Serif" font-size="10.00">Ra::IO::AssimpGeometryData</text>
<text text-anchor="middle" x="75" y="-410" font-family="Helvetica,sans-Serif" font-size="10.00">Loader::loadGeometryData</text>
</g>
<!-- Node2 -->
<g id="node2" class="node"><title>Node2</title>
<g id="a_node2"><a xlink:href="namespaceRa_1_1Core.html#abc0a3625137098b67838fe52edd480f9" target="_top" xlink:title="SIZE. ">
<polygon fill="white" stroke="black" points="594,-573.5 594,-592.5 674,-592.5 674,-573.5 594,-573.5"/>
<text text-anchor="middle" x="634" y="-580.5" font-family="Helvetica,sans-Serif" font-size="10.00">Ra::Core::size</text>
</a>
</g>
</g>
<!-- Node1&#45;&gt;Node2 -->
<g id="edge1" class="edge"><title>Node1&#45;&gt;Node2</title>
<path fill="none" stroke="midnightblue" d="M87.7326,-433.066C123.978,-478.179 239.731,-611.784 372,-656 439.443,-678.545 469.303,-689.554 532,-656 557.431,-642.39 544.754,-619.077 568,-602 572.856,-598.433 578.373,-595.532 584.091,-593.175"/>
<polygon fill="midnightblue" stroke="midnightblue" points="585.584,-596.358 593.824,-589.697 583.229,-589.766 585.584,-596.358"/>
</g>
<!-- Node3 -->
<g id="node3" class="node"><title>Node3</title>
<g id="a_node3"><a xlink:href="classRa_1_1Asset_1_1GeometryData.html#a1757358fc134d3fd1bdc6f67516accb8" target="_top" xlink:title="Ra::Asset::GeometryData\l::setLoadDuplicates">
<polygon fill="white" stroke="black" points="195.5,-477 195.5,-507 326.5,-507 326.5,-477 195.5,-477"/>
<text text-anchor="start" x="203.5" y="-495" font-family="Helvetica,sans-Serif" font-size="10.00">Ra::Asset::GeometryData</text>
<text text-anchor="middle" x="261" y="-484" font-family="Helvetica,sans-Serif" font-size="10.00">::setLoadDuplicates</text>
</a>
</g>
</g>
<!-- Node1&#45;&gt;Node3 -->
<g id="edge2" class="edge"><title>Node1&#45;&gt;Node3</title>
<path fill="none" stroke="midnightblue" d="M107.915,-433.164C129.695,-443.277 159.322,-456.578 186,-467 191.583,-469.181 197.445,-471.354 203.322,-473.458"/>
<polygon fill="midnightblue" stroke="midnightblue" points="202.586,-476.909 213.181,-476.92 204.905,-470.304 202.586,-476.909"/>
</g>
<!-- Node4 -->
<g id="node4" class="node"><title>Node4</title>
<g id="a_node4"><a xlink:href="classRa_1_1IO_1_1AssimpGeometryDataLoader.html#afcf02a4baea0060c81f9fde8ca6a070b" target="_top" xlink:title="Ra::IO::AssimpGeometryData\lLoader::loadMeshData">
<polygon fill="white" stroke="black" points="186.5,-379 186.5,-409 335.5,-409 335.5,-379 186.5,-379"/>
<text text-anchor="start" x="194.5" y="-397" font-family="Helvetica,sans-Serif" font-size="10.00">Ra::IO::AssimpGeometryData</text>
<text text-anchor="middle" x="261" y="-386" font-family="Helvetica,sans-Serif" font-size="10.00">Loader::loadMeshData</text>
</a>
</g>
</g>
<!-- Node1&#45;&gt;Node4 -->
<g id="edge3" class="edge"><title>Node1&#45;&gt;Node4</title>
<path fill="none" stroke="midnightblue" d="M149.515,-408.411C158.315,-407.263 167.351,-406.085 176.281,-404.92"/>
<polygon fill="midnightblue" stroke="midnightblue" points="176.838,-408.377 186.302,-403.613 175.933,-401.436 176.838,-408.377"/>
</g>
<!-- Node32 -->
<g id="node32" class="node"><title>Node32</title>
<g id="a_node32"><a xlink:href="classRa_1_1IO_1_1AssimpGeometryDataLoader.html#ab38389f07aecc7c690d899fbafe8082e" target="_top" xlink:title="MATERIAL. ">
<polygon fill="white" stroke="black" points="186.5,-142 186.5,-172 335.5,-172 335.5,-142 186.5,-142"/>
<text text-anchor="start" x="194.5" y="-160" font-family="Helvetica,sans-Serif" font-size="10.00">Ra::IO::AssimpGeometryData</text>
<text text-anchor="middle" x="261" y="-149" font-family="Helvetica,sans-Serif" font-size="10.00">Loader::loadMaterial</text>
</a>
</g>
</g>
<!-- Node1&#45;&gt;Node32 -->
<g id="edge50" class="edge"><title>Node1&#45;&gt;Node32</title>
<path fill="none" stroke="midnightblue" d="M86.6879,-402.839C117.43,-359.232 206.251,-233.241 243.379,-180.576"/>
<polygon fill="midnightblue" stroke="midnightblue" points="246.381,-182.392 249.283,-172.202 240.66,-178.359 246.381,-182.392"/>
</g>
<!-- Node34 -->
<g id="node34" class="node"><title>Node34</title>
<g id="a_node34"><a xlink:href="classRa_1_1Asset_1_1GeometryData.html#a7c2ca971fb4250bb0e2cb85c482806ec" target="_top" xlink:title="DEBUG. ">
<polygon fill="white" stroke="black" points="195.5,-330 195.5,-360 326.5,-360 326.5,-330 195.5,-330"/>
<text text-anchor="start" x="203.5" y="-348" font-family="Helvetica,sans-Serif" font-size="10.00">Ra::Asset::GeometryData</text>
<text text-anchor="middle" x="261" y="-337" font-family="Helvetica,sans-Serif" font-size="10.00">::displayInfo</text>
</a>
</g>
</g>
<!-- Node1&#45;&gt;Node34 -->
<g id="edge53" class="edge"><title>Node1&#45;&gt;Node34</title>
<path fill="none" stroke="midnightblue" d="M107.399,-402.952C129.203,-392.766 159.064,-379.334 186,-369 191.044,-367.065 196.318,-365.148 201.628,-363.292"/>
<polygon fill="midnightblue" stroke="midnightblue" points="202.852,-366.573 211.181,-360.025 200.587,-359.949 202.852,-366.573"/>
</g>
<!-- Node35 -->
<g id="node35" class="node"><title>Node35</title>
<g id="a_node35"><a xlink:href="classRa_1_1IO_1_1AssimpGeometryDataLoader.html#a79e957b025386a0d911e985e53136d71" target="_top" xlink:title="Ra::IO::AssimpGeometryData\lLoader::loadMeshFrame">
<polygon fill="white" stroke="black" points="186.5,-428 186.5,-458 335.5,-458 335.5,-428 186.5,-428"/>
<text text-anchor="start" x="194.5" y="-446" font-family="Helvetica,sans-Serif" font-size="10.00">Ra::IO::AssimpGeometryData</text>
<text text-anchor="middle" x="261" y="-435" font-family="Helvetica,sans-Serif" font-size="10.00">Loader::loadMeshFrame</text>
</a>
</g>
</g>
<!-- Node1&#45;&gt;Node35 -->
<g id="edge54" class="edge"><title>Node1&#45;&gt;Node35</title>
<path fill="none" stroke="midnightblue" d="M149.515,-427.988C158.315,-429.184 167.351,-430.412 176.281,-431.625"/>
<polygon fill="midnightblue" stroke="midnightblue" points="175.921,-435.108 186.302,-432.987 176.864,-428.172 175.921,-435.108"/>
</g>
<!-- Node5 -->
<g id="node5" class="node"><title>Node5</title>
<g id="a_node5"><a xlink:href="classRa_1_1IO_1_1AssimpGeometryDataLoader.html#a52df2ebcfac6c77d72d725f6833bccc8" target="_top" xlink:title="NAME. ">
<polygon fill="white" stroke="black" points="377.5,-98 377.5,-128 526.5,-128 526.5,-98 377.5,-98"/>
<text text-anchor="start" x="385.5" y="-116" font-family="Helvetica,sans-Serif" font-size="10.00">Ra::IO::AssimpGeometryData</text>
<text text-anchor="middle" x="452" y="-105" font-family="Helvetica,sans-Serif" font-size="10.00">Loader::fetchName</text>
</a>
</g>
</g>
<!-- Node4&#45;&gt;Node5 -->
<g id="edge4" class="edge"><title>Node4&#45;&gt;Node5</title>
<path fill="none" stroke="midnightblue" d="M324.245,-378.956C328.618,-376.179 332.623,-372.892 336,-369 393.188,-303.096 327.063,-250.796 372,-176 382.367,-158.745 399.313,-144.301 414.857,-133.614"/>
<polygon fill="midnightblue" stroke="midnightblue" points="416.861,-136.486 423.297,-128.07 413.018,-130.635 416.861,-136.486"/>
</g>
<!-- Node8 -->
<g id="node8" class="node"><title>Node8</title>
<g id="a_node8"><a xlink:href="classRa_1_1IO_1_1AssimpGeometryDataLoader.html#a0da619e2173b7a422405fd1d2767af42" target="_top" xlink:title="TYPE. ">
<polygon fill="white" stroke="black" points="377.5,-49 377.5,-79 526.5,-79 526.5,-49 377.5,-49"/>
<text text-anchor="start" x="385.5" y="-67" font-family="Helvetica,sans-Serif" font-size="10.00">Ra::IO::AssimpGeometryData</text>
<text text-anchor="middle" x="452" y="-56" font-family="Helvetica,sans-Serif" font-size="10.00">Loader::fetchType</text>
</a>
</g>
</g>
<!-- Node4&#45;&gt;Node8 -->
<g id="edge7" class="edge"><title>Node4&#45;&gt;Node8</title>
<path fill="none" stroke="midnightblue" d="M324.83,-378.938C329.015,-376.164 332.821,-372.882 336,-369 415.777,-271.59 290.729,-184.168 372,-88 372.627,-87.2576 373.277,-86.5376 373.947,-85.8395"/>
<polygon fill="midnightblue" stroke="midnightblue" points="376.465,-88.2937 381.842,-79.1642 371.946,-82.9485 376.465,-88.2937"/>
</g>
<!-- Node10 -->
<g id="node10" class="node"><title>Node10</title>
<g id="a_node10"><a xlink:href="classRa_1_1IO_1_1AssimpGeometryDataLoader.html#ad369689491711d63ac789df228f4db94" target="_top" xlink:title="VERTEX. ">
<polygon fill="white" stroke="black" points="377.5,-754 377.5,-784 526.5,-784 526.5,-754 377.5,-754"/>
<text text-anchor="start" x="385.5" y="-772" font-family="Helvetica,sans-Serif" font-size="10.00">Ra::IO::AssimpGeometryData</text>
<text text-anchor="middle" x="452" y="-761" font-family="Helvetica,sans-Serif" font-size="10.00">Loader::fetchVertices</text>
</a>
</g>
</g>
<!-- Node4&#45;&gt;Node10 -->
<g id="edge9" class="edge"><title>Node4&#45;&gt;Node10</title>
<path fill="none" stroke="midnightblue" d="M326.22,-409.04C329.866,-411.581 333.185,-414.544 336,-418 428.064,-531.018 279.533,-631.312 372,-744 372.998,-745.216 374.055,-746.374 375.164,-747.477"/>
<polygon fill="midnightblue" stroke="midnightblue" points="373.198,-750.389 383.167,-753.976 377.611,-744.955 373.198,-750.389"/>
</g>
<!-- Node15 -->
<g id="node15" class="node"><title>Node15</title>
<g id="a_node15"><a xlink:href="classRa_1_1Asset_1_1GeometryData.html#aedb628595b4768888ea0c02c37242ef7" target="_top" xlink:title="Ra::Asset::GeometryData\l::isLineMesh">
<polygon fill="white" stroke="black" points="386.5,-333 386.5,-363 517.5,-363 517.5,-333 386.5,-333"/>
<text text-anchor="start" x="394.5" y="-351" font-family="Helvetica,sans-Serif" font-size="10.00">Ra::Asset::GeometryData</text>
<text text-anchor="middle" x="452" y="-340" font-family="Helvetica,sans-Serif" font-size="10.00">::isLineMesh</text>
</a>
</g>
</g>
<!-- Node4&#45;&gt;Node15 -->
<g id="edge16" class="edge"><title>Node4&#45;&gt;Node15</title>
<path fill="none" stroke="midnightblue" d="M323.886,-378.938C341.681,-374.607 361.234,-369.848 379.556,-365.388"/>
<polygon fill="midnightblue" stroke="midnightblue" points="380.41,-368.783 389.298,-363.017 378.754,-361.982 380.41,-368.783"/>
</g>
<!-- Node16 -->
<g id="node16" class="node"><title>Node16</title>
<g id="a_node16"><a xlink:href="classRa_1_1IO_1_1AssimpGeometryDataLoader.html#ae1a8d24d2eff35f746cfdb4c5dbb740f" target="_top" xlink:title="EDGE. ">
<polygon fill="white" stroke="black" points="377.5,-705 377.5,-735 526.5,-735 526.5,-705 377.5,-705"/>
<text text-anchor="start" x="385.5" y="-723" font-family="Helvetica,sans-Serif" font-size="10.00">Ra::IO::AssimpGeometryData</text>
<text text-anchor="middle" x="452" y="-712" font-family="Helvetica,sans-Serif" font-size="10.00">Loader::fetchEdges</text>
</a>
</g>
</g>
<!-- Node4&#45;&gt;Node16 -->
<g id="edge17" class="edge"><title>Node4&#45;&gt;Node16</title>
<path fill="none" stroke="midnightblue" d="M326.064,-409.17C329.746,-411.681 333.116,-414.602 336,-418 405.217,-499.572 318.842,-563.161 372,-656 382.138,-673.707 399.228,-688.471 414.925,-699.341"/>
<polygon fill="midnightblue" stroke="midnightblue" points="413.176,-702.381 423.448,-704.973 417.034,-696.54 413.176,-702.381"/>
</g>
<!-- Node18 -->
<g id="node18" class="node"><title>Node18</title>
<g id="a_node18"><a xlink:href="classRa_1_1IO_1_1AssimpGeometryDataLoader.html#a7f554a1a591245ed063fdb5539e4669e" target="_top" xlink:title="FACE. ">
<polygon fill="white" stroke="black" points="377.5,-519 377.5,-549 526.5,-549 526.5,-519 377.5,-519"/>
<text text-anchor="start" x="385.5" y="-537" font-family="Helvetica,sans-Serif" font-size="10.00">Ra::IO::AssimpGeometryData</text>
<text text-anchor="middle" x="452" y="-526" font-family="Helvetica,sans-Serif" font-size="10.00">Loader::fetchFaces</text>
</a>
</g>
</g>
<!-- Node4&#45;&gt;Node18 -->
<g id="edge23" class="edge"><title>Node4&#45;&gt;Node18</title>
<path fill="none" stroke="midnightblue" d="M323.811,-409.132C328.221,-411.647 332.357,-414.58 336,-418 367.71,-447.77 340.184,-479.344 372,-509 373.667,-510.554 375.431,-512.012 377.272,-513.378"/>
<polygon fill="midnightblue" stroke="midnightblue" points="375.475,-516.383 385.788,-518.81 379.239,-510.482 375.475,-516.383"/>
</g>
<!-- Node20 -->
<g id="node20" class="node"><title>Node20</title>
<g id="a_node20"><a xlink:href="classRa_1_1Asset_1_1GeometryData.html#a2f6d8fbb107960e57e1986447cdff885" target="_top" xlink:title="Ra::Asset::GeometryData\l::isTetraMesh">
<polygon fill="white" stroke="black" points="386.5,-235 386.5,-265 517.5,-265 517.5,-235 386.5,-235"/>
<text text-anchor="start" x="394.5" y="-253" font-family="Helvetica,sans-Serif" font-size="10.00">Ra::Asset::GeometryData</text>
<text text-anchor="middle" x="452" y="-242" font-family="Helvetica,sans-Serif" font-size="10.00">::isTetraMesh</text>
</a>
</g>
</g>
<!-- Node4&#45;&gt;Node20 -->
<g id="edge29" class="edge"><title>Node4&#45;&gt;Node20</title>
<path fill="none" stroke="midnightblue" d="M322.445,-378.884C327.379,-376.123 331.998,-372.859 336,-369 368.504,-337.659 339.017,-304.835 372,-274 373.702,-272.409 375.505,-270.924 377.392,-269.537"/>
<polygon fill="midnightblue" stroke="midnightblue" points="379.513,-272.338 386.129,-264.062 375.796,-266.406 379.513,-272.338"/>
</g>
<!-- Node21 -->
<g id="node21" class="node"><title>Node21</title>
<g id="a_node21"><a xlink:href="classRa_1_1Asset_1_1GeometryData.html#acd7a4eb5fa51846e16a49d08a704a92d" target="_top" xlink:title="Ra::Asset::GeometryData\l::isHexMesh">
<polygon fill="white" stroke="black" points="386.5,-186 386.5,-216 517.5,-216 517.5,-186 386.5,-186"/>
<text text-anchor="start" x="394.5" y="-204" font-family="Helvetica,sans-Serif" font-size="10.00">Ra::Asset::GeometryData</text>
<text text-anchor="middle" x="452" y="-193" font-family="Helvetica,sans-Serif" font-size="10.00">::isHexMesh</text>
</a>
</g>
</g>
<!-- Node4&#45;&gt;Node21 -->
<g id="edge30" class="edge"><title>Node4&#45;&gt;Node21</title>
<path fill="none" stroke="midnightblue" d="M323.642,-378.944C328.204,-376.171 332.415,-372.888 336,-369 380.725,-320.506 326.532,-272.798 372,-225 373.815,-223.092 375.777,-221.334 377.855,-219.714"/>
<polygon fill="midnightblue" stroke="midnightblue" points="379.933,-222.537 386.38,-214.129 376.097,-216.681 379.933,-222.537"/>
</g>
<!-- Node22 -->
<g id="node22" class="node"><title>Node22</title>
<g id="a_node22"><a xlink:href="classRa_1_1IO_1_1AssimpGeometryDataLoader.html#a93585196c7817640e31447e229d83c6c" target="_top" xlink:title="POLYHEDRON. ">
<polygon fill="white" stroke="black" points="377.5,-568 377.5,-598 526.5,-598 526.5,-568 377.5,-568"/>
<text text-anchor="start" x="385.5" y="-586" font-family="Helvetica,sans-Serif" font-size="10.00">Ra::IO::AssimpGeometryData</text>
<text text-anchor="middle" x="452" y="-575" font-family="Helvetica,sans-Serif" font-size="10.00">Loader::fetchPolyhedron</text>
</a>
</g>
</g>
<!-- Node4&#45;&gt;Node22 -->
<g id="edge31" class="edge"><title>Node4&#45;&gt;Node22</title>
<path fill="none" stroke="midnightblue" d="M324.99,-409.076C329.027,-411.604 332.763,-414.556 336,-418 380.001,-464.814 327.832,-511.343 372,-558 373.372,-559.45 374.828,-560.815 376.353,-562.102"/>
<polygon fill="midnightblue" stroke="midnightblue" points="374.33,-564.958 384.507,-567.902 378.387,-559.254 374.33,-564.958"/>
</g>
<!-- Node23 -->
<g id="node23" class="node"><title>Node23</title>
<g id="a_node23"><a xlink:href="classRa_1_1IO_1_1AssimpGeometryDataLoader.html#a104cc1f1ccf9e9ba3c11f506e8b4947e" target="_top" xlink:title="NORMAL. ">
<polygon fill="white" stroke="black" points="377.5,-470 377.5,-500 526.5,-500 526.5,-470 377.5,-470"/>
<text text-anchor="start" x="385.5" y="-488" font-family="Helvetica,sans-Serif" font-size="10.00">Ra::IO::AssimpGeometryData</text>
<text text-anchor="middle" x="452" y="-477" font-family="Helvetica,sans-Serif" font-size="10.00">Loader::fetchNormals</text>
</a>
</g>
</g>
<!-- Node4&#45;&gt;Node23 -->
<g id="edge32" class="edge"><title>Node4&#45;&gt;Node23</title>
<path fill="none" stroke="midnightblue" d="M313.493,-409.123C321.14,-411.821 328.849,-414.802 336,-418 365.608,-431.242 397.321,-450.106 419.929,-464.445"/>
<polygon fill="midnightblue" stroke="midnightblue" points="418.118,-467.441 428.425,-469.893 421.896,-461.549 418.118,-467.441"/>
</g>
<!-- Node26 -->
<g id="node26" class="node"><title>Node26</title>
<g id="a_node26"><a xlink:href="classRa_1_1IO_1_1AssimpGeometryDataLoader.html#a394b1ea37658c2e6c0150c987c6e4b9f" target="_top" xlink:title="TANGENT. ">
<polygon fill="white" stroke="black" points="377.5,-284 377.5,-314 526.5,-314 526.5,-284 377.5,-284"/>
<text text-anchor="start" x="385.5" y="-302" font-family="Helvetica,sans-Serif" font-size="10.00">Ra::IO::AssimpGeometryData</text>
<text text-anchor="middle" x="452" y="-291" font-family="Helvetica,sans-Serif" font-size="10.00">Loader::fetchTangents</text>
</a>
</g>
</g>
<!-- Node4&#45;&gt;Node26 -->
<g id="edge37" class="edge"><title>Node4&#45;&gt;Node26</title>
<path fill="none" stroke="midnightblue" d="M318.269,-378.93C324.52,-376.127 330.578,-372.841 336,-369 357.185,-353.995 350.586,-337.677 372,-323 374.25,-321.458 376.602,-320.012 379.029,-318.657"/>
<polygon fill="midnightblue" stroke="midnightblue" points="380.704,-321.733 388.092,-314.139 377.581,-315.469 380.704,-321.733"/>
</g>
<!-- Node28 -->
<g id="node28" class="node"><title>Node28</title>
<g id="a_node28"><a xlink:href="classRa_1_1IO_1_1AssimpGeometryDataLoader.html#a438274cd5cf254ab710431b59ddd3396" target="_top" xlink:title="BITANGENT. ">
<polygon fill="white" stroke="black" points="377.5,-382 377.5,-412 526.5,-412 526.5,-382 377.5,-382"/>
<text text-anchor="start" x="385.5" y="-400" font-family="Helvetica,sans-Serif" font-size="10.00">Ra::IO::AssimpGeometryData</text>
<text text-anchor="middle" x="452" y="-389" font-family="Helvetica,sans-Serif" font-size="10.00">Loader::fetchBitangents</text>
</a>
</g>
</g>
<!-- Node4&#45;&gt;Node28 -->
<g id="edge41" class="edge"><title>Node4&#45;&gt;Node28</title>
<path fill="none" stroke="midnightblue" d="M335.614,-395.168C345.982,-395.333 356.703,-395.503 367.243,-395.671"/>
<polygon fill="midnightblue" stroke="midnightblue" points="367.222,-399.171 377.276,-395.83 367.333,-392.171 367.222,-399.171"/>
</g>
<!-- Node30 -->
<g id="node30" class="node"><title>Node30</title>
<g id="a_node30"><a xlink:href="classRa_1_1IO_1_1AssimpGeometryDataLoader.html#afaae07a29263cd344435571cc964dac2" target="_top" xlink:title="TEXTURE COORDINATE. ">
<polygon fill="white" stroke="black" points="372.5,-617 372.5,-647 531.5,-647 531.5,-617 372.5,-617"/>
<text text-anchor="start" x="380.5" y="-635" font-family="Helvetica,sans-Serif" font-size="10.00">Ra::IO::AssimpGeometryData</text>
<text text-anchor="middle" x="452" y="-624" font-family="Helvetica,sans-Serif" font-size="10.00">Loader::fetchTextureCoordinates</text>
</a>
</g>
</g>
<!-- Node4&#45;&gt;Node30 -->
<g id="edge45" class="edge"><title>Node4&#45;&gt;Node30</title>
<path fill="none" stroke="midnightblue" d="M325.579,-409.072C329.427,-411.603 332.963,-414.556 336,-418 392.557,-482.135 315.214,-543.068 372,-607 373.182,-608.331 374.435,-609.592 375.748,-610.786"/>
<polygon fill="midnightblue" stroke="midnightblue" points="373.779,-613.685 383.867,-616.923 378,-608.101 373.779,-613.685"/>
</g>
<!-- Node6 -->
<g id="node6" class="node"><title>Node6</title>
<g id="a_node6"><a xlink:href="namespaceRa_1_1IO.html#aef6c50424873964fcea0008be55d4a34" target="_top" xlink:title="Ra::IO::assimpToCore">
<polygon fill="white" stroke="black" points="576,-387.5 576,-406.5 692,-406.5 692,-387.5 576,-387.5"/>
<text text-anchor="middle" x="634" y="-394.5" font-family="Helvetica,sans-Serif" font-size="10.00">Ra::IO::assimpToCore</text>
</a>
</g>
</g>
<!-- Node5&#45;&gt;Node6 -->
<g id="edge5" class="edge"><title>Node5&#45;&gt;Node6</title>
<path fill="none" stroke="midnightblue" d="M513.63,-128.055C520.621,-131.946 527.017,-136.841 532,-143 598.185,-224.802 499.215,-297.372 568,-377 569.505,-378.742 571.158,-380.335 572.927,-381.791"/>
<polygon fill="midnightblue" stroke="midnightblue" points="571.061,-384.753 581.336,-387.339 574.917,-378.91 571.061,-384.753"/>
</g>
<!-- Node7 -->
<g id="node7" class="node"><title>Node7</title>
<g id="a_node7"><a xlink:href="classRa_1_1Asset_1_1GeometryData.html#a243148184c6a5c3aeba47951f75fc73c" target="_top" xlink:title="NAME. ">
<polygon fill="white" stroke="black" points="568.5,-98 568.5,-128 699.5,-128 699.5,-98 568.5,-98"/>
<text text-anchor="start" x="576.5" y="-116" font-family="Helvetica,sans-Serif" font-size="10.00">Ra::Asset::GeometryData</text>
<text text-anchor="middle" x="634" y="-105" font-family="Helvetica,sans-Serif" font-size="10.00">::setName</text>
</a>
</g>
</g>
<!-- Node5&#45;&gt;Node7 -->
<g id="edge6" class="edge"><title>Node5&#45;&gt;Node7</title>
<path fill="none" stroke="midnightblue" d="M526.732,-113C537.072,-113 547.708,-113 558.07,-113"/>
<polygon fill="midnightblue" stroke="midnightblue" points="558.32,-116.5 568.32,-113 558.32,-109.5 558.32,-116.5"/>
</g>
<!-- Node9 -->
<g id="node9" class="node"><title>Node9</title>
<g id="a_node9"><a xlink:href="classRa_1_1Asset_1_1GeometryData.html#a23f044c78e92cc740444a06ab9690e3b" target="_top" xlink:title="Ra::Asset::GeometryData\l::setType">
<polygon fill="white" stroke="black" points="568.5,-49 568.5,-79 699.5,-79 699.5,-49 568.5,-49"/>
<text text-anchor="start" x="576.5" y="-67" font-family="Helvetica,sans-Serif" font-size="10.00">Ra::Asset::GeometryData</text>
<text text-anchor="middle" x="634" y="-56" font-family="Helvetica,sans-Serif" font-size="10.00">::setType</text>
</a>
</g>
</g>
<!-- Node8&#45;&gt;Node9 -->
<g id="edge8" class="edge"><title>Node8&#45;&gt;Node9</title>
<path fill="none" stroke="midnightblue" d="M526.732,-64C537.072,-64 547.708,-64 558.07,-64"/>
<polygon fill="midnightblue" stroke="midnightblue" points="558.32,-67.5001 568.32,-64 558.32,-60.5001 558.32,-67.5001"/>
</g>
<!-- Node10&#45;&gt;Node2 -->
<g id="edge10" class="edge"><title>Node10&#45;&gt;Node2</title>
<path fill="none" stroke="midnightblue" d="M519.507,-753.916C524.1,-751.146 528.347,-747.872 532,-744 576.679,-696.642 522.8,-648.861 568,-602 572.499,-597.335 578.075,-593.798 584.055,-591.12"/>
<polygon fill="midnightblue" stroke="midnightblue" points="585.509,-594.315 593.687,-587.579 583.094,-587.744 585.509,-594.315"/>
</g>
<!-- Node10&#45;&gt;Node6 -->
<g id="edge13" class="edge"><title>Node10&#45;&gt;Node6</title>
<path fill="none" stroke="midnightblue" d="M520.836,-753.979C525.011,-751.189 528.807,-747.893 532,-744 624.99,-630.598 473.763,-528.368 568,-416 569.015,-414.79 570.103,-413.654 571.253,-412.588"/>
<polygon fill="midnightblue" stroke="midnightblue" points="573.581,-415.224 579.632,-406.527 569.478,-409.552 573.581,-415.224"/>
</g>
<!-- Node11 -->
<g id="node11" class="node"><title>Node11</title>
<g id="a_node11"><a xlink:href="classRa_1_1Asset_1_1GeometryData.html#a20394106458e5e8deade13af0bec3ebb" target="_top" xlink:title="Ra::Asset::GeometryData\l::getVertices">
<polygon fill="white" stroke="black" points="568.5,-808 568.5,-838 699.5,-838 699.5,-808 568.5,-808"/>
<text text-anchor="start" x="576.5" y="-826" font-family="Helvetica,sans-Serif" font-size="10.00">Ra::Asset::GeometryData</text>
<text text-anchor="middle" x="634" y="-815" font-family="Helvetica,sans-Serif" font-size="10.00">::getVertices</text>
</a>
</g>
</g>
<!-- Node10&#45;&gt;Node11 -->
<g id="edge11" class="edge"><title>Node10&#45;&gt;Node11</title>
<path fill="none" stroke="midnightblue" d="M503.14,-784.042C524.797,-790.539 550.313,-798.194 572.969,-804.991"/>
<polygon fill="midnightblue" stroke="midnightblue" points="572.233,-808.424 582.817,-807.945 574.244,-801.719 572.233,-808.424"/>
</g>
<!-- Node12 -->
<g id="node12" class="node"><title>Node12</title>
<g id="a_node12"><a xlink:href="classRa_1_1Asset_1_1GeometryData.html#ad917f1a50860ee72fa2aa8f0d557c8c5" target="_top" xlink:title="DUPLICATES. ">
<polygon fill="white" stroke="black" points="568.5,-661 568.5,-691 699.5,-691 699.5,-661 568.5,-661"/>
<text text-anchor="start" x="576.5" y="-679" font-family="Helvetica,sans-Serif" font-size="10.00">Ra::Asset::GeometryData</text>
<text text-anchor="middle" x="634" y="-668" font-family="Helvetica,sans-Serif" font-size="10.00">::getDuplicateTable</text>
</a>
</g>
</g>
<!-- Node10&#45;&gt;Node12 -->
<g id="edge12" class="edge"><title>Node10&#45;&gt;Node12</title>
<path fill="none" stroke="midnightblue" d="M513.39,-753.981C519.935,-751.175 526.285,-747.875 532,-744 552.914,-729.821 547.427,-714.668 568,-700 570.057,-698.533 572.214,-697.146 574.44,-695.835"/>
<polygon fill="midnightblue" stroke="midnightblue" points="576.104,-698.914 583.31,-691.146 572.833,-692.725 576.104,-698.914"/>
</g>
<!-- Node13 -->
<g id="node13" class="node"><title>Node13</title>
<g id="a_node13"><a xlink:href="namespaceRa_1_1Core_1_1Algorithm.html#aea294cdb6f4f0d85955bdcccb22886ec" target="_top" xlink:title="Ra::Core::Algorithm::t">
<polygon fill="white" stroke="black" points="577.5,-857.5 577.5,-876.5 690.5,-876.5 690.5,-857.5 577.5,-857.5"/>
<text text-anchor="middle" x="634" y="-864.5" font-family="Helvetica,sans-Serif" font-size="10.00">Ra::Core::Algorithm::t</text>
</a>
</g>
</g>
<!-- Node10&#45;&gt;Node13 -->
<g id="edge14" class="edge"><title>Node10&#45;&gt;Node13</title>
<path fill="none" stroke="midnightblue" d="M471.47,-784.1C493.35,-801.358 531.457,-829.472 568,-847 573.456,-849.617 579.332,-851.988 585.242,-854.106"/>
<polygon fill="midnightblue" stroke="midnightblue" points="584.558,-857.568 595.152,-857.431 586.785,-850.932 584.558,-857.568"/>
</g>
<!-- Node14 -->
<g id="node14" class="node"><title>Node14</title>
<g id="a_node14"><a xlink:href="classRa_1_1Asset_1_1GeometryData.html#ae7f137aae9b6723ff6b0fc7125b0fd35" target="_top" xlink:title="Ra::Asset::GeometryData\l::isLoadingDuplicates">
<polygon fill="white" stroke="black" points="568.5,-759 568.5,-789 699.5,-789 699.5,-759 568.5,-759"/>
<text text-anchor="start" x="576.5" y="-777" font-family="Helvetica,sans-Serif" font-size="10.00">Ra::Asset::GeometryData</text>
<text text-anchor="middle" x="634" y="-766" font-family="Helvetica,sans-Serif" font-size="10.00">::isLoadingDuplicates</text>
</a>
</g>
</g>
<!-- Node10&#45;&gt;Node14 -->
<g id="edge15" class="edge"><title>Node10&#45;&gt;Node14</title>
<path fill="none" stroke="midnightblue" d="M526.732,-771.048C537.072,-771.335 547.708,-771.631 558.07,-771.919"/>
<polygon fill="midnightblue" stroke="midnightblue" points="558.226,-775.424 568.32,-772.203 558.421,-768.427 558.226,-775.424"/>
</g>
<!-- Node16&#45;&gt;Node2 -->
<g id="edge18" class="edge"><title>Node16&#45;&gt;Node2</title>
<path fill="none" stroke="midnightblue" d="M509.932,-704.977C518.009,-701.057 525.697,-696.145 532,-690 562.257,-660.501 536.608,-630.288 568,-602 572.757,-597.713 578.433,-594.39 584.42,-591.815"/>
<polygon fill="midnightblue" stroke="midnightblue" points="585.784,-595.044 593.999,-588.354 583.405,-588.461 585.784,-595.044"/>
</g>
<!-- Node16&#45;&gt;Node6 -->
<g id="edge20" class="edge"><title>Node16&#45;&gt;Node6</title>
<path fill="none" stroke="midnightblue" d="M480.56,-704.978C498.216,-693.846 519.997,-676.993 532,-656 585.537,-562.365 497.069,-497.257 568,-416 569.039,-414.81 570.148,-413.692 571.317,-412.643"/>
<polygon fill="midnightblue" stroke="midnightblue" points="573.638,-415.288 579.79,-406.662 569.602,-409.569 573.638,-415.288"/>
</g>
<!-- Node16&#45;&gt;Node12 -->
<g id="edge22" class="edge"><title>Node16&#45;&gt;Node12</title>
<path fill="none" stroke="midnightblue" d="M514.442,-704.981C529.564,-701.284 545.885,-697.295 561.439,-693.493"/>
<polygon fill="midnightblue" stroke="midnightblue" points="562.646,-696.801 571.529,-691.026 560.984,-690.001 562.646,-696.801"/>
</g>
<!-- Node16&#45;&gt;Node14 -->
<g id="edge21" class="edge"><title>Node16&#45;&gt;Node14</title>
<path fill="none" stroke="midnightblue" d="M503.14,-735.042C524.797,-741.539 550.313,-749.194 572.969,-755.991"/>
<polygon fill="midnightblue" stroke="midnightblue" points="572.233,-759.424 582.817,-758.945 574.244,-752.719 572.233,-759.424"/>
</g>
<!-- Node17 -->
<g id="node17" class="node"><title>Node17</title>
<g id="a_node17"><a xlink:href="classRa_1_1Asset_1_1GeometryData.html#abe4083fd2256390f3d90734cc9003599" target="_top" xlink:title="Ra::Asset::GeometryData\l::getEdges">
<polygon fill="white" stroke="black" points="568.5,-710 568.5,-740 699.5,-740 699.5,-710 568.5,-710"/>
<text text-anchor="start" x="576.5" y="-728" font-family="Helvetica,sans-Serif" font-size="10.00">Ra::Asset::GeometryData</text>
<text text-anchor="middle" x="634" y="-717" font-family="Helvetica,sans-Serif" font-size="10.00">::getEdges</text>
</a>
</g>
</g>
<!-- Node16&#45;&gt;Node17 -->
<g id="edge19" class="edge"><title>Node16&#45;&gt;Node17</title>
<path fill="none" stroke="midnightblue" d="M526.732,-722.048C537.072,-722.335 547.708,-722.631 558.07,-722.919"/>
<polygon fill="midnightblue" stroke="midnightblue" points="558.226,-726.424 568.32,-723.203 558.421,-719.427 558.226,-726.424"/>
</g>
<!-- Node18&#45;&gt;Node2 -->
<g id="edge24" class="edge"><title>Node18&#45;&gt;Node2</title>
<path fill="none" stroke="midnightblue" d="M508.475,-549.101C534.054,-556.065 564.018,-564.222 588.143,-570.789"/>
<polygon fill="midnightblue" stroke="midnightblue" points="587.527,-574.248 598.095,-573.498 589.365,-567.494 587.527,-574.248"/>
</g>
<!-- Node18&#45;&gt;Node6 -->
<g id="edge26" class="edge"><title>Node18&#45;&gt;Node6</title>
<path fill="none" stroke="midnightblue" d="M518.242,-518.842C523.233,-516.091 527.91,-512.841 532,-509 564.31,-478.66 535.357,-445.981 568,-416 569.724,-414.417 571.572,-412.965 573.516,-411.634"/>
<polygon fill="midnightblue" stroke="midnightblue" points="575.565,-414.496 582.555,-406.534 572.125,-408.4 575.565,-414.496"/>
</g>
<!-- Node18&#45;&gt;Node12 -->
<g id="edge28" class="edge"><title>Node18&#45;&gt;Node12</title>
<path fill="none" stroke="midnightblue" d="M519.753,-549.146C524.175,-551.658 528.323,-554.587 532,-558 564.484,-588.153 536.626,-619.693 568,-651 569.444,-652.441 570.981,-653.801 572.59,-655.084"/>
<polygon fill="midnightblue" stroke="midnightblue" points="570.923,-658.181 581.168,-660.878 574.841,-652.38 570.923,-658.181"/>
</g>
<!-- Node18&#45;&gt;Node14 -->
<g id="edge27" class="edge"><title>Node18&#45;&gt;Node14</title>
<path fill="none" stroke="midnightblue" d="M521.571,-549.125C525.406,-551.649 528.937,-554.585 532,-558 589.676,-622.309 512.684,-682.651 568,-749 569.118,-750.341 570.316,-751.61 571.583,-752.811"/>
<polygon fill="midnightblue" stroke="midnightblue" points="569.452,-755.588 579.492,-758.975 573.755,-750.067 569.452,-755.588"/>
</g>
<!-- Node19 -->
<g id="node19" class="node"><title>Node19</title>
<g id="a_node19"><a xlink:href="classRa_1_1Asset_1_1GeometryData.html#acdad9f2b09a7d942db229ace49a4fea0" target="_top" xlink:title="Ra::Asset::GeometryData\l::getFaces">
<polygon fill="white" stroke="black" points="568.5,-524 568.5,-554 699.5,-554 699.5,-524 568.5,-524"/>
<text text-anchor="start" x="576.5" y="-542" font-family="Helvetica,sans-Serif" font-size="10.00">Ra::Asset::GeometryData</text>
<text text-anchor="middle" x="634" y="-531" font-family="Helvetica,sans-Serif" font-size="10.00">::getFaces</text>
</a>
</g>
</g>
<!-- Node18&#45;&gt;Node19 -->
<g id="edge25" class="edge"><title>Node18&#45;&gt;Node19</title>
<path fill="none" stroke="midnightblue" d="M526.732,-536.048C537.072,-536.335 547.708,-536.631 558.07,-536.919"/>
<polygon fill="midnightblue" stroke="midnightblue" points="558.226,-540.424 568.32,-537.203 558.421,-533.427 558.226,-540.424"/>
</g>
<!-- Node23&#45;&gt;Node6 -->
<g id="edge36" class="edge"><title>Node23&#45;&gt;Node6</title>
<path fill="none" stroke="midnightblue" d="M503.203,-469.949C513.169,-465.873 523.247,-460.913 532,-455 551.546,-441.795 547.95,-428.428 568,-416 571.388,-413.9 575.019,-412.023 578.769,-410.346"/>
<polygon fill="midnightblue" stroke="midnightblue" points="580.26,-413.52 588.265,-406.58 577.679,-407.013 580.26,-413.52"/>
</g>
<!-- Node23&#45;&gt;Node12 -->
<g id="edge35" class="edge"><title>Node23&#45;&gt;Node12</title>
<path fill="none" stroke="midnightblue" d="M520.966,-500.117C524.997,-502.64 528.734,-505.578 532,-509 576.952,-556.099 524.778,-602.308 568,-651 569.186,-652.337 570.452,-653.602 571.785,-654.8"/>
<polygon fill="midnightblue" stroke="midnightblue" points="569.942,-657.791 580.053,-660.954 574.121,-652.176 569.942,-657.791"/>
</g>
<!-- Node24 -->
<g id="node24" class="node"><title>Node24</title>
<g id="a_node24"><a xlink:href="classRa_1_1Asset_1_1GeometryData.html#a3b706a2f7490107865f20c4cb71c5777" target="_top" xlink:title="Ra::Asset::GeometryData\l::getNormals">
<polygon fill="white" stroke="black" points="568.5,-426 568.5,-456 699.5,-456 699.5,-426 568.5,-426"/>
<text text-anchor="start" x="576.5" y="-444" font-family="Helvetica,sans-Serif" font-size="10.00">Ra::Asset::GeometryData</text>
<text text-anchor="middle" x="634" y="-433" font-family="Helvetica,sans-Serif" font-size="10.00">::getNormals</text>
</a>
</g>
</g>
<!-- Node23&#45;&gt;Node24 -->
<g id="edge33" class="edge"><title>Node23&#45;&gt;Node24</title>
<path fill="none" stroke="midnightblue" d="M514.442,-469.981C529.564,-466.284 545.885,-462.295 561.439,-458.493"/>
<polygon fill="midnightblue" stroke="midnightblue" points="562.646,-461.801 571.529,-456.026 560.984,-455.001 562.646,-461.801"/>
</g>
<!-- Node25 -->
<g id="node25" class="node"><title>Node25</title>
<g id="a_node25"><a xlink:href="classRa_1_1Asset_1_1GeometryData.html#ad31c0f120d5e88c40afefa79c29ae28a" target="_top" xlink:title="DATA. ">
<polygon fill="white" stroke="black" points="568.5,-475 568.5,-505 699.5,-505 699.5,-475 568.5,-475"/>
<text text-anchor="start" x="576.5" y="-493" font-family="Helvetica,sans-Serif" font-size="10.00">Ra::Asset::GeometryData</text>
<text text-anchor="middle" x="634" y="-482" font-family="Helvetica,sans-Serif" font-size="10.00">::getVerticesSize</text>
</a>
</g>
</g>
<!-- Node23&#45;&gt;Node25 -->
<g id="edge34" class="edge"><title>Node23&#45;&gt;Node25</title>
<path fill="none" stroke="midnightblue" d="M526.732,-487.048C537.072,-487.335 547.708,-487.631 558.07,-487.919"/>
<polygon fill="midnightblue" stroke="midnightblue" points="558.226,-491.424 568.32,-488.203 558.421,-484.427 558.226,-491.424"/>
</g>
<!-- Node26&#45;&gt;Node2 -->
<g id="edge38" class="edge"><title>Node26&#45;&gt;Node2</title>
<path fill="none" stroke="midnightblue" d="M522.074,-314.236C525.736,-316.737 529.096,-319.637 532,-323 602.501,-404.63 497.645,-481.245 568,-563 572.45,-568.171 578.203,-572.027 584.443,-574.897"/>
<polygon fill="midnightblue" stroke="midnightblue" points="583.248,-578.187 593.84,-578.437 585.716,-571.636 583.248,-578.187"/>
</g>
<!-- Node26&#45;&gt;Node6 -->
<g id="edge40" class="edge"><title>Node26&#45;&gt;Node6</title>
<path fill="none" stroke="midnightblue" d="M516.986,-314.123C522.304,-316.645 527.397,-319.581 532,-323 555.156,-340.199 544.875,-359.759 568,-377 571.209,-379.393 574.709,-381.503 578.365,-383.362"/>
<polygon fill="midnightblue" stroke="midnightblue" points="577.14,-386.648 587.702,-387.489 579.97,-380.245 577.14,-386.648"/>
</g>
<!-- Node27 -->
<g id="node27" class="node"><title>Node27</title>
<g id="a_node27"><a xlink:href="classRa_1_1Asset_1_1GeometryData.html#a5090ec004b5ff8a9c0de0da4c049a5bc" target="_top" xlink:title="Ra::Asset::GeometryData\l::getTangents">
<polygon fill="white" stroke="black" points="568.5,-284 568.5,-314 699.5,-314 699.5,-284 568.5,-284"/>
<text text-anchor="start" x="576.5" y="-302" font-family="Helvetica,sans-Serif" font-size="10.00">Ra::Asset::GeometryData</text>
<text text-anchor="middle" x="634" y="-291" font-family="Helvetica,sans-Serif" font-size="10.00">::getTangents</text>
</a>
</g>
</g>
<!-- Node26&#45;&gt;Node27 -->
<g id="edge39" class="edge"><title>Node26&#45;&gt;Node27</title>
<path fill="none" stroke="midnightblue" d="M526.732,-299C537.072,-299 547.708,-299 558.07,-299"/>
<polygon fill="midnightblue" stroke="midnightblue" points="558.32,-302.5 568.32,-299 558.32,-295.5 558.32,-302.5"/>
</g>
<!-- Node28&#45;&gt;Node2 -->
<g id="edge42" class="edge"><title>Node28&#45;&gt;Node2</title>
<path fill="none" stroke="midnightblue" d="M478.954,-412.23C496.132,-423.49 517.995,-440.254 532,-460 560.055,-499.554 533.069,-529.363 568,-563 572.632,-567.461 578.236,-570.929 584.188,-573.624"/>
<polygon fill="midnightblue" stroke="midnightblue" points="583.147,-576.973 593.738,-577.257 585.636,-570.43 583.147,-576.973"/>
</g>
<!-- Node28&#45;&gt;Node6 -->
<g id="edge44" class="edge"><title>Node28&#45;&gt;Node6</title>
<path fill="none" stroke="midnightblue" d="M526.732,-397C539.679,-397 553.091,-397 565.847,-397"/>
<polygon fill="midnightblue" stroke="midnightblue" points="565.915,-400.5 575.915,-397 565.915,-393.5 565.915,-400.5"/>
</g>
<!-- Node29 -->
<g id="node29" class="node"><title>Node29</title>
<g id="a_node29"><a xlink:href="classRa_1_1Asset_1_1GeometryData.html#a863b5b343ec5ea7af019eebbf859b7eb" target="_top" xlink:title="Ra::Asset::GeometryData\l::getBiTangents">
<polygon fill="white" stroke="black" points="568.5,-338 568.5,-368 699.5,-368 699.5,-338 568.5,-338"/>
<text text-anchor="start" x="576.5" y="-356" font-family="Helvetica,sans-Serif" font-size="10.00">Ra::Asset::GeometryData</text>
<text text-anchor="middle" x="634" y="-345" font-family="Helvetica,sans-Serif" font-size="10.00">::getBiTangents</text>
</a>
</g>
</g>
<!-- Node28&#45;&gt;Node29 -->
<g id="edge43" class="edge"><title>Node28&#45;&gt;Node29</title>
<path fill="none" stroke="midnightblue" d="M514.442,-381.981C529.564,-378.284 545.885,-374.295 561.439,-370.493"/>
<polygon fill="midnightblue" stroke="midnightblue" points="562.646,-373.801 571.529,-368.026 560.984,-367.001 562.646,-373.801"/>
</g>
<!-- Node30&#45;&gt;Node2 -->
<g id="edge46" class="edge"><title>Node30&#45;&gt;Node2</title>
<path fill="none" stroke="midnightblue" d="M508.475,-616.899C534.054,-609.935 564.018,-601.778 588.143,-595.211"/>
<polygon fill="midnightblue" stroke="midnightblue" points="589.365,-598.506 598.095,-592.502 587.527,-591.752 589.365,-598.506"/>
</g>
<!-- Node30&#45;&gt;Node6 -->
<g id="edge49" class="edge"><title>Node30&#45;&gt;Node6</title>
<path fill="none" stroke="midnightblue" d="M520.141,-616.93C524.533,-614.155 528.565,-610.875 532,-607 589.304,-542.359 509.986,-480.004 568,-416 569.194,-414.682 570.474,-413.454 571.826,-412.31"/>
<polygon fill="midnightblue" stroke="midnightblue" points="573.918,-415.12 580.248,-406.624 570.002,-409.318 573.918,-415.12"/>
</g>
<!-- Node30&#45;&gt;Node25 -->
<g id="edge48" class="edge"><title>Node30&#45;&gt;Node25</title>
<path fill="none" stroke="midnightblue" d="M518.242,-616.842C523.233,-614.091 527.91,-610.841 532,-607 564.31,-576.66 536.416,-545.095 568,-514 569.098,-512.919 570.25,-511.886 571.446,-510.898"/>
<polygon fill="midnightblue" stroke="midnightblue" points="573.684,-513.605 579.905,-505.029 569.694,-507.854 573.684,-513.605"/>
</g>
<!-- Node31 -->
<g id="node31" class="node"><title>Node31</title>
<g id="a_node31"><a xlink:href="classRa_1_1Asset_1_1GeometryData.html#a55dc4072ed4026280b5e124f35d5b550" target="_top" xlink:title="Ra::Asset::GeometryData\l::getTexCoords">
<polygon fill="white" stroke="black" points="568.5,-612 568.5,-642 699.5,-642 699.5,-612 568.5,-612"/>
<text text-anchor="start" x="576.5" y="-630" font-family="Helvetica,sans-Serif" font-size="10.00">Ra::Asset::GeometryData</text>
<text text-anchor="middle" x="634" y="-619" font-family="Helvetica,sans-Serif" font-size="10.00">::getTexCoords</text>
</a>
</g>
</g>
<!-- Node30&#45;&gt;Node31 -->
<g id="edge47" class="edge"><title>Node30&#45;&gt;Node31</title>
<path fill="none" stroke="midnightblue" d="M531.689,-629.814C540.46,-629.571 549.377,-629.323 558.099,-629.081"/>
<polygon fill="midnightblue" stroke="midnightblue" points="558.329,-632.576 568.228,-628.799 558.135,-625.578 558.329,-632.576"/>
</g>
<!-- Node32&#45;&gt;Node6 -->
<g id="edge51" class="edge"><title>Node32&#45;&gt;Node6</title>
<path fill="none" stroke="midnightblue" d="M335.632,-152.413C405.557,-149.736 504.035,-150.877 532,-176 599.512,-236.651 507.833,-309.056 568,-377 569.558,-378.76 571.267,-380.366 573.094,-381.834"/>
<polygon fill="midnightblue" stroke="midnightblue" points="571.453,-384.94 581.756,-387.413 575.244,-379.056 571.453,-384.94"/>
</g>
<!-- Node33 -->
<g id="node33" class="node"><title>Node33</title>
<g id="a_node33"><a xlink:href="classRa_1_1Asset_1_1GeometryData.html#af8f718a90d8d778e362e1ac6733f9670" target="_top" xlink:title="Ra::Asset::GeometryData\l::setMaterial">
<polygon fill="white" stroke="black" points="386.5,-0 386.5,-30 517.5,-30 517.5,-0 386.5,-0"/>
<text text-anchor="start" x="394.5" y="-18" font-family="Helvetica,sans-Serif" font-size="10.00">Ra::Asset::GeometryData</text>
<text text-anchor="middle" x="452" y="-7" font-family="Helvetica,sans-Serif" font-size="10.00">::setMaterial</text>
</a>
</g>
</g>
<!-- Node32&#45;&gt;Node33 -->
<g id="edge52" class="edge"><title>Node32&#45;&gt;Node33</title>
<path fill="none" stroke="midnightblue" d="M271.981,-141.945C289.351,-116.905 327.563,-66.7178 372,-39 374.651,-37.3464 377.423,-35.8005 380.277,-34.3558"/>
<polygon fill="midnightblue" stroke="midnightblue" points="381.984,-37.4238 389.619,-30.0786 379.07,-31.0592 381.984,-37.4238"/>
</g>
<!-- Node35&#45;&gt;Node6 -->
<g id="edge55" class="edge"><title>Node35&#45;&gt;Node6</title>
<path fill="none" stroke="midnightblue" d="M335.7,-440.021C390.183,-437.086 466.041,-431.462 532,-421 550.749,-418.026 571.167,-413.437 588.707,-409.065"/>
<polygon fill="midnightblue" stroke="midnightblue" points="589.84,-412.388 598.668,-406.529 588.113,-405.604 589.84,-412.388"/>
</g>
</g>
</svg>
