<?xml version="1.0" encoding="UTF-8" standalone="no"?>
<!DOCTYPE svg PUBLIC "-//W3C//DTD SVG 1.1//EN"
 "http://www.w3.org/Graphics/SVG/1.1/DTD/svg11.dtd">
<!-- Generated by graphviz version 2.36.0 (20140111.2315)
 -->
<!-- Title: CameraManipPlugin::CameraManipPluginC::getWidget Pages: 1 -->
<svg width="1028pt" height="895pt"
 viewBox="0.00 0.00 1028.00 895.00" xmlns="http://www.w3.org/2000/svg" xmlns:xlink="http://www.w3.org/1999/xlink">
<g id="graph0" class="graph" transform="scale(1 1) rotate(0) translate(4 891)">
<title>CameraManipPlugin::CameraManipPluginC::getWidget</title>
<polygon fill="white" stroke="none" points="-4,4 -4,-891 1024,-891 1024,4 -4,4"/>
<!-- Node1 -->
<g id="node1" class="node"><title>Node1</title>
<polygon fill="#bfbfbf" stroke="black" points="0,-625.5 0,-666.5 118,-666.5 118,-625.5 0,-625.5"/>
<text text-anchor="start" x="8" y="-654.5" font-family="Helvetica,sans-Serif" font-size="10.00">CameraManipPlugin::</text>
<text text-anchor="start" x="8" y="-643.5" font-family="Helvetica,sans-Serif" font-size="10.00">CameraManipPluginC::</text>
<text text-anchor="middle" x="59" y="-632.5" font-family="Helvetica,sans-Serif" font-size="10.00">getWidget</text>
</g>
<!-- Node2 -->
<g id="node2" class="node"><title>Node2</title>
<g id="a_node2"><a xlink:href="classCameraManipPlugin_1_1CameraManipPluginC.html#a7b58b9d96bf12a9bb049733e5ed91031" target="_top" xlink:title="CameraManipPlugin::\lCameraManipPluginC::\luseSelectedCamera">
<polygon fill="white" stroke="black" points="154,-685.5 154,-726.5 272,-726.5 272,-685.5 154,-685.5"/>
<text text-anchor="start" x="162" y="-714.5" font-family="Helvetica,sans-Serif" font-size="10.00">CameraManipPlugin::</text>
<text text-anchor="start" x="162" y="-703.5" font-family="Helvetica,sans-Serif" font-size="10.00">CameraManipPluginC::</text>
<text text-anchor="middle" x="213" y="-692.5" font-family="Helvetica,sans-Serif" font-size="10.00">useSelectedCamera</text>
</a>
</g>
</g>
<!-- Node1&#45;&gt;Node2 -->
<g id="edge1" class="edge"><title>Node1&#45;&gt;Node2</title>
<path fill="none" stroke="midnightblue" d="M112.31,-666.649C124.559,-671.484 137.721,-676.679 150.336,-681.659"/>
<polygon fill="midnightblue" stroke="midnightblue" points="149.265,-684.999 159.851,-685.415 151.835,-678.488 149.265,-684.999"/>
</g>
<!-- Node14 -->
<g id="node14" class="node"><title>Node14</title>
<g id="a_node14"><a xlink:href="classCameraManipPlugin_1_1CameraManipPluginC.html#ab6cf7a3d29ed2c9338fb2bcf62a80222" target="_top" xlink:title="CameraManipPlugin::\lCameraManipPluginC::\lsaveCamera">
<polygon fill="white" stroke="black" points="154,-625.5 154,-666.5 272,-666.5 272,-625.5 154,-625.5"/>
<text text-anchor="start" x="162" y="-654.5" font-family="Helvetica,sans-Serif" font-size="10.00">CameraManipPlugin::</text>
<text text-anchor="start" x="162" y="-643.5" font-family="Helvetica,sans-Serif" font-size="10.00">CameraManipPluginC::</text>
<text text-anchor="middle" x="213" y="-632.5" font-family="Helvetica,sans-Serif" font-size="10.00">saveCamera</text>
</a>
</g>
</g>
<!-- Node1&#45;&gt;Node14 -->
<g id="edge13" class="edge"><title>Node1&#45;&gt;Node14</title>
<path fill="none" stroke="midnightblue" d="M118.332,-646C126.606,-646 135.175,-646 143.617,-646"/>
<polygon fill="midnightblue" stroke="midnightblue" points="143.824,-649.5 153.824,-646 143.824,-642.5 143.824,-649.5"/>
</g>
<!-- Node16 -->
<g id="node16" class="node"><title>Node16</title>
<g id="a_node16"><a xlink:href="classCameraManipPlugin_1_1CameraManipPluginC.html#acd84e2d132a7869d78cd3a6bf4a17908" target="_top" xlink:title="CameraManipPlugin::\lCameraManipPluginC::\lcreateCamera">
<polygon fill="white" stroke="black" points="154,-313.5 154,-354.5 272,-354.5 272,-313.5 154,-313.5"/>
<text text-anchor="start" x="162" y="-342.5" font-family="Helvetica,sans-Serif" font-size="10.00">CameraManipPlugin::</text>
<text text-anchor="start" x="162" y="-331.5" font-family="Helvetica,sans-Serif" font-size="10.00">CameraManipPluginC::</text>
<text text-anchor="middle" x="213" y="-320.5" font-family="Helvetica,sans-Serif" font-size="10.00">createCamera</text>
</a>
</g>
</g>
<!-- Node1&#45;&gt;Node16 -->
<g id="edge17" class="edge"><title>Node1&#45;&gt;Node16</title>
<path fill="none" stroke="midnightblue" d="M70.2092,-625.044C96.5473,-570.982 166.862,-426.652 197.45,-363.866"/>
<polygon fill="midnightblue" stroke="midnightblue" points="200.602,-365.387 201.835,-354.864 194.309,-362.321 200.602,-365.387"/>
</g>
<!-- Node3 -->
<g id="node3" class="node"><title>Node3</title>
<g id="a_node3"><a xlink:href="classRa_1_1GuiBase_1_1SelectionManager.html#a29cbd250208f1e18d2ab1e0f4d91105d" target="_top" xlink:title="Return the current selected item, or an invalid entry if there is no current item. ">
<polygon fill="white" stroke="black" points="308.5,-833 308.5,-863 465.5,-863 465.5,-833 308.5,-833"/>
<text text-anchor="start" x="316.5" y="-851" font-family="Helvetica,sans-Serif" font-size="10.00">Ra::GuiBase::SelectionManager</text>
<text text-anchor="middle" x="387" y="-840" font-family="Helvetica,sans-Serif" font-size="10.00">::currentItem</text>
</a>
</g>
</g>
<!-- Node2&#45;&gt;Node3 -->
<g id="edge2" class="edge"><title>Node2&#45;&gt;Node3</title>
<path fill="none" stroke="midnightblue" d="M225.52,-726.871C240.982,-753.014 270.849,-797.471 308,-823 310.901,-824.993 313.969,-826.835 317.147,-828.535"/>
<polygon fill="midnightblue" stroke="midnightblue" points="315.811,-831.777 326.339,-832.963 318.849,-825.47 315.811,-831.777"/>
</g>
<!-- Node8 -->
<g id="node8" class="node"><title>Node8</title>
<g id="a_node8"><a xlink:href="classRa_1_1Engine_1_1Component.html#aa3e5cb90432a9a49e4362b673652ff76" target="_top" xlink:title="Return the component&#39;s name. ">
<polygon fill="white" stroke="black" points="326,-784 326,-814 448,-814 448,-784 326,-784"/>
<text text-anchor="start" x="334" y="-802" font-family="Helvetica,sans-Serif" font-size="10.00">Ra::Engine::Component</text>
<text text-anchor="middle" x="387" y="-791" font-family="Helvetica,sans-Serif" font-size="10.00">::getName</text>
</a>
</g>
</g>
<!-- Node2&#45;&gt;Node8 -->
<g id="edge7" class="edge"><title>Node2&#45;&gt;Node8</title>
<path fill="none" stroke="midnightblue" d="M238.136,-726.765C256.347,-741.582 282.477,-761.092 308,-774 312.485,-776.268 317.218,-778.387 322.046,-780.353"/>
<polygon fill="midnightblue" stroke="midnightblue" points="320.816,-783.63 331.406,-783.948 323.325,-777.095 320.816,-783.63"/>
</g>
<!-- Node9 -->
<g id="node9" class="node"><title>Node9</title>
<g id="a_node9"><a xlink:href="classRa_1_1Gui_1_1Viewer.html#a4c52ddd225ed6e8fe630a7b1ac4c138f" target="_top" xlink:title="Access to camera interface. ">
<polygon fill="white" stroke="black" points="317,-637 317,-667 457,-667 457,-637 317,-637"/>
<text text-anchor="start" x="325" y="-655" font-family="Helvetica,sans-Serif" font-size="10.00">Ra::Gui::Viewer::getCamera</text>
<text text-anchor="middle" x="387" y="-644" font-family="Helvetica,sans-Serif" font-size="10.00">Interface</text>
</a>
</g>
</g>
<!-- Node2&#45;&gt;Node9 -->
<g id="edge8" class="edge"><title>Node2&#45;&gt;Node9</title>
<path fill="none" stroke="midnightblue" d="M272.231,-687.718C290.406,-682.012 310.434,-675.724 328.554,-670.035"/>
<polygon fill="midnightblue" stroke="midnightblue" points="329.625,-673.368 338.117,-667.033 327.528,-666.689 329.625,-673.368"/>
</g>
<!-- Node10 -->
<g id="node10" class="node"><title>Node10</title>
<g id="a_node10"><a xlink:href="classRa_1_1Gui_1_1CameraInterface.html#a2ea6e39df7373ffead7afa626c8ac6d6" target="_top" xlink:title="Pointer access to the camera. ">
<polygon fill="white" stroke="black" points="322.5,-686 322.5,-716 451.5,-716 451.5,-686 322.5,-686"/>
<text text-anchor="start" x="330.5" y="-704" font-family="Helvetica,sans-Serif" font-size="10.00">Ra::Gui::CameraInterface</text>
<text text-anchor="middle" x="387" y="-693" font-family="Helvetica,sans-Serif" font-size="10.00">::getCamera</text>
</a>
</g>
</g>
<!-- Node2&#45;&gt;Node10 -->
<g id="edge9" class="edge"><title>Node2&#45;&gt;Node10</title>
<path fill="none" stroke="midnightblue" d="M272.231,-704.307C285.046,-703.935 298.781,-703.535 312.12,-703.148"/>
<polygon fill="midnightblue" stroke="midnightblue" points="312.327,-706.643 322.221,-702.854 312.123,-699.646 312.327,-706.643"/>
</g>
<!-- Node11 -->
<g id="node11" class="node"><title>Node11</title>
<g id="a_node11"><a xlink:href="classRa_1_1Engine_1_1Camera.html#a4c2aac5ad419cef7720e2a18d93b3703" target="_top" xlink:title="Toggle on/off displaying the Camera. ">
<polygon fill="white" stroke="black" points="334,-539 334,-569 440,-569 440,-539 334,-539"/>
<text text-anchor="start" x="342" y="-557" font-family="Helvetica,sans-Serif" font-size="10.00">Ra::Engine::Camera</text>
<text text-anchor="middle" x="387" y="-546" font-family="Helvetica,sans-Serif" font-size="10.00">::show</text>
</a>
</g>
</g>
<!-- Node2&#45;&gt;Node11 -->
<g id="edge10" class="edge"><title>Node2&#45;&gt;Node11</title>
<path fill="none" stroke="midnightblue" d="M260.354,-685.413C264.627,-682.329 268.615,-678.865 272,-675 302.025,-640.722 275.005,-610.429 308,-579 312.73,-574.494 318.274,-570.801 324.188,-567.773"/>
<polygon fill="midnightblue" stroke="midnightblue" points="326.001,-570.798 333.721,-563.542 323.161,-564.4 326.001,-570.798"/>
</g>
<!-- Node13 -->
<g id="node13" class="node"><title>Node13</title>
<g id="a_node13"><a xlink:href="classRa_1_1Gui_1_1CameraInterface.html#aa2ae818a4c8089c0aad905e3cad5441f" target="_top" xlink:title="Set the Camera used to render the scene. ">
<polygon fill="white" stroke="black" points="322.5,-735 322.5,-765 451.5,-765 451.5,-735 322.5,-735"/>
<text text-anchor="start" x="330.5" y="-753" font-family="Helvetica,sans-Serif" font-size="10.00">Ra::Gui::CameraInterface</text>
<text text-anchor="middle" x="387" y="-742" font-family="Helvetica,sans-Serif" font-size="10.00">::setCamera</text>
</a>
</g>
</g>
<!-- Node2&#45;&gt;Node13 -->
<g id="edge12" class="edge"><title>Node2&#45;&gt;Node13</title>
<path fill="none" stroke="midnightblue" d="M272.231,-720.896C286.782,-724.619 302.52,-728.645 317.516,-732.481"/>
<polygon fill="midnightblue" stroke="midnightblue" points="316.688,-735.882 327.243,-734.969 318.423,-729.1 316.688,-735.882"/>
</g>
<!-- Node4 -->
<g id="node4" class="node"><title>Node4</title>
<g id="a_node4"><a xlink:href="classRa_1_1GuiBase_1_1SelectionManager.html#aec178a6b3de1c04e5e1d16ff72c6e966" target="_top" xlink:title="Ra::GuiBase::SelectionManager\l::itemModel">
<polygon fill="white" stroke="black" points="503.5,-857 503.5,-887 660.5,-887 660.5,-857 503.5,-857"/>
<text text-anchor="start" x="511.5" y="-875" font-family="Helvetica,sans-Serif" font-size="10.00">Ra::GuiBase::SelectionManager</text>
<text text-anchor="middle" x="582" y="-864" font-family="Helvetica,sans-Serif" font-size="10.00">::itemModel</text>
</a>
</g>
</g>
<!-- Node3&#45;&gt;Node4 -->
<g id="edge3" class="edge"><title>Node3&#45;&gt;Node4</title>
<path fill="none" stroke="midnightblue" d="M465.666,-857.658C474.82,-858.796 484.209,-859.964 493.486,-861.117"/>
<polygon fill="midnightblue" stroke="midnightblue" points="493.137,-864.601 503.493,-862.362 494.001,-857.654 493.137,-864.601"/>
</g>
<!-- Node5 -->
<g id="node5" class="node"><title>Node5</title>
<g id="a_node5"><a xlink:href="classRa_1_1GuiBase_1_1ItemModel.html#a3236433d461ad6cac5e9390b2685fa3f" target="_top" xlink:title="Returns the entry corresponding to a given index or an invalid entry if the index doesn&#39;t match any e...">
<polygon fill="white" stroke="black" points="519.5,-808 519.5,-838 644.5,-838 644.5,-808 519.5,-808"/>
<text text-anchor="start" x="527.5" y="-826" font-family="Helvetica,sans-Serif" font-size="10.00">Ra::GuiBase::ItemModel</text>
<text text-anchor="middle" x="582" y="-815" font-family="Helvetica,sans-Serif" font-size="10.00">::getEntry</text>
</a>
</g>
</g>
<!-- Node3&#45;&gt;Node5 -->
<g id="edge4" class="edge"><title>Node3&#45;&gt;Node5</title>
<path fill="none" stroke="midnightblue" d="M465.666,-837.94C479.995,-836.084 494.9,-834.153 509.051,-832.32"/>
<polygon fill="midnightblue" stroke="midnightblue" points="509.735,-835.761 519.203,-831.005 508.836,-828.819 509.735,-835.761"/>
</g>
<!-- Node6 -->
<g id="node6" class="node"><title>Node6</title>
<g id="a_node6"><a xlink:href="classRa_1_1GuiBase_1_1TreeModel.html#a5aa24ace72c1c3d29e268cb34dc576f2" target="_top" xlink:title="Get the tree item corresponding to the given index. ">
<polygon fill="white" stroke="black" points="715.5,-808 715.5,-838 840.5,-838 840.5,-808 715.5,-808"/>
<text text-anchor="start" x="723.5" y="-826" font-family="Helvetica,sans-Serif" font-size="10.00">Ra::GuiBase::TreeModel</text>
<text text-anchor="middle" x="778" y="-815" font-family="Helvetica,sans-Serif" font-size="10.00">::getItem</text>
</a>
</g>
</g>
<!-- Node5&#45;&gt;Node6 -->
<g id="edge5" class="edge"><title>Node5&#45;&gt;Node6</title>
<path fill="none" stroke="midnightblue" d="M644.649,-823C663.829,-823 685.144,-823 704.967,-823"/>
<polygon fill="midnightblue" stroke="midnightblue" points="705.178,-826.5 715.178,-823 705.178,-819.5 705.178,-826.5"/>
</g>
<!-- Node7 -->
<g id="node7" class="node"><title>Node7</title>
<g id="a_node7"><a xlink:href="classRa_1_1GuiBase_1_1TreeModel.html#a972106921da4c960f23f81722d3b4cf5" target="_top" xlink:title="Internal functions to check if an item is in the tree. ">
<polygon fill="white" stroke="black" points="894.5,-808 894.5,-838 1019.5,-838 1019.5,-808 894.5,-808"/>
<text text-anchor="start" x="902.5" y="-826" font-family="Helvetica,sans-Serif" font-size="10.00">Ra::GuiBase::TreeModel</text>
<text text-anchor="middle" x="957" y="-815" font-family="Helvetica,sans-Serif" font-size="10.00">::findInTree</text>
</a>
</g>
</g>
<!-- Node6&#45;&gt;Node7 -->
<g id="edge6" class="edge"><title>Node6&#45;&gt;Node7</title>
<path fill="none" stroke="midnightblue" d="M840.906,-823C854.864,-823 869.796,-823 884.124,-823"/>
<polygon fill="midnightblue" stroke="midnightblue" points="884.428,-826.5 894.428,-823 884.428,-819.5 884.428,-826.5"/>
</g>
<!-- Node12 -->
<g id="node12" class="node"><title>Node12</title>
<g id="a_node12"><a xlink:href="classRa_1_1Engine_1_1RenderObject.html#a62e0eb3a7de5a7d352b565a28260cc06" target="_top" xlink:title="Ra::Engine::RenderObject\l::setVisible">
<polygon fill="white" stroke="black" points="712.5,-675 712.5,-705 843.5,-705 843.5,-675 712.5,-675"/>
<text text-anchor="start" x="720.5" y="-693" font-family="Helvetica,sans-Serif" font-size="10.00">Ra::Engine::RenderObject</text>
<text text-anchor="middle" x="778" y="-682" font-family="Helvetica,sans-Serif" font-size="10.00">::setVisible</text>
</a>
</g>
</g>
<!-- Node11&#45;&gt;Node12 -->
<g id="edge11" class="edge"><title>Node11&#45;&gt;Node12</title>
<path fill="none" stroke="midnightblue" d="M440.223,-564.839C449.43,-568.334 458.466,-572.939 466,-579 490.828,-598.973 475.892,-622.732 502,-641 560.595,-682 642.937,-692.024 702.223,-693.154"/>
<polygon fill="midnightblue" stroke="midnightblue" points="702.234,-696.654 712.272,-693.265 702.311,-689.654 702.234,-696.654"/>
</g>
<!-- Node14&#45;&gt;Node9 -->
<g id="edge14" class="edge"><title>Node14&#45;&gt;Node9</title>
<path fill="none" stroke="midnightblue" d="M272.231,-648.031C283.312,-648.418 295.081,-648.828 306.687,-649.233"/>
<polygon fill="midnightblue" stroke="midnightblue" points="306.707,-652.736 316.823,-649.587 306.951,-645.74 306.707,-652.736"/>
</g>
<!-- Node14&#45;&gt;Node10 -->
<g id="edge15" class="edge"><title>Node14&#45;&gt;Node10</title>
<path fill="none" stroke="midnightblue" d="M272.231,-664.62C290.654,-670.511 310.98,-677.011 329.294,-682.867"/>
<polygon fill="midnightblue" stroke="midnightblue" points="328.36,-686.243 338.951,-685.955 330.492,-679.576 328.36,-686.243"/>
</g>
<!-- Node15 -->
<g id="node15" class="node"><title>Node15</title>
<g id="a_node15"><a xlink:href="classRa_1_1Engine_1_1Camera.html#ab7995c83701d0186160eb02b176ecbac" target="_top" xlink:title="Return the projection type. ">
<polygon fill="white" stroke="black" points="334,-588 334,-618 440,-618 440,-588 334,-588"/>
<text text-anchor="start" x="342" y="-606" font-family="Helvetica,sans-Serif" font-size="10.00">Ra::Engine::Camera</text>
<text text-anchor="middle" x="387" y="-595" font-family="Helvetica,sans-Serif" font-size="10.00">::getType</text>
</a>
</g>
</g>
<!-- Node14&#45;&gt;Node15 -->
<g id="edge16" class="edge"><title>Node14&#45;&gt;Node15</title>
<path fill="none" stroke="midnightblue" d="M272.231,-631.442C288.932,-627.267 307.199,-622.7 324.112,-618.472"/>
<polygon fill="midnightblue" stroke="midnightblue" points="325.039,-621.848 333.891,-616.027 323.341,-615.057 325.039,-621.848"/>
</g>
<!-- Node16&#45;&gt;Node9 -->
<g id="edge26" class="edge"><title>Node16&#45;&gt;Node9</title>
<path fill="none" stroke="midnightblue" d="M214.467,-354.646C216.797,-407.574 230.362,-549.383 308,-627 309.433,-628.433 310.948,-629.783 312.532,-631.057"/>
<polygon fill="midnightblue" stroke="midnightblue" points="310.725,-634.06 320.959,-636.8 314.667,-628.276 310.725,-634.06"/>
</g>
<!-- Node16&#45;&gt;Node11 -->
<g id="edge53" class="edge"><title>Node16&#45;&gt;Node11</title>
<path fill="none" stroke="midnightblue" d="M218.261,-354.659C227.504,-394.288 253.131,-481.274 308,-529 312.858,-533.226 318.438,-536.739 324.333,-539.659"/>
<polygon fill="midnightblue" stroke="midnightblue" points="323.23,-542.996 333.796,-543.778 326.023,-536.578 323.23,-542.996"/>
</g>
<!-- Node17 -->
<g id="node17" class="node"><title>Node17</title>
<g id="a_node17"><a xlink:href="classRa_1_1Engine_1_1RadiumEngine.html#a23bc4cf581345f7333e0f7e3f743c401" target="_top" xlink:title="Ra::Engine::RadiumEngine\l::getSystem">
<polygon fill="white" stroke="black" points="319.5,-196 319.5,-226 454.5,-226 454.5,-196 319.5,-196"/>
<text text-anchor="start" x="327.5" y="-214" font-family="Helvetica,sans-Serif" font-size="10.00">Ra::Engine::RadiumEngine</text>
<text text-anchor="middle" x="387" y="-203" font-family="Helvetica,sans-Serif" font-size="10.00">::getSystem</text>
</a>
</g>
</g>
<!-- Node16&#45;&gt;Node17 -->
<g id="edge18" class="edge"><title>Node16&#45;&gt;Node17</title>
<path fill="none" stroke="midnightblue" d="M228.589,-313.175C245.32,-290.774 274.761,-255.604 308,-235 310.77,-233.283 313.671,-231.681 316.659,-230.187"/>
<polygon fill="midnightblue" stroke="midnightblue" points="318.174,-233.343 325.833,-226.022 315.281,-226.969 318.174,-233.343"/>
</g>
<!-- Node18 -->
<g id="node18" class="node"><title>Node18</title>
<g id="a_node18"><a xlink:href="classRa_1_1Engine_1_1RadiumEngine.html#a79f6626ce468268791bc5bdfe17b5586" target="_top" xlink:title="Ra::Engine::RadiumEngine\l::getEntityManager">
<polygon fill="white" stroke="black" points="319.5,-147 319.5,-177 454.5,-177 454.5,-147 319.5,-147"/>
<text text-anchor="start" x="327.5" y="-165" font-family="Helvetica,sans-Serif" font-size="10.00">Ra::Engine::RadiumEngine</text>
<text text-anchor="middle" x="387" y="-154" font-family="Helvetica,sans-Serif" font-size="10.00">::getEntityManager</text>
</a>
</g>
</g>
<!-- Node16&#45;&gt;Node18 -->
<g id="edge19" class="edge"><title>Node16&#45;&gt;Node18</title>
<path fill="none" stroke="midnightblue" d="M221.662,-313.265C234.55,-281.232 263.593,-219.879 308,-186 309.83,-184.604 311.743,-183.288 313.719,-182.048"/>
<polygon fill="midnightblue" stroke="midnightblue" points="315.667,-184.971 322.741,-177.084 312.292,-178.838 315.667,-184.971"/>
</g>
<!-- Node19 -->
<g id="node19" class="node"><title>Node19</title>
<g id="a_node19"><a xlink:href="classRa_1_1Engine_1_1EntityManager.html#a130f412ff1044ee5dc67f2c9bc2e36f4" target="_top" xlink:title="Create (if does not exist) an entity given its name. ">
<polygon fill="white" stroke="black" points="320,-98 320,-128 454,-128 454,-98 320,-98"/>
<text text-anchor="start" x="328" y="-116" font-family="Helvetica,sans-Serif" font-size="10.00">Ra::Engine::EntityManager</text>
<text text-anchor="middle" x="387" y="-105" font-family="Helvetica,sans-Serif" font-size="10.00">::createEntity</text>
</a>
</g>
</g>
<!-- Node16&#45;&gt;Node19 -->
<g id="edge20" class="edge"><title>Node16&#45;&gt;Node19</title>
<path fill="none" stroke="midnightblue" d="M218.077,-313.384C227.06,-273.4 252.346,-185.035 308,-137 309.364,-135.823 310.785,-134.703 312.254,-133.638"/>
<polygon fill="midnightblue" stroke="midnightblue" points="314.485,-136.373 321.13,-128.121 310.789,-130.428 314.485,-136.373"/>
</g>
<!-- Node25 -->
<g id="node25" class="node"><title>Node25</title>
<g id="a_node25"><a xlink:href="classRa_1_1Engine_1_1Camera.html#a2acbb1a258f8d0af86edcd978cfbf3e1" target="_top" xlink:title="Change the viewport size. ">
<polygon fill="white" stroke="black" points="334,-441 334,-471 440,-471 440,-441 334,-441"/>
<text text-anchor="start" x="342" y="-459" font-family="Helvetica,sans-Serif" font-size="10.00">Ra::Engine::Camera</text>
<text text-anchor="middle" x="387" y="-448" font-family="Helvetica,sans-Serif" font-size="10.00">::resize</text>
</a>
</g>
</g>
<!-- Node16&#45;&gt;Node25 -->
<g id="edge27" class="edge"><title>Node16&#45;&gt;Node25</title>
<path fill="none" stroke="midnightblue" d="M229.035,-354.719C245.939,-376.61 275.327,-410.714 308,-431 313.031,-434.123 318.488,-436.892 324.101,-439.339"/>
<polygon fill="midnightblue" stroke="midnightblue" points="323.061,-442.693 333.646,-443.159 325.662,-436.194 323.061,-442.693"/>
</g>
<!-- Node28 -->
<g id="node28" class="node"><title>Node28</title>
<g id="a_node28"><a xlink:href="classRa_1_1Engine_1_1Camera.html#af986d111c94ed3668b846865f7d572d5" target="_top" xlink:title="Set the projection type to &#39;projectionType&#39;. ">
<polygon fill="white" stroke="black" points="334,-49 334,-79 440,-79 440,-49 334,-49"/>
<text text-anchor="start" x="342" y="-67" font-family="Helvetica,sans-Serif" font-size="10.00">Ra::Engine::Camera</text>
<text text-anchor="middle" x="387" y="-56" font-family="Helvetica,sans-Serif" font-size="10.00">::setType</text>
</a>
</g>
</g>
<!-- Node16&#45;&gt;Node28 -->
<g id="edge30" class="edge"><title>Node16&#45;&gt;Node28</title>
<path fill="none" stroke="midnightblue" d="M215.9,-313.158C221.316,-266.054 241.062,-150.629 308,-88 312.753,-83.5533 318.311,-79.9297 324.233,-76.9769"/>
<polygon fill="midnightblue" stroke="midnightblue" points="325.976,-80.0374 333.776,-72.8672 323.207,-73.6083 325.976,-80.0374"/>
</g>
<!-- Node29 -->
<g id="node29" class="node"><title>Node29</title>
<g id="a_node29"><a xlink:href="classRa_1_1Engine_1_1Camera.html#afb2eb1eaed43dfbad89a89f90c067b4e" target="_top" xlink:title="Set the frame of the camera to &#39;frame&#39;. ">
<polygon fill="white" stroke="black" points="334,-0 334,-30 440,-30 440,-0 334,-0"/>
<text text-anchor="start" x="342" y="-18" font-family="Helvetica,sans-Serif" font-size="10.00">Ra::Engine::Camera</text>
<text text-anchor="middle" x="387" y="-7" font-family="Helvetica,sans-Serif" font-size="10.00">::setFrame</text>
</a>
</g>
</g>
<!-- Node16&#45;&gt;Node29 -->
<g id="edge31" class="edge"><title>Node16&#45;&gt;Node29</title>
<path fill="none" stroke="midnightblue" d="M214.367,-313.163C216.459,-259.755 229.504,-116.717 308,-39 312.803,-34.2448 318.524,-30.4284 324.655,-27.3661"/>
<polygon fill="midnightblue" stroke="midnightblue" points="326.07,-30.5673 333.871,-23.3975 323.302,-24.1381 326.07,-30.5673"/>
</g>
<!-- Node30 -->
<g id="node30" class="node"><title>Node30</title>
<g id="a_node30"><a xlink:href="classRa_1_1Engine_1_1Camera.html#a54a29618a5515e0b4ef00402f2f42cd5" target="_top" xlink:title="Set the Field Of View to &#39;fov&#39;. ">
<polygon fill="white" stroke="black" points="334,-392 334,-422 440,-422 440,-392 334,-392"/>
<text text-anchor="start" x="342" y="-410" font-family="Helvetica,sans-Serif" font-size="10.00">Ra::Engine::Camera</text>
<text text-anchor="middle" x="387" y="-399" font-family="Helvetica,sans-Serif" font-size="10.00">::setFOV</text>
</a>
</g>
</g>
<!-- Node16&#45;&gt;Node30 -->
<g id="edge32" class="edge"><title>Node16&#45;&gt;Node30</title>
<path fill="none" stroke="midnightblue" d="M250.855,-354.571C267.936,-363.646 288.688,-374.036 308,-382 313.474,-384.258 319.231,-386.442 325.034,-388.518"/>
<polygon fill="midnightblue" stroke="midnightblue" points="324.207,-391.935 334.802,-391.902 326.499,-385.321 324.207,-391.935"/>
</g>
<!-- Node31 -->
<g id="node31" class="node"><title>Node31</title>
<g id="a_node31"><a xlink:href="classRa_1_1Engine_1_1Camera.html#a4a3fabf640b33f4438acbf9497585680" target="_top" xlink:title="Set the Z Near plane distance to &#39;zNear&#39;. ">
<polygon fill="white" stroke="black" points="334,-343 334,-373 440,-373 440,-343 334,-343"/>
<text text-anchor="start" x="342" y="-361" font-family="Helvetica,sans-Serif" font-size="10.00">Ra::Engine::Camera</text>
<text text-anchor="middle" x="387" y="-350" font-family="Helvetica,sans-Serif" font-size="10.00">::setZNear</text>
</a>
</g>
</g>
<!-- Node16&#45;&gt;Node31 -->
<g id="edge34" class="edge"><title>Node16&#45;&gt;Node31</title>
<path fill="none" stroke="midnightblue" d="M272.231,-342.125C288.776,-344.434 306.857,-346.957 323.637,-349.298"/>
<polygon fill="midnightblue" stroke="midnightblue" points="323.503,-352.813 333.891,-350.729 324.471,-345.881 323.503,-352.813"/>
</g>
<!-- Node32 -->
<g id="node32" class="node"><title>Node32</title>
<g id="a_node32"><a xlink:href="classRa_1_1Engine_1_1Camera.html#a1f51ef3da326d7017bd8a457b5ce7edb" target="_top" xlink:title="Set the Z Far plane distance to &#39;zFar&#39;. ">
<polygon fill="white" stroke="black" points="334,-294 334,-324 440,-324 440,-294 334,-294"/>
<text text-anchor="start" x="342" y="-312" font-family="Helvetica,sans-Serif" font-size="10.00">Ra::Engine::Camera</text>
<text text-anchor="middle" x="387" y="-301" font-family="Helvetica,sans-Serif" font-size="10.00">::setZFar</text>
</a>
</g>
</g>
<!-- Node16&#45;&gt;Node32 -->
<g id="edge36" class="edge"><title>Node16&#45;&gt;Node32</title>
<path fill="none" stroke="midnightblue" d="M272.231,-325.536C288.776,-323.131 306.857,-320.503 323.637,-318.064"/>
<polygon fill="midnightblue" stroke="midnightblue" points="324.498,-321.476 333.891,-316.574 323.492,-314.549 324.498,-321.476"/>
</g>
<!-- Node33 -->
<g id="node33" class="node"><title>Node33</title>
<g id="a_node33"><a xlink:href="classRa_1_1Engine_1_1Camera.html#a6c6f55e7821123b64e4b84bdeacf12ea" target="_top" xlink:title="Set the zoom factor to &#39;zoomFactor&#39;. ">
<polygon fill="white" stroke="black" points="334,-245 334,-275 440,-275 440,-245 334,-245"/>
<text text-anchor="start" x="342" y="-263" font-family="Helvetica,sans-Serif" font-size="10.00">Ra::Engine::Camera</text>
<text text-anchor="middle" x="387" y="-252" font-family="Helvetica,sans-Serif" font-size="10.00">::setZoomFactor</text>
</a>
</g>
</g>
<!-- Node16&#45;&gt;Node33 -->
<g id="edge38" class="edge"><title>Node16&#45;&gt;Node33</title>
<path fill="none" stroke="midnightblue" d="M249.914,-313.441C267.151,-304.053 288.299,-293.222 308,-285 313.465,-282.72 319.215,-280.519 325.014,-278.434"/>
<polygon fill="midnightblue" stroke="midnightblue" points="326.482,-281.629 334.777,-275.039 324.182,-275.018 326.482,-281.629"/>
</g>
<!-- Node34 -->
<g id="node34" class="node"><title>Node34</title>
<g id="a_node34"><a xlink:href="classRa_1_1Engine_1_1Camera.html#abec46e062874d71bf9cfc9143c889a60" target="_top" xlink:title="Pure virtual method to be overridden by any component. ">
<polygon fill="white" stroke="black" points="334,-490 334,-520 440,-520 440,-490 334,-490"/>
<text text-anchor="start" x="342" y="-508" font-family="Helvetica,sans-Serif" font-size="10.00">Ra::Engine::Camera</text>
<text text-anchor="middle" x="387" y="-497" font-family="Helvetica,sans-Serif" font-size="10.00">::initialize</text>
</a>
</g>
</g>
<!-- Node16&#45;&gt;Node34 -->
<g id="edge40" class="edge"><title>Node16&#45;&gt;Node34</title>
<path fill="none" stroke="midnightblue" d="M221.894,-354.653C235.004,-386.241 264.231,-446.417 308,-480 313.035,-483.863 318.684,-487.139 324.581,-489.915"/>
<polygon fill="midnightblue" stroke="midnightblue" points="323.424,-493.225 333.999,-493.878 326.139,-486.773 323.424,-493.225"/>
</g>
<!-- Node20 -->
<g id="node20" class="node"><title>Node20</title>
<g id="a_node20"><a xlink:href="namespaceRa_1_1Core_1_1StringUtils.html#a63b10a7c14473b4aa762cf00e0432690" target="_top" xlink:title="Writes a formatted print into the given string, similarly to sprintf. ">
<polygon fill="white" stroke="black" points="528,-142 528,-172 636,-172 636,-142 528,-142"/>
<text text-anchor="start" x="536" y="-160" font-family="Helvetica,sans-Serif" font-size="10.00">Ra::Core::StringUtils</text>
<text text-anchor="middle" x="582" y="-149" font-family="Helvetica,sans-Serif" font-size="10.00">::stringPrintf</text>
</a>
</g>
</g>
<!-- Node19&#45;&gt;Node20 -->
<g id="edge21" class="edge"><title>Node19&#45;&gt;Node20</title>
<path fill="none" stroke="midnightblue" d="M453.88,-128.019C474.619,-132.747 497.464,-137.956 517.998,-142.637"/>
<polygon fill="midnightblue" stroke="midnightblue" points="517.346,-146.078 527.874,-144.888 518.902,-139.253 517.346,-146.078"/>
</g>
<!-- Node23 -->
<g id="node23" class="node"><title>Node23</title>
<g id="a_node23"><a xlink:href="classRa_1_1Core_1_1Index.html#a06abaf1320f1682bb6ab3aac9a89b13b" target="_top" xlink:title="INDEX. ">
<polygon fill="white" stroke="black" points="516.5,-103.5 516.5,-122.5 647.5,-122.5 647.5,-103.5 516.5,-103.5"/>
<text text-anchor="middle" x="582" y="-110.5" font-family="Helvetica,sans-Serif" font-size="10.00">Ra::Core::Index::getValue</text>
</a>
</g>
</g>
<!-- Node19&#45;&gt;Node23 -->
<g id="edge24" class="edge"><title>Node19&#45;&gt;Node23</title>
<path fill="none" stroke="midnightblue" d="M454.15,-113C470.777,-113 488.742,-113 505.777,-113"/>
<polygon fill="midnightblue" stroke="midnightblue" points="506.243,-116.5 516.243,-113 506.243,-109.5 506.243,-116.5"/>
</g>
<!-- Node24 -->
<g id="node24" class="node"><title>Node24</title>
<g id="a_node24"><a xlink:href="classRa_1_1Engine_1_1EntityManager.html#a5115cccae6aaef614ad4bd08e64d8185" target="_top" xlink:title="Check wether an entity with a given name exists or not. ">
<polygon fill="white" stroke="black" points="515,-54 515,-84 649,-84 649,-54 515,-54"/>
<text text-anchor="start" x="523" y="-72" font-family="Helvetica,sans-Serif" font-size="10.00">Ra::Engine::EntityManager</text>
<text text-anchor="middle" x="582" y="-61" font-family="Helvetica,sans-Serif" font-size="10.00">::entityExists</text>
</a>
</g>
</g>
<!-- Node19&#45;&gt;Node24 -->
<g id="edge25" class="edge"><title>Node19&#45;&gt;Node24</title>
<path fill="none" stroke="midnightblue" d="M453.88,-97.9808C470.402,-94.214 488.261,-90.1426 505.223,-86.2756"/>
<polygon fill="midnightblue" stroke="midnightblue" points="506.118,-89.6615 515.09,-84.0262 504.562,-82.8366 506.118,-89.6615"/>
</g>
<!-- Node21 -->
<g id="node21" class="node"><title>Node21</title>
<g id="a_node21"><a xlink:href="namespaceRa_1_1Core_1_1StringUtils.html#ac348328b878bb8f1b1c1a3335ea20c4b" target="_top" xlink:title="Ra::Core::StringUtils\l::stringvPrintf">
<polygon fill="white" stroke="black" points="724,-142 724,-172 832,-172 832,-142 724,-142"/>
<text text-anchor="start" x="732" y="-160" font-family="Helvetica,sans-Serif" font-size="10.00">Ra::Core::StringUtils</text>
<text text-anchor="middle" x="778" y="-149" font-family="Helvetica,sans-Serif" font-size="10.00">::stringvPrintf</text>
</a>
</g>
</g>
<!-- Node20&#45;&gt;Node21 -->
<g id="edge22" class="edge"><title>Node20&#45;&gt;Node21</title>
<path fill="none" stroke="midnightblue" d="M636.011,-157C659.972,-157 688.475,-157 713.562,-157"/>
<polygon fill="midnightblue" stroke="midnightblue" points="713.716,-160.5 723.716,-157 713.716,-153.5 713.716,-160.5"/>
</g>
<!-- Node22 -->
<g id="node22" class="node"><title>Node22</title>
<g id="a_node22"><a xlink:href="namespaceRa_1_1Core.html#abc0a3625137098b67838fe52edd480f9" target="_top" xlink:title="SIZE. ">
<polygon fill="white" stroke="black" points="917,-147.5 917,-166.5 997,-166.5 997,-147.5 917,-147.5"/>
<text text-anchor="middle" x="957" y="-154.5" font-family="Helvetica,sans-Serif" font-size="10.00">Ra::Core::size</text>
</a>
</g>
</g>
<!-- Node21&#45;&gt;Node22 -->
<g id="edge23" class="edge"><title>Node21&#45;&gt;Node22</title>
<path fill="none" stroke="midnightblue" d="M832.106,-157C855.878,-157 883.73,-157 906.998,-157"/>
<polygon fill="midnightblue" stroke="midnightblue" points="906.999,-160.5 916.999,-157 906.999,-153.5 906.999,-160.5"/>
</g>
<!-- Node26 -->
<g id="node26" class="node"><title>Node26</title>
<g id="a_node26"><a xlink:href="classRa_1_1Engine_1_1Camera.html#a2124136d939bd433f9630e23c403cdd6" target="_top" xlink:title="Update the projection matrix according to the current parameters. ">
<polygon fill="white" stroke="black" points="529,-318 529,-348 635,-348 635,-318 529,-318"/>
<text text-anchor="start" x="537" y="-336" font-family="Helvetica,sans-Serif" font-size="10.00">Ra::Engine::Camera</text>
<text text-anchor="middle" x="582" y="-325" font-family="Helvetica,sans-Serif" font-size="10.00">::updateProjMatrix</text>
</a>
</g>
</g>
<!-- Node25&#45;&gt;Node26 -->
<g id="edge28" class="edge"><title>Node25&#45;&gt;Node26</title>
<path fill="none" stroke="midnightblue" d="M440.158,-445.724C449.476,-442.175 458.568,-437.406 466,-431 493.401,-407.381 474.556,-381.568 502,-358 507.206,-353.529 513.215,-349.856 519.547,-346.84"/>
<polygon fill="midnightblue" stroke="midnightblue" points="521.133,-349.97 528.999,-342.872 518.424,-343.515 521.133,-349.97"/>
</g>
<!-- Node27 -->
<g id="node27" class="node"><title>Node27</title>
<g id="a_node27"><a xlink:href="namespaceRa_1_1Core_1_1Algorithm.html#aea294cdb6f4f0d85955bdcccb22886ec" target="_top" xlink:title="Ra::Core::Algorithm::t">
<polygon fill="white" stroke="black" points="721.5,-489.5 721.5,-508.5 834.5,-508.5 834.5,-489.5 721.5,-489.5"/>
<text text-anchor="middle" x="778" y="-496.5" font-family="Helvetica,sans-Serif" font-size="10.00">Ra::Core::Algorithm::t</text>
</a>
</g>
</g>
<!-- Node26&#45;&gt;Node27 -->
<g id="edge29" class="edge"><title>Node26&#45;&gt;Node27</title>
<path fill="none" stroke="midnightblue" d="M635.107,-341.579C645.052,-345.259 654.639,-350.51 662,-358 701.329,-398.016 657.517,-440.152 698,-479 702.083,-482.918 706.819,-486.1 711.904,-488.681"/>
<polygon fill="midnightblue" stroke="midnightblue" points="710.796,-492.013 721.369,-492.704 713.535,-485.571 710.796,-492.013"/>
</g>
<!-- Node30&#45;&gt;Node26 -->
<g id="edge33" class="edge"><title>Node30&#45;&gt;Node26</title>
<path fill="none" stroke="midnightblue" d="M440.392,-392.429C449.107,-389.378 457.93,-385.889 466,-382 483.323,-373.652 484.662,-366.316 502,-358 507.401,-355.409 513.135,-353 518.951,-350.782"/>
<polygon fill="midnightblue" stroke="midnightblue" points="520.558,-353.922 528.772,-347.23 518.178,-347.339 520.558,-353.922"/>
</g>
<!-- Node31&#45;&gt;Node26 -->
<g id="edge35" class="edge"><title>Node31&#45;&gt;Node26</title>
<path fill="none" stroke="midnightblue" d="M440.229,-351.235C464.366,-348.108 493.22,-344.37 518.504,-341.095"/>
<polygon fill="midnightblue" stroke="midnightblue" points="519.262,-344.526 528.73,-339.771 518.363,-337.584 519.262,-344.526"/>
</g>
<!-- Node32&#45;&gt;Node26 -->
<g id="edge37" class="edge"><title>Node32&#45;&gt;Node26</title>
<path fill="none" stroke="midnightblue" d="M440.229,-315.495C464.366,-318.496 493.22,-322.084 518.504,-325.228"/>
<polygon fill="midnightblue" stroke="midnightblue" points="518.374,-328.739 528.73,-326.5 519.238,-321.793 518.374,-328.739"/>
</g>
<!-- Node33&#45;&gt;Node26 -->
<g id="edge39" class="edge"><title>Node33&#45;&gt;Node26</title>
<path fill="none" stroke="midnightblue" d="M437.316,-275.104C446.882,-278.231 456.792,-281.61 466,-285 489.944,-293.816 516.234,-304.696 537.626,-313.868"/>
<polygon fill="midnightblue" stroke="midnightblue" points="536.516,-317.201 547.084,-317.948 539.289,-310.774 536.516,-317.201"/>
</g>
<!-- Node34&#45;&gt;Node27 -->
<g id="edge41" class="edge"><title>Node34&#45;&gt;Node27</title>
<path fill="none" stroke="midnightblue" d="M440.328,-519.706C449.051,-522.74 457.892,-526.189 466,-530 483.184,-538.076 483.775,-547.675 502,-553 570.257,-572.943 595.92,-579.272 662,-553 682.451,-544.869 678.712,-529.597 698,-519 703.084,-516.207 708.566,-513.795 714.188,-511.715"/>
<polygon fill="midnightblue" stroke="midnightblue" points="715.365,-515.012 723.735,-508.517 713.142,-508.374 715.365,-515.012"/>
</g>
<!-- Node35 -->
<g id="node35" class="node"><title>Node35</title>
<g id="a_node35"><a xlink:href="classRa_1_1Engine_1_1RenderObject.html#ae9cb914f351555a60d29e8d6afedc06b" target="_top" xlink:title="Sort of factory method to easily create a render object. ">
<polygon fill="white" stroke="black" points="516.5,-602 516.5,-632 647.5,-632 647.5,-602 516.5,-602"/>
<text text-anchor="start" x="524.5" y="-620" font-family="Helvetica,sans-Serif" font-size="10.00">Ra::Engine::RenderObject</text>
<text text-anchor="middle" x="582" y="-609" font-family="Helvetica,sans-Serif" font-size="10.00">::createRenderObject</text>
</a>
</g>
</g>
<!-- Node34&#45;&gt;Node35 -->
<g id="edge42" class="edge"><title>Node34&#45;&gt;Node35</title>
<path fill="none" stroke="midnightblue" d="M440.043,-516.068C449.267,-519.542 458.354,-524.08 466,-530 489.692,-548.343 478.8,-568.039 502,-587 506.846,-590.96 512.27,-594.434 517.945,-597.473"/>
<polygon fill="midnightblue" stroke="midnightblue" points="516.501,-600.662 527.023,-601.898 519.568,-594.37 516.501,-600.662"/>
</g>
<!-- Node39 -->
<g id="node39" class="node"><title>Node39</title>
<g id="a_node39"><a xlink:href="classRa_1_1Engine_1_1RenderObject.html#acc91aff99b91e06143b28940ec49d0e0" target="_top" xlink:title="Ra::Engine::RenderObject\l::getRenderTechnique">
<polygon fill="white" stroke="black" points="516.5,-514 516.5,-544 647.5,-544 647.5,-514 516.5,-514"/>
<text text-anchor="start" x="524.5" y="-532" font-family="Helvetica,sans-Serif" font-size="10.00">Ra::Engine::RenderObject</text>
<text text-anchor="middle" x="582" y="-521" font-family="Helvetica,sans-Serif" font-size="10.00">::getRenderTechnique</text>
</a>
</g>
</g>
<!-- Node34&#45;&gt;Node39 -->
<g id="edge47" class="edge"><title>Node34&#45;&gt;Node39</title>
<path fill="none" stroke="midnightblue" d="M440.229,-511.495C460.559,-514.023 484.236,-516.967 506.307,-519.712"/>
<polygon fill="midnightblue" stroke="midnightblue" points="505.961,-523.196 516.317,-520.956 506.825,-516.249 505.961,-523.196"/>
</g>
<!-- Node40 -->
<g id="node40" class="node"><title>Node40</title>
<g id="a_node40"><a xlink:href="namespaceRa_1_1Engine_1_1ShaderConfigurationFactory.html#a0bc60f21dbabd745961037f3d2f019c8" target="_top" xlink:title="Ra::Engine::ShaderConfiguration\lFactory::getConfiguration">
<polygon fill="white" stroke="black" points="502,-465 502,-495 662,-495 662,-465 502,-465"/>
<text text-anchor="start" x="510" y="-483" font-family="Helvetica,sans-Serif" font-size="10.00">Ra::Engine::ShaderConfiguration</text>
<text text-anchor="middle" x="582" y="-472" font-family="Helvetica,sans-Serif" font-size="10.00">Factory::getConfiguration</text>
</a>
</g>
</g>
<!-- Node34&#45;&gt;Node40 -->
<g id="edge48" class="edge"><title>Node34&#45;&gt;Node40</title>
<path fill="none" stroke="midnightblue" d="M440.229,-498.235C456.093,-496.18 473.996,-493.861 491.583,-491.583"/>
<polygon fill="midnightblue" stroke="midnightblue" points="492.416,-495.004 501.884,-490.248 491.517,-488.062 492.416,-495.004"/>
</g>
<!-- Node42 -->
<g id="node42" class="node"><title>Node42</title>
<g id="a_node42"><a xlink:href="classRa_1_1Engine_1_1RenderObject.html#a2d6a1bc2b7646fe0912035a2ece24864" target="_top" xlink:title="Ra::Engine::RenderObject\l::setLocalTransform">
<polygon fill="white" stroke="black" points="516.5,-416 516.5,-446 647.5,-446 647.5,-416 516.5,-416"/>
<text text-anchor="start" x="524.5" y="-434" font-family="Helvetica,sans-Serif" font-size="10.00">Ra::Engine::RenderObject</text>
<text text-anchor="middle" x="582" y="-423" font-family="Helvetica,sans-Serif" font-size="10.00">::setLocalTransform</text>
</a>
</g>
</g>
<!-- Node34&#45;&gt;Node42 -->
<g id="edge50" class="edge"><title>Node34&#45;&gt;Node42</title>
<path fill="none" stroke="midnightblue" d="M440.392,-490.429C449.107,-487.378 457.93,-483.889 466,-480 483.323,-471.652 484.662,-464.316 502,-456 506.663,-453.763 511.575,-451.662 516.573,-449.701"/>
<polygon fill="midnightblue" stroke="midnightblue" points="518.094,-452.87 526.25,-446.107 515.657,-446.308 518.094,-452.87"/>
</g>
<!-- Node43 -->
<g id="node43" class="node"><title>Node43</title>
<g id="a_node43"><a xlink:href="classRa_1_1Engine_1_1Component.html#a8faa6f03b4a5a8bc30bb8ff402e6b61f" target="_top" xlink:title="Add a new render object to the component. This adds the RO to the manager for drawing. ">
<polygon fill="white" stroke="black" points="521,-367 521,-397 643,-397 643,-367 521,-367"/>
<text text-anchor="start" x="529" y="-385" font-family="Helvetica,sans-Serif" font-size="10.00">Ra::Engine::Component</text>
<text text-anchor="middle" x="582" y="-374" font-family="Helvetica,sans-Serif" font-size="10.00">::addRenderObject</text>
</a>
</g>
</g>
<!-- Node34&#45;&gt;Node43 -->
<g id="edge51" class="edge"><title>Node34&#45;&gt;Node43</title>
<path fill="none" stroke="midnightblue" d="M440.158,-494.724C449.476,-491.175 458.568,-486.406 466,-480 493.401,-456.381 474.556,-430.568 502,-407 505.044,-404.386 508.362,-402.045 511.859,-399.948"/>
<polygon fill="midnightblue" stroke="midnightblue" points="513.635,-402.969 520.864,-395.223 510.383,-396.77 513.635,-402.969"/>
</g>
<!-- Node35&#45;&gt;Node12 -->
<g id="edge45" class="edge"><title>Node35&#45;&gt;Node12</title>
<path fill="none" stroke="midnightblue" d="M616.903,-632.085C639.641,-641.97 670.37,-654.885 698,-665 704.263,-667.293 710.848,-669.575 717.433,-671.775"/>
<polygon fill="midnightblue" stroke="midnightblue" points="716.452,-675.137 727.044,-674.932 718.636,-668.486 716.452,-675.137"/>
</g>
<!-- Node36 -->
<g id="node36" class="node"><title>Node36</title>
<g id="a_node36"><a xlink:href="classRa_1_1Engine_1_1RenderObject.html#acf300c8fdb55fee54d27b3fb46a1e523" target="_top" xlink:title="A &#45;1 (or any other negative value) lifetime is considered infinite, 0 is an &quot;invalid value&quot; (would ...">
<polygon fill="white" stroke="black" points="712.5,-626 712.5,-656 843.5,-656 843.5,-626 712.5,-626"/>
<text text-anchor="start" x="720.5" y="-644" font-family="Helvetica,sans-Serif" font-size="10.00">Ra::Engine::RenderObject</text>
<text text-anchor="middle" x="778" y="-633" font-family="Helvetica,sans-Serif" font-size="10.00">::RenderObject</text>
</a>
</g>
</g>
<!-- Node35&#45;&gt;Node36 -->
<g id="edge43" class="edge"><title>Node35&#45;&gt;Node36</title>
<path fill="none" stroke="midnightblue" d="M647.599,-624.992C665.095,-627.156 684.18,-629.517 702.187,-631.745"/>
<polygon fill="midnightblue" stroke="midnightblue" points="701.998,-635.248 712.352,-633.002 702.858,-628.301 701.998,-635.248"/>
</g>
<!-- Node37 -->
<g id="node37" class="node"><title>Node37</title>
<g id="a_node37"><a xlink:href="classRa_1_1Engine_1_1RenderObject.html#ae8e94954e783a2012fd774598af1eb52" target="_top" xlink:title="Ra::Engine::RenderObject\l::setMesh">
<polygon fill="white" stroke="black" points="712.5,-577 712.5,-607 843.5,-607 843.5,-577 712.5,-577"/>
<text text-anchor="start" x="720.5" y="-595" font-family="Helvetica,sans-Serif" font-size="10.00">Ra::Engine::RenderObject</text>
<text text-anchor="middle" x="778" y="-584" font-family="Helvetica,sans-Serif" font-size="10.00">::setMesh</text>
</a>
</g>
</g>
<!-- Node35&#45;&gt;Node37 -->
<g id="edge44" class="edge"><title>Node35&#45;&gt;Node37</title>
<path fill="none" stroke="midnightblue" d="M647.599,-608.675C665.095,-606.421 684.18,-603.961 702.187,-601.641"/>
<polygon fill="midnightblue" stroke="midnightblue" points="702.882,-605.08 712.352,-600.331 701.987,-598.138 702.882,-605.08"/>
</g>
<!-- Node38 -->
<g id="node38" class="node"><title>Node38</title>
<g id="a_node38"><a xlink:href="classRa_1_1Engine_1_1RenderObject.html#ae1ea453e2b698cda9956586d11b9cfbd" target="_top" xlink:title="Ra::Engine::RenderObject\l::setRenderTechnique">
<polygon fill="white" stroke="black" points="712.5,-528 712.5,-558 843.5,-558 843.5,-528 712.5,-528"/>
<text text-anchor="start" x="720.5" y="-546" font-family="Helvetica,sans-Serif" font-size="10.00">Ra::Engine::RenderObject</text>
<text text-anchor="middle" x="778" y="-535" font-family="Helvetica,sans-Serif" font-size="10.00">::setRenderTechnique</text>
</a>
</g>
</g>
<!-- Node35&#45;&gt;Node38 -->
<g id="edge46" class="edge"><title>Node35&#45;&gt;Node38</title>
<path fill="none" stroke="midnightblue" d="M625.622,-601.909C637.518,-597.402 650.368,-592.254 662,-587 678.488,-579.552 681.309,-574.979 698,-568 703.442,-565.725 709.166,-563.537 714.944,-561.467"/>
<polygon fill="midnightblue" stroke="midnightblue" points="716.371,-564.677 724.678,-558.1 714.083,-558.062 716.371,-564.677"/>
</g>
<!-- Node41 -->
<g id="node41" class="node"><title>Node41</title>
<g id="a_node41"><a xlink:href="classRa_1_1Engine_1_1ShaderConfiguration.html#a7e20a600c78e8627f0238b342f4b42f2" target="_top" xlink:title="Ra::Engine::ShaderConfiguration\l::getDefaultShaderConfig">
<polygon fill="white" stroke="black" points="698,-440 698,-470 858,-470 858,-440 698,-440"/>
<text text-anchor="start" x="706" y="-458" font-family="Helvetica,sans-Serif" font-size="10.00">Ra::Engine::ShaderConfiguration</text>
<text text-anchor="middle" x="778" y="-447" font-family="Helvetica,sans-Serif" font-size="10.00">::getDefaultShaderConfig</text>
</a>
</g>
</g>
<!-- Node40&#45;&gt;Node41 -->
<g id="edge49" class="edge"><title>Node40&#45;&gt;Node41</title>
<path fill="none" stroke="midnightblue" d="M662.187,-469.795C670.621,-468.709 679.241,-467.598 687.781,-466.497"/>
<polygon fill="midnightblue" stroke="midnightblue" points="688.281,-469.962 697.752,-465.212 687.386,-463.019 688.281,-469.962"/>
</g>
<!-- Node44 -->
<g id="node44" class="node"><title>Node44</title>
<g id="a_node44"><a xlink:href="classRa_1_1Engine_1_1Component.html#a10b0bc182b76165744ebea603ae32dfe" target="_top" xlink:title="Shortcut to access the render object manager. ">
<polygon fill="white" stroke="black" points="717,-367 717,-397 839,-397 839,-367 717,-367"/>
<text text-anchor="start" x="725" y="-385" font-family="Helvetica,sans-Serif" font-size="10.00">Ra::Engine::Component</text>
<text text-anchor="middle" x="778" y="-374" font-family="Helvetica,sans-Serif" font-size="10.00">::getRoMgr</text>
</a>
</g>
</g>
<!-- Node43&#45;&gt;Node44 -->
<g id="edge52" class="edge"><title>Node43&#45;&gt;Node44</title>
<path fill="none" stroke="midnightblue" d="M643.054,-382C663.233,-382 685.919,-382 706.805,-382"/>
<polygon fill="midnightblue" stroke="midnightblue" points="706.896,-385.5 716.896,-382 706.896,-378.5 706.896,-385.5"/>
</g>
</g>
</svg>
