<?xml version="1.0" encoding="UTF-8" standalone="no"?>
<!DOCTYPE svg PUBLIC "-//W3C//DTD SVG 1.1//EN"
 "http://www.w3.org/Graphics/SVG/1.1/DTD/svg11.dtd">
<!-- Generated by graphviz version 2.36.0 (20140111.2315)
 -->
<!-- Title: MeshPaintPlugin::MeshPaintComponent Pages: 1 -->
<svg width="1135pt" height="1400pt"
 viewBox="0.00 0.00 1135.00 1400.00" xmlns="http://www.w3.org/2000/svg" xmlns:xlink="http://www.w3.org/1999/xlink">
<g id="graph0" class="graph" transform="scale(1 1) rotate(0) translate(4 1396)">
<title>MeshPaintPlugin::MeshPaintComponent</title>
<polygon fill="white" stroke="none" points="-4,4 -4,-1396 1131,-1396 1131,4 -4,4"/>
<!-- Node1 -->
<g id="node1" class="node"><title>Node1</title>
<polygon fill="#bfbfbf" stroke="black" points="643.5,-1 643.5,-135 786.5,-135 786.5,-1 643.5,-1"/>
<text text-anchor="start" x="651.5" y="-123" font-family="Helvetica,sans-Serif" font-size="10.00">MeshPaintPlugin::MeshPaint</text>
<text text-anchor="middle" x="715" y="-112" font-family="Helvetica,sans-Serif" font-size="10.00">Component</text>
<polyline fill="none" stroke="black" points="643.5,-105 786.5,-105 "/>
<text text-anchor="middle" x="715" y="-93" font-family="Helvetica,sans-Serif" font-size="10.00"> </text>
<polyline fill="none" stroke="black" points="643.5,-86 786.5,-86 "/>
<text text-anchor="start" x="651.5" y="-74" font-family="Helvetica,sans-Serif" font-size="10.00">+ MeshPaintComponent()</text>
<text text-anchor="start" x="651.5" y="-63" font-family="Helvetica,sans-Serif" font-size="10.00">+ ~MeshPaintComponent()</text>
<text text-anchor="start" x="651.5" y="-52" font-family="Helvetica,sans-Serif" font-size="10.00">+ initialize()</text>
<text text-anchor="start" x="651.5" y="-41" font-family="Helvetica,sans-Serif" font-size="10.00">+ addTasks()</text>
<text text-anchor="start" x="651.5" y="-30" font-family="Helvetica,sans-Serif" font-size="10.00">+ setDataId()</text>
<text text-anchor="start" x="651.5" y="-19" font-family="Helvetica,sans-Serif" font-size="10.00">+ startPaint()</text>
<text text-anchor="start" x="651.5" y="-8" font-family="Helvetica,sans-Serif" font-size="10.00">+ paintMesh()</text>
</g>
<!-- Node2 -->
<g id="node2" class="node"><title>Node2</title>
<g id="a_node2"><a xlink:href="classRa_1_1Engine_1_1Component.html" target="_top" xlink:title="A component is an element that can be updated by a system. ">
<polygon fill="white" stroke="black" points="363.5,-195 363.5,-417 512.5,-417 512.5,-195 363.5,-195"/>
<text text-anchor="middle" x="438" y="-405" font-family="Helvetica,sans-Serif" font-size="10.00">Ra::Engine::Component</text>
<polyline fill="none" stroke="black" points="363.5,-398 512.5,-398 "/>
<text text-anchor="middle" x="438" y="-386" font-family="Helvetica,sans-Serif" font-size="10.00"> </text>
<polyline fill="none" stroke="black" points="363.5,-379 512.5,-379 "/>
<text text-anchor="start" x="371.5" y="-367" font-family="Helvetica,sans-Serif" font-size="10.00">+ Component()</text>
<text text-anchor="start" x="371.5" y="-356" font-family="Helvetica,sans-Serif" font-size="10.00">+ ~Component()</text>
<text text-anchor="start" x="371.5" y="-345" font-family="Helvetica,sans-Serif" font-size="10.00">+ initialize()</text>
<text text-anchor="start" x="371.5" y="-334" font-family="Helvetica,sans-Serif" font-size="10.00">+ setEntity()</text>
<text text-anchor="start" x="371.5" y="-323" font-family="Helvetica,sans-Serif" font-size="10.00">+ getEntity()</text>
<text text-anchor="start" x="371.5" y="-312" font-family="Helvetica,sans-Serif" font-size="10.00">+ getName()</text>
<text text-anchor="start" x="371.5" y="-301" font-family="Helvetica,sans-Serif" font-size="10.00">+ setSystem()</text>
<text text-anchor="start" x="371.5" y="-290" font-family="Helvetica,sans-Serif" font-size="10.00">+ getSystem()</text>
<text text-anchor="start" x="371.5" y="-279" font-family="Helvetica,sans-Serif" font-size="10.00">+ addRenderObject()</text>
<text text-anchor="start" x="371.5" y="-268" font-family="Helvetica,sans-Serif" font-size="10.00">+ removeRenderObject()</text>
<text text-anchor="start" x="371.5" y="-257" font-family="Helvetica,sans-Serif" font-size="10.00">+ rayCastQuery()</text>
<text text-anchor="start" x="371.5" y="-246" font-family="Helvetica,sans-Serif" font-size="10.00">+ canEdit()</text>
<text text-anchor="start" x="371.5" y="-235" font-family="Helvetica,sans-Serif" font-size="10.00">+ getTransform()</text>
<text text-anchor="start" x="371.5" y="-224" font-family="Helvetica,sans-Serif" font-size="10.00">+ setTransform()</text>
<text text-anchor="start" x="371.5" y="-213" font-family="Helvetica,sans-Serif" font-size="10.00">+ notifyRenderObjectExpired()</text>
<text text-anchor="start" x="371.5" y="-202" font-family="Helvetica,sans-Serif" font-size="10.00"># getRoMgr()</text>
</a>
</g>
</g>
<!-- Node2&#45;&gt;Node1 -->
<g id="edge1" class="edge"><title>Node2&#45;&gt;Node1</title>
<path fill="none" stroke="midnightblue" d="M519.253,-188.222C530.198,-175.95 541.863,-164.238 554,-154 580.455,-131.684 613.734,-112.907 643.16,-98.7246"/>
<polygon fill="none" stroke="midnightblue" points="516.468,-186.09 512.534,-195.927 521.744,-190.691 516.468,-186.09"/>
</g>
<!-- Node3 -->
<g id="node3" class="node"><title>Node3</title>
<polygon fill="white" stroke="#bfbfbf" points="65.5,-776 65.5,-844 164.5,-844 164.5,-776 65.5,-776"/>
<text text-anchor="start" x="73.5" y="-832" font-family="Helvetica,sans-Serif" font-size="10.00">std::vector&lt; Core::</text>
<text text-anchor="middle" x="115" y="-821" font-family="Helvetica,sans-Serif" font-size="10.00">Index &gt;</text>
<polyline fill="none" stroke="#bfbfbf" points="65.5,-814 164.5,-814 "/>
<text text-anchor="middle" x="115" y="-802" font-family="Helvetica,sans-Serif" font-size="10.00"> </text>
<polyline fill="none" stroke="#bfbfbf" points="65.5,-795 164.5,-795 "/>
<text text-anchor="middle" x="115" y="-783" font-family="Helvetica,sans-Serif" font-size="10.00"> </text>
</g>
<!-- Node3&#45;&gt;Node2 -->
<g id="edge2" class="edge"><title>Node3&#45;&gt;Node2</title>
<path fill="none" stroke="#404040" d="M108.322,-775.582C97.4748,-711.749 82.8386,-570.437 143,-476 190.367,-401.648 282.879,-356.528 351.735,-331.839"/>
<polygon fill="none" stroke="#404040" points="352.104,-331.711 356.452,-325.957 363.435,-327.758 359.087,-333.511 352.104,-331.711"/>
<text text-anchor="middle" x="185" y="-596.5" font-family="Helvetica,sans-Serif" font-size="10.00"> +m_renderObjects</text>
</g>
<!-- Node4 -->
<g id="node4" class="node"><title>Node4</title>
<g id="a_node4"><a xlink:href="classRa_1_1Core_1_1Index.html" target="_top" xlink:title="{Ra::Core::Index\n||+ Index()\l+ Index()\l+ isValid()\l+ isInvalid()\l+ setInvalid()\l+ getValue()\l+ setValue()\l+ operator int()\l+ operator=()\l+ operator++()\l+ operator&#45;&#45;()\l+ operator+()\l+ operator+()\l+ operator&#45;()\l+ operator&#45;()\l+ operator==()\l+ operator==()\l+ operator!=()\l+ operator!=()\l+ operator\&lt;()\l+ operator\&lt;()\l+ operator\&lt;=()\l+ operator\&lt;=()\l+ operator\&gt;()\l+ operator\&gt;()\l+ operator\&gt;=()\l+ operator\&gt;=()\l+ Invalid()\l+ Max()\l}">
<polygon fill="white" stroke="black" points="0,-920.5 0,-1285.5 86,-1285.5 86,-920.5 0,-920.5"/>
<text text-anchor="middle" x="43" y="-1273.5" font-family="Helvetica,sans-Serif" font-size="10.00">Ra::Core::Index</text>
<polyline fill="none" stroke="black" points="0,-1266.5 86,-1266.5 "/>
<text text-anchor="middle" x="43" y="-1254.5" font-family="Helvetica,sans-Serif" font-size="10.00"> </text>
<polyline fill="none" stroke="black" points="0,-1247.5 86,-1247.5 "/>
<text text-anchor="start" x="8" y="-1235.5" font-family="Helvetica,sans-Serif" font-size="10.00">+ Index()</text>
<text text-anchor="start" x="8" y="-1224.5" font-family="Helvetica,sans-Serif" font-size="10.00">+ Index()</text>
<text text-anchor="start" x="8" y="-1213.5" font-family="Helvetica,sans-Serif" font-size="10.00">+ isValid()</text>
<text text-anchor="start" x="8" y="-1202.5" font-family="Helvetica,sans-Serif" font-size="10.00">+ isInvalid()</text>
<text text-anchor="start" x="8" y="-1191.5" font-family="Helvetica,sans-Serif" font-size="10.00">+ setInvalid()</text>
<text text-anchor="start" x="8" y="-1180.5" font-family="Helvetica,sans-Serif" font-size="10.00">+ getValue()</text>
<text text-anchor="start" x="8" y="-1169.5" font-family="Helvetica,sans-Serif" font-size="10.00">+ setValue()</text>
<text text-anchor="start" x="8" y="-1158.5" font-family="Helvetica,sans-Serif" font-size="10.00">+ operator int()</text>
<text text-anchor="start" x="8" y="-1147.5" font-family="Helvetica,sans-Serif" font-size="10.00">+ operator=()</text>
<text text-anchor="start" x="8" y="-1136.5" font-family="Helvetica,sans-Serif" font-size="10.00">+ operator++()</text>
<text text-anchor="start" x="8" y="-1125.5" font-family="Helvetica,sans-Serif" font-size="10.00">+ operator&#45;&#45;()</text>
<text text-anchor="start" x="8" y="-1114.5" font-family="Helvetica,sans-Serif" font-size="10.00">+ operator+()</text>
<text text-anchor="start" x="8" y="-1103.5" font-family="Helvetica,sans-Serif" font-size="10.00">+ operator+()</text>
<text text-anchor="start" x="8" y="-1092.5" font-family="Helvetica,sans-Serif" font-size="10.00">+ operator&#45;()</text>
<text text-anchor="start" x="8" y="-1081.5" font-family="Helvetica,sans-Serif" font-size="10.00">+ operator&#45;()</text>
<text text-anchor="start" x="8" y="-1070.5" font-family="Helvetica,sans-Serif" font-size="10.00">+ operator==()</text>
<text text-anchor="start" x="8" y="-1059.5" font-family="Helvetica,sans-Serif" font-size="10.00">+ operator==()</text>
<text text-anchor="start" x="8" y="-1048.5" font-family="Helvetica,sans-Serif" font-size="10.00">+ operator!=()</text>
<text text-anchor="start" x="8" y="-1037.5" font-family="Helvetica,sans-Serif" font-size="10.00">+ operator!=()</text>
<text text-anchor="start" x="8" y="-1026.5" font-family="Helvetica,sans-Serif" font-size="10.00">+ operator&lt;()</text>
<text text-anchor="start" x="8" y="-1015.5" font-family="Helvetica,sans-Serif" font-size="10.00">+ operator&lt;()</text>
<text text-anchor="start" x="8" y="-1004.5" font-family="Helvetica,sans-Serif" font-size="10.00">+ operator&lt;=()</text>
<text text-anchor="start" x="8" y="-993.5" font-family="Helvetica,sans-Serif" font-size="10.00">+ operator&lt;=()</text>
<text text-anchor="start" x="8" y="-982.5" font-family="Helvetica,sans-Serif" font-size="10.00">+ operator&gt;()</text>
<text text-anchor="start" x="8" y="-971.5" font-family="Helvetica,sans-Serif" font-size="10.00">+ operator&gt;()</text>
<text text-anchor="start" x="8" y="-960.5" font-family="Helvetica,sans-Serif" font-size="10.00">+ operator&gt;=()</text>
<text text-anchor="start" x="8" y="-949.5" font-family="Helvetica,sans-Serif" font-size="10.00">+ operator&gt;=()</text>
<text text-anchor="start" x="8" y="-938.5" font-family="Helvetica,sans-Serif" font-size="10.00">+ Invalid()</text>
<text text-anchor="start" x="8" y="-927.5" font-family="Helvetica,sans-Serif" font-size="10.00">+ Max()</text>
</a>
</g>
</g>
<!-- Node4&#45;&gt;Node3 -->
<g id="edge3" class="edge"><title>Node4&#45;&gt;Node3</title>
<path fill="none" stroke="#404040" d="M44.5648,-920.384C48.3662,-902.255 53.6882,-884.48 61,-868 63.2052,-863.03 66.0344,-858.224 69.2394,-853.653"/>
<polygon fill="none" stroke="#404040" points="69.3626,-853.496 69.9118,-846.305 76.7601,-844.047 76.2109,-851.237 69.3626,-853.496"/>
<text text-anchor="middle" x="85.5" y="-882.5" font-family="Helvetica,sans-Serif" font-size="10.00"> +elements</text>
</g>
<!-- Node5 -->
<g id="node5" class="node"><title>Node5</title>
<polygon fill="white" stroke="#bfbfbf" points="28.5,-1334.5 28.5,-1391.5 57.5,-1391.5 57.5,-1334.5 28.5,-1334.5"/>
<text text-anchor="middle" x="43" y="-1379.5" font-family="Helvetica,sans-Serif" font-size="10.00">int</text>
<polyline fill="none" stroke="#bfbfbf" points="28.5,-1372.5 57.5,-1372.5 "/>
<text text-anchor="middle" x="43" y="-1360.5" font-family="Helvetica,sans-Serif" font-size="10.00"> </text>
<polyline fill="none" stroke="#bfbfbf" points="28.5,-1353.5 57.5,-1353.5 "/>
<text text-anchor="middle" x="43" y="-1341.5" font-family="Helvetica,sans-Serif" font-size="10.00"> </text>
</g>
<!-- Node5&#45;&gt;Node4 -->
<g id="edge4" class="edge"><title>Node5&#45;&gt;Node4</title>
<path fill="none" stroke="#404040" d="M43,-1334.39C43,-1324.23 43,-1311.82 43,-1298.06"/>
<polygon fill="none" stroke="#404040" points="43.0001,-1297.65 39,-1291.65 43,-1285.65 47,-1291.65 43.0001,-1297.65"/>
<text text-anchor="middle" x="60.5" y="-1307.5" font-family="Helvetica,sans-Serif" font-size="10.00"> #m_idx</text>
</g>
<!-- Node6 -->
<g id="node6" class="node"><title>Node6</title>
<g id="a_node6"><a xlink:title="STL class. ">
<polygon fill="white" stroke="#bfbfbf" points="135.5,-1074.5 135.5,-1131.5 222.5,-1131.5 222.5,-1074.5 135.5,-1074.5"/>
<text text-anchor="middle" x="179" y="-1119.5" font-family="Helvetica,sans-Serif" font-size="10.00">std::vector&lt; T &gt;</text>
<polyline fill="none" stroke="#bfbfbf" points="135.5,-1112.5 222.5,-1112.5 "/>
<text text-anchor="middle" x="179" y="-1100.5" font-family="Helvetica,sans-Serif" font-size="10.00"> </text>
<polyline fill="none" stroke="#bfbfbf" points="135.5,-1093.5 222.5,-1093.5 "/>
<text text-anchor="middle" x="179" y="-1081.5" font-family="Helvetica,sans-Serif" font-size="10.00"> </text>
</a>
</g>
</g>
<!-- Node6&#45;&gt;Node3 -->
<g id="edge5" class="edge"><title>Node6&#45;&gt;Node3</title>
<path fill="none" stroke="orange" d="M163.714,-1064.98C148.246,-1025.43 125.324,-960.495 116,-902 112.966,-882.965 112.596,-861.405 113.041,-844.051"/>
<polygon fill="orange" stroke="orange" points="160.536,-1066.47 167.473,-1074.47 167.044,-1063.89 160.536,-1066.47"/>
<text text-anchor="middle" x="152.5" y="-882.5" font-family="Helvetica,sans-Serif" font-size="10.00"> &lt; Core::Index &gt;</text>
</g>
<!-- Node9 -->
<g id="node9" class="node"><title>Node9</title>
<polygon fill="white" stroke="#bfbfbf" points="225.5,-770.5 225.5,-849.5 384.5,-849.5 384.5,-770.5 225.5,-770.5"/>
<text text-anchor="start" x="233.5" y="-837.5" font-family="Helvetica,sans-Serif" font-size="10.00">std::vector&lt; std::pair</text>
<text text-anchor="start" x="233.5" y="-826.5" font-family="Helvetica,sans-Serif" font-size="10.00">&lt; const Ra::Engine::Entity</text>
<text text-anchor="middle" x="305" y="-815.5" font-family="Helvetica,sans-Serif" font-size="10.00"> *, Ra::Engine::Component * &gt; &gt;</text>
<polyline fill="none" stroke="#bfbfbf" points="225.5,-808.5 384.5,-808.5 "/>
<text text-anchor="middle" x="305" y="-796.5" font-family="Helvetica,sans-Serif" font-size="10.00"> </text>
<polyline fill="none" stroke="#bfbfbf" points="225.5,-789.5 384.5,-789.5 "/>
<text text-anchor="middle" x="305" y="-777.5" font-family="Helvetica,sans-Serif" font-size="10.00"> </text>
</g>
<!-- Node6&#45;&gt;Node9 -->
<g id="edge10" class="edge"><title>Node6&#45;&gt;Node9</title>
<path fill="none" stroke="orange" d="M174.032,-1064.26C169.548,-1014.92 168.728,-927.758 208,-868 212.72,-860.818 218.683,-854.421 225.322,-848.751"/>
<polygon fill="orange" stroke="orange" points="170.577,-1064.88 175.063,-1074.48 177.542,-1064.18 170.577,-1064.88"/>
<text text-anchor="start" x="208" y="-893.5" font-family="Helvetica,sans-Serif" font-size="10.00"> &lt; std::pair&lt; const</text>
<text text-anchor="start" x="208" y="-882.5" font-family="Helvetica,sans-Serif" font-size="10.00"> Ra::Engine::Entity</text>
<text text-anchor="middle" x="279.5" y="-871.5" font-family="Helvetica,sans-Serif" font-size="10.00"> *, Ra::Engine::Component * &gt; &gt;</text>
</g>
<!-- Node7 -->
<g id="node7" class="node"><title>Node7</title>
<polygon fill="white" stroke="#bfbfbf" points="164.5,-1334.5 164.5,-1391.5 193.5,-1391.5 193.5,-1334.5 164.5,-1334.5"/>
<text text-anchor="middle" x="179" y="-1379.5" font-family="Helvetica,sans-Serif" font-size="10.00">T</text>
<polyline fill="none" stroke="#bfbfbf" points="164.5,-1372.5 193.5,-1372.5 "/>
<text text-anchor="middle" x="179" y="-1360.5" font-family="Helvetica,sans-Serif" font-size="10.00"> </text>
<polyline fill="none" stroke="#bfbfbf" points="164.5,-1353.5 193.5,-1353.5 "/>
<text text-anchor="middle" x="179" y="-1341.5" font-family="Helvetica,sans-Serif" font-size="10.00"> </text>
</g>
<!-- Node7&#45;&gt;Node6 -->
<g id="edge6" class="edge"><title>Node7&#45;&gt;Node6</title>
<path fill="none" stroke="#404040" d="M179,-1334.39C179,-1288.63 179,-1196.91 179,-1144.04"/>
<polygon fill="none" stroke="#404040" points="179,-1143.8 175,-1137.8 179,-1131.8 183,-1137.8 179,-1143.8"/>
<text text-anchor="middle" x="203.5" y="-1307.5" font-family="Helvetica,sans-Serif" font-size="10.00"> +elements</text>
</g>
<!-- Node8 -->
<g id="node8" class="node"><title>Node8</title>
<g id="a_node8"><a xlink:href="classRa_1_1Engine_1_1System.html" target="_top" xlink:title="Systems are responsible of updating a specific subset of the components of each entity. ">
<polygon fill="white" stroke="black" points="236.5,-532 236.5,-666 377.5,-666 377.5,-532 236.5,-532"/>
<text text-anchor="middle" x="307" y="-654" font-family="Helvetica,sans-Serif" font-size="10.00">Ra::Engine::System</text>
<polyline fill="none" stroke="black" points="236.5,-647 377.5,-647 "/>
<text text-anchor="middle" x="307" y="-635" font-family="Helvetica,sans-Serif" font-size="10.00"> </text>
<polyline fill="none" stroke="black" points="236.5,-628 377.5,-628 "/>
<text text-anchor="start" x="244.5" y="-616" font-family="Helvetica,sans-Serif" font-size="10.00">+ System()</text>
<text text-anchor="start" x="244.5" y="-605" font-family="Helvetica,sans-Serif" font-size="10.00">+ ~System()</text>
<text text-anchor="start" x="244.5" y="-594" font-family="Helvetica,sans-Serif" font-size="10.00">+ generateTasks()</text>
<text text-anchor="start" x="244.5" y="-583" font-family="Helvetica,sans-Serif" font-size="10.00">+ registerComponent()</text>
<text text-anchor="start" x="244.5" y="-572" font-family="Helvetica,sans-Serif" font-size="10.00">+ unregisterComponent()</text>
<text text-anchor="start" x="244.5" y="-561" font-family="Helvetica,sans-Serif" font-size="10.00">+ unregisterAllComponents()</text>
<text text-anchor="start" x="244.5" y="-550" font-family="Helvetica,sans-Serif" font-size="10.00">+ getEntityComponents()</text>
<text text-anchor="start" x="244.5" y="-539" font-family="Helvetica,sans-Serif" font-size="10.00">+ handleAssetLoading()</text>
</a>
</g>
</g>
<!-- Node8&#45;&gt;Node2 -->
<g id="edge7" class="edge"><title>Node8&#45;&gt;Node2</title>
<path fill="none" stroke="#404040" d="M336.265,-531.72C349.279,-502.36 364.831,-467.424 379,-436 380.174,-433.395 381.364,-430.762 382.564,-428.108"/>
<polygon fill="none" stroke="#404040" points="382.599,-428.029 381.431,-420.913 387.55,-417.098 388.718,-424.214 382.599,-428.029"/>
<text text-anchor="middle" x="406.5" y="-444.5" font-family="Helvetica,sans-Serif" font-size="10.00"> #m_system</text>
</g>
<!-- Node9&#45;&gt;Node8 -->
<g id="edge8" class="edge"><title>Node9&#45;&gt;Node8</title>
<path fill="none" stroke="#404040" d="M305.371,-770.179C305.618,-744.437 305.95,-709.755 306.25,-678.416"/>
<polygon fill="none" stroke="#404040" points="306.252,-678.141 302.31,-672.103 306.367,-666.141 310.309,-672.179 306.252,-678.141"/>
<text text-anchor="middle" x="344" y="-743.5" font-family="Helvetica,sans-Serif" font-size="10.00"> #m_components</text>
</g>
<!-- Node10 -->
<g id="node10" class="node"><title>Node10</title>
<polygon fill="white" stroke="#bfbfbf" points="318.5,-1063.5 318.5,-1142.5 435.5,-1142.5 435.5,-1063.5 318.5,-1063.5"/>
<text text-anchor="start" x="326.5" y="-1130.5" font-family="Helvetica,sans-Serif" font-size="10.00">pair&lt; const Ra::Engine</text>
<text text-anchor="start" x="326.5" y="-1119.5" font-family="Helvetica,sans-Serif" font-size="10.00">::Entity *, Ra::Engine</text>
<text text-anchor="middle" x="377" y="-1108.5" font-family="Helvetica,sans-Serif" font-size="10.00">::Component * &gt;</text>
<polyline fill="none" stroke="#bfbfbf" points="318.5,-1101.5 435.5,-1101.5 "/>
<text text-anchor="middle" x="377" y="-1089.5" font-family="Helvetica,sans-Serif" font-size="10.00"> </text>
<polyline fill="none" stroke="#bfbfbf" points="318.5,-1082.5 435.5,-1082.5 "/>
<text text-anchor="middle" x="377" y="-1070.5" font-family="Helvetica,sans-Serif" font-size="10.00"> </text>
</g>
<!-- Node10&#45;&gt;Node9 -->
<g id="edge9" class="edge"><title>Node10&#45;&gt;Node9</title>
<path fill="none" stroke="#404040" d="M380.444,-1063.35C383.157,-1015.44 382.696,-932.265 355,-868 353.792,-865.197 352.393,-862.434 350.846,-859.727"/>
<polygon fill="none" stroke="#404040" points="350.798,-859.652 344.172,-856.807 344.249,-849.596 350.876,-852.441 350.798,-859.652"/>
<text text-anchor="middle" x="390.5" y="-882.5" font-family="Helvetica,sans-Serif" font-size="10.00"> +elements</text>
</g>
<!-- Node11 -->
<g id="node11" class="node"><title>Node11</title>
<g id="a_node11"><a xlink:href="classRa_1_1Engine_1_1Entity.html" target="_top" xlink:title="An entity is an scene element. It ties together components with a transform. ">
<polygon fill="white" stroke="black" points="395.5,-477 395.5,-721 526.5,-721 526.5,-477 395.5,-477"/>
<text text-anchor="middle" x="461" y="-709" font-family="Helvetica,sans-Serif" font-size="10.00">Ra::Engine::Entity</text>
<polyline fill="none" stroke="black" points="395.5,-702 526.5,-702 "/>
<text text-anchor="middle" x="461" y="-690" font-family="Helvetica,sans-Serif" font-size="10.00"> </text>
<polyline fill="none" stroke="black" points="395.5,-683 526.5,-683 "/>
<text text-anchor="start" x="403.5" y="-671" font-family="Helvetica,sans-Serif" font-size="10.00">+ Entity()</text>
<text text-anchor="start" x="403.5" y="-660" font-family="Helvetica,sans-Serif" font-size="10.00">+ Entity()</text>
<text text-anchor="start" x="403.5" y="-649" font-family="Helvetica,sans-Serif" font-size="10.00">+ operator=()</text>
<text text-anchor="start" x="403.5" y="-638" font-family="Helvetica,sans-Serif" font-size="10.00">+ ~Entity()</text>
<text text-anchor="start" x="403.5" y="-627" font-family="Helvetica,sans-Serif" font-size="10.00">+ getName()</text>
<text text-anchor="start" x="403.5" y="-616" font-family="Helvetica,sans-Serif" font-size="10.00">+ rename()</text>
<text text-anchor="start" x="403.5" y="-605" font-family="Helvetica,sans-Serif" font-size="10.00">+ setTransform()</text>
<text text-anchor="start" x="403.5" y="-594" font-family="Helvetica,sans-Serif" font-size="10.00">+ setTransform()</text>
<text text-anchor="start" x="403.5" y="-583" font-family="Helvetica,sans-Serif" font-size="10.00">+ getTransform()</text>
<text text-anchor="start" x="403.5" y="-572" font-family="Helvetica,sans-Serif" font-size="10.00">+ getTransformAsMatrix()</text>
<text text-anchor="start" x="403.5" y="-561" font-family="Helvetica,sans-Serif" font-size="10.00">+ swapTransformBuffers()</text>
<text text-anchor="start" x="403.5" y="-550" font-family="Helvetica,sans-Serif" font-size="10.00">+ addComponent()</text>
<text text-anchor="start" x="403.5" y="-539" font-family="Helvetica,sans-Serif" font-size="10.00">+ removeComponent()</text>
<text text-anchor="start" x="403.5" y="-528" font-family="Helvetica,sans-Serif" font-size="10.00">+ getComponent()</text>
<text text-anchor="start" x="403.5" y="-517" font-family="Helvetica,sans-Serif" font-size="10.00">+ getComponent()</text>
<text text-anchor="start" x="403.5" y="-506" font-family="Helvetica,sans-Serif" font-size="10.00">+ getComponents()</text>
<text text-anchor="start" x="403.5" y="-495" font-family="Helvetica,sans-Serif" font-size="10.00">+ getNumComponents()</text>
<text text-anchor="start" x="403.5" y="-484" font-family="Helvetica,sans-Serif" font-size="10.00">+ rayCastQuery()</text>
</a>
</g>
</g>
<!-- Node11&#45;&gt;Node2 -->
<g id="edge11" class="edge"><title>Node11&#45;&gt;Node2</title>
<path fill="none" stroke="#404040" d="M440.808,-476.72C440.111,-470.399 439.499,-464.131 439,-458 438.245,-448.722 437.679,-439.113 437.266,-429.443"/>
<polygon fill="none" stroke="#404040" points="437.257,-429.174 433.042,-423.323 436.822,-417.182 441.037,-423.033 437.257,-429.174"/>
<text text-anchor="middle" x="462" y="-444.5" font-family="Helvetica,sans-Serif" font-size="10.00"> #m_entity</text>
</g>
<!-- Node12 -->
<g id="node12" class="node"><title>Node12</title>
<g id="a_node12"><a xlink:href="classRa_1_1Core_1_1IndexedObject.html" target="_top" xlink:title="{Ra::Core::IndexedObject\n||+ IndexedObject()\l+ IndexedObject()\l+ ~IndexedObject()\l}">
<polygon fill="white" stroke="black" points="402.5,-770.5 402.5,-849.5 527.5,-849.5 527.5,-770.5 402.5,-770.5"/>
<text text-anchor="middle" x="465" y="-837.5" font-family="Helvetica,sans-Serif" font-size="10.00">Ra::Core::IndexedObject</text>
<polyline fill="none" stroke="black" points="402.5,-830.5 527.5,-830.5 "/>
<text text-anchor="middle" x="465" y="-818.5" font-family="Helvetica,sans-Serif" font-size="10.00"> </text>
<polyline fill="none" stroke="black" points="402.5,-811.5 527.5,-811.5 "/>
<text text-anchor="start" x="410.5" y="-799.5" font-family="Helvetica,sans-Serif" font-size="10.00">+ IndexedObject()</text>
<text text-anchor="start" x="410.5" y="-788.5" font-family="Helvetica,sans-Serif" font-size="10.00">+ IndexedObject()</text>
<text text-anchor="start" x="410.5" y="-777.5" font-family="Helvetica,sans-Serif" font-size="10.00">+ ~IndexedObject()</text>
</a>
</g>
</g>
<!-- Node12&#45;&gt;Node11 -->
<g id="edge12" class="edge"><title>Node12&#45;&gt;Node11</title>
<path fill="none" stroke="midnightblue" d="M464.064,-760.07C463.835,-748.141 463.581,-734.849 463.319,-721.166"/>
<polygon fill="none" stroke="midnightblue" points="460.566,-760.247 464.257,-770.179 467.565,-760.113 460.566,-760.247"/>
</g>
<!-- Node13 -->
<g id="node13" class="node"><title>Node13</title>
<polygon fill="white" stroke="#bfbfbf" points="454,-1074.5 454,-1131.5 486,-1131.5 486,-1074.5 454,-1074.5"/>
<text text-anchor="middle" x="470" y="-1119.5" font-family="Helvetica,sans-Serif" font-size="10.00">uint</text>
<polyline fill="none" stroke="#bfbfbf" points="454,-1112.5 486,-1112.5 "/>
<text text-anchor="middle" x="470" y="-1100.5" font-family="Helvetica,sans-Serif" font-size="10.00"> </text>
<polyline fill="none" stroke="#bfbfbf" points="454,-1093.5 486,-1093.5 "/>
<text text-anchor="middle" x="470" y="-1081.5" font-family="Helvetica,sans-Serif" font-size="10.00"> </text>
</g>
<!-- Node13&#45;&gt;Node12 -->
<g id="edge13" class="edge"><title>Node13&#45;&gt;Node12</title>
<path fill="none" stroke="#404040" d="M469.525,-1074.36C468.688,-1025.65 466.939,-923.836 465.877,-862.046"/>
<polygon fill="none" stroke="#404040" points="465.874,-861.874 461.772,-855.944 465.668,-849.876 469.771,-855.806 465.874,-861.874"/>
<text text-anchor="middle" x="478" y="-882.5" font-family="Helvetica,sans-Serif" font-size="10.00"> +idx</text>
</g>
<!-- Node14 -->
<g id="node14" class="node"><title>Node14</title>
<g id="a_node14"><a xlink:title="STL class. ">
<polygon fill="white" stroke="#bfbfbf" points="555,-570.5 555,-627.5 615,-627.5 615,-570.5 555,-570.5"/>
<text text-anchor="middle" x="585" y="-615.5" font-family="Helvetica,sans-Serif" font-size="10.00">std::string</text>
<polyline fill="none" stroke="#bfbfbf" points="555,-608.5 615,-608.5 "/>
<text text-anchor="middle" x="585" y="-596.5" font-family="Helvetica,sans-Serif" font-size="10.00"> </text>
<polyline fill="none" stroke="#bfbfbf" points="555,-589.5 615,-589.5 "/>
<text text-anchor="middle" x="585" y="-577.5" font-family="Helvetica,sans-Serif" font-size="10.00"> </text>
</a>
</g>
</g>
<!-- Node14&#45;&gt;Node1 -->
<g id="edge19" class="edge"><title>Node14&#45;&gt;Node1</title>
<path fill="none" stroke="#404040" d="M581.46,-570.363C571.711,-490.601 547.104,-261.417 577,-194 589.324,-166.21 611.216,-141.969 633.984,-122.419"/>
<polygon fill="none" stroke="#404040" points="634.177,-122.26 636.249,-115.353 643.422,-114.609 641.349,-121.516 634.177,-122.26"/>
<text text-anchor="middle" x="601.5" y="-303.5" font-family="Helvetica,sans-Serif" font-size="10.00"> #m_dataId</text>
</g>
<!-- Node14&#45;&gt;Node2 -->
<g id="edge14" class="edge"><title>Node14&#45;&gt;Node2</title>
<path fill="none" stroke="#404040" d="M578.699,-570.357C571.584,-543.901 557.906,-503.988 535,-476 525.866,-464.839 517.384,-468.952 508,-458 500.093,-448.771 492.894,-438.499 486.385,-427.776"/>
<polygon fill="none" stroke="#404040" points="486.374,-427.757 479.904,-424.573 480.355,-417.376 486.825,-420.56 486.374,-427.757"/>
<text text-anchor="middle" x="531" y="-444.5" font-family="Helvetica,sans-Serif" font-size="10.00"> #m_name</text>
</g>
<!-- Node17 -->
<g id="node17" class="node"><title>Node17</title>
<g id="a_node17"><a xlink:href="classRa_1_1Engine_1_1ShaderConfiguration.html" target="_top" xlink:title="{Ra::Engine::ShaderConfiguration\n||+ ShaderConfiguration()\l+ ShaderConfiguration()\l+ ShaderConfiguration()\l+ addShader()\l+ addProperty()\l+ addProperties()\l+ removeProperty()\l+ addInclude()\l+ addIncludes()\l+ removeInclude()\l+ isComplete()\l+ operator\&lt;()\l+ getProperties()\l+ getIncludes()\l+ getDefaultShaderConfig()\l}">
<polygon fill="white" stroke="black" points="635,-200.5 635,-411.5 795,-411.5 795,-200.5 635,-200.5"/>
<text text-anchor="middle" x="715" y="-399.5" font-family="Helvetica,sans-Serif" font-size="10.00">Ra::Engine::ShaderConfiguration</text>
<polyline fill="none" stroke="black" points="635,-392.5 795,-392.5 "/>
<text text-anchor="middle" x="715" y="-380.5" font-family="Helvetica,sans-Serif" font-size="10.00"> </text>
<polyline fill="none" stroke="black" points="635,-373.5 795,-373.5 "/>
<text text-anchor="start" x="643" y="-361.5" font-family="Helvetica,sans-Serif" font-size="10.00">+ ShaderConfiguration()</text>
<text text-anchor="start" x="643" y="-350.5" font-family="Helvetica,sans-Serif" font-size="10.00">+ ShaderConfiguration()</text>
<text text-anchor="start" x="643" y="-339.5" font-family="Helvetica,sans-Serif" font-size="10.00">+ ShaderConfiguration()</text>
<text text-anchor="start" x="643" y="-328.5" font-family="Helvetica,sans-Serif" font-size="10.00">+ addShader()</text>
<text text-anchor="start" x="643" y="-317.5" font-family="Helvetica,sans-Serif" font-size="10.00">+ addProperty()</text>
<text text-anchor="start" x="643" y="-306.5" font-family="Helvetica,sans-Serif" font-size="10.00">+ addProperties()</text>
<text text-anchor="start" x="643" y="-295.5" font-family="Helvetica,sans-Serif" font-size="10.00">+ removeProperty()</text>
<text text-anchor="start" x="643" y="-284.5" font-family="Helvetica,sans-Serif" font-size="10.00">+ addInclude()</text>
<text text-anchor="start" x="643" y="-273.5" font-family="Helvetica,sans-Serif" font-size="10.00">+ addIncludes()</text>
<text text-anchor="start" x="643" y="-262.5" font-family="Helvetica,sans-Serif" font-size="10.00">+ removeInclude()</text>
<text text-anchor="start" x="643" y="-251.5" font-family="Helvetica,sans-Serif" font-size="10.00">+ isComplete()</text>
<text text-anchor="start" x="643" y="-240.5" font-family="Helvetica,sans-Serif" font-size="10.00">+ operator&lt;()</text>
<text text-anchor="start" x="643" y="-229.5" font-family="Helvetica,sans-Serif" font-size="10.00">+ getProperties()</text>
<text text-anchor="start" x="643" y="-218.5" font-family="Helvetica,sans-Serif" font-size="10.00">+ getIncludes()</text>
<text text-anchor="start" x="643" y="-207.5" font-family="Helvetica,sans-Serif" font-size="10.00">+ getDefaultShaderConfig()</text>
</a>
</g>
</g>
<!-- Node14&#45;&gt;Node17 -->
<g id="edge18" class="edge"><title>Node14&#45;&gt;Node17</title>
<path fill="none" stroke="#404040" d="M597.347,-570.361C612.497,-536.449 639.144,-476.8 663.252,-422.836"/>
<polygon fill="none" stroke="#404040" points="663.299,-422.73 662.094,-415.62 668.194,-411.774 669.399,-418.884 663.299,-422.73"/>
<text text-anchor="middle" x="681.5" y="-450" font-family="Helvetica,sans-Serif" font-size="10.00"> +m_version</text>
<text text-anchor="middle" x="681.5" y="-439" font-family="Helvetica,sans-Serif" font-size="10.00">+m_name</text>
</g>
<!-- Node15 -->
<g id="node15" class="node"><title>Node15</title>
<g id="a_node15"><a xlink:title="STL class. ">
<polygon fill="white" stroke="#bfbfbf" points="545.5,-776 545.5,-844 640.5,-844 640.5,-776 545.5,-776"/>
<text text-anchor="start" x="553.5" y="-832" font-family="Helvetica,sans-Serif" font-size="10.00">std::basic_string&lt;</text>
<text text-anchor="middle" x="593" y="-821" font-family="Helvetica,sans-Serif" font-size="10.00"> char &gt;</text>
<polyline fill="none" stroke="#bfbfbf" points="545.5,-814 640.5,-814 "/>
<text text-anchor="middle" x="593" y="-802" font-family="Helvetica,sans-Serif" font-size="10.00"> </text>
<polyline fill="none" stroke="#bfbfbf" points="545.5,-795 640.5,-795 "/>
<text text-anchor="middle" x="593" y="-783" font-family="Helvetica,sans-Serif" font-size="10.00"> </text>
</a>
</g>
</g>
<!-- Node15&#45;&gt;Node14 -->
<g id="edge15" class="edge"><title>Node15&#45;&gt;Node14</title>
<path fill="none" stroke="midnightblue" d="M591.346,-765.794C589.758,-724.309 587.407,-662.892 586.057,-627.622"/>
<polygon fill="none" stroke="midnightblue" points="587.852,-766.025 591.732,-775.883 594.847,-765.757 587.852,-766.025"/>
</g>
<!-- Node16 -->
<g id="node16" class="node"><title>Node16</title>
<polygon fill="white" stroke="#bfbfbf" points="813,-277.5 813,-334.5 933,-334.5 933,-277.5 813,-277.5"/>
<text text-anchor="middle" x="873" y="-322.5" font-family="Helvetica,sans-Serif" font-size="10.00">VectorArray&lt; Vector4 &gt;</text>
<polyline fill="none" stroke="#bfbfbf" points="813,-315.5 933,-315.5 "/>
<text text-anchor="middle" x="873" y="-303.5" font-family="Helvetica,sans-Serif" font-size="10.00"> </text>
<polyline fill="none" stroke="#bfbfbf" points="813,-296.5 933,-296.5 "/>
<text text-anchor="middle" x="873" y="-284.5" font-family="Helvetica,sans-Serif" font-size="10.00"> </text>
</g>
<!-- Node16&#45;&gt;Node1 -->
<g id="edge16" class="edge"><title>Node16&#45;&gt;Node1</title>
<path fill="none" stroke="#404040" d="M860.426,-277.427C845.682,-246.27 819.597,-194.611 791,-154 788.847,-150.943 786.598,-147.873 784.279,-144.811"/>
<polygon fill="none" stroke="#404040" points="784.058,-144.529 777.21,-142.267 776.665,-135.076 783.512,-137.338 784.058,-144.529"/>
<text text-anchor="middle" x="840" y="-168" font-family="Helvetica,sans-Serif" font-size="10.00"> #m_baseColors</text>
<text text-anchor="middle" x="840" y="-157" font-family="Helvetica,sans-Serif" font-size="10.00">#m_paintColors</text>
</g>
<!-- Node17&#45;&gt;Node1 -->
<g id="edge17" class="edge"><title>Node17&#45;&gt;Node1</title>
<path fill="none" stroke="#404040" d="M715,-200.456C715,-182.598 715,-164.324 715,-147.297"/>
<polygon fill="none" stroke="#404040" points="715,-147.144 711,-141.144 715,-135.144 719,-141.144 715,-147.144"/>
<text text-anchor="middle" x="751" y="-162.5" font-family="Helvetica,sans-Serif" font-size="10.00"> #m_baseConfig</text>
</g>
<!-- Node18 -->
<g id="node18" class="node"><title>Node18</title>
<g id="a_node18"><a xlink:href="structRa_1_1Engine_1_1ComponentMessenger_1_1CallbackTypes.html" target="_top" xlink:title="{Ra::Engine::ComponentMessenger\l::CallbackTypes\&lt; Ra::Core\l::Index \&gt;\n||+ getHelper()\l}">
<polygon fill="white" stroke="black" points="951,-266.5 951,-345.5 1121,-345.5 1121,-266.5 951,-266.5"/>
<text text-anchor="start" x="959" y="-333.5" font-family="Helvetica,sans-Serif" font-size="10.00">Ra::Engine::ComponentMessenger</text>
<text text-anchor="start" x="959" y="-322.5" font-family="Helvetica,sans-Serif" font-size="10.00">::CallbackTypes&lt; Ra::Core</text>
<text text-anchor="middle" x="1036" y="-311.5" font-family="Helvetica,sans-Serif" font-size="10.00">::Index &gt;</text>
<polyline fill="none" stroke="black" points="951,-304.5 1121,-304.5 "/>
<text text-anchor="middle" x="1036" y="-292.5" font-family="Helvetica,sans-Serif" font-size="10.00"> </text>
<polyline fill="none" stroke="black" points="951,-285.5 1121,-285.5 "/>
<text text-anchor="start" x="959" y="-273.5" font-family="Helvetica,sans-Serif" font-size="10.00">+ getHelper()</text>
</a>
</g>
</g>
<!-- Node18&#45;&gt;Node1 -->
<g id="edge20" class="edge"><title>Node18&#45;&gt;Node1</title>
<path fill="none" stroke="#404040" d="M1007.4,-266.371C989.68,-243.85 965.659,-215.7 941,-194 898.554,-156.647 843.087,-125.763 797.727,-104.038"/>
<polygon fill="none" stroke="#404040" points="797.58,-103.969 790.448,-105.029 786.726,-98.8527 793.858,-97.7928 797.58,-103.969"/>
<text text-anchor="middle" x="968.5" y="-162.5" font-family="Helvetica,sans-Serif" font-size="10.00"> #m_renderObjectReader</text>
</g>
<!-- Node19 -->
<g id="node19" class="node"><title>Node19</title>
<g id="a_node19"><a xlink:href="structRa_1_1Engine_1_1ComponentMessenger_1_1CallbackTypes.html" target="_top" xlink:title="This describes the function pointers accepted for each type. ">
<polygon fill="white" stroke="black" points="951,-565 951,-633 1121,-633 1121,-565 951,-565"/>
<text text-anchor="start" x="959" y="-621" font-family="Helvetica,sans-Serif" font-size="10.00">Ra::Engine::ComponentMessenger</text>
<text text-anchor="middle" x="1036" y="-610" font-family="Helvetica,sans-Serif" font-size="10.00">::CallbackTypes&lt; T &gt;</text>
<polyline fill="none" stroke="black" points="951,-603 1121,-603 "/>
<text text-anchor="middle" x="1036" y="-591" font-family="Helvetica,sans-Serif" font-size="10.00"> </text>
<polyline fill="none" stroke="black" points="951,-584 1121,-584 "/>
<text text-anchor="start" x="959" y="-572" font-family="Helvetica,sans-Serif" font-size="10.00">+ getHelper()</text>
</a>
</g>
</g>
<!-- Node19&#45;&gt;Node18 -->
<g id="edge21" class="edge"><title>Node19&#45;&gt;Node18</title>
<path fill="none" stroke="orange" d="M1036,-554.843C1036,-498.254 1036,-399.827 1036,-345.598"/>
<polygon fill="orange" stroke="orange" points="1032.5,-554.902 1036,-564.902 1039.5,-554.902 1032.5,-554.902"/>
<text text-anchor="middle" x="1081.5" y="-444.5" font-family="Helvetica,sans-Serif" font-size="10.00"> &lt; Ra::Core::Index &gt;</text>
</g>
</g>
</svg>
