<?xml version="1.0" encoding="UTF-8" standalone="no"?>
<!DOCTYPE svg PUBLIC "-//W3C//DTD SVG 1.1//EN"
 "http://www.w3.org/Graphics/SVG/1.1/DTD/svg11.dtd">
<!-- Generated by graphviz version 2.36.0 (20140111.2315)
 -->
<!-- Title: Ra::Core::LoopSubdivider Pages: 1 -->
<svg width="150pt" height="260pt"
 viewBox="0.00 0.00 150.00 260.00" xmlns="http://www.w3.org/2000/svg" xmlns:xlink="http://www.w3.org/1999/xlink">
<g id="graph0" class="graph" transform="scale(1 1) rotate(0) translate(4 256)">
<title>Ra::Core::LoopSubdivider</title>
<polygon fill="white" stroke="none" points="-4,4 -4,-256 146,-256 146,4 -4,4"/>
<!-- Node1 -->
<g id="node1" class="node"><title>Node1</title>
<polygon fill="#bfbfbf" stroke="black" points="6.5,-1 6.5,-135 135.5,-135 135.5,-1 6.5,-1"/>
<text text-anchor="middle" x="71" y="-123" font-family="Helvetica,sans-Serif" font-size="10.00">Ra::Core::LoopSubdivider</text>
<polyline fill="none" stroke="black" points="6.5,-116 135.5,-116 "/>
<text text-anchor="middle" x="71" y="-104" font-family="Helvetica,sans-Serif" font-size="10.00"> </text>
<polyline fill="none" stroke="black" points="6.5,-97 135.5,-97 "/>
<text text-anchor="start" x="14.5" y="-85" font-family="Helvetica,sans-Serif" font-size="10.00">+ LoopSubdivider()</text>
<text text-anchor="start" x="14.5" y="-74" font-family="Helvetica,sans-Serif" font-size="10.00">+ LoopSubdivider()</text>
<text text-anchor="start" x="14.5" y="-63" font-family="Helvetica,sans-Serif" font-size="10.00">+ ~LoopSubdivider()</text>
<text text-anchor="start" x="14.5" y="-52" font-family="Helvetica,sans-Serif" font-size="10.00">+ name()</text>
<text text-anchor="start" x="14.5" y="-41" font-family="Helvetica,sans-Serif" font-size="10.00"># init_weights()</text>
<text text-anchor="start" x="14.5" y="-30" font-family="Helvetica,sans-Serif" font-size="10.00"># prepare()</text>
<text text-anchor="start" x="14.5" y="-19" font-family="Helvetica,sans-Serif" font-size="10.00"># cleanup()</text>
<text text-anchor="start" x="14.5" y="-8" font-family="Helvetica,sans-Serif" font-size="10.00"># subdivide()</text>
</g>
<!-- Node2 -->
<g id="node2" class="node"><title>Node2</title>
<polygon fill="white" stroke="#bfbfbf" points="0,-172.5 0,-251.5 142,-251.5 142,-172.5 0,-172.5"/>
<text text-anchor="start" x="8" y="-239.5" font-family="Helvetica,sans-Serif" font-size="10.00">OpenMesh::Subdivider</text>
<text text-anchor="start" x="8" y="-228.5" font-family="Helvetica,sans-Serif" font-size="10.00">::Uniform::SubdividerT</text>
<text text-anchor="middle" x="71" y="-217.5" font-family="Helvetica,sans-Serif" font-size="10.00">&lt; TopologicalMesh, Scalar &gt;</text>
<polyline fill="none" stroke="#bfbfbf" points="0,-210.5 142,-210.5 "/>
<text text-anchor="middle" x="71" y="-198.5" font-family="Helvetica,sans-Serif" font-size="10.00"> </text>
<polyline fill="none" stroke="#bfbfbf" points="0,-191.5 142,-191.5 "/>
<text text-anchor="middle" x="71" y="-179.5" font-family="Helvetica,sans-Serif" font-size="10.00"> </text>
</g>
<!-- Node2&#45;&gt;Node1 -->
<g id="edge1" class="edge"><title>Node2&#45;&gt;Node1</title>
<path fill="none" stroke="midnightblue" d="M71,-162.195C71,-153.448 71,-144.201 71,-135.063"/>
<polygon fill="none" stroke="midnightblue" points="67.5001,-162.198 71,-172.198 74.5001,-162.198 67.5001,-162.198"/>
</g>
</g>
</svg>
