<?xml version="1.0" encoding="UTF-8" standalone="no"?>
<!DOCTYPE svg PUBLIC "-//W3C//DTD SVG 1.1//EN"
 "http://www.w3.org/Graphics/SVG/1.1/DTD/svg11.dtd">
<!-- Generated by graphviz version 2.36.0 (20140111.2315)
 -->
<!-- Title: Ra::Engine::Component::rayCastQuery Pages: 1 -->
<svg width="786pt" height="340pt"
 viewBox="0.00 0.00 786.00 340.00" xmlns="http://www.w3.org/2000/svg" xmlns:xlink="http://www.w3.org/1999/xlink">
<g id="graph0" class="graph" transform="scale(1 1) rotate(0) translate(4 336)">
<title>Ra::Engine::Component::rayCastQuery</title>
<polygon fill="white" stroke="none" points="-4,4 -4,-336 782,-336 782,4 -4,4"/>
<!-- Node1 -->
<g id="node1" class="node"><title>Node1</title>
<polygon fill="#bfbfbf" stroke="black" points="0,-170 0,-200 122,-200 122,-170 0,-170"/>
<text text-anchor="start" x="8" y="-188" font-family="Helvetica,sans-Serif" font-size="10.00">Ra::Engine::Component</text>
<text text-anchor="middle" x="61" y="-177" font-family="Helvetica,sans-Serif" font-size="10.00">::rayCastQuery</text>
</g>
<!-- Node2 -->
<g id="node2" class="node"><title>Node2</title>
<g id="a_node2"><a xlink:href="classRa_1_1Engine_1_1Component.html#a10b0bc182b76165744ebea603ae32dfe" target="_top" xlink:title="Shortcut to access the render object manager. ">
<polygon fill="white" stroke="black" points="164,-302 164,-332 286,-332 286,-302 164,-302"/>
<text text-anchor="start" x="172" y="-320" font-family="Helvetica,sans-Serif" font-size="10.00">Ra::Engine::Component</text>
<text text-anchor="middle" x="225" y="-309" font-family="Helvetica,sans-Serif" font-size="10.00">::getRoMgr</text>
</a>
</g>
</g>
<!-- Node1&#45;&gt;Node2 -->
<g id="edge1" class="edge"><title>Node1&#45;&gt;Node2</title>
<path fill="none" stroke="midnightblue" d="M72.035,-200.216C87.8175,-223.074 120.532,-266.322 158,-292 160.729,-293.87 163.616,-295.624 166.599,-297.265"/>
<polygon fill="midnightblue" stroke="midnightblue" points="165.257,-300.507 175.765,-301.854 168.39,-294.248 165.257,-300.507"/>
</g>
<!-- Node3 -->
<g id="node3" class="node"><title>Node3</title>
<g id="a_node3"><a xlink:href="classRa_1_1Engine_1_1RenderObjectManager.html#a32bd0db0d9620bb7e3f0fe50b541dae3" target="_top" xlink:title="Returns the render object corresponding to the given index. ">
<polygon fill="white" stroke="black" points="158,-253 158,-283 292,-283 292,-253 158,-253"/>
<text text-anchor="start" x="166" y="-271" font-family="Helvetica,sans-Serif" font-size="10.00">Ra::Engine::RenderObject</text>
<text text-anchor="middle" x="225" y="-260" font-family="Helvetica,sans-Serif" font-size="10.00">Manager::getRenderObject</text>
</a>
</g>
</g>
<!-- Node1&#45;&gt;Node3 -->
<g id="edge2" class="edge"><title>Node1&#45;&gt;Node3</title>
<path fill="none" stroke="midnightblue" d="M88.1912,-200.182C107.327,-211.096 134.013,-225.95 158,-238 165.117,-241.575 172.749,-245.216 180.205,-248.672"/>
<polygon fill="midnightblue" stroke="midnightblue" points="178.956,-251.949 189.505,-252.931 181.87,-245.585 178.956,-251.949"/>
</g>
<!-- Node6 -->
<g id="node6" class="node"><title>Node6</title>
<g id="a_node6"><a xlink:href="namespaceRa_1_1Core_1_1Algorithm.html#aea294cdb6f4f0d85955bdcccb22886ec" target="_top" xlink:title="Ra::Core::Algorithm::t">
<polygon fill="white" stroke="black" points="500.5,-192.5 500.5,-211.5 613.5,-211.5 613.5,-192.5 500.5,-192.5"/>
<text text-anchor="middle" x="557" y="-199.5" font-family="Helvetica,sans-Serif" font-size="10.00">Ra::Core::Algorithm::t</text>
</a>
</g>
</g>
<!-- Node1&#45;&gt;Node6 -->
<g id="edge5" class="edge"><title>Node1&#45;&gt;Node6</title>
<path fill="none" stroke="midnightblue" d="M122.161,-198.773C133.981,-200.949 146.333,-202.857 158,-204 274.49,-215.417 411.08,-210.849 490.165,-206.452"/>
<polygon fill="midnightblue" stroke="midnightblue" points="490.679,-209.928 500.462,-205.862 490.278,-202.94 490.679,-209.928"/>
</g>
<!-- Node7 -->
<g id="node7" class="node"><title>Node7</title>
<g id="a_node7"><a xlink:href="namespaceRa_1_1Core.html#ad84c3af3cd798fa8f6b7898a171a1d95" target="_top" xlink:title="Ra::Core::transformRay">
<polygon fill="white" stroke="black" points="164,-175.5 164,-194.5 286,-194.5 286,-175.5 164,-175.5"/>
<text text-anchor="middle" x="225" y="-182.5" font-family="Helvetica,sans-Serif" font-size="10.00">Ra::Core::transformRay</text>
</a>
</g>
</g>
<!-- Node1&#45;&gt;Node7 -->
<g id="edge6" class="edge"><title>Node1&#45;&gt;Node7</title>
<path fill="none" stroke="midnightblue" d="M122.323,-185C132.511,-185 143.166,-185 153.584,-185"/>
<polygon fill="midnightblue" stroke="midnightblue" points="153.897,-188.5 163.897,-185 153.897,-181.5 153.897,-188.5"/>
</g>
<!-- Node8 -->
<g id="node8" class="node"><title>Node8</title>
<g id="a_node8"><a xlink:href="namespaceRa_1_1Core_1_1MeshUtils.html#affdda6a050a1f4965a2df9d4699a601e" target="_top" xlink:title="Return the index of the triangle hit by the ray or &#45;1 if there&#39;s no hit. ">
<polygon fill="white" stroke="black" points="171.5,-123 171.5,-153 278.5,-153 278.5,-123 171.5,-123"/>
<text text-anchor="start" x="179.5" y="-141" font-family="Helvetica,sans-Serif" font-size="10.00">Ra::Core::MeshUtils</text>
<text text-anchor="middle" x="225" y="-130" font-family="Helvetica,sans-Serif" font-size="10.00">::castRay</text>
</a>
</g>
</g>
<!-- Node1&#45;&gt;Node8 -->
<g id="edge7" class="edge"><title>Node1&#45;&gt;Node8</title>
<path fill="none" stroke="midnightblue" d="M113.703,-170C129.193,-165.506 146.335,-160.532 162.396,-155.873"/>
<polygon fill="midnightblue" stroke="midnightblue" points="163.604,-159.167 172.232,-153.019 161.653,-152.444 163.604,-159.167"/>
</g>
<!-- Node16 -->
<g id="node16" class="node"><title>Node16</title>
<g id="a_node16"><a xlink:href="classRa_1_1Engine_1_1Component.html#a207c1dc2e97856c22e0767fb77162933" target="_top" xlink:title="Return the entity the component belongs to. ">
<polygon fill="white" stroke="black" points="164,-74 164,-104 286,-104 286,-74 164,-74"/>
<text text-anchor="start" x="172" y="-92" font-family="Helvetica,sans-Serif" font-size="10.00">Ra::Engine::Component</text>
<text text-anchor="middle" x="225" y="-81" font-family="Helvetica,sans-Serif" font-size="10.00">::getEntity</text>
</a>
</g>
</g>
<!-- Node1&#45;&gt;Node16 -->
<g id="edge17" class="edge"><title>Node1&#45;&gt;Node16</title>
<path fill="none" stroke="midnightblue" d="M79.4008,-169.817C97.9073,-154.244 128.52,-130.084 158,-114 161.751,-111.953 165.705,-110 169.737,-108.154"/>
<polygon fill="midnightblue" stroke="midnightblue" points="171.443,-111.229 179.228,-104.043 168.66,-104.806 171.443,-111.229"/>
</g>
<!-- Node17 -->
<g id="node17" class="node"><title>Node17</title>
<g id="a_node17"><a xlink:href="classRa_1_1Engine_1_1Entity.html#adf0ef19e4b56e1d213b9898b60fe0e74" target="_top" xlink:title="Ra::Engine::Entity\l::getTransform">
<polygon fill="white" stroke="black" points="176.5,-25 176.5,-55 273.5,-55 273.5,-25 176.5,-25"/>
<text text-anchor="start" x="184.5" y="-43" font-family="Helvetica,sans-Serif" font-size="10.00">Ra::Engine::Entity</text>
<text text-anchor="middle" x="225" y="-32" font-family="Helvetica,sans-Serif" font-size="10.00">::getTransform</text>
</a>
</g>
</g>
<!-- Node1&#45;&gt;Node17 -->
<g id="edge18" class="edge"><title>Node1&#45;&gt;Node17</title>
<path fill="none" stroke="midnightblue" d="M70.2965,-169.757C84.8456,-144.367 117.318,-93.3167 158,-64 160.856,-61.9417 163.908,-60.0425 167.074,-58.2925"/>
<polygon fill="midnightblue" stroke="midnightblue" points="168.833,-61.3273 176.236,-53.748 165.722,-55.0564 168.833,-61.3273"/>
</g>
<!-- Node4 -->
<g id="node4" class="node"><title>Node4</title>
<g id="a_node4"><a xlink:href="classRa_1_1Engine_1_1RenderObjectManager.html#a4077b9cf9e1e4d62fd5456386f2d72c8" target="_top" xlink:title="Returns true if the index points to a valid render object. ">
<polygon fill="white" stroke="black" points="328.5,-253 328.5,-283 459.5,-283 459.5,-253 328.5,-253"/>
<text text-anchor="start" x="336.5" y="-271" font-family="Helvetica,sans-Serif" font-size="10.00">Ra::Engine::RenderObject</text>
<text text-anchor="middle" x="394" y="-260" font-family="Helvetica,sans-Serif" font-size="10.00">Manager::exists</text>
</a>
</g>
</g>
<!-- Node3&#45;&gt;Node4 -->
<g id="edge3" class="edge"><title>Node3&#45;&gt;Node4</title>
<path fill="none" stroke="midnightblue" d="M292.003,-268C300.587,-268 309.43,-268 318.145,-268"/>
<polygon fill="midnightblue" stroke="midnightblue" points="318.295,-271.5 328.295,-268 318.295,-264.5 318.295,-271.5"/>
</g>
<!-- Node5 -->
<g id="node5" class="node"><title>Node5</title>
<g id="a_node5"><a xlink:href="classRa_1_1Core_1_1Index.html#a87c70243f30c65c1a24834d1829bda01" target="_top" xlink:title="DESTRUCTOR: Must not be defined, we need it trivial to be constexpr. ">
<polygon fill="white" stroke="black" points="496,-258.5 496,-277.5 618,-277.5 618,-258.5 496,-258.5"/>
<text text-anchor="middle" x="557" y="-265.5" font-family="Helvetica,sans-Serif" font-size="10.00">Ra::Core::Index::isValid</text>
</a>
</g>
</g>
<!-- Node4&#45;&gt;Node5 -->
<g id="edge4" class="edge"><title>Node4&#45;&gt;Node5</title>
<path fill="none" stroke="midnightblue" d="M459.557,-268C468.172,-268 477.04,-268 485.745,-268"/>
<polygon fill="midnightblue" stroke="midnightblue" points="485.865,-271.5 495.865,-268 485.865,-264.5 485.865,-271.5"/>
</g>
<!-- Node9 -->
<g id="node9" class="node"><title>Node9</title>
<g id="a_node9"><a xlink:href="classRa_1_1Core_1_1TriangleMesh.html#a495116f40cfec8bb6504698d786d4b8c" target="_top" xlink:title="Access the vertices positions. ">
<polygon fill="white" stroke="black" points="496.5,-99 496.5,-129 617.5,-129 617.5,-99 496.5,-99"/>
<text text-anchor="start" x="504.5" y="-117" font-family="Helvetica,sans-Serif" font-size="10.00">Ra::Core::TriangleMesh</text>
<text text-anchor="middle" x="557" y="-106" font-family="Helvetica,sans-Serif" font-size="10.00">::vertices</text>
</a>
</g>
</g>
<!-- Node8&#45;&gt;Node9 -->
<g id="edge8" class="edge"><title>Node8&#45;&gt;Node9</title>
<path fill="none" stroke="midnightblue" d="M278.654,-134.171C334.848,-130.084 424.149,-123.589 486.178,-119.078"/>
<polygon fill="midnightblue" stroke="midnightblue" points="486.554,-122.56 496.274,-118.344 486.046,-115.578 486.554,-122.56"/>
</g>
<!-- Node11 -->
<g id="node11" class="node"><title>Node11</title>
<g id="a_node11"><a xlink:href="namespaceRa_1_1Core_1_1MeshUtils.html#afbee0fe3203a295fb1f93b33dfb33f81" target="_top" xlink:title="Fills the given array with the vertices of a given triangle. ">
<polygon fill="white" stroke="black" points="340.5,-77 340.5,-107 447.5,-107 447.5,-77 340.5,-77"/>
<text text-anchor="start" x="348.5" y="-95" font-family="Helvetica,sans-Serif" font-size="10.00">Ra::Core::MeshUtils</text>
<text text-anchor="middle" x="394" y="-84" font-family="Helvetica,sans-Serif" font-size="10.00">::getTriangleVertices</text>
</a>
</g>
</g>
<!-- Node8&#45;&gt;Node11 -->
<g id="edge10" class="edge"><title>Node8&#45;&gt;Node11</title>
<path fill="none" stroke="midnightblue" d="M278.84,-123.445C295.215,-118.935 313.418,-113.921 330.39,-109.246"/>
<polygon fill="midnightblue" stroke="midnightblue" points="331.506,-112.569 340.217,-106.539 329.647,-105.82 331.506,-112.569"/>
</g>
<!-- Node12 -->
<g id="node12" class="node"><title>Node12</title>
<g id="a_node12"><a xlink:href="namespaceRa_1_1Core_1_1RayCast.html#a90fb56f813f6ee3ea0d8e95946b726b4" target="_top" xlink:title="Intersect a ray with a triangle abc. ">
<polygon fill="white" stroke="black" points="340.5,-165 340.5,-195 447.5,-195 447.5,-165 340.5,-165"/>
<text text-anchor="start" x="348.5" y="-183" font-family="Helvetica,sans-Serif" font-size="10.00">Ra::Core::RayCast::</text>
<text text-anchor="middle" x="394" y="-172" font-family="Helvetica,sans-Serif" font-size="10.00">vsTriangle</text>
</a>
</g>
</g>
<!-- Node8&#45;&gt;Node12 -->
<g id="edge12" class="edge"><title>Node8&#45;&gt;Node12</title>
<path fill="none" stroke="midnightblue" d="M278.84,-151.289C295.215,-155.407 313.418,-159.985 330.39,-164.254"/>
<polygon fill="midnightblue" stroke="midnightblue" points="329.666,-167.681 340.217,-166.725 331.373,-160.892 329.666,-167.681"/>
</g>
<!-- Node13 -->
<g id="node13" class="node"><title>Node13</title>
<g id="a_node13"><a xlink:href="namespaceRa_1_1Core.html#a75b01d58a77f0045a477762d0b686b60" target="_top" xlink:title="VERTEX. ">
<polygon fill="white" stroke="black" points="359.5,-38.5 359.5,-57.5 428.5,-57.5 428.5,-38.5 359.5,-38.5"/>
<text text-anchor="middle" x="394" y="-45.5" font-family="Helvetica,sans-Serif" font-size="10.00">Ra::Core::V</text>
</a>
</g>
</g>
<!-- Node8&#45;&gt;Node13 -->
<g id="edge14" class="edge"><title>Node8&#45;&gt;Node13</title>
<path fill="none" stroke="midnightblue" d="M274.779,-122.979C280.844,-120.131 286.749,-116.821 292,-113 312.71,-97.9298 306.822,-82.4043 328,-68 334.521,-63.5646 342.065,-60.0822 349.653,-57.3574"/>
<polygon fill="midnightblue" stroke="midnightblue" points="350.758,-60.6787 359.215,-54.2965 348.624,-54.0119 350.758,-60.6787"/>
</g>
<!-- Node15 -->
<g id="node15" class="node"><title>Node15</title>
<g id="a_node15"><a xlink:href="namespaceOpenMesh.html#a71e7f1dd3eac016d2b8245ac408a291c" target="_top" xlink:title="OpenMesh::cross">
<polygon fill="white" stroke="black" points="347,-0.5 347,-19.5 441,-19.5 441,-0.5 347,-0.5"/>
<text text-anchor="middle" x="394" y="-7.5" font-family="Helvetica,sans-Serif" font-size="10.00">OpenMesh::cross</text>
</a>
</g>
</g>
<!-- Node8&#45;&gt;Node15 -->
<g id="edge16" class="edge"><title>Node8&#45;&gt;Node15</title>
<path fill="none" stroke="midnightblue" d="M278.485,-122.82C283.398,-120.06 288.019,-116.814 292,-113 321.329,-84.9003 297.602,-55.9393 328,-29 330.983,-26.3561 334.317,-24.0792 337.855,-22.1186"/>
<polygon fill="midnightblue" stroke="midnightblue" points="339.4,-25.26 346.99,-17.8673 336.447,-18.9136 339.4,-25.26"/>
</g>
<!-- Node10 -->
<g id="node10" class="node"><title>Node10</title>
<g id="a_node10"><a xlink:href="classRa_1_1Core_1_1AttribManager.html#aaa6088620425c1e1d74b50f1b50eb596" target="_top" xlink:title="Get attribute by handle. ">
<polygon fill="white" stroke="black" points="654.5,-99 654.5,-129 777.5,-129 777.5,-99 654.5,-99"/>
<text text-anchor="start" x="662.5" y="-117" font-family="Helvetica,sans-Serif" font-size="10.00">Ra::Core::AttribManager</text>
<text text-anchor="middle" x="716" y="-106" font-family="Helvetica,sans-Serif" font-size="10.00">::getAttrib</text>
</a>
</g>
</g>
<!-- Node9&#45;&gt;Node10 -->
<g id="edge9" class="edge"><title>Node9&#45;&gt;Node10</title>
<path fill="none" stroke="midnightblue" d="M617.803,-114C626.398,-114 635.311,-114 644.096,-114"/>
<polygon fill="midnightblue" stroke="midnightblue" points="644.323,-117.5 654.323,-114 644.322,-110.5 644.323,-117.5"/>
</g>
<!-- Node11&#45;&gt;Node9 -->
<g id="edge11" class="edge"><title>Node11&#45;&gt;Node9</title>
<path fill="none" stroke="midnightblue" d="M447.717,-99.2036C460.019,-100.885 473.308,-102.7 486.221,-104.465"/>
<polygon fill="midnightblue" stroke="midnightblue" points="486.089,-107.979 496.471,-105.866 487.037,-101.044 486.089,-107.979"/>
</g>
<!-- Node12&#45;&gt;Node6 -->
<g id="edge13" class="edge"><title>Node12&#45;&gt;Node6</title>
<path fill="none" stroke="midnightblue" d="M447.717,-187.204C461.296,-189.059 476.076,-191.079 490.228,-193.013"/>
<polygon fill="midnightblue" stroke="midnightblue" points="490.014,-196.516 500.396,-194.402 490.962,-189.58 490.014,-196.516"/>
</g>
<!-- Node14 -->
<g id="node14" class="node"><title>Node14</title>
<g id="a_node14"><a xlink:href="namespaceRa_1_1Core.html#a6dd9d23e2286b21c927c0cee124c6c1e" target="_top" xlink:title="HALFEDGE. ">
<polygon fill="white" stroke="black" points="518.5,-38.5 518.5,-57.5 595.5,-57.5 595.5,-38.5 518.5,-38.5"/>
<text text-anchor="middle" x="557" y="-45.5" font-family="Helvetica,sans-Serif" font-size="10.00">Ra::Core::HE</text>
</a>
</g>
</g>
<!-- Node13&#45;&gt;Node14 -->
<g id="edge15" class="edge"><title>Node13&#45;&gt;Node14</title>
<path fill="none" stroke="midnightblue" d="M428.751,-48C451.767,-48 482.585,-48 508.128,-48"/>
<polygon fill="midnightblue" stroke="midnightblue" points="508.351,-51.5001 518.351,-48 508.351,-44.5001 508.351,-51.5001"/>
</g>
</g>
</svg>
