<?xml version="1.0" encoding="UTF-8" standalone="no"?>
<!DOCTYPE svg PUBLIC "-//W3C//DTD SVG 1.1//EN"
 "http://www.w3.org/Graphics/SVG/1.1/DTD/svg11.dtd">
<!-- Generated by graphviz version 2.36.0 (20140111.2315)
 -->
<!-- Title: AnimationPlugin::AnimationComponent::handleSkeletonLoading Pages: 1 -->
<svg width="514pt" height="204pt"
 viewBox="0.00 0.00 514.00 204.00" xmlns="http://www.w3.org/2000/svg" xmlns:xlink="http://www.w3.org/1999/xlink">
<g id="graph0" class="graph" transform="scale(1 1) rotate(0) translate(4 200)">
<title>AnimationPlugin::AnimationComponent::handleSkeletonLoading</title>
<polygon fill="white" stroke="none" points="-4,4 -4,-200 510,-200 510,4 -4,4"/>
<!-- Node1 -->
<g id="node1" class="node"><title>Node1</title>
<polygon fill="#bfbfbf" stroke="black" points="0.5,-95 0.5,-125 173.5,-125 173.5,-95 0.5,-95"/>
<text text-anchor="start" x="8.5" y="-113" font-family="Helvetica,sans-Serif" font-size="10.00">AnimationPlugin::Animation</text>
<text text-anchor="middle" x="87" y="-102" font-family="Helvetica,sans-Serif" font-size="10.00">Component::handleSkeletonLoading</text>
</g>
<!-- Node2 -->
<g id="node2" class="node"><title>Node2</title>
<g id="a_node2"><a xlink:href="classRa_1_1Asset_1_1AssetData.html#a8b107d2673623febe173f37f14ff777d" target="_top" xlink:title="Ra::Asset::AssetData\l::getName">
<polygon fill="white" stroke="black" points="219.5,-166 219.5,-196 332.5,-196 332.5,-166 219.5,-166"/>
<text text-anchor="start" x="227.5" y="-184" font-family="Helvetica,sans-Serif" font-size="10.00">Ra::Asset::AssetData</text>
<text text-anchor="middle" x="276" y="-173" font-family="Helvetica,sans-Serif" font-size="10.00">::getName</text>
</a>
</g>
</g>
<!-- Node1&#45;&gt;Node2 -->
<g id="edge1" class="edge"><title>Node1&#45;&gt;Node2</title>
<path fill="none" stroke="midnightblue" d="M127.658,-125.057C156.293,-135.93 195.15,-150.682 225.77,-162.309"/>
<polygon fill="midnightblue" stroke="midnightblue" points="224.808,-165.687 235.399,-165.964 227.293,-159.143 224.808,-165.687"/>
</g>
<!-- Node3 -->
<g id="node3" class="node"><title>Node3</title>
<g id="a_node3"><a xlink:href="classRa_1_1Core_1_1Animation_1_1Handle.html#ae8dab79a9d571d2a876ec9aaeb36959c" target="_top" xlink:title="Set the Handle&#39;s name. ">
<polygon fill="white" stroke="black" points="223,-117 223,-147 329,-147 329,-117 223,-117"/>
<text text-anchor="start" x="231" y="-135" font-family="Helvetica,sans-Serif" font-size="10.00">Ra::Core::Animation</text>
<text text-anchor="middle" x="276" y="-124" font-family="Helvetica,sans-Serif" font-size="10.00">::Handle::setName</text>
</a>
</g>
</g>
<!-- Node1&#45;&gt;Node3 -->
<g id="edge2" class="edge"><title>Node1&#45;&gt;Node3</title>
<path fill="none" stroke="midnightblue" d="M173.565,-120.066C186.713,-121.613 200.072,-123.185 212.592,-124.658"/>
<polygon fill="midnightblue" stroke="midnightblue" points="212.548,-128.177 222.888,-125.869 213.366,-121.225 212.548,-128.177"/>
</g>
<!-- Node4 -->
<g id="node4" class="node"><title>Node4</title>
<g id="a_node4"><a xlink:href="namespaceRa_1_1Asset.html#a6af505cc4650dadb43465972bf52117d" target="_top" xlink:title="Create a skeleton from a Handle Data extracted from a file Outputs the skeleton and a map from the co...">
<polygon fill="white" stroke="black" points="210,-78.5 210,-97.5 342,-97.5 342,-78.5 210,-78.5"/>
<text text-anchor="middle" x="276" y="-85.5" font-family="Helvetica,sans-Serif" font-size="10.00">Ra::Asset::createSkeleton</text>
</a>
</g>
</g>
<!-- Node1&#45;&gt;Node4 -->
<g id="edge3" class="edge"><title>Node1&#45;&gt;Node4</title>
<path fill="none" stroke="midnightblue" d="M173.565,-99.9336C182.343,-98.9008 191.216,-97.857 199.87,-96.8388"/>
<polygon fill="midnightblue" stroke="midnightblue" points="200.387,-100.302 209.91,-95.6577 199.569,-93.3502 200.387,-100.302"/>
</g>
<!-- Node9 -->
<g id="node9" class="node"><title>Node9</title>
<g id="a_node9"><a xlink:href="classRa_1_1Core_1_1Animation_1_1Skeleton.html#acb6381c3f288f580800589eb718c1759" target="_top" xlink:title="Ra::Core::Animation\l::Skeleton::getPose">
<polygon fill="white" stroke="black" points="223,-29 223,-59 329,-59 329,-29 223,-29"/>
<text text-anchor="start" x="231" y="-47" font-family="Helvetica,sans-Serif" font-size="10.00">Ra::Core::Animation</text>
<text text-anchor="middle" x="276" y="-36" font-family="Helvetica,sans-Serif" font-size="10.00">::Skeleton::getPose</text>
</a>
</g>
</g>
<!-- Node1&#45;&gt;Node9 -->
<g id="edge8" class="edge"><title>Node1&#45;&gt;Node9</title>
<path fill="none" stroke="midnightblue" d="M130.902,-94.8583C158.221,-85.216 193.788,-72.663 222.751,-62.4409"/>
<polygon fill="midnightblue" stroke="midnightblue" points="224.033,-65.7 232.298,-59.0713 221.703,-59.0991 224.033,-65.7"/>
</g>
<!-- Node5 -->
<g id="node5" class="node"><title>Node5</title>
<g id="a_node5"><a xlink:href="namespaceRa_1_1Core.html#abc0a3625137098b67838fe52edd480f9" target="_top" xlink:title="SIZE. ">
<polygon fill="white" stroke="black" points="402,-147.5 402,-166.5 482,-166.5 482,-147.5 402,-147.5"/>
<text text-anchor="middle" x="442" y="-154.5" font-family="Helvetica,sans-Serif" font-size="10.00">Ra::Core::size</text>
</a>
</g>
</g>
<!-- Node4&#45;&gt;Node5 -->
<g id="edge4" class="edge"><title>Node4&#45;&gt;Node5</title>
<path fill="none" stroke="midnightblue" d="M316.462,-97.515C325.127,-100.318 334.076,-103.79 342,-108 360.144,-117.639 359.899,-127.281 378,-137 382.866,-139.612 388.128,-141.95 393.467,-144.022"/>
<polygon fill="midnightblue" stroke="midnightblue" points="392.494,-147.392 403.088,-147.471 394.855,-140.802 392.494,-147.392"/>
</g>
<!-- Node6 -->
<g id="node6" class="node"><title>Node6</title>
<g id="a_node6"><a xlink:href="classRa_1_1Asset_1_1HandleData.html#aac2741c32466647b58b76e8310d90ecb" target="_top" xlink:title="DATA. ">
<polygon fill="white" stroke="black" points="378.5,-98 378.5,-128 505.5,-128 505.5,-98 378.5,-98"/>
<text text-anchor="start" x="386.5" y="-116" font-family="Helvetica,sans-Serif" font-size="10.00">Ra::Asset::HandleData</text>
<text text-anchor="middle" x="442" y="-105" font-family="Helvetica,sans-Serif" font-size="10.00">::getComponentDataSize</text>
</a>
</g>
</g>
<!-- Node4&#45;&gt;Node6 -->
<g id="edge5" class="edge"><title>Node4&#45;&gt;Node6</title>
<path fill="none" stroke="midnightblue" d="M339.469,-97.5227C348.942,-98.9668 358.784,-100.467 368.449,-101.94"/>
<polygon fill="midnightblue" stroke="midnightblue" points="368.02,-105.415 378.433,-103.462 369.075,-98.4952 368.02,-105.415"/>
</g>
<!-- Node7 -->
<g id="node7" class="node"><title>Node7</title>
<g id="a_node7"><a xlink:href="classRa_1_1Asset_1_1HandleData.html#adeb89ae26f34f0878a089ed7ecd64e24" target="_top" xlink:title="Ra::Asset::HandleData\l::getComponentData">
<polygon fill="white" stroke="black" points="382.5,-49 382.5,-79 501.5,-79 501.5,-49 382.5,-49"/>
<text text-anchor="start" x="390.5" y="-67" font-family="Helvetica,sans-Serif" font-size="10.00">Ra::Asset::HandleData</text>
<text text-anchor="middle" x="442" y="-56" font-family="Helvetica,sans-Serif" font-size="10.00">::getComponentData</text>
</a>
</g>
</g>
<!-- Node4&#45;&gt;Node7 -->
<g id="edge6" class="edge"><title>Node4&#45;&gt;Node7</title>
<path fill="none" stroke="midnightblue" d="M342.288,-78.4456C352.1,-77.0097 362.245,-75.5251 372.129,-74.0787"/>
<polygon fill="midnightblue" stroke="midnightblue" points="372.922,-77.5 382.31,-72.5888 371.908,-70.5738 372.922,-77.5"/>
</g>
<!-- Node8 -->
<g id="node8" class="node"><title>Node8</title>
<g id="a_node8"><a xlink:href="classRa_1_1Asset_1_1HandleData.html#abc56131631200e94ff38cf9e2af920bc" target="_top" xlink:title="Ra::Asset::HandleData\l::getEdgeData">
<polygon fill="white" stroke="black" points="382.5,-0 382.5,-30 501.5,-30 501.5,-0 382.5,-0"/>
<text text-anchor="start" x="390.5" y="-18" font-family="Helvetica,sans-Serif" font-size="10.00">Ra::Asset::HandleData</text>
<text text-anchor="middle" x="442" y="-7" font-family="Helvetica,sans-Serif" font-size="10.00">::getEdgeData</text>
</a>
</g>
</g>
<!-- Node4&#45;&gt;Node8 -->
<g id="edge7" class="edge"><title>Node4&#45;&gt;Node8</title>
<path fill="none" stroke="midnightblue" d="M316.067,-78.4945C324.841,-75.6777 333.935,-72.1963 342,-68 359.981,-58.644 360.404,-50.0612 378,-40 381.464,-38.0196 385.115,-36.1252 388.843,-34.3289"/>
<polygon fill="midnightblue" stroke="midnightblue" points="390.552,-37.3968 398.207,-30.0722 387.655,-31.0243 390.552,-37.3968"/>
</g>
</g>
</svg>
