<?xml version="1.0" encoding="UTF-8" standalone="no"?>
<!DOCTYPE svg PUBLIC "-//W3C//DTD SVG 1.1//EN"
 "http://www.w3.org/Graphics/SVG/1.1/DTD/svg11.dtd">
<!-- Generated by graphviz version 2.36.0 (20140111.2315)
 -->
<!-- Title: Ra::Gui::CameraInterface::CameraInterface Pages: 1 -->
<svg width="698pt" height="332pt"
 viewBox="0.00 0.00 698.00 332.00" xmlns="http://www.w3.org/2000/svg" xmlns:xlink="http://www.w3.org/1999/xlink">
<g id="graph0" class="graph" transform="scale(1 1) rotate(0) translate(4 328)">
<title>Ra::Gui::CameraInterface::CameraInterface</title>
<polygon fill="white" stroke="none" points="-4,4 -4,-328 694,-328 694,4 -4,4"/>
<!-- Node1 -->
<g id="node1" class="node"><title>Node1</title>
<polygon fill="#bfbfbf" stroke="black" points="0.5,-98 0.5,-128 129.5,-128 129.5,-98 0.5,-98"/>
<text text-anchor="start" x="8.5" y="-116" font-family="Helvetica,sans-Serif" font-size="10.00">Ra::Gui::CameraInterface</text>
<text text-anchor="middle" x="65" y="-105" font-family="Helvetica,sans-Serif" font-size="10.00">::CameraInterface</text>
</g>
<!-- Node2 -->
<g id="node2" class="node"><title>Node2</title>
<g id="a_node2"><a xlink:href="classRa_1_1Engine_1_1Camera.html#abec46e062874d71bf9cfc9143c889a60" target="_top" xlink:title="Pure virtual method to be overridden by any component. ">
<polygon fill="white" stroke="black" points="179,-147 179,-177 285,-177 285,-147 179,-147"/>
<text text-anchor="start" x="187" y="-165" font-family="Helvetica,sans-Serif" font-size="10.00">Ra::Engine::Camera</text>
<text text-anchor="middle" x="232" y="-154" font-family="Helvetica,sans-Serif" font-size="10.00">::initialize</text>
</a>
</g>
</g>
<!-- Node1&#45;&gt;Node2 -->
<g id="edge1" class="edge"><title>Node1&#45;&gt;Node2</title>
<path fill="none" stroke="midnightblue" d="M116.852,-128.101C133.869,-133.155 153.004,-138.838 170.673,-144.085"/>
<polygon fill="midnightblue" stroke="midnightblue" points="169.733,-147.457 180.316,-146.948 171.726,-140.746 169.733,-147.457"/>
</g>
<!-- Node15 -->
<g id="node15" class="node"><title>Node15</title>
<g id="a_node15"><a xlink:href="classRa_1_1Engine_1_1Camera.html#a4c2aac5ad419cef7720e2a18d93b3703" target="_top" xlink:title="Toggle on/off displaying the Camera. ">
<polygon fill="white" stroke="black" points="179,-245 179,-275 285,-275 285,-245 179,-245"/>
<text text-anchor="start" x="187" y="-263" font-family="Helvetica,sans-Serif" font-size="10.00">Ra::Engine::Camera</text>
<text text-anchor="middle" x="232" y="-252" font-family="Helvetica,sans-Serif" font-size="10.00">::show</text>
</a>
</g>
</g>
<!-- Node1&#45;&gt;Node15 -->
<g id="edge14" class="edge"><title>Node1&#45;&gt;Node15</title>
<path fill="none" stroke="midnightblue" d="M83.0364,-128.178C112.308,-154.256 172.264,-207.672 206.183,-237.89"/>
<polygon fill="midnightblue" stroke="midnightblue" points="204.014,-240.646 213.809,-244.684 208.671,-235.419 204.014,-240.646"/>
</g>
<!-- Node16 -->
<g id="node16" class="node"><title>Node16</title>
<g id="a_node16"><a xlink:href="classRa_1_1Gui_1_1CameraInterface.html#a47770206800ba8c8244c6c7fbfb5c90e" target="_top" xlink:title="Ra::Gui::CameraInterface\l::setCameraFovInDegrees">
<polygon fill="white" stroke="black" points="166,-98 166,-128 298,-128 298,-98 166,-98"/>
<text text-anchor="start" x="174" y="-116" font-family="Helvetica,sans-Serif" font-size="10.00">Ra::Gui::CameraInterface</text>
<text text-anchor="middle" x="232" y="-105" font-family="Helvetica,sans-Serif" font-size="10.00">::setCameraFovInDegrees</text>
</a>
</g>
</g>
<!-- Node1&#45;&gt;Node16 -->
<g id="edge16" class="edge"><title>Node1&#45;&gt;Node16</title>
<path fill="none" stroke="midnightblue" d="M129.793,-113C138.267,-113 147.018,-113 155.664,-113"/>
<polygon fill="midnightblue" stroke="midnightblue" points="155.741,-116.5 165.741,-113 155.741,-109.5 155.741,-116.5"/>
</g>
<!-- Node17 -->
<g id="node17" class="node"><title>Node17</title>
<g id="a_node17"><a xlink:href="classRa_1_1Gui_1_1CameraInterface.html#a3d772d8a443510243c338ac099c02df8" target="_top" xlink:title="Ra::Gui::CameraInterface\l::setCameraZNear">
<polygon fill="white" stroke="black" points="167.5,-49 167.5,-79 296.5,-79 296.5,-49 167.5,-49"/>
<text text-anchor="start" x="175.5" y="-67" font-family="Helvetica,sans-Serif" font-size="10.00">Ra::Gui::CameraInterface</text>
<text text-anchor="middle" x="232" y="-56" font-family="Helvetica,sans-Serif" font-size="10.00">::setCameraZNear</text>
</a>
</g>
</g>
<!-- Node1&#45;&gt;Node17 -->
<g id="edge17" class="edge"><title>Node1&#45;&gt;Node17</title>
<path fill="none" stroke="midnightblue" d="M116.852,-97.8986C133.869,-92.8449 153.004,-87.1624 170.673,-81.9152"/>
<polygon fill="midnightblue" stroke="midnightblue" points="171.726,-85.2536 180.316,-79.0516 169.733,-78.5433 171.726,-85.2536"/>
</g>
<!-- Node18 -->
<g id="node18" class="node"><title>Node18</title>
<g id="a_node18"><a xlink:href="classRa_1_1Gui_1_1CameraInterface.html#a769b762f8256b20f93b7bd152d8f86a6" target="_top" xlink:title="Ra::Gui::CameraInterface\l::setCameraZFar">
<polygon fill="white" stroke="black" points="167.5,-0 167.5,-30 296.5,-30 296.5,-0 167.5,-0"/>
<text text-anchor="start" x="175.5" y="-18" font-family="Helvetica,sans-Serif" font-size="10.00">Ra::Gui::CameraInterface</text>
<text text-anchor="middle" x="232" y="-7" font-family="Helvetica,sans-Serif" font-size="10.00">::setCameraZFar</text>
</a>
</g>
</g>
<!-- Node1&#45;&gt;Node18 -->
<g id="edge18" class="edge"><title>Node1&#45;&gt;Node18</title>
<path fill="none" stroke="midnightblue" d="M83.3886,-97.7216C102.562,-81.4718 134.838,-55.8378 166,-39 169.205,-37.2684 172.561,-35.6106 175.988,-34.0335"/>
<polygon fill="midnightblue" stroke="midnightblue" points="177.386,-37.2418 185.168,-30.0516 174.601,-30.8199 177.386,-37.2418"/>
</g>
<!-- Node3 -->
<g id="node3" class="node"><title>Node3</title>
<g id="a_node3"><a xlink:href="namespaceRa_1_1Core_1_1Algorithm.html#aea294cdb6f4f0d85955bdcccb22886ec" target="_top" xlink:title="Ra::Core::Algorithm::t">
<polygon fill="white" stroke="black" points="357.5,-245.5 357.5,-264.5 470.5,-264.5 470.5,-245.5 357.5,-245.5"/>
<text text-anchor="middle" x="414" y="-252.5" font-family="Helvetica,sans-Serif" font-size="10.00">Ra::Core::Algorithm::t</text>
</a>
</g>
</g>
<!-- Node2&#45;&gt;Node3 -->
<g id="edge2" class="edge"><title>Node2&#45;&gt;Node3</title>
<path fill="none" stroke="midnightblue" d="M249.607,-177.089C268.652,-193.62 301.459,-219.803 334,-235 340.115,-237.856 346.694,-240.342 353.352,-242.496"/>
<polygon fill="midnightblue" stroke="midnightblue" points="352.535,-245.905 363.119,-245.421 354.543,-239.199 352.535,-245.905"/>
</g>
<!-- Node4 -->
<g id="node4" class="node"><title>Node4</title>
<g id="a_node4"><a xlink:href="classRa_1_1Engine_1_1RenderObject.html#ae9cb914f351555a60d29e8d6afedc06b" target="_top" xlink:title="Sort of factory method to easily create a render object. ">
<polygon fill="white" stroke="black" points="348.5,-196 348.5,-226 479.5,-226 479.5,-196 348.5,-196"/>
<text text-anchor="start" x="356.5" y="-214" font-family="Helvetica,sans-Serif" font-size="10.00">Ra::Engine::RenderObject</text>
<text text-anchor="middle" x="414" y="-203" font-family="Helvetica,sans-Serif" font-size="10.00">::createRenderObject</text>
</a>
</g>
</g>
<!-- Node2&#45;&gt;Node4 -->
<g id="edge3" class="edge"><title>Node2&#45;&gt;Node4</title>
<path fill="none" stroke="midnightblue" d="M285.063,-176.173C304.693,-181.517 327.27,-187.663 347.942,-193.29"/>
<polygon fill="midnightblue" stroke="midnightblue" points="347.032,-196.669 357.6,-195.919 348.871,-189.915 347.032,-196.669"/>
</g>
<!-- Node9 -->
<g id="node9" class="node"><title>Node9</title>
<g id="a_node9"><a xlink:href="classRa_1_1Engine_1_1RenderObject.html#acc91aff99b91e06143b28940ec49d0e0" target="_top" xlink:title="Ra::Engine::RenderObject\l::getRenderTechnique">
<polygon fill="white" stroke="black" points="348.5,-98 348.5,-128 479.5,-128 479.5,-98 348.5,-98"/>
<text text-anchor="start" x="356.5" y="-116" font-family="Helvetica,sans-Serif" font-size="10.00">Ra::Engine::RenderObject</text>
<text text-anchor="middle" x="414" y="-105" font-family="Helvetica,sans-Serif" font-size="10.00">::getRenderTechnique</text>
</a>
</g>
</g>
<!-- Node2&#45;&gt;Node9 -->
<g id="edge8" class="edge"><title>Node2&#45;&gt;Node9</title>
<path fill="none" stroke="midnightblue" d="M285.063,-147.827C304.693,-142.483 327.27,-136.337 347.942,-130.71"/>
<polygon fill="midnightblue" stroke="midnightblue" points="348.871,-134.085 357.6,-128.081 347.032,-127.331 348.871,-134.085"/>
</g>
<!-- Node10 -->
<g id="node10" class="node"><title>Node10</title>
<g id="a_node10"><a xlink:href="namespaceRa_1_1Engine_1_1ShaderConfigurationFactory.html#a0bc60f21dbabd745961037f3d2f019c8" target="_top" xlink:title="Ra::Engine::ShaderConfiguration\lFactory::getConfiguration">
<polygon fill="white" stroke="black" points="334,-49 334,-79 494,-79 494,-49 334,-49"/>
<text text-anchor="start" x="342" y="-67" font-family="Helvetica,sans-Serif" font-size="10.00">Ra::Engine::ShaderConfiguration</text>
<text text-anchor="middle" x="414" y="-56" font-family="Helvetica,sans-Serif" font-size="10.00">Factory::getConfiguration</text>
</a>
</g>
</g>
<!-- Node2&#45;&gt;Node10 -->
<g id="edge9" class="edge"><title>Node2&#45;&gt;Node10</title>
<path fill="none" stroke="midnightblue" d="M281.525,-146.945C287.354,-144.113 293.003,-140.816 298,-137 319.477,-120.599 311.944,-103.615 334,-88 336.099,-86.5143 338.291,-85.119 340.553,-83.8087"/>
<polygon fill="midnightblue" stroke="midnightblue" points="342.289,-86.852 349.58,-79.1647 339.086,-80.6275 342.289,-86.852"/>
</g>
<!-- Node12 -->
<g id="node12" class="node"><title>Node12</title>
<g id="a_node12"><a xlink:href="classRa_1_1Engine_1_1RenderObject.html#a2d6a1bc2b7646fe0912035a2ece24864" target="_top" xlink:title="Ra::Engine::RenderObject\l::setLocalTransform">
<polygon fill="white" stroke="black" points="348.5,-0 348.5,-30 479.5,-30 479.5,-0 348.5,-0"/>
<text text-anchor="start" x="356.5" y="-18" font-family="Helvetica,sans-Serif" font-size="10.00">Ra::Engine::RenderObject</text>
<text text-anchor="middle" x="414" y="-7" font-family="Helvetica,sans-Serif" font-size="10.00">::setLocalTransform</text>
</a>
</g>
</g>
<!-- Node2&#45;&gt;Node12 -->
<g id="edge11" class="edge"><title>Node2&#45;&gt;Node12</title>
<path fill="none" stroke="midnightblue" d="M284.9,-146.946C289.698,-144.162 294.182,-140.876 298,-137 330.562,-103.942 300.266,-70.8606 334,-39 335.869,-37.2345 337.864,-35.5986 339.959,-34.0828"/>
<polygon fill="midnightblue" stroke="midnightblue" points="341.812,-37.0521 348.471,-28.8115 338.126,-31.1008 341.812,-37.0521"/>
</g>
<!-- Node13 -->
<g id="node13" class="node"><title>Node13</title>
<g id="a_node13"><a xlink:href="classRa_1_1Engine_1_1Component.html#a8faa6f03b4a5a8bc30bb8ff402e6b61f" target="_top" xlink:title="Add a new render object to the component. This adds the RO to the manager for drawing. ">
<polygon fill="white" stroke="black" points="353,-147 353,-177 475,-177 475,-147 353,-147"/>
<text text-anchor="start" x="361" y="-165" font-family="Helvetica,sans-Serif" font-size="10.00">Ra::Engine::Component</text>
<text text-anchor="middle" x="414" y="-154" font-family="Helvetica,sans-Serif" font-size="10.00">::addRenderObject</text>
</a>
</g>
</g>
<!-- Node2&#45;&gt;Node13 -->
<g id="edge12" class="edge"><title>Node2&#45;&gt;Node13</title>
<path fill="none" stroke="midnightblue" d="M285.063,-162C303.018,-162 323.438,-162 342.61,-162"/>
<polygon fill="midnightblue" stroke="midnightblue" points="342.805,-165.5 352.805,-162 342.804,-158.5 342.805,-165.5"/>
</g>
<!-- Node5 -->
<g id="node5" class="node"><title>Node5</title>
<g id="a_node5"><a xlink:href="classRa_1_1Engine_1_1RenderObject.html#acf300c8fdb55fee54d27b3fb46a1e523" target="_top" xlink:title="A &#45;1 (or any other negative value) lifetime is considered infinite, 0 is an &quot;invalid value&quot; (would ...">
<polygon fill="white" stroke="black" points="544.5,-147 544.5,-177 675.5,-177 675.5,-147 544.5,-147"/>
<text text-anchor="start" x="552.5" y="-165" font-family="Helvetica,sans-Serif" font-size="10.00">Ra::Engine::RenderObject</text>
<text text-anchor="middle" x="610" y="-154" font-family="Helvetica,sans-Serif" font-size="10.00">::RenderObject</text>
</a>
</g>
</g>
<!-- Node4&#45;&gt;Node5 -->
<g id="edge4" class="edge"><title>Node4&#45;&gt;Node5</title>
<path fill="none" stroke="midnightblue" d="M474.525,-195.965C495.102,-190.768 518.337,-184.899 539.634,-179.52"/>
<polygon fill="midnightblue" stroke="midnightblue" points="540.749,-182.849 549.588,-177.006 539.035,-176.062 540.749,-182.849"/>
</g>
<!-- Node6 -->
<g id="node6" class="node"><title>Node6</title>
<g id="a_node6"><a xlink:href="classRa_1_1Engine_1_1RenderObject.html#ae8e94954e783a2012fd774598af1eb52" target="_top" xlink:title="Ra::Engine::RenderObject\l::setMesh">
<polygon fill="white" stroke="black" points="544.5,-245 544.5,-275 675.5,-275 675.5,-245 544.5,-245"/>
<text text-anchor="start" x="552.5" y="-263" font-family="Helvetica,sans-Serif" font-size="10.00">Ra::Engine::RenderObject</text>
<text text-anchor="middle" x="610" y="-252" font-family="Helvetica,sans-Serif" font-size="10.00">::setMesh</text>
</a>
</g>
</g>
<!-- Node4&#45;&gt;Node6 -->
<g id="edge5" class="edge"><title>Node4&#45;&gt;Node6</title>
<path fill="none" stroke="midnightblue" d="M474.525,-226.035C495.102,-231.232 518.337,-237.101 539.634,-242.48"/>
<polygon fill="midnightblue" stroke="midnightblue" points="539.035,-245.938 549.588,-244.994 540.749,-239.151 539.035,-245.938"/>
</g>
<!-- Node7 -->
<g id="node7" class="node"><title>Node7</title>
<g id="a_node7"><a xlink:href="classRa_1_1Engine_1_1RenderObject.html#a62e0eb3a7de5a7d352b565a28260cc06" target="_top" xlink:title="Ra::Engine::RenderObject\l::setVisible">
<polygon fill="white" stroke="black" points="544.5,-294 544.5,-324 675.5,-324 675.5,-294 544.5,-294"/>
<text text-anchor="start" x="552.5" y="-312" font-family="Helvetica,sans-Serif" font-size="10.00">Ra::Engine::RenderObject</text>
<text text-anchor="middle" x="610" y="-301" font-family="Helvetica,sans-Serif" font-size="10.00">::setVisible</text>
</a>
</g>
</g>
<!-- Node4&#45;&gt;Node7 -->
<g id="edge6" class="edge"><title>Node4&#45;&gt;Node7</title>
<path fill="none" stroke="midnightblue" d="M476.368,-226.14C482.594,-228.912 488.602,-232.172 494,-236 515.752,-251.427 508.248,-268.573 530,-284 532.699,-285.914 535.55,-287.686 538.505,-289.326"/>
<polygon fill="midnightblue" stroke="midnightblue" points="537.119,-292.545 547.632,-293.86 540.233,-286.276 537.119,-292.545"/>
</g>
<!-- Node8 -->
<g id="node8" class="node"><title>Node8</title>
<g id="a_node8"><a xlink:href="classRa_1_1Engine_1_1RenderObject.html#ae1ea453e2b698cda9956586d11b9cfbd" target="_top" xlink:title="Ra::Engine::RenderObject\l::setRenderTechnique">
<polygon fill="white" stroke="black" points="544.5,-196 544.5,-226 675.5,-226 675.5,-196 544.5,-196"/>
<text text-anchor="start" x="552.5" y="-214" font-family="Helvetica,sans-Serif" font-size="10.00">Ra::Engine::RenderObject</text>
<text text-anchor="middle" x="610" y="-203" font-family="Helvetica,sans-Serif" font-size="10.00">::setRenderTechnique</text>
</a>
</g>
</g>
<!-- Node4&#45;&gt;Node8 -->
<g id="edge7" class="edge"><title>Node4&#45;&gt;Node8</title>
<path fill="none" stroke="midnightblue" d="M479.599,-211C497.095,-211 516.18,-211 534.187,-211"/>
<polygon fill="midnightblue" stroke="midnightblue" points="534.352,-214.5 544.352,-211 534.352,-207.5 534.352,-214.5"/>
</g>
<!-- Node11 -->
<g id="node11" class="node"><title>Node11</title>
<g id="a_node11"><a xlink:href="classRa_1_1Engine_1_1ShaderConfiguration.html#a7e20a600c78e8627f0238b342f4b42f2" target="_top" xlink:title="Ra::Engine::ShaderConfiguration\l::getDefaultShaderConfig">
<polygon fill="white" stroke="black" points="530,-49 530,-79 690,-79 690,-49 530,-49"/>
<text text-anchor="start" x="538" y="-67" font-family="Helvetica,sans-Serif" font-size="10.00">Ra::Engine::ShaderConfiguration</text>
<text text-anchor="middle" x="610" y="-56" font-family="Helvetica,sans-Serif" font-size="10.00">::getDefaultShaderConfig</text>
</a>
</g>
</g>
<!-- Node10&#45;&gt;Node11 -->
<g id="edge10" class="edge"><title>Node10&#45;&gt;Node11</title>
<path fill="none" stroke="midnightblue" d="M494.187,-64C502.529,-64 511.054,-64 519.502,-64"/>
<polygon fill="midnightblue" stroke="midnightblue" points="519.752,-67.5001 529.752,-64 519.752,-60.5001 519.752,-67.5001"/>
</g>
<!-- Node14 -->
<g id="node14" class="node"><title>Node14</title>
<g id="a_node14"><a xlink:href="classRa_1_1Engine_1_1Component.html#a10b0bc182b76165744ebea603ae32dfe" target="_top" xlink:title="Shortcut to access the render object manager. ">
<polygon fill="white" stroke="black" points="549,-98 549,-128 671,-128 671,-98 549,-98"/>
<text text-anchor="start" x="557" y="-116" font-family="Helvetica,sans-Serif" font-size="10.00">Ra::Engine::Component</text>
<text text-anchor="middle" x="610" y="-105" font-family="Helvetica,sans-Serif" font-size="10.00">::getRoMgr</text>
</a>
</g>
</g>
<!-- Node13&#45;&gt;Node14 -->
<g id="edge13" class="edge"><title>Node13&#45;&gt;Node14</title>
<path fill="none" stroke="midnightblue" d="M474.525,-146.965C495.102,-141.768 518.337,-135.899 539.634,-130.52"/>
<polygon fill="midnightblue" stroke="midnightblue" points="540.749,-133.849 549.588,-128.006 539.035,-127.062 540.749,-133.849"/>
</g>
<!-- Node15&#45;&gt;Node7 -->
<g id="edge15" class="edge"><title>Node15&#45;&gt;Node7</title>
<path fill="none" stroke="midnightblue" d="M285.146,-267.341C300.844,-269.521 318.119,-271.889 334,-274 401.706,-283.001 478.858,-292.778 534.174,-299.705"/>
<polygon fill="midnightblue" stroke="midnightblue" points="533.885,-303.196 544.242,-300.965 534.754,-296.25 533.885,-303.196"/>
</g>
</g>
</svg>
