<?xml version="1.0" encoding="UTF-8" standalone="no"?>
<!DOCTYPE svg PUBLIC "-//W3C//DTD SVG 1.1//EN"
 "http://www.w3.org/Graphics/SVG/1.1/DTD/svg11.dtd">
<!-- Generated by graphviz version 2.36.0 (20140111.2315)
 -->
<!-- Title: Ra::Engine::DefaultCameraManager::render Pages: 1 -->
<svg width="836pt" height="299pt"
 viewBox="0.00 0.00 836.00 299.00" xmlns="http://www.w3.org/2000/svg" xmlns:xlink="http://www.w3.org/1999/xlink">
<g id="graph0" class="graph" transform="scale(1 1) rotate(0) translate(4 295)">
<title>Ra::Engine::DefaultCameraManager::render</title>
<polygon fill="white" stroke="none" points="-4,4 -4,-295 832,-295 832,4 -4,4"/>
<!-- Node1 -->
<g id="node1" class="node"><title>Node1</title>
<polygon fill="#bfbfbf" stroke="black" points="0.5,-147 0.5,-177 137.5,-177 137.5,-147 0.5,-147"/>
<text text-anchor="start" x="8.5" y="-165" font-family="Helvetica,sans-Serif" font-size="10.00">Ra::Engine::DefaultCamera</text>
<text text-anchor="middle" x="69" y="-154" font-family="Helvetica,sans-Serif" font-size="10.00">Manager::render</text>
</g>
<!-- Node2 -->
<g id="node2" class="node"><title>Node2</title>
<g id="a_node2"><a xlink:href="classRa_1_1Engine_1_1DefaultCameraManager.html#a66e4da19abba3f1c37c6305119eef7be" target="_top" xlink:title="Return the cam&#45;th camera. ">
<polygon fill="white" stroke="black" points="174.5,-172 174.5,-202 311.5,-202 311.5,-172 174.5,-172"/>
<text text-anchor="start" x="182.5" y="-190" font-family="Helvetica,sans-Serif" font-size="10.00">Ra::Engine::DefaultCamera</text>
<text text-anchor="middle" x="243" y="-179" font-family="Helvetica,sans-Serif" font-size="10.00">Manager::getCamera</text>
</a>
</g>
</g>
<!-- Node1&#45;&gt;Node2 -->
<g id="edge1" class="edge"><title>Node1&#45;&gt;Node2</title>
<path fill="none" stroke="midnightblue" d="M137.979,-171.881C146.55,-173.126 155.372,-174.409 164.082,-175.675"/>
<polygon fill="midnightblue" stroke="midnightblue" points="163.834,-179.175 174.233,-177.15 164.841,-172.248 163.834,-179.175"/>
</g>
<!-- Node3 -->
<g id="node3" class="node"><title>Node3</title>
<g id="a_node3"><a xlink:href="classRa_1_1Engine_1_1RenderObject.html#aea46f9cc24f70cbfaa270a8edbcbbe25" target="_top" xlink:title="Ra::Engine::RenderObject\l::render">
<polygon fill="white" stroke="black" points="177.5,-123 177.5,-153 308.5,-153 308.5,-123 177.5,-123"/>
<text text-anchor="start" x="185.5" y="-141" font-family="Helvetica,sans-Serif" font-size="10.00">Ra::Engine::RenderObject</text>
<text text-anchor="middle" x="243" y="-130" font-family="Helvetica,sans-Serif" font-size="10.00">::render</text>
</a>
</g>
</g>
<!-- Node1&#45;&gt;Node3 -->
<g id="edge2" class="edge"><title>Node1&#45;&gt;Node3</title>
<path fill="none" stroke="midnightblue" d="M137.979,-152.515C147.596,-151.173 157.529,-149.787 167.265,-148.428"/>
<polygon fill="midnightblue" stroke="midnightblue" points="167.898,-151.874 177.319,-147.025 166.931,-144.941 167.898,-151.874"/>
</g>
<!-- Node4 -->
<g id="node4" class="node"><title>Node4</title>
<g id="a_node4"><a xlink:href="classRa_1_1Engine_1_1RenderObject.html#a0c9fad6464792d18ca873404fd657567" target="_top" xlink:title="Ra::Engine::RenderObject\l::getTransformAsMatrix">
<polygon fill="white" stroke="black" points="359.5,-236 359.5,-266 490.5,-266 490.5,-236 359.5,-236"/>
<text text-anchor="start" x="367.5" y="-254" font-family="Helvetica,sans-Serif" font-size="10.00">Ra::Engine::RenderObject</text>
<text text-anchor="middle" x="425" y="-243" font-family="Helvetica,sans-Serif" font-size="10.00">::getTransformAsMatrix</text>
</a>
</g>
</g>
<!-- Node3&#45;&gt;Node4 -->
<g id="edge3" class="edge"><title>Node3&#45;&gt;Node4</title>
<path fill="none" stroke="midnightblue" d="M296.939,-153.148C302.337,-155.924 307.486,-159.183 312,-163 336.624,-183.824 323.02,-205.604 348,-226 350.071,-227.691 352.26,-229.269 354.539,-230.742"/>
<polygon fill="midnightblue" stroke="midnightblue" points="353.274,-234.047 363.703,-235.914 356.715,-227.951 353.274,-234.047"/>
</g>
<!-- Node8 -->
<g id="node8" class="node"><title>Node8</title>
<g id="a_node8"><a xlink:href="namespaceRa_1_1Core.html#a28c10004edc39878acecb94c2ca5b837" target="_top" xlink:title="NORMAL. ">
<polygon fill="white" stroke="black" points="390,-197.5 390,-216.5 460,-216.5 460,-197.5 390,-197.5"/>
<text text-anchor="middle" x="425" y="-204.5" font-family="Helvetica,sans-Serif" font-size="10.00">Ra::Core::N</text>
</a>
</g>
</g>
<!-- Node3&#45;&gt;Node8 -->
<g id="edge7" class="edge"><title>Node3&#45;&gt;Node8</title>
<path fill="none" stroke="midnightblue" d="M289.627,-153.082C297.23,-156.073 304.936,-159.41 312,-163 329.143,-171.711 330.463,-179.112 348,-187 357.995,-191.496 369.201,-195.139 379.873,-198.023"/>
<polygon fill="midnightblue" stroke="midnightblue" points="379.331,-201.496 389.884,-200.557 381.049,-194.71 379.331,-201.496"/>
</g>
<!-- Node9 -->
<g id="node9" class="node"><title>Node9</title>
<g id="a_node9"><a xlink:href="classRa_1_1Engine_1_1ShaderProgram.html#a63faeab38c95dbcb4514a94c1e785890" target="_top" xlink:title="Ra::Engine::ShaderProgram\l::bind">
<polygon fill="white" stroke="black" points="355.5,-148 355.5,-178 494.5,-178 494.5,-148 355.5,-148"/>
<text text-anchor="start" x="363.5" y="-166" font-family="Helvetica,sans-Serif" font-size="10.00">Ra::Engine::ShaderProgram</text>
<text text-anchor="middle" x="425" y="-155" font-family="Helvetica,sans-Serif" font-size="10.00">::bind</text>
</a>
</g>
</g>
<!-- Node3&#45;&gt;Node9 -->
<g id="edge8" class="edge"><title>Node3&#45;&gt;Node9</title>
<path fill="none" stroke="midnightblue" d="M308.73,-146.99C320.541,-148.631 332.984,-150.359 345.151,-152.049"/>
<polygon fill="midnightblue" stroke="midnightblue" points="344.9,-155.547 355.287,-153.456 345.863,-148.614 344.9,-155.547"/>
</g>
<!-- Node10 -->
<g id="node10" class="node"><title>Node10</title>
<g id="a_node10"><a xlink:href="classRa_1_1Engine_1_1ShaderProgram.html#a5f7ae2880276f421c378810e3da65c4c" target="_top" xlink:title="Ra::Engine::ShaderProgram\l::setUniform">
<polygon fill="white" stroke="black" points="355.5,-99 355.5,-129 494.5,-129 494.5,-99 355.5,-99"/>
<text text-anchor="start" x="363.5" y="-117" font-family="Helvetica,sans-Serif" font-size="10.00">Ra::Engine::ShaderProgram</text>
<text text-anchor="middle" x="425" y="-106" font-family="Helvetica,sans-Serif" font-size="10.00">::setUniform</text>
</a>
</g>
</g>
<!-- Node3&#45;&gt;Node10 -->
<g id="edge9" class="edge"><title>Node3&#45;&gt;Node10</title>
<path fill="none" stroke="midnightblue" d="M308.73,-129.369C320.541,-127.795 332.984,-126.135 345.151,-124.513"/>
<polygon fill="midnightblue" stroke="midnightblue" points="345.837,-127.953 355.287,-123.162 344.912,-121.014 345.837,-127.953"/>
</g>
<!-- Node11 -->
<g id="node11" class="node"><title>Node11</title>
<g id="a_node11"><a xlink:href="classRa_1_1Engine_1_1RenderParameters.html#a0e08655c1c564da49146bcf7b382a1e4" target="_top" xlink:title="Ra::Engine::RenderParameters\l::bind">
<polygon fill="white" stroke="black" points="348.5,-50 348.5,-80 501.5,-80 501.5,-50 348.5,-50"/>
<text text-anchor="start" x="356.5" y="-68" font-family="Helvetica,sans-Serif" font-size="10.00">Ra::Engine::RenderParameters</text>
<text text-anchor="middle" x="425" y="-57" font-family="Helvetica,sans-Serif" font-size="10.00">::bind</text>
</a>
</g>
</g>
<!-- Node3&#45;&gt;Node11 -->
<g id="edge10" class="edge"><title>Node3&#45;&gt;Node11</title>
<path fill="none" stroke="midnightblue" d="M274.092,-122.997C294.648,-113.026 322.651,-99.9812 348,-90 353.767,-87.7291 359.833,-85.4903 365.919,-83.3413"/>
<polygon fill="midnightblue" stroke="midnightblue" points="367.148,-86.6198 375.457,-80.0467 364.862,-80.0033 367.148,-86.6198"/>
</g>
<!-- Node12 -->
<g id="node12" class="node"><title>Node12</title>
<g id="a_node12"><a xlink:href="classRa_1_1Engine_1_1RenderObject.html#a2d4f1d69544319def1b53ae6a66def9f" target="_top" xlink:title="Ra::Engine::RenderObject\l::getMesh">
<polygon fill="white" stroke="black" points="359.5,-1 359.5,-31 490.5,-31 490.5,-1 359.5,-1"/>
<text text-anchor="start" x="367.5" y="-19" font-family="Helvetica,sans-Serif" font-size="10.00">Ra::Engine::RenderObject</text>
<text text-anchor="middle" x="425" y="-8" font-family="Helvetica,sans-Serif" font-size="10.00">::getMesh</text>
</a>
</g>
</g>
<!-- Node3&#45;&gt;Node12 -->
<g id="edge11" class="edge"><title>Node3&#45;&gt;Node12</title>
<path fill="none" stroke="midnightblue" d="M256.546,-122.704C274.67,-101.531 310.175,-63.3761 348,-41 351.465,-38.9502 355.12,-37.0441 358.877,-35.2754"/>
<polygon fill="midnightblue" stroke="midnightblue" points="360.592,-38.3464 368.376,-31.1585 357.809,-31.9237 360.592,-38.3464"/>
</g>
<!-- Node5 -->
<g id="node5" class="node"><title>Node5</title>
<g id="a_node5"><a xlink:href="classRa_1_1Engine_1_1RenderObject.html#a46deaf8ca7b8eed5f2cbfaca72354d1a" target="_top" xlink:title="Ra::Engine::RenderObject\l::getTransform">
<polygon fill="white" stroke="black" points="538.5,-236 538.5,-266 669.5,-266 669.5,-236 538.5,-236"/>
<text text-anchor="start" x="546.5" y="-254" font-family="Helvetica,sans-Serif" font-size="10.00">Ra::Engine::RenderObject</text>
<text text-anchor="middle" x="604" y="-243" font-family="Helvetica,sans-Serif" font-size="10.00">::getTransform</text>
</a>
</g>
</g>
<!-- Node4&#45;&gt;Node5 -->
<g id="edge4" class="edge"><title>Node4&#45;&gt;Node5</title>
<path fill="none" stroke="midnightblue" d="M490.652,-251C502.765,-251 515.522,-251 527.92,-251"/>
<polygon fill="midnightblue" stroke="midnightblue" points="528.227,-254.5 538.227,-251 528.227,-247.5 528.227,-254.5"/>
</g>
<!-- Node6 -->
<g id="node6" class="node"><title>Node6</title>
<g id="a_node6"><a xlink:href="classRa_1_1Engine_1_1Component.html#a207c1dc2e97856c22e0767fb77162933" target="_top" xlink:title="Return the entity the component belongs to. ">
<polygon fill="white" stroke="black" points="706,-261 706,-291 828,-291 828,-261 706,-261"/>
<text text-anchor="start" x="714" y="-279" font-family="Helvetica,sans-Serif" font-size="10.00">Ra::Engine::Component</text>
<text text-anchor="middle" x="767" y="-268" font-family="Helvetica,sans-Serif" font-size="10.00">::getEntity</text>
</a>
</g>
</g>
<!-- Node5&#45;&gt;Node6 -->
<g id="edge5" class="edge"><title>Node5&#45;&gt;Node6</title>
<path fill="none" stroke="midnightblue" d="M669.557,-261.024C678.172,-262.362 687.04,-263.739 695.745,-265.091"/>
<polygon fill="midnightblue" stroke="midnightblue" points="695.447,-268.586 705.865,-266.662 696.521,-261.669 695.447,-268.586"/>
</g>
<!-- Node7 -->
<g id="node7" class="node"><title>Node7</title>
<g id="a_node7"><a xlink:href="classRa_1_1Engine_1_1Entity.html#adf0ef19e4b56e1d213b9898b60fe0e74" target="_top" xlink:title="Ra::Engine::Entity\l::getTransform">
<polygon fill="white" stroke="black" points="718.5,-212 718.5,-242 815.5,-242 815.5,-212 718.5,-212"/>
<text text-anchor="start" x="726.5" y="-230" font-family="Helvetica,sans-Serif" font-size="10.00">Ra::Engine::Entity</text>
<text text-anchor="middle" x="767" y="-219" font-family="Helvetica,sans-Serif" font-size="10.00">::getTransform</text>
</a>
</g>
</g>
<!-- Node5&#45;&gt;Node7 -->
<g id="edge6" class="edge"><title>Node5&#45;&gt;Node7</title>
<path fill="none" stroke="midnightblue" d="M669.557,-241.377C682.397,-239.463 695.8,-237.465 708.389,-235.588"/>
<polygon fill="midnightblue" stroke="midnightblue" points="708.909,-239.049 718.284,-234.113 707.877,-232.126 708.909,-239.049"/>
</g>
</g>
</svg>
