<?xml version="1.0" encoding="UTF-8" standalone="no"?>
<!DOCTYPE svg PUBLIC "-//W3C//DTD SVG 1.1//EN"
 "http://www.w3.org/Graphics/SVG/1.1/DTD/svg11.dtd">
<!-- Generated by graphviz version 2.36.0 (20140111.2315)
 -->
<!-- Title: RaTests::IteratorsTests Pages: 1 -->
<svg width="128pt" height="182pt"
 viewBox="0.00 0.00 128.00 182.00" xmlns="http://www.w3.org/2000/svg" xmlns:xlink="http://www.w3.org/1999/xlink">
<g id="graph0" class="graph" transform="scale(1 1) rotate(0) translate(4 178)">
<title>RaTests::IteratorsTests</title>
<polygon fill="white" stroke="none" points="-4,4 -4,-178 124,-178 124,4 -4,4"/>
<!-- Node1 -->
<g id="node1" class="node"><title>Node1</title>
<polygon fill="#bfbfbf" stroke="black" points="-0.5,-0.5 -0.5,-57.5 120.5,-57.5 120.5,-0.5 -0.5,-0.5"/>
<text text-anchor="middle" x="60" y="-45.5" font-family="Helvetica,sans-Serif" font-size="10.00">RaTests::IteratorsTests</text>
<polyline fill="none" stroke="black" points="-0.5,-38.5 120.5,-38.5 "/>
<text text-anchor="middle" x="60" y="-26.5" font-family="Helvetica,sans-Serif" font-size="10.00"> </text>
<polyline fill="none" stroke="black" points="-0.5,-19.5 120.5,-19.5 "/>
<text text-anchor="middle" x="60" y="-7.5" font-family="Helvetica,sans-Serif" font-size="10.00"> </text>
</g>
<!-- Node2 -->
<g id="node2" class="node"><title>Node2</title>
<g id="a_node2"><a xlink:href="classRaTests_1_1Test.html" target="_top" xlink:title="Base class for all tests. ">
<polygon fill="white" stroke="black" points="20,-94.5 20,-173.5 100,-173.5 100,-94.5 20,-94.5"/>
<text text-anchor="middle" x="60" y="-161.5" font-family="Helvetica,sans-Serif" font-size="10.00">RaTests::Test</text>
<polyline fill="none" stroke="black" points="20,-154.5 100,-154.5 "/>
<text text-anchor="middle" x="60" y="-142.5" font-family="Helvetica,sans-Serif" font-size="10.00"> </text>
<polyline fill="none" stroke="black" points="20,-135.5 100,-135.5 "/>
<text text-anchor="start" x="28" y="-123.5" font-family="Helvetica,sans-Serif" font-size="10.00">+ Test()</text>
<text text-anchor="start" x="28" y="-112.5" font-family="Helvetica,sans-Serif" font-size="10.00">+ run()</text>
<text text-anchor="start" x="28" y="-101.5" font-family="Helvetica,sans-Serif" font-size="10.00">+ ~Test()</text>
</a>
</g>
</g>
<!-- Node2&#45;&gt;Node1 -->
<g id="edge1" class="edge"><title>Node2&#45;&gt;Node1</title>
<path fill="none" stroke="midnightblue" d="M60,-84.1628C60,-75.0404 60,-65.8063 60,-57.6095"/>
<polygon fill="none" stroke="midnightblue" points="56.5001,-84.3535 60,-94.3536 63.5001,-84.3536 56.5001,-84.3535"/>
</g>
</g>
</svg>
