<?xml version="1.0" encoding="UTF-8" standalone="no"?>
<!DOCTYPE svg PUBLIC "-//W3C//DTD SVG 1.1//EN"
 "http://www.w3.org/Graphics/SVG/1.1/DTD/svg11.dtd">
<!-- Generated by graphviz version 2.36.0 (20140111.2315)
 -->
<!-- Title: Ra::IO::AssimpGeometryDataLoader::fetchNormals Pages: 1 -->
<svg width="326pt" height="175pt"
 viewBox="0.00 0.00 326.00 175.00" xmlns="http://www.w3.org/2000/svg" xmlns:xlink="http://www.w3.org/1999/xlink">
<g id="graph0" class="graph" transform="scale(1 1) rotate(0) translate(4 171)">
<title>Ra::IO::AssimpGeometryDataLoader::fetchNormals</title>
<polygon fill="white" stroke="none" points="-4,4 -4,-171 322,-171 322,4 -4,4"/>
<!-- Node1 -->
<g id="node1" class="node"><title>Node1</title>
<polygon fill="#bfbfbf" stroke="black" points="0.5,-63 0.5,-93 149.5,-93 149.5,-63 0.5,-63"/>
<text text-anchor="start" x="8.5" y="-81" font-family="Helvetica,sans-Serif" font-size="10.00">Ra::IO::AssimpGeometryData</text>
<text text-anchor="middle" x="75" y="-70" font-family="Helvetica,sans-Serif" font-size="10.00">Loader::fetchNormals</text>
</g>
<!-- Node2 -->
<g id="node2" class="node"><title>Node2</title>
<g id="a_node2"><a xlink:href="classRa_1_1Asset_1_1GeometryData.html#a3b706a2f7490107865f20c4cb71c5777" target="_top" xlink:title="Ra::Asset::GeometryData\l::getNormals">
<polygon fill="white" stroke="black" points="186.5,-137 186.5,-167 317.5,-167 317.5,-137 186.5,-137"/>
<text text-anchor="start" x="194.5" y="-155" font-family="Helvetica,sans-Serif" font-size="10.00">Ra::Asset::GeometryData</text>
<text text-anchor="middle" x="252" y="-144" font-family="Helvetica,sans-Serif" font-size="10.00">::getNormals</text>
</a>
</g>
</g>
<!-- Node1&#45;&gt;Node2 -->
<g id="edge1" class="edge"><title>Node1&#45;&gt;Node2</title>
<path fill="none" stroke="midnightblue" d="M108.538,-93.0265C130.333,-102.96 159.736,-116.108 186,-127 191.026,-129.084 196.293,-131.208 201.562,-133.294"/>
<polygon fill="midnightblue" stroke="midnightblue" points="200.407,-136.6 210.995,-136.988 202.96,-130.082 200.407,-136.6"/>
</g>
<!-- Node3 -->
<g id="node3" class="node"><title>Node3</title>
<g id="a_node3"><a xlink:href="classRa_1_1Asset_1_1GeometryData.html#ad31c0f120d5e88c40afefa79c29ae28a" target="_top" xlink:title="DATA. ">
<polygon fill="white" stroke="black" points="186.5,-88 186.5,-118 317.5,-118 317.5,-88 186.5,-88"/>
<text text-anchor="start" x="194.5" y="-106" font-family="Helvetica,sans-Serif" font-size="10.00">Ra::Asset::GeometryData</text>
<text text-anchor="middle" x="252" y="-95" font-family="Helvetica,sans-Serif" font-size="10.00">::getVerticesSize</text>
</a>
</g>
</g>
<!-- Node1&#45;&gt;Node3 -->
<g id="edge2" class="edge"><title>Node1&#45;&gt;Node3</title>
<path fill="none" stroke="midnightblue" d="M149.709,-88.5298C158.437,-89.7767 167.352,-91.0504 176.097,-92.2996"/>
<polygon fill="midnightblue" stroke="midnightblue" points="175.867,-95.8022 186.262,-93.7517 176.857,-88.8726 175.867,-95.8022"/>
</g>
<!-- Node4 -->
<g id="node4" class="node"><title>Node4</title>
<g id="a_node4"><a xlink:href="classRa_1_1Asset_1_1GeometryData.html#ad917f1a50860ee72fa2aa8f0d557c8c5" target="_top" xlink:title="DUPLICATES. ">
<polygon fill="white" stroke="black" points="186.5,-39 186.5,-69 317.5,-69 317.5,-39 186.5,-39"/>
<text text-anchor="start" x="194.5" y="-57" font-family="Helvetica,sans-Serif" font-size="10.00">Ra::Asset::GeometryData</text>
<text text-anchor="middle" x="252" y="-46" font-family="Helvetica,sans-Serif" font-size="10.00">::getDuplicateTable</text>
</a>
</g>
</g>
<!-- Node1&#45;&gt;Node4 -->
<g id="edge3" class="edge"><title>Node1&#45;&gt;Node4</title>
<path fill="none" stroke="midnightblue" d="M149.709,-67.8914C158.437,-66.6944 167.352,-65.4717 176.097,-64.2724"/>
<polygon fill="midnightblue" stroke="midnightblue" points="176.83,-67.7047 186.262,-62.8784 175.879,-60.7696 176.83,-67.7047"/>
</g>
<!-- Node5 -->
<g id="node5" class="node"><title>Node5</title>
<g id="a_node5"><a xlink:href="namespaceRa_1_1IO.html#aef6c50424873964fcea0008be55d4a34" target="_top" xlink:title="Ra::IO::assimpToCore">
<polygon fill="white" stroke="black" points="194,-0.5 194,-19.5 310,-19.5 310,-0.5 194,-0.5"/>
<text text-anchor="middle" x="252" y="-7.5" font-family="Helvetica,sans-Serif" font-size="10.00">Ra::IO::assimpToCore</text>
</a>
</g>
</g>
<!-- Node1&#45;&gt;Node5 -->
<g id="edge4" class="edge"><title>Node1&#45;&gt;Node5</title>
<path fill="none" stroke="midnightblue" d="M107.858,-62.9586C129.613,-52.9708 159.234,-39.9216 186,-30 192.926,-27.4326 200.349,-24.9256 207.612,-22.6028"/>
<polygon fill="midnightblue" stroke="midnightblue" points="208.853,-25.8821 217.356,-19.5612 206.767,-19.2001 208.853,-25.8821"/>
</g>
</g>
</svg>
