<?xml version="1.0" encoding="UTF-8" standalone="no"?>
<!DOCTYPE svg PUBLIC "-//W3C//DTD SVG 1.1//EN"
 "http://www.w3.org/Graphics/SVG/1.1/DTD/svg11.dtd">
<!-- Generated by graphviz version 2.36.0 (20140111.2315)
 -->
<!-- Title: Ra::IO::AssimpHandleDataLoader::loadData Pages: 1 -->
<svg width="808pt" height="648pt"
 viewBox="0.00 0.00 808.00 648.00" xmlns="http://www.w3.org/2000/svg" xmlns:xlink="http://www.w3.org/1999/xlink">
<g id="graph0" class="graph" transform="scale(1 1) rotate(0) translate(4 644)">
<title>Ra::IO::AssimpHandleDataLoader::loadData</title>
<polygon fill="white" stroke="none" points="-4,4 -4,-644 804,-644 804,4 -4,4"/>
<!-- Node1 -->
<g id="node1" class="node"><title>Node1</title>
<polygon fill="#bfbfbf" stroke="black" points="0.5,-469 0.5,-499 137.5,-499 137.5,-469 0.5,-469"/>
<text text-anchor="start" x="8.5" y="-487" font-family="Helvetica,sans-Serif" font-size="10.00">Ra::IO::AssimpHandleData</text>
<text text-anchor="middle" x="69" y="-476" font-family="Helvetica,sans-Serif" font-size="10.00">Loader::loadData</text>
</g>
<!-- Node2 -->
<g id="node2" class="node"><title>Node2</title>
<g id="a_node2"><a xlink:href="classRa_1_1IO_1_1AssimpHandleDataLoader.html#adb8537824f65bbf5681e3c412865aafa" target="_top" xlink:title="QUERY. ">
<polygon fill="white" stroke="black" points="174.5,-540 174.5,-570 311.5,-570 311.5,-540 174.5,-540"/>
<text text-anchor="start" x="182.5" y="-558" font-family="Helvetica,sans-Serif" font-size="10.00">Ra::IO::AssimpHandleData</text>
<text text-anchor="middle" x="243" y="-547" font-family="Helvetica,sans-Serif" font-size="10.00">Loader::sceneHasHandle</text>
</a>
</g>
</g>
<!-- Node1&#45;&gt;Node2 -->
<g id="edge1" class="edge"><title>Node1&#45;&gt;Node2</title>
<path fill="none" stroke="midnightblue" d="M106.477,-499.057C132.587,-509.835 167.937,-524.427 195.986,-536.006"/>
<polygon fill="midnightblue" stroke="midnightblue" points="194.997,-539.384 205.576,-539.964 197.668,-532.914 194.997,-539.384"/>
</g>
<!-- Node5 -->
<g id="node5" class="node"><title>Node5</title>
<g id="a_node5"><a xlink:href="classRa_1_1IO_1_1AssimpHandleDataLoader.html#a5658fd82502d36f0d8e9e935a2cb7ae6" target="_top" xlink:title="LOAD. ">
<polygon fill="white" stroke="black" points="174.5,-398 174.5,-428 311.5,-428 311.5,-398 174.5,-398"/>
<text text-anchor="start" x="182.5" y="-416" font-family="Helvetica,sans-Serif" font-size="10.00">Ra::IO::AssimpHandleData</text>
<text text-anchor="middle" x="243" y="-405" font-family="Helvetica,sans-Serif" font-size="10.00">Loader::loadHandleData</text>
</a>
</g>
</g>
<!-- Node1&#45;&gt;Node5 -->
<g id="edge4" class="edge"><title>Node1&#45;&gt;Node5</title>
<path fill="none" stroke="midnightblue" d="M106.477,-468.943C132.587,-458.165 167.937,-443.573 195.986,-431.994"/>
<polygon fill="midnightblue" stroke="midnightblue" points="197.668,-435.086 205.576,-428.036 194.997,-428.616 197.668,-435.086"/>
</g>
<!-- Node3 -->
<g id="node3" class="node"><title>Node3</title>
<g id="a_node3"><a xlink:href="classRa_1_1IO_1_1AssimpHandleDataLoader.html#a490e0e5bd008f42af1cf31af678bec27" target="_top" xlink:title="Ra::IO::AssimpHandleData\lLoader::sceneHandleSize">
<polygon fill="white" stroke="black" points="365.5,-609 365.5,-639 502.5,-639 502.5,-609 365.5,-609"/>
<text text-anchor="start" x="373.5" y="-627" font-family="Helvetica,sans-Serif" font-size="10.00">Ra::IO::AssimpHandleData</text>
<text text-anchor="middle" x="434" y="-616" font-family="Helvetica,sans-Serif" font-size="10.00">Loader::sceneHandleSize</text>
</a>
</g>
</g>
<!-- Node2&#45;&gt;Node3 -->
<g id="edge2" class="edge"><title>Node2&#45;&gt;Node3</title>
<path fill="none" stroke="midnightblue" d="M276.874,-570.046C297.149,-579.04 323.815,-590.359 348,-599 354.672,-601.384 361.695,-603.719 368.727,-605.946"/>
<polygon fill="midnightblue" stroke="midnightblue" points="367.701,-609.293 378.289,-608.911 369.774,-602.606 367.701,-609.293"/>
</g>
<!-- Node4 -->
<g id="node4" class="node"><title>Node4</title>
<g id="a_node4"><a xlink:href="namespaceRa_1_1Core.html#abc0a3625137098b67838fe52edd480f9" target="_top" xlink:title="SIZE. ">
<polygon fill="white" stroke="black" points="720,-360.5 720,-379.5 800,-379.5 800,-360.5 720,-360.5"/>
<text text-anchor="middle" x="760" y="-367.5" font-family="Helvetica,sans-Serif" font-size="10.00">Ra::Core::size</text>
</a>
</g>
</g>
<!-- Node3&#45;&gt;Node4 -->
<g id="edge3" class="edge"><title>Node3&#45;&gt;Node4</title>
<path fill="none" stroke="midnightblue" d="M502.73,-635.14C557.531,-640.195 633.616,-637.731 684,-597 748.729,-544.672 758.07,-435.025 759.079,-389.976"/>
<polygon fill="midnightblue" stroke="midnightblue" points="762.581,-389.796 759.184,-379.76 755.581,-389.723 762.581,-389.796"/>
</g>
<!-- Node6 -->
<g id="node6" class="node"><title>Node6</title>
<g id="a_node6"><a xlink:href="classRa_1_1IO_1_1AssimpHandleDataLoader.html#a19b7ea207946b06952e15bff627d4887" target="_top" xlink:title="NAME. ">
<polygon fill="white" stroke="black" points="365.5,-325 365.5,-355 502.5,-355 502.5,-325 365.5,-325"/>
<text text-anchor="start" x="373.5" y="-343" font-family="Helvetica,sans-Serif" font-size="10.00">Ra::IO::AssimpHandleData</text>
<text text-anchor="middle" x="434" y="-332" font-family="Helvetica,sans-Serif" font-size="10.00">Loader::fetchName</text>
</a>
</g>
</g>
<!-- Node5&#45;&gt;Node6 -->
<g id="edge5" class="edge"><title>Node5&#45;&gt;Node6</title>
<path fill="none" stroke="midnightblue" d="M272.587,-397.962C293.176,-387.522 321.826,-373.785 348,-364 353.429,-361.971 359.107,-360.017 364.844,-358.162"/>
<polygon fill="midnightblue" stroke="midnightblue" points="366.019,-361.461 374.518,-355.135 363.929,-354.781 366.019,-361.461"/>
</g>
<!-- Node9 -->
<g id="node9" class="node"><title>Node9</title>
<g id="a_node9"><a xlink:href="classRa_1_1IO_1_1AssimpHandleDataLoader.html#aba6ae2e060a45d0f6883cdbfa22cbee6" target="_top" xlink:title="TYPE. ">
<polygon fill="white" stroke="black" points="365.5,-25 365.5,-55 502.5,-55 502.5,-25 365.5,-25"/>
<text text-anchor="start" x="373.5" y="-43" font-family="Helvetica,sans-Serif" font-size="10.00">Ra::IO::AssimpHandleData</text>
<text text-anchor="middle" x="434" y="-32" font-family="Helvetica,sans-Serif" font-size="10.00">Loader::fetchType</text>
</a>
</g>
</g>
<!-- Node5&#45;&gt;Node9 -->
<g id="edge8" class="edge"><title>Node5&#45;&gt;Node9</title>
<path fill="none" stroke="midnightblue" d="M246.39,-397.695C254.213,-351.279 282.415,-209.391 348,-113 362.012,-92.4068 383.272,-74.151 401.024,-61.0464"/>
<polygon fill="midnightblue" stroke="midnightblue" points="403.319,-63.7081 409.41,-55.0393 399.243,-58.0175 403.319,-63.7081"/>
</g>
<!-- Node11 -->
<g id="node11" class="node"><title>Node11</title>
<g id="a_node11"><a xlink:href="classRa_1_1IO_1_1AssimpHandleDataLoader.html#a46e6b0b9e109dd74e6bd619592678545" target="_top" xlink:title="Ra::IO::AssimpHandleData\lLoader::loadHandleComponentData">
<polygon fill="white" stroke="black" points="348,-423 348,-453 520,-453 520,-423 348,-423"/>
<text text-anchor="start" x="356" y="-441" font-family="Helvetica,sans-Serif" font-size="10.00">Ra::IO::AssimpHandleData</text>
<text text-anchor="middle" x="434" y="-430" font-family="Helvetica,sans-Serif" font-size="10.00">Loader::loadHandleComponentData</text>
</a>
</g>
</g>
<!-- Node5&#45;&gt;Node11 -->
<g id="edge10" class="edge"><title>Node5&#45;&gt;Node11</title>
<path fill="none" stroke="midnightblue" d="M311.7,-421.955C320.242,-423.085 329.103,-424.257 337.97,-425.43"/>
<polygon fill="midnightblue" stroke="midnightblue" points="337.594,-428.911 347.967,-426.752 338.512,-421.971 337.594,-428.911"/>
</g>
<!-- Node15 -->
<g id="node15" class="node"><title>Node15</title>
<g id="a_node15"><a xlink:href="classRa_1_1IO_1_1AssimpHandleDataLoader.html#af3185635871638d8bc19e85d0c978f80" target="_top" xlink:title="Ra::IO::AssimpHandleData\lLoader::loadHandleTopologyData">
<polygon fill="white" stroke="black" points="353.5,-245 353.5,-275 514.5,-275 514.5,-245 353.5,-245"/>
<text text-anchor="start" x="361.5" y="-263" font-family="Helvetica,sans-Serif" font-size="10.00">Ra::IO::AssimpHandleData</text>
<text text-anchor="middle" x="434" y="-252" font-family="Helvetica,sans-Serif" font-size="10.00">Loader::loadHandleTopologyData</text>
</a>
</g>
</g>
<!-- Node5&#45;&gt;Node15 -->
<g id="edge17" class="edge"><title>Node5&#45;&gt;Node15</title>
<path fill="none" stroke="midnightblue" d="M258.386,-397.821C277.781,-377.748 313.836,-341.79 348,-315 363.725,-302.669 382.246,-290.444 397.98,-280.662"/>
<polygon fill="midnightblue" stroke="midnightblue" points="400.185,-283.415 406.879,-275.202 396.525,-277.448 400.185,-283.415"/>
</g>
<!-- Node20 -->
<g id="node20" class="node"><title>Node20</title>
<g id="a_node20"><a xlink:href="classRa_1_1IO_1_1AssimpHandleDataLoader.html#a6deb78de76d1650cbb521a7c9c85a86e" target="_top" xlink:title="VERTEX SIZE. ">
<polygon fill="white" stroke="black" points="365.5,-123 365.5,-153 502.5,-153 502.5,-123 365.5,-123"/>
<text text-anchor="start" x="373.5" y="-141" font-family="Helvetica,sans-Serif" font-size="10.00">Ra::IO::AssimpHandleData</text>
<text text-anchor="middle" x="434" y="-130" font-family="Helvetica,sans-Serif" font-size="10.00">Loader::fetchVertexSize</text>
</a>
</g>
</g>
<!-- Node5&#45;&gt;Node20 -->
<g id="edge25" class="edge"><title>Node5&#45;&gt;Node20</title>
<path fill="none" stroke="midnightblue" d="M251.705,-397.631C267.82,-366.023 307.003,-291.923 348,-235 367.552,-207.853 393.236,-179.352 411.234,-160.325"/>
<polygon fill="midnightblue" stroke="midnightblue" points="413.826,-162.678 418.199,-153.028 408.762,-157.845 413.826,-162.678"/>
</g>
<!-- Node22 -->
<g id="node22" class="node"><title>Node22</title>
<g id="a_node22"><a xlink:href="classRa_1_1Asset_1_1HandleData.html#adeb89ae26f34f0878a089ed7ecd64e24" target="_top" xlink:title="Ra::Asset::HandleData\l::getComponentData">
<polygon fill="white" stroke="black" points="374.5,-560 374.5,-590 493.5,-590 493.5,-560 374.5,-560"/>
<text text-anchor="start" x="382.5" y="-578" font-family="Helvetica,sans-Serif" font-size="10.00">Ra::Asset::HandleData</text>
<text text-anchor="middle" x="434" y="-567" font-family="Helvetica,sans-Serif" font-size="10.00">::getComponentData</text>
</a>
</g>
</g>
<!-- Node5&#45;&gt;Node22 -->
<g id="edge30" class="edge"><title>Node5&#45;&gt;Node22</title>
<path fill="none" stroke="midnightblue" d="M251.4,-428.303C265.901,-456.662 300.802,-517.449 348,-550 353.152,-553.553 358.814,-556.609 364.692,-559.234"/>
<polygon fill="midnightblue" stroke="midnightblue" points="363.484,-562.521 374.068,-563.017 366.104,-556.03 363.484,-562.521"/>
</g>
<!-- Node23 -->
<g id="node23" class="node"><title>Node23</title>
<g id="a_node23"><a xlink:href="namespaceRa_1_1Core_1_1Algorithm.html#aea294cdb6f4f0d85955bdcccb22886ec" target="_top" xlink:title="Ra::Core::Algorithm::t">
<polygon fill="white" stroke="black" points="377.5,-521.5 377.5,-540.5 490.5,-540.5 490.5,-521.5 377.5,-521.5"/>
<text text-anchor="middle" x="434" y="-528.5" font-family="Helvetica,sans-Serif" font-size="10.00">Ra::Core::Algorithm::t</text>
</a>
</g>
</g>
<!-- Node5&#45;&gt;Node23 -->
<g id="edge31" class="edge"><title>Node5&#45;&gt;Node23</title>
<path fill="none" stroke="midnightblue" d="M255.657,-428.191C273.232,-449.993 308.67,-489.85 348,-511 354.1,-514.28 360.73,-517.027 367.507,-519.326"/>
<polygon fill="midnightblue" stroke="midnightblue" points="366.909,-522.803 377.495,-522.383 368.958,-516.109 366.909,-522.803"/>
</g>
<!-- Node24 -->
<g id="node24" class="node"><title>Node24</title>
<g id="a_node24"><a xlink:href="classRa_1_1Asset_1_1HandleData.html#a8d76fcc29440acb7fe3489f4c0fd9914" target="_top" xlink:title="DEBUG. ">
<polygon fill="white" stroke="black" points="374.5,-472 374.5,-502 493.5,-502 493.5,-472 374.5,-472"/>
<text text-anchor="start" x="382.5" y="-490" font-family="Helvetica,sans-Serif" font-size="10.00">Ra::Asset::HandleData</text>
<text text-anchor="middle" x="434" y="-479" font-family="Helvetica,sans-Serif" font-size="10.00">::displayInfo</text>
</a>
</g>
</g>
<!-- Node5&#45;&gt;Node24 -->
<g id="edge32" class="edge"><title>Node5&#45;&gt;Node24</title>
<path fill="none" stroke="midnightblue" d="M273.062,-428.174C293.634,-438.545 322.066,-452.144 348,-462 354.279,-464.386 360.89,-466.686 367.536,-468.859"/>
<polygon fill="midnightblue" stroke="midnightblue" points="366.674,-472.258 377.264,-471.948 368.793,-465.586 366.674,-472.258"/>
</g>
<!-- Node25 -->
<g id="node25" class="node"><title>Node25</title>
<g id="a_node25"><a xlink:href="classRa_1_1IO_1_1AssimpHandleDataLoader.html#acc34e56d68b6b1094a993eaa8730cdb2" target="_top" xlink:title="Ra::IO::AssimpHandleData\lLoader::loadHandleFrame">
<polygon fill="white" stroke="black" points="365.5,-374 365.5,-404 502.5,-404 502.5,-374 365.5,-374"/>
<text text-anchor="start" x="373.5" y="-392" font-family="Helvetica,sans-Serif" font-size="10.00">Ra::IO::AssimpHandleData</text>
<text text-anchor="middle" x="434" y="-381" font-family="Helvetica,sans-Serif" font-size="10.00">Loader::loadHandleFrame</text>
</a>
</g>
</g>
<!-- Node5&#45;&gt;Node25 -->
<g id="edge33" class="edge"><title>Node5&#45;&gt;Node25</title>
<path fill="none" stroke="midnightblue" d="M311.7,-404.403C325.9,-402.6 340.98,-400.685 355.506,-398.841"/>
<polygon fill="midnightblue" stroke="midnightblue" points="355.976,-402.309 365.456,-397.577 355.094,-395.365 355.976,-402.309"/>
</g>
<!-- Node7 -->
<g id="node7" class="node"><title>Node7</title>
<g id="a_node7"><a xlink:href="namespaceRa_1_1IO.html#aef6c50424873964fcea0008be55d4a34" target="_top" xlink:title="Ra::IO::assimpToCore">
<polygon fill="white" stroke="black" points="562,-382.5 562,-401.5 678,-401.5 678,-382.5 562,-382.5"/>
<text text-anchor="middle" x="620" y="-389.5" font-family="Helvetica,sans-Serif" font-size="10.00">Ra::IO::assimpToCore</text>
</a>
</g>
</g>
<!-- Node6&#45;&gt;Node7 -->
<g id="edge6" class="edge"><title>Node6&#45;&gt;Node7</title>
<path fill="none" stroke="midnightblue" d="M488.505,-355.104C498.95,-358.053 509.818,-361.123 520,-364 538.104,-369.116 558.07,-374.762 575.3,-379.636"/>
<polygon fill="midnightblue" stroke="midnightblue" points="574.52,-383.052 585.095,-382.407 576.425,-376.317 574.52,-383.052"/>
</g>
<!-- Node8 -->
<g id="node8" class="node"><title>Node8</title>
<g id="a_node8"><a xlink:href="classRa_1_1Asset_1_1HandleData.html#a3bfb8067f397b53e3d45d490e8ebfc20" target="_top" xlink:title="NAME. ">
<polygon fill="white" stroke="black" points="560.5,-333 560.5,-363 679.5,-363 679.5,-333 560.5,-333"/>
<text text-anchor="start" x="568.5" y="-351" font-family="Helvetica,sans-Serif" font-size="10.00">Ra::Asset::HandleData</text>
<text text-anchor="middle" x="620" y="-340" font-family="Helvetica,sans-Serif" font-size="10.00">::setName</text>
</a>
</g>
</g>
<!-- Node6&#45;&gt;Node8 -->
<g id="edge7" class="edge"><title>Node6&#45;&gt;Node8</title>
<path fill="none" stroke="midnightblue" d="M502.731,-342.945C518.281,-343.621 534.828,-344.34 550.415,-345.018"/>
<polygon fill="midnightblue" stroke="midnightblue" points="550.356,-348.519 560.498,-345.456 550.66,-341.525 550.356,-348.519"/>
</g>
<!-- Node10 -->
<g id="node10" class="node"><title>Node10</title>
<g id="a_node10"><a xlink:href="classRa_1_1Asset_1_1HandleData.html#a41fe733034adf1db3901419f859bbffd" target="_top" xlink:title="Ra::Asset::HandleData\l::setType">
<polygon fill="white" stroke="black" points="560.5,-0 560.5,-30 679.5,-30 679.5,-0 560.5,-0"/>
<text text-anchor="start" x="568.5" y="-18" font-family="Helvetica,sans-Serif" font-size="10.00">Ra::Asset::HandleData</text>
<text text-anchor="middle" x="620" y="-7" font-family="Helvetica,sans-Serif" font-size="10.00">::setType</text>
</a>
</g>
</g>
<!-- Node9&#45;&gt;Node10 -->
<g id="edge9" class="edge"><title>Node9&#45;&gt;Node10</title>
<path fill="none" stroke="midnightblue" d="M502.731,-30.7974C518.281,-28.6846 534.828,-26.4364 550.415,-24.3187"/>
<polygon fill="midnightblue" stroke="midnightblue" points="551.061,-27.7631 560.498,-22.9486 550.118,-20.8269 551.061,-27.7631"/>
</g>
<!-- Node11&#45;&gt;Node4 -->
<g id="edge11" class="edge"><title>Node11&#45;&gt;Node4</title>
<path fill="none" stroke="midnightblue" d="M511.023,-453.028C572.76,-463.712 654.279,-473.921 684,-460 715.306,-445.337 738.103,-410.471 749.889,-388.693"/>
<polygon fill="midnightblue" stroke="midnightblue" points="753.041,-390.219 754.521,-379.728 746.821,-387.006 753.041,-390.219"/>
</g>
<!-- Node11&#45;&gt;Node7 -->
<g id="edge13" class="edge"><title>Node11&#45;&gt;Node7</title>
<path fill="none" stroke="midnightblue" d="M495.248,-422.938C519.808,-416.798 547.808,-409.798 570.955,-404.011"/>
<polygon fill="midnightblue" stroke="midnightblue" points="572.033,-407.35 580.886,-401.529 570.335,-400.559 572.033,-407.35"/>
</g>
<!-- Node12 -->
<g id="node12" class="node"><title>Node12</title>
<g id="a_node12"><a xlink:href="classRa_1_1Asset_1_1HandleData.html#ace178af654bd9751e7cc0122cf7e7a34" target="_top" xlink:title="Ra::Asset::HandleData\l::needEndNodes">
<polygon fill="white" stroke="black" points="560.5,-558 560.5,-588 679.5,-588 679.5,-558 560.5,-558"/>
<text text-anchor="start" x="568.5" y="-576" font-family="Helvetica,sans-Serif" font-size="10.00">Ra::Asset::HandleData</text>
<text text-anchor="middle" x="620" y="-565" font-family="Helvetica,sans-Serif" font-size="10.00">::needEndNodes</text>
</a>
</g>
</g>
<!-- Node11&#45;&gt;Node12 -->
<g id="edge12" class="edge"><title>Node11&#45;&gt;Node12</title>
<path fill="none" stroke="midnightblue" d="M507.095,-453.045C511.731,-455.582 516.097,-458.544 520,-462 551.021,-489.471 526.428,-518.975 556,-548 557.603,-549.574 559.318,-551.052 561.119,-552.44"/>
<polygon fill="midnightblue" stroke="midnightblue" points="559.21,-555.374 569.483,-557.965 563.068,-549.533 559.21,-555.374"/>
</g>
<!-- Node13 -->
<g id="node13" class="node"><title>Node13</title>
<g id="a_node13"><a xlink:href="classRa_1_1Asset_1_1HandleData.html#a5ba6a5c751773be688faae15b092359d" target="_top" xlink:title="Ra::Asset::HandleData\l::setComponents">
<polygon fill="white" stroke="black" points="560.5,-421 560.5,-451 679.5,-451 679.5,-421 560.5,-421"/>
<text text-anchor="start" x="568.5" y="-439" font-family="Helvetica,sans-Serif" font-size="10.00">Ra::Asset::HandleData</text>
<text text-anchor="middle" x="620" y="-428" font-family="Helvetica,sans-Serif" font-size="10.00">::setComponents</text>
</a>
</g>
</g>
<!-- Node11&#45;&gt;Node13 -->
<g id="edge14" class="edge"><title>Node11&#45;&gt;Node13</title>
<path fill="none" stroke="midnightblue" d="M520.267,-437.073C530.314,-436.964 540.469,-436.854 550.248,-436.747"/>
<polygon fill="midnightblue" stroke="midnightblue" points="550.322,-440.247 560.283,-436.638 550.246,-433.247 550.322,-440.247"/>
</g>
<!-- Node14 -->
<g id="node14" class="node"><title>Node14</title>
<g id="a_node14"><a xlink:href="classRa_1_1Asset_1_1HandleData.html#a713b25fdea78737ec5e664a6aabc9549" target="_top" xlink:title="NAME TABLE. ">
<polygon fill="white" stroke="black" points="560.5,-509 560.5,-539 679.5,-539 679.5,-509 560.5,-509"/>
<text text-anchor="start" x="568.5" y="-527" font-family="Helvetica,sans-Serif" font-size="10.00">Ra::Asset::HandleData</text>
<text text-anchor="middle" x="620" y="-516" font-family="Helvetica,sans-Serif" font-size="10.00">::setNameTable</text>
</a>
</g>
</g>
<!-- Node11&#45;&gt;Node14 -->
<g id="edge16" class="edge"><title>Node11&#45;&gt;Node14</title>
<path fill="none" stroke="midnightblue" d="M500.263,-453.116C507.105,-455.668 513.813,-458.613 520,-462 538.777,-472.28 538.159,-482.169 556,-494 561.562,-497.688 567.649,-501.179 573.775,-504.385"/>
<polygon fill="midnightblue" stroke="midnightblue" points="572.216,-507.519 582.725,-508.871 575.353,-501.261 572.216,-507.519"/>
</g>
<!-- Node13&#45;&gt;Node4 -->
<g id="edge15" class="edge"><title>Node13&#45;&gt;Node4</title>
<path fill="none" stroke="midnightblue" d="M660.972,-420.994C668.686,-417.858 676.651,-414.451 684,-411 701.079,-402.98 719.694,-392.813 734.106,-384.609"/>
<polygon fill="midnightblue" stroke="midnightblue" points="735.988,-387.564 742.911,-379.544 732.498,-381.497 735.988,-387.564"/>
</g>
<!-- Node15&#45;&gt;Node4 -->
<g id="edge18" class="edge"><title>Node15&#45;&gt;Node4</title>
<path fill="none" stroke="midnightblue" d="M504.362,-275.006C566.275,-288.864 651.965,-309.312 684,-323 703.425,-331.3 723.615,-344.239 738.146,-354.441"/>
<polygon fill="midnightblue" stroke="midnightblue" points="736.242,-357.382 746.406,-360.374 740.326,-351.697 736.242,-357.382"/>
</g>
<!-- Node15&#45;&gt;Node7 -->
<g id="edge21" class="edge"><title>Node15&#45;&gt;Node7</title>
<path fill="none" stroke="midnightblue" d="M464.826,-275.049C482.264,-284.825 503.932,-298.754 520,-315 541.07,-336.303 532.283,-353.69 556,-372 558.992,-374.31 562.257,-376.356 565.675,-378.169"/>
<polygon fill="midnightblue" stroke="midnightblue" points="564.449,-381.457 574.998,-382.442 567.366,-375.094 564.449,-381.457"/>
</g>
<!-- Node16 -->
<g id="node16" class="node"><title>Node16</title>
<g id="a_node16"><a xlink:href="classRa_1_1Asset_1_1HandleData.html#aac2741c32466647b58b76e8310d90ecb" target="_top" xlink:title="DATA. ">
<polygon fill="white" stroke="black" points="556.5,-147 556.5,-177 683.5,-177 683.5,-147 556.5,-147"/>
<text text-anchor="start" x="564.5" y="-165" font-family="Helvetica,sans-Serif" font-size="10.00">Ra::Asset::HandleData</text>
<text text-anchor="middle" x="620" y="-154" font-family="Helvetica,sans-Serif" font-size="10.00">::getComponentDataSize</text>
</a>
</g>
</g>
<!-- Node15&#45;&gt;Node16 -->
<g id="edge19" class="edge"><title>Node15&#45;&gt;Node16</title>
<path fill="none" stroke="midnightblue" d="M457.04,-244.802C480.768,-228.854 519.972,-203.69 556,-186 559.505,-184.279 563.166,-182.599 566.883,-180.979"/>
<polygon fill="midnightblue" stroke="midnightblue" points="568.31,-184.176 576.182,-177.084 565.606,-177.719 568.31,-184.176"/>
</g>
<!-- Node17 -->
<g id="node17" class="node"><title>Node17</title>
<g id="a_node17"><a xlink:href="classRa_1_1Asset_1_1HandleData.html#af6b0000a98985534b50a9817de5bfd58" target="_top" xlink:title="Ra::Asset::HandleData\l::getComponent">
<polygon fill="white" stroke="black" points="560.5,-98 560.5,-128 679.5,-128 679.5,-98 560.5,-98"/>
<text text-anchor="start" x="568.5" y="-116" font-family="Helvetica,sans-Serif" font-size="10.00">Ra::Asset::HandleData</text>
<text text-anchor="middle" x="620" y="-105" font-family="Helvetica,sans-Serif" font-size="10.00">::getComponent</text>
</a>
</g>
</g>
<!-- Node15&#45;&gt;Node17 -->
<g id="edge20" class="edge"><title>Node15&#45;&gt;Node17</title>
<path fill="none" stroke="midnightblue" d="M446.413,-244.688C466.158,-219.148 509.108,-167.641 556,-137 558.388,-135.439 560.893,-133.958 563.47,-132.556"/>
<polygon fill="midnightblue" stroke="midnightblue" points="565.054,-135.677 572.448,-128.089 561.936,-129.41 565.054,-135.677"/>
</g>
<!-- Node18 -->
<g id="node18" class="node"><title>Node18</title>
<g id="a_node18"><a xlink:href="classRa_1_1Asset_1_1HandleData.html#aaee6cb0cd26f0745e444ac7bd0412454" target="_top" xlink:title="Ra::Asset::HandleData\l::getIndexOf">
<polygon fill="white" stroke="black" points="560.5,-245 560.5,-275 679.5,-275 679.5,-245 560.5,-245"/>
<text text-anchor="start" x="568.5" y="-263" font-family="Helvetica,sans-Serif" font-size="10.00">Ra::Asset::HandleData</text>
<text text-anchor="middle" x="620" y="-252" font-family="Helvetica,sans-Serif" font-size="10.00">::getIndexOf</text>
</a>
</g>
</g>
<!-- Node15&#45;&gt;Node18 -->
<g id="edge22" class="edge"><title>Node15&#45;&gt;Node18</title>
<path fill="none" stroke="midnightblue" d="M514.635,-260C526.504,-260 538.653,-260 550.271,-260"/>
<polygon fill="midnightblue" stroke="midnightblue" points="550.325,-263.5 560.325,-260 550.325,-256.5 550.325,-263.5"/>
</g>
<!-- Node19 -->
<g id="node19" class="node"><title>Node19</title>
<g id="a_node19"><a xlink:href="classRa_1_1Asset_1_1HandleData.html#ad54e901fb20565f1006b721ad17c375a" target="_top" xlink:title="Ra::Asset::HandleData\l::setEdges">
<polygon fill="white" stroke="black" points="560.5,-196 560.5,-226 679.5,-226 679.5,-196 560.5,-196"/>
<text text-anchor="start" x="568.5" y="-214" font-family="Helvetica,sans-Serif" font-size="10.00">Ra::Asset::HandleData</text>
<text text-anchor="middle" x="620" y="-203" font-family="Helvetica,sans-Serif" font-size="10.00">::setEdges</text>
</a>
</g>
</g>
<!-- Node15&#45;&gt;Node19 -->
<g id="edge23" class="edge"><title>Node15&#45;&gt;Node19</title>
<path fill="none" stroke="midnightblue" d="M491.457,-244.965C510.884,-239.792 532.811,-233.952 552.935,-228.593"/>
<polygon fill="midnightblue" stroke="midnightblue" points="553.888,-231.962 562.65,-226.006 552.086,-225.197 553.888,-231.962"/>
</g>
<!-- Node19&#45;&gt;Node4 -->
<g id="edge24" class="edge"><title>Node19&#45;&gt;Node4</title>
<path fill="none" stroke="midnightblue" d="M670.731,-226.008C675.491,-228.574 680.019,-231.552 684,-235 720.838,-266.91 743.176,-321.57 753.032,-350.583"/>
<polygon fill="midnightblue" stroke="midnightblue" points="749.785,-351.916 756.203,-360.346 756.443,-349.754 749.785,-351.916"/>
</g>
<!-- Node20&#45;&gt;Node16 -->
<g id="edge26" class="edge"><title>Node20&#45;&gt;Node16</title>
<path fill="none" stroke="midnightblue" d="M502.731,-146.834C516.831,-148.674 531.75,-150.62 546.029,-152.482"/>
<polygon fill="midnightblue" stroke="midnightblue" points="545.924,-155.998 556.293,-153.821 546.83,-149.057 545.924,-155.998"/>
</g>
<!-- Node20&#45;&gt;Node17 -->
<g id="edge27" class="edge"><title>Node20&#45;&gt;Node17</title>
<path fill="none" stroke="midnightblue" d="M502.731,-128.797C518.281,-126.685 534.828,-124.436 550.415,-122.319"/>
<polygon fill="midnightblue" stroke="midnightblue" points="551.061,-125.763 560.498,-120.949 550.118,-118.827 551.061,-125.763"/>
</g>
<!-- Node21 -->
<g id="node21" class="node"><title>Node21</title>
<g id="a_node21"><a xlink:href="classRa_1_1Asset_1_1HandleData.html#ade0d6afbabf40955b6d6b5c5214336e9" target="_top" xlink:title="Ra::Asset::HandleData\l::setVertexSize">
<polygon fill="white" stroke="black" points="560.5,-49 560.5,-79 679.5,-79 679.5,-49 560.5,-49"/>
<text text-anchor="start" x="568.5" y="-67" font-family="Helvetica,sans-Serif" font-size="10.00">Ra::Asset::HandleData</text>
<text text-anchor="middle" x="620" y="-56" font-family="Helvetica,sans-Serif" font-size="10.00">::setVertexSize</text>
</a>
</g>
</g>
<!-- Node20&#45;&gt;Node21 -->
<g id="edge28" class="edge"><title>Node20&#45;&gt;Node21</title>
<path fill="none" stroke="midnightblue" d="M470.632,-122.97C494.677,-112.903 527.163,-99.4482 556,-88 560.392,-86.2563 564.966,-84.4657 569.555,-82.6863"/>
<polygon fill="midnightblue" stroke="midnightblue" points="570.87,-85.9305 578.942,-79.0682 568.352,-79.3988 570.87,-85.9305"/>
</g>
<!-- Node21&#45;&gt;Node4 -->
<g id="edge29" class="edge"><title>Node21&#45;&gt;Node4</title>
<path fill="none" stroke="midnightblue" d="M673.473,-79.1888C677.358,-81.6939 680.944,-84.6088 684,-88 753.528,-165.166 759.794,-299.612 759.533,-350.091"/>
<polygon fill="midnightblue" stroke="midnightblue" points="756.031,-350.241 759.38,-360.292 763.03,-350.346 756.031,-350.241"/>
</g>
<!-- Node25&#45;&gt;Node7 -->
<g id="edge34" class="edge"><title>Node25&#45;&gt;Node7</title>
<path fill="none" stroke="midnightblue" d="M502.731,-390.104C518.702,-390.365 535.723,-390.642 551.676,-390.902"/>
<polygon fill="midnightblue" stroke="midnightblue" points="551.928,-394.407 561.983,-391.07 552.042,-387.408 551.928,-394.407"/>
</g>
</g>
</svg>
