<?xml version="1.0" encoding="UTF-8" standalone="no"?>
<!DOCTYPE svg PUBLIC "-//W3C//DTD SVG 1.1//EN"
 "http://www.w3.org/Graphics/SVG/1.1/DTD/svg11.dtd">
<!-- Generated by graphviz version 2.36.0 (20140111.2315)
 -->
<!-- Title: Ra::Engine::CoupledTimedSystem Pages: 1 -->
<svg width="356pt" height="1190pt"
 viewBox="0.00 0.00 356.00 1190.00" xmlns="http://www.w3.org/2000/svg" xmlns:xlink="http://www.w3.org/1999/xlink">
<g id="graph0" class="graph" transform="scale(1 1) rotate(0) translate(4 1186)">
<title>Ra::Engine::CoupledTimedSystem</title>
<polygon fill="white" stroke="none" points="-4,4 -4,-1186 352,-1186 352,4 -4,4"/>
<!-- Node1 -->
<g id="node1" class="node"><title>Node1</title>
<polygon fill="#bfbfbf" stroke="black" points="128,-1 128,-113 262,-113 262,-1 128,-1"/>
<text text-anchor="start" x="136" y="-101" font-family="Helvetica,sans-Serif" font-size="10.00">Ra::Engine::CoupledTimed</text>
<text text-anchor="middle" x="195" y="-90" font-family="Helvetica,sans-Serif" font-size="10.00">System</text>
<polyline fill="none" stroke="black" points="128,-83 262,-83 "/>
<text text-anchor="middle" x="195" y="-71" font-family="Helvetica,sans-Serif" font-size="10.00"> </text>
<polyline fill="none" stroke="black" points="128,-64 262,-64 "/>
<text text-anchor="start" x="136" y="-52" font-family="Helvetica,sans-Serif" font-size="10.00">+ play()</text>
<text text-anchor="start" x="136" y="-41" font-family="Helvetica,sans-Serif" font-size="10.00">+ step()</text>
<text text-anchor="start" x="136" y="-30" font-family="Helvetica,sans-Serif" font-size="10.00">+ reset()</text>
<text text-anchor="start" x="136" y="-19" font-family="Helvetica,sans-Serif" font-size="10.00">+ cacheFrame()</text>
<text text-anchor="start" x="136" y="-8" font-family="Helvetica,sans-Serif" font-size="10.00">+ restoreFrame()</text>
</g>
<!-- Node2 -->
<g id="node2" class="node"><title>Node2</title>
<g id="a_node2"><a xlink:href="classRa_1_1Engine_1_1BaseCouplingSystem.html" target="_top" xlink:title="{Ra::Engine::BaseCoupling\lSystem\&lt; AbstractTimedSystem \&gt;\n||+ BaseCouplingSystem()\l+ BaseCouplingSystem()\l+ ~BaseCouplingSystem()\l+ operator=()\l+ addSystem()\l+ generateTasks()\l+ registerComponent()\l+ unregisterComponent()\l+ unregisterAllComponents()\l+ handleAssetLoading()\l# dispatch()\l# dispatch()\l# conditionnaldispatch()\l# conditionnaldispatch()\l}">
<polygon fill="white" stroke="black" points="112,-152.5 112,-363.5 278,-363.5 278,-152.5 112,-152.5"/>
<text text-anchor="start" x="120" y="-351.5" font-family="Helvetica,sans-Serif" font-size="10.00">Ra::Engine::BaseCoupling</text>
<text text-anchor="middle" x="195" y="-340.5" font-family="Helvetica,sans-Serif" font-size="10.00">System&lt; AbstractTimedSystem &gt;</text>
<polyline fill="none" stroke="black" points="112,-333.5 278,-333.5 "/>
<text text-anchor="middle" x="195" y="-321.5" font-family="Helvetica,sans-Serif" font-size="10.00"> </text>
<polyline fill="none" stroke="black" points="112,-314.5 278,-314.5 "/>
<text text-anchor="start" x="120" y="-302.5" font-family="Helvetica,sans-Serif" font-size="10.00">+ BaseCouplingSystem()</text>
<text text-anchor="start" x="120" y="-291.5" font-family="Helvetica,sans-Serif" font-size="10.00">+ BaseCouplingSystem()</text>
<text text-anchor="start" x="120" y="-280.5" font-family="Helvetica,sans-Serif" font-size="10.00">+ ~BaseCouplingSystem()</text>
<text text-anchor="start" x="120" y="-269.5" font-family="Helvetica,sans-Serif" font-size="10.00">+ operator=()</text>
<text text-anchor="start" x="120" y="-258.5" font-family="Helvetica,sans-Serif" font-size="10.00">+ addSystem()</text>
<text text-anchor="start" x="120" y="-247.5" font-family="Helvetica,sans-Serif" font-size="10.00">+ generateTasks()</text>
<text text-anchor="start" x="120" y="-236.5" font-family="Helvetica,sans-Serif" font-size="10.00">+ registerComponent()</text>
<text text-anchor="start" x="120" y="-225.5" font-family="Helvetica,sans-Serif" font-size="10.00">+ unregisterComponent()</text>
<text text-anchor="start" x="120" y="-214.5" font-family="Helvetica,sans-Serif" font-size="10.00">+ unregisterAllComponents()</text>
<text text-anchor="start" x="120" y="-203.5" font-family="Helvetica,sans-Serif" font-size="10.00">+ handleAssetLoading()</text>
<text text-anchor="start" x="120" y="-192.5" font-family="Helvetica,sans-Serif" font-size="10.00"># dispatch()</text>
<text text-anchor="start" x="120" y="-181.5" font-family="Helvetica,sans-Serif" font-size="10.00"># dispatch()</text>
<text text-anchor="start" x="120" y="-170.5" font-family="Helvetica,sans-Serif" font-size="10.00"># conditionnaldispatch()</text>
<text text-anchor="start" x="120" y="-159.5" font-family="Helvetica,sans-Serif" font-size="10.00"># conditionnaldispatch()</text>
</a>
</g>
</g>
<!-- Node2&#45;&gt;Node1 -->
<g id="edge1" class="edge"><title>Node2&#45;&gt;Node1</title>
<path fill="none" stroke="midnightblue" d="M195,-142.182C195,-132.164 195,-122.359 195,-113.185"/>
<polygon fill="none" stroke="midnightblue" points="191.5,-142.255 195,-152.255 198.5,-142.255 191.5,-142.255"/>
</g>
<!-- Node3 -->
<g id="node3" class="node"><title>Node3</title>
<g id="a_node3"><a xlink:href="classRa_1_1Engine_1_1AbstractTimedSystem.html" target="_top" xlink:title="Timed Systems are systems which can be disabled or paused, e.g. animation systems. ">
<polygon fill="white" stroke="black" points="26.5,-451 26.5,-585 161.5,-585 161.5,-451 26.5,-451"/>
<text text-anchor="start" x="34.5" y="-573" font-family="Helvetica,sans-Serif" font-size="10.00">Ra::Engine::AbstractTimed</text>
<text text-anchor="middle" x="94" y="-562" font-family="Helvetica,sans-Serif" font-size="10.00">System</text>
<polyline fill="none" stroke="black" points="26.5,-555 161.5,-555 "/>
<text text-anchor="middle" x="94" y="-543" font-family="Helvetica,sans-Serif" font-size="10.00"> </text>
<polyline fill="none" stroke="black" points="26.5,-536 161.5,-536 "/>
<text text-anchor="start" x="34.5" y="-524" font-family="Helvetica,sans-Serif" font-size="10.00">+ AbstractTimedSystem()</text>
<text text-anchor="start" x="34.5" y="-513" font-family="Helvetica,sans-Serif" font-size="10.00">+ ~AbstractTimedSystem()</text>
<text text-anchor="start" x="34.5" y="-502" font-family="Helvetica,sans-Serif" font-size="10.00">+ play()</text>
<text text-anchor="start" x="34.5" y="-491" font-family="Helvetica,sans-Serif" font-size="10.00">+ step()</text>
<text text-anchor="start" x="34.5" y="-480" font-family="Helvetica,sans-Serif" font-size="10.00">+ reset()</text>
<text text-anchor="start" x="34.5" y="-469" font-family="Helvetica,sans-Serif" font-size="10.00">+ cacheFrame()</text>
<text text-anchor="start" x="34.5" y="-458" font-family="Helvetica,sans-Serif" font-size="10.00">+ restoreFrame()</text>
</a>
</g>
</g>
<!-- Node3&#45;&gt;Node2 -->
<g id="edge2" class="edge"><title>Node3&#45;&gt;Node2</title>
<path fill="none" stroke="midnightblue" d="M123.608,-441.367C133.144,-417.009 143.886,-389.569 154.086,-363.513"/>
<polygon fill="none" stroke="midnightblue" points="120.265,-440.306 119.879,-450.894 126.783,-442.858 120.265,-440.306"/>
</g>
<!-- Node4 -->
<g id="node4" class="node"><title>Node4</title>
<g id="a_node4"><a xlink:href="classRa_1_1Engine_1_1System.html" target="_top" xlink:title="Systems are responsible of updating a specific subset of the components of each entity. ">
<polygon fill="white" stroke="black" points="23.5,-663 23.5,-797 164.5,-797 164.5,-663 23.5,-663"/>
<text text-anchor="middle" x="94" y="-785" font-family="Helvetica,sans-Serif" font-size="10.00">Ra::Engine::System</text>
<polyline fill="none" stroke="black" points="23.5,-778 164.5,-778 "/>
<text text-anchor="middle" x="94" y="-766" font-family="Helvetica,sans-Serif" font-size="10.00"> </text>
<polyline fill="none" stroke="black" points="23.5,-759 164.5,-759 "/>
<text text-anchor="start" x="31.5" y="-747" font-family="Helvetica,sans-Serif" font-size="10.00">+ System()</text>
<text text-anchor="start" x="31.5" y="-736" font-family="Helvetica,sans-Serif" font-size="10.00">+ ~System()</text>
<text text-anchor="start" x="31.5" y="-725" font-family="Helvetica,sans-Serif" font-size="10.00">+ generateTasks()</text>
<text text-anchor="start" x="31.5" y="-714" font-family="Helvetica,sans-Serif" font-size="10.00">+ registerComponent()</text>
<text text-anchor="start" x="31.5" y="-703" font-family="Helvetica,sans-Serif" font-size="10.00">+ unregisterComponent()</text>
<text text-anchor="start" x="31.5" y="-692" font-family="Helvetica,sans-Serif" font-size="10.00">+ unregisterAllComponents()</text>
<text text-anchor="start" x="31.5" y="-681" font-family="Helvetica,sans-Serif" font-size="10.00">+ getEntityComponents()</text>
<text text-anchor="start" x="31.5" y="-670" font-family="Helvetica,sans-Serif" font-size="10.00">+ handleAssetLoading()</text>
</a>
</g>
</g>
<!-- Node4&#45;&gt;Node3 -->
<g id="edge3" class="edge"><title>Node4&#45;&gt;Node3</title>
<path fill="none" stroke="midnightblue" d="M94,-652.813C94,-630.666 94,-606.664 94,-585.185"/>
<polygon fill="none" stroke="midnightblue" points="90.5001,-652.843 94,-662.843 97.5001,-652.843 90.5001,-652.843"/>
</g>
<!-- Node5 -->
<g id="node5" class="node"><title>Node5</title>
<polygon fill="white" stroke="#bfbfbf" points="14.5,-846.5 14.5,-925.5 173.5,-925.5 173.5,-846.5 14.5,-846.5"/>
<text text-anchor="start" x="22.5" y="-913.5" font-family="Helvetica,sans-Serif" font-size="10.00">std::vector&lt; std::pair</text>
<text text-anchor="start" x="22.5" y="-902.5" font-family="Helvetica,sans-Serif" font-size="10.00">&lt; const Ra::Engine::Entity</text>
<text text-anchor="middle" x="94" y="-891.5" font-family="Helvetica,sans-Serif" font-size="10.00"> *, Ra::Engine::Component * &gt; &gt;</text>
<polyline fill="none" stroke="#bfbfbf" points="14.5,-884.5 173.5,-884.5 "/>
<text text-anchor="middle" x="94" y="-872.5" font-family="Helvetica,sans-Serif" font-size="10.00"> </text>
<polyline fill="none" stroke="#bfbfbf" points="14.5,-865.5 173.5,-865.5 "/>
<text text-anchor="middle" x="94" y="-853.5" font-family="Helvetica,sans-Serif" font-size="10.00"> </text>
</g>
<!-- Node5&#45;&gt;Node4 -->
<g id="edge4" class="edge"><title>Node5&#45;&gt;Node4</title>
<path fill="none" stroke="#404040" d="M94,-846.139C94,-834.863 94,-822.126 94,-809.34"/>
<polygon fill="none" stroke="#404040" points="94.0001,-809.113 90,-803.113 94,-797.113 98,-803.113 94.0001,-809.113"/>
<text text-anchor="middle" x="132" y="-819.5" font-family="Helvetica,sans-Serif" font-size="10.00"> #m_components</text>
</g>
<!-- Node6 -->
<g id="node6" class="node"><title>Node6</title>
<polygon fill="white" stroke="#bfbfbf" points="-0.5,-996.5 -0.5,-1075.5 116.5,-1075.5 116.5,-996.5 -0.5,-996.5"/>
<text text-anchor="start" x="7.5" y="-1063.5" font-family="Helvetica,sans-Serif" font-size="10.00">pair&lt; const Ra::Engine</text>
<text text-anchor="start" x="7.5" y="-1052.5" font-family="Helvetica,sans-Serif" font-size="10.00">::Entity *, Ra::Engine</text>
<text text-anchor="middle" x="58" y="-1041.5" font-family="Helvetica,sans-Serif" font-size="10.00">::Component * &gt;</text>
<polyline fill="none" stroke="#bfbfbf" points="-0.5,-1034.5 116.5,-1034.5 "/>
<text text-anchor="middle" x="58" y="-1022.5" font-family="Helvetica,sans-Serif" font-size="10.00"> </text>
<polyline fill="none" stroke="#bfbfbf" points="-0.5,-1015.5 116.5,-1015.5 "/>
<text text-anchor="middle" x="58" y="-1003.5" font-family="Helvetica,sans-Serif" font-size="10.00"> </text>
</g>
<!-- Node6&#45;&gt;Node5 -->
<g id="edge5" class="edge"><title>Node6&#45;&gt;Node5</title>
<path fill="none" stroke="#404040" d="M67.4586,-996.115C71.8199,-978.185 77.0521,-956.675 81.7138,-937.51"/>
<polygon fill="none" stroke="#404040" points="81.7683,-937.286 79.2998,-930.51 84.6046,-925.626 87.0731,-932.401 81.7683,-937.286"/>
<text text-anchor="middle" x="104.5" y="-958.5" font-family="Helvetica,sans-Serif" font-size="10.00"> +elements</text>
</g>
<!-- Node7 -->
<g id="node7" class="node"><title>Node7</title>
<g id="a_node7"><a xlink:title="STL class. ">
<polygon fill="white" stroke="#bfbfbf" points="134.5,-1007.5 134.5,-1064.5 221.5,-1064.5 221.5,-1007.5 134.5,-1007.5"/>
<text text-anchor="middle" x="178" y="-1052.5" font-family="Helvetica,sans-Serif" font-size="10.00">std::vector&lt; T &gt;</text>
<polyline fill="none" stroke="#bfbfbf" points="134.5,-1045.5 221.5,-1045.5 "/>
<text text-anchor="middle" x="178" y="-1033.5" font-family="Helvetica,sans-Serif" font-size="10.00"> </text>
<polyline fill="none" stroke="#bfbfbf" points="134.5,-1026.5 221.5,-1026.5 "/>
<text text-anchor="middle" x="178" y="-1014.5" font-family="Helvetica,sans-Serif" font-size="10.00"> </text>
</a>
</g>
</g>
<!-- Node7&#45;&gt;Node5 -->
<g id="edge6" class="edge"><title>Node7&#45;&gt;Node5</title>
<path fill="none" stroke="orange" d="M160.559,-998.017C152.345,-981.275 142.14,-961.384 132,-944 128.465,-937.939 124.54,-931.644 120.594,-925.544"/>
<polygon fill="orange" stroke="orange" points="157.632,-1000 165.149,-1007.47 163.929,-996.944 157.632,-1000"/>
<text text-anchor="start" x="150" y="-969.5" font-family="Helvetica,sans-Serif" font-size="10.00"> &lt; std::pair&lt; const</text>
<text text-anchor="start" x="150" y="-958.5" font-family="Helvetica,sans-Serif" font-size="10.00"> Ra::Engine::Entity</text>
<text text-anchor="middle" x="221.5" y="-947.5" font-family="Helvetica,sans-Serif" font-size="10.00"> *, Ra::Engine::Component * &gt; &gt;</text>
</g>
<!-- Node8 -->
<g id="node8" class="node"><title>Node8</title>
<polygon fill="white" stroke="#bfbfbf" points="163.5,-1124.5 163.5,-1181.5 192.5,-1181.5 192.5,-1124.5 163.5,-1124.5"/>
<text text-anchor="middle" x="178" y="-1169.5" font-family="Helvetica,sans-Serif" font-size="10.00">T</text>
<polyline fill="none" stroke="#bfbfbf" points="163.5,-1162.5 192.5,-1162.5 "/>
<text text-anchor="middle" x="178" y="-1150.5" font-family="Helvetica,sans-Serif" font-size="10.00"> </text>
<polyline fill="none" stroke="#bfbfbf" points="163.5,-1143.5 192.5,-1143.5 "/>
<text text-anchor="middle" x="178" y="-1131.5" font-family="Helvetica,sans-Serif" font-size="10.00"> </text>
</g>
<!-- Node8&#45;&gt;Node7 -->
<g id="edge7" class="edge"><title>Node8&#45;&gt;Node7</title>
<path fill="none" stroke="#404040" d="M178,-1124.45C178,-1110.19 178,-1092.52 178,-1076.8"/>
<polygon fill="none" stroke="#404040" points="178,-1076.72 174,-1070.72 178,-1064.72 182,-1070.72 178,-1076.72"/>
<text text-anchor="middle" x="202.5" y="-1097.5" font-family="Helvetica,sans-Serif" font-size="10.00"> +elements</text>
</g>
<!-- Node9 -->
<g id="node9" class="node"><title>Node9</title>
<g id="a_node9"><a xlink:href="classRa_1_1Engine_1_1BaseCouplingSystem.html" target="_top" xlink:title="Base class for systems coupling multiple subsystems. ">
<polygon fill="white" stroke="black" points="179.5,-412.5 179.5,-623.5 346.5,-623.5 346.5,-412.5 179.5,-412.5"/>
<text text-anchor="start" x="187.5" y="-611.5" font-family="Helvetica,sans-Serif" font-size="10.00">Ra::Engine::BaseCoupling</text>
<text text-anchor="middle" x="263" y="-600.5" font-family="Helvetica,sans-Serif" font-size="10.00">System&lt; _BaseAbstractSystem &gt;</text>
<polyline fill="none" stroke="black" points="179.5,-593.5 346.5,-593.5 "/>
<text text-anchor="middle" x="263" y="-581.5" font-family="Helvetica,sans-Serif" font-size="10.00"> </text>
<polyline fill="none" stroke="black" points="179.5,-574.5 346.5,-574.5 "/>
<text text-anchor="start" x="187.5" y="-562.5" font-family="Helvetica,sans-Serif" font-size="10.00">+ BaseCouplingSystem()</text>
<text text-anchor="start" x="187.5" y="-551.5" font-family="Helvetica,sans-Serif" font-size="10.00">+ ~BaseCouplingSystem()</text>
<text text-anchor="start" x="187.5" y="-540.5" font-family="Helvetica,sans-Serif" font-size="10.00">+ BaseCouplingSystem()</text>
<text text-anchor="start" x="187.5" y="-529.5" font-family="Helvetica,sans-Serif" font-size="10.00">+ operator=()</text>
<text text-anchor="start" x="187.5" y="-518.5" font-family="Helvetica,sans-Serif" font-size="10.00">+ addSystem()</text>
<text text-anchor="start" x="187.5" y="-507.5" font-family="Helvetica,sans-Serif" font-size="10.00">+ generateTasks()</text>
<text text-anchor="start" x="187.5" y="-496.5" font-family="Helvetica,sans-Serif" font-size="10.00">+ registerComponent()</text>
<text text-anchor="start" x="187.5" y="-485.5" font-family="Helvetica,sans-Serif" font-size="10.00">+ unregisterComponent()</text>
<text text-anchor="start" x="187.5" y="-474.5" font-family="Helvetica,sans-Serif" font-size="10.00">+ unregisterAllComponents()</text>
<text text-anchor="start" x="187.5" y="-463.5" font-family="Helvetica,sans-Serif" font-size="10.00">+ handleAssetLoading()</text>
<text text-anchor="start" x="187.5" y="-452.5" font-family="Helvetica,sans-Serif" font-size="10.00"># dispatch()</text>
<text text-anchor="start" x="187.5" y="-441.5" font-family="Helvetica,sans-Serif" font-size="10.00"># dispatch()</text>
<text text-anchor="start" x="187.5" y="-430.5" font-family="Helvetica,sans-Serif" font-size="10.00"># conditionnaldispatch()</text>
<text text-anchor="start" x="187.5" y="-419.5" font-family="Helvetica,sans-Serif" font-size="10.00"># conditionnaldispatch()</text>
</a>
</g>
</g>
<!-- Node9&#45;&gt;Node2 -->
<g id="edge8" class="edge"><title>Node9&#45;&gt;Node2</title>
<path fill="none" stroke="orange" d="M232.845,-402.589C229.436,-389.653 225.974,-376.519 222.599,-363.715"/>
<polygon fill="orange" stroke="orange" points="229.507,-403.656 235.44,-412.433 236.276,-401.872 229.507,-403.656"/>
<text text-anchor="middle" x="288.5" y="-385.5" font-family="Helvetica,sans-Serif" font-size="10.00"> &lt; AbstractTimedSystem &gt;</text>
</g>
<!-- Node10 -->
<g id="node10" class="node"><title>Node10</title>
<g id="a_node10"><a xlink:href="classRa_1_1Engine_1_1__BaseAbstractSystem.html" target="_top" xlink:title="{_BaseAbstractSystem\n||}">
<polygon fill="white" stroke="black" points="205.5,-701.5 205.5,-758.5 320.5,-758.5 320.5,-701.5 205.5,-701.5"/>
<text text-anchor="middle" x="263" y="-746.5" font-family="Helvetica,sans-Serif" font-size="10.00">_BaseAbstractSystem</text>
<polyline fill="none" stroke="black" points="205.5,-739.5 320.5,-739.5 "/>
<text text-anchor="middle" x="263" y="-727.5" font-family="Helvetica,sans-Serif" font-size="10.00"> </text>
<polyline fill="none" stroke="black" points="205.5,-720.5 320.5,-720.5 "/>
<text text-anchor="middle" x="263" y="-708.5" font-family="Helvetica,sans-Serif" font-size="10.00"> </text>
</a>
</g>
</g>
<!-- Node10&#45;&gt;Node9 -->
<g id="edge9" class="edge"><title>Node10&#45;&gt;Node9</title>
<path fill="none" stroke="midnightblue" d="M263,-691.059C263,-671.959 263,-647.769 263,-623.607"/>
<polygon fill="none" stroke="midnightblue" points="259.5,-691.114 263,-701.114 266.5,-691.114 259.5,-691.114"/>
</g>
</g>
</svg>
