<?xml version="1.0" encoding="UTF-8" standalone="no"?>
<!DOCTYPE svg PUBLIC "-//W3C//DTD SVG 1.1//EN"
 "http://www.w3.org/Graphics/SVG/1.1/DTD/svg11.dtd">
<!-- Generated by graphviz version 2.36.0 (20140111.2315)
 -->
<!-- Title: Ra::Engine::Renderer Pages: 1 -->
<svg width="1422pt" height="1220pt"
 viewBox="0.00 0.00 1422.00 1220.00" xmlns="http://www.w3.org/2000/svg" xmlns:xlink="http://www.w3.org/1999/xlink">
<g id="graph0" class="graph" transform="scale(1 1) rotate(0) translate(4 1216)">
<title>Ra::Engine::Renderer</title>
<polygon fill="white" stroke="none" points="-4,4 -4,-1216 1418,-1216 1418,4 -4,4"/>
<!-- Node1 -->
<g id="node1" class="node"><title>Node1</title>
<polygon fill="#bfbfbf" stroke="black" points="646.5,-0.5 646.5,-409.5 769.5,-409.5 769.5,-0.5 646.5,-0.5"/>
<text text-anchor="middle" x="708" y="-397.5" font-family="Helvetica,sans-Serif" font-size="10.00">Ra::Engine::Renderer</text>
<polyline fill="none" stroke="black" points="646.5,-390.5 769.5,-390.5 "/>
<text text-anchor="middle" x="708" y="-378.5" font-family="Helvetica,sans-Serif" font-size="10.00"> </text>
<polyline fill="none" stroke="black" points="646.5,-371.5 769.5,-371.5 "/>
<text text-anchor="start" x="654.5" y="-359.5" font-family="Helvetica,sans-Serif" font-size="10.00">+ Renderer()</text>
<text text-anchor="start" x="654.5" y="-348.5" font-family="Helvetica,sans-Serif" font-size="10.00">+ ~Renderer()</text>
<text text-anchor="start" x="654.5" y="-337.5" font-family="Helvetica,sans-Serif" font-size="10.00">+ getTimerData()</text>
<text text-anchor="start" x="654.5" y="-326.5" font-family="Helvetica,sans-Serif" font-size="10.00">+ getDisplayTexture()</text>
<text text-anchor="start" x="654.5" y="-315.5" font-family="Helvetica,sans-Serif" font-size="10.00">+ lockRendering()</text>
<text text-anchor="start" x="654.5" y="-304.5" font-family="Helvetica,sans-Serif" font-size="10.00">+ unlockRendering()</text>
<text text-anchor="start" x="654.5" y="-293.5" font-family="Helvetica,sans-Serif" font-size="10.00">+ toggleWireframe()</text>
<text text-anchor="start" x="654.5" y="-282.5" font-family="Helvetica,sans-Serif" font-size="10.00">+ setWireframe()</text>
<text text-anchor="start" x="654.5" y="-271.5" font-family="Helvetica,sans-Serif" font-size="10.00">+ enablePostProcess()</text>
<text text-anchor="start" x="654.5" y="-260.5" font-family="Helvetica,sans-Serif" font-size="10.00">+ render()</text>
<text text-anchor="start" x="654.5" y="-249.5" font-family="Helvetica,sans-Serif" font-size="10.00">+ initialize()</text>
<text text-anchor="start" x="654.5" y="-238.5" font-family="Helvetica,sans-Serif" font-size="10.00">+ resize()</text>
<text text-anchor="start" x="654.5" y="-227.5" font-family="Helvetica,sans-Serif" font-size="10.00">+ addPickingRequest()</text>
<text text-anchor="start" x="654.5" y="-216.5" font-family="Helvetica,sans-Serif" font-size="10.00">+ getPickingResults()</text>
<text text-anchor="start" x="654.5" y="-205.5" font-family="Helvetica,sans-Serif" font-size="10.00">+ getPickingQueries()</text>
<text text-anchor="start" x="654.5" y="-194.5" font-family="Helvetica,sans-Serif" font-size="10.00">+ setMousePosition()</text>
<text text-anchor="start" x="654.5" y="-183.5" font-family="Helvetica,sans-Serif" font-size="10.00">+ setBrushRadius()</text>
<text text-anchor="start" x="654.5" y="-172.5" font-family="Helvetica,sans-Serif" font-size="10.00">+ toggleDrawDebug()</text>
<text text-anchor="start" x="654.5" y="-161.5" font-family="Helvetica,sans-Serif" font-size="10.00">+ enableDebugDraw()</text>
<text text-anchor="start" x="654.5" y="-150.5" font-family="Helvetica,sans-Serif" font-size="10.00">+ addLight()</text>
<text text-anchor="start" x="654.5" y="-139.5" font-family="Helvetica,sans-Serif" font-size="10.00">+ hasLight()</text>
<text text-anchor="start" x="654.5" y="-128.5" font-family="Helvetica,sans-Serif" font-size="10.00">+ reloadShaders()</text>
<text text-anchor="start" x="654.5" y="-117.5" font-family="Helvetica,sans-Serif" font-size="10.00">+ displayTexture()</text>
<text text-anchor="start" x="654.5" y="-106.5" font-family="Helvetica,sans-Serif" font-size="10.00">+ getAvailableTextures()</text>
<text text-anchor="start" x="654.5" y="-95.5" font-family="Helvetica,sans-Serif" font-size="10.00">+ getRendererName()</text>
<text text-anchor="start" x="654.5" y="-84.5" font-family="Helvetica,sans-Serif" font-size="10.00">+ grabFrame()</text>
<text text-anchor="start" x="654.5" y="-73.5" font-family="Helvetica,sans-Serif" font-size="10.00"># initializeInternal()</text>
<text text-anchor="start" x="654.5" y="-62.5" font-family="Helvetica,sans-Serif" font-size="10.00"># resizeInternal()</text>
<text text-anchor="start" x="654.5" y="-51.5" font-family="Helvetica,sans-Serif" font-size="10.00"># updateStepInternal()</text>
<text text-anchor="start" x="654.5" y="-40.5" font-family="Helvetica,sans-Serif" font-size="10.00"># renderInternal()</text>
<text text-anchor="start" x="654.5" y="-29.5" font-family="Helvetica,sans-Serif" font-size="10.00"># postProcessInternal()</text>
<text text-anchor="start" x="654.5" y="-18.5" font-family="Helvetica,sans-Serif" font-size="10.00"># debugInternal()</text>
<text text-anchor="start" x="654.5" y="-7.5" font-family="Helvetica,sans-Serif" font-size="10.00"># uiInternal()</text>
</g>
<!-- Node2 -->
<g id="node2" class="node"><title>Node2</title>
<polygon fill="white" stroke="#bfbfbf" points="52.5,-557 52.5,-625 175.5,-625 175.5,-557 52.5,-557"/>
<text text-anchor="start" x="60.5" y="-613" font-family="Helvetica,sans-Serif" font-size="10.00">std::map&lt; std::string,</text>
<text text-anchor="middle" x="114" y="-602" font-family="Helvetica,sans-Serif" font-size="10.00"> Ra::Engine::Texture * &gt;</text>
<polyline fill="none" stroke="#bfbfbf" points="52.5,-595 175.5,-595 "/>
<text text-anchor="middle" x="114" y="-583" font-family="Helvetica,sans-Serif" font-size="10.00"> </text>
<polyline fill="none" stroke="#bfbfbf" points="52.5,-576 175.5,-576 "/>
<text text-anchor="middle" x="114" y="-564" font-family="Helvetica,sans-Serif" font-size="10.00"> </text>
</g>
<!-- Node2&#45;&gt;Node1 -->
<g id="edge1" class="edge"><title>Node2&#45;&gt;Node1</title>
<path fill="none" stroke="#404040" d="M113.441,-556.826C114.595,-520.96 121.769,-464.096 153,-428 279.207,-282.134 514.712,-231.053 634.276,-214.013"/>
<polygon fill="none" stroke="#404040" points="634.288,-214.012 639.686,-209.231 646.176,-212.375 640.777,-217.156 634.288,-214.012"/>
<text text-anchor="middle" x="206" y="-447.5" font-family="Helvetica,sans-Serif" font-size="10.00"> #m_secondaryTextures</text>
</g>
<!-- Node3 -->
<g id="node3" class="node"><title>Node3</title>
<g id="a_node3"><a xlink:href="classRa_1_1Engine_1_1Texture.html" target="_top" xlink:title="{Ra::Engine::Texture\n||+ Texture()\l+ ~Texture()\l+ Generate()\l+ Generate()\l+ Generate()\l+ GenerateCube()\l+ bind()\l+ getName()\l+ updateData()\l+ updateParameters()\l+ format()\l+ width()\l+ height()\l+ texture()\l}">
<polygon fill="white" stroke="black" points="217.5,-789 217.5,-989 328.5,-989 328.5,-789 217.5,-789"/>
<text text-anchor="middle" x="273" y="-977" font-family="Helvetica,sans-Serif" font-size="10.00">Ra::Engine::Texture</text>
<polyline fill="none" stroke="black" points="217.5,-970 328.5,-970 "/>
<text text-anchor="middle" x="273" y="-958" font-family="Helvetica,sans-Serif" font-size="10.00"> </text>
<polyline fill="none" stroke="black" points="217.5,-951 328.5,-951 "/>
<text text-anchor="start" x="225.5" y="-939" font-family="Helvetica,sans-Serif" font-size="10.00">+ Texture()</text>
<text text-anchor="start" x="225.5" y="-928" font-family="Helvetica,sans-Serif" font-size="10.00">+ ~Texture()</text>
<text text-anchor="start" x="225.5" y="-917" font-family="Helvetica,sans-Serif" font-size="10.00">+ Generate()</text>
<text text-anchor="start" x="225.5" y="-906" font-family="Helvetica,sans-Serif" font-size="10.00">+ Generate()</text>
<text text-anchor="start" x="225.5" y="-895" font-family="Helvetica,sans-Serif" font-size="10.00">+ Generate()</text>
<text text-anchor="start" x="225.5" y="-884" font-family="Helvetica,sans-Serif" font-size="10.00">+ GenerateCube()</text>
<text text-anchor="start" x="225.5" y="-873" font-family="Helvetica,sans-Serif" font-size="10.00">+ bind()</text>
<text text-anchor="start" x="225.5" y="-862" font-family="Helvetica,sans-Serif" font-size="10.00">+ getName()</text>
<text text-anchor="start" x="225.5" y="-851" font-family="Helvetica,sans-Serif" font-size="10.00">+ updateData()</text>
<text text-anchor="start" x="225.5" y="-840" font-family="Helvetica,sans-Serif" font-size="10.00">+ updateParameters()</text>
<text text-anchor="start" x="225.5" y="-829" font-family="Helvetica,sans-Serif" font-size="10.00">+ format()</text>
<text text-anchor="start" x="225.5" y="-818" font-family="Helvetica,sans-Serif" font-size="10.00">+ width()</text>
<text text-anchor="start" x="225.5" y="-807" font-family="Helvetica,sans-Serif" font-size="10.00">+ height()</text>
<text text-anchor="start" x="225.5" y="-796" font-family="Helvetica,sans-Serif" font-size="10.00">+ texture()</text>
</a>
</g>
</g>
<!-- Node3&#45;&gt;Node1 -->
<g id="edge13" class="edge"><title>Node3&#45;&gt;Node1</title>
<path fill="none" stroke="#404040" d="M264.985,-788.593C258.645,-687.67 254.82,-539.436 282,-490 358.209,-351.391 534.315,-268.254 634.609,-230.445"/>
<polygon fill="none" stroke="#404040" points="634.903,-230.336 639.139,-224.501 646.155,-226.167 641.919,-232.002 634.903,-230.336"/>
<text text-anchor="middle" x="330.5" y="-588.5" font-family="Helvetica,sans-Serif" font-size="10.00"> #m_displayedTexture</text>
</g>
<!-- Node3&#45;&gt;Node2 -->
<g id="edge2" class="edge"><title>Node3&#45;&gt;Node2</title>
<path fill="none" stroke="#404040" d="M227.264,-788.676C214.734,-762.792 200.791,-735.121 187,-710 173.153,-684.775 156.334,-657.399 142.332,-635.371"/>
<polygon fill="none" stroke="#404040" points="142.176,-635.128 135.573,-632.23 135.709,-625.02 142.312,-627.919 142.176,-635.128"/>
<text text-anchor="middle" x="222.5" y="-718.5" font-family="Helvetica,sans-Serif" font-size="10.00"> +elements</text>
</g>
<!-- Node18 -->
<g id="node18" class="node"><title>Node18</title>
<polygon fill="white" stroke="#bfbfbf" points="558.5,-557 558.5,-625 661.5,-625 661.5,-557 558.5,-557"/>
<text text-anchor="start" x="566.5" y="-613" font-family="Helvetica,sans-Serif" font-size="10.00">std::unique_ptr&lt; Ra</text>
<text text-anchor="middle" x="610" y="-602" font-family="Helvetica,sans-Serif" font-size="10.00">::Engine::Texture &gt;</text>
<polyline fill="none" stroke="#bfbfbf" points="558.5,-595 661.5,-595 "/>
<text text-anchor="middle" x="610" y="-583" font-family="Helvetica,sans-Serif" font-size="10.00"> </text>
<polyline fill="none" stroke="#bfbfbf" points="558.5,-576 661.5,-576 "/>
<text text-anchor="start" x="566.5" y="-564" font-family="Helvetica,sans-Serif" font-size="10.00">+ operator&#45;&gt;()</text>
</g>
<!-- Node3&#45;&gt;Node18 -->
<g id="edge21" class="edge"><title>Node3&#45;&gt;Node18</title>
<path fill="none" stroke="#404040" d="M328.557,-818.09C352.246,-792.824 381.845,-766.489 414,-750 455.352,-728.795 477.011,-755.674 517,-732 536.591,-720.402 535.935,-710.644 549,-692 561.623,-673.986 574.469,-653.343 585.096,-635.507"/>
<polygon fill="none" stroke="#404040" points="585.143,-635.429 584.747,-628.229 591.241,-625.094 591.637,-632.294 585.143,-635.429"/>
<text text-anchor="middle" x="548.5" y="-718.5" font-family="Helvetica,sans-Serif" font-size="10.00"> +ptr</text>
</g>
<!-- Node4 -->
<g id="node4" class="node"><title>Node4</title>
<polygon fill="white" stroke="#bfbfbf" points="246.5,-1148.5 246.5,-1205.5 299.5,-1205.5 299.5,-1148.5 246.5,-1148.5"/>
<text text-anchor="middle" x="273" y="-1193.5" font-family="Helvetica,sans-Serif" font-size="10.00">GLenum</text>
<polyline fill="none" stroke="#bfbfbf" points="246.5,-1186.5 299.5,-1186.5 "/>
<text text-anchor="middle" x="273" y="-1174.5" font-family="Helvetica,sans-Serif" font-size="10.00"> </text>
<polyline fill="none" stroke="#bfbfbf" points="246.5,-1167.5 299.5,-1167.5 "/>
<text text-anchor="middle" x="273" y="-1155.5" font-family="Helvetica,sans-Serif" font-size="10.00"> </text>
</g>
<!-- Node4&#45;&gt;Node3 -->
<g id="edge3" class="edge"><title>Node4&#45;&gt;Node3</title>
<path fill="none" stroke="#404040" d="M273,-1148.32C273,-1114.44 273,-1054.99 273,-1001.66"/>
<polygon fill="none" stroke="#404040" points="273,-1001.32 269,-995.319 273,-989.319 277,-995.319 273,-1001.32"/>
<text text-anchor="middle" x="307.5" y="-1115.5" font-family="Helvetica,sans-Serif" font-size="10.00"> +minFilter</text>
<text text-anchor="middle" x="307.5" y="-1104.5" font-family="Helvetica,sans-Serif" font-size="10.00">+dataType</text>
<text text-anchor="middle" x="307.5" y="-1093.5" font-family="Helvetica,sans-Serif" font-size="10.00">+magFilter</text>
<text text-anchor="middle" x="307.5" y="-1082.5" font-family="Helvetica,sans-Serif" font-size="10.00">+wrapR</text>
<text text-anchor="middle" x="307.5" y="-1071.5" font-family="Helvetica,sans-Serif" font-size="10.00">+internalFormat</text>
<text text-anchor="middle" x="307.5" y="-1060.5" font-family="Helvetica,sans-Serif" font-size="10.00">+wrapS</text>
<text text-anchor="middle" x="307.5" y="-1049.5" font-family="Helvetica,sans-Serif" font-size="10.00">+wrapT</text>
</g>
<!-- Node5 -->
<g id="node5" class="node"><title>Node5</title>
<g id="a_node5"><a xlink:title="STL class. ">
<polygon fill="white" stroke="#bfbfbf" points="17,-860.5 17,-917.5 77,-917.5 77,-860.5 17,-860.5"/>
<text text-anchor="middle" x="47" y="-905.5" font-family="Helvetica,sans-Serif" font-size="10.00">std::string</text>
<polyline fill="none" stroke="#bfbfbf" points="17,-898.5 77,-898.5 "/>
<text text-anchor="middle" x="47" y="-886.5" font-family="Helvetica,sans-Serif" font-size="10.00"> </text>
<polyline fill="none" stroke="#bfbfbf" points="17,-879.5 77,-879.5 "/>
<text text-anchor="middle" x="47" y="-867.5" font-family="Helvetica,sans-Serif" font-size="10.00"> </text>
</a>
</g>
</g>
<!-- Node5&#45;&gt;Node2 -->
<g id="edge4" class="edge"><title>Node5&#45;&gt;Node2</title>
<path fill="none" stroke="#404040" d="M47.8211,-860.457C49.3891,-825.128 53.9265,-762.186 67,-710 73.2911,-684.888 83.6966,-657.992 93.1198,-636.229"/>
<polygon fill="none" stroke="#404040" points="93.2184,-636.006 91.9894,-628.901 98.0757,-625.033 99.3047,-632.139 93.2184,-636.006"/>
<text text-anchor="middle" x="82.5" y="-718.5" font-family="Helvetica,sans-Serif" font-size="10.00"> +keys</text>
</g>
<!-- Node6 -->
<g id="node6" class="node"><title>Node6</title>
<g id="a_node6"><a xlink:title="STL class. ">
<polygon fill="white" stroke="#bfbfbf" points="-0.5,-1143 -0.5,-1211 94.5,-1211 94.5,-1143 -0.5,-1143"/>
<text text-anchor="start" x="7.5" y="-1199" font-family="Helvetica,sans-Serif" font-size="10.00">std::basic_string&lt;</text>
<text text-anchor="middle" x="47" y="-1188" font-family="Helvetica,sans-Serif" font-size="10.00"> char &gt;</text>
<polyline fill="none" stroke="#bfbfbf" points="-0.5,-1181 94.5,-1181 "/>
<text text-anchor="middle" x="47" y="-1169" font-family="Helvetica,sans-Serif" font-size="10.00"> </text>
<polyline fill="none" stroke="#bfbfbf" points="-0.5,-1162 94.5,-1162 "/>
<text text-anchor="middle" x="47" y="-1150" font-family="Helvetica,sans-Serif" font-size="10.00"> </text>
</a>
</g>
</g>
<!-- Node6&#45;&gt;Node5 -->
<g id="edge5" class="edge"><title>Node6&#45;&gt;Node5</title>
<path fill="none" stroke="midnightblue" d="M47,-1132.7C47,-1073.14 47,-967.634 47,-917.688"/>
<polygon fill="none" stroke="midnightblue" points="43.5001,-1132.91 47,-1142.91 50.5001,-1132.91 43.5001,-1132.91"/>
</g>
<!-- Node7 -->
<g id="node7" class="node"><title>Node7</title>
<g id="a_node7"><a xlink:title="STL class. ">
<polygon fill="white" stroke="#bfbfbf" points="101,-860.5 101,-917.5 193,-917.5 193,-860.5 101,-860.5"/>
<text text-anchor="middle" x="147" y="-905.5" font-family="Helvetica,sans-Serif" font-size="10.00">std::map&lt; K, T &gt;</text>
<polyline fill="none" stroke="#bfbfbf" points="101,-898.5 193,-898.5 "/>
<text text-anchor="middle" x="147" y="-886.5" font-family="Helvetica,sans-Serif" font-size="10.00"> </text>
<polyline fill="none" stroke="#bfbfbf" points="101,-879.5 193,-879.5 "/>
<text text-anchor="middle" x="147" y="-867.5" font-family="Helvetica,sans-Serif" font-size="10.00"> </text>
</a>
</g>
</g>
<!-- Node7&#45;&gt;Node2 -->
<g id="edge6" class="edge"><title>Node7&#45;&gt;Node2</title>
<path fill="none" stroke="orange" d="M133.043,-850.747C122.136,-819.54 107.874,-773.555 102,-732 100.632,-722.318 101.505,-719.765 102,-710 103.455,-681.311 106.888,-648.85 109.71,-625.246"/>
<polygon fill="orange" stroke="orange" points="129.804,-852.085 136.452,-860.335 136.4,-849.741 129.804,-852.085"/>
<text text-anchor="start" x="102" y="-724" font-family="Helvetica,sans-Serif" font-size="10.00"> &lt; std::string, Ra::</text>
<text text-anchor="middle" x="144.5" y="-713" font-family="Helvetica,sans-Serif" font-size="10.00">Engine::Texture * &gt;</text>
</g>
<!-- Node8 -->
<g id="node8" class="node"><title>Node8</title>
<polygon fill="white" stroke="#bfbfbf" points="132.5,-1148.5 132.5,-1205.5 161.5,-1205.5 161.5,-1148.5 132.5,-1148.5"/>
<text text-anchor="middle" x="147" y="-1193.5" font-family="Helvetica,sans-Serif" font-size="10.00">K</text>
<polyline fill="none" stroke="#bfbfbf" points="132.5,-1186.5 161.5,-1186.5 "/>
<text text-anchor="middle" x="147" y="-1174.5" font-family="Helvetica,sans-Serif" font-size="10.00"> </text>
<polyline fill="none" stroke="#bfbfbf" points="132.5,-1167.5 161.5,-1167.5 "/>
<text text-anchor="middle" x="147" y="-1155.5" font-family="Helvetica,sans-Serif" font-size="10.00"> </text>
</g>
<!-- Node8&#45;&gt;Node7 -->
<g id="edge7" class="edge"><title>Node8&#45;&gt;Node7</title>
<path fill="none" stroke="#404040" d="M147,-1148.32C147,-1097.38 147,-988.65 147,-929.803"/>
<polygon fill="none" stroke="#404040" points="147,-929.698 143,-923.698 147,-917.698 151,-923.698 147,-929.698"/>
<text text-anchor="middle" x="162.5" y="-1082.5" font-family="Helvetica,sans-Serif" font-size="10.00"> +keys</text>
</g>
<!-- Node9 -->
<g id="node9" class="node"><title>Node9</title>
<polygon fill="white" stroke="#bfbfbf" points="722.5,-1148.5 722.5,-1205.5 751.5,-1205.5 751.5,-1148.5 722.5,-1148.5"/>
<text text-anchor="middle" x="737" y="-1193.5" font-family="Helvetica,sans-Serif" font-size="10.00">T</text>
<polyline fill="none" stroke="#bfbfbf" points="722.5,-1186.5 751.5,-1186.5 "/>
<text text-anchor="middle" x="737" y="-1174.5" font-family="Helvetica,sans-Serif" font-size="10.00"> </text>
<polyline fill="none" stroke="#bfbfbf" points="722.5,-1167.5 751.5,-1167.5 "/>
<text text-anchor="middle" x="737" y="-1155.5" font-family="Helvetica,sans-Serif" font-size="10.00"> </text>
</g>
<!-- Node9&#45;&gt;Node7 -->
<g id="edge8" class="edge"><title>Node9&#45;&gt;Node7</title>
<path fill="none" stroke="#404040" d="M722.376,-1170C671.424,-1149.34 496.61,-1080.53 346,-1046 315.855,-1039.09 232.766,-1046.52 208,-1028 176.611,-1004.52 161.075,-961.343 153.585,-929.514"/>
<polygon fill="none" stroke="#404040" points="153.527,-929.244 148.357,-924.217 151.008,-917.511 156.179,-922.538 153.527,-929.244"/>
<text text-anchor="middle" x="624.5" y="-1082.5" font-family="Helvetica,sans-Serif" font-size="10.00"> +elements</text>
</g>
<!-- Node12 -->
<g id="node12" class="node"><title>Node12</title>
<g id="a_node12"><a xlink:title="STL class. ">
<polygon fill="white" stroke="#bfbfbf" points="693.5,-860.5 693.5,-917.5 780.5,-917.5 780.5,-860.5 693.5,-860.5"/>
<text text-anchor="middle" x="737" y="-905.5" font-family="Helvetica,sans-Serif" font-size="10.00">std::vector&lt; T &gt;</text>
<polyline fill="none" stroke="#bfbfbf" points="693.5,-898.5 780.5,-898.5 "/>
<text text-anchor="middle" x="737" y="-886.5" font-family="Helvetica,sans-Serif" font-size="10.00"> </text>
<polyline fill="none" stroke="#bfbfbf" points="693.5,-879.5 780.5,-879.5 "/>
<text text-anchor="middle" x="737" y="-867.5" font-family="Helvetica,sans-Serif" font-size="10.00"> </text>
</a>
</g>
</g>
<!-- Node9&#45;&gt;Node12 -->
<g id="edge12" class="edge"><title>Node9&#45;&gt;Node12</title>
<path fill="none" stroke="#404040" d="M737,-1148.32C737,-1097.38 737,-988.65 737,-929.803"/>
<polygon fill="none" stroke="#404040" points="737,-929.698 733,-923.698 737,-917.698 741,-923.698 737,-929.698"/>
<text text-anchor="middle" x="761.5" y="-1082.5" font-family="Helvetica,sans-Serif" font-size="10.00"> +elements</text>
</g>
<!-- Node19 -->
<g id="node19" class="node"><title>Node19</title>
<g id="a_node19"><a xlink:title="STL class. ">
<polygon fill="white" stroke="#bfbfbf" points="1053.5,-860.5 1053.5,-917.5 1158.5,-917.5 1158.5,-860.5 1053.5,-860.5"/>
<text text-anchor="middle" x="1106" y="-905.5" font-family="Helvetica,sans-Serif" font-size="10.00">std::unique_ptr&lt; T &gt;</text>
<polyline fill="none" stroke="#bfbfbf" points="1053.5,-898.5 1158.5,-898.5 "/>
<text text-anchor="middle" x="1106" y="-886.5" font-family="Helvetica,sans-Serif" font-size="10.00"> </text>
<polyline fill="none" stroke="#bfbfbf" points="1053.5,-879.5 1158.5,-879.5 "/>
<text text-anchor="start" x="1061.5" y="-867.5" font-family="Helvetica,sans-Serif" font-size="10.00">+ operator&#45;&gt;()</text>
</a>
</g>
</g>
<!-- Node9&#45;&gt;Node19 -->
<g id="edge23" class="edge"><title>Node9&#45;&gt;Node19</title>
<path fill="none" stroke="#404040" d="M751.608,-1172.76C799.766,-1161.39 955.474,-1118.95 1044,-1028 1070.73,-1000.54 1087.13,-959.557 1096.29,-929.384"/>
<polygon fill="none" stroke="#404040" points="1096.37,-929.126 1094.18,-922.256 1099.68,-917.592 1101.87,-924.462 1096.37,-929.126"/>
<text text-anchor="middle" x="1035.5" y="-1082.5" font-family="Helvetica,sans-Serif" font-size="10.00"> +ptr</text>
</g>
<!-- Node10 -->
<g id="node10" class="node"><title>Node10</title>
<polygon fill="white" stroke="#bfbfbf" points="388,-557 388,-625 540,-625 540,-557 388,-557"/>
<text text-anchor="start" x="396" y="-613" font-family="Helvetica,sans-Serif" font-size="10.00">std::vector&lt; Ra::Engine</text>
<text text-anchor="middle" x="464" y="-602" font-family="Helvetica,sans-Serif" font-size="10.00">::Ra::Engine::LightManager * &gt;</text>
<polyline fill="none" stroke="#bfbfbf" points="388,-595 540,-595 "/>
<text text-anchor="middle" x="464" y="-583" font-family="Helvetica,sans-Serif" font-size="10.00"> </text>
<polyline fill="none" stroke="#bfbfbf" points="388,-576 540,-576 "/>
<text text-anchor="middle" x="464" y="-564" font-family="Helvetica,sans-Serif" font-size="10.00"> </text>
</g>
<!-- Node10&#45;&gt;Node1 -->
<g id="edge9" class="edge"><title>Node10&#45;&gt;Node1</title>
<path fill="none" stroke="#404040" d="M465.679,-556.882C468.577,-522.83 476.476,-469.118 498,-428 532.024,-363.004 590.564,-303.451 637.207,-262.424"/>
<polygon fill="none" stroke="#404040" points="637.306,-262.339 639.213,-255.384 646.366,-254.47 644.459,-261.424 637.306,-262.339"/>
<text text-anchor="middle" x="539.5" y="-447.5" font-family="Helvetica,sans-Serif" font-size="10.00"> #m_lightmanagers</text>
</g>
<!-- Node11 -->
<g id="node11" class="node"><title>Node11</title>
<polygon fill="white" stroke="#bfbfbf" points="423,-860.5 423,-917.5 505,-917.5 505,-860.5 423,-860.5"/>
<text text-anchor="middle" x="464" y="-905.5" font-family="Helvetica,sans-Serif" font-size="10.00">LightManager *</text>
<polyline fill="none" stroke="#bfbfbf" points="423,-898.5 505,-898.5 "/>
<text text-anchor="middle" x="464" y="-886.5" font-family="Helvetica,sans-Serif" font-size="10.00"> </text>
<polyline fill="none" stroke="#bfbfbf" points="423,-879.5 505,-879.5 "/>
<text text-anchor="middle" x="464" y="-867.5" font-family="Helvetica,sans-Serif" font-size="10.00"> </text>
</g>
<!-- Node11&#45;&gt;Node10 -->
<g id="edge10" class="edge"><title>Node11&#45;&gt;Node10</title>
<path fill="none" stroke="#404040" d="M464,-860.419C464,-809.397 464,-699.818 464,-637.599"/>
<polygon fill="none" stroke="#404040" points="464,-637.449 460,-631.449 464,-625.449 468,-631.449 464,-637.449"/>
<text text-anchor="middle" x="488.5" y="-718.5" font-family="Helvetica,sans-Serif" font-size="10.00"> +elements</text>
</g>
<!-- Node12&#45;&gt;Node10 -->
<g id="edge11" class="edge"><title>Node12&#45;&gt;Node10</title>
<path fill="none" stroke="orange" d="M716.871,-851.397C693.22,-811.498 650.468,-748.249 598,-710 579.252,-696.333 568.027,-705.275 549,-692 523.399,-674.139 500.856,-646.755 485.429,-625.157"/>
<polygon fill="orange" stroke="orange" points="713.985,-853.397 722.045,-860.273 720.032,-849.871 713.985,-853.397"/>
<text text-anchor="start" x="622" y="-724" font-family="Helvetica,sans-Serif" font-size="10.00"> &lt; Ra::Engine::Ra::Engine</text>
<text text-anchor="middle" x="680" y="-713" font-family="Helvetica,sans-Serif" font-size="10.00">::LightManager * &gt;</text>
</g>
<!-- Node13 -->
<g id="node13" class="node"><title>Node13</title>
<polygon fill="white" stroke="#bfbfbf" points="942,-557 942,-625 1074,-625 1074,-557 942,-557"/>
<text text-anchor="start" x="950" y="-613" font-family="Helvetica,sans-Serif" font-size="10.00">std::vector&lt; RenderObject</text>
<text text-anchor="middle" x="1008" y="-602" font-family="Helvetica,sans-Serif" font-size="10.00">Ptr &gt;</text>
<polyline fill="none" stroke="#bfbfbf" points="942,-595 1074,-595 "/>
<text text-anchor="middle" x="1008" y="-583" font-family="Helvetica,sans-Serif" font-size="10.00"> </text>
<polyline fill="none" stroke="#bfbfbf" points="942,-576 1074,-576 "/>
<text text-anchor="middle" x="1008" y="-564" font-family="Helvetica,sans-Serif" font-size="10.00"> </text>
</g>
<!-- Node12&#45;&gt;Node13 -->
<g id="edge16" class="edge"><title>Node12&#45;&gt;Node13</title>
<path fill="none" stroke="orange" d="M765.249,-852.186C796.397,-814.106 849.253,-753.494 903,-710 915.087,-700.219 921.453,-702.414 933,-692 954.595,-672.524 974.131,-646.038 987.848,-625.217"/>
<polygon fill="orange" stroke="orange" points="762.149,-850.452 758.564,-860.422 767.584,-854.864 762.149,-850.452"/>
<text text-anchor="middle" x="950" y="-718.5" font-family="Helvetica,sans-Serif" font-size="10.00"> &lt; RenderObjectPtr &gt;</text>
</g>
<!-- Node13&#45;&gt;Node1 -->
<g id="edge14" class="edge"><title>Node13&#45;&gt;Node1</title>
<path fill="none" stroke="#404040" d="M994.212,-556.719C979.374,-522.774 953.845,-469.364 924,-428 881.523,-369.129 823.778,-310.612 778.681,-268.447"/>
<polygon fill="none" stroke="#404040" points="778.632,-268.402 771.514,-267.251 769.838,-260.237 776.957,-261.388 778.632,-268.402"/>
<text text-anchor="middle" x="1006.5" y="-464" font-family="Helvetica,sans-Serif" font-size="10.00"> #m_uiRenderObjects</text>
<text text-anchor="middle" x="1006.5" y="-453" font-family="Helvetica,sans-Serif" font-size="10.00">#m_debugRenderObjects</text>
<text text-anchor="middle" x="1006.5" y="-442" font-family="Helvetica,sans-Serif" font-size="10.00">#m_fancyRenderObjects</text>
<text text-anchor="middle" x="1006.5" y="-431" font-family="Helvetica,sans-Serif" font-size="10.00">#m_xrayRenderObjects</text>
</g>
<!-- Node14 -->
<g id="node14" class="node"><title>Node14</title>
<polygon fill="white" stroke="#bfbfbf" points="946.5,-860.5 946.5,-917.5 1035.5,-917.5 1035.5,-860.5 946.5,-860.5"/>
<text text-anchor="middle" x="991" y="-905.5" font-family="Helvetica,sans-Serif" font-size="10.00">RenderObjectPtr</text>
<polyline fill="none" stroke="#bfbfbf" points="946.5,-898.5 1035.5,-898.5 "/>
<text text-anchor="middle" x="991" y="-886.5" font-family="Helvetica,sans-Serif" font-size="10.00"> </text>
<polyline fill="none" stroke="#bfbfbf" points="946.5,-879.5 1035.5,-879.5 "/>
<text text-anchor="middle" x="991" y="-867.5" font-family="Helvetica,sans-Serif" font-size="10.00"> </text>
</g>
<!-- Node14&#45;&gt;Node13 -->
<g id="edge15" class="edge"><title>Node14&#45;&gt;Node13</title>
<path fill="none" stroke="#404040" d="M992.584,-860.419C995.514,-809.397 1001.81,-699.818 1005.38,-637.599"/>
<polygon fill="none" stroke="#404040" points="1005.39,-637.429 1001.74,-631.21 1006.08,-625.449 1009.73,-631.669 1005.39,-637.429"/>
<text text-anchor="middle" x="1026.5" y="-718.5" font-family="Helvetica,sans-Serif" font-size="10.00"> +elements</text>
</g>
<!-- Node15 -->
<g id="node15" class="node"><title>Node15</title>
<polygon fill="white" stroke="#bfbfbf" points="679.5,-562.5 679.5,-619.5 708.5,-619.5 708.5,-562.5 679.5,-562.5"/>
<text text-anchor="middle" x="694" y="-607.5" font-family="Helvetica,sans-Serif" font-size="10.00">int</text>
<polyline fill="none" stroke="#bfbfbf" points="679.5,-600.5 708.5,-600.5 "/>
<text text-anchor="middle" x="694" y="-588.5" font-family="Helvetica,sans-Serif" font-size="10.00"> </text>
<polyline fill="none" stroke="#bfbfbf" points="679.5,-581.5 708.5,-581.5 "/>
<text text-anchor="middle" x="694" y="-569.5" font-family="Helvetica,sans-Serif" font-size="10.00"> </text>
</g>
<!-- Node15&#45;&gt;Node1 -->
<g id="edge17" class="edge"><title>Node15&#45;&gt;Node1</title>
<path fill="none" stroke="#404040" d="M687.592,-562.053C682.483,-538.259 675.745,-503.091 673,-472 671.566,-455.759 671.179,-438.986 671.578,-422.13"/>
<polygon fill="none" stroke="#404040" points="671.588,-421.841 667.799,-415.706 672.005,-409.849 675.794,-415.984 671.588,-421.841"/>
<text text-anchor="middle" x="697.5" y="-453" font-family="Helvetica,sans-Serif" font-size="10.00"> #m_height</text>
<text text-anchor="middle" x="697.5" y="-442" font-family="Helvetica,sans-Serif" font-size="10.00">#m_width</text>
</g>
<!-- Node16 -->
<g id="node16" class="node"><title>Node16</title>
<g id="a_node16"><a xlink:href="classbool.html" target="_top" xlink:title="{bool\n||}">
<polygon fill="white" stroke="black" points="726.5,-562.5 726.5,-619.5 761.5,-619.5 761.5,-562.5 726.5,-562.5"/>
<text text-anchor="middle" x="744" y="-607.5" font-family="Helvetica,sans-Serif" font-size="10.00">bool</text>
<polyline fill="none" stroke="black" points="726.5,-600.5 761.5,-600.5 "/>
<text text-anchor="middle" x="744" y="-588.5" font-family="Helvetica,sans-Serif" font-size="10.00"> </text>
<polyline fill="none" stroke="black" points="726.5,-581.5 761.5,-581.5 "/>
<text text-anchor="middle" x="744" y="-569.5" font-family="Helvetica,sans-Serif" font-size="10.00"> </text>
</a>
</g>
</g>
<!-- Node16&#45;&gt;Node1 -->
<g id="edge18" class="edge"><title>Node16&#45;&gt;Node1</title>
<path fill="none" stroke="#404040" d="M741.411,-562.384C738.499,-531.318 733.482,-477.807 728.209,-421.558"/>
<polygon fill="none" stroke="#404040" points="728.2,-421.468 723.658,-415.868 727.08,-409.521 731.623,-415.121 728.2,-421.468"/>
<text text-anchor="middle" x="797" y="-464" font-family="Helvetica,sans-Serif" font-size="10.00"> #m_renderQueuesUpToDate</text>
<text text-anchor="middle" x="797" y="-453" font-family="Helvetica,sans-Serif" font-size="10.00">#m_postProcessEnabled</text>
<text text-anchor="middle" x="797" y="-442" font-family="Helvetica,sans-Serif" font-size="10.00">#m_wireframe</text>
<text text-anchor="middle" x="797" y="-431" font-family="Helvetica,sans-Serif" font-size="10.00">#m_drawDebug</text>
</g>
<!-- Node17 -->
<g id="node17" class="node"><title>Node17</title>
<g id="a_node17"><a xlink:href="classRa_1_1Engine_1_1RenderObjectManager.html" target="_top" xlink:title="{Ra::Engine::RenderObject\lManager\n||+ RenderObjectManager()\l+ ~RenderObjectManager()\l+ addRenderObject()\l+ removeRenderObject()\l+ getRenderObjectsCount()\l+ getRenderObject()\l+ getRenderObjects()\l+ getRenderObjectsByType()\l+ exists()\l+ renderObjectExpired()\l+ getNumFaces()\l+ getNumVertices()\l+ getSceneAabb()\l}">
<polygon fill="white" stroke="black" points="780,-491 780,-691 924,-691 924,-491 780,-491"/>
<text text-anchor="start" x="788" y="-679" font-family="Helvetica,sans-Serif" font-size="10.00">Ra::Engine::RenderObject</text>
<text text-anchor="middle" x="852" y="-668" font-family="Helvetica,sans-Serif" font-size="10.00">Manager</text>
<polyline fill="none" stroke="black" points="780,-661 924,-661 "/>
<text text-anchor="middle" x="852" y="-649" font-family="Helvetica,sans-Serif" font-size="10.00"> </text>
<polyline fill="none" stroke="black" points="780,-642 924,-642 "/>
<text text-anchor="start" x="788" y="-630" font-family="Helvetica,sans-Serif" font-size="10.00">+ RenderObjectManager()</text>
<text text-anchor="start" x="788" y="-619" font-family="Helvetica,sans-Serif" font-size="10.00">+ ~RenderObjectManager()</text>
<text text-anchor="start" x="788" y="-608" font-family="Helvetica,sans-Serif" font-size="10.00">+ addRenderObject()</text>
<text text-anchor="start" x="788" y="-597" font-family="Helvetica,sans-Serif" font-size="10.00">+ removeRenderObject()</text>
<text text-anchor="start" x="788" y="-586" font-family="Helvetica,sans-Serif" font-size="10.00">+ getRenderObjectsCount()</text>
<text text-anchor="start" x="788" y="-575" font-family="Helvetica,sans-Serif" font-size="10.00">+ getRenderObject()</text>
<text text-anchor="start" x="788" y="-564" font-family="Helvetica,sans-Serif" font-size="10.00">+ getRenderObjects()</text>
<text text-anchor="start" x="788" y="-553" font-family="Helvetica,sans-Serif" font-size="10.00">+ getRenderObjectsByType()</text>
<text text-anchor="start" x="788" y="-542" font-family="Helvetica,sans-Serif" font-size="10.00">+ exists()</text>
<text text-anchor="start" x="788" y="-531" font-family="Helvetica,sans-Serif" font-size="10.00">+ renderObjectExpired()</text>
<text text-anchor="start" x="788" y="-520" font-family="Helvetica,sans-Serif" font-size="10.00">+ getNumFaces()</text>
<text text-anchor="start" x="788" y="-509" font-family="Helvetica,sans-Serif" font-size="10.00">+ getNumVertices()</text>
<text text-anchor="start" x="788" y="-498" font-family="Helvetica,sans-Serif" font-size="10.00">+ getSceneAabb()</text>
</a>
</g>
</g>
<!-- Node17&#45;&gt;Node1 -->
<g id="edge19" class="edge"><title>Node17&#45;&gt;Node1</title>
<path fill="none" stroke="#404040" d="M871.96,-490.955C872.907,-469.829 871.325,-447.898 865,-428 847.488,-372.908 810.803,-319.723 777.297,-279.228"/>
<polygon fill="none" stroke="#404040" points="777.26,-279.184 770.336,-277.167 769.535,-270.001 776.458,-272.017 777.26,-279.184"/>
<text text-anchor="middle" x="896.5" y="-447.5" font-family="Helvetica,sans-Serif" font-size="10.00"> #m_roMgr</text>
</g>
<!-- Node18&#45;&gt;Node1 -->
<g id="edge20" class="edge"><title>Node18&#45;&gt;Node1</title>
<path fill="none" stroke="#404040" d="M598.601,-556.999C588.846,-523.962 577.983,-471.873 589,-428 599.493,-386.213 619.536,-343.708 640.223,-307.227"/>
<polygon fill="none" stroke="#404040" points="640.356,-306.997 639.894,-299.801 646.359,-296.607 646.821,-303.803 640.356,-306.997"/>
<text text-anchor="middle" x="628.5" y="-447.5" font-family="Helvetica,sans-Serif" font-size="10.00"> #m_fancyTexture</text>
</g>
<!-- Node19&#45;&gt;Node18 -->
<g id="edge22" class="edge"><title>Node19&#45;&gt;Node18</title>
<path fill="none" stroke="orange" d="M1107.06,-850.388C1105.96,-808.795 1097.07,-743.277 1055,-710 1021.41,-683.432 706.763,-713.964 670,-692 645.32,-677.254 629.558,-648.099 620.415,-625.057"/>
<polygon fill="orange" stroke="orange" points="1103.56,-850.458 1107.18,-860.413 1110.56,-850.37 1103.56,-850.458"/>
<text text-anchor="middle" x="1130.5" y="-718.5" font-family="Helvetica,sans-Serif" font-size="10.00"> &lt; Ra::Engine::Texture &gt;</text>
</g>
<!-- Node21 -->
<g id="node21" class="node"><title>Node21</title>
<polygon fill="white" stroke="#bfbfbf" points="1298.5,-557 1298.5,-625 1401.5,-625 1401.5,-557 1298.5,-557"/>
<text text-anchor="start" x="1306.5" y="-613" font-family="Helvetica,sans-Serif" font-size="10.00">std::unique_ptr&lt; Ra</text>
<text text-anchor="middle" x="1350" y="-602" font-family="Helvetica,sans-Serif" font-size="10.00">::Engine::Mesh &gt;</text>
<polyline fill="none" stroke="#bfbfbf" points="1298.5,-595 1401.5,-595 "/>
<text text-anchor="middle" x="1350" y="-583" font-family="Helvetica,sans-Serif" font-size="10.00"> </text>
<polyline fill="none" stroke="#bfbfbf" points="1298.5,-576 1401.5,-576 "/>
<text text-anchor="start" x="1306.5" y="-564" font-family="Helvetica,sans-Serif" font-size="10.00">+ operator&#45;&gt;()</text>
</g>
<!-- Node19&#45;&gt;Node21 -->
<g id="edge28" class="edge"><title>Node19&#45;&gt;Node21</title>
<path fill="none" stroke="orange" d="M1127.02,-851.253C1151.25,-811.71 1194.44,-749.229 1246,-710 1262.49,-697.455 1273.28,-705.501 1289,-692 1309.98,-673.977 1325.88,-646.881 1336.18,-625.438"/>
<polygon fill="orange" stroke="orange" points="1123.73,-849.927 1121.56,-860.297 1129.72,-853.543 1123.73,-849.927"/>
<text text-anchor="middle" x="1296" y="-718.5" font-family="Helvetica,sans-Serif" font-size="10.00"> &lt; Ra::Engine::Mesh &gt;</text>
</g>
<!-- Node20 -->
<g id="node20" class="node"><title>Node20</title>
<g id="a_node20"><a xlink:href="classRa_1_1Engine_1_1ShaderProgramManager.html" target="_top" xlink:title="{Ra::Engine::ShaderProgram\lManager\n||+ addShaderProgram()\l+ addShaderProgram()\l+ getShaderProgram()\l+ getShaderProgram()\l+ getDefaultShaderProgram()\l+ reloadAllShaderPrograms()\l+ reloadNotCompiledShaderPrograms()\l+ addNamedString()\l+ updateNamedString()\l}">
<polygon fill="white" stroke="black" points="1092,-513 1092,-669 1280,-669 1280,-513 1092,-513"/>
<text text-anchor="start" x="1100" y="-657" font-family="Helvetica,sans-Serif" font-size="10.00">Ra::Engine::ShaderProgram</text>
<text text-anchor="middle" x="1186" y="-646" font-family="Helvetica,sans-Serif" font-size="10.00">Manager</text>
<polyline fill="none" stroke="black" points="1092,-639 1280,-639 "/>
<text text-anchor="middle" x="1186" y="-627" font-family="Helvetica,sans-Serif" font-size="10.00"> </text>
<polyline fill="none" stroke="black" points="1092,-620 1280,-620 "/>
<text text-anchor="start" x="1100" y="-608" font-family="Helvetica,sans-Serif" font-size="10.00">+ addShaderProgram()</text>
<text text-anchor="start" x="1100" y="-597" font-family="Helvetica,sans-Serif" font-size="10.00">+ addShaderProgram()</text>
<text text-anchor="start" x="1100" y="-586" font-family="Helvetica,sans-Serif" font-size="10.00">+ getShaderProgram()</text>
<text text-anchor="start" x="1100" y="-575" font-family="Helvetica,sans-Serif" font-size="10.00">+ getShaderProgram()</text>
<text text-anchor="start" x="1100" y="-564" font-family="Helvetica,sans-Serif" font-size="10.00">+ getDefaultShaderProgram()</text>
<text text-anchor="start" x="1100" y="-553" font-family="Helvetica,sans-Serif" font-size="10.00">+ reloadAllShaderPrograms()</text>
<text text-anchor="start" x="1100" y="-542" font-family="Helvetica,sans-Serif" font-size="10.00">+ reloadNotCompiledShaderPrograms()</text>
<text text-anchor="start" x="1100" y="-531" font-family="Helvetica,sans-Serif" font-size="10.00">+ addNamedString()</text>
<text text-anchor="start" x="1100" y="-520" font-family="Helvetica,sans-Serif" font-size="10.00">+ updateNamedString()</text>
</a>
</g>
</g>
<!-- Node20&#45;&gt;Node1 -->
<g id="edge24" class="edge"><title>Node20&#45;&gt;Node1</title>
<path fill="none" stroke="#404040" d="M1137.93,-512.974C1117.84,-484.317 1092.91,-452.775 1066,-428 978.313,-347.262 857.17,-279.345 780.714,-240.65"/>
<polygon fill="none" stroke="#404040" points="780.491,-240.538 773.334,-241.421 769.767,-235.155 776.923,-234.272 780.491,-240.538"/>
<text text-anchor="middle" x="1138" y="-447.5" font-family="Helvetica,sans-Serif" font-size="10.00"> #m_shaderMgr</text>
</g>
<!-- Node21&#45;&gt;Node1 -->
<g id="edge25" class="edge"><title>Node21&#45;&gt;Node1</title>
<path fill="none" stroke="#404040" d="M1335.31,-556.806C1324.73,-535.734 1308.85,-508.962 1289,-490 1138.29,-346.055 900.668,-261.541 781.412,-225.952"/>
<polygon fill="none" stroke="#404040" points="781.063,-225.85 774.177,-227.991 769.552,-222.458 776.438,-220.317 781.063,-225.85"/>
<text text-anchor="middle" x="1297.5" y="-447.5" font-family="Helvetica,sans-Serif" font-size="10.00"> #m_quadMesh</text>
</g>
<!-- Node22 -->
<g id="node22" class="node"><title>Node22</title>
<g id="a_node22"><a xlink:href="classRa_1_1Engine_1_1Mesh.html" target="_top" xlink:title="A class representing an openGL general mesh to be displayed. ">
<polygon fill="white" stroke="black" points="1286,-750.5 1286,-1027.5 1414,-1027.5 1414,-750.5 1286,-750.5"/>
<text text-anchor="middle" x="1350" y="-1015.5" font-family="Helvetica,sans-Serif" font-size="10.00">Ra::Engine::Mesh</text>
<polyline fill="none" stroke="black" points="1286,-1008.5 1414,-1008.5 "/>
<text text-anchor="middle" x="1350" y="-996.5" font-family="Helvetica,sans-Serif" font-size="10.00"> </text>
<polyline fill="none" stroke="black" points="1286,-989.5 1414,-989.5 "/>
<text text-anchor="start" x="1294" y="-977.5" font-family="Helvetica,sans-Serif" font-size="10.00">+ Mesh()</text>
<text text-anchor="start" x="1294" y="-966.5" font-family="Helvetica,sans-Serif" font-size="10.00">+ ~Mesh()</text>
<text text-anchor="start" x="1294" y="-955.5" font-family="Helvetica,sans-Serif" font-size="10.00">+ getName()</text>
<text text-anchor="start" x="1294" y="-944.5" font-family="Helvetica,sans-Serif" font-size="10.00">+ setRenderMode()</text>
<text text-anchor="start" x="1294" y="-933.5" font-family="Helvetica,sans-Serif" font-size="10.00">+ getRenderMode()</text>
<text text-anchor="start" x="1294" y="-922.5" font-family="Helvetica,sans-Serif" font-size="10.00">+ getGeometry()</text>
<text text-anchor="start" x="1294" y="-911.5" font-family="Helvetica,sans-Serif" font-size="10.00">+ getGeometry()</text>
<text text-anchor="start" x="1294" y="-900.5" font-family="Helvetica,sans-Serif" font-size="10.00">+ loadGeometry()</text>
<text text-anchor="start" x="1294" y="-889.5" font-family="Helvetica,sans-Serif" font-size="10.00">+ updateMeshGeometry()</text>
<text text-anchor="start" x="1294" y="-878.5" font-family="Helvetica,sans-Serif" font-size="10.00">+ loadGeometry()</text>
<text text-anchor="start" x="1294" y="-867.5" font-family="Helvetica,sans-Serif" font-size="10.00">+ addData()</text>
<text text-anchor="start" x="1294" y="-856.5" font-family="Helvetica,sans-Serif" font-size="10.00">+ addData()</text>
<text text-anchor="start" x="1294" y="-845.5" font-family="Helvetica,sans-Serif" font-size="10.00">+ getData()</text>
<text text-anchor="start" x="1294" y="-834.5" font-family="Helvetica,sans-Serif" font-size="10.00">+ getData()</text>
<text text-anchor="start" x="1294" y="-823.5" font-family="Helvetica,sans-Serif" font-size="10.00">+ getData()</text>
<text text-anchor="start" x="1294" y="-812.5" font-family="Helvetica,sans-Serif" font-size="10.00">+ getData()</text>
<text text-anchor="start" x="1294" y="-801.5" font-family="Helvetica,sans-Serif" font-size="10.00">+ setDirty()</text>
<text text-anchor="start" x="1294" y="-790.5" font-family="Helvetica,sans-Serif" font-size="10.00">+ setDirty()</text>
<text text-anchor="start" x="1294" y="-779.5" font-family="Helvetica,sans-Serif" font-size="10.00">+ setDirty()</text>
<text text-anchor="start" x="1294" y="-768.5" font-family="Helvetica,sans-Serif" font-size="10.00">+ updateGL()</text>
<text text-anchor="start" x="1294" y="-757.5" font-family="Helvetica,sans-Serif" font-size="10.00">+ render()</text>
</a>
</g>
</g>
<!-- Node22&#45;&gt;Node21 -->
<g id="edge26" class="edge"><title>Node22&#45;&gt;Node21</title>
<path fill="none" stroke="#404040" d="M1350,-750.399C1350,-709.711 1350,-667.971 1350,-637.558"/>
<polygon fill="none" stroke="#404040" points="1350,-637.254 1346,-631.254 1350,-625.254 1354,-631.254 1350,-637.254"/>
<text text-anchor="middle" x="1360.5" y="-718.5" font-family="Helvetica,sans-Serif" font-size="10.00"> +ptr</text>
</g>
<!-- Node23 -->
<g id="node23" class="node"><title>Node23</title>
<polygon fill="white" stroke="#bfbfbf" points="1297.5,-1148.5 1297.5,-1205.5 1402.5,-1205.5 1402.5,-1148.5 1297.5,-1148.5"/>
<text text-anchor="middle" x="1350" y="-1193.5" font-family="Helvetica,sans-Serif" font-size="10.00">static constexpr uint</text>
<polyline fill="none" stroke="#bfbfbf" points="1297.5,-1186.5 1402.5,-1186.5 "/>
<text text-anchor="middle" x="1350" y="-1174.5" font-family="Helvetica,sans-Serif" font-size="10.00"> </text>
<polyline fill="none" stroke="#bfbfbf" points="1297.5,-1167.5 1402.5,-1167.5 "/>
<text text-anchor="middle" x="1350" y="-1155.5" font-family="Helvetica,sans-Serif" font-size="10.00"> </text>
</g>
<!-- Node23&#45;&gt;Node22 -->
<g id="edge27" class="edge"><title>Node23&#45;&gt;Node22</title>
<path fill="none" stroke="#404040" d="M1350,-1148.32C1350,-1122.36 1350,-1081.39 1350,-1039.67"/>
<polygon fill="none" stroke="#404040" points="1350,-1039.6 1346,-1033.6 1350,-1027.6 1354,-1033.6 1350,-1039.6"/>
<text text-anchor="middle" x="1382" y="-1082.5" font-family="Helvetica,sans-Serif" font-size="10.00"> +MAX_DATA</text>
</g>
</g>
</svg>
