<?xml version="1.0" encoding="UTF-8" standalone="no"?>
<!DOCTYPE svg PUBLIC "-//W3C//DTD SVG 1.1//EN"
 "http://www.w3.org/Graphics/SVG/1.1/DTD/svg11.dtd">
<!-- Generated by graphviz version 2.36.0 (20140111.2315)
 -->
<!-- Title: FancyMeshPlugin::FancyMeshSystem Pages: 1 -->
<svg width="299pt" height="668pt"
 viewBox="0.00 0.00 299.00 668.00" xmlns="http://www.w3.org/2000/svg" xmlns:xlink="http://www.w3.org/1999/xlink">
<g id="graph0" class="graph" transform="scale(1 1) rotate(0) translate(4 664)">
<title>FancyMeshPlugin::FancyMeshSystem</title>
<polygon fill="white" stroke="none" points="-4,4 -4,-664 295,-664 295,4 -4,4"/>
<!-- Node1 -->
<g id="node1" class="node"><title>Node1</title>
<polygon fill="#bfbfbf" stroke="black" points="30,-0.5 30,-101.5 182,-101.5 182,-0.5 30,-0.5"/>
<text text-anchor="start" x="38" y="-89.5" font-family="Helvetica,sans-Serif" font-size="10.00">FancyMeshPlugin::FancyMesh</text>
<text text-anchor="middle" x="106" y="-78.5" font-family="Helvetica,sans-Serif" font-size="10.00">System</text>
<polyline fill="none" stroke="black" points="30,-71.5 182,-71.5 "/>
<text text-anchor="middle" x="106" y="-59.5" font-family="Helvetica,sans-Serif" font-size="10.00"> </text>
<polyline fill="none" stroke="black" points="30,-52.5 182,-52.5 "/>
<text text-anchor="start" x="38" y="-40.5" font-family="Helvetica,sans-Serif" font-size="10.00">+ FancyMeshSystem()</text>
<text text-anchor="start" x="38" y="-29.5" font-family="Helvetica,sans-Serif" font-size="10.00">+ ~FancyMeshSystem()</text>
<text text-anchor="start" x="38" y="-18.5" font-family="Helvetica,sans-Serif" font-size="10.00">+ handleAssetLoading()</text>
<text text-anchor="start" x="38" y="-7.5" font-family="Helvetica,sans-Serif" font-size="10.00">+ generateTasks()</text>
</g>
<!-- Node2 -->
<g id="node2" class="node"><title>Node2</title>
<g id="a_node2"><a xlink:href="classRa_1_1Engine_1_1System.html" target="_top" xlink:title="Systems are responsible of updating a specific subset of the components of each entity. ">
<polygon fill="white" stroke="black" points="35.5,-141 35.5,-275 176.5,-275 176.5,-141 35.5,-141"/>
<text text-anchor="middle" x="106" y="-263" font-family="Helvetica,sans-Serif" font-size="10.00">Ra::Engine::System</text>
<polyline fill="none" stroke="black" points="35.5,-256 176.5,-256 "/>
<text text-anchor="middle" x="106" y="-244" font-family="Helvetica,sans-Serif" font-size="10.00"> </text>
<polyline fill="none" stroke="black" points="35.5,-237 176.5,-237 "/>
<text text-anchor="start" x="43.5" y="-225" font-family="Helvetica,sans-Serif" font-size="10.00">+ System()</text>
<text text-anchor="start" x="43.5" y="-214" font-family="Helvetica,sans-Serif" font-size="10.00">+ ~System()</text>
<text text-anchor="start" x="43.5" y="-203" font-family="Helvetica,sans-Serif" font-size="10.00">+ generateTasks()</text>
<text text-anchor="start" x="43.5" y="-192" font-family="Helvetica,sans-Serif" font-size="10.00">+ registerComponent()</text>
<text text-anchor="start" x="43.5" y="-181" font-family="Helvetica,sans-Serif" font-size="10.00">+ unregisterComponent()</text>
<text text-anchor="start" x="43.5" y="-170" font-family="Helvetica,sans-Serif" font-size="10.00">+ unregisterAllComponents()</text>
<text text-anchor="start" x="43.5" y="-159" font-family="Helvetica,sans-Serif" font-size="10.00">+ getEntityComponents()</text>
<text text-anchor="start" x="43.5" y="-148" font-family="Helvetica,sans-Serif" font-size="10.00">+ handleAssetLoading()</text>
</a>
</g>
</g>
<!-- Node2&#45;&gt;Node1 -->
<g id="edge1" class="edge"><title>Node2&#45;&gt;Node1</title>
<path fill="none" stroke="midnightblue" d="M106,-130.572C106,-120.708 106,-110.82 106,-101.549"/>
<polygon fill="none" stroke="midnightblue" points="102.5,-130.816 106,-140.816 109.5,-130.816 102.5,-130.816"/>
</g>
<!-- Node3 -->
<g id="node3" class="node"><title>Node3</title>
<polygon fill="white" stroke="#bfbfbf" points="26.5,-324.5 26.5,-403.5 185.5,-403.5 185.5,-324.5 26.5,-324.5"/>
<text text-anchor="start" x="34.5" y="-391.5" font-family="Helvetica,sans-Serif" font-size="10.00">std::vector&lt; std::pair</text>
<text text-anchor="start" x="34.5" y="-380.5" font-family="Helvetica,sans-Serif" font-size="10.00">&lt; const Ra::Engine::Entity</text>
<text text-anchor="middle" x="106" y="-369.5" font-family="Helvetica,sans-Serif" font-size="10.00"> *, Ra::Engine::Component * &gt; &gt;</text>
<polyline fill="none" stroke="#bfbfbf" points="26.5,-362.5 185.5,-362.5 "/>
<text text-anchor="middle" x="106" y="-350.5" font-family="Helvetica,sans-Serif" font-size="10.00"> </text>
<polyline fill="none" stroke="#bfbfbf" points="26.5,-343.5 185.5,-343.5 "/>
<text text-anchor="middle" x="106" y="-331.5" font-family="Helvetica,sans-Serif" font-size="10.00"> </text>
</g>
<!-- Node3&#45;&gt;Node2 -->
<g id="edge2" class="edge"><title>Node3&#45;&gt;Node2</title>
<path fill="none" stroke="#404040" d="M106,-324.139C106,-312.863 106,-300.126 106,-287.34"/>
<polygon fill="none" stroke="#404040" points="106,-287.113 102,-281.113 106,-275.113 110,-281.113 106,-287.113"/>
<text text-anchor="middle" x="144" y="-297.5" font-family="Helvetica,sans-Serif" font-size="10.00"> #m_components</text>
</g>
<!-- Node4 -->
<g id="node4" class="node"><title>Node4</title>
<polygon fill="white" stroke="#bfbfbf" points="-0.5,-474.5 -0.5,-553.5 116.5,-553.5 116.5,-474.5 -0.5,-474.5"/>
<text text-anchor="start" x="7.5" y="-541.5" font-family="Helvetica,sans-Serif" font-size="10.00">pair&lt; const Ra::Engine</text>
<text text-anchor="start" x="7.5" y="-530.5" font-family="Helvetica,sans-Serif" font-size="10.00">::Entity *, Ra::Engine</text>
<text text-anchor="middle" x="58" y="-519.5" font-family="Helvetica,sans-Serif" font-size="10.00">::Component * &gt;</text>
<polyline fill="none" stroke="#bfbfbf" points="-0.5,-512.5 116.5,-512.5 "/>
<text text-anchor="middle" x="58" y="-500.5" font-family="Helvetica,sans-Serif" font-size="10.00"> </text>
<polyline fill="none" stroke="#bfbfbf" points="-0.5,-493.5 116.5,-493.5 "/>
<text text-anchor="middle" x="58" y="-481.5" font-family="Helvetica,sans-Serif" font-size="10.00"> </text>
</g>
<!-- Node4&#45;&gt;Node3 -->
<g id="edge3" class="edge"><title>Node4&#45;&gt;Node3</title>
<path fill="none" stroke="#404040" d="M67.6084,-474.179C71.903,-457.928 77.2838,-438.919 83,-422 83.7557,-419.763 84.5526,-417.487 85.3779,-415.196"/>
<polygon fill="none" stroke="#404040" points="85.4691,-414.952 83.8302,-407.93 89.682,-403.716 91.3209,-410.739 85.4691,-414.952"/>
<text text-anchor="middle" x="107.5" y="-436.5" font-family="Helvetica,sans-Serif" font-size="10.00"> +elements</text>
</g>
<!-- Node5 -->
<g id="node5" class="node"><title>Node5</title>
<g id="a_node5"><a xlink:title="STL class. ">
<polygon fill="white" stroke="#bfbfbf" points="134.5,-485.5 134.5,-542.5 221.5,-542.5 221.5,-485.5 134.5,-485.5"/>
<text text-anchor="middle" x="178" y="-530.5" font-family="Helvetica,sans-Serif" font-size="10.00">std::vector&lt; T &gt;</text>
<polyline fill="none" stroke="#bfbfbf" points="134.5,-523.5 221.5,-523.5 "/>
<text text-anchor="middle" x="178" y="-511.5" font-family="Helvetica,sans-Serif" font-size="10.00"> </text>
<polyline fill="none" stroke="#bfbfbf" points="134.5,-504.5 221.5,-504.5 "/>
<text text-anchor="middle" x="178" y="-492.5" font-family="Helvetica,sans-Serif" font-size="10.00"> </text>
</a>
</g>
</g>
<!-- Node5&#45;&gt;Node3 -->
<g id="edge4" class="edge"><title>Node5&#45;&gt;Node3</title>
<path fill="none" stroke="orange" d="M160.047,-476.096C149.303,-454.012 135.667,-425.982 124.78,-403.603"/>
<polygon fill="orange" stroke="orange" points="156.935,-477.701 164.457,-485.162 163.23,-474.639 156.935,-477.701"/>
<text text-anchor="start" x="148" y="-447.5" font-family="Helvetica,sans-Serif" font-size="10.00"> &lt; std::pair&lt; const</text>
<text text-anchor="start" x="148" y="-436.5" font-family="Helvetica,sans-Serif" font-size="10.00"> Ra::Engine::Entity</text>
<text text-anchor="middle" x="219.5" y="-425.5" font-family="Helvetica,sans-Serif" font-size="10.00"> *, Ra::Engine::Component * &gt; &gt;</text>
</g>
<!-- Node6 -->
<g id="node6" class="node"><title>Node6</title>
<polygon fill="white" stroke="#bfbfbf" points="163.5,-602.5 163.5,-659.5 192.5,-659.5 192.5,-602.5 163.5,-602.5"/>
<text text-anchor="middle" x="178" y="-647.5" font-family="Helvetica,sans-Serif" font-size="10.00">T</text>
<polyline fill="none" stroke="#bfbfbf" points="163.5,-640.5 192.5,-640.5 "/>
<text text-anchor="middle" x="178" y="-628.5" font-family="Helvetica,sans-Serif" font-size="10.00"> </text>
<polyline fill="none" stroke="#bfbfbf" points="163.5,-621.5 192.5,-621.5 "/>
<text text-anchor="middle" x="178" y="-609.5" font-family="Helvetica,sans-Serif" font-size="10.00"> </text>
</g>
<!-- Node6&#45;&gt;Node5 -->
<g id="edge5" class="edge"><title>Node6&#45;&gt;Node5</title>
<path fill="none" stroke="#404040" d="M178,-602.455C178,-588.193 178,-570.521 178,-554.803"/>
<polygon fill="none" stroke="#404040" points="178,-554.719 174,-548.719 178,-542.719 182,-548.719 178,-554.719"/>
<text text-anchor="middle" x="202.5" y="-575.5" font-family="Helvetica,sans-Serif" font-size="10.00"> +elements</text>
</g>
</g>
</svg>
