<?xml version="1.0" encoding="UTF-8" standalone="no"?>
<!DOCTYPE svg PUBLIC "-//W3C//DTD SVG 1.1//EN"
 "http://www.w3.org/Graphics/SVG/1.1/DTD/svg11.dtd">
<!-- Generated by graphviz version 2.36.0 (20140111.2315)
 -->
<!-- Title: Ra::GuiBase::SelectionManager::printSelection Pages: 1 -->
<svg width="1052pt" height="541pt"
 viewBox="0.00 0.00 1052.00 541.00" xmlns="http://www.w3.org/2000/svg" xmlns:xlink="http://www.w3.org/1999/xlink">
<g id="graph0" class="graph" transform="scale(1 1) rotate(0) translate(4 537)">
<title>Ra::GuiBase::SelectionManager::printSelection</title>
<polygon fill="white" stroke="none" points="-4,4 -4,-537 1048,-537 1048,4 -4,4"/>
<!-- Node1 -->
<g id="node1" class="node"><title>Node1</title>
<polygon fill="#bfbfbf" stroke="black" points="0.5,-415 0.5,-445 157.5,-445 157.5,-415 0.5,-415"/>
<text text-anchor="start" x="8.5" y="-433" font-family="Helvetica,sans-Serif" font-size="10.00">Ra::GuiBase::SelectionManager</text>
<text text-anchor="middle" x="79" y="-422" font-family="Helvetica,sans-Serif" font-size="10.00">::printSelection</text>
</g>
<!-- Node2 -->
<g id="node2" class="node"><title>Node2</title>
<g id="a_node2"><a xlink:href="classRa_1_1GuiBase_1_1SelectionManager.html#a34082047d9104b97d5a655c6dd36b8e0" target="_top" xlink:title="Return the set of selected entries. ">
<polygon fill="white" stroke="black" points="194.5,-464 194.5,-494 351.5,-494 351.5,-464 194.5,-464"/>
<text text-anchor="start" x="202.5" y="-482" font-family="Helvetica,sans-Serif" font-size="10.00">Ra::GuiBase::SelectionManager</text>
<text text-anchor="middle" x="273" y="-471" font-family="Helvetica,sans-Serif" font-size="10.00">::selectedEntries</text>
</a>
</g>
</g>
<!-- Node1&#45;&gt;Node2 -->
<g id="edge1" class="edge"><title>Node1&#45;&gt;Node2</title>
<path fill="none" stroke="midnightblue" d="M138.911,-445.035C159.276,-450.232 182.272,-456.101 203.349,-461.48"/>
<polygon fill="midnightblue" stroke="midnightblue" points="202.645,-464.912 213.2,-463.994 204.376,-458.13 202.645,-464.912"/>
</g>
<!-- Node5 -->
<g id="node5" class="node"><title>Node5</title>
<g id="a_node5"><a xlink:href="namespaceRa_1_1Engine.html#a318db0d77f9e9b965c12bd100fb8de50" target="_top" xlink:title="Returns the name associated to the given item. ">
<polygon fill="white" stroke="black" points="206,-183.5 206,-202.5 340,-202.5 340,-183.5 206,-183.5"/>
<text text-anchor="middle" x="273" y="-190.5" font-family="Helvetica,sans-Serif" font-size="10.00">Ra::Engine::getEntryName</text>
</a>
</g>
</g>
<!-- Node1&#45;&gt;Node5 -->
<g id="edge4" class="edge"><title>Node1&#45;&gt;Node5</title>
<path fill="none" stroke="midnightblue" d="M92.3025,-414.814C126.366,-372.767 221.778,-254.993 257.9,-210.404"/>
<polygon fill="midnightblue" stroke="midnightblue" points="260.723,-212.48 264.299,-202.506 255.284,-208.073 260.723,-212.48"/>
</g>
<!-- Node20 -->
<g id="node20" class="node"><title>Node20</title>
<g id="a_node20"><a xlink:href="classRa_1_1GuiBase_1_1SelectionManager.html#a29cbd250208f1e18d2ab1e0f4d91105d" target="_top" xlink:title="Return the current selected item, or an invalid entry if there is no current item. ">
<polygon fill="white" stroke="black" points="194.5,-415 194.5,-445 351.5,-445 351.5,-415 194.5,-415"/>
<text text-anchor="start" x="202.5" y="-433" font-family="Helvetica,sans-Serif" font-size="10.00">Ra::GuiBase::SelectionManager</text>
<text text-anchor="middle" x="273" y="-422" font-family="Helvetica,sans-Serif" font-size="10.00">::currentItem</text>
</a>
</g>
</g>
<!-- Node1&#45;&gt;Node20 -->
<g id="edge28" class="edge"><title>Node1&#45;&gt;Node20</title>
<path fill="none" stroke="midnightblue" d="M157.54,-430C166.388,-430 175.452,-430 184.418,-430"/>
<polygon fill="midnightblue" stroke="midnightblue" points="184.482,-433.5 194.482,-430 184.482,-426.5 184.482,-433.5"/>
</g>
<!-- Node3 -->
<g id="node3" class="node"><title>Node3</title>
<g id="a_node3"><a xlink:href="namespaceRa_1_1Core.html#abc0a3625137098b67838fe52edd480f9" target="_top" xlink:title="SIZE. ">
<polygon fill="white" stroke="black" points="427,-513.5 427,-532.5 507,-532.5 507,-513.5 427,-513.5"/>
<text text-anchor="middle" x="467" y="-520.5" font-family="Helvetica,sans-Serif" font-size="10.00">Ra::Core::size</text>
</a>
</g>
</g>
<!-- Node2&#45;&gt;Node3 -->
<g id="edge2" class="edge"><title>Node2&#45;&gt;Node3</title>
<path fill="none" stroke="midnightblue" d="M339.539,-494.019C364.918,-499.835 393.467,-506.378 417.008,-511.773"/>
<polygon fill="midnightblue" stroke="midnightblue" points="416.238,-515.187 426.767,-514.009 417.801,-508.364 416.238,-515.187"/>
</g>
<!-- Node4 -->
<g id="node4" class="node"><title>Node4</title>
<g id="a_node4"><a xlink:href="classRa_1_1GuiBase_1_1SelectionManager.html#aec178a6b3de1c04e5e1d16ff72c6e966" target="_top" xlink:title="Ra::GuiBase::SelectionManager\l::itemModel">
<polygon fill="white" stroke="black" points="388.5,-464 388.5,-494 545.5,-494 545.5,-464 388.5,-464"/>
<text text-anchor="start" x="396.5" y="-482" font-family="Helvetica,sans-Serif" font-size="10.00">Ra::GuiBase::SelectionManager</text>
<text text-anchor="middle" x="467" y="-471" font-family="Helvetica,sans-Serif" font-size="10.00">::itemModel</text>
</a>
</g>
</g>
<!-- Node2&#45;&gt;Node4 -->
<g id="edge3" class="edge"><title>Node2&#45;&gt;Node4</title>
<path fill="none" stroke="midnightblue" d="M351.54,-479C360.388,-479 369.452,-479 378.418,-479"/>
<polygon fill="midnightblue" stroke="midnightblue" points="378.482,-482.5 388.482,-479 378.482,-475.5 378.482,-482.5"/>
</g>
<!-- Node6 -->
<g id="node6" class="node"><title>Node6</title>
<g id="a_node6"><a xlink:href="structRa_1_1Engine_1_1ItemEntry.html#aceafc81a73631955b64999dd39a639da" target="_top" xlink:title="Returns true if the item represents any valid object. ">
<polygon fill="white" stroke="black" points="410,-227 410,-257 524,-257 524,-227 410,-227"/>
<text text-anchor="start" x="418" y="-245" font-family="Helvetica,sans-Serif" font-size="10.00">Ra::Engine::ItemEntry</text>
<text text-anchor="middle" x="467" y="-234" font-family="Helvetica,sans-Serif" font-size="10.00">::isValid</text>
</a>
</g>
</g>
<!-- Node5&#45;&gt;Node6 -->
<g id="edge5" class="edge"><title>Node5&#45;&gt;Node6</title>
<path fill="none" stroke="midnightblue" d="M311.475,-202.564C336.576,-208.97 370.308,-217.578 399.851,-225.118"/>
<polygon fill="midnightblue" stroke="midnightblue" points="399.136,-228.548 409.691,-227.629 400.867,-221.765 399.136,-228.548"/>
</g>
<!-- Node11 -->
<g id="node11" class="node"><title>Node11</title>
<g id="a_node11"><a xlink:href="classRa_1_1Engine_1_1Entity.html#aaf256bea44bbc5bff6aa504aca05ca35" target="_top" xlink:title="Ra::Engine::Entity\l::getName">
<polygon fill="white" stroke="black" points="601.5,-88 601.5,-118 698.5,-118 698.5,-88 601.5,-88"/>
<text text-anchor="start" x="609.5" y="-106" font-family="Helvetica,sans-Serif" font-size="10.00">Ra::Engine::Entity</text>
<text text-anchor="middle" x="650" y="-95" font-family="Helvetica,sans-Serif" font-size="10.00">::getName</text>
</a>
</g>
</g>
<!-- Node5&#45;&gt;Node11 -->
<g id="edge27" class="edge"><title>Node5&#45;&gt;Node11</title>
<path fill="none" stroke="midnightblue" d="M296.339,-183.473C319.058,-174.095 355.452,-159.918 388,-151 456.878,-132.128 538.037,-118.511 591.35,-110.705"/>
<polygon fill="midnightblue" stroke="midnightblue" points="591.903,-114.162 601.301,-109.269 590.903,-107.234 591.903,-114.162"/>
</g>
<!-- Node12 -->
<g id="node12" class="node"><title>Node12</title>
<g id="a_node12"><a xlink:href="structRa_1_1Engine_1_1ItemEntry.html#a898047549069e5b64d3a9a65c058af56" target="_top" xlink:title="Returns true if the item represents a render object. ">
<polygon fill="white" stroke="black" points="593,-323 593,-353 707,-353 707,-323 593,-323"/>
<text text-anchor="start" x="601" y="-341" font-family="Helvetica,sans-Serif" font-size="10.00">Ra::Engine::ItemEntry</text>
<text text-anchor="middle" x="650" y="-330" font-family="Helvetica,sans-Serif" font-size="10.00">::isRoNode</text>
</a>
</g>
</g>
<!-- Node5&#45;&gt;Node12 -->
<g id="edge17" class="edge"><title>Node5&#45;&gt;Node12</title>
<path fill="none" stroke="midnightblue" d="M286.279,-202.646C306.439,-218.057 348.289,-248.297 388,-266 451.656,-294.378 529.129,-314.037 583.059,-325.557"/>
<polygon fill="midnightblue" stroke="midnightblue" points="582.341,-328.982 592.847,-327.613 583.78,-322.132 582.341,-328.982"/>
</g>
<!-- Node14 -->
<g id="node14" class="node"><title>Node14</title>
<g id="a_node14"><a xlink:href="classRa_1_1Engine_1_1RadiumEngine.html#a58b27bc600ea769f68b0e2938abc7862" target="_top" xlink:title="Manager getters. ">
<polygon fill="white" stroke="black" points="582.5,-137 582.5,-167 717.5,-167 717.5,-137 582.5,-137"/>
<text text-anchor="start" x="590.5" y="-155" font-family="Helvetica,sans-Serif" font-size="10.00">Ra::Engine::RadiumEngine</text>
<text text-anchor="middle" x="650" y="-144" font-family="Helvetica,sans-Serif" font-size="10.00">::getRenderObjectManager</text>
</a>
</g>
</g>
<!-- Node5&#45;&gt;Node14 -->
<g id="edge18" class="edge"><title>Node5&#45;&gt;Node14</title>
<path fill="none" stroke="midnightblue" d="M310.449,-183.499C332.699,-178.077 361.812,-171.652 388,-168 449.648,-159.403 520.128,-155.426 572.297,-153.585"/>
<polygon fill="midnightblue" stroke="midnightblue" points="572.601,-157.077 582.478,-153.245 572.367,-150.081 572.601,-157.077"/>
</g>
<!-- Node16 -->
<g id="node16" class="node"><title>Node16</title>
<g id="a_node16"><a xlink:href="classRa_1_1Engine_1_1RenderObjectManager.html#a32bd0db0d9620bb7e3f0fe50b541dae3" target="_top" xlink:title="Returns the render object corresponding to the given index. ">
<polygon fill="white" stroke="black" points="400,-358 400,-388 534,-388 534,-358 400,-358"/>
<text text-anchor="start" x="408" y="-376" font-family="Helvetica,sans-Serif" font-size="10.00">Ra::Engine::RenderObject</text>
<text text-anchor="middle" x="467" y="-365" font-family="Helvetica,sans-Serif" font-size="10.00">Manager::getRenderObject</text>
</a>
</g>
</g>
<!-- Node5&#45;&gt;Node16 -->
<g id="edge19" class="edge"><title>Node5&#45;&gt;Node16</title>
<path fill="none" stroke="midnightblue" d="M280.534,-202.72C296.67,-226.214 340.551,-287.087 388,-327 399.52,-336.691 413.336,-345.568 426.117,-352.884"/>
<polygon fill="midnightblue" stroke="midnightblue" points="424.752,-356.13 435.194,-357.925 428.151,-350.01 424.752,-356.13"/>
</g>
<!-- Node17 -->
<g id="node17" class="node"><title>Node17</title>
<g id="a_node17"><a xlink:href="structRa_1_1Engine_1_1ItemEntry.html#ac78e7430338c62ed664a16da7e3ea206" target="_top" xlink:title="Returns true if the item represents a component. ">
<polygon fill="white" stroke="black" points="593,-0 593,-30 707,-30 707,-0 593,-0"/>
<text text-anchor="start" x="601" y="-18" font-family="Helvetica,sans-Serif" font-size="10.00">Ra::Engine::ItemEntry</text>
<text text-anchor="middle" x="650" y="-7" font-family="Helvetica,sans-Serif" font-size="10.00">::isComponentNode</text>
</a>
</g>
</g>
<!-- Node5&#45;&gt;Node17 -->
<g id="edge21" class="edge"><title>Node5&#45;&gt;Node17</title>
<path fill="none" stroke="midnightblue" d="M277.609,-183.448C288.862,-155.165 326.294,-71.67 388,-37 447.621,-3.50142 527.265,-1.76857 582.832,-6.03994"/>
<polygon fill="midnightblue" stroke="midnightblue" points="582.655,-9.53751 592.917,-6.90107 583.251,-2.56289 582.655,-9.53751"/>
</g>
<!-- Node18 -->
<g id="node18" class="node"><title>Node18</title>
<g id="a_node18"><a xlink:href="classRa_1_1Engine_1_1Component.html#aa3e5cb90432a9a49e4362b673652ff76" target="_top" xlink:title="Return the component&#39;s name. ">
<polygon fill="white" stroke="black" points="406,-178 406,-208 528,-208 528,-178 406,-178"/>
<text text-anchor="start" x="414" y="-196" font-family="Helvetica,sans-Serif" font-size="10.00">Ra::Engine::Component</text>
<text text-anchor="middle" x="467" y="-185" font-family="Helvetica,sans-Serif" font-size="10.00">::getName</text>
</a>
</g>
</g>
<!-- Node5&#45;&gt;Node18 -->
<g id="edge24" class="edge"><title>Node5&#45;&gt;Node18</title>
<path fill="none" stroke="midnightblue" d="M340.076,-193C358.022,-193 377.52,-193 395.691,-193"/>
<polygon fill="midnightblue" stroke="midnightblue" points="395.923,-196.5 405.923,-193 395.923,-189.5 395.923,-196.5"/>
</g>
<!-- Node19 -->
<g id="node19" class="node"><title>Node19</title>
<g id="a_node19"><a xlink:href="structRa_1_1Engine_1_1ItemEntry.html#a4823dfa3c113db71733979f1719f3b28" target="_top" xlink:title="Returns true if the item represents an entity. ">
<polygon fill="white" stroke="black" points="410,-47 410,-77 524,-77 524,-47 410,-47"/>
<text text-anchor="start" x="418" y="-65" font-family="Helvetica,sans-Serif" font-size="10.00">Ra::Engine::ItemEntry</text>
<text text-anchor="middle" x="467" y="-54" font-family="Helvetica,sans-Serif" font-size="10.00">::isEntityNode</text>
</a>
</g>
</g>
<!-- Node5&#45;&gt;Node19 -->
<g id="edge25" class="edge"><title>Node5&#45;&gt;Node19</title>
<path fill="none" stroke="midnightblue" d="M283.296,-183.385C301.817,-164.636 345.234,-122.695 388,-96 396.647,-90.6027 406.299,-85.6449 415.786,-81.2817"/>
<polygon fill="midnightblue" stroke="midnightblue" points="417.449,-84.3729 425.175,-77.1225 414.614,-77.9727 417.449,-84.3729"/>
</g>
<!-- Node7 -->
<g id="node7" class="node"><title>Node7</title>
<g id="a_node7"><a xlink:href="structRa_1_1Engine_1_1ItemEntry.html#a1fb9fdd74413a1fa5878f53c1cfcf8fd" target="_top" xlink:title="Debug checks. ">
<polygon fill="white" stroke="black" points="760,-44 760,-74 874,-74 874,-44 760,-44"/>
<text text-anchor="start" x="768" y="-62" font-family="Helvetica,sans-Serif" font-size="10.00">Ra::Engine::ItemEntry</text>
<text text-anchor="middle" x="817" y="-51" font-family="Helvetica,sans-Serif" font-size="10.00">::checkConsistency</text>
</a>
</g>
</g>
<!-- Node6&#45;&gt;Node7 -->
<g id="edge6" class="edge"><title>Node6&#45;&gt;Node7</title>
<path fill="none" stroke="midnightblue" d="M524.148,-228.092C595.278,-210.339 709.687,-181.279 718,-176 755.415,-152.238 785.777,-109.574 802.328,-82.8563"/>
<polygon fill="midnightblue" stroke="midnightblue" points="805.425,-84.4981 807.595,-74.1279 799.432,-80.8813 805.425,-84.4981"/>
</g>
<!-- Node9 -->
<g id="node9" class="node"><title>Node9</title>
<g id="a_node9"><a xlink:href="classRa_1_1Engine_1_1RadiumEngine.html#a79f6626ce468268791bc5bdfe17b5586" target="_top" xlink:title="Ra::Engine::RadiumEngine\l::getEntityManager">
<polygon fill="white" stroke="black" points="582.5,-274 582.5,-304 717.5,-304 717.5,-274 582.5,-274"/>
<text text-anchor="start" x="590.5" y="-292" font-family="Helvetica,sans-Serif" font-size="10.00">Ra::Engine::RadiumEngine</text>
<text text-anchor="middle" x="650" y="-281" font-family="Helvetica,sans-Serif" font-size="10.00">::getEntityManager</text>
</a>
</g>
</g>
<!-- Node6&#45;&gt;Node9 -->
<g id="edge8" class="edge"><title>Node6&#45;&gt;Node9</title>
<path fill="none" stroke="midnightblue" d="M524.277,-256.613C542.393,-261.318 562.655,-266.579 581.493,-271.471"/>
<polygon fill="midnightblue" stroke="midnightblue" points="580.637,-274.864 591.196,-273.99 582.397,-268.089 580.637,-274.864"/>
</g>
<!-- Node10 -->
<g id="node10" class="node"><title>Node10</title>
<g id="a_node10"><a xlink:href="classRa_1_1Engine_1_1EntityManager.html#a5115cccae6aaef614ad4bd08e64d8185" target="_top" xlink:title="Check wether an entity with a given name exists or not. ">
<polygon fill="white" stroke="black" points="583,-225 583,-255 717,-255 717,-225 583,-225"/>
<text text-anchor="start" x="591" y="-243" font-family="Helvetica,sans-Serif" font-size="10.00">Ra::Engine::EntityManager</text>
<text text-anchor="middle" x="650" y="-232" font-family="Helvetica,sans-Serif" font-size="10.00">::entityExists</text>
</a>
</g>
</g>
<!-- Node6&#45;&gt;Node10 -->
<g id="edge9" class="edge"><title>Node6&#45;&gt;Node10</title>
<path fill="none" stroke="midnightblue" d="M524.277,-241.378C539.66,-241.208 556.591,-241.021 572.883,-240.841"/>
<polygon fill="midnightblue" stroke="midnightblue" points="572.964,-244.34 582.925,-240.73 572.886,-237.341 572.964,-244.34"/>
</g>
<!-- Node6&#45;&gt;Node11 -->
<g id="edge10" class="edge"><title>Node6&#45;&gt;Node11</title>
<path fill="none" stroke="midnightblue" d="M524.178,-230.706C532.158,-227.281 539.758,-222.817 546,-217 577.515,-187.627 550.986,-156.902 582,-127 585.102,-124.009 588.602,-121.388 592.335,-119.091"/>
<polygon fill="midnightblue" stroke="midnightblue" points="594.187,-122.071 601.387,-114.298 590.912,-115.884 594.187,-122.071"/>
</g>
<!-- Node6&#45;&gt;Node12 -->
<g id="edge11" class="edge"><title>Node6&#45;&gt;Node12</title>
<path fill="none" stroke="midnightblue" d="M489.529,-257.231C511.909,-272.622 548.314,-296.433 582,-313 586.3,-315.115 590.826,-317.16 595.412,-319.109"/>
<polygon fill="midnightblue" stroke="midnightblue" points="594.277,-322.425 604.858,-322.964 596.922,-315.945 594.277,-322.425"/>
</g>
<!-- Node6&#45;&gt;Node14 -->
<g id="edge14" class="edge"><title>Node6&#45;&gt;Node14</title>
<path fill="none" stroke="midnightblue" d="M524.345,-227.412C531.87,-224.476 539.295,-221.026 546,-217 565.132,-205.513 563.534,-194.529 582,-182 587.598,-178.202 593.755,-174.689 599.998,-171.507"/>
<polygon fill="midnightblue" stroke="midnightblue" points="601.669,-174.586 609.152,-167.085 598.625,-168.283 601.669,-174.586"/>
</g>
<!-- Node15 -->
<g id="node15" class="node"><title>Node15</title>
<g id="a_node15"><a xlink:href="classRa_1_1Engine_1_1RenderObjectManager.html#a4077b9cf9e1e4d62fd5456386f2d72c8" target="_top" xlink:title="Returns true if the index points to a valid render object. ">
<polygon fill="white" stroke="black" points="584.5,-372 584.5,-402 715.5,-402 715.5,-372 584.5,-372"/>
<text text-anchor="start" x="592.5" y="-390" font-family="Helvetica,sans-Serif" font-size="10.00">Ra::Engine::RenderObject</text>
<text text-anchor="middle" x="650" y="-379" font-family="Helvetica,sans-Serif" font-size="10.00">Manager::exists</text>
</a>
</g>
</g>
<!-- Node6&#45;&gt;Node15 -->
<g id="edge15" class="edge"><title>Node6&#45;&gt;Node15</title>
<path fill="none" stroke="midnightblue" d="M478.908,-257.399C497.436,-282.535 537.412,-332.527 582,-362 584.937,-363.942 588.046,-365.76 591.252,-367.458"/>
<polygon fill="midnightblue" stroke="midnightblue" points="589.958,-370.72 600.484,-371.93 593.01,-364.421 589.958,-370.72"/>
</g>
<!-- Node8 -->
<g id="node8" class="node"><title>Node8</title>
<g id="a_node8"><a xlink:href="classRa_1_1Core_1_1Index.html#a7283e7fb9cc134e04ef3cde8877f8fe2" target="_top" xlink:title="INVALID. ">
<polygon fill="white" stroke="black" points="916,-27.5 916,-46.5 1044,-46.5 1044,-27.5 916,-27.5"/>
<text text-anchor="middle" x="980" y="-34.5" font-family="Helvetica,sans-Serif" font-size="10.00">Ra::Core::Index::isInvalid</text>
</a>
</g>
</g>
<!-- Node7&#45;&gt;Node8 -->
<g id="edge7" class="edge"><title>Node7&#45;&gt;Node8</title>
<path fill="none" stroke="midnightblue" d="M874.31,-51.3055C884.48,-49.9157 895.218,-48.4484 905.788,-47.0042"/>
<polygon fill="midnightblue" stroke="midnightblue" points="906.411,-50.4516 915.845,-45.6299 905.463,-43.5161 906.411,-50.4516"/>
</g>
<!-- Node12&#45;&gt;Node7 -->
<g id="edge12" class="edge"><title>Node12&#45;&gt;Node7</title>
<path fill="none" stroke="midnightblue" d="M704.752,-322.865C709.588,-320.101 714.116,-316.841 718,-313 783.593,-248.131 806.133,-134.531 813.141,-84.2143"/>
<polygon fill="midnightblue" stroke="midnightblue" points="816.624,-84.5727 814.443,-74.2046 809.682,-83.6693 816.624,-84.5727"/>
</g>
<!-- Node13 -->
<g id="node13" class="node"><title>Node13</title>
<g id="a_node13"><a xlink:href="classRa_1_1Core_1_1Index.html#a87c70243f30c65c1a24834d1829bda01" target="_top" xlink:title="DESTRUCTOR: Must not be defined, we need it trivial to be constexpr. ">
<polygon fill="white" stroke="black" points="756,-352.5 756,-371.5 878,-371.5 878,-352.5 756,-352.5"/>
<text text-anchor="middle" x="817" y="-359.5" font-family="Helvetica,sans-Serif" font-size="10.00">Ra::Core::Index::isValid</text>
</a>
</g>
</g>
<!-- Node12&#45;&gt;Node13 -->
<g id="edge13" class="edge"><title>Node12&#45;&gt;Node13</title>
<path fill="none" stroke="midnightblue" d="M707.322,-346.192C719.698,-347.992 732.95,-349.92 745.796,-351.789"/>
<polygon fill="midnightblue" stroke="midnightblue" points="745.587,-355.295 755.986,-353.271 746.594,-348.368 745.587,-355.295"/>
</g>
<!-- Node15&#45;&gt;Node13 -->
<g id="edge16" class="edge"><title>Node15&#45;&gt;Node13</title>
<path fill="none" stroke="midnightblue" d="M715.739,-377.191C725.625,-375.693 735.868,-374.141 745.864,-372.627"/>
<polygon fill="midnightblue" stroke="midnightblue" points="746.392,-376.087 755.755,-371.128 745.343,-369.166 746.392,-376.087"/>
</g>
<!-- Node16&#45;&gt;Node15 -->
<g id="edge20" class="edge"><title>Node16&#45;&gt;Node15</title>
<path fill="none" stroke="midnightblue" d="M534.113,-378.114C547.15,-379.122 560.917,-380.187 574.216,-381.216"/>
<polygon fill="midnightblue" stroke="midnightblue" points="574.035,-384.712 584.275,-381.994 574.575,-377.733 574.035,-384.712"/>
</g>
<!-- Node17&#45;&gt;Node7 -->
<g id="edge22" class="edge"><title>Node17&#45;&gt;Node7</title>
<path fill="none" stroke="midnightblue" d="M707.322,-30.0192C721.127,-33.7007 736.024,-37.673 750.229,-41.4612"/>
<polygon fill="midnightblue" stroke="midnightblue" points="749.367,-44.8536 759.932,-44.0484 751.171,-38.0899 749.367,-44.8536"/>
</g>
<!-- Node17&#45;&gt;Node8 -->
<g id="edge23" class="edge"><title>Node17&#45;&gt;Node8</title>
<path fill="none" stroke="midnightblue" d="M707.013,-18.7569C761.842,-22.4345 845.661,-28.0565 905.753,-32.0871"/>
<polygon fill="midnightblue" stroke="midnightblue" points="905.722,-35.5928 915.933,-32.7699 906.19,-28.6085 905.722,-35.5928"/>
</g>
<!-- Node19&#45;&gt;Node7 -->
<g id="edge26" class="edge"><title>Node19&#45;&gt;Node7</title>
<path fill="none" stroke="midnightblue" d="M524.299,-61.5147C585.834,-60.9842 684.343,-60.135 749.604,-59.5724"/>
<polygon fill="midnightblue" stroke="midnightblue" points="749.813,-63.0708 759.782,-59.4846 749.752,-56.0711 749.813,-63.0708"/>
</g>
<!-- Node20&#45;&gt;Node4 -->
<g id="edge29" class="edge"><title>Node20&#45;&gt;Node4</title>
<path fill="none" stroke="midnightblue" d="M332.911,-445.035C353.276,-450.232 376.272,-456.101 397.349,-461.48"/>
<polygon fill="midnightblue" stroke="midnightblue" points="396.645,-464.912 407.2,-463.994 398.376,-458.13 396.645,-464.912"/>
</g>
<!-- Node21 -->
<g id="node21" class="node"><title>Node21</title>
<g id="a_node21"><a xlink:href="classRa_1_1GuiBase_1_1ItemModel.html#a3236433d461ad6cac5e9390b2685fa3f" target="_top" xlink:title="Returns the entry corresponding to a given index or an invalid entry if the index doesn&#39;t match any e...">
<polygon fill="white" stroke="black" points="404.5,-415 404.5,-445 529.5,-445 529.5,-415 404.5,-415"/>
<text text-anchor="start" x="412.5" y="-433" font-family="Helvetica,sans-Serif" font-size="10.00">Ra::GuiBase::ItemModel</text>
<text text-anchor="middle" x="467" y="-422" font-family="Helvetica,sans-Serif" font-size="10.00">::getEntry</text>
</a>
</g>
</g>
<!-- Node20&#45;&gt;Node21 -->
<g id="edge30" class="edge"><title>Node20&#45;&gt;Node21</title>
<path fill="none" stroke="midnightblue" d="M351.54,-430C365.694,-430 380.404,-430 394.376,-430"/>
<polygon fill="midnightblue" stroke="midnightblue" points="394.401,-433.5 404.401,-430 394.401,-426.5 394.401,-433.5"/>
</g>
<!-- Node22 -->
<g id="node22" class="node"><title>Node22</title>
<g id="a_node22"><a xlink:href="classRa_1_1GuiBase_1_1TreeModel.html#a5aa24ace72c1c3d29e268cb34dc576f2" target="_top" xlink:title="Get the tree item corresponding to the given index. ">
<polygon fill="white" stroke="black" points="587.5,-421 587.5,-451 712.5,-451 712.5,-421 587.5,-421"/>
<text text-anchor="start" x="595.5" y="-439" font-family="Helvetica,sans-Serif" font-size="10.00">Ra::GuiBase::TreeModel</text>
<text text-anchor="middle" x="650" y="-428" font-family="Helvetica,sans-Serif" font-size="10.00">::getItem</text>
</a>
</g>
</g>
<!-- Node21&#45;&gt;Node22 -->
<g id="edge31" class="edge"><title>Node21&#45;&gt;Node22</title>
<path fill="none" stroke="midnightblue" d="M529.531,-432.04C544.832,-432.547 561.367,-433.095 577.117,-433.617"/>
<polygon fill="midnightblue" stroke="midnightblue" points="577.221,-437.122 587.332,-433.956 577.453,-430.126 577.221,-437.122"/>
</g>
<!-- Node23 -->
<g id="node23" class="node"><title>Node23</title>
<g id="a_node23"><a xlink:href="classRa_1_1GuiBase_1_1TreeModel.html#a972106921da4c960f23f81722d3b4cf5" target="_top" xlink:title="Internal functions to check if an item is in the tree. ">
<polygon fill="white" stroke="black" points="754.5,-421 754.5,-451 879.5,-451 879.5,-421 754.5,-421"/>
<text text-anchor="start" x="762.5" y="-439" font-family="Helvetica,sans-Serif" font-size="10.00">Ra::GuiBase::TreeModel</text>
<text text-anchor="middle" x="817" y="-428" font-family="Helvetica,sans-Serif" font-size="10.00">::findInTree</text>
</a>
</g>
</g>
<!-- Node22&#45;&gt;Node23 -->
<g id="edge32" class="edge"><title>Node22&#45;&gt;Node23</title>
<path fill="none" stroke="midnightblue" d="M712.909,-436C723.06,-436 733.654,-436 744.023,-436"/>
<polygon fill="midnightblue" stroke="midnightblue" points="744.292,-439.5 754.292,-436 744.292,-432.5 744.292,-439.5"/>
</g>
</g>
</svg>
