<?xml version="1.0" encoding="UTF-8" standalone="no"?>
<!DOCTYPE svg PUBLIC "-//W3C//DTD SVG 1.1//EN"
 "http://www.w3.org/Graphics/SVG/1.1/DTD/svg11.dtd">
<!-- Generated by graphviz version 2.36.0 (20140111.2315)
 -->
<!-- Title: Ra::Asset::CameraData Pages: 1 -->
<svg width="416pt" height="672pt"
 viewBox="0.00 0.00 416.00 672.00" xmlns="http://www.w3.org/2000/svg" xmlns:xlink="http://www.w3.org/1999/xlink">
<g id="graph0" class="graph" transform="scale(1 1) rotate(0) translate(4 668)">
<title>Ra::Asset::CameraData</title>
<polygon fill="white" stroke="none" points="-4,4 -4,-668 412,-668 412,4 -4,4"/>
<!-- Node1 -->
<g id="node1" class="node"><title>Node1</title>
<polygon fill="#bfbfbf" stroke="black" points="130.5,-0.5 130.5,-277.5 259.5,-277.5 259.5,-0.5 130.5,-0.5"/>
<text text-anchor="middle" x="195" y="-265.5" font-family="Helvetica,sans-Serif" font-size="10.00">Ra::Asset::CameraData</text>
<polyline fill="none" stroke="black" points="130.5,-258.5 259.5,-258.5 "/>
<text text-anchor="middle" x="195" y="-246.5" font-family="Helvetica,sans-Serif" font-size="10.00"> </text>
<polyline fill="none" stroke="black" points="130.5,-239.5 259.5,-239.5 "/>
<text text-anchor="start" x="138.5" y="-227.5" font-family="Helvetica,sans-Serif" font-size="10.00">+ CameraData()</text>
<text text-anchor="start" x="138.5" y="-216.5" font-family="Helvetica,sans-Serif" font-size="10.00">+ CameraData()</text>
<text text-anchor="start" x="138.5" y="-205.5" font-family="Helvetica,sans-Serif" font-size="10.00">+ ~CameraData()</text>
<text text-anchor="start" x="138.5" y="-194.5" font-family="Helvetica,sans-Serif" font-size="10.00">+ setName()</text>
<text text-anchor="start" x="138.5" y="-183.5" font-family="Helvetica,sans-Serif" font-size="10.00">+ getType()</text>
<text text-anchor="start" x="138.5" y="-172.5" font-family="Helvetica,sans-Serif" font-size="10.00">+ setType()</text>
<text text-anchor="start" x="138.5" y="-161.5" font-family="Helvetica,sans-Serif" font-size="10.00">+ getFrame()</text>
<text text-anchor="start" x="138.5" y="-150.5" font-family="Helvetica,sans-Serif" font-size="10.00">+ setFrame()</text>
<text text-anchor="start" x="138.5" y="-139.5" font-family="Helvetica,sans-Serif" font-size="10.00">+ getFov()</text>
<text text-anchor="start" x="138.5" y="-128.5" font-family="Helvetica,sans-Serif" font-size="10.00">+ setFov()</text>
<text text-anchor="start" x="138.5" y="-117.5" font-family="Helvetica,sans-Serif" font-size="10.00">+ getZNear()</text>
<text text-anchor="start" x="138.5" y="-106.5" font-family="Helvetica,sans-Serif" font-size="10.00">+ setZNear()</text>
<text text-anchor="start" x="138.5" y="-95.5" font-family="Helvetica,sans-Serif" font-size="10.00">+ getZFar()</text>
<text text-anchor="start" x="138.5" y="-84.5" font-family="Helvetica,sans-Serif" font-size="10.00">+ setZFar()</text>
<text text-anchor="start" x="138.5" y="-73.5" font-family="Helvetica,sans-Serif" font-size="10.00">+ getZoomFactor()</text>
<text text-anchor="start" x="138.5" y="-62.5" font-family="Helvetica,sans-Serif" font-size="10.00">+ setZoomFactor()</text>
<text text-anchor="start" x="138.5" y="-51.5" font-family="Helvetica,sans-Serif" font-size="10.00">+ getAspect()</text>
<text text-anchor="start" x="138.5" y="-40.5" font-family="Helvetica,sans-Serif" font-size="10.00">+ setAspect()</text>
<text text-anchor="start" x="138.5" y="-29.5" font-family="Helvetica,sans-Serif" font-size="10.00">+ isOrthographicCamera()</text>
<text text-anchor="start" x="138.5" y="-18.5" font-family="Helvetica,sans-Serif" font-size="10.00">+ isPespectiveCamera()</text>
<text text-anchor="start" x="138.5" y="-7.5" font-family="Helvetica,sans-Serif" font-size="10.00">+ displayInfo()</text>
</g>
<!-- Node2 -->
<g id="node2" class="node"><title>Node2</title>
<g id="a_node2"><a xlink:href="classRa_1_1Asset_1_1AssetData.html" target="_top" xlink:title="{Ra::Asset::AssetData\n||+ AssetData()\l+ ~AssetData()\l+ getName()\l}">
<polygon fill="white" stroke="black" points="-0.5,-370.5 -0.5,-449.5 112.5,-449.5 112.5,-370.5 -0.5,-370.5"/>
<text text-anchor="middle" x="56" y="-437.5" font-family="Helvetica,sans-Serif" font-size="10.00">Ra::Asset::AssetData</text>
<polyline fill="none" stroke="black" points="-0.5,-430.5 112.5,-430.5 "/>
<text text-anchor="middle" x="56" y="-418.5" font-family="Helvetica,sans-Serif" font-size="10.00"> </text>
<polyline fill="none" stroke="black" points="-0.5,-411.5 112.5,-411.5 "/>
<text text-anchor="start" x="7.5" y="-399.5" font-family="Helvetica,sans-Serif" font-size="10.00">+ AssetData()</text>
<text text-anchor="start" x="7.5" y="-388.5" font-family="Helvetica,sans-Serif" font-size="10.00">+ ~AssetData()</text>
<text text-anchor="start" x="7.5" y="-377.5" font-family="Helvetica,sans-Serif" font-size="10.00">+ getName()</text>
</a>
</g>
</g>
<!-- Node2&#45;&gt;Node1 -->
<g id="edge1" class="edge"><title>Node2&#45;&gt;Node1</title>
<path fill="none" stroke="midnightblue" d="M80.6662,-361.265C94.6148,-334.271 112.767,-299.142 130.485,-264.853"/>
<polygon fill="none" stroke="midnightblue" points="77.3966,-359.968 75.9153,-370.459 83.6154,-363.182 77.3966,-359.968"/>
</g>
<!-- Node3 -->
<g id="node3" class="node"><title>Node3</title>
<g id="a_node3"><a xlink:title="STL class. ">
<polygon fill="white" stroke="#bfbfbf" points="26,-498.5 26,-555.5 86,-555.5 86,-498.5 26,-498.5"/>
<text text-anchor="middle" x="56" y="-543.5" font-family="Helvetica,sans-Serif" font-size="10.00">std::string</text>
<polyline fill="none" stroke="#bfbfbf" points="26,-536.5 86,-536.5 "/>
<text text-anchor="middle" x="56" y="-524.5" font-family="Helvetica,sans-Serif" font-size="10.00"> </text>
<polyline fill="none" stroke="#bfbfbf" points="26,-517.5 86,-517.5 "/>
<text text-anchor="middle" x="56" y="-505.5" font-family="Helvetica,sans-Serif" font-size="10.00"> </text>
</a>
</g>
</g>
<!-- Node3&#45;&gt;Node2 -->
<g id="edge2" class="edge"><title>Node3&#45;&gt;Node2</title>
<path fill="none" stroke="#404040" d="M56,-498.455C56,-487.491 56,-474.511 56,-461.953"/>
<polygon fill="none" stroke="#404040" points="56.0001,-461.626 52,-455.626 56,-449.626 60,-455.626 56.0001,-461.626"/>
<text text-anchor="middle" x="79" y="-471.5" font-family="Helvetica,sans-Serif" font-size="10.00"> #m_name</text>
</g>
<!-- Node4 -->
<g id="node4" class="node"><title>Node4</title>
<g id="a_node4"><a xlink:title="STL class. ">
<polygon fill="white" stroke="#bfbfbf" points="8.5,-595 8.5,-663 103.5,-663 103.5,-595 8.5,-595"/>
<text text-anchor="start" x="16.5" y="-651" font-family="Helvetica,sans-Serif" font-size="10.00">std::basic_string&lt;</text>
<text text-anchor="middle" x="56" y="-640" font-family="Helvetica,sans-Serif" font-size="10.00"> char &gt;</text>
<polyline fill="none" stroke="#bfbfbf" points="8.5,-633 103.5,-633 "/>
<text text-anchor="middle" x="56" y="-621" font-family="Helvetica,sans-Serif" font-size="10.00"> </text>
<polyline fill="none" stroke="#bfbfbf" points="8.5,-614 103.5,-614 "/>
<text text-anchor="middle" x="56" y="-602" font-family="Helvetica,sans-Serif" font-size="10.00"> </text>
</a>
</g>
</g>
<!-- Node4&#45;&gt;Node3 -->
<g id="edge3" class="edge"><title>Node4&#45;&gt;Node3</title>
<path fill="none" stroke="midnightblue" d="M56,-584.857C56,-574.952 56,-564.682 56,-555.64"/>
<polygon fill="none" stroke="midnightblue" points="52.5001,-584.979 56,-594.979 59.5001,-584.979 52.5001,-584.979"/>
</g>
<!-- Node5 -->
<g id="node5" class="node"><title>Node5</title>
<polygon fill="white" stroke="#bfbfbf" points="130.5,-381.5 130.5,-438.5 165.5,-438.5 165.5,-381.5 130.5,-381.5"/>
<text text-anchor="middle" x="148" y="-426.5" font-family="Helvetica,sans-Serif" font-size="10.00">float</text>
<polyline fill="none" stroke="#bfbfbf" points="130.5,-419.5 165.5,-419.5 "/>
<text text-anchor="middle" x="148" y="-407.5" font-family="Helvetica,sans-Serif" font-size="10.00"> </text>
<polyline fill="none" stroke="#bfbfbf" points="130.5,-400.5 165.5,-400.5 "/>
<text text-anchor="middle" x="148" y="-388.5" font-family="Helvetica,sans-Serif" font-size="10.00"> </text>
</g>
<!-- Node5&#45;&gt;Node1 -->
<g id="edge4" class="edge"><title>Node5&#45;&gt;Node1</title>
<path fill="none" stroke="#404040" d="M146.122,-381.433C145.063,-358.45 144.695,-324.913 149,-296 149.307,-293.936 149.635,-291.861 149.982,-289.778"/>
<polygon fill="none" stroke="#404040" points="150.019,-289.575 147.159,-282.955 152.169,-277.769 155.029,-284.388 150.019,-289.575"/>
<text text-anchor="middle" x="184.5" y="-343.5" font-family="Helvetica,sans-Serif" font-size="10.00"> #m_zNear</text>
<text text-anchor="middle" x="184.5" y="-332.5" font-family="Helvetica,sans-Serif" font-size="10.00">#m_zoomFactor</text>
<text text-anchor="middle" x="184.5" y="-321.5" font-family="Helvetica,sans-Serif" font-size="10.00">#m_zFar</text>
<text text-anchor="middle" x="184.5" y="-310.5" font-family="Helvetica,sans-Serif" font-size="10.00">#m_fov</text>
<text text-anchor="middle" x="184.5" y="-299.5" font-family="Helvetica,sans-Serif" font-size="10.00">#m_aspect</text>
</g>
<!-- Node6 -->
<g id="node6" class="node"><title>Node6</title>
<polygon fill="white" stroke="#bfbfbf" points="205.5,-381.5 205.5,-438.5 278.5,-438.5 278.5,-381.5 205.5,-381.5"/>
<text text-anchor="middle" x="242" y="-426.5" font-family="Helvetica,sans-Serif" font-size="10.00">CameraType</text>
<polyline fill="none" stroke="#bfbfbf" points="205.5,-419.5 278.5,-419.5 "/>
<text text-anchor="middle" x="242" y="-407.5" font-family="Helvetica,sans-Serif" font-size="10.00"> </text>
<polyline fill="none" stroke="#bfbfbf" points="205.5,-400.5 278.5,-400.5 "/>
<text text-anchor="middle" x="242" y="-388.5" font-family="Helvetica,sans-Serif" font-size="10.00"> </text>
</g>
<!-- Node6&#45;&gt;Node1 -->
<g id="edge5" class="edge"><title>Node6&#45;&gt;Node1</title>
<path fill="none" stroke="#404040" d="M237.191,-381.476C233.25,-358.919 227.335,-325.065 221.171,-289.79"/>
<polygon fill="none" stroke="#404040" points="221.14,-289.607 216.167,-284.385 219.074,-277.786 224.047,-283.008 221.14,-289.607"/>
<text text-anchor="middle" x="252.5" y="-321.5" font-family="Helvetica,sans-Serif" font-size="10.00"> #m_type</text>
</g>
<!-- Node7 -->
<g id="node7" class="node"><title>Node7</title>
<polygon fill="white" stroke="#bfbfbf" points="297,-381.5 297,-438.5 409,-438.5 409,-381.5 297,-381.5"/>
<text text-anchor="middle" x="353" y="-426.5" font-family="Helvetica,sans-Serif" font-size="10.00">Matrix&lt; Scalar, 4, 4 &gt;</text>
<polyline fill="none" stroke="#bfbfbf" points="297,-419.5 409,-419.5 "/>
<text text-anchor="middle" x="353" y="-407.5" font-family="Helvetica,sans-Serif" font-size="10.00"> </text>
<polyline fill="none" stroke="#bfbfbf" points="297,-400.5 409,-400.5 "/>
<text text-anchor="middle" x="353" y="-388.5" font-family="Helvetica,sans-Serif" font-size="10.00"> </text>
</g>
<!-- Node7&#45;&gt;Node1 -->
<g id="edge6" class="edge"><title>Node7&#45;&gt;Node1</title>
<path fill="none" stroke="#404040" d="M336.834,-381.476C319.942,-352.718 292.265,-305.596 265.823,-260.578"/>
<polygon fill="none" stroke="#404040" points="265.749,-260.453 259.261,-257.305 259.672,-250.106 266.16,-253.253 265.749,-260.453"/>
<text text-anchor="middle" x="342.5" y="-321.5" font-family="Helvetica,sans-Serif" font-size="10.00"> #m_frame</text>
</g>
</g>
</svg>
