<?xml version="1.0" encoding="UTF-8" standalone="no"?>
<!DOCTYPE svg PUBLIC "-//W3C//DTD SVG 1.1//EN"
 "http://www.w3.org/Graphics/SVG/1.1/DTD/svg11.dtd">
<!-- Generated by graphviz version 2.36.0 (20140111.2315)
 -->
<!-- Title: Ra::Gui::RotateGizmo::mouseMove Pages: 1 -->
<svg width="578pt" height="210pt"
 viewBox="0.00 0.00 578.00 210.00" xmlns="http://www.w3.org/2000/svg" xmlns:xlink="http://www.w3.org/1999/xlink">
<g id="graph0" class="graph" transform="scale(1 1) rotate(0) translate(4 206)">
<title>Ra::Gui::RotateGizmo::mouseMove</title>
<polygon fill="white" stroke="none" points="-4,4 -4,-206 574,-206 574,4 -4,4"/>
<!-- Node1 -->
<g id="node1" class="node"><title>Node1</title>
<polygon fill="#bfbfbf" stroke="black" points="0,-55 0,-85 114,-85 114,-55 0,-55"/>
<text text-anchor="start" x="8" y="-73" font-family="Helvetica,sans-Serif" font-size="10.00">Ra::Gui::RotateGizmo</text>
<text text-anchor="middle" x="57" y="-62" font-family="Helvetica,sans-Serif" font-size="10.00">::mouseMove</text>
</g>
<!-- Node2 -->
<g id="node2" class="node"><title>Node2</title>
<g id="a_node2"><a xlink:href="classRa_1_1Engine_1_1Camera.html#a2b584b5db1c28d168d1d2c12eacbee1e" target="_top" xlink:title="Return a ray emanating from the camera, passing by the point given by screen coordinates x and y...">
<polygon fill="white" stroke="black" points="156.5,-126 156.5,-156 263.5,-156 263.5,-126 156.5,-126"/>
<text text-anchor="start" x="164.5" y="-144" font-family="Helvetica,sans-Serif" font-size="10.00">Ra::Engine::Camera</text>
<text text-anchor="middle" x="210" y="-133" font-family="Helvetica,sans-Serif" font-size="10.00">::getRayFromScreen</text>
</a>
</g>
</g>
<!-- Node1&#45;&gt;Node2 -->
<g id="edge1" class="edge"><title>Node1&#45;&gt;Node2</title>
<path fill="none" stroke="midnightblue" d="M87.1896,-85.1826C105.165,-94.3851 128.758,-106.201 150,-116 154.146,-117.913 158.48,-119.855 162.834,-121.768"/>
<polygon fill="midnightblue" stroke="midnightblue" points="161.767,-125.12 172.334,-125.886 164.551,-118.697 161.767,-125.12"/>
</g>
<!-- Node6 -->
<g id="node6" class="node"><title>Node6</title>
<g id="a_node6"><a xlink:href="namespaceRa_1_1Core_1_1RayCast.html#a3aa002fc151cea24ec8d9b3f5f5dfb76" target="_top" xlink:title="Intersect a ray with an infinite plane defined by point A and normal. ">
<polygon fill="white" stroke="black" points="156.5,-77 156.5,-107 263.5,-107 263.5,-77 156.5,-77"/>
<text text-anchor="start" x="164.5" y="-95" font-family="Helvetica,sans-Serif" font-size="10.00">Ra::Core::RayCast::</text>
<text text-anchor="middle" x="210" y="-84" font-family="Helvetica,sans-Serif" font-size="10.00">vsPlane</text>
</a>
</g>
</g>
<!-- Node1&#45;&gt;Node6 -->
<g id="edge5" class="edge"><title>Node1&#45;&gt;Node6</title>
<path fill="none" stroke="midnightblue" d="M114.227,-78.192C124.648,-79.7103 135.594,-81.3051 146.196,-82.8498"/>
<polygon fill="midnightblue" stroke="midnightblue" points="145.827,-86.3329 156.227,-84.3113 146.836,-79.406 145.827,-86.3329"/>
</g>
<!-- Node8 -->
<g id="node8" class="node"><title>Node8</title>
<g id="a_node8"><a xlink:href="namespaceRa_1_1Core_1_1Vector.html#a4749dcfe36082199e05b149281a75082" target="_top" xlink:title="Get the angle between two vectors. ">
<polygon fill="white" stroke="black" points="150,-38.5 150,-57.5 270,-57.5 270,-38.5 150,-38.5"/>
<text text-anchor="middle" x="210" y="-45.5" font-family="Helvetica,sans-Serif" font-size="10.00">Ra::Core::Vector::angle</text>
</a>
</g>
</g>
<!-- Node1&#45;&gt;Node8 -->
<g id="edge7" class="edge"><title>Node1&#45;&gt;Node8</title>
<path fill="none" stroke="midnightblue" d="M114.227,-61.808C122.604,-60.5875 131.32,-59.3175 139.925,-58.0639"/>
<polygon fill="midnightblue" stroke="midnightblue" points="140.556,-61.509 149.947,-56.6037 139.547,-54.5821 140.556,-61.509"/>
</g>
<!-- Node9 -->
<g id="node9" class="node"><title>Node9</title>
<g id="a_node9"><a xlink:href="namespaceRa_1_1Core_1_1Math.html#a90f0fe9079f5bb86c721ea4b61738470" target="_top" xlink:title="Returns the sign of any numeric type as { &#45;1, 0, 1}. ">
<polygon fill="white" stroke="black" points="156,-0.5 156,-19.5 264,-19.5 264,-0.5 156,-0.5"/>
<text text-anchor="middle" x="210" y="-7.5" font-family="Helvetica,sans-Serif" font-size="10.00">Ra::Core::Math::sign</text>
</a>
</g>
</g>
<!-- Node1&#45;&gt;Node9 -->
<g id="edge8" class="edge"><title>Node1&#45;&gt;Node9</title>
<path fill="none" stroke="midnightblue" d="M89.5794,-54.9149C107.172,-46.7684 129.585,-36.8102 150,-29 155.602,-26.857 161.561,-24.7465 167.456,-22.756"/>
<polygon fill="midnightblue" stroke="midnightblue" points="168.839,-25.9857 177.243,-19.5347 166.65,-19.3366 168.839,-25.9857"/>
</g>
<!-- Node3 -->
<g id="node3" class="node"><title>Node3</title>
<g id="a_node3"><a xlink:href="classRa_1_1Engine_1_1Camera.html#a724a052e94817af7e602129467c8696f" target="_top" xlink:title="Return the position. ">
<polygon fill="white" stroke="black" points="314,-172 314,-202 420,-202 420,-172 314,-172"/>
<text text-anchor="start" x="322" y="-190" font-family="Helvetica,sans-Serif" font-size="10.00">Ra::Engine::Camera</text>
<text text-anchor="middle" x="367" y="-179" font-family="Helvetica,sans-Serif" font-size="10.00">::getPosition</text>
</a>
</g>
</g>
<!-- Node2&#45;&gt;Node3 -->
<g id="edge2" class="edge"><title>Node2&#45;&gt;Node3</title>
<path fill="none" stroke="midnightblue" d="M261.753,-156.062C275.741,-160.214 291.055,-164.758 305.534,-169.055"/>
<polygon fill="midnightblue" stroke="midnightblue" points="304.815,-172.493 315.398,-171.983 306.807,-165.782 304.815,-172.493"/>
</g>
<!-- Node4 -->
<g id="node4" class="node"><title>Node4</title>
<g id="a_node4"><a xlink:href="classRa_1_1Engine_1_1Camera.html#ad1d6eb41b5e8d52cd2ddecf47f1b2053" target="_top" xlink:title="Return the point on the screen plane (near plane) represented by screen coordinates pix...">
<polygon fill="white" stroke="black" points="314,-123 314,-153 420,-153 420,-123 314,-123"/>
<text text-anchor="start" x="322" y="-141" font-family="Helvetica,sans-Serif" font-size="10.00">Ra::Engine::Camera</text>
<text text-anchor="middle" x="367" y="-130" font-family="Helvetica,sans-Serif" font-size="10.00">::unProject</text>
</a>
</g>
</g>
<!-- Node2&#45;&gt;Node4 -->
<g id="edge3" class="edge"><title>Node2&#45;&gt;Node4</title>
<path fill="none" stroke="midnightblue" d="M263.909,-139.976C276.642,-139.73 290.363,-139.464 303.487,-139.21"/>
<polygon fill="midnightblue" stroke="midnightblue" points="303.925,-142.702 313.855,-139.009 303.789,-135.704 303.925,-142.702"/>
</g>
<!-- Node5 -->
<g id="node5" class="node"><title>Node5</title>
<g id="a_node5"><a xlink:href="classRa_1_1Engine_1_1Camera.html#adb545a4a1f889d63ce4fc9a41cdeef2a" target="_top" xlink:title="Return the projection matrix. ">
<polygon fill="white" stroke="black" points="464,-123 464,-153 570,-153 570,-123 464,-123"/>
<text text-anchor="start" x="472" y="-141" font-family="Helvetica,sans-Serif" font-size="10.00">Ra::Engine::Camera</text>
<text text-anchor="middle" x="517" y="-130" font-family="Helvetica,sans-Serif" font-size="10.00">::getProjMatrix</text>
</a>
</g>
</g>
<!-- Node4&#45;&gt;Node5 -->
<g id="edge4" class="edge"><title>Node4&#45;&gt;Node5</title>
<path fill="none" stroke="midnightblue" d="M420.179,-138C431.011,-138 442.528,-138 453.682,-138"/>
<polygon fill="midnightblue" stroke="midnightblue" points="453.793,-141.5 463.793,-138 453.793,-134.5 453.793,-141.5"/>
</g>
<!-- Node7 -->
<g id="node7" class="node"><title>Node7</title>
<g id="a_node7"><a xlink:href="namespaceOpenMesh.html#a575b338f0fc9ecb5393d23e977e6ac38" target="_top" xlink:title="OpenMesh::dot">
<polygon fill="white" stroke="black" points="325.5,-82.5 325.5,-101.5 408.5,-101.5 408.5,-82.5 325.5,-82.5"/>
<text text-anchor="middle" x="367" y="-89.5" font-family="Helvetica,sans-Serif" font-size="10.00">OpenMesh::dot</text>
</a>
</g>
</g>
<!-- Node6&#45;&gt;Node7 -->
<g id="edge6" class="edge"><title>Node6&#45;&gt;Node7</title>
<path fill="none" stroke="midnightblue" d="M263.909,-92C280.311,-92 298.353,-92 314.649,-92"/>
<polygon fill="midnightblue" stroke="midnightblue" points="315.07,-95.5001 325.07,-92 315.07,-88.5001 315.07,-95.5001"/>
</g>
<!-- Node10 -->
<g id="node10" class="node"><title>Node10</title>
<g id="a_node10"><a xlink:href="namespaceRa_1_1Core_1_1Math.html#ae4e681e0738fe7e5bfd028c6270b597a" target="_top" xlink:title="Ra::Core::Math::signum">
<polygon fill="white" stroke="black" points="306,-0.5 306,-19.5 428,-19.5 428,-0.5 306,-0.5"/>
<text text-anchor="middle" x="367" y="-7.5" font-family="Helvetica,sans-Serif" font-size="10.00">Ra::Core::Math::signum</text>
</a>
</g>
</g>
<!-- Node9&#45;&gt;Node10 -->
<g id="edge9" class="edge"><title>Node9&#45;&gt;Node10</title>
<path fill="none" stroke="midnightblue" d="M264.342,-10C274.496,-10 285.264,-10 295.847,-10"/>
<polygon fill="midnightblue" stroke="midnightblue" points="295.912,-13.5001 305.912,-10 295.912,-6.5001 295.912,-13.5001"/>
</g>
</g>
</svg>
