<?xml version="1.0" encoding="UTF-8" standalone="no"?>
<!DOCTYPE svg PUBLIC "-//W3C//DTD SVG 1.1//EN"
 "http://www.w3.org/Graphics/SVG/1.1/DTD/svg11.dtd">
<!-- Generated by graphviz version 2.36.0 (20140111.2315)
 -->
<!-- Title: Ra::IO::AssimpHandleDataLoader::loadHandleTopologyData Pages: 1 -->
<svg width="450pt" height="250pt"
 viewBox="0.00 0.00 450.00 249.83" xmlns="http://www.w3.org/2000/svg" xmlns:xlink="http://www.w3.org/1999/xlink">
<g id="graph0" class="graph" transform="scale(1 1) rotate(0) translate(4 245.834)">
<title>Ra::IO::AssimpHandleDataLoader::loadHandleTopologyData</title>
<polygon fill="white" stroke="none" points="-4,4 -4,-245.834 446,-245.834 446,4 -4,4"/>
<!-- Node1 -->
<g id="node1" class="node"><title>Node1</title>
<polygon fill="#bfbfbf" stroke="black" points="0.5,-115 0.5,-145 161.5,-145 161.5,-115 0.5,-115"/>
<text text-anchor="start" x="8.5" y="-133" font-family="Helvetica,sans-Serif" font-size="10.00">Ra::IO::AssimpHandleData</text>
<text text-anchor="middle" x="81" y="-122" font-family="Helvetica,sans-Serif" font-size="10.00">Loader::loadHandleTopologyData</text>
</g>
<!-- Node2 -->
<g id="node2" class="node"><title>Node2</title>
<g id="a_node2"><a xlink:href="namespaceRa_1_1Core.html#abc0a3625137098b67838fe52edd480f9" target="_top" xlink:title="SIZE. ">
<polygon fill="white" stroke="black" points="362,-120.5 362,-139.5 442,-139.5 442,-120.5 362,-120.5"/>
<text text-anchor="middle" x="402" y="-127.5" font-family="Helvetica,sans-Serif" font-size="10.00">Ra::Core::size</text>
</a>
</g>
</g>
<!-- Node1&#45;&gt;Node2 -->
<g id="edge1" class="edge"><title>Node1&#45;&gt;Node2</title>
<path fill="none" stroke="midnightblue" d="M94.2907,-145.23C113.577,-167.77 153.385,-209.062 198,-225 251.573,-244.138 274.806,-249.809 326,-225 358.615,-209.195 381.326,-171.564 392.674,-148.692"/>
<polygon fill="midnightblue" stroke="midnightblue" points="395.85,-150.162 396.961,-139.626 389.522,-147.17 395.85,-150.162"/>
</g>
<!-- Node3 -->
<g id="node3" class="node"><title>Node3</title>
<g id="a_node3"><a xlink:href="classRa_1_1Asset_1_1HandleData.html#aac2741c32466647b58b76e8310d90ecb" target="_top" xlink:title="DATA. ">
<polygon fill="white" stroke="black" points="198.5,-186 198.5,-216 325.5,-216 325.5,-186 198.5,-186"/>
<text text-anchor="start" x="206.5" y="-204" font-family="Helvetica,sans-Serif" font-size="10.00">Ra::Asset::HandleData</text>
<text text-anchor="middle" x="262" y="-193" font-family="Helvetica,sans-Serif" font-size="10.00">::getComponentDataSize</text>
</a>
</g>
</g>
<!-- Node1&#45;&gt;Node3 -->
<g id="edge2" class="edge"><title>Node1&#45;&gt;Node3</title>
<path fill="none" stroke="midnightblue" d="M119.961,-145.057C147.253,-155.882 184.244,-170.555 213.495,-182.157"/>
<polygon fill="midnightblue" stroke="midnightblue" points="212.507,-185.531 223.093,-185.964 215.088,-179.024 212.507,-185.531"/>
</g>
<!-- Node4 -->
<g id="node4" class="node"><title>Node4</title>
<g id="a_node4"><a xlink:href="classRa_1_1Asset_1_1HandleData.html#af6b0000a98985534b50a9817de5bfd58" target="_top" xlink:title="Ra::Asset::HandleData\l::getComponent">
<polygon fill="white" stroke="black" points="202.5,-137 202.5,-167 321.5,-167 321.5,-137 202.5,-137"/>
<text text-anchor="start" x="210.5" y="-155" font-family="Helvetica,sans-Serif" font-size="10.00">Ra::Asset::HandleData</text>
<text text-anchor="middle" x="262" y="-144" font-family="Helvetica,sans-Serif" font-size="10.00">::getComponent</text>
</a>
</g>
</g>
<!-- Node1&#45;&gt;Node4 -->
<g id="edge3" class="edge"><title>Node1&#45;&gt;Node4</title>
<path fill="none" stroke="midnightblue" d="M161.554,-139.778C171.849,-141.043 182.321,-142.33 192.417,-143.571"/>
<polygon fill="midnightblue" stroke="midnightblue" points="192.014,-147.048 202.366,-144.794 192.868,-140.1 192.014,-147.048"/>
</g>
<!-- Node5 -->
<g id="node5" class="node"><title>Node5</title>
<g id="a_node5"><a xlink:href="namespaceRa_1_1IO.html#aef6c50424873964fcea0008be55d4a34" target="_top" xlink:title="Ra::IO::assimpToCore">
<polygon fill="white" stroke="black" points="204,-98.5 204,-117.5 320,-117.5 320,-98.5 204,-98.5"/>
<text text-anchor="middle" x="262" y="-105.5" font-family="Helvetica,sans-Serif" font-size="10.00">Ra::IO::assimpToCore</text>
</a>
</g>
</g>
<!-- Node1&#45;&gt;Node5 -->
<g id="edge4" class="edge"><title>Node1&#45;&gt;Node5</title>
<path fill="none" stroke="midnightblue" d="M161.554,-120.222C172.38,-118.892 183.403,-117.537 193.978,-116.237"/>
<polygon fill="midnightblue" stroke="midnightblue" points="194.46,-119.704 203.959,-115.011 193.606,-112.757 194.46,-119.704"/>
</g>
<!-- Node6 -->
<g id="node6" class="node"><title>Node6</title>
<g id="a_node6"><a xlink:href="classRa_1_1Asset_1_1HandleData.html#aaee6cb0cd26f0745e444ac7bd0412454" target="_top" xlink:title="Ra::Asset::HandleData\l::getIndexOf">
<polygon fill="white" stroke="black" points="202.5,-49 202.5,-79 321.5,-79 321.5,-49 202.5,-49"/>
<text text-anchor="start" x="210.5" y="-67" font-family="Helvetica,sans-Serif" font-size="10.00">Ra::Asset::HandleData</text>
<text text-anchor="middle" x="262" y="-56" font-family="Helvetica,sans-Serif" font-size="10.00">::getIndexOf</text>
</a>
</g>
</g>
<!-- Node1&#45;&gt;Node6 -->
<g id="edge5" class="edge"><title>Node1&#45;&gt;Node6</title>
<path fill="none" stroke="midnightblue" d="M123.066,-114.858C149.103,-105.258 182.967,-92.7721 210.624,-82.5744"/>
<polygon fill="midnightblue" stroke="midnightblue" points="211.953,-85.8147 220.125,-79.0713 209.531,-79.2469 211.953,-85.8147"/>
</g>
<!-- Node7 -->
<g id="node7" class="node"><title>Node7</title>
<g id="a_node7"><a xlink:href="classRa_1_1Asset_1_1HandleData.html#ad54e901fb20565f1006b721ad17c375a" target="_top" xlink:title="Ra::Asset::HandleData\l::setEdges">
<polygon fill="white" stroke="black" points="202.5,-0 202.5,-30 321.5,-30 321.5,-0 202.5,-0"/>
<text text-anchor="start" x="210.5" y="-18" font-family="Helvetica,sans-Serif" font-size="10.00">Ra::Asset::HandleData</text>
<text text-anchor="middle" x="262" y="-7" font-family="Helvetica,sans-Serif" font-size="10.00">::setEdges</text>
</a>
</g>
</g>
<!-- Node1&#45;&gt;Node7 -->
<g id="edge6" class="edge"><title>Node1&#45;&gt;Node7</title>
<path fill="none" stroke="midnightblue" d="M98.2253,-114.983C119.737,-95.6661 159.484,-61.9916 198,-40 201.465,-38.0217 205.117,-36.1288 208.846,-34.3336"/>
<polygon fill="midnightblue" stroke="midnightblue" points="210.554,-37.4017 218.211,-30.0788 207.659,-31.0286 210.554,-37.4017"/>
</g>
<!-- Node7&#45;&gt;Node2 -->
<g id="edge7" class="edge"><title>Node7&#45;&gt;Node2</title>
<path fill="none" stroke="midnightblue" d="M308.832,-30.0122C314.862,-32.884 320.759,-36.2032 326,-40 353.302,-59.7772 376.69,-91.673 389.788,-111.704"/>
<polygon fill="midnightblue" stroke="midnightblue" points="386.892,-113.672 395.211,-120.233 392.799,-109.916 386.892,-113.672"/>
</g>
</g>
</svg>
