<?xml version="1.0" encoding="UTF-8" standalone="no"?>
<!DOCTYPE svg PUBLIC "-//W3C//DTD SVG 1.1//EN"
 "http://www.w3.org/Graphics/SVG/1.1/DTD/svg11.dtd">
<!-- Generated by graphviz version 2.36.0 (20140111.2315)
 -->
<!-- Title: Ra::Core::Geometry::VariationalShapeApproximationBase::compute_data Pages: 1 -->
<svg width="446pt" height="252pt"
 viewBox="0.00 0.00 446.00 252.00" xmlns="http://www.w3.org/2000/svg" xmlns:xlink="http://www.w3.org/1999/xlink">
<g id="graph0" class="graph" transform="scale(1 1) rotate(0) translate(4 248)">
<title>Ra::Core::Geometry::VariationalShapeApproximationBase::compute_data</title>
<polygon fill="white" stroke="none" points="-4,4 -4,-248 442,-248 442,4 -4,4"/>
<!-- Node1 -->
<g id="node1" class="node"><title>Node1</title>
<polygon fill="#bfbfbf" stroke="black" points="0,-106.5 0,-147.5 158,-147.5 158,-106.5 0,-106.5"/>
<text text-anchor="start" x="8" y="-135.5" font-family="Helvetica,sans-Serif" font-size="10.00">Ra::Core::Geometry</text>
<text text-anchor="start" x="8" y="-124.5" font-family="Helvetica,sans-Serif" font-size="10.00">::VariationalShapeApproximation</text>
<text text-anchor="middle" x="79" y="-113.5" font-family="Helvetica,sans-Serif" font-size="10.00">Base::compute_data</text>
</g>
<!-- Node2 -->
<g id="node2" class="node"><title>Node2</title>
<g id="a_node2"><a xlink:href="namespaceRa_1_1Core.html#abc0a3625137098b67838fe52edd480f9" target="_top" xlink:title="SIZE. ">
<polygon fill="white" stroke="black" points="211,-224.5 211,-243.5 291,-243.5 291,-224.5 211,-224.5"/>
<text text-anchor="middle" x="251" y="-231.5" font-family="Helvetica,sans-Serif" font-size="10.00">Ra::Core::size</text>
</a>
</g>
</g>
<!-- Node1&#45;&gt;Node2 -->
<g id="edge1" class="edge"><title>Node1&#45;&gt;Node2</title>
<path fill="none" stroke="midnightblue" d="M102.022,-147.607C123.921,-167.185 159.186,-196.33 194,-215 197.975,-217.132 202.236,-219.092 206.566,-220.876"/>
<polygon fill="midnightblue" stroke="midnightblue" points="205.484,-224.209 216.075,-224.499 207.976,-217.667 205.484,-224.209"/>
</g>
<!-- Node3 -->
<g id="node3" class="node"><title>Node3</title>
<g id="a_node3"><a xlink:href="namespaceRa_1_1Core_1_1Algorithm.html#aea294cdb6f4f0d85955bdcccb22886ec" target="_top" xlink:title="Ra::Core::Algorithm::t">
<polygon fill="white" stroke="black" points="194.5,-186.5 194.5,-205.5 307.5,-205.5 307.5,-186.5 194.5,-186.5"/>
<text text-anchor="middle" x="251" y="-193.5" font-family="Helvetica,sans-Serif" font-size="10.00">Ra::Core::Algorithm::t</text>
</a>
</g>
</g>
<!-- Node1&#45;&gt;Node3 -->
<g id="edge2" class="edge"><title>Node1&#45;&gt;Node3</title>
<path fill="none" stroke="midnightblue" d="M126.041,-147.572C146.697,-156.599 171.444,-167.135 194,-176 199.99,-178.354 206.384,-180.748 212.629,-183.022"/>
<polygon fill="midnightblue" stroke="midnightblue" points="211.648,-186.389 222.243,-186.475 214.014,-179.801 211.648,-186.389"/>
</g>
<!-- Node4 -->
<g id="node4" class="node"><title>Node4</title>
<g id="a_node4"><a xlink:href="namespaceRa_1_1Core_1_1Geometry.html#ad0460aa2e5611fa18161c285cfd6237e" target="_top" xlink:title="Ra::Core::Geometry\l::triangleBarycenter">
<polygon fill="white" stroke="black" points="198.5,-137 198.5,-167 303.5,-167 303.5,-137 198.5,-137"/>
<text text-anchor="start" x="206.5" y="-155" font-family="Helvetica,sans-Serif" font-size="10.00">Ra::Core::Geometry</text>
<text text-anchor="middle" x="251" y="-144" font-family="Helvetica,sans-Serif" font-size="10.00">::triangleBarycenter</text>
</a>
</g>
</g>
<!-- Node1&#45;&gt;Node4 -->
<g id="edge3" class="edge"><title>Node1&#45;&gt;Node4</title>
<path fill="none" stroke="midnightblue" d="M158.034,-138.476C168.14,-139.962 178.379,-141.467 188.172,-142.908"/>
<polygon fill="midnightblue" stroke="midnightblue" points="187.791,-146.389 198.194,-144.381 188.809,-139.464 187.791,-146.389"/>
</g>
<!-- Node5 -->
<g id="node5" class="node"><title>Node5</title>
<g id="a_node5"><a xlink:href="namespaceRa_1_1Core_1_1Geometry.html#a2ce97206423345716bf1b55f60c1c227" target="_top" xlink:title="Ra::Core::Geometry\l::triangleNormal">
<polygon fill="white" stroke="black" points="198.5,-88 198.5,-118 303.5,-118 303.5,-88 198.5,-88"/>
<text text-anchor="start" x="206.5" y="-106" font-family="Helvetica,sans-Serif" font-size="10.00">Ra::Core::Geometry</text>
<text text-anchor="middle" x="251" y="-95" font-family="Helvetica,sans-Serif" font-size="10.00">::triangleNormal</text>
</a>
</g>
</g>
<!-- Node1&#45;&gt;Node5 -->
<g id="edge4" class="edge"><title>Node1&#45;&gt;Node5</title>
<path fill="none" stroke="midnightblue" d="M158.034,-115.983C168.14,-114.557 178.379,-113.111 188.172,-111.729"/>
<polygon fill="midnightblue" stroke="midnightblue" points="188.781,-115.177 198.194,-110.314 187.802,-108.246 188.781,-115.177"/>
</g>
<!-- Node7 -->
<g id="node7" class="node"><title>Node7</title>
<g id="a_node7"><a xlink:href="namespaceRa_1_1Core_1_1Geometry.html#a178f2b7309fe2ea5bc31a3abcb25368e" target="_top" xlink:title="Ra::Core::Geometry\l::triangleArea">
<polygon fill="white" stroke="black" points="198.5,-39 198.5,-69 303.5,-69 303.5,-39 198.5,-39"/>
<text text-anchor="start" x="206.5" y="-57" font-family="Helvetica,sans-Serif" font-size="10.00">Ra::Core::Geometry</text>
<text text-anchor="middle" x="251" y="-46" font-family="Helvetica,sans-Serif" font-size="10.00">::triangleArea</text>
</a>
</g>
</g>
<!-- Node1&#45;&gt;Node7 -->
<g id="edge6" class="edge"><title>Node1&#45;&gt;Node7</title>
<path fill="none" stroke="midnightblue" d="M127.807,-106.471C152.256,-95.9725 181.818,-83.278 205.741,-73.0052"/>
<polygon fill="midnightblue" stroke="midnightblue" points="207.137,-76.2148 214.945,-69.053 204.375,-69.7828 207.137,-76.2148"/>
</g>
<!-- Node9 -->
<g id="node9" class="node"><title>Node9</title>
<g id="a_node9"><a xlink:href="namespaceRa_1_1Core.html#af6bcd3f2b48d9770b18ec88249e607bc" target="_top" xlink:title="LIST. ">
<polygon fill="white" stroke="black" points="213.5,-0.5 213.5,-19.5 288.5,-19.5 288.5,-0.5 213.5,-0.5"/>
<text text-anchor="middle" x="251" y="-7.5" font-family="Helvetica,sans-Serif" font-size="10.00">Ra::Core::list</text>
</a>
</g>
</g>
<!-- Node1&#45;&gt;Node9 -->
<g id="edge9" class="edge"><title>Node1&#45;&gt;Node9</title>
<path fill="none" stroke="midnightblue" d="M99.1835,-106.347C120.494,-84.4678 156.825,-50.2154 194,-29 197.661,-26.9105 201.589,-25.0024 205.603,-23.2714"/>
<polygon fill="midnightblue" stroke="midnightblue" points="207.022,-26.4743 215.042,-19.5516 204.456,-19.9618 207.022,-26.4743"/>
</g>
<!-- Node6 -->
<g id="node6" class="node"><title>Node6</title>
<g id="a_node6"><a xlink:href="namespaceOpenMesh.html#a71e7f1dd3eac016d2b8245ac408a291c" target="_top" xlink:title="OpenMesh::cross">
<polygon fill="white" stroke="black" points="344,-87.5 344,-106.5 438,-106.5 438,-87.5 344,-87.5"/>
<text text-anchor="middle" x="391" y="-94.5" font-family="Helvetica,sans-Serif" font-size="10.00">OpenMesh::cross</text>
</a>
</g>
</g>
<!-- Node5&#45;&gt;Node6 -->
<g id="edge5" class="edge"><title>Node5&#45;&gt;Node6</title>
<path fill="none" stroke="midnightblue" d="M303.779,-100.749C313.542,-100.324 323.797,-99.8784 333.691,-99.4482"/>
<polygon fill="midnightblue" stroke="midnightblue" points="333.997,-102.938 343.835,-99.0072 333.693,-95.9449 333.997,-102.938"/>
</g>
<!-- Node7&#45;&gt;Node6 -->
<g id="edge7" class="edge"><title>Node7&#45;&gt;Node6</title>
<path fill="none" stroke="midnightblue" d="M300.266,-69.0393C316.333,-74.0458 334.054,-79.5675 349.474,-84.3722"/>
<polygon fill="midnightblue" stroke="midnightblue" points="348.646,-87.7801 359.234,-87.4135 350.728,-81.097 348.646,-87.7801"/>
</g>
<!-- Node8 -->
<g id="node8" class="node"><title>Node8</title>
<g id="a_node8"><a xlink:href="namespaceOpenMesh.html#a8205f789ce08919bc11c58383574596c" target="_top" xlink:title="OpenMesh::norm">
<polygon fill="white" stroke="black" points="345,-44.5 345,-63.5 437,-63.5 437,-44.5 345,-44.5"/>
<text text-anchor="middle" x="391" y="-51.5" font-family="Helvetica,sans-Serif" font-size="10.00">OpenMesh::norm</text>
</a>
</g>
</g>
<!-- Node7&#45;&gt;Node8 -->
<g id="edge8" class="edge"><title>Node7&#45;&gt;Node8</title>
<path fill="none" stroke="midnightblue" d="M303.779,-54C313.874,-54 324.495,-54 334.699,-54"/>
<polygon fill="midnightblue" stroke="midnightblue" points="334.73,-57.5001 344.73,-54 334.73,-50.5001 334.73,-57.5001"/>
</g>
</g>
</svg>
