<?xml version="1.0" encoding="UTF-8" standalone="no"?>
<!DOCTYPE svg PUBLIC "-//W3C//DTD SVG 1.1//EN"
 "http://www.w3.org/Graphics/SVG/1.1/DTD/svg11.dtd">
<!-- Generated by graphviz version 2.36.0 (20140111.2315)
 -->
<!-- Title: Ra::Engine::BaseCouplingSystem&lt; _BaseAbstractSystem &gt; Pages: 1 -->
<svg width="174pt" height="314pt"
 viewBox="0.00 0.00 174.00 314.00" xmlns="http://www.w3.org/2000/svg" xmlns:xlink="http://www.w3.org/1999/xlink">
<g id="graph0" class="graph" transform="scale(1 1) rotate(0) translate(4 310)">
<title>Ra::Engine::BaseCouplingSystem&lt; _BaseAbstractSystem &gt;</title>
<polygon fill="white" stroke="none" points="-4,4 -4,-310 170,-310 170,4 -4,4"/>
<!-- Node1 -->
<g id="node1" class="node"><title>Node1</title>
<polygon fill="#bfbfbf" stroke="black" points="-0.5,-0.5 -0.5,-211.5 166.5,-211.5 166.5,-0.5 -0.5,-0.5"/>
<text text-anchor="start" x="7.5" y="-199.5" font-family="Helvetica,sans-Serif" font-size="10.00">Ra::Engine::BaseCoupling</text>
<text text-anchor="middle" x="83" y="-188.5" font-family="Helvetica,sans-Serif" font-size="10.00">System&lt; _BaseAbstractSystem &gt;</text>
<polyline fill="none" stroke="black" points="-0.5,-181.5 166.5,-181.5 "/>
<text text-anchor="middle" x="83" y="-169.5" font-family="Helvetica,sans-Serif" font-size="10.00"> </text>
<polyline fill="none" stroke="black" points="-0.5,-162.5 166.5,-162.5 "/>
<text text-anchor="start" x="7.5" y="-150.5" font-family="Helvetica,sans-Serif" font-size="10.00">+ BaseCouplingSystem()</text>
<text text-anchor="start" x="7.5" y="-139.5" font-family="Helvetica,sans-Serif" font-size="10.00">+ ~BaseCouplingSystem()</text>
<text text-anchor="start" x="7.5" y="-128.5" font-family="Helvetica,sans-Serif" font-size="10.00">+ BaseCouplingSystem()</text>
<text text-anchor="start" x="7.5" y="-117.5" font-family="Helvetica,sans-Serif" font-size="10.00">+ operator=()</text>
<text text-anchor="start" x="7.5" y="-106.5" font-family="Helvetica,sans-Serif" font-size="10.00">+ addSystem()</text>
<text text-anchor="start" x="7.5" y="-95.5" font-family="Helvetica,sans-Serif" font-size="10.00">+ generateTasks()</text>
<text text-anchor="start" x="7.5" y="-84.5" font-family="Helvetica,sans-Serif" font-size="10.00">+ registerComponent()</text>
<text text-anchor="start" x="7.5" y="-73.5" font-family="Helvetica,sans-Serif" font-size="10.00">+ unregisterComponent()</text>
<text text-anchor="start" x="7.5" y="-62.5" font-family="Helvetica,sans-Serif" font-size="10.00">+ unregisterAllComponents()</text>
<text text-anchor="start" x="7.5" y="-51.5" font-family="Helvetica,sans-Serif" font-size="10.00">+ handleAssetLoading()</text>
<text text-anchor="start" x="7.5" y="-40.5" font-family="Helvetica,sans-Serif" font-size="10.00"># dispatch()</text>
<text text-anchor="start" x="7.5" y="-29.5" font-family="Helvetica,sans-Serif" font-size="10.00"># dispatch()</text>
<text text-anchor="start" x="7.5" y="-18.5" font-family="Helvetica,sans-Serif" font-size="10.00"># conditionnaldispatch()</text>
<text text-anchor="start" x="7.5" y="-7.5" font-family="Helvetica,sans-Serif" font-size="10.00"># conditionnaldispatch()</text>
</g>
<!-- Node2 -->
<g id="node2" class="node"><title>Node2</title>
<g id="a_node2"><a xlink:href="classRa_1_1Engine_1_1__BaseAbstractSystem.html" target="_top" xlink:title="{_BaseAbstractSystem\n||}">
<polygon fill="white" stroke="black" points="25.5,-248.5 25.5,-305.5 140.5,-305.5 140.5,-248.5 25.5,-248.5"/>
<text text-anchor="middle" x="83" y="-293.5" font-family="Helvetica,sans-Serif" font-size="10.00">_BaseAbstractSystem</text>
<polyline fill="none" stroke="black" points="25.5,-286.5 140.5,-286.5 "/>
<text text-anchor="middle" x="83" y="-274.5" font-family="Helvetica,sans-Serif" font-size="10.00"> </text>
<polyline fill="none" stroke="black" points="25.5,-267.5 140.5,-267.5 "/>
<text text-anchor="middle" x="83" y="-255.5" font-family="Helvetica,sans-Serif" font-size="10.00"> </text>
</a>
</g>
</g>
<!-- Node2&#45;&gt;Node1 -->
<g id="edge1" class="edge"><title>Node2&#45;&gt;Node1</title>
<path fill="none" stroke="midnightblue" d="M83,-238.233C83,-230.038 83,-220.987 83,-211.584"/>
<polygon fill="none" stroke="midnightblue" points="79.5001,-238.471 83,-248.471 86.5001,-238.471 79.5001,-238.471"/>
</g>
</g>
</svg>
