<?xml version="1.0" encoding="UTF-8" standalone="no"?>
<!DOCTYPE svg PUBLIC "-//W3C//DTD SVG 1.1//EN"
 "http://www.w3.org/Graphics/SVG/1.1/DTD/svg11.dtd">
<!-- Generated by graphviz version 2.36.0 (20140111.2315)
 -->
<!-- Title: Ra::Gui::Gizmo Pages: 1 -->
<svg width="265pt" height="314pt"
 viewBox="0.00 0.00 265.00 314.00" xmlns="http://www.w3.org/2000/svg" xmlns:xlink="http://www.w3.org/1999/xlink">
<g id="graph0" class="graph" transform="scale(1 1) rotate(0) translate(4 310)">
<title>Ra::Gui::Gizmo</title>
<polygon fill="white" stroke="none" points="-4,4 -4,-310 261,-310 261,4 -4,4"/>
<!-- Node1 -->
<g id="node1" class="node"><title>Node1</title>
<polygon fill="#bfbfbf" stroke="black" points="73.5,-138.5 73.5,-305.5 178.5,-305.5 178.5,-138.5 73.5,-138.5"/>
<text text-anchor="middle" x="126" y="-293.5" font-family="Helvetica,sans-Serif" font-size="10.00">Ra::Gui::Gizmo</text>
<polyline fill="none" stroke="black" points="73.5,-286.5 178.5,-286.5 "/>
<text text-anchor="start" x="81.5" y="-274.5" font-family="Helvetica,sans-Serif" font-size="10.00"># m_worldTo</text>
<text text-anchor="start" x="81.5" y="-263.5" font-family="Helvetica,sans-Serif" font-size="10.00"># m_transform</text>
<text text-anchor="start" x="81.5" y="-252.5" font-family="Helvetica,sans-Serif" font-size="10.00"># m_comp</text>
<text text-anchor="start" x="81.5" y="-241.5" font-family="Helvetica,sans-Serif" font-size="10.00"># m_mode</text>
<text text-anchor="start" x="81.5" y="-230.5" font-family="Helvetica,sans-Serif" font-size="10.00"># m_renderObjects</text>
<polyline fill="none" stroke="black" points="73.5,-223.5 178.5,-223.5 "/>
<text text-anchor="start" x="81.5" y="-211.5" font-family="Helvetica,sans-Serif" font-size="10.00">+ Gizmo()</text>
<text text-anchor="start" x="81.5" y="-200.5" font-family="Helvetica,sans-Serif" font-size="10.00">+ ~Gizmo()</text>
<text text-anchor="start" x="81.5" y="-189.5" font-family="Helvetica,sans-Serif" font-size="10.00">+ show()</text>
<text text-anchor="start" x="81.5" y="-178.5" font-family="Helvetica,sans-Serif" font-size="10.00">+ updateTransform()</text>
<text text-anchor="start" x="81.5" y="-167.5" font-family="Helvetica,sans-Serif" font-size="10.00">+ selectConstraint()</text>
<text text-anchor="start" x="81.5" y="-156.5" font-family="Helvetica,sans-Serif" font-size="10.00">+ setInitialState()</text>
<text text-anchor="start" x="81.5" y="-145.5" font-family="Helvetica,sans-Serif" font-size="10.00">+ mouseMove()</text>
</g>
<!-- Node2 -->
<g id="node2" class="node"><title>Node2</title>
<g id="a_node2"><a xlink:href="classRa_1_1Gui_1_1RotateGizmo.html" target="_top" xlink:title="{Ra::Gui::RotateGizmo\n||+ RotateGizmo()\l+ updateTransform()\l+ selectConstraint()\l+ setInitialState()\l+ mouseMove()\l}">
<polygon fill="white" stroke="black" points="0,-0.5 0,-101.5 114,-101.5 114,-0.5 0,-0.5"/>
<text text-anchor="middle" x="57" y="-89.5" font-family="Helvetica,sans-Serif" font-size="10.00">Ra::Gui::RotateGizmo</text>
<polyline fill="none" stroke="black" points="0,-82.5 114,-82.5 "/>
<text text-anchor="middle" x="57" y="-70.5" font-family="Helvetica,sans-Serif" font-size="10.00"> </text>
<polyline fill="none" stroke="black" points="0,-63.5 114,-63.5 "/>
<text text-anchor="start" x="8" y="-51.5" font-family="Helvetica,sans-Serif" font-size="10.00">+ RotateGizmo()</text>
<text text-anchor="start" x="8" y="-40.5" font-family="Helvetica,sans-Serif" font-size="10.00">+ updateTransform()</text>
<text text-anchor="start" x="8" y="-29.5" font-family="Helvetica,sans-Serif" font-size="10.00">+ selectConstraint()</text>
<text text-anchor="start" x="8" y="-18.5" font-family="Helvetica,sans-Serif" font-size="10.00">+ setInitialState()</text>
<text text-anchor="start" x="8" y="-7.5" font-family="Helvetica,sans-Serif" font-size="10.00">+ mouseMove()</text>
</a>
</g>
</g>
<!-- Node1&#45;&gt;Node2 -->
<g id="edge1" class="edge"><title>Node1&#45;&gt;Node2</title>
<path fill="none" stroke="midnightblue" d="M88.4626,-129.061C84.6264,-119.665 80.8406,-110.392 77.2971,-101.713"/>
<polygon fill="none" stroke="midnightblue" points="85.2882,-130.545 92.3085,-138.48 91.7689,-127.899 85.2882,-130.545"/>
</g>
<!-- Node3 -->
<g id="node3" class="node"><title>Node3</title>
<g id="a_node3"><a xlink:href="classRa_1_1Gui_1_1TranslateGizmo.html" target="_top" xlink:title="{Ra::Gui::TranslateGizmo\n||+ TranslateGizmo()\l+ updateTransform()\l+ selectConstraint()\l+ setInitialState()\l+ mouseMove()\l}">
<polygon fill="white" stroke="black" points="132.5,-0.5 132.5,-101.5 257.5,-101.5 257.5,-0.5 132.5,-0.5"/>
<text text-anchor="middle" x="195" y="-89.5" font-family="Helvetica,sans-Serif" font-size="10.00">Ra::Gui::TranslateGizmo</text>
<polyline fill="none" stroke="black" points="132.5,-82.5 257.5,-82.5 "/>
<text text-anchor="middle" x="195" y="-70.5" font-family="Helvetica,sans-Serif" font-size="10.00"> </text>
<polyline fill="none" stroke="black" points="132.5,-63.5 257.5,-63.5 "/>
<text text-anchor="start" x="140.5" y="-51.5" font-family="Helvetica,sans-Serif" font-size="10.00">+ TranslateGizmo()</text>
<text text-anchor="start" x="140.5" y="-40.5" font-family="Helvetica,sans-Serif" font-size="10.00">+ updateTransform()</text>
<text text-anchor="start" x="140.5" y="-29.5" font-family="Helvetica,sans-Serif" font-size="10.00">+ selectConstraint()</text>
<text text-anchor="start" x="140.5" y="-18.5" font-family="Helvetica,sans-Serif" font-size="10.00">+ setInitialState()</text>
<text text-anchor="start" x="140.5" y="-7.5" font-family="Helvetica,sans-Serif" font-size="10.00">+ mouseMove()</text>
</a>
</g>
</g>
<!-- Node1&#45;&gt;Node3 -->
<g id="edge2" class="edge"><title>Node1&#45;&gt;Node3</title>
<path fill="none" stroke="midnightblue" d="M163.537,-129.061C167.374,-119.665 171.159,-110.392 174.703,-101.713"/>
<polygon fill="none" stroke="midnightblue" points="160.231,-127.899 159.691,-138.48 166.712,-130.545 160.231,-127.899"/>
</g>
</g>
</svg>
