<?xml version="1.0" encoding="UTF-8" standalone="no"?>
<!DOCTYPE svg PUBLIC "-//W3C//DTD SVG 1.1//EN"
 "http://www.w3.org/Graphics/SVG/1.1/DTD/svg11.dtd">
<!-- Generated by graphviz version 2.36.0 (20140111.2315)
 -->
<!-- Title: Ra::Engine::DefaultLightManager::render Pages: 1 -->
<svg width="816pt" height="299pt"
 viewBox="0.00 0.00 816.00 299.00" xmlns="http://www.w3.org/2000/svg" xmlns:xlink="http://www.w3.org/1999/xlink">
<g id="graph0" class="graph" transform="scale(1 1) rotate(0) translate(4 295)">
<title>Ra::Engine::DefaultLightManager::render</title>
<polygon fill="white" stroke="none" points="-4,4 -4,-295 812,-295 812,4 -4,4"/>
<!-- Node1 -->
<g id="node1" class="node"><title>Node1</title>
<polygon fill="#bfbfbf" stroke="black" points="0,-123 0,-153 124,-153 124,-123 0,-123"/>
<text text-anchor="start" x="8" y="-141" font-family="Helvetica,sans-Serif" font-size="10.00">Ra::Engine::DefaultLight</text>
<text text-anchor="middle" x="62" y="-130" font-family="Helvetica,sans-Serif" font-size="10.00">Manager::render</text>
</g>
<!-- Node2 -->
<g id="node2" class="node"><title>Node2</title>
<g id="a_node2"><a xlink:href="classRa_1_1Engine_1_1RenderObject.html#aea46f9cc24f70cbfaa270a8edbcbbe25" target="_top" xlink:title="Ra::Engine::RenderObject\l::render">
<polygon fill="white" stroke="black" points="160.5,-123 160.5,-153 291.5,-153 291.5,-123 160.5,-123"/>
<text text-anchor="start" x="168.5" y="-141" font-family="Helvetica,sans-Serif" font-size="10.00">Ra::Engine::RenderObject</text>
<text text-anchor="middle" x="226" y="-130" font-family="Helvetica,sans-Serif" font-size="10.00">::render</text>
</a>
</g>
</g>
<!-- Node1&#45;&gt;Node2 -->
<g id="edge1" class="edge"><title>Node1&#45;&gt;Node2</title>
<path fill="none" stroke="midnightblue" d="M124.245,-138C132.746,-138 141.556,-138 150.269,-138"/>
<polygon fill="midnightblue" stroke="midnightblue" points="150.428,-141.5 160.428,-138 150.428,-134.5 150.428,-141.5"/>
</g>
<!-- Node3 -->
<g id="node3" class="node"><title>Node3</title>
<g id="a_node3"><a xlink:href="classRa_1_1Engine_1_1RenderObject.html#a0c9fad6464792d18ca873404fd657567" target="_top" xlink:title="Ra::Engine::RenderObject\l::getTransformAsMatrix">
<polygon fill="white" stroke="black" points="339.5,-236 339.5,-266 470.5,-266 470.5,-236 339.5,-236"/>
<text text-anchor="start" x="347.5" y="-254" font-family="Helvetica,sans-Serif" font-size="10.00">Ra::Engine::RenderObject</text>
<text text-anchor="middle" x="405" y="-243" font-family="Helvetica,sans-Serif" font-size="10.00">::getTransformAsMatrix</text>
</a>
</g>
</g>
<!-- Node2&#45;&gt;Node3 -->
<g id="edge2" class="edge"><title>Node2&#45;&gt;Node3</title>
<path fill="none" stroke="midnightblue" d="M240.623,-153.143C258.808,-172.527 292.827,-205.989 328,-226 331.839,-228.184 335.896,-230.211 340.059,-232.087"/>
<polygon fill="midnightblue" stroke="midnightblue" points="338.721,-235.321 349.297,-235.953 341.423,-228.863 338.721,-235.321"/>
</g>
<!-- Node7 -->
<g id="node7" class="node"><title>Node7</title>
<g id="a_node7"><a xlink:href="namespaceRa_1_1Core.html#a28c10004edc39878acecb94c2ca5b837" target="_top" xlink:title="NORMAL. ">
<polygon fill="white" stroke="black" points="370,-197.5 370,-216.5 440,-216.5 440,-197.5 370,-197.5"/>
<text text-anchor="middle" x="405" y="-204.5" font-family="Helvetica,sans-Serif" font-size="10.00">Ra::Core::N</text>
</a>
</g>
</g>
<!-- Node2&#45;&gt;Node7 -->
<g id="edge6" class="edge"><title>Node2&#45;&gt;Node7</title>
<path fill="none" stroke="midnightblue" d="M254.231,-153.005C274.207,-163.565 302.229,-177.461 328,-187 338.181,-190.769 349.376,-194.127 359.97,-196.965"/>
<polygon fill="midnightblue" stroke="midnightblue" points="359.334,-200.416 369.891,-199.524 361.082,-193.637 359.334,-200.416"/>
</g>
<!-- Node8 -->
<g id="node8" class="node"><title>Node8</title>
<g id="a_node8"><a xlink:href="classRa_1_1Engine_1_1ShaderProgram.html#a63faeab38c95dbcb4514a94c1e785890" target="_top" xlink:title="Ra::Engine::ShaderProgram\l::bind">
<polygon fill="white" stroke="black" points="335.5,-148 335.5,-178 474.5,-178 474.5,-148 335.5,-148"/>
<text text-anchor="start" x="343.5" y="-166" font-family="Helvetica,sans-Serif" font-size="10.00">Ra::Engine::ShaderProgram</text>
<text text-anchor="middle" x="405" y="-155" font-family="Helvetica,sans-Serif" font-size="10.00">::bind</text>
</a>
</g>
</g>
<!-- Node2&#45;&gt;Node8 -->
<g id="edge7" class="edge"><title>Node2&#45;&gt;Node8</title>
<path fill="none" stroke="midnightblue" d="M291.652,-147.132C302.54,-148.67 313.948,-150.281 325.148,-151.863"/>
<polygon fill="midnightblue" stroke="midnightblue" points="324.962,-155.371 335.353,-153.304 325.941,-148.44 324.962,-155.371"/>
</g>
<!-- Node9 -->
<g id="node9" class="node"><title>Node9</title>
<g id="a_node9"><a xlink:href="classRa_1_1Engine_1_1ShaderProgram.html#a5f7ae2880276f421c378810e3da65c4c" target="_top" xlink:title="Ra::Engine::ShaderProgram\l::setUniform">
<polygon fill="white" stroke="black" points="335.5,-99 335.5,-129 474.5,-129 474.5,-99 335.5,-99"/>
<text text-anchor="start" x="343.5" y="-117" font-family="Helvetica,sans-Serif" font-size="10.00">Ra::Engine::ShaderProgram</text>
<text text-anchor="middle" x="405" y="-106" font-family="Helvetica,sans-Serif" font-size="10.00">::setUniform</text>
</a>
</g>
</g>
<!-- Node2&#45;&gt;Node9 -->
<g id="edge8" class="edge"><title>Node2&#45;&gt;Node9</title>
<path fill="none" stroke="midnightblue" d="M291.652,-129.234C302.54,-127.757 313.948,-126.21 325.148,-124.692"/>
<polygon fill="midnightblue" stroke="midnightblue" points="325.914,-128.12 335.353,-123.308 324.974,-121.183 325.914,-128.12"/>
</g>
<!-- Node10 -->
<g id="node10" class="node"><title>Node10</title>
<g id="a_node10"><a xlink:href="classRa_1_1Engine_1_1RenderParameters.html#a0e08655c1c564da49146bcf7b382a1e4" target="_top" xlink:title="Ra::Engine::RenderParameters\l::bind">
<polygon fill="white" stroke="black" points="328.5,-50 328.5,-80 481.5,-80 481.5,-50 328.5,-50"/>
<text text-anchor="start" x="336.5" y="-68" font-family="Helvetica,sans-Serif" font-size="10.00">Ra::Engine::RenderParameters</text>
<text text-anchor="middle" x="405" y="-57" font-family="Helvetica,sans-Serif" font-size="10.00">::bind</text>
</a>
</g>
</g>
<!-- Node2&#45;&gt;Node10 -->
<g id="edge9" class="edge"><title>Node2&#45;&gt;Node10</title>
<path fill="none" stroke="midnightblue" d="M256.176,-122.934C276.118,-112.935 303.307,-99.8834 328,-90 333.535,-87.7846 339.35,-85.6093 345.196,-83.523"/>
<polygon fill="midnightblue" stroke="midnightblue" points="346.726,-86.6967 355.02,-80.1044 344.425,-80.0855 346.726,-86.6967"/>
</g>
<!-- Node11 -->
<g id="node11" class="node"><title>Node11</title>
<g id="a_node11"><a xlink:href="classRa_1_1Engine_1_1RenderObject.html#a2d4f1d69544319def1b53ae6a66def9f" target="_top" xlink:title="Ra::Engine::RenderObject\l::getMesh">
<polygon fill="white" stroke="black" points="339.5,-1 339.5,-31 470.5,-31 470.5,-1 339.5,-1"/>
<text text-anchor="start" x="347.5" y="-19" font-family="Helvetica,sans-Serif" font-size="10.00">Ra::Engine::RenderObject</text>
<text text-anchor="middle" x="405" y="-8" font-family="Helvetica,sans-Serif" font-size="10.00">::getMesh</text>
</a>
</g>
</g>
<!-- Node2&#45;&gt;Node11 -->
<g id="edge10" class="edge"><title>Node2&#45;&gt;Node11</title>
<path fill="none" stroke="midnightblue" d="M239.087,-122.685C256.573,-101.488 290.916,-63.3048 328,-41 331.45,-38.925 335.093,-36.9993 338.841,-35.2158"/>
<polygon fill="midnightblue" stroke="midnightblue" points="340.563,-38.2832 348.324,-31.0714 337.759,-31.869 340.563,-38.2832"/>
</g>
<!-- Node4 -->
<g id="node4" class="node"><title>Node4</title>
<g id="a_node4"><a xlink:href="classRa_1_1Engine_1_1RenderObject.html#a46deaf8ca7b8eed5f2cbfaca72354d1a" target="_top" xlink:title="Ra::Engine::RenderObject\l::getTransform">
<polygon fill="white" stroke="black" points="518.5,-236 518.5,-266 649.5,-266 649.5,-236 518.5,-236"/>
<text text-anchor="start" x="526.5" y="-254" font-family="Helvetica,sans-Serif" font-size="10.00">Ra::Engine::RenderObject</text>
<text text-anchor="middle" x="584" y="-243" font-family="Helvetica,sans-Serif" font-size="10.00">::getTransform</text>
</a>
</g>
</g>
<!-- Node3&#45;&gt;Node4 -->
<g id="edge3" class="edge"><title>Node3&#45;&gt;Node4</title>
<path fill="none" stroke="midnightblue" d="M470.652,-251C482.765,-251 495.522,-251 507.92,-251"/>
<polygon fill="midnightblue" stroke="midnightblue" points="508.227,-254.5 518.227,-251 508.227,-247.5 508.227,-254.5"/>
</g>
<!-- Node5 -->
<g id="node5" class="node"><title>Node5</title>
<g id="a_node5"><a xlink:href="classRa_1_1Engine_1_1Component.html#a207c1dc2e97856c22e0767fb77162933" target="_top" xlink:title="Return the entity the component belongs to. ">
<polygon fill="white" stroke="black" points="686,-261 686,-291 808,-291 808,-261 686,-261"/>
<text text-anchor="start" x="694" y="-279" font-family="Helvetica,sans-Serif" font-size="10.00">Ra::Engine::Component</text>
<text text-anchor="middle" x="747" y="-268" font-family="Helvetica,sans-Serif" font-size="10.00">::getEntity</text>
</a>
</g>
</g>
<!-- Node4&#45;&gt;Node5 -->
<g id="edge4" class="edge"><title>Node4&#45;&gt;Node5</title>
<path fill="none" stroke="midnightblue" d="M649.557,-261.024C658.172,-262.362 667.04,-263.739 675.745,-265.091"/>
<polygon fill="midnightblue" stroke="midnightblue" points="675.447,-268.586 685.865,-266.662 676.521,-261.669 675.447,-268.586"/>
</g>
<!-- Node6 -->
<g id="node6" class="node"><title>Node6</title>
<g id="a_node6"><a xlink:href="classRa_1_1Engine_1_1Entity.html#adf0ef19e4b56e1d213b9898b60fe0e74" target="_top" xlink:title="Ra::Engine::Entity\l::getTransform">
<polygon fill="white" stroke="black" points="698.5,-212 698.5,-242 795.5,-242 795.5,-212 698.5,-212"/>
<text text-anchor="start" x="706.5" y="-230" font-family="Helvetica,sans-Serif" font-size="10.00">Ra::Engine::Entity</text>
<text text-anchor="middle" x="747" y="-219" font-family="Helvetica,sans-Serif" font-size="10.00">::getTransform</text>
</a>
</g>
</g>
<!-- Node4&#45;&gt;Node6 -->
<g id="edge5" class="edge"><title>Node4&#45;&gt;Node6</title>
<path fill="none" stroke="midnightblue" d="M649.557,-241.377C662.397,-239.463 675.8,-237.465 688.389,-235.588"/>
<polygon fill="midnightblue" stroke="midnightblue" points="688.909,-239.049 698.284,-234.113 687.877,-232.126 688.909,-239.049"/>
</g>
</g>
</svg>
