<?xml version="1.0" encoding="UTF-8" standalone="no"?>
<!DOCTYPE svg PUBLIC "-//W3C//DTD SVG 1.1//EN"
 "http://www.w3.org/Graphics/SVG/1.1/DTD/svg11.dtd">
<!-- Generated by graphviz version 2.36.0 (20140111.2315)
 -->
<!-- Title: Ra::Gui::TranslateGizmo::mouseMove Pages: 1 -->
<svg width="726pt" height="185pt"
 viewBox="0.00 0.00 726.00 185.00" xmlns="http://www.w3.org/2000/svg" xmlns:xlink="http://www.w3.org/1999/xlink">
<g id="graph0" class="graph" transform="scale(1 1) rotate(0) translate(4 181)">
<title>Ra::Gui::TranslateGizmo::mouseMove</title>
<polygon fill="white" stroke="none" points="-4,4 -4,-181 722,-181 722,4 -4,4"/>
<!-- Node1 -->
<g id="node1" class="node"><title>Node1</title>
<polygon fill="#bfbfbf" stroke="black" points="0.5,-73 0.5,-103 125.5,-103 125.5,-73 0.5,-73"/>
<text text-anchor="start" x="8.5" y="-91" font-family="Helvetica,sans-Serif" font-size="10.00">Ra::Gui::TranslateGizmo</text>
<text text-anchor="middle" x="63" y="-80" font-family="Helvetica,sans-Serif" font-size="10.00">::mouseMove</text>
</g>
<!-- Node2 -->
<g id="node2" class="node"><title>Node2</title>
<g id="a_node2"><a xlink:href="namespaceRa_1_1Gui.html#af216efc49e1b00fb304bad5f9e5623eb" target="_top" xlink:title="Ra::Gui::findPointOnAxis">
<polygon fill="white" stroke="black" points="162.5,-78.5 162.5,-97.5 289.5,-97.5 289.5,-78.5 162.5,-78.5"/>
<text text-anchor="middle" x="226" y="-85.5" font-family="Helvetica,sans-Serif" font-size="10.00">Ra::Gui::findPointOnAxis</text>
</a>
</g>
</g>
<!-- Node1&#45;&gt;Node2 -->
<g id="edge1" class="edge"><title>Node1&#45;&gt;Node2</title>
<path fill="none" stroke="midnightblue" d="M125.786,-88C134.391,-88 143.297,-88 152.082,-88"/>
<polygon fill="midnightblue" stroke="midnightblue" points="152.314,-91.5001 162.314,-88 152.314,-84.5001 152.314,-91.5001"/>
</g>
<!-- Node3 -->
<g id="node3" class="node"><title>Node3</title>
<g id="a_node3"><a xlink:href="classRa_1_1Engine_1_1Camera.html#a23be7aa714c0e9c2a9429dfc9ef2c53a" target="_top" xlink:title="Return the direction the camera is looking at. ">
<polygon fill="white" stroke="black" points="327,-147 327,-177 433,-177 433,-147 327,-147"/>
<text text-anchor="start" x="335" y="-165" font-family="Helvetica,sans-Serif" font-size="10.00">Ra::Engine::Camera</text>
<text text-anchor="middle" x="380" y="-154" font-family="Helvetica,sans-Serif" font-size="10.00">::getDirection</text>
</a>
</g>
</g>
<!-- Node2&#45;&gt;Node3 -->
<g id="edge2" class="edge"><title>Node2&#45;&gt;Node3</title>
<path fill="none" stroke="midnightblue" d="M245.927,-97.5C265.813,-107.45 298.028,-123.482 326,-137 329.761,-138.818 333.68,-140.696 337.608,-142.567"/>
<polygon fill="midnightblue" stroke="midnightblue" points="336.187,-145.767 346.722,-146.893 339.189,-139.443 336.187,-145.767"/>
</g>
<!-- Node4 -->
<g id="node4" class="node"><title>Node4</title>
<g id="a_node4"><a xlink:href="classRa_1_1Engine_1_1Camera.html#adfc7c573c5cedb70aadd8afd8274253b" target="_top" xlink:title="Return the up vector. ">
<polygon fill="white" stroke="black" points="327,-98 327,-128 433,-128 433,-98 327,-98"/>
<text text-anchor="start" x="335" y="-116" font-family="Helvetica,sans-Serif" font-size="10.00">Ra::Engine::Camera</text>
<text text-anchor="middle" x="380" y="-105" font-family="Helvetica,sans-Serif" font-size="10.00">::getUpVector</text>
</a>
</g>
</g>
<!-- Node2&#45;&gt;Node4 -->
<g id="edge3" class="edge"><title>Node2&#45;&gt;Node4</title>
<path fill="none" stroke="midnightblue" d="M284.898,-97.5227C295.325,-99.2377 306.235,-101.032 316.778,-102.766"/>
<polygon fill="midnightblue" stroke="midnightblue" points="316.311,-106.236 326.747,-104.406 317.447,-99.3291 316.311,-106.236"/>
</g>
<!-- Node5 -->
<g id="node5" class="node"><title>Node5</title>
<g id="a_node5"><a xlink:href="classRa_1_1Engine_1_1Camera.html#a2b584b5db1c28d168d1d2c12eacbee1e" target="_top" xlink:title="Return a ray emanating from the camera, passing by the point given by screen coordinates x and y...">
<polygon fill="white" stroke="black" points="326.5,-49 326.5,-79 433.5,-79 433.5,-49 326.5,-49"/>
<text text-anchor="start" x="334.5" y="-67" font-family="Helvetica,sans-Serif" font-size="10.00">Ra::Engine::Camera</text>
<text text-anchor="middle" x="380" y="-56" font-family="Helvetica,sans-Serif" font-size="10.00">::getRayFromScreen</text>
</a>
</g>
</g>
<!-- Node2&#45;&gt;Node5 -->
<g id="edge4" class="edge"><title>Node2&#45;&gt;Node5</title>
<path fill="none" stroke="midnightblue" d="M287.511,-78.4456C296.874,-76.9673 306.565,-75.4372 315.981,-73.9504"/>
<polygon fill="midnightblue" stroke="midnightblue" points="316.731,-77.3754 326.063,-72.3585 315.639,-70.461 316.731,-77.3754"/>
</g>
<!-- Node9 -->
<g id="node9" class="node"><title>Node9</title>
<g id="a_node9"><a xlink:href="namespaceRa_1_1Core_1_1RayCast.html#a3aa002fc151cea24ec8d9b3f5f5dfb76" target="_top" xlink:title="Intersect a ray with an infinite plane defined by point A and normal. ">
<polygon fill="white" stroke="black" points="326.5,-0 326.5,-30 433.5,-30 433.5,-0 326.5,-0"/>
<text text-anchor="start" x="334.5" y="-18" font-family="Helvetica,sans-Serif" font-size="10.00">Ra::Core::RayCast::</text>
<text text-anchor="middle" x="380" y="-7" font-family="Helvetica,sans-Serif" font-size="10.00">vsPlane</text>
</a>
</g>
</g>
<!-- Node2&#45;&gt;Node9 -->
<g id="edge8" class="edge"><title>Node2&#45;&gt;Node9</title>
<path fill="none" stroke="midnightblue" d="M245.885,-78.4119C265.737,-68.3896 297.923,-52.3004 326,-39 329.298,-37.4379 332.72,-35.8387 336.166,-34.244"/>
<polygon fill="midnightblue" stroke="midnightblue" points="337.647,-37.4153 345.275,-30.062 334.726,-31.0538 337.647,-37.4153"/>
</g>
<!-- Node6 -->
<g id="node6" class="node"><title>Node6</title>
<g id="a_node6"><a xlink:href="classRa_1_1Engine_1_1Camera.html#a724a052e94817af7e602129467c8696f" target="_top" xlink:title="Return the position. ">
<polygon fill="white" stroke="black" points="470,-95 470,-125 576,-125 576,-95 470,-95"/>
<text text-anchor="start" x="478" y="-113" font-family="Helvetica,sans-Serif" font-size="10.00">Ra::Engine::Camera</text>
<text text-anchor="middle" x="523" y="-102" font-family="Helvetica,sans-Serif" font-size="10.00">::getPosition</text>
</a>
</g>
</g>
<!-- Node5&#45;&gt;Node6 -->
<g id="edge5" class="edge"><title>Node5&#45;&gt;Node6</title>
<path fill="none" stroke="midnightblue" d="M427.169,-79.0621C439.585,-83.1128 453.149,-87.5379 466.035,-91.7421"/>
<polygon fill="midnightblue" stroke="midnightblue" points="465.135,-95.1298 475.728,-94.904 467.306,-88.475 465.135,-95.1298"/>
</g>
<!-- Node7 -->
<g id="node7" class="node"><title>Node7</title>
<g id="a_node7"><a xlink:href="classRa_1_1Engine_1_1Camera.html#ad1d6eb41b5e8d52cd2ddecf47f1b2053" target="_top" xlink:title="Return the point on the screen plane (near plane) represented by screen coordinates pix...">
<polygon fill="white" stroke="black" points="470,-46 470,-76 576,-76 576,-46 470,-46"/>
<text text-anchor="start" x="478" y="-64" font-family="Helvetica,sans-Serif" font-size="10.00">Ra::Engine::Camera</text>
<text text-anchor="middle" x="523" y="-53" font-family="Helvetica,sans-Serif" font-size="10.00">::unProject</text>
</a>
</g>
</g>
<!-- Node5&#45;&gt;Node7 -->
<g id="edge6" class="edge"><title>Node5&#45;&gt;Node7</title>
<path fill="none" stroke="midnightblue" d="M433.503,-62.8829C442.057,-62.7009 450.99,-62.5109 459.751,-62.3245"/>
<polygon fill="midnightblue" stroke="midnightblue" points="459.999,-65.8201 469.922,-62.108 459.85,-58.8216 459.999,-65.8201"/>
</g>
<!-- Node8 -->
<g id="node8" class="node"><title>Node8</title>
<g id="a_node8"><a xlink:href="classRa_1_1Engine_1_1Camera.html#adb545a4a1f889d63ce4fc9a41cdeef2a" target="_top" xlink:title="Return the projection matrix. ">
<polygon fill="white" stroke="black" points="612,-46 612,-76 718,-76 718,-46 612,-46"/>
<text text-anchor="start" x="620" y="-64" font-family="Helvetica,sans-Serif" font-size="10.00">Ra::Engine::Camera</text>
<text text-anchor="middle" x="665" y="-53" font-family="Helvetica,sans-Serif" font-size="10.00">::getProjMatrix</text>
</a>
</g>
</g>
<!-- Node7&#45;&gt;Node8 -->
<g id="edge7" class="edge"><title>Node7&#45;&gt;Node8</title>
<path fill="none" stroke="midnightblue" d="M576.131,-61C584.421,-61 593.07,-61 601.568,-61"/>
<polygon fill="midnightblue" stroke="midnightblue" points="601.826,-64.5001 611.826,-61 601.826,-57.5001 601.826,-64.5001"/>
</g>
<!-- Node10 -->
<g id="node10" class="node"><title>Node10</title>
<g id="a_node10"><a xlink:href="namespaceOpenMesh.html#a575b338f0fc9ecb5393d23e977e6ac38" target="_top" xlink:title="OpenMesh::dot">
<polygon fill="white" stroke="black" points="481.5,-5.5 481.5,-24.5 564.5,-24.5 564.5,-5.5 481.5,-5.5"/>
<text text-anchor="middle" x="523" y="-12.5" font-family="Helvetica,sans-Serif" font-size="10.00">OpenMesh::dot</text>
</a>
</g>
</g>
<!-- Node9&#45;&gt;Node10 -->
<g id="edge9" class="edge"><title>Node9&#45;&gt;Node10</title>
<path fill="none" stroke="midnightblue" d="M433.503,-15C445.86,-15 459.006,-15 471.282,-15"/>
<polygon fill="midnightblue" stroke="midnightblue" points="471.353,-18.5001 481.353,-15 471.353,-11.5001 471.353,-18.5001"/>
</g>
</g>
</svg>
