<?xml version="1.0" encoding="UTF-8" standalone="no"?>
<!DOCTYPE svg PUBLIC "-//W3C//DTD SVG 1.1//EN"
 "http://www.w3.org/Graphics/SVG/1.1/DTD/svg11.dtd">
<!-- Generated by graphviz version 2.36.0 (20140111.2315)
 -->
<!-- Title: Ra::Core::CatmullClarkSubdivider::subdivide Pages: 1 -->
<svg width="700pt" height="429pt"
 viewBox="0.00 0.00 700.00 429.00" xmlns="http://www.w3.org/2000/svg" xmlns:xlink="http://www.w3.org/1999/xlink">
<g id="graph0" class="graph" transform="scale(1 1) rotate(0) translate(4 425)">
<title>Ra::Core::CatmullClarkSubdivider::subdivide</title>
<polygon fill="white" stroke="none" points="-4,4 -4,-425 696,-425 696,4 -4,4"/>
<!-- Node1 -->
<g id="node1" class="node"><title>Node1</title>
<polygon fill="#bfbfbf" stroke="black" points="0.5,-180 0.5,-210 165.5,-210 165.5,-180 0.5,-180"/>
<text text-anchor="start" x="8.5" y="-198" font-family="Helvetica,sans-Serif" font-size="10.00">Ra::Core::CatmullClarkSubdivider</text>
<text text-anchor="middle" x="83" y="-187" font-family="Helvetica,sans-Serif" font-size="10.00">::subdivide</text>
</g>
<!-- Node2 -->
<g id="node2" class="node"><title>Node2</title>
<g id="a_node2"><a xlink:href="namespaceRa_1_1Engine_1_1DrawPrimitives.html#a2eff9774611ef4e9cdfb2ac969182123" target="_top" xlink:title="Displays given point shown as the crossing of 3 lines of length &#39;scale&#39;. ">
<polygon fill="white" stroke="black" points="202,-391 202,-421 340,-421 340,-391 202,-391"/>
<text text-anchor="start" x="210" y="-409" font-family="Helvetica,sans-Serif" font-size="10.00">Ra::Engine::DrawPrimitives</text>
<text text-anchor="middle" x="271" y="-398" font-family="Helvetica,sans-Serif" font-size="10.00">::Point</text>
</a>
</g>
</g>
<!-- Node1&#45;&gt;Node2 -->
<g id="edge1" class="edge"><title>Node1&#45;&gt;Node2</title>
<path fill="none" stroke="midnightblue" d="M89.6129,-210.122C103.359,-245.163 142.028,-332.614 202,-381 204.248,-382.814 206.641,-384.504 209.133,-386.077"/>
<polygon fill="midnightblue" stroke="midnightblue" points="207.491,-389.169 217.929,-390.988 210.904,-383.057 207.491,-389.169"/>
</g>
<!-- Node3 -->
<g id="node3" class="node"><title>Node3</title>
<g id="a_node3"><a xlink:href="namespaceRa_1_1Core.html#a641feb14b3bb1b4731f209e30a8701e4" target="_top" xlink:title="Interpolate props on edge center (after edge split). ">
<polygon fill="white" stroke="black" points="204.5,-352.5 204.5,-371.5 337.5,-371.5 337.5,-352.5 204.5,-352.5"/>
<text text-anchor="middle" x="271" y="-359.5" font-family="Helvetica,sans-Serif" font-size="10.00">Ra::Core::interpolateProps</text>
</a>
</g>
</g>
<!-- Node1&#45;&gt;Node3 -->
<g id="edge2" class="edge"><title>Node1&#45;&gt;Node3</title>
<path fill="none" stroke="midnightblue" d="M91.8756,-210.012C108.268,-239.782 148.981,-306.483 202,-342 205.724,-344.494 209.764,-346.684 213.956,-348.605"/>
<polygon fill="midnightblue" stroke="midnightblue" points="212.728,-351.883 223.31,-352.395 215.356,-345.396 212.728,-351.883"/>
</g>
<!-- Node4 -->
<g id="node4" class="node"><title>Node4</title>
<g id="a_node4"><a xlink:href="classRa_1_1Core_1_1TopologicalMesh.html#aa1016df75edb65e69fcdec5465e49245" target="_top" xlink:title="Ra::Core::TopologicalMesh\l::getFloatPropsHandles">
<polygon fill="white" stroke="black" points="203,-303 203,-333 339,-333 339,-303 203,-303"/>
<text text-anchor="start" x="211" y="-321" font-family="Helvetica,sans-Serif" font-size="10.00">Ra::Core::TopologicalMesh</text>
<text text-anchor="middle" x="271" y="-310" font-family="Helvetica,sans-Serif" font-size="10.00">::getFloatPropsHandles</text>
</a>
</g>
</g>
<!-- Node1&#45;&gt;Node4 -->
<g id="edge3" class="edge"><title>Node1&#45;&gt;Node4</title>
<path fill="none" stroke="midnightblue" d="M98.7493,-210.159C119.923,-231.201 160.928,-269.337 202,-293 205.617,-295.084 209.439,-297.048 213.352,-298.887"/>
<polygon fill="midnightblue" stroke="midnightblue" points="212.031,-302.13 222.594,-302.953 214.85,-295.723 212.031,-302.13"/>
</g>
<!-- Node5 -->
<g id="node5" class="node"><title>Node5</title>
<g id="a_node5"><a xlink:href="classRa_1_1Core_1_1TopologicalMesh.html#acf1e58078add6e5cc9ce13b30fb3baf3" target="_top" xlink:title="Ra::Core::TopologicalMesh\l::getVector2PropsHandles">
<polygon fill="white" stroke="black" points="203,-254 203,-284 339,-284 339,-254 203,-254"/>
<text text-anchor="start" x="211" y="-272" font-family="Helvetica,sans-Serif" font-size="10.00">Ra::Core::TopologicalMesh</text>
<text text-anchor="middle" x="271" y="-261" font-family="Helvetica,sans-Serif" font-size="10.00">::getVector2PropsHandles</text>
</a>
</g>
</g>
<!-- Node1&#45;&gt;Node5 -->
<g id="edge4" class="edge"><title>Node1&#45;&gt;Node5</title>
<path fill="none" stroke="midnightblue" d="M119.215,-210.07C142.591,-219.963 174.009,-233.048 202,-244 207.403,-246.114 213.066,-248.278 218.721,-250.405"/>
<polygon fill="midnightblue" stroke="midnightblue" points="217.589,-253.718 228.182,-253.934 220.036,-247.159 217.589,-253.718"/>
</g>
<!-- Node6 -->
<g id="node6" class="node"><title>Node6</title>
<g id="a_node6"><a xlink:href="classRa_1_1Core_1_1TopologicalMesh.html#a6865aee84eb0d92f6acc12081bf8a6f8" target="_top" xlink:title="Ra::Core::TopologicalMesh\l::getVector3PropsHandles">
<polygon fill="white" stroke="black" points="203,-205 203,-235 339,-235 339,-205 203,-205"/>
<text text-anchor="start" x="211" y="-223" font-family="Helvetica,sans-Serif" font-size="10.00">Ra::Core::TopologicalMesh</text>
<text text-anchor="middle" x="271" y="-212" font-family="Helvetica,sans-Serif" font-size="10.00">::getVector3PropsHandles</text>
</a>
</g>
</g>
<!-- Node1&#45;&gt;Node6 -->
<g id="edge5" class="edge"><title>Node1&#45;&gt;Node6</title>
<path fill="none" stroke="midnightblue" d="M165.582,-205.965C174.66,-207.185 183.885,-208.425 192.904,-209.638"/>
<polygon fill="midnightblue" stroke="midnightblue" points="192.604,-213.129 202.981,-210.992 193.537,-206.191 192.604,-213.129"/>
</g>
<!-- Node7 -->
<g id="node7" class="node"><title>Node7</title>
<g id="a_node7"><a xlink:href="classRa_1_1Core_1_1TopologicalMesh.html#a938483e7f6900eeb3914d662b9aac21c" target="_top" xlink:title="Ra::Core::TopologicalMesh\l::getVector4PropsHandles">
<polygon fill="white" stroke="black" points="203,-156 203,-186 339,-186 339,-156 203,-156"/>
<text text-anchor="start" x="211" y="-174" font-family="Helvetica,sans-Serif" font-size="10.00">Ra::Core::TopologicalMesh</text>
<text text-anchor="middle" x="271" y="-163" font-family="Helvetica,sans-Serif" font-size="10.00">::getVector4PropsHandles</text>
</a>
</g>
</g>
<!-- Node1&#45;&gt;Node7 -->
<g id="edge6" class="edge"><title>Node1&#45;&gt;Node7</title>
<path fill="none" stroke="midnightblue" d="M165.582,-184.473C174.66,-183.302 183.885,-182.112 192.904,-180.948"/>
<polygon fill="midnightblue" stroke="midnightblue" points="193.511,-184.399 202.981,-179.648 192.615,-177.456 193.511,-184.399"/>
</g>
<!-- Node8 -->
<g id="node8" class="node"><title>Node8</title>
<g id="a_node8"><a xlink:href="namespaceRa_1_1Core.html#af3945d8f9cd011513ba70d575795e694" target="_top" xlink:title="Update copy properties from input. ">
<polygon fill="white" stroke="black" points="211,-117.5 211,-136.5 331,-136.5 331,-117.5 211,-117.5"/>
<text text-anchor="middle" x="271" y="-124.5" font-family="Helvetica,sans-Serif" font-size="10.00">Ra::Core::commitProps</text>
</a>
</g>
</g>
<!-- Node1&#45;&gt;Node8 -->
<g id="edge7" class="edge"><title>Node1&#45;&gt;Node8</title>
<path fill="none" stroke="midnightblue" d="M118.502,-179.897C141.846,-169.944 173.501,-156.959 202,-147 209.515,-144.374 217.573,-141.798 225.421,-139.415"/>
<polygon fill="midnightblue" stroke="midnightblue" points="226.605,-142.714 235.193,-136.509 224.61,-136.004 226.605,-142.714"/>
</g>
<!-- Node9 -->
<g id="node9" class="node"><title>Node9</title>
<g id="a_node9"><a xlink:href="classRa_1_1Core_1_1TopologicalMesh.html#abe2a6ac857a94f53fa1180c12ce034f8" target="_top" xlink:title="Return the half&#45;edge associated with a given vertex and face. ">
<polygon fill="white" stroke="black" points="378,-104 378,-134 514,-134 514,-104 378,-104"/>
<text text-anchor="start" x="386" y="-122" font-family="Helvetica,sans-Serif" font-size="10.00">Ra::Core::TopologicalMesh</text>
<text text-anchor="middle" x="446" y="-111" font-family="Helvetica,sans-Serif" font-size="10.00">::halfedge_handle</text>
</a>
</g>
</g>
<!-- Node1&#45;&gt;Node9 -->
<g id="edge13" class="edge"><title>Node1&#45;&gt;Node9</title>
<path fill="none" stroke="midnightblue" d="M97.8577,-179.984C118.273,-159.095 158.72,-122.23 202,-108 256.797,-89.9832 322.297,-94.3237 371.479,-102.293"/>
<polygon fill="midnightblue" stroke="midnightblue" points="370.957,-105.754 381.403,-103.986 372.134,-98.854 370.957,-105.754"/>
</g>
<!-- Node10 -->
<g id="node10" class="node"><title>Node10</title>
<g id="a_node10"><a xlink:href="namespaceRa_1_1Core_1_1Graph.html#a3b2b602f627a47463a09d850e1781760" target="_top" xlink:title="Ra::Core::Graph::check">
<polygon fill="white" stroke="black" points="210.5,-41.5 210.5,-60.5 331.5,-60.5 331.5,-41.5 210.5,-41.5"/>
<text text-anchor="middle" x="271" y="-48.5" font-family="Helvetica,sans-Serif" font-size="10.00">Ra::Core::Graph::check</text>
</a>
</g>
</g>
<!-- Node1&#45;&gt;Node10 -->
<g id="edge9" class="edge"><title>Node1&#45;&gt;Node10</title>
<path fill="none" stroke="midnightblue" d="M95.0486,-179.938C114.185,-154.838 155.899,-104.326 202,-75 208.685,-70.7479 216.219,-67.1315 223.776,-64.0963"/>
<polygon fill="midnightblue" stroke="midnightblue" points="225.142,-67.3226 233.296,-60.5584 222.703,-60.761 225.142,-67.3226"/>
</g>
<!-- Node13 -->
<g id="node13" class="node"><title>Node13</title>
<g id="a_node13"><a xlink:href="namespaceRa_1_1Core.html#ad4b837080cc2a56b20783d3d519449ed" target="_top" xlink:title="Copy props properties from input_heh to copy_heh. ">
<polygon fill="white" stroke="black" points="216.5,-3.5 216.5,-22.5 325.5,-22.5 325.5,-3.5 216.5,-3.5"/>
<text text-anchor="middle" x="271" y="-10.5" font-family="Helvetica,sans-Serif" font-size="10.00">Ra::Core::copyProps</text>
</a>
</g>
</g>
<!-- Node1&#45;&gt;Node13 -->
<g id="edge14" class="edge"><title>Node1&#45;&gt;Node13</title>
<path fill="none" stroke="midnightblue" d="M90.6854,-179.778C105.691,-147.42 145.237,-71.5317 202,-32 204.853,-30.0134 207.908,-28.2337 211.085,-26.6396"/>
<polygon fill="midnightblue" stroke="midnightblue" points="212.533,-29.8268 220.299,-22.6203 209.734,-23.4107 212.533,-29.8268"/>
</g>
<!-- Node8&#45;&gt;Node9 -->
<g id="edge8" class="edge"><title>Node8&#45;&gt;Node9</title>
<path fill="none" stroke="midnightblue" d="M331.053,-124.269C342.83,-123.725 355.364,-123.145 367.649,-122.577"/>
<polygon fill="midnightblue" stroke="midnightblue" points="368.06,-126.062 377.887,-122.103 367.736,-119.069 368.06,-126.062"/>
</g>
<!-- Node11 -->
<g id="node11" class="node"><title>Node11</title>
<g id="a_node11"><a xlink:href="classRa_1_1Core_1_1Graph_1_1AdjacencyList.html#a63e089f5da2ddc2da39dfd5bd6adb410" target="_top" xlink:title="SIZE. ">
<polygon fill="white" stroke="black" points="552,-22 552,-52 692,-52 692,-22 552,-22"/>
<text text-anchor="start" x="560" y="-40" font-family="Helvetica,sans-Serif" font-size="10.00">Ra::Core::Graph::Adjacency</text>
<text text-anchor="middle" x="622" y="-29" font-family="Helvetica,sans-Serif" font-size="10.00">List::size</text>
</a>
</g>
</g>
<!-- Node10&#45;&gt;Node11 -->
<g id="edge10" class="edge"><title>Node10&#45;&gt;Node11</title>
<path fill="none" stroke="midnightblue" d="M331.599,-48.6092C389.533,-46.2852 477.885,-42.741 541.725,-40.1801"/>
<polygon fill="midnightblue" stroke="midnightblue" points="541.901,-43.6759 551.753,-39.7778 541.62,-36.6816 541.901,-43.6759"/>
</g>
<!-- Node12 -->
<g id="node12" class="node"><title>Node12</title>
<g id="a_node12"><a xlink:href="classRa_1_1Core_1_1Graph_1_1AdjacencyList.html#a209e8c037a722c617b3feebdbb85c044" target="_top" xlink:title="Ra::Core::Graph::Adjacency\lList::isLeaf">
<polygon fill="white" stroke="black" points="376,-0 376,-30 516,-30 516,-0 376,-0"/>
<text text-anchor="start" x="384" y="-18" font-family="Helvetica,sans-Serif" font-size="10.00">Ra::Core::Graph::Adjacency</text>
<text text-anchor="middle" x="446" y="-7" font-family="Helvetica,sans-Serif" font-size="10.00">List::isLeaf</text>
</a>
</g>
</g>
<!-- Node10&#45;&gt;Node12 -->
<g id="edge11" class="edge"><title>Node10&#45;&gt;Node12</title>
<path fill="none" stroke="midnightblue" d="M317.907,-41.4472C332.579,-38.3939 349.267,-34.9212 365.614,-31.5196"/>
<polygon fill="midnightblue" stroke="midnightblue" points="366.65,-34.8791 375.727,-29.4151 365.224,-28.0259 366.65,-34.8791"/>
</g>
<!-- Node12&#45;&gt;Node11 -->
<g id="edge12" class="edge"><title>Node12&#45;&gt;Node11</title>
<path fill="none" stroke="midnightblue" d="M516.019,-23.7266C524.476,-24.7958 533.169,-25.8949 541.761,-26.9812"/>
<polygon fill="midnightblue" stroke="midnightblue" points="541.419,-30.4659 551.779,-28.248 542.298,-23.5212 541.419,-30.4659"/>
</g>
</g>
</svg>
