<?xml version="1.0" encoding="UTF-8" standalone="no"?>
<!DOCTYPE svg PUBLIC "-//W3C//DTD SVG 1.1//EN"
 "http://www.w3.org/Graphics/SVG/1.1/DTD/svg11.dtd">
<!-- Generated by graphviz version 2.36.0 (20140111.2315)
 -->
<!-- Title: Ra::IO::AssimpAnimationDataLoader::loadData Pages: 1 -->
<svg width="878pt" height="681pt"
 viewBox="0.00 0.00 878.00 681.48" xmlns="http://www.w3.org/2000/svg" xmlns:xlink="http://www.w3.org/1999/xlink">
<g id="graph0" class="graph" transform="scale(1 1) rotate(0) translate(4 677.476)">
<title>Ra::IO::AssimpAnimationDataLoader::loadData</title>
<polygon fill="white" stroke="none" points="-4,4 -4,-677.476 874,-677.476 874,4 -4,4"/>
<!-- Node1 -->
<g id="node1" class="node"><title>Node1</title>
<polygon fill="#bfbfbf" stroke="black" points="0.5,-537.476 0.5,-567.476 149.5,-567.476 149.5,-537.476 0.5,-537.476"/>
<text text-anchor="start" x="8.5" y="-555.476" font-family="Helvetica,sans-Serif" font-size="10.00">Ra::IO::AssimpAnimationData</text>
<text text-anchor="middle" x="75" y="-544.476" font-family="Helvetica,sans-Serif" font-size="10.00">Loader::loadData</text>
</g>
<!-- Node2 -->
<g id="node2" class="node"><title>Node2</title>
<g id="a_node2"><a xlink:href="classRa_1_1IO_1_1AssimpAnimationDataLoader.html#a055e8ed9642a4a6131e6342e0855ef2b" target="_top" xlink:title="QUERY. ">
<polygon fill="white" stroke="black" points="186.5,-574.476 186.5,-604.476 335.5,-604.476 335.5,-574.476 186.5,-574.476"/>
<text text-anchor="start" x="194.5" y="-592.476" font-family="Helvetica,sans-Serif" font-size="10.00">Ra::IO::AssimpAnimationData</text>
<text text-anchor="middle" x="261" y="-581.476" font-family="Helvetica,sans-Serif" font-size="10.00">Loader::sceneHasAnimation</text>
</a>
</g>
</g>
<!-- Node1&#45;&gt;Node2 -->
<g id="edge1" class="edge"><title>Node1&#45;&gt;Node2</title>
<path fill="none" stroke="midnightblue" d="M149.515,-567.259C158.315,-569.029 167.351,-570.845 176.281,-572.641"/>
<polygon fill="midnightblue" stroke="midnightblue" points="175.808,-576.116 186.302,-574.656 177.188,-569.253 175.808,-576.116"/>
</g>
<!-- Node4 -->
<g id="node4" class="node"><title>Node4</title>
<g id="a_node4"><a xlink:href="classRa_1_1IO_1_1AssimpAnimationDataLoader.html#adf29077c0960683885c150703e49740f" target="_top" xlink:title="KEY FRAME. ">
<polygon fill="white" stroke="black" points="186.5,-501.476 186.5,-531.476 335.5,-531.476 335.5,-501.476 186.5,-501.476"/>
<text text-anchor="start" x="194.5" y="-519.476" font-family="Helvetica,sans-Serif" font-size="10.00">Ra::IO::AssimpAnimationData</text>
<text text-anchor="middle" x="261" y="-508.476" font-family="Helvetica,sans-Serif" font-size="10.00">Loader::loadAnimationData</text>
</a>
</g>
</g>
<!-- Node1&#45;&gt;Node4 -->
<g id="edge3" class="edge"><title>Node1&#45;&gt;Node4</title>
<path fill="none" stroke="midnightblue" d="M149.515,-538.093C158.315,-536.371 167.351,-534.603 176.281,-532.856"/>
<polygon fill="midnightblue" stroke="midnightblue" points="177.16,-536.25 186.302,-530.895 175.816,-529.381 177.16,-536.25"/>
</g>
<!-- Node3 -->
<g id="node3" class="node"><title>Node3</title>
<g id="a_node3"><a xlink:href="classRa_1_1IO_1_1AssimpAnimationDataLoader.html#ab0bc77b937a09f8e770b8826d526f980" target="_top" xlink:title="Ra::IO::AssimpAnimationData\lLoader::sceneAnimationSize">
<polygon fill="white" stroke="black" points="372.5,-599.476 372.5,-629.476 521.5,-629.476 521.5,-599.476 372.5,-599.476"/>
<text text-anchor="start" x="380.5" y="-617.476" font-family="Helvetica,sans-Serif" font-size="10.00">Ra::IO::AssimpAnimationData</text>
<text text-anchor="middle" x="447" y="-606.476" font-family="Helvetica,sans-Serif" font-size="10.00">Loader::sceneAnimationSize</text>
</a>
</g>
</g>
<!-- Node2&#45;&gt;Node3 -->
<g id="edge2" class="edge"><title>Node2&#45;&gt;Node3</title>
<path fill="none" stroke="midnightblue" d="M335.515,-599.464C344.315,-600.66 353.351,-601.888 362.281,-603.101"/>
<polygon fill="midnightblue" stroke="midnightblue" points="361.921,-606.584 372.302,-604.463 362.864,-599.648 361.921,-606.584"/>
</g>
<!-- Node4&#45;&gt;Node3 -->
<g id="edge5" class="edge"><title>Node4&#45;&gt;Node3</title>
<path fill="none" stroke="midnightblue" d="M285.787,-531.635C300.358,-540.988 319.345,-553.295 336,-564.476 352.173,-575.333 354.601,-580.717 372,-589.476 376.315,-591.648 380.862,-593.7 385.493,-595.623"/>
<polygon fill="midnightblue" stroke="midnightblue" points="384.482,-598.986 395.069,-599.386 387.042,-592.471 384.482,-598.986"/>
</g>
<!-- Node5 -->
<g id="node5" class="node"><title>Node5</title>
<g id="a_node5"><a xlink:href="namespaceRa_1_1Core.html#abc0a3625137098b67838fe52edd480f9" target="_top" xlink:title="SIZE. ">
<polygon fill="white" stroke="black" points="767,-75.976 767,-94.976 847,-94.976 847,-75.976 767,-75.976"/>
<text text-anchor="middle" x="807" y="-82.976" font-family="Helvetica,sans-Serif" font-size="10.00">Ra::Core::size</text>
</a>
</g>
</g>
<!-- Node4&#45;&gt;Node5 -->
<g id="edge4" class="edge"><title>Node4&#45;&gt;Node5</title>
<path fill="none" stroke="midnightblue" d="M263.952,-501.359C270.992,-451.337 298.651,-288.088 372,-177.476 432.424,-86.3555 455.549,-54.6577 558,-16.476 620.469,6.80526 644.445,3.65348 708,-16.476 740.34,-26.719 771.235,-51.8998 789.409,-68.8381"/>
<polygon fill="midnightblue" stroke="midnightblue" points="787.186,-71.5561 796.824,-75.9574 792.034,-66.5068 787.186,-71.5561"/>
</g>
<!-- Node6 -->
<g id="node6" class="node"><title>Node6</title>
<g id="a_node6"><a xlink:href="classRa_1_1IO_1_1AssimpAnimationDataLoader.html#ae6d5be5f9895033f807047b305b79ef8" target="_top" xlink:title="NAME. ">
<polygon fill="white" stroke="black" points="372.5,-501.476 372.5,-531.476 521.5,-531.476 521.5,-501.476 372.5,-501.476"/>
<text text-anchor="start" x="380.5" y="-519.476" font-family="Helvetica,sans-Serif" font-size="10.00">Ra::IO::AssimpAnimationData</text>
<text text-anchor="middle" x="447" y="-508.476" font-family="Helvetica,sans-Serif" font-size="10.00">Loader::fetchName</text>
</a>
</g>
</g>
<!-- Node4&#45;&gt;Node6 -->
<g id="edge6" class="edge"><title>Node4&#45;&gt;Node6</title>
<path fill="none" stroke="midnightblue" d="M335.515,-516.476C344.315,-516.476 353.351,-516.476 362.281,-516.476"/>
<polygon fill="midnightblue" stroke="midnightblue" points="362.302,-519.976 372.302,-516.476 362.302,-512.976 362.302,-519.976"/>
</g>
<!-- Node9 -->
<g id="node9" class="node"><title>Node9</title>
<g id="a_node9"><a xlink:href="classRa_1_1IO_1_1AssimpAnimationDataLoader.html#a27689dc210ccf9597f87e330a97f8e9a" target="_top" xlink:title="TIME. ">
<polygon fill="white" stroke="black" points="372.5,-408.476 372.5,-438.476 521.5,-438.476 521.5,-408.476 372.5,-408.476"/>
<text text-anchor="start" x="380.5" y="-426.476" font-family="Helvetica,sans-Serif" font-size="10.00">Ra::IO::AssimpAnimationData</text>
<text text-anchor="middle" x="447" y="-415.476" font-family="Helvetica,sans-Serif" font-size="10.00">Loader::fetchTime</text>
</a>
</g>
</g>
<!-- Node4&#45;&gt;Node9 -->
<g id="edge9" class="edge"><title>Node4&#45;&gt;Node9</title>
<path fill="none" stroke="midnightblue" d="M291.972,-501.327C323.248,-485.519 372.425,-460.664 406.773,-443.303"/>
<polygon fill="midnightblue" stroke="midnightblue" points="408.695,-446.253 416.041,-438.619 405.537,-440.006 408.695,-446.253"/>
</g>
<!-- Node15 -->
<g id="node15" class="node"><title>Node15</title>
<g id="a_node15"><a xlink:href="classRa_1_1IO_1_1AssimpAnimationDataLoader.html#aa0ff91f44c0889489ef1370d4d041bfd" target="_top" xlink:title="Ra::IO::AssimpAnimationData\lLoader::fetchAnimation">
<polygon fill="white" stroke="black" points="372.5,-187.476 372.5,-217.476 521.5,-217.476 521.5,-187.476 372.5,-187.476"/>
<text text-anchor="start" x="380.5" y="-205.476" font-family="Helvetica,sans-Serif" font-size="10.00">Ra::IO::AssimpAnimationData</text>
<text text-anchor="middle" x="447" y="-194.476" font-family="Helvetica,sans-Serif" font-size="10.00">Loader::fetchAnimation</text>
</a>
</g>
</g>
<!-- Node4&#45;&gt;Node15 -->
<g id="edge15" class="edge"><title>Node4&#45;&gt;Node15</title>
<path fill="none" stroke="midnightblue" d="M270.875,-501.331C300.441,-450.876 395.759,-288.213 431.915,-226.512"/>
<polygon fill="midnightblue" stroke="midnightblue" points="434.963,-228.234 436.999,-217.837 428.923,-224.695 434.963,-228.234"/>
</g>
<!-- Node25 -->
<g id="node25" class="node"><title>Node25</title>
<g id="a_node25"><a xlink:href="classRa_1_1Asset_1_1AnimationData.html#a69850f70524d5c5b7d549a8837edd28b" target="_top" xlink:title="DEBUG. ">
<polygon fill="white" stroke="black" points="381.5,-550.476 381.5,-580.476 512.5,-580.476 512.5,-550.476 381.5,-550.476"/>
<text text-anchor="start" x="389.5" y="-568.476" font-family="Helvetica,sans-Serif" font-size="10.00">Ra::Asset::AnimationData</text>
<text text-anchor="middle" x="447" y="-557.476" font-family="Helvetica,sans-Serif" font-size="10.00">::displayInfo</text>
</a>
</g>
</g>
<!-- Node4&#45;&gt;Node25 -->
<g id="edge29" class="edge"><title>Node4&#45;&gt;Node25</title>
<path fill="none" stroke="midnightblue" d="M318.457,-531.511C337.884,-536.684 359.811,-542.524 379.935,-547.883"/>
<polygon fill="midnightblue" stroke="midnightblue" points="379.086,-551.279 389.65,-550.47 380.888,-544.514 379.086,-551.279"/>
</g>
<!-- Node7 -->
<g id="node7" class="node"><title>Node7</title>
<g id="a_node7"><a xlink:href="classRa_1_1Asset_1_1AnimationData.html#af45d542d021bbfcf85c60284bb649714" target="_top" xlink:title="NAME. ">
<polygon fill="white" stroke="black" points="567.5,-545.476 567.5,-575.476 698.5,-575.476 698.5,-545.476 567.5,-545.476"/>
<text text-anchor="start" x="575.5" y="-563.476" font-family="Helvetica,sans-Serif" font-size="10.00">Ra::Asset::AnimationData</text>
<text text-anchor="middle" x="633" y="-552.476" font-family="Helvetica,sans-Serif" font-size="10.00">::setName</text>
</a>
</g>
</g>
<!-- Node6&#45;&gt;Node7 -->
<g id="edge7" class="edge"><title>Node6&#45;&gt;Node7</title>
<path fill="none" stroke="midnightblue" d="M510.808,-531.495C526.413,-535.227 543.267,-539.257 559.303,-543.092"/>
<polygon fill="midnightblue" stroke="midnightblue" points="558.623,-546.528 569.163,-545.45 560.251,-539.72 558.623,-546.528"/>
</g>
<!-- Node8 -->
<g id="node8" class="node"><title>Node8</title>
<g id="a_node8"><a xlink:href="namespaceRa_1_1IO.html#aef6c50424873964fcea0008be55d4a34" target="_top" xlink:title="Ra::IO::assimpToCore">
<polygon fill="white" stroke="black" points="749,-506.976 749,-525.976 865,-525.976 865,-506.976 749,-506.976"/>
<text text-anchor="middle" x="807" y="-513.976" font-family="Helvetica,sans-Serif" font-size="10.00">Ra::IO::assimpToCore</text>
</a>
</g>
</g>
<!-- Node6&#45;&gt;Node8 -->
<g id="edge8" class="edge"><title>Node6&#45;&gt;Node8</title>
<path fill="none" stroke="midnightblue" d="M521.744,-516.476C585.535,-516.476 676.986,-516.476 738.79,-516.476"/>
<polygon fill="midnightblue" stroke="midnightblue" points="738.826,-519.976 748.826,-516.476 738.826,-512.976 738.826,-519.976"/>
</g>
<!-- Node10 -->
<g id="node10" class="node"><title>Node10</title>
<g id="a_node10"><a xlink:href="classRa_1_1Asset_1_1AnimationTime.html#a3d66a6bbd2d5bbcc7e69326bd00c820a" target="_top" xlink:title="Ra::Asset::AnimationTime\l::setStart">
<polygon fill="white" stroke="black" points="567,-359.476 567,-389.476 699,-389.476 699,-359.476 567,-359.476"/>
<text text-anchor="start" x="575" y="-377.476" font-family="Helvetica,sans-Serif" font-size="10.00">Ra::Asset::AnimationTime</text>
<text text-anchor="middle" x="633" y="-366.476" font-family="Helvetica,sans-Serif" font-size="10.00">::setStart</text>
</a>
</g>
</g>
<!-- Node9&#45;&gt;Node10 -->
<g id="edge10" class="edge"><title>Node9&#45;&gt;Node10</title>
<path fill="none" stroke="midnightblue" d="M504.457,-408.441C523.884,-403.268 545.811,-397.429 565.935,-392.069"/>
<polygon fill="midnightblue" stroke="midnightblue" points="566.888,-395.438 575.65,-389.482 565.086,-388.674 566.888,-395.438"/>
</g>
<!-- Node11 -->
<g id="node11" class="node"><title>Node11</title>
<g id="a_node11"><a xlink:href="classRa_1_1Asset_1_1AnimationTime.html#a99e02d1a87c8a6b61d1826592e191e50" target="_top" xlink:title="Ra::Asset::AnimationTime\l::setEnd">
<polygon fill="white" stroke="black" points="567,-408.476 567,-438.476 699,-438.476 699,-408.476 567,-408.476"/>
<text text-anchor="start" x="575" y="-426.476" font-family="Helvetica,sans-Serif" font-size="10.00">Ra::Asset::AnimationTime</text>
<text text-anchor="middle" x="633" y="-415.476" font-family="Helvetica,sans-Serif" font-size="10.00">::setEnd</text>
</a>
</g>
</g>
<!-- Node9&#45;&gt;Node11 -->
<g id="edge11" class="edge"><title>Node9&#45;&gt;Node11</title>
<path fill="none" stroke="midnightblue" d="M521.515,-423.476C533.128,-423.476 545.151,-423.476 556.802,-423.476"/>
<polygon fill="midnightblue" stroke="midnightblue" points="556.925,-426.976 566.925,-423.476 556.925,-419.976 556.925,-426.976"/>
</g>
<!-- Node12 -->
<g id="node12" class="node"><title>Node12</title>
<g id="a_node12"><a xlink:href="classRa_1_1Asset_1_1AnimationData.html#ada0a04150c4c9051261d95fcad8b78db" target="_top" xlink:title="Ra::Asset::AnimationData\l::setTime">
<polygon fill="white" stroke="black" points="567.5,-310.476 567.5,-340.476 698.5,-340.476 698.5,-310.476 567.5,-310.476"/>
<text text-anchor="start" x="575.5" y="-328.476" font-family="Helvetica,sans-Serif" font-size="10.00">Ra::Asset::AnimationData</text>
<text text-anchor="middle" x="633" y="-317.476" font-family="Helvetica,sans-Serif" font-size="10.00">::setTime</text>
</a>
</g>
</g>
<!-- Node9&#45;&gt;Node12 -->
<g id="edge12" class="edge"><title>Node9&#45;&gt;Node12</title>
<path fill="none" stroke="midnightblue" d="M466.872,-408.372C488.026,-392.031 523.852,-366.094 558,-349.476 561.757,-347.648 565.687,-345.911 569.693,-344.27"/>
<polygon fill="midnightblue" stroke="midnightblue" points="571.069,-347.49 579.132,-340.617 568.543,-340.962 571.069,-347.49"/>
</g>
<!-- Node13 -->
<g id="node13" class="node"><title>Node13</title>
<g id="a_node13"><a xlink:href="classRa_1_1Asset_1_1AnimationData.html#a7a56f036e3a6b2a7db50ae0bd3a0fb32" target="_top" xlink:title="Ra::Asset::AnimationData\l::setTimeStep">
<polygon fill="white" stroke="black" points="567.5,-457.476 567.5,-487.476 698.5,-487.476 698.5,-457.476 567.5,-457.476"/>
<text text-anchor="start" x="575.5" y="-475.476" font-family="Helvetica,sans-Serif" font-size="10.00">Ra::Asset::AnimationData</text>
<text text-anchor="middle" x="633" y="-464.476" font-family="Helvetica,sans-Serif" font-size="10.00">::setTimeStep</text>
</a>
</g>
</g>
<!-- Node9&#45;&gt;Node13 -->
<g id="edge13" class="edge"><title>Node9&#45;&gt;Node13</title>
<path fill="none" stroke="midnightblue" d="M504.457,-438.511C523.884,-443.684 545.811,-449.524 565.935,-454.883"/>
<polygon fill="midnightblue" stroke="midnightblue" points="565.086,-458.279 575.65,-457.47 566.888,-451.514 565.086,-458.279"/>
</g>
<!-- Node14 -->
<g id="node14" class="node"><title>Node14</title>
<g id="a_node14"><a xlink:href="namespaceRa_1_1Core_1_1Algorithm.html#abebfe08bb2303204bea2baea8195439d" target="_top" xlink:title="Ra::Core::Algorithm\l::delta">
<polygon fill="white" stroke="black" points="755,-457.476 755,-487.476 859,-487.476 859,-457.476 755,-457.476"/>
<text text-anchor="start" x="763" y="-475.476" font-family="Helvetica,sans-Serif" font-size="10.00">Ra::Core::Algorithm</text>
<text text-anchor="middle" x="807" y="-464.476" font-family="Helvetica,sans-Serif" font-size="10.00">::delta</text>
</a>
</g>
</g>
<!-- Node13&#45;&gt;Node14 -->
<g id="edge14" class="edge"><title>Node13&#45;&gt;Node14</title>
<path fill="none" stroke="midnightblue" d="M698.536,-472.476C713.639,-472.476 729.685,-472.476 744.645,-472.476"/>
<polygon fill="midnightblue" stroke="midnightblue" points="744.803,-475.976 754.803,-472.476 744.803,-468.976 744.803,-475.976"/>
</g>
<!-- Node15&#45;&gt;Node5 -->
<g id="edge16" class="edge"><title>Node15&#45;&gt;Node5</title>
<path fill="none" stroke="midnightblue" d="M459.522,-187.211C477.637,-164.541 515.163,-122.694 558,-104.476 622.501,-77.0446 704.909,-76.7606 756.586,-80.2264"/>
<polygon fill="midnightblue" stroke="midnightblue" points="756.581,-83.7356 766.813,-80.9885 757.101,-76.755 756.581,-83.7356"/>
</g>
<!-- Node15&#45;&gt;Node12 -->
<g id="edge28" class="edge"><title>Node15&#45;&gt;Node12</title>
<path fill="none" stroke="midnightblue" d="M461.127,-217.493C480.413,-238.717 518.424,-277.459 558,-300.476 561.627,-302.585 565.457,-304.55 569.39,-306.374"/>
<polygon fill="midnightblue" stroke="midnightblue" points="568.133,-309.643 578.703,-310.377 570.898,-303.212 568.133,-309.643"/>
</g>
<!-- Node16 -->
<g id="node16" class="node"><title>Node16</title>
<g id="a_node16"><a xlink:href="classRa_1_1Asset_1_1AnimationData.html#abbf0364d025ccbeb3ae77ef211c1e855" target="_top" xlink:title="TIME. ">
<polygon fill="white" stroke="black" points="567.5,-163.476 567.5,-193.476 698.5,-193.476 698.5,-163.476 567.5,-163.476"/>
<text text-anchor="start" x="575.5" y="-181.476" font-family="Helvetica,sans-Serif" font-size="10.00">Ra::Asset::AnimationData</text>
<text text-anchor="middle" x="633" y="-170.476" font-family="Helvetica,sans-Serif" font-size="10.00">::getTime</text>
</a>
</g>
</g>
<!-- Node15&#45;&gt;Node16 -->
<g id="edge17" class="edge"><title>Node15&#45;&gt;Node16</title>
<path fill="none" stroke="midnightblue" d="M521.515,-192.887C533.206,-191.362 545.311,-189.783 557.035,-188.254"/>
<polygon fill="midnightblue" stroke="midnightblue" points="557.756,-191.69 567.219,-186.926 556.85,-184.749 557.756,-191.69"/>
</g>
<!-- Node17 -->
<g id="node17" class="node"><title>Node17</title>
<g id="a_node17"><a xlink:href="classRa_1_1IO_1_1AssimpAnimationDataLoader.html#a130765ba65955c0d5c3217f813c0a812" target="_top" xlink:title="Ra::IO::AssimpAnimationData\lLoader::fetchHandleAnimation">
<polygon fill="white" stroke="black" points="558.5,-261.476 558.5,-291.476 707.5,-291.476 707.5,-261.476 558.5,-261.476"/>
<text text-anchor="start" x="566.5" y="-279.476" font-family="Helvetica,sans-Serif" font-size="10.00">Ra::IO::AssimpAnimationData</text>
<text text-anchor="middle" x="633" y="-268.476" font-family="Helvetica,sans-Serif" font-size="10.00">Loader::fetchHandleAnimation</text>
</a>
</g>
</g>
<!-- Node15&#45;&gt;Node17 -->
<g id="edge18" class="edge"><title>Node15&#45;&gt;Node17</title>
<path fill="none" stroke="midnightblue" d="M479.915,-217.64C501.695,-227.753 531.322,-241.054 558,-251.476 563.583,-253.657 569.445,-255.831 575.322,-257.934"/>
<polygon fill="midnightblue" stroke="midnightblue" points="574.586,-261.385 585.181,-261.396 576.905,-254.78 574.586,-261.385"/>
</g>
<!-- Node22 -->
<g id="node22" class="node"><title>Node22</title>
<g id="a_node22"><a xlink:href="classRa_1_1Asset_1_1AnimationData.html#adf6d483b196fea688300b82fc0c3d185" target="_top" xlink:title="Ra::Asset::AnimationData\l::getTimeStep">
<polygon fill="white" stroke="black" points="567.5,-26.476 567.5,-56.476 698.5,-56.476 698.5,-26.476 567.5,-26.476"/>
<text text-anchor="start" x="575.5" y="-44.476" font-family="Helvetica,sans-Serif" font-size="10.00">Ra::Asset::AnimationData</text>
<text text-anchor="middle" x="633" y="-33.476" font-family="Helvetica,sans-Serif" font-size="10.00">::getTimeStep</text>
</a>
</g>
</g>
<!-- Node15&#45;&gt;Node22 -->
<g id="edge24" class="edge"><title>Node15&#45;&gt;Node22</title>
<path fill="none" stroke="midnightblue" d="M457.064,-187.461C473.877,-160.747 512.365,-104.661 558,-71.476 563.424,-67.532 569.44,-64.0073 575.631,-60.8843"/>
<polygon fill="midnightblue" stroke="midnightblue" points="577.211,-64.0092 584.779,-56.5941 574.239,-57.6716 577.211,-64.0092"/>
</g>
<!-- Node23 -->
<g id="node23" class="node"><title>Node23</title>
<g id="a_node23"><a xlink:href="classRa_1_1Asset_1_1AnimationTime.html#a189ab9544e851ed6ab2d36a2b5d6a952" target="_top" xlink:title="Ra::Asset::AnimationTime\l::merge">
<polygon fill="white" stroke="black" points="567,-212.476 567,-242.476 699,-242.476 699,-212.476 567,-212.476"/>
<text text-anchor="start" x="575" y="-230.476" font-family="Helvetica,sans-Serif" font-size="10.00">Ra::Asset::AnimationTime</text>
<text text-anchor="middle" x="633" y="-219.476" font-family="Helvetica,sans-Serif" font-size="10.00">::merge</text>
</a>
</g>
</g>
<!-- Node15&#45;&gt;Node23 -->
<g id="edge25" class="edge"><title>Node15&#45;&gt;Node23</title>
<path fill="none" stroke="midnightblue" d="M521.515,-212.464C533.128,-214.042 545.151,-215.676 556.802,-217.259"/>
<polygon fill="midnightblue" stroke="midnightblue" points="556.545,-220.756 566.925,-218.634 557.487,-213.82 556.545,-220.756"/>
</g>
<!-- Node24 -->
<g id="node24" class="node"><title>Node24</title>
<g id="a_node24"><a xlink:href="classRa_1_1Asset_1_1AnimationData.html#ae05331a7e0461688bedfa79ce4e34b4e" target="_top" xlink:title="Ra::Asset::AnimationData\l::setFrames">
<polygon fill="white" stroke="black" points="567.5,-114.476 567.5,-144.476 698.5,-144.476 698.5,-114.476 567.5,-114.476"/>
<text text-anchor="start" x="575.5" y="-132.476" font-family="Helvetica,sans-Serif" font-size="10.00">Ra::Asset::AnimationData</text>
<text text-anchor="middle" x="633" y="-121.476" font-family="Helvetica,sans-Serif" font-size="10.00">::setFrames</text>
</a>
</g>
</g>
<!-- Node15&#45;&gt;Node24 -->
<g id="edge26" class="edge"><title>Node15&#45;&gt;Node24</title>
<path fill="none" stroke="midnightblue" d="M479.399,-187.428C501.203,-177.242 531.064,-163.81 558,-153.476 563.044,-151.541 568.318,-149.625 573.628,-147.768"/>
<polygon fill="midnightblue" stroke="midnightblue" points="574.852,-151.049 583.181,-144.501 572.587,-144.425 574.852,-151.049"/>
</g>
<!-- Node17&#45;&gt;Node8 -->
<g id="edge21" class="edge"><title>Node17&#45;&gt;Node8</title>
<path fill="none" stroke="midnightblue" d="M697.604,-291.526C701.447,-294.062 704.974,-297.022 708,-300.476 766.361,-367.097 685.586,-429.902 744,-496.476 745.545,-498.237 747.247,-499.845 749.069,-501.311"/>
<polygon fill="midnightblue" stroke="midnightblue" points="747.417,-504.411 757.72,-506.882 751.207,-498.525 747.417,-504.411"/>
</g>
<!-- Node18 -->
<g id="node18" class="node"><title>Node18</title>
<g id="a_node18"><a xlink:href="classRa_1_1Asset_1_1KeyFrame.html#a42442ed8c9ee7f7c24ef52ff62ee30ae" target="_top" xlink:title="RESET. ">
<polygon fill="white" stroke="black" points="751,-334.476 751,-364.476 863,-364.476 863,-334.476 751,-334.476"/>
<text text-anchor="start" x="759" y="-352.476" font-family="Helvetica,sans-Serif" font-size="10.00">Ra::Asset::KeyFrame</text>
<text text-anchor="middle" x="807" y="-341.476" font-family="Helvetica,sans-Serif" font-size="10.00">::reset</text>
</a>
</g>
</g>
<!-- Node17&#45;&gt;Node18 -->
<g id="edge19" class="edge"><title>Node17&#45;&gt;Node18</title>
<path fill="none" stroke="midnightblue" d="M686.461,-291.499C693.822,-294.179 701.192,-297.181 708,-300.476 725.308,-308.854 726.994,-315.5 744,-324.476 747.753,-326.457 751.698,-328.382 755.705,-330.226"/>
<polygon fill="midnightblue" stroke="midnightblue" points="754.541,-333.538 765.103,-334.373 757.367,-327.134 754.541,-333.538"/>
</g>
<!-- Node19 -->
<g id="node19" class="node"><title>Node19</title>
<g id="a_node19"><a xlink:href="classRa_1_1Asset_1_1KeyFrame.html#aea56e20481b32c5a81ff6d9eb34f9e97" target="_top" xlink:title="Ra::Asset::KeyFrame\l::insertKeyFrame">
<polygon fill="white" stroke="black" points="751,-285.476 751,-315.476 863,-315.476 863,-285.476 751,-285.476"/>
<text text-anchor="start" x="759" y="-303.476" font-family="Helvetica,sans-Serif" font-size="10.00">Ra::Asset::KeyFrame</text>
<text text-anchor="middle" x="807" y="-292.476" font-family="Helvetica,sans-Serif" font-size="10.00">::insertKeyFrame</text>
</a>
</g>
</g>
<!-- Node17&#45;&gt;Node19 -->
<g id="edge20" class="edge"><title>Node17&#45;&gt;Node19</title>
<path fill="none" stroke="midnightblue" d="M707.942,-286.793C718.844,-288.315 730.009,-289.873 740.719,-291.367"/>
<polygon fill="midnightblue" stroke="midnightblue" points="740.436,-294.861 750.824,-292.777 741.404,-287.929 740.436,-294.861"/>
</g>
<!-- Node20 -->
<g id="node20" class="node"><title>Node20</title>
<g id="a_node20"><a xlink:href="classRa_1_1Asset_1_1KeyFrame.html#a11502b1be2a8476d891058748a4158be" target="_top" xlink:title="Ra::Asset::KeyFrame\l::setAnimationTime">
<polygon fill="white" stroke="black" points="751,-236.476 751,-266.476 863,-266.476 863,-236.476 751,-236.476"/>
<text text-anchor="start" x="759" y="-254.476" font-family="Helvetica,sans-Serif" font-size="10.00">Ra::Asset::KeyFrame</text>
<text text-anchor="middle" x="807" y="-243.476" font-family="Helvetica,sans-Serif" font-size="10.00">::setAnimationTime</text>
</a>
</g>
</g>
<!-- Node17&#45;&gt;Node20 -->
<g id="edge22" class="edge"><title>Node17&#45;&gt;Node20</title>
<path fill="none" stroke="midnightblue" d="M707.942,-265.729C718.844,-264.144 730.009,-262.521 740.719,-260.965"/>
<polygon fill="midnightblue" stroke="midnightblue" points="741.431,-264.398 750.824,-259.496 740.425,-257.471 741.431,-264.398"/>
</g>
<!-- Node21 -->
<g id="node21" class="node"><title>Node21</title>
<g id="a_node21"><a xlink:href="classRa_1_1Asset_1_1KeyFrame.html#a061bfb7750328282a1965eb2fee01915" target="_top" xlink:title="Ra::Asset::KeyFrame::at">
<polygon fill="white" stroke="black" points="744,-197.976 744,-216.976 870,-216.976 870,-197.976 744,-197.976"/>
<text text-anchor="middle" x="807" y="-204.976" font-family="Helvetica,sans-Serif" font-size="10.00">Ra::Asset::KeyFrame::at</text>
</a>
</g>
</g>
<!-- Node17&#45;&gt;Node21 -->
<g id="edge23" class="edge"><title>Node17&#45;&gt;Node21</title>
<path fill="none" stroke="midnightblue" d="M684.931,-261.386C692.807,-258.452 700.733,-255.135 708,-251.476 725.399,-242.717 726.478,-234.987 744,-226.476 748.628,-224.228 753.58,-222.177 758.592,-220.324"/>
<polygon fill="midnightblue" stroke="midnightblue" points="759.919,-223.569 768.236,-217.007 757.642,-216.95 759.919,-223.569"/>
</g>
<!-- Node24&#45;&gt;Node5 -->
<g id="edge27" class="edge"><title>Node24&#45;&gt;Node5</title>
<path fill="none" stroke="midnightblue" d="M692.712,-114.457C714.373,-108.916 738.61,-102.715 759.091,-97.4761"/>
<polygon fill="midnightblue" stroke="midnightblue" points="759.995,-100.858 768.815,-94.9885 758.26,-94.0761 759.995,-100.858"/>
</g>
<!-- Node26 -->
<g id="node26" class="node"><title>Node26</title>
<g id="a_node26"><a xlink:href="classRa_1_1Asset_1_1AnimationTime.html#adab2c237d3d61b3dac6189cc2a66155a" target="_top" xlink:title="TIME. ">
<polygon fill="white" stroke="black" points="567,-643.476 567,-673.476 699,-673.476 699,-643.476 567,-643.476"/>
<text text-anchor="start" x="575" y="-661.476" font-family="Helvetica,sans-Serif" font-size="10.00">Ra::Asset::AnimationTime</text>
<text text-anchor="middle" x="633" y="-650.476" font-family="Helvetica,sans-Serif" font-size="10.00">::getStart</text>
</a>
</g>
</g>
<!-- Node25&#45;&gt;Node26 -->
<g id="edge30" class="edge"><title>Node25&#45;&gt;Node26</title>
<path fill="none" stroke="midnightblue" d="M505.717,-580.525C511.441,-583.083 516.982,-586.048 522,-589.476 542.863,-603.729 537.224,-619.096 558,-633.476 560.875,-635.466 563.921,-637.308 567.075,-639.013"/>
<polygon fill="midnightblue" stroke="midnightblue" points="565.674,-642.224 576.196,-643.46 568.742,-635.932 565.674,-642.224"/>
</g>
<!-- Node27 -->
<g id="node27" class="node"><title>Node27</title>
<g id="a_node27"><a xlink:href="classRa_1_1Asset_1_1AnimationTime.html#a80aac004bfc4237dec4a36a83fe8466a" target="_top" xlink:title="Ra::Asset::AnimationTime\l::getEnd">
<polygon fill="white" stroke="black" points="567,-594.476 567,-624.476 699,-624.476 699,-594.476 567,-594.476"/>
<text text-anchor="start" x="575" y="-612.476" font-family="Helvetica,sans-Serif" font-size="10.00">Ra::Asset::AnimationTime</text>
<text text-anchor="middle" x="633" y="-601.476" font-family="Helvetica,sans-Serif" font-size="10.00">::getEnd</text>
</a>
</g>
</g>
<!-- Node25&#45;&gt;Node27 -->
<g id="edge31" class="edge"><title>Node25&#45;&gt;Node27</title>
<path fill="none" stroke="midnightblue" d="M510.808,-580.495C526.413,-584.227 543.267,-588.257 559.303,-592.092"/>
<polygon fill="midnightblue" stroke="midnightblue" points="558.623,-595.528 569.163,-594.45 560.251,-588.72 558.623,-595.528"/>
</g>
</g>
</svg>
