<?xml version="1.0" encoding="UTF-8" standalone="no"?>
<!DOCTYPE svg PUBLIC "-//W3C//DTD SVG 1.1//EN"
 "http://www.w3.org/Graphics/SVG/1.1/DTD/svg11.dtd">
<!-- Generated by graphviz version 2.36.0 (20140111.2315)
 -->
<!-- Title: MeshFeatureTrackingPlugin::MeshFeatureTrackingComponent::update Pages: 1 -->
<svg width="876pt" height="305pt"
 viewBox="0.00 0.00 876.00 304.93" xmlns="http://www.w3.org/2000/svg" xmlns:xlink="http://www.w3.org/1999/xlink">
<g id="graph0" class="graph" transform="scale(1 1) rotate(0) translate(4 300.932)">
<title>MeshFeatureTrackingPlugin::MeshFeatureTrackingComponent::update</title>
<polygon fill="white" stroke="none" points="-4,4 -4,-300.932 872,-300.932 872,4 -4,4"/>
<!-- Node1 -->
<g id="node1" class="node"><title>Node1</title>
<polygon fill="#bfbfbf" stroke="black" points="0.5,-138.5 0.5,-179.5 167.5,-179.5 167.5,-138.5 0.5,-138.5"/>
<text text-anchor="start" x="8.5" y="-167.5" font-family="Helvetica,sans-Serif" font-size="10.00">MeshFeatureTrackingPlugin</text>
<text text-anchor="start" x="8.5" y="-156.5" font-family="Helvetica,sans-Serif" font-size="10.00">::MeshFeatureTrackingComponent</text>
<text text-anchor="middle" x="84" y="-145.5" font-family="Helvetica,sans-Serif" font-size="10.00">::update</text>
</g>
<!-- Node2 -->
<g id="node2" class="node"><title>Node2</title>
<g id="a_node2"><a xlink:href="classRa_1_1Engine_1_1Component.html#a10b0bc182b76165744ebea603ae32dfe" target="_top" xlink:title="Shortcut to access the render object manager. ">
<polygon fill="white" stroke="black" points="414,-256 414,-286 536,-286 536,-256 414,-256"/>
<text text-anchor="start" x="422" y="-274" font-family="Helvetica,sans-Serif" font-size="10.00">Ra::Engine::Component</text>
<text text-anchor="middle" x="475" y="-263" font-family="Helvetica,sans-Serif" font-size="10.00">::getRoMgr</text>
</a>
</g>
</g>
<!-- Node1&#45;&gt;Node2 -->
<g id="edge1" class="edge"><title>Node1&#45;&gt;Node2</title>
<path fill="none" stroke="midnightblue" d="M98.0284,-179.867C117.189,-208.34 155.952,-258.098 204,-278 268.06,-304.535 348.2,-298.08 404.47,-287.893"/>
<polygon fill="midnightblue" stroke="midnightblue" points="405.165,-291.324 414.339,-286.024 403.862,-284.446 405.165,-291.324"/>
</g>
<!-- Node3 -->
<g id="node3" class="node"><title>Node3</title>
<g id="a_node3"><a xlink:href="classMeshFeatureTrackingPlugin_1_1MeshFeatureTrackingComponent.html#ae7f3f822c5cd05548c11d92b3ef98931" target="_top" xlink:title="Registers the new center for the sphere. ">
<polygon fill="white" stroke="black" points="204.5,-108.5 204.5,-149.5 371.5,-149.5 371.5,-108.5 204.5,-108.5"/>
<text text-anchor="start" x="212.5" y="-137.5" font-family="Helvetica,sans-Serif" font-size="10.00">MeshFeatureTrackingPlugin</text>
<text text-anchor="start" x="212.5" y="-126.5" font-family="Helvetica,sans-Serif" font-size="10.00">::MeshFeatureTrackingComponent</text>
<text text-anchor="middle" x="288" y="-115.5" font-family="Helvetica,sans-Serif" font-size="10.00">::setPosition</text>
</a>
</g>
</g>
<!-- Node1&#45;&gt;Node3 -->
<g id="edge2" class="edge"><title>Node1&#45;&gt;Node3</title>
<path fill="none" stroke="midnightblue" d="M167.744,-146.711C176.531,-145.406 185.509,-144.073 194.399,-142.753"/>
<polygon fill="midnightblue" stroke="midnightblue" points="195.007,-146.201 204.385,-141.27 193.979,-139.277 195.007,-146.201"/>
</g>
<!-- Node5 -->
<g id="node5" class="node"><title>Node5</title>
<g id="a_node5"><a xlink:href="classMeshFeatureTrackingPlugin_1_1MeshFeatureTrackingComponent.html#a070c4cf514a05514998983ef9ea8333c" target="_top" xlink:title="MeshFeatureTrackingPlugin\l::MeshFeatureTrackingComponent\l::getFeaturePosition">
<polygon fill="white" stroke="black" points="204.5,-168.5 204.5,-209.5 371.5,-209.5 371.5,-168.5 204.5,-168.5"/>
<text text-anchor="start" x="212.5" y="-197.5" font-family="Helvetica,sans-Serif" font-size="10.00">MeshFeatureTrackingPlugin</text>
<text text-anchor="start" x="212.5" y="-186.5" font-family="Helvetica,sans-Serif" font-size="10.00">::MeshFeatureTrackingComponent</text>
<text text-anchor="middle" x="288" y="-175.5" font-family="Helvetica,sans-Serif" font-size="10.00">::getFeaturePosition</text>
</a>
</g>
</g>
<!-- Node1&#45;&gt;Node5 -->
<g id="edge4" class="edge"><title>Node1&#45;&gt;Node5</title>
<path fill="none" stroke="midnightblue" d="M167.744,-171.289C176.531,-172.594 185.509,-173.927 194.399,-175.247"/>
<polygon fill="midnightblue" stroke="midnightblue" points="193.979,-178.723 204.385,-176.73 195.007,-171.799 193.979,-178.723"/>
</g>
<!-- Node10 -->
<g id="node10" class="node"><title>Node10</title>
<g id="a_node10"><a xlink:href="classMeshFeatureTrackingPlugin_1_1MeshFeatureTrackingComponent.html#a66ff6e44bfadaa9cb0b5a3f2c09e205e" target="_top" xlink:title="Registers the new scale for the sphere. ">
<polygon fill="white" stroke="black" points="204.5,-48.5 204.5,-89.5 371.5,-89.5 371.5,-48.5 204.5,-48.5"/>
<text text-anchor="start" x="212.5" y="-77.5" font-family="Helvetica,sans-Serif" font-size="10.00">MeshFeatureTrackingPlugin</text>
<text text-anchor="start" x="212.5" y="-66.5" font-family="Helvetica,sans-Serif" font-size="10.00">::MeshFeatureTrackingComponent</text>
<text text-anchor="middle" x="288" y="-55.5" font-family="Helvetica,sans-Serif" font-size="10.00">::setScale</text>
</a>
</g>
</g>
<!-- Node1&#45;&gt;Node10 -->
<g id="edge10" class="edge"><title>Node1&#45;&gt;Node10</title>
<path fill="none" stroke="midnightblue" d="M122.765,-138.495C145.89,-126.309 176.271,-110.95 204,-99 208.428,-97.0917 213.021,-95.1992 217.673,-93.3475"/>
<polygon fill="midnightblue" stroke="midnightblue" points="219.219,-96.5016 227.268,-89.6119 216.679,-89.9786 219.219,-96.5016"/>
</g>
<!-- Node12 -->
<g id="node12" class="node"><title>Node12</title>
<g id="a_node12"><a xlink:href="classMeshFeatureTrackingPlugin_1_1MeshFeatureTrackingComponent.html#ab8cb3c199c646746382ee3b5f9a76565" target="_top" xlink:title="MeshFeatureTrackingPlugin\l::MeshFeatureTrackingComponent\l::getFeatureScale">
<polygon fill="white" stroke="black" points="204.5,-228.5 204.5,-269.5 371.5,-269.5 371.5,-228.5 204.5,-228.5"/>
<text text-anchor="start" x="212.5" y="-257.5" font-family="Helvetica,sans-Serif" font-size="10.00">MeshFeatureTrackingPlugin</text>
<text text-anchor="start" x="212.5" y="-246.5" font-family="Helvetica,sans-Serif" font-size="10.00">::MeshFeatureTrackingComponent</text>
<text text-anchor="middle" x="288" y="-235.5" font-family="Helvetica,sans-Serif" font-size="10.00">::getFeatureScale</text>
</a>
</g>
</g>
<!-- Node1&#45;&gt;Node12 -->
<g id="edge13" class="edge"><title>Node1&#45;&gt;Node12</title>
<path fill="none" stroke="midnightblue" d="M123.919,-179.561C146.934,-191.4 176.811,-206.219 204,-218 209.244,-220.272 214.715,-222.538 220.235,-224.751"/>
<polygon fill="midnightblue" stroke="midnightblue" points="218.955,-228.009 229.542,-228.418 221.521,-221.496 218.955,-228.009"/>
</g>
<!-- Node13 -->
<g id="node13" class="node"><title>Node13</title>
<g id="a_node13"><a xlink:href="classRa_1_1Engine_1_1RenderObject.html#a62e0eb3a7de5a7d352b565a28260cc06" target="_top" xlink:title="Ra::Engine::RenderObject\l::setVisible">
<polygon fill="white" stroke="black" points="222.5,-0 222.5,-30 353.5,-30 353.5,-0 222.5,-0"/>
<text text-anchor="start" x="230.5" y="-18" font-family="Helvetica,sans-Serif" font-size="10.00">Ra::Engine::RenderObject</text>
<text text-anchor="middle" x="288" y="-7" font-family="Helvetica,sans-Serif" font-size="10.00">::setVisible</text>
</a>
</g>
</g>
<!-- Node1&#45;&gt;Node13 -->
<g id="edge16" class="edge"><title>Node1&#45;&gt;Node13</title>
<path fill="none" stroke="midnightblue" d="M99.9393,-138.431C120.448,-111.657 159.843,-65.2015 204,-39 206.993,-37.2239 210.126,-35.5726 213.348,-34.0381"/>
<polygon fill="midnightblue" stroke="midnightblue" points="214.841,-37.2056 222.623,-30.016 212.056,-30.7834 214.841,-37.2056"/>
</g>
<!-- Node4 -->
<g id="node4" class="node"><title>Node4</title>
<g id="a_node4"><a xlink:href="classRa_1_1Engine_1_1RenderObject.html#a2d6a1bc2b7646fe0912035a2ece24864" target="_top" xlink:title="Ra::Engine::RenderObject\l::setLocalTransform">
<polygon fill="white" stroke="black" points="409.5,-108 409.5,-138 540.5,-138 540.5,-108 409.5,-108"/>
<text text-anchor="start" x="417.5" y="-126" font-family="Helvetica,sans-Serif" font-size="10.00">Ra::Engine::RenderObject</text>
<text text-anchor="middle" x="475" y="-115" font-family="Helvetica,sans-Serif" font-size="10.00">::setLocalTransform</text>
</a>
</g>
</g>
<!-- Node3&#45;&gt;Node4 -->
<g id="edge3" class="edge"><title>Node3&#45;&gt;Node4</title>
<path fill="none" stroke="midnightblue" d="M371.76,-126.316C380.917,-126.019 390.203,-125.718 399.253,-125.424"/>
<polygon fill="midnightblue" stroke="midnightblue" points="399.47,-128.919 409.351,-125.097 399.243,-121.923 399.47,-128.919"/>
</g>
<!-- Node5&#45;&gt;Node2 -->
<g id="edge5" class="edge"><title>Node5&#45;&gt;Node2</title>
<path fill="none" stroke="midnightblue" d="M352.404,-209.681C359.146,-212.537 365.798,-215.651 372,-219 389.598,-228.504 390.475,-236.362 408,-246 411.744,-248.059 415.693,-250.021 419.722,-251.874"/>
<polygon fill="midnightblue" stroke="midnightblue" points="418.64,-255.221 429.207,-255.996 421.43,-248.8 418.64,-255.221"/>
</g>
<!-- Node6 -->
<g id="node6" class="node"><title>Node6</title>
<g id="a_node6"><a xlink:href="classRa_1_1Engine_1_1RenderObjectManager.html#a32bd0db0d9620bb7e3f0fe50b541dae3" target="_top" xlink:title="Returns the render object corresponding to the given index. ">
<polygon fill="white" stroke="black" points="408,-207 408,-237 542,-237 542,-207 408,-207"/>
<text text-anchor="start" x="416" y="-225" font-family="Helvetica,sans-Serif" font-size="10.00">Ra::Engine::RenderObject</text>
<text text-anchor="middle" x="475" y="-214" font-family="Helvetica,sans-Serif" font-size="10.00">Manager::getRenderObject</text>
</a>
</g>
</g>
<!-- Node5&#45;&gt;Node6 -->
<g id="edge6" class="edge"><title>Node5&#45;&gt;Node6</title>
<path fill="none" stroke="midnightblue" d="M371.76,-203.763C380.473,-205.317 389.302,-206.892 397.934,-208.431"/>
<polygon fill="midnightblue" stroke="midnightblue" points="397.498,-211.909 407.958,-210.219 398.728,-205.018 397.498,-211.909"/>
</g>
<!-- Node9 -->
<g id="node9" class="node"><title>Node9</title>
<g id="a_node9"><a xlink:href="namespaceRa_1_1Core.html#af4d19e3d7e24ba7cf24654cee06474b7" target="_top" xlink:title="POINT. ">
<polygon fill="white" stroke="black" points="440.5,-168.5 440.5,-187.5 509.5,-187.5 509.5,-168.5 440.5,-168.5"/>
<text text-anchor="middle" x="475" y="-175.5" font-family="Helvetica,sans-Serif" font-size="10.00">Ra::Core::P</text>
</a>
</g>
</g>
<!-- Node5&#45;&gt;Node9 -->
<g id="edge9" class="edge"><title>Node5&#45;&gt;Node9</title>
<path fill="none" stroke="midnightblue" d="M371.76,-184.079C391.837,-182.885 412.533,-181.655 430.008,-180.616"/>
<polygon fill="midnightblue" stroke="midnightblue" points="430.663,-184.083 440.438,-179.996 430.247,-177.095 430.663,-184.083"/>
</g>
<!-- Node7 -->
<g id="node7" class="node"><title>Node7</title>
<g id="a_node7"><a xlink:href="classRa_1_1Engine_1_1RenderObjectManager.html#a4077b9cf9e1e4d62fd5456386f2d72c8" target="_top" xlink:title="Returns true if the index points to a valid render object. ">
<polygon fill="white" stroke="black" points="578.5,-207 578.5,-237 709.5,-237 709.5,-207 578.5,-207"/>
<text text-anchor="start" x="586.5" y="-225" font-family="Helvetica,sans-Serif" font-size="10.00">Ra::Engine::RenderObject</text>
<text text-anchor="middle" x="644" y="-214" font-family="Helvetica,sans-Serif" font-size="10.00">Manager::exists</text>
</a>
</g>
</g>
<!-- Node6&#45;&gt;Node7 -->
<g id="edge7" class="edge"><title>Node6&#45;&gt;Node7</title>
<path fill="none" stroke="midnightblue" d="M542.003,-222C550.587,-222 559.43,-222 568.145,-222"/>
<polygon fill="midnightblue" stroke="midnightblue" points="568.295,-225.5 578.295,-222 568.295,-218.5 568.295,-225.5"/>
</g>
<!-- Node8 -->
<g id="node8" class="node"><title>Node8</title>
<g id="a_node8"><a xlink:href="classRa_1_1Core_1_1Index.html#a87c70243f30c65c1a24834d1829bda01" target="_top" xlink:title="DESTRUCTOR: Must not be defined, we need it trivial to be constexpr. ">
<polygon fill="white" stroke="black" points="746,-212.5 746,-231.5 868,-231.5 868,-212.5 746,-212.5"/>
<text text-anchor="middle" x="807" y="-219.5" font-family="Helvetica,sans-Serif" font-size="10.00">Ra::Core::Index::isValid</text>
</a>
</g>
</g>
<!-- Node7&#45;&gt;Node8 -->
<g id="edge8" class="edge"><title>Node7&#45;&gt;Node8</title>
<path fill="none" stroke="midnightblue" d="M709.557,-222C718.172,-222 727.04,-222 735.745,-222"/>
<polygon fill="midnightblue" stroke="midnightblue" points="735.865,-225.5 745.865,-222 735.865,-218.5 735.865,-225.5"/>
</g>
<!-- Node10&#45;&gt;Node4 -->
<g id="edge12" class="edge"><title>Node10&#45;&gt;Node4</title>
<path fill="none" stroke="midnightblue" d="M359.468,-89.5691C376.967,-94.6768 395.582,-100.11 412.607,-105.08"/>
<polygon fill="midnightblue" stroke="midnightblue" points="411.846,-108.504 422.426,-107.946 413.807,-101.784 411.846,-108.504"/>
</g>
<!-- Node11 -->
<g id="node11" class="node"><title>Node11</title>
<g id="a_node11"><a xlink:href="classRa_1_1Engine_1_1RenderObject.html#af6b3614bed03854e25328b143343fe1e" target="_top" xlink:title="Ra::Engine::RenderObject\l::getLocalTransform">
<polygon fill="white" stroke="black" points="409.5,-54 409.5,-84 540.5,-84 540.5,-54 409.5,-54"/>
<text text-anchor="start" x="417.5" y="-72" font-family="Helvetica,sans-Serif" font-size="10.00">Ra::Engine::RenderObject</text>
<text text-anchor="middle" x="475" y="-61" font-family="Helvetica,sans-Serif" font-size="10.00">::getLocalTransform</text>
</a>
</g>
</g>
<!-- Node10&#45;&gt;Node11 -->
<g id="edge11" class="edge"><title>Node10&#45;&gt;Node11</title>
<path fill="none" stroke="midnightblue" d="M371.76,-69C380.917,-69 390.203,-69 399.253,-69"/>
<polygon fill="midnightblue" stroke="midnightblue" points="399.351,-72.5001 409.351,-69 399.351,-65.5001 399.351,-72.5001"/>
</g>
<!-- Node12&#45;&gt;Node2 -->
<g id="edge14" class="edge"><title>Node12&#45;&gt;Node2</title>
<path fill="none" stroke="midnightblue" d="M371.76,-258.842C382.367,-260.103 393.146,-261.385 403.532,-262.62"/>
<polygon fill="midnightblue" stroke="midnightblue" points="403.423,-266.132 413.766,-263.837 404.249,-259.181 403.423,-266.132"/>
</g>
<!-- Node12&#45;&gt;Node6 -->
<g id="edge15" class="edge"><title>Node12&#45;&gt;Node6</title>
<path fill="none" stroke="midnightblue" d="M371.76,-236.921C380.473,-235.65 389.302,-234.361 397.934,-233.102"/>
<polygon fill="midnightblue" stroke="midnightblue" points="398.568,-236.546 407.958,-231.639 397.557,-229.62 398.568,-236.546"/>
</g>
</g>
</svg>
