<?xml version="1.0" encoding="UTF-8" standalone="no"?>
<!DOCTYPE svg PUBLIC "-//W3C//DTD SVG 1.1//EN"
 "http://www.w3.org/Graphics/SVG/1.1/DTD/svg11.dtd">
<!-- Generated by graphviz version 2.36.0 (20140111.2315)
 -->
<!-- Title: SkinningPlugin::SkinningComponent::endSkinning Pages: 1 -->
<svg width="582pt" height="169pt"
 viewBox="0.00 0.00 582.00 169.00" xmlns="http://www.w3.org/2000/svg" xmlns:xlink="http://www.w3.org/1999/xlink">
<g id="graph0" class="graph" transform="scale(1 1) rotate(0) translate(4 165)">
<title>SkinningPlugin::SkinningComponent::endSkinning</title>
<polygon fill="white" stroke="none" points="-4,4 -4,-165 578,-165 578,4 -4,4"/>
<!-- Node1 -->
<g id="node1" class="node"><title>Node1</title>
<polygon fill="#bfbfbf" stroke="black" points="0,-49 0,-79 126,-79 126,-49 0,-49"/>
<text text-anchor="start" x="8" y="-67" font-family="Helvetica,sans-Serif" font-size="10.00">SkinningPlugin::Skinning</text>
<text text-anchor="middle" x="63" y="-56" font-family="Helvetica,sans-Serif" font-size="10.00">Component::endSkinning</text>
</g>
<!-- Node2 -->
<g id="node2" class="node"><title>Node2</title>
<g id="a_node2"><a xlink:href="namespaceRa_1_1Core_1_1Geometry.html#a5a28bccc0fb1caa2936a88cea8b3aa52" target="_top" xlink:title="GLOBAL ///. ">
<polygon fill="white" stroke="black" points="170.5,-98 170.5,-128 275.5,-128 275.5,-98 170.5,-98"/>
<text text-anchor="start" x="178.5" y="-116" font-family="Helvetica,sans-Serif" font-size="10.00">Ra::Core::Geometry</text>
<text text-anchor="middle" x="223" y="-105" font-family="Helvetica,sans-Serif" font-size="10.00">::uniformNormal</text>
</a>
</g>
</g>
<!-- Node1&#45;&gt;Node2 -->
<g id="edge1" class="edge"><title>Node1&#45;&gt;Node2</title>
<path fill="none" stroke="midnightblue" d="M112.694,-79.1014C128.839,-84.1083 146.974,-89.7324 163.762,-94.939"/>
<polygon fill="midnightblue" stroke="midnightblue" points="162.878,-98.3292 173.466,-97.9484 164.952,-91.6433 162.878,-98.3292"/>
</g>
<!-- Node7 -->
<g id="node7" class="node"><title>Node7</title>
<g id="a_node7"><a xlink:href="classRa_1_1Core_1_1TriangleMesh.html#a495116f40cfec8bb6504698d786d4b8c" target="_top" xlink:title="Access the vertices positions. ">
<polygon fill="white" stroke="black" points="162.5,-49 162.5,-79 283.5,-79 283.5,-49 162.5,-49"/>
<text text-anchor="start" x="170.5" y="-67" font-family="Helvetica,sans-Serif" font-size="10.00">Ra::Core::TriangleMesh</text>
<text text-anchor="middle" x="223" y="-56" font-family="Helvetica,sans-Serif" font-size="10.00">::vertices</text>
</a>
</g>
</g>
<!-- Node1&#45;&gt;Node7 -->
<g id="edge6" class="edge"><title>Node1&#45;&gt;Node7</title>
<path fill="none" stroke="midnightblue" d="M126.446,-64C134.939,-64 143.7,-64 152.312,-64"/>
<polygon fill="midnightblue" stroke="midnightblue" points="152.327,-67.5001 162.327,-64 152.327,-60.5001 152.327,-67.5001"/>
</g>
<!-- Node9 -->
<g id="node9" class="node"><title>Node9</title>
<g id="a_node9"><a xlink:href="classRa_1_1Core_1_1TriangleMesh.html#a40d31b7b2943947d6eac5d906f0182fd" target="_top" xlink:title="Access the vertices normals. ">
<polygon fill="white" stroke="black" points="162.5,-0 162.5,-30 283.5,-30 283.5,-0 162.5,-0"/>
<text text-anchor="start" x="170.5" y="-18" font-family="Helvetica,sans-Serif" font-size="10.00">Ra::Core::TriangleMesh</text>
<text text-anchor="middle" x="223" y="-7" font-family="Helvetica,sans-Serif" font-size="10.00">::normals</text>
</a>
</g>
</g>
<!-- Node1&#45;&gt;Node9 -->
<g id="edge8" class="edge"><title>Node1&#45;&gt;Node9</title>
<path fill="none" stroke="midnightblue" d="M112.694,-48.8986C128.839,-43.8917 146.974,-38.2676 163.762,-33.061"/>
<polygon fill="midnightblue" stroke="midnightblue" points="164.952,-36.3567 173.466,-30.0516 162.878,-29.6708 164.952,-36.3567"/>
</g>
<!-- Node3 -->
<g id="node3" class="node"><title>Node3</title>
<g id="a_node3"><a xlink:href="namespaceRa_1_1Core.html#a28c10004edc39878acecb94c2ca5b837" target="_top" xlink:title="NORMAL. ">
<polygon fill="white" stroke="black" points="347,-141.5 347,-160.5 417,-160.5 417,-141.5 347,-141.5"/>
<text text-anchor="middle" x="382" y="-148.5" font-family="Helvetica,sans-Serif" font-size="10.00">Ra::Core::N</text>
</a>
</g>
</g>
<!-- Node2&#45;&gt;Node3 -->
<g id="edge2" class="edge"><title>Node2&#45;&gt;Node3</title>
<path fill="none" stroke="midnightblue" d="M275.843,-125.548C295.528,-130.312 317.75,-135.691 336.678,-140.272"/>
<polygon fill="midnightblue" stroke="midnightblue" points="335.988,-143.706 346.531,-142.657 337.635,-136.903 335.988,-143.706"/>
</g>
<!-- Node4 -->
<g id="node4" class="node"><title>Node4</title>
<g id="a_node4"><a xlink:href="namespaceRa_1_1Core_1_1Algorithm.html#aea294cdb6f4f0d85955bdcccb22886ec" target="_top" xlink:title="Ra::Core::Algorithm::t">
<polygon fill="white" stroke="black" points="325.5,-103.5 325.5,-122.5 438.5,-122.5 438.5,-103.5 325.5,-103.5"/>
<text text-anchor="middle" x="382" y="-110.5" font-family="Helvetica,sans-Serif" font-size="10.00">Ra::Core::Algorithm::t</text>
</a>
</g>
</g>
<!-- Node2&#45;&gt;Node4 -->
<g id="edge3" class="edge"><title>Node2&#45;&gt;Node4</title>
<path fill="none" stroke="midnightblue" d="M275.843,-113C288.388,-113 301.963,-113 315.06,-113"/>
<polygon fill="midnightblue" stroke="midnightblue" points="315.432,-116.5 325.432,-113 315.432,-109.5 315.432,-116.5"/>
</g>
<!-- Node5 -->
<g id="node5" class="node"><title>Node5</title>
<g id="a_node5"><a xlink:href="namespaceRa_1_1Core_1_1Geometry.html#a2ce97206423345716bf1b55f60c1c227" target="_top" xlink:title="Ra::Core::Geometry\l::triangleNormal">
<polygon fill="white" stroke="black" points="329.5,-54 329.5,-84 434.5,-84 434.5,-54 329.5,-54"/>
<text text-anchor="start" x="337.5" y="-72" font-family="Helvetica,sans-Serif" font-size="10.00">Ra::Core::Geometry</text>
<text text-anchor="middle" x="382" y="-61" font-family="Helvetica,sans-Serif" font-size="10.00">::triangleNormal</text>
</a>
</g>
</g>
<!-- Node2&#45;&gt;Node5 -->
<g id="edge4" class="edge"><title>Node2&#45;&gt;Node5</title>
<path fill="none" stroke="midnightblue" d="M275.843,-98.4708C289.849,-94.5455 305.14,-90.2602 319.615,-86.2036"/>
<polygon fill="midnightblue" stroke="midnightblue" points="320.795,-89.5077 329.479,-83.4389 318.906,-82.7674 320.795,-89.5077"/>
</g>
<!-- Node6 -->
<g id="node6" class="node"><title>Node6</title>
<g id="a_node6"><a xlink:href="namespaceOpenMesh.html#a71e7f1dd3eac016d2b8245ac408a291c" target="_top" xlink:title="OpenMesh::cross">
<polygon fill="white" stroke="black" points="480,-59.5 480,-78.5 574,-78.5 574,-59.5 480,-59.5"/>
<text text-anchor="middle" x="527" y="-66.5" font-family="Helvetica,sans-Serif" font-size="10.00">OpenMesh::cross</text>
</a>
</g>
</g>
<!-- Node5&#45;&gt;Node6 -->
<g id="edge5" class="edge"><title>Node5&#45;&gt;Node6</title>
<path fill="none" stroke="midnightblue" d="M434.626,-69C445.896,-69 457.882,-69 469.337,-69"/>
<polygon fill="midnightblue" stroke="midnightblue" points="469.671,-72.5001 479.671,-69 469.671,-65.5001 469.671,-72.5001"/>
</g>
<!-- Node8 -->
<g id="node8" class="node"><title>Node8</title>
<g id="a_node8"><a xlink:href="classRa_1_1Core_1_1AttribManager.html#aaa6088620425c1e1d74b50f1b50eb596" target="_top" xlink:title="Get attribute by handle. ">
<polygon fill="white" stroke="black" points="320.5,-3 320.5,-33 443.5,-33 443.5,-3 320.5,-3"/>
<text text-anchor="start" x="328.5" y="-21" font-family="Helvetica,sans-Serif" font-size="10.00">Ra::Core::AttribManager</text>
<text text-anchor="middle" x="382" y="-10" font-family="Helvetica,sans-Serif" font-size="10.00">::getAttrib</text>
</a>
</g>
</g>
<!-- Node7&#45;&gt;Node8 -->
<g id="edge7" class="edge"><title>Node7&#45;&gt;Node8</title>
<path fill="none" stroke="midnightblue" d="M275.408,-48.9379C289.577,-44.7865 305.088,-40.2418 319.754,-35.9448"/>
<polygon fill="midnightblue" stroke="midnightblue" points="321.133,-39.188 329.745,-33.0174 319.164,-32.4704 321.133,-39.188"/>
</g>
<!-- Node9&#45;&gt;Node8 -->
<g id="edge9" class="edge"><title>Node9&#45;&gt;Node8</title>
<path fill="none" stroke="midnightblue" d="M283.803,-16.1427C292.398,-16.307 301.311,-16.4773 310.096,-16.6451"/>
<polygon fill="midnightblue" stroke="midnightblue" points="310.257,-20.1488 320.323,-16.8406 310.391,-13.1501 310.257,-20.1488"/>
</g>
</g>
</svg>
