<?xml version="1.0" encoding="UTF-8" standalone="no"?>
<!DOCTYPE svg PUBLIC "-//W3C//DTD SVG 1.1//EN"
 "http://www.w3.org/Graphics/SVG/1.1/DTD/svg11.dtd">
<!-- Generated by graphviz version 2.36.0 (20140111.2315)
 -->
<!-- Title: Ra::IO::AssimpGeometryDataLoader::loadData Pages: 1 -->
<svg width="894pt" height="878pt"
 viewBox="0.00 0.00 894.00 878.00" xmlns="http://www.w3.org/2000/svg" xmlns:xlink="http://www.w3.org/1999/xlink">
<g id="graph0" class="graph" transform="scale(1 1) rotate(0) translate(4 874)">
<title>Ra::IO::AssimpGeometryDataLoader::loadData</title>
<polygon fill="white" stroke="none" points="-4,4 -4,-874 890,-874 890,4 -4,4"/>
<!-- Node1 -->
<g id="node1" class="node"><title>Node1</title>
<polygon fill="#bfbfbf" stroke="black" points="0.5,-334 0.5,-364 149.5,-364 149.5,-334 0.5,-334"/>
<text text-anchor="start" x="8.5" y="-352" font-family="Helvetica,sans-Serif" font-size="10.00">Ra::IO::AssimpGeometryData</text>
<text text-anchor="middle" x="75" y="-341" font-family="Helvetica,sans-Serif" font-size="10.00">Loader::loadData</text>
</g>
<!-- Node2 -->
<g id="node2" class="node"><title>Node2</title>
<g id="a_node2"><a xlink:href="classRa_1_1IO_1_1AssimpGeometryDataLoader.html#a34824214a7bca1f664b3cce7fdef3e0d" target="_top" xlink:title="QUERY. ">
<polygon fill="white" stroke="black" points="186.5,-221 186.5,-251 335.5,-251 335.5,-221 186.5,-221"/>
<text text-anchor="start" x="194.5" y="-239" font-family="Helvetica,sans-Serif" font-size="10.00">Ra::IO::AssimpGeometryData</text>
<text text-anchor="middle" x="261" y="-228" font-family="Helvetica,sans-Serif" font-size="10.00">Loader::sceneHasGeometry</text>
</a>
</g>
</g>
<!-- Node1&#45;&gt;Node2 -->
<g id="edge1" class="edge"><title>Node1&#45;&gt;Node2</title>
<path fill="none" stroke="midnightblue" d="M100.434,-333.994C132.877,-314.07 190.304,-278.803 226.695,-256.454"/>
<polygon fill="midnightblue" stroke="midnightblue" points="228.775,-259.283 235.465,-251.068 225.112,-253.318 228.775,-259.283"/>
</g>
<!-- Node5 -->
<g id="node5" class="node"><title>Node5</title>
<g id="a_node5"><a xlink:href="classRa_1_1IO_1_1AssimpGeometryDataLoader.html#a6405375dbe603f1a5866140c3ebefd75" target="_top" xlink:title="LOADING. ">
<polygon fill="white" stroke="black" points="186.5,-391 186.5,-421 335.5,-421 335.5,-391 186.5,-391"/>
<text text-anchor="start" x="194.5" y="-409" font-family="Helvetica,sans-Serif" font-size="10.00">Ra::IO::AssimpGeometryData</text>
<text text-anchor="middle" x="261" y="-398" font-family="Helvetica,sans-Serif" font-size="10.00">Loader::loadGeometryData</text>
</a>
</g>
</g>
<!-- Node1&#45;&gt;Node5 -->
<g id="edge4" class="edge"><title>Node1&#45;&gt;Node5</title>
<path fill="none" stroke="midnightblue" d="M124.826,-364.125C148.417,-371.434 176.907,-380.259 201.637,-387.92"/>
<polygon fill="midnightblue" stroke="midnightblue" points="200.678,-391.287 211.266,-390.903 202.749,-384.601 200.678,-391.287"/>
</g>
<!-- Node3 -->
<g id="node3" class="node"><title>Node3</title>
<g id="a_node3"><a xlink:href="classRa_1_1IO_1_1AssimpGeometryDataLoader.html#aa36139f3ab669179345ac2fe95793348" target="_top" xlink:title="Ra::IO::AssimpGeometryData\lLoader::sceneGeometrySize">
<polygon fill="white" stroke="black" points="372.5,-164 372.5,-194 521.5,-194 521.5,-164 372.5,-164"/>
<text text-anchor="start" x="380.5" y="-182" font-family="Helvetica,sans-Serif" font-size="10.00">Ra::IO::AssimpGeometryData</text>
<text text-anchor="middle" x="447" y="-171" font-family="Helvetica,sans-Serif" font-size="10.00">Loader::sceneGeometrySize</text>
</a>
</g>
</g>
<!-- Node2&#45;&gt;Node3 -->
<g id="edge2" class="edge"><title>Node2&#45;&gt;Node3</title>
<path fill="none" stroke="midnightblue" d="M310.826,-220.875C334.417,-213.566 362.907,-204.741 387.637,-197.08"/>
<polygon fill="midnightblue" stroke="midnightblue" points="388.749,-200.399 397.266,-194.097 386.678,-193.713 388.749,-200.399"/>
</g>
<!-- Node4 -->
<g id="node4" class="node"><title>Node4</title>
<g id="a_node4"><a xlink:href="namespaceRa_1_1Core.html#abc0a3625137098b67838fe52edd480f9" target="_top" xlink:title="SIZE. ">
<polygon fill="white" stroke="black" points="780,-284.5 780,-303.5 860,-303.5 860,-284.5 780,-284.5"/>
<text text-anchor="middle" x="820" y="-291.5" font-family="Helvetica,sans-Serif" font-size="10.00">Ra::Core::size</text>
</a>
</g>
</g>
<!-- Node3&#45;&gt;Node4 -->
<g id="edge3" class="edge"><title>Node3&#45;&gt;Node4</title>
<path fill="none" stroke="midnightblue" d="M521.516,-187.158C589.739,-195.746 685.494,-210.697 718,-230 739.725,-242.901 733.03,-259.905 754,-274 758.959,-277.333 764.498,-280.13 770.193,-282.473"/>
<polygon fill="midnightblue" stroke="midnightblue" points="769.258,-285.857 779.851,-286 771.659,-279.282 769.258,-285.857"/>
</g>
<!-- Node5&#45;&gt;Node4 -->
<g id="edge5" class="edge"><title>Node5&#45;&gt;Node4</title>
<path fill="none" stroke="midnightblue" d="M284.094,-390.951C331.608,-359.606 448.125,-288.15 558,-263 627.318,-247.133 647.676,-252.451 718,-263 718.409,-263.061 750.521,-272.926 778.424,-281.51"/>
<polygon fill="midnightblue" stroke="midnightblue" points="777.473,-284.879 788.06,-284.474 779.531,-278.188 777.473,-284.879"/>
</g>
<!-- Node6 -->
<g id="node6" class="node"><title>Node6</title>
<g id="a_node6"><a xlink:href="classRa_1_1Asset_1_1GeometryData.html#a1757358fc134d3fd1bdc6f67516accb8" target="_top" xlink:title="Ra::Asset::GeometryData\l::setLoadDuplicates">
<polygon fill="white" stroke="black" points="381.5,-213 381.5,-243 512.5,-243 512.5,-213 381.5,-213"/>
<text text-anchor="start" x="389.5" y="-231" font-family="Helvetica,sans-Serif" font-size="10.00">Ra::Asset::GeometryData</text>
<text text-anchor="middle" x="447" y="-220" font-family="Helvetica,sans-Serif" font-size="10.00">::setLoadDuplicates</text>
</a>
</g>
</g>
<!-- Node5&#45;&gt;Node6 -->
<g id="edge6" class="edge"><title>Node5&#45;&gt;Node6</title>
<path fill="none" stroke="midnightblue" d="M269.587,-390.849C285.034,-361.4 322.875,-296 372,-258 377.037,-254.104 382.649,-250.64 388.468,-247.578"/>
<polygon fill="midnightblue" stroke="midnightblue" points="390.253,-250.603 397.728,-243.095 387.203,-244.302 390.253,-250.603"/>
</g>
<!-- Node7 -->
<g id="node7" class="node"><title>Node7</title>
<g id="a_node7"><a xlink:href="classRa_1_1IO_1_1AssimpGeometryDataLoader.html#afcf02a4baea0060c81f9fde8ca6a070b" target="_top" xlink:title="Ra::IO::AssimpGeometryData\lLoader::loadMeshData">
<polygon fill="white" stroke="black" points="372.5,-391 372.5,-421 521.5,-421 521.5,-391 372.5,-391"/>
<text text-anchor="start" x="380.5" y="-409" font-family="Helvetica,sans-Serif" font-size="10.00">Ra::IO::AssimpGeometryData</text>
<text text-anchor="middle" x="447" y="-398" font-family="Helvetica,sans-Serif" font-size="10.00">Loader::loadMeshData</text>
</a>
</g>
</g>
<!-- Node5&#45;&gt;Node7 -->
<g id="edge7" class="edge"><title>Node5&#45;&gt;Node7</title>
<path fill="none" stroke="midnightblue" d="M335.515,-406C344.315,-406 353.351,-406 362.281,-406"/>
<polygon fill="midnightblue" stroke="midnightblue" points="362.302,-409.5 372.302,-406 362.302,-402.5 362.302,-409.5"/>
</g>
<!-- Node35 -->
<g id="node35" class="node"><title>Node35</title>
<g id="a_node35"><a xlink:href="classRa_1_1IO_1_1AssimpGeometryDataLoader.html#ab38389f07aecc7c690d899fbafe8082e" target="_top" xlink:title="MATERIAL. ">
<polygon fill="white" stroke="black" points="372.5,-600 372.5,-630 521.5,-630 521.5,-600 372.5,-600"/>
<text text-anchor="start" x="380.5" y="-618" font-family="Helvetica,sans-Serif" font-size="10.00">Ra::IO::AssimpGeometryData</text>
<text text-anchor="middle" x="447" y="-607" font-family="Helvetica,sans-Serif" font-size="10.00">Loader::loadMaterial</text>
</a>
</g>
</g>
<!-- Node5&#45;&gt;Node35 -->
<g id="edge54" class="edge"><title>Node5&#45;&gt;Node35</title>
<path fill="none" stroke="midnightblue" d="M272.376,-421.35C290.943,-448.365 331.688,-505.649 372,-549 386.738,-564.849 404.847,-581.048 419.462,-593.432"/>
<polygon fill="midnightblue" stroke="midnightblue" points="417.264,-596.156 427.178,-599.893 421.758,-590.789 417.264,-596.156"/>
</g>
<!-- Node37 -->
<g id="node37" class="node"><title>Node37</title>
<g id="a_node37"><a xlink:href="classRa_1_1Asset_1_1GeometryData.html#a7c2ca971fb4250bb0e2cb85c482806ec" target="_top" xlink:title="DEBUG. ">
<polygon fill="white" stroke="black" points="381.5,-440 381.5,-470 512.5,-470 512.5,-440 381.5,-440"/>
<text text-anchor="start" x="389.5" y="-458" font-family="Helvetica,sans-Serif" font-size="10.00">Ra::Asset::GeometryData</text>
<text text-anchor="middle" x="447" y="-447" font-family="Helvetica,sans-Serif" font-size="10.00">::displayInfo</text>
</a>
</g>
</g>
<!-- Node5&#45;&gt;Node37 -->
<g id="edge57" class="edge"><title>Node5&#45;&gt;Node37</title>
<path fill="none" stroke="midnightblue" d="M318.457,-421.035C337.884,-426.208 359.811,-432.048 379.935,-437.407"/>
<polygon fill="midnightblue" stroke="midnightblue" points="379.086,-440.803 389.65,-439.994 380.888,-434.038 379.086,-440.803"/>
</g>
<!-- Node38 -->
<g id="node38" class="node"><title>Node38</title>
<g id="a_node38"><a xlink:href="classRa_1_1IO_1_1AssimpGeometryDataLoader.html#a79e957b025386a0d911e985e53136d71" target="_top" xlink:title="Ra::IO::AssimpGeometryData\lLoader::loadMeshFrame">
<polygon fill="white" stroke="black" points="372.5,-510 372.5,-540 521.5,-540 521.5,-510 372.5,-510"/>
<text text-anchor="start" x="380.5" y="-528" font-family="Helvetica,sans-Serif" font-size="10.00">Ra::IO::AssimpGeometryData</text>
<text text-anchor="middle" x="447" y="-517" font-family="Helvetica,sans-Serif" font-size="10.00">Loader::loadMeshFrame</text>
</a>
</g>
</g>
<!-- Node5&#45;&gt;Node38 -->
<g id="edge58" class="edge"><title>Node5&#45;&gt;Node38</title>
<path fill="none" stroke="midnightblue" d="M284.204,-421.016C306.332,-435.913 341.339,-459.303 372,-479 385.109,-487.422 399.648,-496.513 412.345,-504.372"/>
<polygon fill="midnightblue" stroke="midnightblue" points="410.87,-507.574 421.218,-509.849 414.547,-501.618 410.87,-507.574"/>
</g>
<!-- Node8 -->
<g id="node8" class="node"><title>Node8</title>
<g id="a_node8"><a xlink:href="classRa_1_1IO_1_1AssimpGeometryDataLoader.html#a52df2ebcfac6c77d72d725f6833bccc8" target="_top" xlink:title="NAME. ">
<polygon fill="white" stroke="black" points="563.5,-791 563.5,-821 712.5,-821 712.5,-791 563.5,-791"/>
<text text-anchor="start" x="571.5" y="-809" font-family="Helvetica,sans-Serif" font-size="10.00">Ra::IO::AssimpGeometryData</text>
<text text-anchor="middle" x="638" y="-798" font-family="Helvetica,sans-Serif" font-size="10.00">Loader::fetchName</text>
</a>
</g>
</g>
<!-- Node7&#45;&gt;Node8 -->
<g id="edge8" class="edge"><title>Node7&#45;&gt;Node8</title>
<path fill="none" stroke="midnightblue" d="M512.251,-421.015C515.89,-423.562 519.199,-426.534 522,-430 620.569,-551.968 458.997,-659.384 558,-781 558.965,-782.185 559.986,-783.315 561.057,-784.393"/>
<polygon fill="midnightblue" stroke="midnightblue" points="558.836,-787.098 568.777,-790.763 563.291,-781.699 558.836,-787.098"/>
</g>
<!-- Node11 -->
<g id="node11" class="node"><title>Node11</title>
<g id="a_node11"><a xlink:href="classRa_1_1IO_1_1AssimpGeometryDataLoader.html#a0da619e2173b7a422405fd1d2767af42" target="_top" xlink:title="TYPE. ">
<polygon fill="white" stroke="black" points="563.5,-742 563.5,-772 712.5,-772 712.5,-742 563.5,-742"/>
<text text-anchor="start" x="571.5" y="-760" font-family="Helvetica,sans-Serif" font-size="10.00">Ra::IO::AssimpGeometryData</text>
<text text-anchor="middle" x="638" y="-749" font-family="Helvetica,sans-Serif" font-size="10.00">Loader::fetchType</text>
</a>
</g>
</g>
<!-- Node7&#45;&gt;Node11 -->
<g id="edge11" class="edge"><title>Node7&#45;&gt;Node11</title>
<path fill="none" stroke="midnightblue" d="M512.186,-421.068C515.84,-423.602 519.17,-426.557 522,-430 607.824,-534.431 471.804,-627.876 558,-732 559.003,-733.212 560.065,-734.366 561.179,-735.465"/>
<polygon fill="midnightblue" stroke="midnightblue" points="559.225,-738.386 569.205,-741.945 563.623,-732.94 559.225,-738.386"/>
</g>
<!-- Node13 -->
<g id="node13" class="node"><title>Node13</title>
<g id="a_node13"><a xlink:href="classRa_1_1IO_1_1AssimpGeometryDataLoader.html#ad369689491711d63ac789df228f4db94" target="_top" xlink:title="VERTEX. ">
<polygon fill="white" stroke="black" points="563.5,-147 563.5,-177 712.5,-177 712.5,-147 563.5,-147"/>
<text text-anchor="start" x="571.5" y="-165" font-family="Helvetica,sans-Serif" font-size="10.00">Ra::IO::AssimpGeometryData</text>
<text text-anchor="middle" x="638" y="-154" font-family="Helvetica,sans-Serif" font-size="10.00">Loader::fetchVertices</text>
</a>
</g>
</g>
<!-- Node7&#45;&gt;Node13 -->
<g id="edge13" class="edge"><title>Node7&#45;&gt;Node13</title>
<path fill="none" stroke="midnightblue" d="M459.521,-390.94C479.503,-364.839 521.909,-309.528 558,-263 578.773,-236.219 602.78,-205.569 618.827,-185.125"/>
<polygon fill="midnightblue" stroke="midnightblue" points="621.761,-187.055 625.184,-177.029 616.255,-182.732 621.761,-187.055"/>
</g>
<!-- Node18 -->
<g id="node18" class="node"><title>Node18</title>
<g id="a_node18"><a xlink:href="classRa_1_1Asset_1_1GeometryData.html#aedb628595b4768888ea0c02c37242ef7" target="_top" xlink:title="Ra::Asset::GeometryData\l::isLineMesh">
<polygon fill="white" stroke="black" points="572.5,-420 572.5,-450 703.5,-450 703.5,-420 572.5,-420"/>
<text text-anchor="start" x="580.5" y="-438" font-family="Helvetica,sans-Serif" font-size="10.00">Ra::Asset::GeometryData</text>
<text text-anchor="middle" x="638" y="-427" font-family="Helvetica,sans-Serif" font-size="10.00">::isLineMesh</text>
</a>
</g>
</g>
<!-- Node7&#45;&gt;Node18 -->
<g id="edge20" class="edge"><title>Node7&#45;&gt;Node18</title>
<path fill="none" stroke="midnightblue" d="M521.614,-417.295C534.994,-419.348 548.962,-421.492 562.372,-423.549"/>
<polygon fill="midnightblue" stroke="midnightblue" points="562.083,-427.046 572.498,-425.103 563.144,-420.127 562.083,-427.046"/>
</g>
<!-- Node19 -->
<g id="node19" class="node"><title>Node19</title>
<g id="a_node19"><a xlink:href="classRa_1_1IO_1_1AssimpGeometryDataLoader.html#ae1a8d24d2eff35f746cfdb4c5dbb740f" target="_top" xlink:title="EDGE. ">
<polygon fill="white" stroke="black" points="563.5,-49 563.5,-79 712.5,-79 712.5,-49 563.5,-49"/>
<text text-anchor="start" x="571.5" y="-67" font-family="Helvetica,sans-Serif" font-size="10.00">Ra::IO::AssimpGeometryData</text>
<text text-anchor="middle" x="638" y="-56" font-family="Helvetica,sans-Serif" font-size="10.00">Loader::fetchEdges</text>
</a>
</g>
</g>
<!-- Node7&#45;&gt;Node19 -->
<g id="edge21" class="edge"><title>Node7&#45;&gt;Node19</title>
<path fill="none" stroke="midnightblue" d="M456.798,-390.767C472.101,-363.682 503.727,-305.001 522,-252 546.324,-181.451 507.354,-142.806 558,-88 558.778,-87.1578 559.585,-86.3448 560.418,-85.56"/>
<polygon fill="midnightblue" stroke="midnightblue" points="562.806,-88.1367 568.545,-79.2311 558.505,-82.6138 562.806,-88.1367"/>
</g>
<!-- Node21 -->
<g id="node21" class="node"><title>Node21</title>
<g id="a_node21"><a xlink:href="classRa_1_1IO_1_1AssimpGeometryDataLoader.html#a7f554a1a591245ed063fdb5539e4669e" target="_top" xlink:title="FACE. ">
<polygon fill="white" stroke="black" points="563.5,-98 563.5,-128 712.5,-128 712.5,-98 563.5,-98"/>
<text text-anchor="start" x="571.5" y="-116" font-family="Helvetica,sans-Serif" font-size="10.00">Ra::IO::AssimpGeometryData</text>
<text text-anchor="middle" x="638" y="-105" font-family="Helvetica,sans-Serif" font-size="10.00">Loader::fetchFaces</text>
</a>
</g>
</g>
<!-- Node7&#45;&gt;Node21 -->
<g id="edge27" class="edge"><title>Node7&#45;&gt;Node21</title>
<path fill="none" stroke="midnightblue" d="M456.326,-390.593C470.899,-363.238 501.431,-304.153 522,-252 541.649,-202.178 519.97,-174.71 558,-137 559.081,-135.928 560.209,-134.903 561.378,-133.924"/>
<polygon fill="midnightblue" stroke="midnightblue" points="563.471,-136.73 569.618,-128.101 559.431,-131.014 563.471,-136.73"/>
</g>
<!-- Node23 -->
<g id="node23" class="node"><title>Node23</title>
<g id="a_node23"><a xlink:href="classRa_1_1Asset_1_1GeometryData.html#a2f6d8fbb107960e57e1986447cdff885" target="_top" xlink:title="Ra::Asset::GeometryData\l::isTetraMesh">
<polygon fill="white" stroke="black" points="572.5,-371 572.5,-401 703.5,-401 703.5,-371 572.5,-371"/>
<text text-anchor="start" x="580.5" y="-389" font-family="Helvetica,sans-Serif" font-size="10.00">Ra::Asset::GeometryData</text>
<text text-anchor="middle" x="638" y="-378" font-family="Helvetica,sans-Serif" font-size="10.00">::isTetraMesh</text>
</a>
</g>
</g>
<!-- Node7&#45;&gt;Node23 -->
<g id="edge33" class="edge"><title>Node7&#45;&gt;Node23</title>
<path fill="none" stroke="midnightblue" d="M521.614,-398.21C534.994,-396.794 548.962,-395.316 562.372,-393.897"/>
<polygon fill="midnightblue" stroke="midnightblue" points="562.922,-397.359 572.498,-392.826 562.185,-390.397 562.922,-397.359"/>
</g>
<!-- Node24 -->
<g id="node24" class="node"><title>Node24</title>
<g id="a_node24"><a xlink:href="classRa_1_1Asset_1_1GeometryData.html#acd7a4eb5fa51846e16a49d08a704a92d" target="_top" xlink:title="Ra::Asset::GeometryData\l::isHexMesh">
<polygon fill="white" stroke="black" points="572.5,-322 572.5,-352 703.5,-352 703.5,-322 572.5,-322"/>
<text text-anchor="start" x="580.5" y="-340" font-family="Helvetica,sans-Serif" font-size="10.00">Ra::Asset::GeometryData</text>
<text text-anchor="middle" x="638" y="-329" font-family="Helvetica,sans-Serif" font-size="10.00">::isHexMesh</text>
</a>
</g>
</g>
<!-- Node7&#45;&gt;Node24 -->
<g id="edge34" class="edge"><title>Node7&#45;&gt;Node24</title>
<path fill="none" stroke="midnightblue" d="M482.36,-390.977C503.894,-381.804 532.338,-370.125 558,-361 563.537,-359.031 569.327,-357.077 575.147,-355.184"/>
<polygon fill="midnightblue" stroke="midnightblue" points="576.467,-358.437 584.93,-352.064 574.339,-351.768 576.467,-358.437"/>
</g>
<!-- Node25 -->
<g id="node25" class="node"><title>Node25</title>
<g id="a_node25"><a xlink:href="classRa_1_1IO_1_1AssimpGeometryDataLoader.html#a93585196c7817640e31447e229d83c6c" target="_top" xlink:title="POLYHEDRON. ">
<polygon fill="white" stroke="black" points="563.5,-273 563.5,-303 712.5,-303 712.5,-273 563.5,-273"/>
<text text-anchor="start" x="571.5" y="-291" font-family="Helvetica,sans-Serif" font-size="10.00">Ra::IO::AssimpGeometryData</text>
<text text-anchor="middle" x="638" y="-280" font-family="Helvetica,sans-Serif" font-size="10.00">Loader::fetchPolyhedron</text>
</a>
</g>
</g>
<!-- Node7&#45;&gt;Node25 -->
<g id="edge35" class="edge"><title>Node7&#45;&gt;Node25</title>
<path fill="none" stroke="midnightblue" d="M461.819,-390.771C481.346,-370.117 519.002,-333.357 558,-312 561.273,-310.208 564.697,-308.532 568.207,-306.967"/>
<polygon fill="midnightblue" stroke="midnightblue" points="569.741,-310.121 577.658,-303.081 567.079,-303.647 569.741,-310.121"/>
</g>
<!-- Node26 -->
<g id="node26" class="node"><title>Node26</title>
<g id="a_node26"><a xlink:href="classRa_1_1IO_1_1AssimpGeometryDataLoader.html#a104cc1f1ccf9e9ba3c11f506e8b4947e" target="_top" xlink:title="NORMAL. ">
<polygon fill="white" stroke="black" points="563.5,-644 563.5,-674 712.5,-674 712.5,-644 563.5,-644"/>
<text text-anchor="start" x="571.5" y="-662" font-family="Helvetica,sans-Serif" font-size="10.00">Ra::IO::AssimpGeometryData</text>
<text text-anchor="middle" x="638" y="-651" font-family="Helvetica,sans-Serif" font-size="10.00">Loader::fetchNormals</text>
</a>
</g>
</g>
<!-- Node7&#45;&gt;Node26 -->
<g id="edge36" class="edge"><title>Node7&#45;&gt;Node26</title>
<path fill="none" stroke="midnightblue" d="M510.896,-421.165C514.955,-423.673 518.721,-426.596 522,-430 562.702,-472.253 531.555,-504.63 558,-557 573.085,-586.874 597.473,-616.622 615.165,-636.215"/>
<polygon fill="midnightblue" stroke="midnightblue" points="612.71,-638.716 622.055,-643.708 617.863,-633.978 612.71,-638.716"/>
</g>
<!-- Node29 -->
<g id="node29" class="node"><title>Node29</title>
<g id="a_node29"><a xlink:href="classRa_1_1IO_1_1AssimpGeometryDataLoader.html#a394b1ea37658c2e6c0150c987c6e4b9f" target="_top" xlink:title="TANGENT. ">
<polygon fill="white" stroke="black" points="563.5,-518 563.5,-548 712.5,-548 712.5,-518 563.5,-518"/>
<text text-anchor="start" x="571.5" y="-536" font-family="Helvetica,sans-Serif" font-size="10.00">Ra::IO::AssimpGeometryData</text>
<text text-anchor="middle" x="638" y="-525" font-family="Helvetica,sans-Serif" font-size="10.00">Loader::fetchTangents</text>
</a>
</g>
</g>
<!-- Node7&#45;&gt;Node29 -->
<g id="edge41" class="edge"><title>Node7&#45;&gt;Node29</title>
<path fill="none" stroke="midnightblue" d="M509.243,-421.158C513.833,-423.668 518.162,-426.593 522,-430 550.553,-455.348 529.357,-482.754 558,-508 559.936,-509.706 561.988,-511.296 564.131,-512.777"/>
<polygon fill="midnightblue" stroke="midnightblue" points="562.416,-515.83 572.793,-517.971 566.016,-509.827 562.416,-515.83"/>
</g>
<!-- Node31 -->
<g id="node31" class="node"><title>Node31</title>
<g id="a_node31"><a xlink:href="classRa_1_1IO_1_1AssimpGeometryDataLoader.html#a438274cd5cf254ab710431b59ddd3396" target="_top" xlink:title="BITANGENT. ">
<polygon fill="white" stroke="black" points="563.5,-469 563.5,-499 712.5,-499 712.5,-469 563.5,-469"/>
<text text-anchor="start" x="571.5" y="-487" font-family="Helvetica,sans-Serif" font-size="10.00">Ra::IO::AssimpGeometryData</text>
<text text-anchor="middle" x="638" y="-476" font-family="Helvetica,sans-Serif" font-size="10.00">Loader::fetchBitangents</text>
</a>
</g>
</g>
<!-- Node7&#45;&gt;Node31 -->
<g id="edge45" class="edge"><title>Node7&#45;&gt;Node31</title>
<path fill="none" stroke="midnightblue" d="M502.313,-421.066C509.102,-423.684 515.823,-426.658 522,-430 540.071,-439.776 539.894,-449.289 558,-459 562.031,-461.162 566.279,-463.173 570.629,-465.036"/>
<polygon fill="midnightblue" stroke="midnightblue" points="569.683,-468.427 580.268,-468.882 572.277,-461.925 569.683,-468.427"/>
</g>
<!-- Node33 -->
<g id="node33" class="node"><title>Node33</title>
<g id="a_node33"><a xlink:href="classRa_1_1IO_1_1AssimpGeometryDataLoader.html#afaae07a29263cd344435571cc964dac2" target="_top" xlink:title="TEXTURE COORDINATE. ">
<polygon fill="white" stroke="black" points="558.5,-693 558.5,-723 717.5,-723 717.5,-693 558.5,-693"/>
<text text-anchor="start" x="566.5" y="-711" font-family="Helvetica,sans-Serif" font-size="10.00">Ra::IO::AssimpGeometryData</text>
<text text-anchor="middle" x="638" y="-700" font-family="Helvetica,sans-Serif" font-size="10.00">Loader::fetchTextureCoordinates</text>
</a>
</g>
</g>
<!-- Node7&#45;&gt;Node33 -->
<g id="edge49" class="edge"><title>Node7&#45;&gt;Node33</title>
<path fill="none" stroke="midnightblue" d="M512.098,-421.142C515.772,-423.659 519.131,-426.589 522,-430 595.104,-516.923 484.586,-596.339 558,-683 559.017,-684.201 560.091,-685.344 561.216,-686.433"/>
<polygon fill="midnightblue" stroke="midnightblue" points="559.297,-689.379 569.303,-692.863 563.654,-683.9 559.297,-689.379"/>
</g>
<!-- Node9 -->
<g id="node9" class="node"><title>Node9</title>
<g id="a_node9"><a xlink:href="namespaceRa_1_1IO.html#aef6c50424873964fcea0008be55d4a34" target="_top" xlink:title="Ra::IO::assimpToCore">
<polygon fill="white" stroke="black" points="762,-561.5 762,-580.5 878,-580.5 878,-561.5 762,-561.5"/>
<text text-anchor="middle" x="820" y="-568.5" font-family="Helvetica,sans-Serif" font-size="10.00">Ra::IO::assimpToCore</text>
</a>
</g>
</g>
<!-- Node8&#45;&gt;Node9 -->
<g id="edge9" class="edge"><title>Node8&#45;&gt;Node9</title>
<path fill="none" stroke="midnightblue" d="M706.141,-790.93C710.533,-788.155 714.565,-784.875 718,-781 775.304,-716.359 695.986,-654.004 754,-590 755.194,-588.682 756.474,-587.454 757.826,-586.31"/>
<polygon fill="midnightblue" stroke="midnightblue" points="759.918,-589.12 766.248,-580.624 756.002,-583.318 759.918,-589.12"/>
</g>
<!-- Node10 -->
<g id="node10" class="node"><title>Node10</title>
<g id="a_node10"><a xlink:href="classRa_1_1Asset_1_1GeometryData.html#a243148184c6a5c3aeba47951f75fc73c" target="_top" xlink:title="NAME. ">
<polygon fill="white" stroke="black" points="754.5,-796 754.5,-826 885.5,-826 885.5,-796 754.5,-796"/>
<text text-anchor="start" x="762.5" y="-814" font-family="Helvetica,sans-Serif" font-size="10.00">Ra::Asset::GeometryData</text>
<text text-anchor="middle" x="820" y="-803" font-family="Helvetica,sans-Serif" font-size="10.00">::setName</text>
</a>
</g>
</g>
<!-- Node8&#45;&gt;Node10 -->
<g id="edge10" class="edge"><title>Node8&#45;&gt;Node10</title>
<path fill="none" stroke="midnightblue" d="M712.732,-808.048C723.072,-808.335 733.708,-808.631 744.07,-808.919"/>
<polygon fill="midnightblue" stroke="midnightblue" points="744.226,-812.424 754.32,-809.203 744.421,-805.427 744.226,-812.424"/>
</g>
<!-- Node12 -->
<g id="node12" class="node"><title>Node12</title>
<g id="a_node12"><a xlink:href="classRa_1_1Asset_1_1GeometryData.html#a23f044c78e92cc740444a06ab9690e3b" target="_top" xlink:title="Ra::Asset::GeometryData\l::setType">
<polygon fill="white" stroke="black" points="754.5,-747 754.5,-777 885.5,-777 885.5,-747 754.5,-747"/>
<text text-anchor="start" x="762.5" y="-765" font-family="Helvetica,sans-Serif" font-size="10.00">Ra::Asset::GeometryData</text>
<text text-anchor="middle" x="820" y="-754" font-family="Helvetica,sans-Serif" font-size="10.00">::setType</text>
</a>
</g>
</g>
<!-- Node11&#45;&gt;Node12 -->
<g id="edge12" class="edge"><title>Node11&#45;&gt;Node12</title>
<path fill="none" stroke="midnightblue" d="M712.732,-759.048C723.072,-759.335 733.708,-759.631 744.07,-759.919"/>
<polygon fill="midnightblue" stroke="midnightblue" points="744.226,-763.424 754.32,-760.203 744.421,-756.427 744.226,-763.424"/>
</g>
<!-- Node13&#45;&gt;Node4 -->
<g id="edge14" class="edge"><title>Node13&#45;&gt;Node4</title>
<path fill="none" stroke="midnightblue" d="M695.795,-177.164C703.891,-181.066 711.62,-185.936 718,-192 746.849,-219.421 724.282,-247.522 754,-274 758.744,-278.227 764.365,-281.56 770.286,-284.189"/>
<polygon fill="midnightblue" stroke="midnightblue" points="769.161,-287.506 779.753,-287.767 771.637,-280.958 769.161,-287.506"/>
</g>
<!-- Node13&#45;&gt;Node9 -->
<g id="edge17" class="edge"><title>Node13&#45;&gt;Node9</title>
<path fill="none" stroke="midnightblue" d="M655.166,-177.03C673.753,-195.372 703.555,-228.262 718,-263 767.528,-382.109 671.064,-452.199 754,-551 755.48,-552.763 757.112,-554.374 758.864,-555.845"/>
<polygon fill="midnightblue" stroke="midnightblue" points="756.959,-558.782 767.215,-561.442 760.857,-552.967 756.959,-558.782"/>
</g>
<!-- Node14 -->
<g id="node14" class="node"><title>Node14</title>
<g id="a_node14"><a xlink:href="classRa_1_1Asset_1_1GeometryData.html#a20394106458e5e8deade13af0bec3ebb" target="_top" xlink:title="Ra::Asset::GeometryData\l::getVertices">
<polygon fill="white" stroke="black" points="754.5,-235 754.5,-265 885.5,-265 885.5,-235 754.5,-235"/>
<text text-anchor="start" x="762.5" y="-253" font-family="Helvetica,sans-Serif" font-size="10.00">Ra::Asset::GeometryData</text>
<text text-anchor="middle" x="820" y="-242" font-family="Helvetica,sans-Serif" font-size="10.00">::getVertices</text>
</a>
</g>
</g>
<!-- Node13&#45;&gt;Node14 -->
<g id="edge15" class="edge"><title>Node13&#45;&gt;Node14</title>
<path fill="none" stroke="midnightblue" d="M687.584,-177.125C697.975,-181.26 708.634,-186.226 718,-192 736.476,-203.39 735.548,-213.571 754,-225 757.167,-226.962 760.513,-228.813 763.95,-230.553"/>
<polygon fill="midnightblue" stroke="midnightblue" points="762.657,-233.812 773.196,-234.895 765.633,-227.476 762.657,-233.812"/>
</g>
<!-- Node15 -->
<g id="node15" class="node"><title>Node15</title>
<g id="a_node15"><a xlink:href="classRa_1_1Asset_1_1GeometryData.html#ad917f1a50860ee72fa2aa8f0d557c8c5" target="_top" xlink:title="DUPLICATES. ">
<polygon fill="white" stroke="black" points="754.5,-147 754.5,-177 885.5,-177 885.5,-147 754.5,-147"/>
<text text-anchor="start" x="762.5" y="-165" font-family="Helvetica,sans-Serif" font-size="10.00">Ra::Asset::GeometryData</text>
<text text-anchor="middle" x="820" y="-154" font-family="Helvetica,sans-Serif" font-size="10.00">::getDuplicateTable</text>
</a>
</g>
</g>
<!-- Node13&#45;&gt;Node15 -->
<g id="edge16" class="edge"><title>Node13&#45;&gt;Node15</title>
<path fill="none" stroke="midnightblue" d="M712.732,-162C723.072,-162 733.708,-162 744.07,-162"/>
<polygon fill="midnightblue" stroke="midnightblue" points="744.32,-165.5 754.32,-162 744.32,-158.5 744.32,-165.5"/>
</g>
<!-- Node16 -->
<g id="node16" class="node"><title>Node16</title>
<g id="a_node16"><a xlink:href="namespaceRa_1_1Core_1_1Algorithm.html#aea294cdb6f4f0d85955bdcccb22886ec" target="_top" xlink:title="Ra::Core::Algorithm::t">
<polygon fill="white" stroke="black" points="763.5,-196.5 763.5,-215.5 876.5,-215.5 876.5,-196.5 763.5,-196.5"/>
<text text-anchor="middle" x="820" y="-203.5" font-family="Helvetica,sans-Serif" font-size="10.00">Ra::Core::Algorithm::t</text>
</a>
</g>
</g>
<!-- Node13&#45;&gt;Node16 -->
<g id="edge18" class="edge"><title>Node13&#45;&gt;Node16</title>
<path fill="none" stroke="midnightblue" d="M700.442,-177.019C723.214,-182.586 748.706,-188.817 770.201,-194.071"/>
<polygon fill="midnightblue" stroke="midnightblue" points="769.54,-197.513 780.086,-196.488 771.203,-190.713 769.54,-197.513"/>
</g>
<!-- Node17 -->
<g id="node17" class="node"><title>Node17</title>
<g id="a_node17"><a xlink:href="classRa_1_1Asset_1_1GeometryData.html#ae7f137aae9b6723ff6b0fc7125b0fd35" target="_top" xlink:title="Ra::Asset::GeometryData\l::isLoadingDuplicates">
<polygon fill="white" stroke="black" points="754.5,-49 754.5,-79 885.5,-79 885.5,-49 754.5,-49"/>
<text text-anchor="start" x="762.5" y="-67" font-family="Helvetica,sans-Serif" font-size="10.00">Ra::Asset::GeometryData</text>
<text text-anchor="middle" x="820" y="-56" font-family="Helvetica,sans-Serif" font-size="10.00">::isLoadingDuplicates</text>
</a>
</g>
</g>
<!-- Node13&#45;&gt;Node17 -->
<g id="edge19" class="edge"><title>Node13&#45;&gt;Node17</title>
<path fill="none" stroke="midnightblue" d="M700.406,-146.913C706.625,-144.131 712.621,-140.855 718,-137 739.965,-121.258 732.413,-104.256 754,-88 755.835,-86.6183 757.758,-85.3093 759.745,-84.0696"/>
<polygon fill="midnightblue" stroke="midnightblue" points="761.737,-86.9676 768.799,-79.0696 758.353,-80.8399 761.737,-86.9676"/>
</g>
<!-- Node19&#45;&gt;Node4 -->
<g id="edge22" class="edge"><title>Node19&#45;&gt;Node4</title>
<path fill="none" stroke="midnightblue" d="M707.552,-79.1426C711.392,-81.6623 714.929,-84.5927 718,-88 774.372,-150.546 697.74,-211.354 754,-274 758.401,-278.9 763.969,-282.614 769.989,-285.427"/>
<polygon fill="midnightblue" stroke="midnightblue" points="769.124,-288.843 779.715,-289.145 771.624,-282.305 769.124,-288.843"/>
</g>
<!-- Node19&#45;&gt;Node9 -->
<g id="edge24" class="edge"><title>Node19&#45;&gt;Node9</title>
<path fill="none" stroke="midnightblue" d="M708.356,-79.0011C711.95,-81.5584 715.217,-84.5356 718,-88 782.628,-168.457 689.515,-470.428 754,-551 755.3,-552.625 756.73,-554.12 758.264,-555.497"/>
<polygon fill="midnightblue" stroke="midnightblue" points="756.51,-558.543 766.702,-561.438 760.54,-552.819 756.51,-558.543"/>
</g>
<!-- Node19&#45;&gt;Node15 -->
<g id="edge26" class="edge"><title>Node19&#45;&gt;Node15</title>
<path fill="none" stroke="midnightblue" d="M702.42,-79.1647C707.917,-81.6804 713.203,-84.6042 718,-88 740.056,-103.615 732.523,-120.599 754,-137 756.42,-138.848 758.994,-140.575 761.666,-142.186"/>
<polygon fill="midnightblue" stroke="midnightblue" points="760.013,-145.271 770.475,-146.945 763.341,-139.112 760.013,-145.271"/>
</g>
<!-- Node19&#45;&gt;Node17 -->
<g id="edge25" class="edge"><title>Node19&#45;&gt;Node17</title>
<path fill="none" stroke="midnightblue" d="M712.732,-64C723.072,-64 733.708,-64 744.07,-64"/>
<polygon fill="midnightblue" stroke="midnightblue" points="744.32,-67.5001 754.32,-64 744.32,-60.5001 744.32,-67.5001"/>
</g>
<!-- Node20 -->
<g id="node20" class="node"><title>Node20</title>
<g id="a_node20"><a xlink:href="classRa_1_1Asset_1_1GeometryData.html#abe4083fd2256390f3d90734cc9003599" target="_top" xlink:title="Ra::Asset::GeometryData\l::getEdges">
<polygon fill="white" stroke="black" points="754.5,-0 754.5,-30 885.5,-30 885.5,-0 754.5,-0"/>
<text text-anchor="start" x="762.5" y="-18" font-family="Helvetica,sans-Serif" font-size="10.00">Ra::Asset::GeometryData</text>
<text text-anchor="middle" x="820" y="-7" font-family="Helvetica,sans-Serif" font-size="10.00">::getEdges</text>
</a>
</g>
</g>
<!-- Node19&#45;&gt;Node20 -->
<g id="edge23" class="edge"><title>Node19&#45;&gt;Node20</title>
<path fill="none" stroke="midnightblue" d="M694.475,-48.8986C713.297,-43.7747 734.494,-38.0044 753.991,-32.6968"/>
<polygon fill="midnightblue" stroke="midnightblue" points="754.979,-36.0554 763.708,-30.0516 753.14,-29.3012 754.979,-36.0554"/>
</g>
<!-- Node21&#45;&gt;Node4 -->
<g id="edge28" class="edge"><title>Node21&#45;&gt;Node4</title>
<path fill="none" stroke="midnightblue" d="M706.932,-128.149C710.972,-130.664 714.719,-133.592 718,-137 761.663,-182.354 710.417,-228.569 754,-274 758.506,-278.697 764.085,-282.298 770.066,-285.058"/>
<polygon fill="midnightblue" stroke="midnightblue" points="769.11,-288.439 779.7,-288.739 771.608,-281.9 769.11,-288.439"/>
</g>
<!-- Node21&#45;&gt;Node9 -->
<g id="edge30" class="edge"><title>Node21&#45;&gt;Node9</title>
<path fill="none" stroke="midnightblue" d="M708.32,-128.031C711.922,-130.581 715.201,-133.548 718,-137 776.16,-208.731 695.967,-479.165 754,-551 755.308,-552.619 756.743,-554.109 758.283,-555.482"/>
<polygon fill="midnightblue" stroke="midnightblue" points="756.543,-558.536 766.741,-561.406 760.559,-552.802 756.543,-558.536"/>
</g>
<!-- Node21&#45;&gt;Node15 -->
<g id="edge32" class="edge"><title>Node21&#45;&gt;Node15</title>
<path fill="none" stroke="midnightblue" d="M694.475,-128.101C713.297,-133.225 734.494,-138.996 753.991,-144.303"/>
<polygon fill="midnightblue" stroke="midnightblue" points="753.14,-147.699 763.708,-146.948 754.979,-140.945 753.14,-147.699"/>
</g>
<!-- Node21&#45;&gt;Node17 -->
<g id="edge31" class="edge"><title>Node21&#45;&gt;Node17</title>
<path fill="none" stroke="midnightblue" d="M694.475,-97.8986C713.297,-92.7747 734.494,-87.0044 753.991,-81.6968"/>
<polygon fill="midnightblue" stroke="midnightblue" points="754.979,-85.0554 763.708,-79.0516 753.14,-78.3012 754.979,-85.0554"/>
</g>
<!-- Node22 -->
<g id="node22" class="node"><title>Node22</title>
<g id="a_node22"><a xlink:href="classRa_1_1Asset_1_1GeometryData.html#acdad9f2b09a7d942db229ace49a4fea0" target="_top" xlink:title="Ra::Asset::GeometryData\l::getFaces">
<polygon fill="white" stroke="black" points="754.5,-98 754.5,-128 885.5,-128 885.5,-98 754.5,-98"/>
<text text-anchor="start" x="762.5" y="-116" font-family="Helvetica,sans-Serif" font-size="10.00">Ra::Asset::GeometryData</text>
<text text-anchor="middle" x="820" y="-105" font-family="Helvetica,sans-Serif" font-size="10.00">::getFaces</text>
</a>
</g>
</g>
<!-- Node21&#45;&gt;Node22 -->
<g id="edge29" class="edge"><title>Node21&#45;&gt;Node22</title>
<path fill="none" stroke="midnightblue" d="M712.732,-113C723.072,-113 733.708,-113 744.07,-113"/>
<polygon fill="midnightblue" stroke="midnightblue" points="744.32,-116.5 754.32,-113 744.32,-109.5 744.32,-116.5"/>
</g>
<!-- Node26&#45;&gt;Node9 -->
<g id="edge40" class="edge"><title>Node26&#45;&gt;Node9</title>
<path fill="none" stroke="midnightblue" d="M689.203,-643.949C699.169,-639.873 709.247,-634.913 718,-629 737.546,-615.795 733.95,-602.428 754,-590 757.388,-587.9 761.019,-586.023 764.769,-584.346"/>
<polygon fill="midnightblue" stroke="midnightblue" points="766.26,-587.52 774.265,-580.58 763.679,-581.013 766.26,-587.52"/>
</g>
<!-- Node26&#45;&gt;Node15 -->
<g id="edge39" class="edge"><title>Node26&#45;&gt;Node15</title>
<path fill="none" stroke="midnightblue" d="M655.33,-643.856C674.076,-625.364 704.03,-592.181 718,-557 748.488,-480.221 703.985,-252.75 754,-187 754.824,-185.917 755.7,-184.882 756.624,-183.891"/>
<polygon fill="midnightblue" stroke="midnightblue" points="759.194,-186.298 764.518,-177.139 754.644,-180.979 759.194,-186.298"/>
</g>
<!-- Node27 -->
<g id="node27" class="node"><title>Node27</title>
<g id="a_node27"><a xlink:href="classRa_1_1Asset_1_1GeometryData.html#a3b706a2f7490107865f20c4cb71c5777" target="_top" xlink:title="Ra::Asset::GeometryData\l::getNormals">
<polygon fill="white" stroke="black" points="754.5,-600 754.5,-630 885.5,-630 885.5,-600 754.5,-600"/>
<text text-anchor="start" x="762.5" y="-618" font-family="Helvetica,sans-Serif" font-size="10.00">Ra::Asset::GeometryData</text>
<text text-anchor="middle" x="820" y="-607" font-family="Helvetica,sans-Serif" font-size="10.00">::getNormals</text>
</a>
</g>
</g>
<!-- Node26&#45;&gt;Node27 -->
<g id="edge37" class="edge"><title>Node26&#45;&gt;Node27</title>
<path fill="none" stroke="midnightblue" d="M700.442,-643.981C715.564,-640.284 731.885,-636.295 747.439,-632.493"/>
<polygon fill="midnightblue" stroke="midnightblue" points="748.646,-635.801 757.529,-630.026 746.984,-629.001 748.646,-635.801"/>
</g>
<!-- Node28 -->
<g id="node28" class="node"><title>Node28</title>
<g id="a_node28"><a xlink:href="classRa_1_1Asset_1_1GeometryData.html#ad31c0f120d5e88c40afefa79c29ae28a" target="_top" xlink:title="DATA. ">
<polygon fill="white" stroke="black" points="754.5,-649 754.5,-679 885.5,-679 885.5,-649 754.5,-649"/>
<text text-anchor="start" x="762.5" y="-667" font-family="Helvetica,sans-Serif" font-size="10.00">Ra::Asset::GeometryData</text>
<text text-anchor="middle" x="820" y="-656" font-family="Helvetica,sans-Serif" font-size="10.00">::getVerticesSize</text>
</a>
</g>
</g>
<!-- Node26&#45;&gt;Node28 -->
<g id="edge38" class="edge"><title>Node26&#45;&gt;Node28</title>
<path fill="none" stroke="midnightblue" d="M712.732,-661.048C723.072,-661.335 733.708,-661.631 744.07,-661.919"/>
<polygon fill="midnightblue" stroke="midnightblue" points="744.226,-665.424 754.32,-662.203 744.421,-658.427 744.226,-665.424"/>
</g>
<!-- Node29&#45;&gt;Node4 -->
<g id="edge42" class="edge"><title>Node29&#45;&gt;Node4</title>
<path fill="none" stroke="midnightblue" d="M703.172,-517.93C708.513,-515.16 713.559,-511.881 718,-508 734.029,-493.993 790.305,-362.399 811.153,-312.796"/>
<polygon fill="midnightblue" stroke="midnightblue" points="814.4,-314.103 815.037,-303.528 807.944,-311.398 814.4,-314.103"/>
</g>
<!-- Node29&#45;&gt;Node9 -->
<g id="edge44" class="edge"><title>Node29&#45;&gt;Node9</title>
<path fill="none" stroke="midnightblue" d="M710.141,-548.019C727.963,-551.781 746.817,-555.761 763.737,-559.333"/>
<polygon fill="midnightblue" stroke="midnightblue" points="763.488,-562.858 773.996,-561.499 764.934,-556.009 763.488,-562.858"/>
</g>
<!-- Node30 -->
<g id="node30" class="node"><title>Node30</title>
<g id="a_node30"><a xlink:href="classRa_1_1Asset_1_1GeometryData.html#a5090ec004b5ff8a9c0de0da4c049a5bc" target="_top" xlink:title="Ra::Asset::GeometryData\l::getTangents">
<polygon fill="white" stroke="black" points="754.5,-512 754.5,-542 885.5,-542 885.5,-512 754.5,-512"/>
<text text-anchor="start" x="762.5" y="-530" font-family="Helvetica,sans-Serif" font-size="10.00">Ra::Asset::GeometryData</text>
<text text-anchor="middle" x="820" y="-519" font-family="Helvetica,sans-Serif" font-size="10.00">::getTangents</text>
</a>
</g>
</g>
<!-- Node29&#45;&gt;Node30 -->
<g id="edge43" class="edge"><title>Node29&#45;&gt;Node30</title>
<path fill="none" stroke="midnightblue" d="M712.732,-530.542C723.072,-530.198 733.708,-529.843 744.07,-529.498"/>
<polygon fill="midnightblue" stroke="midnightblue" points="744.442,-532.987 754.32,-529.156 744.209,-525.991 744.442,-532.987"/>
</g>
<!-- Node31&#45;&gt;Node4 -->
<g id="edge46" class="edge"><title>Node31&#45;&gt;Node4</title>
<path fill="none" stroke="midnightblue" d="M701.545,-468.987C707.41,-466.199 713.015,-462.901 718,-459 768.122,-419.778 799.381,-348.217 812.24,-313.681"/>
<polygon fill="midnightblue" stroke="midnightblue" points="815.682,-314.452 815.769,-303.858 809.094,-312.085 815.682,-314.452"/>
</g>
<!-- Node31&#45;&gt;Node9 -->
<g id="edge48" class="edge"><title>Node31&#45;&gt;Node9</title>
<path fill="none" stroke="midnightblue" d="M701.385,-499.134C707.216,-501.665 712.859,-504.6 718,-508 738.789,-521.75 733.236,-537.213 754,-551 757.753,-553.492 761.831,-555.685 766.055,-557.614"/>
<polygon fill="midnightblue" stroke="midnightblue" points="764.879,-560.914 775.461,-561.426 767.508,-554.426 764.879,-560.914"/>
</g>
<!-- Node32 -->
<g id="node32" class="node"><title>Node32</title>
<g id="a_node32"><a xlink:href="classRa_1_1Asset_1_1GeometryData.html#a863b5b343ec5ea7af019eebbf859b7eb" target="_top" xlink:title="Ra::Asset::GeometryData\l::getBiTangents">
<polygon fill="white" stroke="black" points="754.5,-463 754.5,-493 885.5,-493 885.5,-463 754.5,-463"/>
<text text-anchor="start" x="762.5" y="-481" font-family="Helvetica,sans-Serif" font-size="10.00">Ra::Asset::GeometryData</text>
<text text-anchor="middle" x="820" y="-470" font-family="Helvetica,sans-Serif" font-size="10.00">::getBiTangents</text>
</a>
</g>
</g>
<!-- Node31&#45;&gt;Node32 -->
<g id="edge47" class="edge"><title>Node31&#45;&gt;Node32</title>
<path fill="none" stroke="midnightblue" d="M712.732,-481.542C723.072,-481.198 733.708,-480.843 744.07,-480.498"/>
<polygon fill="midnightblue" stroke="midnightblue" points="744.442,-483.987 754.32,-480.156 744.209,-476.991 744.442,-483.987"/>
</g>
<!-- Node33&#45;&gt;Node4 -->
<g id="edge50" class="edge"><title>Node33&#45;&gt;Node4</title>
<path fill="none" stroke="midnightblue" d="M706.638,-692.813C710.858,-690.061 714.719,-686.819 718,-683 785.426,-604.52 726.236,-552.672 754,-453 768.603,-400.576 795.415,-342.099 809.61,-312.836"/>
<polygon fill="midnightblue" stroke="midnightblue" points="812.8,-314.281 814.065,-303.762 806.516,-311.196 812.8,-314.281"/>
</g>
<!-- Node33&#45;&gt;Node9 -->
<g id="edge53" class="edge"><title>Node33&#45;&gt;Node9</title>
<path fill="none" stroke="midnightblue" d="M704.242,-692.842C709.233,-690.091 713.91,-686.841 718,-683 750.31,-652.66 721.357,-619.981 754,-590 755.724,-588.417 757.572,-586.965 759.516,-585.634"/>
<polygon fill="midnightblue" stroke="midnightblue" points="761.565,-588.496 768.555,-580.534 758.125,-582.4 761.565,-588.496"/>
</g>
<!-- Node33&#45;&gt;Node28 -->
<g id="edge52" class="edge"><title>Node33&#45;&gt;Node28</title>
<path fill="none" stroke="midnightblue" d="M700.442,-692.981C715.564,-689.284 731.885,-685.295 747.439,-681.493"/>
<polygon fill="midnightblue" stroke="midnightblue" points="748.646,-684.801 757.529,-679.026 746.984,-678.001 748.646,-684.801"/>
</g>
<!-- Node34 -->
<g id="node34" class="node"><title>Node34</title>
<g id="a_node34"><a xlink:href="classRa_1_1Asset_1_1GeometryData.html#a55dc4072ed4026280b5e124f35d5b550" target="_top" xlink:title="Ra::Asset::GeometryData\l::getTexCoords">
<polygon fill="white" stroke="black" points="754.5,-698 754.5,-728 885.5,-728 885.5,-698 754.5,-698"/>
<text text-anchor="start" x="762.5" y="-716" font-family="Helvetica,sans-Serif" font-size="10.00">Ra::Asset::GeometryData</text>
<text text-anchor="middle" x="820" y="-705" font-family="Helvetica,sans-Serif" font-size="10.00">::getTexCoords</text>
</a>
</g>
</g>
<!-- Node33&#45;&gt;Node34 -->
<g id="edge51" class="edge"><title>Node33&#45;&gt;Node34</title>
<path fill="none" stroke="midnightblue" d="M717.689,-710.186C726.46,-710.429 735.377,-710.677 744.099,-710.919"/>
<polygon fill="midnightblue" stroke="midnightblue" points="744.135,-714.422 754.228,-711.201 744.329,-707.424 744.135,-714.422"/>
</g>
<!-- Node35&#45;&gt;Node9 -->
<g id="edge55" class="edge"><title>Node35&#45;&gt;Node9</title>
<path fill="none" stroke="midnightblue" d="M521.586,-610.59C576.011,-606.811 651.848,-600.462 718,-591 733.677,-588.758 750.599,-585.672 766.028,-582.595"/>
<polygon fill="midnightblue" stroke="midnightblue" points="766.82,-586.006 775.922,-580.584 765.426,-579.146 766.82,-586.006"/>
</g>
<!-- Node36 -->
<g id="node36" class="node"><title>Node36</title>
<g id="a_node36"><a xlink:href="classRa_1_1Asset_1_1GeometryData.html#af8f718a90d8d778e362e1ac6733f9670" target="_top" xlink:title="Ra::Asset::GeometryData\l::setMaterial">
<polygon fill="white" stroke="black" points="572.5,-840 572.5,-870 703.5,-870 703.5,-840 572.5,-840"/>
<text text-anchor="start" x="580.5" y="-858" font-family="Helvetica,sans-Serif" font-size="10.00">Ra::Asset::GeometryData</text>
<text text-anchor="middle" x="638" y="-847" font-family="Helvetica,sans-Serif" font-size="10.00">::setMaterial</text>
</a>
</g>
</g>
<!-- Node35&#45;&gt;Node36 -->
<g id="edge56" class="edge"><title>Node35&#45;&gt;Node36</title>
<path fill="none" stroke="midnightblue" d="M451.403,-630.017C461.015,-668.991 492.061,-774.213 558,-830 560.018,-831.707 562.153,-833.298 564.379,-834.781"/>
<polygon fill="midnightblue" stroke="midnightblue" points="562.944,-837.995 573.351,-839.979 566.453,-831.938 562.944,-837.995"/>
</g>
<!-- Node38&#45;&gt;Node9 -->
<g id="edge59" class="edge"><title>Node38&#45;&gt;Node9</title>
<path fill="none" stroke="midnightblue" d="M491.092,-540.025C511.176,-546.381 535.549,-553.184 558,-557 623.112,-568.066 698.552,-571.074 751.529,-571.61"/>
<polygon fill="midnightblue" stroke="midnightblue" points="751.79,-575.112 761.815,-571.686 751.842,-568.112 751.79,-575.112"/>
</g>
</g>
</svg>
