<?xml version="1.0" encoding="UTF-8" standalone="no"?>
<!DOCTYPE svg PUBLIC "-//W3C//DTD SVG 1.1//EN"
 "http://www.w3.org/Graphics/SVG/1.1/DTD/svg11.dtd">
<!-- Generated by graphviz version 2.36.0 (20140111.2315)
 -->
<!-- Title: Ra::Core::TopologicalMesh::TopologicalMesh Pages: 1 -->
<svg width="686pt" height="322pt"
 viewBox="0.00 0.00 686.00 322.00" xmlns="http://www.w3.org/2000/svg" xmlns:xlink="http://www.w3.org/1999/xlink">
<g id="graph0" class="graph" transform="scale(1 1) rotate(0) translate(4 318)">
<title>Ra::Core::TopologicalMesh::TopologicalMesh</title>
<polygon fill="white" stroke="none" points="-4,4 -4,-318 682,-318 682,4 -4,4"/>
<!-- Node1 -->
<g id="node1" class="node"><title>Node1</title>
<polygon fill="#bfbfbf" stroke="black" points="0,-117 0,-147 136,-147 136,-117 0,-117"/>
<text text-anchor="start" x="8" y="-135" font-family="Helvetica,sans-Serif" font-size="10.00">Ra::Core::TopologicalMesh</text>
<text text-anchor="middle" x="68" y="-124" font-family="Helvetica,sans-Serif" font-size="10.00">::TopologicalMesh</text>
</g>
<!-- Node2 -->
<g id="node2" class="node"><title>Node2</title>
<g id="a_node2"><a xlink:href="namespaceRa_1_1Core.html#abb46c5a60ddd6094b40710dcb9e745f5" target="_top" xlink:title="Ra::Core::addAttribPairToTopo">
<polygon fill="white" stroke="black" points="172,-240.5 172,-259.5 324,-259.5 324,-240.5 172,-240.5"/>
<text text-anchor="middle" x="248" y="-247.5" font-family="Helvetica,sans-Serif" font-size="10.00">Ra::Core::addAttribPairToTopo</text>
</a>
</g>
</g>
<!-- Node1&#45;&gt;Node2 -->
<g id="edge1" class="edge"><title>Node1&#45;&gt;Node2</title>
<path fill="none" stroke="midnightblue" d="M85.1906,-147.128C104.726,-164.873 139.065,-194.468 172,-215 184.952,-223.074 200.067,-230.474 213.322,-236.368"/>
<polygon fill="midnightblue" stroke="midnightblue" points="212.019,-239.618 222.586,-240.383 214.802,-233.195 212.019,-239.618"/>
</g>
<!-- Node6 -->
<g id="node6" class="node"><title>Node6</title>
<g id="a_node6"><a xlink:href="classRa_1_1Core_1_1TriangleMesh.html#a495116f40cfec8bb6504698d786d4b8c" target="_top" xlink:title="Access the vertices positions. ">
<polygon fill="white" stroke="black" points="378.5,-186 378.5,-216 499.5,-216 499.5,-186 378.5,-186"/>
<text text-anchor="start" x="386.5" y="-204" font-family="Helvetica,sans-Serif" font-size="10.00">Ra::Core::TriangleMesh</text>
<text text-anchor="middle" x="439" y="-193" font-family="Helvetica,sans-Serif" font-size="10.00">::vertices</text>
</a>
</g>
</g>
<!-- Node1&#45;&gt;Node6 -->
<g id="edge5" class="edge"><title>Node1&#45;&gt;Node6</title>
<path fill="none" stroke="midnightblue" d="M93.816,-147.022C114.08,-158.482 143.866,-173.529 172,-181 236.967,-198.251 313.773,-202.369 368.109,-202.701"/>
<polygon fill="midnightblue" stroke="midnightblue" points="368.319,-206.202 378.326,-202.721 368.332,-199.202 368.319,-206.202"/>
</g>
<!-- Node8 -->
<g id="node8" class="node"><title>Node8</title>
<g id="a_node8"><a xlink:href="classRa_1_1Core_1_1TriangleMesh.html#a40d31b7b2943947d6eac5d906f0182fd" target="_top" xlink:title="Access the vertices normals. ">
<polygon fill="white" stroke="black" points="187.5,-142 187.5,-172 308.5,-172 308.5,-142 187.5,-142"/>
<text text-anchor="start" x="195.5" y="-160" font-family="Helvetica,sans-Serif" font-size="10.00">Ra::Core::TriangleMesh</text>
<text text-anchor="middle" x="248" y="-149" font-family="Helvetica,sans-Serif" font-size="10.00">::normals</text>
</a>
</g>
</g>
<!-- Node1&#45;&gt;Node8 -->
<g id="edge7" class="edge"><title>Node1&#45;&gt;Node8</title>
<path fill="none" stroke="midnightblue" d="M136.041,-141.416C149.47,-143.302 163.61,-145.288 177.132,-147.187"/>
<polygon fill="midnightblue" stroke="midnightblue" points="176.94,-150.694 187.33,-148.619 177.914,-143.762 176.94,-150.694"/>
</g>
<!-- Node9 -->
<g id="node9" class="node"><title>Node9</title>
<g id="a_node9"><a xlink:href="namespaceRa_1_1Engine_1_1DrawPrimitives.html#af1caeccd46d293c8176bee95d5d7df8d" target="_top" xlink:title="Displays a normal vector emanating from the given point as a vector arrow and a normal plane of size ...">
<polygon fill="white" stroke="black" points="179,-93 179,-123 317,-123 317,-93 179,-93"/>
<text text-anchor="start" x="187" y="-111" font-family="Helvetica,sans-Serif" font-size="10.00">Ra::Engine::DrawPrimitives</text>
<text text-anchor="middle" x="248" y="-100" font-family="Helvetica,sans-Serif" font-size="10.00">::Normal</text>
</a>
</g>
</g>
<!-- Node1&#45;&gt;Node9 -->
<g id="edge9" class="edge"><title>Node1&#45;&gt;Node9</title>
<path fill="none" stroke="midnightblue" d="M136.041,-122.961C146.755,-121.516 157.922,-120.011 168.866,-118.535"/>
<polygon fill="midnightblue" stroke="midnightblue" points="169.393,-121.996 178.836,-117.191 168.458,-115.058 169.393,-121.996"/>
</g>
<!-- Node12 -->
<g id="node12" class="node"><title>Node12</title>
<g id="a_node12"><a xlink:href="classRa_1_1Core_1_1TopologicalMesh.html#abe2a6ac857a94f53fa1180c12ce034f8" target="_top" xlink:title="Return the half&#45;edge associated with a given vertex and face. ">
<polygon fill="white" stroke="black" points="180,-44 180,-74 316,-74 316,-44 180,-44"/>
<text text-anchor="start" x="188" y="-62" font-family="Helvetica,sans-Serif" font-size="10.00">Ra::Core::TopologicalMesh</text>
<text text-anchor="middle" x="248" y="-51" font-family="Helvetica,sans-Serif" font-size="10.00">::halfedge_handle</text>
</a>
</g>
</g>
<!-- Node1&#45;&gt;Node12 -->
<g id="edge12" class="edge"><title>Node1&#45;&gt;Node12</title>
<path fill="none" stroke="midnightblue" d="M97.8399,-116.998C118.24,-106.705 146.406,-93.1297 172,-83 176.803,-81.0991 181.821,-79.2366 186.888,-77.4425"/>
<polygon fill="midnightblue" stroke="midnightblue" points="188.328,-80.6483 196.645,-74.0846 186.05,-74.0293 188.328,-80.6483"/>
</g>
<!-- Node13 -->
<g id="node13" class="node"><title>Node13</title>
<g id="a_node13"><a xlink:href="namespaceRa_1_1Core.html#adb0829c3f7f415ef33cab26b94e21478" target="_top" xlink:title="Ra::Core::copyAttribToTopo">
<polygon fill="white" stroke="black" points="178,-5.5 178,-24.5 318,-24.5 318,-5.5 178,-5.5"/>
<text text-anchor="middle" x="248" y="-12.5" font-family="Helvetica,sans-Serif" font-size="10.00">Ra::Core::copyAttribToTopo</text>
</a>
</g>
</g>
<!-- Node1&#45;&gt;Node13 -->
<g id="edge13" class="edge"><title>Node1&#45;&gt;Node13</title>
<path fill="none" stroke="midnightblue" d="M80.559,-116.893C97.9829,-95.1967 133.102,-55.4686 172,-34 176.189,-31.6877 180.665,-29.6511 185.267,-27.8581"/>
<polygon fill="midnightblue" stroke="midnightblue" points="186.554,-31.116 194.837,-24.5097 184.242,-24.5087 186.554,-31.116"/>
</g>
<!-- Node3 -->
<g id="node3" class="node"><title>Node3</title>
<g id="a_node3"><a xlink:href="classRa_1_1Core_1_1TriangleMesh.html#a2050187a77536bb43bfa2e25c25389c6" target="_top" xlink:title="Return the Handle to the attribute with the given name if it exists, an invalid handle otherwise...">
<polygon fill="white" stroke="black" points="378.5,-284 378.5,-314 499.5,-314 499.5,-284 378.5,-284"/>
<text text-anchor="start" x="386.5" y="-302" font-family="Helvetica,sans-Serif" font-size="10.00">Ra::Core::TriangleMesh</text>
<text text-anchor="middle" x="439" y="-291" font-family="Helvetica,sans-Serif" font-size="10.00">::getAttribHandle</text>
</a>
</g>
</g>
<!-- Node2&#45;&gt;Node3 -->
<g id="edge2" class="edge"><title>Node2&#45;&gt;Node3</title>
<path fill="none" stroke="midnightblue" d="M285.89,-259.564C309.818,-265.768 341.715,-274.037 370.118,-281.401"/>
<polygon fill="midnightblue" stroke="midnightblue" points="369.442,-284.841 380,-283.963 371.199,-278.065 369.442,-284.841"/>
</g>
<!-- Node5 -->
<g id="node5" class="node"><title>Node5</title>
<g id="a_node5"><a xlink:href="classRa_1_1Core_1_1AttribBase.html#a8bc2827bfe23f9c6def2647a946ebdc8" target="_top" xlink:title="Ra::Core::AttribBase\l::getName">
<polygon fill="white" stroke="black" points="385,-235 385,-265 493,-265 493,-235 385,-235"/>
<text text-anchor="start" x="393" y="-253" font-family="Helvetica,sans-Serif" font-size="10.00">Ra::Core::AttribBase</text>
<text text-anchor="middle" x="439" y="-242" font-family="Helvetica,sans-Serif" font-size="10.00">::getName</text>
</a>
</g>
</g>
<!-- Node2&#45;&gt;Node5 -->
<g id="edge4" class="edge"><title>Node2&#45;&gt;Node5</title>
<path fill="none" stroke="midnightblue" d="M324.241,-250C340.876,-250 358.343,-250 374.46,-250"/>
<polygon fill="midnightblue" stroke="midnightblue" points="374.833,-253.5 384.833,-250 374.833,-246.5 374.833,-253.5"/>
</g>
<!-- Node4 -->
<g id="node4" class="node"><title>Node4</title>
<g id="a_node4"><a xlink:href="classRa_1_1Core_1_1AttribManager.html#a83cb9e1c9e687d161a3070ffbdf07b22" target="_top" xlink:title="findAttrib Grab an attribute handler by name. ">
<polygon fill="white" stroke="black" points="554.5,-284 554.5,-314 677.5,-314 677.5,-284 554.5,-284"/>
<text text-anchor="start" x="562.5" y="-302" font-family="Helvetica,sans-Serif" font-size="10.00">Ra::Core::AttribManager</text>
<text text-anchor="middle" x="616" y="-291" font-family="Helvetica,sans-Serif" font-size="10.00">::findAttrib</text>
</a>
</g>
</g>
<!-- Node3&#45;&gt;Node4 -->
<g id="edge3" class="edge"><title>Node3&#45;&gt;Node4</title>
<path fill="none" stroke="midnightblue" d="M499.736,-299C514.056,-299 529.483,-299 544.249,-299"/>
<polygon fill="midnightblue" stroke="midnightblue" points="544.344,-302.5 554.344,-299 544.344,-295.5 544.344,-302.5"/>
</g>
<!-- Node7 -->
<g id="node7" class="node"><title>Node7</title>
<g id="a_node7"><a xlink:href="classRa_1_1Core_1_1AttribManager.html#aaa6088620425c1e1d74b50f1b50eb596" target="_top" xlink:title="Get attribute by handle. ">
<polygon fill="white" stroke="black" points="554.5,-142 554.5,-172 677.5,-172 677.5,-142 554.5,-142"/>
<text text-anchor="start" x="562.5" y="-160" font-family="Helvetica,sans-Serif" font-size="10.00">Ra::Core::AttribManager</text>
<text text-anchor="middle" x="616" y="-149" font-family="Helvetica,sans-Serif" font-size="10.00">::getAttrib</text>
</a>
</g>
</g>
<!-- Node6&#45;&gt;Node7 -->
<g id="edge6" class="edge"><title>Node6&#45;&gt;Node7</title>
<path fill="none" stroke="midnightblue" d="M499.736,-185.981C514.437,-182.284 530.305,-178.295 545.427,-174.493"/>
<polygon fill="midnightblue" stroke="midnightblue" points="546.392,-177.859 555.237,-172.026 544.685,-171.07 546.392,-177.859"/>
</g>
<!-- Node8&#45;&gt;Node7 -->
<g id="edge8" class="edge"><title>Node8&#45;&gt;Node7</title>
<path fill="none" stroke="midnightblue" d="M308.619,-157C373.067,-157 475.729,-157 544.224,-157"/>
<polygon fill="midnightblue" stroke="midnightblue" points="544.493,-160.5 554.493,-157 544.493,-153.5 544.493,-160.5"/>
</g>
<!-- Node10 -->
<g id="node10" class="node"><title>Node10</title>
<g id="a_node10"><a xlink:href="namespaceRa_1_1Core_1_1Vector.html#a0464b705193d326a5102691dd58d753d" target="_top" xlink:title="Get two vectors orthogonal to a given vector. ">
<polygon fill="white" stroke="black" points="360,-98 360,-128 518,-128 518,-98 360,-98"/>
<text text-anchor="start" x="368" y="-116" font-family="Helvetica,sans-Serif" font-size="10.00">Ra::Core::Vector::getOrthogonal</text>
<text text-anchor="middle" x="439" y="-105" font-family="Helvetica,sans-Serif" font-size="10.00">Vectors</text>
</a>
</g>
</g>
<!-- Node9&#45;&gt;Node10 -->
<g id="edge10" class="edge"><title>Node9&#45;&gt;Node10</title>
<path fill="none" stroke="midnightblue" d="M317.233,-109.805C327.838,-110.086 338.923,-110.379 349.892,-110.669"/>
<polygon fill="midnightblue" stroke="midnightblue" points="349.827,-114.169 359.916,-110.934 350.012,-107.171 349.827,-114.169"/>
</g>
<!-- Node11 -->
<g id="node11" class="node"><title>Node11</title>
<g id="a_node11"><a xlink:href="namespaceRa_1_1Core_1_1QuaternionUtils.html#ae49b72169aa4a3cb300979b34c6e1289" target="_top" xlink:title="Returns the quaternion q multipled by a scalar factor of k. ">
<polygon fill="white" stroke="black" points="374,-49 374,-79 504,-79 504,-49 374,-49"/>
<text text-anchor="start" x="382" y="-67" font-family="Helvetica,sans-Serif" font-size="10.00">Ra::Core::QuaternionUtils</text>
<text text-anchor="middle" x="439" y="-56" font-family="Helvetica,sans-Serif" font-size="10.00">::scale</text>
</a>
</g>
</g>
<!-- Node9&#45;&gt;Node11 -->
<g id="edge11" class="edge"><title>Node9&#45;&gt;Node11</title>
<path fill="none" stroke="midnightblue" d="M313.514,-92.9808C329.632,-89.2286 347.048,-85.1741 363.601,-81.3205"/>
<polygon fill="midnightblue" stroke="midnightblue" points="364.83,-84.6279 373.776,-78.9516 363.243,-77.8102 364.83,-84.6279"/>
</g>
<!-- Node14 -->
<g id="node14" class="node"><title>Node14</title>
<g id="a_node14"><a xlink:href="classRa_1_1Core_1_1TriangleMesh.html#a01e44dce5a80eae1220d9e7988d4fe03" target="_top" xlink:title="Get attribute by handle. ">
<polygon fill="white" stroke="black" points="378.5,-0 378.5,-30 499.5,-30 499.5,-0 378.5,-0"/>
<text text-anchor="start" x="386.5" y="-18" font-family="Helvetica,sans-Serif" font-size="10.00">Ra::Core::TriangleMesh</text>
<text text-anchor="middle" x="439" y="-7" font-family="Helvetica,sans-Serif" font-size="10.00">::getAttrib</text>
</a>
</g>
</g>
<!-- Node13&#45;&gt;Node14 -->
<g id="edge14" class="edge"><title>Node13&#45;&gt;Node14</title>
<path fill="none" stroke="midnightblue" d="M318.036,-15C334.453,-15 351.978,-15 368.42,-15"/>
<polygon fill="midnightblue" stroke="midnightblue" points="368.497,-18.5001 378.497,-15 368.497,-11.5001 368.497,-18.5001"/>
</g>
<!-- Node14&#45;&gt;Node7 -->
<g id="edge15" class="edge"><title>Node14&#45;&gt;Node7</title>
<path fill="none" stroke="midnightblue" d="M499.615,-29.2847C506.079,-32.002 512.351,-35.2128 518,-39 554.846,-63.7039 584.955,-106.506 601.4,-133.206"/>
<polygon fill="midnightblue" stroke="midnightblue" points="598.486,-135.152 606.635,-141.923 604.487,-131.548 598.486,-135.152"/>
</g>
</g>
</svg>
