<?xml version="1.0" encoding="UTF-8" standalone="no"?>
<!DOCTYPE svg PUBLIC "-//W3C//DTD SVG 1.1//EN"
 "http://www.w3.org/Graphics/SVG/1.1/DTD/svg11.dtd">
<!-- Generated by graphviz version 2.36.0 (20140111.2315)
 -->
<!-- Title: AnimationPlugin::AnimationSystem Pages: 1 -->
<svg width="356pt" height="1528pt"
 viewBox="0.00 0.00 356.00 1528.00" xmlns="http://www.w3.org/2000/svg" xmlns:xlink="http://www.w3.org/1999/xlink">
<g id="graph0" class="graph" transform="scale(1 1) rotate(0) translate(4 1524)">
<title>AnimationPlugin::AnimationSystem</title>
<polygon fill="white" stroke="none" points="-4,4 -4,-1524 352,-1524 352,4 -4,4"/>
<!-- Node1 -->
<g id="node1" class="node"><title>Node1</title>
<polygon fill="#bfbfbf" stroke="black" points="123.5,-0.5 123.5,-299.5 266.5,-299.5 266.5,-0.5 123.5,-0.5"/>
<text text-anchor="start" x="131.5" y="-287.5" font-family="Helvetica,sans-Serif" font-size="10.00">AnimationPlugin::Animation</text>
<text text-anchor="middle" x="195" y="-276.5" font-family="Helvetica,sans-Serif" font-size="10.00">System</text>
<polyline fill="none" stroke="black" points="123.5,-269.5 266.5,-269.5 "/>
<text text-anchor="middle" x="195" y="-257.5" font-family="Helvetica,sans-Serif" font-size="10.00"> </text>
<polyline fill="none" stroke="black" points="123.5,-250.5 266.5,-250.5 "/>
<text text-anchor="start" x="131.5" y="-238.5" font-family="Helvetica,sans-Serif" font-size="10.00">+ AnimationSystem()</text>
<text text-anchor="start" x="131.5" y="-227.5" font-family="Helvetica,sans-Serif" font-size="10.00">+ AnimationSystem()</text>
<text text-anchor="start" x="131.5" y="-216.5" font-family="Helvetica,sans-Serif" font-size="10.00">+ operator=()</text>
<text text-anchor="start" x="131.5" y="-205.5" font-family="Helvetica,sans-Serif" font-size="10.00">+ generateTasks()</text>
<text text-anchor="start" x="131.5" y="-194.5" font-family="Helvetica,sans-Serif" font-size="10.00">+ handleAssetLoading()</text>
<text text-anchor="start" x="131.5" y="-183.5" font-family="Helvetica,sans-Serif" font-size="10.00">+ play()</text>
<text text-anchor="start" x="131.5" y="-172.5" font-family="Helvetica,sans-Serif" font-size="10.00">+ step()</text>
<text text-anchor="start" x="131.5" y="-161.5" font-family="Helvetica,sans-Serif" font-size="10.00">+ reset()</text>
<text text-anchor="start" x="131.5" y="-150.5" font-family="Helvetica,sans-Serif" font-size="10.00">+ cacheFrame()</text>
<text text-anchor="start" x="131.5" y="-139.5" font-family="Helvetica,sans-Serif" font-size="10.00">+ cacheFrame()</text>
<text text-anchor="start" x="131.5" y="-128.5" font-family="Helvetica,sans-Serif" font-size="10.00">+ restoreFrame()</text>
<text text-anchor="start" x="131.5" y="-117.5" font-family="Helvetica,sans-Serif" font-size="10.00">+ setDataDir()</text>
<text text-anchor="start" x="131.5" y="-106.5" font-family="Helvetica,sans-Serif" font-size="10.00">+ setXray()</text>
<text text-anchor="start" x="131.5" y="-95.5" font-family="Helvetica,sans-Serif" font-size="10.00">+ isXrayOn()</text>
<text text-anchor="start" x="131.5" y="-84.5" font-family="Helvetica,sans-Serif" font-size="10.00">+ toggleSkeleton()</text>
<text text-anchor="start" x="131.5" y="-73.5" font-family="Helvetica,sans-Serif" font-size="10.00">+ setAnimation()</text>
<text text-anchor="start" x="131.5" y="-62.5" font-family="Helvetica,sans-Serif" font-size="10.00">+ toggleAnimationTimeStep()</text>
<text text-anchor="start" x="131.5" y="-51.5" font-family="Helvetica,sans-Serif" font-size="10.00">+ setAnimationSpeed()</text>
<text text-anchor="start" x="131.5" y="-40.5" font-family="Helvetica,sans-Serif" font-size="10.00">+ toggleSlowMotion()</text>
<text text-anchor="start" x="131.5" y="-29.5" font-family="Helvetica,sans-Serif" font-size="10.00">+ getTime()</text>
<text text-anchor="start" x="131.5" y="-18.5" font-family="Helvetica,sans-Serif" font-size="10.00">+ getAnimFrame()</text>
<text text-anchor="start" x="131.5" y="-7.5" font-family="Helvetica,sans-Serif" font-size="10.00">+ getMaxFrame()</text>
</g>
<!-- Node2 -->
<g id="node2" class="node"><title>Node2</title>
<g id="a_node2"><a xlink:href="classRa_1_1Engine_1_1CoupledTimedSystem.html" target="_top" xlink:title="{Ra::Engine::CoupledTimed\lSystem\n||+ play()\l+ step()\l+ reset()\l+ cacheFrame()\l+ restoreFrame()\l}">
<polygon fill="white" stroke="black" points="128,-339 128,-451 262,-451 262,-339 128,-339"/>
<text text-anchor="start" x="136" y="-439" font-family="Helvetica,sans-Serif" font-size="10.00">Ra::Engine::CoupledTimed</text>
<text text-anchor="middle" x="195" y="-428" font-family="Helvetica,sans-Serif" font-size="10.00">System</text>
<polyline fill="none" stroke="black" points="128,-421 262,-421 "/>
<text text-anchor="middle" x="195" y="-409" font-family="Helvetica,sans-Serif" font-size="10.00"> </text>
<polyline fill="none" stroke="black" points="128,-402 262,-402 "/>
<text text-anchor="start" x="136" y="-390" font-family="Helvetica,sans-Serif" font-size="10.00">+ play()</text>
<text text-anchor="start" x="136" y="-379" font-family="Helvetica,sans-Serif" font-size="10.00">+ step()</text>
<text text-anchor="start" x="136" y="-368" font-family="Helvetica,sans-Serif" font-size="10.00">+ reset()</text>
<text text-anchor="start" x="136" y="-357" font-family="Helvetica,sans-Serif" font-size="10.00">+ cacheFrame()</text>
<text text-anchor="start" x="136" y="-346" font-family="Helvetica,sans-Serif" font-size="10.00">+ restoreFrame()</text>
</a>
</g>
</g>
<!-- Node2&#45;&gt;Node1 -->
<g id="edge1" class="edge"><title>Node2&#45;&gt;Node1</title>
<path fill="none" stroke="midnightblue" d="M195,-328.715C195,-319.508 195,-309.749 195,-299.729"/>
<polygon fill="none" stroke="midnightblue" points="191.5,-328.86 195,-338.86 198.5,-328.86 191.5,-328.86"/>
</g>
<!-- Node3 -->
<g id="node3" class="node"><title>Node3</title>
<g id="a_node3"><a xlink:href="classRa_1_1Engine_1_1BaseCouplingSystem.html" target="_top" xlink:title="{Ra::Engine::BaseCoupling\lSystem\&lt; AbstractTimedSystem \&gt;\n||+ BaseCouplingSystem()\l+ BaseCouplingSystem()\l+ ~BaseCouplingSystem()\l+ operator=()\l+ addSystem()\l+ generateTasks()\l+ registerComponent()\l+ unregisterComponent()\l+ unregisterAllComponents()\l+ handleAssetLoading()\l# dispatch()\l# dispatch()\l# conditionnaldispatch()\l# conditionnaldispatch()\l}">
<polygon fill="white" stroke="black" points="112,-490.5 112,-701.5 278,-701.5 278,-490.5 112,-490.5"/>
<text text-anchor="start" x="120" y="-689.5" font-family="Helvetica,sans-Serif" font-size="10.00">Ra::Engine::BaseCoupling</text>
<text text-anchor="middle" x="195" y="-678.5" font-family="Helvetica,sans-Serif" font-size="10.00">System&lt; AbstractTimedSystem &gt;</text>
<polyline fill="none" stroke="black" points="112,-671.5 278,-671.5 "/>
<text text-anchor="middle" x="195" y="-659.5" font-family="Helvetica,sans-Serif" font-size="10.00"> </text>
<polyline fill="none" stroke="black" points="112,-652.5 278,-652.5 "/>
<text text-anchor="start" x="120" y="-640.5" font-family="Helvetica,sans-Serif" font-size="10.00">+ BaseCouplingSystem()</text>
<text text-anchor="start" x="120" y="-629.5" font-family="Helvetica,sans-Serif" font-size="10.00">+ BaseCouplingSystem()</text>
<text text-anchor="start" x="120" y="-618.5" font-family="Helvetica,sans-Serif" font-size="10.00">+ ~BaseCouplingSystem()</text>
<text text-anchor="start" x="120" y="-607.5" font-family="Helvetica,sans-Serif" font-size="10.00">+ operator=()</text>
<text text-anchor="start" x="120" y="-596.5" font-family="Helvetica,sans-Serif" font-size="10.00">+ addSystem()</text>
<text text-anchor="start" x="120" y="-585.5" font-family="Helvetica,sans-Serif" font-size="10.00">+ generateTasks()</text>
<text text-anchor="start" x="120" y="-574.5" font-family="Helvetica,sans-Serif" font-size="10.00">+ registerComponent()</text>
<text text-anchor="start" x="120" y="-563.5" font-family="Helvetica,sans-Serif" font-size="10.00">+ unregisterComponent()</text>
<text text-anchor="start" x="120" y="-552.5" font-family="Helvetica,sans-Serif" font-size="10.00">+ unregisterAllComponents()</text>
<text text-anchor="start" x="120" y="-541.5" font-family="Helvetica,sans-Serif" font-size="10.00">+ handleAssetLoading()</text>
<text text-anchor="start" x="120" y="-530.5" font-family="Helvetica,sans-Serif" font-size="10.00"># dispatch()</text>
<text text-anchor="start" x="120" y="-519.5" font-family="Helvetica,sans-Serif" font-size="10.00"># dispatch()</text>
<text text-anchor="start" x="120" y="-508.5" font-family="Helvetica,sans-Serif" font-size="10.00"># conditionnaldispatch()</text>
<text text-anchor="start" x="120" y="-497.5" font-family="Helvetica,sans-Serif" font-size="10.00"># conditionnaldispatch()</text>
</a>
</g>
</g>
<!-- Node3&#45;&gt;Node2 -->
<g id="edge2" class="edge"><title>Node3&#45;&gt;Node2</title>
<path fill="none" stroke="midnightblue" d="M195,-480.182C195,-470.164 195,-460.359 195,-451.185"/>
<polygon fill="none" stroke="midnightblue" points="191.5,-480.255 195,-490.255 198.5,-480.255 191.5,-480.255"/>
</g>
<!-- Node4 -->
<g id="node4" class="node"><title>Node4</title>
<g id="a_node4"><a xlink:href="classRa_1_1Engine_1_1AbstractTimedSystem.html" target="_top" xlink:title="Timed Systems are systems which can be disabled or paused, e.g. animation systems. ">
<polygon fill="white" stroke="black" points="26.5,-789 26.5,-923 161.5,-923 161.5,-789 26.5,-789"/>
<text text-anchor="start" x="34.5" y="-911" font-family="Helvetica,sans-Serif" font-size="10.00">Ra::Engine::AbstractTimed</text>
<text text-anchor="middle" x="94" y="-900" font-family="Helvetica,sans-Serif" font-size="10.00">System</text>
<polyline fill="none" stroke="black" points="26.5,-893 161.5,-893 "/>
<text text-anchor="middle" x="94" y="-881" font-family="Helvetica,sans-Serif" font-size="10.00"> </text>
<polyline fill="none" stroke="black" points="26.5,-874 161.5,-874 "/>
<text text-anchor="start" x="34.5" y="-862" font-family="Helvetica,sans-Serif" font-size="10.00">+ AbstractTimedSystem()</text>
<text text-anchor="start" x="34.5" y="-851" font-family="Helvetica,sans-Serif" font-size="10.00">+ ~AbstractTimedSystem()</text>
<text text-anchor="start" x="34.5" y="-840" font-family="Helvetica,sans-Serif" font-size="10.00">+ play()</text>
<text text-anchor="start" x="34.5" y="-829" font-family="Helvetica,sans-Serif" font-size="10.00">+ step()</text>
<text text-anchor="start" x="34.5" y="-818" font-family="Helvetica,sans-Serif" font-size="10.00">+ reset()</text>
<text text-anchor="start" x="34.5" y="-807" font-family="Helvetica,sans-Serif" font-size="10.00">+ cacheFrame()</text>
<text text-anchor="start" x="34.5" y="-796" font-family="Helvetica,sans-Serif" font-size="10.00">+ restoreFrame()</text>
</a>
</g>
</g>
<!-- Node4&#45;&gt;Node3 -->
<g id="edge3" class="edge"><title>Node4&#45;&gt;Node3</title>
<path fill="none" stroke="midnightblue" d="M123.608,-779.367C133.144,-755.009 143.886,-727.569 154.086,-701.513"/>
<polygon fill="none" stroke="midnightblue" points="120.265,-778.306 119.879,-788.894 126.783,-780.858 120.265,-778.306"/>
</g>
<!-- Node5 -->
<g id="node5" class="node"><title>Node5</title>
<g id="a_node5"><a xlink:href="classRa_1_1Engine_1_1System.html" target="_top" xlink:title="Systems are responsible of updating a specific subset of the components of each entity. ">
<polygon fill="white" stroke="black" points="23.5,-1001 23.5,-1135 164.5,-1135 164.5,-1001 23.5,-1001"/>
<text text-anchor="middle" x="94" y="-1123" font-family="Helvetica,sans-Serif" font-size="10.00">Ra::Engine::System</text>
<polyline fill="none" stroke="black" points="23.5,-1116 164.5,-1116 "/>
<text text-anchor="middle" x="94" y="-1104" font-family="Helvetica,sans-Serif" font-size="10.00"> </text>
<polyline fill="none" stroke="black" points="23.5,-1097 164.5,-1097 "/>
<text text-anchor="start" x="31.5" y="-1085" font-family="Helvetica,sans-Serif" font-size="10.00">+ System()</text>
<text text-anchor="start" x="31.5" y="-1074" font-family="Helvetica,sans-Serif" font-size="10.00">+ ~System()</text>
<text text-anchor="start" x="31.5" y="-1063" font-family="Helvetica,sans-Serif" font-size="10.00">+ generateTasks()</text>
<text text-anchor="start" x="31.5" y="-1052" font-family="Helvetica,sans-Serif" font-size="10.00">+ registerComponent()</text>
<text text-anchor="start" x="31.5" y="-1041" font-family="Helvetica,sans-Serif" font-size="10.00">+ unregisterComponent()</text>
<text text-anchor="start" x="31.5" y="-1030" font-family="Helvetica,sans-Serif" font-size="10.00">+ unregisterAllComponents()</text>
<text text-anchor="start" x="31.5" y="-1019" font-family="Helvetica,sans-Serif" font-size="10.00">+ getEntityComponents()</text>
<text text-anchor="start" x="31.5" y="-1008" font-family="Helvetica,sans-Serif" font-size="10.00">+ handleAssetLoading()</text>
</a>
</g>
</g>
<!-- Node5&#45;&gt;Node4 -->
<g id="edge4" class="edge"><title>Node5&#45;&gt;Node4</title>
<path fill="none" stroke="midnightblue" d="M94,-990.813C94,-968.666 94,-944.664 94,-923.185"/>
<polygon fill="none" stroke="midnightblue" points="90.5001,-990.843 94,-1000.84 97.5001,-990.843 90.5001,-990.843"/>
</g>
<!-- Node6 -->
<g id="node6" class="node"><title>Node6</title>
<polygon fill="white" stroke="#bfbfbf" points="14.5,-1184.5 14.5,-1263.5 173.5,-1263.5 173.5,-1184.5 14.5,-1184.5"/>
<text text-anchor="start" x="22.5" y="-1251.5" font-family="Helvetica,sans-Serif" font-size="10.00">std::vector&lt; std::pair</text>
<text text-anchor="start" x="22.5" y="-1240.5" font-family="Helvetica,sans-Serif" font-size="10.00">&lt; const Ra::Engine::Entity</text>
<text text-anchor="middle" x="94" y="-1229.5" font-family="Helvetica,sans-Serif" font-size="10.00"> *, Ra::Engine::Component * &gt; &gt;</text>
<polyline fill="none" stroke="#bfbfbf" points="14.5,-1222.5 173.5,-1222.5 "/>
<text text-anchor="middle" x="94" y="-1210.5" font-family="Helvetica,sans-Serif" font-size="10.00"> </text>
<polyline fill="none" stroke="#bfbfbf" points="14.5,-1203.5 173.5,-1203.5 "/>
<text text-anchor="middle" x="94" y="-1191.5" font-family="Helvetica,sans-Serif" font-size="10.00"> </text>
</g>
<!-- Node6&#45;&gt;Node5 -->
<g id="edge5" class="edge"><title>Node6&#45;&gt;Node5</title>
<path fill="none" stroke="#404040" d="M94,-1184.14C94,-1172.86 94,-1160.13 94,-1147.34"/>
<polygon fill="none" stroke="#404040" points="94.0001,-1147.11 90,-1141.11 94,-1135.11 98,-1141.11 94.0001,-1147.11"/>
<text text-anchor="middle" x="132" y="-1157.5" font-family="Helvetica,sans-Serif" font-size="10.00"> #m_components</text>
</g>
<!-- Node7 -->
<g id="node7" class="node"><title>Node7</title>
<polygon fill="white" stroke="#bfbfbf" points="-0.5,-1334.5 -0.5,-1413.5 116.5,-1413.5 116.5,-1334.5 -0.5,-1334.5"/>
<text text-anchor="start" x="7.5" y="-1401.5" font-family="Helvetica,sans-Serif" font-size="10.00">pair&lt; const Ra::Engine</text>
<text text-anchor="start" x="7.5" y="-1390.5" font-family="Helvetica,sans-Serif" font-size="10.00">::Entity *, Ra::Engine</text>
<text text-anchor="middle" x="58" y="-1379.5" font-family="Helvetica,sans-Serif" font-size="10.00">::Component * &gt;</text>
<polyline fill="none" stroke="#bfbfbf" points="-0.5,-1372.5 116.5,-1372.5 "/>
<text text-anchor="middle" x="58" y="-1360.5" font-family="Helvetica,sans-Serif" font-size="10.00"> </text>
<polyline fill="none" stroke="#bfbfbf" points="-0.5,-1353.5 116.5,-1353.5 "/>
<text text-anchor="middle" x="58" y="-1341.5" font-family="Helvetica,sans-Serif" font-size="10.00"> </text>
</g>
<!-- Node7&#45;&gt;Node6 -->
<g id="edge6" class="edge"><title>Node7&#45;&gt;Node6</title>
<path fill="none" stroke="#404040" d="M67.4586,-1334.11C71.8199,-1316.18 77.0521,-1294.67 81.7138,-1275.51"/>
<polygon fill="none" stroke="#404040" points="81.7683,-1275.29 79.2998,-1268.51 84.6046,-1263.63 87.0731,-1270.4 81.7683,-1275.29"/>
<text text-anchor="middle" x="104.5" y="-1296.5" font-family="Helvetica,sans-Serif" font-size="10.00"> +elements</text>
</g>
<!-- Node8 -->
<g id="node8" class="node"><title>Node8</title>
<g id="a_node8"><a xlink:title="STL class. ">
<polygon fill="white" stroke="#bfbfbf" points="134.5,-1345.5 134.5,-1402.5 221.5,-1402.5 221.5,-1345.5 134.5,-1345.5"/>
<text text-anchor="middle" x="178" y="-1390.5" font-family="Helvetica,sans-Serif" font-size="10.00">std::vector&lt; T &gt;</text>
<polyline fill="none" stroke="#bfbfbf" points="134.5,-1383.5 221.5,-1383.5 "/>
<text text-anchor="middle" x="178" y="-1371.5" font-family="Helvetica,sans-Serif" font-size="10.00"> </text>
<polyline fill="none" stroke="#bfbfbf" points="134.5,-1364.5 221.5,-1364.5 "/>
<text text-anchor="middle" x="178" y="-1352.5" font-family="Helvetica,sans-Serif" font-size="10.00"> </text>
</a>
</g>
</g>
<!-- Node8&#45;&gt;Node6 -->
<g id="edge7" class="edge"><title>Node8&#45;&gt;Node6</title>
<path fill="none" stroke="orange" d="M160.559,-1336.02C152.345,-1319.28 142.14,-1299.38 132,-1282 128.465,-1275.94 124.54,-1269.64 120.594,-1263.54"/>
<polygon fill="orange" stroke="orange" points="157.632,-1338 165.149,-1345.47 163.929,-1334.94 157.632,-1338"/>
<text text-anchor="start" x="150" y="-1307.5" font-family="Helvetica,sans-Serif" font-size="10.00"> &lt; std::pair&lt; const</text>
<text text-anchor="start" x="150" y="-1296.5" font-family="Helvetica,sans-Serif" font-size="10.00"> Ra::Engine::Entity</text>
<text text-anchor="middle" x="221.5" y="-1285.5" font-family="Helvetica,sans-Serif" font-size="10.00"> *, Ra::Engine::Component * &gt; &gt;</text>
</g>
<!-- Node9 -->
<g id="node9" class="node"><title>Node9</title>
<polygon fill="white" stroke="#bfbfbf" points="163.5,-1462.5 163.5,-1519.5 192.5,-1519.5 192.5,-1462.5 163.5,-1462.5"/>
<text text-anchor="middle" x="178" y="-1507.5" font-family="Helvetica,sans-Serif" font-size="10.00">T</text>
<polyline fill="none" stroke="#bfbfbf" points="163.5,-1500.5 192.5,-1500.5 "/>
<text text-anchor="middle" x="178" y="-1488.5" font-family="Helvetica,sans-Serif" font-size="10.00"> </text>
<polyline fill="none" stroke="#bfbfbf" points="163.5,-1481.5 192.5,-1481.5 "/>
<text text-anchor="middle" x="178" y="-1469.5" font-family="Helvetica,sans-Serif" font-size="10.00"> </text>
</g>
<!-- Node9&#45;&gt;Node8 -->
<g id="edge8" class="edge"><title>Node9&#45;&gt;Node8</title>
<path fill="none" stroke="#404040" d="M178,-1462.45C178,-1448.19 178,-1430.52 178,-1414.8"/>
<polygon fill="none" stroke="#404040" points="178,-1414.72 174,-1408.72 178,-1402.72 182,-1408.72 178,-1414.72"/>
<text text-anchor="middle" x="202.5" y="-1435.5" font-family="Helvetica,sans-Serif" font-size="10.00"> +elements</text>
</g>
<!-- Node10 -->
<g id="node10" class="node"><title>Node10</title>
<g id="a_node10"><a xlink:href="classRa_1_1Engine_1_1BaseCouplingSystem.html" target="_top" xlink:title="Base class for systems coupling multiple subsystems. ">
<polygon fill="white" stroke="black" points="179.5,-750.5 179.5,-961.5 346.5,-961.5 346.5,-750.5 179.5,-750.5"/>
<text text-anchor="start" x="187.5" y="-949.5" font-family="Helvetica,sans-Serif" font-size="10.00">Ra::Engine::BaseCoupling</text>
<text text-anchor="middle" x="263" y="-938.5" font-family="Helvetica,sans-Serif" font-size="10.00">System&lt; _BaseAbstractSystem &gt;</text>
<polyline fill="none" stroke="black" points="179.5,-931.5 346.5,-931.5 "/>
<text text-anchor="middle" x="263" y="-919.5" font-family="Helvetica,sans-Serif" font-size="10.00"> </text>
<polyline fill="none" stroke="black" points="179.5,-912.5 346.5,-912.5 "/>
<text text-anchor="start" x="187.5" y="-900.5" font-family="Helvetica,sans-Serif" font-size="10.00">+ BaseCouplingSystem()</text>
<text text-anchor="start" x="187.5" y="-889.5" font-family="Helvetica,sans-Serif" font-size="10.00">+ ~BaseCouplingSystem()</text>
<text text-anchor="start" x="187.5" y="-878.5" font-family="Helvetica,sans-Serif" font-size="10.00">+ BaseCouplingSystem()</text>
<text text-anchor="start" x="187.5" y="-867.5" font-family="Helvetica,sans-Serif" font-size="10.00">+ operator=()</text>
<text text-anchor="start" x="187.5" y="-856.5" font-family="Helvetica,sans-Serif" font-size="10.00">+ addSystem()</text>
<text text-anchor="start" x="187.5" y="-845.5" font-family="Helvetica,sans-Serif" font-size="10.00">+ generateTasks()</text>
<text text-anchor="start" x="187.5" y="-834.5" font-family="Helvetica,sans-Serif" font-size="10.00">+ registerComponent()</text>
<text text-anchor="start" x="187.5" y="-823.5" font-family="Helvetica,sans-Serif" font-size="10.00">+ unregisterComponent()</text>
<text text-anchor="start" x="187.5" y="-812.5" font-family="Helvetica,sans-Serif" font-size="10.00">+ unregisterAllComponents()</text>
<text text-anchor="start" x="187.5" y="-801.5" font-family="Helvetica,sans-Serif" font-size="10.00">+ handleAssetLoading()</text>
<text text-anchor="start" x="187.5" y="-790.5" font-family="Helvetica,sans-Serif" font-size="10.00"># dispatch()</text>
<text text-anchor="start" x="187.5" y="-779.5" font-family="Helvetica,sans-Serif" font-size="10.00"># dispatch()</text>
<text text-anchor="start" x="187.5" y="-768.5" font-family="Helvetica,sans-Serif" font-size="10.00"># conditionnaldispatch()</text>
<text text-anchor="start" x="187.5" y="-757.5" font-family="Helvetica,sans-Serif" font-size="10.00"># conditionnaldispatch()</text>
</a>
</g>
</g>
<!-- Node10&#45;&gt;Node3 -->
<g id="edge9" class="edge"><title>Node10&#45;&gt;Node3</title>
<path fill="none" stroke="orange" d="M232.845,-740.589C229.436,-727.653 225.974,-714.519 222.599,-701.715"/>
<polygon fill="orange" stroke="orange" points="229.507,-741.656 235.44,-750.433 236.276,-739.872 229.507,-741.656"/>
<text text-anchor="middle" x="288.5" y="-723.5" font-family="Helvetica,sans-Serif" font-size="10.00"> &lt; AbstractTimedSystem &gt;</text>
</g>
<!-- Node11 -->
<g id="node11" class="node"><title>Node11</title>
<g id="a_node11"><a xlink:href="classRa_1_1Engine_1_1__BaseAbstractSystem.html" target="_top" xlink:title="{_BaseAbstractSystem\n||}">
<polygon fill="white" stroke="black" points="205.5,-1039.5 205.5,-1096.5 320.5,-1096.5 320.5,-1039.5 205.5,-1039.5"/>
<text text-anchor="middle" x="263" y="-1084.5" font-family="Helvetica,sans-Serif" font-size="10.00">_BaseAbstractSystem</text>
<polyline fill="none" stroke="black" points="205.5,-1077.5 320.5,-1077.5 "/>
<text text-anchor="middle" x="263" y="-1065.5" font-family="Helvetica,sans-Serif" font-size="10.00"> </text>
<polyline fill="none" stroke="black" points="205.5,-1058.5 320.5,-1058.5 "/>
<text text-anchor="middle" x="263" y="-1046.5" font-family="Helvetica,sans-Serif" font-size="10.00"> </text>
</a>
</g>
</g>
<!-- Node11&#45;&gt;Node10 -->
<g id="edge10" class="edge"><title>Node11&#45;&gt;Node10</title>
<path fill="none" stroke="midnightblue" d="M263,-1029.06C263,-1009.96 263,-985.769 263,-961.607"/>
<polygon fill="none" stroke="midnightblue" points="259.5,-1029.11 263,-1039.11 266.5,-1029.11 259.5,-1029.11"/>
</g>
</g>
</svg>
