<?xml version="1.0" encoding="UTF-8" standalone="no"?>
<!DOCTYPE svg PUBLIC "-//W3C//DTD SVG 1.1//EN"
 "http://www.w3.org/Graphics/SVG/1.1/DTD/svg11.dtd">
<!-- Generated by graphviz version 2.36.0 (20140111.2315)
 -->
<!-- Title: FancyMeshPlugin::FancyMeshComponent::addMeshRenderObject Pages: 1 -->
<svg width="538pt" height="283pt"
 viewBox="0.00 0.00 538.00 283.00" xmlns="http://www.w3.org/2000/svg" xmlns:xlink="http://www.w3.org/1999/xlink">
<g id="graph0" class="graph" transform="scale(1 1) rotate(0) translate(4 279)">
<title>FancyMeshPlugin::FancyMeshComponent::addMeshRenderObject</title>
<polygon fill="white" stroke="none" points="-4,4 -4,-279 534,-279 534,4 -4,4"/>
<!-- Node1 -->
<g id="node1" class="node"><title>Node1</title>
<polygon fill="#bfbfbf" stroke="black" points="0.5,-122 0.5,-152 173.5,-152 173.5,-122 0.5,-122"/>
<text text-anchor="start" x="8.5" y="-140" font-family="Helvetica,sans-Serif" font-size="10.00">FancyMeshPlugin::FancyMesh</text>
<text text-anchor="middle" x="87" y="-129" font-family="Helvetica,sans-Serif" font-size="10.00">Component::addMeshRenderObject</text>
</g>
<!-- Node2 -->
<g id="node2" class="node"><title>Node2</title>
<g id="a_node2"><a xlink:href="classFancyMeshPlugin_1_1FancyMeshComponent.html#a7ad1d17d7e9852fbe02f29c9c0b90b08" target="_top" xlink:title="FancyMeshPlugin::FancyMesh\lComponent::setupIO">
<polygon fill="white" stroke="black" points="210,-220 210,-250 362,-250 362,-220 210,-220"/>
<text text-anchor="start" x="218" y="-238" font-family="Helvetica,sans-Serif" font-size="10.00">FancyMeshPlugin::FancyMesh</text>
<text text-anchor="middle" x="286" y="-227" font-family="Helvetica,sans-Serif" font-size="10.00">Component::setupIO</text>
</a>
</g>
</g>
<!-- Node1&#45;&gt;Node2 -->
<g id="edge1" class="edge"><title>Node1&#45;&gt;Node2</title>
<path fill="none" stroke="midnightblue" d="M118.35,-152.098C152.477,-169.075 208.014,-196.702 245.499,-215.35"/>
<polygon fill="midnightblue" stroke="midnightblue" points="244.104,-218.565 254.616,-219.885 247.222,-212.297 244.104,-218.565"/>
</g>
<!-- Node4 -->
<g id="node4" class="node"><title>Node4</title>
<g id="a_node4"><a xlink:href="classRa_1_1Engine_1_1RenderObject.html#ae9cb914f351555a60d29e8d6afedc06b" target="_top" xlink:title="Sort of factory method to easily create a render object. ">
<polygon fill="white" stroke="black" points="220.5,-122 220.5,-152 351.5,-152 351.5,-122 220.5,-122"/>
<text text-anchor="start" x="228.5" y="-140" font-family="Helvetica,sans-Serif" font-size="10.00">Ra::Engine::RenderObject</text>
<text text-anchor="middle" x="286" y="-129" font-family="Helvetica,sans-Serif" font-size="10.00">::createRenderObject</text>
</a>
</g>
</g>
<!-- Node1&#45;&gt;Node4 -->
<g id="edge3" class="edge"><title>Node1&#45;&gt;Node4</title>
<path fill="none" stroke="midnightblue" d="M173.548,-137C185.675,-137 198.068,-137 209.976,-137"/>
<polygon fill="midnightblue" stroke="midnightblue" points="210.296,-140.5 220.296,-137 210.296,-133.5 210.296,-140.5"/>
</g>
<!-- Node9 -->
<g id="node9" class="node"><title>Node9</title>
<g id="a_node9"><a xlink:href="classRa_1_1Engine_1_1Component.html#a8faa6f03b4a5a8bc30bb8ff402e6b61f" target="_top" xlink:title="Add a new render object to the component. This adds the RO to the manager for drawing. ">
<polygon fill="white" stroke="black" points="225,-49 225,-79 347,-79 347,-49 225,-49"/>
<text text-anchor="start" x="233" y="-67" font-family="Helvetica,sans-Serif" font-size="10.00">Ra::Engine::Component</text>
<text text-anchor="middle" x="286" y="-56" font-family="Helvetica,sans-Serif" font-size="10.00">::addRenderObject</text>
</a>
</g>
</g>
<!-- Node1&#45;&gt;Node9 -->
<g id="edge8" class="edge"><title>Node1&#45;&gt;Node9</title>
<path fill="none" stroke="midnightblue" d="M128.819,-121.874C159.591,-110.471 201.96,-94.771 234.806,-82.5999"/>
<polygon fill="midnightblue" stroke="midnightblue" points="236.073,-85.863 244.234,-79.1063 233.641,-79.2991 236.073,-85.863"/>
</g>
<!-- Node3 -->
<g id="node3" class="node"><title>Node3</title>
<g id="a_node3"><a xlink:href="classRa_1_1Engine_1_1Component.html#a207c1dc2e97856c22e0767fb77162933" target="_top" xlink:title="Return the entity the component belongs to. ">
<polygon fill="white" stroke="black" points="403,-245 403,-275 525,-275 525,-245 403,-245"/>
<text text-anchor="start" x="411" y="-263" font-family="Helvetica,sans-Serif" font-size="10.00">Ra::Engine::Component</text>
<text text-anchor="middle" x="464" y="-252" font-family="Helvetica,sans-Serif" font-size="10.00">::getEntity</text>
</a>
</g>
</g>
<!-- Node2&#45;&gt;Node3 -->
<g id="edge2" class="edge"><title>Node2&#45;&gt;Node3</title>
<path fill="none" stroke="midnightblue" d="M362.15,-245.675C372.381,-247.128 382.848,-248.615 392.983,-250.054"/>
<polygon fill="midnightblue" stroke="midnightblue" points="392.594,-253.534 402.986,-251.475 393.578,-246.604 392.594,-253.534"/>
</g>
<!-- Node5 -->
<g id="node5" class="node"><title>Node5</title>
<g id="a_node5"><a xlink:href="classRa_1_1Engine_1_1RenderObject.html#acf300c8fdb55fee54d27b3fb46a1e523" target="_top" xlink:title="A &#45;1 (or any other negative value) lifetime is considered infinite, 0 is an &quot;invalid value&quot; (would ...">
<polygon fill="white" stroke="black" points="398.5,-196 398.5,-226 529.5,-226 529.5,-196 398.5,-196"/>
<text text-anchor="start" x="406.5" y="-214" font-family="Helvetica,sans-Serif" font-size="10.00">Ra::Engine::RenderObject</text>
<text text-anchor="middle" x="464" y="-203" font-family="Helvetica,sans-Serif" font-size="10.00">::RenderObject</text>
</a>
</g>
</g>
<!-- Node4&#45;&gt;Node5 -->
<g id="edge4" class="edge"><title>Node4&#45;&gt;Node5</title>
<path fill="none" stroke="midnightblue" d="M319.848,-152.001C341.847,-161.924 371.519,-175.07 398,-186 403.029,-188.076 408.299,-190.194 413.569,-192.276"/>
<polygon fill="midnightblue" stroke="midnightblue" points="412.416,-195.583 423.004,-195.968 414.966,-189.065 412.416,-195.583"/>
</g>
<!-- Node6 -->
<g id="node6" class="node"><title>Node6</title>
<g id="a_node6"><a xlink:href="classRa_1_1Engine_1_1RenderObject.html#ae8e94954e783a2012fd774598af1eb52" target="_top" xlink:title="Ra::Engine::RenderObject\l::setMesh">
<polygon fill="white" stroke="black" points="398.5,-147 398.5,-177 529.5,-177 529.5,-147 398.5,-147"/>
<text text-anchor="start" x="406.5" y="-165" font-family="Helvetica,sans-Serif" font-size="10.00">Ra::Engine::RenderObject</text>
<text text-anchor="middle" x="464" y="-154" font-family="Helvetica,sans-Serif" font-size="10.00">::setMesh</text>
</a>
</g>
</g>
<!-- Node4&#45;&gt;Node6 -->
<g id="edge5" class="edge"><title>Node4&#45;&gt;Node6</title>
<path fill="none" stroke="midnightblue" d="M351.537,-146.167C363.493,-147.866 376.073,-149.652 388.303,-151.39"/>
<polygon fill="midnightblue" stroke="midnightblue" points="388.078,-154.893 398.471,-152.834 389.063,-147.962 388.078,-154.893"/>
</g>
<!-- Node7 -->
<g id="node7" class="node"><title>Node7</title>
<g id="a_node7"><a xlink:href="classRa_1_1Engine_1_1RenderObject.html#a62e0eb3a7de5a7d352b565a28260cc06" target="_top" xlink:title="Ra::Engine::RenderObject\l::setVisible">
<polygon fill="white" stroke="black" points="398.5,-98 398.5,-128 529.5,-128 529.5,-98 398.5,-98"/>
<text text-anchor="start" x="406.5" y="-116" font-family="Helvetica,sans-Serif" font-size="10.00">Ra::Engine::RenderObject</text>
<text text-anchor="middle" x="464" y="-105" font-family="Helvetica,sans-Serif" font-size="10.00">::setVisible</text>
</a>
</g>
</g>
<!-- Node4&#45;&gt;Node7 -->
<g id="edge6" class="edge"><title>Node4&#45;&gt;Node7</title>
<path fill="none" stroke="midnightblue" d="M351.537,-128.2C363.493,-126.569 376.073,-124.854 388.303,-123.186"/>
<polygon fill="midnightblue" stroke="midnightblue" points="389.036,-126.618 398.471,-121.799 388.09,-119.683 389.036,-126.618"/>
</g>
<!-- Node8 -->
<g id="node8" class="node"><title>Node8</title>
<g id="a_node8"><a xlink:href="classRa_1_1Engine_1_1RenderObject.html#ae1ea453e2b698cda9956586d11b9cfbd" target="_top" xlink:title="Ra::Engine::RenderObject\l::setRenderTechnique">
<polygon fill="white" stroke="black" points="398.5,-49 398.5,-79 529.5,-79 529.5,-49 398.5,-49"/>
<text text-anchor="start" x="406.5" y="-67" font-family="Helvetica,sans-Serif" font-size="10.00">Ra::Engine::RenderObject</text>
<text text-anchor="middle" x="464" y="-56" font-family="Helvetica,sans-Serif" font-size="10.00">::setRenderTechnique</text>
</a>
</g>
</g>
<!-- Node4&#45;&gt;Node8 -->
<g id="edge7" class="edge"><title>Node4&#45;&gt;Node8</title>
<path fill="none" stroke="midnightblue" d="M320.854,-121.932C342.762,-112.288 371.954,-99.6353 398,-89 403.037,-86.9433 408.312,-84.8371 413.585,-82.7625"/>
<polygon fill="midnightblue" stroke="midnightblue" points="414.979,-85.9754 423.023,-79.0797 412.435,-79.4543 414.979,-85.9754"/>
</g>
<!-- Node10 -->
<g id="node10" class="node"><title>Node10</title>
<g id="a_node10"><a xlink:href="classRa_1_1Engine_1_1Component.html#a10b0bc182b76165744ebea603ae32dfe" target="_top" xlink:title="Shortcut to access the render object manager. ">
<polygon fill="white" stroke="black" points="403,-0 403,-30 525,-30 525,-0 403,-0"/>
<text text-anchor="start" x="411" y="-18" font-family="Helvetica,sans-Serif" font-size="10.00">Ra::Engine::Component</text>
<text text-anchor="middle" x="464" y="-7" font-family="Helvetica,sans-Serif" font-size="10.00">::getRoMgr</text>
</a>
</g>
</g>
<!-- Node9&#45;&gt;Node10 -->
<g id="edge9" class="edge"><title>Node9&#45;&gt;Node10</title>
<path fill="none" stroke="midnightblue" d="M341.242,-48.8986C359.562,-43.7981 380.183,-38.0571 399.175,-32.7695"/>
<polygon fill="midnightblue" stroke="midnightblue" points="400.242,-36.1055 408.937,-30.0516 398.365,-29.362 400.242,-36.1055"/>
</g>
</g>
</svg>
