<?xml version="1.0" encoding="UTF-8" standalone="no"?>
<!DOCTYPE svg PUBLIC "-//W3C//DTD SVG 1.1//EN"
 "http://www.w3.org/Graphics/SVG/1.1/DTD/svg11.dtd">
<!-- Generated by graphviz version 2.36.0 (20140111.2315)
 -->
<!-- Title: SkinningPlugin::SkinningDisplayComponent::display Pages: 1 -->
<svg width="698pt" height="524pt"
 viewBox="0.00 0.00 698.00 524.00" xmlns="http://www.w3.org/2000/svg" xmlns:xlink="http://www.w3.org/1999/xlink">
<g id="graph0" class="graph" transform="scale(1 1) rotate(0) translate(4 520)">
<title>SkinningPlugin::SkinningDisplayComponent::display</title>
<polygon fill="white" stroke="none" points="-4,4 -4,-520 694,-520 694,4 -4,4"/>
<!-- Node1 -->
<g id="node1" class="node"><title>Node1</title>
<polygon fill="#bfbfbf" stroke="black" points="0.5,-191 0.5,-221 137.5,-221 137.5,-191 0.5,-191"/>
<text text-anchor="start" x="8.5" y="-209" font-family="Helvetica,sans-Serif" font-size="10.00">SkinningPlugin::Skinning</text>
<text text-anchor="middle" x="69" y="-198" font-family="Helvetica,sans-Serif" font-size="10.00">DisplayComponent::display</text>
</g>
<!-- Node2 -->
<g id="node2" class="node"><title>Node2</title>
<g id="a_node2"><a xlink:href="namespaceRa_1_1Core.html#abc0a3625137098b67838fe52edd480f9" target="_top" xlink:title="SIZE. ">
<polygon fill="white" stroke="black" points="410,-496.5 410,-515.5 490,-515.5 490,-496.5 410,-496.5"/>
<text text-anchor="middle" x="450" y="-503.5" font-family="Helvetica,sans-Serif" font-size="10.00">Ra::Core::size</text>
</a>
</g>
</g>
<!-- Node1&#45;&gt;Node2 -->
<g id="edge1" class="edge"><title>Node1&#45;&gt;Node2</title>
<path fill="none" stroke="midnightblue" d="M73.3184,-221.083C82.4807,-259.251 111.683,-360.568 174,-416 238.399,-473.284 340.002,-494.21 400.012,-501.782"/>
<polygon fill="midnightblue" stroke="midnightblue" points="399.652,-505.263 409.994,-502.966 400.477,-498.312 399.652,-505.263"/>
</g>
<!-- Node3 -->
<g id="node3" class="node"><title>Node3</title>
<g id="a_node3"><a xlink:href="classRa_1_1Core_1_1TriangleMesh.html#a495116f40cfec8bb6504698d786d4b8c" target="_top" xlink:title="Access the vertices positions. ">
<polygon fill="white" stroke="black" points="389.5,-447 389.5,-477 510.5,-477 510.5,-447 389.5,-447"/>
<text text-anchor="start" x="397.5" y="-465" font-family="Helvetica,sans-Serif" font-size="10.00">Ra::Core::TriangleMesh</text>
<text text-anchor="middle" x="450" y="-454" font-family="Helvetica,sans-Serif" font-size="10.00">::vertices</text>
</a>
</g>
</g>
<!-- Node1&#45;&gt;Node3 -->
<g id="edge2" class="edge"><title>Node1&#45;&gt;Node3</title>
<path fill="none" stroke="midnightblue" d="M75.8805,-221.112C88.8515,-252.547 122.883,-325.42 174,-366 234.091,-413.703 319.549,-438.583 379.198,-450.936"/>
<polygon fill="midnightblue" stroke="midnightblue" points="378.789,-454.424 389.282,-452.956 380.164,-447.56 378.789,-454.424"/>
</g>
<!-- Node5 -->
<g id="node5" class="node"><title>Node5</title>
<g id="a_node5"><a xlink:href="namespaceRa_1_1Core_1_1Colors.html#a7b99d6d60a6fe356e854cc7253ec8bb7" target="_top" xlink:title="Ra::Core::Colors::fromHSV">
<polygon fill="white" stroke="black" points="185.5,-196.5 185.5,-215.5 322.5,-215.5 322.5,-196.5 185.5,-196.5"/>
<text text-anchor="middle" x="254" y="-203.5" font-family="Helvetica,sans-Serif" font-size="10.00">Ra::Core::Colors::fromHSV</text>
</a>
</g>
</g>
<!-- Node1&#45;&gt;Node5 -->
<g id="edge4" class="edge"><title>Node1&#45;&gt;Node5</title>
<path fill="none" stroke="midnightblue" d="M137.623,-206C149.793,-206 162.569,-206 175.005,-206"/>
<polygon fill="midnightblue" stroke="midnightblue" points="175.35,-209.5 185.35,-206 175.35,-202.5 175.35,-209.5"/>
</g>
<!-- Node7 -->
<g id="node7" class="node"><title>Node7</title>
<g id="a_node7"><a xlink:href="namespaceRa_1_1Core_1_1Geometry.html#ad9078d959578384d153104cd11c9a02c" target="_top" xlink:title="Ra::Core::Geometry\l::partition">
<polygon fill="white" stroke="black" points="201.5,-327 201.5,-357 306.5,-357 306.5,-327 201.5,-327"/>
<text text-anchor="start" x="209.5" y="-345" font-family="Helvetica,sans-Serif" font-size="10.00">Ra::Core::Geometry</text>
<text text-anchor="middle" x="254" y="-334" font-family="Helvetica,sans-Serif" font-size="10.00">::partition</text>
</a>
</g>
</g>
<!-- Node1&#45;&gt;Node7 -->
<g id="edge6" class="edge"><title>Node1&#45;&gt;Node7</title>
<path fill="none" stroke="midnightblue" d="M90.2834,-221.074C122.849,-245.276 186.912,-292.885 224.203,-320.599"/>
<polygon fill="midnightblue" stroke="midnightblue" points="222.512,-323.703 232.626,-326.858 226.687,-318.084 222.512,-323.703"/>
</g>
<!-- Node13 -->
<g id="node13" class="node"><title>Node13</title>
<g id="a_node13"><a xlink:href="namespaceRa_1_1Core_1_1Geometry.html#a37e391d761a6361d940c03b5213f16ea" target="_top" xlink:title="GLOBAL MATRIX ///. ">
<polygon fill="white" stroke="black" points="201.5,-235 201.5,-265 306.5,-265 306.5,-235 201.5,-235"/>
<text text-anchor="start" x="209.5" y="-253" font-family="Helvetica,sans-Serif" font-size="10.00">Ra::Core::Geometry</text>
<text text-anchor="middle" x="254" y="-242" font-family="Helvetica,sans-Serif" font-size="10.00">::uniformAdjacency</text>
</a>
</g>
</g>
<!-- Node1&#45;&gt;Node13 -->
<g id="edge15" class="edge"><title>Node1&#45;&gt;Node13</title>
<path fill="none" stroke="midnightblue" d="M132.466,-221.019C151.6,-225.62 172.623,-230.674 191.679,-235.256"/>
<polygon fill="midnightblue" stroke="midnightblue" points="190.904,-238.669 201.445,-237.604 192.54,-231.863 190.904,-238.669"/>
</g>
<!-- Node14 -->
<g id="node14" class="node"><title>Node14</title>
<g id="a_node14"><a xlink:href="namespaceRa_1_1Engine_1_1ShaderConfigurationFactory.html#a0bc60f21dbabd745961037f3d2f019c8" target="_top" xlink:title="Ra::Engine::ShaderConfiguration\lFactory::getConfiguration">
<polygon fill="white" stroke="black" points="174,-147 174,-177 334,-177 334,-147 174,-147"/>
<text text-anchor="start" x="182" y="-165" font-family="Helvetica,sans-Serif" font-size="10.00">Ra::Engine::ShaderConfiguration</text>
<text text-anchor="middle" x="254" y="-154" font-family="Helvetica,sans-Serif" font-size="10.00">Factory::getConfiguration</text>
</a>
</g>
</g>
<!-- Node1&#45;&gt;Node14 -->
<g id="edge17" class="edge"><title>Node1&#45;&gt;Node14</title>
<path fill="none" stroke="midnightblue" d="M132.466,-190.981C147.986,-187.249 164.75,-183.219 180.698,-179.384"/>
<polygon fill="midnightblue" stroke="midnightblue" points="181.6,-182.767 190.505,-177.026 179.963,-175.961 181.6,-182.767"/>
</g>
<!-- Node16 -->
<g id="node16" class="node"><title>Node16</title>
<g id="a_node16"><a xlink:href="classRa_1_1Engine_1_1RenderObject.html#a62e0eb3a7de5a7d352b565a28260cc06" target="_top" xlink:title="Ra::Engine::RenderObject\l::setVisible">
<polygon fill="white" stroke="black" points="188.5,-98 188.5,-128 319.5,-128 319.5,-98 188.5,-98"/>
<text text-anchor="start" x="196.5" y="-116" font-family="Helvetica,sans-Serif" font-size="10.00">Ra::Engine::RenderObject</text>
<text text-anchor="middle" x="254" y="-105" font-family="Helvetica,sans-Serif" font-size="10.00">::setVisible</text>
</a>
</g>
</g>
<!-- Node1&#45;&gt;Node16 -->
<g id="edge19" class="edge"><title>Node1&#45;&gt;Node16</title>
<path fill="none" stroke="midnightblue" d="M88.9249,-190.975C109.034,-175.619 142.247,-151.963 174,-137 178.048,-135.092 182.284,-133.293 186.601,-131.604"/>
<polygon fill="midnightblue" stroke="midnightblue" points="187.971,-134.829 196.141,-128.084 185.548,-128.262 187.971,-134.829"/>
</g>
<!-- Node17 -->
<g id="node17" class="node"><title>Node17</title>
<g id="a_node17"><a xlink:href="classRa_1_1Engine_1_1RenderObject.html#ae1ea453e2b698cda9956586d11b9cfbd" target="_top" xlink:title="Ra::Engine::RenderObject\l::setRenderTechnique">
<polygon fill="white" stroke="black" points="188.5,-49 188.5,-79 319.5,-79 319.5,-49 188.5,-49"/>
<text text-anchor="start" x="196.5" y="-67" font-family="Helvetica,sans-Serif" font-size="10.00">Ra::Engine::RenderObject</text>
<text text-anchor="middle" x="254" y="-56" font-family="Helvetica,sans-Serif" font-size="10.00">::setRenderTechnique</text>
</a>
</g>
</g>
<!-- Node1&#45;&gt;Node17 -->
<g id="edge20" class="edge"><title>Node1&#45;&gt;Node17</title>
<path fill="none" stroke="midnightblue" d="M79.2335,-190.925C95.3569,-165.856 131.054,-115.627 174,-88 176.569,-86.3472 179.258,-84.8032 182.029,-83.3614"/>
<polygon fill="midnightblue" stroke="midnightblue" points="183.548,-86.5151 191.112,-79.0964 180.572,-80.1789 183.548,-86.5151"/>
</g>
<!-- Node18 -->
<g id="node18" class="node"><title>Node18</title>
<g id="a_node18"><a xlink:href="classRa_1_1Engine_1_1RenderObject.html#ae8e94954e783a2012fd774598af1eb52" target="_top" xlink:title="Ra::Engine::RenderObject\l::setMesh">
<polygon fill="white" stroke="black" points="188.5,-0 188.5,-30 319.5,-30 319.5,-0 188.5,-0"/>
<text text-anchor="start" x="196.5" y="-18" font-family="Helvetica,sans-Serif" font-size="10.00">Ra::Engine::RenderObject</text>
<text text-anchor="middle" x="254" y="-7" font-family="Helvetica,sans-Serif" font-size="10.00">::setMesh</text>
</a>
</g>
</g>
<!-- Node1&#45;&gt;Node18 -->
<g id="edge21" class="edge"><title>Node1&#45;&gt;Node18</title>
<path fill="none" stroke="midnightblue" d="M75.3333,-190.506C87.4729,-157.552 120.342,-80.1627 174,-39 175.802,-37.6177 177.683,-36.3145 179.628,-35.0861"/>
<polygon fill="midnightblue" stroke="midnightblue" points="181.455,-38.0749 188.503,-30.1641 178.06,-31.9532 181.455,-38.0749"/>
</g>
<!-- Node4 -->
<g id="node4" class="node"><title>Node4</title>
<g id="a_node4"><a xlink:href="classRa_1_1Core_1_1AttribManager.html#aaa6088620425c1e1d74b50f1b50eb596" target="_top" xlink:title="Get attribute by handle. ">
<polygon fill="white" stroke="black" points="566.5,-422 566.5,-452 689.5,-452 689.5,-422 566.5,-422"/>
<text text-anchor="start" x="574.5" y="-440" font-family="Helvetica,sans-Serif" font-size="10.00">Ra::Core::AttribManager</text>
<text text-anchor="middle" x="628" y="-429" font-family="Helvetica,sans-Serif" font-size="10.00">::getAttrib</text>
</a>
</g>
</g>
<!-- Node3&#45;&gt;Node4 -->
<g id="edge3" class="edge"><title>Node3&#45;&gt;Node4</title>
<path fill="none" stroke="midnightblue" d="M510.586,-453.536C525.17,-451.464 540.921,-449.227 555.983,-447.088"/>
<polygon fill="midnightblue" stroke="midnightblue" points="556.868,-450.497 566.277,-445.625 555.884,-443.567 556.868,-450.497"/>
</g>
<!-- Node6 -->
<g id="node6" class="node"><title>Node6</title>
<g id="a_node6"><a xlink:href="namespaceRa_1_1Core_1_1Vector.html#af564521564244ea832d4b66d9cff6fcc" target="_top" xlink:title="Component&#45;wise floor() function on a floating&#45;point vector. ">
<polygon fill="white" stroke="black" points="392,-174.5 392,-193.5 508,-193.5 508,-174.5 392,-174.5"/>
<text text-anchor="middle" x="450" y="-181.5" font-family="Helvetica,sans-Serif" font-size="10.00">Ra::Core::Vector::floor</text>
</a>
</g>
</g>
<!-- Node5&#45;&gt;Node6 -->
<g id="edge5" class="edge"><title>Node5&#45;&gt;Node6</title>
<path fill="none" stroke="midnightblue" d="M322.579,-198.336C341.767,-196.16 362.651,-193.792 381.815,-191.619"/>
<polygon fill="midnightblue" stroke="midnightblue" points="382.419,-195.073 391.961,-190.468 381.63,-188.118 382.419,-195.073"/>
</g>
<!-- Node7&#45;&gt;Node2 -->
<g id="edge7" class="edge"><title>Node7&#45;&gt;Node2</title>
<path fill="none" stroke="midnightblue" d="M262.788,-357.332C278.686,-387.019 317.826,-452.379 370,-486 379.012,-491.808 389.612,-495.929 400.069,-498.855"/>
<polygon fill="midnightblue" stroke="midnightblue" points="399.447,-502.306 409.994,-501.308 401.127,-495.511 399.447,-502.306"/>
</g>
<!-- Node7&#45;&gt;Node3 -->
<g id="edge8" class="edge"><title>Node7&#45;&gt;Node3</title>
<path fill="none" stroke="midnightblue" d="M269.594,-357.296C290.178,-378.061 329.741,-415.086 370,-437 374.018,-439.187 378.256,-441.216 382.598,-443.093"/>
<polygon fill="midnightblue" stroke="midnightblue" points="381.641,-446.48 392.225,-446.962 384.251,-439.985 381.641,-446.48"/>
</g>
<!-- Node8 -->
<g id="node8" class="node"><title>Node8</title>
<g id="a_node8"><a xlink:href="namespaceRa_1_1Core_1_1Geometry.html#a559688ce2ea83e95725208d799d07a80" target="_top" xlink:title="Ra::Core::Geometry\l::extractVertexSegment">
<polygon fill="white" stroke="black" points="390,-251 390,-281 510,-281 510,-251 390,-251"/>
<text text-anchor="start" x="398" y="-269" font-family="Helvetica,sans-Serif" font-size="10.00">Ra::Core::Geometry</text>
<text text-anchor="middle" x="450" y="-258" font-family="Helvetica,sans-Serif" font-size="10.00">::extractVertexSegment</text>
</a>
</g>
</g>
<!-- Node7&#45;&gt;Node8 -->
<g id="edge9" class="edge"><title>Node7&#45;&gt;Node8</title>
<path fill="none" stroke="midnightblue" d="M286.335,-326.973C309.239,-316.268 341.2,-301.905 370,-291 376.004,-288.727 382.315,-286.486 388.644,-284.337"/>
<polygon fill="midnightblue" stroke="midnightblue" points="390.176,-287.516 398.562,-281.041 387.969,-280.873 390.176,-287.516"/>
</g>
<!-- Node9 -->
<g id="node9" class="node"><title>Node9</title>
<g id="a_node9"><a xlink:href="namespaceRa_1_1Core_1_1Geometry.html#ac9ed208c21d64b54f845c6ef259e7fa5" target="_top" xlink:title="Ra::Core::Geometry\l::extractBitSet">
<polygon fill="white" stroke="black" points="397.5,-349 397.5,-379 502.5,-379 502.5,-349 397.5,-349"/>
<text text-anchor="start" x="405.5" y="-367" font-family="Helvetica,sans-Serif" font-size="10.00">Ra::Core::Geometry</text>
<text text-anchor="middle" x="450" y="-356" font-family="Helvetica,sans-Serif" font-size="10.00">::extractBitSet</text>
</a>
</g>
</g>
<!-- Node7&#45;&gt;Node9 -->
<g id="edge10" class="edge"><title>Node7&#45;&gt;Node9</title>
<path fill="none" stroke="midnightblue" d="M306.734,-347.867C331.507,-350.676 361.357,-354.061 387.305,-357.004"/>
<polygon fill="midnightblue" stroke="midnightblue" points="387.08,-360.5 397.411,-358.15 387.869,-353.545 387.08,-360.5"/>
</g>
<!-- Node10 -->
<g id="node10" class="node"><title>Node10</title>
<g id="a_node10"><a xlink:href="namespaceRa_1_1Core_1_1Algorithm.html#aea294cdb6f4f0d85955bdcccb22886ec" target="_top" xlink:title="Ra::Core::Algorithm::t">
<polygon fill="white" stroke="black" points="393.5,-212.5 393.5,-231.5 506.5,-231.5 506.5,-212.5 393.5,-212.5"/>
<text text-anchor="middle" x="450" y="-219.5" font-family="Helvetica,sans-Serif" font-size="10.00">Ra::Core::Algorithm::t</text>
</a>
</g>
</g>
<!-- Node7&#45;&gt;Node10 -->
<g id="edge11" class="edge"><title>Node7&#45;&gt;Node10</title>
<path fill="none" stroke="midnightblue" d="M272.64,-326.955C288.696,-313.229 313.024,-292.348 334,-274 350.113,-259.906 351.085,-252.024 370,-242 375.206,-239.241 380.808,-236.851 386.54,-234.782"/>
<polygon fill="midnightblue" stroke="midnightblue" points="387.85,-238.036 396.262,-231.596 385.67,-231.384 387.85,-238.036"/>
</g>
<!-- Node11 -->
<g id="node11" class="node"><title>Node11</title>
<g id="a_node11"><a xlink:href="namespaceRa_1_1Core_1_1Geometry.html#a410504fc421a43d2f5b139211db1a67e" target="_top" xlink:title="Ra::Core::Geometry\l::extractTriangleSegment">
<polygon fill="white" stroke="black" points="387,-300 387,-330 513,-330 513,-300 387,-300"/>
<text text-anchor="start" x="395" y="-318" font-family="Helvetica,sans-Serif" font-size="10.00">Ra::Core::Geometry</text>
<text text-anchor="middle" x="450" y="-307" font-family="Helvetica,sans-Serif" font-size="10.00">::extractTriangleSegment</text>
</a>
</g>
</g>
<!-- Node7&#45;&gt;Node11 -->
<g id="edge12" class="edge"><title>Node7&#45;&gt;Node11</title>
<path fill="none" stroke="midnightblue" d="M306.734,-334.8C328.147,-331.82 353.353,-328.312 376.554,-325.083"/>
<polygon fill="midnightblue" stroke="midnightblue" points="377.281,-328.515 386.703,-323.67 376.316,-321.582 377.281,-328.515"/>
</g>
<!-- Node12 -->
<g id="node12" class="node"><title>Node12</title>
<g id="a_node12"><a xlink:href="classRa_1_1Core_1_1TriangleMesh.html#a40d31b7b2943947d6eac5d906f0182fd" target="_top" xlink:title="Access the vertices normals. ">
<polygon fill="white" stroke="black" points="389.5,-398 389.5,-428 510.5,-428 510.5,-398 389.5,-398"/>
<text text-anchor="start" x="397.5" y="-416" font-family="Helvetica,sans-Serif" font-size="10.00">Ra::Core::TriangleMesh</text>
<text text-anchor="middle" x="450" y="-405" font-family="Helvetica,sans-Serif" font-size="10.00">::normals</text>
</a>
</g>
</g>
<!-- Node7&#45;&gt;Node12 -->
<g id="edge13" class="edge"><title>Node7&#45;&gt;Node12</title>
<path fill="none" stroke="midnightblue" d="M290.738,-357.088C313.309,-366.419 343.173,-378.405 370,-388 376.371,-390.279 383.067,-392.564 389.754,-394.776"/>
<polygon fill="midnightblue" stroke="midnightblue" points="388.913,-398.183 399.506,-397.956 391.084,-391.528 388.913,-398.183"/>
</g>
<!-- Node12&#45;&gt;Node4 -->
<g id="edge14" class="edge"><title>Node12&#45;&gt;Node4</title>
<path fill="none" stroke="midnightblue" d="M510.586,-421.125C525.17,-423.114 540.921,-425.262 555.983,-427.316"/>
<polygon fill="midnightblue" stroke="midnightblue" points="555.896,-430.836 566.277,-428.72 556.841,-423.9 555.896,-430.836"/>
</g>
<!-- Node13&#45;&gt;Node10 -->
<g id="edge16" class="edge"><title>Node13&#45;&gt;Node10</title>
<path fill="none" stroke="midnightblue" d="M306.734,-242.533C330.213,-239.145 358.254,-235.097 383.21,-231.495"/>
<polygon fill="midnightblue" stroke="midnightblue" points="383.932,-234.928 393.329,-230.035 382.932,-227.999 383.932,-234.928"/>
</g>
<!-- Node15 -->
<g id="node15" class="node"><title>Node15</title>
<g id="a_node15"><a xlink:href="classRa_1_1Engine_1_1ShaderConfiguration.html#a7e20a600c78e8627f0238b342f4b42f2" target="_top" xlink:title="Ra::Engine::ShaderConfiguration\l::getDefaultShaderConfig">
<polygon fill="white" stroke="black" points="370,-125 370,-155 530,-155 530,-125 370,-125"/>
<text text-anchor="start" x="378" y="-143" font-family="Helvetica,sans-Serif" font-size="10.00">Ra::Engine::ShaderConfiguration</text>
<text text-anchor="middle" x="450" y="-132" font-family="Helvetica,sans-Serif" font-size="10.00">::getDefaultShaderConfig</text>
</a>
</g>
</g>
<!-- Node14&#45;&gt;Node15 -->
<g id="edge18" class="edge"><title>Node14&#45;&gt;Node15</title>
<path fill="none" stroke="midnightblue" d="M334.187,-153.02C342.621,-152.064 351.241,-151.086 359.781,-150.118"/>
<polygon fill="midnightblue" stroke="midnightblue" points="360.21,-153.592 369.752,-148.987 359.421,-146.636 360.21,-153.592"/>
</g>
</g>
</svg>
