<?xml version="1.0" encoding="UTF-8" standalone="no"?>
<!DOCTYPE svg PUBLIC "-//W3C//DTD SVG 1.1//EN"
 "http://www.w3.org/Graphics/SVG/1.1/DTD/svg11.dtd">
<!-- Generated by graphviz version 2.36.0 (20140111.2315)
 -->
<!-- Title: MeshPaintPlugin::MeshPaintSystem::handleAssetLoading Pages: 1 -->
<svg width="490pt" height="234pt"
 viewBox="0.00 0.00 490.00 234.00" xmlns="http://www.w3.org/2000/svg" xmlns:xlink="http://www.w3.org/1999/xlink">
<g id="graph0" class="graph" transform="scale(1 1) rotate(0) translate(4 230)">
<title>MeshPaintPlugin::MeshPaintSystem::handleAssetLoading</title>
<polygon fill="white" stroke="none" points="-4,4 -4,-230 486,-230 486,4 -4,4"/>
<!-- Node1 -->
<g id="node1" class="node"><title>Node1</title>
<polygon fill="#bfbfbf" stroke="black" points="0,-122 0,-152 144,-152 144,-122 0,-122"/>
<text text-anchor="start" x="8" y="-140" font-family="Helvetica,sans-Serif" font-size="10.00">MeshPaintPlugin::MeshPaint</text>
<text text-anchor="middle" x="72" y="-129" font-family="Helvetica,sans-Serif" font-size="10.00">System::handleAssetLoading</text>
</g>
<!-- Node2 -->
<g id="node2" class="node"><title>Node2</title>
<g id="a_node2"><a xlink:href="classRa_1_1Asset_1_1FileData.html#a067251ed4ac8d221a1bc373ea7a4b158" target="_top" xlink:title="DATA. ">
<polygon fill="white" stroke="black" points="200,-196 200,-226 304,-226 304,-196 200,-196"/>
<text text-anchor="start" x="208" y="-214" font-family="Helvetica,sans-Serif" font-size="10.00">Ra::Asset::FileData</text>
<text text-anchor="middle" x="252" y="-203" font-family="Helvetica,sans-Serif" font-size="10.00">::getGeometryData</text>
</a>
</g>
</g>
<!-- Node1&#45;&gt;Node2 -->
<g id="edge1" class="edge"><title>Node1&#45;&gt;Node2</title>
<path fill="none" stroke="midnightblue" d="M104.043,-152.123C125.228,-162.218 154.047,-175.514 180,-186 185.356,-188.164 190.979,-190.326 196.617,-192.422"/>
<polygon fill="midnightblue" stroke="midnightblue" points="195.482,-195.734 206.076,-195.877 197.884,-189.159 195.482,-195.734"/>
</g>
<!-- Node4 -->
<g id="node4" class="node"><title>Node4</title>
<g id="a_node4"><a xlink:href="classRa_1_1Engine_1_1Entity.html#aaf256bea44bbc5bff6aa504aca05ca35" target="_top" xlink:title="Ra::Engine::Entity\l::getName">
<polygon fill="white" stroke="black" points="203.5,-147 203.5,-177 300.5,-177 300.5,-147 203.5,-147"/>
<text text-anchor="start" x="211.5" y="-165" font-family="Helvetica,sans-Serif" font-size="10.00">Ra::Engine::Entity</text>
<text text-anchor="middle" x="252" y="-154" font-family="Helvetica,sans-Serif" font-size="10.00">::getName</text>
</a>
</g>
</g>
<!-- Node1&#45;&gt;Node4 -->
<g id="edge3" class="edge"><title>Node1&#45;&gt;Node4</title>
<path fill="none" stroke="midnightblue" d="M144.118,-146.988C160.481,-149.287 177.686,-151.703 193.395,-153.909"/>
<polygon fill="midnightblue" stroke="midnightblue" points="193.088,-157.401 203.477,-155.325 194.061,-150.469 193.088,-157.401"/>
</g>
<!-- Node5 -->
<g id="node5" class="node"><title>Node5</title>
<g id="a_node5"><a xlink:href="classMeshPaintPlugin_1_1MeshPaintComponent.html#a253026c18a3482cf9e60dceb70e341d5" target="_top" xlink:title="MeshPaintPlugin::MeshPaint\lComponent::setDataId">
<polygon fill="white" stroke="black" points="180.5,-98 180.5,-128 323.5,-128 323.5,-98 180.5,-98"/>
<text text-anchor="start" x="188.5" y="-116" font-family="Helvetica,sans-Serif" font-size="10.00">MeshPaintPlugin::MeshPaint</text>
<text text-anchor="middle" x="252" y="-105" font-family="Helvetica,sans-Serif" font-size="10.00">Component::setDataId</text>
</a>
</g>
</g>
<!-- Node1&#45;&gt;Node5 -->
<g id="edge4" class="edge"><title>Node1&#45;&gt;Node5</title>
<path fill="none" stroke="midnightblue" d="M144.118,-127.411C152.679,-126.257 161.47,-125.071 170.156,-123.9"/>
<polygon fill="midnightblue" stroke="midnightblue" points="170.843,-127.339 180.286,-122.535 169.908,-120.402 170.843,-127.339"/>
</g>
<!-- Node6 -->
<g id="node6" class="node"><title>Node6</title>
<g id="a_node6"><a xlink:href="classRa_1_1Engine_1_1System.html#ad7b2a746c42f08a729b4df9b991293a8" target="_top" xlink:title="Registers a component belonging to an entity, making it active within the system. ...">
<polygon fill="white" stroke="black" points="199.5,-49 199.5,-79 304.5,-79 304.5,-49 199.5,-49"/>
<text text-anchor="start" x="207.5" y="-67" font-family="Helvetica,sans-Serif" font-size="10.00">Ra::Engine::System</text>
<text text-anchor="middle" x="252" y="-56" font-family="Helvetica,sans-Serif" font-size="10.00">::registerComponent</text>
</a>
</g>
</g>
<!-- Node1&#45;&gt;Node6 -->
<g id="edge5" class="edge"><title>Node1&#45;&gt;Node6</title>
<path fill="none" stroke="midnightblue" d="M103.538,-121.993C124.746,-111.825 153.792,-98.3982 180,-88 184.717,-86.1286 189.644,-84.2703 194.609,-82.4647"/>
<polygon fill="midnightblue" stroke="midnightblue" points="195.908,-85.7176 204.156,-79.0676 193.561,-79.1226 195.908,-85.7176"/>
</g>
<!-- Node3 -->
<g id="node3" class="node"><title>Node3</title>
<g id="a_node3"><a xlink:href="namespaceRa_1_1Core.html#af6bcd3f2b48d9770b18ec88249e607bc" target="_top" xlink:title="LIST. ">
<polygon fill="white" stroke="black" points="383.5,-201.5 383.5,-220.5 458.5,-220.5 458.5,-201.5 383.5,-201.5"/>
<text text-anchor="middle" x="421" y="-208.5" font-family="Helvetica,sans-Serif" font-size="10.00">Ra::Core::list</text>
</a>
</g>
</g>
<!-- Node2&#45;&gt;Node3 -->
<g id="edge2" class="edge"><title>Node2&#45;&gt;Node3</title>
<path fill="none" stroke="midnightblue" d="M304.013,-211C326.022,-211 351.599,-211 373.126,-211"/>
<polygon fill="midnightblue" stroke="midnightblue" points="373.335,-214.5 383.335,-211 373.335,-207.5 373.335,-214.5"/>
</g>
<!-- Node7 -->
<g id="node7" class="node"><title>Node7</title>
<g id="a_node7"><a xlink:href="classRa_1_1Engine_1_1Component.html#a207c1dc2e97856c22e0767fb77162933" target="_top" xlink:title="Return the entity the component belongs to. ">
<polygon fill="white" stroke="black" points="360,-98 360,-128 482,-128 482,-98 360,-98"/>
<text text-anchor="start" x="368" y="-116" font-family="Helvetica,sans-Serif" font-size="10.00">Ra::Engine::Component</text>
<text text-anchor="middle" x="421" y="-105" font-family="Helvetica,sans-Serif" font-size="10.00">::getEntity</text>
</a>
</g>
</g>
<!-- Node6&#45;&gt;Node7 -->
<g id="edge6" class="edge"><title>Node6&#45;&gt;Node7</title>
<path fill="none" stroke="midnightblue" d="M304.468,-79.1014C321.692,-84.1551 341.059,-89.8376 358.942,-95.0848"/>
<polygon fill="midnightblue" stroke="midnightblue" points="358.121,-98.4913 368.702,-97.9484 360.092,-91.7745 358.121,-98.4913"/>
</g>
<!-- Node8 -->
<g id="node8" class="node"><title>Node8</title>
<g id="a_node8"><a xlink:href="classRa_1_1Engine_1_1Component.html#aa3e5cb90432a9a49e4362b673652ff76" target="_top" xlink:title="Return the component&#39;s name. ">
<polygon fill="white" stroke="black" points="360,-49 360,-79 482,-79 482,-49 360,-49"/>
<text text-anchor="start" x="368" y="-67" font-family="Helvetica,sans-Serif" font-size="10.00">Ra::Engine::Component</text>
<text text-anchor="middle" x="421" y="-56" font-family="Helvetica,sans-Serif" font-size="10.00">::getName</text>
</a>
</g>
</g>
<!-- Node6&#45;&gt;Node8 -->
<g id="edge7" class="edge"><title>Node6&#45;&gt;Node8</title>
<path fill="none" stroke="midnightblue" d="M304.924,-64C319.083,-64 334.663,-64 349.661,-64"/>
<polygon fill="midnightblue" stroke="midnightblue" points="349.927,-67.5001 359.927,-64 349.927,-60.5001 349.927,-67.5001"/>
</g>
<!-- Node9 -->
<g id="node9" class="node"><title>Node9</title>
<g id="a_node9"><a xlink:href="classRa_1_1Engine_1_1Component.html#aa9416af3319ba92aa7b532952c75e477" target="_top" xlink:title="Set the system to which the component belongs. ">
<polygon fill="white" stroke="black" points="360,-0 360,-30 482,-30 482,-0 360,-0"/>
<text text-anchor="start" x="368" y="-18" font-family="Helvetica,sans-Serif" font-size="10.00">Ra::Engine::Component</text>
<text text-anchor="middle" x="421" y="-7" font-family="Helvetica,sans-Serif" font-size="10.00">::setSystem</text>
</a>
</g>
</g>
<!-- Node6&#45;&gt;Node9 -->
<g id="edge8" class="edge"><title>Node6&#45;&gt;Node9</title>
<path fill="none" stroke="midnightblue" d="M304.468,-48.8986C321.692,-43.8449 341.059,-38.1624 358.942,-32.9152"/>
<polygon fill="midnightblue" stroke="midnightblue" points="360.092,-36.2255 368.702,-30.0516 358.121,-29.5087 360.092,-36.2255"/>
</g>
</g>
</svg>
