<?xml version="1.0" encoding="UTF-8" standalone="no"?>
<!DOCTYPE svg PUBLIC "-//W3C//DTD SVG 1.1//EN"
 "http://www.w3.org/Graphics/SVG/1.1/DTD/svg11.dtd">
<!-- Generated by graphviz version 2.36.0 (20140111.2315)
 -->
<!-- Title: FancyMeshPlugin::FancyMeshPluginC::registerPlugin Pages: 1 -->
<svg width="332pt" height="38pt"
 viewBox="0.00 0.00 332.00 38.00" xmlns="http://www.w3.org/2000/svg" xmlns:xlink="http://www.w3.org/1999/xlink">
<g id="graph0" class="graph" transform="scale(1 1) rotate(0) translate(4 34)">
<title>FancyMeshPlugin::FancyMeshPluginC::registerPlugin</title>
<polygon fill="white" stroke="none" points="-4,4 -4,-34 328,-34 328,4 -4,4"/>
<!-- Node1 -->
<g id="node1" class="node"><title>Node1</title>
<polygon fill="#bfbfbf" stroke="black" points="0,-0 0,-30 152,-30 152,-0 0,-0"/>
<text text-anchor="start" x="8" y="-18" font-family="Helvetica,sans-Serif" font-size="10.00">FancyMeshPlugin::FancyMesh</text>
<text text-anchor="middle" x="76" y="-7" font-family="Helvetica,sans-Serif" font-size="10.00">PluginC::registerPlugin</text>
</g>
<!-- Node2 -->
<g id="node2" class="node"><title>Node2</title>
<g id="a_node2"><a xlink:href="classRa_1_1Engine_1_1RadiumEngine.html#a9abd65287df1c7560d06ff09e4995ef9" target="_top" xlink:title="Ra::Engine::RadiumEngine\l::registerSystem">
<polygon fill="white" stroke="black" points="188.5,-0 188.5,-30 323.5,-30 323.5,-0 188.5,-0"/>
<text text-anchor="start" x="196.5" y="-18" font-family="Helvetica,sans-Serif" font-size="10.00">Ra::Engine::RadiumEngine</text>
<text text-anchor="middle" x="256" y="-7" font-family="Helvetica,sans-Serif" font-size="10.00">::registerSystem</text>
</a>
</g>
</g>
<!-- Node1&#45;&gt;Node2 -->
<g id="edge1" class="edge"><title>Node1&#45;&gt;Node2</title>
<path fill="none" stroke="midnightblue" d="M152.23,-15C160.823,-15 169.591,-15 178.204,-15"/>
<polygon fill="midnightblue" stroke="midnightblue" points="178.224,-18.5001 188.224,-15 178.224,-11.5001 178.224,-18.5001"/>
</g>
</g>
</svg>
