<?xml version="1.0" encoding="UTF-8" standalone="no"?>
<!DOCTYPE svg PUBLIC "-//W3C//DTD SVG 1.1//EN"
 "http://www.w3.org/Graphics/SVG/1.1/DTD/svg11.dtd">
<!-- Generated by graphviz version 2.36.0 (20140111.2315)
 -->
<!-- Title: Ra::Engine::ForwardRenderer::renderInternal Pages: 1 -->
<svg width="670pt" height="207pt"
 viewBox="0.00 0.00 670.00 207.00" xmlns="http://www.w3.org/2000/svg" xmlns:xlink="http://www.w3.org/1999/xlink">
<g id="graph0" class="graph" transform="scale(1 1) rotate(0) translate(4 203)">
<title>Ra::Engine::ForwardRenderer::renderInternal</title>
<polygon fill="white" stroke="none" points="-4,4 -4,-203 666,-203 666,4 -4,4"/>
<!-- Node1 -->
<g id="node1" class="node"><title>Node1</title>
<polygon fill="#bfbfbf" stroke="black" points="0,-73 0,-103 146,-103 146,-73 0,-73"/>
<text text-anchor="start" x="8" y="-91" font-family="Helvetica,sans-Serif" font-size="10.00">Ra::Engine::ForwardRenderer</text>
<text text-anchor="middle" x="73" y="-80" font-family="Helvetica,sans-Serif" font-size="10.00">::renderInternal</text>
</g>
<!-- Node2 -->
<g id="node2" class="node"><title>Node2</title>
<g id="a_node2"><a xlink:href="classRa_1_1Engine_1_1DirectionalLight.html#a4fc5f3488577b5330451b0713d51abcf" target="_top" xlink:title="Ra::Engine::DirectionalLight\l::getRenderParameters">
<polygon fill="white" stroke="black" points="183.5,-147 183.5,-177 322.5,-177 322.5,-147 183.5,-147"/>
<text text-anchor="start" x="191.5" y="-165" font-family="Helvetica,sans-Serif" font-size="10.00">Ra::Engine::DirectionalLight</text>
<text text-anchor="middle" x="253" y="-154" font-family="Helvetica,sans-Serif" font-size="10.00">::getRenderParameters</text>
</a>
</g>
</g>
<!-- Node1&#45;&gt;Node2 -->
<g id="edge1" class="edge"><title>Node1&#45;&gt;Node2</title>
<path fill="none" stroke="midnightblue" d="M105.364,-103.062C126.76,-113.131 155.852,-126.42 182,-137 187.364,-139.171 192.997,-141.348 198.64,-143.463"/>
<polygon fill="midnightblue" stroke="midnightblue" points="197.507,-146.775 208.1,-146.951 199.929,-140.207 197.507,-146.775"/>
</g>
<!-- Node5 -->
<g id="node5" class="node"><title>Node5</title>
<g id="a_node5"><a xlink:href="classRa_1_1Engine_1_1ShaderProgramManager.html#a5ddf7b2a65b82380204c6bb5da2127d2" target="_top" xlink:title="Ra::Engine::ShaderProgram\lManager::getShaderProgram">
<polygon fill="white" stroke="black" points="182.5,-98 182.5,-128 323.5,-128 323.5,-98 182.5,-98"/>
<text text-anchor="start" x="190.5" y="-116" font-family="Helvetica,sans-Serif" font-size="10.00">Ra::Engine::ShaderProgram</text>
<text text-anchor="middle" x="253" y="-105" font-family="Helvetica,sans-Serif" font-size="10.00">Manager::getShaderProgram</text>
</a>
</g>
</g>
<!-- Node1&#45;&gt;Node5 -->
<g id="edge5" class="edge"><title>Node1&#45;&gt;Node5</title>
<path fill="none" stroke="midnightblue" d="M146.143,-98.1324C154.732,-99.3387 163.538,-100.576 172.226,-101.796"/>
<polygon fill="midnightblue" stroke="midnightblue" points="171.96,-105.293 182.35,-103.218 172.934,-98.3608 171.96,-105.293"/>
</g>
<!-- Node6 -->
<g id="node6" class="node"><title>Node6</title>
<g id="a_node6"><a xlink:href="classRa_1_1Engine_1_1ShaderProgram.html#a63faeab38c95dbcb4514a94c1e785890" target="_top" xlink:title="Ra::Engine::ShaderProgram\l::bind">
<polygon fill="white" stroke="black" points="183.5,-49 183.5,-79 322.5,-79 322.5,-49 183.5,-49"/>
<text text-anchor="start" x="191.5" y="-67" font-family="Helvetica,sans-Serif" font-size="10.00">Ra::Engine::ShaderProgram</text>
<text text-anchor="middle" x="253" y="-56" font-family="Helvetica,sans-Serif" font-size="10.00">::bind</text>
</a>
</g>
</g>
<!-- Node1&#45;&gt;Node6 -->
<g id="edge6" class="edge"><title>Node1&#45;&gt;Node6</title>
<path fill="none" stroke="midnightblue" d="M146.143,-78.2729C155.105,-77.0645 164.304,-75.8241 173.358,-74.6034"/>
<polygon fill="midnightblue" stroke="midnightblue" points="174.056,-78.041 183.499,-73.2361 173.121,-71.1038 174.056,-78.041"/>
</g>
<!-- Node7 -->
<g id="node7" class="node"><title>Node7</title>
<g id="a_node7"><a xlink:href="classRa_1_1Engine_1_1ShaderProgram.html#a5f7ae2880276f421c378810e3da65c4c" target="_top" xlink:title="Ra::Engine::ShaderProgram\l::setUniform">
<polygon fill="white" stroke="black" points="183.5,-0 183.5,-30 322.5,-30 322.5,-0 183.5,-0"/>
<text text-anchor="start" x="191.5" y="-18" font-family="Helvetica,sans-Serif" font-size="10.00">Ra::Engine::ShaderProgram</text>
<text text-anchor="middle" x="253" y="-7" font-family="Helvetica,sans-Serif" font-size="10.00">::setUniform</text>
</a>
</g>
</g>
<!-- Node1&#45;&gt;Node7 -->
<g id="edge7" class="edge"><title>Node1&#45;&gt;Node7</title>
<path fill="none" stroke="midnightblue" d="M106.339,-72.8636C127.655,-63.0761 156.282,-50.2905 182,-40 187.373,-37.8502 193.011,-35.6864 198.657,-33.5795"/>
<polygon fill="midnightblue" stroke="midnightblue" points="199.943,-36.8359 208.121,-30.1 197.527,-30.2659 199.943,-36.8359"/>
</g>
<!-- Node3 -->
<g id="node3" class="node"><title>Node3</title>
<g id="a_node3"><a xlink:href="classRa_1_1Engine_1_1Light.html#a9615ae533394f6672f395b83619e5a75" target="_top" xlink:title="Ra::Engine::Light::\lgetRenderParameters">
<polygon fill="white" stroke="black" points="360,-169 360,-199 472,-199 472,-169 360,-169"/>
<text text-anchor="start" x="368" y="-187" font-family="Helvetica,sans-Serif" font-size="10.00">Ra::Engine::Light::</text>
<text text-anchor="middle" x="416" y="-176" font-family="Helvetica,sans-Serif" font-size="10.00">getRenderParameters</text>
</a>
</g>
</g>
<!-- Node2&#45;&gt;Node3 -->
<g id="edge2" class="edge"><title>Node2&#45;&gt;Node3</title>
<path fill="none" stroke="midnightblue" d="M322.745,-171.394C331.591,-172.603 340.631,-173.838 349.424,-175.039"/>
<polygon fill="midnightblue" stroke="midnightblue" points="349.225,-178.545 359.607,-176.431 350.173,-171.609 349.225,-178.545"/>
</g>
<!-- Node4 -->
<g id="node4" class="node"><title>Node4</title>
<g id="a_node4"><a xlink:href="classRa_1_1Engine_1_1RenderParameters.html#a2f0d6512a9889fb3a9cb2173c5ce12ed" target="_top" xlink:title="Ra::Engine::RenderParameters\l::addParameter">
<polygon fill="white" stroke="black" points="508.5,-147 508.5,-177 661.5,-177 661.5,-147 508.5,-147"/>
<text text-anchor="start" x="516.5" y="-165" font-family="Helvetica,sans-Serif" font-size="10.00">Ra::Engine::RenderParameters</text>
<text text-anchor="middle" x="585" y="-154" font-family="Helvetica,sans-Serif" font-size="10.00">::addParameter</text>
</a>
</g>
</g>
<!-- Node2&#45;&gt;Node4 -->
<g id="edge4" class="edge"><title>Node2&#45;&gt;Node4</title>
<path fill="none" stroke="midnightblue" d="M322.706,-160.515C335.119,-160.3 347.945,-160.114 360,-160 409.776,-159.53 422.224,-159.556 472,-160 480.548,-160.076 489.463,-160.185 498.366,-160.314"/>
<polygon fill="midnightblue" stroke="midnightblue" points="498.342,-163.814 508.394,-160.466 498.448,-156.814 498.342,-163.814"/>
</g>
<!-- Node3&#45;&gt;Node4 -->
<g id="edge3" class="edge"><title>Node3&#45;&gt;Node4</title>
<path fill="none" stroke="midnightblue" d="M472.145,-176.735C480.566,-175.626 489.424,-174.459 498.316,-173.288"/>
<polygon fill="midnightblue" stroke="midnightblue" points="498.889,-176.743 508.346,-171.966 497.975,-169.802 498.889,-176.743"/>
</g>
</g>
</svg>
