<?xml version="1.0" encoding="UTF-8" standalone="no"?>
<!DOCTYPE svg PUBLIC "-//W3C//DTD SVG 1.1//EN"
 "http://www.w3.org/Graphics/SVG/1.1/DTD/svg11.dtd">
<!-- Generated by graphviz version 2.36.0 (20140111.2315)
 -->
<!-- Title: Ra::Asset::HandleData Pages: 1 -->
<svg width="1075pt" height="978pt"
 viewBox="0.00 0.00 1075.00 978.00" xmlns="http://www.w3.org/2000/svg" xmlns:xlink="http://www.w3.org/1999/xlink">
<g id="graph0" class="graph" transform="scale(1 1) rotate(0) translate(4 974)">
<title>Ra::Asset::HandleData</title>
<polygon fill="white" stroke="none" points="-4,4 -4,-974 1071,-974 1071,4 -4,4"/>
<!-- Node1 -->
<g id="node1" class="node"><title>Node1</title>
<polygon fill="#bfbfbf" stroke="black" points="568,-1 568,-421 704,-421 704,-1 568,-1"/>
<text text-anchor="middle" x="636" y="-409" font-family="Helvetica,sans-Serif" font-size="10.00">Ra::Asset::HandleData</text>
<polyline fill="none" stroke="black" points="568,-402 704,-402 "/>
<text text-anchor="middle" x="636" y="-390" font-family="Helvetica,sans-Serif" font-size="10.00"> </text>
<polyline fill="none" stroke="black" points="568,-383 704,-383 "/>
<text text-anchor="start" x="576" y="-371" font-family="Helvetica,sans-Serif" font-size="10.00">+ HandleData()</text>
<text text-anchor="start" x="576" y="-360" font-family="Helvetica,sans-Serif" font-size="10.00">+ HandleData()</text>
<text text-anchor="start" x="576" y="-349" font-family="Helvetica,sans-Serif" font-size="10.00">+ ~HandleData()</text>
<text text-anchor="start" x="576" y="-338" font-family="Helvetica,sans-Serif" font-size="10.00">+ setName()</text>
<text text-anchor="start" x="576" y="-327" font-family="Helvetica,sans-Serif" font-size="10.00">+ getType()</text>
<text text-anchor="start" x="576" y="-316" font-family="Helvetica,sans-Serif" font-size="10.00">+ setType()</text>
<text text-anchor="start" x="576" y="-305" font-family="Helvetica,sans-Serif" font-size="10.00">+ getFrame()</text>
<text text-anchor="start" x="576" y="-294" font-family="Helvetica,sans-Serif" font-size="10.00">+ setFrame()</text>
<text text-anchor="start" x="576" y="-283" font-family="Helvetica,sans-Serif" font-size="10.00">+ getVertexSize()</text>
<text text-anchor="start" x="576" y="-272" font-family="Helvetica,sans-Serif" font-size="10.00">+ setVertexSize()</text>
<text text-anchor="start" x="576" y="-261" font-family="Helvetica,sans-Serif" font-size="10.00">+ setNameTable()</text>
<text text-anchor="start" x="576" y="-250" font-family="Helvetica,sans-Serif" font-size="10.00">+ getComponentDataSize()</text>
<text text-anchor="start" x="576" y="-239" font-family="Helvetica,sans-Serif" font-size="10.00">+ getComponentData()</text>
<text text-anchor="start" x="576" y="-228" font-family="Helvetica,sans-Serif" font-size="10.00">+ getComponentData()</text>
<text text-anchor="start" x="576" y="-217" font-family="Helvetica,sans-Serif" font-size="10.00">+ getComponent()</text>
<text text-anchor="start" x="576" y="-206" font-family="Helvetica,sans-Serif" font-size="10.00">+ getComponent()</text>
<text text-anchor="start" x="576" y="-195" font-family="Helvetica,sans-Serif" font-size="10.00">+ setComponents()</text>
<text text-anchor="start" x="576" y="-184" font-family="Helvetica,sans-Serif" font-size="10.00">+ getEdgeData()</text>
<text text-anchor="start" x="576" y="-173" font-family="Helvetica,sans-Serif" font-size="10.00">+ getEdgeData()</text>
<text text-anchor="start" x="576" y="-162" font-family="Helvetica,sans-Serif" font-size="10.00">+ setEdges()</text>
<text text-anchor="start" x="576" y="-151" font-family="Helvetica,sans-Serif" font-size="10.00">+ getFaceData()</text>
<text text-anchor="start" x="576" y="-140" font-family="Helvetica,sans-Serif" font-size="10.00">+ getFaceData()</text>
<text text-anchor="start" x="576" y="-129" font-family="Helvetica,sans-Serif" font-size="10.00">+ setFaces()</text>
<text text-anchor="start" x="576" y="-118" font-family="Helvetica,sans-Serif" font-size="10.00">+ recomputeAllIndices()</text>
<text text-anchor="start" x="576" y="-107" font-family="Helvetica,sans-Serif" font-size="10.00">+ isPointCloud()</text>
<text text-anchor="start" x="576" y="-96" font-family="Helvetica,sans-Serif" font-size="10.00">+ isSkeleton()</text>
<text text-anchor="start" x="576" y="-85" font-family="Helvetica,sans-Serif" font-size="10.00">+ isCage()</text>
<text text-anchor="start" x="576" y="-74" font-family="Helvetica,sans-Serif" font-size="10.00">+ hasComponents()</text>
<text text-anchor="start" x="576" y="-63" font-family="Helvetica,sans-Serif" font-size="10.00">+ hasEdges()</text>
<text text-anchor="start" x="576" y="-52" font-family="Helvetica,sans-Serif" font-size="10.00">+ hasFaces()</text>
<text text-anchor="start" x="576" y="-41" font-family="Helvetica,sans-Serif" font-size="10.00">+ needsEndNodes()</text>
<text text-anchor="start" x="576" y="-30" font-family="Helvetica,sans-Serif" font-size="10.00">+ getIndexOf()</text>
<text text-anchor="start" x="576" y="-19" font-family="Helvetica,sans-Serif" font-size="10.00">+ needEndNodes()</text>
<text text-anchor="start" x="576" y="-8" font-family="Helvetica,sans-Serif" font-size="10.00">+ displayInfo()</text>
</g>
<!-- Node2 -->
<g id="node2" class="node"><title>Node2</title>
<g id="a_node2"><a xlink:href="classRa_1_1Asset_1_1AssetData.html" target="_top" xlink:title="{Ra::Asset::AssetData\n||+ AssetData()\l+ ~AssetData()\l+ getName()\l}">
<polygon fill="white" stroke="black" points="-0.5,-470.5 -0.5,-549.5 112.5,-549.5 112.5,-470.5 -0.5,-470.5"/>
<text text-anchor="middle" x="56" y="-537.5" font-family="Helvetica,sans-Serif" font-size="10.00">Ra::Asset::AssetData</text>
<polyline fill="none" stroke="black" points="-0.5,-530.5 112.5,-530.5 "/>
<text text-anchor="middle" x="56" y="-518.5" font-family="Helvetica,sans-Serif" font-size="10.00"> </text>
<polyline fill="none" stroke="black" points="-0.5,-511.5 112.5,-511.5 "/>
<text text-anchor="start" x="7.5" y="-499.5" font-family="Helvetica,sans-Serif" font-size="10.00">+ AssetData()</text>
<text text-anchor="start" x="7.5" y="-488.5" font-family="Helvetica,sans-Serif" font-size="10.00">+ ~AssetData()</text>
<text text-anchor="start" x="7.5" y="-477.5" font-family="Helvetica,sans-Serif" font-size="10.00">+ getName()</text>
</a>
</g>
</g>
<!-- Node2&#45;&gt;Node1 -->
<g id="edge1" class="edge"><title>Node2&#45;&gt;Node1</title>
<path fill="none" stroke="midnightblue" d="M121.715,-470.156C121.81,-470.104 121.905,-470.052 122,-470 279.331,-384.161 468.734,-291.854 567.882,-244.352"/>
<polygon fill="none" stroke="midnightblue" points="119.784,-467.224 112.74,-475.139 123.182,-473.344 119.784,-467.224"/>
</g>
<!-- Node3 -->
<g id="node3" class="node"><title>Node3</title>
<g id="a_node3"><a xlink:title="STL class. ">
<polygon fill="white" stroke="#bfbfbf" points="51,-608.5 51,-665.5 111,-665.5 111,-608.5 51,-608.5"/>
<text text-anchor="middle" x="81" y="-653.5" font-family="Helvetica,sans-Serif" font-size="10.00">std::string</text>
<polyline fill="none" stroke="#bfbfbf" points="51,-646.5 111,-646.5 "/>
<text text-anchor="middle" x="81" y="-634.5" font-family="Helvetica,sans-Serif" font-size="10.00"> </text>
<polyline fill="none" stroke="#bfbfbf" points="51,-627.5 111,-627.5 "/>
<text text-anchor="middle" x="81" y="-615.5" font-family="Helvetica,sans-Serif" font-size="10.00"> </text>
</a>
</g>
</g>
<!-- Node3&#45;&gt;Node2 -->
<g id="edge2" class="edge"><title>Node3&#45;&gt;Node2</title>
<path fill="none" stroke="#404040" d="M60.2239,-608.492C56.8336,-602.665 53.8342,-596.349 52,-590 49.4292,-581.102 48.4907,-571.409 48.5028,-561.957"/>
<polygon fill="none" stroke="#404040" points="48.5113,-561.749 44.7635,-555.588 49.0089,-549.759 52.7567,-555.92 48.5113,-561.749"/>
<text text-anchor="middle" x="75" y="-576.5" font-family="Helvetica,sans-Serif" font-size="10.00"> #m_name</text>
</g>
<!-- Node10 -->
<g id="node10" class="node"><title>Node10</title>
<polygon fill="white" stroke="#bfbfbf" points="131,-476 131,-544 241,-544 241,-476 131,-476"/>
<text text-anchor="start" x="139" y="-532" font-family="Helvetica,sans-Serif" font-size="10.00">std::map&lt; std::string,</text>
<text text-anchor="middle" x="186" y="-521" font-family="Helvetica,sans-Serif" font-size="10.00"> uint &gt;</text>
<polyline fill="none" stroke="#bfbfbf" points="131,-514 241,-514 "/>
<text text-anchor="middle" x="186" y="-502" font-family="Helvetica,sans-Serif" font-size="10.00"> </text>
<polyline fill="none" stroke="#bfbfbf" points="131,-495 241,-495 "/>
<text text-anchor="middle" x="186" y="-483" font-family="Helvetica,sans-Serif" font-size="10.00"> </text>
</g>
<!-- Node3&#45;&gt;Node10 -->
<g id="edge11" class="edge"><title>Node3&#45;&gt;Node10</title>
<path fill="none" stroke="#404040" d="M104.303,-608.258C117.659,-592.358 134.712,-572.058 149.779,-554.12"/>
<polygon fill="none" stroke="#404040" points="150.191,-553.63 150.987,-546.463 157.909,-544.441 157.113,-551.608 150.191,-553.63"/>
<text text-anchor="middle" x="152.5" y="-576.5" font-family="Helvetica,sans-Serif" font-size="10.00"> +keys</text>
</g>
<!-- Node4 -->
<g id="node4" class="node"><title>Node4</title>
<g id="a_node4"><a xlink:title="STL class. ">
<polygon fill="white" stroke="#bfbfbf" points="33.5,-795 33.5,-863 128.5,-863 128.5,-795 33.5,-795"/>
<text text-anchor="start" x="41.5" y="-851" font-family="Helvetica,sans-Serif" font-size="10.00">std::basic_string&lt;</text>
<text text-anchor="middle" x="81" y="-840" font-family="Helvetica,sans-Serif" font-size="10.00"> char &gt;</text>
<polyline fill="none" stroke="#bfbfbf" points="33.5,-833 128.5,-833 "/>
<text text-anchor="middle" x="81" y="-821" font-family="Helvetica,sans-Serif" font-size="10.00"> </text>
<polyline fill="none" stroke="#bfbfbf" points="33.5,-814 128.5,-814 "/>
<text text-anchor="middle" x="81" y="-802" font-family="Helvetica,sans-Serif" font-size="10.00"> </text>
</a>
</g>
</g>
<!-- Node4&#45;&gt;Node3 -->
<g id="edge3" class="edge"><title>Node4&#45;&gt;Node3</title>
<path fill="none" stroke="midnightblue" d="M81,-784.555C81,-748.056 81,-696.992 81,-665.78"/>
<polygon fill="none" stroke="midnightblue" points="77.5001,-784.904 81,-794.905 84.5001,-784.905 77.5001,-784.904"/>
</g>
<!-- Node5 -->
<g id="node5" class="node"><title>Node5</title>
<g id="a_node5"><a xlink:href="structRa_1_1Core_1_1AlignedStdVector.html" target="_top" xlink:title="{Ra::Core::AlignedStdVector\l\&lt; Core::VectorNi \&gt;\n||}">
<polygon fill="white" stroke="black" points="465,-476 465,-544 603,-544 603,-476 465,-476"/>
<text text-anchor="start" x="473" y="-532" font-family="Helvetica,sans-Serif" font-size="10.00">Ra::Core::AlignedStdVector</text>
<text text-anchor="middle" x="534" y="-521" font-family="Helvetica,sans-Serif" font-size="10.00">&lt; Core::VectorNi &gt;</text>
<polyline fill="none" stroke="black" points="465,-514 603,-514 "/>
<text text-anchor="middle" x="534" y="-502" font-family="Helvetica,sans-Serif" font-size="10.00"> </text>
<polyline fill="none" stroke="black" points="465,-495 603,-495 "/>
<text text-anchor="middle" x="534" y="-483" font-family="Helvetica,sans-Serif" font-size="10.00"> </text>
</a>
</g>
</g>
<!-- Node5&#45;&gt;Node1 -->
<g id="edge4" class="edge"><title>Node5&#45;&gt;Node1</title>
<path fill="none" stroke="#404040" d="M545.404,-475.795C550.47,-461.043 556.89,-442.351 563.964,-421.751"/>
<polygon fill="none" stroke="#404040" points="564.06,-421.473 562.225,-414.499 567.957,-410.124 569.792,-417.098 564.06,-421.473"/>
<text text-anchor="middle" x="577.5" y="-443.5" font-family="Helvetica,sans-Serif" font-size="10.00"> #m_face</text>
</g>
<!-- Node6 -->
<g id="node6" class="node"><title>Node6</title>
<g id="a_node6"><a xlink:title="STL class. ">
<polygon fill="white" stroke="#bfbfbf" points="473.5,-690.5 473.5,-769.5 624.5,-769.5 624.5,-690.5 473.5,-690.5"/>
<text text-anchor="start" x="481.5" y="-757.5" font-family="Helvetica,sans-Serif" font-size="10.00">std::vector&lt; Core::</text>
<text text-anchor="start" x="481.5" y="-746.5" font-family="Helvetica,sans-Serif" font-size="10.00">VectorNi, Eigen::aligned</text>
<text text-anchor="middle" x="549" y="-735.5" font-family="Helvetica,sans-Serif" font-size="10.00">_allocator&lt; Core::VectorNi &gt; &gt;</text>
<polyline fill="none" stroke="#bfbfbf" points="473.5,-728.5 624.5,-728.5 "/>
<text text-anchor="middle" x="549" y="-716.5" font-family="Helvetica,sans-Serif" font-size="10.00"> </text>
<polyline fill="none" stroke="#bfbfbf" points="473.5,-709.5 624.5,-709.5 "/>
<text text-anchor="middle" x="549" y="-697.5" font-family="Helvetica,sans-Serif" font-size="10.00"> </text>
</a>
</g>
</g>
<!-- Node6&#45;&gt;Node5 -->
<g id="edge5" class="edge"><title>Node6&#45;&gt;Node5</title>
<path fill="none" stroke="midnightblue" d="M545.636,-680.115C542.781,-638.617 538.762,-580.203 536.272,-544.019"/>
<polygon fill="none" stroke="midnightblue" points="542.157,-680.541 546.336,-690.277 549.141,-680.06 542.157,-680.541"/>
</g>
<!-- Node7 -->
<g id="node7" class="node"><title>Node7</title>
<polygon fill="white" stroke="#bfbfbf" points="534.5,-912.5 534.5,-969.5 563.5,-969.5 563.5,-912.5 534.5,-912.5"/>
<text text-anchor="middle" x="549" y="-957.5" font-family="Helvetica,sans-Serif" font-size="10.00">T</text>
<polyline fill="none" stroke="#bfbfbf" points="534.5,-950.5 563.5,-950.5 "/>
<text text-anchor="middle" x="549" y="-938.5" font-family="Helvetica,sans-Serif" font-size="10.00"> </text>
<polyline fill="none" stroke="#bfbfbf" points="534.5,-931.5 563.5,-931.5 "/>
<text text-anchor="middle" x="549" y="-919.5" font-family="Helvetica,sans-Serif" font-size="10.00"> </text>
</g>
<!-- Node7&#45;&gt;Node6 -->
<g id="edge6" class="edge"><title>Node7&#45;&gt;Node6</title>
<path fill="none" stroke="#404040" d="M549,-912.246C549,-879.039 549,-822.787 549,-781.741"/>
<polygon fill="none" stroke="#404040" points="549,-781.534 545,-775.534 549,-769.534 553,-775.534 549,-781.534"/>
<text text-anchor="middle" x="573.5" y="-885.5" font-family="Helvetica,sans-Serif" font-size="10.00"> +elements</text>
</g>
<!-- Node9 -->
<g id="node9" class="node"><title>Node9</title>
<g id="a_node9"><a xlink:title="STL class. ">
<polygon fill="white" stroke="#bfbfbf" points="579,-795 579,-863 707,-863 707,-795 579,-795"/>
<text text-anchor="start" x="587" y="-851" font-family="Helvetica,sans-Serif" font-size="10.00">std::vector&lt; T, Eigen</text>
<text text-anchor="middle" x="643" y="-840" font-family="Helvetica,sans-Serif" font-size="10.00">::aligned_allocator&lt; T &gt; &gt;</text>
<polyline fill="none" stroke="#bfbfbf" points="579,-833 707,-833 "/>
<text text-anchor="middle" x="643" y="-821" font-family="Helvetica,sans-Serif" font-size="10.00"> </text>
<polyline fill="none" stroke="#bfbfbf" points="579,-814 707,-814 "/>
<text text-anchor="middle" x="643" y="-802" font-family="Helvetica,sans-Serif" font-size="10.00"> </text>
</a>
</g>
</g>
<!-- Node7&#45;&gt;Node9 -->
<g id="edge9" class="edge"><title>Node7&#45;&gt;Node9</title>
<path fill="none" stroke="#404040" d="M563.503,-929.273C574.764,-920.526 590.366,-907.457 602,-894 607.45,-887.696 612.707,-880.607 617.533,-873.504"/>
<polygon fill="none" stroke="#404040" points="617.713,-873.228 617.641,-866.017 624.27,-863.177 624.342,-870.388 617.713,-873.228"/>
<text text-anchor="middle" x="636.5" y="-885.5" font-family="Helvetica,sans-Serif" font-size="10.00"> +elements</text>
</g>
<!-- Node12 -->
<g id="node12" class="node"><title>Node12</title>
<g id="a_node12"><a xlink:title="STL class. ">
<polygon fill="white" stroke="#bfbfbf" points="208,-608.5 208,-665.5 300,-665.5 300,-608.5 208,-608.5"/>
<text text-anchor="middle" x="254" y="-653.5" font-family="Helvetica,sans-Serif" font-size="10.00">std::map&lt; K, T &gt;</text>
<polyline fill="none" stroke="#bfbfbf" points="208,-646.5 300,-646.5 "/>
<text text-anchor="middle" x="254" y="-634.5" font-family="Helvetica,sans-Serif" font-size="10.00"> </text>
<polyline fill="none" stroke="#bfbfbf" points="208,-627.5 300,-627.5 "/>
<text text-anchor="middle" x="254" y="-615.5" font-family="Helvetica,sans-Serif" font-size="10.00"> </text>
</a>
</g>
</g>
<!-- Node7&#45;&gt;Node12 -->
<g id="edge15" class="edge"><title>Node7&#45;&gt;Node12</title>
<path fill="none" stroke="#404040" d="M534.395,-937.089C485.134,-926.364 325.161,-883.931 271,-776 255.675,-745.46 252.1,-706.501 251.966,-677.771"/>
<polygon fill="none" stroke="#404040" points="251.966,-677.748 248.036,-671.701 252.106,-665.748 256.036,-671.795 251.966,-677.748"/>
<text text-anchor="middle" x="376.5" y="-826.5" font-family="Helvetica,sans-Serif" font-size="10.00"> +elements</text>
</g>
<!-- Node15 -->
<g id="node15" class="node"><title>Node15</title>
<g id="a_node15"><a xlink:title="STL class. ">
<polygon fill="white" stroke="#bfbfbf" points="665.5,-690.5 665.5,-769.5 814.5,-769.5 814.5,-690.5 665.5,-690.5"/>
<text text-anchor="start" x="673.5" y="-757.5" font-family="Helvetica,sans-Serif" font-size="10.00">std::vector&lt; Core::</text>
<text text-anchor="start" x="673.5" y="-746.5" font-family="Helvetica,sans-Serif" font-size="10.00">Vector2i, Eigen::aligned</text>
<text text-anchor="middle" x="740" y="-735.5" font-family="Helvetica,sans-Serif" font-size="10.00">_allocator&lt; Core::Vector2i &gt; &gt;</text>
<polyline fill="none" stroke="#bfbfbf" points="665.5,-728.5 814.5,-728.5 "/>
<text text-anchor="middle" x="740" y="-716.5" font-family="Helvetica,sans-Serif" font-size="10.00"> </text>
<polyline fill="none" stroke="#bfbfbf" points="665.5,-709.5 814.5,-709.5 "/>
<text text-anchor="middle" x="740" y="-697.5" font-family="Helvetica,sans-Serif" font-size="10.00"> </text>
</a>
</g>
</g>
<!-- Node7&#45;&gt;Node15 -->
<g id="edge18" class="edge"><title>Node7&#45;&gt;Node15</title>
<path fill="none" stroke="#404040" d="M563.743,-938.256C597.316,-933.42 679.384,-916.524 716,-864 732.565,-840.239 738.735,-808.466 740.683,-781.934"/>
<polygon fill="none" stroke="#404040" points="740.692,-781.759 737.009,-775.56 741.316,-769.776 744.998,-775.975 740.692,-781.759"/>
<text text-anchor="middle" x="724.5" y="-885.5" font-family="Helvetica,sans-Serif" font-size="10.00"> +elements</text>
</g>
<!-- Node18 -->
<g id="node18" class="node"><title>Node18</title>
<g id="a_node18"><a xlink:title="STL class. ">
<polygon fill="white" stroke="#bfbfbf" points="272,-685 272,-775 468,-775 468,-685 272,-685"/>
<text text-anchor="start" x="280" y="-763" font-family="Helvetica,sans-Serif" font-size="10.00">std::vector&lt; Ra::Asset</text>
<text text-anchor="start" x="280" y="-752" font-family="Helvetica,sans-Serif" font-size="10.00">::HandleComponentData,</text>
<text text-anchor="start" x="280" y="-741" font-family="Helvetica,sans-Serif" font-size="10.00"> Eigen::aligned_allocator</text>
<text text-anchor="middle" x="370" y="-730" font-family="Helvetica,sans-Serif" font-size="10.00">&lt; Ra::Asset::HandleComponentData &gt; &gt;</text>
<polyline fill="none" stroke="#bfbfbf" points="272,-723 468,-723 "/>
<text text-anchor="middle" x="370" y="-711" font-family="Helvetica,sans-Serif" font-size="10.00"> </text>
<polyline fill="none" stroke="#bfbfbf" points="272,-704 468,-704 "/>
<text text-anchor="middle" x="370" y="-692" font-family="Helvetica,sans-Serif" font-size="10.00"> </text>
</a>
</g>
</g>
<!-- Node7&#45;&gt;Node18 -->
<g id="edge23" class="edge"><title>Node7&#45;&gt;Node18</title>
<path fill="none" stroke="#404040" d="M534.362,-928.613C523.312,-919.713 508.049,-906.753 496,-894 463.722,-859.836 431.382,-817.797 407.548,-784.97"/>
<polygon fill="none" stroke="#404040" points="407.449,-784.833 400.697,-782.303 400.434,-775.097 407.187,-777.626 407.449,-784.833"/>
<text text-anchor="middle" x="520.5" y="-885.5" font-family="Helvetica,sans-Serif" font-size="10.00"> +elements</text>
</g>
<!-- Node8 -->
<g id="node8" class="node"><title>Node8</title>
<g id="a_node8"><a xlink:href="structRa_1_1Core_1_1AlignedStdVector.html" target="_top" xlink:title="Shortcut for the ubiquitous aligned std::vector Uses Eigen&#39;s aligned allocator, as stated in http://e...">
<polygon fill="white" stroke="black" points="568,-608.5 568,-665.5 730,-665.5 730,-608.5 568,-608.5"/>
<text text-anchor="middle" x="649" y="-653.5" font-family="Helvetica,sans-Serif" font-size="10.00">Ra::Core::AlignedStdVector&lt; T &gt;</text>
<polyline fill="none" stroke="black" points="568,-646.5 730,-646.5 "/>
<text text-anchor="middle" x="649" y="-634.5" font-family="Helvetica,sans-Serif" font-size="10.00"> </text>
<polyline fill="none" stroke="black" points="568,-627.5 730,-627.5 "/>
<text text-anchor="middle" x="649" y="-615.5" font-family="Helvetica,sans-Serif" font-size="10.00"> </text>
</a>
</g>
</g>
<!-- Node8&#45;&gt;Node5 -->
<g id="edge7" class="edge"><title>Node8&#45;&gt;Node5</title>
<path fill="none" stroke="orange" d="M593.081,-602.077C588.424,-598.272 583.982,-594.232 580,-590 567.383,-576.593 556.755,-559.115 548.905,-544.009"/>
<polygon fill="orange" stroke="orange" points="591.024,-604.91 601.079,-608.249 595.3,-599.369 591.024,-604.91"/>
<text text-anchor="middle" x="623.5" y="-576.5" font-family="Helvetica,sans-Serif" font-size="10.00"> &lt; Core::VectorNi &gt;</text>
</g>
<!-- Node14 -->
<g id="node14" class="node"><title>Node14</title>
<g id="a_node14"><a xlink:href="structRa_1_1Core_1_1AlignedStdVector.html" target="_top" xlink:title="{Ra::Core::AlignedStdVector\l\&lt; Core::Vector2i \&gt;\n||}">
<polygon fill="white" stroke="black" points="669,-476 669,-544 807,-544 807,-476 669,-476"/>
<text text-anchor="start" x="677" y="-532" font-family="Helvetica,sans-Serif" font-size="10.00">Ra::Core::AlignedStdVector</text>
<text text-anchor="middle" x="738" y="-521" font-family="Helvetica,sans-Serif" font-size="10.00">&lt; Core::Vector2i &gt;</text>
<polyline fill="none" stroke="black" points="669,-514 807,-514 "/>
<text text-anchor="middle" x="738" y="-502" font-family="Helvetica,sans-Serif" font-size="10.00"> </text>
<polyline fill="none" stroke="black" points="669,-495 807,-495 "/>
<text text-anchor="middle" x="738" y="-483" font-family="Helvetica,sans-Serif" font-size="10.00"> </text>
</a>
</g>
</g>
<!-- Node8&#45;&gt;Node14 -->
<g id="edge19" class="edge"><title>Node8&#45;&gt;Node14</title>
<path fill="none" stroke="orange" d="M665.695,-598.912C670.986,-588.556 677.237,-577.536 684,-568 689.756,-559.883 696.621,-551.76 703.493,-544.295"/>
<polygon fill="orange" stroke="orange" points="662.411,-597.658 661.118,-608.173 668.686,-600.759 662.411,-597.658"/>
<text text-anchor="middle" x="726.5" y="-576.5" font-family="Helvetica,sans-Serif" font-size="10.00"> &lt; Core::Vector2i &gt;</text>
</g>
<!-- Node17 -->
<g id="node17" class="node"><title>Node17</title>
<g id="a_node17"><a xlink:href="structRa_1_1Core_1_1AlignedStdVector.html" target="_top" xlink:title="{Ra::Core::AlignedStdVector\l\&lt; Ra::Asset::HandleComponentData \&gt;\n||}">
<polygon fill="white" stroke="black" points="259.5,-476 259.5,-544 446.5,-544 446.5,-476 259.5,-476"/>
<text text-anchor="start" x="267.5" y="-532" font-family="Helvetica,sans-Serif" font-size="10.00">Ra::Core::AlignedStdVector</text>
<text text-anchor="middle" x="353" y="-521" font-family="Helvetica,sans-Serif" font-size="10.00">&lt; Ra::Asset::HandleComponentData &gt;</text>
<polyline fill="none" stroke="black" points="259.5,-514 446.5,-514 "/>
<text text-anchor="middle" x="353" y="-502" font-family="Helvetica,sans-Serif" font-size="10.00"> </text>
<polyline fill="none" stroke="black" points="259.5,-495 446.5,-495 "/>
<text text-anchor="middle" x="353" y="-483" font-family="Helvetica,sans-Serif" font-size="10.00"> </text>
</a>
</g>
</g>
<!-- Node8&#45;&gt;Node17 -->
<g id="edge24" class="edge"><title>Node8&#45;&gt;Node17</title>
<path fill="none" stroke="orange" d="M557.835,-632.661C512.471,-627.495 458.417,-615.788 416,-590 397.713,-578.882 382.547,-560.419 371.682,-544.137"/>
<polygon fill="orange" stroke="orange" points="557.659,-636.161 567.969,-633.724 558.389,-629.199 557.659,-636.161"/>
<text text-anchor="start" x="416" y="-582" font-family="Helvetica,sans-Serif" font-size="10.00"> &lt; Ra::Asset::HandleComponent</text>
<text text-anchor="middle" x="488" y="-571" font-family="Helvetica,sans-Serif" font-size="10.00">Data &gt;</text>
</g>
<!-- Node9&#45;&gt;Node8 -->
<g id="edge8" class="edge"><title>Node9&#45;&gt;Node8</title>
<path fill="none" stroke="midnightblue" d="M644.372,-784.555C645.525,-748.056 647.137,-696.992 648.123,-665.78"/>
<polygon fill="none" stroke="midnightblue" points="640.863,-784.799 644.045,-794.905 647.859,-785.02 640.863,-784.799"/>
</g>
<!-- Node10&#45;&gt;Node1 -->
<g id="edge10" class="edge"><title>Node10&#45;&gt;Node1</title>
<path fill="none" stroke="#404040" d="M236.311,-475.795C314.345,-424.292 465.174,-324.745 557.587,-263.753"/>
<polygon fill="none" stroke="#404040" points="557.711,-263.671 560.515,-257.027 567.726,-257.061 564.922,-263.704 557.711,-263.671"/>
<text text-anchor="middle" x="319" y="-443.5" font-family="Helvetica,sans-Serif" font-size="10.00"> #m_nameTable</text>
</g>
<!-- Node11 -->
<g id="node11" class="node"><title>Node11</title>
<polygon fill="white" stroke="#bfbfbf" points="158,-608.5 158,-665.5 190,-665.5 190,-608.5 158,-608.5"/>
<text text-anchor="middle" x="174" y="-653.5" font-family="Helvetica,sans-Serif" font-size="10.00">uint</text>
<polyline fill="none" stroke="#bfbfbf" points="158,-646.5 190,-646.5 "/>
<text text-anchor="middle" x="174" y="-634.5" font-family="Helvetica,sans-Serif" font-size="10.00"> </text>
<polyline fill="none" stroke="#bfbfbf" points="158,-627.5 190,-627.5 "/>
<text text-anchor="middle" x="174" y="-615.5" font-family="Helvetica,sans-Serif" font-size="10.00"> </text>
</g>
<!-- Node11&#45;&gt;Node10 -->
<g id="edge12" class="edge"><title>Node11&#45;&gt;Node10</title>
<path fill="none" stroke="#404040" d="M173.307,-608.474C173.278,-596.076 173.633,-581.271 175,-568 175.403,-564.09 175.938,-560.049 176.556,-556.006"/>
<polygon fill="none" stroke="#404040" points="176.586,-555.836 173.655,-549.247 178.61,-544.008 181.54,-550.597 176.586,-555.836"/>
<text text-anchor="middle" x="199.5" y="-576.5" font-family="Helvetica,sans-Serif" font-size="10.00"> +elements</text>
</g>
<!-- Node12&#45;&gt;Node10 -->
<g id="edge13" class="edge"><title>Node12&#45;&gt;Node10</title>
<path fill="none" stroke="orange" d="M239.004,-598.875C234.521,-588.694 229.361,-577.773 224,-568 219.653,-560.075 214.537,-551.832 209.493,-544.158"/>
<polygon fill="orange" stroke="orange" points="235.912,-600.546 243.079,-608.348 242.342,-597.779 235.912,-600.546"/>
<text text-anchor="middle" x="278.5" y="-576.5" font-family="Helvetica,sans-Serif" font-size="10.00"> &lt; std::string, uint &gt;</text>
</g>
<!-- Node13 -->
<g id="node13" class="node"><title>Node13</title>
<polygon fill="white" stroke="#bfbfbf" points="191.5,-800.5 191.5,-857.5 220.5,-857.5 220.5,-800.5 191.5,-800.5"/>
<text text-anchor="middle" x="206" y="-845.5" font-family="Helvetica,sans-Serif" font-size="10.00">K</text>
<polyline fill="none" stroke="#bfbfbf" points="191.5,-838.5 220.5,-838.5 "/>
<text text-anchor="middle" x="206" y="-826.5" font-family="Helvetica,sans-Serif" font-size="10.00"> </text>
<polyline fill="none" stroke="#bfbfbf" points="191.5,-819.5 220.5,-819.5 "/>
<text text-anchor="middle" x="206" y="-807.5" font-family="Helvetica,sans-Serif" font-size="10.00"> </text>
</g>
<!-- Node13&#45;&gt;Node12 -->
<g id="edge14" class="edge"><title>Node13&#45;&gt;Node12</title>
<path fill="none" stroke="#404040" d="M201.711,-800.275C198.302,-770.368 196.368,-721.942 212,-684 213.171,-681.157 214.601,-678.377 216.217,-675.683"/>
<polygon fill="none" stroke="#404040" points="216.302,-675.561 216.492,-668.353 223.22,-665.756 223.03,-672.964 216.302,-675.561"/>
<text text-anchor="middle" x="227.5" y="-727.5" font-family="Helvetica,sans-Serif" font-size="10.00"> +keys</text>
</g>
<!-- Node14&#45;&gt;Node1 -->
<g id="edge16" class="edge"><title>Node14&#45;&gt;Node1</title>
<path fill="none" stroke="#404040" d="M726.596,-475.795C721.53,-461.043 715.11,-442.351 708.036,-421.751"/>
<polygon fill="none" stroke="#404040" points="707.94,-421.473 702.208,-417.098 704.043,-410.124 709.775,-414.499 707.94,-421.473"/>
<text text-anchor="middle" x="737.5" y="-443.5" font-family="Helvetica,sans-Serif" font-size="10.00"> #m_edge</text>
</g>
<!-- Node15&#45;&gt;Node14 -->
<g id="edge17" class="edge"><title>Node15&#45;&gt;Node14</title>
<path fill="none" stroke="midnightblue" d="M759.433,-680.668C769.749,-648.493 778.517,-605.417 769,-568 766.945,-559.921 763.488,-551.75 759.611,-544.216"/>
<polygon fill="none" stroke="midnightblue" points="756.069,-679.691 756.2,-690.285 762.704,-681.922 756.069,-679.691"/>
</g>
<!-- Node16 -->
<g id="node16" class="node"><title>Node16</title>
<polygon fill="white" stroke="#bfbfbf" points="621.5,-481.5 621.5,-538.5 650.5,-538.5 650.5,-481.5 621.5,-481.5"/>
<text text-anchor="middle" x="636" y="-526.5" font-family="Helvetica,sans-Serif" font-size="10.00">int</text>
<polyline fill="none" stroke="#bfbfbf" points="621.5,-519.5 650.5,-519.5 "/>
<text text-anchor="middle" x="636" y="-507.5" font-family="Helvetica,sans-Serif" font-size="10.00"> </text>
<polyline fill="none" stroke="#bfbfbf" points="621.5,-500.5 650.5,-500.5 "/>
<text text-anchor="middle" x="636" y="-488.5" font-family="Helvetica,sans-Serif" font-size="10.00"> </text>
</g>
<!-- Node16&#45;&gt;Node1 -->
<g id="edge20" class="edge"><title>Node16&#45;&gt;Node1</title>
<path fill="none" stroke="#404040" d="M636,-481.326C636,-468.448 636,-451.852 636,-433.23"/>
<polygon fill="none" stroke="#404040" points="636,-433.055 632,-427.055 636,-421.055 640,-427.055 636,-433.055"/>
<text text-anchor="middle" x="670.5" y="-443.5" font-family="Helvetica,sans-Serif" font-size="10.00"> #m_vertexSize</text>
</g>
<!-- Node17&#45;&gt;Node1 -->
<g id="edge21" class="edge"><title>Node17&#45;&gt;Node1</title>
<path fill="none" stroke="#404040" d="M384.64,-475.795C426.638,-431.719 502.164,-352.457 559.5,-292.285"/>
<polygon fill="none" stroke="#404040" points="559.543,-292.24 560.786,-285.136 567.821,-283.552 566.578,-290.655 559.543,-292.24"/>
<text text-anchor="middle" x="450" y="-443.5" font-family="Helvetica,sans-Serif" font-size="10.00"> #m_component</text>
</g>
<!-- Node18&#45;&gt;Node17 -->
<g id="edge22" class="edge"><title>Node18&#45;&gt;Node17</title>
<path fill="none" stroke="midnightblue" d="M365.771,-674.773C362.571,-633.73 358.279,-578.69 355.576,-544.032"/>
<polygon fill="none" stroke="midnightblue" points="362.293,-675.187 366.56,-684.884 369.272,-674.643 362.293,-675.187"/>
</g>
<!-- Node19 -->
<g id="node19" class="node"><title>Node19</title>
<g id="a_node19"><a xlink:href="classbool.html" target="_top" xlink:title="{bool\n||}">
<polygon fill="white" stroke="black" points="825.5,-481.5 825.5,-538.5 860.5,-538.5 860.5,-481.5 825.5,-481.5"/>
<text text-anchor="middle" x="843" y="-526.5" font-family="Helvetica,sans-Serif" font-size="10.00">bool</text>
<polyline fill="none" stroke="black" points="825.5,-519.5 860.5,-519.5 "/>
<text text-anchor="middle" x="843" y="-507.5" font-family="Helvetica,sans-Serif" font-size="10.00"> </text>
<polyline fill="none" stroke="black" points="825.5,-500.5 860.5,-500.5 "/>
<text text-anchor="middle" x="843" y="-488.5" font-family="Helvetica,sans-Serif" font-size="10.00"> </text>
</a>
</g>
</g>
<!-- Node19&#45;&gt;Node1 -->
<g id="edge25" class="edge"><title>Node19&#45;&gt;Node1</title>
<path fill="none" stroke="#404040" d="M825.294,-483.397C822.199,-478.929 819.008,-474.328 816,-470 781.59,-420.488 743.383,-365.698 711.053,-319.391"/>
<polygon fill="none" stroke="#404040" points="710.905,-319.179 704.191,-316.55 704.035,-309.34 710.75,-311.97 710.905,-319.179"/>
<text text-anchor="middle" x="832.5" y="-443.5" font-family="Helvetica,sans-Serif" font-size="10.00"> #m_endNode</text>
</g>
<!-- Node20 -->
<g id="node20" class="node"><title>Node20</title>
<polygon fill="white" stroke="#bfbfbf" points="878.5,-481.5 878.5,-538.5 947.5,-538.5 947.5,-481.5 878.5,-481.5"/>
<text text-anchor="middle" x="913" y="-526.5" font-family="Helvetica,sans-Serif" font-size="10.00">HandleType</text>
<polyline fill="none" stroke="#bfbfbf" points="878.5,-519.5 947.5,-519.5 "/>
<text text-anchor="middle" x="913" y="-507.5" font-family="Helvetica,sans-Serif" font-size="10.00"> </text>
<polyline fill="none" stroke="#bfbfbf" points="878.5,-500.5 947.5,-500.5 "/>
<text text-anchor="middle" x="913" y="-488.5" font-family="Helvetica,sans-Serif" font-size="10.00"> </text>
</g>
<!-- Node20&#45;&gt;Node1 -->
<g id="edge26" class="edge"><title>Node20&#45;&gt;Node1</title>
<path fill="none" stroke="#404040" d="M896.313,-481.219C888.072,-468.255 877.63,-452.881 867,-440 819.743,-382.738 759.939,-324.023 713.022,-280.519"/>
<polygon fill="none" stroke="#404040" points="712.937,-280.44 705.815,-279.31 704.118,-272.302 711.241,-273.431 712.937,-280.44"/>
<text text-anchor="middle" x="896.5" y="-443.5" font-family="Helvetica,sans-Serif" font-size="10.00"> #m_type</text>
</g>
<!-- Node21 -->
<g id="node21" class="node"><title>Node21</title>
<polygon fill="white" stroke="#bfbfbf" points="965.5,-476 965.5,-544 1066.5,-544 1066.5,-476 965.5,-476"/>
<text text-anchor="start" x="973.5" y="-532" font-family="Helvetica,sans-Serif" font-size="10.00">Transform&lt; Scalar,</text>
<text text-anchor="middle" x="1016" y="-521" font-family="Helvetica,sans-Serif" font-size="10.00"> 3, Eigen::Affine &gt;</text>
<polyline fill="none" stroke="#bfbfbf" points="965.5,-514 1066.5,-514 "/>
<text text-anchor="middle" x="1016" y="-502" font-family="Helvetica,sans-Serif" font-size="10.00"> </text>
<polyline fill="none" stroke="#bfbfbf" points="965.5,-495 1066.5,-495 "/>
<text text-anchor="middle" x="1016" y="-483" font-family="Helvetica,sans-Serif" font-size="10.00"> </text>
</g>
<!-- Node21&#45;&gt;Node1 -->
<g id="edge27" class="edge"><title>Node21&#45;&gt;Node1</title>
<path fill="none" stroke="#404040" d="M973.515,-475.795C910.832,-426.803 792.526,-334.337 713.968,-272.938"/>
<polygon fill="none" stroke="#404040" points="713.569,-272.626 706.378,-272.083 704.114,-265.237 711.305,-265.78 713.569,-272.626"/>
<text text-anchor="middle" x="957.5" y="-443.5" font-family="Helvetica,sans-Serif" font-size="10.00"> #m_frame</text>
</g>
</g>
</svg>
