<?xml version="1.0" encoding="UTF-8" standalone="no"?>
<!DOCTYPE svg PUBLIC "-//W3C//DTD SVG 1.1//EN"
 "http://www.w3.org/Graphics/SVG/1.1/DTD/svg11.dtd">
<!-- Generated by graphviz version 2.36.0 (20140111.2315)
 -->
<!-- Title: Ra::Core::HalfEdgeData::checkConsistency Pages: 1 -->
<svg width="296pt" height="142pt"
 viewBox="0.00 0.00 296.00 142.00" xmlns="http://www.w3.org/2000/svg" xmlns:xlink="http://www.w3.org/1999/xlink">
<g id="graph0" class="graph" transform="scale(1 1) rotate(0) translate(4 138)">
<title>Ra::Core::HalfEdgeData::checkConsistency</title>
<polygon fill="white" stroke="none" points="-4,4 -4,-138 292,-138 292,4 -4,4"/>
<!-- Node1 -->
<g id="node1" class="node"><title>Node1</title>
<polygon fill="#bfbfbf" stroke="black" points="0,-52 0,-82 124,-82 124,-52 0,-52"/>
<text text-anchor="start" x="8" y="-70" font-family="Helvetica,sans-Serif" font-size="10.00">Ra::Core::HalfEdgeData</text>
<text text-anchor="middle" x="62" y="-59" font-family="Helvetica,sans-Serif" font-size="10.00">::checkConsistency</text>
</g>
<!-- Node2 -->
<g id="node2" class="node"><title>Node2</title>
<g id="a_node2"><a xlink:href="classRa_1_1Core_1_1Index.html#a87c70243f30c65c1a24834d1829bda01" target="_top" xlink:title="DESTRUCTOR: Must not be defined, we need it trivial to be constexpr. ">
<polygon fill="white" stroke="black" points="163,-114.5 163,-133.5 285,-133.5 285,-114.5 163,-114.5"/>
<text text-anchor="middle" x="224" y="-121.5" font-family="Helvetica,sans-Serif" font-size="10.00">Ra::Core::Index::isValid</text>
</a>
</g>
</g>
<!-- Node1&#45;&gt;Node2 -->
<g id="edge1" class="edge"><title>Node1&#45;&gt;Node2</title>
<path fill="none" stroke="midnightblue" d="M99.5898,-82.1378C117.647,-89.402 139.831,-98.0208 160,-105 166.383,-107.209 173.178,-109.411 179.855,-111.491"/>
<polygon fill="midnightblue" stroke="midnightblue" points="178.903,-114.86 189.49,-114.439 180.951,-108.167 178.903,-114.86"/>
</g>
<!-- Node3 -->
<g id="node3" class="node"><title>Node3</title>
<g id="a_node3"><a xlink:href="classRa_1_1Core_1_1Index.html#a7283e7fb9cc134e04ef3cde8877f8fe2" target="_top" xlink:title="INVALID. ">
<polygon fill="white" stroke="black" points="160,-76.5 160,-95.5 288,-95.5 288,-76.5 160,-76.5"/>
<text text-anchor="middle" x="224" y="-83.5" font-family="Helvetica,sans-Serif" font-size="10.00">Ra::Core::Index::isInvalid</text>
</a>
</g>
</g>
<!-- Node1&#45;&gt;Node3 -->
<g id="edge2" class="edge"><title>Node1&#45;&gt;Node3</title>
<path fill="none" stroke="midnightblue" d="M124.403,-74.2916C132.764,-75.2844 141.412,-76.3114 149.953,-77.3257"/>
<polygon fill="midnightblue" stroke="midnightblue" points="149.564,-80.804 159.907,-78.5077 150.39,-73.8529 149.564,-80.804"/>
</g>
<!-- Node4 -->
<g id="node4" class="node"><title>Node4</title>
<g id="a_node4"><a xlink:href="namespaceRa_1_1Core.html#a3376e6339252cfb83de46bd312dd2cf8" target="_top" xlink:title="QUERY. ">
<polygon fill="white" stroke="black" points="179.5,-38.5 179.5,-57.5 268.5,-57.5 268.5,-38.5 179.5,-38.5"/>
<text text-anchor="middle" x="224" y="-45.5" font-family="Helvetica,sans-Serif" font-size="10.00">Ra::Core::empty</text>
</a>
</g>
</g>
<!-- Node1&#45;&gt;Node4 -->
<g id="edge3" class="edge"><title>Node1&#45;&gt;Node4</title>
<path fill="none" stroke="midnightblue" d="M124.403,-59.7084C139.153,-57.9569 154.796,-56.0992 169.172,-54.3921"/>
<polygon fill="midnightblue" stroke="midnightblue" points="169.868,-57.8342 179.385,-53.1793 169.042,-50.883 169.868,-57.8342"/>
</g>
<!-- Node5 -->
<g id="node5" class="node"><title>Node5</title>
<g id="a_node5"><a xlink:href="namespaceRa_1_1Core_1_1Algorithm.html#aea294cdb6f4f0d85955bdcccb22886ec" target="_top" xlink:title="Ra::Core::Algorithm::t">
<polygon fill="white" stroke="black" points="167.5,-0.5 167.5,-19.5 280.5,-19.5 280.5,-0.5 167.5,-0.5"/>
<text text-anchor="middle" x="224" y="-7.5" font-family="Helvetica,sans-Serif" font-size="10.00">Ra::Core::Algorithm::t</text>
</a>
</g>
</g>
<!-- Node1&#45;&gt;Node5 -->
<g id="edge4" class="edge"><title>Node1&#45;&gt;Node5</title>
<path fill="none" stroke="midnightblue" d="M99.5898,-51.8622C117.647,-44.598 139.831,-35.9792 160,-29 166.383,-26.7912 173.178,-24.5892 179.855,-22.5086"/>
<polygon fill="midnightblue" stroke="midnightblue" points="180.951,-25.8334 189.49,-19.5607 178.903,-19.1397 180.951,-25.8334"/>
</g>
</g>
</svg>
