<?xml version="1.0" encoding="UTF-8" standalone="no"?>
<!DOCTYPE svg PUBLIC "-//W3C//DTD SVG 1.1//EN"
 "http://www.w3.org/Graphics/SVG/1.1/DTD/svg11.dtd">
<!-- Generated by graphviz version 2.36.0 (20140111.2315)
 -->
<!-- Title: Ra::Gui::Gizmo Pages: 1 -->
<svg width="637pt" height="1378pt"
 viewBox="0.00 0.00 637.00 1378.00" xmlns="http://www.w3.org/2000/svg" xmlns:xlink="http://www.w3.org/1999/xlink">
<g id="graph0" class="graph" transform="scale(1 1) rotate(0) translate(4 1374)">
<title>Ra::Gui::Gizmo</title>
<polygon fill="white" stroke="none" points="-4,4 -4,-1374 633,-1374 633,4 -4,4"/>
<!-- Node1 -->
<g id="node1" class="node"><title>Node1</title>
<polygon fill="#bfbfbf" stroke="black" points="236.5,-0.5 236.5,-123.5 341.5,-123.5 341.5,-0.5 236.5,-0.5"/>
<text text-anchor="middle" x="289" y="-111.5" font-family="Helvetica,sans-Serif" font-size="10.00">Ra::Gui::Gizmo</text>
<polyline fill="none" stroke="black" points="236.5,-104.5 341.5,-104.5 "/>
<text text-anchor="middle" x="289" y="-92.5" font-family="Helvetica,sans-Serif" font-size="10.00"> </text>
<polyline fill="none" stroke="black" points="236.5,-85.5 341.5,-85.5 "/>
<text text-anchor="start" x="244.5" y="-73.5" font-family="Helvetica,sans-Serif" font-size="10.00">+ Gizmo()</text>
<text text-anchor="start" x="244.5" y="-62.5" font-family="Helvetica,sans-Serif" font-size="10.00">+ ~Gizmo()</text>
<text text-anchor="start" x="244.5" y="-51.5" font-family="Helvetica,sans-Serif" font-size="10.00">+ show()</text>
<text text-anchor="start" x="244.5" y="-40.5" font-family="Helvetica,sans-Serif" font-size="10.00">+ updateTransform()</text>
<text text-anchor="start" x="244.5" y="-29.5" font-family="Helvetica,sans-Serif" font-size="10.00">+ selectConstraint()</text>
<text text-anchor="start" x="244.5" y="-18.5" font-family="Helvetica,sans-Serif" font-size="10.00">+ setInitialState()</text>
<text text-anchor="start" x="244.5" y="-7.5" font-family="Helvetica,sans-Serif" font-size="10.00">+ mouseMove()</text>
</g>
<!-- Node2 -->
<g id="node2" class="node"><title>Node2</title>
<polygon fill="white" stroke="#bfbfbf" points="72.5,-543 72.5,-611 171.5,-611 171.5,-543 72.5,-543"/>
<text text-anchor="start" x="80.5" y="-599" font-family="Helvetica,sans-Serif" font-size="10.00">std::vector&lt; Core::</text>
<text text-anchor="middle" x="122" y="-588" font-family="Helvetica,sans-Serif" font-size="10.00">Index &gt;</text>
<polyline fill="none" stroke="#bfbfbf" points="72.5,-581 171.5,-581 "/>
<text text-anchor="middle" x="122" y="-569" font-family="Helvetica,sans-Serif" font-size="10.00"> </text>
<polyline fill="none" stroke="#bfbfbf" points="72.5,-562 171.5,-562 "/>
<text text-anchor="middle" x="122" y="-550" font-family="Helvetica,sans-Serif" font-size="10.00"> </text>
</g>
<!-- Node2&#45;&gt;Node1 -->
<g id="edge1" class="edge"><title>Node2&#45;&gt;Node1</title>
<path fill="none" stroke="#404040" d="M113.592,-542.784C97.5218,-471.881 69.2349,-302.381 131,-182 151.173,-142.682 190.991,-112.822 225.604,-92.8477"/>
<polygon fill="none" stroke="#404040" points="225.671,-92.8105 228.964,-86.3949 236.152,-86.9665 232.86,-93.3821 225.671,-92.8105"/>
<text text-anchor="middle" x="172.5" y="-291.5" font-family="Helvetica,sans-Serif" font-size="10.00"> #m_renderObjects</text>
</g>
<!-- Node8 -->
<g id="node8" class="node"><title>Node8</title>
<g id="a_node8"><a xlink:href="classRa_1_1Engine_1_1Component.html" target="_top" xlink:title="A component is an element that can be updated by a system. ">
<polygon fill="white" stroke="black" points="282.5,-183 282.5,-405 431.5,-405 431.5,-183 282.5,-183"/>
<text text-anchor="middle" x="357" y="-393" font-family="Helvetica,sans-Serif" font-size="10.00">Ra::Engine::Component</text>
<polyline fill="none" stroke="black" points="282.5,-386 431.5,-386 "/>
<text text-anchor="middle" x="357" y="-374" font-family="Helvetica,sans-Serif" font-size="10.00"> </text>
<polyline fill="none" stroke="black" points="282.5,-367 431.5,-367 "/>
<text text-anchor="start" x="290.5" y="-355" font-family="Helvetica,sans-Serif" font-size="10.00">+ Component()</text>
<text text-anchor="start" x="290.5" y="-344" font-family="Helvetica,sans-Serif" font-size="10.00">+ ~Component()</text>
<text text-anchor="start" x="290.5" y="-333" font-family="Helvetica,sans-Serif" font-size="10.00">+ initialize()</text>
<text text-anchor="start" x="290.5" y="-322" font-family="Helvetica,sans-Serif" font-size="10.00">+ setEntity()</text>
<text text-anchor="start" x="290.5" y="-311" font-family="Helvetica,sans-Serif" font-size="10.00">+ getEntity()</text>
<text text-anchor="start" x="290.5" y="-300" font-family="Helvetica,sans-Serif" font-size="10.00">+ getName()</text>
<text text-anchor="start" x="290.5" y="-289" font-family="Helvetica,sans-Serif" font-size="10.00">+ setSystem()</text>
<text text-anchor="start" x="290.5" y="-278" font-family="Helvetica,sans-Serif" font-size="10.00">+ getSystem()</text>
<text text-anchor="start" x="290.5" y="-267" font-family="Helvetica,sans-Serif" font-size="10.00">+ addRenderObject()</text>
<text text-anchor="start" x="290.5" y="-256" font-family="Helvetica,sans-Serif" font-size="10.00">+ removeRenderObject()</text>
<text text-anchor="start" x="290.5" y="-245" font-family="Helvetica,sans-Serif" font-size="10.00">+ rayCastQuery()</text>
<text text-anchor="start" x="290.5" y="-234" font-family="Helvetica,sans-Serif" font-size="10.00">+ canEdit()</text>
<text text-anchor="start" x="290.5" y="-223" font-family="Helvetica,sans-Serif" font-size="10.00">+ getTransform()</text>
<text text-anchor="start" x="290.5" y="-212" font-family="Helvetica,sans-Serif" font-size="10.00">+ setTransform()</text>
<text text-anchor="start" x="290.5" y="-201" font-family="Helvetica,sans-Serif" font-size="10.00">+ notifyRenderObjectExpired()</text>
<text text-anchor="start" x="290.5" y="-190" font-family="Helvetica,sans-Serif" font-size="10.00"># getRoMgr()</text>
</a>
</g>
</g>
<!-- Node2&#45;&gt;Node8 -->
<g id="edge8" class="edge"><title>Node2&#45;&gt;Node8</title>
<path fill="none" stroke="#404040" d="M140.976,-542.718C161.414,-509.232 196.629,-457.835 238,-424 251.54,-412.926 259.61,-417.255 273,-406 273.098,-405.917 273.197,-405.835 273.295,-405.752"/>
<polygon fill="none" stroke="#404040" points="273.354,-405.699 275.148,-398.714 282.285,-397.684 280.491,-404.669 273.354,-405.699"/>
<text text-anchor="middle" x="280" y="-427.5" font-family="Helvetica,sans-Serif" font-size="10.00"> +m_renderObjects</text>
</g>
<!-- Node3 -->
<g id="node3" class="node"><title>Node3</title>
<g id="a_node3"><a xlink:href="classRa_1_1Core_1_1Index.html" target="_top" xlink:title="{Ra::Core::Index\n||+ Index()\l+ Index()\l+ isValid()\l+ isInvalid()\l+ setInvalid()\l+ getValue()\l+ setValue()\l+ operator int()\l+ operator=()\l+ operator++()\l+ operator&#45;&#45;()\l+ operator+()\l+ operator+()\l+ operator&#45;()\l+ operator&#45;()\l+ operator==()\l+ operator==()\l+ operator!=()\l+ operator!=()\l+ operator\&lt;()\l+ operator\&lt;()\l+ operator\&lt;=()\l+ operator\&lt;=()\l+ operator\&gt;()\l+ operator\&gt;()\l+ operator\&gt;=()\l+ operator\&gt;=()\l+ Invalid()\l+ Max()\l}">
<polygon fill="white" stroke="black" points="0,-748.5 0,-1113.5 86,-1113.5 86,-748.5 0,-748.5"/>
<text text-anchor="middle" x="43" y="-1101.5" font-family="Helvetica,sans-Serif" font-size="10.00">Ra::Core::Index</text>
<polyline fill="none" stroke="black" points="0,-1094.5 86,-1094.5 "/>
<text text-anchor="middle" x="43" y="-1082.5" font-family="Helvetica,sans-Serif" font-size="10.00"> </text>
<polyline fill="none" stroke="black" points="0,-1075.5 86,-1075.5 "/>
<text text-anchor="start" x="8" y="-1063.5" font-family="Helvetica,sans-Serif" font-size="10.00">+ Index()</text>
<text text-anchor="start" x="8" y="-1052.5" font-family="Helvetica,sans-Serif" font-size="10.00">+ Index()</text>
<text text-anchor="start" x="8" y="-1041.5" font-family="Helvetica,sans-Serif" font-size="10.00">+ isValid()</text>
<text text-anchor="start" x="8" y="-1030.5" font-family="Helvetica,sans-Serif" font-size="10.00">+ isInvalid()</text>
<text text-anchor="start" x="8" y="-1019.5" font-family="Helvetica,sans-Serif" font-size="10.00">+ setInvalid()</text>
<text text-anchor="start" x="8" y="-1008.5" font-family="Helvetica,sans-Serif" font-size="10.00">+ getValue()</text>
<text text-anchor="start" x="8" y="-997.5" font-family="Helvetica,sans-Serif" font-size="10.00">+ setValue()</text>
<text text-anchor="start" x="8" y="-986.5" font-family="Helvetica,sans-Serif" font-size="10.00">+ operator int()</text>
<text text-anchor="start" x="8" y="-975.5" font-family="Helvetica,sans-Serif" font-size="10.00">+ operator=()</text>
<text text-anchor="start" x="8" y="-964.5" font-family="Helvetica,sans-Serif" font-size="10.00">+ operator++()</text>
<text text-anchor="start" x="8" y="-953.5" font-family="Helvetica,sans-Serif" font-size="10.00">+ operator&#45;&#45;()</text>
<text text-anchor="start" x="8" y="-942.5" font-family="Helvetica,sans-Serif" font-size="10.00">+ operator+()</text>
<text text-anchor="start" x="8" y="-931.5" font-family="Helvetica,sans-Serif" font-size="10.00">+ operator+()</text>
<text text-anchor="start" x="8" y="-920.5" font-family="Helvetica,sans-Serif" font-size="10.00">+ operator&#45;()</text>
<text text-anchor="start" x="8" y="-909.5" font-family="Helvetica,sans-Serif" font-size="10.00">+ operator&#45;()</text>
<text text-anchor="start" x="8" y="-898.5" font-family="Helvetica,sans-Serif" font-size="10.00">+ operator==()</text>
<text text-anchor="start" x="8" y="-887.5" font-family="Helvetica,sans-Serif" font-size="10.00">+ operator==()</text>
<text text-anchor="start" x="8" y="-876.5" font-family="Helvetica,sans-Serif" font-size="10.00">+ operator!=()</text>
<text text-anchor="start" x="8" y="-865.5" font-family="Helvetica,sans-Serif" font-size="10.00">+ operator!=()</text>
<text text-anchor="start" x="8" y="-854.5" font-family="Helvetica,sans-Serif" font-size="10.00">+ operator&lt;()</text>
<text text-anchor="start" x="8" y="-843.5" font-family="Helvetica,sans-Serif" font-size="10.00">+ operator&lt;()</text>
<text text-anchor="start" x="8" y="-832.5" font-family="Helvetica,sans-Serif" font-size="10.00">+ operator&lt;=()</text>
<text text-anchor="start" x="8" y="-821.5" font-family="Helvetica,sans-Serif" font-size="10.00">+ operator&lt;=()</text>
<text text-anchor="start" x="8" y="-810.5" font-family="Helvetica,sans-Serif" font-size="10.00">+ operator&gt;()</text>
<text text-anchor="start" x="8" y="-799.5" font-family="Helvetica,sans-Serif" font-size="10.00">+ operator&gt;()</text>
<text text-anchor="start" x="8" y="-788.5" font-family="Helvetica,sans-Serif" font-size="10.00">+ operator&gt;=()</text>
<text text-anchor="start" x="8" y="-777.5" font-family="Helvetica,sans-Serif" font-size="10.00">+ operator&gt;=()</text>
<text text-anchor="start" x="8" y="-766.5" font-family="Helvetica,sans-Serif" font-size="10.00">+ Invalid()</text>
<text text-anchor="start" x="8" y="-755.5" font-family="Helvetica,sans-Serif" font-size="10.00">+ Max()</text>
</a>
</g>
</g>
<!-- Node3&#45;&gt;Node2 -->
<g id="edge2" class="edge"><title>Node3&#45;&gt;Node2</title>
<path fill="none" stroke="#404040" d="M52.5051,-748.325C54.3484,-738.007 56.4977,-727.837 59,-718 67.5377,-684.436 83.6389,-648.877 97.426,-621.994"/>
<polygon fill="none" stroke="#404040" points="97.5977,-621.666 96.8375,-614.496 103.164,-611.036 103.925,-618.207 97.5977,-621.666"/>
<text text-anchor="middle" x="83.5" y="-721.5" font-family="Helvetica,sans-Serif" font-size="10.00"> +elements</text>
</g>
<!-- Node4 -->
<g id="node4" class="node"><title>Node4</title>
<polygon fill="white" stroke="#bfbfbf" points="28.5,-1195.5 28.5,-1252.5 57.5,-1252.5 57.5,-1195.5 28.5,-1195.5"/>
<text text-anchor="middle" x="43" y="-1240.5" font-family="Helvetica,sans-Serif" font-size="10.00">int</text>
<polyline fill="none" stroke="#bfbfbf" points="28.5,-1233.5 57.5,-1233.5 "/>
<text text-anchor="middle" x="43" y="-1221.5" font-family="Helvetica,sans-Serif" font-size="10.00"> </text>
<polyline fill="none" stroke="#bfbfbf" points="28.5,-1214.5 57.5,-1214.5 "/>
<text text-anchor="middle" x="43" y="-1202.5" font-family="Helvetica,sans-Serif" font-size="10.00"> </text>
</g>
<!-- Node4&#45;&gt;Node3 -->
<g id="edge3" class="edge"><title>Node4&#45;&gt;Node3</title>
<path fill="none" stroke="#404040" d="M43,-1195.36C43,-1177.69 43,-1153.03 43,-1125.82"/>
<polygon fill="none" stroke="#404040" points="43.0001,-1125.59 39,-1119.59 43,-1113.59 47,-1119.59 43.0001,-1125.59"/>
<text text-anchor="middle" x="60.5" y="-1146.5" font-family="Helvetica,sans-Serif" font-size="10.00"> #m_idx</text>
</g>
<!-- Node5 -->
<g id="node5" class="node"><title>Node5</title>
<g id="a_node5"><a xlink:title="STL class. ">
<polygon fill="white" stroke="#bfbfbf" points="95.5,-1195.5 95.5,-1252.5 182.5,-1252.5 182.5,-1195.5 95.5,-1195.5"/>
<text text-anchor="middle" x="139" y="-1240.5" font-family="Helvetica,sans-Serif" font-size="10.00">std::vector&lt; T &gt;</text>
<polyline fill="none" stroke="#bfbfbf" points="95.5,-1233.5 182.5,-1233.5 "/>
<text text-anchor="middle" x="139" y="-1221.5" font-family="Helvetica,sans-Serif" font-size="10.00"> </text>
<polyline fill="none" stroke="#bfbfbf" points="95.5,-1214.5 182.5,-1214.5 "/>
<text text-anchor="middle" x="139" y="-1202.5" font-family="Helvetica,sans-Serif" font-size="10.00"> </text>
</a>
</g>
</g>
<!-- Node5&#45;&gt;Node2 -->
<g id="edge4" class="edge"><title>Node5&#45;&gt;Node2</title>
<path fill="none" stroke="orange" d="M135.694,-1185.15C133.997,-1164.19 132.067,-1137.67 131,-1114 122.433,-923.867 121.81,-695.466 121.906,-611.264"/>
<polygon fill="orange" stroke="orange" points="132.217,-1185.57 136.529,-1195.25 139.193,-1184.99 132.217,-1185.57"/>
<text text-anchor="middle" x="167.5" y="-928.5" font-family="Helvetica,sans-Serif" font-size="10.00"> &lt; Core::Index &gt;</text>
</g>
<!-- Node10 -->
<g id="node10" class="node"><title>Node10</title>
<polygon fill="white" stroke="#bfbfbf" points="213.5,-891.5 213.5,-970.5 372.5,-970.5 372.5,-891.5 213.5,-891.5"/>
<text text-anchor="start" x="221.5" y="-958.5" font-family="Helvetica,sans-Serif" font-size="10.00">std::vector&lt; std::pair</text>
<text text-anchor="start" x="221.5" y="-947.5" font-family="Helvetica,sans-Serif" font-size="10.00">&lt; const Ra::Engine::Entity</text>
<text text-anchor="middle" x="293" y="-936.5" font-family="Helvetica,sans-Serif" font-size="10.00"> *, Ra::Engine::Component * &gt; &gt;</text>
<polyline fill="none" stroke="#bfbfbf" points="213.5,-929.5 372.5,-929.5 "/>
<text text-anchor="middle" x="293" y="-917.5" font-family="Helvetica,sans-Serif" font-size="10.00"> </text>
<polyline fill="none" stroke="#bfbfbf" points="213.5,-910.5 372.5,-910.5 "/>
<text text-anchor="middle" x="293" y="-898.5" font-family="Helvetica,sans-Serif" font-size="10.00"> </text>
</g>
<!-- Node5&#45;&gt;Node10 -->
<g id="edge12" class="edge"><title>Node5&#45;&gt;Node10</title>
<path fill="none" stroke="orange" d="M143.433,-1185.3C147.097,-1167.59 153.787,-1147.1 166,-1132 176.504,-1119.01 187.321,-1125.95 199,-1114 239.399,-1072.68 266.385,-1010.48 280.709,-970.563"/>
<polygon fill="orange" stroke="orange" points="139.952,-1184.88 141.606,-1195.35 146.839,-1186.13 139.952,-1184.88"/>
<text text-anchor="start" x="166" y="-1157.5" font-family="Helvetica,sans-Serif" font-size="10.00"> &lt; std::pair&lt; const</text>
<text text-anchor="start" x="166" y="-1146.5" font-family="Helvetica,sans-Serif" font-size="10.00"> Ra::Engine::Entity</text>
<text text-anchor="middle" x="237.5" y="-1135.5" font-family="Helvetica,sans-Serif" font-size="10.00"> *, Ra::Engine::Component * &gt; &gt;</text>
</g>
<!-- Node6 -->
<g id="node6" class="node"><title>Node6</title>
<polygon fill="white" stroke="#bfbfbf" points="124.5,-1312.5 124.5,-1369.5 153.5,-1369.5 153.5,-1312.5 124.5,-1312.5"/>
<text text-anchor="middle" x="139" y="-1357.5" font-family="Helvetica,sans-Serif" font-size="10.00">T</text>
<polyline fill="none" stroke="#bfbfbf" points="124.5,-1350.5 153.5,-1350.5 "/>
<text text-anchor="middle" x="139" y="-1338.5" font-family="Helvetica,sans-Serif" font-size="10.00"> </text>
<polyline fill="none" stroke="#bfbfbf" points="124.5,-1331.5 153.5,-1331.5 "/>
<text text-anchor="middle" x="139" y="-1319.5" font-family="Helvetica,sans-Serif" font-size="10.00"> </text>
</g>
<!-- Node6&#45;&gt;Node5 -->
<g id="edge5" class="edge"><title>Node6&#45;&gt;Node5</title>
<path fill="none" stroke="#404040" d="M139,-1312.45C139,-1298.19 139,-1280.52 139,-1264.8"/>
<polygon fill="none" stroke="#404040" points="139,-1264.72 135,-1258.72 139,-1252.72 143,-1258.72 139,-1264.72"/>
<text text-anchor="middle" x="163.5" y="-1285.5" font-family="Helvetica,sans-Serif" font-size="10.00"> +elements</text>
</g>
<!-- Node7 -->
<g id="node7" class="node"><title>Node7</title>
<polygon fill="white" stroke="#bfbfbf" points="223.5,-265.5 223.5,-322.5 264.5,-322.5 264.5,-265.5 223.5,-265.5"/>
<text text-anchor="middle" x="244" y="-310.5" font-family="Helvetica,sans-Serif" font-size="10.00">Mode</text>
<polyline fill="none" stroke="#bfbfbf" points="223.5,-303.5 264.5,-303.5 "/>
<text text-anchor="middle" x="244" y="-291.5" font-family="Helvetica,sans-Serif" font-size="10.00"> </text>
<polyline fill="none" stroke="#bfbfbf" points="223.5,-284.5 264.5,-284.5 "/>
<text text-anchor="middle" x="244" y="-272.5" font-family="Helvetica,sans-Serif" font-size="10.00"> </text>
</g>
<!-- Node7&#45;&gt;Node1 -->
<g id="edge6" class="edge"><title>Node7&#45;&gt;Node1</title>
<path fill="none" stroke="#404040" d="M247.207,-265.265C250.961,-234.837 257.848,-184.651 267,-142 267.462,-139.849 267.948,-137.67 268.453,-135.473"/>
<polygon fill="none" stroke="#404040" points="268.497,-135.294 266.021,-128.521 271.321,-123.631 273.797,-130.404 268.497,-135.294"/>
<text text-anchor="middle" x="290" y="-150.5" font-family="Helvetica,sans-Serif" font-size="10.00"> #m_mode</text>
</g>
<!-- Node8&#45;&gt;Node1 -->
<g id="edge7" class="edge"><title>Node8&#45;&gt;Node1</title>
<path fill="none" stroke="#404040" d="M325.064,-182.859C321.027,-169.095 316.933,-155.217 313,-142 312.368,-139.877 311.725,-137.722 311.075,-135.548"/>
<polygon fill="none" stroke="#404040" points="310.996,-135.286 305.44,-130.69 307.545,-123.793 313.102,-128.389 310.996,-135.286"/>
<text text-anchor="middle" x="343" y="-150.5" font-family="Helvetica,sans-Serif" font-size="10.00"> #m_comp</text>
</g>
<!-- Node9 -->
<g id="node9" class="node"><title>Node9</title>
<g id="a_node9"><a xlink:href="classRa_1_1Engine_1_1System.html" target="_top" xlink:title="Systems are responsible of updating a specific subset of the components of each entity. ">
<polygon fill="white" stroke="black" points="223.5,-510 223.5,-644 364.5,-644 364.5,-510 223.5,-510"/>
<text text-anchor="middle" x="294" y="-632" font-family="Helvetica,sans-Serif" font-size="10.00">Ra::Engine::System</text>
<polyline fill="none" stroke="black" points="223.5,-625 364.5,-625 "/>
<text text-anchor="middle" x="294" y="-613" font-family="Helvetica,sans-Serif" font-size="10.00"> </text>
<polyline fill="none" stroke="black" points="223.5,-606 364.5,-606 "/>
<text text-anchor="start" x="231.5" y="-594" font-family="Helvetica,sans-Serif" font-size="10.00">+ System()</text>
<text text-anchor="start" x="231.5" y="-583" font-family="Helvetica,sans-Serif" font-size="10.00">+ ~System()</text>
<text text-anchor="start" x="231.5" y="-572" font-family="Helvetica,sans-Serif" font-size="10.00">+ generateTasks()</text>
<text text-anchor="start" x="231.5" y="-561" font-family="Helvetica,sans-Serif" font-size="10.00">+ registerComponent()</text>
<text text-anchor="start" x="231.5" y="-550" font-family="Helvetica,sans-Serif" font-size="10.00">+ unregisterComponent()</text>
<text text-anchor="start" x="231.5" y="-539" font-family="Helvetica,sans-Serif" font-size="10.00">+ unregisterAllComponents()</text>
<text text-anchor="start" x="231.5" y="-528" font-family="Helvetica,sans-Serif" font-size="10.00">+ getEntityComponents()</text>
<text text-anchor="start" x="231.5" y="-517" font-family="Helvetica,sans-Serif" font-size="10.00">+ handleAssetLoading()</text>
</a>
</g>
</g>
<!-- Node9&#45;&gt;Node8 -->
<g id="edge9" class="edge"><title>Node9&#45;&gt;Node8</title>
<path fill="none" stroke="#404040" d="M308.85,-509.763C315.06,-482.066 322.481,-448.967 329.615,-417.146"/>
<polygon fill="none" stroke="#404040" points="329.707,-416.736 327.116,-410.006 332.332,-405.027 334.923,-411.756 329.707,-416.736"/>
<text text-anchor="middle" x="355.5" y="-427.5" font-family="Helvetica,sans-Serif" font-size="10.00"> #m_system</text>
</g>
<!-- Node10&#45;&gt;Node9 -->
<g id="edge10" class="edge"><title>Node10&#45;&gt;Node9</title>
<path fill="none" stroke="#404040" d="M293.11,-891.323C293.27,-835.104 293.569,-729.576 293.777,-656.623"/>
<polygon fill="none" stroke="#404040" points="293.777,-656.305 289.795,-650.293 293.812,-644.305 297.795,-650.316 293.777,-656.305"/>
<text text-anchor="middle" x="332" y="-721.5" font-family="Helvetica,sans-Serif" font-size="10.00"> #m_components</text>
</g>
<!-- Node11 -->
<g id="node11" class="node"><title>Node11</title>
<polygon fill="white" stroke="#bfbfbf" points="262.5,-1184.5 262.5,-1263.5 379.5,-1263.5 379.5,-1184.5 262.5,-1184.5"/>
<text text-anchor="start" x="270.5" y="-1251.5" font-family="Helvetica,sans-Serif" font-size="10.00">pair&lt; const Ra::Engine</text>
<text text-anchor="start" x="270.5" y="-1240.5" font-family="Helvetica,sans-Serif" font-size="10.00">::Entity *, Ra::Engine</text>
<text text-anchor="middle" x="321" y="-1229.5" font-family="Helvetica,sans-Serif" font-size="10.00">::Component * &gt;</text>
<polyline fill="none" stroke="#bfbfbf" points="262.5,-1222.5 379.5,-1222.5 "/>
<text text-anchor="middle" x="321" y="-1210.5" font-family="Helvetica,sans-Serif" font-size="10.00"> </text>
<polyline fill="none" stroke="#bfbfbf" points="262.5,-1203.5 379.5,-1203.5 "/>
<text text-anchor="middle" x="321" y="-1191.5" font-family="Helvetica,sans-Serif" font-size="10.00"> </text>
</g>
<!-- Node11&#45;&gt;Node10 -->
<g id="edge11" class="edge"><title>Node11&#45;&gt;Node10</title>
<path fill="none" stroke="#404040" d="M317.282,-1184.36C312.293,-1132.5 303.42,-1040.3 297.893,-982.856"/>
<polygon fill="none" stroke="#404040" points="297.883,-982.747 293.327,-977.158 296.734,-970.802 301.29,-976.392 297.883,-982.747"/>
<text text-anchor="middle" x="339.5" y="-1146.5" font-family="Helvetica,sans-Serif" font-size="10.00"> +elements</text>
</g>
<!-- Node12 -->
<g id="node12" class="node"><title>Node12</title>
<g id="a_node12"><a xlink:href="classRa_1_1Engine_1_1Entity.html" target="_top" xlink:title="An entity is an scene element. It ties together components with a transform. ">
<polygon fill="white" stroke="black" points="383.5,-455 383.5,-699 514.5,-699 514.5,-455 383.5,-455"/>
<text text-anchor="middle" x="449" y="-687" font-family="Helvetica,sans-Serif" font-size="10.00">Ra::Engine::Entity</text>
<polyline fill="none" stroke="black" points="383.5,-680 514.5,-680 "/>
<text text-anchor="middle" x="449" y="-668" font-family="Helvetica,sans-Serif" font-size="10.00"> </text>
<polyline fill="none" stroke="black" points="383.5,-661 514.5,-661 "/>
<text text-anchor="start" x="391.5" y="-649" font-family="Helvetica,sans-Serif" font-size="10.00">+ Entity()</text>
<text text-anchor="start" x="391.5" y="-638" font-family="Helvetica,sans-Serif" font-size="10.00">+ Entity()</text>
<text text-anchor="start" x="391.5" y="-627" font-family="Helvetica,sans-Serif" font-size="10.00">+ operator=()</text>
<text text-anchor="start" x="391.5" y="-616" font-family="Helvetica,sans-Serif" font-size="10.00">+ ~Entity()</text>
<text text-anchor="start" x="391.5" y="-605" font-family="Helvetica,sans-Serif" font-size="10.00">+ getName()</text>
<text text-anchor="start" x="391.5" y="-594" font-family="Helvetica,sans-Serif" font-size="10.00">+ rename()</text>
<text text-anchor="start" x="391.5" y="-583" font-family="Helvetica,sans-Serif" font-size="10.00">+ setTransform()</text>
<text text-anchor="start" x="391.5" y="-572" font-family="Helvetica,sans-Serif" font-size="10.00">+ setTransform()</text>
<text text-anchor="start" x="391.5" y="-561" font-family="Helvetica,sans-Serif" font-size="10.00">+ getTransform()</text>
<text text-anchor="start" x="391.5" y="-550" font-family="Helvetica,sans-Serif" font-size="10.00">+ getTransformAsMatrix()</text>
<text text-anchor="start" x="391.5" y="-539" font-family="Helvetica,sans-Serif" font-size="10.00">+ swapTransformBuffers()</text>
<text text-anchor="start" x="391.5" y="-528" font-family="Helvetica,sans-Serif" font-size="10.00">+ addComponent()</text>
<text text-anchor="start" x="391.5" y="-517" font-family="Helvetica,sans-Serif" font-size="10.00">+ removeComponent()</text>
<text text-anchor="start" x="391.5" y="-506" font-family="Helvetica,sans-Serif" font-size="10.00">+ getComponent()</text>
<text text-anchor="start" x="391.5" y="-495" font-family="Helvetica,sans-Serif" font-size="10.00">+ getComponent()</text>
<text text-anchor="start" x="391.5" y="-484" font-family="Helvetica,sans-Serif" font-size="10.00">+ getComponents()</text>
<text text-anchor="start" x="391.5" y="-473" font-family="Helvetica,sans-Serif" font-size="10.00">+ getNumComponents()</text>
<text text-anchor="start" x="391.5" y="-462" font-family="Helvetica,sans-Serif" font-size="10.00">+ rayCastQuery()</text>
</a>
</g>
</g>
<!-- Node12&#45;&gt;Node8 -->
<g id="edge13" class="edge"><title>Node12&#45;&gt;Node8</title>
<path fill="none" stroke="#404040" d="M409.316,-454.792C405.183,-442.168 400.981,-429.333 396.846,-416.704"/>
<polygon fill="none" stroke="#404040" points="396.806,-416.58 391.137,-412.123 393.072,-405.176 398.74,-409.633 396.806,-416.58"/>
<text text-anchor="middle" x="426" y="-427.5" font-family="Helvetica,sans-Serif" font-size="10.00"> #m_entity</text>
</g>
<!-- Node13 -->
<g id="node13" class="node"><title>Node13</title>
<g id="a_node13"><a xlink:href="classRa_1_1Core_1_1IndexedObject.html" target="_top" xlink:title="{Ra::Core::IndexedObject\n||+ IndexedObject()\l+ IndexedObject()\l+ ~IndexedObject()\l}">
<polygon fill="white" stroke="black" points="390.5,-891.5 390.5,-970.5 515.5,-970.5 515.5,-891.5 390.5,-891.5"/>
<text text-anchor="middle" x="453" y="-958.5" font-family="Helvetica,sans-Serif" font-size="10.00">Ra::Core::IndexedObject</text>
<polyline fill="none" stroke="black" points="390.5,-951.5 515.5,-951.5 "/>
<text text-anchor="middle" x="453" y="-939.5" font-family="Helvetica,sans-Serif" font-size="10.00"> </text>
<polyline fill="none" stroke="black" points="390.5,-932.5 515.5,-932.5 "/>
<text text-anchor="start" x="398.5" y="-920.5" font-family="Helvetica,sans-Serif" font-size="10.00">+ IndexedObject()</text>
<text text-anchor="start" x="398.5" y="-909.5" font-family="Helvetica,sans-Serif" font-size="10.00">+ IndexedObject()</text>
<text text-anchor="start" x="398.5" y="-898.5" font-family="Helvetica,sans-Serif" font-size="10.00">+ ~IndexedObject()</text>
</a>
</g>
</g>
<!-- Node13&#45;&gt;Node12 -->
<g id="edge14" class="edge"><title>Node13&#45;&gt;Node12</title>
<path fill="none" stroke="midnightblue" d="M452.445,-881.149C451.912,-834.287 451.087,-761.631 450.377,-699.197"/>
<polygon fill="none" stroke="midnightblue" points="448.947,-881.363 452.56,-891.323 455.947,-881.284 448.947,-881.363"/>
</g>
<!-- Node14 -->
<g id="node14" class="node"><title>Node14</title>
<polygon fill="white" stroke="#bfbfbf" points="437,-1195.5 437,-1252.5 469,-1252.5 469,-1195.5 437,-1195.5"/>
<text text-anchor="middle" x="453" y="-1240.5" font-family="Helvetica,sans-Serif" font-size="10.00">uint</text>
<polyline fill="none" stroke="#bfbfbf" points="437,-1233.5 469,-1233.5 "/>
<text text-anchor="middle" x="453" y="-1221.5" font-family="Helvetica,sans-Serif" font-size="10.00"> </text>
<polyline fill="none" stroke="#bfbfbf" points="437,-1214.5 469,-1214.5 "/>
<text text-anchor="middle" x="453" y="-1202.5" font-family="Helvetica,sans-Serif" font-size="10.00"> </text>
</g>
<!-- Node14&#45;&gt;Node13 -->
<g id="edge15" class="edge"><title>Node14&#45;&gt;Node13</title>
<path fill="none" stroke="#404040" d="M453,-1195.36C453,-1146.65 453,-1044.84 453,-983.046"/>
<polygon fill="none" stroke="#404040" points="453,-982.876 449,-976.876 453,-970.876 457,-976.876 453,-982.876"/>
<text text-anchor="middle" x="464" y="-1146.5" font-family="Helvetica,sans-Serif" font-size="10.00"> +idx</text>
</g>
<!-- Node15 -->
<g id="node15" class="node"><title>Node15</title>
<g id="a_node15"><a xlink:title="STL class. ">
<polygon fill="white" stroke="#bfbfbf" points="543,-548.5 543,-605.5 603,-605.5 603,-548.5 543,-548.5"/>
<text text-anchor="middle" x="573" y="-593.5" font-family="Helvetica,sans-Serif" font-size="10.00">std::string</text>
<polyline fill="none" stroke="#bfbfbf" points="543,-586.5 603,-586.5 "/>
<text text-anchor="middle" x="573" y="-574.5" font-family="Helvetica,sans-Serif" font-size="10.00"> </text>
<polyline fill="none" stroke="#bfbfbf" points="543,-567.5 603,-567.5 "/>
<text text-anchor="middle" x="573" y="-555.5" font-family="Helvetica,sans-Serif" font-size="10.00"> </text>
</a>
</g>
</g>
<!-- Node15&#45;&gt;Node8 -->
<g id="edge16" class="edge"><title>Node15&#45;&gt;Node8</title>
<path fill="none" stroke="#404040" d="M567.15,-548.283C560.342,-521.585 546.861,-481.331 523,-454 497.274,-424.532 475.679,-432.571 441.283,-406.211"/>
<polygon fill="none" stroke="#404040" points="440.965,-405.946 433.794,-405.182 431.742,-398.269 438.913,-399.033 440.965,-405.946"/>
<text text-anchor="middle" x="524" y="-427.5" font-family="Helvetica,sans-Serif" font-size="10.00"> #m_name</text>
</g>
<!-- Node16 -->
<g id="node16" class="node"><title>Node16</title>
<g id="a_node16"><a xlink:title="STL class. ">
<polygon fill="white" stroke="#bfbfbf" points="533.5,-897 533.5,-965 628.5,-965 628.5,-897 533.5,-897"/>
<text text-anchor="start" x="541.5" y="-953" font-family="Helvetica,sans-Serif" font-size="10.00">std::basic_string&lt;</text>
<text text-anchor="middle" x="581" y="-942" font-family="Helvetica,sans-Serif" font-size="10.00"> char &gt;</text>
<polyline fill="none" stroke="#bfbfbf" points="533.5,-935 628.5,-935 "/>
<text text-anchor="middle" x="581" y="-923" font-family="Helvetica,sans-Serif" font-size="10.00"> </text>
<polyline fill="none" stroke="#bfbfbf" points="533.5,-916 628.5,-916 "/>
<text text-anchor="middle" x="581" y="-904" font-family="Helvetica,sans-Serif" font-size="10.00"> </text>
</a>
</g>
</g>
<!-- Node16&#45;&gt;Node15 -->
<g id="edge17" class="edge"><title>Node16&#45;&gt;Node15</title>
<path fill="none" stroke="midnightblue" d="M580.014,-886.618C578.348,-813.311 575.022,-666.95 573.632,-605.826"/>
<polygon fill="none" stroke="midnightblue" points="576.521,-886.967 580.247,-896.885 583.519,-886.808 576.521,-886.967"/>
</g>
<!-- Node17 -->
<g id="node17" class="node"><title>Node17</title>
<polygon fill="white" stroke="#bfbfbf" points="449.5,-260 449.5,-328 550.5,-328 550.5,-260 449.5,-260"/>
<text text-anchor="start" x="457.5" y="-316" font-family="Helvetica,sans-Serif" font-size="10.00">Transform&lt; Scalar,</text>
<text text-anchor="middle" x="500" y="-305" font-family="Helvetica,sans-Serif" font-size="10.00"> 3, Eigen::Affine &gt;</text>
<polyline fill="none" stroke="#bfbfbf" points="449.5,-298 550.5,-298 "/>
<text text-anchor="middle" x="500" y="-286" font-family="Helvetica,sans-Serif" font-size="10.00"> </text>
<polyline fill="none" stroke="#bfbfbf" points="449.5,-279 550.5,-279 "/>
<text text-anchor="middle" x="500" y="-267" font-family="Helvetica,sans-Serif" font-size="10.00"> </text>
</g>
<!-- Node17&#45;&gt;Node1 -->
<g id="edge18" class="edge"><title>Node17&#45;&gt;Node1</title>
<path fill="none" stroke="#404040" d="M486.368,-259.737C475.838,-236.464 459.744,-205.467 440,-182 414.819,-152.071 381.051,-124.607 351.835,-103.623"/>
<polygon fill="none" stroke="#404040" points="351.515,-103.398 344.307,-103.206 341.712,-96.4778 348.92,-96.67 351.515,-103.398"/>
<text text-anchor="middle" x="453.5" y="-156" font-family="Helvetica,sans-Serif" font-size="10.00"> #m_worldTo</text>
<text text-anchor="middle" x="453.5" y="-145" font-family="Helvetica,sans-Serif" font-size="10.00">#m_transform</text>
</g>
</g>
</svg>
