<?xml version="1.0" encoding="UTF-8" standalone="no"?>
<!DOCTYPE svg PUBLIC "-//W3C//DTD SVG 1.1//EN"
 "http://www.w3.org/Graphics/SVG/1.1/DTD/svg11.dtd">
<!-- Generated by graphviz version 2.36.0 (20140111.2315)
 -->
<!-- Title: Ra::Engine::Camera::initialize Pages: 1 -->
<svg width="506pt" height="332pt"
 viewBox="0.00 0.00 506.00 332.00" xmlns="http://www.w3.org/2000/svg" xmlns:xlink="http://www.w3.org/1999/xlink">
<g id="graph0" class="graph" transform="scale(1 1) rotate(0) translate(4 328)">
<title>Ra::Engine::Camera::initialize</title>
<polygon fill="white" stroke="none" points="-4,4 -4,-328 502,-328 502,4 -4,4"/>
<!-- Node1 -->
<g id="node1" class="node"><title>Node1</title>
<polygon fill="#bfbfbf" stroke="black" points="0,-122 0,-152 106,-152 106,-122 0,-122"/>
<text text-anchor="start" x="8" y="-140" font-family="Helvetica,sans-Serif" font-size="10.00">Ra::Engine::Camera</text>
<text text-anchor="middle" x="53" y="-129" font-family="Helvetica,sans-Serif" font-size="10.00">::initialize</text>
</g>
<!-- Node2 -->
<g id="node2" class="node"><title>Node2</title>
<g id="a_node2"><a xlink:href="namespaceRa_1_1Core_1_1Algorithm.html#aea294cdb6f4f0d85955bdcccb22886ec" target="_top" xlink:title="Ra::Core::Algorithm::t">
<polygon fill="white" stroke="black" points="165.5,-245.5 165.5,-264.5 278.5,-264.5 278.5,-245.5 165.5,-245.5"/>
<text text-anchor="middle" x="222" y="-252.5" font-family="Helvetica,sans-Serif" font-size="10.00">Ra::Core::Algorithm::t</text>
</a>
</g>
</g>
<!-- Node1&#45;&gt;Node2 -->
<g id="edge1" class="edge"><title>Node1&#45;&gt;Node2</title>
<path fill="none" stroke="midnightblue" d="M63.348,-152.155C77.5774,-173.912 106.772,-213.714 142,-235 146.354,-237.631 151.043,-239.917 155.887,-241.903"/>
<polygon fill="midnightblue" stroke="midnightblue" points="154.753,-245.215 165.346,-245.366 157.159,-238.642 154.753,-245.215"/>
</g>
<!-- Node3 -->
<g id="node3" class="node"><title>Node3</title>
<g id="a_node3"><a xlink:href="classRa_1_1Engine_1_1RenderObject.html#ae9cb914f351555a60d29e8d6afedc06b" target="_top" xlink:title="Sort of factory method to easily create a render object. ">
<polygon fill="white" stroke="black" points="156.5,-196 156.5,-226 287.5,-226 287.5,-196 156.5,-196"/>
<text text-anchor="start" x="164.5" y="-214" font-family="Helvetica,sans-Serif" font-size="10.00">Ra::Engine::RenderObject</text>
<text text-anchor="middle" x="222" y="-203" font-family="Helvetica,sans-Serif" font-size="10.00">::createRenderObject</text>
</a>
</g>
</g>
<!-- Node1&#45;&gt;Node3 -->
<g id="edge2" class="edge"><title>Node1&#45;&gt;Node3</title>
<path fill="none" stroke="midnightblue" d="M77.9845,-152.092C95.3103,-162.557 119.521,-176.303 142,-186 147.331,-188.3 152.945,-190.496 158.619,-192.564"/>
<polygon fill="midnightblue" stroke="midnightblue" points="157.593,-195.913 168.188,-195.918 159.909,-189.307 157.593,-195.913"/>
</g>
<!-- Node8 -->
<g id="node8" class="node"><title>Node8</title>
<g id="a_node8"><a xlink:href="classRa_1_1Engine_1_1RenderObject.html#acc91aff99b91e06143b28940ec49d0e0" target="_top" xlink:title="Ra::Engine::RenderObject\l::getRenderTechnique">
<polygon fill="white" stroke="black" points="156.5,-147 156.5,-177 287.5,-177 287.5,-147 156.5,-147"/>
<text text-anchor="start" x="164.5" y="-165" font-family="Helvetica,sans-Serif" font-size="10.00">Ra::Engine::RenderObject</text>
<text text-anchor="middle" x="222" y="-154" font-family="Helvetica,sans-Serif" font-size="10.00">::getRenderTechnique</text>
</a>
</g>
</g>
<!-- Node1&#45;&gt;Node8 -->
<g id="edge7" class="edge"><title>Node1&#45;&gt;Node8</title>
<path fill="none" stroke="midnightblue" d="M106.382,-144.842C119.035,-146.736 132.801,-148.797 146.26,-150.811"/>
<polygon fill="midnightblue" stroke="midnightblue" points="146.061,-154.32 156.469,-152.34 147.097,-147.398 146.061,-154.32"/>
</g>
<!-- Node9 -->
<g id="node9" class="node"><title>Node9</title>
<g id="a_node9"><a xlink:href="namespaceRa_1_1Engine_1_1ShaderConfigurationFactory.html#a0bc60f21dbabd745961037f3d2f019c8" target="_top" xlink:title="Ra::Engine::ShaderConfiguration\lFactory::getConfiguration">
<polygon fill="white" stroke="black" points="142,-98 142,-128 302,-128 302,-98 142,-98"/>
<text text-anchor="start" x="150" y="-116" font-family="Helvetica,sans-Serif" font-size="10.00">Ra::Engine::ShaderConfiguration</text>
<text text-anchor="middle" x="222" y="-105" font-family="Helvetica,sans-Serif" font-size="10.00">Factory::getConfiguration</text>
</a>
</g>
</g>
<!-- Node1&#45;&gt;Node9 -->
<g id="edge8" class="edge"><title>Node1&#45;&gt;Node9</title>
<path fill="none" stroke="midnightblue" d="M106.382,-129.472C114.494,-128.306 123.065,-127.075 131.718,-125.831"/>
<polygon fill="midnightblue" stroke="midnightblue" points="132.492,-129.256 141.892,-124.369 131.496,-122.327 132.492,-129.256"/>
</g>
<!-- Node11 -->
<g id="node11" class="node"><title>Node11</title>
<g id="a_node11"><a xlink:href="classRa_1_1Engine_1_1RenderObject.html#a2d6a1bc2b7646fe0912035a2ece24864" target="_top" xlink:title="Ra::Engine::RenderObject\l::setLocalTransform">
<polygon fill="white" stroke="black" points="156.5,-49 156.5,-79 287.5,-79 287.5,-49 156.5,-49"/>
<text text-anchor="start" x="164.5" y="-67" font-family="Helvetica,sans-Serif" font-size="10.00">Ra::Engine::RenderObject</text>
<text text-anchor="middle" x="222" y="-56" font-family="Helvetica,sans-Serif" font-size="10.00">::setLocalTransform</text>
</a>
</g>
</g>
<!-- Node1&#45;&gt;Node11 -->
<g id="edge10" class="edge"><title>Node1&#45;&gt;Node11</title>
<path fill="none" stroke="midnightblue" d="M77.9502,-121.828C95.2599,-111.325 119.466,-97.5672 142,-88 146.663,-86.0201 151.545,-84.1295 156.495,-82.3411"/>
<polygon fill="midnightblue" stroke="midnightblue" points="157.755,-85.6088 166.062,-79.0316 155.467,-78.9935 157.755,-85.6088"/>
</g>
<!-- Node12 -->
<g id="node12" class="node"><title>Node12</title>
<g id="a_node12"><a xlink:href="classRa_1_1Engine_1_1Component.html#a8faa6f03b4a5a8bc30bb8ff402e6b61f" target="_top" xlink:title="Add a new render object to the component. This adds the RO to the manager for drawing. ">
<polygon fill="white" stroke="black" points="161,-0 161,-30 283,-30 283,-0 161,-0"/>
<text text-anchor="start" x="169" y="-18" font-family="Helvetica,sans-Serif" font-size="10.00">Ra::Engine::Component</text>
<text text-anchor="middle" x="222" y="-7" font-family="Helvetica,sans-Serif" font-size="10.00">::addRenderObject</text>
</a>
</g>
</g>
<!-- Node1&#45;&gt;Node12 -->
<g id="edge11" class="edge"><title>Node1&#45;&gt;Node12</title>
<path fill="none" stroke="midnightblue" d="M63.7241,-121.702C78.2068,-100.138 107.474,-60.9852 142,-39 144.993,-37.0944 148.145,-35.333 151.398,-33.7056"/>
<polygon fill="midnightblue" stroke="midnightblue" points="153.112,-36.7721 160.785,-29.4661 150.23,-30.3927 153.112,-36.7721"/>
</g>
<!-- Node4 -->
<g id="node4" class="node"><title>Node4</title>
<g id="a_node4"><a xlink:href="classRa_1_1Engine_1_1RenderObject.html#acf300c8fdb55fee54d27b3fb46a1e523" target="_top" xlink:title="A &#45;1 (or any other negative value) lifetime is considered infinite, 0 is an &quot;invalid value&quot; (would ...">
<polygon fill="white" stroke="black" points="352.5,-294 352.5,-324 483.5,-324 483.5,-294 352.5,-294"/>
<text text-anchor="start" x="360.5" y="-312" font-family="Helvetica,sans-Serif" font-size="10.00">Ra::Engine::RenderObject</text>
<text text-anchor="middle" x="418" y="-301" font-family="Helvetica,sans-Serif" font-size="10.00">::RenderObject</text>
</a>
</g>
</g>
<!-- Node3&#45;&gt;Node4 -->
<g id="edge3" class="edge"><title>Node3&#45;&gt;Node4</title>
<path fill="none" stroke="midnightblue" d="M284.368,-226.14C290.594,-228.912 296.602,-232.172 302,-236 323.752,-251.427 316.248,-268.573 338,-284 340.699,-285.914 343.55,-287.686 346.505,-289.326"/>
<polygon fill="midnightblue" stroke="midnightblue" points="345.119,-292.545 355.632,-293.86 348.233,-286.276 345.119,-292.545"/>
</g>
<!-- Node5 -->
<g id="node5" class="node"><title>Node5</title>
<g id="a_node5"><a xlink:href="classRa_1_1Engine_1_1RenderObject.html#ae8e94954e783a2012fd774598af1eb52" target="_top" xlink:title="Ra::Engine::RenderObject\l::setMesh">
<polygon fill="white" stroke="black" points="352.5,-245 352.5,-275 483.5,-275 483.5,-245 352.5,-245"/>
<text text-anchor="start" x="360.5" y="-263" font-family="Helvetica,sans-Serif" font-size="10.00">Ra::Engine::RenderObject</text>
<text text-anchor="middle" x="418" y="-252" font-family="Helvetica,sans-Serif" font-size="10.00">::setMesh</text>
</a>
</g>
</g>
<!-- Node3&#45;&gt;Node5 -->
<g id="edge4" class="edge"><title>Node3&#45;&gt;Node5</title>
<path fill="none" stroke="midnightblue" d="M282.525,-226.035C303.102,-231.232 326.337,-237.101 347.634,-242.48"/>
<polygon fill="midnightblue" stroke="midnightblue" points="347.035,-245.938 357.588,-244.994 348.749,-239.151 347.035,-245.938"/>
</g>
<!-- Node6 -->
<g id="node6" class="node"><title>Node6</title>
<g id="a_node6"><a xlink:href="classRa_1_1Engine_1_1RenderObject.html#a62e0eb3a7de5a7d352b565a28260cc06" target="_top" xlink:title="Ra::Engine::RenderObject\l::setVisible">
<polygon fill="white" stroke="black" points="352.5,-196 352.5,-226 483.5,-226 483.5,-196 352.5,-196"/>
<text text-anchor="start" x="360.5" y="-214" font-family="Helvetica,sans-Serif" font-size="10.00">Ra::Engine::RenderObject</text>
<text text-anchor="middle" x="418" y="-203" font-family="Helvetica,sans-Serif" font-size="10.00">::setVisible</text>
</a>
</g>
</g>
<!-- Node3&#45;&gt;Node6 -->
<g id="edge5" class="edge"><title>Node3&#45;&gt;Node6</title>
<path fill="none" stroke="midnightblue" d="M287.599,-211C305.095,-211 324.18,-211 342.187,-211"/>
<polygon fill="midnightblue" stroke="midnightblue" points="342.352,-214.5 352.352,-211 342.352,-207.5 342.352,-214.5"/>
</g>
<!-- Node7 -->
<g id="node7" class="node"><title>Node7</title>
<g id="a_node7"><a xlink:href="classRa_1_1Engine_1_1RenderObject.html#ae1ea453e2b698cda9956586d11b9cfbd" target="_top" xlink:title="Ra::Engine::RenderObject\l::setRenderTechnique">
<polygon fill="white" stroke="black" points="352.5,-147 352.5,-177 483.5,-177 483.5,-147 352.5,-147"/>
<text text-anchor="start" x="360.5" y="-165" font-family="Helvetica,sans-Serif" font-size="10.00">Ra::Engine::RenderObject</text>
<text text-anchor="middle" x="418" y="-154" font-family="Helvetica,sans-Serif" font-size="10.00">::setRenderTechnique</text>
</a>
</g>
</g>
<!-- Node3&#45;&gt;Node7 -->
<g id="edge6" class="edge"><title>Node3&#45;&gt;Node7</title>
<path fill="none" stroke="midnightblue" d="M282.525,-195.965C303.102,-190.768 326.337,-184.899 347.634,-179.52"/>
<polygon fill="midnightblue" stroke="midnightblue" points="348.749,-182.849 357.588,-177.006 347.035,-176.062 348.749,-182.849"/>
</g>
<!-- Node10 -->
<g id="node10" class="node"><title>Node10</title>
<g id="a_node10"><a xlink:href="classRa_1_1Engine_1_1ShaderConfiguration.html#a7e20a600c78e8627f0238b342f4b42f2" target="_top" xlink:title="Ra::Engine::ShaderConfiguration\l::getDefaultShaderConfig">
<polygon fill="white" stroke="black" points="338,-98 338,-128 498,-128 498,-98 338,-98"/>
<text text-anchor="start" x="346" y="-116" font-family="Helvetica,sans-Serif" font-size="10.00">Ra::Engine::ShaderConfiguration</text>
<text text-anchor="middle" x="418" y="-105" font-family="Helvetica,sans-Serif" font-size="10.00">::getDefaultShaderConfig</text>
</a>
</g>
</g>
<!-- Node9&#45;&gt;Node10 -->
<g id="edge9" class="edge"><title>Node9&#45;&gt;Node10</title>
<path fill="none" stroke="midnightblue" d="M302.187,-113C310.529,-113 319.054,-113 327.502,-113"/>
<polygon fill="midnightblue" stroke="midnightblue" points="327.752,-116.5 337.752,-113 327.752,-109.5 327.752,-116.5"/>
</g>
<!-- Node13 -->
<g id="node13" class="node"><title>Node13</title>
<g id="a_node13"><a xlink:href="classRa_1_1Engine_1_1Component.html#a10b0bc182b76165744ebea603ae32dfe" target="_top" xlink:title="Shortcut to access the render object manager. ">
<polygon fill="white" stroke="black" points="357,-0 357,-30 479,-30 479,-0 357,-0"/>
<text text-anchor="start" x="365" y="-18" font-family="Helvetica,sans-Serif" font-size="10.00">Ra::Engine::Component</text>
<text text-anchor="middle" x="418" y="-7" font-family="Helvetica,sans-Serif" font-size="10.00">::getRoMgr</text>
</a>
</g>
</g>
<!-- Node12&#45;&gt;Node13 -->
<g id="edge12" class="edge"><title>Node12&#45;&gt;Node13</title>
<path fill="none" stroke="midnightblue" d="M283.054,-15C303.233,-15 325.919,-15 346.805,-15"/>
<polygon fill="midnightblue" stroke="midnightblue" points="346.896,-18.5001 356.896,-15 346.896,-11.5001 346.896,-18.5001"/>
</g>
</g>
</svg>
