<?xml version="1.0" encoding="UTF-8" standalone="no"?>
<!DOCTYPE svg PUBLIC "-//W3C//DTD SVG 1.1//EN"
 "http://www.w3.org/Graphics/SVG/1.1/DTD/svg11.dtd">
<!-- Generated by graphviz version 2.36.0 (20140111.2315)
 -->
<!-- Title: /home/travis/build/STORM&#45;IRIT/Radium&#45;Engine/src/Core/Math/ColorPresets.hpp Pages: 1 -->
<svg width="2442pt" height="308pt"
 viewBox="0.00 0.00 2442.00 308.00" xmlns="http://www.w3.org/2000/svg" xmlns:xlink="http://www.w3.org/1999/xlink">
<g id="graph0" class="graph" transform="scale(1 1) rotate(0) translate(4 304)">
<title>/home/travis/build/STORM&#45;IRIT/Radium&#45;Engine/src/Core/Math/ColorPresets.hpp</title>
<polygon fill="white" stroke="none" points="-4,4 -4,-304 2438,-304 2438,4 -4,4"/>
<!-- Node1 -->
<g id="node1" class="node"><title>Node1</title>
<polygon fill="#bfbfbf" stroke="black" points="1358.5,-258.5 1358.5,-299.5 1519.5,-299.5 1519.5,-258.5 1358.5,-258.5"/>
<text text-anchor="start" x="1366.5" y="-287.5" font-family="Helvetica,sans-Serif" font-size="10.00">/home/travis/build</text>
<text text-anchor="start" x="1366.5" y="-276.5" font-family="Helvetica,sans-Serif" font-size="10.00">/STORM&#45;IRIT/Radium&#45;Engine</text>
<text text-anchor="middle" x="1439" y="-265.5" font-family="Helvetica,sans-Serif" font-size="10.00">/src/Core/Math/ColorPresets.hpp</text>
</g>
<!-- Node2 -->
<g id="node2" class="node"><title>Node2</title>
<g id="a_node2"><a xlink:href="BVH_8inl.html" target="_top" xlink:title="/home/travis/build\l/STORM&#45;IRIT/Radium&#45;Engine\l/src/Core/TreeStructures\l/BVH.inl">
<polygon fill="white" stroke="black" points="0,-169 0,-221 148,-221 148,-169 0,-169"/>
<text text-anchor="start" x="8" y="-209" font-family="Helvetica,sans-Serif" font-size="10.00">/home/travis/build</text>
<text text-anchor="start" x="8" y="-198" font-family="Helvetica,sans-Serif" font-size="10.00">/STORM&#45;IRIT/Radium&#45;Engine</text>
<text text-anchor="start" x="8" y="-187" font-family="Helvetica,sans-Serif" font-size="10.00">/src/Core/TreeStructures</text>
<text text-anchor="middle" x="74" y="-176" font-family="Helvetica,sans-Serif" font-size="10.00">/BVH.inl</text>
</a>
</g>
</g>
<!-- Node1&#45;&gt;Node2 -->
<g id="edge1" class="edge"><title>Node1&#45;&gt;Node2</title>
<path fill="none" stroke="midnightblue" d="M1348.17,-272.543C1094.3,-257.293 380.746,-214.427 148.251,-200.46"/>
<polygon fill="midnightblue" stroke="midnightblue" points="1348.27,-276.056 1358.46,-273.162 1348.69,-269.068 1348.27,-276.056"/>
</g>
<!-- Node4 -->
<g id="node4" class="node"><title>Node4</title>
<g id="a_node4"><a xlink:href="SystemDisplay_8hpp.html" target="_top" xlink:title="/home/travis/build\l/STORM&#45;IRIT/Radium&#45;Engine\l/src/Engine/Managers/SystemDisplay\l/SystemDisplay.hpp">
<polygon fill="white" stroke="black" points="939,-169 939,-221 1121,-221 1121,-169 939,-169"/>
<text text-anchor="start" x="947" y="-209" font-family="Helvetica,sans-Serif" font-size="10.00">/home/travis/build</text>
<text text-anchor="start" x="947" y="-198" font-family="Helvetica,sans-Serif" font-size="10.00">/STORM&#45;IRIT/Radium&#45;Engine</text>
<text text-anchor="start" x="947" y="-187" font-family="Helvetica,sans-Serif" font-size="10.00">/src/Engine/Managers/SystemDisplay</text>
<text text-anchor="middle" x="1030" y="-176" font-family="Helvetica,sans-Serif" font-size="10.00">/SystemDisplay.hpp</text>
</a>
</g>
</g>
<!-- Node1&#45;&gt;Node4 -->
<g id="edge4" class="edge"><title>Node1&#45;&gt;Node4</title>
<path fill="none" stroke="midnightblue" d="M1348.49,-262.805C1287.89,-252.269 1206.43,-237.409 1135,-222 1130.5,-221.03 1125.9,-220.007 1121.27,-218.951"/>
<polygon fill="midnightblue" stroke="midnightblue" points="1347.96,-266.266 1358.41,-264.524 1349.15,-259.369 1347.96,-266.266"/>
</g>
<!-- Node9 -->
<g id="node9" class="node"><title>Node9</title>
<g id="a_node9"><a xlink:href="BaseApplication_8cpp.html" target="_top" xlink:title="/home/travis/build\l/STORM&#45;IRIT/Radium&#45;Engine\l/src/GuiBase/BaseApplication.cpp">
<polygon fill="white" stroke="black" points="166,-84.5 166,-125.5 332,-125.5 332,-84.5 166,-84.5"/>
<text text-anchor="start" x="174" y="-113.5" font-family="Helvetica,sans-Serif" font-size="10.00">/home/travis/build</text>
<text text-anchor="start" x="174" y="-102.5" font-family="Helvetica,sans-Serif" font-size="10.00">/STORM&#45;IRIT/Radium&#45;Engine</text>
<text text-anchor="middle" x="249" y="-91.5" font-family="Helvetica,sans-Serif" font-size="10.00">/src/GuiBase/BaseApplication.cpp</text>
</a>
</g>
</g>
<!-- Node1&#45;&gt;Node9 -->
<g id="edge17" class="edge"><title>Node1&#45;&gt;Node9</title>
<path fill="none" stroke="midnightblue" d="M1348.15,-270.955C1159.06,-255.192 710.08,-212.029 341,-132 332.322,-130.118 323.253,-127.888 314.335,-125.536"/>
<polygon fill="midnightblue" stroke="midnightblue" points="1348.07,-274.46 1358.32,-271.797 1348.64,-267.484 1348.07,-274.46"/>
</g>
<!-- Node12 -->
<g id="node12" class="node"><title>Node12</title>
<g id="a_node12"><a xlink:href="Viewer_8cpp.html" target="_top" xlink:title="/home/travis/build\l/STORM&#45;IRIT/Radium&#45;Engine\l/src/GuiBase/Viewer/Viewer.cpp">
<polygon fill="white" stroke="black" points="1923,-84.5 1923,-125.5 2081,-125.5 2081,-84.5 1923,-84.5"/>
<text text-anchor="start" x="1931" y="-113.5" font-family="Helvetica,sans-Serif" font-size="10.00">/home/travis/build</text>
<text text-anchor="start" x="1931" y="-102.5" font-family="Helvetica,sans-Serif" font-size="10.00">/STORM&#45;IRIT/Radium&#45;Engine</text>
<text text-anchor="middle" x="2002" y="-91.5" font-family="Helvetica,sans-Serif" font-size="10.00">/src/GuiBase/Viewer/Viewer.cpp</text>
</a>
</g>
</g>
<!-- Node1&#45;&gt;Node12 -->
<g id="edge20" class="edge"><title>Node1&#45;&gt;Node12</title>
<path fill="none" stroke="midnightblue" d="M1348.29,-271.362C1278.61,-264.155 1190.59,-249.738 1168,-222 1152.84,-203.391 1151.44,-185.375 1168,-168 1225.25,-107.923 1832.18,-145.856 1914,-132 1923.42,-130.404 1933.26,-128.128 1942.81,-125.578"/>
<polygon fill="midnightblue" stroke="midnightblue" points="1348.13,-274.864 1358.43,-272.374 1348.82,-267.898 1348.13,-274.864"/>
</g>
<!-- Node15 -->
<g id="node15" class="node"><title>Node15</title>
<g id="a_node15"><a xlink:href="ForwardRenderer_8cpp.html" target="_top" xlink:title="/home/travis/build\l/STORM&#45;IRIT/Radium&#45;Engine\l/src/Engine/Renderer/Renderers\l/ForwardRenderer.cpp">
<polygon fill="white" stroke="black" points="1177.5,-169 1177.5,-221 1334.5,-221 1334.5,-169 1177.5,-169"/>
<text text-anchor="start" x="1185.5" y="-209" font-family="Helvetica,sans-Serif" font-size="10.00">/home/travis/build</text>
<text text-anchor="start" x="1185.5" y="-198" font-family="Helvetica,sans-Serif" font-size="10.00">/STORM&#45;IRIT/Radium&#45;Engine</text>
<text text-anchor="start" x="1185.5" y="-187" font-family="Helvetica,sans-Serif" font-size="10.00">/src/Engine/Renderer/Renderers</text>
<text text-anchor="middle" x="1256" y="-176" font-family="Helvetica,sans-Serif" font-size="10.00">/ForwardRenderer.cpp</text>
</a>
</g>
</g>
<!-- Node1&#45;&gt;Node15 -->
<g id="edge15" class="edge"><title>Node1&#45;&gt;Node15</title>
<path fill="none" stroke="midnightblue" d="M1385.83,-254.176C1362.65,-243.788 1335.46,-231.604 1311.97,-221.078"/>
<polygon fill="midnightblue" stroke="midnightblue" points="1384.61,-257.464 1395.17,-258.359 1387.47,-251.076 1384.61,-257.464"/>
</g>
<!-- Node16 -->
<g id="node16" class="node"><title>Node16</title>
<g id="a_node16"><a xlink:href="DrawPrimitives_8cpp.html" target="_top" xlink:title="/home/travis/build\l/STORM&#45;IRIT/Radium&#45;Engine\l/src/Engine/Renderer/RenderObject\l/Primitives/DrawPrimitives.cpp">
<polygon fill="white" stroke="black" points="1353,-169 1353,-221 1525,-221 1525,-169 1353,-169"/>
<text text-anchor="start" x="1361" y="-209" font-family="Helvetica,sans-Serif" font-size="10.00">/home/travis/build</text>
<text text-anchor="start" x="1361" y="-198" font-family="Helvetica,sans-Serif" font-size="10.00">/STORM&#45;IRIT/Radium&#45;Engine</text>
<text text-anchor="start" x="1361" y="-187" font-family="Helvetica,sans-Serif" font-size="10.00">/src/Engine/Renderer/RenderObject</text>
<text text-anchor="middle" x="1439" y="-176" font-family="Helvetica,sans-Serif" font-size="10.00">/Primitives/DrawPrimitives.cpp</text>
</a>
</g>
</g>
<!-- Node1&#45;&gt;Node16 -->
<g id="edge16" class="edge"><title>Node1&#45;&gt;Node16</title>
<path fill="none" stroke="midnightblue" d="M1439,-247.938C1439,-239.176 1439,-229.695 1439,-221.261"/>
<polygon fill="midnightblue" stroke="midnightblue" points="1435.5,-248.15 1439,-258.15 1442.5,-248.15 1435.5,-248.15"/>
</g>
<!-- Node17 -->
<g id="node17" class="node"><title>Node17</title>
<g id="a_node17"><a xlink:href="RotateGizmo_8cpp.html" target="_top" xlink:title="/home/travis/build\l/STORM&#45;IRIT/Radium&#45;Engine\l/src/GuiBase/Viewer/Gizmo\l/RotateGizmo.cpp">
<polygon fill="white" stroke="black" points="1543,-169 1543,-221 1691,-221 1691,-169 1543,-169"/>
<text text-anchor="start" x="1551" y="-209" font-family="Helvetica,sans-Serif" font-size="10.00">/home/travis/build</text>
<text text-anchor="start" x="1551" y="-198" font-family="Helvetica,sans-Serif" font-size="10.00">/STORM&#45;IRIT/Radium&#45;Engine</text>
<text text-anchor="start" x="1551" y="-187" font-family="Helvetica,sans-Serif" font-size="10.00">/src/GuiBase/Viewer/Gizmo</text>
<text text-anchor="middle" x="1617" y="-176" font-family="Helvetica,sans-Serif" font-size="10.00">/RotateGizmo.cpp</text>
</a>
</g>
</g>
<!-- Node1&#45;&gt;Node17 -->
<g id="edge18" class="edge"><title>Node1&#45;&gt;Node17</title>
<path fill="none" stroke="midnightblue" d="M1491.02,-254.038C1513.5,-243.68 1539.81,-231.557 1562.56,-221.078"/>
<polygon fill="midnightblue" stroke="midnightblue" points="1489.25,-250.996 1481.64,-258.359 1492.18,-257.354 1489.25,-250.996"/>
</g>
<!-- Node18 -->
<g id="node18" class="node"><title>Node18</title>
<g id="a_node18"><a xlink:href="TranslateGizmo_8cpp.html" target="_top" xlink:title="/home/travis/build\l/STORM&#45;IRIT/Radium&#45;Engine\l/src/GuiBase/Viewer/Gizmo\l/TranslateGizmo.cpp">
<polygon fill="white" stroke="black" points="1709,-169 1709,-221 1857,-221 1857,-169 1709,-169"/>
<text text-anchor="start" x="1717" y="-209" font-family="Helvetica,sans-Serif" font-size="10.00">/home/travis/build</text>
<text text-anchor="start" x="1717" y="-198" font-family="Helvetica,sans-Serif" font-size="10.00">/STORM&#45;IRIT/Radium&#45;Engine</text>
<text text-anchor="start" x="1717" y="-187" font-family="Helvetica,sans-Serif" font-size="10.00">/src/GuiBase/Viewer/Gizmo</text>
<text text-anchor="middle" x="1783" y="-176" font-family="Helvetica,sans-Serif" font-size="10.00">/TranslateGizmo.cpp</text>
</a>
</g>
</g>
<!-- Node1&#45;&gt;Node18 -->
<g id="edge19" class="edge"><title>Node1&#45;&gt;Node18</title>
<path fill="none" stroke="midnightblue" d="M1529.61,-260.698C1580.04,-250.533 1643.8,-236.797 1700,-222 1702.92,-221.231 1705.89,-220.423 1708.89,-219.588"/>
<polygon fill="midnightblue" stroke="midnightblue" points="1528.82,-257.286 1519.7,-262.683 1530.2,-264.15 1528.82,-257.286"/>
</g>
<!-- Node19 -->
<g id="node19" class="node"><title>Node19</title>
<g id="a_node19"><a xlink:href="FancyMeshComponent_8cpp.html" target="_top" xlink:title="/home/travis/build\l/STORM&#45;IRIT/Radium&#45;Engine\l/Plugins/FancyMesh/src/FancyMesh\lComponent.cpp">
<polygon fill="white" stroke="black" points="1875,-169 1875,-221 2051,-221 2051,-169 1875,-169"/>
<text text-anchor="start" x="1883" y="-209" font-family="Helvetica,sans-Serif" font-size="10.00">/home/travis/build</text>
<text text-anchor="start" x="1883" y="-198" font-family="Helvetica,sans-Serif" font-size="10.00">/STORM&#45;IRIT/Radium&#45;Engine</text>
<text text-anchor="start" x="1883" y="-187" font-family="Helvetica,sans-Serif" font-size="10.00">/Plugins/FancyMesh/src/FancyMesh</text>
<text text-anchor="middle" x="1963" y="-176" font-family="Helvetica,sans-Serif" font-size="10.00">Component.cpp</text>
</a>
</g>
</g>
<!-- Node1&#45;&gt;Node19 -->
<g id="edge21" class="edge"><title>Node1&#45;&gt;Node19</title>
<path fill="none" stroke="midnightblue" d="M1529.88,-269.581C1616.71,-260.714 1751.02,-244.847 1866,-222 1868.91,-221.422 1871.86,-220.807 1874.83,-220.161"/>
<polygon fill="midnightblue" stroke="midnightblue" points="1529.39,-266.113 1519.79,-270.602 1530.09,-273.077 1529.39,-266.113"/>
</g>
<!-- Node20 -->
<g id="node20" class="node"><title>Node20</title>
<g id="a_node20"><a xlink:href="MeshPaintComponent_8cpp.html" target="_top" xlink:title="/home/travis/build\l/STORM&#45;IRIT/Radium&#45;Engine\l/Plugins/MeshPaint/src/MeshPaint\lComponent.cpp">
<polygon fill="white" stroke="black" points="2068.5,-169 2068.5,-221 2235.5,-221 2235.5,-169 2068.5,-169"/>
<text text-anchor="start" x="2076.5" y="-209" font-family="Helvetica,sans-Serif" font-size="10.00">/home/travis/build</text>
<text text-anchor="start" x="2076.5" y="-198" font-family="Helvetica,sans-Serif" font-size="10.00">/STORM&#45;IRIT/Radium&#45;Engine</text>
<text text-anchor="start" x="2076.5" y="-187" font-family="Helvetica,sans-Serif" font-size="10.00">/Plugins/MeshPaint/src/MeshPaint</text>
<text text-anchor="middle" x="2152" y="-176" font-family="Helvetica,sans-Serif" font-size="10.00">Component.cpp</text>
</a>
</g>
</g>
<!-- Node1&#45;&gt;Node20 -->
<g id="edge22" class="edge"><title>Node1&#45;&gt;Node20</title>
<path fill="none" stroke="midnightblue" d="M1529.9,-274.981C1651.35,-269.767 1872.88,-256.126 2059,-222 2062.05,-221.441 2065.15,-220.826 2068.26,-220.168"/>
<polygon fill="midnightblue" stroke="midnightblue" points="1529.74,-271.484 1519.89,-275.401 1530.03,-278.478 1529.74,-271.484"/>
</g>
<!-- Node21 -->
<g id="node21" class="node"><title>Node21</title>
<g id="a_node21"><a xlink:href="SkinningDisplayComponent_8hpp.html" target="_top" xlink:title="/home/travis/build\l/STORM&#45;IRIT/Radium&#45;Engine\l/Plugins/Skinning/src/Display\l/SkinningDisplayComponent.hpp">
<polygon fill="white" stroke="black" points="2253.5,-169 2253.5,-221 2412.5,-221 2412.5,-169 2253.5,-169"/>
<text text-anchor="start" x="2261.5" y="-209" font-family="Helvetica,sans-Serif" font-size="10.00">/home/travis/build</text>
<text text-anchor="start" x="2261.5" y="-198" font-family="Helvetica,sans-Serif" font-size="10.00">/STORM&#45;IRIT/Radium&#45;Engine</text>
<text text-anchor="start" x="2261.5" y="-187" font-family="Helvetica,sans-Serif" font-size="10.00">/Plugins/Skinning/src/Display</text>
<text text-anchor="middle" x="2333" y="-176" font-family="Helvetica,sans-Serif" font-size="10.00">/SkinningDisplayComponent.hpp</text>
</a>
</g>
</g>
<!-- Node1&#45;&gt;Node21 -->
<g id="edge23" class="edge"><title>Node1&#45;&gt;Node21</title>
<path fill="none" stroke="midnightblue" d="M1529.76,-278.005C1679.65,-276.606 1987.86,-267.774 2244,-222 2247.01,-221.462 2250.06,-220.861 2253.14,-220.208"/>
<polygon fill="midnightblue" stroke="midnightblue" points="1529.65,-274.506 1519.68,-278.09 1529.71,-281.505 1529.65,-274.506"/>
</g>
<!-- Node3 -->
<g id="node3" class="node"><title>Node3</title>
<g id="a_node3"><a xlink:href="BVH_8hpp.html" target="_top" xlink:title="/home/travis/build\l/STORM&#45;IRIT/Radium&#45;Engine\l/src/Core/TreeStructures\l/BVH.hpp">
<polygon fill="white" stroke="black" points="0,-79 0,-131 148,-131 148,-79 0,-79"/>
<text text-anchor="start" x="8" y="-119" font-family="Helvetica,sans-Serif" font-size="10.00">/home/travis/build</text>
<text text-anchor="start" x="8" y="-108" font-family="Helvetica,sans-Serif" font-size="10.00">/STORM&#45;IRIT/Radium&#45;Engine</text>
<text text-anchor="start" x="8" y="-97" font-family="Helvetica,sans-Serif" font-size="10.00">/src/Core/TreeStructures</text>
<text text-anchor="middle" x="74" y="-86" font-family="Helvetica,sans-Serif" font-size="10.00">/BVH.hpp</text>
</a>
</g>
</g>
<!-- Node2&#45;&gt;Node3 -->
<g id="edge2" class="edge"><title>Node2&#45;&gt;Node3</title>
<path fill="none" stroke="midnightblue" d="M67.3629,-158.489C67.1159,-149.309 67.2741,-139.616 67.8376,-131.092"/>
<polygon fill="midnightblue" stroke="midnightblue" points="63.8694,-158.714 67.814,-168.547 70.8624,-158.4 63.8694,-158.714"/>
</g>
<!-- Node3&#45;&gt;Node2 -->
<g id="edge3" class="edge"><title>Node3&#45;&gt;Node2</title>
<path fill="none" stroke="midnightblue" d="M80.6264,-141.123C80.8848,-150.289 80.738,-159.99 80.186,-168.547"/>
<polygon fill="midnightblue" stroke="midnightblue" points="84.1208,-140.92 80.1624,-131.092 77.1283,-141.243 84.1208,-140.92"/>
</g>
<!-- Node5 -->
<g id="node5" class="node"><title>Node5</title>
<g id="a_node5"><a xlink:href="ItemEntry_8cpp.html" target="_top" xlink:title="/home/travis/build\l/STORM&#45;IRIT/Radium&#45;Engine\l/src/Engine/ItemModel/ItemEntry.cpp">
<polygon fill="white" stroke="black" points="350.5,-84.5 350.5,-125.5 529.5,-125.5 529.5,-84.5 350.5,-84.5"/>
<text text-anchor="start" x="358.5" y="-113.5" font-family="Helvetica,sans-Serif" font-size="10.00">/home/travis/build</text>
<text text-anchor="start" x="358.5" y="-102.5" font-family="Helvetica,sans-Serif" font-size="10.00">/STORM&#45;IRIT/Radium&#45;Engine</text>
<text text-anchor="middle" x="440" y="-91.5" font-family="Helvetica,sans-Serif" font-size="10.00">/src/Engine/ItemModel/ItemEntry.cpp</text>
</a>
</g>
</g>
<!-- Node4&#45;&gt;Node5 -->
<g id="edge5" class="edge"><title>Node4&#45;&gt;Node5</title>
<path fill="none" stroke="midnightblue" d="M928.871,-185.143C829.168,-175.494 672.747,-157.891 539,-132 529.492,-130.159 519.545,-127.924 509.777,-125.546"/>
<polygon fill="midnightblue" stroke="midnightblue" points="928.651,-188.638 938.94,-186.109 929.32,-181.67 928.651,-188.638"/>
</g>
<!-- Node6 -->
<g id="node6" class="node"><title>Node6</title>
<g id="a_node6"><a xlink:href="EntityManager_8cpp.html" target="_top" xlink:title="/home/travis/build\l/STORM&#45;IRIT/Radium&#45;Engine\l/src/Engine/Managers/EntityManager\l/EntityManager.cpp">
<polygon fill="white" stroke="black" points="548,-79 548,-131 726,-131 726,-79 548,-79"/>
<text text-anchor="start" x="556" y="-119" font-family="Helvetica,sans-Serif" font-size="10.00">/home/travis/build</text>
<text text-anchor="start" x="556" y="-108" font-family="Helvetica,sans-Serif" font-size="10.00">/STORM&#45;IRIT/Radium&#45;Engine</text>
<text text-anchor="start" x="556" y="-97" font-family="Helvetica,sans-Serif" font-size="10.00">/src/Engine/Managers/EntityManager</text>
<text text-anchor="middle" x="637" y="-86" font-family="Helvetica,sans-Serif" font-size="10.00">/EntityManager.cpp</text>
</a>
</g>
</g>
<!-- Node4&#45;&gt;Node6 -->
<g id="edge6" class="edge"><title>Node4&#45;&gt;Node6</title>
<path fill="none" stroke="midnightblue" d="M928.592,-174.047C871.55,-162.484 799.124,-147.234 735,-132 732.089,-131.308 729.132,-130.594 726.148,-129.863"/>
<polygon fill="midnightblue" stroke="midnightblue" points="928.199,-177.539 938.695,-176.09 929.586,-170.678 928.199,-177.539"/>
</g>
<!-- Node7 -->
<g id="node7" class="node"><title>Node7</title>
<g id="a_node7"><a xlink:href="SystemDisplay_8cpp.html" target="_top" xlink:title="/home/travis/build\l/STORM&#45;IRIT/Radium&#45;Engine\l/src/Engine/Managers/SystemDisplay\l/SystemDisplay.cpp">
<polygon fill="white" stroke="black" points="744,-79 744,-131 926,-131 926,-79 744,-79"/>
<text text-anchor="start" x="752" y="-119" font-family="Helvetica,sans-Serif" font-size="10.00">/home/travis/build</text>
<text text-anchor="start" x="752" y="-108" font-family="Helvetica,sans-Serif" font-size="10.00">/STORM&#45;IRIT/Radium&#45;Engine</text>
<text text-anchor="start" x="752" y="-97" font-family="Helvetica,sans-Serif" font-size="10.00">/src/Engine/Managers/SystemDisplay</text>
<text text-anchor="middle" x="835" y="-86" font-family="Helvetica,sans-Serif" font-size="10.00">/SystemDisplay.cpp</text>
</a>
</g>
</g>
<!-- Node4&#45;&gt;Node7 -->
<g id="edge7" class="edge"><title>Node4&#45;&gt;Node7</title>
<path fill="none" stroke="midnightblue" d="M964.971,-164.654C940.903,-153.792 913.856,-141.586 890.692,-131.133"/>
<polygon fill="midnightblue" stroke="midnightblue" points="963.827,-167.977 974.382,-168.901 966.707,-161.597 963.827,-167.977"/>
</g>
<!-- Node8 -->
<g id="node8" class="node"><title>Node8</title>
<g id="a_node8"><a xlink:href="RenderObjectManager_8cpp.html" target="_top" xlink:title="/home/travis/build\l/STORM&#45;IRIT/Radium&#45;Engine\l/src/Engine/Renderer/RenderObject\l/RenderObjectManager.cpp">
<polygon fill="white" stroke="black" points="944,-79 944,-131 1116,-131 1116,-79 944,-79"/>
<text text-anchor="start" x="952" y="-119" font-family="Helvetica,sans-Serif" font-size="10.00">/home/travis/build</text>
<text text-anchor="start" x="952" y="-108" font-family="Helvetica,sans-Serif" font-size="10.00">/STORM&#45;IRIT/Radium&#45;Engine</text>
<text text-anchor="start" x="952" y="-97" font-family="Helvetica,sans-Serif" font-size="10.00">/src/Engine/Renderer/RenderObject</text>
<text text-anchor="middle" x="1030" y="-86" font-family="Helvetica,sans-Serif" font-size="10.00">/RenderObjectManager.cpp</text>
</a>
</g>
</g>
<!-- Node4&#45;&gt;Node8 -->
<g id="edge8" class="edge"><title>Node4&#45;&gt;Node8</title>
<path fill="none" stroke="midnightblue" d="M1030,-158.489C1030,-149.309 1030,-139.616 1030,-131.092"/>
<polygon fill="midnightblue" stroke="midnightblue" points="1026.5,-158.547 1030,-168.547 1033.5,-158.547 1026.5,-158.547"/>
</g>
<!-- Node4&#45;&gt;Node9 -->
<g id="edge9" class="edge"><title>Node4&#45;&gt;Node9</title>
<path fill="none" stroke="midnightblue" d="M928.658,-190.763C793.6,-185.112 547.616,-170.15 341,-132 331.697,-130.282 321.975,-128.04 312.483,-125.593"/>
<polygon fill="midnightblue" stroke="midnightblue" points="928.851,-194.274 938.985,-191.186 929.137,-187.28 928.851,-194.274"/>
</g>
<!-- Node10 -->
<g id="node10" class="node"><title>Node10</title>
<g id="a_node10"><a xlink:href="CameraInterface_8cpp.html" target="_top" xlink:title="/home/travis/build\l/STORM&#45;IRIT/Radium&#45;Engine\l/src/GuiBase/Viewer/CameraInterface.cpp">
<polygon fill="white" stroke="black" points="1134.5,-84.5 1134.5,-125.5 1335.5,-125.5 1335.5,-84.5 1134.5,-84.5"/>
<text text-anchor="start" x="1142.5" y="-113.5" font-family="Helvetica,sans-Serif" font-size="10.00">/home/travis/build</text>
<text text-anchor="start" x="1142.5" y="-102.5" font-family="Helvetica,sans-Serif" font-size="10.00">/STORM&#45;IRIT/Radium&#45;Engine</text>
<text text-anchor="middle" x="1235" y="-91.5" font-family="Helvetica,sans-Serif" font-size="10.00">/src/GuiBase/Viewer/CameraInterface.cpp</text>
</a>
</g>
</g>
<!-- Node4&#45;&gt;Node10 -->
<g id="edge10" class="edge"><title>Node4&#45;&gt;Node10</title>
<path fill="none" stroke="midnightblue" d="M1097.66,-164.954C1127.8,-152.016 1162.5,-137.12 1189.48,-125.538"/>
<polygon fill="midnightblue" stroke="midnightblue" points="1096.28,-161.74 1088.47,-168.901 1099.04,-168.172 1096.28,-161.74"/>
</g>
<!-- Node11 -->
<g id="node11" class="node"><title>Node11</title>
<g id="a_node11"><a xlink:href="GizmoManager_8cpp.html" target="_top" xlink:title="/home/travis/build\l/STORM&#45;IRIT/Radium&#45;Engine\l/src/GuiBase/Viewer/Gizmo\l/GizmoManager.cpp">
<polygon fill="white" stroke="black" points="1354,-79 1354,-131 1502,-131 1502,-79 1354,-79"/>
<text text-anchor="start" x="1362" y="-119" font-family="Helvetica,sans-Serif" font-size="10.00">/home/travis/build</text>
<text text-anchor="start" x="1362" y="-108" font-family="Helvetica,sans-Serif" font-size="10.00">/STORM&#45;IRIT/Radium&#45;Engine</text>
<text text-anchor="start" x="1362" y="-97" font-family="Helvetica,sans-Serif" font-size="10.00">/src/GuiBase/Viewer/Gizmo</text>
<text text-anchor="middle" x="1428" y="-86" font-family="Helvetica,sans-Serif" font-size="10.00">/GizmoManager.cpp</text>
</a>
</g>
</g>
<!-- Node4&#45;&gt;Node11 -->
<g id="edge11" class="edge"><title>Node4&#45;&gt;Node11</title>
<path fill="none" stroke="midnightblue" d="M1131.18,-168.81C1132.46,-168.536 1133.73,-168.266 1135,-168 1227.25,-148.66 1252.34,-153.981 1344,-132 1347.27,-131.217 1350.59,-130.376 1353.94,-129.494"/>
<polygon fill="midnightblue" stroke="midnightblue" points="1130.27,-165.425 1121.25,-170.985 1131.77,-172.263 1130.27,-165.425"/>
</g>
<!-- Node4&#45;&gt;Node12 -->
<g id="edge12" class="edge"><title>Node4&#45;&gt;Node12</title>
<path fill="none" stroke="midnightblue" d="M1131.14,-168.585C1132.43,-168.381 1133.72,-168.186 1135,-168 1477.98,-118.106 1572.21,-189.52 1914,-132 1923.43,-130.414 1933.27,-128.143 1942.81,-125.595"/>
<polygon fill="midnightblue" stroke="midnightblue" points="1130.4,-165.16 1121.13,-170.294 1131.58,-172.061 1130.4,-165.16"/>
</g>
<!-- Node13 -->
<g id="node13" class="node"><title>Node13</title>
<g id="a_node13"><a xlink:href="MeshFeatureTrackingComponent_8cpp.html" target="_top" xlink:title="/home/travis/build\l/STORM&#45;IRIT/Radium&#45;Engine\l/Plugins/MeshFeatureTracking\l/src/MeshFeatureTrackingComponent.cpp">
<polygon fill="white" stroke="black" points="1520,-79 1520,-131 1720,-131 1720,-79 1520,-79"/>
<text text-anchor="start" x="1528" y="-119" font-family="Helvetica,sans-Serif" font-size="10.00">/home/travis/build</text>
<text text-anchor="start" x="1528" y="-108" font-family="Helvetica,sans-Serif" font-size="10.00">/STORM&#45;IRIT/Radium&#45;Engine</text>
<text text-anchor="start" x="1528" y="-97" font-family="Helvetica,sans-Serif" font-size="10.00">/Plugins/MeshFeatureTracking</text>
<text text-anchor="middle" x="1620" y="-86" font-family="Helvetica,sans-Serif" font-size="10.00">/src/MeshFeatureTrackingComponent.cpp</text>
</a>
</g>
</g>
<!-- Node4&#45;&gt;Node13 -->
<g id="edge13" class="edge"><title>Node4&#45;&gt;Node13</title>
<path fill="none" stroke="midnightblue" d="M1131.15,-168.674C1132.44,-168.443 1133.72,-168.218 1135,-168 1300.48,-139.748 1345.4,-159.542 1511,-132 1513.88,-131.521 1516.79,-131.009 1519.73,-130.47"/>
<polygon fill="midnightblue" stroke="midnightblue" points="1130.34,-165.265 1121.17,-170.568 1131.65,-172.142 1130.34,-165.265"/>
</g>
<!-- Node14 -->
<g id="node14" class="node"><title>Node14</title>
<g id="a_node14"><a xlink:href="MeshPaintPlugin_8cpp.html" target="_top" xlink:title="/home/travis/build\l/STORM&#45;IRIT/Radium&#45;Engine\l/Plugins/MeshPaint/src/MeshPaint\lPlugin.cpp">
<polygon fill="white" stroke="black" points="1738.5,-79 1738.5,-131 1905.5,-131 1905.5,-79 1738.5,-79"/>
<text text-anchor="start" x="1746.5" y="-119" font-family="Helvetica,sans-Serif" font-size="10.00">/home/travis/build</text>
<text text-anchor="start" x="1746.5" y="-108" font-family="Helvetica,sans-Serif" font-size="10.00">/STORM&#45;IRIT/Radium&#45;Engine</text>
<text text-anchor="start" x="1746.5" y="-97" font-family="Helvetica,sans-Serif" font-size="10.00">/Plugins/MeshPaint/src/MeshPaint</text>
<text text-anchor="middle" x="1822" y="-86" font-family="Helvetica,sans-Serif" font-size="10.00">Plugin.cpp</text>
</a>
</g>
</g>
<!-- Node4&#45;&gt;Node14 -->
<g id="edge14" class="edge"><title>Node4&#45;&gt;Node14</title>
<path fill="none" stroke="midnightblue" d="M1131.14,-168.611C1132.43,-168.399 1133.72,-168.195 1135,-168 1396.45,-128.049 1468.18,-175.852 1729,-132 1732.06,-131.486 1735.16,-130.91 1738.28,-130.284"/>
<polygon fill="midnightblue" stroke="midnightblue" points="1130.38,-165.191 1121.14,-170.374 1131.6,-172.085 1130.38,-165.191"/>
</g>
<!-- Node22 -->
<g id="node22" class="node"><title>Node22</title>
<g id="a_node22"><a xlink:href="SkinningSystem_8hpp.html" target="_top" xlink:title="/home/travis/build\l/STORM&#45;IRIT/Radium&#45;Engine\l/Plugins/Skinning/src/SkinningSystem.hpp">
<polygon fill="white" stroke="black" points="2232,-84.5 2232,-125.5 2434,-125.5 2434,-84.5 2232,-84.5"/>
<text text-anchor="start" x="2240" y="-113.5" font-family="Helvetica,sans-Serif" font-size="10.00">/home/travis/build</text>
<text text-anchor="start" x="2240" y="-102.5" font-family="Helvetica,sans-Serif" font-size="10.00">/STORM&#45;IRIT/Radium&#45;Engine</text>
<text text-anchor="middle" x="2333" y="-91.5" font-family="Helvetica,sans-Serif" font-size="10.00">/Plugins/Skinning/src/SkinningSystem.hpp</text>
</a>
</g>
</g>
<!-- Node21&#45;&gt;Node22 -->
<g id="edge24" class="edge"><title>Node21&#45;&gt;Node22</title>
<path fill="none" stroke="midnightblue" d="M2333,-158.515C2333,-147.257 2333,-135.227 2333,-125.525"/>
<polygon fill="midnightblue" stroke="midnightblue" points="2329.5,-158.547 2333,-168.547 2336.5,-158.547 2329.5,-158.547"/>
</g>
<!-- Node23 -->
<g id="node23" class="node"><title>Node23</title>
<g id="a_node23"><a xlink:href="SkinningPlugin_8cpp.html" target="_top" xlink:title="/home/travis/build\l/STORM&#45;IRIT/Radium&#45;Engine\l/Plugins/Skinning/src/SkinningPlugin.cpp">
<polygon fill="white" stroke="black" points="2235.5,-0.5 2235.5,-41.5 2430.5,-41.5 2430.5,-0.5 2235.5,-0.5"/>
<text text-anchor="start" x="2243.5" y="-29.5" font-family="Helvetica,sans-Serif" font-size="10.00">/home/travis/build</text>
<text text-anchor="start" x="2243.5" y="-18.5" font-family="Helvetica,sans-Serif" font-size="10.00">/STORM&#45;IRIT/Radium&#45;Engine</text>
<text text-anchor="middle" x="2333" y="-7.5" font-family="Helvetica,sans-Serif" font-size="10.00">/Plugins/Skinning/src/SkinningPlugin.cpp</text>
</a>
</g>
</g>
<!-- Node22&#45;&gt;Node23 -->
<g id="edge25" class="edge"><title>Node22&#45;&gt;Node23</title>
<path fill="none" stroke="midnightblue" d="M2333,-73.881C2333,-63.1328 2333,-51.309 2333,-41.6671"/>
<polygon fill="midnightblue" stroke="midnightblue" points="2329.5,-74.1501 2333,-84.1501 2336.5,-74.1501 2329.5,-74.1501"/>
</g>
</g>
</svg>
