<?xml version="1.0" encoding="UTF-8" standalone="no"?>
<!DOCTYPE svg PUBLIC "-//W3C//DTD SVG 1.1//EN"
 "http://www.w3.org/Graphics/SVG/1.1/DTD/svg11.dtd">
<!-- Generated by graphviz version 2.36.0 (20140111.2315)
 -->
<!-- Title: /home/travis/build/STORM&#45;IRIT/Radium&#45;Engine/src/Tests/CoreTests/src/ContainersTest.hpp Pages: 1 -->
<svg width="478pt" height="398pt"
 viewBox="0.00 0.00 478.00 398.00" xmlns="http://www.w3.org/2000/svg" xmlns:xlink="http://www.w3.org/1999/xlink">
<g id="graph0" class="graph" transform="scale(1 1) rotate(0) translate(4 394)">
<title>/home/travis/build/STORM&#45;IRIT/Radium&#45;Engine/src/Tests/CoreTests/src/ContainersTest.hpp</title>
<polygon fill="white" stroke="none" points="-4,4 -4,-394 474,-394 474,4 -4,4"/>
<!-- Node1 -->
<g id="node1" class="node"><title>Node1</title>
<polygon fill="#bfbfbf" stroke="black" points="224,-337 224,-389 372,-389 372,-337 224,-337"/>
<text text-anchor="start" x="232" y="-377" font-family="Helvetica,sans-Serif" font-size="10.00">/home/travis/build</text>
<text text-anchor="start" x="232" y="-366" font-family="Helvetica,sans-Serif" font-size="10.00">/STORM&#45;IRIT/Radium&#45;Engine</text>
<text text-anchor="start" x="232" y="-355" font-family="Helvetica,sans-Serif" font-size="10.00">/src/Tests/CoreTests/src</text>
<text text-anchor="middle" x="298" y="-344" font-family="Helvetica,sans-Serif" font-size="10.00">/ContainersTest.hpp</text>
</g>
<!-- Node2 -->
<g id="node2" class="node"><title>Node2</title>
<g id="a_node2"><a xlink:href="Iterators_8hpp.html" target="_top" xlink:title="Core/Containers/Iterators.hpp">
<polygon fill="white" stroke="black" points="0,-280.5 0,-299.5 146,-299.5 146,-280.5 0,-280.5"/>
<text text-anchor="middle" x="73" y="-287.5" font-family="Helvetica,sans-Serif" font-size="10.00">Core/Containers/Iterators.hpp</text>
</a>
</g>
</g>
<!-- Node1&#45;&gt;Node2 -->
<g id="edge1" class="edge"><title>Node1&#45;&gt;Node2</title>
<path fill="none" stroke="midnightblue" d="M223.703,-338.555C185.522,-326.507 140.68,-312.357 109.896,-302.643"/>
<polygon fill="midnightblue" stroke="midnightblue" points="110.615,-299.199 100.025,-299.528 108.508,-305.875 110.615,-299.199"/>
</g>
<!-- Node3 -->
<g id="node3" class="node"><title>Node3</title>
<g id="a_node3"><a xlink:href="Tests_8hpp.html" target="_top" xlink:title="Tests/Tests.hpp">
<polygon fill="white" stroke="black" points="164,-280.5 164,-299.5 252,-299.5 252,-280.5 164,-280.5"/>
<text text-anchor="middle" x="208" y="-287.5" font-family="Helvetica,sans-Serif" font-size="10.00">Tests/Tests.hpp</text>
</a>
</g>
</g>
<!-- Node1&#45;&gt;Node3 -->
<g id="edge2" class="edge"><title>Node1&#45;&gt;Node3</title>
<path fill="none" stroke="midnightblue" d="M266.269,-336.968C253.203,-326.66 238.497,-315.059 227.128,-306.09"/>
<polygon fill="midnightblue" stroke="midnightblue" points="229.186,-303.255 219.167,-299.81 224.85,-308.751 229.186,-303.255"/>
</g>
<!-- Node14 -->
<g id="node14" class="node"><title>Node14</title>
<polygon fill="white" stroke="#bfbfbf" points="270,-280.5 270,-299.5 326,-299.5 326,-280.5 270,-280.5"/>
<text text-anchor="middle" x="298" y="-287.5" font-family="Helvetica,sans-Serif" font-size="10.00">algorithm</text>
</g>
<!-- Node1&#45;&gt;Node14 -->
<g id="edge14" class="edge"><title>Node1&#45;&gt;Node14</title>
<path fill="none" stroke="midnightblue" d="M298,-336.768C298,-327.89 298,-318.074 298,-309.816"/>
<polygon fill="midnightblue" stroke="midnightblue" points="301.5,-309.757 298,-299.757 294.5,-309.757 301.5,-309.757"/>
</g>
<!-- Node15 -->
<g id="node15" class="node"><title>Node15</title>
<polygon fill="white" stroke="#bfbfbf" points="344.5,-280.5 344.5,-299.5 403.5,-299.5 403.5,-280.5 344.5,-280.5"/>
<text text-anchor="middle" x="374" y="-287.5" font-family="Helvetica,sans-Serif" font-size="10.00">functional</text>
</g>
<!-- Node1&#45;&gt;Node15 -->
<g id="edge15" class="edge"><title>Node1&#45;&gt;Node15</title>
<path fill="none" stroke="midnightblue" d="M325.009,-336.768C335.7,-326.78 347.662,-315.605 357.09,-306.798"/>
<polygon fill="midnightblue" stroke="midnightblue" points="359.708,-309.141 364.626,-299.757 354.929,-304.026 359.708,-309.141"/>
</g>
<!-- Node16 -->
<g id="node16" class="node"><title>Node16</title>
<polygon fill="white" stroke="#bfbfbf" points="421.5,-280.5 421.5,-299.5 470.5,-299.5 470.5,-280.5 421.5,-280.5"/>
<text text-anchor="middle" x="446" y="-287.5" font-family="Helvetica,sans-Serif" font-size="10.00">random</text>
</g>
<!-- Node1&#45;&gt;Node16 -->
<g id="edge16" class="edge"><title>Node1&#45;&gt;Node16</title>
<path fill="none" stroke="midnightblue" d="M350.179,-336.968C373.389,-325.834 399.743,-313.191 418.931,-303.986"/>
<polygon fill="midnightblue" stroke="midnightblue" points="420.49,-307.12 427.992,-299.639 417.462,-300.809 420.49,-307.12"/>
</g>
<!-- Node4 -->
<g id="node4" class="node"><title>Node4</title>
<g id="a_node4"><a xlink:href="CoreMacros_8hpp.html" target="_top" xlink:title="Core/CoreMacros.hpp">
<polygon fill="white" stroke="black" points="147.5,-56.5 147.5,-75.5 260.5,-75.5 260.5,-56.5 147.5,-56.5"/>
<text text-anchor="middle" x="204" y="-63.5" font-family="Helvetica,sans-Serif" font-size="10.00">Core/CoreMacros.hpp</text>
</a>
</g>
</g>
<!-- Node3&#45;&gt;Node4 -->
<g id="edge3" class="edge"><title>Node3&#45;&gt;Node4</title>
<path fill="none" stroke="midnightblue" d="M205.038,-280.451C201.994,-271.457 197.251,-256.85 194,-244 179.605,-187.099 177.593,-169.367 190,-112 191.948,-102.992 194.892,-93.1992 197.579,-85.0559"/>
<polygon fill="midnightblue" stroke="midnightblue" points="200.921,-86.1006 200.857,-75.5059 194.3,-83.828 200.921,-86.1006"/>
</g>
<!-- Node10 -->
<g id="node10" class="node"><title>Node10</title>
<g id="a_node10"><a xlink:href="Manager_8hpp.html" target="_top" xlink:title="Tests/Manager.hpp">
<polygon fill="white" stroke="black" points="202.5,-224.5 202.5,-243.5 303.5,-243.5 303.5,-224.5 202.5,-224.5"/>
<text text-anchor="middle" x="253" y="-231.5" font-family="Helvetica,sans-Serif" font-size="10.00">Tests/Manager.hpp</text>
</a>
</g>
</g>
<!-- Node3&#45;&gt;Node10 -->
<g id="edge9" class="edge"><title>Node3&#45;&gt;Node10</title>
<path fill="none" stroke="midnightblue" d="M215.431,-280.083C221.853,-272.377 231.306,-261.033 239.122,-251.653"/>
<polygon fill="midnightblue" stroke="midnightblue" points="241.994,-253.674 245.707,-243.751 236.617,-249.193 241.994,-253.674"/>
</g>
<!-- Node5 -->
<g id="node5" class="node"><title>Node5</title>
<polygon fill="white" stroke="#bfbfbf" points="48.5,-0.5 48.5,-19.5 97.5,-19.5 97.5,-0.5 48.5,-0.5"/>
<text text-anchor="middle" x="73" y="-7.5" font-family="Helvetica,sans-Serif" font-size="10.00">cassert</text>
</g>
<!-- Node4&#45;&gt;Node5 -->
<g id="edge4" class="edge"><title>Node4&#45;&gt;Node5</title>
<path fill="none" stroke="midnightblue" d="M183.243,-56.4435C161.684,-47.5566 127.737,-33.5632 103.206,-23.4514"/>
<polygon fill="midnightblue" stroke="midnightblue" points="104.239,-20.0917 93.6602,-19.5164 101.572,-26.5634 104.239,-20.0917"/>
</g>
<!-- Node6 -->
<g id="node6" class="node"><title>Node6</title>
<polygon fill="white" stroke="#bfbfbf" points="115.5,-0.5 115.5,-19.5 158.5,-19.5 158.5,-0.5 115.5,-0.5"/>
<text text-anchor="middle" x="137" y="-7.5" font-family="Helvetica,sans-Serif" font-size="10.00">cstdio</text>
</g>
<!-- Node4&#45;&gt;Node6 -->
<g id="edge5" class="edge"><title>Node4&#45;&gt;Node6</title>
<path fill="none" stroke="midnightblue" d="M193.235,-56.324C183.234,-48.2631 168.113,-36.0765 156.07,-26.3695"/>
<polygon fill="midnightblue" stroke="midnightblue" points="157.943,-23.3841 147.961,-19.8339 153.55,-28.8343 157.943,-23.3841"/>
</g>
<!-- Node7 -->
<g id="node7" class="node"><title>Node7</title>
<polygon fill="white" stroke="#bfbfbf" points="177,-0.5 177,-19.5 231,-19.5 231,-0.5 177,-0.5"/>
<text text-anchor="middle" x="204" y="-7.5" font-family="Helvetica,sans-Serif" font-size="10.00">iostream</text>
</g>
<!-- Node4&#45;&gt;Node7 -->
<g id="edge6" class="edge"><title>Node4&#45;&gt;Node7</title>
<path fill="none" stroke="midnightblue" d="M204,-56.083C204,-49.0059 204,-38.8611 204,-29.9865"/>
<polygon fill="midnightblue" stroke="midnightblue" points="207.5,-29.751 204,-19.7511 200.5,-29.7511 207.5,-29.751"/>
</g>
<!-- Node8 -->
<g id="node8" class="node"><title>Node8</title>
<polygon fill="white" stroke="#bfbfbf" points="249,-0.5 249,-19.5 301,-19.5 301,-0.5 249,-0.5"/>
<text text-anchor="middle" x="275" y="-7.5" font-family="Helvetica,sans-Serif" font-size="10.00">sstream</text>
</g>
<!-- Node4&#45;&gt;Node8 -->
<g id="edge7" class="edge"><title>Node4&#45;&gt;Node8</title>
<path fill="none" stroke="midnightblue" d="M215.407,-56.324C226.109,-48.1849 242.341,-35.8395 255.163,-26.0874"/>
<polygon fill="midnightblue" stroke="midnightblue" points="257.544,-28.6734 263.385,-19.8339 253.307,-23.1018 257.544,-28.6734"/>
</g>
<!-- Node9 -->
<g id="node9" class="node"><title>Node9</title>
<polygon fill="white" stroke="#bfbfbf" points="319,-0.5 319,-19.5 363,-19.5 363,-0.5 319,-0.5"/>
<text text-anchor="middle" x="341" y="-7.5" font-family="Helvetica,sans-Serif" font-size="10.00">thread</text>
</g>
<!-- Node4&#45;&gt;Node9 -->
<g id="edge8" class="edge"><title>Node4&#45;&gt;Node9</title>
<path fill="none" stroke="midnightblue" d="M225.708,-56.4435C248.355,-47.5171 284.072,-33.4387 309.752,-23.3168"/>
<polygon fill="midnightblue" stroke="midnightblue" points="311.374,-26.4397 319.394,-19.5164 308.807,-19.9273 311.374,-26.4397"/>
</g>
<!-- Node11 -->
<g id="node11" class="node"><title>Node11</title>
<g id="a_node11"><a xlink:href="Singleton_8hpp.html" target="_top" xlink:title="Core/Utils/Singleton.hpp">
<polygon fill="white" stroke="black" points="191.5,-168.5 191.5,-187.5 314.5,-187.5 314.5,-168.5 191.5,-168.5"/>
<text text-anchor="middle" x="253" y="-175.5" font-family="Helvetica,sans-Serif" font-size="10.00">Core/Utils/Singleton.hpp</text>
</a>
</g>
</g>
<!-- Node10&#45;&gt;Node11 -->
<g id="edge10" class="edge"><title>Node10&#45;&gt;Node11</title>
<path fill="none" stroke="midnightblue" d="M253,-224.083C253,-217.006 253,-206.861 253,-197.986"/>
<polygon fill="midnightblue" stroke="midnightblue" points="256.5,-197.751 253,-187.751 249.5,-197.751 256.5,-197.751"/>
</g>
<!-- Node13 -->
<g id="node13" class="node"><title>Node13</title>
<polygon fill="white" stroke="#bfbfbf" points="333,-168.5 333,-187.5 377,-187.5 377,-168.5 333,-168.5"/>
<text text-anchor="middle" x="355" y="-175.5" font-family="Helvetica,sans-Serif" font-size="10.00">vector</text>
</g>
<!-- Node10&#45;&gt;Node13 -->
<g id="edge13" class="edge"><title>Node10&#45;&gt;Node13</title>
<path fill="none" stroke="midnightblue" d="M269.388,-224.324C285.671,-215.703 310.867,-202.364 329.716,-192.386"/>
<polygon fill="midnightblue" stroke="midnightblue" points="331.452,-195.427 338.653,-187.655 328.177,-189.24 331.452,-195.427"/>
</g>
<!-- Node12 -->
<g id="node12" class="node"><title>Node12</title>
<g id="a_node12"><a xlink:href="RaCore_8hpp.html" target="_top" xlink:title="Core/RaCore.hpp">
<polygon fill="white" stroke="black" points="198.5,-112.5 198.5,-131.5 291.5,-131.5 291.5,-112.5 198.5,-112.5"/>
<text text-anchor="middle" x="245" y="-119.5" font-family="Helvetica,sans-Serif" font-size="10.00">Core/RaCore.hpp</text>
</a>
</g>
</g>
<!-- Node11&#45;&gt;Node12 -->
<g id="edge11" class="edge"><title>Node11&#45;&gt;Node12</title>
<path fill="none" stroke="midnightblue" d="M251.679,-168.083C250.619,-160.927 249.094,-150.635 247.769,-141.691"/>
<polygon fill="midnightblue" stroke="midnightblue" points="251.224,-141.13 246.296,-131.751 244.3,-142.156 251.224,-141.13"/>
</g>
<!-- Node12&#45;&gt;Node4 -->
<g id="edge12" class="edge"><title>Node12&#45;&gt;Node4</title>
<path fill="none" stroke="midnightblue" d="M238.23,-112.083C232.438,-104.455 223.942,-93.2645 216.862,-83.9408"/>
<polygon fill="midnightblue" stroke="midnightblue" points="219.479,-81.5991 210.644,-75.7511 213.904,-85.8321 219.479,-81.5991"/>
</g>
</g>
</svg>
