<?xml version="1.0" encoding="UTF-8" standalone="no"?>
<!DOCTYPE svg PUBLIC "-//W3C//DTD SVG 1.1//EN"
 "http://www.w3.org/Graphics/SVG/1.1/DTD/svg11.dtd">
<!-- Generated by graphviz version 2.36.0 (20140111.2315)
 -->
<!-- Title: /home/travis/build/STORM&#45;IRIT/Radium&#45;Engine/src/Core/Mesh/TopologicalTriMesh/TopologicalMesh.hpp Pages: 1 -->
<svg width="1245pt" height="242pt"
 viewBox="0.00 0.00 1245.00 242.00" xmlns="http://www.w3.org/2000/svg" xmlns:xlink="http://www.w3.org/1999/xlink">
<g id="graph0" class="graph" transform="scale(1 1) rotate(0) translate(4 238)">
<title>/home/travis/build/STORM&#45;IRIT/Radium&#45;Engine/src/Core/Mesh/TopologicalTriMesh/TopologicalMesh.hpp</title>
<polygon fill="white" stroke="none" points="-4,4 -4,-238 1241,-238 1241,4 -4,4"/>
<!-- Node1 -->
<g id="node1" class="node"><title>Node1</title>
<polygon fill="#bfbfbf" stroke="black" points="614,-181 614,-233 786,-233 786,-181 614,-181"/>
<text text-anchor="start" x="622" y="-221" font-family="Helvetica,sans-Serif" font-size="10.00">/home/travis/build</text>
<text text-anchor="start" x="622" y="-210" font-family="Helvetica,sans-Serif" font-size="10.00">/STORM&#45;IRIT/Radium&#45;Engine</text>
<text text-anchor="start" x="622" y="-199" font-family="Helvetica,sans-Serif" font-size="10.00">/src/Core/Mesh/TopologicalTriMesh</text>
<text text-anchor="middle" x="700" y="-188" font-family="Helvetica,sans-Serif" font-size="10.00">/TopologicalMesh.hpp</text>
</g>
<!-- Node2 -->
<g id="node2" class="node"><title>Node2</title>
<g id="a_node2"><a xlink:href="CatmullClarkSubdivider_8hpp.html" target="_top" xlink:title="/home/travis/build\l/STORM&#45;IRIT/Radium&#45;Engine\l/src/Core/Algorithm/Subdivision\l/CatmullClarkSubdivider.hpp">
<polygon fill="white" stroke="black" points="-0.5,-91 -0.5,-143 154.5,-143 154.5,-91 -0.5,-91"/>
<text text-anchor="start" x="7.5" y="-131" font-family="Helvetica,sans-Serif" font-size="10.00">/home/travis/build</text>
<text text-anchor="start" x="7.5" y="-120" font-family="Helvetica,sans-Serif" font-size="10.00">/STORM&#45;IRIT/Radium&#45;Engine</text>
<text text-anchor="start" x="7.5" y="-109" font-family="Helvetica,sans-Serif" font-size="10.00">/src/Core/Algorithm/Subdivision</text>
<text text-anchor="middle" x="77" y="-98" font-family="Helvetica,sans-Serif" font-size="10.00">/CatmullClarkSubdivider.hpp</text>
</a>
</g>
</g>
<!-- Node1&#45;&gt;Node2 -->
<g id="edge1" class="edge"><title>Node1&#45;&gt;Node2</title>
<path fill="none" stroke="midnightblue" d="M603.445,-200.068C495.307,-192.22 315.234,-175.536 163,-144 160.251,-143.43 157.463,-142.812 154.656,-142.156"/>
<polygon fill="midnightblue" stroke="midnightblue" points="603.458,-203.578 613.682,-200.8 603.957,-196.596 603.458,-203.578"/>
</g>
<!-- Node4 -->
<g id="node4" class="node"><title>Node4</title>
<g id="a_node4"><a xlink:href="LoopSubdivider_8hpp.html" target="_top" xlink:title="/home/travis/build\l/STORM&#45;IRIT/Radium&#45;Engine\l/src/Core/Algorithm/Subdivision\l/LoopSubdivider.hpp">
<polygon fill="white" stroke="black" points="345.5,-91 345.5,-143 500.5,-143 500.5,-91 345.5,-91"/>
<text text-anchor="start" x="353.5" y="-131" font-family="Helvetica,sans-Serif" font-size="10.00">/home/travis/build</text>
<text text-anchor="start" x="353.5" y="-120" font-family="Helvetica,sans-Serif" font-size="10.00">/STORM&#45;IRIT/Radium&#45;Engine</text>
<text text-anchor="start" x="353.5" y="-109" font-family="Helvetica,sans-Serif" font-size="10.00">/src/Core/Algorithm/Subdivision</text>
<text text-anchor="middle" x="423" y="-98" font-family="Helvetica,sans-Serif" font-size="10.00">/LoopSubdivider.hpp</text>
</a>
</g>
</g>
<!-- Node1&#45;&gt;Node4 -->
<g id="edge3" class="edge"><title>Node1&#45;&gt;Node4</title>
<path fill="none" stroke="midnightblue" d="M611.112,-177.761C575.573,-166.471 535.012,-153.585 500.675,-142.677"/>
<polygon fill="midnightblue" stroke="midnightblue" points="610.403,-181.208 620.994,-180.901 612.523,-174.537 610.403,-181.208"/>
</g>
<!-- Node6 -->
<g id="node6" class="node"><title>Node6</title>
<g id="a_node6"><a xlink:href="SubdividerUtils_8hpp.html" target="_top" xlink:title="/home/travis/build\l/STORM&#45;IRIT/Radium&#45;Engine\l/src/Core/Algorithm/Subdivision\l/SubdividerUtils.hpp">
<polygon fill="white" stroke="black" points="172.5,-91 172.5,-143 327.5,-143 327.5,-91 172.5,-91"/>
<text text-anchor="start" x="180.5" y="-131" font-family="Helvetica,sans-Serif" font-size="10.00">/home/travis/build</text>
<text text-anchor="start" x="180.5" y="-120" font-family="Helvetica,sans-Serif" font-size="10.00">/STORM&#45;IRIT/Radium&#45;Engine</text>
<text text-anchor="start" x="180.5" y="-109" font-family="Helvetica,sans-Serif" font-size="10.00">/src/Core/Algorithm/Subdivision</text>
<text text-anchor="middle" x="250" y="-98" font-family="Helvetica,sans-Serif" font-size="10.00">/SubdividerUtils.hpp</text>
</a>
</g>
</g>
<!-- Node1&#45;&gt;Node6 -->
<g id="edge5" class="edge"><title>Node1&#45;&gt;Node6</title>
<path fill="none" stroke="midnightblue" d="M603.51,-192.921C529.764,-182.117 425.842,-165.145 336,-144 333.267,-143.357 330.493,-142.675 327.698,-141.965"/>
<polygon fill="midnightblue" stroke="midnightblue" points="603.312,-196.429 613.711,-194.404 604.319,-189.502 603.312,-196.429"/>
</g>
<!-- Node7 -->
<g id="node7" class="node"><title>Node7</title>
<g id="a_node7"><a xlink:href="TopologicalTriMesh_2Operations_2EdgeSplit_8hpp.html" target="_top" xlink:title="/home/travis/build\l/STORM&#45;IRIT/Radium&#45;Engine\l/src/Core/Mesh/TopologicalTriMesh\l/Operations/EdgeSplit.hpp">
<polygon fill="white" stroke="black" points="519,-91 519,-143 691,-143 691,-91 519,-91"/>
<text text-anchor="start" x="527" y="-131" font-family="Helvetica,sans-Serif" font-size="10.00">/home/travis/build</text>
<text text-anchor="start" x="527" y="-120" font-family="Helvetica,sans-Serif" font-size="10.00">/STORM&#45;IRIT/Radium&#45;Engine</text>
<text text-anchor="start" x="527" y="-109" font-family="Helvetica,sans-Serif" font-size="10.00">/src/Core/Mesh/TopologicalTriMesh</text>
<text text-anchor="middle" x="605" y="-98" font-family="Helvetica,sans-Serif" font-size="10.00">/Operations/EdgeSplit.hpp</text>
</a>
</g>
</g>
<!-- Node1&#45;&gt;Node7 -->
<g id="edge8" class="edge"><title>Node1&#45;&gt;Node7</title>
<path fill="none" stroke="midnightblue" d="M665.401,-173.951C654.475,-163.829 642.563,-152.795 632.227,-143.221"/>
<polygon fill="midnightblue" stroke="midnightblue" points="663.062,-176.555 672.777,-180.783 667.819,-171.419 663.062,-176.555"/>
</g>
<!-- Node9 -->
<g id="node9" class="node"><title>Node9</title>
<g id="a_node9"><a xlink:href="TopologicalMesh_8cpp.html" target="_top" xlink:title="/home/travis/build\l/STORM&#45;IRIT/Radium&#45;Engine\l/src/Core/Mesh/TopologicalTriMesh\l/TopologicalMesh.cpp">
<polygon fill="white" stroke="black" points="709,-91 709,-143 881,-143 881,-91 709,-91"/>
<text text-anchor="start" x="717" y="-131" font-family="Helvetica,sans-Serif" font-size="10.00">/home/travis/build</text>
<text text-anchor="start" x="717" y="-120" font-family="Helvetica,sans-Serif" font-size="10.00">/STORM&#45;IRIT/Radium&#45;Engine</text>
<text text-anchor="start" x="717" y="-109" font-family="Helvetica,sans-Serif" font-size="10.00">/src/Core/Mesh/TopologicalTriMesh</text>
<text text-anchor="middle" x="795" y="-98" font-family="Helvetica,sans-Serif" font-size="10.00">/TopologicalMesh.cpp</text>
</a>
</g>
</g>
<!-- Node1&#45;&gt;Node9 -->
<g id="edge10" class="edge"><title>Node1&#45;&gt;Node9</title>
<path fill="none" stroke="midnightblue" d="M734.599,-173.951C745.525,-163.829 757.437,-152.795 767.773,-143.221"/>
<polygon fill="midnightblue" stroke="midnightblue" points="732.181,-171.419 727.223,-180.783 736.938,-176.555 732.181,-171.419"/>
</g>
<!-- Node10 -->
<g id="node10" class="node"><title>Node10</title>
<g id="a_node10"><a xlink:href="TopologicalMesh_8inl.html" target="_top" xlink:title="/home/travis/build\l/STORM&#45;IRIT/Radium&#45;Engine\l/src/Core/Mesh/TopologicalTriMesh\l/TopologicalMesh.inl">
<polygon fill="white" stroke="black" points="899,-91 899,-143 1071,-143 1071,-91 899,-91"/>
<text text-anchor="start" x="907" y="-131" font-family="Helvetica,sans-Serif" font-size="10.00">/home/travis/build</text>
<text text-anchor="start" x="907" y="-120" font-family="Helvetica,sans-Serif" font-size="10.00">/STORM&#45;IRIT/Radium&#45;Engine</text>
<text text-anchor="start" x="907" y="-109" font-family="Helvetica,sans-Serif" font-size="10.00">/src/Core/Mesh/TopologicalTriMesh</text>
<text text-anchor="middle" x="985" y="-98" font-family="Helvetica,sans-Serif" font-size="10.00">/TopologicalMesh.inl</text>
</a>
</g>
</g>
<!-- Node1&#45;&gt;Node10 -->
<g id="edge11" class="edge"><title>Node1&#45;&gt;Node10</title>
<path fill="none" stroke="midnightblue" d="M785.106,-177.761C821.073,-166.471 862.877,-153.585 898.947,-142.677"/>
<polygon fill="midnightblue" stroke="midnightblue" points="783.614,-174.561 775.125,-180.901 785.715,-181.239 783.614,-174.561"/>
</g>
<!-- Node11 -->
<g id="node11" class="node"><title>Node11</title>
<g id="a_node11"><a xlink:href="Tests_2CoreTests_2src_2TopologicalMesh_8hpp.html" target="_top" xlink:title="/home/travis/build\l/STORM&#45;IRIT/Radium&#45;Engine\l/src/Tests/CoreTests/src\l/TopologicalMesh.hpp">
<polygon fill="white" stroke="black" points="1089,-91 1089,-143 1237,-143 1237,-91 1089,-91"/>
<text text-anchor="start" x="1097" y="-131" font-family="Helvetica,sans-Serif" font-size="10.00">/home/travis/build</text>
<text text-anchor="start" x="1097" y="-120" font-family="Helvetica,sans-Serif" font-size="10.00">/STORM&#45;IRIT/Radium&#45;Engine</text>
<text text-anchor="start" x="1097" y="-109" font-family="Helvetica,sans-Serif" font-size="10.00">/src/Tests/CoreTests/src</text>
<text text-anchor="middle" x="1163" y="-98" font-family="Helvetica,sans-Serif" font-size="10.00">/TopologicalMesh.hpp</text>
</a>
</g>
</g>
<!-- Node1&#45;&gt;Node11 -->
<g id="edge13" class="edge"><title>Node1&#45;&gt;Node11</title>
<path fill="none" stroke="midnightblue" d="M796.533,-194.102C873.788,-183.657 984.604,-166.603 1080,-144 1082.94,-143.304 1085.92,-142.558 1088.93,-141.773"/>
<polygon fill="midnightblue" stroke="midnightblue" points="795.781,-190.671 786.335,-195.468 796.711,-197.609 795.781,-190.671"/>
</g>
<!-- Node3 -->
<g id="node3" class="node"><title>Node3</title>
<g id="a_node3"><a xlink:href="CatmullClarkSubdivider_8cpp.html" target="_top" xlink:title="/home/travis/build\l/STORM&#45;IRIT/Radium&#45;Engine\l/src/Core/Algorithm/Subdivision\l/CatmullClarkSubdivider.cpp">
<polygon fill="white" stroke="black" points="42.5,-1 42.5,-53 197.5,-53 197.5,-1 42.5,-1"/>
<text text-anchor="start" x="50.5" y="-41" font-family="Helvetica,sans-Serif" font-size="10.00">/home/travis/build</text>
<text text-anchor="start" x="50.5" y="-30" font-family="Helvetica,sans-Serif" font-size="10.00">/STORM&#45;IRIT/Radium&#45;Engine</text>
<text text-anchor="start" x="50.5" y="-19" font-family="Helvetica,sans-Serif" font-size="10.00">/src/Core/Algorithm/Subdivision</text>
<text text-anchor="middle" x="120" y="-8" font-family="Helvetica,sans-Serif" font-size="10.00">/CatmullClarkSubdivider.cpp</text>
</a>
</g>
</g>
<!-- Node2&#45;&gt;Node3 -->
<g id="edge2" class="edge"><title>Node2&#45;&gt;Node3</title>
<path fill="none" stroke="midnightblue" d="M93.9186,-81.376C98.5316,-71.9354 103.44,-61.8909 107.739,-53.0921"/>
<polygon fill="midnightblue" stroke="midnightblue" points="90.683,-80.0254 89.4374,-90.5468 96.9724,-83.0986 90.683,-80.0254"/>
</g>
<!-- Node5 -->
<g id="node5" class="node"><title>Node5</title>
<g id="a_node5"><a xlink:href="LoopSubdivider_8cpp.html" target="_top" xlink:title="/home/travis/build\l/STORM&#45;IRIT/Radium&#45;Engine\l/src/Core/Algorithm/Subdivision\l/LoopSubdivider.cpp">
<polygon fill="white" stroke="black" points="301.5,-1 301.5,-53 456.5,-53 456.5,-1 301.5,-1"/>
<text text-anchor="start" x="309.5" y="-41" font-family="Helvetica,sans-Serif" font-size="10.00">/home/travis/build</text>
<text text-anchor="start" x="309.5" y="-30" font-family="Helvetica,sans-Serif" font-size="10.00">/STORM&#45;IRIT/Radium&#45;Engine</text>
<text text-anchor="start" x="309.5" y="-19" font-family="Helvetica,sans-Serif" font-size="10.00">/src/Core/Algorithm/Subdivision</text>
<text text-anchor="middle" x="379" y="-8" font-family="Helvetica,sans-Serif" font-size="10.00">/LoopSubdivider.cpp</text>
</a>
</g>
</g>
<!-- Node4&#45;&gt;Node5 -->
<g id="edge4" class="edge"><title>Node4&#45;&gt;Node5</title>
<path fill="none" stroke="midnightblue" d="M405.688,-81.376C400.968,-71.9354 395.945,-61.8909 391.546,-53.0921"/>
<polygon fill="midnightblue" stroke="midnightblue" points="402.671,-83.1677 410.273,-90.5468 408.932,-80.0372 402.671,-83.1677"/>
</g>
<!-- Node6&#45;&gt;Node3 -->
<g id="edge6" class="edge"><title>Node6&#45;&gt;Node3</title>
<path fill="none" stroke="midnightblue" d="M204.373,-85.1143C188.959,-74.6802 171.946,-63.1632 157.258,-53.221"/>
<polygon fill="midnightblue" stroke="midnightblue" points="202.504,-88.0754 212.747,-90.7827 206.428,-82.2786 202.504,-88.0754"/>
</g>
<!-- Node6&#45;&gt;Node5 -->
<g id="edge7" class="edge"><title>Node6&#45;&gt;Node5</title>
<path fill="none" stroke="midnightblue" d="M295.276,-85.1143C310.571,-74.6802 327.454,-63.1632 342.028,-53.221"/>
<polygon fill="midnightblue" stroke="midnightblue" points="293.255,-82.256 286.966,-90.7827 297.2,-88.0387 293.255,-82.256"/>
</g>
<!-- Node8 -->
<g id="node8" class="node"><title>Node8</title>
<g id="a_node8"><a xlink:href="TopologicalTriMesh_2Operations_2EdgeSplit_8cpp.html" target="_top" xlink:title="/home/travis/build\l/STORM&#45;IRIT/Radium&#45;Engine\l/src/Core/Mesh/TopologicalTriMesh\l/Operations/EdgeSplit.cpp">
<polygon fill="white" stroke="black" points="519,-1 519,-53 691,-53 691,-1 519,-1"/>
<text text-anchor="start" x="527" y="-41" font-family="Helvetica,sans-Serif" font-size="10.00">/home/travis/build</text>
<text text-anchor="start" x="527" y="-30" font-family="Helvetica,sans-Serif" font-size="10.00">/STORM&#45;IRIT/Radium&#45;Engine</text>
<text text-anchor="start" x="527" y="-19" font-family="Helvetica,sans-Serif" font-size="10.00">/src/Core/Mesh/TopologicalTriMesh</text>
<text text-anchor="middle" x="605" y="-8" font-family="Helvetica,sans-Serif" font-size="10.00">/Operations/EdgeSplit.cpp</text>
</a>
</g>
</g>
<!-- Node7&#45;&gt;Node8 -->
<g id="edge9" class="edge"><title>Node7&#45;&gt;Node8</title>
<path fill="none" stroke="midnightblue" d="M605,-80.4892C605,-71.3088 605,-61.616 605,-53.0921"/>
<polygon fill="midnightblue" stroke="midnightblue" points="601.5,-80.5467 605,-90.5468 608.5,-80.5468 601.5,-80.5467"/>
</g>
<!-- Node10&#45;&gt;Node1 -->
<g id="edge12" class="edge"><title>Node10&#45;&gt;Node1</title>
<path fill="none" stroke="midnightblue" d="M900.156,-146.157C864.207,-157.442 822.39,-170.333 786.286,-181.253"/>
<polygon fill="midnightblue" stroke="midnightblue" points="901.641,-149.359 910.13,-143.019 899.54,-142.681 901.641,-149.359"/>
</g>
<!-- Node12 -->
<g id="node12" class="node"><title>Node12</title>
<g id="a_node12"><a xlink:href="main_8cpp.html" target="_top" xlink:title="/home/travis/build\l/STORM&#45;IRIT/Radium&#45;Engine\l/src/Tests/CoreTests/src\l/main.cpp">
<polygon fill="white" stroke="black" points="1089,-1 1089,-53 1237,-53 1237,-1 1089,-1"/>
<text text-anchor="start" x="1097" y="-41" font-family="Helvetica,sans-Serif" font-size="10.00">/home/travis/build</text>
<text text-anchor="start" x="1097" y="-30" font-family="Helvetica,sans-Serif" font-size="10.00">/STORM&#45;IRIT/Radium&#45;Engine</text>
<text text-anchor="start" x="1097" y="-19" font-family="Helvetica,sans-Serif" font-size="10.00">/src/Tests/CoreTests/src</text>
<text text-anchor="middle" x="1163" y="-8" font-family="Helvetica,sans-Serif" font-size="10.00">/main.cpp</text>
</a>
</g>
</g>
<!-- Node11&#45;&gt;Node12 -->
<g id="edge14" class="edge"><title>Node11&#45;&gt;Node12</title>
<path fill="none" stroke="midnightblue" d="M1163,-80.4892C1163,-71.3088 1163,-61.616 1163,-53.0921"/>
<polygon fill="midnightblue" stroke="midnightblue" points="1159.5,-80.5467 1163,-90.5468 1166.5,-80.5468 1159.5,-80.5467"/>
</g>
</g>
</svg>
