<?xml version="1.0" encoding="UTF-8" standalone="no"?>
<!DOCTYPE svg PUBLIC "-//W3C//DTD SVG 1.1//EN"
 "http://www.w3.org/Graphics/SVG/1.1/DTD/svg11.dtd">
<!-- Generated by graphviz version 2.36.0 (20140111.2315)
 -->
<!-- Title: /home/travis/build/STORM&#45;IRIT/Radium&#45;Engine/src/Engine/System/CouplingSystem.hpp Pages: 1 -->
<svg width="478pt" height="274pt"
 viewBox="0.00 0.00 478.00 274.00" xmlns="http://www.w3.org/2000/svg" xmlns:xlink="http://www.w3.org/1999/xlink">
<g id="graph0" class="graph" transform="scale(1 1) rotate(0) translate(4 270)">
<title>/home/travis/build/STORM&#45;IRIT/Radium&#45;Engine/src/Engine/System/CouplingSystem.hpp</title>
<polygon fill="white" stroke="none" points="-4,4 -4,-270 474,-270 474,4 -4,4"/>
<!-- Node1 -->
<g id="node1" class="node"><title>Node1</title>
<polygon fill="#bfbfbf" stroke="black" points="183.5,-224.5 183.5,-265.5 380.5,-265.5 380.5,-224.5 183.5,-224.5"/>
<text text-anchor="start" x="191.5" y="-253.5" font-family="Helvetica,sans-Serif" font-size="10.00">/home/travis/build</text>
<text text-anchor="start" x="191.5" y="-242.5" font-family="Helvetica,sans-Serif" font-size="10.00">/STORM&#45;IRIT/Radium&#45;Engine</text>
<text text-anchor="middle" x="282" y="-231.5" font-family="Helvetica,sans-Serif" font-size="10.00">/src/Engine/System/CouplingSystem.hpp</text>
</g>
<!-- Node2 -->
<g id="node2" class="node"><title>Node2</title>
<g id="a_node2"><a xlink:href="RaEngine_8hpp.html" target="_top" xlink:title="Engine/RaEngine.hpp">
<polygon fill="white" stroke="black" points="99.5,-112.5 99.5,-131.5 210.5,-131.5 210.5,-112.5 99.5,-112.5"/>
<text text-anchor="middle" x="155" y="-119.5" font-family="Helvetica,sans-Serif" font-size="10.00">Engine/RaEngine.hpp</text>
</a>
</g>
</g>
<!-- Node1&#45;&gt;Node2 -->
<g id="edge1" class="edge"><title>Node1&#45;&gt;Node2</title>
<path fill="none" stroke="midnightblue" d="M245.222,-224.377C229.266,-214.756 211.057,-202.183 197,-188 183.148,-174.025 171.4,-154.766 163.881,-140.843"/>
<polygon fill="midnightblue" stroke="midnightblue" points="166.9,-139.062 159.184,-131.8 160.687,-142.288 166.9,-139.062"/>
</g>
<!-- Node9 -->
<g id="node9" class="node"><title>Node9</title>
<g id="a_node9"><a xlink:href="System_8hpp.html" target="_top" xlink:title="Engine/System/System.hpp">
<polygon fill="white" stroke="black" points="212.5,-168.5 212.5,-187.5 351.5,-187.5 351.5,-168.5 212.5,-168.5"/>
<text text-anchor="middle" x="282" y="-175.5" font-family="Helvetica,sans-Serif" font-size="10.00">Engine/System/System.hpp</text>
</a>
</g>
</g>
<!-- Node1&#45;&gt;Node9 -->
<g id="edge8" class="edge"><title>Node1&#45;&gt;Node9</title>
<path fill="none" stroke="midnightblue" d="M282,-224.498C282,-216.065 282,-206.235 282,-197.874"/>
<polygon fill="midnightblue" stroke="midnightblue" points="285.5,-197.652 282,-187.652 278.5,-197.653 285.5,-197.652"/>
</g>
<!-- Node10 -->
<g id="node10" class="node"><title>Node10</title>
<polygon fill="white" stroke="#bfbfbf" points="246,-112.5 246,-131.5 290,-131.5 290,-112.5 246,-112.5"/>
<text text-anchor="middle" x="268" y="-119.5" font-family="Helvetica,sans-Serif" font-size="10.00">vector</text>
</g>
<!-- Node1&#45;&gt;Node10 -->
<g id="edge14" class="edge"><title>Node1&#45;&gt;Node10</title>
<path fill="none" stroke="midnightblue" d="M239.595,-224.385C225.293,-215.452 210.951,-203.383 203,-188 191.971,-166.664 216.375,-147.949 238.362,-136.148"/>
<polygon fill="midnightblue" stroke="midnightblue" points="240.174,-139.154 247.527,-131.526 237.022,-132.904 240.174,-139.154"/>
</g>
<!-- Node11 -->
<g id="node11" class="node"><title>Node11</title>
<polygon fill="white" stroke="#bfbfbf" points="344,-112.5 344,-131.5 396,-131.5 396,-112.5 344,-112.5"/>
<text text-anchor="middle" x="370" y="-119.5" font-family="Helvetica,sans-Serif" font-size="10.00">memory</text>
</g>
<!-- Node1&#45;&gt;Node11 -->
<g id="edge12" class="edge"><title>Node1&#45;&gt;Node11</title>
<path fill="none" stroke="midnightblue" d="M321.437,-224.365C335.797,-215.251 350.758,-203.061 360,-188 368.491,-174.163 370.635,-155.645 370.863,-141.914"/>
<polygon fill="midnightblue" stroke="midnightblue" points="374.359,-141.657 370.701,-131.714 367.36,-141.768 374.359,-141.657"/>
</g>
<!-- Node12 -->
<g id="node12" class="node"><title>Node12</title>
<polygon fill="white" stroke="#bfbfbf" points="408,-168.5 408,-187.5 470,-187.5 470,-168.5 408,-168.5"/>
<text text-anchor="middle" x="439" y="-175.5" font-family="Helvetica,sans-Serif" font-size="10.00">type_traits</text>
</g>
<!-- Node1&#45;&gt;Node12 -->
<g id="edge13" class="edge"><title>Node1&#45;&gt;Node12</title>
<path fill="none" stroke="midnightblue" d="M329.105,-224.498C354.912,-213.813 386.139,-200.885 408.7,-191.545"/>
<polygon fill="midnightblue" stroke="midnightblue" points="410.2,-194.712 418.101,-187.652 407.523,-188.244 410.2,-194.712"/>
</g>
<!-- Node3 -->
<g id="node3" class="node"><title>Node3</title>
<g id="a_node3"><a xlink:href="CoreMacros_8hpp.html" target="_top" xlink:title="Core/CoreMacros.hpp">
<polygon fill="white" stroke="black" points="98.5,-56.5 98.5,-75.5 211.5,-75.5 211.5,-56.5 98.5,-56.5"/>
<text text-anchor="middle" x="155" y="-63.5" font-family="Helvetica,sans-Serif" font-size="10.00">Core/CoreMacros.hpp</text>
</a>
</g>
</g>
<!-- Node2&#45;&gt;Node3 -->
<g id="edge2" class="edge"><title>Node2&#45;&gt;Node3</title>
<path fill="none" stroke="midnightblue" d="M155,-112.083C155,-105.006 155,-94.8611 155,-85.9865"/>
<polygon fill="midnightblue" stroke="midnightblue" points="158.5,-85.751 155,-75.7511 151.5,-85.7511 158.5,-85.751"/>
</g>
<!-- Node4 -->
<g id="node4" class="node"><title>Node4</title>
<polygon fill="white" stroke="#bfbfbf" points="-0.5,-0.5 -0.5,-19.5 48.5,-19.5 48.5,-0.5 -0.5,-0.5"/>
<text text-anchor="middle" x="24" y="-7.5" font-family="Helvetica,sans-Serif" font-size="10.00">cassert</text>
</g>
<!-- Node3&#45;&gt;Node4 -->
<g id="edge3" class="edge"><title>Node3&#45;&gt;Node4</title>
<path fill="none" stroke="midnightblue" d="M134.243,-56.4435C112.684,-47.5566 78.7367,-33.5632 54.2062,-23.4514"/>
<polygon fill="midnightblue" stroke="midnightblue" points="55.2394,-20.0917 44.6602,-19.5164 52.5717,-26.5634 55.2394,-20.0917"/>
</g>
<!-- Node5 -->
<g id="node5" class="node"><title>Node5</title>
<polygon fill="white" stroke="#bfbfbf" points="66.5,-0.5 66.5,-19.5 109.5,-19.5 109.5,-0.5 66.5,-0.5"/>
<text text-anchor="middle" x="88" y="-7.5" font-family="Helvetica,sans-Serif" font-size="10.00">cstdio</text>
</g>
<!-- Node3&#45;&gt;Node5 -->
<g id="edge4" class="edge"><title>Node3&#45;&gt;Node5</title>
<path fill="none" stroke="midnightblue" d="M144.235,-56.324C134.234,-48.2631 119.113,-36.0765 107.07,-26.3695"/>
<polygon fill="midnightblue" stroke="midnightblue" points="108.943,-23.3841 98.9606,-19.8339 104.55,-28.8343 108.943,-23.3841"/>
</g>
<!-- Node6 -->
<g id="node6" class="node"><title>Node6</title>
<polygon fill="white" stroke="#bfbfbf" points="128,-0.5 128,-19.5 182,-19.5 182,-0.5 128,-0.5"/>
<text text-anchor="middle" x="155" y="-7.5" font-family="Helvetica,sans-Serif" font-size="10.00">iostream</text>
</g>
<!-- Node3&#45;&gt;Node6 -->
<g id="edge5" class="edge"><title>Node3&#45;&gt;Node6</title>
<path fill="none" stroke="midnightblue" d="M155,-56.083C155,-49.0059 155,-38.8611 155,-29.9865"/>
<polygon fill="midnightblue" stroke="midnightblue" points="158.5,-29.751 155,-19.7511 151.5,-29.7511 158.5,-29.751"/>
</g>
<!-- Node7 -->
<g id="node7" class="node"><title>Node7</title>
<polygon fill="white" stroke="#bfbfbf" points="200,-0.5 200,-19.5 252,-19.5 252,-0.5 200,-0.5"/>
<text text-anchor="middle" x="226" y="-7.5" font-family="Helvetica,sans-Serif" font-size="10.00">sstream</text>
</g>
<!-- Node3&#45;&gt;Node7 -->
<g id="edge6" class="edge"><title>Node3&#45;&gt;Node7</title>
<path fill="none" stroke="midnightblue" d="M166.407,-56.324C177.109,-48.1849 193.341,-35.8395 206.163,-26.0874"/>
<polygon fill="midnightblue" stroke="midnightblue" points="208.544,-28.6734 214.385,-19.8339 204.307,-23.1018 208.544,-28.6734"/>
</g>
<!-- Node8 -->
<g id="node8" class="node"><title>Node8</title>
<polygon fill="white" stroke="#bfbfbf" points="270,-0.5 270,-19.5 314,-19.5 314,-0.5 270,-0.5"/>
<text text-anchor="middle" x="292" y="-7.5" font-family="Helvetica,sans-Serif" font-size="10.00">thread</text>
</g>
<!-- Node3&#45;&gt;Node8 -->
<g id="edge7" class="edge"><title>Node3&#45;&gt;Node8</title>
<path fill="none" stroke="midnightblue" d="M176.708,-56.4435C199.355,-47.5171 235.072,-33.4387 260.752,-23.3168"/>
<polygon fill="midnightblue" stroke="midnightblue" points="262.374,-26.4397 270.394,-19.5164 259.807,-19.9273 262.374,-26.4397"/>
</g>
<!-- Node9&#45;&gt;Node2 -->
<g id="edge9" class="edge"><title>Node9&#45;&gt;Node2</title>
<path fill="none" stroke="midnightblue" d="M261.876,-168.444C240.976,-159.557 208.065,-145.563 184.284,-135.451"/>
<polygon fill="midnightblue" stroke="midnightblue" points="185.602,-132.208 175.029,-131.516 182.862,-138.65 185.602,-132.208"/>
</g>
<!-- Node9&#45;&gt;Node10 -->
<g id="edge10" class="edge"><title>Node9&#45;&gt;Node10</title>
<path fill="none" stroke="midnightblue" d="M279.688,-168.083C277.833,-160.927 275.165,-150.635 272.846,-141.691"/>
<polygon fill="midnightblue" stroke="midnightblue" points="276.166,-140.553 270.269,-131.751 269.391,-142.309 276.166,-140.553"/>
</g>
<!-- Node9&#45;&gt;Node11 -->
<g id="edge11" class="edge"><title>Node9&#45;&gt;Node11</title>
<path fill="none" stroke="midnightblue" d="M296.139,-168.324C309.866,-159.9 330.936,-146.971 347.064,-137.074"/>
<polygon fill="midnightblue" stroke="midnightblue" points="349.204,-139.868 355.896,-131.655 345.543,-133.902 349.204,-139.868"/>
</g>
</g>
</svg>
