<?xml version="1.0" encoding="UTF-8" standalone="no"?>
<!DOCTYPE svg PUBLIC "-//W3C//DTD SVG 1.1//EN"
 "http://www.w3.org/Graphics/SVG/1.1/DTD/svg11.dtd">
<!-- Generated by graphviz version 2.36.0 (20140111.2315)
 -->
<!-- Title: /home/travis/build/STORM&#45;IRIT/Radium&#45;Engine/src/Core/Mesh/DCEL/HalfEdge.inl Pages: 1 -->
<svg width="1363pt" height="454pt"
 viewBox="0.00 0.00 1363.39 454.00" xmlns="http://www.w3.org/2000/svg" xmlns:xlink="http://www.w3.org/1999/xlink">
<g id="graph0" class="graph" transform="scale(1 1) rotate(0) translate(4 450)">
<title>/home/travis/build/STORM&#45;IRIT/Radium&#45;Engine/src/Core/Mesh/DCEL/HalfEdge.inl</title>
<polygon fill="white" stroke="none" points="-4,4 -4,-450 1359.39,-450 1359.39,4 -4,4"/>
<!-- Node1 -->
<g id="node1" class="node"><title>Node1</title>
<polygon fill="#bfbfbf" stroke="black" points="151.393,-404.5 151.393,-445.5 321.393,-445.5 321.393,-404.5 151.393,-404.5"/>
<text text-anchor="start" x="159.393" y="-433.5" font-family="Helvetica,sans-Serif" font-size="10.00">/home/travis/build</text>
<text text-anchor="start" x="159.393" y="-422.5" font-family="Helvetica,sans-Serif" font-size="10.00">/STORM&#45;IRIT/Radium&#45;Engine</text>
<text text-anchor="middle" x="236.393" y="-411.5" font-family="Helvetica,sans-Serif" font-size="10.00">/src/Core/Mesh/DCEL/HalfEdge.inl</text>
</g>
<!-- Node2 -->
<g id="node2" class="node"><title>Node2</title>
<g id="a_node2"><a xlink:href="DCEL_2HalfEdge_8hpp.html" target="_top" xlink:title="Core/Mesh/DCEL/HalfEdge.hpp">
<polygon fill="white" stroke="black" points="157.893,-236.5 157.893,-255.5 314.893,-255.5 314.893,-236.5 157.893,-236.5"/>
<text text-anchor="middle" x="236.393" y="-243.5" font-family="Helvetica,sans-Serif" font-size="10.00">Core/Mesh/DCEL/HalfEdge.hpp</text>
</a>
</g>
</g>
<!-- Node1&#45;&gt;Node2 -->
<g id="edge1" class="edge"><title>Node1&#45;&gt;Node2</title>
<path fill="none" stroke="midnightblue" d="M231.96,-404.382C228.848,-370.082 228.87,-299.658 232.028,-265.883"/>
<polygon fill="midnightblue" stroke="midnightblue" points="235.547,-265.932 233.275,-255.584 228.598,-265.09 235.547,-265.932"/>
</g>
<!-- Node17 -->
<g id="node17" class="node"><title>Node17</title>
<g id="a_node17"><a xlink:href="Face_8hpp.html" target="_top" xlink:title="Core/Mesh/DCEL/Face.hpp">
<polygon fill="white" stroke="black" points="16.3925,-348.5 16.3925,-367.5 154.393,-367.5 154.393,-348.5 16.3925,-348.5"/>
<text text-anchor="middle" x="85.3925" y="-355.5" font-family="Helvetica,sans-Serif" font-size="10.00">Core/Mesh/DCEL/Face.hpp</text>
</a>
</g>
</g>
<!-- Node1&#45;&gt;Node17 -->
<g id="edge18" class="edge"><title>Node1&#45;&gt;Node17</title>
<path fill="none" stroke="midnightblue" d="M191.088,-404.498C166.378,-393.861 136.503,-381.001 114.827,-371.67"/>
<polygon fill="midnightblue" stroke="midnightblue" points="116.062,-368.392 105.493,-367.652 113.294,-374.821 116.062,-368.392"/>
</g>
<!-- Node19 -->
<g id="node19" class="node"><title>Node19</title>
<g id="a_node19"><a xlink:href="Vertex_8hpp.html" target="_top" xlink:title="Core/Mesh/DCEL/Vertex.hpp">
<polygon fill="white" stroke="black" points="368.893,-348.5 368.893,-367.5 513.893,-367.5 513.893,-348.5 368.893,-348.5"/>
<text text-anchor="middle" x="441.393" y="-355.5" font-family="Helvetica,sans-Serif" font-size="10.00">Core/Mesh/DCEL/Vertex.hpp</text>
</a>
</g>
</g>
<!-- Node1&#45;&gt;Node19 -->
<g id="edge25" class="edge"><title>Node1&#45;&gt;Node19</title>
<path fill="none" stroke="midnightblue" d="M297.899,-404.498C332.76,-393.444 375.195,-379.99 404.84,-370.59"/>
<polygon fill="midnightblue" stroke="midnightblue" points="405.899,-373.926 414.373,-367.567 403.783,-367.253 405.899,-373.926"/>
</g>
<!-- Node2&#45;&gt;Node1 -->
<g id="edge17" class="edge"><title>Node2&#45;&gt;Node1</title>
<path fill="none" stroke="midnightblue" d="M239.51,-255.584C243.517,-280.39 244.209,-353.029 241.586,-394.354"/>
<polygon fill="midnightblue" stroke="midnightblue" points="238.091,-394.146 240.825,-404.382 245.071,-394.675 238.091,-394.146"/>
</g>
<!-- Node3 -->
<g id="node3" class="node"><title>Node3</title>
<g id="a_node3"><a xlink:href="Index_8hpp.html" target="_top" xlink:title="Core/Index/Index.hpp">
<polygon fill="white" stroke="black" points="282.393,-112.5 282.393,-131.5 392.393,-131.5 392.393,-112.5 282.393,-112.5"/>
<text text-anchor="middle" x="337.393" y="-119.5" font-family="Helvetica,sans-Serif" font-size="10.00">Core/Index/Index.hpp</text>
</a>
</g>
</g>
<!-- Node2&#45;&gt;Node3 -->
<g id="edge2" class="edge"><title>Node2&#45;&gt;Node3</title>
<path fill="none" stroke="midnightblue" d="M242.347,-236.159C252.33,-221.525 273.328,-191.547 293.393,-168 302.074,-157.812 312.522,-147.07 321.058,-138.638"/>
<polygon fill="midnightblue" stroke="midnightblue" points="323.535,-141.11 328.254,-131.624 318.65,-136.097 323.535,-141.11"/>
</g>
<!-- Node6 -->
<g id="node6" class="node"><title>Node6</title>
<g id="a_node6"><a xlink:href="IndexedObject_8hpp.html" target="_top" xlink:title="Core/Index/IndexedObject.hpp">
<polygon fill="white" stroke="black" points="302.893,-174.5 302.893,-193.5 451.893,-193.5 451.893,-174.5 302.893,-174.5"/>
<text text-anchor="middle" x="377.393" y="-181.5" font-family="Helvetica,sans-Serif" font-size="10.00">Core/Index/IndexedObject.hpp</text>
</a>
</g>
</g>
<!-- Node2&#45;&gt;Node6 -->
<g id="edge5" class="edge"><title>Node2&#45;&gt;Node6</title>
<path fill="none" stroke="midnightblue" d="M256.594,-236.403C280.467,-226.245 320.394,-209.255 347.765,-197.607"/>
<polygon fill="midnightblue" stroke="midnightblue" points="349.397,-200.717 357.228,-193.581 346.656,-194.276 349.397,-200.717"/>
</g>
<!-- Node14 -->
<g id="node14" class="node"><title>Node14</title>
<g id="a_node14"><a xlink:href="Definition_8hpp.html" target="_top" xlink:title="Core/Mesh/DCEL/Definition.hpp">
<polygon fill="white" stroke="black" points="89.3925,-174.5 89.3925,-193.5 247.393,-193.5 247.393,-174.5 89.3925,-174.5"/>
<text text-anchor="middle" x="168.393" y="-181.5" font-family="Helvetica,sans-Serif" font-size="10.00">Core/Mesh/DCEL/Definition.hpp</text>
</a>
</g>
</g>
<!-- Node2&#45;&gt;Node14 -->
<g id="edge14" class="edge"><title>Node2&#45;&gt;Node14</title>
<path fill="none" stroke="midnightblue" d="M226.65,-236.403C216.046,-227.047 198.873,-211.895 185.914,-200.46"/>
<polygon fill="midnightblue" stroke="midnightblue" points="187.931,-197.572 178.117,-193.581 183.3,-202.821 187.931,-197.572"/>
</g>
<!-- Node4 -->
<g id="node4" class="node"><title>Node4</title>
<polygon fill="white" stroke="#bfbfbf" points="362.393,-56.5 362.393,-75.5 402.393,-75.5 402.393,-56.5 362.393,-56.5"/>
<text text-anchor="middle" x="382.393" y="-63.5" font-family="Helvetica,sans-Serif" font-size="10.00">limits</text>
</g>
<!-- Node3&#45;&gt;Node4 -->
<g id="edge3" class="edge"><title>Node3&#45;&gt;Node4</title>
<path fill="none" stroke="midnightblue" d="M344.823,-112.083C351.245,-104.377 360.698,-93.0333 368.515,-83.6531"/>
<polygon fill="midnightblue" stroke="midnightblue" points="371.387,-85.674 375.1,-75.7511 366.009,-81.1927 371.387,-85.674"/>
</g>
<!-- Node5 -->
<g id="node5" class="node"><title>Node5</title>
<g id="a_node5"><a xlink:href="Index_8inl.html" target="_top" xlink:title="Core/Index/Index.inl">
<polygon fill="white" stroke="black" points="240.393,-56.5 240.393,-75.5 344.393,-75.5 344.393,-56.5 240.393,-56.5"/>
<text text-anchor="middle" x="292.393" y="-63.5" font-family="Helvetica,sans-Serif" font-size="10.00">Core/Index/Index.inl</text>
</a>
</g>
</g>
<!-- Node3&#45;&gt;Node5 -->
<g id="edge4" class="edge"><title>Node3&#45;&gt;Node5</title>
<path fill="none" stroke="midnightblue" d="M329.962,-112.083C323.54,-104.377 314.087,-93.0333 306.27,-83.6531"/>
<polygon fill="midnightblue" stroke="midnightblue" points="308.776,-81.1927 299.685,-75.7511 303.398,-85.674 308.776,-81.1927"/>
</g>
<!-- Node6&#45;&gt;Node3 -->
<g id="edge6" class="edge"><title>Node6&#45;&gt;Node3</title>
<path fill="none" stroke="midnightblue" d="M371.662,-174.403C365.721,-165.493 356.276,-151.325 348.804,-140.118"/>
<polygon fill="midnightblue" stroke="midnightblue" points="351.572,-137.96 343.113,-131.581 345.748,-141.843 351.572,-137.96"/>
</g>
<!-- Node7 -->
<g id="node7" class="node"><title>Node7</title>
<g id="a_node7"><a xlink:href="RaCore_8hpp.html" target="_top" xlink:title="Core/RaCore.hpp">
<polygon fill="white" stroke="black" points="660.893,-112.5 660.893,-131.5 753.893,-131.5 753.893,-112.5 660.893,-112.5"/>
<text text-anchor="middle" x="707.393" y="-119.5" font-family="Helvetica,sans-Serif" font-size="10.00">Core/RaCore.hpp</text>
</a>
</g>
</g>
<!-- Node6&#45;&gt;Node7 -->
<g id="edge7" class="edge"><title>Node6&#45;&gt;Node7</title>
<path fill="none" stroke="midnightblue" d="M424.323,-174.467C484.032,-163.611 587.059,-144.879 650.98,-133.257"/>
<polygon fill="midnightblue" stroke="midnightblue" points="651.678,-136.687 660.89,-131.455 650.425,-129.8 651.678,-136.687"/>
</g>
<!-- Node8 -->
<g id="node8" class="node"><title>Node8</title>
<g id="a_node8"><a xlink:href="CoreMacros_8hpp.html" target="_top" xlink:title="Core/CoreMacros.hpp">
<polygon fill="white" stroke="black" points="650.893,-56.5 650.893,-75.5 763.893,-75.5 763.893,-56.5 650.893,-56.5"/>
<text text-anchor="middle" x="707.393" y="-63.5" font-family="Helvetica,sans-Serif" font-size="10.00">Core/CoreMacros.hpp</text>
</a>
</g>
</g>
<!-- Node7&#45;&gt;Node8 -->
<g id="edge8" class="edge"><title>Node7&#45;&gt;Node8</title>
<path fill="none" stroke="midnightblue" d="M707.393,-112.083C707.393,-105.006 707.393,-94.8611 707.393,-85.9865"/>
<polygon fill="midnightblue" stroke="midnightblue" points="710.893,-85.751 707.393,-75.7511 703.893,-85.7511 710.893,-85.751"/>
</g>
<!-- Node9 -->
<g id="node9" class="node"><title>Node9</title>
<polygon fill="white" stroke="#bfbfbf" points="551.893,-0.5 551.893,-19.5 600.893,-19.5 600.893,-0.5 551.893,-0.5"/>
<text text-anchor="middle" x="576.393" y="-7.5" font-family="Helvetica,sans-Serif" font-size="10.00">cassert</text>
</g>
<!-- Node8&#45;&gt;Node9 -->
<g id="edge9" class="edge"><title>Node8&#45;&gt;Node9</title>
<path fill="none" stroke="midnightblue" d="M686.635,-56.4435C665.076,-47.5566 631.129,-33.5632 606.599,-23.4514"/>
<polygon fill="midnightblue" stroke="midnightblue" points="607.632,-20.0917 597.053,-19.5164 604.964,-26.5634 607.632,-20.0917"/>
</g>
<!-- Node10 -->
<g id="node10" class="node"><title>Node10</title>
<polygon fill="white" stroke="#bfbfbf" points="618.893,-0.5 618.893,-19.5 661.893,-19.5 661.893,-0.5 618.893,-0.5"/>
<text text-anchor="middle" x="640.393" y="-7.5" font-family="Helvetica,sans-Serif" font-size="10.00">cstdio</text>
</g>
<!-- Node8&#45;&gt;Node10 -->
<g id="edge10" class="edge"><title>Node8&#45;&gt;Node10</title>
<path fill="none" stroke="midnightblue" d="M696.628,-56.324C686.626,-48.2631 671.506,-36.0765 659.462,-26.3695"/>
<polygon fill="midnightblue" stroke="midnightblue" points="661.335,-23.3841 651.353,-19.8339 656.943,-28.8343 661.335,-23.3841"/>
</g>
<!-- Node11 -->
<g id="node11" class="node"><title>Node11</title>
<polygon fill="white" stroke="#bfbfbf" points="680.393,-0.5 680.393,-19.5 734.393,-19.5 734.393,-0.5 680.393,-0.5"/>
<text text-anchor="middle" x="707.393" y="-7.5" font-family="Helvetica,sans-Serif" font-size="10.00">iostream</text>
</g>
<!-- Node8&#45;&gt;Node11 -->
<g id="edge11" class="edge"><title>Node8&#45;&gt;Node11</title>
<path fill="none" stroke="midnightblue" d="M707.393,-56.083C707.393,-49.0059 707.393,-38.8611 707.393,-29.9865"/>
<polygon fill="midnightblue" stroke="midnightblue" points="710.893,-29.751 707.393,-19.7511 703.893,-29.7511 710.893,-29.751"/>
</g>
<!-- Node12 -->
<g id="node12" class="node"><title>Node12</title>
<polygon fill="white" stroke="#bfbfbf" points="752.393,-0.5 752.393,-19.5 804.393,-19.5 804.393,-0.5 752.393,-0.5"/>
<text text-anchor="middle" x="778.393" y="-7.5" font-family="Helvetica,sans-Serif" font-size="10.00">sstream</text>
</g>
<!-- Node8&#45;&gt;Node12 -->
<g id="edge12" class="edge"><title>Node8&#45;&gt;Node12</title>
<path fill="none" stroke="midnightblue" d="M718.8,-56.324C729.501,-48.1849 745.733,-35.8395 758.555,-26.0874"/>
<polygon fill="midnightblue" stroke="midnightblue" points="760.937,-28.6734 766.778,-19.8339 756.699,-23.1018 760.937,-28.6734"/>
</g>
<!-- Node13 -->
<g id="node13" class="node"><title>Node13</title>
<polygon fill="white" stroke="#bfbfbf" points="822.393,-0.5 822.393,-19.5 866.393,-19.5 866.393,-0.5 822.393,-0.5"/>
<text text-anchor="middle" x="844.393" y="-7.5" font-family="Helvetica,sans-Serif" font-size="10.00">thread</text>
</g>
<!-- Node8&#45;&gt;Node13 -->
<g id="edge13" class="edge"><title>Node8&#45;&gt;Node13</title>
<path fill="none" stroke="midnightblue" d="M729.101,-56.4435C751.747,-47.5171 787.465,-33.4387 813.144,-23.3168"/>
<polygon fill="midnightblue" stroke="midnightblue" points="814.766,-26.4397 822.786,-19.5164 812.199,-19.9273 814.766,-26.4397"/>
</g>
<!-- Node15 -->
<g id="node15" class="node"><title>Node15</title>
<polygon fill="white" stroke="#bfbfbf" points="109.393,-112.5 109.393,-131.5 161.393,-131.5 161.393,-112.5 109.393,-112.5"/>
<text text-anchor="middle" x="135.393" y="-119.5" font-family="Helvetica,sans-Serif" font-size="10.00">memory</text>
</g>
<!-- Node14&#45;&gt;Node15 -->
<g id="edge15" class="edge"><title>Node14&#45;&gt;Node15</title>
<path fill="none" stroke="midnightblue" d="M163.664,-174.403C158.812,-165.582 151.127,-151.608 144.993,-140.455"/>
<polygon fill="midnightblue" stroke="midnightblue" points="147.998,-138.656 140.112,-131.581 141.864,-142.029 147.998,-138.656"/>
</g>
<!-- Node16 -->
<g id="node16" class="node"><title>Node16</title>
<polygon fill="white" stroke="#bfbfbf" points="179.393,-112.5 179.393,-131.5 223.393,-131.5 223.393,-112.5 179.393,-112.5"/>
<text text-anchor="middle" x="201.393" y="-119.5" font-family="Helvetica,sans-Serif" font-size="10.00">vector</text>
</g>
<!-- Node14&#45;&gt;Node16 -->
<g id="edge16" class="edge"><title>Node14&#45;&gt;Node16</title>
<path fill="none" stroke="midnightblue" d="M173.121,-174.403C177.973,-165.582 185.658,-151.608 191.792,-140.455"/>
<polygon fill="midnightblue" stroke="midnightblue" points="194.921,-142.029 196.673,-131.581 188.787,-138.656 194.921,-142.029"/>
</g>
<!-- Node17&#45;&gt;Node3 -->
<g id="edge19" class="edge"><title>Node17&#45;&gt;Node3</title>
<path fill="none" stroke="midnightblue" d="M60.0895,-348.358C43.697,-341.314 23.5697,-329.613 13.3925,-312 -21.923,-250.881 17.6421,-200.328 80.3925,-168 113.025,-151.188 207.353,-137.626 272.175,-129.938"/>
<polygon fill="midnightblue" stroke="midnightblue" points="272.785,-133.391 282.311,-128.755 271.973,-126.438 272.785,-133.391"/>
</g>
<!-- Node17&#45;&gt;Node6 -->
<g id="edge20" class="edge"><title>Node17&#45;&gt;Node6</title>
<path fill="none" stroke="midnightblue" d="M76.8422,-348.299C65.3986,-335.551 47.7107,-311.227 58.3925,-292 81.2717,-250.817 104.781,-253.818 148.393,-236 197.644,-215.878 256.254,-203.012 301.85,-195.237"/>
<polygon fill="midnightblue" stroke="midnightblue" points="302.67,-198.649 311.963,-193.559 301.524,-191.743 302.67,-198.649"/>
</g>
<!-- Node17&#45;&gt;Node14 -->
<g id="edge21" class="edge"><title>Node17&#45;&gt;Node14</title>
<path fill="none" stroke="midnightblue" d="M66.0962,-348.48C51.9636,-341.081 33.836,-328.887 25.3925,-312 10.2867,-281.788 5.92879,-263.606 25.3925,-236 39.4132,-216.114 61.9165,-203.938 84.9617,-196.498"/>
<polygon fill="midnightblue" stroke="midnightblue" points="86.242,-199.769 94.8482,-193.59 84.267,-193.054 86.242,-199.769"/>
</g>
<!-- Node18 -->
<g id="node18" class="node"><title>Node18</title>
<g id="a_node18"><a xlink:href="Face_8inl.html" target="_top" xlink:title="Core/Mesh/DCEL/Face.inl">
<polygon fill="white" stroke="black" points="67.3925,-292.5 67.3925,-311.5 199.393,-311.5 199.393,-292.5 67.3925,-292.5"/>
<text text-anchor="middle" x="133.393" y="-299.5" font-family="Helvetica,sans-Serif" font-size="10.00">Core/Mesh/DCEL/Face.inl</text>
</a>
</g>
</g>
<!-- Node17&#45;&gt;Node18 -->
<g id="edge22" class="edge"><title>Node17&#45;&gt;Node18</title>
<path fill="none" stroke="midnightblue" d="M88.1524,-348.083C93.5367,-340.141 103.684,-328.335 113.146,-318.797"/>
<polygon fill="midnightblue" stroke="midnightblue" points="115.695,-321.202 120.483,-311.751 110.846,-316.154 115.695,-321.202"/>
</g>
<!-- Node18&#45;&gt;Node2 -->
<g id="edge24" class="edge"><title>Node18&#45;&gt;Node2</title>
<path fill="none" stroke="midnightblue" d="M149.941,-292.324C166.384,-283.703 191.827,-270.364 210.861,-260.386"/>
<polygon fill="midnightblue" stroke="midnightblue" points="212.653,-263.398 219.885,-255.655 209.403,-257.198 212.653,-263.398"/>
</g>
<!-- Node18&#45;&gt;Node17 -->
<g id="edge23" class="edge"><title>Node18&#45;&gt;Node17</title>
<path fill="none" stroke="midnightblue" d="M130.689,-311.834C125.31,-319.791 115.098,-331.673 105.589,-341.253"/>
<polygon fill="midnightblue" stroke="midnightblue" points="103.012,-338.875 98.2194,-348.324 107.858,-343.926 103.012,-338.875"/>
</g>
<!-- Node19&#45;&gt;Node3 -->
<g id="edge26" class="edge"><title>Node19&#45;&gt;Node3</title>
<path fill="none" stroke="midnightblue" d="M450.68,-348.395C458.973,-340.025 470.536,-326.483 475.393,-312 495.849,-250.992 502.066,-217.028 460.393,-168 445.643,-150.647 423.606,-139.984 402.243,-133.433"/>
<polygon fill="midnightblue" stroke="midnightblue" points="403.076,-130.032 392.503,-130.703 401.187,-136.772 403.076,-130.032"/>
</g>
<!-- Node19&#45;&gt;Node6 -->
<g id="edge27" class="edge"><title>Node19&#45;&gt;Node6</title>
<path fill="none" stroke="midnightblue" d="M445.571,-348.444C455.047,-327.719 475.818,-273.758 455.393,-236 445.997,-218.632 427.832,-206.232 411.394,-198.012"/>
<polygon fill="midnightblue" stroke="midnightblue" points="412.539,-194.684 401.995,-193.648 409.592,-201.034 412.539,-194.684"/>
</g>
<!-- Node19&#45;&gt;Node14 -->
<g id="edge42" class="edge"><title>Node19&#45;&gt;Node14</title>
<path fill="none" stroke="midnightblue" d="M440.758,-348.492C439.362,-335.119 434.969,-308.96 421.393,-292 376.032,-235.338 295.184,-208.23 237.077,-195.562"/>
<polygon fill="midnightblue" stroke="midnightblue" points="237.737,-192.124 227.232,-193.506 236.305,-198.977 237.737,-192.124"/>
</g>
<!-- Node20 -->
<g id="node20" class="node"><title>Node20</title>
<g id="a_node20"><a xlink:href="LinearAlgebra_8hpp.html" target="_top" xlink:title="Core/Math/LinearAlgebra.hpp">
<polygon fill="white" stroke="black" points="872.893,-236.5 872.893,-255.5 1015.89,-255.5 1015.89,-236.5 872.893,-236.5"/>
<text text-anchor="middle" x="944.393" y="-243.5" font-family="Helvetica,sans-Serif" font-size="10.00">Core/Math/LinearAlgebra.hpp</text>
</a>
</g>
</g>
<!-- Node19&#45;&gt;Node20 -->
<g id="edge28" class="edge"><title>Node19&#45;&gt;Node20</title>
<path fill="none" stroke="midnightblue" d="M480.444,-348.46C571.158,-328.622 795.962,-279.46 895.559,-257.679"/>
<polygon fill="midnightblue" stroke="midnightblue" points="896.345,-261.09 905.366,-255.535 894.85,-254.252 896.345,-261.09"/>
</g>
<!-- Node31 -->
<g id="node31" class="node"><title>Node31</title>
<g id="a_node31"><a xlink:href="Vertex_8inl.html" target="_top" xlink:title="Core/Mesh/DCEL/Vertex.inl">
<polygon fill="white" stroke="black" points="273.893,-292.5 273.893,-311.5 412.893,-311.5 412.893,-292.5 273.893,-292.5"/>
<text text-anchor="middle" x="343.393" y="-299.5" font-family="Helvetica,sans-Serif" font-size="10.00">Core/Mesh/DCEL/Vertex.inl</text>
</a>
</g>
</g>
<!-- Node19&#45;&gt;Node31 -->
<g id="edge43" class="edge"><title>Node19&#45;&gt;Node31</title>
<path fill="none" stroke="midnightblue" d="M420.532,-348.324C403.421,-339.9 379.659,-326.971 362.925,-317.074"/>
<polygon fill="midnightblue" stroke="midnightblue" points="364.354,-313.847 353.989,-311.655 360.724,-319.833 364.354,-313.847"/>
</g>
<!-- Node20&#45;&gt;Node7 -->
<g id="edge29" class="edge"><title>Node20&#45;&gt;Node7</title>
<path fill="none" stroke="midnightblue" d="M872.683,-238.277C817.792,-231.681 748.088,-219.693 727.393,-200 711.634,-185.005 707.695,-159.315 706.998,-141.766"/>
<polygon fill="midnightblue" stroke="midnightblue" points="710.496,-141.575 706.915,-131.604 703.497,-141.632 710.496,-141.575"/>
</g>
<!-- Node21 -->
<g id="node21" class="node"><title>Node21</title>
<polygon fill="white" stroke="#bfbfbf" points="1015.89,-174.5 1015.89,-193.5 1080.89,-193.5 1080.89,-174.5 1015.89,-174.5"/>
<text text-anchor="middle" x="1048.39" y="-181.5" font-family="Helvetica,sans-Serif" font-size="10.00">Eigen/Core</text>
</g>
<!-- Node20&#45;&gt;Node21 -->
<g id="edge30" class="edge"><title>Node20&#45;&gt;Node21</title>
<path fill="none" stroke="midnightblue" d="M959.293,-236.403C976.361,-226.557 1004.55,-210.291 1024.65,-198.695"/>
<polygon fill="midnightblue" stroke="midnightblue" points="1026.61,-201.61 1033.52,-193.581 1023.11,-195.546 1026.61,-201.61"/>
</g>
<!-- Node22 -->
<g id="node22" class="node"><title>Node22</title>
<polygon fill="white" stroke="#bfbfbf" points="1098.89,-174.5 1098.89,-193.5 1185.89,-193.5 1185.89,-174.5 1098.89,-174.5"/>
<text text-anchor="middle" x="1142.39" y="-181.5" font-family="Helvetica,sans-Serif" font-size="10.00">Eigen/Geometry</text>
</g>
<!-- Node20&#45;&gt;Node22 -->
<g id="edge31" class="edge"><title>Node20&#45;&gt;Node22</title>
<path fill="none" stroke="midnightblue" d="M972.761,-236.403C1007.31,-225.933 1065.82,-208.205 1104.28,-196.55"/>
<polygon fill="midnightblue" stroke="midnightblue" points="1105.52,-199.83 1114.08,-193.581 1103.49,-193.131 1105.52,-199.83"/>
</g>
<!-- Node23 -->
<g id="node23" class="node"><title>Node23</title>
<polygon fill="white" stroke="#bfbfbf" points="1203.89,-174.5 1203.89,-193.5 1278.89,-193.5 1278.89,-174.5 1203.89,-174.5"/>
<text text-anchor="middle" x="1241.39" y="-181.5" font-family="Helvetica,sans-Serif" font-size="10.00">Eigen/Sparse</text>
</g>
<!-- Node20&#45;&gt;Node23 -->
<g id="edge32" class="edge"><title>Node20&#45;&gt;Node23</title>
<path fill="none" stroke="midnightblue" d="M1004.21,-236.486C1055.15,-228.7 1130.09,-215.976 1194.39,-200 1198.51,-198.978 1202.79,-197.79 1207.02,-196.539"/>
<polygon fill="midnightblue" stroke="midnightblue" points="1208.16,-199.848 1216.69,-193.553 1206.1,-193.159 1208.16,-199.848"/>
</g>
<!-- Node24 -->
<g id="node24" class="node"><title>Node24</title>
<polygon fill="white" stroke="#bfbfbf" points="1296.89,-174.5 1296.89,-193.5 1355.89,-193.5 1355.89,-174.5 1296.89,-174.5"/>
<text text-anchor="middle" x="1326.39" y="-181.5" font-family="Helvetica,sans-Serif" font-size="10.00">functional</text>
</g>
<!-- Node20&#45;&gt;Node24 -->
<g id="edge33" class="edge"><title>Node20&#45;&gt;Node24</title>
<path fill="none" stroke="midnightblue" d="M1015.94,-240.565C1085.98,-235.069 1195.28,-223.405 1287.39,-200 1290.63,-199.178 1293.96,-198.168 1297.25,-197.062"/>
<polygon fill="midnightblue" stroke="midnightblue" points="1298.65,-200.275 1306.85,-193.557 1296.25,-193.699 1298.65,-200.275"/>
</g>
<!-- Node25 -->
<g id="node25" class="node"><title>Node25</title>
<polygon fill="white" stroke="#bfbfbf" points="545.893,-169 545.893,-199 678.893,-199 678.893,-169 545.893,-169"/>
<text text-anchor="start" x="553.893" y="-187" font-family="Helvetica,sans-Serif" font-size="10.00">unsupported/Eigen/Aligned</text>
<text text-anchor="middle" x="612.393" y="-176" font-family="Helvetica,sans-Serif" font-size="10.00">Vector3</text>
</g>
<!-- Node20&#45;&gt;Node25 -->
<g id="edge34" class="edge"><title>Node20&#45;&gt;Node25</title>
<path fill="none" stroke="midnightblue" d="M896.259,-236.455C845.721,-227.463 763.95,-212.858 693.393,-200 691.942,-199.736 690.476,-199.468 689,-199.198"/>
<polygon fill="midnightblue" stroke="midnightblue" points="689.599,-195.75 679.132,-197.39 688.338,-202.635 689.599,-195.75"/>
</g>
<!-- Node26 -->
<g id="node26" class="node"><title>Node26</title>
<g id="a_node26"><a xlink:href="Math_8hpp.html" target="_top" xlink:title="Core/Math/Math.hpp">
<polygon fill="white" stroke="black" points="891.393,-174.5 891.393,-193.5 997.393,-193.5 997.393,-174.5 891.393,-174.5"/>
<text text-anchor="middle" x="944.393" y="-181.5" font-family="Helvetica,sans-Serif" font-size="10.00">Core/Math/Math.hpp</text>
</a>
</g>
</g>
<!-- Node20&#45;&gt;Node26 -->
<g id="edge35" class="edge"><title>Node20&#45;&gt;Node26</title>
<path fill="none" stroke="midnightblue" d="M944.393,-236.403C944.393,-227.938 944.393,-214.728 944.393,-203.82"/>
<polygon fill="midnightblue" stroke="midnightblue" points="947.893,-203.581 944.393,-193.581 940.893,-203.581 947.893,-203.581"/>
</g>
<!-- Node30 -->
<g id="node30" class="node"><title>Node30</title>
<g id="a_node30"><a xlink:href="LinearAlgebra_8inl.html" target="_top" xlink:title="Core/Math/LinearAlgebra.inl">
<polygon fill="white" stroke="black" points="735.893,-174.5 735.893,-193.5 872.893,-193.5 872.893,-174.5 735.893,-174.5"/>
<text text-anchor="middle" x="804.393" y="-181.5" font-family="Helvetica,sans-Serif" font-size="10.00">Core/Math/LinearAlgebra.inl</text>
</a>
</g>
</g>
<!-- Node20&#45;&gt;Node30 -->
<g id="edge41" class="edge"><title>Node20&#45;&gt;Node30</title>
<path fill="none" stroke="midnightblue" d="M924.334,-236.403C900.631,-226.245 860.987,-209.255 833.81,-197.607"/>
<polygon fill="midnightblue" stroke="midnightblue" points="834.984,-194.303 824.414,-193.581 832.227,-200.737 834.984,-194.303"/>
</g>
<!-- Node26&#45;&gt;Node7 -->
<g id="edge36" class="edge"><title>Node26&#45;&gt;Node7</title>
<path fill="none" stroke="midnightblue" d="M910.688,-174.467C868.66,-163.827 796.748,-145.622 750.682,-133.959"/>
<polygon fill="midnightblue" stroke="midnightblue" points="751.534,-130.565 740.981,-131.503 749.816,-137.351 751.534,-130.565"/>
</g>
<!-- Node27 -->
<g id="node27" class="node"><title>Node27</title>
<polygon fill="white" stroke="#bfbfbf" points="964.393,-112.5 964.393,-131.5 1020.39,-131.5 1020.39,-112.5 964.393,-112.5"/>
<text text-anchor="middle" x="992.393" y="-119.5" font-family="Helvetica,sans-Serif" font-size="10.00">algorithm</text>
</g>
<!-- Node26&#45;&gt;Node27 -->
<g id="edge37" class="edge"><title>Node26&#45;&gt;Node27</title>
<path fill="none" stroke="midnightblue" d="M951.27,-174.403C958.541,-165.314 970.188,-150.756 979.233,-139.449"/>
<polygon fill="midnightblue" stroke="midnightblue" points="982.014,-141.576 985.528,-131.581 976.548,-137.203 982.014,-141.576"/>
</g>
<!-- Node28 -->
<g id="node28" class="node"><title>Node28</title>
<polygon fill="white" stroke="#bfbfbf" points="1038.39,-112.5 1038.39,-131.5 1082.39,-131.5 1082.39,-112.5 1038.39,-112.5"/>
<text text-anchor="middle" x="1060.39" y="-119.5" font-family="Helvetica,sans-Serif" font-size="10.00">cmath</text>
</g>
<!-- Node26&#45;&gt;Node28 -->
<g id="edge38" class="edge"><title>Node26&#45;&gt;Node28</title>
<path fill="none" stroke="midnightblue" d="M961.013,-174.403C980.308,-164.423 1012.35,-147.849 1034.82,-136.225"/>
<polygon fill="midnightblue" stroke="midnightblue" points="1036.53,-139.284 1043.8,-131.581 1033.31,-133.066 1036.53,-139.284"/>
</g>
<!-- Node29 -->
<g id="node29" class="node"><title>Node29</title>
<g id="a_node29"><a xlink:href="Math_8inl.html" target="_top" xlink:title="Core/Math/Math.inl">
<polygon fill="white" stroke="black" points="846.393,-112.5 846.393,-131.5 946.393,-131.5 946.393,-112.5 846.393,-112.5"/>
<text text-anchor="middle" x="896.393" y="-119.5" font-family="Helvetica,sans-Serif" font-size="10.00">Core/Math/Math.inl</text>
</a>
</g>
</g>
<!-- Node26&#45;&gt;Node29 -->
<g id="edge39" class="edge"><title>Node26&#45;&gt;Node29</title>
<path fill="none" stroke="midnightblue" d="M932.615,-174.403C923.559,-165.493 911.803,-151.325 903.923,-140.118"/>
<polygon fill="midnightblue" stroke="midnightblue" points="906.752,-138.048 898.36,-131.581 900.887,-141.87 906.752,-138.048"/>
</g>
<!-- Node29&#45;&gt;Node26 -->
<g id="edge40" class="edge"><title>Node29&#45;&gt;Node26</title>
<path fill="none" stroke="midnightblue" d="M908.154,-131.581C917.207,-140.485 928.963,-154.652 936.848,-165.862"/>
<polygon fill="midnightblue" stroke="midnightblue" points="934.023,-167.938 942.416,-174.403 939.887,-164.115 934.023,-167.938"/>
</g>
<!-- Node31&#45;&gt;Node2 -->
<g id="edge45" class="edge"><title>Node31&#45;&gt;Node2</title>
<path fill="none" stroke="midnightblue" d="M326.201,-292.324C309.042,-283.664 282.447,-270.242 262.645,-260.249"/>
<polygon fill="midnightblue" stroke="midnightblue" points="264.046,-257.035 253.541,-255.655 260.892,-263.285 264.046,-257.035"/>
</g>
<!-- Node31&#45;&gt;Node19 -->
<g id="edge44" class="edge"><title>Node31&#45;&gt;Node19</title>
<path fill="none" stroke="midnightblue" d="M364.209,-311.655C381.309,-320.071 405.072,-332.999 421.817,-342.901"/>
<polygon fill="midnightblue" stroke="midnightblue" points="420.396,-346.132 430.762,-348.324 424.026,-340.146 420.396,-346.132"/>
</g>
</g>
</svg>
