<?xml version="1.0" encoding="UTF-8" standalone="no"?>
<!DOCTYPE svg PUBLIC "-//W3C//DTD SVG 1.1//EN"
 "http://www.w3.org/Graphics/SVG/1.1/DTD/svg11.dtd">
<!-- Generated by graphviz version 2.36.0 (20140111.2315)
 -->
<!-- Title: /home/travis/build/STORM&#45;IRIT/Radium&#45;Engine/src/Core/Mesh/DCEL/Dcel.inl Pages: 1 -->
<svg width="755pt" height="308pt"
 viewBox="0.00 0.00 755.00 308.00" xmlns="http://www.w3.org/2000/svg" xmlns:xlink="http://www.w3.org/1999/xlink">
<g id="graph0" class="graph" transform="scale(1 1) rotate(0) translate(4 304)">
<title>/home/travis/build/STORM&#45;IRIT/Radium&#45;Engine/src/Core/Mesh/DCEL/Dcel.inl</title>
<polygon fill="white" stroke="none" points="-4,4 -4,-304 751,-304 751,4 -4,4"/>
<!-- Node1 -->
<g id="node1" class="node"><title>Node1</title>
<polygon fill="#bfbfbf" stroke="black" points="214,-258.5 214,-299.5 364,-299.5 364,-258.5 214,-258.5"/>
<text text-anchor="start" x="222" y="-287.5" font-family="Helvetica,sans-Serif" font-size="10.00">/home/travis/build</text>
<text text-anchor="start" x="222" y="-276.5" font-family="Helvetica,sans-Serif" font-size="10.00">/STORM&#45;IRIT/Radium&#45;Engine</text>
<text text-anchor="middle" x="289" y="-265.5" font-family="Helvetica,sans-Serif" font-size="10.00">/src/Core/Mesh/DCEL/Dcel.inl</text>
</g>
<!-- Node2 -->
<g id="node2" class="node"><title>Node2</title>
<g id="a_node2"><a xlink:href="Dcel_8hpp.html" target="_top" xlink:title="/home/travis/build\l/STORM&#45;IRIT/Radium&#45;Engine\l/src/Core/Mesh/DCEL/Dcel.hpp">
<polygon fill="white" stroke="black" points="211,-180.5 211,-221.5 367,-221.5 367,-180.5 211,-180.5"/>
<text text-anchor="start" x="219" y="-209.5" font-family="Helvetica,sans-Serif" font-size="10.00">/home/travis/build</text>
<text text-anchor="start" x="219" y="-198.5" font-family="Helvetica,sans-Serif" font-size="10.00">/STORM&#45;IRIT/Radium&#45;Engine</text>
<text text-anchor="middle" x="289" y="-187.5" font-family="Helvetica,sans-Serif" font-size="10.00">/src/Core/Mesh/DCEL/Dcel.hpp</text>
</a>
</g>
</g>
<!-- Node1&#45;&gt;Node2 -->
<g id="edge1" class="edge"><title>Node1&#45;&gt;Node2</title>
<path fill="none" stroke="midnightblue" d="M282.395,-248.297C282.076,-239.301 282.283,-229.653 283.018,-221.506"/>
<polygon fill="midnightblue" stroke="midnightblue" points="278.911,-248.659 283.012,-258.428 285.898,-248.234 278.911,-248.659"/>
</g>
<!-- Node2&#45;&gt;Node1 -->
<g id="edge5" class="edge"><title>Node2&#45;&gt;Node1</title>
<path fill="none" stroke="midnightblue" d="M295.602,-231.63C295.924,-240.622 295.72,-250.272 294.988,-258.428"/>
<polygon fill="midnightblue" stroke="midnightblue" points="299.087,-231.273 294.982,-221.506 292.1,-231.701 299.087,-231.273"/>
</g>
<!-- Node3 -->
<g id="node3" class="node"><title>Node3</title>
<g id="a_node3"><a xlink:href="FullEdgeOperation_8cpp.html" target="_top" xlink:title="/home/travis/build\l/STORM&#45;IRIT/Radium&#45;Engine\l/src/Core/Algorithm/Subdivision\l/FullEdgeOperation.cpp">
<polygon fill="white" stroke="black" points="-0.5,-91 -0.5,-143 154.5,-143 154.5,-91 -0.5,-91"/>
<text text-anchor="start" x="7.5" y="-131" font-family="Helvetica,sans-Serif" font-size="10.00">/home/travis/build</text>
<text text-anchor="start" x="7.5" y="-120" font-family="Helvetica,sans-Serif" font-size="10.00">/STORM&#45;IRIT/Radium&#45;Engine</text>
<text text-anchor="start" x="7.5" y="-109" font-family="Helvetica,sans-Serif" font-size="10.00">/src/Core/Algorithm/Subdivision</text>
<text text-anchor="middle" x="77" y="-98" font-family="Helvetica,sans-Serif" font-size="10.00">/FullEdgeOperation.cpp</text>
</a>
</g>
</g>
<!-- Node2&#45;&gt;Node3 -->
<g id="edge2" class="edge"><title>Node2&#45;&gt;Node3</title>
<path fill="none" stroke="midnightblue" d="M229.105,-176.833C201.935,-166.324 169.746,-153.873 141.991,-143.138"/>
<polygon fill="midnightblue" stroke="midnightblue" points="227.901,-180.12 238.49,-180.463 230.426,-173.591 227.901,-180.12"/>
</g>
<!-- Node4 -->
<g id="node4" class="node"><title>Node4</title>
<g id="a_node4"><a xlink:href="RotationCenterSkinning_8cpp.html" target="_top" xlink:title="/home/travis/build\l/STORM&#45;IRIT/Radium&#45;Engine\l/src/Core/Animation/Skinning\l/RotationCenterSkinning.cpp">
<polygon fill="white" stroke="black" points="164,-1 164,-53 312,-53 312,-1 164,-1"/>
<text text-anchor="start" x="172" y="-41" font-family="Helvetica,sans-Serif" font-size="10.00">/home/travis/build</text>
<text text-anchor="start" x="172" y="-30" font-family="Helvetica,sans-Serif" font-size="10.00">/STORM&#45;IRIT/Radium&#45;Engine</text>
<text text-anchor="start" x="172" y="-19" font-family="Helvetica,sans-Serif" font-size="10.00">/src/Core/Animation/Skinning</text>
<text text-anchor="middle" x="238" y="-8" font-family="Helvetica,sans-Serif" font-size="10.00">/RotationCenterSkinning.cpp</text>
</a>
</g>
</g>
<!-- Node2&#45;&gt;Node4 -->
<g id="edge3" class="edge"><title>Node2&#45;&gt;Node4</title>
<path fill="none" stroke="midnightblue" d="M231.786,-174.774C219.866,-166.728 208.853,-156.562 202,-144 186.044,-114.753 203.497,-77.421 219.197,-53.1247"/>
<polygon fill="midnightblue" stroke="midnightblue" points="230.243,-177.937 240.58,-180.262 233.949,-171.998 230.243,-177.937"/>
</g>
<!-- Node5 -->
<g id="node5" class="node"><title>Node5</title>
<g id="a_node5"><a xlink:href="Dcel_8cpp.html" target="_top" xlink:title="/home/travis/build\l/STORM&#45;IRIT/Radium&#45;Engine\l/src/Core/Mesh/DCEL/Dcel.cpp">
<polygon fill="white" stroke="black" points="211,-96.5 211,-137.5 367,-137.5 367,-96.5 211,-96.5"/>
<text text-anchor="start" x="219" y="-125.5" font-family="Helvetica,sans-Serif" font-size="10.00">/home/travis/build</text>
<text text-anchor="start" x="219" y="-114.5" font-family="Helvetica,sans-Serif" font-size="10.00">/STORM&#45;IRIT/Radium&#45;Engine</text>
<text text-anchor="middle" x="289" y="-103.5" font-family="Helvetica,sans-Serif" font-size="10.00">/src/Core/Mesh/DCEL/Dcel.cpp</text>
</a>
</g>
</g>
<!-- Node2&#45;&gt;Node5 -->
<g id="edge4" class="edge"><title>Node2&#45;&gt;Node5</title>
<path fill="none" stroke="midnightblue" d="M289,-169.881C289,-159.133 289,-147.309 289,-137.667"/>
<polygon fill="midnightblue" stroke="midnightblue" points="285.5,-170.15 289,-180.15 292.5,-170.15 285.5,-170.15"/>
</g>
<!-- Node6 -->
<g id="node6" class="node"><title>Node6</title>
<g id="a_node6"><a xlink:href="DCEL_2Operations_2EdgeSplit_8hpp.html" target="_top" xlink:title="/home/travis/build\l/STORM&#45;IRIT/Radium&#45;Engine\l/src/Core/Mesh/DCEL/Operations\l/EdgeSplit.hpp">
<polygon fill="white" stroke="black" points="385,-91 385,-143 549,-143 549,-91 385,-91"/>
<text text-anchor="start" x="393" y="-131" font-family="Helvetica,sans-Serif" font-size="10.00">/home/travis/build</text>
<text text-anchor="start" x="393" y="-120" font-family="Helvetica,sans-Serif" font-size="10.00">/STORM&#45;IRIT/Radium&#45;Engine</text>
<text text-anchor="start" x="393" y="-109" font-family="Helvetica,sans-Serif" font-size="10.00">/src/Core/Mesh/DCEL/Operations</text>
<text text-anchor="middle" x="467" y="-98" font-family="Helvetica,sans-Serif" font-size="10.00">/EdgeSplit.hpp</text>
</a>
</g>
</g>
<!-- Node2&#45;&gt;Node6 -->
<g id="edge6" class="edge"><title>Node2&#45;&gt;Node6</title>
<path fill="none" stroke="midnightblue" d="M341.015,-176.038C363.5,-165.68 389.814,-153.557 412.563,-143.078"/>
<polygon fill="midnightblue" stroke="midnightblue" points="339.254,-172.996 331.635,-180.359 342.182,-179.354 339.254,-172.996"/>
</g>
<!-- Node8 -->
<g id="node8" class="node"><title>Node8</title>
<g id="a_node8"><a xlink:href="Convert_8cpp.html" target="_top" xlink:title="/home/travis/build\l/STORM&#45;IRIT/Radium&#45;Engine\l/src/Core/Mesh/Wrapper/Convert.cpp">
<polygon fill="white" stroke="black" points="567,-96.5 567,-137.5 747,-137.5 747,-96.5 567,-96.5"/>
<text text-anchor="start" x="575" y="-125.5" font-family="Helvetica,sans-Serif" font-size="10.00">/home/travis/build</text>
<text text-anchor="start" x="575" y="-114.5" font-family="Helvetica,sans-Serif" font-size="10.00">/STORM&#45;IRIT/Radium&#45;Engine</text>
<text text-anchor="middle" x="657" y="-103.5" font-family="Helvetica,sans-Serif" font-size="10.00">/src/Core/Mesh/Wrapper/Convert.cpp</text>
</a>
</g>
</g>
<!-- Node2&#45;&gt;Node8 -->
<g id="edge9" class="edge"><title>Node2&#45;&gt;Node8</title>
<path fill="none" stroke="midnightblue" d="M377.197,-182.832C429.831,-172.29 497.908,-158.136 558,-144 566.563,-141.986 575.515,-139.778 584.387,-137.528"/>
<polygon fill="midnightblue" stroke="midnightblue" points="376.34,-179.434 367.219,-184.824 377.711,-186.299 376.34,-179.434"/>
</g>
<!-- Node6&#45;&gt;Node4 -->
<g id="edge7" class="edge"><title>Node6&#45;&gt;Node4</title>
<path fill="none" stroke="midnightblue" d="M392.13,-87.229C363.494,-76.2249 331.086,-63.7712 303.402,-53.1328"/>
<polygon fill="midnightblue" stroke="midnightblue" points="391.094,-90.5805 401.684,-90.9005 393.605,-84.0463 391.094,-90.5805"/>
</g>
<!-- Node7 -->
<g id="node7" class="node"><title>Node7</title>
<g id="a_node7"><a xlink:href="DCEL_2Operations_2EdgeSplit_8cpp.html" target="_top" xlink:title="/home/travis/build\l/STORM&#45;IRIT/Radium&#45;Engine\l/src/Core/Mesh/DCEL/Operations\l/EdgeSplit.cpp">
<polygon fill="white" stroke="black" points="385,-1 385,-53 549,-53 549,-1 385,-1"/>
<text text-anchor="start" x="393" y="-41" font-family="Helvetica,sans-Serif" font-size="10.00">/home/travis/build</text>
<text text-anchor="start" x="393" y="-30" font-family="Helvetica,sans-Serif" font-size="10.00">/STORM&#45;IRIT/Radium&#45;Engine</text>
<text text-anchor="start" x="393" y="-19" font-family="Helvetica,sans-Serif" font-size="10.00">/src/Core/Mesh/DCEL/Operations</text>
<text text-anchor="middle" x="467" y="-8" font-family="Helvetica,sans-Serif" font-size="10.00">/EdgeSplit.cpp</text>
</a>
</g>
</g>
<!-- Node6&#45;&gt;Node7 -->
<g id="edge8" class="edge"><title>Node6&#45;&gt;Node7</title>
<path fill="none" stroke="midnightblue" d="M467,-80.4892C467,-71.3088 467,-61.616 467,-53.0921"/>
<polygon fill="midnightblue" stroke="midnightblue" points="463.5,-80.5467 467,-90.5468 470.5,-80.5468 463.5,-80.5467"/>
</g>
</g>
</svg>
