<?xml version="1.0" encoding="UTF-8" standalone="no"?>
<!DOCTYPE svg PUBLIC "-//W3C//DTD SVG 1.1//EN"
 "http://www.w3.org/Graphics/SVG/1.1/DTD/svg11.dtd">
<!-- Generated by graphviz version 2.36.0 (20140111.2315)
 -->
<!-- Title: /home/travis/build/STORM&#45;IRIT/Radium&#45;Engine/src/Core/Mesh/DCEL/Dcel.cpp Pages: 1 -->
<svg width="1547pt" height="734pt"
 viewBox="0.00 0.00 1547.37 734.00" xmlns="http://www.w3.org/2000/svg" xmlns:xlink="http://www.w3.org/1999/xlink">
<g id="graph0" class="graph" transform="scale(1 1) rotate(0) translate(4 730)">
<title>/home/travis/build/STORM&#45;IRIT/Radium&#45;Engine/src/Core/Mesh/DCEL/Dcel.cpp</title>
<polygon fill="white" stroke="none" points="-4,4 -4,-730 1543.37,-730 1543.37,4 -4,4"/>
<!-- Node1 -->
<g id="node1" class="node"><title>Node1</title>
<polygon fill="#bfbfbf" stroke="black" points="686.37,-684.5 686.37,-725.5 842.37,-725.5 842.37,-684.5 686.37,-684.5"/>
<text text-anchor="start" x="694.37" y="-713.5" font-family="Helvetica,sans-Serif" font-size="10.00">/home/travis/build</text>
<text text-anchor="start" x="694.37" y="-702.5" font-family="Helvetica,sans-Serif" font-size="10.00">/STORM&#45;IRIT/Radium&#45;Engine</text>
<text text-anchor="middle" x="764.37" y="-691.5" font-family="Helvetica,sans-Serif" font-size="10.00">/src/Core/Mesh/DCEL/Dcel.cpp</text>
</g>
<!-- Node2 -->
<g id="node2" class="node"><title>Node2</title>
<g id="a_node2"><a xlink:href="Dcel_8hpp.html" target="_top" xlink:title="Core/Mesh/DCEL/Dcel.hpp">
<polygon fill="white" stroke="black" points="192.87,-292.5 192.87,-311.5 329.87,-311.5 329.87,-292.5 192.87,-292.5"/>
<text text-anchor="middle" x="261.37" y="-299.5" font-family="Helvetica,sans-Serif" font-size="10.00">Core/Mesh/DCEL/Dcel.hpp</text>
</a>
</g>
</g>
<!-- Node1&#45;&gt;Node2 -->
<g id="edge1" class="edge"><title>Node1&#45;&gt;Node2</title>
<path fill="none" stroke="midnightblue" d="M686.247,-699.458C555.221,-689.678 305.37,-660.826 305.37,-583 305.37,-583 305.37,-583 305.37,-413 305.37,-378.04 285.974,-341.013 272.938,-320.075"/>
<polygon fill="midnightblue" stroke="midnightblue" points="275.859,-318.146 267.488,-311.651 269.982,-321.949 275.859,-318.146"/>
</g>
<!-- Node23 -->
<g id="node23" class="node"><title>Node23</title>
<polygon fill="white" stroke="#bfbfbf" points="1008.87,-628.5 1008.87,-647.5 1043.87,-647.5 1043.87,-628.5 1008.87,-628.5"/>
<text text-anchor="middle" x="1026.37" y="-635.5" font-family="Helvetica,sans-Serif" font-size="10.00">map</text>
</g>
<!-- Node1&#45;&gt;Node23 -->
<g id="edge27" class="edge"><title>Node1&#45;&gt;Node23</title>
<path fill="none" stroke="midnightblue" d="M842.523,-685.696C887.109,-675.072 943.984,-661.215 994.37,-648 995.835,-647.616 997.337,-647.216 998.851,-646.807"/>
<polygon fill="midnightblue" stroke="midnightblue" points="1000.09,-650.097 1008.8,-644.063 998.224,-643.349 1000.09,-650.097"/>
</g>
<!-- Node24 -->
<g id="node24" class="node"><title>Node24</title>
<g id="a_node24"><a xlink:href="MakeShared_8hpp.html" target="_top" xlink:title="Core/Containers/MakeShared.hpp">
<polygon fill="white" stroke="black" points="970.37,-572.5 970.37,-591.5 1134.37,-591.5 1134.37,-572.5 970.37,-572.5"/>
<text text-anchor="middle" x="1052.37" y="-579.5" font-family="Helvetica,sans-Serif" font-size="10.00">Core/Containers/MakeShared.hpp</text>
</a>
</g>
</g>
<!-- Node1&#45;&gt;Node24 -->
<g id="edge28" class="edge"><title>Node1&#45;&gt;Node24</title>
<path fill="none" stroke="midnightblue" d="M842.525,-687.091C878.188,-677.902 920.391,-664.916 956.37,-648 985.461,-634.323 1015.62,-612.413 1034.19,-597.866"/>
<polygon fill="midnightblue" stroke="midnightblue" points="1036.45,-600.539 1042.09,-591.57 1032.09,-595.065 1036.45,-600.539"/>
</g>
<!-- Node25 -->
<g id="node25" class="node"><title>Node25</title>
<g id="a_node25"><a xlink:href="Face_8hpp.html" target="_top" xlink:title="Core/Mesh/DCEL/Face.hpp">
<polygon fill="white" stroke="black" points="567.37,-516.5 567.37,-535.5 705.37,-535.5 705.37,-516.5 567.37,-516.5"/>
<text text-anchor="middle" x="636.37" y="-523.5" font-family="Helvetica,sans-Serif" font-size="10.00">Core/Mesh/DCEL/Face.hpp</text>
</a>
</g>
</g>
<!-- Node1&#45;&gt;Node25 -->
<g id="edge30" class="edge"><title>Node1&#45;&gt;Node25</title>
<path fill="none" stroke="midnightblue" d="M721.833,-684.311C706.016,-675.19 689.086,-663.009 677.37,-648 653.226,-617.069 642.872,-571.106 638.779,-545.656"/>
<polygon fill="midnightblue" stroke="midnightblue" points="642.21,-544.929 637.312,-535.534 635.282,-545.933 642.21,-544.929"/>
</g>
<!-- Node27 -->
<g id="node27" class="node"><title>Node27</title>
<g id="a_node27"><a xlink:href="DCEL_2HalfEdge_8hpp.html" target="_top" xlink:title="Core/Mesh/DCEL/HalfEdge.hpp">
<polygon fill="white" stroke="black" points="496.87,-404.5 496.87,-423.5 653.87,-423.5 653.87,-404.5 496.87,-404.5"/>
<text text-anchor="middle" x="575.37" y="-411.5" font-family="Helvetica,sans-Serif" font-size="10.00">Core/Mesh/DCEL/HalfEdge.hpp</text>
</a>
</g>
</g>
<!-- Node1&#45;&gt;Node27 -->
<g id="edge73" class="edge"><title>Node1&#45;&gt;Node27</title>
<path fill="none" stroke="midnightblue" d="M686.275,-701.13C606.534,-693.522 494.37,-667.755 494.37,-583 494.37,-583 494.37,-583 494.37,-525 494.37,-494.902 496.038,-484.606 513.37,-460 522.553,-446.963 536.735,-436.267 549.218,-428.579"/>
<polygon fill="midnightblue" stroke="midnightblue" points="551.027,-431.575 557.912,-423.521 547.508,-425.524 551.027,-431.575"/>
</g>
<!-- Node29 -->
<g id="node29" class="node"><title>Node29</title>
<g id="a_node29"><a xlink:href="Vertex_8hpp.html" target="_top" xlink:title="Core/Mesh/DCEL/Vertex.hpp">
<polygon fill="white" stroke="black" points="757.87,-292.5 757.87,-311.5 902.87,-311.5 902.87,-292.5 757.87,-292.5"/>
<text text-anchor="middle" x="830.37" y="-299.5" font-family="Helvetica,sans-Serif" font-size="10.00">Core/Mesh/DCEL/Vertex.hpp</text>
</a>
</g>
</g>
<!-- Node1&#45;&gt;Node29 -->
<g id="edge74" class="edge"><title>Node1&#45;&gt;Node29</title>
<path fill="none" stroke="midnightblue" d="M803.014,-684.476C819.051,-675.031 836.995,-662.568 850.37,-648 877.125,-618.857 936.37,-489.21 936.37,-471 936.37,-471 936.37,-471 936.37,-413 936.37,-367.815 889.42,-334.052 858.013,-316.521"/>
<polygon fill="midnightblue" stroke="midnightblue" points="859.302,-313.241 848.834,-311.607 855.998,-319.412 859.302,-313.241"/>
</g>
<!-- Node41 -->
<g id="node41" class="node"><title>Node41</title>
<g id="a_node41"><a xlink:href="FullEdge_8hpp.html" target="_top" xlink:title="Core/Mesh/DCEL/FullEdge.hpp">
<polygon fill="white" stroke="black" points="686.87,-628.5 686.87,-647.5 841.87,-647.5 841.87,-628.5 686.87,-628.5"/>
<text text-anchor="middle" x="764.37" y="-635.5" font-family="Helvetica,sans-Serif" font-size="10.00">Core/Mesh/DCEL/FullEdge.hpp</text>
</a>
</g>
</g>
<!-- Node1&#45;&gt;Node41 -->
<g id="edge64" class="edge"><title>Node1&#45;&gt;Node41</title>
<path fill="none" stroke="midnightblue" d="M764.37,-684.498C764.37,-676.065 764.37,-666.235 764.37,-657.874"/>
<polygon fill="midnightblue" stroke="midnightblue" points="767.87,-657.652 764.37,-647.652 760.87,-657.653 767.87,-657.652"/>
</g>
<!-- Node3 -->
<g id="node3" class="node"><title>Node3</title>
<g id="a_node3"><a xlink:href="IndexMap_8hpp.html" target="_top" xlink:title="Core/Index/IndexMap.hpp">
<polygon fill="white" stroke="black" points="9.87002,-236.5 9.87002,-255.5 138.87,-255.5 138.87,-236.5 9.87002,-236.5"/>
<text text-anchor="middle" x="74.37" y="-243.5" font-family="Helvetica,sans-Serif" font-size="10.00">Core/Index/IndexMap.hpp</text>
</a>
</g>
</g>
<!-- Node2&#45;&gt;Node3 -->
<g id="edge2" class="edge"><title>Node2&#45;&gt;Node3</title>
<path fill="none" stroke="midnightblue" d="M231.739,-292.444C199.87,-283.241 149.037,-268.562 113.806,-258.388"/>
<polygon fill="midnightblue" stroke="midnightblue" points="114.441,-254.928 103.862,-255.516 112.499,-261.653 114.441,-254.928"/>
</g>
<!-- Node18 -->
<g id="node18" class="node"><title>Node18</title>
<g id="a_node18"><a xlink:href="IndexedObject_8hpp.html" target="_top" xlink:title="Core/Index/IndexedObject.hpp">
<polygon fill="white" stroke="black" points="558.87,-236.5 558.87,-255.5 707.87,-255.5 707.87,-236.5 558.87,-236.5"/>
<text text-anchor="middle" x="633.37" y="-243.5" font-family="Helvetica,sans-Serif" font-size="10.00">Core/Index/IndexedObject.hpp</text>
</a>
</g>
</g>
<!-- Node2&#45;&gt;Node18 -->
<g id="edge18" class="edge"><title>Node2&#45;&gt;Node18</title>
<path fill="none" stroke="midnightblue" d="M320.315,-292.444C386.706,-282.806 494.466,-267.163 564.631,-256.978"/>
<polygon fill="midnightblue" stroke="midnightblue" points="565.308,-260.417 574.701,-255.516 564.302,-253.489 565.308,-260.417"/>
</g>
<!-- Node19 -->
<g id="node19" class="node"><title>Node19</title>
<g id="a_node19"><a xlink:href="Definition_8hpp.html" target="_top" xlink:title="Core/Mesh/DCEL/Definition.hpp">
<polygon fill="white" stroke="black" points="345.37,-236.5 345.37,-255.5 503.37,-255.5 503.37,-236.5 345.37,-236.5"/>
<text text-anchor="middle" x="424.37" y="-243.5" font-family="Helvetica,sans-Serif" font-size="10.00">Core/Mesh/DCEL/Definition.hpp</text>
</a>
</g>
</g>
<!-- Node2&#45;&gt;Node19 -->
<g id="edge21" class="edge"><title>Node2&#45;&gt;Node19</title>
<path fill="none" stroke="midnightblue" d="M287.198,-292.444C314.619,-283.359 358.147,-268.939 388.802,-258.783"/>
<polygon fill="midnightblue" stroke="midnightblue" points="390.271,-261.984 398.663,-255.516 388.07,-255.339 390.271,-261.984"/>
</g>
<!-- Node21 -->
<g id="node21" class="node"><title>Node21</title>
<polygon fill="white" stroke="#bfbfbf" points="358.37,-174.5 358.37,-193.5 402.37,-193.5 402.37,-174.5 358.37,-174.5"/>
<text text-anchor="middle" x="380.37" y="-181.5" font-family="Helvetica,sans-Serif" font-size="10.00">vector</text>
</g>
<!-- Node2&#45;&gt;Node21 -->
<g id="edge24" class="edge"><title>Node2&#45;&gt;Node21</title>
<path fill="none" stroke="midnightblue" d="M237.028,-292.328C208.689,-280.891 167.969,-259.451 186.37,-236 227.892,-183.082 268.625,-218.236 333.37,-200 338.167,-198.649 343.212,-197.137 348.144,-195.607"/>
<polygon fill="midnightblue" stroke="midnightblue" points="349.516,-198.844 357.993,-192.488 347.402,-192.171 349.516,-198.844"/>
</g>
<!-- Node22 -->
<g id="node22" class="node"><title>Node22</title>
<g id="a_node22"><a xlink:href="Dcel_8inl.html" target="_top" xlink:title="Core/Mesh/DCEL/Dcel.inl">
<polygon fill="white" stroke="black" points="195.87,-236.5 195.87,-255.5 326.87,-255.5 326.87,-236.5 195.87,-236.5"/>
<text text-anchor="middle" x="261.37" y="-243.5" font-family="Helvetica,sans-Serif" font-size="10.00">Core/Mesh/DCEL/Dcel.inl</text>
</a>
</g>
</g>
<!-- Node2&#45;&gt;Node22 -->
<g id="edge25" class="edge"><title>Node2&#45;&gt;Node22</title>
<path fill="none" stroke="midnightblue" d="M256.204,-292.083C254.694,-284.927 254.264,-274.635 254.913,-265.691"/>
<polygon fill="midnightblue" stroke="midnightblue" points="258.385,-266.126 256.239,-255.751 251.447,-265.2 258.385,-266.126"/>
</g>
<!-- Node4 -->
<g id="node4" class="node"><title>Node4</title>
<g id="a_node4"><a xlink:href="RaCore_8hpp.html" target="_top" xlink:title="Core/RaCore.hpp">
<polygon fill="white" stroke="black" points="689.87,-112.5 689.87,-131.5 782.87,-131.5 782.87,-112.5 689.87,-112.5"/>
<text text-anchor="middle" x="736.37" y="-119.5" font-family="Helvetica,sans-Serif" font-size="10.00">Core/RaCore.hpp</text>
</a>
</g>
</g>
<!-- Node3&#45;&gt;Node4 -->
<g id="edge3" class="edge"><title>Node3&#45;&gt;Node4</title>
<path fill="none" stroke="midnightblue" d="M127.158,-236.449C168.827,-228.963 228.111,-216.671 278.37,-200 311.222,-189.103 315.974,-177.095 349.37,-168 488.942,-129.99 531.797,-150.761 679.309,-132.046"/>
<polygon fill="midnightblue" stroke="midnightblue" points="680.185,-135.461 689.645,-130.692 679.276,-128.52 680.185,-135.461"/>
</g>
<!-- Node11 -->
<g id="node11" class="node"><title>Node11</title>
<polygon fill="white" stroke="#bfbfbf" points="616.37,-112.5 616.37,-131.5 672.37,-131.5 672.37,-112.5 616.37,-112.5"/>
<text text-anchor="middle" x="644.37" y="-119.5" font-family="Helvetica,sans-Serif" font-size="10.00">algorithm</text>
</g>
<!-- Node3&#45;&gt;Node11 -->
<g id="edge10" class="edge"><title>Node3&#45;&gt;Node11</title>
<path fill="none" stroke="midnightblue" d="M50.916,-236.408C35.2089,-229.28 15.7515,-217.458 6.37002,-200 -0.362166,-187.472 -3.38132,-178.353 6.37002,-168 50.5355,-121.11 505.535,-140.363 606.178,-131.553"/>
<polygon fill="midnightblue" stroke="midnightblue" points="606.656,-135.021 616.191,-130.404 605.857,-128.067 606.656,-135.021"/>
</g>
<!-- Node12 -->
<g id="node12" class="node"><title>Node12</title>
<polygon fill="white" stroke="#bfbfbf" points="15.37,-174.5 15.37,-193.5 67.37,-193.5 67.37,-174.5 15.37,-174.5"/>
<text text-anchor="middle" x="41.37" y="-181.5" font-family="Helvetica,sans-Serif" font-size="10.00">assert.h</text>
</g>
<!-- Node3&#45;&gt;Node12 -->
<g id="edge11" class="edge"><title>Node3&#45;&gt;Node12</title>
<path fill="none" stroke="midnightblue" d="M69.6419,-236.403C64.7899,-227.582 57.1042,-213.608 50.9701,-202.455"/>
<polygon fill="midnightblue" stroke="midnightblue" points="53.9753,-200.656 46.0893,-193.581 47.8418,-204.029 53.9753,-200.656"/>
</g>
<!-- Node13 -->
<g id="node13" class="node"><title>Node13</title>
<polygon fill="white" stroke="#bfbfbf" points="85.87,-174.5 85.87,-193.5 128.87,-193.5 128.87,-174.5 85.87,-174.5"/>
<text text-anchor="middle" x="107.37" y="-181.5" font-family="Helvetica,sans-Serif" font-size="10.00">deque</text>
</g>
<!-- Node3&#45;&gt;Node13 -->
<g id="edge12" class="edge"><title>Node3&#45;&gt;Node13</title>
<path fill="none" stroke="midnightblue" d="M79.0981,-236.403C83.9501,-227.582 91.6359,-213.608 97.7699,-202.455"/>
<polygon fill="midnightblue" stroke="midnightblue" points="100.898,-204.029 102.651,-193.581 94.7647,-200.656 100.898,-204.029"/>
</g>
<!-- Node14 -->
<g id="node14" class="node"><title>Node14</title>
<g id="a_node14"><a xlink:href="Index_8hpp.html" target="_top" xlink:title="Core/Index/Index.hpp">
<polygon fill="white" stroke="black" points="493.37,-174.5 493.37,-193.5 603.37,-193.5 603.37,-174.5 493.37,-174.5"/>
<text text-anchor="middle" x="548.37" y="-181.5" font-family="Helvetica,sans-Serif" font-size="10.00">Core/Index/Index.hpp</text>
</a>
</g>
</g>
<!-- Node3&#45;&gt;Node14 -->
<g id="edge13" class="edge"><title>Node3&#45;&gt;Node14</title>
<path fill="none" stroke="midnightblue" d="M139.284,-236.783C229.615,-225.349 392.311,-204.754 482.925,-193.284"/>
<polygon fill="midnightblue" stroke="midnightblue" points="483.591,-196.728 493.072,-192 482.712,-189.783 483.591,-196.728"/>
</g>
<!-- Node17 -->
<g id="node17" class="node"><title>Node17</title>
<g id="a_node17"><a xlink:href="IndexMap_8inl.html" target="_top" xlink:title="Core/Index/IndexMap.inl">
<polygon fill="white" stroke="black" points="146.87,-174.5 146.87,-193.5 269.87,-193.5 269.87,-174.5 146.87,-174.5"/>
<text text-anchor="middle" x="208.37" y="-181.5" font-family="Helvetica,sans-Serif" font-size="10.00">Core/Index/IndexMap.inl</text>
</a>
</g>
</g>
<!-- Node3&#45;&gt;Node17 -->
<g id="edge16" class="edge"><title>Node3&#45;&gt;Node17</title>
<path fill="none" stroke="midnightblue" d="M88.6684,-236.403C109.248,-226.2 147.195,-209.105 174.959,-197.454"/>
<polygon fill="midnightblue" stroke="midnightblue" points="176.411,-200.642 184.31,-193.581 173.731,-194.175 176.411,-200.642"/>
</g>
<!-- Node5 -->
<g id="node5" class="node"><title>Node5</title>
<g id="a_node5"><a xlink:href="CoreMacros_8hpp.html" target="_top" xlink:title="Core/CoreMacros.hpp">
<polygon fill="white" stroke="black" points="679.87,-56.5 679.87,-75.5 792.87,-75.5 792.87,-56.5 679.87,-56.5"/>
<text text-anchor="middle" x="736.37" y="-63.5" font-family="Helvetica,sans-Serif" font-size="10.00">Core/CoreMacros.hpp</text>
</a>
</g>
</g>
<!-- Node4&#45;&gt;Node5 -->
<g id="edge4" class="edge"><title>Node4&#45;&gt;Node5</title>
<path fill="none" stroke="midnightblue" d="M736.37,-112.083C736.37,-105.006 736.37,-94.8611 736.37,-85.9865"/>
<polygon fill="midnightblue" stroke="midnightblue" points="739.87,-85.751 736.37,-75.7511 732.87,-85.7511 739.87,-85.751"/>
</g>
<!-- Node6 -->
<g id="node6" class="node"><title>Node6</title>
<polygon fill="white" stroke="#bfbfbf" points="580.87,-0.5 580.87,-19.5 629.87,-19.5 629.87,-0.5 580.87,-0.5"/>
<text text-anchor="middle" x="605.37" y="-7.5" font-family="Helvetica,sans-Serif" font-size="10.00">cassert</text>
</g>
<!-- Node5&#45;&gt;Node6 -->
<g id="edge5" class="edge"><title>Node5&#45;&gt;Node6</title>
<path fill="none" stroke="midnightblue" d="M715.613,-56.4435C694.054,-47.5566 660.107,-33.5632 635.576,-23.4514"/>
<polygon fill="midnightblue" stroke="midnightblue" points="636.609,-20.0917 626.03,-19.5164 633.942,-26.5634 636.609,-20.0917"/>
</g>
<!-- Node7 -->
<g id="node7" class="node"><title>Node7</title>
<polygon fill="white" stroke="#bfbfbf" points="647.87,-0.5 647.87,-19.5 690.87,-19.5 690.87,-0.5 647.87,-0.5"/>
<text text-anchor="middle" x="669.37" y="-7.5" font-family="Helvetica,sans-Serif" font-size="10.00">cstdio</text>
</g>
<!-- Node5&#45;&gt;Node7 -->
<g id="edge6" class="edge"><title>Node5&#45;&gt;Node7</title>
<path fill="none" stroke="midnightblue" d="M725.605,-56.324C715.604,-48.2631 700.483,-36.0765 688.44,-26.3695"/>
<polygon fill="midnightblue" stroke="midnightblue" points="690.313,-23.3841 680.331,-19.8339 685.92,-28.8343 690.313,-23.3841"/>
</g>
<!-- Node8 -->
<g id="node8" class="node"><title>Node8</title>
<polygon fill="white" stroke="#bfbfbf" points="709.37,-0.5 709.37,-19.5 763.37,-19.5 763.37,-0.5 709.37,-0.5"/>
<text text-anchor="middle" x="736.37" y="-7.5" font-family="Helvetica,sans-Serif" font-size="10.00">iostream</text>
</g>
<!-- Node5&#45;&gt;Node8 -->
<g id="edge7" class="edge"><title>Node5&#45;&gt;Node8</title>
<path fill="none" stroke="midnightblue" d="M736.37,-56.083C736.37,-49.0059 736.37,-38.8611 736.37,-29.9865"/>
<polygon fill="midnightblue" stroke="midnightblue" points="739.87,-29.751 736.37,-19.7511 732.87,-29.7511 739.87,-29.751"/>
</g>
<!-- Node9 -->
<g id="node9" class="node"><title>Node9</title>
<polygon fill="white" stroke="#bfbfbf" points="781.37,-0.5 781.37,-19.5 833.37,-19.5 833.37,-0.5 781.37,-0.5"/>
<text text-anchor="middle" x="807.37" y="-7.5" font-family="Helvetica,sans-Serif" font-size="10.00">sstream</text>
</g>
<!-- Node5&#45;&gt;Node9 -->
<g id="edge8" class="edge"><title>Node5&#45;&gt;Node9</title>
<path fill="none" stroke="midnightblue" d="M747.777,-56.324C758.479,-48.1849 774.711,-35.8395 787.533,-26.0874"/>
<polygon fill="midnightblue" stroke="midnightblue" points="789.914,-28.6734 795.755,-19.8339 785.677,-23.1018 789.914,-28.6734"/>
</g>
<!-- Node10 -->
<g id="node10" class="node"><title>Node10</title>
<polygon fill="white" stroke="#bfbfbf" points="851.37,-0.5 851.37,-19.5 895.37,-19.5 895.37,-0.5 851.37,-0.5"/>
<text text-anchor="middle" x="873.37" y="-7.5" font-family="Helvetica,sans-Serif" font-size="10.00">thread</text>
</g>
<!-- Node5&#45;&gt;Node10 -->
<g id="edge9" class="edge"><title>Node5&#45;&gt;Node10</title>
<path fill="none" stroke="midnightblue" d="M758.078,-56.4435C780.725,-47.5171 816.442,-33.4387 842.122,-23.3168"/>
<polygon fill="midnightblue" stroke="midnightblue" points="843.744,-26.4397 851.764,-19.5164 841.177,-19.9273 843.744,-26.4397"/>
</g>
<!-- Node15 -->
<g id="node15" class="node"><title>Node15</title>
<polygon fill="white" stroke="#bfbfbf" points="436.37,-112.5 436.37,-131.5 476.37,-131.5 476.37,-112.5 436.37,-112.5"/>
<text text-anchor="middle" x="456.37" y="-119.5" font-family="Helvetica,sans-Serif" font-size="10.00">limits</text>
</g>
<!-- Node14&#45;&gt;Node15 -->
<g id="edge14" class="edge"><title>Node14&#45;&gt;Node15</title>
<path fill="none" stroke="midnightblue" d="M535.189,-174.403C520.296,-164.691 495.826,-148.732 478.097,-137.17"/>
<polygon fill="midnightblue" stroke="midnightblue" points="479.815,-134.112 469.527,-131.581 475.991,-139.975 479.815,-134.112"/>
</g>
<!-- Node16 -->
<g id="node16" class="node"><title>Node16</title>
<g id="a_node16"><a xlink:href="Index_8inl.html" target="_top" xlink:title="Core/Index/Index.inl">
<polygon fill="white" stroke="black" points="494.37,-112.5 494.37,-131.5 598.37,-131.5 598.37,-112.5 494.37,-112.5"/>
<text text-anchor="middle" x="546.37" y="-119.5" font-family="Helvetica,sans-Serif" font-size="10.00">Core/Index/Index.inl</text>
</a>
</g>
</g>
<!-- Node14&#45;&gt;Node16 -->
<g id="edge15" class="edge"><title>Node14&#45;&gt;Node16</title>
<path fill="none" stroke="midnightblue" d="M548.083,-174.403C547.801,-165.938 547.361,-152.728 546.997,-141.82"/>
<polygon fill="midnightblue" stroke="midnightblue" points="550.487,-141.458 546.656,-131.581 543.491,-141.692 550.487,-141.458"/>
</g>
<!-- Node17&#45;&gt;Node3 -->
<g id="edge17" class="edge"><title>Node17&#45;&gt;Node3</title>
<path fill="none" stroke="midnightblue" d="M194.104,-193.581C173.542,-203.776 135.599,-220.871 107.824,-232.527"/>
<polygon fill="midnightblue" stroke="midnightblue" points="106.368,-229.342 98.4695,-236.403 109.048,-235.809 106.368,-229.342"/>
</g>
<!-- Node18&#45;&gt;Node4 -->
<g id="edge20" class="edge"><title>Node18&#45;&gt;Node4</title>
<path fill="none" stroke="midnightblue" d="M633.307,-236.405C633.629,-221.068 636.321,-188.66 652.37,-168 663.993,-153.037 682.028,-142.456 698.411,-135.331"/>
<polygon fill="midnightblue" stroke="midnightblue" points="699.85,-138.524 707.806,-131.528 697.223,-132.036 699.85,-138.524"/>
</g>
<!-- Node18&#45;&gt;Node14 -->
<g id="edge19" class="edge"><title>Node18&#45;&gt;Node14</title>
<path fill="none" stroke="midnightblue" d="M621.192,-236.403C607.558,-226.78 585.238,-211.024 568.896,-199.489"/>
<polygon fill="midnightblue" stroke="midnightblue" points="570.714,-196.488 560.526,-193.581 566.677,-202.207 570.714,-196.488"/>
</g>
<!-- Node20 -->
<g id="node20" class="node"><title>Node20</title>
<polygon fill="white" stroke="#bfbfbf" points="661.37,-174.5 661.37,-193.5 713.37,-193.5 713.37,-174.5 661.37,-174.5"/>
<text text-anchor="middle" x="687.37" y="-181.5" font-family="Helvetica,sans-Serif" font-size="10.00">memory</text>
</g>
<!-- Node19&#45;&gt;Node20 -->
<g id="edge22" class="edge"><title>Node19&#45;&gt;Node20</title>
<path fill="none" stroke="midnightblue" d="M461.772,-236.467C512.216,-224.959 601.454,-204.601 651.237,-193.243"/>
<polygon fill="midnightblue" stroke="midnightblue" points="652.262,-196.599 661.233,-190.963 650.705,-189.775 652.262,-196.599"/>
</g>
<!-- Node19&#45;&gt;Node21 -->
<g id="edge23" class="edge"><title>Node19&#45;&gt;Node21</title>
<path fill="none" stroke="midnightblue" d="M418.066,-236.403C411.466,-227.403 400.933,-213.041 392.677,-201.782"/>
<polygon fill="midnightblue" stroke="midnightblue" points="395.399,-199.575 386.662,-193.581 389.754,-203.714 395.399,-199.575"/>
</g>
<!-- Node22&#45;&gt;Node2 -->
<g id="edge26" class="edge"><title>Node22&#45;&gt;Node2</title>
<path fill="none" stroke="midnightblue" d="M266.501,-255.751C268.027,-262.858 268.474,-273.136 267.842,-282.101"/>
<polygon fill="midnightblue" stroke="midnightblue" points="264.363,-281.713 266.536,-292.083 271.304,-282.622 264.363,-281.713"/>
</g>
<!-- Node24&#45;&gt;Node20 -->
<g id="edge29" class="edge"><title>Node24&#45;&gt;Node20</title>
<path fill="none" stroke="midnightblue" d="M1046.81,-572.269C1035.82,-554.15 1012.37,-510.828 1012.37,-471 1012.37,-471 1012.37,-471 1012.37,-301 1012.37,-270.205 1012.31,-255.365 988.37,-236 944.728,-200.704 793.212,-211.949 738.37,-200 733.369,-198.91 728.142,-197.589 723.021,-196.187"/>
<polygon fill="midnightblue" stroke="midnightblue" points="723.969,-192.818 713.392,-193.433 722.044,-199.548 723.969,-192.818"/>
</g>
<!-- Node25&#45;&gt;Node14 -->
<g id="edge31" class="edge"><title>Node25&#45;&gt;Node14</title>
<path fill="none" stroke="midnightblue" d="M665.825,-516.496C741.352,-492.775 934.426,-419.145 911.37,-292 906.627,-265.845 911.038,-252.715 890.37,-236 889.026,-234.913 712.496,-208.978 613.622,-194.522"/>
<polygon fill="midnightblue" stroke="midnightblue" points="613.828,-191.015 603.427,-193.031 612.816,-197.941 613.828,-191.015"/>
</g>
<!-- Node25&#45;&gt;Node18 -->
<g id="edge32" class="edge"><title>Node25&#45;&gt;Node18</title>
<path fill="none" stroke="midnightblue" d="M651.57,-516.322C694.142,-490.899 808.626,-414.208 764.37,-348 741.115,-313.21 709.802,-338.444 677.37,-312 661.733,-299.25 649.465,-279.505 641.9,-265.122"/>
<polygon fill="midnightblue" stroke="midnightblue" points="644.834,-263.162 637.242,-255.773 638.569,-266.284 644.834,-263.162"/>
</g>
<!-- Node25&#45;&gt;Node19 -->
<g id="edge33" class="edge"><title>Node25&#45;&gt;Node19</title>
<path fill="none" stroke="midnightblue" d="M567.247,-517.835C505.381,-507.145 424.37,-480.618 424.37,-415 424.37,-415 424.37,-415 424.37,-357 424.37,-324.948 424.37,-287.643 424.37,-265.749"/>
<polygon fill="midnightblue" stroke="midnightblue" points="427.87,-265.558 424.37,-255.558 420.87,-265.558 427.87,-265.558"/>
</g>
<!-- Node26 -->
<g id="node26" class="node"><title>Node26</title>
<g id="a_node26"><a xlink:href="Face_8inl.html" target="_top" xlink:title="Core/Mesh/DCEL/Face.inl">
<polygon fill="white" stroke="black" points="522.37,-460.5 522.37,-479.5 654.37,-479.5 654.37,-460.5 522.37,-460.5"/>
<text text-anchor="middle" x="588.37" y="-467.5" font-family="Helvetica,sans-Serif" font-size="10.00">Core/Mesh/DCEL/Face.inl</text>
</a>
</g>
</g>
<!-- Node25&#45;&gt;Node26 -->
<g id="edge34" class="edge"><title>Node25&#45;&gt;Node26</title>
<path fill="none" stroke="midnightblue" d="M623.543,-516.324C615.152,-508.733 604.747,-497.482 597.232,-488.09"/>
<polygon fill="midnightblue" stroke="midnightblue" points="599.859,-485.757 591.074,-479.834 594.248,-489.942 599.859,-485.757"/>
</g>
<!-- Node26&#45;&gt;Node25 -->
<g id="edge35" class="edge"><title>Node26&#45;&gt;Node25</title>
<path fill="none" stroke="midnightblue" d="M601.28,-479.751C609.64,-487.327 619.977,-498.505 627.464,-507.855"/>
<polygon fill="midnightblue" stroke="midnightblue" points="624.821,-510.166 633.61,-516.083 630.429,-505.977 624.821,-510.166"/>
</g>
<!-- Node26&#45;&gt;Node27 -->
<g id="edge36" class="edge"><title>Node26&#45;&gt;Node27</title>
<path fill="none" stroke="midnightblue" d="M586.223,-460.083C584.501,-452.927 582.023,-442.635 579.87,-433.691"/>
<polygon fill="midnightblue" stroke="midnightblue" points="583.22,-432.654 577.477,-423.751 576.415,-434.293 583.22,-432.654"/>
</g>
<!-- Node27&#45;&gt;Node14 -->
<g id="edge37" class="edge"><title>Node27&#45;&gt;Node14</title>
<path fill="none" stroke="midnightblue" d="M570.669,-404.334C566.121,-395.484 559.476,-381.208 556.37,-368 542.564,-309.293 544.823,-237.141 546.921,-203.68"/>
<polygon fill="midnightblue" stroke="midnightblue" points="550.424,-203.763 547.63,-193.544 543.441,-203.275 550.424,-203.763"/>
</g>
<!-- Node27&#45;&gt;Node18 -->
<g id="edge38" class="edge"><title>Node27&#45;&gt;Node18</title>
<path fill="none" stroke="midnightblue" d="M570.961,-404.437C565.088,-391.862 556.123,-367.75 562.37,-348 573.125,-313.999 599.89,-281.532 617.312,-262.967"/>
<polygon fill="midnightblue" stroke="midnightblue" points="619.922,-265.303 624.351,-255.678 614.886,-260.441 619.922,-265.303"/>
</g>
<!-- Node27&#45;&gt;Node19 -->
<g id="edge39" class="edge"><title>Node27&#45;&gt;Node19</title>
<path fill="none" stroke="midnightblue" d="M548.512,-404.491C529.279,-397.287 503.802,-385.338 486.37,-368 456.497,-338.288 438.14,-291.182 429.763,-265.385"/>
<polygon fill="midnightblue" stroke="midnightblue" points="433.08,-264.264 426.779,-255.746 426.393,-266.334 433.08,-264.264"/>
</g>
<!-- Node28 -->
<g id="node28" class="node"><title>Node28</title>
<g id="a_node28"><a xlink:href="DCEL_2HalfEdge_8inl.html" target="_top" xlink:title="Core/Mesh/DCEL/HalfEdge.inl">
<polygon fill="white" stroke="black" points="604.87,-348.5 604.87,-367.5 755.87,-367.5 755.87,-348.5 604.87,-348.5"/>
<text text-anchor="middle" x="680.37" y="-355.5" font-family="Helvetica,sans-Serif" font-size="10.00">Core/Mesh/DCEL/HalfEdge.inl</text>
</a>
</g>
</g>
<!-- Node27&#45;&gt;Node28 -->
<g id="edge40" class="edge"><title>Node27&#45;&gt;Node28</title>
<path fill="none" stroke="midnightblue" d="M587.125,-404.324C602.225,-395.585 628.395,-381.998 649.271,-371.977"/>
<polygon fill="midnightblue" stroke="midnightblue" points="650.882,-375.087 658.432,-367.655 647.894,-368.757 650.882,-375.087"/>
</g>
<!-- Node28&#45;&gt;Node25 -->
<g id="edge42" class="edge"><title>Node28&#45;&gt;Node25</title>
<path fill="none" stroke="midnightblue" d="M680.322,-367.789C679.96,-388.135 677.589,-439.802 663.37,-480 659.92,-489.754 654.217,-499.71 648.94,-507.768"/>
<polygon fill="midnightblue" stroke="midnightblue" points="645.899,-506.013 643.1,-516.232 651.66,-509.989 645.899,-506.013"/>
</g>
<!-- Node28&#45;&gt;Node27 -->
<g id="edge41" class="edge"><title>Node28&#45;&gt;Node27</title>
<path fill="none" stroke="midnightblue" d="M668.89,-367.516C653.798,-376.27 627.345,-390.007 606.316,-400.096"/>
<polygon fill="midnightblue" stroke="midnightblue" points="604.648,-397.013 597.096,-404.444 607.634,-403.344 604.648,-397.013"/>
</g>
<!-- Node28&#45;&gt;Node29 -->
<g id="edge43" class="edge"><title>Node28&#45;&gt;Node29</title>
<path fill="none" stroke="midnightblue" d="M704.138,-348.444C729.263,-339.399 769.081,-325.064 797.27,-314.916"/>
<polygon fill="midnightblue" stroke="midnightblue" points="798.49,-318.197 806.713,-311.516 796.119,-311.611 798.49,-318.197"/>
</g>
<!-- Node29&#45;&gt;Node14 -->
<g id="edge44" class="edge"><title>Node29&#45;&gt;Node14</title>
<path fill="none" stroke="midnightblue" d="M843.379,-292.324C861.202,-279.398 889.288,-254.611 873.37,-236 871.257,-233.53 707.679,-208.765 613.432,-194.675"/>
<polygon fill="midnightblue" stroke="midnightblue" points="613.824,-191.195 603.417,-193.179 612.79,-198.118 613.824,-191.195"/>
</g>
<!-- Node29&#45;&gt;Node18 -->
<g id="edge45" class="edge"><title>Node29&#45;&gt;Node18</title>
<path fill="none" stroke="midnightblue" d="M799.155,-292.444C765.437,-283.201 711.57,-268.436 674.438,-258.257"/>
<polygon fill="midnightblue" stroke="midnightblue" points="675.009,-254.785 664.439,-255.516 673.158,-261.536 675.009,-254.785"/>
</g>
<!-- Node29&#45;&gt;Node19 -->
<g id="edge60" class="edge"><title>Node29&#45;&gt;Node19</title>
<path fill="none" stroke="midnightblue" d="M766.038,-292.444C693.282,-282.767 575.005,-267.035 498.452,-256.853"/>
<polygon fill="midnightblue" stroke="midnightblue" points="498.775,-253.366 488.401,-255.516 497.852,-260.304 498.775,-253.366"/>
</g>
<!-- Node30 -->
<g id="node30" class="node"><title>Node30</title>
<g id="a_node30"><a xlink:href="LinearAlgebra_8hpp.html" target="_top" xlink:title="Core/Math/LinearAlgebra.hpp">
<polygon fill="white" stroke="black" points="1040.87,-236.5 1040.87,-255.5 1183.87,-255.5 1183.87,-236.5 1040.87,-236.5"/>
<text text-anchor="middle" x="1112.37" y="-243.5" font-family="Helvetica,sans-Serif" font-size="10.00">Core/Math/LinearAlgebra.hpp</text>
</a>
</g>
</g>
<!-- Node29&#45;&gt;Node30 -->
<g id="edge46" class="edge"><title>Node29&#45;&gt;Node30</title>
<path fill="none" stroke="midnightblue" d="M875.054,-292.444C924.66,-282.944 1004.73,-267.611 1057.96,-257.42"/>
<polygon fill="midnightblue" stroke="midnightblue" points="1058.73,-260.835 1067.9,-255.516 1057.42,-253.96 1058.73,-260.835"/>
</g>
<!-- Node40 -->
<g id="node40" class="node"><title>Node40</title>
<g id="a_node40"><a xlink:href="Vertex_8inl.html" target="_top" xlink:title="Core/Mesh/DCEL/Vertex.inl">
<polygon fill="white" stroke="black" points="725.87,-236.5 725.87,-255.5 864.87,-255.5 864.87,-236.5 725.87,-236.5"/>
<text text-anchor="middle" x="795.37" y="-243.5" font-family="Helvetica,sans-Serif" font-size="10.00">Core/Mesh/DCEL/Vertex.inl</text>
</a>
</g>
</g>
<!-- Node29&#45;&gt;Node40 -->
<g id="edge61" class="edge"><title>Node29&#45;&gt;Node40</title>
<path fill="none" stroke="midnightblue" d="M819.424,-292.083C813.074,-284.691 805.706,-273.953 800.524,-264.811"/>
<polygon fill="midnightblue" stroke="midnightblue" points="803.568,-263.074 795.911,-255.751 797.33,-266.25 803.568,-263.074"/>
</g>
<!-- Node30&#45;&gt;Node4 -->
<g id="edge47" class="edge"><title>Node30&#45;&gt;Node4</title>
<path fill="none" stroke="midnightblue" d="M1040.81,-236.829C939.461,-225.119 765.71,-204.479 760.37,-200 743.392,-185.761 738.233,-159.702 736.769,-141.878"/>
<polygon fill="midnightblue" stroke="midnightblue" points="740.26,-141.602 736.258,-131.792 733.269,-141.956 740.26,-141.602"/>
</g>
<!-- Node31 -->
<g id="node31" class="node"><title>Node31</title>
<polygon fill="white" stroke="#bfbfbf" points="893.87,-174.5 893.87,-193.5 958.87,-193.5 958.87,-174.5 893.87,-174.5"/>
<text text-anchor="middle" x="926.37" y="-181.5" font-family="Helvetica,sans-Serif" font-size="10.00">Eigen/Core</text>
</g>
<!-- Node30&#45;&gt;Node31 -->
<g id="edge48" class="edge"><title>Node30&#45;&gt;Node31</title>
<path fill="none" stroke="midnightblue" d="M1083.35,-236.457C1053.98,-227.702 1007.32,-213.499 967.37,-200 964.61,-199.067 961.754,-198.077 958.894,-197.066"/>
<polygon fill="midnightblue" stroke="midnightblue" points="959.879,-193.701 949.284,-193.612 957.511,-200.288 959.879,-193.701"/>
</g>
<!-- Node32 -->
<g id="node32" class="node"><title>Node32</title>
<polygon fill="white" stroke="#bfbfbf" points="976.87,-174.5 976.87,-193.5 1063.87,-193.5 1063.87,-174.5 976.87,-174.5"/>
<text text-anchor="middle" x="1020.37" y="-181.5" font-family="Helvetica,sans-Serif" font-size="10.00">Eigen/Geometry</text>
</g>
<!-- Node30&#45;&gt;Node32 -->
<g id="edge49" class="edge"><title>Node30&#45;&gt;Node32</title>
<path fill="none" stroke="midnightblue" d="M1099.19,-236.403C1084.3,-226.691 1059.83,-210.732 1042.1,-199.17"/>
<polygon fill="midnightblue" stroke="midnightblue" points="1043.81,-196.112 1033.53,-193.581 1039.99,-201.975 1043.81,-196.112"/>
</g>
<!-- Node33 -->
<g id="node33" class="node"><title>Node33</title>
<polygon fill="white" stroke="#bfbfbf" points="1081.87,-174.5 1081.87,-193.5 1156.87,-193.5 1156.87,-174.5 1081.87,-174.5"/>
<text text-anchor="middle" x="1119.37" y="-181.5" font-family="Helvetica,sans-Serif" font-size="10.00">Eigen/Sparse</text>
</g>
<!-- Node30&#45;&gt;Node33 -->
<g id="edge50" class="edge"><title>Node30&#45;&gt;Node33</title>
<path fill="none" stroke="midnightblue" d="M1113.37,-236.403C1114.36,-227.938 1115.9,-214.728 1117.17,-203.82"/>
<polygon fill="midnightblue" stroke="midnightblue" points="1120.69,-203.919 1118.37,-193.581 1113.73,-203.108 1120.69,-203.919"/>
</g>
<!-- Node34 -->
<g id="node34" class="node"><title>Node34</title>
<polygon fill="white" stroke="#bfbfbf" points="1174.87,-174.5 1174.87,-193.5 1233.87,-193.5 1233.87,-174.5 1174.87,-174.5"/>
<text text-anchor="middle" x="1204.37" y="-181.5" font-family="Helvetica,sans-Serif" font-size="10.00">functional</text>
</g>
<!-- Node30&#45;&gt;Node34 -->
<g id="edge51" class="edge"><title>Node30&#45;&gt;Node34</title>
<path fill="none" stroke="midnightblue" d="M1125.55,-236.403C1140.44,-226.691 1164.91,-210.732 1182.64,-199.17"/>
<polygon fill="midnightblue" stroke="midnightblue" points="1184.75,-201.975 1191.21,-193.581 1180.93,-196.112 1184.75,-201.975"/>
</g>
<!-- Node35 -->
<g id="node35" class="node"><title>Node35</title>
<polygon fill="white" stroke="#bfbfbf" points="1251.87,-169 1251.87,-199 1384.87,-199 1384.87,-169 1251.87,-169"/>
<text text-anchor="start" x="1259.87" y="-187" font-family="Helvetica,sans-Serif" font-size="10.00">unsupported/Eigen/Aligned</text>
<text text-anchor="middle" x="1318.37" y="-176" font-family="Helvetica,sans-Serif" font-size="10.00">Vector3</text>
</g>
<!-- Node30&#45;&gt;Node35 -->
<g id="edge52" class="edge"><title>Node30&#45;&gt;Node35</title>
<path fill="none" stroke="midnightblue" d="M1141.88,-236.403C1172.62,-227.45 1221.59,-213.19 1260.15,-201.958"/>
<polygon fill="midnightblue" stroke="midnightblue" points="1261.59,-205.182 1270.22,-199.025 1259.64,-198.461 1261.59,-205.182"/>
</g>
<!-- Node36 -->
<g id="node36" class="node"><title>Node36</title>
<g id="a_node36"><a xlink:href="Math_8hpp.html" target="_top" xlink:title="Core/Math/Math.hpp">
<polygon fill="white" stroke="black" points="769.37,-174.5 769.37,-193.5 875.37,-193.5 875.37,-174.5 769.37,-174.5"/>
<text text-anchor="middle" x="822.37" y="-181.5" font-family="Helvetica,sans-Serif" font-size="10.00">Core/Math/Math.hpp</text>
</a>
</g>
</g>
<!-- Node30&#45;&gt;Node36 -->
<g id="edge53" class="edge"><title>Node30&#45;&gt;Node36</title>
<path fill="none" stroke="midnightblue" d="M1065.96,-236.439C1019.81,-227.784 947.029,-213.757 884.37,-200 878.549,-198.722 872.436,-197.319 866.411,-195.899"/>
<polygon fill="midnightblue" stroke="midnightblue" points="866.959,-192.432 856.42,-193.513 865.334,-199.24 866.959,-192.432"/>
</g>
<!-- Node39 -->
<g id="node39" class="node"><title>Node39</title>
<g id="a_node39"><a xlink:href="LinearAlgebra_8inl.html" target="_top" xlink:title="Core/Math/LinearAlgebra.inl">
<polygon fill="white" stroke="black" points="1402.87,-174.5 1402.87,-193.5 1539.87,-193.5 1539.87,-174.5 1402.87,-174.5"/>
<text text-anchor="middle" x="1471.37" y="-181.5" font-family="Helvetica,sans-Serif" font-size="10.00">Core/Math/LinearAlgebra.inl</text>
</a>
</g>
</g>
<!-- Node30&#45;&gt;Node39 -->
<g id="edge59" class="edge"><title>Node30&#45;&gt;Node39</title>
<path fill="none" stroke="midnightblue" d="M1168.97,-236.467C1225.78,-227.777 1315.76,-213.673 1393.37,-200 1401.38,-198.588 1409.85,-197.03 1418.13,-195.469"/>
<polygon fill="midnightblue" stroke="midnightblue" points="1418.92,-198.88 1428.09,-193.571 1417.62,-192.003 1418.92,-198.88"/>
</g>
<!-- Node36&#45;&gt;Node4 -->
<g id="edge54" class="edge"><title>Node36&#45;&gt;Node4</title>
<path fill="none" stroke="midnightblue" d="M810.048,-174.403C796.254,-164.78 773.671,-149.024 757.138,-137.489"/>
<polygon fill="midnightblue" stroke="midnightblue" points="758.873,-134.432 748.669,-131.581 754.868,-140.173 758.873,-134.432"/>
</g>
<!-- Node36&#45;&gt;Node11 -->
<g id="edge55" class="edge"><title>Node36&#45;&gt;Node11</title>
<path fill="none" stroke="midnightblue" d="M796.867,-174.403C766.069,-164.022 714.105,-146.506 679.522,-134.849"/>
<polygon fill="midnightblue" stroke="midnightblue" points="680.42,-131.458 669.826,-131.581 678.184,-138.092 680.42,-131.458"/>
</g>
<!-- Node37 -->
<g id="node37" class="node"><title>Node37</title>
<polygon fill="white" stroke="#bfbfbf" points="800.37,-112.5 800.37,-131.5 844.37,-131.5 844.37,-112.5 800.37,-112.5"/>
<text text-anchor="middle" x="822.37" y="-119.5" font-family="Helvetica,sans-Serif" font-size="10.00">cmath</text>
</g>
<!-- Node36&#45;&gt;Node37 -->
<g id="edge56" class="edge"><title>Node36&#45;&gt;Node37</title>
<path fill="none" stroke="midnightblue" d="M822.37,-174.403C822.37,-165.938 822.37,-152.728 822.37,-141.82"/>
<polygon fill="midnightblue" stroke="midnightblue" points="825.87,-141.581 822.37,-131.581 818.87,-141.581 825.87,-141.581"/>
</g>
<!-- Node38 -->
<g id="node38" class="node"><title>Node38</title>
<g id="a_node38"><a xlink:href="Math_8inl.html" target="_top" xlink:title="Core/Math/Math.inl">
<polygon fill="white" stroke="black" points="862.37,-112.5 862.37,-131.5 962.37,-131.5 962.37,-112.5 862.37,-112.5"/>
<text text-anchor="middle" x="912.37" y="-119.5" font-family="Helvetica,sans-Serif" font-size="10.00">Core/Math/Math.inl</text>
</a>
</g>
</g>
<!-- Node36&#45;&gt;Node38 -->
<g id="edge57" class="edge"><title>Node36&#45;&gt;Node38</title>
<path fill="none" stroke="midnightblue" d="M830.364,-174.403C842.947,-164.601 866.894,-148.439 885.799,-136.853"/>
<polygon fill="midnightblue" stroke="midnightblue" points="887.821,-139.721 894.602,-131.581 884.225,-133.716 887.821,-139.721"/>
</g>
<!-- Node38&#45;&gt;Node36 -->
<g id="edge58" class="edge"><title>Node38&#45;&gt;Node36</title>
<path fill="none" stroke="midnightblue" d="M904.396,-131.581C891.826,-141.376 867.882,-157.538 848.972,-169.129"/>
<polygon fill="midnightblue" stroke="midnightblue" points="846.946,-166.262 840.165,-174.403 850.543,-172.268 846.946,-166.262"/>
</g>
<!-- Node40&#45;&gt;Node27 -->
<g id="edge63" class="edge"><title>Node40&#45;&gt;Node27</title>
<path fill="none" stroke="midnightblue" d="M760.39,-255.526C715.726,-268.2 639.016,-296.269 595.37,-348 584.316,-361.102 579.367,-380.25 577.154,-394.371"/>
<polygon fill="midnightblue" stroke="midnightblue" points="573.667,-394.051 575.902,-404.408 580.613,-394.918 573.667,-394.051"/>
</g>
<!-- Node40&#45;&gt;Node29 -->
<g id="edge62" class="edge"><title>Node40&#45;&gt;Node29</title>
<path fill="none" stroke="midnightblue" d="M806.173,-255.751C812.508,-263.092 819.884,-273.817 825.099,-282.983"/>
<polygon fill="midnightblue" stroke="midnightblue" points="822.085,-284.776 829.757,-292.083 828.316,-281.587 822.085,-284.776"/>
</g>
<!-- Node41&#45;&gt;Node14 -->
<g id="edge65" class="edge"><title>Node41&#45;&gt;Node14</title>
<path fill="none" stroke="midnightblue" d="M795.356,-628.371C853.771,-610.001 974.37,-561.158 974.37,-471 974.37,-471 974.37,-471 974.37,-301 974.37,-261.077 947.905,-254.198 912.37,-236 808.536,-182.824 767.88,-216.327 652.37,-200 639.828,-198.227 626.438,-196.313 613.583,-194.463"/>
<polygon fill="midnightblue" stroke="midnightblue" points="613.812,-190.96 603.415,-192.998 612.814,-197.889 613.812,-190.96"/>
</g>
<!-- Node41&#45;&gt;Node18 -->
<g id="edge66" class="edge"><title>Node41&#45;&gt;Node18</title>
<path fill="none" stroke="midnightblue" d="M796.555,-628.488C814.909,-621.801 836.386,-610.45 847.37,-592 866.054,-560.617 957.113,-587.173 783.37,-348 766.317,-324.526 695.693,-282.297 657.746,-260.633"/>
<polygon fill="midnightblue" stroke="midnightblue" points="659.281,-257.48 648.855,-255.592 655.828,-263.569 659.281,-257.48"/>
</g>
<!-- Node41&#45;&gt;Node19 -->
<g id="edge67" class="edge"><title>Node41&#45;&gt;Node19</title>
<path fill="none" stroke="midnightblue" d="M697.661,-628.473C589.145,-610.456 386.37,-557.698 386.37,-415 386.37,-415 386.37,-415 386.37,-357 386.37,-322.813 402.97,-285.764 414.227,-264.571"/>
<polygon fill="midnightblue" stroke="midnightblue" points="417.317,-266.215 419.086,-255.769 411.189,-262.832 417.317,-266.215"/>
</g>
<!-- Node42 -->
<g id="node42" class="node"><title>Node42</title>
<g id="a_node42"><a xlink:href="FullEdge_8inl.html" target="_top" xlink:title="Core/Mesh/DCEL/FullEdge.inl">
<polygon fill="white" stroke="black" points="689.87,-572.5 689.87,-591.5 838.87,-591.5 838.87,-572.5 689.87,-572.5"/>
<text text-anchor="middle" x="764.37" y="-579.5" font-family="Helvetica,sans-Serif" font-size="10.00">Core/Mesh/DCEL/FullEdge.inl</text>
</a>
</g>
</g>
<!-- Node41&#45;&gt;Node42 -->
<g id="edge68" class="edge"><title>Node41&#45;&gt;Node42</title>
<path fill="none" stroke="midnightblue" d="M759.204,-628.083C757.694,-620.927 757.264,-610.635 757.913,-601.691"/>
<polygon fill="midnightblue" stroke="midnightblue" points="761.385,-602.126 759.239,-591.751 754.447,-601.2 761.385,-602.126"/>
</g>
<!-- Node42&#45;&gt;Node25 -->
<g id="edge70" class="edge"><title>Node42&#45;&gt;Node25</title>
<path fill="none" stroke="midnightblue" d="M744.088,-572.444C723.023,-563.557 689.853,-549.563 665.884,-539.451"/>
<polygon fill="midnightblue" stroke="midnightblue" points="667.131,-536.179 656.557,-535.516 664.41,-542.628 667.131,-536.179"/>
</g>
<!-- Node42&#45;&gt;Node27 -->
<g id="edge71" class="edge"><title>Node42&#45;&gt;Node27</title>
<path fill="none" stroke="midnightblue" d="M759.052,-572.246C745.526,-550.603 707.728,-493.889 663.37,-460 645.998,-446.728 624.121,-435.52 606.526,-427.61"/>
<polygon fill="midnightblue" stroke="midnightblue" points="607.812,-424.353 597.247,-423.562 605.013,-430.769 607.812,-424.353"/>
</g>
<!-- Node42&#45;&gt;Node29 -->
<g id="edge72" class="edge"><title>Node42&#45;&gt;Node29</title>
<path fill="none" stroke="midnightblue" d="M766.418,-572.375C775.599,-533.701 813.088,-375.794 825.986,-321.465"/>
<polygon fill="midnightblue" stroke="midnightblue" points="829.442,-322.062 828.346,-311.524 822.631,-320.445 829.442,-322.062"/>
</g>
<!-- Node42&#45;&gt;Node41 -->
<g id="edge69" class="edge"><title>Node42&#45;&gt;Node41</title>
<path fill="none" stroke="midnightblue" d="M769.501,-591.751C771.027,-598.858 771.474,-609.136 770.842,-618.101"/>
<polygon fill="midnightblue" stroke="midnightblue" points="767.363,-617.713 769.536,-628.083 774.304,-618.622 767.363,-617.713"/>
</g>
</g>
</svg>
