<?xml version="1.0" encoding="UTF-8" standalone="no"?>
<!DOCTYPE svg PUBLIC "-//W3C//DTD SVG 1.1//EN"
 "http://www.w3.org/Graphics/SVG/1.1/DTD/svg11.dtd">
<!-- Generated by graphviz version 2.36.0 (20140111.2315)
 -->
<!-- Title: /home/travis/build/STORM&#45;IRIT/Radium&#45;Engine/src/Core/Mesh/DCEL/Dcel.hpp Pages: 1 -->
<svg width="923pt" height="230pt"
 viewBox="0.00 0.00 923.00 230.00" xmlns="http://www.w3.org/2000/svg" xmlns:xlink="http://www.w3.org/1999/xlink">
<g id="graph0" class="graph" transform="scale(1 1) rotate(0) translate(4 226)">
<title>/home/travis/build/STORM&#45;IRIT/Radium&#45;Engine/src/Core/Mesh/DCEL/Dcel.hpp</title>
<polygon fill="white" stroke="none" points="-4,4 -4,-226 919,-226 919,4 -4,4"/>
<!-- Node1 -->
<g id="node1" class="node"><title>Node1</title>
<polygon fill="#bfbfbf" stroke="black" points="382,-180.5 382,-221.5 538,-221.5 538,-180.5 382,-180.5"/>
<text text-anchor="start" x="390" y="-209.5" font-family="Helvetica,sans-Serif" font-size="10.00">/home/travis/build</text>
<text text-anchor="start" x="390" y="-198.5" font-family="Helvetica,sans-Serif" font-size="10.00">/STORM&#45;IRIT/Radium&#45;Engine</text>
<text text-anchor="middle" x="460" y="-187.5" font-family="Helvetica,sans-Serif" font-size="10.00">/src/Core/Mesh/DCEL/Dcel.hpp</text>
</g>
<!-- Node2 -->
<g id="node2" class="node"><title>Node2</title>
<g id="a_node2"><a xlink:href="FullEdgeOperation_8cpp.html" target="_top" xlink:title="/home/travis/build\l/STORM&#45;IRIT/Radium&#45;Engine\l/src/Core/Algorithm/Subdivision\l/FullEdgeOperation.cpp">
<polygon fill="white" stroke="black" points="-0.5,-91 -0.5,-143 154.5,-143 154.5,-91 -0.5,-91"/>
<text text-anchor="start" x="7.5" y="-131" font-family="Helvetica,sans-Serif" font-size="10.00">/home/travis/build</text>
<text text-anchor="start" x="7.5" y="-120" font-family="Helvetica,sans-Serif" font-size="10.00">/STORM&#45;IRIT/Radium&#45;Engine</text>
<text text-anchor="start" x="7.5" y="-109" font-family="Helvetica,sans-Serif" font-size="10.00">/src/Core/Algorithm/Subdivision</text>
<text text-anchor="middle" x="77" y="-98" font-family="Helvetica,sans-Serif" font-size="10.00">/FullEdgeOperation.cpp</text>
</a>
</g>
</g>
<!-- Node1&#45;&gt;Node2 -->
<g id="edge1" class="edge"><title>Node1&#45;&gt;Node2</title>
<path fill="none" stroke="midnightblue" d="M371.949,-185.073C314.016,-174.757 236.671,-160.043 169,-144 164.316,-142.89 159.513,-141.697 154.678,-140.456"/>
<polygon fill="midnightblue" stroke="midnightblue" points="371.345,-188.521 381.803,-186.819 372.566,-181.628 371.345,-188.521"/>
</g>
<!-- Node3 -->
<g id="node3" class="node"><title>Node3</title>
<g id="a_node3"><a xlink:href="RotationCenterSkinning_8cpp.html" target="_top" xlink:title="/home/travis/build\l/STORM&#45;IRIT/Radium&#45;Engine\l/src/Core/Animation/Skinning\l/RotationCenterSkinning.cpp">
<polygon fill="white" stroke="black" points="248,-1 248,-53 396,-53 396,-1 248,-1"/>
<text text-anchor="start" x="256" y="-41" font-family="Helvetica,sans-Serif" font-size="10.00">/home/travis/build</text>
<text text-anchor="start" x="256" y="-30" font-family="Helvetica,sans-Serif" font-size="10.00">/STORM&#45;IRIT/Radium&#45;Engine</text>
<text text-anchor="start" x="256" y="-19" font-family="Helvetica,sans-Serif" font-size="10.00">/src/Core/Animation/Skinning</text>
<text text-anchor="middle" x="322" y="-8" font-family="Helvetica,sans-Serif" font-size="10.00">/RotationCenterSkinning.cpp</text>
</a>
</g>
</g>
<!-- Node1&#45;&gt;Node3 -->
<g id="edge2" class="edge"><title>Node1&#45;&gt;Node3</title>
<path fill="none" stroke="midnightblue" d="M371.911,-192.556C305.823,-184.931 223.241,-170.346 202,-144 186.936,-125.316 189.518,-110.499 202,-90 212.549,-72.6752 229.67,-59.9796 247.717,-50.7629"/>
<polygon fill="midnightblue" stroke="midnightblue" points="371.622,-196.046 381.948,-193.676 372.398,-189.089 371.622,-196.046"/>
</g>
<!-- Node4 -->
<g id="node4" class="node"><title>Node4</title>
<g id="a_node4"><a xlink:href="Dcel_8cpp.html" target="_top" xlink:title="/home/travis/build\l/STORM&#45;IRIT/Radium&#45;Engine\l/src/Core/Mesh/DCEL/Dcel.cpp">
<polygon fill="white" stroke="black" points="211,-96.5 211,-137.5 367,-137.5 367,-96.5 211,-96.5"/>
<text text-anchor="start" x="219" y="-125.5" font-family="Helvetica,sans-Serif" font-size="10.00">/home/travis/build</text>
<text text-anchor="start" x="219" y="-114.5" font-family="Helvetica,sans-Serif" font-size="10.00">/STORM&#45;IRIT/Radium&#45;Engine</text>
<text text-anchor="middle" x="289" y="-103.5" font-family="Helvetica,sans-Serif" font-size="10.00">/src/Core/Mesh/DCEL/Dcel.cpp</text>
</a>
</g>
</g>
<!-- Node1&#45;&gt;Node4 -->
<g id="edge3" class="edge"><title>Node1&#45;&gt;Node4</title>
<path fill="none" stroke="midnightblue" d="M409.917,-175.984C384.47,-163.781 353.937,-149.14 329.921,-137.623"/>
<polygon fill="midnightblue" stroke="midnightblue" points="408.511,-179.191 419.041,-180.359 411.538,-172.879 408.511,-179.191"/>
</g>
<!-- Node5 -->
<g id="node5" class="node"><title>Node5</title>
<g id="a_node5"><a xlink:href="Dcel_8inl.html" target="_top" xlink:title="/home/travis/build\l/STORM&#45;IRIT/Radium&#45;Engine\l/src/Core/Mesh/DCEL/Dcel.inl">
<polygon fill="white" stroke="black" points="385,-96.5 385,-137.5 535,-137.5 535,-96.5 385,-96.5"/>
<text text-anchor="start" x="393" y="-125.5" font-family="Helvetica,sans-Serif" font-size="10.00">/home/travis/build</text>
<text text-anchor="start" x="393" y="-114.5" font-family="Helvetica,sans-Serif" font-size="10.00">/STORM&#45;IRIT/Radium&#45;Engine</text>
<text text-anchor="middle" x="460" y="-103.5" font-family="Helvetica,sans-Serif" font-size="10.00">/src/Core/Mesh/DCEL/Dcel.inl</text>
</a>
</g>
</g>
<!-- Node1&#45;&gt;Node5 -->
<g id="edge4" class="edge"><title>Node1&#45;&gt;Node5</title>
<path fill="none" stroke="midnightblue" d="M453.466,-169.881C453.03,-159.133 453.254,-147.309 454.138,-137.667"/>
<polygon fill="midnightblue" stroke="midnightblue" points="449.991,-170.394 454.122,-180.15 456.977,-169.947 449.991,-170.394"/>
</g>
<!-- Node6 -->
<g id="node6" class="node"><title>Node6</title>
<g id="a_node6"><a xlink:href="DCEL_2Operations_2EdgeSplit_8hpp.html" target="_top" xlink:title="/home/travis/build\l/STORM&#45;IRIT/Radium&#45;Engine\l/src/Core/Mesh/DCEL/Operations\l/EdgeSplit.hpp">
<polygon fill="white" stroke="black" points="553,-91 553,-143 717,-143 717,-91 553,-91"/>
<text text-anchor="start" x="561" y="-131" font-family="Helvetica,sans-Serif" font-size="10.00">/home/travis/build</text>
<text text-anchor="start" x="561" y="-120" font-family="Helvetica,sans-Serif" font-size="10.00">/STORM&#45;IRIT/Radium&#45;Engine</text>
<text text-anchor="start" x="561" y="-109" font-family="Helvetica,sans-Serif" font-size="10.00">/src/Core/Mesh/DCEL/Operations</text>
<text text-anchor="middle" x="635" y="-98" font-family="Helvetica,sans-Serif" font-size="10.00">/EdgeSplit.hpp</text>
</a>
</g>
</g>
<!-- Node1&#45;&gt;Node6 -->
<g id="edge6" class="edge"><title>Node1&#45;&gt;Node6</title>
<path fill="none" stroke="midnightblue" d="M511.139,-176.038C533.244,-165.68 559.115,-153.557 581.48,-143.078"/>
<polygon fill="midnightblue" stroke="midnightblue" points="509.487,-172.947 501.917,-180.359 512.457,-179.285 509.487,-172.947"/>
</g>
<!-- Node8 -->
<g id="node8" class="node"><title>Node8</title>
<g id="a_node8"><a xlink:href="Convert_8cpp.html" target="_top" xlink:title="/home/travis/build\l/STORM&#45;IRIT/Radium&#45;Engine\l/src/Core/Mesh/Wrapper/Convert.cpp">
<polygon fill="white" stroke="black" points="735,-96.5 735,-137.5 915,-137.5 915,-96.5 735,-96.5"/>
<text text-anchor="start" x="743" y="-125.5" font-family="Helvetica,sans-Serif" font-size="10.00">/home/travis/build</text>
<text text-anchor="start" x="743" y="-114.5" font-family="Helvetica,sans-Serif" font-size="10.00">/STORM&#45;IRIT/Radium&#45;Engine</text>
<text text-anchor="middle" x="825" y="-103.5" font-family="Helvetica,sans-Serif" font-size="10.00">/src/Core/Mesh/Wrapper/Convert.cpp</text>
</a>
</g>
</g>
<!-- Node1&#45;&gt;Node8 -->
<g id="edge9" class="edge"><title>Node1&#45;&gt;Node8</title>
<path fill="none" stroke="midnightblue" d="M548.056,-182.597C599.981,-172.053 666.89,-157.975 726,-144 734.56,-141.976 743.512,-139.763 752.383,-137.509"/>
<polygon fill="midnightblue" stroke="midnightblue" points="547.315,-179.176 538.209,-184.591 548.705,-186.037 547.315,-179.176"/>
</g>
<!-- Node5&#45;&gt;Node1 -->
<g id="edge5" class="edge"><title>Node5&#45;&gt;Node1</title>
<path fill="none" stroke="midnightblue" d="M466.526,-147.916C466.97,-158.65 466.754,-170.481 465.878,-180.15"/>
<polygon fill="midnightblue" stroke="midnightblue" points="470.001,-147.42 465.862,-137.667 463.016,-147.873 470.001,-147.42"/>
</g>
<!-- Node6&#45;&gt;Node3 -->
<g id="edge7" class="edge"><title>Node6&#45;&gt;Node3</title>
<path fill="none" stroke="midnightblue" d="M543.3,-90.0844C543.2,-90.0563 543.1,-90.0281 543,-90 494.094,-76.2292 439.084,-60.7963 396.181,-48.7727"/>
<polygon fill="midnightblue" stroke="midnightblue" points="542.169,-93.402 552.743,-92.7452 544.067,-86.6643 542.169,-93.402"/>
</g>
<!-- Node7 -->
<g id="node7" class="node"><title>Node7</title>
<g id="a_node7"><a xlink:href="DCEL_2Operations_2EdgeSplit_8cpp.html" target="_top" xlink:title="/home/travis/build\l/STORM&#45;IRIT/Radium&#45;Engine\l/src/Core/Mesh/DCEL/Operations\l/EdgeSplit.cpp">
<polygon fill="white" stroke="black" points="553,-1 553,-53 717,-53 717,-1 553,-1"/>
<text text-anchor="start" x="561" y="-41" font-family="Helvetica,sans-Serif" font-size="10.00">/home/travis/build</text>
<text text-anchor="start" x="561" y="-30" font-family="Helvetica,sans-Serif" font-size="10.00">/STORM&#45;IRIT/Radium&#45;Engine</text>
<text text-anchor="start" x="561" y="-19" font-family="Helvetica,sans-Serif" font-size="10.00">/src/Core/Mesh/DCEL/Operations</text>
<text text-anchor="middle" x="635" y="-8" font-family="Helvetica,sans-Serif" font-size="10.00">/EdgeSplit.cpp</text>
</a>
</g>
</g>
<!-- Node6&#45;&gt;Node7 -->
<g id="edge8" class="edge"><title>Node6&#45;&gt;Node7</title>
<path fill="none" stroke="midnightblue" d="M635,-80.4892C635,-71.3088 635,-61.616 635,-53.0921"/>
<polygon fill="midnightblue" stroke="midnightblue" points="631.5,-80.5467 635,-90.5468 638.5,-80.5468 631.5,-80.5467"/>
</g>
</g>
</svg>
