<?xml version="1.0" encoding="UTF-8" standalone="no"?>
<!DOCTYPE svg PUBLIC "-//W3C//DTD SVG 1.1//EN"
 "http://www.w3.org/Graphics/SVG/1.1/DTD/svg11.dtd">
<!-- Generated by graphviz version 2.36.0 (20140111.2315)
 -->
<!-- Title: /home/travis/build/STORM&#45;IRIT/Radium&#45;Engine/src/Core/Mesh/DCEL/HalfEdge.cpp Pages: 1 -->
<svg width="1228pt" height="510pt"
 viewBox="0.00 0.00 1228.00 510.00" xmlns="http://www.w3.org/2000/svg" xmlns:xlink="http://www.w3.org/1999/xlink">
<g id="graph0" class="graph" transform="scale(1 1) rotate(0) translate(4 506)">
<title>/home/travis/build/STORM&#45;IRIT/Radium&#45;Engine/src/Core/Mesh/DCEL/HalfEdge.cpp</title>
<polygon fill="white" stroke="none" points="-4,4 -4,-506 1224,-506 1224,4 -4,4"/>
<!-- Node1 -->
<g id="node1" class="node"><title>Node1</title>
<polygon fill="#bfbfbf" stroke="black" points="248,-460.5 248,-501.5 424,-501.5 424,-460.5 248,-460.5"/>
<text text-anchor="start" x="256" y="-489.5" font-family="Helvetica,sans-Serif" font-size="10.00">/home/travis/build</text>
<text text-anchor="start" x="256" y="-478.5" font-family="Helvetica,sans-Serif" font-size="10.00">/STORM&#45;IRIT/Radium&#45;Engine</text>
<text text-anchor="middle" x="336" y="-467.5" font-family="Helvetica,sans-Serif" font-size="10.00">/src/Core/Mesh/DCEL/HalfEdge.cpp</text>
</g>
<!-- Node2 -->
<g id="node2" class="node"><title>Node2</title>
<g id="a_node2"><a xlink:href="DCEL_2HalfEdge_8hpp.html" target="_top" xlink:title="Core/Mesh/DCEL/HalfEdge.hpp">
<polygon fill="white" stroke="black" points="257.5,-404.5 257.5,-423.5 414.5,-423.5 414.5,-404.5 257.5,-404.5"/>
<text text-anchor="middle" x="336" y="-411.5" font-family="Helvetica,sans-Serif" font-size="10.00">Core/Mesh/DCEL/HalfEdge.hpp</text>
</a>
</g>
</g>
<!-- Node1&#45;&gt;Node2 -->
<g id="edge1" class="edge"><title>Node1&#45;&gt;Node2</title>
<path fill="none" stroke="midnightblue" d="M336,-460.498C336,-452.065 336,-442.235 336,-433.874"/>
<polygon fill="midnightblue" stroke="midnightblue" points="339.5,-433.652 336,-423.652 332.5,-433.653 339.5,-433.652"/>
</g>
<!-- Node18 -->
<g id="node18" class="node"><title>Node18</title>
<g id="a_node18"><a xlink:href="Face_8hpp.html" target="_top" xlink:title="Core/Mesh/DCEL/Face.hpp">
<polygon fill="white" stroke="black" points="156,-292.5 156,-311.5 294,-311.5 294,-292.5 156,-292.5"/>
<text text-anchor="middle" x="225" y="-299.5" font-family="Helvetica,sans-Serif" font-size="10.00">Core/Mesh/DCEL/Face.hpp</text>
</a>
</g>
</g>
<!-- Node1&#45;&gt;Node18 -->
<g id="edge47" class="edge"><title>Node1&#45;&gt;Node18</title>
<path fill="none" stroke="midnightblue" d="M271.034,-460.429C227.482,-443.541 173.436,-414.395 147,-368 133.942,-345.084 162.794,-326.751 189.026,-315.472"/>
<polygon fill="midnightblue" stroke="midnightblue" points="190.533,-318.638 198.489,-311.64 187.906,-312.149 190.533,-318.638"/>
</g>
<!-- Node20 -->
<g id="node20" class="node"><title>Node20</title>
<g id="a_node20"><a xlink:href="Vertex_8hpp.html" target="_top" xlink:title="Core/Mesh/DCEL/Vertex.hpp">
<polygon fill="white" stroke="black" points="488.5,-292.5 488.5,-311.5 633.5,-311.5 633.5,-292.5 488.5,-292.5"/>
<text text-anchor="middle" x="561" y="-299.5" font-family="Helvetica,sans-Serif" font-size="10.00">Core/Mesh/DCEL/Vertex.hpp</text>
</a>
</g>
</g>
<!-- Node1&#45;&gt;Node20 -->
<g id="edge48" class="edge"><title>Node1&#45;&gt;Node20</title>
<path fill="none" stroke="midnightblue" d="M368.999,-460.363C385.595,-450.09 405.787,-436.974 423,-424 469.38,-389.042 519.674,-342.523 544.796,-318.629"/>
<polygon fill="midnightblue" stroke="midnightblue" points="547.223,-321.15 552.031,-311.709 542.385,-316.091 547.223,-321.15"/>
</g>
<!-- Node3 -->
<g id="node3" class="node"><title>Node3</title>
<g id="a_node3"><a xlink:href="Index_8hpp.html" target="_top" xlink:title="Core/Index/Index.hpp">
<polygon fill="white" stroke="black" points="245,-174.5 245,-193.5 355,-193.5 355,-174.5 245,-174.5"/>
<text text-anchor="middle" x="300" y="-181.5" font-family="Helvetica,sans-Serif" font-size="10.00">Core/Index/Index.hpp</text>
</a>
</g>
</g>
<!-- Node2&#45;&gt;Node3 -->
<g id="edge2" class="edge"><title>Node2&#45;&gt;Node3</title>
<path fill="none" stroke="midnightblue" d="M339.71,-404.44C350.566,-378.056 379.92,-296.133 354,-236 347.551,-221.039 334.316,-208.424 322.563,-199.483"/>
<polygon fill="midnightblue" stroke="midnightblue" points="324.557,-196.606 314.386,-193.641 320.488,-202.302 324.557,-196.606"/>
</g>
<!-- Node6 -->
<g id="node6" class="node"><title>Node6</title>
<g id="a_node6"><a xlink:href="IndexedObject_8hpp.html" target="_top" xlink:title="Core/Index/IndexedObject.hpp">
<polygon fill="white" stroke="black" points="401.5,-236.5 401.5,-255.5 550.5,-255.5 550.5,-236.5 401.5,-236.5"/>
<text text-anchor="middle" x="476" y="-243.5" font-family="Helvetica,sans-Serif" font-size="10.00">Core/Index/IndexedObject.hpp</text>
</a>
</g>
</g>
<!-- Node2&#45;&gt;Node6 -->
<g id="edge5" class="edge"><title>Node2&#45;&gt;Node6</title>
<path fill="none" stroke="midnightblue" d="M347.416,-404.372C358.421,-395.776 375.237,-381.89 388,-368 419.34,-333.891 449.719,-288.588 465.268,-264.237"/>
<polygon fill="midnightblue" stroke="midnightblue" points="468.265,-266.047 470.644,-255.723 462.346,-262.31 468.265,-266.047"/>
</g>
<!-- Node14 -->
<g id="node14" class="node"><title>Node14</title>
<g id="a_node14"><a xlink:href="Definition_8hpp.html" target="_top" xlink:title="Core/Mesh/DCEL/Definition.hpp">
<polygon fill="white" stroke="black" points="188,-236.5 188,-255.5 346,-255.5 346,-236.5 188,-236.5"/>
<text text-anchor="middle" x="267" y="-243.5" font-family="Helvetica,sans-Serif" font-size="10.00">Core/Mesh/DCEL/Definition.hpp</text>
</a>
</g>
</g>
<!-- Node2&#45;&gt;Node14 -->
<g id="edge14" class="edge"><title>Node2&#45;&gt;Node14</title>
<path fill="none" stroke="midnightblue" d="M334.876,-404.353C331.958,-383.876 322.939,-331.205 303,-292 297.681,-281.543 289.682,-271.223 282.573,-263.11"/>
<polygon fill="midnightblue" stroke="midnightblue" points="284.973,-260.549 275.637,-255.54 279.812,-265.278 284.973,-260.549"/>
</g>
<!-- Node17 -->
<g id="node17" class="node"><title>Node17</title>
<g id="a_node17"><a xlink:href="DCEL_2HalfEdge_8inl.html" target="_top" xlink:title="Core/Mesh/DCEL/HalfEdge.inl">
<polygon fill="white" stroke="black" points="156.5,-348.5 156.5,-367.5 307.5,-367.5 307.5,-348.5 156.5,-348.5"/>
<text text-anchor="middle" x="232" y="-355.5" font-family="Helvetica,sans-Serif" font-size="10.00">Core/Mesh/DCEL/HalfEdge.inl</text>
</a>
</g>
</g>
<!-- Node2&#45;&gt;Node17 -->
<g id="edge17" class="edge"><title>Node2&#45;&gt;Node17</title>
<path fill="none" stroke="midnightblue" d="M314.432,-404.444C296.13,-395.912 270.345,-382.675 252.393,-372.683"/>
<polygon fill="midnightblue" stroke="midnightblue" points="253.744,-369.425 243.322,-367.516 250.279,-375.507 253.744,-369.425"/>
</g>
<!-- Node4 -->
<g id="node4" class="node"><title>Node4</title>
<polygon fill="white" stroke="#bfbfbf" points="134,-112.5 134,-131.5 174,-131.5 174,-112.5 134,-112.5"/>
<text text-anchor="middle" x="154" y="-119.5" font-family="Helvetica,sans-Serif" font-size="10.00">limits</text>
</g>
<!-- Node3&#45;&gt;Node4 -->
<g id="edge3" class="edge"><title>Node3&#45;&gt;Node4</title>
<path fill="none" stroke="midnightblue" d="M279.082,-174.403C254.113,-164.142 212.183,-146.911 183.824,-135.256"/>
<polygon fill="midnightblue" stroke="midnightblue" points="184.989,-131.951 174.409,-131.387 182.328,-138.426 184.989,-131.951"/>
</g>
<!-- Node5 -->
<g id="node5" class="node"><title>Node5</title>
<g id="a_node5"><a xlink:href="Index_8inl.html" target="_top" xlink:title="Core/Index/Index.inl">
<polygon fill="white" stroke="black" points="192,-112.5 192,-131.5 296,-131.5 296,-112.5 192,-112.5"/>
<text text-anchor="middle" x="244" y="-119.5" font-family="Helvetica,sans-Serif" font-size="10.00">Core/Index/Index.inl</text>
</a>
</g>
</g>
<!-- Node3&#45;&gt;Node5 -->
<g id="edge4" class="edge"><title>Node3&#45;&gt;Node5</title>
<path fill="none" stroke="midnightblue" d="M291.977,-174.403C283.41,-165.225 269.639,-150.47 259.043,-139.117"/>
<polygon fill="midnightblue" stroke="midnightblue" points="261.39,-136.503 252.009,-131.581 256.273,-141.279 261.39,-136.503"/>
</g>
<!-- Node6&#45;&gt;Node3 -->
<g id="edge6" class="edge"><title>Node6&#45;&gt;Node3</title>
<path fill="none" stroke="midnightblue" d="M450.783,-236.403C420.332,-226.022 368.951,-208.506 334.757,-196.849"/>
<polygon fill="midnightblue" stroke="midnightblue" points="335.764,-193.495 325.17,-193.581 333.505,-200.12 335.764,-193.495"/>
</g>
<!-- Node7 -->
<g id="node7" class="node"><title>Node7</title>
<g id="a_node7"><a xlink:href="RaCore_8hpp.html" target="_top" xlink:title="Core/RaCore.hpp">
<polygon fill="white" stroke="black" points="567.5,-112.5 567.5,-131.5 660.5,-131.5 660.5,-112.5 567.5,-112.5"/>
<text text-anchor="middle" x="614" y="-119.5" font-family="Helvetica,sans-Serif" font-size="10.00">Core/RaCore.hpp</text>
</a>
</g>
</g>
<!-- Node6&#45;&gt;Node7 -->
<g id="edge7" class="edge"><title>Node6&#45;&gt;Node7</title>
<path fill="none" stroke="midnightblue" d="M479.772,-236.329C486.861,-220.872 503.509,-188.281 526,-168 541.591,-153.941 562.378,-143.042 579.835,-135.494"/>
<polygon fill="midnightblue" stroke="midnightblue" points="581.233,-138.703 589.136,-131.646 578.557,-132.234 581.233,-138.703"/>
</g>
<!-- Node8 -->
<g id="node8" class="node"><title>Node8</title>
<g id="a_node8"><a xlink:href="CoreMacros_8hpp.html" target="_top" xlink:title="Core/CoreMacros.hpp">
<polygon fill="white" stroke="black" points="557.5,-56.5 557.5,-75.5 670.5,-75.5 670.5,-56.5 557.5,-56.5"/>
<text text-anchor="middle" x="614" y="-63.5" font-family="Helvetica,sans-Serif" font-size="10.00">Core/CoreMacros.hpp</text>
</a>
</g>
</g>
<!-- Node7&#45;&gt;Node8 -->
<g id="edge8" class="edge"><title>Node7&#45;&gt;Node8</title>
<path fill="none" stroke="midnightblue" d="M614,-112.083C614,-105.006 614,-94.8611 614,-85.9865"/>
<polygon fill="midnightblue" stroke="midnightblue" points="617.5,-85.751 614,-75.7511 610.5,-85.7511 617.5,-85.751"/>
</g>
<!-- Node9 -->
<g id="node9" class="node"><title>Node9</title>
<polygon fill="white" stroke="#bfbfbf" points="458.5,-0.5 458.5,-19.5 507.5,-19.5 507.5,-0.5 458.5,-0.5"/>
<text text-anchor="middle" x="483" y="-7.5" font-family="Helvetica,sans-Serif" font-size="10.00">cassert</text>
</g>
<!-- Node8&#45;&gt;Node9 -->
<g id="edge9" class="edge"><title>Node8&#45;&gt;Node9</title>
<path fill="none" stroke="midnightblue" d="M593.243,-56.4435C571.684,-47.5566 537.737,-33.5632 513.206,-23.4514"/>
<polygon fill="midnightblue" stroke="midnightblue" points="514.239,-20.0917 503.66,-19.5164 511.572,-26.5634 514.239,-20.0917"/>
</g>
<!-- Node10 -->
<g id="node10" class="node"><title>Node10</title>
<polygon fill="white" stroke="#bfbfbf" points="525.5,-0.5 525.5,-19.5 568.5,-19.5 568.5,-0.5 525.5,-0.5"/>
<text text-anchor="middle" x="547" y="-7.5" font-family="Helvetica,sans-Serif" font-size="10.00">cstdio</text>
</g>
<!-- Node8&#45;&gt;Node10 -->
<g id="edge10" class="edge"><title>Node8&#45;&gt;Node10</title>
<path fill="none" stroke="midnightblue" d="M603.235,-56.324C593.234,-48.2631 578.113,-36.0765 566.07,-26.3695"/>
<polygon fill="midnightblue" stroke="midnightblue" points="567.943,-23.3841 557.961,-19.8339 563.55,-28.8343 567.943,-23.3841"/>
</g>
<!-- Node11 -->
<g id="node11" class="node"><title>Node11</title>
<polygon fill="white" stroke="#bfbfbf" points="587,-0.5 587,-19.5 641,-19.5 641,-0.5 587,-0.5"/>
<text text-anchor="middle" x="614" y="-7.5" font-family="Helvetica,sans-Serif" font-size="10.00">iostream</text>
</g>
<!-- Node8&#45;&gt;Node11 -->
<g id="edge11" class="edge"><title>Node8&#45;&gt;Node11</title>
<path fill="none" stroke="midnightblue" d="M614,-56.083C614,-49.0059 614,-38.8611 614,-29.9865"/>
<polygon fill="midnightblue" stroke="midnightblue" points="617.5,-29.751 614,-19.7511 610.5,-29.7511 617.5,-29.751"/>
</g>
<!-- Node12 -->
<g id="node12" class="node"><title>Node12</title>
<polygon fill="white" stroke="#bfbfbf" points="659,-0.5 659,-19.5 711,-19.5 711,-0.5 659,-0.5"/>
<text text-anchor="middle" x="685" y="-7.5" font-family="Helvetica,sans-Serif" font-size="10.00">sstream</text>
</g>
<!-- Node8&#45;&gt;Node12 -->
<g id="edge12" class="edge"><title>Node8&#45;&gt;Node12</title>
<path fill="none" stroke="midnightblue" d="M625.407,-56.324C636.109,-48.1849 652.341,-35.8395 665.163,-26.0874"/>
<polygon fill="midnightblue" stroke="midnightblue" points="667.544,-28.6734 673.385,-19.8339 663.307,-23.1018 667.544,-28.6734"/>
</g>
<!-- Node13 -->
<g id="node13" class="node"><title>Node13</title>
<polygon fill="white" stroke="#bfbfbf" points="729,-0.5 729,-19.5 773,-19.5 773,-0.5 729,-0.5"/>
<text text-anchor="middle" x="751" y="-7.5" font-family="Helvetica,sans-Serif" font-size="10.00">thread</text>
</g>
<!-- Node8&#45;&gt;Node13 -->
<g id="edge13" class="edge"><title>Node8&#45;&gt;Node13</title>
<path fill="none" stroke="midnightblue" d="M635.708,-56.4435C658.355,-47.5171 694.072,-33.4387 719.752,-23.3168"/>
<polygon fill="midnightblue" stroke="midnightblue" points="721.374,-26.4397 729.394,-19.5164 718.807,-19.9273 721.374,-26.4397"/>
</g>
<!-- Node15 -->
<g id="node15" class="node"><title>Node15</title>
<polygon fill="white" stroke="#bfbfbf" points="113,-174.5 113,-193.5 165,-193.5 165,-174.5 113,-174.5"/>
<text text-anchor="middle" x="139" y="-181.5" font-family="Helvetica,sans-Serif" font-size="10.00">memory</text>
</g>
<!-- Node14&#45;&gt;Node15 -->
<g id="edge15" class="edge"><title>Node14&#45;&gt;Node15</title>
<path fill="none" stroke="midnightblue" d="M248.661,-236.403C227.179,-226.334 191.378,-209.552 166.552,-197.915"/>
<polygon fill="midnightblue" stroke="midnightblue" points="167.845,-194.656 157.305,-193.581 164.874,-200.994 167.845,-194.656"/>
</g>
<!-- Node16 -->
<g id="node16" class="node"><title>Node16</title>
<polygon fill="white" stroke="#bfbfbf" points="183,-174.5 183,-193.5 227,-193.5 227,-174.5 183,-174.5"/>
<text text-anchor="middle" x="205" y="-181.5" font-family="Helvetica,sans-Serif" font-size="10.00">vector</text>
</g>
<!-- Node14&#45;&gt;Node16 -->
<g id="edge16" class="edge"><title>Node14&#45;&gt;Node16</title>
<path fill="none" stroke="midnightblue" d="M258.117,-236.403C248.541,-227.136 233.089,-212.183 221.314,-200.788"/>
<polygon fill="midnightblue" stroke="midnightblue" points="223.487,-198.02 213.867,-193.581 218.619,-203.05 223.487,-198.02"/>
</g>
<!-- Node17&#45;&gt;Node2 -->
<g id="edge18" class="edge"><title>Node17&#45;&gt;Node2</title>
<path fill="none" stroke="midnightblue" d="M253.778,-367.655C271.982,-376.149 297.484,-389.241 315.356,-399.177"/>
<polygon fill="midnightblue" stroke="midnightblue" points="313.983,-402.423 324.405,-404.324 317.443,-396.338 313.983,-402.423"/>
</g>
<!-- Node17&#45;&gt;Node18 -->
<g id="edge19" class="edge"><title>Node17&#45;&gt;Node18</title>
<path fill="none" stroke="midnightblue" d="M230.844,-348.083C229.916,-340.927 228.582,-330.635 227.423,-321.691"/>
<polygon fill="midnightblue" stroke="midnightblue" points="230.891,-321.218 226.134,-311.751 223.949,-322.118 230.891,-321.218"/>
</g>
<!-- Node17&#45;&gt;Node20 -->
<g id="edge26" class="edge"><title>Node17&#45;&gt;Node20</title>
<path fill="none" stroke="midnightblue" d="M284.131,-348.444C342.487,-338.865 436.982,-323.356 499.059,-313.167"/>
<polygon fill="midnightblue" stroke="midnightblue" points="499.812,-316.59 509.113,-311.516 498.678,-309.682 499.812,-316.59"/>
</g>
<!-- Node18&#45;&gt;Node3 -->
<g id="edge20" class="edge"><title>Node18&#45;&gt;Node3</title>
<path fill="none" stroke="midnightblue" d="M211.305,-292.492C193.258,-280.182 165.315,-256.618 179,-236 188.47,-221.732 228.5,-206.645 259.958,-196.615"/>
<polygon fill="midnightblue" stroke="midnightblue" points="261.314,-199.859 269.821,-193.544 259.233,-193.176 261.314,-199.859"/>
</g>
<!-- Node18&#45;&gt;Node6 -->
<g id="edge21" class="edge"><title>Node18&#45;&gt;Node6</title>
<path fill="none" stroke="midnightblue" d="M264.772,-292.444C308.558,-283.023 379.014,-267.866 426.38,-257.675"/>
<polygon fill="midnightblue" stroke="midnightblue" points="427.374,-261.041 436.414,-255.516 425.902,-254.198 427.374,-261.041"/>
</g>
<!-- Node18&#45;&gt;Node14 -->
<g id="edge22" class="edge"><title>Node18&#45;&gt;Node14</title>
<path fill="none" stroke="midnightblue" d="M231.935,-292.083C237.929,-284.377 246.752,-273.033 254.048,-263.653"/>
<polygon fill="midnightblue" stroke="midnightblue" points="256.817,-265.793 260.194,-255.751 251.291,-261.496 256.817,-265.793"/>
</g>
<!-- Node19 -->
<g id="node19" class="node"><title>Node19</title>
<g id="a_node19"><a xlink:href="Face_8inl.html" target="_top" xlink:title="Core/Mesh/DCEL/Face.inl">
<polygon fill="white" stroke="black" points="0,-236.5 0,-255.5 132,-255.5 132,-236.5 0,-236.5"/>
<text text-anchor="middle" x="66" y="-243.5" font-family="Helvetica,sans-Serif" font-size="10.00">Core/Mesh/DCEL/Face.inl</text>
</a>
</g>
</g>
<!-- Node18&#45;&gt;Node19 -->
<g id="edge23" class="edge"><title>Node18&#45;&gt;Node19</title>
<path fill="none" stroke="midnightblue" d="M194.717,-292.444C166.226,-283.438 124.057,-269.189 95.7478,-259.049"/>
<polygon fill="midnightblue" stroke="midnightblue" points="96.5904,-255.632 85.9962,-255.516 94.2062,-262.213 96.5904,-255.632"/>
</g>
<!-- Node19&#45;&gt;Node2 -->
<g id="edge25" class="edge"><title>Node19&#45;&gt;Node2</title>
<path fill="none" stroke="midnightblue" d="M69.1688,-255.643C77.8462,-278.041 104.237,-338.282 147,-368 176.243,-388.322 213.512,-399.536 247.213,-405.697"/>
<polygon fill="midnightblue" stroke="midnightblue" points="246.632,-409.149 257.077,-407.378 247.807,-402.248 246.632,-409.149"/>
</g>
<!-- Node19&#45;&gt;Node18 -->
<g id="edge24" class="edge"><title>Node19&#45;&gt;Node18</title>
<path fill="none" stroke="midnightblue" d="M96.1561,-255.516C124.607,-264.506 166.776,-278.754 195.126,-288.906"/>
<polygon fill="midnightblue" stroke="midnightblue" points="194.301,-292.329 204.895,-292.444 196.684,-285.748 194.301,-292.329"/>
</g>
<!-- Node20&#45;&gt;Node3 -->
<g id="edge27" class="edge"><title>Node20&#45;&gt;Node3</title>
<path fill="none" stroke="midnightblue" d="M563.826,-292.207C567.646,-278.445 572.533,-251.761 559,-236 530.293,-202.568 407.13,-209.03 364,-200 357.843,-198.711 351.369,-197.281 345.002,-195.832"/>
<polygon fill="midnightblue" stroke="midnightblue" points="345.675,-192.395 335.143,-193.554 344.099,-199.215 345.675,-192.395"/>
</g>
<!-- Node20&#45;&gt;Node6 -->
<g id="edge28" class="edge"><title>Node20&#45;&gt;Node6</title>
<path fill="none" stroke="midnightblue" d="M547.343,-292.324C534.084,-283.9 513.732,-270.971 498.154,-261.074"/>
<polygon fill="midnightblue" stroke="midnightblue" points="499.94,-258.063 489.623,-255.655 496.187,-263.971 499.94,-258.063"/>
</g>
<!-- Node20&#45;&gt;Node14 -->
<g id="edge43" class="edge"><title>Node20&#45;&gt;Node14</title>
<path fill="none" stroke="midnightblue" d="M514.415,-292.444C462.59,-282.925 378.868,-267.547 323.385,-257.356"/>
<polygon fill="midnightblue" stroke="midnightblue" points="323.835,-253.881 313.367,-255.516 322.57,-260.765 323.835,-253.881"/>
</g>
<!-- Node21 -->
<g id="node21" class="node"><title>Node21</title>
<g id="a_node21"><a xlink:href="LinearAlgebra_8hpp.html" target="_top" xlink:title="Core/Math/LinearAlgebra.hpp">
<polygon fill="white" stroke="black" points="606.5,-236.5 606.5,-255.5 749.5,-255.5 749.5,-236.5 606.5,-236.5"/>
<text text-anchor="middle" x="678" y="-243.5" font-family="Helvetica,sans-Serif" font-size="10.00">Core/Math/LinearAlgebra.hpp</text>
</a>
</g>
</g>
<!-- Node20&#45;&gt;Node21 -->
<g id="edge29" class="edge"><title>Node20&#45;&gt;Node21</title>
<path fill="none" stroke="midnightblue" d="M579.539,-292.444C598.623,-283.636 628.575,-269.812 650.436,-259.722"/>
<polygon fill="midnightblue" stroke="midnightblue" points="651.935,-262.885 659.548,-255.516 649.001,-256.529 651.935,-262.885"/>
</g>
<!-- Node32 -->
<g id="node32" class="node"><title>Node32</title>
<g id="a_node32"><a xlink:href="Vertex_8inl.html" target="_top" xlink:title="Core/Mesh/DCEL/Vertex.inl">
<polygon fill="white" stroke="black" points="767.5,-236.5 767.5,-255.5 906.5,-255.5 906.5,-236.5 767.5,-236.5"/>
<text text-anchor="middle" x="837" y="-243.5" font-family="Helvetica,sans-Serif" font-size="10.00">Core/Mesh/DCEL/Vertex.inl</text>
</a>
</g>
</g>
<!-- Node20&#45;&gt;Node32 -->
<g id="edge44" class="edge"><title>Node20&#45;&gt;Node32</title>
<path fill="none" stroke="midnightblue" d="M599.644,-292.444C646.112,-282.944 724.359,-267.611 778.284,-257.42"/>
<polygon fill="midnightblue" stroke="midnightblue" points="779.212,-260.807 788.392,-255.516 777.917,-253.927 779.212,-260.807"/>
</g>
<!-- Node21&#45;&gt;Node7 -->
<g id="edge30" class="edge"><title>Node21&#45;&gt;Node7</title>
<path fill="none" stroke="midnightblue" d="M749.526,-236.92C752.388,-236.607 755.221,-236.3 758,-236 796.759,-231.821 1080.89,-228.945 1107,-200 1116.53,-189.44 1116.59,-178.504 1107,-168 1078.04,-136.281 793.76,-126.66 670.513,-123.967"/>
<polygon fill="midnightblue" stroke="midnightblue" points="670.581,-120.467 660.509,-123.756 670.433,-127.466 670.581,-120.467"/>
</g>
<!-- Node22 -->
<g id="node22" class="node"><title>Node22</title>
<polygon fill="white" stroke="#bfbfbf" points="1155.5,-174.5 1155.5,-193.5 1220.5,-193.5 1220.5,-174.5 1155.5,-174.5"/>
<text text-anchor="middle" x="1188" y="-181.5" font-family="Helvetica,sans-Serif" font-size="10.00">Eigen/Core</text>
</g>
<!-- Node21&#45;&gt;Node22 -->
<g id="edge31" class="edge"><title>Node21&#45;&gt;Node22</title>
<path fill="none" stroke="midnightblue" d="M749.522,-236.888C752.385,-236.584 755.219,-236.287 758,-236 928.069,-218.442 973.481,-234.189 1141,-200 1145.46,-199.089 1150.1,-197.909 1154.65,-196.611"/>
<polygon fill="midnightblue" stroke="midnightblue" points="1155.82,-199.914 1164.35,-193.641 1153.77,-193.221 1155.82,-199.914"/>
</g>
<!-- Node23 -->
<g id="node23" class="node"><title>Node23</title>
<polygon fill="white" stroke="#bfbfbf" points="535.5,-174.5 535.5,-193.5 622.5,-193.5 622.5,-174.5 535.5,-174.5"/>
<text text-anchor="middle" x="579" y="-181.5" font-family="Helvetica,sans-Serif" font-size="10.00">Eigen/Geometry</text>
</g>
<!-- Node21&#45;&gt;Node23 -->
<g id="edge32" class="edge"><title>Node21&#45;&gt;Node23</title>
<path fill="none" stroke="midnightblue" d="M663.816,-236.403C647.642,-226.601 620.974,-210.439 601.857,-198.853"/>
<polygon fill="midnightblue" stroke="midnightblue" points="603.524,-195.77 593.158,-193.581 599.896,-201.757 603.524,-195.77"/>
</g>
<!-- Node24 -->
<g id="node24" class="node"><title>Node24</title>
<polygon fill="white" stroke="#bfbfbf" points="640.5,-174.5 640.5,-193.5 715.5,-193.5 715.5,-174.5 640.5,-174.5"/>
<text text-anchor="middle" x="678" y="-181.5" font-family="Helvetica,sans-Serif" font-size="10.00">Eigen/Sparse</text>
</g>
<!-- Node21&#45;&gt;Node24 -->
<g id="edge33" class="edge"><title>Node21&#45;&gt;Node24</title>
<path fill="none" stroke="midnightblue" d="M678,-236.403C678,-227.938 678,-214.728 678,-203.82"/>
<polygon fill="midnightblue" stroke="midnightblue" points="681.5,-203.581 678,-193.581 674.5,-203.581 681.5,-203.581"/>
</g>
<!-- Node25 -->
<g id="node25" class="node"><title>Node25</title>
<polygon fill="white" stroke="#bfbfbf" points="733.5,-174.5 733.5,-193.5 792.5,-193.5 792.5,-174.5 733.5,-174.5"/>
<text text-anchor="middle" x="763" y="-181.5" font-family="Helvetica,sans-Serif" font-size="10.00">functional</text>
</g>
<!-- Node21&#45;&gt;Node25 -->
<g id="edge34" class="edge"><title>Node21&#45;&gt;Node25</title>
<path fill="none" stroke="midnightblue" d="M690.178,-236.403C703.812,-226.78 726.132,-211.024 742.474,-199.489"/>
<polygon fill="midnightblue" stroke="midnightblue" points="744.693,-202.207 750.844,-193.581 740.656,-196.488 744.693,-202.207"/>
</g>
<!-- Node26 -->
<g id="node26" class="node"><title>Node26</title>
<polygon fill="white" stroke="#bfbfbf" points="810.5,-169 810.5,-199 943.5,-199 943.5,-169 810.5,-169"/>
<text text-anchor="start" x="818.5" y="-187" font-family="Helvetica,sans-Serif" font-size="10.00">unsupported/Eigen/Aligned</text>
<text text-anchor="middle" x="877" y="-176" font-family="Helvetica,sans-Serif" font-size="10.00">Vector3</text>
</g>
<!-- Node21&#45;&gt;Node26 -->
<g id="edge35" class="edge"><title>Node21&#45;&gt;Node26</title>
<path fill="none" stroke="midnightblue" d="M706.512,-236.403C736.207,-227.45 783.504,-213.19 820.756,-201.958"/>
<polygon fill="midnightblue" stroke="midnightblue" points="821.919,-205.263 830.483,-199.025 819.898,-198.561 821.919,-205.263"/>
</g>
<!-- Node27 -->
<g id="node27" class="node"><title>Node27</title>
<g id="a_node27"><a xlink:href="Math_8hpp.html" target="_top" xlink:title="Core/Math/Math.hpp">
<polygon fill="white" stroke="black" points="373,-174.5 373,-193.5 479,-193.5 479,-174.5 373,-174.5"/>
<text text-anchor="middle" x="426" y="-181.5" font-family="Helvetica,sans-Serif" font-size="10.00">Core/Math/Math.hpp</text>
</a>
</g>
</g>
<!-- Node21&#45;&gt;Node27 -->
<g id="edge36" class="edge"><title>Node21&#45;&gt;Node27</title>
<path fill="none" stroke="midnightblue" d="M642.162,-236.467C597.38,-225.805 520.69,-207.545 471.721,-195.886"/>
<polygon fill="midnightblue" stroke="midnightblue" points="472.253,-192.415 461.714,-193.503 470.632,-199.224 472.253,-192.415"/>
</g>
<!-- Node31 -->
<g id="node31" class="node"><title>Node31</title>
<g id="a_node31"><a xlink:href="LinearAlgebra_8inl.html" target="_top" xlink:title="Core/Math/LinearAlgebra.inl">
<polygon fill="white" stroke="black" points="961.5,-174.5 961.5,-193.5 1098.5,-193.5 1098.5,-174.5 961.5,-174.5"/>
<text text-anchor="middle" x="1030" y="-181.5" font-family="Helvetica,sans-Serif" font-size="10.00">Core/Math/LinearAlgebra.inl</text>
</a>
</g>
</g>
<!-- Node21&#45;&gt;Node31 -->
<g id="edge42" class="edge"><title>Node21&#45;&gt;Node31</title>
<path fill="none" stroke="midnightblue" d="M732.661,-236.471C788.018,-227.729 876.066,-213.534 952,-200 960.011,-198.572 968.473,-197.006 976.752,-195.44"/>
<polygon fill="midnightblue" stroke="midnightblue" points="977.551,-198.851 986.718,-193.541 976.24,-191.975 977.551,-198.851"/>
</g>
<!-- Node27&#45;&gt;Node7 -->
<g id="edge37" class="edge"><title>Node27&#45;&gt;Node7</title>
<path fill="none" stroke="midnightblue" d="M452.936,-174.403C485.603,-163.978 540.819,-146.356 577.343,-134.699"/>
<polygon fill="midnightblue" stroke="midnightblue" points="578.652,-137.955 587.114,-131.581 576.523,-131.287 578.652,-137.955"/>
</g>
<!-- Node28 -->
<g id="node28" class="node"><title>Node28</title>
<polygon fill="white" stroke="#bfbfbf" points="494,-112.5 494,-131.5 550,-131.5 550,-112.5 494,-112.5"/>
<text text-anchor="middle" x="522" y="-119.5" font-family="Helvetica,sans-Serif" font-size="10.00">algorithm</text>
</g>
<!-- Node27&#45;&gt;Node28 -->
<g id="edge38" class="edge"><title>Node27&#45;&gt;Node28</title>
<path fill="none" stroke="midnightblue" d="M439.754,-174.403C455.366,-164.646 481.063,-148.585 499.583,-137.011"/>
<polygon fill="midnightblue" stroke="midnightblue" points="501.646,-139.849 508.271,-131.581 497.936,-133.913 501.646,-139.849"/>
</g>
<!-- Node29 -->
<g id="node29" class="node"><title>Node29</title>
<polygon fill="white" stroke="#bfbfbf" points="314,-112.5 314,-131.5 358,-131.5 358,-112.5 314,-112.5"/>
<text text-anchor="middle" x="336" y="-119.5" font-family="Helvetica,sans-Serif" font-size="10.00">cmath</text>
</g>
<!-- Node27&#45;&gt;Node29 -->
<g id="edge39" class="edge"><title>Node27&#45;&gt;Node29</title>
<path fill="none" stroke="midnightblue" d="M413.105,-174.403C398.536,-164.691 374.598,-148.732 357.255,-137.17"/>
<polygon fill="midnightblue" stroke="midnightblue" points="359.133,-134.215 348.871,-131.581 355.25,-140.04 359.133,-134.215"/>
</g>
<!-- Node30 -->
<g id="node30" class="node"><title>Node30</title>
<g id="a_node30"><a xlink:href="Math_8inl.html" target="_top" xlink:title="Core/Math/Math.inl">
<polygon fill="white" stroke="black" points="376,-112.5 376,-131.5 476,-131.5 476,-112.5 376,-112.5"/>
<text text-anchor="middle" x="426" y="-119.5" font-family="Helvetica,sans-Serif" font-size="10.00">Core/Math/Math.inl</text>
</a>
</g>
</g>
<!-- Node27&#45;&gt;Node30 -->
<g id="edge40" class="edge"><title>Node27&#45;&gt;Node30</title>
<path fill="none" stroke="midnightblue" d="M421.099,-174.403C419.268,-165.938 418.797,-152.728 419.685,-141.82"/>
<polygon fill="midnightblue" stroke="midnightblue" points="423.198,-141.966 421.103,-131.581 416.264,-141.006 423.198,-141.966"/>
</g>
<!-- Node30&#45;&gt;Node27 -->
<g id="edge41" class="edge"><title>Node30&#45;&gt;Node27</title>
<path fill="none" stroke="midnightblue" d="M430.897,-131.581C432.73,-140.04 433.203,-153.248 432.317,-164.16"/>
<polygon fill="midnightblue" stroke="midnightblue" points="428.803,-164.018 430.901,-174.403 435.737,-164.977 428.803,-164.018"/>
</g>
<!-- Node32&#45;&gt;Node2 -->
<g id="edge46" class="edge"><title>Node32&#45;&gt;Node2</title>
<path fill="none" stroke="midnightblue" d="M811.455,-255.542C774.206,-267.991 702.798,-291.833 642,-312 544.321,-344.4 429.019,-382.388 371.857,-401.203"/>
<polygon fill="midnightblue" stroke="midnightblue" points="370.61,-397.928 362.205,-404.379 372.798,-404.578 370.61,-397.928"/>
</g>
<!-- Node32&#45;&gt;Node20 -->
<g id="edge45" class="edge"><title>Node32&#45;&gt;Node20</title>
<path fill="none" stroke="midnightblue" d="M798.552,-255.516C752.173,-264.999 673.937,-280.332 619.944,-290.537"/>
<polygon fill="midnightblue" stroke="midnightblue" points="619.001,-287.153 609.822,-292.444 620.297,-294.032 619.001,-287.153"/>
</g>
</g>
</svg>
