<?xml version="1.0" encoding="UTF-8" standalone="no"?>
<!DOCTYPE svg PUBLIC "-//W3C//DTD SVG 1.1//EN"
 "http://www.w3.org/Graphics/SVG/1.1/DTD/svg11.dtd">
<!-- Generated by graphviz version 2.36.0 (20140111.2315)
 -->
<!-- Title: /home/travis/build/STORM&#45;IRIT/Radium&#45;Engine/src/Core/Mesh/DCEL/Operations/EdgeSplit.cpp Pages: 1 -->
<svg width="1903pt" height="702pt"
 viewBox="0.00 0.00 1903.06 702.00" xmlns="http://www.w3.org/2000/svg" xmlns:xlink="http://www.w3.org/1999/xlink">
<g id="graph0" class="graph" transform="scale(1 1) rotate(0) translate(4 698)">
<title>/home/travis/build/STORM&#45;IRIT/Radium&#45;Engine/src/Core/Mesh/DCEL/Operations/EdgeSplit.cpp</title>
<polygon fill="white" stroke="none" points="-4,4 -4,-698 1899.06,-698 1899.06,4 -4,4"/>
<!-- Node1 -->
<g id="node1" class="node"><title>Node1</title>
<polygon fill="#bfbfbf" stroke="black" points="992.056,-641 992.056,-693 1156.06,-693 1156.06,-641 992.056,-641"/>
<text text-anchor="start" x="1000.06" y="-681" font-family="Helvetica,sans-Serif" font-size="10.00">/home/travis/build</text>
<text text-anchor="start" x="1000.06" y="-670" font-family="Helvetica,sans-Serif" font-size="10.00">/STORM&#45;IRIT/Radium&#45;Engine</text>
<text text-anchor="start" x="1000.06" y="-659" font-family="Helvetica,sans-Serif" font-size="10.00">/src/Core/Mesh/DCEL/Operations</text>
<text text-anchor="middle" x="1074.06" y="-648" font-family="Helvetica,sans-Serif" font-size="10.00">/EdgeSplit.cpp</text>
</g>
<!-- Node2 -->
<g id="node2" class="node"><title>Node2</title>
<g id="a_node2"><a xlink:href="FullEdge_8hpp.html" target="_top" xlink:title="Core/Mesh/DCEL/FullEdge.hpp">
<polygon fill="white" stroke="black" points="1049.56,-584.5 1049.56,-603.5 1204.56,-603.5 1204.56,-584.5 1049.56,-584.5"/>
<text text-anchor="middle" x="1127.06" y="-591.5" font-family="Helvetica,sans-Serif" font-size="10.00">Core/Mesh/DCEL/FullEdge.hpp</text>
</a>
</g>
</g>
<!-- Node1&#45;&gt;Node2 -->
<g id="edge1" class="edge"><title>Node1&#45;&gt;Node2</title>
<path fill="none" stroke="midnightblue" d="M1092.89,-640.768C1100.05,-631.183 1108.02,-620.506 1114.46,-611.877"/>
<polygon fill="midnightblue" stroke="midnightblue" points="1117.34,-613.864 1120.52,-603.757 1111.73,-609.677 1117.34,-613.864"/>
</g>
<!-- Node20 -->
<g id="node20" class="node"><title>Node20</title>
<g id="a_node20"><a xlink:href="DCEL_2HalfEdge_8hpp.html" target="_top" xlink:title="Core/Mesh/DCEL/HalfEdge.hpp">
<polygon fill="white" stroke="black" points="900.556,-360.5 900.556,-379.5 1057.56,-379.5 1057.56,-360.5 900.556,-360.5"/>
<text text-anchor="middle" x="979.056" y="-367.5" font-family="Helvetica,sans-Serif" font-size="10.00">Core/Mesh/DCEL/HalfEdge.hpp</text>
</a>
</g>
</g>
<!-- Node1&#45;&gt;Node20 -->
<g id="edge55" class="edge"><title>Node1&#45;&gt;Node20</title>
<path fill="none" stroke="midnightblue" d="M992.055,-664.51C747.492,-658.989 40.056,-634.744 40.056,-539 40.056,-539 40.056,-539 40.056,-481 40.056,-395.939 655.738,-376.508 890.018,-372.193"/>
<polygon fill="midnightblue" stroke="midnightblue" points="890.274,-375.689 900.21,-372.011 890.149,-368.69 890.274,-375.689"/>
</g>
<!-- Node22 -->
<g id="node22" class="node"><title>Node22</title>
<g id="a_node22"><a xlink:href="Vertex_8hpp.html" target="_top" xlink:title="Core/Mesh/DCEL/Vertex.hpp">
<polygon fill="white" stroke="black" points="948.556,-472.5 948.556,-491.5 1093.56,-491.5 1093.56,-472.5 948.556,-472.5"/>
<text text-anchor="middle" x="1021.06" y="-479.5" font-family="Helvetica,sans-Serif" font-size="10.00">Core/Mesh/DCEL/Vertex.hpp</text>
</a>
</g>
</g>
<!-- Node1&#45;&gt;Node22 -->
<g id="edge72" class="edge"><title>Node1&#45;&gt;Node22</title>
<path fill="none" stroke="midnightblue" d="M1057.75,-640.975C1051.31,-630.025 1044.41,-616.781 1040.06,-604 1028.2,-569.235 1023.69,-526.296 1022.02,-502.042"/>
<polygon fill="midnightblue" stroke="midnightblue" points="1025.49,-501.527 1021.4,-491.754 1018.5,-501.945 1025.49,-501.527"/>
</g>
<!-- Node35 -->
<g id="node35" class="node"><title>Node35</title>
<g id="a_node35"><a xlink:href="DCEL_2Operations_2EdgeSplit_8hpp.html" target="_top" xlink:title="Core/Mesh/DCEL/Operations\l/EdgeSplit.hpp">
<polygon fill="white" stroke="black" points="1407.56,-293 1407.56,-323 1552.56,-323 1552.56,-293 1407.56,-293"/>
<text text-anchor="start" x="1415.56" y="-311" font-family="Helvetica,sans-Serif" font-size="10.00">Core/Mesh/DCEL/Operations</text>
<text text-anchor="middle" x="1480.06" y="-300" font-family="Helvetica,sans-Serif" font-size="10.00">/EdgeSplit.hpp</text>
</a>
</g>
</g>
<!-- Node1&#45;&gt;Node35 -->
<g id="edge56" class="edge"><title>Node1&#45;&gt;Node35</title>
<path fill="none" stroke="midnightblue" d="M1156.13,-654.956C1266.22,-637.8 1448.06,-600.201 1448.06,-539 1448.06,-539 1448.06,-539 1448.06,-425 1448.06,-392.061 1460.19,-355.695 1469.52,-332.617"/>
<polygon fill="midnightblue" stroke="midnightblue" points="1472.79,-333.874 1473.43,-323.299 1466.33,-331.168 1472.79,-333.874"/>
</g>
<!-- Node3 -->
<g id="node3" class="node"><title>Node3</title>
<g id="a_node3"><a xlink:href="Index_8hpp.html" target="_top" xlink:title="Core/Index/Index.hpp">
<polygon fill="white" stroke="black" points="909.056,-112.5 909.056,-131.5 1019.06,-131.5 1019.06,-112.5 909.056,-112.5"/>
<text text-anchor="middle" x="964.056" y="-119.5" font-family="Helvetica,sans-Serif" font-size="10.00">Core/Index/Index.hpp</text>
</a>
</g>
</g>
<!-- Node2&#45;&gt;Node3 -->
<g id="edge2" class="edge"><title>Node2&#45;&gt;Node3</title>
<path fill="none" stroke="midnightblue" d="M1049.29,-585.933C794.638,-561.762 2.05599,-477.943 2.05599,-371 2.05599,-371 2.05599,-371 2.05599,-245 2.05599,-209.751 -6.16797,-190.39 21.056,-168 54.9007,-140.165 690.469,-127.429 898.649,-123.993"/>
<polygon fill="midnightblue" stroke="midnightblue" points="898.88,-127.49 908.822,-123.827 898.766,-120.49 898.88,-127.49"/>
</g>
<!-- Node6 -->
<g id="node6" class="node"><title>Node6</title>
<g id="a_node6"><a xlink:href="IndexedObject_8hpp.html" target="_top" xlink:title="Core/Index/IndexedObject.hpp">
<polygon fill="white" stroke="black" points="1120.56,-174.5 1120.56,-193.5 1269.56,-193.5 1269.56,-174.5 1120.56,-174.5"/>
<text text-anchor="middle" x="1195.06" y="-181.5" font-family="Helvetica,sans-Serif" font-size="10.00">Core/Index/IndexedObject.hpp</text>
</a>
</g>
</g>
<!-- Node2&#45;&gt;Node6 -->
<g id="edge5" class="edge"><title>Node2&#45;&gt;Node6</title>
<path fill="none" stroke="midnightblue" d="M1175.15,-584.401C1227.26,-571.991 1303.06,-543.535 1303.06,-483 1303.06,-483 1303.06,-483 1303.06,-307 1303.06,-257.31 1252.21,-218.37 1220.29,-198.823"/>
<polygon fill="midnightblue" stroke="midnightblue" points="1221.85,-195.68 1211.46,-193.61 1218.29,-201.708 1221.85,-195.68"/>
</g>
<!-- Node14 -->
<g id="node14" class="node"><title>Node14</title>
<g id="a_node14"><a xlink:href="Definition_8hpp.html" target="_top" xlink:title="Core/Mesh/DCEL/Definition.hpp">
<polygon fill="white" stroke="black" points="1287.06,-174.5 1287.06,-193.5 1445.06,-193.5 1445.06,-174.5 1287.06,-174.5"/>
<text text-anchor="middle" x="1366.06" y="-181.5" font-family="Helvetica,sans-Serif" font-size="10.00">Core/Mesh/DCEL/Definition.hpp</text>
</a>
</g>
</g>
<!-- Node2&#45;&gt;Node14 -->
<g id="edge14" class="edge"><title>Node2&#45;&gt;Node14</title>
<path fill="none" stroke="midnightblue" d="M1204.72,-590.615C1278.76,-583.695 1379.06,-560.094 1379.06,-483 1379.06,-483 1379.06,-483 1379.06,-307 1379.06,-270.207 1373.14,-227.522 1369.29,-203.647"/>
<polygon fill="midnightblue" stroke="midnightblue" points="1372.7,-202.831 1367.6,-193.545 1365.8,-203.986 1372.7,-202.831"/>
</g>
<!-- Node17 -->
<g id="node17" class="node"><title>Node17</title>
<g id="a_node17"><a xlink:href="FullEdge_8inl.html" target="_top" xlink:title="Core/Mesh/DCEL/FullEdge.inl">
<polygon fill="white" stroke="black" points="1052.56,-528.5 1052.56,-547.5 1201.56,-547.5 1201.56,-528.5 1052.56,-528.5"/>
<text text-anchor="middle" x="1127.06" y="-535.5" font-family="Helvetica,sans-Serif" font-size="10.00">Core/Mesh/DCEL/FullEdge.inl</text>
</a>
</g>
</g>
<!-- Node2&#45;&gt;Node17 -->
<g id="edge17" class="edge"><title>Node2&#45;&gt;Node17</title>
<path fill="none" stroke="midnightblue" d="M1121.89,-584.083C1120.38,-576.927 1119.95,-566.635 1120.6,-557.691"/>
<polygon fill="midnightblue" stroke="midnightblue" points="1124.07,-558.126 1121.92,-547.751 1117.13,-557.2 1124.07,-558.126"/>
</g>
<!-- Node4 -->
<g id="node4" class="node"><title>Node4</title>
<polygon fill="white" stroke="#bfbfbf" points="899.056,-56.5 899.056,-75.5 939.056,-75.5 939.056,-56.5 899.056,-56.5"/>
<text text-anchor="middle" x="919.056" y="-63.5" font-family="Helvetica,sans-Serif" font-size="10.00">limits</text>
</g>
<!-- Node3&#45;&gt;Node4 -->
<g id="edge3" class="edge"><title>Node3&#45;&gt;Node4</title>
<path fill="none" stroke="midnightblue" d="M956.625,-112.083C950.203,-104.377 940.75,-93.0333 932.934,-83.6531"/>
<polygon fill="midnightblue" stroke="midnightblue" points="935.439,-81.1927 926.349,-75.7511 930.062,-85.674 935.439,-81.1927"/>
</g>
<!-- Node5 -->
<g id="node5" class="node"><title>Node5</title>
<g id="a_node5"><a xlink:href="Index_8inl.html" target="_top" xlink:title="Core/Index/Index.inl">
<polygon fill="white" stroke="black" points="957.056,-56.5 957.056,-75.5 1061.06,-75.5 1061.06,-56.5 957.056,-56.5"/>
<text text-anchor="middle" x="1009.06" y="-63.5" font-family="Helvetica,sans-Serif" font-size="10.00">Core/Index/Index.inl</text>
</a>
</g>
</g>
<!-- Node3&#45;&gt;Node5 -->
<g id="edge4" class="edge"><title>Node3&#45;&gt;Node5</title>
<path fill="none" stroke="midnightblue" d="M971.487,-112.083C977.909,-104.377 987.362,-93.0333 995.178,-83.6531"/>
<polygon fill="midnightblue" stroke="midnightblue" points="998.05,-85.674 1001.76,-75.7511 992.673,-81.1927 998.05,-85.674"/>
</g>
<!-- Node6&#45;&gt;Node3 -->
<g id="edge6" class="edge"><title>Node6&#45;&gt;Node3</title>
<path fill="none" stroke="midnightblue" d="M1161.96,-174.403C1121.13,-163.799 1051.65,-145.751 1006.82,-134.107"/>
<polygon fill="midnightblue" stroke="midnightblue" points="1007.65,-130.707 997.091,-131.581 1005.89,-137.482 1007.65,-130.707"/>
</g>
<!-- Node7 -->
<g id="node7" class="node"><title>Node7</title>
<g id="a_node7"><a xlink:href="RaCore_8hpp.html" target="_top" xlink:title="Core/RaCore.hpp">
<polygon fill="white" stroke="black" points="1148.56,-112.5 1148.56,-131.5 1241.56,-131.5 1241.56,-112.5 1148.56,-112.5"/>
<text text-anchor="middle" x="1195.06" y="-119.5" font-family="Helvetica,sans-Serif" font-size="10.00">Core/RaCore.hpp</text>
</a>
</g>
</g>
<!-- Node6&#45;&gt;Node7 -->
<g id="edge7" class="edge"><title>Node6&#45;&gt;Node7</title>
<path fill="none" stroke="midnightblue" d="M1195.06,-174.403C1195.06,-165.938 1195.06,-152.728 1195.06,-141.82"/>
<polygon fill="midnightblue" stroke="midnightblue" points="1198.56,-141.581 1195.06,-131.581 1191.56,-141.581 1198.56,-141.581"/>
</g>
<!-- Node8 -->
<g id="node8" class="node"><title>Node8</title>
<g id="a_node8"><a xlink:href="CoreMacros_8hpp.html" target="_top" xlink:title="Core/CoreMacros.hpp">
<polygon fill="white" stroke="black" points="1138.56,-56.5 1138.56,-75.5 1251.56,-75.5 1251.56,-56.5 1138.56,-56.5"/>
<text text-anchor="middle" x="1195.06" y="-63.5" font-family="Helvetica,sans-Serif" font-size="10.00">Core/CoreMacros.hpp</text>
</a>
</g>
</g>
<!-- Node7&#45;&gt;Node8 -->
<g id="edge8" class="edge"><title>Node7&#45;&gt;Node8</title>
<path fill="none" stroke="midnightblue" d="M1195.06,-112.083C1195.06,-105.006 1195.06,-94.8611 1195.06,-85.9865"/>
<polygon fill="midnightblue" stroke="midnightblue" points="1198.56,-85.751 1195.06,-75.7511 1191.56,-85.7511 1198.56,-85.751"/>
</g>
<!-- Node9 -->
<g id="node9" class="node"><title>Node9</title>
<polygon fill="white" stroke="#bfbfbf" points="1039.56,-0.5 1039.56,-19.5 1088.56,-19.5 1088.56,-0.5 1039.56,-0.5"/>
<text text-anchor="middle" x="1064.06" y="-7.5" font-family="Helvetica,sans-Serif" font-size="10.00">cassert</text>
</g>
<!-- Node8&#45;&gt;Node9 -->
<g id="edge9" class="edge"><title>Node8&#45;&gt;Node9</title>
<path fill="none" stroke="midnightblue" d="M1174.3,-56.4435C1152.74,-47.5566 1118.79,-33.5632 1094.26,-23.4514"/>
<polygon fill="midnightblue" stroke="midnightblue" points="1095.3,-20.0917 1084.72,-19.5164 1092.63,-26.5634 1095.3,-20.0917"/>
</g>
<!-- Node10 -->
<g id="node10" class="node"><title>Node10</title>
<polygon fill="white" stroke="#bfbfbf" points="1106.56,-0.5 1106.56,-19.5 1149.56,-19.5 1149.56,-0.5 1106.56,-0.5"/>
<text text-anchor="middle" x="1128.06" y="-7.5" font-family="Helvetica,sans-Serif" font-size="10.00">cstdio</text>
</g>
<!-- Node8&#45;&gt;Node10 -->
<g id="edge10" class="edge"><title>Node8&#45;&gt;Node10</title>
<path fill="none" stroke="midnightblue" d="M1184.29,-56.324C1174.29,-48.2631 1159.17,-36.0765 1147.13,-26.3695"/>
<polygon fill="midnightblue" stroke="midnightblue" points="1149,-23.3841 1139.02,-19.8339 1144.61,-28.8343 1149,-23.3841"/>
</g>
<!-- Node11 -->
<g id="node11" class="node"><title>Node11</title>
<polygon fill="white" stroke="#bfbfbf" points="1168.06,-0.5 1168.06,-19.5 1222.06,-19.5 1222.06,-0.5 1168.06,-0.5"/>
<text text-anchor="middle" x="1195.06" y="-7.5" font-family="Helvetica,sans-Serif" font-size="10.00">iostream</text>
</g>
<!-- Node8&#45;&gt;Node11 -->
<g id="edge11" class="edge"><title>Node8&#45;&gt;Node11</title>
<path fill="none" stroke="midnightblue" d="M1195.06,-56.083C1195.06,-49.0059 1195.06,-38.8611 1195.06,-29.9865"/>
<polygon fill="midnightblue" stroke="midnightblue" points="1198.56,-29.751 1195.06,-19.7511 1191.56,-29.7511 1198.56,-29.751"/>
</g>
<!-- Node12 -->
<g id="node12" class="node"><title>Node12</title>
<polygon fill="white" stroke="#bfbfbf" points="1240.06,-0.5 1240.06,-19.5 1292.06,-19.5 1292.06,-0.5 1240.06,-0.5"/>
<text text-anchor="middle" x="1266.06" y="-7.5" font-family="Helvetica,sans-Serif" font-size="10.00">sstream</text>
</g>
<!-- Node8&#45;&gt;Node12 -->
<g id="edge12" class="edge"><title>Node8&#45;&gt;Node12</title>
<path fill="none" stroke="midnightblue" d="M1206.46,-56.324C1217.16,-48.1849 1233.4,-35.8395 1246.22,-26.0874"/>
<polygon fill="midnightblue" stroke="midnightblue" points="1248.6,-28.6734 1254.44,-19.8339 1244.36,-23.1018 1248.6,-28.6734"/>
</g>
<!-- Node13 -->
<g id="node13" class="node"><title>Node13</title>
<polygon fill="white" stroke="#bfbfbf" points="1310.06,-0.5 1310.06,-19.5 1354.06,-19.5 1354.06,-0.5 1310.06,-0.5"/>
<text text-anchor="middle" x="1332.06" y="-7.5" font-family="Helvetica,sans-Serif" font-size="10.00">thread</text>
</g>
<!-- Node8&#45;&gt;Node13 -->
<g id="edge13" class="edge"><title>Node8&#45;&gt;Node13</title>
<path fill="none" stroke="midnightblue" d="M1216.76,-56.4435C1239.41,-47.5171 1275.13,-33.4387 1300.81,-23.3168"/>
<polygon fill="midnightblue" stroke="midnightblue" points="1302.43,-26.4397 1310.45,-19.5164 1299.86,-19.9273 1302.43,-26.4397"/>
</g>
<!-- Node15 -->
<g id="node15" class="node"><title>Node15</title>
<polygon fill="white" stroke="#bfbfbf" points="1340.06,-112.5 1340.06,-131.5 1392.06,-131.5 1392.06,-112.5 1340.06,-112.5"/>
<text text-anchor="middle" x="1366.06" y="-119.5" font-family="Helvetica,sans-Serif" font-size="10.00">memory</text>
</g>
<!-- Node14&#45;&gt;Node15 -->
<g id="edge15" class="edge"><title>Node14&#45;&gt;Node15</title>
<path fill="none" stroke="midnightblue" d="M1366.06,-174.403C1366.06,-165.938 1366.06,-152.728 1366.06,-141.82"/>
<polygon fill="midnightblue" stroke="midnightblue" points="1369.56,-141.581 1366.06,-131.581 1362.56,-141.581 1369.56,-141.581"/>
</g>
<!-- Node16 -->
<g id="node16" class="node"><title>Node16</title>
<polygon fill="white" stroke="#bfbfbf" points="1520.06,-112.5 1520.06,-131.5 1564.06,-131.5 1564.06,-112.5 1520.06,-112.5"/>
<text text-anchor="middle" x="1542.06" y="-119.5" font-family="Helvetica,sans-Serif" font-size="10.00">vector</text>
</g>
<!-- Node14&#45;&gt;Node16 -->
<g id="edge16" class="edge"><title>Node14&#45;&gt;Node16</title>
<path fill="none" stroke="midnightblue" d="M1391.27,-174.403C1422.68,-163.698 1476.34,-145.404 1510.45,-133.774"/>
<polygon fill="midnightblue" stroke="midnightblue" points="1511.61,-137.077 1519.95,-130.538 1509.35,-130.452 1511.61,-137.077"/>
</g>
<!-- Node17&#45;&gt;Node2 -->
<g id="edge18" class="edge"><title>Node17&#45;&gt;Node2</title>
<path fill="none" stroke="midnightblue" d="M1132.19,-547.751C1133.71,-554.858 1134.16,-565.136 1133.53,-574.101"/>
<polygon fill="midnightblue" stroke="midnightblue" points="1130.05,-573.713 1132.22,-584.083 1136.99,-574.622 1130.05,-573.713"/>
</g>
<!-- Node18 -->
<g id="node18" class="node"><title>Node18</title>
<g id="a_node18"><a xlink:href="Face_8hpp.html" target="_top" xlink:title="Core/Mesh/DCEL/Face.hpp">
<polygon fill="white" stroke="black" points="981.056,-236.5 981.056,-255.5 1119.06,-255.5 1119.06,-236.5 981.056,-236.5"/>
<text text-anchor="middle" x="1050.06" y="-243.5" font-family="Helvetica,sans-Serif" font-size="10.00">Core/Mesh/DCEL/Face.hpp</text>
</a>
</g>
</g>
<!-- Node17&#45;&gt;Node18 -->
<g id="edge19" class="edge"><title>Node17&#45;&gt;Node18</title>
<path fill="none" stroke="midnightblue" d="M1132.52,-528.462C1153.22,-494.907 1223.03,-370.109 1169.06,-292 1157.83,-275.752 1139.93,-265.364 1121.38,-258.725"/>
<polygon fill="midnightblue" stroke="midnightblue" points="1122.25,-255.328 1111.66,-255.584 1120.1,-261.989 1122.25,-255.328"/>
</g>
<!-- Node17&#45;&gt;Node20 -->
<g id="edge53" class="edge"><title>Node17&#45;&gt;Node20</title>
<path fill="none" stroke="midnightblue" d="M1125,-528.372C1119.38,-506.525 1101.72,-448.462 1066.06,-416 1050.56,-401.9 1029.84,-390.95 1012.5,-383.383"/>
<polygon fill="midnightblue" stroke="midnightblue" points="1013.85,-380.153 1003.27,-379.529 1011.15,-386.612 1013.85,-380.153"/>
</g>
<!-- Node17&#45;&gt;Node22 -->
<g id="edge54" class="edge"><title>Node17&#45;&gt;Node22</title>
<path fill="none" stroke="midnightblue" d="M1110.03,-528.324C1093.03,-519.664 1066.68,-506.242 1047.06,-496.249"/>
<polygon fill="midnightblue" stroke="midnightblue" points="1048.54,-493.075 1038.04,-491.655 1045.37,-499.312 1048.54,-493.075"/>
</g>
<!-- Node18&#45;&gt;Node3 -->
<g id="edge20" class="edge"><title>Node18&#45;&gt;Node3</title>
<path fill="none" stroke="midnightblue" d="M1057.34,-236.214C1068.91,-221.138 1088.73,-189.856 1074.06,-168 1063.14,-151.734 1045.18,-141.344 1026.92,-134.708"/>
<polygon fill="midnightblue" stroke="midnightblue" points="1027.97,-131.369 1017.37,-131.569 1025.78,-138.018 1027.97,-131.369"/>
</g>
<!-- Node18&#45;&gt;Node6 -->
<g id="edge21" class="edge"><title>Node18&#45;&gt;Node6</title>
<path fill="none" stroke="midnightblue" d="M1070.83,-236.403C1095.49,-226.2 1136.8,-209.105 1164.96,-197.454"/>
<polygon fill="midnightblue" stroke="midnightblue" points="1166.42,-200.638 1174.32,-193.581 1163.74,-194.17 1166.42,-200.638"/>
</g>
<!-- Node18&#45;&gt;Node14 -->
<g id="edge22" class="edge"><title>Node18&#45;&gt;Node14</title>
<path fill="none" stroke="midnightblue" d="M1095,-236.467C1151.97,-225.649 1250.14,-207.009 1311.4,-195.378"/>
<polygon fill="midnightblue" stroke="midnightblue" points="1312.1,-198.807 1321.27,-193.503 1310.79,-191.93 1312.1,-198.807"/>
</g>
<!-- Node19 -->
<g id="node19" class="node"><title>Node19</title>
<g id="a_node19"><a xlink:href="Face_8inl.html" target="_top" xlink:title="Core/Mesh/DCEL/Face.inl">
<polygon fill="white" stroke="black" points="933.056,-174.5 933.056,-193.5 1065.06,-193.5 1065.06,-174.5 933.056,-174.5"/>
<text text-anchor="middle" x="999.056" y="-181.5" font-family="Helvetica,sans-Serif" font-size="10.00">Core/Mesh/DCEL/Face.inl</text>
</a>
</g>
</g>
<!-- Node18&#45;&gt;Node19 -->
<g id="edge23" class="edge"><title>Node18&#45;&gt;Node19</title>
<path fill="none" stroke="midnightblue" d="M1037.85,-236.403C1028.25,-227.403 1015.63,-213.041 1007.19,-201.782"/>
<polygon fill="midnightblue" stroke="midnightblue" points="1010.05,-199.768 1001.45,-193.581 1004.32,-203.781 1010.05,-199.768"/>
</g>
<!-- Node19&#45;&gt;Node18 -->
<g id="edge24" class="edge"><title>Node19&#45;&gt;Node18</title>
<path fill="none" stroke="midnightblue" d="M1011.25,-193.581C1020.84,-202.574 1033.46,-216.936 1041.91,-228.198"/>
<polygon fill="midnightblue" stroke="midnightblue" points="1039.05,-230.218 1047.65,-236.403 1044.78,-226.204 1039.05,-230.218"/>
</g>
<!-- Node19&#45;&gt;Node20 -->
<g id="edge25" class="edge"><title>Node19&#45;&gt;Node20</title>
<path fill="none" stroke="midnightblue" d="M993.142,-193.566C986.73,-203.344 976.779,-220.054 972.056,-236 960.93,-273.561 961.966,-285.158 967.056,-324 968.212,-332.819 970.59,-342.367 972.926,-350.39"/>
<polygon fill="midnightblue" stroke="midnightblue" points="969.657,-351.663 975.968,-360.173 976.341,-349.585 969.657,-351.663"/>
</g>
<!-- Node20&#45;&gt;Node3 -->
<g id="edge26" class="edge"><title>Node20&#45;&gt;Node3</title>
<path fill="none" stroke="midnightblue" d="M975.093,-360.458C964.049,-336.085 933.136,-263.844 924.056,-200 922.053,-185.919 919.002,-181.294 924.056,-168 928.391,-156.598 937.087,-146.239 945.266,-138.343"/>
<polygon fill="midnightblue" stroke="midnightblue" points="947.697,-140.863 952.79,-131.573 943.015,-135.66 947.697,-140.863"/>
</g>
<!-- Node20&#45;&gt;Node6 -->
<g id="edge27" class="edge"><title>Node20&#45;&gt;Node6</title>
<path fill="none" stroke="midnightblue" d="M978.825,-360.262C978.901,-344.403 981.416,-310.788 1000.06,-292 1041.68,-250.048 1077.5,-286.6 1128.06,-256 1150.84,-242.208 1170.9,-218.593 1183,-202.412"/>
<polygon fill="midnightblue" stroke="midnightblue" points="1186.14,-204.032 1189.16,-193.875 1180.47,-199.936 1186.14,-204.032"/>
</g>
<!-- Node20&#45;&gt;Node14 -->
<g id="edge28" class="edge"><title>Node20&#45;&gt;Node14</title>
<path fill="none" stroke="midnightblue" d="M1040.89,-360.498C1079.02,-353.779 1128.26,-342.389 1169.06,-324 1242.27,-290.997 1316.39,-229.391 1348.94,-200.591"/>
<polygon fill="midnightblue" stroke="midnightblue" points="1351.52,-202.977 1356.64,-193.7 1346.85,-197.761 1351.52,-202.977"/>
</g>
<!-- Node21 -->
<g id="node21" class="node"><title>Node21</title>
<g id="a_node21"><a xlink:href="DCEL_2HalfEdge_8inl.html" target="_top" xlink:title="Core/Mesh/DCEL/HalfEdge.inl">
<polygon fill="white" stroke="black" points="1009.56,-298.5 1009.56,-317.5 1160.56,-317.5 1160.56,-298.5 1009.56,-298.5"/>
<text text-anchor="middle" x="1085.06" y="-305.5" font-family="Helvetica,sans-Serif" font-size="10.00">Core/Mesh/DCEL/HalfEdge.inl</text>
</a>
</g>
</g>
<!-- Node20&#45;&gt;Node21 -->
<g id="edge29" class="edge"><title>Node20&#45;&gt;Node21</title>
<path fill="none" stroke="midnightblue" d="M989.343,-360.403C1004.82,-350.423 1033.83,-333.849 1055.98,-322.225"/>
<polygon fill="midnightblue" stroke="midnightblue" points="1057.71,-325.272 1065,-317.581 1054.51,-319.049 1057.71,-325.272"/>
</g>
<!-- Node21&#45;&gt;Node18 -->
<g id="edge31" class="edge"><title>Node21&#45;&gt;Node18</title>
<path fill="none" stroke="midnightblue" d="M1080.04,-298.403C1074.9,-289.582 1066.74,-275.608 1060.24,-264.455"/>
<polygon fill="midnightblue" stroke="midnightblue" points="1063.12,-262.455 1055.06,-255.581 1057.08,-265.982 1063.12,-262.455"/>
</g>
<!-- Node21&#45;&gt;Node20 -->
<g id="edge30" class="edge"><title>Node21&#45;&gt;Node20</title>
<path fill="none" stroke="midnightblue" d="M1074.79,-317.581C1059.34,-327.554 1030.33,-344.127 1008.16,-355.756"/>
<polygon fill="midnightblue" stroke="midnightblue" points="1006.43,-352.712 999.144,-360.403 1009.64,-358.935 1006.43,-352.712"/>
</g>
<!-- Node21&#45;&gt;Node22 -->
<g id="edge32" class="edge"><title>Node21&#45;&gt;Node22</title>
<path fill="none" stroke="midnightblue" d="M1085.56,-317.564C1086.44,-338.856 1086.53,-395.389 1066.06,-436 1060.19,-447.632 1050.18,-458.095 1041.09,-465.999"/>
<polygon fill="midnightblue" stroke="midnightblue" points="1038.67,-463.457 1033.15,-472.497 1043.1,-468.875 1038.67,-463.457"/>
</g>
<!-- Node22&#45;&gt;Node3 -->
<g id="edge33" class="edge"><title>Node22&#45;&gt;Node3</title>
<path fill="none" stroke="midnightblue" d="M985.338,-472.429C939.845,-459.134 867.056,-428.827 867.056,-371 867.056,-371 867.056,-371 867.056,-245 867.056,-197.426 912.806,-157.655 941.467,-137.408"/>
<polygon fill="midnightblue" stroke="midnightblue" points="943.453,-140.29 949.743,-131.764 939.51,-134.507 943.453,-140.29"/>
</g>
<!-- Node22&#45;&gt;Node6 -->
<g id="edge34" class="edge"><title>Node22&#45;&gt;Node6</title>
<path fill="none" stroke="midnightblue" d="M1035.5,-472.453C1048.91,-464.125 1069.02,-450.611 1084.06,-436 1128.88,-392.457 1143.74,-381.134 1169.06,-324 1186.98,-283.541 1192.55,-231.146 1194.28,-203.681"/>
<polygon fill="midnightblue" stroke="midnightblue" points="1197.79,-203.714 1194.81,-193.544 1190.79,-203.348 1197.79,-203.714"/>
</g>
<!-- Node22&#45;&gt;Node14 -->
<g id="edge49" class="edge"><title>Node22&#45;&gt;Node14</title>
<path fill="none" stroke="midnightblue" d="M1040.8,-472.404C1058.93,-464.14 1086.22,-450.756 1108.06,-436 1209.64,-367.372 1235.13,-347.192 1317.06,-256 1332.16,-239.184 1346.49,-217.516 1355.7,-202.563"/>
<polygon fill="midnightblue" stroke="midnightblue" points="1358.81,-204.195 1360.98,-193.825 1352.81,-200.578 1358.81,-204.195"/>
</g>
<!-- Node23 -->
<g id="node23" class="node"><title>Node23</title>
<g id="a_node23"><a xlink:href="LinearAlgebra_8hpp.html" target="_top" xlink:title="Core/Math/LinearAlgebra.hpp">
<polygon fill="white" stroke="black" points="472.556,-236.5 472.556,-255.5 615.556,-255.5 615.556,-236.5 472.556,-236.5"/>
<text text-anchor="middle" x="544.056" y="-243.5" font-family="Helvetica,sans-Serif" font-size="10.00">Core/Math/LinearAlgebra.hpp</text>
</a>
</g>
</g>
<!-- Node22&#45;&gt;Node23 -->
<g id="edge35" class="edge"><title>Node22&#45;&gt;Node23</title>
<path fill="none" stroke="midnightblue" d="M975.309,-472.466C940.841,-465.156 892.875,-453.086 853.056,-436 736.059,-385.798 610.86,-296.796 563.602,-261.759"/>
<polygon fill="midnightblue" stroke="midnightblue" points="565.567,-258.858 555.459,-255.682 561.38,-264.468 565.567,-258.858"/>
</g>
<!-- Node34 -->
<g id="node34" class="node"><title>Node34</title>
<g id="a_node34"><a xlink:href="Vertex_8inl.html" target="_top" xlink:title="Core/Mesh/DCEL/Vertex.inl">
<polygon fill="white" stroke="black" points="918.556,-416.5 918.556,-435.5 1057.56,-435.5 1057.56,-416.5 918.556,-416.5"/>
<text text-anchor="middle" x="988.056" y="-423.5" font-family="Helvetica,sans-Serif" font-size="10.00">Core/Mesh/DCEL/Vertex.inl</text>
</a>
</g>
</g>
<!-- Node22&#45;&gt;Node34 -->
<g id="edge50" class="edge"><title>Node22&#45;&gt;Node34</title>
<path fill="none" stroke="midnightblue" d="M1010.44,-472.083C1004.36,-464.691 997.394,-453.953 992.551,-444.811"/>
<polygon fill="midnightblue" stroke="midnightblue" points="995.708,-443.299 988.273,-435.751 989.378,-446.288 995.708,-443.299"/>
</g>
<!-- Node23&#45;&gt;Node7 -->
<g id="edge36" class="edge"><title>Node23&#45;&gt;Node7</title>
<path fill="none" stroke="midnightblue" d="M604.921,-236.49C658.858,-228.515 739.603,-215.516 809.056,-200 860.833,-188.433 872.258,-179.473 924.056,-168 997.481,-151.737 1083.27,-138.435 1138.34,-130.617"/>
<polygon fill="midnightblue" stroke="midnightblue" points="1138.84,-134.082 1148.25,-129.222 1137.86,-127.15 1138.84,-134.082"/>
</g>
<!-- Node24 -->
<g id="node24" class="node"><title>Node24</title>
<polygon fill="white" stroke="#bfbfbf" points="630.556,-174.5 630.556,-193.5 695.556,-193.5 695.556,-174.5 630.556,-174.5"/>
<text text-anchor="middle" x="663.056" y="-181.5" font-family="Helvetica,sans-Serif" font-size="10.00">Eigen/Core</text>
</g>
<!-- Node23&#45;&gt;Node24 -->
<g id="edge37" class="edge"><title>Node23&#45;&gt;Node24</title>
<path fill="none" stroke="midnightblue" d="M561.106,-236.403C580.9,-226.423 613.773,-209.849 636.826,-198.225"/>
<polygon fill="midnightblue" stroke="midnightblue" points="638.684,-201.208 646.038,-193.581 635.533,-194.958 638.684,-201.208"/>
</g>
<!-- Node25 -->
<g id="node25" class="node"><title>Node25</title>
<polygon fill="white" stroke="#bfbfbf" points="713.556,-174.5 713.556,-193.5 800.556,-193.5 800.556,-174.5 713.556,-174.5"/>
<text text-anchor="middle" x="757.056" y="-181.5" font-family="Helvetica,sans-Serif" font-size="10.00">Eigen/Geometry</text>
</g>
<!-- Node23&#45;&gt;Node25 -->
<g id="edge38" class="edge"><title>Node23&#45;&gt;Node25</title>
<path fill="none" stroke="midnightblue" d="M574.436,-236.472C606.623,-227.432 658.928,-212.732 704.056,-200 708.198,-198.832 712.521,-197.61 716.834,-196.391"/>
<polygon fill="midnightblue" stroke="midnightblue" points="718.119,-199.665 726.789,-193.575 716.214,-192.929 718.119,-199.665"/>
</g>
<!-- Node26 -->
<g id="node26" class="node"><title>Node26</title>
<polygon fill="white" stroke="#bfbfbf" points="30.556,-174.5 30.556,-193.5 105.556,-193.5 105.556,-174.5 30.556,-174.5"/>
<text text-anchor="middle" x="68.056" y="-181.5" font-family="Helvetica,sans-Serif" font-size="10.00">Eigen/Sparse</text>
</g>
<!-- Node23&#45;&gt;Node26 -->
<g id="edge39" class="edge"><title>Node23&#45;&gt;Node26</title>
<path fill="none" stroke="midnightblue" d="M472.194,-242.112C386.22,-237.596 238.312,-226.451 114.056,-200 109.804,-199.095 105.392,-197.943 101.057,-196.681"/>
<polygon fill="midnightblue" stroke="midnightblue" points="101.786,-193.241 91.1971,-193.6 99.6981,-199.923 101.786,-193.241"/>
</g>
<!-- Node27 -->
<g id="node27" class="node"><title>Node27</title>
<polygon fill="white" stroke="#bfbfbf" points="247.556,-174.5 247.556,-193.5 306.556,-193.5 306.556,-174.5 247.556,-174.5"/>
<text text-anchor="middle" x="277.056" y="-181.5" font-family="Helvetica,sans-Serif" font-size="10.00">functional</text>
</g>
<!-- Node23&#45;&gt;Node27 -->
<g id="edge40" class="edge"><title>Node23&#45;&gt;Node27</title>
<path fill="none" stroke="midnightblue" d="M484.993,-236.427C438.326,-228.929 371.825,-216.632 315.056,-200 312.248,-199.177 309.359,-198.23 306.487,-197.221"/>
<polygon fill="midnightblue" stroke="midnightblue" points="307.526,-193.872 296.934,-193.634 305.065,-200.426 307.526,-193.872"/>
</g>
<!-- Node28 -->
<g id="node28" class="node"><title>Node28</title>
<polygon fill="white" stroke="#bfbfbf" points="324.556,-169 324.556,-199 457.556,-199 457.556,-169 324.556,-169"/>
<text text-anchor="start" x="332.556" y="-187" font-family="Helvetica,sans-Serif" font-size="10.00">unsupported/Eigen/Aligned</text>
<text text-anchor="middle" x="391.056" y="-176" font-family="Helvetica,sans-Serif" font-size="10.00">Vector3</text>
</g>
<!-- Node23&#45;&gt;Node28 -->
<g id="edge41" class="edge"><title>Node23&#45;&gt;Node28</title>
<path fill="none" stroke="midnightblue" d="M522.135,-236.403C499.79,-227.641 464.481,-213.794 436.137,-202.679"/>
<polygon fill="midnightblue" stroke="midnightblue" points="437.408,-199.418 426.821,-199.025 434.852,-205.935 437.408,-199.418"/>
</g>
<!-- Node29 -->
<g id="node29" class="node"><title>Node29</title>
<g id="a_node29"><a xlink:href="Math_8hpp.html" target="_top" xlink:title="Core/Math/Math.hpp">
<polygon fill="white" stroke="black" points="123.056,-174.5 123.056,-193.5 229.056,-193.5 229.056,-174.5 123.056,-174.5"/>
<text text-anchor="middle" x="176.056" y="-181.5" font-family="Helvetica,sans-Serif" font-size="10.00">Core/Math/Math.hpp</text>
</a>
</g>
</g>
<!-- Node23&#45;&gt;Node29 -->
<g id="edge42" class="edge"><title>Node23&#45;&gt;Node29</title>
<path fill="none" stroke="midnightblue" d="M473.56,-236.492C411.339,-228.541 318.311,-215.576 238.056,-200 231.778,-198.782 225.177,-197.349 218.718,-195.862"/>
<polygon fill="midnightblue" stroke="midnightblue" points="219.291,-192.401 208.754,-193.502 217.678,-199.213 219.291,-192.401"/>
</g>
<!-- Node33 -->
<g id="node33" class="node"><title>Node33</title>
<g id="a_node33"><a xlink:href="LinearAlgebra_8inl.html" target="_top" xlink:title="Core/Math/LinearAlgebra.inl">
<polygon fill="white" stroke="black" points="475.556,-174.5 475.556,-193.5 612.556,-193.5 612.556,-174.5 475.556,-174.5"/>
<text text-anchor="middle" x="544.056" y="-181.5" font-family="Helvetica,sans-Serif" font-size="10.00">Core/Math/LinearAlgebra.inl</text>
</a>
</g>
</g>
<!-- Node23&#45;&gt;Node33 -->
<g id="edge48" class="edge"><title>Node23&#45;&gt;Node33</title>
<path fill="none" stroke="midnightblue" d="M544.056,-236.403C544.056,-227.938 544.056,-214.728 544.056,-203.82"/>
<polygon fill="midnightblue" stroke="midnightblue" points="547.556,-203.581 544.056,-193.581 540.556,-203.581 547.556,-203.581"/>
</g>
<!-- Node29&#45;&gt;Node7 -->
<g id="edge43" class="edge"><title>Node29&#45;&gt;Node7</title>
<path fill="none" stroke="midnightblue" d="M206.42,-174.424C216.417,-171.931 227.64,-169.483 238.056,-168 586.021,-118.447 677.014,-149.457 1028.06,-132 1064.69,-130.178 1105.84,-127.963 1138.12,-126.186"/>
<polygon fill="midnightblue" stroke="midnightblue" points="1138.48,-129.671 1148.27,-125.625 1138.09,-122.682 1138.48,-129.671"/>
</g>
<!-- Node30 -->
<g id="node30" class="node"><title>Node30</title>
<polygon fill="white" stroke="#bfbfbf" points="1263.06,-112.5 1263.06,-131.5 1319.06,-131.5 1319.06,-112.5 1263.06,-112.5"/>
<text text-anchor="middle" x="1291.06" y="-119.5" font-family="Helvetica,sans-Serif" font-size="10.00">algorithm</text>
</g>
<!-- Node29&#45;&gt;Node30 -->
<g id="edge44" class="edge"><title>Node29&#45;&gt;Node30</title>
<path fill="none" stroke="midnightblue" d="M206.096,-174.441C216.171,-171.917 227.523,-169.446 238.056,-168 683.934,-106.772 803.552,-188.478 1250.06,-132 1250.97,-131.884 1251.9,-131.757 1252.83,-131.621"/>
<polygon fill="midnightblue" stroke="midnightblue" points="1253.69,-135.026 1262.94,-129.872 1252.49,-128.129 1253.69,-135.026"/>
</g>
<!-- Node31 -->
<g id="node31" class="node"><title>Node31</title>
<polygon fill="white" stroke="#bfbfbf" points="244.056,-112.5 244.056,-131.5 288.056,-131.5 288.056,-112.5 244.056,-112.5"/>
<text text-anchor="middle" x="266.056" y="-119.5" font-family="Helvetica,sans-Serif" font-size="10.00">cmath</text>
</g>
<!-- Node29&#45;&gt;Node31 -->
<g id="edge45" class="edge"><title>Node29&#45;&gt;Node31</title>
<path fill="none" stroke="midnightblue" d="M188.951,-174.403C203.52,-164.691 227.458,-148.732 244.801,-137.17"/>
<polygon fill="midnightblue" stroke="midnightblue" points="246.806,-140.04 253.185,-131.581 242.923,-134.215 246.806,-140.04"/>
</g>
<!-- Node32 -->
<g id="node32" class="node"><title>Node32</title>
<g id="a_node32"><a xlink:href="Math_8inl.html" target="_top" xlink:title="Core/Math/Math.inl">
<polygon fill="white" stroke="black" points="126.056,-112.5 126.056,-131.5 226.056,-131.5 226.056,-112.5 126.056,-112.5"/>
<text text-anchor="middle" x="176.056" y="-119.5" font-family="Helvetica,sans-Serif" font-size="10.00">Core/Math/Math.inl</text>
</a>
</g>
</g>
<!-- Node29&#45;&gt;Node32 -->
<g id="edge46" class="edge"><title>Node29&#45;&gt;Node32</title>
<path fill="none" stroke="midnightblue" d="M171.155,-174.403C169.324,-165.938 168.853,-152.728 169.741,-141.82"/>
<polygon fill="midnightblue" stroke="midnightblue" points="173.254,-141.966 171.159,-131.581 166.32,-141.006 173.254,-141.966"/>
</g>
<!-- Node32&#45;&gt;Node29 -->
<g id="edge47" class="edge"><title>Node32&#45;&gt;Node29</title>
<path fill="none" stroke="midnightblue" d="M180.953,-131.581C182.786,-140.04 183.259,-153.248 182.373,-164.16"/>
<polygon fill="midnightblue" stroke="midnightblue" points="178.859,-164.018 180.957,-174.403 185.793,-164.977 178.859,-164.018"/>
</g>
<!-- Node34&#45;&gt;Node20 -->
<g id="edge52" class="edge"><title>Node34&#45;&gt;Node20</title>
<path fill="none" stroke="midnightblue" d="M986.57,-416.083C985.377,-408.927 983.662,-398.635 982.171,-389.691"/>
<polygon fill="midnightblue" stroke="midnightblue" points="985.611,-389.04 980.515,-379.751 978.706,-390.19 985.611,-389.04"/>
</g>
<!-- Node34&#45;&gt;Node22 -->
<g id="edge51" class="edge"><title>Node34&#45;&gt;Node22</title>
<path fill="none" stroke="midnightblue" d="M998.535,-435.751C1004.6,-443.092 1011.58,-453.817 1016.45,-462.983"/>
<polygon fill="midnightblue" stroke="midnightblue" points="1013.32,-464.551 1020.77,-472.083 1019.65,-461.548 1013.32,-464.551"/>
</g>
<!-- Node35&#45;&gt;Node7 -->
<g id="edge71" class="edge"><title>Node35&#45;&gt;Node7</title>
<path fill="none" stroke="midnightblue" d="M1482.02,-292.803C1485.03,-264.648 1487.28,-201.57 1453.06,-168 1449.46,-164.47 1326.95,-144.222 1252.06,-132.122"/>
<polygon fill="midnightblue" stroke="midnightblue" points="1252.26,-128.608 1241.83,-130.471 1251.14,-135.519 1252.26,-128.608"/>
</g>
<!-- Node36 -->
<g id="node36" class="node"><title>Node36</title>
<g id="a_node36"><a xlink:href="Dcel_8hpp.html" target="_top" xlink:title="Core/Mesh/DCEL/Dcel.hpp">
<polygon fill="white" stroke="black" points="1501.56,-236.5 1501.56,-255.5 1638.56,-255.5 1638.56,-236.5 1501.56,-236.5"/>
<text text-anchor="middle" x="1570.06" y="-243.5" font-family="Helvetica,sans-Serif" font-size="10.00">Core/Mesh/DCEL/Dcel.hpp</text>
</a>
</g>
</g>
<!-- Node35&#45;&gt;Node36 -->
<g id="edge57" class="edge"><title>Node35&#45;&gt;Node36</title>
<path fill="none" stroke="midnightblue" d="M1501.38,-292.781C1515.63,-283.286 1534.29,-270.843 1548.57,-261.327"/>
<polygon fill="midnightblue" stroke="midnightblue" points="1550.84,-264.015 1557.22,-255.556 1546.96,-258.191 1550.84,-264.015"/>
</g>
<!-- Node36&#45;&gt;Node6 -->
<g id="edge66" class="edge"><title>Node36&#45;&gt;Node6</title>
<path fill="none" stroke="midnightblue" d="M1511.81,-236.478C1452.83,-227.74 1359,-213.549 1278.06,-200 1269.35,-198.542 1260.13,-196.939 1251.14,-195.339"/>
<polygon fill="midnightblue" stroke="midnightblue" points="1251.58,-191.862 1241.12,-193.543 1250.34,-198.752 1251.58,-191.862"/>
</g>
<!-- Node36&#45;&gt;Node14 -->
<g id="edge67" class="edge"><title>Node36&#45;&gt;Node14</title>
<path fill="none" stroke="midnightblue" d="M1540.83,-236.403C1505.15,-225.911 1444.7,-208.129 1405.07,-196.476"/>
<polygon fill="midnightblue" stroke="midnightblue" points="1405.81,-193.045 1395.23,-193.581 1403.84,-199.76 1405.81,-193.045"/>
</g>
<!-- Node36&#45;&gt;Node16 -->
<g id="edge68" class="edge"><title>Node36&#45;&gt;Node16</title>
<path fill="none" stroke="midnightblue" d="M1595.22,-236.378C1611.48,-229.343 1631.35,-217.645 1641.06,-200 1647.91,-187.539 1648.76,-179.958 1641.06,-168 1626.43,-145.287 1597.23,-133.906 1574.31,-128.285"/>
<polygon fill="midnightblue" stroke="midnightblue" points="1574.82,-124.813 1564.3,-126.087 1573.31,-131.65 1574.82,-124.813"/>
</g>
<!-- Node37 -->
<g id="node37" class="node"><title>Node37</title>
<g id="a_node37"><a xlink:href="IndexMap_8hpp.html" target="_top" xlink:title="Core/Index/IndexMap.hpp">
<polygon fill="white" stroke="black" points="1689.56,-174.5 1689.56,-193.5 1818.56,-193.5 1818.56,-174.5 1689.56,-174.5"/>
<text text-anchor="middle" x="1754.06" y="-181.5" font-family="Helvetica,sans-Serif" font-size="10.00">Core/Index/IndexMap.hpp</text>
</a>
</g>
</g>
<!-- Node36&#45;&gt;Node37 -->
<g id="edge58" class="edge"><title>Node36&#45;&gt;Node37</title>
<path fill="none" stroke="midnightblue" d="M1596.42,-236.403C1628.39,-225.978 1682.43,-208.356 1718.18,-196.699"/>
<polygon fill="midnightblue" stroke="midnightblue" points="1719.32,-200.008 1727.74,-193.581 1717.15,-193.353 1719.32,-200.008"/>
</g>
<!-- Node41 -->
<g id="node41" class="node"><title>Node41</title>
<g id="a_node41"><a xlink:href="Dcel_8inl.html" target="_top" xlink:title="Core/Mesh/DCEL/Dcel.inl">
<polygon fill="white" stroke="black" points="1501.56,-174.5 1501.56,-193.5 1632.56,-193.5 1632.56,-174.5 1501.56,-174.5"/>
<text text-anchor="middle" x="1567.06" y="-181.5" font-family="Helvetica,sans-Serif" font-size="10.00">Core/Mesh/DCEL/Dcel.inl</text>
</a>
</g>
</g>
<!-- Node36&#45;&gt;Node41 -->
<g id="edge69" class="edge"><title>Node36&#45;&gt;Node41</title>
<path fill="none" stroke="midnightblue" d="M1564.73,-236.403C1562.47,-227.938 1561.34,-214.728 1561.68,-203.82"/>
<polygon fill="midnightblue" stroke="midnightblue" points="1565.19,-203.85 1562.59,-193.581 1558.22,-203.233 1565.19,-203.85"/>
</g>
<!-- Node37&#45;&gt;Node3 -->
<g id="edge63" class="edge"><title>Node37&#45;&gt;Node3</title>
<path fill="none" stroke="midnightblue" d="M1695.49,-174.483C1678.01,-172.141 1658.78,-169.763 1641.06,-168 1523.58,-156.312 1175.04,-135.34 1029.28,-126.787"/>
<polygon fill="midnightblue" stroke="midnightblue" points="1029.33,-123.284 1019.14,-126.193 1028.92,-130.272 1029.33,-123.284"/>
</g>
<!-- Node37&#45;&gt;Node7 -->
<g id="edge59" class="edge"><title>Node37&#45;&gt;Node7</title>
<path fill="none" stroke="midnightblue" d="M1693.12,-174.466C1676.27,-172.227 1657.97,-169.908 1641.06,-168 1469.4,-148.631 1425.51,-153.034 1254.06,-132 1253.3,-131.908 1252.55,-131.813 1251.79,-131.717"/>
<polygon fill="midnightblue" stroke="midnightblue" points="1252.09,-128.228 1241.72,-130.376 1251.17,-135.166 1252.09,-128.228"/>
</g>
<!-- Node37&#45;&gt;Node30 -->
<g id="edge60" class="edge"><title>Node37&#45;&gt;Node30</title>
<path fill="none" stroke="midnightblue" d="M1691.32,-174.487C1674.96,-172.318 1657.36,-170.028 1641.06,-168 1503.41,-150.873 1467.8,-155.256 1331.06,-132 1330.46,-131.899 1329.87,-131.795 1329.27,-131.689"/>
<polygon fill="midnightblue" stroke="midnightblue" points="1329.87,-128.241 1319.39,-129.764 1328.54,-135.112 1329.87,-128.241"/>
</g>
<!-- Node38 -->
<g id="node38" class="node"><title>Node38</title>
<polygon fill="white" stroke="#bfbfbf" points="1781.06,-112.5 1781.06,-131.5 1833.06,-131.5 1833.06,-112.5 1781.06,-112.5"/>
<text text-anchor="middle" x="1807.06" y="-119.5" font-family="Helvetica,sans-Serif" font-size="10.00">assert.h</text>
</g>
<!-- Node37&#45;&gt;Node38 -->
<g id="edge61" class="edge"><title>Node37&#45;&gt;Node38</title>
<path fill="none" stroke="midnightblue" d="M1761.65,-174.403C1769.76,-165.225 1782.79,-150.47 1792.82,-139.117"/>
<polygon fill="midnightblue" stroke="midnightblue" points="1795.48,-141.392 1799.48,-131.581 1790.23,-136.758 1795.48,-141.392"/>
</g>
<!-- Node39 -->
<g id="node39" class="node"><title>Node39</title>
<polygon fill="white" stroke="#bfbfbf" points="1851.56,-112.5 1851.56,-131.5 1894.56,-131.5 1894.56,-112.5 1851.56,-112.5"/>
<text text-anchor="middle" x="1873.06" y="-119.5" font-family="Helvetica,sans-Serif" font-size="10.00">deque</text>
</g>
<!-- Node37&#45;&gt;Node39 -->
<g id="edge62" class="edge"><title>Node37&#45;&gt;Node39</title>
<path fill="none" stroke="midnightblue" d="M1771.11,-174.403C1790.9,-164.423 1823.77,-147.849 1846.83,-136.225"/>
<polygon fill="midnightblue" stroke="midnightblue" points="1848.68,-139.208 1856.04,-131.581 1845.53,-132.958 1848.68,-139.208"/>
</g>
<!-- Node40 -->
<g id="node40" class="node"><title>Node40</title>
<g id="a_node40"><a xlink:href="IndexMap_8inl.html" target="_top" xlink:title="Core/Index/IndexMap.inl">
<polygon fill="white" stroke="black" points="1639.56,-112.5 1639.56,-131.5 1762.56,-131.5 1762.56,-112.5 1639.56,-112.5"/>
<text text-anchor="middle" x="1701.06" y="-119.5" font-family="Helvetica,sans-Serif" font-size="10.00">Core/Index/IndexMap.inl</text>
</a>
</g>
</g>
<!-- Node37&#45;&gt;Node40 -->
<g id="edge64" class="edge"><title>Node37&#45;&gt;Node40</title>
<path fill="none" stroke="midnightblue" d="M1741.56,-174.403C1731.67,-165.403 1718.57,-151.041 1709.75,-139.782"/>
<polygon fill="midnightblue" stroke="midnightblue" points="1712.47,-137.577 1703.74,-131.581 1706.83,-141.715 1712.47,-137.577"/>
</g>
<!-- Node40&#45;&gt;Node37 -->
<g id="edge65" class="edge"><title>Node40&#45;&gt;Node37</title>
<path fill="none" stroke="midnightblue" d="M1713.53,-131.581C1723.43,-140.574 1736.52,-154.936 1745.35,-166.198"/>
<polygon fill="midnightblue" stroke="midnightblue" points="1742.63,-168.409 1751.36,-174.403 1748.27,-164.269 1742.63,-168.409"/>
</g>
<!-- Node41&#45;&gt;Node36 -->
<g id="edge70" class="edge"><title>Node41&#45;&gt;Node36</title>
<path fill="none" stroke="midnightblue" d="M1572.38,-193.581C1574.64,-202.04 1575.77,-215.248 1575.43,-226.16"/>
<polygon fill="midnightblue" stroke="midnightblue" points="1571.92,-226.135 1574.53,-236.403 1578.89,-226.75 1571.92,-226.135"/>
</g>
</g>
</svg>
