<?xml version="1.0" encoding="UTF-8" standalone="no"?>
<!DOCTYPE svg PUBLIC "-//W3C//DTD SVG 1.1//EN"
 "http://www.w3.org/Graphics/SVG/1.1/DTD/svg11.dtd">
<!-- Generated by graphviz version 2.36.0 (20140111.2315)
 -->
<!-- Title: /home/travis/build/STORM&#45;IRIT/Radium&#45;Engine/src/Core/Mesh/DCEL/Operations/EdgeSplit.hpp Pages: 1 -->
<svg width="936pt" height="342pt"
 viewBox="0.00 0.00 936.00 342.00" xmlns="http://www.w3.org/2000/svg" xmlns:xlink="http://www.w3.org/1999/xlink">
<g id="graph0" class="graph" transform="scale(1 1) rotate(0) translate(4 338)">
<title>/home/travis/build/STORM&#45;IRIT/Radium&#45;Engine/src/Core/Mesh/DCEL/Operations/EdgeSplit.hpp</title>
<polygon fill="white" stroke="none" points="-4,4 -4,-338 932,-338 932,4 -4,4"/>
<!-- Node1 -->
<g id="node1" class="node"><title>Node1</title>
<polygon fill="#bfbfbf" stroke="black" points="322,-281 322,-333 486,-333 486,-281 322,-281"/>
<text text-anchor="start" x="330" y="-321" font-family="Helvetica,sans-Serif" font-size="10.00">/home/travis/build</text>
<text text-anchor="start" x="330" y="-310" font-family="Helvetica,sans-Serif" font-size="10.00">/STORM&#45;IRIT/Radium&#45;Engine</text>
<text text-anchor="start" x="330" y="-299" font-family="Helvetica,sans-Serif" font-size="10.00">/src/Core/Mesh/DCEL/Operations</text>
<text text-anchor="middle" x="404" y="-288" font-family="Helvetica,sans-Serif" font-size="10.00">/EdgeSplit.hpp</text>
</g>
<!-- Node2 -->
<g id="node2" class="node"><title>Node2</title>
<g id="a_node2"><a xlink:href="Dcel_8hpp.html" target="_top" xlink:title="Core/Mesh/DCEL/Dcel.hpp">
<polygon fill="white" stroke="black" points="593.5,-224.5 593.5,-243.5 730.5,-243.5 730.5,-224.5 593.5,-224.5"/>
<text text-anchor="middle" x="662" y="-231.5" font-family="Helvetica,sans-Serif" font-size="10.00">Core/Mesh/DCEL/Dcel.hpp</text>
</a>
</g>
</g>
<!-- Node1&#45;&gt;Node2 -->
<g id="edge1" class="edge"><title>Node1&#45;&gt;Node2</title>
<path fill="none" stroke="midnightblue" d="M486.342,-283.34C531.365,-270.95 585.151,-256.148 621.241,-246.217"/>
<polygon fill="midnightblue" stroke="midnightblue" points="622.216,-249.578 630.929,-243.55 620.359,-242.829 622.216,-249.578"/>
</g>
<!-- Node4 -->
<g id="node4" class="node"><title>Node4</title>
<g id="a_node4"><a xlink:href="RaCore_8hpp.html" target="_top" xlink:title="Core/RaCore.hpp">
<polygon fill="white" stroke="black" points="108.5,-112.5 108.5,-131.5 201.5,-131.5 201.5,-112.5 108.5,-112.5"/>
<text text-anchor="middle" x="155" y="-119.5" font-family="Helvetica,sans-Serif" font-size="10.00">Core/RaCore.hpp</text>
</a>
</g>
</g>
<!-- Node1&#45;&gt;Node4 -->
<g id="edge27" class="edge"><title>Node1&#45;&gt;Node4</title>
<path fill="none" stroke="midnightblue" d="M337.72,-280.839C292.2,-260.995 232.698,-229.703 191,-188 177.626,-174.625 167.762,-155.248 161.775,-141.132"/>
<polygon fill="midnightblue" stroke="midnightblue" points="164.91,-139.545 157.959,-131.55 158.407,-142.135 164.91,-139.545"/>
</g>
<!-- Node3 -->
<g id="node3" class="node"><title>Node3</title>
<g id="a_node3"><a xlink:href="IndexMap_8hpp.html" target="_top" xlink:title="Core/Index/IndexMap.hpp">
<polygon fill="white" stroke="black" points="400.5,-168.5 400.5,-187.5 529.5,-187.5 529.5,-168.5 400.5,-168.5"/>
<text text-anchor="middle" x="465" y="-175.5" font-family="Helvetica,sans-Serif" font-size="10.00">Core/Index/IndexMap.hpp</text>
</a>
</g>
</g>
<!-- Node2&#45;&gt;Node3 -->
<g id="edge2" class="edge"><title>Node2&#45;&gt;Node3</title>
<path fill="none" stroke="midnightblue" d="M630.785,-224.444C597.067,-215.201 543.2,-200.436 506.068,-190.257"/>
<polygon fill="midnightblue" stroke="midnightblue" points="506.639,-186.785 496.069,-187.516 504.788,-193.536 506.639,-186.785"/>
</g>
<!-- Node18 -->
<g id="node18" class="node"><title>Node18</title>
<g id="a_node18"><a xlink:href="IndexedObject_8hpp.html" target="_top" xlink:title="Core/Index/IndexedObject.hpp">
<polygon fill="white" stroke="black" points="200.5,-168.5 200.5,-187.5 349.5,-187.5 349.5,-168.5 200.5,-168.5"/>
<text text-anchor="middle" x="275" y="-175.5" font-family="Helvetica,sans-Serif" font-size="10.00">Core/Index/IndexedObject.hpp</text>
</a>
</g>
</g>
<!-- Node2&#45;&gt;Node18 -->
<g id="edge18" class="edge"><title>Node2&#45;&gt;Node18</title>
<path fill="none" stroke="midnightblue" d="M600.679,-224.444C531.469,-214.786 419.045,-199.099 346.062,-188.916"/>
<polygon fill="midnightblue" stroke="midnightblue" points="346.422,-185.432 336.034,-187.516 345.455,-192.365 346.422,-185.432"/>
</g>
<!-- Node19 -->
<g id="node19" class="node"><title>Node19</title>
<g id="a_node19"><a xlink:href="Definition_8hpp.html" target="_top" xlink:title="Core/Mesh/DCEL/Definition.hpp">
<polygon fill="white" stroke="black" points="583,-168.5 583,-187.5 741,-187.5 741,-168.5 583,-168.5"/>
<text text-anchor="middle" x="662" y="-175.5" font-family="Helvetica,sans-Serif" font-size="10.00">Core/Mesh/DCEL/Definition.hpp</text>
</a>
</g>
</g>
<!-- Node2&#45;&gt;Node19 -->
<g id="edge21" class="edge"><title>Node2&#45;&gt;Node19</title>
<path fill="none" stroke="midnightblue" d="M662,-224.083C662,-217.006 662,-206.861 662,-197.986"/>
<polygon fill="midnightblue" stroke="midnightblue" points="665.5,-197.751 662,-187.751 658.5,-197.751 665.5,-197.751"/>
</g>
<!-- Node21 -->
<g id="node21" class="node"><title>Node21</title>
<polygon fill="white" stroke="#bfbfbf" points="765,-112.5 765,-131.5 809,-131.5 809,-112.5 765,-112.5"/>
<text text-anchor="middle" x="787" y="-119.5" font-family="Helvetica,sans-Serif" font-size="10.00">vector</text>
</g>
<!-- Node2&#45;&gt;Node21 -->
<g id="edge24" class="edge"><title>Node2&#45;&gt;Node21</title>
<path fill="none" stroke="midnightblue" d="M687.19,-224.379C705.936,-216.992 731.243,-204.862 749,-188 763.035,-174.673 773.546,-155.018 779.915,-140.814"/>
<polygon fill="midnightblue" stroke="midnightblue" points="783.139,-142.176 783.812,-131.602 776.693,-139.449 783.139,-142.176"/>
</g>
<!-- Node22 -->
<g id="node22" class="node"><title>Node22</title>
<g id="a_node22"><a xlink:href="Dcel_8inl.html" target="_top" xlink:title="Core/Mesh/DCEL/Dcel.inl">
<polygon fill="white" stroke="black" points="797.5,-168.5 797.5,-187.5 928.5,-187.5 928.5,-168.5 797.5,-168.5"/>
<text text-anchor="middle" x="863" y="-175.5" font-family="Helvetica,sans-Serif" font-size="10.00">Core/Mesh/DCEL/Dcel.inl</text>
</a>
</g>
</g>
<!-- Node2&#45;&gt;Node22 -->
<g id="edge25" class="edge"><title>Node2&#45;&gt;Node22</title>
<path fill="none" stroke="midnightblue" d="M688.76,-224.444C721.412,-215.122 776.862,-200.183 816.505,-189.997"/>
<polygon fill="midnightblue" stroke="midnightblue" points="817.397,-193.382 826.22,-187.516 815.665,-186.6 817.397,-193.382"/>
</g>
<!-- Node3&#45;&gt;Node4 -->
<g id="edge3" class="edge"><title>Node3&#45;&gt;Node4</title>
<path fill="none" stroke="midnightblue" d="M415.88,-168.444C360.396,-158.779 270.24,-143.074 211.782,-132.891"/>
<polygon fill="midnightblue" stroke="midnightblue" points="212.062,-129.387 201.61,-131.119 210.861,-136.283 212.062,-129.387"/>
</g>
<!-- Node11 -->
<g id="node11" class="node"><title>Node11</title>
<polygon fill="white" stroke="#bfbfbf" points="348,-112.5 348,-131.5 404,-131.5 404,-112.5 348,-112.5"/>
<text text-anchor="middle" x="376" y="-119.5" font-family="Helvetica,sans-Serif" font-size="10.00">algorithm</text>
</g>
<!-- Node3&#45;&gt;Node11 -->
<g id="edge10" class="edge"><title>Node3&#45;&gt;Node11</title>
<path fill="none" stroke="midnightblue" d="M450.701,-168.324C436.817,-159.9 415.508,-146.971 399.196,-137.074"/>
<polygon fill="midnightblue" stroke="midnightblue" points="400.629,-133.85 390.264,-131.655 396.998,-139.834 400.629,-133.85"/>
</g>
<!-- Node12 -->
<g id="node12" class="node"><title>Node12</title>
<polygon fill="white" stroke="#bfbfbf" points="422,-112.5 422,-131.5 474,-131.5 474,-112.5 422,-112.5"/>
<text text-anchor="middle" x="448" y="-119.5" font-family="Helvetica,sans-Serif" font-size="10.00">assert.h</text>
</g>
<!-- Node3&#45;&gt;Node12 -->
<g id="edge11" class="edge"><title>Node3&#45;&gt;Node12</title>
<path fill="none" stroke="midnightblue" d="M462.193,-168.083C459.915,-160.849 456.629,-150.409 453.792,-141.397"/>
<polygon fill="midnightblue" stroke="midnightblue" points="457.096,-140.239 450.755,-131.751 450.419,-142.341 457.096,-140.239"/>
</g>
<!-- Node13 -->
<g id="node13" class="node"><title>Node13</title>
<polygon fill="white" stroke="#bfbfbf" points="492.5,-112.5 492.5,-131.5 535.5,-131.5 535.5,-112.5 492.5,-112.5"/>
<text text-anchor="middle" x="514" y="-119.5" font-family="Helvetica,sans-Serif" font-size="10.00">deque</text>
</g>
<!-- Node3&#45;&gt;Node13 -->
<g id="edge12" class="edge"><title>Node3&#45;&gt;Node13</title>
<path fill="none" stroke="midnightblue" d="M473.091,-168.083C480.155,-160.298 490.588,-148.801 499.149,-139.367"/>
<polygon fill="midnightblue" stroke="midnightblue" points="501.931,-141.509 506.059,-131.751 496.747,-136.805 501.931,-141.509"/>
</g>
<!-- Node14 -->
<g id="node14" class="node"><title>Node14</title>
<g id="a_node14"><a xlink:href="Index_8hpp.html" target="_top" xlink:title="Core/Index/Index.hpp">
<polygon fill="white" stroke="black" points="220,-112.5 220,-131.5 330,-131.5 330,-112.5 220,-112.5"/>
<text text-anchor="middle" x="275" y="-119.5" font-family="Helvetica,sans-Serif" font-size="10.00">Core/Index/Index.hpp</text>
</a>
</g>
</g>
<!-- Node3&#45;&gt;Node14 -->
<g id="edge13" class="edge"><title>Node3&#45;&gt;Node14</title>
<path fill="none" stroke="midnightblue" d="M434.894,-168.444C402.374,-159.201 350.421,-144.436 314.609,-134.257"/>
<polygon fill="midnightblue" stroke="midnightblue" points="315.541,-130.884 304.965,-131.516 313.627,-137.617 315.541,-130.884"/>
</g>
<!-- Node17 -->
<g id="node17" class="node"><title>Node17</title>
<g id="a_node17"><a xlink:href="IndexMap_8inl.html" target="_top" xlink:title="Core/Index/IndexMap.inl">
<polygon fill="white" stroke="black" points="553.5,-112.5 553.5,-131.5 676.5,-131.5 676.5,-112.5 553.5,-112.5"/>
<text text-anchor="middle" x="615" y="-119.5" font-family="Helvetica,sans-Serif" font-size="10.00">Core/Index/IndexMap.inl</text>
</a>
</g>
</g>
<!-- Node3&#45;&gt;Node17 -->
<g id="edge16" class="edge"><title>Node3&#45;&gt;Node17</title>
<path fill="none" stroke="midnightblue" d="M483.679,-168.444C506.921,-159.359 546.778,-144.939 576.58,-134.783"/>
<polygon fill="midnightblue" stroke="midnightblue" points="577.907,-138.029 586.263,-131.516 575.669,-131.397 577.907,-138.029"/>
</g>
<!-- Node5 -->
<g id="node5" class="node"><title>Node5</title>
<g id="a_node5"><a xlink:href="CoreMacros_8hpp.html" target="_top" xlink:title="Core/CoreMacros.hpp">
<polygon fill="white" stroke="black" points="98.5,-56.5 98.5,-75.5 211.5,-75.5 211.5,-56.5 98.5,-56.5"/>
<text text-anchor="middle" x="155" y="-63.5" font-family="Helvetica,sans-Serif" font-size="10.00">Core/CoreMacros.hpp</text>
</a>
</g>
</g>
<!-- Node4&#45;&gt;Node5 -->
<g id="edge4" class="edge"><title>Node4&#45;&gt;Node5</title>
<path fill="none" stroke="midnightblue" d="M155,-112.083C155,-105.006 155,-94.8611 155,-85.9865"/>
<polygon fill="midnightblue" stroke="midnightblue" points="158.5,-85.751 155,-75.7511 151.5,-85.7511 158.5,-85.751"/>
</g>
<!-- Node6 -->
<g id="node6" class="node"><title>Node6</title>
<polygon fill="white" stroke="#bfbfbf" points="-0.5,-0.5 -0.5,-19.5 48.5,-19.5 48.5,-0.5 -0.5,-0.5"/>
<text text-anchor="middle" x="24" y="-7.5" font-family="Helvetica,sans-Serif" font-size="10.00">cassert</text>
</g>
<!-- Node5&#45;&gt;Node6 -->
<g id="edge5" class="edge"><title>Node5&#45;&gt;Node6</title>
<path fill="none" stroke="midnightblue" d="M134.243,-56.4435C112.684,-47.5566 78.7367,-33.5632 54.2062,-23.4514"/>
<polygon fill="midnightblue" stroke="midnightblue" points="55.2394,-20.0917 44.6602,-19.5164 52.5717,-26.5634 55.2394,-20.0917"/>
</g>
<!-- Node7 -->
<g id="node7" class="node"><title>Node7</title>
<polygon fill="white" stroke="#bfbfbf" points="66.5,-0.5 66.5,-19.5 109.5,-19.5 109.5,-0.5 66.5,-0.5"/>
<text text-anchor="middle" x="88" y="-7.5" font-family="Helvetica,sans-Serif" font-size="10.00">cstdio</text>
</g>
<!-- Node5&#45;&gt;Node7 -->
<g id="edge6" class="edge"><title>Node5&#45;&gt;Node7</title>
<path fill="none" stroke="midnightblue" d="M144.235,-56.324C134.234,-48.2631 119.113,-36.0765 107.07,-26.3695"/>
<polygon fill="midnightblue" stroke="midnightblue" points="108.943,-23.3841 98.9606,-19.8339 104.55,-28.8343 108.943,-23.3841"/>
</g>
<!-- Node8 -->
<g id="node8" class="node"><title>Node8</title>
<polygon fill="white" stroke="#bfbfbf" points="128,-0.5 128,-19.5 182,-19.5 182,-0.5 128,-0.5"/>
<text text-anchor="middle" x="155" y="-7.5" font-family="Helvetica,sans-Serif" font-size="10.00">iostream</text>
</g>
<!-- Node5&#45;&gt;Node8 -->
<g id="edge7" class="edge"><title>Node5&#45;&gt;Node8</title>
<path fill="none" stroke="midnightblue" d="M155,-56.083C155,-49.0059 155,-38.8611 155,-29.9865"/>
<polygon fill="midnightblue" stroke="midnightblue" points="158.5,-29.751 155,-19.7511 151.5,-29.7511 158.5,-29.751"/>
</g>
<!-- Node9 -->
<g id="node9" class="node"><title>Node9</title>
<polygon fill="white" stroke="#bfbfbf" points="200,-0.5 200,-19.5 252,-19.5 252,-0.5 200,-0.5"/>
<text text-anchor="middle" x="226" y="-7.5" font-family="Helvetica,sans-Serif" font-size="10.00">sstream</text>
</g>
<!-- Node5&#45;&gt;Node9 -->
<g id="edge8" class="edge"><title>Node5&#45;&gt;Node9</title>
<path fill="none" stroke="midnightblue" d="M166.407,-56.324C177.109,-48.1849 193.341,-35.8395 206.163,-26.0874"/>
<polygon fill="midnightblue" stroke="midnightblue" points="208.544,-28.6734 214.385,-19.8339 204.307,-23.1018 208.544,-28.6734"/>
</g>
<!-- Node10 -->
<g id="node10" class="node"><title>Node10</title>
<polygon fill="white" stroke="#bfbfbf" points="270,-0.5 270,-19.5 314,-19.5 314,-0.5 270,-0.5"/>
<text text-anchor="middle" x="292" y="-7.5" font-family="Helvetica,sans-Serif" font-size="10.00">thread</text>
</g>
<!-- Node5&#45;&gt;Node10 -->
<g id="edge9" class="edge"><title>Node5&#45;&gt;Node10</title>
<path fill="none" stroke="midnightblue" d="M176.708,-56.4435C199.355,-47.5171 235.072,-33.4387 260.752,-23.3168"/>
<polygon fill="midnightblue" stroke="midnightblue" points="262.374,-26.4397 270.394,-19.5164 259.807,-19.9273 262.374,-26.4397"/>
</g>
<!-- Node15 -->
<g id="node15" class="node"><title>Node15</title>
<polygon fill="white" stroke="#bfbfbf" points="242,-56.5 242,-75.5 282,-75.5 282,-56.5 242,-56.5"/>
<text text-anchor="middle" x="262" y="-63.5" font-family="Helvetica,sans-Serif" font-size="10.00">limits</text>
</g>
<!-- Node14&#45;&gt;Node15 -->
<g id="edge14" class="edge"><title>Node14&#45;&gt;Node15</title>
<path fill="none" stroke="midnightblue" d="M272.853,-112.083C271.131,-104.927 268.653,-94.6353 266.5,-85.6911"/>
<polygon fill="midnightblue" stroke="midnightblue" points="269.85,-84.6541 264.107,-75.7511 263.045,-86.2925 269.85,-84.6541"/>
</g>
<!-- Node16 -->
<g id="node16" class="node"><title>Node16</title>
<g id="a_node16"><a xlink:href="Index_8inl.html" target="_top" xlink:title="Core/Index/Index.inl">
<polygon fill="white" stroke="black" points="300,-56.5 300,-75.5 404,-75.5 404,-56.5 300,-56.5"/>
<text text-anchor="middle" x="352" y="-63.5" font-family="Helvetica,sans-Serif" font-size="10.00">Core/Index/Index.inl</text>
</a>
</g>
</g>
<!-- Node14&#45;&gt;Node16 -->
<g id="edge15" class="edge"><title>Node14&#45;&gt;Node16</title>
<path fill="none" stroke="midnightblue" d="M287.371,-112.324C299.158,-104.058 317.132,-91.4527 331.136,-81.6322"/>
<polygon fill="midnightblue" stroke="midnightblue" points="333.482,-84.2619 339.659,-75.6545 329.462,-78.5307 333.482,-84.2619"/>
</g>
<!-- Node17&#45;&gt;Node3 -->
<g id="edge17" class="edge"><title>Node17&#45;&gt;Node3</title>
<path fill="none" stroke="midnightblue" d="M596.423,-131.516C573.23,-140.585 533.383,-155.004 503.551,-165.172"/>
<polygon fill="midnightblue" stroke="midnightblue" points="502.213,-161.93 493.857,-168.444 504.451,-168.562 502.213,-161.93"/>
</g>
<!-- Node18&#45;&gt;Node4 -->
<g id="edge20" class="edge"><title>Node18&#45;&gt;Node4</title>
<path fill="none" stroke="midnightblue" d="M255.986,-168.444C236.412,-159.636 205.692,-145.812 183.271,-135.722"/>
<polygon fill="midnightblue" stroke="midnightblue" points="184.481,-132.428 173.925,-131.516 181.608,-138.812 184.481,-132.428"/>
</g>
<!-- Node18&#45;&gt;Node14 -->
<g id="edge19" class="edge"><title>Node18&#45;&gt;Node14</title>
<path fill="none" stroke="midnightblue" d="M275,-168.083C275,-161.006 275,-150.861 275,-141.986"/>
<polygon fill="midnightblue" stroke="midnightblue" points="278.5,-141.751 275,-131.751 271.5,-141.751 278.5,-141.751"/>
</g>
<!-- Node20 -->
<g id="node20" class="node"><title>Node20</title>
<polygon fill="white" stroke="#bfbfbf" points="695,-112.5 695,-131.5 747,-131.5 747,-112.5 695,-112.5"/>
<text text-anchor="middle" x="721" y="-119.5" font-family="Helvetica,sans-Serif" font-size="10.00">memory</text>
</g>
<!-- Node19&#45;&gt;Node20 -->
<g id="edge22" class="edge"><title>Node19&#45;&gt;Node20</title>
<path fill="none" stroke="midnightblue" d="M671.479,-168.324C680.201,-160.341 693.343,-148.313 703.898,-138.653"/>
<polygon fill="midnightblue" stroke="midnightblue" points="706.334,-141.167 711.348,-131.834 701.608,-136.004 706.334,-141.167"/>
</g>
<!-- Node19&#45;&gt;Node21 -->
<g id="edge23" class="edge"><title>Node19&#45;&gt;Node21</title>
<path fill="none" stroke="midnightblue" d="M681.807,-168.444C702.287,-159.596 734.483,-145.687 757.865,-135.586"/>
<polygon fill="midnightblue" stroke="midnightblue" points="759.494,-138.695 767.286,-131.516 756.718,-132.269 759.494,-138.695"/>
</g>
<!-- Node22&#45;&gt;Node2 -->
<g id="edge26" class="edge"><title>Node22&#45;&gt;Node2</title>
<path fill="none" stroke="midnightblue" d="M836.38,-187.516C803.794,-196.822 748.353,-211.76 708.665,-221.959"/>
<polygon fill="midnightblue" stroke="midnightblue" points="707.761,-218.578 698.938,-224.444 709.493,-225.36 707.761,-218.578"/>
</g>
</g>
</svg>
