<?xml version="1.0" encoding="UTF-8" standalone="no"?>
<!DOCTYPE svg PUBLIC "-//W3C//DTD SVG 1.1//EN"
 "http://www.w3.org/Graphics/SVG/1.1/DTD/svg11.dtd">
<!-- Generated by graphviz version 2.36.0 (20140111.2315)
 -->
<!-- Title: /home/travis/build/STORM&#45;IRIT/Radium&#45;Engine/src/Engine/System Pages: 1 -->
<svg width="169pt" height="188pt"
 viewBox="0.00 0.00 168.55 188.00" xmlns="http://www.w3.org/2000/svg" xmlns:xlink="http://www.w3.org/1999/xlink">
<g id="graph0" class="graph" transform="scale(1 1) rotate(0) translate(4 184)">
<title>/home/travis/build/STORM&#45;IRIT/Radium&#45;Engine/src/Engine/System</title>
<polygon fill="white" stroke="none" points="-4,4 -4,-184 164.549,-184 164.549,4 -4,4"/>
<g id="clust1" class="cluster"><title>clusterdir_3072bc1f55ed1280fe4fbe6b21c78379</title>
<g id="a_clust1"><a xlink:href="dir_3072bc1f55ed1280fe4fbe6b21c78379.html" target="_top" xlink:title="Engine">
<polygon fill="#ddddee" stroke="black" points="8,-64 8,-135 78,-135 78,-64 8,-64"/>
<text text-anchor="middle" x="43" y="-123" font-family="Helvetica,sans-Serif" font-size="10.00">Engine</text>
</a>
</g>
</g>
<!-- dir_eecdbbfa89a6d9af25d920c499e6f44e -->
<g id="node1" class="node"><title>dir_eecdbbfa89a6d9af25d920c499e6f44e</title>
<g id="a_node1"><a xlink:href="dir_eecdbbfa89a6d9af25d920c499e6f44e.html" target="_top" xlink:title="System">
<polygon fill="#eeeeff" stroke="black" points="70,-108 16,-108 16,-72 70,-72 70,-108"/>
<text text-anchor="middle" x="43" y="-87.5" font-family="Helvetica,sans-Serif" font-size="10.00">System</text>
</a>
</g>
</g>
<!-- dir_a2f0e5642e47e7ed59fe0f0829eafb5f -->
<g id="node2" class="node"><title>dir_a2f0e5642e47e7ed59fe0f0829eafb5f</title>
<g id="a_node2"><a xlink:href="dir_a2f0e5642e47e7ed59fe0f0829eafb5f.html" target="_top" xlink:title="Core">
<polygon fill="white" stroke="red" points="142,-180 88,-180 88,-144 142,-144 142,-180"/>
<text text-anchor="middle" x="115" y="-159.5" font-family="Helvetica,sans-Serif" font-size="10.00">Core</text>
</a>
</g>
</g>
<!-- dir_eecdbbfa89a6d9af25d920c499e6f44e&#45;&gt;dir_a2f0e5642e47e7ed59fe0f0829eafb5f -->
<g id="edge5" class="edge"><title>dir_eecdbbfa89a6d9af25d920c499e6f44e&#45;&gt;dir_a2f0e5642e47e7ed59fe0f0829eafb5f</title>
<path fill="none" stroke="black" d="M55.3841,-108.186C61.9276,-116.706 70.3767,-126.881 79,-135 79.8139,-135.766 80.6511,-136.529 81.5064,-137.287"/>
<polygon fill="black" stroke="black" points="79.602,-140.252 89.549,-143.9 84.0479,-134.845 79.602,-140.252"/>
<g id="a_edge5&#45;headlabel"><a xlink:href="dir_000097_000022.html" target="_top" xlink:title="1">
<text text-anchor="middle" x="75.0222" y="-137.662" font-family="Helvetica,sans-Serif" font-size="10.00">1</text>
</a>
</g>
</g>
<!-- dir_7205f054df4e14abb60715afe3e7e90c -->
<g id="node3" class="node"><title>dir_7205f054df4e14abb60715afe3e7e90c</title>
<g id="a_node3"><a xlink:href="dir_7205f054df4e14abb60715afe3e7e90c.html" target="_top" xlink:title="Entity">
<polygon fill="none" stroke="black" points="142,-108 88,-108 88,-72 142,-72 142,-108"/>
<text text-anchor="middle" x="115" y="-87.5" font-family="Helvetica,sans-Serif" font-size="10.00">Entity</text>
</a>
</g>
</g>
<!-- dir_eecdbbfa89a6d9af25d920c499e6f44e&#45;&gt;dir_7205f054df4e14abb60715afe3e7e90c -->
<g id="edge6" class="edge"><title>dir_eecdbbfa89a6d9af25d920c499e6f44e&#45;&gt;dir_7205f054df4e14abb60715afe3e7e90c</title>
<path fill="none" stroke="black" d="M70.2812,-90C72.7377,-90 75.1942,-90 77.6507,-90"/>
<polygon fill="black" stroke="black" points="77.7495,-93.5001 87.7495,-90 77.7495,-86.5001 77.7495,-93.5001"/>
<g id="a_edge6&#45;headlabel"><a xlink:href="dir_000097_000077.html" target="_top" xlink:title="1">
<text text-anchor="middle" x="74.1549" y="-93.8393" font-family="Helvetica,sans-Serif" font-size="10.00">1</text>
</a>
</g>
</g>
<!-- dir_d0f3276f03e9a9cb8f8ba3f2a5ea1262 -->
<g id="node4" class="node"><title>dir_d0f3276f03e9a9cb8f8ba3f2a5ea1262</title>
<g id="a_node4"><a xlink:href="dir_d0f3276f03e9a9cb8f8ba3f2a5ea1262.html" target="_top" xlink:title="Component">
<polygon fill="none" stroke="black" points="148.25,-36 81.75,-36 81.75,-0 148.25,-0 148.25,-36"/>
<text text-anchor="middle" x="115" y="-15.5" font-family="Helvetica,sans-Serif" font-size="10.00">Component</text>
</a>
</g>
</g>
<!-- dir_eecdbbfa89a6d9af25d920c499e6f44e&#45;&gt;dir_d0f3276f03e9a9cb8f8ba3f2a5ea1262 -->
<g id="edge7" class="edge"><title>dir_eecdbbfa89a6d9af25d920c499e6f44e&#45;&gt;dir_d0f3276f03e9a9cb8f8ba3f2a5ea1262</title>
<path fill="none" stroke="black" d="M54.882,-71.6966C62.8836,-63.0503 73.6114,-52.4486 83.8404,-43.027"/>
<polygon fill="black" stroke="black" points="86.4326,-45.4023 91.5119,-36.1043 81.743,-40.2054 86.4326,-45.4023"/>
<g id="a_edge7&#45;headlabel"><a xlink:href="dir_000097_000076.html" target="_top" xlink:title="1">
<text text-anchor="middle" x="85.6661" y="-47.4183" font-family="Helvetica,sans-Serif" font-size="10.00">1</text>
</a>
</g>
</g>
<!-- dir_a2f0e5642e47e7ed59fe0f0829eafb5f&#45;&gt;dir_7205f054df4e14abb60715afe3e7e90c -->
<g id="edge1" class="edge"><title>dir_a2f0e5642e47e7ed59fe0f0829eafb5f&#45;&gt;dir_7205f054df4e14abb60715afe3e7e90c</title>
<path fill="none" stroke="black" d="M109.084,-143.697C108.289,-135.983 108.062,-126.712 108.405,-118.112"/>
<polygon fill="black" stroke="black" points="111.898,-118.324 109.105,-108.104 104.915,-117.836 111.898,-118.324"/>
<g id="a_edge1&#45;headlabel"><a xlink:href="dir_000022_000077.html" target="_top" xlink:title="1">
<text text-anchor="middle" x="114.48" y="-119.608" font-family="Helvetica,sans-Serif" font-size="10.00">1</text>
</a>
</g>
</g>
<!-- dir_7205f054df4e14abb60715afe3e7e90c&#45;&gt;dir_eecdbbfa89a6d9af25d920c499e6f44e -->
<g id="edge3" class="edge"><title>dir_7205f054df4e14abb60715afe3e7e90c&#45;&gt;dir_eecdbbfa89a6d9af25d920c499e6f44e</title>
<path fill="none" stroke="black" d="M87.7495,-90C85.293,-90 82.8366,-90 80.3801,-90"/>
<polygon fill="black" stroke="black" points="80.2813,-86.5001 70.2812,-90 80.2812,-93.5001 80.2813,-86.5001"/>
<g id="a_edge3&#45;headlabel"><a xlink:href="dir_000077_000097.html" target="_top" xlink:title="1">
<text text-anchor="middle" x="83.8759" y="-81.1607" font-family="Helvetica,sans-Serif" font-size="10.00">1</text>
</a>
</g>
</g>
<!-- dir_7205f054df4e14abb60715afe3e7e90c&#45;&gt;dir_a2f0e5642e47e7ed59fe0f0829eafb5f -->
<g id="edge2" class="edge"><title>dir_7205f054df4e14abb60715afe3e7e90c&#45;&gt;dir_a2f0e5642e47e7ed59fe0f0829eafb5f</title>
<path fill="none" stroke="black" d="M120.895,-108.104C121.701,-115.791 121.937,-125.054 121.604,-133.665"/>
<polygon fill="black" stroke="black" points="118.109,-133.48 120.916,-143.697 125.092,-133.96 118.109,-133.48"/>
<g id="a_edge2&#45;headlabel"><a xlink:href="dir_000077_000022.html" target="_top" xlink:title="4">
<text text-anchor="middle" x="115.522" y="-127.2" font-family="Helvetica,sans-Serif" font-size="10.00">4</text>
</a>
</g>
</g>
<!-- dir_7205f054df4e14abb60715afe3e7e90c&#45;&gt;dir_d0f3276f03e9a9cb8f8ba3f2a5ea1262 -->
<g id="edge4" class="edge"><title>dir_7205f054df4e14abb60715afe3e7e90c&#45;&gt;dir_d0f3276f03e9a9cb8f8ba3f2a5ea1262</title>
<path fill="none" stroke="black" d="M109.084,-71.6966C108.289,-63.9827 108.062,-54.7125 108.405,-46.1124"/>
<polygon fill="black" stroke="black" points="111.898,-46.3243 109.105,-36.1043 104.915,-45.8356 111.898,-46.3243"/>
<g id="a_edge4&#45;headlabel"><a xlink:href="dir_000077_000076.html" target="_top" xlink:title="1">
<text text-anchor="middle" x="114.48" y="-47.6083" font-family="Helvetica,sans-Serif" font-size="10.00">1</text>
</a>
</g>
</g>
<!-- dir_d0f3276f03e9a9cb8f8ba3f2a5ea1262&#45;&gt;dir_eecdbbfa89a6d9af25d920c499e6f44e -->
<g id="edge10" class="edge"><title>dir_d0f3276f03e9a9cb8f8ba3f2a5ea1262&#45;&gt;dir_eecdbbfa89a6d9af25d920c499e6f44e</title>
<path fill="none" stroke="black" d="M103.302,-36.1043C95.3426,-44.7205 84.6321,-55.316 74.3956,-64.7555"/>
<polygon fill="black" stroke="black" points="71.7869,-62.3955 66.7135,-71.6966 76.4798,-67.5894 71.7869,-62.3955"/>
<g id="a_edge10&#45;headlabel"><a xlink:href="dir_000076_000097.html" target="_top" xlink:title="1">
<text text-anchor="middle" x="72.5505" y="-55.3789" font-family="Helvetica,sans-Serif" font-size="10.00">1</text>
</a>
</g>
</g>
<!-- dir_d0f3276f03e9a9cb8f8ba3f2a5ea1262&#45;&gt;dir_a2f0e5642e47e7ed59fe0f0829eafb5f -->
<g id="edge8" class="edge"><title>dir_d0f3276f03e9a9cb8f8ba3f2a5ea1262&#45;&gt;dir_a2f0e5642e47e7ed59fe0f0829eafb5f</title>
<path fill="none" stroke="black" d="M133.217,-36.0815C140.198,-43.8462 147.357,-53.615 151,-64 161.445,-93.7767 165.366,-106.904 151,-135 150.408,-136.158 149.737,-137.277 149.001,-138.356"/>
<polygon fill="black" stroke="black" points="146.349,-136.071 142.291,-145.858 151.567,-140.738 146.349,-136.071"/>
<g id="a_edge8&#45;headlabel"><a xlink:href="dir_000076_000022.html" target="_top" xlink:title="5">
<text text-anchor="middle" x="146.629" y="-128.999" font-family="Helvetica,sans-Serif" font-size="10.00">5</text>
</a>
</g>
</g>
<!-- dir_d0f3276f03e9a9cb8f8ba3f2a5ea1262&#45;&gt;dir_7205f054df4e14abb60715afe3e7e90c -->
<g id="edge9" class="edge"><title>dir_d0f3276f03e9a9cb8f8ba3f2a5ea1262&#45;&gt;dir_7205f054df4e14abb60715afe3e7e90c</title>
<path fill="none" stroke="black" d="M120.895,-36.1043C121.701,-43.7913 121.937,-53.0537 121.604,-61.6651"/>
<polygon fill="black" stroke="black" points="118.109,-61.4805 120.916,-71.6966 125.092,-61.9597 118.109,-61.4805"/>
<g id="a_edge9&#45;headlabel"><a xlink:href="dir_000076_000077.html" target="_top" xlink:title="1">
<text text-anchor="middle" x="115.522" y="-55.2" font-family="Helvetica,sans-Serif" font-size="10.00">1</text>
</a>
</g>
</g>
</g>
</svg>
