<?xml version="1.0" encoding="UTF-8" standalone="no"?>
<!DOCTYPE svg PUBLIC "-//W3C//DTD SVG 1.1//EN"
 "http://www.w3.org/Graphics/SVG/1.1/DTD/svg11.dtd">
<!-- Generated by graphviz version 2.36.0 (20140111.2315)
 -->
<!-- Title: /home/travis/build/STORM&#45;IRIT/Radium&#45;Engine/src/Engine/Entity Pages: 1 -->
<svg width="219pt" height="260pt"
 viewBox="0.00 0.00 219.37 260.00" xmlns="http://www.w3.org/2000/svg" xmlns:xlink="http://www.w3.org/1999/xlink">
<g id="graph0" class="graph" transform="scale(1 1) rotate(0) translate(4 256)">
<title>/home/travis/build/STORM&#45;IRIT/Radium&#45;Engine/src/Engine/Entity</title>
<polygon fill="white" stroke="none" points="-4,4 -4,-256 215.374,-256 215.374,4 -4,4"/>
<g id="clust1" class="cluster"><title>clusterdir_3072bc1f55ed1280fe4fbe6b21c78379</title>
<g id="a_clust1"><a xlink:href="dir_3072bc1f55ed1280fe4fbe6b21c78379.html" target="_top" xlink:title="Engine">
<polygon fill="#ddddee" stroke="black" points="8,-136 8,-207 78,-207 78,-136 8,-136"/>
<text text-anchor="middle" x="43" y="-195" font-family="Helvetica,sans-Serif" font-size="10.00">Engine</text>
</a>
</g>
</g>
<!-- dir_7205f054df4e14abb60715afe3e7e90c -->
<g id="node1" class="node"><title>dir_7205f054df4e14abb60715afe3e7e90c</title>
<g id="a_node1"><a xlink:href="dir_7205f054df4e14abb60715afe3e7e90c.html" target="_top" xlink:title="Entity">
<polygon fill="#eeeeff" stroke="black" points="70,-180 16,-180 16,-144 70,-144 70,-180"/>
<text text-anchor="middle" x="43" y="-159.5" font-family="Helvetica,sans-Serif" font-size="10.00">Entity</text>
</a>
</g>
</g>
<!-- dir_a2f0e5642e47e7ed59fe0f0829eafb5f -->
<g id="node2" class="node"><title>dir_a2f0e5642e47e7ed59fe0f0829eafb5f</title>
<g id="a_node2"><a xlink:href="dir_a2f0e5642e47e7ed59fe0f0829eafb5f.html" target="_top" xlink:title="Core">
<polygon fill="white" stroke="red" points="158,-36 104,-36 104,-0 158,-0 158,-36"/>
<text text-anchor="middle" x="131" y="-15.5" font-family="Helvetica,sans-Serif" font-size="10.00">Core</text>
</a>
</g>
</g>
<!-- dir_7205f054df4e14abb60715afe3e7e90c&#45;&gt;dir_a2f0e5642e47e7ed59fe0f0829eafb5f -->
<g id="edge1" class="edge"><title>dir_7205f054df4e14abb60715afe3e7e90c&#45;&gt;dir_a2f0e5642e47e7ed59fe0f0829eafb5f</title>
<path fill="none" stroke="black" d="M43.4596,-143.968C44.6954,-125.035 48.9269,-94.2049 63,-72 71.0596,-59.2834 83.2837,-48.3776 95.1554,-39.8229"/>
<polygon fill="black" stroke="black" points="97.3814,-42.5414 103.673,-34.017 93.4387,-36.7573 97.3814,-42.5414"/>
<g id="a_edge1&#45;headlabel"><a xlink:href="dir_000077_000022.html" target="_top" xlink:title="4">
<text text-anchor="middle" x="96.0103" y="-44.4121" font-family="Helvetica,sans-Serif" font-size="10.00">4</text>
</a>
</g>
</g>
<!-- dir_eecdbbfa89a6d9af25d920c499e6f44e -->
<g id="node3" class="node"><title>dir_eecdbbfa89a6d9af25d920c499e6f44e</title>
<g id="a_node3"><a xlink:href="dir_eecdbbfa89a6d9af25d920c499e6f44e.html" target="_top" xlink:title="System">
<polygon fill="none" stroke="black" points="187,-252 133,-252 133,-216 187,-216 187,-252"/>
<text text-anchor="middle" x="160" y="-231.5" font-family="Helvetica,sans-Serif" font-size="10.00">System</text>
</a>
</g>
</g>
<!-- dir_7205f054df4e14abb60715afe3e7e90c&#45;&gt;dir_eecdbbfa89a6d9af25d920c499e6f44e -->
<g id="edge2" class="edge"><title>dir_7205f054df4e14abb60715afe3e7e90c&#45;&gt;dir_eecdbbfa89a6d9af25d920c499e6f44e</title>
<path fill="none" stroke="black" d="M47.8182,-180.414C54.177,-189.414 64.1359,-199.957 75,-207 89.2064,-216.209 107.031,-222.531 122.807,-226.633"/>
<polygon fill="black" stroke="black" points="122.281,-230.106 132.82,-229.016 123.902,-223.296 122.281,-230.106"/>
<g id="a_edge2&#45;headlabel"><a xlink:href="dir_000077_000097.html" target="_top" xlink:title="1">
<text text-anchor="middle" x="118.127" y="-229.536" font-family="Helvetica,sans-Serif" font-size="10.00">1</text>
</a>
</g>
</g>
<!-- dir_06113b60808b1bbb52a01dfd2c3a8657 -->
<g id="node4" class="node"><title>dir_06113b60808b1bbb52a01dfd2c3a8657</title>
<g id="a_node4"><a xlink:href="dir_06113b60808b1bbb52a01dfd2c3a8657.html" target="_top" xlink:title="Managers">
<polygon fill="white" stroke="red" points="131.25,-108 72.75,-108 72.75,-72 131.25,-72 131.25,-108"/>
<text text-anchor="middle" x="102" y="-87.5" font-family="Helvetica,sans-Serif" font-size="10.00">Managers</text>
</a>
</g>
</g>
<!-- dir_7205f054df4e14abb60715afe3e7e90c&#45;&gt;dir_06113b60808b1bbb52a01dfd2c3a8657 -->
<g id="edge3" class="edge"><title>dir_7205f054df4e14abb60715afe3e7e90c&#45;&gt;dir_06113b60808b1bbb52a01dfd2c3a8657</title>
<path fill="none" stroke="black" d="M57.5843,-143.697C64.6576,-135.305 73.2834,-125.07 81.0454,-115.861"/>
<polygon fill="black" stroke="black" points="83.8149,-118.006 87.5835,-108.104 78.4625,-113.495 83.8149,-118.006"/>
<g id="a_edge3&#45;headlabel"><a xlink:href="dir_000077_000079.html" target="_top" xlink:title="1">
<text text-anchor="middle" x="83.6693" y="-120.085" font-family="Helvetica,sans-Serif" font-size="10.00">1</text>
</a>
</g>
</g>
<!-- dir_d0f3276f03e9a9cb8f8ba3f2a5ea1262 -->
<g id="node5" class="node"><title>dir_d0f3276f03e9a9cb8f8ba3f2a5ea1262</title>
<g id="a_node5"><a xlink:href="dir_d0f3276f03e9a9cb8f8ba3f2a5ea1262.html" target="_top" xlink:title="Component">
<polygon fill="none" stroke="black" points="193.25,-180 126.75,-180 126.75,-144 193.25,-144 193.25,-180"/>
<text text-anchor="middle" x="160" y="-159.5" font-family="Helvetica,sans-Serif" font-size="10.00">Component</text>
</a>
</g>
</g>
<!-- dir_7205f054df4e14abb60715afe3e7e90c&#45;&gt;dir_d0f3276f03e9a9cb8f8ba3f2a5ea1262 -->
<g id="edge4" class="edge"><title>dir_7205f054df4e14abb60715afe3e7e90c&#45;&gt;dir_d0f3276f03e9a9cb8f8ba3f2a5ea1262</title>
<path fill="none" stroke="black" d="M70.4219,-162C85.7306,-162 101.039,-162 116.348,-162"/>
<polygon fill="black" stroke="black" points="116.408,-165.5 126.408,-162 116.408,-158.5 116.408,-165.5"/>
<g id="a_edge4&#45;headlabel"><a xlink:href="dir_000077_000076.html" target="_top" xlink:title="1">
<text text-anchor="middle" x="112.814" y="-165.839" font-family="Helvetica,sans-Serif" font-size="10.00">1</text>
</a>
</g>
</g>
<!-- dir_eecdbbfa89a6d9af25d920c499e6f44e&#45;&gt;dir_7205f054df4e14abb60715afe3e7e90c -->
<g id="edge6" class="edge"><title>dir_eecdbbfa89a6d9af25d920c499e6f44e&#45;&gt;dir_7205f054df4e14abb60715afe3e7e90c</title>
<path fill="none" stroke="black" d="M132.705,-224.73C119.994,-220.659 105.17,-214.889 93,-207 85.0217,-201.828 77.5316,-194.768 70.7867,-187.818"/>
<polygon fill="black" stroke="black" points="73.1908,-185.266 63.7726,-180.414 68.109,-190.08 73.1908,-185.266"/>
<g id="a_edge6&#45;headlabel"><a xlink:href="dir_000097_000077.html" target="_top" xlink:title="1">
<text text-anchor="middle" x="77.7241" y="-183.423" font-family="Helvetica,sans-Serif" font-size="10.00">1</text>
</a>
</g>
</g>
<!-- dir_eecdbbfa89a6d9af25d920c499e6f44e&#45;&gt;dir_a2f0e5642e47e7ed59fe0f0829eafb5f -->
<g id="edge5" class="edge"><title>dir_eecdbbfa89a6d9af25d920c499e6f44e&#45;&gt;dir_a2f0e5642e47e7ed59fe0f0829eafb5f</title>
<path fill="none" stroke="black" d="M187.09,-221.808C193.039,-218.019 198.578,-213.143 202,-207 217.356,-179.433 210.499,-166.389 202,-136 192.296,-101.304 169.179,-66.6633 151.943,-44.1841"/>
<polygon fill="black" stroke="black" points="154.594,-41.8927 145.665,-36.1894 149.088,-46.216 154.594,-41.8927"/>
<g id="a_edge5&#45;headlabel"><a xlink:href="dir_000097_000022.html" target="_top" xlink:title="1">
<text text-anchor="middle" x="159.047" y="-40.4663" font-family="Helvetica,sans-Serif" font-size="10.00">1</text>
</a>
</g>
</g>
<!-- dir_eecdbbfa89a6d9af25d920c499e6f44e&#45;&gt;dir_d0f3276f03e9a9cb8f8ba3f2a5ea1262 -->
<g id="edge7" class="edge"><title>dir_eecdbbfa89a6d9af25d920c499e6f44e&#45;&gt;dir_d0f3276f03e9a9cb8f8ba3f2a5ea1262</title>
<path fill="none" stroke="black" d="M154.084,-215.697C153.289,-207.983 153.062,-198.712 153.405,-190.112"/>
<polygon fill="black" stroke="black" points="156.898,-190.324 154.105,-180.104 149.915,-189.836 156.898,-190.324"/>
<g id="a_edge7&#45;headlabel"><a xlink:href="dir_000097_000076.html" target="_top" xlink:title="1">
<text text-anchor="middle" x="159.48" y="-191.608" font-family="Helvetica,sans-Serif" font-size="10.00">1</text>
</a>
</g>
</g>
<!-- dir_06113b60808b1bbb52a01dfd2c3a8657&#45;&gt;dir_a2f0e5642e47e7ed59fe0f0829eafb5f -->
<g id="edge8" class="edge"><title>dir_06113b60808b1bbb52a01dfd2c3a8657&#45;&gt;dir_a2f0e5642e47e7ed59fe0f0829eafb5f</title>
<path fill="none" stroke="black" d="M109.169,-71.6966C112.435,-63.8132 116.374,-54.3042 120.002,-45.5464"/>
<polygon fill="black" stroke="black" points="123.32,-46.6825 123.914,-36.1043 116.853,-44.0033 123.32,-46.6825"/>
<g id="a_edge8&#45;headlabel"><a xlink:href="dir_000079_000022.html" target="_top" xlink:title="16">
<text text-anchor="middle" x="124.567" y="-48.5901" font-family="Helvetica,sans-Serif" font-size="10.00">16</text>
</a>
</g>
</g>
<!-- dir_06113b60808b1bbb52a01dfd2c3a8657&#45;&gt;dir_eecdbbfa89a6d9af25d920c499e6f44e -->
<g id="edge9" class="edge"><title>dir_06113b60808b1bbb52a01dfd2c3a8657&#45;&gt;dir_eecdbbfa89a6d9af25d920c499e6f44e</title>
<path fill="none" stroke="black" d="M99.8309,-108.312C97.7181,-132.468 97.2585,-176.722 117,-207 119.076,-210.183 121.69,-213.036 124.6,-215.579"/>
<polygon fill="black" stroke="black" points="122.687,-218.517 132.824,-221.599 126.822,-212.868 122.687,-218.517"/>
<g id="a_edge9&#45;headlabel"><a xlink:href="dir_000079_000097.html" target="_top" xlink:title="2">
<text text-anchor="middle" x="118.11" y="-216.185" font-family="Helvetica,sans-Serif" font-size="10.00">2</text>
</a>
</g>
</g>
<!-- dir_06113b60808b1bbb52a01dfd2c3a8657&#45;&gt;dir_d0f3276f03e9a9cb8f8ba3f2a5ea1262 -->
<g id="edge10" class="edge"><title>dir_06113b60808b1bbb52a01dfd2c3a8657&#45;&gt;dir_d0f3276f03e9a9cb8f8ba3f2a5ea1262</title>
<path fill="none" stroke="black" d="M122.067,-108.104C129.794,-116.383 138.374,-126.488 145.504,-135.64"/>
<polygon fill="black" stroke="black" points="142.764,-137.819 151.579,-143.697 148.353,-133.605 142.764,-137.819"/>
<g id="a_edge10&#45;headlabel"><a xlink:href="dir_000079_000076.html" target="_top" xlink:title="2">
<text text-anchor="middle" x="138.333" y="-134.158" font-family="Helvetica,sans-Serif" font-size="10.00">2</text>
</a>
</g>
</g>
<!-- dir_d0f3276f03e9a9cb8f8ba3f2a5ea1262&#45;&gt;dir_7205f054df4e14abb60715afe3e7e90c -->
<g id="edge12" class="edge"><title>dir_d0f3276f03e9a9cb8f8ba3f2a5ea1262&#45;&gt;dir_7205f054df4e14abb60715afe3e7e90c</title>
<path fill="none" stroke="black" d="M126.408,-162C111.099,-162 95.7907,-162 80.4819,-162"/>
<polygon fill="black" stroke="black" points="80.4219,-158.5 70.4219,-162 80.4218,-165.5 80.4219,-158.5"/>
<g id="a_edge12&#45;headlabel"><a xlink:href="dir_000076_000077.html" target="_top" xlink:title="1">
<text text-anchor="middle" x="84.0165" y="-153.161" font-family="Helvetica,sans-Serif" font-size="10.00">1</text>
</a>
</g>
</g>
<!-- dir_d0f3276f03e9a9cb8f8ba3f2a5ea1262&#45;&gt;dir_a2f0e5642e47e7ed59fe0f0829eafb5f -->
<g id="edge11" class="edge"><title>dir_d0f3276f03e9a9cb8f8ba3f2a5ea1262&#45;&gt;dir_a2f0e5642e47e7ed59fe0f0829eafb5f</title>
<path fill="none" stroke="black" d="M156.502,-143.871C151.538,-119.564 142.4,-74.8187 136.517,-46.0132"/>
<polygon fill="black" stroke="black" points="139.941,-45.2867 134.51,-36.1893 133.082,-46.6874 139.941,-45.2867"/>
<g id="a_edge11&#45;headlabel"><a xlink:href="dir_000076_000022.html" target="_top" xlink:title="5">
<text text-anchor="middle" x="143.442" y="-45.7405" font-family="Helvetica,sans-Serif" font-size="10.00">5</text>
</a>
</g>
</g>
<!-- dir_d0f3276f03e9a9cb8f8ba3f2a5ea1262&#45;&gt;dir_eecdbbfa89a6d9af25d920c499e6f44e -->
<g id="edge13" class="edge"><title>dir_d0f3276f03e9a9cb8f8ba3f2a5ea1262&#45;&gt;dir_eecdbbfa89a6d9af25d920c499e6f44e</title>
<path fill="none" stroke="black" d="M165.895,-180.104C166.701,-187.791 166.937,-197.054 166.604,-205.665"/>
<polygon fill="black" stroke="black" points="163.109,-205.48 165.916,-215.697 170.092,-205.96 163.109,-205.48"/>
<g id="a_edge13&#45;headlabel"><a xlink:href="dir_000076_000097.html" target="_top" xlink:title="1">
<text text-anchor="middle" x="160.522" y="-199.2" font-family="Helvetica,sans-Serif" font-size="10.00">1</text>
</a>
</g>
</g>
<!-- dir_d0f3276f03e9a9cb8f8ba3f2a5ea1262&#45;&gt;dir_06113b60808b1bbb52a01dfd2c3a8657 -->
<g id="edge14" class="edge"><title>dir_d0f3276f03e9a9cb8f8ba3f2a5ea1262&#45;&gt;dir_06113b60808b1bbb52a01dfd2c3a8657</title>
<path fill="none" stroke="black" d="M139.747,-143.697C132.007,-135.389 123.432,-125.277 116.325,-116.141"/>
<polygon fill="black" stroke="black" points="119.087,-113.99 110.277,-108.104 113.494,-118.199 119.087,-113.99"/>
<g id="a_edge14&#45;headlabel"><a xlink:href="dir_000076_000079.html" target="_top" xlink:title="1">
<text text-anchor="middle" x="123.517" y="-112.655" font-family="Helvetica,sans-Serif" font-size="10.00">1</text>
</a>
</g>
</g>
</g>
</svg>
