<?xml version="1.0" encoding="UTF-8" standalone="no"?>
<!DOCTYPE svg PUBLIC "-//W3C//DTD SVG 1.1//EN"
 "http://www.w3.org/Graphics/SVG/1.1/DTD/svg11.dtd">
<!-- Generated by graphviz version 2.36.0 (20140111.2315)
 -->
<!-- Title: /home/travis/build/STORM&#45;IRIT/Radium&#45;Engine/src/Core/Mesh/DCEL/Iterator Pages: 1 -->
<svg width="326pt" height="111pt"
 viewBox="0.00 0.00 326.00 111.00" xmlns="http://www.w3.org/2000/svg" xmlns:xlink="http://www.w3.org/1999/xlink">
<g id="graph0" class="graph" transform="scale(1 1) rotate(0) translate(4 107)">
<title>/home/travis/build/STORM&#45;IRIT/Radium&#45;Engine/src/Core/Mesh/DCEL/Iterator</title>
<polygon fill="white" stroke="none" points="-4,4 -4,-107 322,-107 322,4 -4,4"/>
<g id="clust1" class="cluster"><title>clusterdir_2675901a455951db10e33b411821b9ee</title>
<g id="a_clust1"><a xlink:href="dir_2675901a455951db10e33b411821b9ee.html" target="_top" xlink:title="DCEL">
<polygon fill="#ddddee" stroke="black" points="8,-8 8,-95 310,-95 310,-8 8,-8"/>
<text text-anchor="middle" x="159" y="-83" font-family="Helvetica,sans-Serif" font-size="10.00">DCEL</text>
</a>
</g>
</g>
<g id="clust2" class="cluster"><title>clusterdir_2d724381b1913a754e7c1695472549cc</title>
<g id="a_clust2"><a xlink:href="dir_2d724381b1913a754e7c1695472549cc.html" target="_top">
<polygon fill="#eeeeff" stroke="black" points="16,-16 16,-68 302,-68 302,-16 16,-16"/>
</a>
</g>
</g>
<!-- dir_2d724381b1913a754e7c1695472549cc -->
<g id="node1" class="node"><title>dir_2d724381b1913a754e7c1695472549cc</title>
<text text-anchor="middle" x="267" y="-39.5" font-family="Helvetica,sans-Serif" font-size="10.00">Iterator</text>
</g>
<!-- dir_0dae9dc964b000c79d3a82faa6a2e107 -->
<g id="node2" class="node"><title>dir_0dae9dc964b000c79d3a82faa6a2e107</title>
<g id="a_node2"><a xlink:href="dir_0dae9dc964b000c79d3a82faa6a2e107.html" target="_top" xlink:title="Edge">
<polygon fill="white" stroke="black" points="222,-60 168,-60 168,-24 222,-24 222,-60"/>
<text text-anchor="middle" x="195" y="-39.5" font-family="Helvetica,sans-Serif" font-size="10.00">Edge</text>
</a>
</g>
</g>
<!-- dir_ae211d6dc7c635c88ba824eed07fe347 -->
<g id="node3" class="node"><title>dir_ae211d6dc7c635c88ba824eed07fe347</title>
<g id="a_node3"><a xlink:href="dir_ae211d6dc7c635c88ba824eed07fe347.html" target="_top" xlink:title="Face">
<polygon fill="white" stroke="black" points="150,-60 96,-60 96,-24 150,-24 150,-60"/>
<text text-anchor="middle" x="123" y="-39.5" font-family="Helvetica,sans-Serif" font-size="10.00">Face</text>
</a>
</g>
</g>
<!-- dir_235f393d0be2cf22c8883693d891ae70 -->
<g id="node4" class="node"><title>dir_235f393d0be2cf22c8883693d891ae70</title>
<g id="a_node4"><a xlink:href="dir_235f393d0be2cf22c8883693d891ae70.html" target="_top" xlink:title="Vertex">
<polygon fill="white" stroke="black" points="78,-60 24,-60 24,-24 78,-24 78,-60"/>
<text text-anchor="middle" x="51" y="-39.5" font-family="Helvetica,sans-Serif" font-size="10.00">Vertex</text>
</a>
</g>
</g>
</g>
</svg>
