<?xml version="1.0" encoding="UTF-8" standalone="no"?>
<!DOCTYPE svg PUBLIC "-//W3C//DTD SVG 1.1//EN"
 "http://www.w3.org/Graphics/SVG/1.1/DTD/svg11.dtd">
<!-- Generated by graphviz version 2.36.0 (20140111.2315)
 -->
<!-- Title: /home/travis/build/STORM&#45;IRIT/Radium&#45;Engine/src/Engine/Renderer Pages: 1 -->
<svg width="833pt" height="471pt"
 viewBox="0.00 0.00 832.59 471.00" xmlns="http://www.w3.org/2000/svg" xmlns:xlink="http://www.w3.org/1999/xlink">
<g id="graph0" class="graph" transform="scale(1 1) rotate(0) translate(4 467)">
<title>/home/travis/build/STORM&#45;IRIT/Radium&#45;Engine/src/Engine/Renderer</title>
<polygon fill="white" stroke="none" points="-4,4 -4,-467 828.595,-467 828.595,4 -4,4"/>
<g id="clust1" class="cluster"><title>clusterdir_3072bc1f55ed1280fe4fbe6b21c78379</title>
<g id="a_clust1"><a xlink:href="dir_3072bc1f55ed1280fe4fbe6b21c78379.html" target="_top" xlink:title="Engine">
<polygon fill="#ddddee" stroke="black" points="8,-8 8,-455 330,-455 330,-8 8,-8"/>
<text text-anchor="middle" x="169" y="-443" font-family="Helvetica,sans-Serif" font-size="10.00">Engine</text>
</a>
</g>
</g>
<g id="clust2" class="cluster"><title>clusterdir_54018506bb725509c19b38b6d9bcf0f6</title>
<g id="a_clust2"><a xlink:href="dir_54018506bb725509c19b38b6d9bcf0f6.html" target="_top">
<polygon fill="#eeeeff" stroke="black" points="16,-16 16,-428 322,-428 322,-16 16,-16"/>
</a>
</g>
</g>
<!-- dir_54018506bb725509c19b38b6d9bcf0f6 -->
<g id="node1" class="node"><title>dir_54018506bb725509c19b38b6d9bcf0f6</title>
<text text-anchor="middle" x="286" y="-399.5" font-family="Helvetica,sans-Serif" font-size="10.00">Renderer</text>
</g>
<!-- dir_35f904a890c1431d13964486334c23a9 -->
<g id="node2" class="node"><title>dir_35f904a890c1431d13964486334c23a9</title>
<g id="a_node2"><a xlink:href="dir_35f904a890c1431d13964486334c23a9.html" target="_top" xlink:title="Camera">
<polygon fill="white" stroke="black" points="240,-420 186,-420 186,-384 240,-384 240,-420"/>
<text text-anchor="middle" x="213" y="-399.5" font-family="Helvetica,sans-Serif" font-size="10.00">Camera</text>
</a>
</g>
</g>
<!-- dir_f6a0a87962fcbf90fc709c1bf5ba5a00 -->
<g id="node5" class="node"><title>dir_f6a0a87962fcbf90fc709c1bf5ba5a00</title>
<g id="a_node5"><a xlink:href="dir_f6a0a87962fcbf90fc709c1bf5ba5a00.html" target="_top" xlink:title="Mesh">
<polygon fill="white" stroke="black" points="270,-276 216,-276 216,-240 270,-240 270,-276"/>
<text text-anchor="middle" x="243" y="-255.5" font-family="Helvetica,sans-Serif" font-size="10.00">Mesh</text>
</a>
</g>
</g>
<!-- dir_35f904a890c1431d13964486334c23a9&#45;&gt;dir_f6a0a87962fcbf90fc709c1bf5ba5a00 -->
<g id="edge33" class="edge"><title>dir_35f904a890c1431d13964486334c23a9&#45;&gt;dir_f6a0a87962fcbf90fc709c1bf5ba5a00</title>
<path fill="none" stroke="black" d="M185.965,-384.008C174.106,-374.929 161.438,-362.603 155,-348 148.546,-333.359 147.128,-325.93 155,-312 166.034,-292.474 187.462,-279.342 206.41,-271.035"/>
<polygon fill="black" stroke="black" points="207.802,-274.247 215.74,-267.229 205.158,-267.765 207.802,-274.247"/>
<g id="a_edge33&#45;headlabel"><a xlink:href="dir_000087_000090.html" target="_top" xlink:title="1">
<text text-anchor="middle" x="205.546" y="-275.733" font-family="Helvetica,sans-Serif" font-size="10.00">1</text>
</a>
</g>
</g>
<!-- dir_652267079d823ee01f6c6cf98db9085b -->
<g id="node8" class="node"><title>dir_652267079d823ee01f6c6cf98db9085b</title>
<g id="a_node8"><a xlink:href="dir_652267079d823ee01f6c6cf98db9085b.html" target="_top" xlink:title="RenderObject">
<polygon fill="white" stroke="red" points="313.25,-348 236.75,-348 236.75,-312 313.25,-312 313.25,-348"/>
<text text-anchor="middle" x="275" y="-327.5" font-family="Helvetica,sans-Serif" font-size="10.00">RenderObject</text>
</a>
</g>
</g>
<!-- dir_35f904a890c1431d13964486334c23a9&#45;&gt;dir_652267079d823ee01f6c6cf98db9085b -->
<g id="edge30" class="edge"><title>dir_35f904a890c1431d13964486334c23a9&#45;&gt;dir_652267079d823ee01f6c6cf98db9085b</title>
<path fill="none" stroke="black" d="M228.326,-383.697C235.759,-375.305 244.823,-365.07 252.98,-355.861"/>
<polygon fill="black" stroke="black" points="255.84,-357.911 259.85,-348.104 250.6,-353.27 255.84,-357.911"/>
<g id="a_edge30&#45;headlabel"><a xlink:href="dir_000087_000093.html" target="_top" xlink:title="1">
<text text-anchor="middle" x="255.582" y="-359.984" font-family="Helvetica,sans-Serif" font-size="10.00">1</text>
</a>
</g>
</g>
<!-- dir_6bc97c5ccce2964f7b25f8377ac95818 -->
<g id="node9" class="node"><title>dir_6bc97c5ccce2964f7b25f8377ac95818</title>
<g id="a_node9"><a xlink:href="dir_6bc97c5ccce2964f7b25f8377ac95818.html" target="_top" xlink:title="RenderTechnique">
<polygon fill="white" stroke="black" points="223.25,-204 130.75,-204 130.75,-168 223.25,-168 223.25,-204"/>
<text text-anchor="middle" x="177" y="-183.5" font-family="Helvetica,sans-Serif" font-size="10.00">RenderTechnique</text>
</a>
</g>
</g>
<!-- dir_35f904a890c1431d13964486334c23a9&#45;&gt;dir_6bc97c5ccce2964f7b25f8377ac95818 -->
<g id="edge34" class="edge"><title>dir_35f904a890c1431d13964486334c23a9&#45;&gt;dir_6bc97c5ccce2964f7b25f8377ac95818</title>
<path fill="none" stroke="black" d="M186.413,-383.967C156.547,-362.91 110.252,-323.918 95,-276 90.1473,-260.754 87.3503,-254.053 95,-240 101.913,-227.301 113.322,-217.181 125.465,-209.33"/>
<polygon fill="black" stroke="black" points="127.587,-212.14 134.382,-204.011 124.001,-206.128 127.587,-212.14"/>
<g id="a_edge34&#45;headlabel"><a xlink:href="dir_000087_000095.html" target="_top" xlink:title="1">
<text text-anchor="middle" x="125.955" y="-213.919" font-family="Helvetica,sans-Serif" font-size="10.00">1</text>
</a>
</g>
</g>
<!-- dir_a2f0e5642e47e7ed59fe0f0829eafb5f -->
<g id="node11" class="node"><title>dir_a2f0e5642e47e7ed59fe0f0829eafb5f</title>
<g id="a_node11"><a xlink:href="dir_a2f0e5642e47e7ed59fe0f0829eafb5f.html" target="_top" xlink:title="Core">
<polygon fill="white" stroke="red" points="591,-348 537,-348 537,-312 591,-312 591,-348"/>
<text text-anchor="middle" x="564" y="-327.5" font-family="Helvetica,sans-Serif" font-size="10.00">Core</text>
</a>
</g>
</g>
<!-- dir_35f904a890c1431d13964486334c23a9&#45;&gt;dir_a2f0e5642e47e7ed59fe0f0829eafb5f -->
<g id="edge31" class="edge"><title>dir_35f904a890c1431d13964486334c23a9&#45;&gt;dir_a2f0e5642e47e7ed59fe0f0829eafb5f</title>
<path fill="none" stroke="black" d="M240.172,-387.099C243.104,-385.923 246.082,-384.858 249,-384 366.838,-349.36 404.362,-379.795 523,-348 524.256,-347.663 525.525,-347.297 526.799,-346.907"/>
<polygon fill="black" stroke="black" points="528.248,-350.109 536.554,-343.532 525.959,-343.494 528.248,-350.109"/>
<g id="a_edge31&#45;headlabel"><a xlink:href="dir_000087_000022.html" target="_top" xlink:title="3">
<text text-anchor="middle" x="525.78" y="-351.468" font-family="Helvetica,sans-Serif" font-size="10.00">3</text>
</a>
</g>
</g>
<!-- dir_7205f054df4e14abb60715afe3e7e90c -->
<g id="node12" class="node"><title>dir_7205f054df4e14abb60715afe3e7e90c</title>
<g id="a_node12"><a xlink:href="dir_7205f054df4e14abb60715afe3e7e90c.html" target="_top" xlink:title="Entity">
<polygon fill="none" stroke="black" points="760,-276 706,-276 706,-240 760,-240 760,-276"/>
<text text-anchor="middle" x="733" y="-255.5" font-family="Helvetica,sans-Serif" font-size="10.00">Entity</text>
</a>
</g>
</g>
<!-- dir_35f904a890c1431d13964486334c23a9&#45;&gt;dir_7205f054df4e14abb60715afe3e7e90c -->
<g id="edge32" class="edge"><title>dir_35f904a890c1431d13964486334c23a9&#45;&gt;dir_7205f054df4e14abb60715afe3e7e90c</title>
<path fill="none" stroke="black" d="M240.148,-387.013C243.084,-385.854 246.07,-384.816 249,-384 400.066,-341.916 452.474,-401.179 600,-348 640.565,-333.377 680.829,-303.773 706.247,-282.727"/>
<polygon fill="black" stroke="black" points="708.57,-285.346 713.959,-276.224 704.058,-279.994 708.57,-285.346"/>
<g id="a_edge32&#45;headlabel"><a xlink:href="dir_000087_000077.html" target="_top" xlink:title="1">
<text text-anchor="middle" x="707.652" y="-287.334" font-family="Helvetica,sans-Serif" font-size="10.00">1</text>
</a>
</g>
</g>
<!-- dir_d0f3276f03e9a9cb8f8ba3f2a5ea1262 -->
<g id="node14" class="node"><title>dir_d0f3276f03e9a9cb8f8ba3f2a5ea1262</title>
<g id="a_node14"><a xlink:href="dir_d0f3276f03e9a9cb8f8ba3f2a5ea1262.html" target="_top" xlink:title="Component">
<polygon fill="none" stroke="black" points="695.25,-204 628.75,-204 628.75,-168 695.25,-168 695.25,-204"/>
<text text-anchor="middle" x="662" y="-183.5" font-family="Helvetica,sans-Serif" font-size="10.00">Component</text>
</a>
</g>
</g>
<!-- dir_35f904a890c1431d13964486334c23a9&#45;&gt;dir_d0f3276f03e9a9cb8f8ba3f2a5ea1262 -->
<g id="edge35" class="edge"><title>dir_35f904a890c1431d13964486334c23a9&#45;&gt;dir_d0f3276f03e9a9cb8f8ba3f2a5ea1262</title>
<path fill="none" stroke="black" d="M240.138,-386.977C243.076,-385.825 246.066,-384.799 249,-384 420.379,-337.363 477.946,-402.466 647,-348 706.927,-328.693 737.781,-330.675 769,-276 776.934,-262.106 777.437,-253.595 769,-240 755.035,-217.498 728.362,-204.256 705.142,-196.635"/>
<polygon fill="black" stroke="black" points="706.034,-193.249 695.449,-193.703 704.007,-199.949 706.034,-193.249"/>
<g id="a_edge35&#45;headlabel"><a xlink:href="dir_000087_000076.html" target="_top" xlink:title="1">
<text text-anchor="middle" x="710.297" y="-189.072" font-family="Helvetica,sans-Serif" font-size="10.00">1</text>
</a>
</g>
</g>
<!-- dir_b3c92c43cc8feb1052f624d79df8b6af -->
<g id="node3" class="node"><title>dir_b3c92c43cc8feb1052f624d79df8b6af</title>
<g id="a_node3"><a xlink:href="dir_b3c92c43cc8feb1052f624d79df8b6af.html" target="_top" xlink:title="Light">
<polygon fill="white" stroke="black" points="218,-348 164,-348 164,-312 218,-312 218,-348"/>
<text text-anchor="middle" x="191" y="-327.5" font-family="Helvetica,sans-Serif" font-size="10.00">Light</text>
</a>
</g>
</g>
<!-- dir_b3c92c43cc8feb1052f624d79df8b6af&#45;&gt;dir_6bc97c5ccce2964f7b25f8377ac95818 -->
<g id="edge2" class="edge"><title>dir_b3c92c43cc8feb1052f624d79df8b6af&#45;&gt;dir_6bc97c5ccce2964f7b25f8377ac95818</title>
<path fill="none" stroke="black" d="M189.311,-311.871C186.925,-287.67 182.542,-243.211 179.701,-214.393"/>
<polygon fill="black" stroke="black" points="183.159,-213.798 178.695,-204.189 176.193,-214.484 183.159,-213.798"/>
<g id="a_edge2&#45;headlabel"><a xlink:href="dir_000088_000095.html" target="_top" xlink:title="4">
<text text-anchor="middle" x="186.337" y="-214.596" font-family="Helvetica,sans-Serif" font-size="10.00">4</text>
</a>
</g>
</g>
<!-- dir_b3c92c43cc8feb1052f624d79df8b6af&#45;&gt;dir_a2f0e5642e47e7ed59fe0f0829eafb5f -->
<g id="edge1" class="edge"><title>dir_b3c92c43cc8feb1052f624d79df8b6af&#45;&gt;dir_a2f0e5642e47e7ed59fe0f0829eafb5f</title>
<path fill="none" stroke="black" d="M208.081,-348.217C215.846,-355.198 225.615,-362.357 236,-366 336.877,-401.386 464.974,-366.053 527.004,-344.3"/>
<polygon fill="black" stroke="black" points="528.504,-347.48 536.734,-340.808 526.139,-340.892 528.504,-347.48"/>
<g id="a_edge1&#45;headlabel"><a xlink:href="dir_000088_000022.html" target="_top" xlink:title="2">
<text text-anchor="middle" x="526.08" y="-348.867" font-family="Helvetica,sans-Serif" font-size="10.00">2</text>
</a>
</g>
</g>
<!-- dir_06113b60808b1bbb52a01dfd2c3a8657 -->
<g id="node13" class="node"><title>dir_06113b60808b1bbb52a01dfd2c3a8657</title>
<g id="a_node13"><a xlink:href="dir_06113b60808b1bbb52a01dfd2c3a8657.html" target="_top" xlink:title="Managers">
<polygon fill="white" stroke="red" points="629.25,-132 570.75,-132 570.75,-96 629.25,-96 629.25,-132"/>
<text text-anchor="middle" x="600" y="-111.5" font-family="Helvetica,sans-Serif" font-size="10.00">Managers</text>
</a>
</g>
</g>
<!-- dir_b3c92c43cc8feb1052f624d79df8b6af&#45;&gt;dir_06113b60808b1bbb52a01dfd2c3a8657 -->
<g id="edge3" class="edge"><title>dir_b3c92c43cc8feb1052f624d79df8b6af&#45;&gt;dir_06113b60808b1bbb52a01dfd2c3a8657</title>
<path fill="none" stroke="black" d="M218.072,-316.072C221.077,-314.68 224.098,-313.299 227,-312 264.446,-295.237 277.672,-298.466 312,-276 331.466,-263.26 332.908,-255.783 350,-240 385.144,-207.548 388.429,-191.665 430,-168 471.448,-144.405 524.677,-130.001 560.436,-122.279"/>
<polygon fill="black" stroke="black" points="561.411,-125.651 570.487,-120.185 559.983,-118.798 561.411,-125.651"/>
<g id="a_edge3&#45;headlabel"><a xlink:href="dir_000088_000079.html" target="_top" xlink:title="1">
<text text-anchor="middle" x="558.471" y="-126.663" font-family="Helvetica,sans-Serif" font-size="10.00">1</text>
</a>
</g>
</g>
<!-- dir_b3c92c43cc8feb1052f624d79df8b6af&#45;&gt;dir_d0f3276f03e9a9cb8f8ba3f2a5ea1262 -->
<g id="edge4" class="edge"><title>dir_b3c92c43cc8feb1052f624d79df8b6af&#45;&gt;dir_d0f3276f03e9a9cb8f8ba3f2a5ea1262</title>
<path fill="none" stroke="black" d="M218.326,-315.555C221.228,-314.291 224.157,-313.08 227,-312 280.249,-291.777 295.593,-292.86 350,-276 399.135,-260.773 410.655,-254.534 460,-240 514.345,-223.993 577.606,-207.781 618.652,-197.578"/>
<polygon fill="black" stroke="black" points="619.724,-200.918 628.589,-195.117 618.041,-194.123 619.724,-200.918"/>
<g id="a_edge4&#45;headlabel"><a xlink:href="dir_000088_000076.html" target="_top" xlink:title="1">
<text text-anchor="middle" x="616.917" y="-202.038" font-family="Helvetica,sans-Serif" font-size="10.00">1</text>
</a>
</g>
</g>
<!-- dir_909774b1a000bf73b2cf501716b773f3 -->
<g id="node4" class="node"><title>dir_909774b1a000bf73b2cf501716b773f3</title>
<g id="a_node4"><a xlink:href="dir_909774b1a000bf73b2cf501716b773f3.html" target="_top" xlink:title="Material">
<polygon fill="white" stroke="black" points="158,-276 104,-276 104,-240 158,-240 158,-276"/>
<text text-anchor="middle" x="131" y="-255.5" font-family="Helvetica,sans-Serif" font-size="10.00">Material</text>
</a>
</g>
</g>
<!-- dir_909774b1a000bf73b2cf501716b773f3&#45;&gt;dir_6bc97c5ccce2964f7b25f8377ac95818 -->
<g id="edge56" class="edge"><title>dir_909774b1a000bf73b2cf501716b773f3&#45;&gt;dir_6bc97c5ccce2964f7b25f8377ac95818</title>
<path fill="none" stroke="black" d="M136.455,-239.697C141.01,-231.474 147.374,-221.483 153.775,-212.421"/>
<polygon fill="black" stroke="black" points="156.781,-214.24 159.865,-204.104 151.133,-210.104 156.781,-214.24"/>
<g id="a_edge56&#45;headlabel"><a xlink:href="dir_000089_000095.html" target="_top" xlink:title="3">
<text text-anchor="middle" x="156.948" y="-216.318" font-family="Helvetica,sans-Serif" font-size="10.00">3</text>
</a>
</g>
</g>
<!-- dir_8efb2e226a329d96dc3bcfc9eaf1a998 -->
<g id="node10" class="node"><title>dir_8efb2e226a329d96dc3bcfc9eaf1a998</title>
<g id="a_node10"><a xlink:href="dir_8efb2e226a329d96dc3bcfc9eaf1a998.html" target="_top" xlink:title="Texture">
<polygon fill="white" stroke="black" points="181,-132 127,-132 127,-96 181,-96 181,-132"/>
<text text-anchor="middle" x="154" y="-111.5" font-family="Helvetica,sans-Serif" font-size="10.00">Texture</text>
</a>
</g>
</g>
<!-- dir_909774b1a000bf73b2cf501716b773f3&#45;&gt;dir_8efb2e226a329d96dc3bcfc9eaf1a998 -->
<g id="edge54" class="edge"><title>dir_909774b1a000bf73b2cf501716b773f3&#45;&gt;dir_8efb2e226a329d96dc3bcfc9eaf1a998</title>
<path fill="none" stroke="black" d="M125.242,-239.945C119.993,-221.786 114.034,-192.368 121,-168 123.713,-158.51 128.672,-149.065 133.935,-140.834"/>
<polygon fill="black" stroke="black" points="136.922,-142.666 139.673,-132.434 131.142,-138.717 136.922,-142.666"/>
<g id="a_edge54&#45;headlabel"><a xlink:href="dir_000089_000096.html" target="_top" xlink:title="2">
<text text-anchor="middle" x="137.239" y="-144.735" font-family="Helvetica,sans-Serif" font-size="10.00">2</text>
</a>
</g>
</g>
<!-- dir_909774b1a000bf73b2cf501716b773f3&#45;&gt;dir_a2f0e5642e47e7ed59fe0f0829eafb5f -->
<g id="edge55" class="edge"><title>dir_909774b1a000bf73b2cf501716b773f3&#45;&gt;dir_a2f0e5642e47e7ed59fe0f0829eafb5f</title>
<path fill="none" stroke="black" d="M158.34,-265.62C172.762,-268.984 190.783,-272.987 207,-276 322.835,-297.524 461.107,-316.022 526.364,-324.328"/>
<polygon fill="black" stroke="black" points="526.206,-327.836 536.567,-325.619 527.085,-320.891 526.206,-327.836"/>
<g id="a_edge55&#45;headlabel"><a xlink:href="dir_000089_000022.html" target="_top" xlink:title="3">
<text text-anchor="middle" x="522.284" y="-327.701" font-family="Helvetica,sans-Serif" font-size="10.00">3</text>
</a>
</g>
</g>
<!-- dir_745a441f70a5ddf403f2f793490dcc6d -->
<g id="node6" class="node"><title>dir_745a441f70a5ddf403f2f793490dcc6d</title>
<g id="a_node6"><a xlink:href="dir_745a441f70a5ddf403f2f793490dcc6d.html" target="_top" xlink:title="OpenGL">
<polygon fill="white" stroke="black" points="227,-60 173,-60 173,-24 227,-24 227,-60"/>
<text text-anchor="middle" x="200" y="-39.5" font-family="Helvetica,sans-Serif" font-size="10.00">OpenGL</text>
</a>
</g>
</g>
<!-- dir_f6a0a87962fcbf90fc709c1bf5ba5a00&#45;&gt;dir_745a441f70a5ddf403f2f793490dcc6d -->
<g id="edge29" class="edge"><title>dir_f6a0a87962fcbf90fc709c1bf5ba5a00&#45;&gt;dir_745a441f70a5ddf403f2f793490dcc6d</title>
<path fill="none" stroke="black" d="M241.534,-239.838C239.845,-221.84 236.684,-192.783 232,-168 225.557,-133.91 215.198,-95.3171 208.019,-70.147"/>
<polygon fill="black" stroke="black" points="211.294,-68.871 205.158,-60.2338 204.568,-70.8122 211.294,-68.871"/>
<g id="a_edge29&#45;headlabel"><a xlink:href="dir_000090_000091.html" target="_top" xlink:title="1">
<text text-anchor="middle" x="215.018" y="-69.0373" font-family="Helvetica,sans-Serif" font-size="10.00">1</text>
</a>
</g>
</g>
<!-- dir_f6a0a87962fcbf90fc709c1bf5ba5a00&#45;&gt;dir_a2f0e5642e47e7ed59fe0f0829eafb5f -->
<g id="edge28" class="edge"><title>dir_f6a0a87962fcbf90fc709c1bf5ba5a00&#45;&gt;dir_a2f0e5642e47e7ed59fe0f0829eafb5f</title>
<path fill="none" stroke="black" d="M270.36,-264.966C327.987,-277.533 461.902,-306.736 527.063,-320.945"/>
<polygon fill="black" stroke="black" points="526.392,-324.381 536.908,-323.092 527.884,-317.542 526.392,-324.381"/>
<g id="a_edge28&#45;headlabel"><a xlink:href="dir_000090_000022.html" target="_top" xlink:title="5">
<text text-anchor="middle" x="522.275" y="-323.889" font-family="Helvetica,sans-Serif" font-size="10.00">5</text>
</a>
</g>
</g>
<!-- dir_ac53bbf7aa3921b9bb37792f08d5cbd9 -->
<g id="node7" class="node"><title>dir_ac53bbf7aa3921b9bb37792f08d5cbd9</title>
<g id="a_node7"><a xlink:href="dir_ac53bbf7aa3921b9bb37792f08d5cbd9.html" target="_top" xlink:title="Renderers">
<polygon fill="white" stroke="black" points="135.5,-420 74.5,-420 74.5,-384 135.5,-384 135.5,-420"/>
<text text-anchor="middle" x="105" y="-399.5" font-family="Helvetica,sans-Serif" font-size="10.00">Renderers</text>
</a>
</g>
</g>
<!-- dir_ac53bbf7aa3921b9bb37792f08d5cbd9&#45;&gt;dir_b3c92c43cc8feb1052f624d79df8b6af -->
<g id="edge19" class="edge"><title>dir_ac53bbf7aa3921b9bb37792f08d5cbd9&#45;&gt;dir_b3c92c43cc8feb1052f624d79df8b6af</title>
<path fill="none" stroke="black" d="M126.258,-383.697C137.089,-374.881 150.418,-364.032 162.16,-354.474"/>
<polygon fill="black" stroke="black" points="164.44,-357.132 169.986,-348.104 160.021,-351.703 164.44,-357.132"/>
<g id="a_edge19&#45;headlabel"><a xlink:href="dir_000092_000088.html" target="_top" xlink:title="2">
<text text-anchor="middle" x="163.444" y="-359.103" font-family="Helvetica,sans-Serif" font-size="10.00">2</text>
</a>
</g>
</g>
<!-- dir_ac53bbf7aa3921b9bb37792f08d5cbd9&#45;&gt;dir_909774b1a000bf73b2cf501716b773f3 -->
<g id="edge27" class="edge"><title>dir_ac53bbf7aa3921b9bb37792f08d5cbd9&#45;&gt;dir_909774b1a000bf73b2cf501716b773f3</title>
<path fill="none" stroke="black" d="M100.888,-383.937C97.2335,-365.771 93.4024,-336.347 100,-312 102.58,-302.48 107.345,-292.917 112.378,-284.587"/>
<polygon fill="black" stroke="black" points="115.378,-286.393 117.854,-276.092 109.494,-282.601 115.378,-286.393"/>
<g id="a_edge27&#45;headlabel"><a xlink:href="dir_000092_000089.html" target="_top" xlink:title="1">
<text text-anchor="middle" x="115.817" y="-288.453" font-family="Helvetica,sans-Serif" font-size="10.00">1</text>
</a>
</g>
</g>
<!-- dir_ac53bbf7aa3921b9bb37792f08d5cbd9&#45;&gt;dir_f6a0a87962fcbf90fc709c1bf5ba5a00 -->
<g id="edge24" class="edge"><title>dir_ac53bbf7aa3921b9bb37792f08d5cbd9&#45;&gt;dir_f6a0a87962fcbf90fc709c1bf5ba5a00</title>
<path fill="none" stroke="black" d="M109.39,-383.737C115.07,-364.312 126.609,-332.764 146,-312 162.546,-294.282 186.383,-281.144 206.286,-272.381"/>
<polygon fill="black" stroke="black" points="207.827,-275.53 215.691,-268.43 205.116,-269.076 207.827,-275.53"/>
<g id="a_edge24&#45;headlabel"><a xlink:href="dir_000092_000090.html" target="_top" xlink:title="2">
<text text-anchor="middle" x="205.613" y="-277.04" font-family="Helvetica,sans-Serif" font-size="10.00">2</text>
</a>
</g>
</g>
<!-- dir_ac53bbf7aa3921b9bb37792f08d5cbd9&#45;&gt;dir_745a441f70a5ddf403f2f793490dcc6d -->
<g id="edge23" class="edge"><title>dir_ac53bbf7aa3921b9bb37792f08d5cbd9&#45;&gt;dir_745a441f70a5ddf403f2f793490dcc6d</title>
<path fill="none" stroke="black" d="M87.6412,-383.935C64.1125,-358.894 25,-309.65 25,-259 25,-259 25,-259 25,-185 25,-114.427 111.878,-72.8086 163.208,-54.3783"/>
<polygon fill="black" stroke="black" points="164.355,-57.6851 172.656,-51.1022 162.061,-51.0713 164.355,-57.6851"/>
<g id="a_edge23&#45;headlabel"><a xlink:href="dir_000092_000091.html" target="_top" xlink:title="2">
<text text-anchor="middle" x="161.888" y="-59.0452" font-family="Helvetica,sans-Serif" font-size="10.00">2</text>
</a>
</g>
</g>
<!-- dir_ac53bbf7aa3921b9bb37792f08d5cbd9&#45;&gt;dir_652267079d823ee01f6c6cf98db9085b -->
<g id="edge20" class="edge"><title>dir_ac53bbf7aa3921b9bb37792f08d5cbd9&#45;&gt;dir_652267079d823ee01f6c6cf98db9085b</title>
<path fill="none" stroke="black" d="M135.786,-388.324C161.231,-377.846 197.802,-362.788 227.075,-350.734"/>
<polygon fill="black" stroke="black" points="228.782,-353.816 236.696,-346.772 226.117,-347.343 228.782,-353.816"/>
<g id="a_edge20&#45;headlabel"><a xlink:href="dir_000092_000093.html" target="_top" xlink:title="2">
<text text-anchor="middle" x="226.539" y="-355.31" font-family="Helvetica,sans-Serif" font-size="10.00">2</text>
</a>
</g>
</g>
<!-- dir_ac53bbf7aa3921b9bb37792f08d5cbd9&#45;&gt;dir_6bc97c5ccce2964f7b25f8377ac95818 -->
<g id="edge25" class="edge"><title>dir_ac53bbf7aa3921b9bb37792f08d5cbd9&#45;&gt;dir_6bc97c5ccce2964f7b25f8377ac95818</title>
<path fill="none" stroke="black" d="M96.7396,-383.665C83.2409,-352.607 60.4802,-286.394 87,-240 94.8247,-226.311 107.717,-215.807 121.332,-207.903"/>
<polygon fill="black" stroke="black" points="123.176,-210.886 130.337,-203.078 119.87,-204.716 123.176,-210.886"/>
<g id="a_edge25&#45;headlabel"><a xlink:href="dir_000092_000095.html" target="_top" xlink:title="4">
<text text-anchor="middle" x="121.349" y="-212.586" font-family="Helvetica,sans-Serif" font-size="10.00">4</text>
</a>
</g>
</g>
<!-- dir_ac53bbf7aa3921b9bb37792f08d5cbd9&#45;&gt;dir_8efb2e226a329d96dc3bcfc9eaf1a998 -->
<g id="edge21" class="edge"><title>dir_ac53bbf7aa3921b9bb37792f08d5cbd9&#45;&gt;dir_8efb2e226a329d96dc3bcfc9eaf1a998</title>
<path fill="none" stroke="black" d="M91.5057,-383.952C84.5338,-374.064 76.7237,-361.021 73,-348 59.8018,-301.848 59.4724,-286.339 72,-240 82.4823,-201.227 110.257,-163.652 130.586,-139.996"/>
<polygon fill="black" stroke="black" points="133.443,-142.048 137.426,-132.23 128.19,-137.421 133.443,-142.048"/>
<g id="a_edge21&#45;headlabel"><a xlink:href="dir_000092_000096.html" target="_top" xlink:title="1">
<text text-anchor="middle" x="133.198" y="-144.122" font-family="Helvetica,sans-Serif" font-size="10.00">1</text>
</a>
</g>
</g>
<!-- dir_ac53bbf7aa3921b9bb37792f08d5cbd9&#45;&gt;dir_a2f0e5642e47e7ed59fe0f0829eafb5f -->
<g id="edge22" class="edge"><title>dir_ac53bbf7aa3921b9bb37792f08d5cbd9&#45;&gt;dir_a2f0e5642e47e7ed59fe0f0829eafb5f</title>
<path fill="none" stroke="black" d="M135.656,-392.847C148.372,-389.704 163.324,-386.316 177,-384 329.437,-358.183 373.136,-386.006 523,-348 524.26,-347.68 525.533,-347.329 526.81,-346.951"/>
<polygon fill="black" stroke="black" points="528.236,-350.164 536.582,-343.638 525.988,-343.535 528.236,-350.164"/>
<g id="a_edge22&#45;headlabel"><a xlink:href="dir_000092_000022.html" target="_top" xlink:title="7">
<text text-anchor="middle" x="525.743" y="-351.507" font-family="Helvetica,sans-Serif" font-size="10.00">7</text>
</a>
</g>
</g>
<!-- dir_ac53bbf7aa3921b9bb37792f08d5cbd9&#45;&gt;dir_06113b60808b1bbb52a01dfd2c3a8657 -->
<g id="edge26" class="edge"><title>dir_ac53bbf7aa3921b9bb37792f08d5cbd9&#45;&gt;dir_06113b60808b1bbb52a01dfd2c3a8657</title>
<path fill="none" stroke="black" d="M135.807,-393.623C194.666,-379.509 317.688,-349.905 322,-348 424.85,-302.571 448.643,-281.608 530,-204 550.261,-184.673 569.647,-159.299 582.858,-140.592"/>
<polygon fill="black" stroke="black" points="585.819,-142.465 588.65,-132.256 580.07,-138.471 585.819,-142.465"/>
<g id="a_edge26&#45;headlabel"><a xlink:href="dir_000092_000079.html" target="_top" xlink:title="2">
<text text-anchor="middle" x="586.099" y="-144.537" font-family="Helvetica,sans-Serif" font-size="10.00">2</text>
</a>
</g>
</g>
<!-- dir_652267079d823ee01f6c6cf98db9085b&#45;&gt;dir_909774b1a000bf73b2cf501716b773f3 -->
<g id="edge11" class="edge"><title>dir_652267079d823ee01f6c6cf98db9085b&#45;&gt;dir_909774b1a000bf73b2cf501716b773f3</title>
<path fill="none" stroke="black" d="M239.774,-311.876C217.771,-301.18 189.506,-287.44 167.303,-276.647"/>
<polygon fill="black" stroke="black" points="168.719,-273.444 158.195,-272.22 165.659,-279.74 168.719,-273.444"/>
<g id="a_edge11&#45;headlabel"><a xlink:href="dir_000093_000089.html" target="_top" xlink:title="2">
<text text-anchor="middle" x="173.193" y="-269.962" font-family="Helvetica,sans-Serif" font-size="10.00">2</text>
</a>
</g>
</g>
<!-- dir_652267079d823ee01f6c6cf98db9085b&#45;&gt;dir_f6a0a87962fcbf90fc709c1bf5ba5a00 -->
<g id="edge7" class="edge"><title>dir_652267079d823ee01f6c6cf98db9085b&#45;&gt;dir_f6a0a87962fcbf90fc709c1bf5ba5a00</title>
<path fill="none" stroke="black" d="M267.09,-311.697C263.447,-303.728 259.046,-294.1 255.006,-285.264"/>
<polygon fill="black" stroke="black" points="258.16,-283.744 250.819,-276.104 251.794,-286.654 258.16,-283.744"/>
<g id="a_edge7&#45;headlabel"><a xlink:href="dir_000093_000090.html" target="_top" xlink:title="3">
<text text-anchor="middle" x="262.237" y="-283.333" font-family="Helvetica,sans-Serif" font-size="10.00">3</text>
</a>
</g>
</g>
<!-- dir_652267079d823ee01f6c6cf98db9085b&#45;&gt;dir_6bc97c5ccce2964f7b25f8377ac95818 -->
<g id="edge8" class="edge"><title>dir_652267079d823ee01f6c6cf98db9085b&#45;&gt;dir_6bc97c5ccce2964f7b25f8377ac95818</title>
<path fill="none" stroke="black" d="M245.931,-311.96C232.464,-302.792 217.218,-290.406 207,-276 193.849,-257.458 186.124,-232.717 181.816,-214.027"/>
<polygon fill="black" stroke="black" points="185.206,-213.138 179.71,-204.08 178.357,-214.588 185.206,-213.138"/>
<g id="a_edge8&#45;headlabel"><a xlink:href="dir_000093_000095.html" target="_top" xlink:title="4">
<text text-anchor="middle" x="188.728" y="-213.567" font-family="Helvetica,sans-Serif" font-size="10.00">4</text>
</a>
</g>
</g>
<!-- dir_652267079d823ee01f6c6cf98db9085b&#45;&gt;dir_a2f0e5642e47e7ed59fe0f0829eafb5f -->
<g id="edge5" class="edge"><title>dir_652267079d823ee01f6c6cf98db9085b&#45;&gt;dir_a2f0e5642e47e7ed59fe0f0829eafb5f</title>
<path fill="none" stroke="black" d="M313.383,-330C384.443,-330 455.502,-330 526.562,-330"/>
<polygon fill="black" stroke="black" points="526.589,-333.5 536.589,-330 526.589,-326.5 526.589,-333.5"/>
<g id="a_edge5&#45;headlabel"><a xlink:href="dir_000093_000022.html" target="_top" xlink:title="13">
<text text-anchor="middle" x="522.994" y="-333.839" font-family="Helvetica,sans-Serif" font-size="10.00">13</text>
</a>
</g>
</g>
<!-- dir_652267079d823ee01f6c6cf98db9085b&#45;&gt;dir_7205f054df4e14abb60715afe3e7e90c -->
<g id="edge6" class="edge"><title>dir_652267079d823ee01f6c6cf98db9085b&#45;&gt;dir_7205f054df4e14abb60715afe3e7e90c</title>
<path fill="none" stroke="black" d="M313.341,-324.578C381.922,-316.459 530.031,-297.976 654,-276 667.625,-273.585 682.478,-270.507 695.59,-267.636"/>
<polygon fill="black" stroke="black" points="696.674,-270.981 705.676,-265.394 695.155,-264.147 696.674,-270.981"/>
<g id="a_edge6&#45;headlabel"><a xlink:href="dir_000093_000077.html" target="_top" xlink:title="2">
<text text-anchor="middle" x="693.781" y="-272.032" font-family="Helvetica,sans-Serif" font-size="10.00">2</text>
</a>
</g>
</g>
<!-- dir_652267079d823ee01f6c6cf98db9085b&#45;&gt;dir_06113b60808b1bbb52a01dfd2c3a8657 -->
<g id="edge9" class="edge"><title>dir_652267079d823ee01f6c6cf98db9085b&#45;&gt;dir_06113b60808b1bbb52a01dfd2c3a8657</title>
<path fill="none" stroke="black" d="M313.44,-313.38C335.798,-303.709 364.176,-290.412 388,-276 458.513,-233.345 533.653,-171.998 572.762,-138.695"/>
<polygon fill="black" stroke="black" points="575.226,-141.193 580.546,-132.031 570.674,-135.876 575.226,-141.193"/>
<g id="a_edge9&#45;headlabel"><a xlink:href="dir_000093_000079.html" target="_top" xlink:title="2">
<text text-anchor="middle" x="574.342" y="-143.188" font-family="Helvetica,sans-Serif" font-size="10.00">2</text>
</a>
</g>
</g>
<!-- dir_652267079d823ee01f6c6cf98db9085b&#45;&gt;dir_d0f3276f03e9a9cb8f8ba3f2a5ea1262 -->
<g id="edge10" class="edge"><title>dir_652267079d823ee01f6c6cf98db9085b&#45;&gt;dir_d0f3276f03e9a9cb8f8ba3f2a5ea1262</title>
<path fill="none" stroke="black" d="M313.318,-323.399C359.242,-315.933 438.009,-300.709 502,-276 547.61,-258.388 596.173,-229.81 627.675,-209.802"/>
<polygon fill="black" stroke="black" points="629.961,-212.493 636.486,-204.146 626.18,-206.603 629.961,-212.493"/>
<g id="a_edge10&#45;headlabel"><a xlink:href="dir_000093_000076.html" target="_top" xlink:title="2">
<text text-anchor="middle" x="628.47" y="-214.324" font-family="Helvetica,sans-Serif" font-size="10.00">2</text>
</a>
</g>
</g>
<!-- dir_6bc97c5ccce2964f7b25f8377ac95818&#45;&gt;dir_909774b1a000bf73b2cf501716b773f3 -->
<g id="edge39" class="edge"><title>dir_6bc97c5ccce2964f7b25f8377ac95818&#45;&gt;dir_909774b1a000bf73b2cf501716b773f3</title>
<path fill="none" stroke="black" d="M171.655,-204.104C167.129,-212.298 160.78,-222.282 154.38,-231.359"/>
<polygon fill="black" stroke="black" points="151.362,-229.558 148.287,-239.697 157.013,-233.689 151.362,-229.558"/>
<g id="a_edge39&#45;headlabel"><a xlink:href="dir_000095_000089.html" target="_top" xlink:title="1">
<text text-anchor="middle" x="151.191" y="-222.48" font-family="Helvetica,sans-Serif" font-size="10.00">1</text>
</a>
</g>
</g>
<!-- dir_6bc97c5ccce2964f7b25f8377ac95818&#45;&gt;dir_745a441f70a5ddf403f2f793490dcc6d -->
<g id="edge38" class="edge"><title>dir_6bc97c5ccce2964f7b25f8377ac95818&#45;&gt;dir_745a441f70a5ddf403f2f793490dcc6d</title>
<path fill="none" stroke="black" d="M181.779,-167.933C184.522,-157.603 187.841,-144.126 190,-132 193.657,-111.464 196.227,-88.0096 197.845,-70.3357"/>
<polygon fill="black" stroke="black" points="201.351,-70.4218 198.731,-60.156 194.378,-69.8148 201.351,-70.4218"/>
<g id="a_edge38&#45;headlabel"><a xlink:href="dir_000095_000091.html" target="_top" xlink:title="1">
<text text-anchor="middle" x="203.868" y="-71.749" font-family="Helvetica,sans-Serif" font-size="10.00">1</text>
</a>
</g>
</g>
<!-- dir_6bc97c5ccce2964f7b25f8377ac95818&#45;&gt;dir_8efb2e226a329d96dc3bcfc9eaf1a998 -->
<g id="edge36" class="edge"><title>dir_6bc97c5ccce2964f7b25f8377ac95818&#45;&gt;dir_8efb2e226a329d96dc3bcfc9eaf1a998</title>
<path fill="none" stroke="black" d="M171.315,-167.697C168.752,-159.898 165.667,-150.509 162.815,-141.829"/>
<polygon fill="black" stroke="black" points="166.067,-140.512 159.62,-132.104 159.416,-142.697 166.067,-140.512"/>
<g id="a_edge36&#45;headlabel"><a xlink:href="dir_000095_000096.html" target="_top" xlink:title="1">
<text text-anchor="middle" x="169.886" y="-140.541" font-family="Helvetica,sans-Serif" font-size="10.00">1</text>
</a>
</g>
</g>
<!-- dir_6bc97c5ccce2964f7b25f8377ac95818&#45;&gt;dir_a2f0e5642e47e7ed59fe0f0829eafb5f -->
<g id="edge37" class="edge"><title>dir_6bc97c5ccce2964f7b25f8377ac95818&#45;&gt;dir_a2f0e5642e47e7ed59fe0f0829eafb5f</title>
<path fill="none" stroke="black" d="M223.375,-204.016C301.228,-232.582 456.619,-289.599 527.381,-315.563"/>
<polygon fill="black" stroke="black" points="526.193,-318.856 536.787,-319.015 528.605,-312.284 526.193,-318.856"/>
<g id="a_edge37&#45;headlabel"><a xlink:href="dir_000095_000022.html" target="_top" xlink:title="12">
<text text-anchor="middle" x="521.841" y="-317.783" font-family="Helvetica,sans-Serif" font-size="10.00">12</text>
</a>
</g>
</g>
<!-- dir_8efb2e226a329d96dc3bcfc9eaf1a998&#45;&gt;dir_745a441f70a5ddf403f2f793490dcc6d -->
<g id="edge13" class="edge"><title>dir_8efb2e226a329d96dc3bcfc9eaf1a998&#45;&gt;dir_745a441f70a5ddf403f2f793490dcc6d</title>
<path fill="none" stroke="black" d="M165.371,-95.6966C170.718,-87.5589 177.204,-77.689 183.111,-68.7013"/>
<polygon fill="black" stroke="black" points="186.193,-70.3835 188.76,-60.1043 180.343,-66.5393 186.193,-70.3835"/>
<g id="a_edge13&#45;headlabel"><a xlink:href="dir_000096_000091.html" target="_top" xlink:title="2">
<text text-anchor="middle" x="186.592" y="-72.4468" font-family="Helvetica,sans-Serif" font-size="10.00">2</text>
</a>
</g>
</g>
<!-- dir_8efb2e226a329d96dc3bcfc9eaf1a998&#45;&gt;dir_a2f0e5642e47e7ed59fe0f0829eafb5f -->
<g id="edge12" class="edge"><title>dir_8efb2e226a329d96dc3bcfc9eaf1a998&#45;&gt;dir_a2f0e5642e47e7ed59fe0f0829eafb5f</title>
<path fill="none" stroke="black" d="M181.209,-129.202C252.78,-166.558 446.351,-267.593 527.463,-309.929"/>
<polygon fill="black" stroke="black" points="526.297,-313.269 536.781,-314.793 529.536,-307.063 526.297,-313.269"/>
<g id="a_edge12&#45;headlabel"><a xlink:href="dir_000096_000022.html" target="_top" xlink:title="2">
<text text-anchor="middle" x="521.796" y="-311.623" font-family="Helvetica,sans-Serif" font-size="10.00">2</text>
</a>
</g>
</g>
<!-- dir_a2f0e5642e47e7ed59fe0f0829eafb5f&#45;&gt;dir_652267079d823ee01f6c6cf98db9085b -->
<g id="edge14" class="edge"><title>dir_a2f0e5642e47e7ed59fe0f0829eafb5f&#45;&gt;dir_652267079d823ee01f6c6cf98db9085b</title>
<path fill="none" stroke="black" d="M536.589,-330C465.529,-330 394.469,-330 323.41,-330"/>
<polygon fill="black" stroke="black" points="323.383,-326.5 313.383,-330 323.383,-333.5 323.383,-326.5"/>
<g id="a_edge14&#45;headlabel"><a xlink:href="dir_000022_000093.html" target="_top" xlink:title="1">
<text text-anchor="middle" x="326.977" y="-321.161" font-family="Helvetica,sans-Serif" font-size="10.00">1</text>
</a>
</g>
</g>
<!-- dir_a2f0e5642e47e7ed59fe0f0829eafb5f&#45;&gt;dir_7205f054df4e14abb60715afe3e7e90c -->
<g id="edge15" class="edge"><title>dir_a2f0e5642e47e7ed59fe0f0829eafb5f&#45;&gt;dir_7205f054df4e14abb60715afe3e7e90c</title>
<path fill="none" stroke="black" d="M591.052,-314.72C615.263,-304.055 651.337,-289.12 683,-276 687.311,-274.214 691.877,-272.321 696.456,-270.472"/>
<polygon fill="black" stroke="black" points="697.775,-273.715 705.792,-266.788 695.205,-267.203 697.775,-273.715"/>
<g id="a_edge15&#45;headlabel"><a xlink:href="dir_000022_000077.html" target="_top" xlink:title="1">
<text text-anchor="middle" x="695.474" y="-275.175" font-family="Helvetica,sans-Serif" font-size="10.00">1</text>
</a>
</g>
</g>
<!-- dir_7205f054df4e14abb60715afe3e7e90c&#45;&gt;dir_a2f0e5642e47e7ed59fe0f0829eafb5f -->
<g id="edge16" class="edge"><title>dir_7205f054df4e14abb60715afe3e7e90c&#45;&gt;dir_a2f0e5642e47e7ed59fe0f0829eafb5f</title>
<path fill="none" stroke="black" d="M705.776,-274.018C704.166,-274.688 702.566,-275.351 701,-276 667.21,-290.001 628.397,-306.07 600.566,-316.81"/>
<polygon fill="black" stroke="black" points="599.306,-313.544 591.206,-320.374 601.797,-320.086 599.306,-313.544"/>
<g id="a_edge16&#45;headlabel"><a xlink:href="dir_000077_000022.html" target="_top" xlink:title="4">
<text text-anchor="middle" x="601.655" y="-307.112" font-family="Helvetica,sans-Serif" font-size="10.00">4</text>
</a>
</g>
</g>
<!-- dir_7205f054df4e14abb60715afe3e7e90c&#45;&gt;dir_06113b60808b1bbb52a01dfd2c3a8657 -->
<g id="edge17" class="edge"><title>dir_7205f054df4e14abb60715afe3e7e90c&#45;&gt;dir_06113b60808b1bbb52a01dfd2c3a8657</title>
<path fill="none" stroke="black" d="M724.814,-239.689C719.602,-220.218 712.633,-188.63 695,-168 680.132,-150.605 658.145,-138.244 638.985,-129.86"/>
<polygon fill="black" stroke="black" points="640.141,-126.55 629.564,-125.946 637.456,-133.015 640.141,-126.55"/>
<g id="a_edge17&#45;headlabel"><a xlink:href="dir_000077_000079.html" target="_top" xlink:title="1">
<text text-anchor="middle" x="644.55" y="-122.807" font-family="Helvetica,sans-Serif" font-size="10.00">1</text>
</a>
</g>
</g>
<!-- dir_7205f054df4e14abb60715afe3e7e90c&#45;&gt;dir_d0f3276f03e9a9cb8f8ba3f2a5ea1262 -->
<g id="edge18" class="edge"><title>dir_7205f054df4e14abb60715afe3e7e90c&#45;&gt;dir_d0f3276f03e9a9cb8f8ba3f2a5ea1262</title>
<path fill="none" stroke="black" d="M709.534,-239.697C700.061,-231.22 689.37,-220.864 680.457,-211.583"/>
<polygon fill="black" stroke="black" points="682.844,-209.011 673.454,-204.104 677.734,-213.796 682.844,-209.011"/>
<g id="a_edge18&#45;headlabel"><a xlink:href="dir_000077_000076.html" target="_top" xlink:title="1">
<text text-anchor="middle" x="687.373" y="-207.194" font-family="Helvetica,sans-Serif" font-size="10.00">1</text>
</a>
</g>
</g>
<!-- dir_06113b60808b1bbb52a01dfd2c3a8657&#45;&gt;dir_35f904a890c1431d13964486334c23a9 -->
<g id="edge45" class="edge"><title>dir_06113b60808b1bbb52a01dfd2c3a8657&#45;&gt;dir_35f904a890c1431d13964486334c23a9</title>
<path fill="none" stroke="black" d="M629.286,-116.942C664.996,-120.847 725.027,-132.604 761,-168 796.119,-202.556 805.904,-230.93 786,-276 766.809,-319.457 750.592,-329.118 707,-348 522.657,-427.849 448.723,-334.645 249.994,-384.381"/>
<polygon fill="black" stroke="black" points="248.929,-381.042 240.128,-386.941 250.687,-387.817 248.929,-381.042"/>
<g id="a_edge45&#45;headlabel"><a xlink:href="dir_000079_000087.html" target="_top" xlink:title="2">
<text text-anchor="middle" x="251.695" y="-374.891" font-family="Helvetica,sans-Serif" font-size="10.00">2</text>
</a>
</g>
</g>
<!-- dir_06113b60808b1bbb52a01dfd2c3a8657&#45;&gt;dir_b3c92c43cc8feb1052f624d79df8b6af -->
<g id="edge40" class="edge"><title>dir_06113b60808b1bbb52a01dfd2c3a8657&#45;&gt;dir_b3c92c43cc8feb1052f624d79df8b6af</title>
<path fill="none" stroke="black" d="M570.426,-116.89C526.437,-120.818 442.373,-132.692 381,-168 342.582,-190.102 342.31,-207.662 312,-240 297.157,-255.836 295.802,-262.26 279,-276 263.041,-289.051 243.552,-301.121 226.975,-310.437"/>
<polygon fill="black" stroke="black" points="225.18,-307.429 218.106,-315.317 228.554,-313.562 225.18,-307.429"/>
<g id="a_edge40&#45;headlabel"><a xlink:href="dir_000079_000088.html" target="_top" xlink:title="5">
<text text-anchor="middle" x="226.96" y="-300.709" font-family="Helvetica,sans-Serif" font-size="10.00">5</text>
</a>
</g>
</g>
<!-- dir_06113b60808b1bbb52a01dfd2c3a8657&#45;&gt;dir_745a441f70a5ddf403f2f793490dcc6d -->
<g id="edge43" class="edge"><title>dir_06113b60808b1bbb52a01dfd2c3a8657&#45;&gt;dir_745a441f70a5ddf403f2f793490dcc6d</title>
<path fill="none" stroke="black" d="M570.587,-107.853C499.016,-95.3279 315.889,-63.2807 237.034,-49.4809"/>
<polygon fill="black" stroke="black" points="237.516,-46.0122 227.062,-47.7359 236.309,-52.9074 237.516,-46.0122"/>
<g id="a_edge43&#45;headlabel"><a xlink:href="dir_000079_000091.html" target="_top" xlink:title="2">
<text text-anchor="middle" x="241.546" y="-41.335" font-family="Helvetica,sans-Serif" font-size="10.00">2</text>
</a>
</g>
</g>
<!-- dir_06113b60808b1bbb52a01dfd2c3a8657&#45;&gt;dir_652267079d823ee01f6c6cf98db9085b -->
<g id="edge41" class="edge"><title>dir_06113b60808b1bbb52a01dfd2c3a8657&#45;&gt;dir_652267079d823ee01f6c6cf98db9085b</title>
<path fill="none" stroke="black" d="M570.666,-127.741C548.346,-137.797 517.123,-152.647 491,-168 442.847,-196.3 431.281,-204.697 388,-240 369.972,-254.705 367.99,-261.249 350,-276 337.155,-286.532 322.344,-297.269 309.295,-306.3"/>
<polygon fill="black" stroke="black" points="307.287,-303.433 301.012,-311.97 311.241,-309.21 307.287,-303.433"/>
<g id="a_edge41&#45;headlabel"><a xlink:href="dir_000079_000093.html" target="_top" xlink:title="4">
<text text-anchor="middle" x="308.65" y="-296.56" font-family="Helvetica,sans-Serif" font-size="10.00">4</text>
</a>
</g>
</g>
<!-- dir_06113b60808b1bbb52a01dfd2c3a8657&#45;&gt;dir_6bc97c5ccce2964f7b25f8377ac95818 -->
<g id="edge46" class="edge"><title>dir_06113b60808b1bbb52a01dfd2c3a8657&#45;&gt;dir_6bc97c5ccce2964f7b25f8377ac95818</title>
<path fill="none" stroke="black" d="M570.544,-119.874C500.762,-131.422 324.414,-160.605 233.35,-175.675"/>
<polygon fill="black" stroke="black" points="232.773,-172.223 223.478,-177.309 233.916,-179.129 232.773,-172.223"/>
<g id="a_edge46&#45;headlabel"><a xlink:href="dir_000079_000095.html" target="_top" xlink:title="4">
<text text-anchor="middle" x="235.856" y="-166.335" font-family="Helvetica,sans-Serif" font-size="10.00">4</text>
</a>
</g>
</g>
<!-- dir_06113b60808b1bbb52a01dfd2c3a8657&#45;&gt;dir_a2f0e5642e47e7ed59fe0f0829eafb5f -->
<g id="edge42" class="edge"><title>dir_06113b60808b1bbb52a01dfd2c3a8657&#45;&gt;dir_a2f0e5642e47e7ed59fe0f0829eafb5f</title>
<path fill="none" stroke="black" d="M629.466,-119.795C659.61,-126.087 706.14,-139.828 736,-168 739.164,-170.985 793.468,-244.402 769,-276 748.639,-302.295 654.652,-317.896 601.287,-324.784"/>
<polygon fill="black" stroke="black" points="600.678,-321.333 591.189,-326.046 601.546,-328.279 600.678,-321.333"/>
<g id="a_edge42&#45;headlabel"><a xlink:href="dir_000079_000022.html" target="_top" xlink:title="16">
<text text-anchor="middle" x="603.893" y="-315.57" font-family="Helvetica,sans-Serif" font-size="10.00">16</text>
</a>
</g>
</g>
<!-- dir_06113b60808b1bbb52a01dfd2c3a8657&#45;&gt;dir_7205f054df4e14abb60715afe3e7e90c -->
<g id="edge44" class="edge"><title>dir_06113b60808b1bbb52a01dfd2c3a8657&#45;&gt;dir_7205f054df4e14abb60715afe3e7e90c</title>
<path fill="none" stroke="black" d="M629.383,-120.96C655.244,-128.27 691.538,-142.891 713,-168 727.809,-185.326 735.096,-210.381 737.178,-229.496"/>
<polygon fill="black" stroke="black" points="733.698,-229.928 737.817,-239.689 740.684,-229.489 733.698,-229.928"/>
<g id="a_edge44&#45;headlabel"><a xlink:href="dir_000079_000077.html" target="_top" xlink:title="3">
<text text-anchor="middle" x="730.639" y="-224.018" font-family="Helvetica,sans-Serif" font-size="10.00">3</text>
</a>
</g>
</g>
<!-- dir_06113b60808b1bbb52a01dfd2c3a8657&#45;&gt;dir_d0f3276f03e9a9cb8f8ba3f2a5ea1262 -->
<g id="edge47" class="edge"><title>dir_06113b60808b1bbb52a01dfd2c3a8657&#45;&gt;dir_d0f3276f03e9a9cb8f8ba3f2a5ea1262</title>
<path fill="none" stroke="black" d="M621.045,-132.104C629.328,-140.467 638.589,-150.694 646.289,-159.92"/>
<polygon fill="black" stroke="black" points="643.575,-162.13 652.59,-167.697 649.014,-157.723 643.575,-162.13"/>
<g id="a_edge47&#45;headlabel"><a xlink:href="dir_000079_000076.html" target="_top" xlink:title="2">
<text text-anchor="middle" x="639.106" y="-158.624" font-family="Helvetica,sans-Serif" font-size="10.00">2</text>
</a>
</g>
</g>
<!-- dir_d0f3276f03e9a9cb8f8ba3f2a5ea1262&#45;&gt;dir_54018506bb725509c19b38b6d9bcf0f6 -->
<g id="edge53" class="edge"><title>dir_d0f3276f03e9a9cb8f8ba3f2a5ea1262&#45;&gt;dir_54018506bb725509c19b38b6d9bcf0f6</title>
<path fill="none" stroke="black" d="M695.396,-189.216C728.672,-193.41 778.147,-205.465 802,-240 829.279,-279.495 834.16,-312.367 802,-348 770.071,-383.377 438.169,-396.486 324.184,-399.965"/>
<polygon fill="black" stroke="black" points="323.743,-396.477 313.851,-400.272 323.951,-403.474 323.743,-396.477"/>
<g id="a_edge53&#45;headlabel"><a xlink:href="dir_000076_000086.html" target="_top" xlink:title="3">
<text text-anchor="middle" x="327.251" y="-391.032" font-family="Helvetica,sans-Serif" font-size="10.00">3</text>
</a>
</g>
</g>
<!-- dir_d0f3276f03e9a9cb8f8ba3f2a5ea1262&#45;&gt;dir_f6a0a87962fcbf90fc709c1bf5ba5a00 -->
<g id="edge51" class="edge"><title>dir_d0f3276f03e9a9cb8f8ba3f2a5ea1262&#45;&gt;dir_f6a0a87962fcbf90fc709c1bf5ba5a00</title>
<path fill="none" stroke="black" d="M628.634,-192.574C551.503,-205.46 361.285,-237.239 280.384,-250.754"/>
<polygon fill="black" stroke="black" points="279.455,-247.361 270.169,-252.461 280.609,-254.265 279.455,-247.361"/>
<g id="a_edge51&#45;headlabel"><a xlink:href="dir_000076_000090.html" target="_top" xlink:title="1">
<text text-anchor="middle" x="282.533" y="-241.468" font-family="Helvetica,sans-Serif" font-size="10.00">1</text>
</a>
</g>
</g>
<!-- dir_d0f3276f03e9a9cb8f8ba3f2a5ea1262&#45;&gt;dir_652267079d823ee01f6c6cf98db9085b -->
<g id="edge48" class="edge"><title>dir_d0f3276f03e9a9cb8f8ba3f2a5ea1262&#45;&gt;dir_652267079d823ee01f6c6cf98db9085b</title>
<path fill="none" stroke="black" d="M628.641,-193.558C594.962,-201.178 542.304,-215.888 502,-240 482.035,-251.944 484.237,-264.523 464,-276 419.824,-301.053 363.032,-314.898 323.283,-322.095"/>
<polygon fill="black" stroke="black" points="322.563,-318.667 313.309,-323.826 323.761,-325.564 322.563,-318.667"/>
<g id="a_edge48&#45;headlabel"><a xlink:href="dir_000076_000093.html" target="_top" xlink:title="2">
<text text-anchor="middle" x="325.62" y="-312.755" font-family="Helvetica,sans-Serif" font-size="10.00">2</text>
</a>
</g>
</g>
<!-- dir_d0f3276f03e9a9cb8f8ba3f2a5ea1262&#45;&gt;dir_a2f0e5642e47e7ed59fe0f0829eafb5f -->
<g id="edge49" class="edge"><title>dir_d0f3276f03e9a9cb8f8ba3f2a5ea1262&#45;&gt;dir_a2f0e5642e47e7ed59fe0f0829eafb5f</title>
<path fill="none" stroke="black" d="M664.834,-204.196C667.045,-223.276 667.769,-254.237 654,-276 641.808,-295.27 619.877,-308.397 600.717,-316.767"/>
<polygon fill="black" stroke="black" points="599.239,-313.589 591.303,-320.608 601.884,-320.07 599.239,-313.589"/>
<g id="a_edge49&#45;headlabel"><a xlink:href="dir_000076_000022.html" target="_top" xlink:title="5">
<text text-anchor="middle" x="601.495" y="-307.102" font-family="Helvetica,sans-Serif" font-size="10.00">5</text>
</a>
</g>
</g>
<!-- dir_d0f3276f03e9a9cb8f8ba3f2a5ea1262&#45;&gt;dir_7205f054df4e14abb60715afe3e7e90c -->
<g id="edge50" class="edge"><title>dir_d0f3276f03e9a9cb8f8ba3f2a5ea1262&#45;&gt;dir_7205f054df4e14abb60715afe3e7e90c</title>
<path fill="none" stroke="black" d="M685.244,-204.104C694.697,-212.552 705.392,-222.901 714.333,-232.199"/>
<polygon fill="black" stroke="black" points="711.971,-234.797 721.365,-239.697 717.077,-230.008 711.971,-234.797"/>
<g id="a_edge50&#45;headlabel"><a xlink:href="dir_000076_000077.html" target="_top" xlink:title="1">
<text text-anchor="middle" x="707.441" y="-231.617" font-family="Helvetica,sans-Serif" font-size="10.00">1</text>
</a>
</g>
</g>
<!-- dir_d0f3276f03e9a9cb8f8ba3f2a5ea1262&#45;&gt;dir_06113b60808b1bbb52a01dfd2c3a8657 -->
<g id="edge52" class="edge"><title>dir_d0f3276f03e9a9cb8f8ba3f2a5ea1262&#45;&gt;dir_06113b60808b1bbb52a01dfd2c3a8657</title>
<path fill="none" stroke="black" d="M640.758,-167.697C632.544,-159.389 623.39,-149.277 615.761,-140.141"/>
<polygon fill="black" stroke="black" points="618.267,-137.674 609.255,-132.104 612.827,-142.079 618.267,-137.674"/>
<g id="a_edge52&#45;headlabel"><a xlink:href="dir_000076_000079.html" target="_top" xlink:title="1">
<text text-anchor="middle" x="622.736" y="-136.181" font-family="Helvetica,sans-Serif" font-size="10.00">1</text>
</a>
</g>
</g>
</g>
</svg>
