<?xml version="1.0" encoding="UTF-8" standalone="no"?>
<!DOCTYPE svg PUBLIC "-//W3C//DTD SVG 1.1//EN"
 "http://www.w3.org/Graphics/SVG/1.1/DTD/svg11.dtd">
<!-- Generated by graphviz version 2.36.0 (20140111.2315)
 -->
<!-- Title: /home/travis/build/STORM&#45;IRIT/Radium&#45;Engine/src/Core/Algorithm/Subdivision Pages: 1 -->
<svg width="112pt" height="223pt"
 viewBox="0.00 0.00 112.00 223.00" xmlns="http://www.w3.org/2000/svg" xmlns:xlink="http://www.w3.org/1999/xlink">
<g id="graph0" class="graph" transform="scale(1 1) rotate(0) translate(4 219)">
<title>/home/travis/build/STORM&#45;IRIT/Radium&#45;Engine/src/Core/Algorithm/Subdivision</title>
<polygon fill="white" stroke="none" points="-4,4 -4,-219 108,-219 108,4 -4,4"/>
<g id="clust1" class="cluster"><title>clusterdir_ec48d91ab8a264b56e678b01a1ccafad</title>
<g id="a_clust1"><a xlink:href="dir_ec48d91ab8a264b56e678b01a1ccafad.html" target="_top" xlink:title="Algorithm">
<polygon fill="#ddddee" stroke="black" points="12,-136 12,-207 96,-207 96,-136 12,-136"/>
<text text-anchor="middle" x="54" y="-195" font-family="Helvetica,sans-Serif" font-size="10.00">Algorithm</text>
</a>
</g>
</g>
<!-- dir_37ea1ba880005480690918db142a72ae -->
<g id="node1" class="node"><title>dir_37ea1ba880005480690918db142a72ae</title>
<g id="a_node1"><a xlink:href="dir_37ea1ba880005480690918db142a72ae.html" target="_top" xlink:title="Subdivision">
<polygon fill="#eeeeff" stroke="black" points="87.25,-180 20.75,-180 20.75,-144 87.25,-144 87.25,-180"/>
<text text-anchor="middle" x="54" y="-159.5" font-family="Helvetica,sans-Serif" font-size="10.00">Subdivision</text>
</a>
</g>
</g>
<!-- dir_d080e052e6032887076b6b5756e5361d -->
<g id="node2" class="node"><title>dir_d080e052e6032887076b6b5756e5361d</title>
<g id="a_node2"><a xlink:href="dir_d080e052e6032887076b6b5756e5361d.html" target="_top" xlink:title="Mesh">
<polygon fill="white" stroke="red" points="54,-108 0,-108 0,-72 54,-72 54,-108"/>
<text text-anchor="middle" x="27" y="-87.5" font-family="Helvetica,sans-Serif" font-size="10.00">Mesh</text>
</a>
</g>
</g>
<!-- dir_37ea1ba880005480690918db142a72ae&#45;&gt;dir_d080e052e6032887076b6b5756e5361d -->
<g id="edge1" class="edge"><title>dir_37ea1ba880005480690918db142a72ae&#45;&gt;dir_d080e052e6032887076b6b5756e5361d</title>
<path fill="none" stroke="black" d="M47.3258,-143.697C44.2851,-135.813 40.6173,-126.304 37.2393,-117.546"/>
<polygon fill="black" stroke="black" points="40.4617,-116.175 33.5974,-108.104 33.9307,-118.694 40.4617,-116.175"/>
<g id="a_edge1&#45;headlabel"><a xlink:href="dir_000029_000056.html" target="_top" xlink:title="8">
<text text-anchor="middle" x="44.4043" y="-116.007" font-family="Helvetica,sans-Serif" font-size="10.00">8</text>
</a>
</g>
</g>
<!-- dir_f5906172d2c9558d453eb81ef8e5bf93 -->
<g id="node3" class="node"><title>dir_f5906172d2c9558d453eb81ef8e5bf93</title>
<g id="a_node3"><a xlink:href="dir_f5906172d2c9558d453eb81ef8e5bf93.html" target="_top" xlink:title="Index">
<polygon fill="none" stroke="black" points="81,-36 27,-36 27,-0 81,-0 81,-36"/>
<text text-anchor="middle" x="54" y="-15.5" font-family="Helvetica,sans-Serif" font-size="10.00">Index</text>
</a>
</g>
</g>
<!-- dir_37ea1ba880005480690918db142a72ae&#45;&gt;dir_f5906172d2c9558d453eb81ef8e5bf93 -->
<g id="edge2" class="edge"><title>dir_37ea1ba880005480690918db142a72ae&#45;&gt;dir_f5906172d2c9558d453eb81ef8e5bf93</title>
<path fill="none" stroke="black" d="M57.6538,-143.908C59.6758,-133.569 61.9808,-120.09 63,-108 64.3441,-92.0566 64.3441,-87.9434 63,-72 62.2834,-63.4991 60.9311,-54.3119 59.4884,-46.0122"/>
<polygon fill="black" stroke="black" points="62.9142,-45.2892 57.6538,-36.0925 56.0309,-46.5623 62.9142,-45.2892"/>
<g id="a_edge2&#45;headlabel"><a xlink:href="dir_000029_000053.html" target="_top" xlink:title="1">
<text text-anchor="middle" x="66.3597" y="-45.8075" font-family="Helvetica,sans-Serif" font-size="10.00">1</text>
</a>
</g>
</g>
<!-- dir_d080e052e6032887076b6b5756e5361d&#45;&gt;dir_f5906172d2c9558d453eb81ef8e5bf93 -->
<g id="edge3" class="edge"><title>dir_d080e052e6032887076b6b5756e5361d&#45;&gt;dir_f5906172d2c9558d453eb81ef8e5bf93</title>
<path fill="none" stroke="black" d="M33.6742,-71.6966C36.7149,-63.8132 40.3827,-54.3042 43.7607,-45.5464"/>
<polygon fill="black" stroke="black" points="47.0693,-46.6939 47.4026,-36.1043 40.5383,-44.1748 47.0693,-46.6939"/>
<g id="a_edge3&#45;headlabel"><a xlink:href="dir_000056_000053.html" target="_top" xlink:title="14">
<text text-anchor="middle" x="48.4248" y="-48.5695" font-family="Helvetica,sans-Serif" font-size="10.00">14</text>
</a>
</g>
</g>
</g>
</svg>
