<?xml version="1.0" encoding="UTF-8" standalone="no"?>
<!DOCTYPE svg PUBLIC "-//W3C//DTD SVG 1.1//EN"
 "http://www.w3.org/Graphics/SVG/1.1/DTD/svg11.dtd">
<!-- Generated by graphviz version 2.36.0 (20140111.2315)
 -->
<!-- Title: /home/travis/build/STORM&#45;IRIT/Radium&#45;Engine/src/Tests/CoreTests/src Pages: 1 -->
<svg width="94pt" height="151pt"
 viewBox="0.00 0.00 94.00 151.00" xmlns="http://www.w3.org/2000/svg" xmlns:xlink="http://www.w3.org/1999/xlink">
<g id="graph0" class="graph" transform="scale(1 1) rotate(0) translate(4 147)">
<title>/home/travis/build/STORM&#45;IRIT/Radium&#45;Engine/src/Tests/CoreTests/src</title>
<polygon fill="white" stroke="none" points="-4,4 -4,-147 90,-147 90,4 -4,4"/>
<g id="clust1" class="cluster"><title>clusterdir_6c9a1ef01cf360cf671ac0643c85f7e1</title>
<g id="a_clust1"><a xlink:href="dir_6c9a1ef01cf360cf671ac0643c85f7e1.html" target="_top" xlink:title="CoreTests">
<polygon fill="#ddddee" stroke="black" points="8,-64 8,-135 78,-135 78,-64 8,-64"/>
<text text-anchor="middle" x="43" y="-123" font-family="Helvetica,sans-Serif" font-size="10.00">CoreTests</text>
</a>
</g>
</g>
<!-- dir_1e422cd6e54be5411439b3a85f9b721f -->
<g id="node1" class="node"><title>dir_1e422cd6e54be5411439b3a85f9b721f</title>
<g id="a_node1"><a xlink:href="dir_1e422cd6e54be5411439b3a85f9b721f.html" target="_top" xlink:title="src">
<polygon fill="#eeeeff" stroke="black" points="70,-108 16,-108 16,-72 70,-72 70,-108"/>
<text text-anchor="middle" x="43" y="-87.5" font-family="Helvetica,sans-Serif" font-size="10.00">src</text>
</a>
</g>
</g>
<!-- dir_a2f0e5642e47e7ed59fe0f0829eafb5f -->
<g id="node2" class="node"><title>dir_a2f0e5642e47e7ed59fe0f0829eafb5f</title>
<g id="a_node2"><a xlink:href="dir_a2f0e5642e47e7ed59fe0f0829eafb5f.html" target="_top" xlink:title="Core">
<polygon fill="white" stroke="red" points="70,-36 16,-36 16,-0 70,-0 70,-36"/>
<text text-anchor="middle" x="43" y="-15.5" font-family="Helvetica,sans-Serif" font-size="10.00">Core</text>
</a>
</g>
</g>
<!-- dir_1e422cd6e54be5411439b3a85f9b721f&#45;&gt;dir_a2f0e5642e47e7ed59fe0f0829eafb5f -->
<g id="edge1" class="edge"><title>dir_1e422cd6e54be5411439b3a85f9b721f&#45;&gt;dir_a2f0e5642e47e7ed59fe0f0829eafb5f</title>
<path fill="none" stroke="black" d="M43,-71.6966C43,-63.9827 43,-54.7125 43,-46.1124"/>
<polygon fill="black" stroke="black" points="46.5001,-46.1043 43,-36.1043 39.5001,-46.1044 46.5001,-46.1043"/>
<g id="a_edge1&#45;headlabel"><a xlink:href="dir_000067_000022.html" target="_top" xlink:title="14">
<text text-anchor="middle" x="49.3393" y="-47.199" font-family="Helvetica,sans-Serif" font-size="10.00">14</text>
</a>
</g>
</g>
</g>
</svg>
