<?xml version="1.0" encoding="UTF-8" standalone="no"?>
<!DOCTYPE svg PUBLIC "-//W3C//DTD SVG 1.1//EN"
 "http://www.w3.org/Graphics/SVG/1.1/DTD/svg11.dtd">
<!-- Generated by graphviz version 2.36.0 (20140111.2315)
 -->
<!-- Title: /home/travis/build/STORM&#45;IRIT/Radium&#45;Engine/src Pages: 1 -->
<svg width="238pt" height="364pt"
 viewBox="0.00 0.00 238.00 364.00" xmlns="http://www.w3.org/2000/svg" xmlns:xlink="http://www.w3.org/1999/xlink">
<g id="graph0" class="graph" transform="scale(1 1) rotate(0) translate(4 360)">
<title>/home/travis/build/STORM&#45;IRIT/Radium&#45;Engine/src</title>
<polygon fill="white" stroke="none" points="-4,4 -4,-360 234,-360 234,4 -4,4"/>
<g id="clust1" class="cluster"><title>clusterdir_68267d1309a1af8e8297ef4c3efbcdba</title>
<g id="a_clust1"><a xlink:href="dir_68267d1309a1af8e8297ef4c3efbcdba.html" target="_top">
<polygon fill="#eeeeff" stroke="black" points="8,-8 8,-348 222,-348 222,-8 8,-8"/>
</a>
</g>
</g>
<!-- dir_68267d1309a1af8e8297ef4c3efbcdba -->
<g id="node1" class="node"><title>dir_68267d1309a1af8e8297ef4c3efbcdba</title>
<text text-anchor="middle" x="187" y="-319.5" font-family="Helvetica,sans-Serif" font-size="10.00">src</text>
</g>
<!-- dir_a2f0e5642e47e7ed59fe0f0829eafb5f -->
<g id="node2" class="node"><title>dir_a2f0e5642e47e7ed59fe0f0829eafb5f</title>
<g id="a_node2"><a xlink:href="dir_a2f0e5642e47e7ed59fe0f0829eafb5f.html" target="_top" xlink:title="Core">
<polygon fill="white" stroke="red" points="109,-268 55,-268 55,-232 109,-232 109,-268"/>
<text text-anchor="middle" x="82" y="-247.5" font-family="Helvetica,sans-Serif" font-size="10.00">Core</text>
</a>
</g>
</g>
<!-- dir_3072bc1f55ed1280fe4fbe6b21c78379 -->
<g id="node3" class="node"><title>dir_3072bc1f55ed1280fe4fbe6b21c78379</title>
<g id="a_node3"><a xlink:href="dir_3072bc1f55ed1280fe4fbe6b21c78379.html" target="_top" xlink:title="Engine">
<polygon fill="white" stroke="red" points="109,-196 55,-196 55,-160 109,-160 109,-196"/>
<text text-anchor="middle" x="82" y="-175.5" font-family="Helvetica,sans-Serif" font-size="10.00">Engine</text>
</a>
</g>
</g>
<!-- dir_a2f0e5642e47e7ed59fe0f0829eafb5f&#45;&gt;dir_3072bc1f55ed1280fe4fbe6b21c78379 -->
<g id="edge2" class="edge"><title>dir_a2f0e5642e47e7ed59fe0f0829eafb5f&#45;&gt;dir_3072bc1f55ed1280fe4fbe6b21c78379</title>
<path fill="none" stroke="black" d="M76.0843,-231.697C75.2886,-223.983 75.0621,-214.712 75.4047,-206.112"/>
<polygon fill="black" stroke="black" points="78.8984,-206.324 76.105,-196.104 71.9154,-205.836 78.8984,-206.324"/>
<g id="a_edge2&#45;headlabel"><a xlink:href="dir_000022_000075.html" target="_top" xlink:title="2">
<text text-anchor="middle" x="81.4799" y="-207.608" font-family="Helvetica,sans-Serif" font-size="10.00">2</text>
</a>
</g>
</g>
<!-- dir_3072bc1f55ed1280fe4fbe6b21c78379&#45;&gt;dir_a2f0e5642e47e7ed59fe0f0829eafb5f -->
<g id="edge6" class="edge"><title>dir_3072bc1f55ed1280fe4fbe6b21c78379&#45;&gt;dir_a2f0e5642e47e7ed59fe0f0829eafb5f</title>
<path fill="none" stroke="black" d="M87.895,-196.104C88.7005,-203.791 88.9369,-213.054 88.604,-221.665"/>
<polygon fill="black" stroke="black" points="85.1085,-221.48 87.9157,-231.697 92.0921,-221.96 85.1085,-221.48"/>
<g id="a_edge6&#45;headlabel"><a xlink:href="dir_000075_000022.html" target="_top" xlink:title="84">
<text text-anchor="middle" x="82.5219" y="-215.2" font-family="Helvetica,sans-Serif" font-size="10.00">84</text>
</a>
</g>
</g>
<!-- dir_cb59203ea3f84fc4d67c89730003fed4 -->
<g id="node4" class="node"><title>dir_cb59203ea3f84fc4d67c89730003fed4</title>
<g id="a_node4"><a xlink:href="dir_cb59203ea3f84fc4d67c89730003fed4.html" target="_top" xlink:title="GuiBase">
<polygon fill="white" stroke="red" points="109,-124 55,-124 55,-88 109,-88 109,-124"/>
<text text-anchor="middle" x="82" y="-103.5" font-family="Helvetica,sans-Serif" font-size="10.00">GuiBase</text>
</a>
</g>
</g>
<!-- dir_3072bc1f55ed1280fe4fbe6b21c78379&#45;&gt;dir_cb59203ea3f84fc4d67c89730003fed4 -->
<g id="edge7" class="edge"><title>dir_3072bc1f55ed1280fe4fbe6b21c78379&#45;&gt;dir_cb59203ea3f84fc4d67c89730003fed4</title>
<path fill="none" stroke="black" d="M76.0843,-159.697C75.2886,-151.983 75.0621,-142.712 75.4047,-134.112"/>
<polygon fill="black" stroke="black" points="78.8984,-134.324 76.105,-124.104 71.9154,-133.836 78.8984,-134.324"/>
<g id="a_edge7&#45;headlabel"><a xlink:href="dir_000075_000098.html" target="_top" xlink:title="1">
<text text-anchor="middle" x="81.4799" y="-135.608" font-family="Helvetica,sans-Serif" font-size="10.00">1</text>
</a>
</g>
</g>
<!-- dir_cb59203ea3f84fc4d67c89730003fed4&#45;&gt;dir_a2f0e5642e47e7ed59fe0f0829eafb5f -->
<g id="edge3" class="edge"><title>dir_cb59203ea3f84fc4d67c89730003fed4&#45;&gt;dir_a2f0e5642e47e7ed59fe0f0829eafb5f</title>
<path fill="none" stroke="black" d="M97.6099,-124.226C105.373,-133.97 113.946,-146.816 118,-160 122.703,-175.293 122.703,-180.707 118,-196 114.991,-205.785 109.493,-215.384 103.684,-223.666"/>
<polygon fill="black" stroke="black" points="100.805,-221.672 97.6099,-231.774 106.407,-225.869 100.805,-221.672"/>
<g id="a_edge3&#45;headlabel"><a xlink:href="dir_000098_000022.html" target="_top" xlink:title="48">
<text text-anchor="middle" x="100.688" y="-214.593" font-family="Helvetica,sans-Serif" font-size="10.00">48</text>
</a>
</g>
</g>
<!-- dir_cb59203ea3f84fc4d67c89730003fed4&#45;&gt;dir_3072bc1f55ed1280fe4fbe6b21c78379 -->
<g id="edge4" class="edge"><title>dir_cb59203ea3f84fc4d67c89730003fed4&#45;&gt;dir_3072bc1f55ed1280fe4fbe6b21c78379</title>
<path fill="none" stroke="black" d="M87.895,-124.104C88.7005,-131.791 88.9369,-141.054 88.604,-149.665"/>
<polygon fill="black" stroke="black" points="85.1085,-149.48 87.9157,-159.697 92.0921,-149.96 85.1085,-149.48"/>
<g id="a_edge4&#45;headlabel"><a xlink:href="dir_000098_000075.html" target="_top" xlink:title="64">
<text text-anchor="middle" x="82.5219" y="-143.2" font-family="Helvetica,sans-Serif" font-size="10.00">64</text>
</a>
</g>
</g>
<!-- dir_1b07f77798358fd74e92420363fd4633 -->
<g id="node6" class="node"><title>dir_1b07f77798358fd74e92420363fd4633</title>
<g id="a_node6"><a xlink:href="dir_1b07f77798358fd74e92420363fd4633.html" target="_top" xlink:title="PluginBase">
<polygon fill="white" stroke="black" points="115,-52 49,-52 49,-16 115,-16 115,-52"/>
<text text-anchor="middle" x="82" y="-31.5" font-family="Helvetica,sans-Serif" font-size="10.00">PluginBase</text>
</a>
</g>
</g>
<!-- dir_cb59203ea3f84fc4d67c89730003fed4&#45;&gt;dir_1b07f77798358fd74e92420363fd4633 -->
<g id="edge5" class="edge"><title>dir_cb59203ea3f84fc4d67c89730003fed4&#45;&gt;dir_1b07f77798358fd74e92420363fd4633</title>
<path fill="none" stroke="black" d="M82,-87.6966C82,-79.9827 82,-70.7125 82,-62.1124"/>
<polygon fill="black" stroke="black" points="85.5001,-62.1043 82,-52.1043 78.5001,-62.1044 85.5001,-62.1043"/>
<g id="a_edge5&#45;headlabel"><a xlink:href="dir_000098_000110.html" target="_top" xlink:title="1">
<text text-anchor="middle" x="88.3393" y="-63.199" font-family="Helvetica,sans-Serif" font-size="10.00">1</text>
</a>
</g>
</g>
<!-- dir_fae119eb913a40fe8ed97cde8b98911e -->
<g id="node5" class="node"><title>dir_fae119eb913a40fe8ed97cde8b98911e</title>
<g id="a_node5"><a xlink:href="dir_fae119eb913a40fe8ed97cde8b98911e.html" target="_top" xlink:title="IO">
<polygon fill="white" stroke="red" points="142,-340 88,-340 88,-304 142,-304 142,-340"/>
<text text-anchor="middle" x="115" y="-319.5" font-family="Helvetica,sans-Serif" font-size="10.00">IO</text>
</a>
</g>
</g>
<!-- dir_fae119eb913a40fe8ed97cde8b98911e&#45;&gt;dir_a2f0e5642e47e7ed59fe0f0829eafb5f -->
<g id="edge1" class="edge"><title>dir_fae119eb913a40fe8ed97cde8b98911e&#45;&gt;dir_a2f0e5642e47e7ed59fe0f0829eafb5f</title>
<path fill="none" stroke="black" d="M106.843,-303.697C103.086,-295.728 98.5469,-286.1 94.3817,-277.264"/>
<polygon fill="black" stroke="black" points="97.4936,-275.657 90.0635,-268.104 91.1619,-278.642 97.4936,-275.657"/>
<g id="a_edge1&#45;headlabel"><a xlink:href="dir_000106_000022.html" target="_top" xlink:title="33">
<text text-anchor="middle" x="101.595" y="-275.198" font-family="Helvetica,sans-Serif" font-size="10.00">33</text>
</a>
</g>
</g>
<!-- dir_a0d713cea12394a4c028036c439896df -->
<g id="node7" class="node"><title>dir_a0d713cea12394a4c028036c439896df</title>
<g id="a_node7"><a xlink:href="dir_a0d713cea12394a4c028036c439896df.html" target="_top" xlink:title="Tests">
<polygon fill="white" stroke="red" points="70,-340 16,-340 16,-304 70,-304 70,-340"/>
<text text-anchor="middle" x="43" y="-319.5" font-family="Helvetica,sans-Serif" font-size="10.00">Tests</text>
</a>
</g>
</g>
<!-- dir_a0d713cea12394a4c028036c439896df&#45;&gt;dir_a2f0e5642e47e7ed59fe0f0829eafb5f -->
<g id="edge8" class="edge"><title>dir_a0d713cea12394a4c028036c439896df&#45;&gt;dir_a2f0e5642e47e7ed59fe0f0829eafb5f</title>
<path fill="none" stroke="black" d="M52.6405,-303.697C57.1271,-295.644 62.5588,-285.894 67.5241,-276.982"/>
<polygon fill="black" stroke="black" points="70.6609,-278.544 72.4704,-268.104 64.5459,-275.137 70.6609,-278.544"/>
<g id="a_edge8&#45;headlabel"><a xlink:href="dir_000065_000022.html" target="_top" xlink:title="16">
<text text-anchor="middle" x="71.3917" y="-280.565" font-family="Helvetica,sans-Serif" font-size="10.00">16</text>
</a>
</g>
</g>
</g>
</svg>
