<?xml version="1.0" encoding="UTF-8" standalone="no"?>
<!DOCTYPE svg PUBLIC "-//W3C//DTD SVG 1.1//EN"
 "http://www.w3.org/Graphics/SVG/1.1/DTD/svg11.dtd">
<!-- Generated by graphviz version 2.36.0 (20140111.2315)
 -->
<!-- Title: /home/travis/build/STORM&#45;IRIT/Radium&#45;Engine/src/Engine/Managers Pages: 1 -->
<svg width="833pt" height="339pt"
 viewBox="0.00 0.00 833.07 339.00" xmlns="http://www.w3.org/2000/svg" xmlns:xlink="http://www.w3.org/1999/xlink">
<g id="graph0" class="graph" transform="scale(1 1) rotate(0) translate(4 335)">
<title>/home/travis/build/STORM&#45;IRIT/Radium&#45;Engine/src/Engine/Managers</title>
<polygon fill="white" stroke="none" points="-4,4 -4,-335 829.068,-335 829.068,4 -4,4"/>
<g id="clust1" class="cluster"><title>clusterdir_3072bc1f55ed1280fe4fbe6b21c78379</title>
<g id="a_clust1"><a xlink:href="dir_3072bc1f55ed1280fe4fbe6b21c78379.html" target="_top" xlink:title="Engine">
<polygon fill="#ddddee" stroke="black" points="149.667,-128 149.667,-287 539.667,-287 539.667,-128 149.667,-128"/>
<text text-anchor="middle" x="344.667" y="-275" font-family="Helvetica,sans-Serif" font-size="10.00">Engine</text>
</a>
</g>
</g>
<g id="clust2" class="cluster"><title>clusterdir_06113b60808b1bbb52a01dfd2c3a8657</title>
<g id="a_clust2"><a xlink:href="dir_06113b60808b1bbb52a01dfd2c3a8657.html" target="_top">
<polygon fill="#eeeeff" stroke="black" points="157.667,-136 157.667,-260 531.667,-260 531.667,-136 157.667,-136"/>
</a>
</g>
</g>
<!-- dir_06113b60808b1bbb52a01dfd2c3a8657 -->
<g id="node1" class="node"><title>dir_06113b60808b1bbb52a01dfd2c3a8657</title>
<text text-anchor="middle" x="493.667" y="-231.5" font-family="Helvetica,sans-Serif" font-size="10.00">Managers</text>
</g>
<!-- dir_9c9d2b16f43d35e4f1c4dc94ebe4380d -->
<g id="node2" class="node"><title>dir_9c9d2b16f43d35e4f1c4dc94ebe4380d</title>
<g id="a_node2"><a xlink:href="dir_9c9d2b16f43d35e4f1c4dc94ebe4380d.html" target="_top" xlink:title="CameraManager">
<polygon fill="white" stroke="black" points="352.917,-252 264.417,-252 264.417,-216 352.917,-216 352.917,-252"/>
<text text-anchor="middle" x="308.667" y="-231.5" font-family="Helvetica,sans-Serif" font-size="10.00">CameraManager</text>
</a>
</g>
</g>
<!-- dir_f60fd3cff26f751d5a136115ec0dccfa -->
<g id="node3" class="node"><title>dir_f60fd3cff26f751d5a136115ec0dccfa</title>
<g id="a_node3"><a xlink:href="dir_f60fd3cff26f751d5a136115ec0dccfa.html" target="_top" xlink:title="ComponentMessenger">
<polygon fill="white" stroke="black" points="480.917,-180 366.417,-180 366.417,-144 480.917,-144 480.917,-180"/>
<text text-anchor="middle" x="423.667" y="-159.5" font-family="Helvetica,sans-Serif" font-size="10.00">ComponentMessenger</text>
</a>
</g>
</g>
<!-- dir_9c9d2b16f43d35e4f1c4dc94ebe4380d&#45;&gt;dir_f60fd3cff26f751d5a136115ec0dccfa -->
<g id="edge5" class="edge"><title>dir_9c9d2b16f43d35e4f1c4dc94ebe4380d&#45;&gt;dir_f60fd3cff26f751d5a136115ec0dccfa</title>
<path fill="none" stroke="black" d="M336.799,-215.876C351.836,-206.724 370.534,-195.342 386.728,-185.485"/>
<polygon fill="black" stroke="black" points="388.705,-188.379 395.427,-180.19 385.065,-182.4 388.705,-188.379"/>
<g id="a_edge5&#45;headlabel"><a xlink:href="dir_000080_000081.html" target="_top" xlink:title="1">
<text text-anchor="middle" x="387.11" y="-190.173" font-family="Helvetica,sans-Serif" font-size="10.00">1</text>
</a>
</g>
</g>
<!-- dir_a2f0e5642e47e7ed59fe0f0829eafb5f -->
<g id="node8" class="node"><title>dir_a2f0e5642e47e7ed59fe0f0829eafb5f</title>
<g id="a_node8"><a xlink:href="dir_a2f0e5642e47e7ed59fe0f0829eafb5f.html" target="_top" xlink:title="Core">
<polygon fill="white" stroke="red" points="626.667,-252 572.667,-252 572.667,-216 626.667,-216 626.667,-252"/>
<text text-anchor="middle" x="599.667" y="-231.5" font-family="Helvetica,sans-Serif" font-size="10.00">Core</text>
</a>
</g>
</g>
<!-- dir_9c9d2b16f43d35e4f1c4dc94ebe4380d&#45;&gt;dir_a2f0e5642e47e7ed59fe0f0829eafb5f -->
<g id="edge1" class="edge"><title>dir_9c9d2b16f43d35e4f1c4dc94ebe4380d&#45;&gt;dir_a2f0e5642e47e7ed59fe0f0829eafb5f</title>
<path fill="none" stroke="black" d="M320.073,-252.001C330.912,-266.903 348.784,-286.356 370.667,-291 387.623,-294.598 509.711,-294.598 526.667,-291 546.653,-286.759 564.783,-272.686 577.976,-259.585"/>
<polygon fill="black" stroke="black" points="580.779,-261.718 585.15,-252.066 575.714,-256.885 580.779,-261.718"/>
<g id="a_edge1&#45;headlabel"><a xlink:href="dir_000080_000022.html" target="_top" xlink:title="4">
<text text-anchor="middle" x="580.352" y="-263.778" font-family="Helvetica,sans-Serif" font-size="10.00">4</text>
</a>
</g>
</g>
<!-- dir_7205f054df4e14abb60715afe3e7e90c -->
<g id="node9" class="node"><title>dir_7205f054df4e14abb60715afe3e7e90c</title>
<g id="a_node9"><a xlink:href="dir_7205f054df4e14abb60715afe3e7e90c.html" target="_top" xlink:title="Entity">
<polygon fill="none" stroke="black" points="705.667,-180 651.667,-180 651.667,-144 705.667,-144 705.667,-180"/>
<text text-anchor="middle" x="678.667" y="-159.5" font-family="Helvetica,sans-Serif" font-size="10.00">Entity</text>
</a>
</g>
</g>
<!-- dir_9c9d2b16f43d35e4f1c4dc94ebe4380d&#45;&gt;dir_7205f054df4e14abb60715afe3e7e90c -->
<g id="edge2" class="edge"><title>dir_9c9d2b16f43d35e4f1c4dc94ebe4380d&#45;&gt;dir_7205f054df4e14abb60715afe3e7e90c</title>
<path fill="none" stroke="black" d="M353.067,-218.244C355.965,-217.44 358.85,-216.684 361.667,-216 414.384,-203.21 569.891,-179.274 641.634,-168.502"/>
<polygon fill="black" stroke="black" points="642.218,-171.954 651.589,-167.011 641.181,-165.031 642.218,-171.954"/>
<g id="a_edge2&#45;headlabel"><a xlink:href="dir_000080_000077.html" target="_top" xlink:title="1">
<text text-anchor="middle" x="639.083" y="-172.794" font-family="Helvetica,sans-Serif" font-size="10.00">1</text>
</a>
</g>
</g>
<!-- dir_eecdbbfa89a6d9af25d920c499e6f44e -->
<g id="node10" class="node"><title>dir_eecdbbfa89a6d9af25d920c499e6f44e</title>
<g id="a_node10"><a xlink:href="dir_eecdbbfa89a6d9af25d920c499e6f44e.html" target="_top" xlink:title="System">
<polygon fill="none" stroke="black" points="688.667,-36 634.667,-36 634.667,-0 688.667,-0 688.667,-36"/>
<text text-anchor="middle" x="661.667" y="-15.5" font-family="Helvetica,sans-Serif" font-size="10.00">System</text>
</a>
</g>
</g>
<!-- dir_9c9d2b16f43d35e4f1c4dc94ebe4380d&#45;&gt;dir_eecdbbfa89a6d9af25d920c499e6f44e -->
<g id="edge3" class="edge"><title>dir_9c9d2b16f43d35e4f1c4dc94ebe4380d&#45;&gt;dir_eecdbbfa89a6d9af25d920c499e6f44e</title>
<path fill="none" stroke="black" d="M353.164,-218.599C356.038,-217.708 358.891,-216.835 361.667,-216 418.257,-198.972 438.186,-209.018 489.667,-180 553.497,-144.022 612.218,-79.5597 641.725,-44.0949"/>
<polygon fill="black" stroke="black" points="644.604,-46.1035 648.246,-36.1541 639.194,-41.6611 644.604,-46.1035"/>
<g id="a_edge3&#45;headlabel"><a xlink:href="dir_000080_000097.html" target="_top" xlink:title="1">
<text text-anchor="middle" x="644.517" y="-48.1834" font-family="Helvetica,sans-Serif" font-size="10.00">1</text>
</a>
</g>
</g>
<!-- dir_54018506bb725509c19b38b6d9bcf0f6 -->
<g id="node12" class="node"><title>dir_54018506bb725509c19b38b6d9bcf0f6</title>
<g id="a_node12"><a xlink:href="dir_54018506bb725509c19b38b6d9bcf0f6.html" target="_top" xlink:title="Renderer">
<polygon fill="white" stroke="red" points="334.167,-36 279.167,-36 279.167,-0 334.167,-0 334.167,-36"/>
<text text-anchor="middle" x="306.667" y="-15.5" font-family="Helvetica,sans-Serif" font-size="10.00">Renderer</text>
</a>
</g>
</g>
<!-- dir_9c9d2b16f43d35e4f1c4dc94ebe4380d&#45;&gt;dir_54018506bb725509c19b38b6d9bcf0f6 -->
<g id="edge4" class="edge"><title>dir_9c9d2b16f43d35e4f1c4dc94ebe4380d&#45;&gt;dir_54018506bb725509c19b38b6d9bcf0f6</title>
<path fill="none" stroke="black" d="M264.302,-218.52C261.055,-217.618 257.819,-216.767 254.667,-216 209.299,-204.965 77.7211,-215.732 47.6671,-180 16.7703,-143.266 17.3184,-109.188 47.6671,-72 75.156,-38.3164 203.807,-25.4611 268.834,-21.0539"/>
<polygon fill="black" stroke="black" points="269.32,-24.5299 279.075,-20.3942 268.87,-17.5444 269.32,-24.5299"/>
<g id="a_edge4&#45;headlabel"><a xlink:href="dir_000080_000086.html" target="_top" xlink:title="7">
<text text-anchor="middle" x="265.916" y="-25.0943" font-family="Helvetica,sans-Serif" font-size="10.00">7</text>
</a>
</g>
</g>
<!-- dir_f60fd3cff26f751d5a136115ec0dccfa&#45;&gt;dir_a2f0e5642e47e7ed59fe0f0829eafb5f -->
<g id="edge48" class="edge"><title>dir_f60fd3cff26f751d5a136115ec0dccfa&#45;&gt;dir_a2f0e5642e47e7ed59fe0f0829eafb5f</title>
<path fill="none" stroke="black" d="M466.576,-180.066C496.14,-191.824 535.006,-207.283 563.098,-218.456"/>
<polygon fill="black" stroke="black" points="561.967,-221.772 572.553,-222.216 564.554,-215.268 561.967,-221.772"/>
<g id="a_edge48&#45;headlabel"><a xlink:href="dir_000081_000022.html" target="_top" xlink:title="2">
<text text-anchor="middle" x="557.578" y="-220.582" font-family="Helvetica,sans-Serif" font-size="10.00">2</text>
</a>
</g>
</g>
<!-- dir_d0f3276f03e9a9cb8f8ba3f2a5ea1262 -->
<g id="node13" class="node"><title>dir_d0f3276f03e9a9cb8f8ba3f2a5ea1262</title>
<g id="a_node13"><a xlink:href="dir_d0f3276f03e9a9cb8f8ba3f2a5ea1262.html" target="_top" xlink:title="Component">
<polygon fill="none" stroke="black" points="518.917,-108 452.417,-108 452.417,-72 518.917,-72 518.917,-108"/>
<text text-anchor="middle" x="485.667" y="-87.5" font-family="Helvetica,sans-Serif" font-size="10.00">Component</text>
</a>
</g>
</g>
<!-- dir_f60fd3cff26f751d5a136115ec0dccfa&#45;&gt;dir_d0f3276f03e9a9cb8f8ba3f2a5ea1262 -->
<g id="edge49" class="edge"><title>dir_f60fd3cff26f751d5a136115ec0dccfa&#45;&gt;dir_d0f3276f03e9a9cb8f8ba3f2a5ea1262</title>
<path fill="none" stroke="black" d="M438.993,-143.697C446.426,-135.305 455.49,-125.07 463.647,-115.861"/>
<polygon fill="black" stroke="black" points="466.507,-117.911 470.518,-108.104 461.267,-113.27 466.507,-117.911"/>
<g id="a_edge49&#45;headlabel"><a xlink:href="dir_000081_000076.html" target="_top" xlink:title="1">
<text text-anchor="middle" x="466.249" y="-119.984" font-family="Helvetica,sans-Serif" font-size="10.00">1</text>
</a>
</g>
</g>
<!-- dir_c9b08ae6a3cd90292fdc27503a26012a -->
<g id="node4" class="node"><title>dir_c9b08ae6a3cd90292fdc27503a26012a</title>
<g id="a_node4"><a xlink:href="dir_c9b08ae6a3cd90292fdc27503a26012a.html" target="_top" xlink:title="EntityManager">
<polygon fill="white" stroke="black" points="245.667,-252 165.667,-252 165.667,-216 245.667,-216 245.667,-252"/>
<text text-anchor="middle" x="205.667" y="-231.5" font-family="Helvetica,sans-Serif" font-size="10.00">EntityManager</text>
</a>
</g>
</g>
<!-- dir_f0e5825d12ad74d1d37ba8a4976c5f17 -->
<g id="node6" class="node"><title>dir_f0e5825d12ad74d1d37ba8a4976c5f17</title>
<g id="a_node6"><a xlink:href="dir_f0e5825d12ad74d1d37ba8a4976c5f17.html" target="_top" xlink:title="SignalManager">
<polygon fill="white" stroke="black" points="246.917,-180 166.417,-180 166.417,-144 246.917,-144 246.917,-180"/>
<text text-anchor="middle" x="206.667" y="-159.5" font-family="Helvetica,sans-Serif" font-size="10.00">SignalManager</text>
</a>
</g>
</g>
<!-- dir_c9b08ae6a3cd90292fdc27503a26012a&#45;&gt;dir_f0e5825d12ad74d1d37ba8a4976c5f17 -->
<g id="edge28" class="edge"><title>dir_c9b08ae6a3cd90292fdc27503a26012a&#45;&gt;dir_f0e5825d12ad74d1d37ba8a4976c5f17</title>
<path fill="none" stroke="black" d="M205.914,-215.697C206.025,-207.983 206.157,-198.712 206.28,-190.112"/>
<polygon fill="black" stroke="black" points="209.779,-190.153 206.423,-180.104 202.78,-190.053 209.779,-190.153"/>
<g id="a_edge28&#45;headlabel"><a xlink:href="dir_000082_000084.html" target="_top" xlink:title="1">
<text text-anchor="middle" x="212.567" y="-191.288" font-family="Helvetica,sans-Serif" font-size="10.00">1</text>
</a>
</g>
</g>
<!-- dir_5a1bd30bc9919aca01fcd3709dbd4eb3 -->
<g id="node7" class="node"><title>dir_5a1bd30bc9919aca01fcd3709dbd4eb3</title>
<g id="a_node7"><a xlink:href="dir_5a1bd30bc9919aca01fcd3709dbd4eb3.html" target="_top" xlink:title="SystemDisplay">
<polygon fill="white" stroke="black" points="347.917,-180 265.417,-180 265.417,-144 347.917,-144 347.917,-180"/>
<text text-anchor="middle" x="306.667" y="-159.5" font-family="Helvetica,sans-Serif" font-size="10.00">SystemDisplay</text>
</a>
</g>
</g>
<!-- dir_c9b08ae6a3cd90292fdc27503a26012a&#45;&gt;dir_5a1bd30bc9919aca01fcd3709dbd4eb3 -->
<g id="edge29" class="edge"><title>dir_c9b08ae6a3cd90292fdc27503a26012a&#45;&gt;dir_5a1bd30bc9919aca01fcd3709dbd4eb3</title>
<path fill="none" stroke="black" d="M230.375,-215.876C243.336,-206.893 259.396,-195.763 273.432,-186.034"/>
<polygon fill="black" stroke="black" points="275.64,-188.763 281.865,-180.19 271.652,-183.009 275.64,-188.763"/>
<g id="a_edge29&#45;headlabel"><a xlink:href="dir_000082_000085.html" target="_top" xlink:title="1">
<text text-anchor="middle" x="274.302" y="-190.644" font-family="Helvetica,sans-Serif" font-size="10.00">1</text>
</a>
</g>
</g>
<!-- dir_c9b08ae6a3cd90292fdc27503a26012a&#45;&gt;dir_a2f0e5642e47e7ed59fe0f0829eafb5f -->
<g id="edge27" class="edge"><title>dir_c9b08ae6a3cd90292fdc27503a26012a&#45;&gt;dir_a2f0e5642e47e7ed59fe0f0829eafb5f</title>
<path fill="none" stroke="black" d="M216.017,-252.079C225.947,-267.032 242.537,-286.516 263.667,-291 277.96,-294.033 512.374,-294.033 526.667,-291 546.653,-286.759 564.783,-272.686 577.976,-259.585"/>
<polygon fill="black" stroke="black" points="580.779,-261.718 585.15,-252.066 575.714,-256.885 580.779,-261.718"/>
<g id="a_edge27&#45;headlabel"><a xlink:href="dir_000082_000022.html" target="_top" xlink:title="4">
<text text-anchor="middle" x="580.352" y="-263.778" font-family="Helvetica,sans-Serif" font-size="10.00">4</text>
</a>
</g>
</g>
<!-- dir_aea4ed3fab8ecf600219166580b8618e -->
<g id="node5" class="node"><title>dir_aea4ed3fab8ecf600219166580b8618e</title>
<g id="a_node5"><a xlink:href="dir_aea4ed3fab8ecf600219166580b8618e.html" target="_top" xlink:title="LightManager">
<polygon fill="white" stroke="black" points="445.917,-252 371.417,-252 371.417,-216 445.917,-216 445.917,-252"/>
<text text-anchor="middle" x="408.667" y="-231.5" font-family="Helvetica,sans-Serif" font-size="10.00">LightManager</text>
</a>
</g>
</g>
<!-- dir_aea4ed3fab8ecf600219166580b8618e&#45;&gt;dir_f60fd3cff26f751d5a136115ec0dccfa -->
<g id="edge21" class="edge"><title>dir_aea4ed3fab8ecf600219166580b8618e&#45;&gt;dir_f60fd3cff26f751d5a136115ec0dccfa</title>
<path fill="none" stroke="black" d="M412.375,-215.697C414.028,-207.983 416.014,-198.712 417.857,-190.112"/>
<polygon fill="black" stroke="black" points="421.329,-190.616 420.002,-180.104 414.484,-189.149 421.329,-190.616"/>
<g id="a_edge21&#45;headlabel"><a xlink:href="dir_000083_000081.html" target="_top" xlink:title="1">
<text text-anchor="middle" x="423.352" y="-192.225" font-family="Helvetica,sans-Serif" font-size="10.00">1</text>
</a>
</g>
</g>
<!-- dir_aea4ed3fab8ecf600219166580b8618e&#45;&gt;dir_a2f0e5642e47e7ed59fe0f0829eafb5f -->
<g id="edge17" class="edge"><title>dir_aea4ed3fab8ecf600219166580b8618e&#45;&gt;dir_a2f0e5642e47e7ed59fe0f0829eafb5f</title>
<path fill="none" stroke="black" d="M421.11,-252.021C429.556,-263.222 441.544,-277.288 454.667,-287 458.186,-289.604 459.385,-290.091 463.667,-291 477.362,-293.906 512.972,-293.906 526.667,-291 546.653,-286.759 564.783,-272.686 577.976,-259.585"/>
<polygon fill="black" stroke="black" points="580.779,-261.718 585.15,-252.066 575.714,-256.885 580.779,-261.718"/>
<g id="a_edge17&#45;headlabel"><a xlink:href="dir_000083_000022.html" target="_top" xlink:title="4">
<text text-anchor="middle" x="580.352" y="-263.778" font-family="Helvetica,sans-Serif" font-size="10.00">4</text>
</a>
</g>
</g>
<!-- dir_aea4ed3fab8ecf600219166580b8618e&#45;&gt;dir_7205f054df4e14abb60715afe3e7e90c -->
<g id="edge18" class="edge"><title>dir_aea4ed3fab8ecf600219166580b8618e&#45;&gt;dir_7205f054df4e14abb60715afe3e7e90c</title>
<path fill="none" stroke="black" d="M445.945,-218.792C448.882,-217.805 451.814,-216.861 454.667,-216 489.35,-205.53 587.27,-183.305 641.452,-171.228"/>
<polygon fill="black" stroke="black" points="642.353,-174.613 651.354,-169.025 640.833,-167.78 642.353,-174.613"/>
<g id="a_edge18&#45;headlabel"><a xlink:href="dir_000083_000077.html" target="_top" xlink:title="1">
<text text-anchor="middle" x="639.46" y="-175.665" font-family="Helvetica,sans-Serif" font-size="10.00">1</text>
</a>
</g>
</g>
<!-- dir_aea4ed3fab8ecf600219166580b8618e&#45;&gt;dir_eecdbbfa89a6d9af25d920c499e6f44e -->
<g id="edge19" class="edge"><title>dir_aea4ed3fab8ecf600219166580b8618e&#45;&gt;dir_eecdbbfa89a6d9af25d920c499e6f44e</title>
<path fill="none" stroke="black" d="M446.29,-218.993C449.121,-217.971 451.937,-216.963 454.667,-216 501.982,-199.302 522.332,-211.149 561.667,-180 607.097,-144.025 637.348,-81.3504 651.803,-45.7386"/>
<polygon fill="black" stroke="black" points="655.216,-46.6225 655.622,-36.0354 648.703,-44.0591 655.216,-46.6225"/>
<g id="a_edge19&#45;headlabel"><a xlink:href="dir_000083_000097.html" target="_top" xlink:title="1">
<text text-anchor="middle" x="656.542" y="-48.5071" font-family="Helvetica,sans-Serif" font-size="10.00">1</text>
</a>
</g>
</g>
<!-- dir_aea4ed3fab8ecf600219166580b8618e&#45;&gt;dir_54018506bb725509c19b38b6d9bcf0f6 -->
<g id="edge20" class="edge"><title>dir_aea4ed3fab8ecf600219166580b8618e&#45;&gt;dir_54018506bb725509c19b38b6d9bcf0f6</title>
<path fill="none" stroke="black" d="M371.398,-218.86C368.129,-217.821 364.853,-216.849 361.667,-216 316.974,-204.089 186.41,-215.421 156.667,-180 110.707,-125.266 212.033,-64.5459 269.917,-35.8209"/>
<polygon fill="black" stroke="black" points="271.688,-38.8515 279.147,-31.3276 268.624,-32.5576 271.688,-38.8515"/>
<g id="a_edge20&#45;headlabel"><a xlink:href="dir_000083_000086.html" target="_top" xlink:title="10">
<text text-anchor="middle" x="269.699" y="-40.4776" font-family="Helvetica,sans-Serif" font-size="10.00">10</text>
</a>
</g>
</g>
<!-- dir_d3d507863844f6311a74cf28116d817e -->
<g id="node11" class="node"><title>dir_d3d507863844f6311a74cf28116d817e</title>
<g id="a_node11"><a xlink:href="dir_d3d507863844f6311a74cf28116d817e.html" target="_top" xlink:title="ItemModel">
<polygon fill="none" stroke="black" points="380.167,-331 319.167,-331 319.167,-295 380.167,-295 380.167,-331"/>
<text text-anchor="middle" x="349.667" y="-310.5" font-family="Helvetica,sans-Serif" font-size="10.00">ItemModel</text>
</a>
</g>
</g>
<!-- dir_f0e5825d12ad74d1d37ba8a4976c5f17&#45;&gt;dir_d3d507863844f6311a74cf28116d817e -->
<g id="edge16" class="edge"><title>dir_f0e5825d12ad74d1d37ba8a4976c5f17&#45;&gt;dir_d3d507863844f6311a74cf28116d817e</title>
<path fill="none" stroke="black" d="M173.309,-180.145C159.96,-188.909 146.025,-200.937 138.667,-216 124.818,-244.354 117.708,-263.411 138.667,-287 149.739,-299.461 250.362,-306.788 308.561,-310.02"/>
<polygon fill="black" stroke="black" points="308.73,-313.534 318.904,-310.576 309.106,-306.544 308.73,-313.534"/>
<g id="a_edge16&#45;headlabel"><a xlink:href="dir_000084_000078.html" target="_top" xlink:title="1">
<text text-anchor="middle" x="304.988" y="-313.676" font-family="Helvetica,sans-Serif" font-size="10.00">1</text>
</a>
</g>
</g>
<!-- dir_5a1bd30bc9919aca01fcd3709dbd4eb3&#45;&gt;dir_a2f0e5642e47e7ed59fe0f0829eafb5f -->
<g id="edge44" class="edge"><title>dir_5a1bd30bc9919aca01fcd3709dbd4eb3&#45;&gt;dir_a2f0e5642e47e7ed59fe0f0829eafb5f</title>
<path fill="none" stroke="black" d="M348.012,-177.517C350.928,-178.399 353.834,-179.237 356.667,-180 435.023,-201.105 456.638,-197.575 535.667,-216 544.534,-218.067 554.04,-220.482 562.94,-222.832"/>
<polygon fill="black" stroke="black" points="562.101,-226.231 572.666,-225.436 563.911,-219.469 562.101,-226.231"/>
<g id="a_edge44&#45;headlabel"><a xlink:href="dir_000085_000022.html" target="_top" xlink:title="2">
<text text-anchor="middle" x="557.895" y="-225.544" font-family="Helvetica,sans-Serif" font-size="10.00">2</text>
</a>
</g>
</g>
<!-- dir_5a1bd30bc9919aca01fcd3709dbd4eb3&#45;&gt;dir_7205f054df4e14abb60715afe3e7e90c -->
<g id="edge45" class="edge"><title>dir_5a1bd30bc9919aca01fcd3709dbd4eb3&#45;&gt;dir_7205f054df4e14abb60715afe3e7e90c</title>
<path fill="none" stroke="black" d="M329.668,-180.097C340.049,-187.15 352.845,-194.397 365.667,-198 421.932,-213.81 573.045,-215.941 628.667,-198 636.541,-195.46 644.221,-191.169 651.105,-186.417"/>
<polygon fill="black" stroke="black" points="653.443,-189.039 659.355,-180.247 649.251,-183.433 653.443,-189.039"/>
<g id="a_edge45&#45;headlabel"><a xlink:href="dir_000085_000077.html" target="_top" xlink:title="1">
<text text-anchor="middle" x="652.265" y="-190.966" font-family="Helvetica,sans-Serif" font-size="10.00">1</text>
</a>
</g>
</g>
<!-- dir_5a1bd30bc9919aca01fcd3709dbd4eb3&#45;&gt;dir_54018506bb725509c19b38b6d9bcf0f6 -->
<g id="edge46" class="edge"><title>dir_5a1bd30bc9919aca01fcd3709dbd4eb3&#45;&gt;dir_54018506bb725509c19b38b6d9bcf0f6</title>
<path fill="none" stroke="black" d="M308.698,-143.843C309.822,-133.481 311.102,-120.002 311.667,-108 312.419,-92.0177 312.419,-87.9823 311.667,-72 311.274,-63.6551 310.536,-54.5956 309.744,-46.3665"/>
<polygon fill="black" stroke="black" points="313.199,-45.7479 308.698,-36.1568 306.236,-46.4615 313.199,-45.7479"/>
<g id="a_edge46&#45;headlabel"><a xlink:href="dir_000085_000086.html" target="_top" xlink:title="2">
<text text-anchor="middle" x="316.39" y="-46.5345" font-family="Helvetica,sans-Serif" font-size="10.00">2</text>
</a>
</g>
</g>
<!-- dir_5a1bd30bc9919aca01fcd3709dbd4eb3&#45;&gt;dir_d0f3276f03e9a9cb8f8ba3f2a5ea1262 -->
<g id="edge47" class="edge"><title>dir_5a1bd30bc9919aca01fcd3709dbd4eb3&#45;&gt;dir_d0f3276f03e9a9cb8f8ba3f2a5ea1262</title>
<path fill="none" stroke="black" d="M329.464,-143.846C337.717,-138.216 347.314,-132.305 356.667,-128 384.133,-115.359 416.903,-106.026 442.54,-99.8954"/>
<polygon fill="black" stroke="black" points="443.392,-103.291 452.344,-97.6232 441.812,-96.4715 443.392,-103.291"/>
<g id="a_edge47&#45;headlabel"><a xlink:href="dir_000085_000076.html" target="_top" xlink:title="1">
<text text-anchor="middle" x="440.532" y="-104.368" font-family="Helvetica,sans-Serif" font-size="10.00">1</text>
</a>
</g>
</g>
<!-- dir_a2f0e5642e47e7ed59fe0f0829eafb5f&#45;&gt;dir_7205f054df4e14abb60715afe3e7e90c -->
<g id="edge6" class="edge"><title>dir_a2f0e5642e47e7ed59fe0f0829eafb5f&#45;&gt;dir_7205f054df4e14abb60715afe3e7e90c</title>
<path fill="none" stroke="black" d="M613.28,-215.697C622.233,-206.965 634.165,-196.24 645.433,-186.75"/>
<polygon fill="black" stroke="black" points="647.993,-189.175 653.469,-180.104 643.532,-183.781 647.993,-189.175"/>
<g id="a_edge6&#45;headlabel"><a xlink:href="dir_000022_000077.html" target="_top" xlink:title="1">
<text text-anchor="middle" x="647.033" y="-191.154" font-family="Helvetica,sans-Serif" font-size="10.00">1</text>
</a>
</g>
</g>
<!-- dir_a2f0e5642e47e7ed59fe0f0829eafb5f&#45;&gt;dir_54018506bb725509c19b38b6d9bcf0f6 -->
<g id="edge7" class="edge"><title>dir_a2f0e5642e47e7ed59fe0f0829eafb5f&#45;&gt;dir_54018506bb725509c19b38b6d9bcf0f6</title>
<path fill="none" stroke="black" d="M626.917,-227.356C652.188,-220.924 688.065,-207.494 705.667,-180 718.128,-160.536 718.576,-147.17 705.667,-128 664.46,-66.8075 435.908,-34.4645 344.396,-23.4282"/>
<polygon fill="black" stroke="black" points="344.787,-19.9502 334.444,-22.2468 343.962,-26.9014 344.787,-19.9502"/>
<g id="a_edge7&#45;headlabel"><a xlink:href="dir_000022_000086.html" target="_top" xlink:title="1">
<text text-anchor="middle" x="348.692" y="-15.0545" font-family="Helvetica,sans-Serif" font-size="10.00">1</text>
</a>
</g>
</g>
<!-- dir_7205f054df4e14abb60715afe3e7e90c&#45;&gt;dir_06113b60808b1bbb52a01dfd2c3a8657 -->
<g id="edge11" class="edge"><title>dir_7205f054df4e14abb60715afe3e7e90c&#45;&gt;dir_06113b60808b1bbb52a01dfd2c3a8657</title>
<path fill="none" stroke="black" d="M651.597,-173.243C620.227,-185.112 568.284,-204.767 532.588,-218.273"/>
<polygon fill="black" stroke="black" points="531.095,-215.096 522.981,-221.908 533.572,-221.643 531.095,-215.096"/>
<g id="a_edge11&#45;headlabel"><a xlink:href="dir_000077_000079.html" target="_top" xlink:title="1">
<text text-anchor="middle" x="533.452" y="-208.668" font-family="Helvetica,sans-Serif" font-size="10.00">1</text>
</a>
</g>
</g>
<!-- dir_7205f054df4e14abb60715afe3e7e90c&#45;&gt;dir_f0e5825d12ad74d1d37ba8a4976c5f17 -->
<g id="edge10" class="edge"><title>dir_7205f054df4e14abb60715afe3e7e90c&#45;&gt;dir_f0e5825d12ad74d1d37ba8a4976c5f17</title>
<path fill="none" stroke="black" d="M659.355,-180.247C650.671,-187.233 639.865,-194.388 628.667,-198 551.684,-222.831 342.456,-220.179 264.667,-198 255.377,-195.351 246.122,-190.739 237.822,-185.683"/>
<polygon fill="black" stroke="black" points="239.525,-182.615 229.235,-180.093 235.707,-188.482 239.525,-182.615"/>
<g id="a_edge10&#45;headlabel"><a xlink:href="dir_000077_000084.html" target="_top" xlink:title="1">
<text text-anchor="middle" x="244.087" y="-179.696" font-family="Helvetica,sans-Serif" font-size="10.00">1</text>
</a>
</g>
</g>
<!-- dir_7205f054df4e14abb60715afe3e7e90c&#45;&gt;dir_a2f0e5642e47e7ed59fe0f0829eafb5f -->
<g id="edge8" class="edge"><title>dir_7205f054df4e14abb60715afe3e7e90c&#45;&gt;dir_a2f0e5642e47e7ed59fe0f0829eafb5f</title>
<path fill="none" stroke="black" d="M665.259,-180.104C656.265,-188.889 644.205,-199.732 632.83,-209.309"/>
<polygon fill="black" stroke="black" points="630.584,-206.625 625.111,-215.697 635.047,-212.018 630.584,-206.625"/>
<g id="a_edge8&#45;headlabel"><a xlink:href="dir_000077_000022.html" target="_top" xlink:title="4">
<text text-anchor="middle" x="631.544" y="-199.646" font-family="Helvetica,sans-Serif" font-size="10.00">4</text>
</a>
</g>
</g>
<!-- dir_7205f054df4e14abb60715afe3e7e90c&#45;&gt;dir_eecdbbfa89a6d9af25d920c499e6f44e -->
<g id="edge9" class="edge"><title>dir_7205f054df4e14abb60715afe3e7e90c&#45;&gt;dir_eecdbbfa89a6d9af25d920c499e6f44e</title>
<path fill="none" stroke="black" d="M672.505,-143.836C670.544,-125.837 670.31,-96.7791 666.667,-72 665.421,-63.5258 663.321,-54.4594 661.512,-46.2646"/>
<polygon fill="black" stroke="black" points="664.935,-45.5333 659.463,-36.4609 658.083,-46.9654 664.935,-45.5333"/>
<g id="a_edge9&#45;headlabel"><a xlink:href="dir_000077_000097.html" target="_top" xlink:title="1">
<text text-anchor="middle" x="668.45" y="-45.971" font-family="Helvetica,sans-Serif" font-size="10.00">1</text>
</a>
</g>
</g>
<!-- dir_7205f054df4e14abb60715afe3e7e90c&#45;&gt;dir_d0f3276f03e9a9cb8f8ba3f2a5ea1262 -->
<g id="edge12" class="edge"><title>dir_7205f054df4e14abb60715afe3e7e90c&#45;&gt;dir_d0f3276f03e9a9cb8f8ba3f2a5ea1262</title>
<path fill="none" stroke="black" d="M652.213,-143.675C644.91,-137.962 636.862,-132.042 628.667,-128 610.987,-119.279 564.48,-108.551 529.167,-100.896"/>
<polygon fill="black" stroke="black" points="529.588,-97.4068 519.075,-98.7243 528.115,-104.25 529.588,-97.4068"/>
<g id="a_edge12&#45;headlabel"><a xlink:href="dir_000077_000076.html" target="_top" xlink:title="1">
<text text-anchor="middle" x="533.699" y="-92.8874" font-family="Helvetica,sans-Serif" font-size="10.00">1</text>
</a>
</g>
</g>
<!-- dir_eecdbbfa89a6d9af25d920c499e6f44e&#45;&gt;dir_a2f0e5642e47e7ed59fe0f0829eafb5f -->
<g id="edge13" class="edge"><title>dir_eecdbbfa89a6d9af25d920c499e6f44e&#45;&gt;dir_a2f0e5642e47e7ed59fe0f0829eafb5f</title>
<path fill="none" stroke="black" d="M688.872,-20.3363C722.308,-23.6107 777.784,-34.7115 803.667,-72 831.038,-111.431 833.032,-142.031 803.667,-180 783.414,-206.187 689.883,-221.833 636.774,-228.756"/>
<polygon fill="black" stroke="black" points="636.208,-225.3 626.725,-230.025 637.085,-232.245 636.208,-225.3"/>
<g id="a_edge13&#45;headlabel"><a xlink:href="dir_000097_000022.html" target="_top" xlink:title="1">
<text text-anchor="middle" x="639.419" y="-219.533" font-family="Helvetica,sans-Serif" font-size="10.00">1</text>
</a>
</g>
</g>
<!-- dir_eecdbbfa89a6d9af25d920c499e6f44e&#45;&gt;dir_7205f054df4e14abb60715afe3e7e90c -->
<g id="edge14" class="edge"><title>dir_eecdbbfa89a6d9af25d920c499e6f44e&#45;&gt;dir_7205f054df4e14abb60715afe3e7e90c</title>
<path fill="none" stroke="black" d="M675.213,-36.4609C679.395,-46.6978 682.895,-59.9478 684.667,-72 687.684,-92.5202 688.363,-115.975 687.03,-133.653"/>
<polygon fill="black" stroke="black" points="683.525,-133.521 685.944,-143.836 690.485,-134.264 683.525,-133.521"/>
<g id="a_edge14&#45;headlabel"><a xlink:href="dir_000097_000077.html" target="_top" xlink:title="1">
<text text-anchor="middle" x="681.083" y="-127.146" font-family="Helvetica,sans-Serif" font-size="10.00">1</text>
</a>
</g>
</g>
<!-- dir_eecdbbfa89a6d9af25d920c499e6f44e&#45;&gt;dir_d0f3276f03e9a9cb8f8ba3f2a5ea1262 -->
<g id="edge15" class="edge"><title>dir_eecdbbfa89a6d9af25d920c499e6f44e&#45;&gt;dir_d0f3276f03e9a9cb8f8ba3f2a5ea1262</title>
<path fill="none" stroke="black" d="M634.648,-31.8824C606.31,-43.8486 561.617,-61.6585 528.501,-74.203"/>
<polygon fill="black" stroke="black" points="527.188,-70.9575 519.059,-77.7533 529.651,-77.5096 527.188,-70.9575"/>
<g id="a_edge15&#45;headlabel"><a xlink:href="dir_000097_000076.html" target="_top" xlink:title="1">
<text text-anchor="middle" x="529.553" y="-64.5348" font-family="Helvetica,sans-Serif" font-size="10.00">1</text>
</a>
</g>
</g>
<!-- dir_d3d507863844f6311a74cf28116d817e&#45;&gt;dir_06113b60808b1bbb52a01dfd2c3a8657 -->
<g id="edge24" class="edge"><title>dir_d3d507863844f6311a74cf28116d817e&#45;&gt;dir_06113b60808b1bbb52a01dfd2c3a8657</title>
<path fill="none" stroke="black" d="M380.352,-310.225C402.545,-307.69 432.417,-301.594 454.667,-287 464.781,-280.366 473.263,-270.171 479.706,-260.56"/>
<polygon fill="black" stroke="black" points="482.713,-262.354 485.038,-252.017 476.774,-258.647 482.713,-262.354"/>
<g id="a_edge24&#45;headlabel"><a xlink:href="dir_000078_000079.html" target="_top" xlink:title="2">
<text text-anchor="middle" x="483.218" y="-264.406" font-family="Helvetica,sans-Serif" font-size="10.00">2</text>
</a>
</g>
</g>
<!-- dir_d3d507863844f6311a74cf28116d817e&#45;&gt;dir_c9b08ae6a3cd90292fdc27503a26012a -->
<g id="edge23" class="edge"><title>dir_d3d507863844f6311a74cf28116d817e&#45;&gt;dir_c9b08ae6a3cd90292fdc27503a26012a</title>
<path fill="none" stroke="black" d="M318.89,-308.333C299.421,-304.978 274.313,-298.675 254.667,-287 243.171,-280.168 232.667,-269.867 224.358,-260.232"/>
<polygon fill="black" stroke="black" points="226.97,-257.897 217.922,-252.385 221.558,-262.337 226.97,-257.897"/>
<g id="a_edge23&#45;headlabel"><a xlink:href="dir_000078_000082.html" target="_top" xlink:title="1">
<text text-anchor="middle" x="231.445" y="-256.376" font-family="Helvetica,sans-Serif" font-size="10.00">1</text>
</a>
</g>
</g>
<!-- dir_d3d507863844f6311a74cf28116d817e&#45;&gt;dir_5a1bd30bc9919aca01fcd3709dbd4eb3 -->
<g id="edge26" class="edge"><title>dir_d3d507863844f6311a74cf28116d817e&#45;&gt;dir_5a1bd30bc9919aca01fcd3709dbd4eb3</title>
<path fill="none" stroke="black" d="M318.921,-312.709C269.894,-313.105 177.41,-310.603 156.667,-287 135.836,-263.297 138.446,-241.763 156.667,-216 158.21,-213.818 212.729,-194.898 255.595,-180.278"/>
<polygon fill="black" stroke="black" points="256.755,-183.581 265.093,-177.044 254.499,-176.954 256.755,-183.581"/>
<g id="a_edge26&#45;headlabel"><a xlink:href="dir_000078_000085.html" target="_top" xlink:title="1">
<text text-anchor="middle" x="254.267" y="-184.927" font-family="Helvetica,sans-Serif" font-size="10.00">1</text>
</a>
</g>
</g>
<!-- dir_d3d507863844f6311a74cf28116d817e&#45;&gt;dir_a2f0e5642e47e7ed59fe0f0829eafb5f -->
<g id="edge22" class="edge"><title>dir_d3d507863844f6311a74cf28116d817e&#45;&gt;dir_a2f0e5642e47e7ed59fe0f0829eafb5f</title>
<path fill="none" stroke="black" d="M380.319,-312.873C418.33,-312.855 484.375,-309.169 535.667,-287 550.722,-280.493 565.12,-269.396 576.433,-259.121"/>
<polygon fill="black" stroke="black" points="578.884,-261.62 583.743,-252.204 574.073,-256.535 578.884,-261.62"/>
<g id="a_edge22&#45;headlabel"><a xlink:href="dir_000078_000022.html" target="_top" xlink:title="1">
<text text-anchor="middle" x="578.225" y="-263.652" font-family="Helvetica,sans-Serif" font-size="10.00">1</text>
</a>
</g>
</g>
<!-- dir_d3d507863844f6311a74cf28116d817e&#45;&gt;dir_54018506bb725509c19b38b6d9bcf0f6 -->
<g id="edge25" class="edge"><title>dir_d3d507863844f6311a74cf28116d817e&#45;&gt;dir_54018506bb725509c19b38b6d9bcf0f6</title>
<path fill="none" stroke="black" d="M380.429,-312.448C445.078,-312.89 592.627,-311.132 635.667,-287 704.496,-248.41 758.742,-193.452 714.667,-128 672.77,-65.7828 437.201,-33.3893 344.32,-22.8917"/>
<polygon fill="black" stroke="black" points="344.56,-19.397 334.236,-21.7751 343.79,-26.3545 344.56,-19.397"/>
<g id="a_edge25&#45;headlabel"><a xlink:href="dir_000078_000086.html" target="_top" xlink:title="2">
<text text-anchor="middle" x="348.445" y="-14.4705" font-family="Helvetica,sans-Serif" font-size="10.00">2</text>
</a>
</g>
</g>
<!-- dir_54018506bb725509c19b38b6d9bcf0f6&#45;&gt;dir_9c9d2b16f43d35e4f1c4dc94ebe4380d -->
<g id="edge30" class="edge"><title>dir_54018506bb725509c19b38b6d9bcf0f6&#45;&gt;dir_9c9d2b16f43d35e4f1c4dc94ebe4380d</title>
<path fill="none" stroke="black" d="M279.061,-21.4482C225.246,-26.8526 109.487,-41.7921 85.6671,-72 55.946,-109.692 55.468,-142.69 85.6671,-180 132.002,-237.244 176.591,-199.822 254.135,-216.241"/>
<polygon fill="black" stroke="black" points="253.729,-219.742 264.268,-218.654 255.351,-212.932 253.729,-219.742"/>
<g id="a_edge30&#45;headlabel"><a xlink:href="dir_000086_000080.html" target="_top" xlink:title="1">
<text text-anchor="middle" x="249.574" y="-219.171" font-family="Helvetica,sans-Serif" font-size="10.00">1</text>
</a>
</g>
</g>
<!-- dir_54018506bb725509c19b38b6d9bcf0f6&#45;&gt;dir_c9b08ae6a3cd90292fdc27503a26012a -->
<g id="edge35" class="edge"><title>dir_54018506bb725509c19b38b6d9bcf0f6&#45;&gt;dir_c9b08ae6a3cd90292fdc27503a26012a</title>
<path fill="none" stroke="black" d="M279.079,-19.9508C214.542,-22.8047 56.6832,-33.641 23.6671,-72 -7.65101,-108.386 -7.20194,-141.642 21.6671,-180 37.8105,-201.45 106.824,-216.93 155.569,-225.436"/>
<polygon fill="black" stroke="black" points="155.192,-228.922 165.637,-227.144 156.364,-222.02 155.192,-228.922"/>
<g id="a_edge35&#45;headlabel"><a xlink:href="dir_000086_000082.html" target="_top" xlink:title="1">
<text text-anchor="middle" x="151.173" y="-228.619" font-family="Helvetica,sans-Serif" font-size="10.00">1</text>
</a>
</g>
</g>
<!-- dir_54018506bb725509c19b38b6d9bcf0f6&#45;&gt;dir_aea4ed3fab8ecf600219166580b8618e -->
<g id="edge34" class="edge"><title>dir_54018506bb725509c19b38b6d9bcf0f6&#45;&gt;dir_aea4ed3fab8ecf600219166580b8618e</title>
<path fill="none" stroke="black" d="M279.141,-22.2067C247.127,-27.3308 194.599,-40.2627 162.667,-72 127.985,-106.471 110.005,-142.736 141.667,-180 173.744,-217.752 313.725,-203.522 361.667,-216 361.767,-216.026 361.867,-216.052 361.967,-216.078"/>
<polygon fill="black" stroke="black" points="360.829,-219.392 371.408,-218.819 362.781,-212.67 360.829,-219.392"/>
<g id="a_edge34&#45;headlabel"><a xlink:href="dir_000086_000083.html" target="_top" xlink:title="2">
<text text-anchor="middle" x="356.585" y="-218.617" font-family="Helvetica,sans-Serif" font-size="10.00">2</text>
</a>
</g>
</g>
<!-- dir_54018506bb725509c19b38b6d9bcf0f6&#45;&gt;dir_f0e5825d12ad74d1d37ba8a4976c5f17 -->
<g id="edge33" class="edge"><title>dir_54018506bb725509c19b38b6d9bcf0f6&#45;&gt;dir_f0e5825d12ad74d1d37ba8a4976c5f17</title>
<path fill="none" stroke="black" d="M294.562,-36.1893C277.119,-60.9582 244.797,-106.856 224.584,-135.558"/>
<polygon fill="black" stroke="black" points="221.626,-133.68 218.729,-143.871 227.349,-137.711 221.626,-133.68"/>
<g id="a_edge33&#45;headlabel"><a xlink:href="dir_000086_000084.html" target="_top" xlink:title="1">
<text text-anchor="middle" x="221.374" y="-126.606" font-family="Helvetica,sans-Serif" font-size="10.00">1</text>
</a>
</g>
</g>
<!-- dir_54018506bb725509c19b38b6d9bcf0f6&#45;&gt;dir_5a1bd30bc9919aca01fcd3709dbd4eb3 -->
<g id="edge37" class="edge"><title>dir_54018506bb725509c19b38b6d9bcf0f6&#45;&gt;dir_5a1bd30bc9919aca01fcd3709dbd4eb3</title>
<path fill="none" stroke="black" d="M306.667,-36.1893C306.667,-60.4244 306.667,-104.888 306.667,-133.679"/>
<polygon fill="black" stroke="black" points="303.167,-133.871 306.667,-143.871 310.167,-133.872 303.167,-133.871"/>
<g id="a_edge37&#45;headlabel"><a xlink:href="dir_000086_000085.html" target="_top" xlink:title="1">
<text text-anchor="middle" x="300.328" y="-127.777" font-family="Helvetica,sans-Serif" font-size="10.00">1</text>
</a>
</g>
</g>
<!-- dir_54018506bb725509c19b38b6d9bcf0f6&#45;&gt;dir_a2f0e5642e47e7ed59fe0f0829eafb5f -->
<g id="edge31" class="edge"><title>dir_54018506bb725509c19b38b6d9bcf0f6&#45;&gt;dir_a2f0e5642e47e7ed59fe0f0829eafb5f</title>
<path fill="none" stroke="black" d="M334.389,-21.401C420.588,-30.027 679.541,-62.4727 723.667,-128 736.576,-147.17 736.128,-160.536 723.667,-180 705.112,-208.983 666.248,-222.338 636.793,-228.341"/>
<polygon fill="black" stroke="black" points="636.02,-224.924 626.816,-230.171 637.283,-231.809 636.02,-224.924"/>
<g id="a_edge31&#45;headlabel"><a xlink:href="dir_000086_000022.html" target="_top" xlink:title="53">
<text text-anchor="middle" x="639.043" y="-218.983" font-family="Helvetica,sans-Serif" font-size="10.00">53</text>
</a>
</g>
</g>
<!-- dir_54018506bb725509c19b38b6d9bcf0f6&#45;&gt;dir_7205f054df4e14abb60715afe3e7e90c -->
<g id="edge32" class="edge"><title>dir_54018506bb725509c19b38b6d9bcf0f6&#45;&gt;dir_7205f054df4e14abb60715afe3e7e90c</title>
<path fill="none" stroke="black" d="M334.348,-22.9272C377.015,-29.5751 460.904,-45.025 527.667,-72 571.065,-89.5344 616.825,-118.128 646.442,-138.161"/>
<polygon fill="black" stroke="black" points="644.493,-141.068 654.723,-143.825 648.444,-135.29 644.493,-141.068"/>
<g id="a_edge32&#45;headlabel"><a xlink:href="dir_000086_000077.html" target="_top" xlink:title="3">
<text text-anchor="middle" x="639.923" y="-138.883" font-family="Helvetica,sans-Serif" font-size="10.00">3</text>
</a>
</g>
</g>
<!-- dir_54018506bb725509c19b38b6d9bcf0f6&#45;&gt;dir_d0f3276f03e9a9cb8f8ba3f2a5ea1262 -->
<g id="edge36" class="edge"><title>dir_54018506bb725509c19b38b6d9bcf0f6&#45;&gt;dir_d0f3276f03e9a9cb8f8ba3f2a5ea1262</title>
<path fill="none" stroke="black" d="M334.423,-28.0149C363.379,-38.5051 408.902,-56.125 442.508,-69.7355"/>
<polygon fill="black" stroke="black" points="441.503,-73.1053 452.084,-73.6382 444.145,-66.6229 441.503,-73.1053"/>
<g id="a_edge36&#45;headlabel"><a xlink:href="dir_000086_000076.html" target="_top" xlink:title="4">
<text text-anchor="middle" x="437.102" y="-71.878" font-family="Helvetica,sans-Serif" font-size="10.00">4</text>
</a>
</g>
</g>
<!-- dir_d0f3276f03e9a9cb8f8ba3f2a5ea1262&#45;&gt;dir_06113b60808b1bbb52a01dfd2c3a8657 -->
<g id="edge42" class="edge"><title>dir_d0f3276f03e9a9cb8f8ba3f2a5ea1262&#45;&gt;dir_06113b60808b1bbb52a01dfd2c3a8657</title>
<path fill="none" stroke="black" d="M487.789,-108.295C488.483,-114.501 489.197,-121.556 489.667,-128 491.59,-154.339 492.617,-184.466 493.147,-205.674"/>
<polygon fill="black" stroke="black" points="489.653,-205.967 493.381,-215.884 496.651,-205.807 489.653,-205.967"/>
<g id="a_edge42&#45;headlabel"><a xlink:href="dir_000076_000079.html" target="_top" xlink:title="1">
<text text-anchor="middle" x="486.732" y="-199.938" font-family="Helvetica,sans-Serif" font-size="10.00">1</text>
</a>
</g>
</g>
<!-- dir_d0f3276f03e9a9cb8f8ba3f2a5ea1262&#45;&gt;dir_f0e5825d12ad74d1d37ba8a4976c5f17 -->
<g id="edge41" class="edge"><title>dir_d0f3276f03e9a9cb8f8ba3f2a5ea1262&#45;&gt;dir_f0e5825d12ad74d1d37ba8a4976c5f17</title>
<path fill="none" stroke="black" d="M452.11,-91.9029C406.234,-94.1278 322.061,-101.781 255.667,-128 249.13,-130.582 242.581,-134.146 236.495,-137.982"/>
<polygon fill="black" stroke="black" points="234.314,-135.231 227.966,-143.713 238.218,-141.041 234.314,-135.231"/>
<g id="a_edge41&#45;headlabel"><a xlink:href="dir_000076_000084.html" target="_top" xlink:title="1">
<text text-anchor="middle" x="235.714" y="-128.369" font-family="Helvetica,sans-Serif" font-size="10.00">1</text>
</a>
</g>
</g>
<!-- dir_d0f3276f03e9a9cb8f8ba3f2a5ea1262&#45;&gt;dir_a2f0e5642e47e7ed59fe0f0829eafb5f -->
<g id="edge38" class="edge"><title>dir_d0f3276f03e9a9cb8f8ba3f2a5ea1262&#45;&gt;dir_a2f0e5642e47e7ed59fe0f0829eafb5f</title>
<path fill="none" stroke="black" d="M512.683,-108.071C520.621,-113.826 528.964,-120.667 535.667,-128 557.471,-151.852 575.867,-184.209 587.261,-206.673"/>
<polygon fill="black" stroke="black" points="584.129,-208.235 591.705,-215.641 590.401,-205.127 584.129,-208.235"/>
<g id="a_edge38&#45;headlabel"><a xlink:href="dir_000076_000022.html" target="_top" xlink:title="5">
<text text-anchor="middle" x="579.989" y="-203.775" font-family="Helvetica,sans-Serif" font-size="10.00">5</text>
</a>
</g>
</g>
<!-- dir_d0f3276f03e9a9cb8f8ba3f2a5ea1262&#45;&gt;dir_7205f054df4e14abb60715afe3e7e90c -->
<g id="edge39" class="edge"><title>dir_d0f3276f03e9a9cb8f8ba3f2a5ea1262&#45;&gt;dir_7205f054df4e14abb60715afe3e7e90c</title>
<path fill="none" stroke="black" d="M518.996,-96.1716C559.606,-103.519 624.928,-117.277 646.667,-128 651.789,-130.526 656.853,-133.786 661.453,-137.27"/>
<polygon fill="black" stroke="black" points="659.217,-139.963 669.14,-143.675 663.698,-134.585 659.217,-139.963"/>
<g id="a_edge39&#45;headlabel"><a xlink:href="dir_000076_000077.html" target="_top" xlink:title="1">
<text text-anchor="middle" x="654.638" y="-137.344" font-family="Helvetica,sans-Serif" font-size="10.00">1</text>
</a>
</g>
</g>
<!-- dir_d0f3276f03e9a9cb8f8ba3f2a5ea1262&#45;&gt;dir_eecdbbfa89a6d9af25d920c499e6f44e -->
<g id="edge40" class="edge"><title>dir_d0f3276f03e9a9cb8f8ba3f2a5ea1262&#45;&gt;dir_eecdbbfa89a6d9af25d920c499e6f44e</title>
<path fill="none" stroke="black" d="M519.007,-73.4647C549.222,-60.853 593.494,-43.2973 624.762,-31.5612"/>
<polygon fill="black" stroke="black" points="626.269,-34.7349 634.422,-27.9689 623.829,-28.1738 626.269,-34.7349"/>
<g id="a_edge40&#45;headlabel"><a xlink:href="dir_000076_000097.html" target="_top" xlink:title="1">
<text text-anchor="middle" x="623.89" y="-36.1489" font-family="Helvetica,sans-Serif" font-size="10.00">1</text>
</a>
</g>
</g>
<!-- dir_d0f3276f03e9a9cb8f8ba3f2a5ea1262&#45;&gt;dir_54018506bb725509c19b38b6d9bcf0f6 -->
<g id="edge43" class="edge"><title>dir_d0f3276f03e9a9cb8f8ba3f2a5ea1262&#45;&gt;dir_54018506bb725509c19b38b6d9bcf0f6</title>
<path fill="none" stroke="black" d="M452.215,-77.9083C421.354,-66.5888 375.807,-48.8783 343.838,-35.8299"/>
<polygon fill="black" stroke="black" points="344.963,-32.5084 334.383,-31.9424 342.301,-38.9824 344.963,-32.5084"/>
<g id="a_edge43&#45;headlabel"><a xlink:href="dir_000076_000086.html" target="_top" xlink:title="3">
<text text-anchor="middle" x="349.367" y="-28.7494" font-family="Helvetica,sans-Serif" font-size="10.00">3</text>
</a>
</g>
</g>
</g>
</svg>
