<?xml version="1.0" encoding="UTF-8" standalone="no"?>
<!DOCTYPE svg PUBLIC "-//W3C//DTD SVG 1.1//EN"
 "http://www.w3.org/Graphics/SVG/1.1/DTD/svg11.dtd">
<!-- Generated by graphviz version 2.36.0 (20140111.2315)
 -->
<!-- Title: /home/travis/build/STORM&#45;IRIT/Radium&#45;Engine/src/Core/Mesh Pages: 1 -->
<svg width="507pt" height="320pt"
 viewBox="0.00 0.00 506.95 319.83" xmlns="http://www.w3.org/2000/svg" xmlns:xlink="http://www.w3.org/1999/xlink">
<g id="graph0" class="graph" transform="scale(1 1) rotate(0) translate(4 315.828)">
<title>/home/travis/build/STORM&#45;IRIT/Radium&#45;Engine/src/Core/Mesh</title>
<polygon fill="white" stroke="none" points="-4,4 -4,-315.828 502.952,-315.828 502.952,4 -4,4"/>
<g id="clust1" class="cluster"><title>clusterdir_a2f0e5642e47e7ed59fe0f0829eafb5f</title>
<g id="a_clust1"><a xlink:href="dir_a2f0e5642e47e7ed59fe0f0829eafb5f.html" target="_top" xlink:title="Core">
<polygon fill="#ddddee" stroke="black" points="8,-128 8,-287 286,-287 286,-128 8,-128"/>
<text text-anchor="middle" x="147" y="-275" font-family="Helvetica,sans-Serif" font-size="10.00">Core</text>
</a>
</g>
</g>
<g id="clust2" class="cluster"><title>clusterdir_d080e052e6032887076b6b5756e5361d</title>
<g id="a_clust2"><a xlink:href="dir_d080e052e6032887076b6b5756e5361d.html" target="_top">
<polygon fill="#eeeeff" stroke="black" points="16,-136 16,-260 278,-260 278,-136 16,-136"/>
</a>
</g>
</g>
<!-- dir_d080e052e6032887076b6b5756e5361d -->
<g id="node1" class="node"><title>dir_d080e052e6032887076b6b5756e5361d</title>
<text text-anchor="middle" x="171" y="-231.5" font-family="Helvetica,sans-Serif" font-size="10.00">Mesh</text>
</g>
<!-- dir_cb2b5dfd43482fb277f6333d539f1f06 -->
<g id="node7" class="node"><title>dir_cb2b5dfd43482fb277f6333d539f1f06</title>
<g id="a_node7"><a xlink:href="dir_cb2b5dfd43482fb277f6333d539f1f06.html" target="_top" xlink:title="Geometry">
<polygon fill="white" stroke="red" points="481.25,-252 422.75,-252 422.75,-216 481.25,-216 481.25,-252"/>
<text text-anchor="middle" x="452" y="-231.5" font-family="Helvetica,sans-Serif" font-size="10.00">Geometry</text>
</a>
</g>
</g>
<!-- dir_d080e052e6032887076b6b5756e5361d&#45;&gt;dir_cb2b5dfd43482fb277f6333d539f1f06 -->
<g id="edge2" class="edge"><title>dir_d080e052e6032887076b6b5756e5361d&#45;&gt;dir_cb2b5dfd43482fb277f6333d539f1f06</title>
<path fill="none" stroke="black" d="M176.729,-252.038C183.234,-269.135 195.67,-293.816 216,-305 238.196,-317.211 248.117,-309.755 273,-305 323.642,-295.323 378.229,-271.539 413.63,-254.156"/>
<polygon fill="black" stroke="black" points="415.255,-257.257 422.644,-249.664 412.132,-250.992 415.255,-257.257"/>
<g id="a_edge2&#45;headlabel"><a xlink:href="dir_000056_000040.html" target="_top" xlink:title="2">
<text text-anchor="middle" x="413.304" y="-258.901" font-family="Helvetica,sans-Serif" font-size="10.00">2</text>
</a>
</g>
</g>
<!-- dir_1efe152df2f2e9cd3517b1174a4598d7 -->
<g id="node8" class="node"><title>dir_1efe152df2f2e9cd3517b1174a4598d7</title>
<g id="a_node8"><a xlink:href="dir_1efe152df2f2e9cd3517b1174a4598d7.html" target="_top" xlink:title="Log">
<polygon fill="none" stroke="black" points="318,-108 264,-108 264,-72 318,-72 318,-108"/>
<text text-anchor="middle" x="291" y="-87.5" font-family="Helvetica,sans-Serif" font-size="10.00">Log</text>
</a>
</g>
</g>
<!-- dir_d080e052e6032887076b6b5756e5361d&#45;&gt;dir_1efe152df2f2e9cd3517b1174a4598d7 -->
<g id="edge3" class="edge"><title>dir_d080e052e6032887076b6b5756e5361d&#45;&gt;dir_1efe152df2f2e9cd3517b1174a4598d7</title>
<path fill="none" stroke="black" d="M198.173,-216.732C212.425,-207.269 229.475,-194.385 242,-180 258.373,-161.196 271.605,-136.022 280.172,-117.246"/>
<polygon fill="black" stroke="black" points="283.383,-118.64 284.219,-108.078 276.979,-115.813 283.383,-118.64"/>
<g id="a_edge3&#45;headlabel"><a xlink:href="dir_000056_000054.html" target="_top" xlink:title="3">
<text text-anchor="middle" x="284.529" y="-120.575" font-family="Helvetica,sans-Serif" font-size="10.00">3</text>
</a>
</g>
</g>
<!-- dir_dbb2a23c19e39eeed5090a333e1fc81c -->
<g id="node10" class="node"><title>dir_dbb2a23c19e39eeed5090a333e1fc81c</title>
<g id="a_node10"><a xlink:href="dir_dbb2a23c19e39eeed5090a333e1fc81c.html" target="_top" xlink:title="String">
<polygon fill="none" stroke="black" points="194,-36 140,-36 140,-0 194,-0 194,-36"/>
<text text-anchor="middle" x="167" y="-15.5" font-family="Helvetica,sans-Serif" font-size="10.00">String</text>
</a>
</g>
</g>
<!-- dir_d080e052e6032887076b6b5756e5361d&#45;&gt;dir_dbb2a23c19e39eeed5090a333e1fc81c -->
<g id="edge4" class="edge"><title>dir_d080e052e6032887076b6b5756e5361d&#45;&gt;dir_dbb2a23c19e39eeed5090a333e1fc81c</title>
<path fill="none" stroke="black" d="M143.703,-219.316C129.021,-210.338 112.271,-197.088 104,-180 83.0884,-136.795 83.742,-115.516 104,-72 109.961,-59.196 120.706,-48.3801 131.654,-39.9252"/>
<polygon fill="black" stroke="black" points="133.918,-42.6082 139.99,-33.926 129.829,-36.9266 133.918,-42.6082"/>
<g id="a_edge4&#45;headlabel"><a xlink:href="dir_000056_000069.html" target="_top" xlink:title="2">
<text text-anchor="middle" x="132.659" y="-44.5124" font-family="Helvetica,sans-Serif" font-size="10.00">2</text>
</a>
</g>
</g>
<!-- dir_ff87cf903db18af0fdb6c342683ece25 -->
<g id="node11" class="node"><title>dir_ff87cf903db18af0fdb6c342683ece25</title>
<g id="a_node11"><a xlink:href="dir_ff87cf903db18af0fdb6c342683ece25.html" target="_top" xlink:title="Utils">
<polygon fill="white" stroke="red" points="386,-180 332,-180 332,-144 386,-144 386,-180"/>
<text text-anchor="middle" x="359" y="-159.5" font-family="Helvetica,sans-Serif" font-size="10.00">Utils</text>
</a>
</g>
</g>
<!-- dir_d080e052e6032887076b6b5756e5361d&#45;&gt;dir_ff87cf903db18af0fdb6c342683ece25 -->
<g id="edge5" class="edge"><title>dir_d080e052e6032887076b6b5756e5361d&#45;&gt;dir_ff87cf903db18af0fdb6c342683ece25</title>
<path fill="none" stroke="black" d="M198.384,-219.703C201.275,-218.409 204.185,-217.152 207,-216 245.745,-200.149 291.188,-184.702 322.226,-174.613"/>
<polygon fill="black" stroke="black" points="323.329,-177.935 331.77,-171.532 321.179,-171.274 323.329,-177.935"/>
<g id="a_edge5&#45;headlabel"><a xlink:href="dir_000056_000073.html" target="_top" xlink:title="2">
<text text-anchor="middle" x="320.78" y="-179.241" font-family="Helvetica,sans-Serif" font-size="10.00">2</text>
</a>
</g>
</g>
<!-- dir_2675901a455951db10e33b411821b9ee -->
<g id="node2" class="node"><title>dir_2675901a455951db10e33b411821b9ee</title>
<g id="a_node2"><a xlink:href="dir_2675901a455951db10e33b411821b9ee.html" target="_top" xlink:title="DCEL">
<polygon fill="white" stroke="red" points="200,-180 146,-180 146,-144 200,-144 200,-180"/>
<text text-anchor="middle" x="173" y="-159.5" font-family="Helvetica,sans-Serif" font-size="10.00">DCEL</text>
</a>
</g>
</g>
<!-- dir_1456dd235032e023892318efbecb420b -->
<g id="node5" class="node"><title>dir_1456dd235032e023892318efbecb420b</title>
<g id="a_node5"><a xlink:href="dir_1456dd235032e023892318efbecb420b.html" target="_top" xlink:title="Containers">
<polygon fill="none" stroke="black" points="400,-108 336,-108 336,-72 400,-72 400,-108"/>
<text text-anchor="middle" x="368" y="-87.5" font-family="Helvetica,sans-Serif" font-size="10.00">Containers</text>
</a>
</g>
</g>
<!-- dir_2675901a455951db10e33b411821b9ee&#45;&gt;dir_1456dd235032e023892318efbecb420b -->
<g id="edge9" class="edge"><title>dir_2675901a455951db10e33b411821b9ee&#45;&gt;dir_1456dd235032e023892318efbecb420b</title>
<path fill="none" stroke="black" d="M200.165,-152.213C229.204,-142.698 276.769,-126.764 326.258,-108.177"/>
<polygon fill="black" stroke="black" points="327.73,-111.363 335.846,-104.552 325.254,-104.815 327.73,-111.363"/>
<g id="a_edge9&#45;headlabel"><a xlink:href="dir_000057_000035.html" target="_top" xlink:title="1">
<text text-anchor="middle" x="325.372" y="-112.79" font-family="Helvetica,sans-Serif" font-size="10.00">1</text>
</a>
</g>
</g>
<!-- dir_a1f42069ba95676f6b9abbd5065ccf6d -->
<g id="node6" class="node"><title>dir_a1f42069ba95676f6b9abbd5065ccf6d</title>
<g id="a_node6"><a xlink:href="dir_a1f42069ba95676f6b9abbd5065ccf6d.html" target="_top" xlink:title="Math">
<polygon fill="none" stroke="black" points="395,-36 341,-36 341,-0 395,-0 395,-36"/>
<text text-anchor="middle" x="368" y="-15.5" font-family="Helvetica,sans-Serif" font-size="10.00">Math</text>
</a>
</g>
</g>
<!-- dir_2675901a455951db10e33b411821b9ee&#45;&gt;dir_a1f42069ba95676f6b9abbd5065ccf6d -->
<g id="edge10" class="edge"><title>dir_2675901a455951db10e33b411821b9ee&#45;&gt;dir_a1f42069ba95676f6b9abbd5065ccf6d</title>
<path fill="none" stroke="black" d="M169.754,-143.752C167.099,-124.043 166.135,-91.948 183,-72 219.29,-29.0749 287.784,-19.6791 330.479,-18.2817"/>
<polygon fill="black" stroke="black" points="330.812,-21.776 340.742,-18.0832 330.676,-14.7773 330.812,-21.776"/>
<g id="a_edge10&#45;headlabel"><a xlink:href="dir_000057_000055.html" target="_top" xlink:title="1">
<text text-anchor="middle" x="327.273" y="-22.1841" font-family="Helvetica,sans-Serif" font-size="10.00">1</text>
</a>
</g>
</g>
<!-- dir_f5906172d2c9558d453eb81ef8e5bf93 -->
<g id="node9" class="node"><title>dir_f5906172d2c9558d453eb81ef8e5bf93</title>
<g id="a_node9"><a xlink:href="dir_f5906172d2c9558d453eb81ef8e5bf93.html" target="_top" xlink:title="Index">
<polygon fill="none" stroke="black" points="246,-108 192,-108 192,-72 246,-72 246,-108"/>
<text text-anchor="middle" x="219" y="-87.5" font-family="Helvetica,sans-Serif" font-size="10.00">Index</text>
</a>
</g>
</g>
<!-- dir_2675901a455951db10e33b411821b9ee&#45;&gt;dir_f5906172d2c9558d453eb81ef8e5bf93 -->
<g id="edge11" class="edge"><title>dir_2675901a455951db10e33b411821b9ee&#45;&gt;dir_f5906172d2c9558d453eb81ef8e5bf93</title>
<path fill="none" stroke="black" d="M184.371,-143.697C189.718,-135.559 196.204,-125.689 202.111,-116.701"/>
<polygon fill="black" stroke="black" points="205.193,-118.384 207.76,-108.104 199.343,-114.539 205.193,-118.384"/>
<g id="a_edge11&#45;headlabel"><a xlink:href="dir_000057_000053.html" target="_top" xlink:title="10">
<text text-anchor="middle" x="205.592" y="-120.447" font-family="Helvetica,sans-Serif" font-size="10.00">10</text>
</a>
</g>
</g>
<!-- dir_ac204889f54aebb9ba7b91d6916c1389 -->
<g id="node3" class="node"><title>dir_ac204889f54aebb9ba7b91d6916c1389</title>
<g id="a_node3"><a xlink:href="dir_ac204889f54aebb9ba7b91d6916c1389.html" target="_top" xlink:title="TopologicalTriMesh">
<polygon fill="white" stroke="red" points="125.25,-252 24.75,-252 24.75,-216 125.25,-216 125.25,-252"/>
<text text-anchor="middle" x="75" y="-231.5" font-family="Helvetica,sans-Serif" font-size="10.00">TopologicalTriMesh</text>
</a>
</g>
</g>
<!-- dir_ac204889f54aebb9ba7b91d6916c1389&#45;&gt;dir_a1f42069ba95676f6b9abbd5065ccf6d -->
<g id="edge6" class="edge"><title>dir_ac204889f54aebb9ba7b91d6916c1389&#45;&gt;dir_a1f42069ba95676f6b9abbd5065ccf6d</title>
<path fill="none" stroke="black" d="M75.179,-215.804C76.5846,-181.495 85.2062,-105.005 133,-72 193.277,-30.3743 281.076,-20.898 330.522,-19.0644"/>
<polygon fill="black" stroke="black" points="330.864,-22.5562 340.761,-18.7745 330.666,-15.559 330.864,-22.5562"/>
<g id="a_edge6&#45;headlabel"><a xlink:href="dir_000063_000055.html" target="_top" xlink:title="2">
<text text-anchor="middle" x="327.351" y="-22.9959" font-family="Helvetica,sans-Serif" font-size="10.00">2</text>
</a>
</g>
</g>
<!-- dir_ac204889f54aebb9ba7b91d6916c1389&#45;&gt;dir_1efe152df2f2e9cd3517b1174a4598d7 -->
<g id="edge7" class="edge"><title>dir_ac204889f54aebb9ba7b91d6916c1389&#45;&gt;dir_1efe152df2f2e9cd3517b1174a4598d7</title>
<path fill="none" stroke="black" d="M125.337,-216.731C157.523,-205.648 195.649,-191.041 209,-180 230.094,-162.556 223.447,-148.125 242,-128 246.41,-123.217 251.502,-118.611 256.7,-114.37"/>
<polygon fill="black" stroke="black" points="259.115,-116.927 264.874,-108.034 254.826,-111.394 259.115,-116.927"/>
<g id="a_edge7&#45;headlabel"><a xlink:href="dir_000063_000054.html" target="_top" xlink:title="2">
<text text-anchor="middle" x="258.014" y="-118.873" font-family="Helvetica,sans-Serif" font-size="10.00">2</text>
</a>
</g>
</g>
<!-- dir_ac204889f54aebb9ba7b91d6916c1389&#45;&gt;dir_f5906172d2c9558d453eb81ef8e5bf93 -->
<g id="edge8" class="edge"><title>dir_ac204889f54aebb9ba7b91d6916c1389&#45;&gt;dir_f5906172d2c9558d453eb81ef8e5bf93</title>
<path fill="none" stroke="black" d="M81.2504,-215.932C90.3525,-193.169 109.251,-152.865 137,-128 149.881,-116.458 166.963,-107.978 182.2,-102.07"/>
<polygon fill="black" stroke="black" points="183.679,-105.257 191.884,-98.5536 181.29,-98.6772 183.679,-105.257"/>
<g id="a_edge8&#45;headlabel"><a xlink:href="dir_000063_000053.html" target="_top" xlink:title="3">
<text text-anchor="middle" x="181.27" y="-106.652" font-family="Helvetica,sans-Serif" font-size="10.00">3</text>
</a>
</g>
</g>
<!-- dir_464a0350ede36c55de1de45678306167 -->
<g id="node4" class="node"><title>dir_464a0350ede36c55de1de45678306167</title>
<g id="a_node4"><a xlink:href="dir_464a0350ede36c55de1de45678306167.html" target="_top" xlink:title="Wrapper">
<polygon fill="white" stroke="black" points="270,-252 216,-252 216,-216 270,-216 270,-252"/>
<text text-anchor="middle" x="243" y="-231.5" font-family="Helvetica,sans-Serif" font-size="10.00">Wrapper</text>
</a>
</g>
</g>
<!-- dir_464a0350ede36c55de1de45678306167&#45;&gt;dir_2675901a455951db10e33b411821b9ee -->
<g id="edge22" class="edge"><title>dir_464a0350ede36c55de1de45678306167&#45;&gt;dir_2675901a455951db10e33b411821b9ee</title>
<path fill="none" stroke="black" d="M225.697,-215.697C217.135,-207.135 206.656,-196.656 197.304,-187.304"/>
<polygon fill="black" stroke="black" points="199.65,-184.701 190.104,-180.104 194.701,-189.65 199.65,-184.701"/>
<g id="a_edge22&#45;headlabel"><a xlink:href="dir_000068_000057.html" target="_top" xlink:title="5">
<text text-anchor="middle" x="204.2" y="-182.735" font-family="Helvetica,sans-Serif" font-size="10.00">5</text>
</a>
</g>
</g>
<!-- dir_464a0350ede36c55de1de45678306167&#45;&gt;dir_1456dd235032e023892318efbecb420b -->
<g id="edge21" class="edge"><title>dir_464a0350ede36c55de1de45678306167&#45;&gt;dir_1456dd235032e023892318efbecb420b</title>
<path fill="none" stroke="black" d="M270.211,-232.435C305.7,-230.056 366.596,-219.985 395,-180 408.384,-161.159 402.165,-149.973 395,-128 393.733,-124.114 391.886,-120.296 389.743,-116.676"/>
<polygon fill="black" stroke="black" points="392.477,-114.473 383.969,-108.16 386.684,-118.401 392.477,-114.473"/>
<g id="a_edge21&#45;headlabel"><a xlink:href="dir_000068_000035.html" target="_top" xlink:title="1">
<text text-anchor="middle" x="396.845" y="-113.355" font-family="Helvetica,sans-Serif" font-size="10.00">1</text>
</a>
</g>
</g>
<!-- dir_1456dd235032e023892318efbecb420b&#45;&gt;dir_a1f42069ba95676f6b9abbd5065ccf6d -->
<g id="edge1" class="edge"><title>dir_1456dd235032e023892318efbecb420b&#45;&gt;dir_a1f42069ba95676f6b9abbd5065ccf6d</title>
<path fill="none" stroke="black" d="M362.084,-71.6966C361.289,-63.9827 361.062,-54.7125 361.405,-46.1124"/>
<polygon fill="black" stroke="black" points="364.898,-46.3243 362.105,-36.1043 357.915,-45.8356 364.898,-46.3243"/>
<g id="a_edge1&#45;headlabel"><a xlink:href="dir_000035_000055.html" target="_top" xlink:title="1">
<text text-anchor="middle" x="367.48" y="-47.6083" font-family="Helvetica,sans-Serif" font-size="10.00">1</text>
</a>
</g>
</g>
<!-- dir_a1f42069ba95676f6b9abbd5065ccf6d&#45;&gt;dir_d080e052e6032887076b6b5756e5361d -->
<g id="edge13" class="edge"><title>dir_a1f42069ba95676f6b9abbd5065ccf6d&#45;&gt;dir_d080e052e6032887076b6b5756e5361d</title>
<path fill="none" stroke="black" d="M340.73,-19.3597C298.769,-21.2774 217.809,-30.5499 166,-72 127.192,-103.049 123.017,-132.307 137,-180 139.801,-189.553 144.911,-199.016 150.333,-207.244"/>
<polygon fill="black" stroke="black" points="147.624,-209.475 156.245,-215.634 153.346,-205.443 147.624,-209.475"/>
<g id="a_edge13&#45;headlabel"><a xlink:href="dir_000055_000056.html" target="_top" xlink:title="1">
<text text-anchor="middle" x="143.233" y="-205.672" font-family="Helvetica,sans-Serif" font-size="10.00">1</text>
</a>
</g>
</g>
<!-- dir_a1f42069ba95676f6b9abbd5065ccf6d&#45;&gt;dir_1456dd235032e023892318efbecb420b -->
<g id="edge12" class="edge"><title>dir_a1f42069ba95676f6b9abbd5065ccf6d&#45;&gt;dir_1456dd235032e023892318efbecb420b</title>
<path fill="none" stroke="black" d="M373.895,-36.1043C374.701,-43.7913 374.937,-53.0537 374.604,-61.6651"/>
<polygon fill="black" stroke="black" points="371.109,-61.4805 373.916,-71.6966 378.092,-61.9597 371.109,-61.4805"/>
<g id="a_edge12&#45;headlabel"><a xlink:href="dir_000055_000035.html" target="_top" xlink:title="3">
<text text-anchor="middle" x="368.522" y="-55.2" font-family="Helvetica,sans-Serif" font-size="10.00">3</text>
</a>
</g>
</g>
<!-- dir_a1f42069ba95676f6b9abbd5065ccf6d&#45;&gt;dir_cb2b5dfd43482fb277f6333d539f1f06 -->
<g id="edge14" class="edge"><title>dir_a1f42069ba95676f6b9abbd5065ccf6d&#45;&gt;dir_cb2b5dfd43482fb277f6333d539f1f06</title>
<path fill="none" stroke="black" d="M395.061,-31.055C425.833,-48.383 473.636,-83.2332 493,-128 502.175,-149.212 499.2,-157.736 493,-180 490.304,-189.683 485.307,-199.364 479.612,-207.753"/>
<polygon fill="black" stroke="black" points="476.656,-205.861 473.491,-215.972 482.271,-210.042 476.656,-205.861"/>
<g id="a_edge14&#45;headlabel"><a xlink:href="dir_000055_000040.html" target="_top" xlink:title="2">
<text text-anchor="middle" x="476.526" y="-198.782" font-family="Helvetica,sans-Serif" font-size="10.00">2</text>
</a>
</g>
</g>
<!-- dir_cb2b5dfd43482fb277f6333d539f1f06&#45;&gt;dir_1456dd235032e023892318efbecb420b -->
<g id="edge15" class="edge"><title>dir_cb2b5dfd43482fb277f6333d539f1f06&#45;&gt;dir_1456dd235032e023892318efbecb420b</title>
<path fill="none" stroke="black" d="M460.99,-215.684C471.19,-193.37 484.197,-154.322 466,-128 453.437,-109.828 430.73,-100.571 410.335,-95.8595"/>
<polygon fill="black" stroke="black" points="410.749,-92.3729 400.256,-93.8398 409.374,-99.2365 410.749,-92.3729"/>
<g id="a_edge15&#45;headlabel"><a xlink:href="dir_000040_000035.html" target="_top" xlink:title="12">
<text text-anchor="middle" x="414.832" y="-87.7952" font-family="Helvetica,sans-Serif" font-size="10.00">12</text>
</a>
</g>
</g>
<!-- dir_cb2b5dfd43482fb277f6333d539f1f06&#45;&gt;dir_a1f42069ba95676f6b9abbd5065ccf6d -->
<g id="edge16" class="edge"><title>dir_cb2b5dfd43482fb277f6333d539f1f06&#45;&gt;dir_a1f42069ba95676f6b9abbd5065ccf6d</title>
<path fill="none" stroke="black" d="M457.637,-215.972C463.558,-206.09 471.367,-193.047 475,-180 481.2,-157.736 484.175,-149.212 475,-128 459.131,-91.3119 424.16,-61.2842 398.364,-42.1033"/>
<polygon fill="black" stroke="black" points="400.153,-39.0764 390.009,-36.0204 396.033,-44.7356 400.153,-39.0764"/>
<g id="a_edge16&#45;headlabel"><a xlink:href="dir_000040_000055.html" target="_top" xlink:title="14">
<text text-anchor="middle" x="404.73" y="-36.3966" font-family="Helvetica,sans-Serif" font-size="10.00">14</text>
</a>
</g>
</g>
<!-- dir_cb2b5dfd43482fb277f6333d539f1f06&#45;&gt;dir_1efe152df2f2e9cd3517b1174a4598d7 -->
<g id="edge17" class="edge"><title>dir_cb2b5dfd43482fb277f6333d539f1f06&#45;&gt;dir_1efe152df2f2e9cd3517b1174a4598d7</title>
<path fill="none" stroke="black" d="M447.223,-215.767C439.871,-192.438 423.553,-151.078 395,-128 372.701,-109.977 359.053,-117.475 328.043,-107.837"/>
<polygon fill="black" stroke="black" points="328.922,-104.437 318.327,-104.441 326.612,-111.045 328.922,-104.437"/>
<g id="a_edge17&#45;headlabel"><a xlink:href="dir_000040_000054.html" target="_top" xlink:title="2">
<text text-anchor="middle" x="333.252" y="-100.442" font-family="Helvetica,sans-Serif" font-size="10.00">2</text>
</a>
</g>
</g>
<!-- dir_cb2b5dfd43482fb277f6333d539f1f06&#45;&gt;dir_f5906172d2c9558d453eb81ef8e5bf93 -->
<g id="edge18" class="edge"><title>dir_cb2b5dfd43482fb277f6333d539f1f06&#45;&gt;dir_f5906172d2c9558d453eb81ef8e5bf93</title>
<path fill="none" stroke="black" d="M422.658,-225.625C394.987,-217.645 353.343,-202.899 323,-180 299.508,-162.271 304.183,-147.342 282,-128 273.886,-120.925 264.227,-114.474 254.939,-109.011"/>
<polygon fill="black" stroke="black" points="256.641,-105.953 246.211,-104.089 253.202,-112.05 256.641,-105.953"/>
<g id="a_edge18&#45;headlabel"><a xlink:href="dir_000040_000053.html" target="_top" xlink:title="5">
<text text-anchor="middle" x="261.167" y="-102.746" font-family="Helvetica,sans-Serif" font-size="10.00">5</text>
</a>
</g>
</g>
<!-- dir_cb2b5dfd43482fb277f6333d539f1f06&#45;&gt;dir_ff87cf903db18af0fdb6c342683ece25 -->
<g id="edge19" class="edge"><title>dir_cb2b5dfd43482fb277f6333d539f1f06&#45;&gt;dir_ff87cf903db18af0fdb6c342683ece25</title>
<path fill="none" stroke="black" d="M429.011,-215.697C417.186,-206.796 402.608,-195.823 389.821,-186.199"/>
<polygon fill="black" stroke="black" points="391.819,-183.322 381.724,-180.104 387.609,-188.915 391.819,-183.322"/>
<g id="a_edge19&#45;headlabel"><a xlink:href="dir_000040_000073.html" target="_top" xlink:title="1">
<text text-anchor="middle" x="396.398" y="-180.715" font-family="Helvetica,sans-Serif" font-size="10.00">1</text>
</a>
</g>
</g>
<!-- dir_1efe152df2f2e9cd3517b1174a4598d7&#45;&gt;dir_dbb2a23c19e39eeed5090a333e1fc81c -->
<g id="edge20" class="edge"><title>dir_1efe152df2f2e9cd3517b1174a4598d7&#45;&gt;dir_dbb2a23c19e39eeed5090a333e1fc81c</title>
<path fill="none" stroke="black" d="M263.788,-73.6382C245.94,-63.5627 222.405,-50.277 203.012,-39.3294"/>
<polygon fill="black" stroke="black" points="204.578,-36.1941 194.149,-34.326 201.137,-42.2898 204.578,-36.1941"/>
<g id="a_edge20&#45;headlabel"><a xlink:href="dir_000054_000069.html" target="_top" xlink:title="1">
<text text-anchor="middle" x="209.104" y="-32.9886" font-family="Helvetica,sans-Serif" font-size="10.00">1</text>
</a>
</g>
</g>
<!-- dir_ff87cf903db18af0fdb6c342683ece25&#45;&gt;dir_1456dd235032e023892318efbecb420b -->
<g id="edge23" class="edge"><title>dir_ff87cf903db18af0fdb6c342683ece25&#45;&gt;dir_1456dd235032e023892318efbecb420b</title>
<path fill="none" stroke="black" d="M361.225,-143.697C362.217,-135.983 363.408,-126.712 364.514,-118.112"/>
<polygon fill="black" stroke="black" points="367.997,-118.469 365.801,-108.104 361.054,-117.576 367.997,-118.469"/>
<g id="a_edge23&#45;headlabel"><a xlink:href="dir_000073_000035.html" target="_top" xlink:title="3">
<text text-anchor="middle" x="370.355" y="-119.896" font-family="Helvetica,sans-Serif" font-size="10.00">3</text>
</a>
</g>
</g>
<!-- dir_ff87cf903db18af0fdb6c342683ece25&#45;&gt;dir_1efe152df2f2e9cd3517b1174a4598d7 -->
<g id="edge24" class="edge"><title>dir_ff87cf903db18af0fdb6c342683ece25&#45;&gt;dir_1efe152df2f2e9cd3517b1174a4598d7</title>
<path fill="none" stroke="black" d="M342.191,-143.697C333.874,-135.135 323.695,-124.656 314.61,-115.304"/>
<polygon fill="black" stroke="black" points="317.094,-112.838 307.616,-108.104 312.073,-117.716 317.094,-112.838"/>
<g id="a_edge24&#45;headlabel"><a xlink:href="dir_000073_000054.html" target="_top" xlink:title="1">
<text text-anchor="middle" x="321.635" y="-110.938" font-family="Helvetica,sans-Serif" font-size="10.00">1</text>
</a>
</g>
</g>
<!-- dir_ff87cf903db18af0fdb6c342683ece25&#45;&gt;dir_f5906172d2c9558d453eb81ef8e5bf93 -->
<g id="edge25" class="edge"><title>dir_ff87cf903db18af0fdb6c342683ece25&#45;&gt;dir_f5906172d2c9558d453eb81ef8e5bf93</title>
<path fill="none" stroke="black" d="M340.85,-143.986C334.068,-138.301 326.051,-132.321 318,-128 294.542,-115.411 284.317,-118.035 255.818,-107.948"/>
<polygon fill="black" stroke="black" points="256.943,-104.632 246.351,-104.378 254.473,-111.182 256.943,-104.632"/>
<g id="a_edge25&#45;headlabel"><a xlink:href="dir_000073_000053.html" target="_top" xlink:title="1">
<text text-anchor="middle" x="261.308" y="-100.743" font-family="Helvetica,sans-Serif" font-size="10.00">1</text>
</a>
</g>
</g>
</g>
</svg>
