<?xml version="1.0" encoding="UTF-8" standalone="no"?>
<!DOCTYPE svg PUBLIC "-//W3C//DTD SVG 1.1//EN"
 "http://www.w3.org/Graphics/SVG/1.1/DTD/svg11.dtd">
<!-- Generated by graphviz version 2.36.0 (20140111.2315)
 -->
<!-- Title: /home/travis/build/STORM&#45;IRIT/Radium&#45;Engine/src/Engine Pages: 1 -->
<svg width="434pt" height="418pt"
 viewBox="0.00 0.00 434.03 417.65" xmlns="http://www.w3.org/2000/svg" xmlns:xlink="http://www.w3.org/1999/xlink">
<g id="graph0" class="graph" transform="scale(1 1) rotate(0) translate(4 413.649)">
<title>/home/travis/build/STORM&#45;IRIT/Radium&#45;Engine/src/Engine</title>
<polygon fill="white" stroke="none" points="-4,4 -4,-413.649 430.028,-413.649 430.028,4 -4,4"/>
<g id="clust1" class="cluster"><title>clusterdir_68267d1309a1af8e8297ef4c3efbcdba</title>
<g id="a_clust1"><a xlink:href="dir_68267d1309a1af8e8297ef4c3efbcdba.html" target="_top" xlink:title="src">
<polygon fill="#ddddee" stroke="black" points="8,-8 8,-383 234,-383 234,-8 8,-8"/>
<text text-anchor="middle" x="121" y="-371" font-family="Helvetica,sans-Serif" font-size="10.00">src</text>
</a>
</g>
</g>
<g id="clust2" class="cluster"><title>clusterdir_3072bc1f55ed1280fe4fbe6b21c78379</title>
<g id="a_clust2"><a xlink:href="dir_3072bc1f55ed1280fe4fbe6b21c78379.html" target="_top">
<polygon fill="#eeeeff" stroke="black" points="16,-16 16,-356 226,-356 226,-16 16,-16"/>
</a>
</g>
</g>
<!-- dir_3072bc1f55ed1280fe4fbe6b21c78379 -->
<g id="node1" class="node"><title>dir_3072bc1f55ed1280fe4fbe6b21c78379</title>
<text text-anchor="middle" x="187" y="-327.5" font-family="Helvetica,sans-Serif" font-size="10.00">Engine</text>
</g>
<!-- dir_d0f3276f03e9a9cb8f8ba3f2a5ea1262 -->
<g id="node2" class="node"><title>dir_d0f3276f03e9a9cb8f8ba3f2a5ea1262</title>
<g id="a_node2"><a xlink:href="dir_d0f3276f03e9a9cb8f8ba3f2a5ea1262.html" target="_top" xlink:title="Component">
<polygon fill="white" stroke="black" points="137.25,-348 70.75,-348 70.75,-312 137.25,-312 137.25,-348"/>
<text text-anchor="middle" x="104" y="-327.5" font-family="Helvetica,sans-Serif" font-size="10.00">Component</text>
</a>
</g>
</g>
<!-- dir_7205f054df4e14abb60715afe3e7e90c -->
<g id="node3" class="node"><title>dir_7205f054df4e14abb60715afe3e7e90c</title>
<g id="a_node3"><a xlink:href="dir_7205f054df4e14abb60715afe3e7e90c.html" target="_top" xlink:title="Entity">
<polygon fill="white" stroke="black" points="177,-276 123,-276 123,-240 177,-240 177,-276"/>
<text text-anchor="middle" x="150" y="-255.5" font-family="Helvetica,sans-Serif" font-size="10.00">Entity</text>
</a>
</g>
</g>
<!-- dir_d0f3276f03e9a9cb8f8ba3f2a5ea1262&#45;&gt;dir_7205f054df4e14abb60715afe3e7e90c -->
<g id="edge31" class="edge"><title>dir_d0f3276f03e9a9cb8f8ba3f2a5ea1262&#45;&gt;dir_7205f054df4e14abb60715afe3e7e90c</title>
<path fill="none" stroke="black" d="M109.455,-311.697C114.01,-303.474 120.374,-293.483 126.775,-284.421"/>
<polygon fill="black" stroke="black" points="129.781,-286.24 132.865,-276.104 124.133,-282.104 129.781,-286.24"/>
<g id="a_edge31&#45;headlabel"><a xlink:href="dir_000076_000077.html" target="_top" xlink:title="1">
<text text-anchor="middle" x="129.948" y="-288.318" font-family="Helvetica,sans-Serif" font-size="10.00">1</text>
</a>
</g>
</g>
<!-- dir_06113b60808b1bbb52a01dfd2c3a8657 -->
<g id="node5" class="node"><title>dir_06113b60808b1bbb52a01dfd2c3a8657</title>
<g id="a_node5"><a xlink:href="dir_06113b60808b1bbb52a01dfd2c3a8657.html" target="_top" xlink:title="Managers">
<polygon fill="white" stroke="red" points="179.25,-204 120.75,-204 120.75,-168 179.25,-168 179.25,-204"/>
<text text-anchor="middle" x="150" y="-183.5" font-family="Helvetica,sans-Serif" font-size="10.00">Managers</text>
</a>
</g>
</g>
<!-- dir_d0f3276f03e9a9cb8f8ba3f2a5ea1262&#45;&gt;dir_06113b60808b1bbb52a01dfd2c3a8657 -->
<g id="edge33" class="edge"><title>dir_d0f3276f03e9a9cb8f8ba3f2a5ea1262&#45;&gt;dir_06113b60808b1bbb52a01dfd2c3a8657</title>
<path fill="none" stroke="black" d="M96.8425,-311.708C94.5578,-293.352 96.2078,-263.77 105,-240 108.589,-230.298 114.321,-220.65 120.597,-212.298"/>
<polygon fill="black" stroke="black" points="123.406,-214.392 126.996,-204.424 117.973,-209.977 123.406,-214.392"/>
<g id="a_edge33&#45;headlabel"><a xlink:href="dir_000076_000079.html" target="_top" xlink:title="1">
<text text-anchor="middle" x="123.343" y="-216.472" font-family="Helvetica,sans-Serif" font-size="10.00">1</text>
</a>
</g>
</g>
<!-- dir_54018506bb725509c19b38b6d9bcf0f6 -->
<g id="node6" class="node"><title>dir_54018506bb725509c19b38b6d9bcf0f6</title>
<g id="a_node6"><a xlink:href="dir_54018506bb725509c19b38b6d9bcf0f6.html" target="_top" xlink:title="Renderer">
<polygon fill="white" stroke="red" points="164.5,-60 109.5,-60 109.5,-24 164.5,-24 164.5,-60"/>
<text text-anchor="middle" x="137" y="-39.5" font-family="Helvetica,sans-Serif" font-size="10.00">Renderer</text>
</a>
</g>
</g>
<!-- dir_d0f3276f03e9a9cb8f8ba3f2a5ea1262&#45;&gt;dir_54018506bb725509c19b38b6d9bcf0f6 -->
<g id="edge34" class="edge"><title>dir_d0f3276f03e9a9cb8f8ba3f2a5ea1262&#45;&gt;dir_54018506bb725509c19b38b6d9bcf0f6</title>
<path fill="none" stroke="black" d="M87.0765,-311.721C55.5829,-271.372 -3.64331,-168.851 38,-96 50.7773,-73.6474 77.0674,-59.7859 99.4858,-51.8728"/>
<polygon fill="black" stroke="black" points="100.697,-55.1594 109.128,-48.7423 98.5355,-48.5015 100.697,-55.1594"/>
<g id="a_edge34&#45;headlabel"><a xlink:href="dir_000076_000086.html" target="_top" xlink:title="3">
<text text-anchor="middle" x="98.155" y="-56.4699" font-family="Helvetica,sans-Serif" font-size="10.00">3</text>
</a>
</g>
</g>
<!-- dir_eecdbbfa89a6d9af25d920c499e6f44e -->
<g id="node7" class="node"><title>dir_eecdbbfa89a6d9af25d920c499e6f44e</title>
<g id="a_node7"><a xlink:href="dir_eecdbbfa89a6d9af25d920c499e6f44e.html" target="_top" xlink:title="System">
<polygon fill="white" stroke="black" points="118,-132 64,-132 64,-96 118,-96 118,-132"/>
<text text-anchor="middle" x="91" y="-111.5" font-family="Helvetica,sans-Serif" font-size="10.00">System</text>
</a>
</g>
</g>
<!-- dir_d0f3276f03e9a9cb8f8ba3f2a5ea1262&#45;&gt;dir_eecdbbfa89a6d9af25d920c499e6f44e -->
<g id="edge32" class="edge"><title>dir_d0f3276f03e9a9cb8f8ba3f2a5ea1262&#45;&gt;dir_eecdbbfa89a6d9af25d920c499e6f44e</title>
<path fill="none" stroke="black" d="M96.8189,-311.612C92.2492,-287.468 89.3087,-242.421 87,-204 85.7547,-183.276 84.4415,-159.831 84.7687,-142.208"/>
<polygon fill="black" stroke="black" points="88.272,-142.204 85.1998,-132.064 81.2783,-141.907 88.272,-142.204"/>
<g id="a_edge32&#45;headlabel"><a xlink:href="dir_000076_000097.html" target="_top" xlink:title="1">
<text text-anchor="middle" x="90.9562" y="-143.416" font-family="Helvetica,sans-Serif" font-size="10.00">1</text>
</a>
</g>
</g>
<!-- dir_a2f0e5642e47e7ed59fe0f0829eafb5f -->
<g id="node8" class="node"><title>dir_a2f0e5642e47e7ed59fe0f0829eafb5f</title>
<g id="a_node8"><a xlink:href="dir_a2f0e5642e47e7ed59fe0f0829eafb5f.html" target="_top" xlink:title="Core">
<polygon fill="white" stroke="red" points="349,-60 295,-60 295,-24 349,-24 349,-60"/>
<text text-anchor="middle" x="322" y="-39.5" font-family="Helvetica,sans-Serif" font-size="10.00">Core</text>
</a>
</g>
</g>
<!-- dir_d0f3276f03e9a9cb8f8ba3f2a5ea1262&#45;&gt;dir_a2f0e5642e47e7ed59fe0f0829eafb5f -->
<g id="edge30" class="edge"><title>dir_d0f3276f03e9a9cb8f8ba3f2a5ea1262&#45;&gt;dir_a2f0e5642e47e7ed59fe0f0829eafb5f</title>
<path fill="none" stroke="black" d="M137.62,-315.961C196.454,-290.919 315.403,-229.752 353,-132 361.103,-110.933 351.471,-86.7262 340.864,-68.8814"/>
<polygon fill="black" stroke="black" points="343.645,-66.7313 335.318,-60.1799 337.742,-70.4938 343.645,-66.7313"/>
<g id="a_edge30&#45;headlabel"><a xlink:href="dir_000076_000022.html" target="_top" xlink:title="5">
<text text-anchor="middle" x="347.971" y="-65.7364" font-family="Helvetica,sans-Serif" font-size="10.00">5</text>
</a>
</g>
</g>
<!-- dir_7205f054df4e14abb60715afe3e7e90c&#45;&gt;dir_d0f3276f03e9a9cb8f8ba3f2a5ea1262 -->
<g id="edge6" class="edge"><title>dir_7205f054df4e14abb60715afe3e7e90c&#45;&gt;dir_d0f3276f03e9a9cb8f8ba3f2a5ea1262</title>
<path fill="none" stroke="black" d="M144.655,-276.104C140.129,-284.298 133.78,-294.282 127.38,-303.359"/>
<polygon fill="black" stroke="black" points="124.362,-301.558 121.287,-311.697 130.013,-305.689 124.362,-301.558"/>
<g id="a_edge6&#45;headlabel"><a xlink:href="dir_000077_000076.html" target="_top" xlink:title="1">
<text text-anchor="middle" x="124.191" y="-294.48" font-family="Helvetica,sans-Serif" font-size="10.00">1</text>
</a>
</g>
</g>
<!-- dir_7205f054df4e14abb60715afe3e7e90c&#45;&gt;dir_06113b60808b1bbb52a01dfd2c3a8657 -->
<g id="edge5" class="edge"><title>dir_7205f054df4e14abb60715afe3e7e90c&#45;&gt;dir_06113b60808b1bbb52a01dfd2c3a8657</title>
<path fill="none" stroke="black" d="M144.084,-239.697C143.289,-231.983 143.062,-222.712 143.405,-214.112"/>
<polygon fill="black" stroke="black" points="146.898,-214.324 144.105,-204.104 139.915,-213.836 146.898,-214.324"/>
<g id="a_edge5&#45;headlabel"><a xlink:href="dir_000077_000079.html" target="_top" xlink:title="1">
<text text-anchor="middle" x="149.48" y="-215.608" font-family="Helvetica,sans-Serif" font-size="10.00">1</text>
</a>
</g>
</g>
<!-- dir_7205f054df4e14abb60715afe3e7e90c&#45;&gt;dir_eecdbbfa89a6d9af25d920c499e6f44e -->
<g id="edge4" class="edge"><title>dir_7205f054df4e14abb60715afe3e7e90c&#45;&gt;dir_eecdbbfa89a6d9af25d920c499e6f44e</title>
<path fill="none" stroke="black" d="M126.296,-239.539C117.21,-229.727 107.876,-216.89 102,-204 93.0365,-184.337 87.9462,-160.35 86.5097,-142.234"/>
<polygon fill="black" stroke="black" points="89.9993,-141.91 86.0847,-132.065 83.0054,-142.203 89.9993,-141.91"/>
<g id="a_edge4&#45;headlabel"><a xlink:href="dir_000077_000097.html" target="_top" xlink:title="1">
<text text-anchor="middle" x="92.9861" y="-142.883" font-family="Helvetica,sans-Serif" font-size="10.00">1</text>
</a>
</g>
</g>
<!-- dir_7205f054df4e14abb60715afe3e7e90c&#45;&gt;dir_a2f0e5642e47e7ed59fe0f0829eafb5f -->
<g id="edge3" class="edge"><title>dir_7205f054df4e14abb60715afe3e7e90c&#45;&gt;dir_a2f0e5642e47e7ed59fe0f0829eafb5f</title>
<path fill="none" stroke="black" d="M166.528,-239.798C188.873,-216.234 229.541,-172.243 261,-132 277.014,-111.515 293.595,-87.0794 305.421,-68.9995"/>
<polygon fill="black" stroke="black" points="308.637,-70.473 311.143,-60.1788 302.764,-66.6632 308.637,-70.473"/>
<g id="a_edge3&#45;headlabel"><a xlink:href="dir_000077_000022.html" target="_top" xlink:title="4">
<text text-anchor="middle" x="309.063" y="-72.5338" font-family="Helvetica,sans-Serif" font-size="10.00">4</text>
</a>
</g>
</g>
<!-- dir_d3d507863844f6311a74cf28116d817e -->
<g id="node4" class="node"><title>dir_d3d507863844f6311a74cf28116d817e</title>
<g id="a_node4"><a xlink:href="dir_d3d507863844f6311a74cf28116d817e.html" target="_top" xlink:title="ItemModel">
<polygon fill="white" stroke="black" points="217.5,-132 156.5,-132 156.5,-96 217.5,-96 217.5,-132"/>
<text text-anchor="middle" x="187" y="-111.5" font-family="Helvetica,sans-Serif" font-size="10.00">ItemModel</text>
</a>
</g>
</g>
<!-- dir_d3d507863844f6311a74cf28116d817e&#45;&gt;dir_06113b60808b1bbb52a01dfd2c3a8657 -->
<g id="edge18" class="edge"><title>dir_d3d507863844f6311a74cf28116d817e&#45;&gt;dir_06113b60808b1bbb52a01dfd2c3a8657</title>
<path fill="none" stroke="black" d="M183.854,-132.104C180.418,-140.214 175.421,-150.076 170.245,-159.078"/>
<polygon fill="black" stroke="black" points="167.217,-157.323 165.062,-167.697 173.215,-160.931 167.217,-157.323"/>
<g id="a_edge18&#45;headlabel"><a xlink:href="dir_000078_000079.html" target="_top" xlink:title="2">
<text text-anchor="middle" x="166.636" y="-150.28" font-family="Helvetica,sans-Serif" font-size="10.00">2</text>
</a>
</g>
</g>
<!-- dir_d3d507863844f6311a74cf28116d817e&#45;&gt;dir_54018506bb725509c19b38b6d9bcf0f6 -->
<g id="edge19" class="edge"><title>dir_d3d507863844f6311a74cf28116d817e&#45;&gt;dir_54018506bb725509c19b38b6d9bcf0f6</title>
<path fill="none" stroke="black" d="M174.64,-95.6966C168.767,-87.4741 161.631,-77.4832 155.158,-68.4207"/>
<polygon fill="black" stroke="black" points="157.878,-66.2073 149.217,-60.1043 152.182,-70.276 157.878,-66.2073"/>
<g id="a_edge19&#45;headlabel"><a xlink:href="dir_000078_000086.html" target="_top" xlink:title="2">
<text text-anchor="middle" x="162.278" y="-64.9821" font-family="Helvetica,sans-Serif" font-size="10.00">2</text>
</a>
</g>
</g>
<!-- dir_d3d507863844f6311a74cf28116d817e&#45;&gt;dir_a2f0e5642e47e7ed59fe0f0829eafb5f -->
<g id="edge16" class="edge"><title>dir_d3d507863844f6311a74cf28116d817e&#45;&gt;dir_a2f0e5642e47e7ed59fe0f0829eafb5f</title>
<path fill="none" stroke="black" d="M217.634,-97.1159C237.828,-86.6448 264.373,-72.8808 285.638,-61.8546"/>
<polygon fill="black" stroke="black" points="287.427,-64.8693 294.693,-57.159 284.205,-58.655 287.427,-64.8693"/>
<g id="a_edge16&#45;headlabel"><a xlink:href="dir_000078_000022.html" target="_top" xlink:title="1">
<text text-anchor="middle" x="285.543" y="-66.5445" font-family="Helvetica,sans-Serif" font-size="10.00">1</text>
</a>
</g>
</g>
<!-- dir_cb59203ea3f84fc4d67c89730003fed4 -->
<g id="node9" class="node"><title>dir_cb59203ea3f84fc4d67c89730003fed4</title>
<g id="a_node9"><a xlink:href="dir_cb59203ea3f84fc4d67c89730003fed4.html" target="_top" xlink:title="GuiBase">
<polygon fill="white" stroke="red" points="311,-348 257,-348 257,-312 311,-312 311,-348"/>
<text text-anchor="middle" x="284" y="-327.5" font-family="Helvetica,sans-Serif" font-size="10.00">GuiBase</text>
</a>
</g>
</g>
<!-- dir_d3d507863844f6311a74cf28116d817e&#45;&gt;dir_cb59203ea3f84fc4d67c89730003fed4 -->
<g id="edge17" class="edge"><title>dir_d3d507863844f6311a74cf28116d817e&#45;&gt;dir_cb59203ea3f84fc4d67c89730003fed4</title>
<path fill="none" stroke="black" d="M194.811,-132.232C211.73,-169.56 251.861,-258.095 272.015,-302.558"/>
<polygon fill="black" stroke="black" points="268.91,-304.186 276.226,-311.849 275.285,-301.296 268.91,-304.186"/>
<g id="a_edge17&#45;headlabel"><a xlink:href="dir_000078_000098.html" target="_top" xlink:title="1">
<text text-anchor="middle" x="264.84" y="-299.584" font-family="Helvetica,sans-Serif" font-size="10.00">1</text>
</a>
</g>
</g>
<!-- dir_06113b60808b1bbb52a01dfd2c3a8657&#45;&gt;dir_d0f3276f03e9a9cb8f8ba3f2a5ea1262 -->
<g id="edge25" class="edge"><title>dir_06113b60808b1bbb52a01dfd2c3a8657&#45;&gt;dir_d0f3276f03e9a9cb8f8ba3f2a5ea1262</title>
<path fill="none" stroke="black" d="M142.95,-204.424C136.381,-214.225 127.785,-227.064 123,-240 115.685,-259.778 113.314,-283.578 111.363,-301.589"/>
<polygon fill="black" stroke="black" points="107.865,-301.373 110.196,-311.708 114.819,-302.175 107.865,-301.373"/>
<g id="a_edge25&#45;headlabel"><a xlink:href="dir_000079_000076.html" target="_top" xlink:title="2">
<text text-anchor="middle" x="105.456" y="-294.977" font-family="Helvetica,sans-Serif" font-size="10.00">2</text>
</a>
</g>
</g>
<!-- dir_06113b60808b1bbb52a01dfd2c3a8657&#45;&gt;dir_7205f054df4e14abb60715afe3e7e90c -->
<g id="edge21" class="edge"><title>dir_06113b60808b1bbb52a01dfd2c3a8657&#45;&gt;dir_7205f054df4e14abb60715afe3e7e90c</title>
<path fill="none" stroke="black" d="M155.895,-204.104C156.701,-211.791 156.937,-221.054 156.604,-229.665"/>
<polygon fill="black" stroke="black" points="153.109,-229.48 155.916,-239.697 160.092,-229.96 153.109,-229.48"/>
<g id="a_edge21&#45;headlabel"><a xlink:href="dir_000079_000077.html" target="_top" xlink:title="3">
<text text-anchor="middle" x="150.522" y="-223.2" font-family="Helvetica,sans-Serif" font-size="10.00">3</text>
</a>
</g>
</g>
<!-- dir_06113b60808b1bbb52a01dfd2c3a8657&#45;&gt;dir_d3d507863844f6311a74cf28116d817e -->
<g id="edge23" class="edge"><title>dir_06113b60808b1bbb52a01dfd2c3a8657&#45;&gt;dir_d3d507863844f6311a74cf28116d817e</title>
<path fill="none" stroke="black" d="M153.23,-167.697C156.692,-159.559 161.703,-149.689 166.881,-140.701"/>
<polygon fill="black" stroke="black" points="169.899,-142.476 172.064,-132.104 163.904,-138.861 169.899,-142.476"/>
<g id="a_edge23&#45;headlabel"><a xlink:href="dir_000079_000078.html" target="_top" xlink:title="1">
<text text-anchor="middle" x="170.474" y="-144.52" font-family="Helvetica,sans-Serif" font-size="10.00">1</text>
</a>
</g>
</g>
<!-- dir_06113b60808b1bbb52a01dfd2c3a8657&#45;&gt;dir_54018506bb725509c19b38b6d9bcf0f6 -->
<g id="edge24" class="edge"><title>dir_06113b60808b1bbb52a01dfd2c3a8657&#45;&gt;dir_54018506bb725509c19b38b6d9bcf0f6</title>
<path fill="none" stroke="black" d="M143.847,-167.871C139.073,-143.67 134.712,-99.2108 134.049,-70.3932"/>
<polygon fill="black" stroke="black" points="137.548,-70.1664 133.983,-60.1893 130.548,-70.2118 137.548,-70.1664"/>
<g id="a_edge24&#45;headlabel"><a xlink:href="dir_000079_000086.html" target="_top" xlink:title="19">
<text text-anchor="middle" x="140.41" y="-71.2425" font-family="Helvetica,sans-Serif" font-size="10.00">19</text>
</a>
</g>
</g>
<!-- dir_06113b60808b1bbb52a01dfd2c3a8657&#45;&gt;dir_eecdbbfa89a6d9af25d920c499e6f44e -->
<g id="edge22" class="edge"><title>dir_06113b60808b1bbb52a01dfd2c3a8657&#45;&gt;dir_eecdbbfa89a6d9af25d920c499e6f44e</title>
<path fill="none" stroke="black" d="M135.416,-167.697C128.342,-159.305 119.717,-149.07 111.955,-139.861"/>
<polygon fill="black" stroke="black" points="114.537,-137.495 105.417,-132.104 109.185,-142.006 114.537,-137.495"/>
<g id="a_edge22&#45;headlabel"><a xlink:href="dir_000079_000097.html" target="_top" xlink:title="2">
<text text-anchor="middle" x="119.025" y="-135.914" font-family="Helvetica,sans-Serif" font-size="10.00">2</text>
</a>
</g>
</g>
<!-- dir_06113b60808b1bbb52a01dfd2c3a8657&#45;&gt;dir_a2f0e5642e47e7ed59fe0f0829eafb5f -->
<g id="edge20" class="edge"><title>dir_06113b60808b1bbb52a01dfd2c3a8657&#45;&gt;dir_a2f0e5642e47e7ed59fe0f0829eafb5f</title>
<path fill="none" stroke="black" d="M176.328,-167.954C191.264,-157.962 210.093,-144.818 226,-132 251.508,-111.445 278.726,-85.8222 297.641,-67.3544"/>
<polygon fill="black" stroke="black" points="300.282,-69.6663 304.961,-60.1605 295.376,-64.6739 300.282,-69.6663"/>
<g id="a_edge20&#45;headlabel"><a xlink:href="dir_000079_000022.html" target="_top" xlink:title="16">
<text text-anchor="middle" x="299.709" y="-71.7109" font-family="Helvetica,sans-Serif" font-size="10.00">16</text>
</a>
</g>
</g>
<!-- dir_54018506bb725509c19b38b6d9bcf0f6&#45;&gt;dir_d0f3276f03e9a9cb8f8ba3f2a5ea1262 -->
<g id="edge29" class="edge"><title>dir_54018506bb725509c19b38b6d9bcf0f6&#45;&gt;dir_d0f3276f03e9a9cb8f8ba3f2a5ea1262</title>
<path fill="none" stroke="black" d="M109.378,-54.0059C90.7243,-62.1872 67.6985,-75.5347 56,-96 17.1221,-164.013 66.1617,-257.886 91.3307,-302.887"/>
<polygon fill="black" stroke="black" points="88.3462,-304.721 96.2989,-311.721 94.4475,-301.289 88.3462,-304.721"/>
<g id="a_edge29&#45;headlabel"><a xlink:href="dir_000086_000076.html" target="_top" xlink:title="4">
<text text-anchor="middle" x="84.1095" y="-300.479" font-family="Helvetica,sans-Serif" font-size="10.00">4</text>
</a>
</g>
</g>
<!-- dir_54018506bb725509c19b38b6d9bcf0f6&#45;&gt;dir_7205f054df4e14abb60715afe3e7e90c -->
<g id="edge27" class="edge"><title>dir_54018506bb725509c19b38b6d9bcf0f6&#45;&gt;dir_7205f054df4e14abb60715afe3e7e90c</title>
<path fill="none" stroke="black" d="M109.143,-52.7683C90.1421,-61.0619 66.4271,-75.0079 55,-96 47.3503,-110.053 50.9049,-116.533 55,-132 65.7646,-172.658 98.0656,-209.715 122.031,-232.742"/>
<polygon fill="black" stroke="black" points="119.787,-235.436 129.481,-239.712 124.569,-230.324 119.787,-235.436"/>
<g id="a_edge27&#45;headlabel"><a xlink:href="dir_000086_000077.html" target="_top" xlink:title="3">
<text text-anchor="middle" x="115.222" y="-232.553" font-family="Helvetica,sans-Serif" font-size="10.00">3</text>
</a>
</g>
</g>
<!-- dir_54018506bb725509c19b38b6d9bcf0f6&#45;&gt;dir_06113b60808b1bbb52a01dfd2c3a8657 -->
<g id="edge28" class="edge"><title>dir_54018506bb725509c19b38b6d9bcf0f6&#45;&gt;dir_06113b60808b1bbb52a01dfd2c3a8657</title>
<path fill="none" stroke="black" d="M143.165,-60.1893C147.938,-84.4244 152.296,-128.888 152.953,-157.679"/>
<polygon fill="black" stroke="black" points="149.454,-157.894 153.016,-167.871 156.454,-157.85 149.454,-157.894"/>
<g id="a_edge28&#45;headlabel"><a xlink:href="dir_000086_000079.html" target="_top" xlink:title="6">
<text text-anchor="middle" x="146.592" y="-151.817" font-family="Helvetica,sans-Serif" font-size="10.00">6</text>
</a>
</g>
</g>
<!-- dir_54018506bb725509c19b38b6d9bcf0f6&#45;&gt;dir_a2f0e5642e47e7ed59fe0f0829eafb5f -->
<g id="edge26" class="edge"><title>dir_54018506bb725509c19b38b6d9bcf0f6&#45;&gt;dir_a2f0e5642e47e7ed59fe0f0829eafb5f</title>
<path fill="none" stroke="black" d="M164.822,-42C204.82,-42 244.818,-42 284.816,-42"/>
<polygon fill="black" stroke="black" points="284.985,-45.5001 294.985,-42 284.985,-38.5001 284.985,-45.5001"/>
<g id="a_edge26&#45;headlabel"><a xlink:href="dir_000086_000022.html" target="_top" xlink:title="53">
<text text-anchor="middle" x="281.39" y="-45.8393" font-family="Helvetica,sans-Serif" font-size="10.00">53</text>
</a>
</g>
</g>
<!-- dir_eecdbbfa89a6d9af25d920c499e6f44e&#45;&gt;dir_d0f3276f03e9a9cb8f8ba3f2a5ea1262 -->
<g id="edge9" class="edge"><title>dir_eecdbbfa89a6d9af25d920c499e6f44e&#45;&gt;dir_d0f3276f03e9a9cb8f8ba3f2a5ea1262</title>
<path fill="none" stroke="black" d="M98.6384,-132.064C101.893,-149.982 103.496,-178.974 105,-204 107.011,-237.468 109.502,-275.964 109.198,-301.292"/>
<polygon fill="black" stroke="black" points="105.69,-301.506 108.87,-311.612 112.686,-301.729 105.69,-301.506"/>
<g id="a_edge9&#45;headlabel"><a xlink:href="dir_000097_000076.html" target="_top" xlink:title="1">
<text text-anchor="middle" x="102.966" y="-295.322" font-family="Helvetica,sans-Serif" font-size="10.00">1</text>
</a>
</g>
</g>
<!-- dir_eecdbbfa89a6d9af25d920c499e6f44e&#45;&gt;dir_7205f054df4e14abb60715afe3e7e90c -->
<g id="edge8" class="edge"><title>dir_eecdbbfa89a6d9af25d920c499e6f44e&#45;&gt;dir_7205f054df4e14abb60715afe3e7e90c</title>
<path fill="none" stroke="black" d="M99.3522,-132.065C104.049,-150.488 109.227,-180.367 120,-204 124.315,-213.466 130.495,-222.904 136.262,-231.136"/>
<polygon fill="black" stroke="black" points="133.597,-233.426 142.25,-239.539 139.297,-229.364 133.597,-233.426"/>
<g id="a_edge8&#45;headlabel"><a xlink:href="dir_000097_000077.html" target="_top" xlink:title="1">
<text text-anchor="middle" x="129.198" y="-229.646" font-family="Helvetica,sans-Serif" font-size="10.00">1</text>
</a>
</g>
</g>
<!-- dir_eecdbbfa89a6d9af25d920c499e6f44e&#45;&gt;dir_a2f0e5642e47e7ed59fe0f0829eafb5f -->
<g id="edge7" class="edge"><title>dir_eecdbbfa89a6d9af25d920c499e6f44e&#45;&gt;dir_a2f0e5642e47e7ed59fe0f0829eafb5f</title>
<path fill="none" stroke="black" d="M118.058,-104.782C127.244,-101.993 137.569,-98.8598 147,-96 194.557,-81.58 249.391,-64.9768 284.819,-54.2529"/>
<polygon fill="black" stroke="black" points="286.16,-57.5038 294.717,-51.2567 284.132,-50.804 286.16,-57.5038"/>
<g id="a_edge7&#45;headlabel"><a xlink:href="dir_000097_000022.html" target="_top" xlink:title="1">
<text text-anchor="middle" x="283.542" y="-58.7626" font-family="Helvetica,sans-Serif" font-size="10.00">1</text>
</a>
</g>
</g>
<!-- dir_a2f0e5642e47e7ed59fe0f0829eafb5f&#45;&gt;dir_7205f054df4e14abb60715afe3e7e90c -->
<g id="edge1" class="edge"><title>dir_a2f0e5642e47e7ed59fe0f0829eafb5f&#45;&gt;dir_7205f054df4e14abb60715afe3e7e90c</title>
<path fill="none" stroke="black" d="M330.65,-60.1083C338.812,-78.8345 348.136,-109.223 336,-132 319.672,-162.645 235.688,-211.325 186.332,-237.992"/>
<polygon fill="black" stroke="black" points="184.408,-235.053 177.249,-242.863 187.716,-241.222 184.408,-235.053"/>
<g id="a_edge1&#45;headlabel"><a xlink:href="dir_000022_000077.html" target="_top" xlink:title="1">
<text text-anchor="middle" x="186.234" y="-228.352" font-family="Helvetica,sans-Serif" font-size="10.00">1</text>
</a>
</g>
</g>
<!-- dir_a2f0e5642e47e7ed59fe0f0829eafb5f&#45;&gt;dir_54018506bb725509c19b38b6d9bcf0f6 -->
<g id="edge2" class="edge"><title>dir_a2f0e5642e47e7ed59fe0f0829eafb5f&#45;&gt;dir_54018506bb725509c19b38b6d9bcf0f6</title>
<path fill="none" stroke="black" d="M294.985,-42C254.987,-42 214.989,-42 174.991,-42"/>
<polygon fill="black" stroke="black" points="174.822,-38.5001 164.822,-42 174.822,-45.5001 174.822,-38.5001"/>
<g id="a_edge2&#45;headlabel"><a xlink:href="dir_000022_000086.html" target="_top" xlink:title="1">
<text text-anchor="middle" x="178.417" y="-33.1607" font-family="Helvetica,sans-Serif" font-size="10.00">1</text>
</a>
</g>
</g>
<!-- dir_cb59203ea3f84fc4d67c89730003fed4&#45;&gt;dir_d0f3276f03e9a9cb8f8ba3f2a5ea1262 -->
<g id="edge15" class="edge"><title>dir_cb59203ea3f84fc4d67c89730003fed4&#45;&gt;dir_d0f3276f03e9a9cb8f8ba3f2a5ea1262</title>
<path fill="none" stroke="black" d="M274.013,-348.228C263.413,-365.469 244.898,-390.256 221,-401 196.273,-412.117 184.395,-412.829 160,-401 141.224,-391.896 126.85,-373.107 117.367,-357.143"/>
<polygon fill="black" stroke="black" points="120.285,-355.189 112.353,-348.165 114.173,-358.602 120.285,-355.189"/>
<g id="a_edge15&#45;headlabel"><a xlink:href="dir_000098_000076.html" target="_top" xlink:title="4">
<text text-anchor="middle" x="124.516" y="-354.443" font-family="Helvetica,sans-Serif" font-size="10.00">4</text>
</a>
</g>
</g>
<!-- dir_cb59203ea3f84fc4d67c89730003fed4&#45;&gt;dir_7205f054df4e14abb60715afe3e7e90c -->
<g id="edge11" class="edge"><title>dir_cb59203ea3f84fc4d67c89730003fed4&#45;&gt;dir_7205f054df4e14abb60715afe3e7e90c</title>
<path fill="none" stroke="black" d="M256.883,-314.834C236.541,-304.208 208.486,-289.553 186.224,-277.923"/>
<polygon fill="black" stroke="black" points="187.561,-274.672 177.077,-273.144 184.319,-280.877 187.561,-274.672"/>
<g id="a_edge11&#45;headlabel"><a xlink:href="dir_000098_000077.html" target="_top" xlink:title="3">
<text text-anchor="middle" x="192.061" y="-271.32" font-family="Helvetica,sans-Serif" font-size="10.00">3</text>
</a>
</g>
</g>
<!-- dir_cb59203ea3f84fc4d67c89730003fed4&#45;&gt;dir_d3d507863844f6311a74cf28116d817e -->
<g id="edge12" class="edge"><title>dir_cb59203ea3f84fc4d67c89730003fed4&#45;&gt;dir_d3d507863844f6311a74cf28116d817e</title>
<path fill="none" stroke="black" d="M291.778,-311.899C304.723,-280.639 326.586,-213.327 298,-168 282.631,-143.631 252.633,-130.227 227.694,-123"/>
<polygon fill="black" stroke="black" points="228.288,-119.536 217.725,-120.351 226.491,-126.301 228.288,-119.536"/>
<g id="a_edge12&#45;headlabel"><a xlink:href="dir_000098_000078.html" target="_top" xlink:title="4">
<text text-anchor="middle" x="232.491" y="-115.215" font-family="Helvetica,sans-Serif" font-size="10.00">4</text>
</a>
</g>
</g>
<!-- dir_cb59203ea3f84fc4d67c89730003fed4&#45;&gt;dir_06113b60808b1bbb52a01dfd2c3a8657 -->
<g id="edge13" class="edge"><title>dir_cb59203ea3f84fc4d67c89730003fed4&#45;&gt;dir_06113b60808b1bbb52a01dfd2c3a8657</title>
<path fill="none" stroke="black" d="M267.836,-311.871C244.294,-286.924 200.438,-240.45 173.377,-211.773"/>
<polygon fill="black" stroke="black" points="175.63,-209.06 166.221,-204.189 170.539,-213.864 175.63,-209.06"/>
<g id="a_edge13&#45;headlabel"><a xlink:href="dir_000098_000079.html" target="_top" xlink:title="7">
<text text-anchor="middle" x="180.162" y="-207.226" font-family="Helvetica,sans-Serif" font-size="10.00">7</text>
</a>
</g>
</g>
<!-- dir_cb59203ea3f84fc4d67c89730003fed4&#45;&gt;dir_54018506bb725509c19b38b6d9bcf0f6 -->
<g id="edge14" class="edge"><title>dir_cb59203ea3f84fc4d67c89730003fed4&#45;&gt;dir_54018506bb725509c19b38b6d9bcf0f6</title>
<path fill="none" stroke="black" d="M300.463,-311.919C308.654,-302.218 317.704,-289.366 322,-276 327.666,-258.373 325.676,-180.924 319,-168 288.988,-109.901 218.152,-73.7251 174.23,-56.0545"/>
<polygon fill="black" stroke="black" points="175.344,-52.7323 164.756,-52.3613 172.802,-59.2543 175.344,-52.7323"/>
<g id="a_edge14&#45;headlabel"><a xlink:href="dir_000098_000086.html" target="_top" xlink:title="38">
<text text-anchor="middle" x="179.725" y="-48.8924" font-family="Helvetica,sans-Serif" font-size="10.00">38</text>
</a>
</g>
</g>
<!-- dir_cb59203ea3f84fc4d67c89730003fed4&#45;&gt;dir_a2f0e5642e47e7ed59fe0f0829eafb5f -->
<g id="edge10" class="edge"><title>dir_cb59203ea3f84fc4d67c89730003fed4&#45;&gt;dir_a2f0e5642e47e7ed59fe0f0829eafb5f</title>
<path fill="none" stroke="black" d="M311.07,-317.911C330.475,-308.896 356.222,-294.626 374,-276 398.983,-249.826 403.3,-239.122 412,-204 423.541,-157.408 435.821,-137.672 412,-96 400.607,-76.0685 378.469,-62.8883 359.002,-54.6566"/>
<polygon fill="black" stroke="black" points="360.015,-51.2946 349.428,-50.8995 357.458,-57.8108 360.015,-51.2946"/>
<g id="a_edge10&#45;headlabel"><a xlink:href="dir_000098_000022.html" target="_top" xlink:title="48">
<text text-anchor="middle" x="364.399" y="-47.4647" font-family="Helvetica,sans-Serif" font-size="10.00">48</text>
</a>
</g>
</g>
</g>
</svg>
