<?xml version="1.0" encoding="UTF-8" standalone="no"?>
<!DOCTYPE svg PUBLIC "-//W3C//DTD SVG 1.1//EN"
 "http://www.w3.org/Graphics/SVG/1.1/DTD/svg11.dtd">
<!-- Generated by graphviz version 2.36.0 (20140111.2315)
 -->
<!-- Title: /home/travis/build/STORM&#45;IRIT/Radium&#45;Engine/src/Engine/Renderer/RenderObject Pages: 1 -->
<svg width="387pt" height="339pt"
 viewBox="0.00 0.00 387.40 339.00" xmlns="http://www.w3.org/2000/svg" xmlns:xlink="http://www.w3.org/1999/xlink">
<g id="graph0" class="graph" transform="scale(1 1) rotate(0) translate(4 335)">
<title>/home/travis/build/STORM&#45;IRIT/Radium&#45;Engine/src/Engine/Renderer/RenderObject</title>
<polygon fill="white" stroke="none" points="-4,4 -4,-335 383.401,-335 383.401,4 -4,4"/>
<g id="clust1" class="cluster"><title>clusterdir_54018506bb725509c19b38b6d9bcf0f6</title>
<g id="a_clust1"><a xlink:href="dir_54018506bb725509c19b38b6d9bcf0f6.html" target="_top" xlink:title="Renderer">
<polygon fill="#ddddee" stroke="black" points="51.3581,-200 51.3581,-287 239.358,-287 239.358,-200 51.3581,-200"/>
<text text-anchor="middle" x="145.358" y="-275" font-family="Helvetica,sans-Serif" font-size="10.00">Renderer</text>
</a>
</g>
</g>
<g id="clust2" class="cluster"><title>clusterdir_652267079d823ee01f6c6cf98db9085b</title>
<g id="a_clust2"><a xlink:href="dir_652267079d823ee01f6c6cf98db9085b.html" target="_top">
<polygon fill="#eeeeff" stroke="black" points="59.3581,-208 59.3581,-260 231.358,-260 231.358,-208 59.3581,-208"/>
</a>
</g>
</g>
<!-- dir_652267079d823ee01f6c6cf98db9085b -->
<g id="node1" class="node"><title>dir_652267079d823ee01f6c6cf98db9085b</title>
<text text-anchor="middle" x="184.358" y="-231.5" font-family="Helvetica,sans-Serif" font-size="10.00">RenderObject</text>
</g>
<!-- dir_7205f054df4e14abb60715afe3e7e90c -->
<g id="node4" class="node"><title>dir_7205f054df4e14abb60715afe3e7e90c</title>
<g id="a_node4"><a xlink:href="dir_7205f054df4e14abb60715afe3e7e90c.html" target="_top" xlink:title="Entity">
<polygon fill="none" stroke="black" points="304.358,-331 250.358,-331 250.358,-295 304.358,-295 304.358,-331"/>
<text text-anchor="middle" x="277.358" y="-310.5" font-family="Helvetica,sans-Serif" font-size="10.00">Entity</text>
</a>
</g>
</g>
<!-- dir_652267079d823ee01f6c6cf98db9085b&#45;&gt;dir_7205f054df4e14abb60715afe3e7e90c -->
<g id="edge1" class="edge"><title>dir_652267079d823ee01f6c6cf98db9085b&#45;&gt;dir_7205f054df4e14abb60715afe3e7e90c</title>
<path fill="none" stroke="black" d="M200.602,-252.289C210.938,-262.862 224.874,-276.355 238.358,-287 239.388,-287.813 240.445,-288.624 241.521,-289.429"/>
<polygon fill="black" stroke="black" points="239.844,-292.531 250.027,-295.456 243.89,-286.819 239.844,-292.531"/>
<g id="a_edge1&#45;headlabel"><a xlink:href="dir_000093_000077.html" target="_top" xlink:title="2">
<text text-anchor="middle" x="235.27" y="-290.27" font-family="Helvetica,sans-Serif" font-size="10.00">2</text>
</a>
</g>
</g>
<!-- dir_06113b60808b1bbb52a01dfd2c3a8657 -->
<g id="node7" class="node"><title>dir_06113b60808b1bbb52a01dfd2c3a8657</title>
<g id="a_node7"><a xlink:href="dir_06113b60808b1bbb52a01dfd2c3a8657.html" target="_top" xlink:title="Managers">
<polygon fill="white" stroke="red" points="306.608,-252 248.108,-252 248.108,-216 306.608,-216 306.608,-252"/>
<text text-anchor="middle" x="277.358" y="-231.5" font-family="Helvetica,sans-Serif" font-size="10.00">Managers</text>
</a>
</g>
</g>
<!-- dir_652267079d823ee01f6c6cf98db9085b&#45;&gt;dir_06113b60808b1bbb52a01dfd2c3a8657 -->
<g id="edge2" class="edge"><title>dir_652267079d823ee01f6c6cf98db9085b&#45;&gt;dir_06113b60808b1bbb52a01dfd2c3a8657</title>
<path fill="none" stroke="black" d="M222.866,-234C227.837,-234 232.808,-234 237.779,-234"/>
<polygon fill="black" stroke="black" points="237.983,-237.5 247.983,-234 237.983,-230.5 237.983,-237.5"/>
<g id="a_edge2&#45;headlabel"><a xlink:href="dir_000093_000079.html" target="_top" xlink:title="2">
<text text-anchor="middle" x="234.389" y="-237.839" font-family="Helvetica,sans-Serif" font-size="10.00">2</text>
</a>
</g>
</g>
<!-- dir_d0f3276f03e9a9cb8f8ba3f2a5ea1262 -->
<g id="node8" class="node"><title>dir_d0f3276f03e9a9cb8f8ba3f2a5ea1262</title>
<g id="a_node8"><a xlink:href="dir_d0f3276f03e9a9cb8f8ba3f2a5ea1262.html" target="_top" xlink:title="Component">
<polygon fill="none" stroke="black" points="360.608,-180 294.108,-180 294.108,-144 360.608,-144 360.608,-180"/>
<text text-anchor="middle" x="327.358" y="-159.5" font-family="Helvetica,sans-Serif" font-size="10.00">Component</text>
</a>
</g>
</g>
<!-- dir_652267079d823ee01f6c6cf98db9085b&#45;&gt;dir_d0f3276f03e9a9cb8f8ba3f2a5ea1262 -->
<g id="edge3" class="edge"><title>dir_652267079d823ee01f6c6cf98db9085b&#45;&gt;dir_d0f3276f03e9a9cb8f8ba3f2a5ea1262</title>
<path fill="none" stroke="black" d="M201.993,-215.884C210.224,-210.505 220.058,-204.739 229.358,-200 246.844,-191.09 266.988,-182.578 284.55,-175.97"/>
<polygon fill="black" stroke="black" points="285.822,-179.231 294.007,-172.504 283.414,-172.658 285.822,-179.231"/>
<g id="a_edge3&#45;headlabel"><a xlink:href="dir_000093_000076.html" target="_top" xlink:title="2">
<text text-anchor="middle" x="283.424" y="-180.634" font-family="Helvetica,sans-Serif" font-size="10.00">2</text>
</a>
</g>
</g>
<!-- dir_72da96c41019f509fc15d3101528a281 -->
<g id="node2" class="node"><title>dir_72da96c41019f509fc15d3101528a281</title>
<g id="a_node2"><a xlink:href="dir_72da96c41019f509fc15d3101528a281.html" target="_top" xlink:title="Primitives">
<polygon fill="white" stroke="black" points="126.858,-252 67.8581,-252 67.8581,-216 126.858,-216 126.858,-252"/>
<text text-anchor="middle" x="97.3581" y="-231.5" font-family="Helvetica,sans-Serif" font-size="10.00">Primitives</text>
</a>
</g>
</g>
<!-- dir_a2f0e5642e47e7ed59fe0f0829eafb5f -->
<g id="node3" class="node"><title>dir_a2f0e5642e47e7ed59fe0f0829eafb5f</title>
<g id="a_node3"><a xlink:href="dir_a2f0e5642e47e7ed59fe0f0829eafb5f.html" target="_top" xlink:title="Core">
<polygon fill="white" stroke="red" points="162.358,-36 108.358,-36 108.358,-0 162.358,-0 162.358,-36"/>
<text text-anchor="middle" x="135.358" y="-15.5" font-family="Helvetica,sans-Serif" font-size="10.00">Core</text>
</a>
</g>
</g>
<!-- dir_72da96c41019f509fc15d3101528a281&#45;&gt;dir_a2f0e5642e47e7ed59fe0f0829eafb5f -->
<g id="edge9" class="edge"><title>dir_72da96c41019f509fc15d3101528a281&#45;&gt;dir_a2f0e5642e47e7ed59fe0f0829eafb5f</title>
<path fill="none" stroke="black" d="M94.3709,-215.568C89.9079,-185.462 83.5999,-122.134 99.3581,-72 102.428,-62.2341 107.943,-52.6402 113.748,-44.3568"/>
<polygon fill="black" stroke="black" points="116.627,-46.3512 119.813,-36.2467 111.022,-42.159 116.627,-46.3512"/>
<g id="a_edge9&#45;headlabel"><a xlink:href="dir_000094_000022.html" target="_top" xlink:title="7">
<text text-anchor="middle" x="116.749" y="-48.4302" font-family="Helvetica,sans-Serif" font-size="10.00">7</text>
</a>
</g>
</g>
<!-- dir_f6a0a87962fcbf90fc709c1bf5ba5a00 -->
<g id="node5" class="node"><title>dir_f6a0a87962fcbf90fc709c1bf5ba5a00</title>
<g id="a_node5"><a xlink:href="dir_f6a0a87962fcbf90fc709c1bf5ba5a00.html" target="_top" xlink:title="Mesh">
<polygon fill="none" stroke="black" points="292.358,-108 238.358,-108 238.358,-72 292.358,-72 292.358,-108"/>
<text text-anchor="middle" x="265.358" y="-87.5" font-family="Helvetica,sans-Serif" font-size="10.00">Mesh</text>
</a>
</g>
</g>
<!-- dir_72da96c41019f509fc15d3101528a281&#45;&gt;dir_f6a0a87962fcbf90fc709c1bf5ba5a00 -->
<g id="edge10" class="edge"><title>dir_72da96c41019f509fc15d3101528a281&#45;&gt;dir_f6a0a87962fcbf90fc709c1bf5ba5a00</title>
<path fill="none" stroke="black" d="M113.839,-215.742C120.328,-209.893 128.18,-203.869 136.358,-200 180.881,-178.938 209.848,-214.131 245.358,-180 261.811,-164.186 266.078,-137.975 266.666,-118.083"/>
<polygon fill="black" stroke="black" points="270.165,-118.071 266.675,-108.067 263.165,-118.064 270.165,-118.071"/>
<g id="a_edge10&#45;headlabel"><a xlink:href="dir_000094_000090.html" target="_top" xlink:title="1">
<text text-anchor="middle" x="273.001" y="-119.168" font-family="Helvetica,sans-Serif" font-size="10.00">1</text>
</a>
</g>
</g>
<!-- dir_6bc97c5ccce2964f7b25f8377ac95818 -->
<g id="node6" class="node"><title>dir_6bc97c5ccce2964f7b25f8377ac95818</title>
<g id="a_node6"><a xlink:href="dir_6bc97c5ccce2964f7b25f8377ac95818.html" target="_top" xlink:title="RenderTechnique">
<polygon fill="none" stroke="black" points="236.608,-180 144.108,-180 144.108,-144 236.608,-144 236.608,-180"/>
<text text-anchor="middle" x="190.358" y="-159.5" font-family="Helvetica,sans-Serif" font-size="10.00">RenderTechnique</text>
</a>
</g>
</g>
<!-- dir_72da96c41019f509fc15d3101528a281&#45;&gt;dir_6bc97c5ccce2964f7b25f8377ac95818 -->
<g id="edge11" class="edge"><title>dir_72da96c41019f509fc15d3101528a281&#45;&gt;dir_6bc97c5ccce2964f7b25f8377ac95818</title>
<path fill="none" stroke="black" d="M116.879,-215.814C123.008,-210.601 129.869,-204.948 136.358,-200 142.447,-195.357 149.071,-190.595 155.527,-186.099"/>
<polygon fill="black" stroke="black" points="157.9,-188.715 164.16,-180.167 153.936,-182.945 157.9,-188.715"/>
<g id="a_edge11&#45;headlabel"><a xlink:href="dir_000094_000095.html" target="_top" xlink:title="2">
<text text-anchor="middle" x="156.545" y="-190.59" font-family="Helvetica,sans-Serif" font-size="10.00">2</text>
</a>
</g>
</g>
<!-- dir_909774b1a000bf73b2cf501716b773f3 -->
<g id="node9" class="node"><title>dir_909774b1a000bf73b2cf501716b773f3</title>
<g id="a_node9"><a xlink:href="dir_909774b1a000bf73b2cf501716b773f3.html" target="_top" xlink:title="Material">
<polygon fill="none" stroke="black" points="162.358,-108 108.358,-108 108.358,-72 162.358,-72 162.358,-108"/>
<text text-anchor="middle" x="135.358" y="-87.5" font-family="Helvetica,sans-Serif" font-size="10.00">Material</text>
</a>
</g>
</g>
<!-- dir_72da96c41019f509fc15d3101528a281&#45;&gt;dir_909774b1a000bf73b2cf501716b773f3 -->
<g id="edge12" class="edge"><title>dir_72da96c41019f509fc15d3101528a281&#45;&gt;dir_909774b1a000bf73b2cf501716b773f3</title>
<path fill="none" stroke="black" d="M101.942,-215.871C108.447,-191.564 120.421,-146.819 128.129,-118.013"/>
<polygon fill="black" stroke="black" points="131.554,-118.754 130.758,-108.189 124.792,-116.945 131.554,-118.754"/>
<g id="a_edge12&#45;headlabel"><a xlink:href="dir_000094_000089.html" target="_top" xlink:title="1">
<text text-anchor="middle" x="133.368" y="-120.461" font-family="Helvetica,sans-Serif" font-size="10.00">1</text>
</a>
</g>
</g>
<!-- dir_a2f0e5642e47e7ed59fe0f0829eafb5f&#45;&gt;dir_72da96c41019f509fc15d3101528a281 -->
<g id="edge5" class="edge"><title>dir_a2f0e5642e47e7ed59fe0f0829eafb5f&#45;&gt;dir_72da96c41019f509fc15d3101528a281</title>
<path fill="none" stroke="black" d="M108.282,-30.9917C92.0298,-39.7876 72.7427,-53.4388 63.3581,-72 41.6999,-114.836 49.8537,-133.939 63.3581,-180 66.1588,-189.553 71.2691,-199.016 76.6915,-207.244"/>
<polygon fill="black" stroke="black" points="73.9821,-209.475 82.6033,-215.634 79.7042,-205.443 73.9821,-209.475"/>
<g id="a_edge5&#45;headlabel"><a xlink:href="dir_000022_000094.html" target="_top" xlink:title="1">
<text text-anchor="middle" x="69.5907" y="-205.672" font-family="Helvetica,sans-Serif" font-size="10.00">1</text>
</a>
</g>
</g>
<!-- dir_a2f0e5642e47e7ed59fe0f0829eafb5f&#45;&gt;dir_7205f054df4e14abb60715afe3e7e90c -->
<g id="edge4" class="edge"><title>dir_a2f0e5642e47e7ed59fe0f0829eafb5f&#45;&gt;dir_7205f054df4e14abb60715afe3e7e90c</title>
<path fill="none" stroke="black" d="M108.079,-30.4008C89.9334,-38.6687 67.6767,-51.9701 56.3581,-72 9.31484,-155.249 -1.3329,-217.515 64.3581,-287 76.3983,-299.736 182.106,-306.95 240.043,-310.091"/>
<polygon fill="black" stroke="black" points="240.101,-313.599 250.272,-310.63 240.47,-306.608 240.101,-313.599"/>
<g id="a_edge4&#45;headlabel"><a xlink:href="dir_000022_000077.html" target="_top" xlink:title="1">
<text text-anchor="middle" x="236.362" y="-313.745" font-family="Helvetica,sans-Serif" font-size="10.00">1</text>
</a>
</g>
</g>
<!-- dir_7205f054df4e14abb60715afe3e7e90c&#45;&gt;dir_a2f0e5642e47e7ed59fe0f0829eafb5f -->
<g id="edge6" class="edge"><title>dir_7205f054df4e14abb60715afe3e7e90c&#45;&gt;dir_a2f0e5642e47e7ed59fe0f0829eafb5f</title>
<path fill="none" stroke="black" d="M249.978,-311.068C191.551,-308.642 59.8804,-301.303 46.3581,-287 -19.3329,-217.515 -8.68516,-155.249 38.3581,-72 50.7605,-50.0522 76.2958,-36.1832 98.195,-28.1629"/>
<polygon fill="black" stroke="black" points="99.5805,-31.3895 107.941,-24.8814 97.3467,-24.7555 99.5805,-31.3895"/>
<g id="a_edge6&#45;headlabel"><a xlink:href="dir_000077_000022.html" target="_top" xlink:title="4">
<text text-anchor="middle" x="97.0798" y="-32.7274" font-family="Helvetica,sans-Serif" font-size="10.00">4</text>
</a>
</g>
</g>
<!-- dir_7205f054df4e14abb60715afe3e7e90c&#45;&gt;dir_06113b60808b1bbb52a01dfd2c3a8657 -->
<g id="edge7" class="edge"><title>dir_7205f054df4e14abb60715afe3e7e90c&#45;&gt;dir_06113b60808b1bbb52a01dfd2c3a8657</title>
<path fill="none" stroke="black" d="M271.638,-294.911C270.607,-285.341 270.35,-273.183 270.867,-262.323"/>
<polygon fill="black" stroke="black" points="274.381,-262.276 271.643,-252.041 267.401,-261.749 274.381,-262.276"/>
<g id="a_edge7&#45;headlabel"><a xlink:href="dir_000077_000079.html" target="_top" xlink:title="1">
<text text-anchor="middle" x="276.942" y="-263.574" font-family="Helvetica,sans-Serif" font-size="10.00">1</text>
</a>
</g>
</g>
<!-- dir_7205f054df4e14abb60715afe3e7e90c&#45;&gt;dir_d0f3276f03e9a9cb8f8ba3f2a5ea1262 -->
<g id="edge8" class="edge"><title>dir_7205f054df4e14abb60715afe3e7e90c&#45;&gt;dir_d0f3276f03e9a9cb8f8ba3f2a5ea1262</title>
<path fill="none" stroke="black" d="M300.074,-294.752C302.472,-292.421 304.645,-289.84 306.358,-287 324.127,-257.537 324.446,-216.808 324.301,-190.192"/>
<polygon fill="black" stroke="black" points="327.8,-190.046 324.258,-180.061 320.8,-190.076 327.8,-190.046"/>
<g id="a_edge8&#45;headlabel"><a xlink:href="dir_000077_000076.html" target="_top" xlink:title="1">
<text text-anchor="middle" x="330.654" y="-191.129" font-family="Helvetica,sans-Serif" font-size="10.00">1</text>
</a>
</g>
</g>
<!-- dir_f6a0a87962fcbf90fc709c1bf5ba5a00&#45;&gt;dir_a2f0e5642e47e7ed59fe0f0829eafb5f -->
<g id="edge13" class="edge"><title>dir_f6a0a87962fcbf90fc709c1bf5ba5a00&#45;&gt;dir_a2f0e5642e47e7ed59fe0f0829eafb5f</title>
<path fill="none" stroke="black" d="M238.106,-74.3257C218.779,-63.9188 192.638,-49.843 171.561,-38.4936"/>
<polygon fill="black" stroke="black" points="173.039,-35.3144 162.574,-33.655 169.72,-41.4777 173.039,-35.3144"/>
<g id="a_edge13&#45;headlabel"><a xlink:href="dir_000090_000022.html" target="_top" xlink:title="5">
<text text-anchor="middle" x="177.55" y="-32.0186" font-family="Helvetica,sans-Serif" font-size="10.00">5</text>
</a>
</g>
</g>
<!-- dir_6bc97c5ccce2964f7b25f8377ac95818&#45;&gt;dir_a2f0e5642e47e7ed59fe0f0829eafb5f -->
<g id="edge14" class="edge"><title>dir_6bc97c5ccce2964f7b25f8377ac95818&#45;&gt;dir_a2f0e5642e47e7ed59fe0f0829eafb5f</title>
<path fill="none" stroke="black" d="M188.661,-143.674C186.408,-125.29 181.47,-95.6852 171.358,-72 167.274,-62.4333 161.37,-52.7836 155.52,-44.3881"/>
<polygon fill="black" stroke="black" points="158.238,-42.1741 149.523,-36.1492 152.578,-46.2938 158.238,-42.1741"/>
<g id="a_edge14&#45;headlabel"><a xlink:href="dir_000095_000022.html" target="_top" xlink:title="12">
<text text-anchor="middle" x="162.649" y="-40.9093" font-family="Helvetica,sans-Serif" font-size="10.00">12</text>
</a>
</g>
</g>
<!-- dir_6bc97c5ccce2964f7b25f8377ac95818&#45;&gt;dir_909774b1a000bf73b2cf501716b773f3 -->
<g id="edge15" class="edge"><title>dir_6bc97c5ccce2964f7b25f8377ac95818&#45;&gt;dir_909774b1a000bf73b2cf501716b773f3</title>
<path fill="none" stroke="black" d="M170.847,-143.697C163.538,-135.474 155.487,-125.483 148.811,-116.421"/>
<polygon fill="black" stroke="black" points="151.548,-114.229 142.902,-108.104 145.841,-118.283 151.548,-114.229"/>
<g id="a_edge15&#45;headlabel"><a xlink:href="dir_000095_000089.html" target="_top" xlink:title="1">
<text text-anchor="middle" x="155.944" y="-113.014" font-family="Helvetica,sans-Serif" font-size="10.00">1</text>
</a>
</g>
</g>
<!-- dir_06113b60808b1bbb52a01dfd2c3a8657&#45;&gt;dir_72da96c41019f509fc15d3101528a281 -->
<g id="edge18" class="edge"><title>dir_06113b60808b1bbb52a01dfd2c3a8657&#45;&gt;dir_72da96c41019f509fc15d3101528a281</title>
<path fill="none" stroke="black" d="M268.885,-252.208C260.567,-267.246 246.232,-286.782 226.358,-291 205.464,-295.434 149.434,-297.516 136.358,-287 127.318,-279.73 119.313,-269.888 112.945,-260.659"/>
<polygon fill="black" stroke="black" points="115.757,-258.563 107.36,-252.101 109.895,-262.389 115.757,-258.563"/>
<g id="a_edge18&#45;headlabel"><a xlink:href="dir_000079_000094.html" target="_top" xlink:title="1">
<text text-anchor="middle" x="120.099" y="-257.521" font-family="Helvetica,sans-Serif" font-size="10.00">1</text>
</a>
</g>
</g>
<!-- dir_06113b60808b1bbb52a01dfd2c3a8657&#45;&gt;dir_a2f0e5642e47e7ed59fe0f0829eafb5f -->
<g id="edge16" class="edge"><title>dir_06113b60808b1bbb52a01dfd2c3a8657&#45;&gt;dir_a2f0e5642e47e7ed59fe0f0829eafb5f</title>
<path fill="none" stroke="black" d="M306.704,-224.8C328.244,-217.071 355.983,-203.141 369.358,-180 395.295,-135.126 366.709,-103.249 325.358,-72 280.118,-37.8118 213.911,-25.6769 172.788,-21.3698"/>
<polygon fill="black" stroke="black" points="172.934,-17.8681 162.649,-20.4136 172.276,-24.8372 172.934,-17.8681"/>
<g id="a_edge16&#45;headlabel"><a xlink:href="dir_000079_000022.html" target="_top" xlink:title="16">
<text text-anchor="middle" x="176.779" y="-12.8788" font-family="Helvetica,sans-Serif" font-size="10.00">16</text>
</a>
</g>
</g>
<!-- dir_06113b60808b1bbb52a01dfd2c3a8657&#45;&gt;dir_7205f054df4e14abb60715afe3e7e90c -->
<g id="edge17" class="edge"><title>dir_06113b60808b1bbb52a01dfd2c3a8657&#45;&gt;dir_7205f054df4e14abb60715afe3e7e90c</title>
<path fill="none" stroke="black" d="M283.073,-252.041C284.107,-261.603 284.366,-273.759 283.851,-284.622"/>
<polygon fill="black" stroke="black" points="280.337,-284.677 283.078,-294.911 287.318,-285.202 280.337,-284.677"/>
<g id="a_edge17&#45;headlabel"><a xlink:href="dir_000079_000077.html" target="_top" xlink:title="3">
<text text-anchor="middle" x="277.775" y="-278.38" font-family="Helvetica,sans-Serif" font-size="10.00">3</text>
</a>
</g>
</g>
<!-- dir_06113b60808b1bbb52a01dfd2c3a8657&#45;&gt;dir_6bc97c5ccce2964f7b25f8377ac95818 -->
<g id="edge19" class="edge"><title>dir_06113b60808b1bbb52a01dfd2c3a8657&#45;&gt;dir_6bc97c5ccce2964f7b25f8377ac95818</title>
<path fill="none" stroke="black" d="M255.852,-215.697C244.896,-206.881 231.412,-196.032 219.533,-186.474"/>
<polygon fill="black" stroke="black" points="221.602,-183.646 211.616,-180.104 217.213,-189.1 221.602,-183.646"/>
<g id="a_edge19&#45;headlabel"><a xlink:href="dir_000079_000095.html" target="_top" xlink:title="4">
<text text-anchor="middle" x="226.182" y="-181.187" font-family="Helvetica,sans-Serif" font-size="10.00">4</text>
</a>
</g>
</g>
<!-- dir_06113b60808b1bbb52a01dfd2c3a8657&#45;&gt;dir_d0f3276f03e9a9cb8f8ba3f2a5ea1262 -->
<g id="edge20" class="edge"><title>dir_06113b60808b1bbb52a01dfd2c3a8657&#45;&gt;dir_d0f3276f03e9a9cb8f8ba3f2a5ea1262</title>
<path fill="none" stroke="black" d="M283.802,-215.697C288.879,-207.389 295.905,-197.277 302.894,-188.141"/>
<polygon fill="black" stroke="black" points="305.791,-190.12 309.246,-180.104 300.299,-185.78 305.791,-190.12"/>
<g id="a_edge20&#45;headlabel"><a xlink:href="dir_000079_000076.html" target="_top" xlink:title="2">
<text text-anchor="middle" x="305.79" y="-192.201" font-family="Helvetica,sans-Serif" font-size="10.00">2</text>
</a>
</g>
</g>
<!-- dir_d0f3276f03e9a9cb8f8ba3f2a5ea1262&#45;&gt;dir_652267079d823ee01f6c6cf98db9085b -->
<g id="edge21" class="edge"><title>dir_d0f3276f03e9a9cb8f8ba3f2a5ea1262&#45;&gt;dir_652267079d823ee01f6c6cf98db9085b</title>
<path fill="none" stroke="black" d="M293.995,-178.828C279.446,-184.949 262.417,-192.327 247.358,-200 240.964,-203.258 234.318,-207.002 227.815,-210.771"/>
<polygon fill="black" stroke="black" points="225.938,-207.814 219.073,-215.884 229.472,-213.856 225.938,-207.814"/>
<g id="a_edge21&#45;headlabel"><a xlink:href="dir_000076_000093.html" target="_top" xlink:title="2">
<text text-anchor="middle" x="227.608" y="-201.048" font-family="Helvetica,sans-Serif" font-size="10.00">2</text>
</a>
</g>
</g>
<!-- dir_d0f3276f03e9a9cb8f8ba3f2a5ea1262&#45;&gt;dir_a2f0e5642e47e7ed59fe0f0829eafb5f -->
<g id="edge22" class="edge"><title>dir_d0f3276f03e9a9cb8f8ba3f2a5ea1262&#45;&gt;dir_a2f0e5642e47e7ed59fe0f0829eafb5f</title>
<path fill="none" stroke="black" d="M326.972,-143.897C325.6,-124.023 320.354,-91.4736 301.358,-72 267.277,-37.0624 210.224,-25.1111 172.689,-21.0497"/>
<polygon fill="black" stroke="black" points="172.94,-17.5579 162.655,-20.1009 172.281,-24.5268 172.94,-17.5579"/>
<g id="a_edge22&#45;headlabel"><a xlink:href="dir_000076_000022.html" target="_top" xlink:title="5">
<text text-anchor="middle" x="176.786" y="-12.5696" font-family="Helvetica,sans-Serif" font-size="10.00">5</text>
</a>
</g>
</g>
<!-- dir_d0f3276f03e9a9cb8f8ba3f2a5ea1262&#45;&gt;dir_7205f054df4e14abb60715afe3e7e90c -->
<g id="edge23" class="edge"><title>dir_d0f3276f03e9a9cb8f8ba3f2a5ea1262&#45;&gt;dir_7205f054df4e14abb60715afe3e7e90c</title>
<path fill="none" stroke="black" d="M335.896,-180.061C342.203,-205.371 344.575,-253.477 324.358,-287 321.674,-291.45 317.859,-295.265 313.518,-298.476"/>
<polygon fill="black" stroke="black" points="311.363,-295.693 304.683,-303.917 315.033,-301.654 311.363,-295.693"/>
<g id="a_edge23&#45;headlabel"><a xlink:href="dir_000076_000077.html" target="_top" xlink:title="1">
<text text-anchor="middle" x="312.935" y="-288.891" font-family="Helvetica,sans-Serif" font-size="10.00">1</text>
</a>
</g>
</g>
<!-- dir_d0f3276f03e9a9cb8f8ba3f2a5ea1262&#45;&gt;dir_f6a0a87962fcbf90fc709c1bf5ba5a00 -->
<g id="edge24" class="edge"><title>dir_d0f3276f03e9a9cb8f8ba3f2a5ea1262&#45;&gt;dir_f6a0a87962fcbf90fc709c1bf5ba5a00</title>
<path fill="none" stroke="black" d="M312.032,-143.697C304.599,-135.305 295.535,-125.07 287.378,-115.861"/>
<polygon fill="black" stroke="black" points="289.758,-113.27 280.508,-108.104 284.518,-117.911 289.758,-113.27"/>
<g id="a_edge24&#45;headlabel"><a xlink:href="dir_000076_000090.html" target="_top" xlink:title="1">
<text text-anchor="middle" x="294.267" y="-111.578" font-family="Helvetica,sans-Serif" font-size="10.00">1</text>
</a>
</g>
</g>
<!-- dir_d0f3276f03e9a9cb8f8ba3f2a5ea1262&#45;&gt;dir_06113b60808b1bbb52a01dfd2c3a8657 -->
<g id="edge25" class="edge"><title>dir_d0f3276f03e9a9cb8f8ba3f2a5ea1262&#45;&gt;dir_06113b60808b1bbb52a01dfd2c3a8657</title>
<path fill="none" stroke="black" d="M321.036,-180.104C315.99,-188.383 308.979,-198.488 301.99,-207.64"/>
<polygon fill="black" stroke="black" points="299.079,-205.678 295.633,-215.697 304.575,-210.014 299.079,-205.678"/>
<g id="a_edge25&#45;headlabel"><a xlink:href="dir_000076_000079.html" target="_top" xlink:title="1">
<text text-anchor="middle" x="299.077" y="-198.597" font-family="Helvetica,sans-Serif" font-size="10.00">1</text>
</a>
</g>
</g>
<!-- dir_909774b1a000bf73b2cf501716b773f3&#45;&gt;dir_a2f0e5642e47e7ed59fe0f0829eafb5f -->
<g id="edge26" class="edge"><title>dir_909774b1a000bf73b2cf501716b773f3&#45;&gt;dir_a2f0e5642e47e7ed59fe0f0829eafb5f</title>
<path fill="none" stroke="black" d="M135.358,-71.6966C135.358,-63.9827 135.358,-54.7125 135.358,-46.1124"/>
<polygon fill="black" stroke="black" points="138.858,-46.1043 135.358,-36.1043 131.858,-46.1044 138.858,-46.1043"/>
<g id="a_edge26&#45;headlabel"><a xlink:href="dir_000089_000022.html" target="_top" xlink:title="3">
<text text-anchor="middle" x="141.697" y="-47.199" font-family="Helvetica,sans-Serif" font-size="10.00">3</text>
</a>
</g>
</g>
<!-- dir_909774b1a000bf73b2cf501716b773f3&#45;&gt;dir_6bc97c5ccce2964f7b25f8377ac95818 -->
<g id="edge27" class="edge"><title>dir_909774b1a000bf73b2cf501716b773f3&#45;&gt;dir_6bc97c5ccce2964f7b25f8377ac95818</title>
<path fill="none" stroke="black" d="M154.692,-108.104C161.989,-116.298 170.045,-126.282 176.743,-135.359"/>
<polygon fill="black" stroke="black" points="174.027,-137.58 182.678,-143.697 179.73,-133.52 174.027,-137.58"/>
<g id="a_edge27&#45;headlabel"><a xlink:href="dir_000089_000095.html" target="_top" xlink:title="3">
<text text-anchor="middle" x="169.63" y="-133.799" font-family="Helvetica,sans-Serif" font-size="10.00">3</text>
</a>
</g>
</g>
</g>
</svg>
