<?xml version="1.0" encoding="UTF-8" standalone="no"?>
<!DOCTYPE svg PUBLIC "-//W3C//DTD SVG 1.1//EN"
 "http://www.w3.org/Graphics/SVG/1.1/DTD/svg11.dtd">
<!-- Generated by graphviz version 2.36.0 (20140111.2315)
 -->
<!-- Title: /home/travis/build/STORM&#45;IRIT/Radium&#45;Engine/src/Core/Animation Pages: 1 -->
<svg width="580pt" height="591pt"
 viewBox="0.00 0.00 580.00 591.00" xmlns="http://www.w3.org/2000/svg" xmlns:xlink="http://www.w3.org/1999/xlink">
<g id="graph0" class="graph" transform="scale(1 1) rotate(0) translate(4 587)">
<title>/home/travis/build/STORM&#45;IRIT/Radium&#45;Engine/src/Core/Animation</title>
<polygon fill="white" stroke="none" points="-4,4 -4,-587 576,-587 576,4 -4,4"/>
<g id="clust1" class="cluster"><title>clusterdir_a2f0e5642e47e7ed59fe0f0829eafb5f</title>
<g id="a_clust1"><a xlink:href="dir_a2f0e5642e47e7ed59fe0f0829eafb5f.html" target="_top" xlink:title="Core">
<polygon fill="#ddddee" stroke="black" points="189,-344 189,-575 451,-575 451,-344 189,-344"/>
<text text-anchor="middle" x="320" y="-563" font-family="Helvetica,sans-Serif" font-size="10.00">Core</text>
</a>
</g>
</g>
<g id="clust2" class="cluster"><title>clusterdir_721a74ea40d2768c46a3c9514389a16b</title>
<g id="a_clust2"><a xlink:href="dir_721a74ea40d2768c46a3c9514389a16b.html" target="_top">
<polygon fill="#eeeeff" stroke="black" points="197,-352 197,-548 443,-548 443,-352 197,-352"/>
</a>
</g>
</g>
<!-- dir_721a74ea40d2768c46a3c9514389a16b -->
<g id="node1" class="node"><title>dir_721a74ea40d2768c46a3c9514389a16b</title>
<text text-anchor="middle" x="307" y="-447.5" font-family="Helvetica,sans-Serif" font-size="10.00">Animation</text>
</g>
<!-- dir_2c6b9e60b5cfd48e3d1f71fa90957520 -->
<g id="node3" class="node"><title>dir_2c6b9e60b5cfd48e3d1f71fa90957520</title>
<g id="a_node3"><a xlink:href="dir_2c6b9e60b5cfd48e3d1f71fa90957520.html" target="_top" xlink:title="Pose">
<polygon fill="white" stroke="black" points="316,-396 262,-396 262,-360 316,-360 316,-396"/>
<text text-anchor="middle" x="289" y="-375.5" font-family="Helvetica,sans-Serif" font-size="10.00">Pose</text>
</a>
</g>
</g>
<!-- dir_721a74ea40d2768c46a3c9514389a16b&#45;&gt;dir_2c6b9e60b5cfd48e3d1f71fa90957520 -->
<g id="edge37" class="edge"><title>dir_721a74ea40d2768c46a3c9514389a16b&#45;&gt;dir_2c6b9e60b5cfd48e3d1f71fa90957520</title>
<path fill="none" stroke="black" d="M302.551,-431.697C300.545,-423.898 298.131,-414.509 295.899,-405.829"/>
<polygon fill="black" stroke="black" points="299.278,-404.918 293.398,-396.104 292.499,-406.661 299.278,-404.918"/>
<g id="a_edge37&#45;headlabel"><a xlink:href="dir_000030_000032.html" target="_top" xlink:title="9">
<text text-anchor="middle" x="302.923" y="-405.192" font-family="Helvetica,sans-Serif" font-size="10.00">9</text>
</a>
</g>
</g>
<!-- dir_91c141b8e78af59a0323020451a6b6a2 -->
<g id="node2" class="node"><title>dir_91c141b8e78af59a0323020451a6b6a2</title>
<g id="a_node2"><a xlink:href="dir_91c141b8e78af59a0323020451a6b6a2.html" target="_top" xlink:title="Handle">
<polygon fill="white" stroke="black" points="259,-468 205,-468 205,-432 259,-432 259,-468"/>
<text text-anchor="middle" x="232" y="-447.5" font-family="Helvetica,sans-Serif" font-size="10.00">Handle</text>
</a>
</g>
</g>
<!-- dir_91c141b8e78af59a0323020451a6b6a2&#45;&gt;dir_2c6b9e60b5cfd48e3d1f71fa90957520 -->
<g id="edge3" class="edge"><title>dir_91c141b8e78af59a0323020451a6b6a2&#45;&gt;dir_2c6b9e60b5cfd48e3d1f71fa90957520</title>
<path fill="none" stroke="black" d="M246.09,-431.697C252.923,-423.305 261.257,-413.07 268.756,-403.861"/>
<polygon fill="black" stroke="black" points="271.472,-406.069 275.072,-396.104 266.044,-401.649 271.472,-406.069"/>
<g id="a_edge3&#45;headlabel"><a xlink:href="dir_000031_000032.html" target="_top" xlink:title="1">
<text text-anchor="middle" x="271.404" y="-408.149" font-family="Helvetica,sans-Serif" font-size="10.00">1</text>
</a>
</g>
</g>
<!-- dir_1456dd235032e023892318efbecb420b -->
<g id="node6" class="node"><title>dir_1456dd235032e023892318efbecb420b</title>
<g id="a_node6"><a xlink:href="dir_1456dd235032e023892318efbecb420b.html" target="_top" xlink:title="Containers">
<polygon fill="none" stroke="black" points="168,-396 104,-396 104,-360 168,-360 168,-396"/>
<text text-anchor="middle" x="136" y="-375.5" font-family="Helvetica,sans-Serif" font-size="10.00">Containers</text>
</a>
</g>
</g>
<!-- dir_91c141b8e78af59a0323020451a6b6a2&#45;&gt;dir_1456dd235032e023892318efbecb420b -->
<g id="edge4" class="edge"><title>dir_91c141b8e78af59a0323020451a6b6a2&#45;&gt;dir_1456dd235032e023892318efbecb420b</title>
<path fill="none" stroke="black" d="M208.27,-431.697C196.063,-422.796 181.015,-411.823 167.816,-402.199"/>
<polygon fill="black" stroke="black" points="169.6,-399.168 159.457,-396.104 165.475,-404.824 169.6,-399.168"/>
<g id="a_edge4&#45;headlabel"><a xlink:href="dir_000031_000035.html" target="_top" xlink:title="2">
<text text-anchor="middle" x="174.177" y="-396.492" font-family="Helvetica,sans-Serif" font-size="10.00">2</text>
</a>
</g>
</g>
<!-- dir_d080e052e6032887076b6b5756e5361d -->
<g id="node7" class="node"><title>dir_d080e052e6032887076b6b5756e5361d</title>
<g id="a_node7"><a xlink:href="dir_d080e052e6032887076b6b5756e5361d.html" target="_top" xlink:title="Mesh">
<polygon fill="white" stroke="red" points="366,-108 312,-108 312,-72 366,-72 366,-108"/>
<text text-anchor="middle" x="339" y="-87.5" font-family="Helvetica,sans-Serif" font-size="10.00">Mesh</text>
</a>
</g>
</g>
<!-- dir_91c141b8e78af59a0323020451a6b6a2&#45;&gt;dir_d080e052e6032887076b6b5756e5361d -->
<g id="edge5" class="edge"><title>dir_91c141b8e78af59a0323020451a6b6a2&#45;&gt;dir_d080e052e6032887076b6b5756e5361d</title>
<path fill="none" stroke="black" d="M259.096,-436.123C262.096,-434.722 265.11,-433.325 268,-432 303.814,-415.588 324.158,-426.576 349,-396 419.751,-308.921 400.326,-250.155 364,-144 360.97,-135.144 356.889,-125.809 352.903,-117.482"/>
<polygon fill="black" stroke="black" points="355.911,-115.669 348.338,-108.259 349.638,-118.774 355.911,-115.669"/>
<g id="a_edge5&#45;headlabel"><a xlink:href="dir_000031_000056.html" target="_top" xlink:title="1">
<text text-anchor="middle" x="360.05" y="-115.13" font-family="Helvetica,sans-Serif" font-size="10.00">1</text>
</a>
</g>
</g>
<!-- dir_a1f42069ba95676f6b9abbd5065ccf6d -->
<g id="node8" class="node"><title>dir_a1f42069ba95676f6b9abbd5065ccf6d</title>
<g id="a_node8"><a xlink:href="dir_a1f42069ba95676f6b9abbd5065ccf6d.html" target="_top" xlink:title="Math">
<polygon fill="none" stroke="black" points="304,-324 250,-324 250,-288 304,-288 304,-324"/>
<text text-anchor="middle" x="277" y="-303.5" font-family="Helvetica,sans-Serif" font-size="10.00">Math</text>
</a>
</g>
</g>
<!-- dir_91c141b8e78af59a0323020451a6b6a2&#45;&gt;dir_a1f42069ba95676f6b9abbd5065ccf6d -->
<g id="edge6" class="edge"><title>dir_91c141b8e78af59a0323020451a6b6a2&#45;&gt;dir_a1f42069ba95676f6b9abbd5065ccf6d</title>
<path fill="none" stroke="black" d="M233.446,-431.698C235.675,-410.403 241.02,-373.445 253,-344 254.515,-340.277 256.418,-336.524 258.486,-332.912"/>
<polygon fill="black" stroke="black" points="261.525,-334.653 263.84,-324.314 255.583,-330.953 261.525,-334.653"/>
<g id="a_edge6&#45;headlabel"><a xlink:href="dir_000031_000055.html" target="_top" xlink:title="2">
<text text-anchor="middle" x="262.034" y="-336.705" font-family="Helvetica,sans-Serif" font-size="10.00">2</text>
</a>
</g>
</g>
<!-- dir_1efe152df2f2e9cd3517b1174a4598d7 -->
<g id="node10" class="node"><title>dir_1efe152df2f2e9cd3517b1174a4598d7</title>
<g id="a_node10"><a xlink:href="dir_1efe152df2f2e9cd3517b1174a4598d7.html" target="_top" xlink:title="Log">
<polygon fill="none" stroke="black" points="217,-36 163,-36 163,-0 217,-0 217,-36"/>
<text text-anchor="middle" x="190" y="-15.5" font-family="Helvetica,sans-Serif" font-size="10.00">Log</text>
</a>
</g>
</g>
<!-- dir_91c141b8e78af59a0323020451a6b6a2&#45;&gt;dir_1efe152df2f2e9cd3517b1174a4598d7 -->
<g id="edge7" class="edge"><title>dir_91c141b8e78af59a0323020451a6b6a2&#45;&gt;dir_1efe152df2f2e9cd3517b1174a4598d7</title>
<path fill="none" stroke="black" d="M204.616,-442.628C151.14,-428.382 38,-388.6 38,-307 38,-307 38,-307 38,-161 38,-97.9536 108.691,-54.8575 153.656,-33.8221"/>
<polygon fill="black" stroke="black" points="155.16,-36.983 162.825,-29.669 152.272,-30.6065 155.16,-36.983"/>
<g id="a_edge7&#45;headlabel"><a xlink:href="dir_000031_000054.html" target="_top" xlink:title="1">
<text text-anchor="middle" x="153.057" y="-38.5523" font-family="Helvetica,sans-Serif" font-size="10.00">1</text>
</a>
</g>
</g>
<!-- dir_ff87cf903db18af0fdb6c342683ece25 -->
<g id="node12" class="node"><title>dir_ff87cf903db18af0fdb6c342683ece25</title>
<g id="a_node12"><a xlink:href="dir_ff87cf903db18af0fdb6c342683ece25.html" target="_top" xlink:title="Utils">
<polygon fill="white" stroke="red" points="468,-180 414,-180 414,-144 468,-144 468,-180"/>
<text text-anchor="middle" x="441" y="-159.5" font-family="Helvetica,sans-Serif" font-size="10.00">Utils</text>
</a>
</g>
</g>
<!-- dir_91c141b8e78af59a0323020451a6b6a2&#45;&gt;dir_ff87cf903db18af0fdb6c342683ece25 -->
<g id="edge8" class="edge"><title>dir_91c141b8e78af59a0323020451a6b6a2&#45;&gt;dir_ff87cf903db18af0fdb6c342683ece25</title>
<path fill="none" stroke="black" d="M259.251,-435.346C262.167,-434.122 265.12,-432.978 268,-432 339.483,-407.725 385.735,-454.048 434,-396 483.071,-336.982 463.276,-237.528 449.72,-189.944"/>
<polygon fill="black" stroke="black" points="452.991,-188.664 446.784,-180.077 446.282,-190.66 452.991,-188.664"/>
<g id="a_edge8&#45;headlabel"><a xlink:href="dir_000031_000073.html" target="_top" xlink:title="1">
<text text-anchor="middle" x="456.738" y="-188.799" font-family="Helvetica,sans-Serif" font-size="10.00">1</text>
</a>
</g>
</g>
<!-- dir_2c6b9e60b5cfd48e3d1f71fa90957520&#45;&gt;dir_1456dd235032e023892318efbecb420b -->
<g id="edge1" class="edge"><title>dir_2c6b9e60b5cfd48e3d1f71fa90957520&#45;&gt;dir_1456dd235032e023892318efbecb420b</title>
<path fill="none" stroke="black" d="M261.648,-378C233.927,-378 206.207,-378 178.486,-378"/>
<polygon fill="black" stroke="black" points="178.273,-374.5 168.273,-378 178.273,-381.5 178.273,-374.5"/>
<g id="a_edge1&#45;headlabel"><a xlink:href="dir_000032_000035.html" target="_top" xlink:title="1">
<text text-anchor="middle" x="181.868" y="-369.161" font-family="Helvetica,sans-Serif" font-size="10.00">1</text>
</a>
</g>
</g>
<!-- dir_2c6b9e60b5cfd48e3d1f71fa90957520&#45;&gt;dir_a1f42069ba95676f6b9abbd5065ccf6d -->
<g id="edge2" class="edge"><title>dir_2c6b9e60b5cfd48e3d1f71fa90957520&#45;&gt;dir_a1f42069ba95676f6b9abbd5065ccf6d</title>
<path fill="none" stroke="black" d="M286.034,-359.697C284.711,-351.983 283.122,-342.712 281.648,-334.112"/>
<polygon fill="black" stroke="black" points="285.072,-333.369 279.932,-324.104 278.172,-334.552 285.072,-333.369"/>
<g id="a_edge2&#45;headlabel"><a xlink:href="dir_000032_000055.html" target="_top" xlink:title="1">
<text text-anchor="middle" x="288.477" y="-333.932" font-family="Helvetica,sans-Serif" font-size="10.00">1</text>
</a>
</g>
</g>
<!-- dir_ac0fb383670ee9a1ad8b9b2a6c61a316 -->
<g id="node4" class="node"><title>dir_ac0fb383670ee9a1ad8b9b2a6c61a316</title>
<g id="a_node4"><a xlink:href="dir_ac0fb383670ee9a1ad8b9b2a6c61a316.html" target="_top" xlink:title="Sequence">
<polygon fill="white" stroke="black" points="434.5,-468 375.5,-468 375.5,-432 434.5,-432 434.5,-468"/>
<text text-anchor="middle" x="405" y="-447.5" font-family="Helvetica,sans-Serif" font-size="10.00">Sequence</text>
</a>
</g>
</g>
<!-- dir_ac0fb383670ee9a1ad8b9b2a6c61a316&#45;&gt;dir_2c6b9e60b5cfd48e3d1f71fa90957520 -->
<g id="edge35" class="edge"><title>dir_ac0fb383670ee9a1ad8b9b2a6c61a316&#45;&gt;dir_2c6b9e60b5cfd48e3d1f71fa90957520</title>
<path fill="none" stroke="black" d="M376.623,-431.876C361.117,-422.519 341.748,-410.831 325.168,-400.825"/>
<polygon fill="black" stroke="black" points="326.655,-397.635 316.285,-395.465 323.039,-403.628 326.655,-397.635"/>
<g id="a_edge35&#45;headlabel"><a xlink:href="dir_000033_000032.html" target="_top" xlink:title="1">
<text text-anchor="middle" x="331.2" y="-394.561" font-family="Helvetica,sans-Serif" font-size="10.00">1</text>
</a>
</g>
</g>
<!-- dir_f5906172d2c9558d453eb81ef8e5bf93 -->
<g id="node11" class="node"><title>dir_f5906172d2c9558d453eb81ef8e5bf93</title>
<g id="a_node11"><a xlink:href="dir_f5906172d2c9558d453eb81ef8e5bf93.html" target="_top" xlink:title="Index">
<polygon fill="none" stroke="black" points="523,-36 469,-36 469,-0 523,-0 523,-36"/>
<text text-anchor="middle" x="496" y="-15.5" font-family="Helvetica,sans-Serif" font-size="10.00">Index</text>
</a>
</g>
</g>
<!-- dir_ac0fb383670ee9a1ad8b9b2a6c61a316&#45;&gt;dir_f5906172d2c9558d453eb81ef8e5bf93 -->
<g id="edge36" class="edge"><title>dir_ac0fb383670ee9a1ad8b9b2a6c61a316&#45;&gt;dir_f5906172d2c9558d453eb81ef8e5bf93</title>
<path fill="none" stroke="black" d="M428.476,-431.995C439.869,-422.589 452.827,-409.984 461,-396 477.645,-367.523 472.138,-356.263 479,-324 499.278,-228.658 508.523,-205.105 517,-108 518.391,-92.0606 520,-87.7162 517,-72 515.293,-63.0559 512.1,-53.6954 508.711,-45.373"/>
<polygon fill="black" stroke="black" points="511.908,-43.9489 504.718,-36.1671 505.486,-46.7341 511.908,-43.9489"/>
<g id="a_edge36&#45;headlabel"><a xlink:href="dir_000033_000053.html" target="_top" xlink:title="1">
<text text-anchor="middle" x="515.943" y="-43.6171" font-family="Helvetica,sans-Serif" font-size="10.00">1</text>
</a>
</g>
</g>
<!-- dir_7370db5ffd6e13fa616902e0fbacb1f0 -->
<g id="node5" class="node"><title>dir_7370db5ffd6e13fa616902e0fbacb1f0</title>
<g id="a_node5"><a xlink:href="dir_7370db5ffd6e13fa616902e0fbacb1f0.html" target="_top" xlink:title="Skinning">
<polygon fill="white" stroke="black" points="259,-540 205,-540 205,-504 259,-504 259,-540"/>
<text text-anchor="middle" x="232" y="-519.5" font-family="Helvetica,sans-Serif" font-size="10.00">Skinning</text>
</a>
</g>
</g>
<!-- dir_7370db5ffd6e13fa616902e0fbacb1f0&#45;&gt;dir_91c141b8e78af59a0323020451a6b6a2 -->
<g id="edge17" class="edge"><title>dir_7370db5ffd6e13fa616902e0fbacb1f0&#45;&gt;dir_91c141b8e78af59a0323020451a6b6a2</title>
<path fill="none" stroke="black" d="M232,-503.697C232,-495.983 232,-486.712 232,-478.112"/>
<polygon fill="black" stroke="black" points="235.5,-478.104 232,-468.104 228.5,-478.104 235.5,-478.104"/>
<g id="a_edge17&#45;headlabel"><a xlink:href="dir_000034_000031.html" target="_top" xlink:title="5">
<text text-anchor="middle" x="238.339" y="-479.199" font-family="Helvetica,sans-Serif" font-size="10.00">5</text>
</a>
</g>
</g>
<!-- dir_7370db5ffd6e13fa616902e0fbacb1f0&#45;&gt;dir_2c6b9e60b5cfd48e3d1f71fa90957520 -->
<g id="edge16" class="edge"><title>dir_7370db5ffd6e13fa616902e0fbacb1f0&#45;&gt;dir_2c6b9e60b5cfd48e3d1f71fa90957520</title>
<path fill="none" stroke="black" d="M259.153,-516.74C286.17,-510.899 326.23,-497.535 345,-468 353.582,-454.496 351.326,-446.696 345,-432 340.211,-420.874 331.81,-410.991 322.95,-402.863"/>
<polygon fill="black" stroke="black" points="325.003,-400.013 315.124,-396.184 320.459,-405.338 325.003,-400.013"/>
<g id="a_edge16&#45;headlabel"><a xlink:href="dir_000034_000032.html" target="_top" xlink:title="5">
<text text-anchor="middle" x="329.58" y="-397.687" font-family="Helvetica,sans-Serif" font-size="10.00">5</text>
</a>
</g>
</g>
<!-- dir_7370db5ffd6e13fa616902e0fbacb1f0&#45;&gt;dir_1456dd235032e023892318efbecb420b -->
<g id="edge18" class="edge"><title>dir_7370db5ffd6e13fa616902e0fbacb1f0&#45;&gt;dir_1456dd235032e023892318efbecb420b</title>
<path fill="none" stroke="black" d="M204.726,-505.767C190.444,-496.528 173.742,-483.528 163,-468 150.193,-449.487 143.328,-424.743 139.731,-406.045"/>
<polygon fill="black" stroke="black" points="143.163,-405.35 138.011,-396.092 136.265,-406.542 143.163,-405.35"/>
<g id="a_edge18&#45;headlabel"><a xlink:href="dir_000034_000035.html" target="_top" xlink:title="4">
<text text-anchor="middle" x="146.573" y="-405.909" font-family="Helvetica,sans-Serif" font-size="10.00">4</text>
</a>
</g>
</g>
<!-- dir_7370db5ffd6e13fa616902e0fbacb1f0&#45;&gt;dir_d080e052e6032887076b6b5756e5361d -->
<g id="edge19" class="edge"><title>dir_7370db5ffd6e13fa616902e0fbacb1f0&#45;&gt;dir_d080e052e6032887076b6b5756e5361d</title>
<path fill="none" stroke="black" d="M204.827,-510.839C160.132,-492.159 76,-447.852 76,-379 76,-379 76,-379 76,-233 76,-131.612 229.209,-102.271 301.755,-94.0603"/>
<polygon fill="black" stroke="black" points="302.267,-97.5258 311.845,-92.9963 301.533,-90.5644 302.267,-97.5258"/>
<g id="a_edge19&#45;headlabel"><a xlink:href="dir_000034_000056.html" target="_top" xlink:title="6">
<text text-anchor="middle" x="298.99" y="-98.2263" font-family="Helvetica,sans-Serif" font-size="10.00">6</text>
</a>
</g>
</g>
<!-- dir_7370db5ffd6e13fa616902e0fbacb1f0&#45;&gt;dir_a1f42069ba95676f6b9abbd5065ccf6d -->
<g id="edge20" class="edge"><title>dir_7370db5ffd6e13fa616902e0fbacb1f0&#45;&gt;dir_a1f42069ba95676f6b9abbd5065ccf6d</title>
<path fill="none" stroke="black" d="M216.39,-503.774C208.627,-494.03 200.054,-481.184 196,-468 191.297,-452.707 192.687,-447.653 196,-432 204.859,-390.147 209.697,-378.494 235,-344 238.305,-339.495 242.244,-335.146 246.366,-331.112"/>
<polygon fill="black" stroke="black" points="248.876,-333.56 253.885,-324.224 244.147,-328.398 248.876,-333.56"/>
<g id="a_edge20&#45;headlabel"><a xlink:href="dir_000034_000055.html" target="_top" xlink:title="4">
<text text-anchor="middle" x="248.143" y="-335.581" font-family="Helvetica,sans-Serif" font-size="10.00">4</text>
</a>
</g>
</g>
<!-- dir_cb2b5dfd43482fb277f6333d539f1f06 -->
<g id="node9" class="node"><title>dir_cb2b5dfd43482fb277f6333d539f1f06</title>
<g id="a_node9"><a xlink:href="dir_cb2b5dfd43482fb277f6333d539f1f06.html" target="_top" xlink:title="Geometry">
<polygon fill="white" stroke="red" points="371.25,-252 312.75,-252 312.75,-216 371.25,-216 371.25,-252"/>
<text text-anchor="middle" x="342" y="-231.5" font-family="Helvetica,sans-Serif" font-size="10.00">Geometry</text>
</a>
</g>
</g>
<!-- dir_7370db5ffd6e13fa616902e0fbacb1f0&#45;&gt;dir_cb2b5dfd43482fb277f6333d539f1f06 -->
<g id="edge21" class="edge"><title>dir_7370db5ffd6e13fa616902e0fbacb1f0&#45;&gt;dir_cb2b5dfd43482fb277f6333d539f1f06</title>
<path fill="none" stroke="black" d="M259.169,-518.263C310.914,-512.43 420.469,-496.89 443,-468 494.902,-401.449 412.71,-304.146 367.944,-259.293"/>
<polygon fill="black" stroke="black" points="370.166,-256.569 360.583,-252.051 365.257,-261.559 370.166,-256.569"/>
<g id="a_edge21&#45;headlabel"><a xlink:href="dir_000034_000040.html" target="_top" xlink:title="1">
<text text-anchor="middle" x="374.72" y="-254.567" font-family="Helvetica,sans-Serif" font-size="10.00">1</text>
</a>
</g>
</g>
<!-- dir_7370db5ffd6e13fa616902e0fbacb1f0&#45;&gt;dir_1efe152df2f2e9cd3517b1174a4598d7 -->
<g id="edge22" class="edge"><title>dir_7370db5ffd6e13fa616902e0fbacb1f0&#45;&gt;dir_1efe152df2f2e9cd3517b1174a4598d7</title>
<path fill="none" stroke="black" d="M204.933,-517.371C143.734,-507.49 0,-474.155 0,-379 0,-379 0,-379 0,-161 0,-114.962 17.8299,-101.708 53,-72 81.8425,-47.6368 123.143,-33.7272 152.846,-26.3284"/>
<polygon fill="black" stroke="black" points="153.899,-29.6764 162.83,-23.9765 152.294,-22.8629 153.899,-29.6764"/>
<g id="a_edge22&#45;headlabel"><a xlink:href="dir_000034_000054.html" target="_top" xlink:title="1">
<text text-anchor="middle" x="151.051" y="-30.7642" font-family="Helvetica,sans-Serif" font-size="10.00">1</text>
</a>
</g>
</g>
<!-- dir_7370db5ffd6e13fa616902e0fbacb1f0&#45;&gt;dir_f5906172d2c9558d453eb81ef8e5bf93 -->
<g id="edge23" class="edge"><title>dir_7370db5ffd6e13fa616902e0fbacb1f0&#45;&gt;dir_f5906172d2c9558d453eb81ef8e5bf93</title>
<path fill="none" stroke="black" d="M259.249,-521.884C339.93,-522.96 572,-514.295 572,-379 572,-379 572,-379 572,-161 572,-115.641 541.483,-70.7492 519.125,-43.9457"/>
<polygon fill="black" stroke="black" points="521.664,-41.5297 512.491,-36.2276 516.355,-46.0926 521.664,-41.5297"/>
<g id="a_edge23&#45;headlabel"><a xlink:href="dir_000034_000053.html" target="_top" xlink:title="1">
<text text-anchor="middle" x="526.16" y="-39.9049" font-family="Helvetica,sans-Serif" font-size="10.00">1</text>
</a>
</g>
</g>
<!-- dir_7370db5ffd6e13fa616902e0fbacb1f0&#45;&gt;dir_ff87cf903db18af0fdb6c342683ece25 -->
<g id="edge24" class="edge"><title>dir_7370db5ffd6e13fa616902e0fbacb1f0&#45;&gt;dir_ff87cf903db18af0fdb6c342683ece25</title>
<path fill="none" stroke="black" d="M259.12,-518.739C314.574,-513.521 437.994,-498.666 465,-468 539.069,-383.894 508.521,-322.622 474,-216 470.911,-206.458 465.743,-196.89 460.404,-188.561"/>
<polygon fill="black" stroke="black" points="463.148,-186.372 454.632,-180.069 457.359,-190.307 463.148,-186.372"/>
<g id="a_edge24&#45;headlabel"><a xlink:href="dir_000034_000073.html" target="_top" xlink:title="1">
<text text-anchor="middle" x="467.517" y="-185.249" font-family="Helvetica,sans-Serif" font-size="10.00">1</text>
</a>
</g>
</g>
<!-- dir_1456dd235032e023892318efbecb420b&#45;&gt;dir_a1f42069ba95676f6b9abbd5065ccf6d -->
<g id="edge9" class="edge"><title>dir_1456dd235032e023892318efbecb420b&#45;&gt;dir_a1f42069ba95676f6b9abbd5065ccf6d</title>
<path fill="none" stroke="black" d="M148.723,-359.971C155.76,-354.416 164.495,-348.52 173,-344 195.6,-331.989 203.175,-333.347 227,-324 231.344,-322.296 235.928,-320.446 240.513,-318.616"/>
<polygon fill="black" stroke="black" points="241.831,-321.859 249.852,-314.938 239.265,-315.346 241.831,-321.859"/>
<g id="a_edge9&#45;headlabel"><a xlink:href="dir_000035_000055.html" target="_top" xlink:title="1">
<text text-anchor="middle" x="239.526" y="-323.318" font-family="Helvetica,sans-Serif" font-size="10.00">1</text>
</a>
</g>
</g>
<!-- dir_d080e052e6032887076b6b5756e5361d&#45;&gt;dir_1456dd235032e023892318efbecb420b -->
<g id="edge10" class="edge"><title>dir_d080e052e6032887076b6b5756e5361d&#45;&gt;dir_1456dd235032e023892318efbecb420b</title>
<path fill="none" stroke="black" d="M319.408,-108.017C283.821,-139.913 208.249,-212.33 165,-288 153.893,-307.433 146.343,-331.718 141.738,-350.009"/>
<polygon fill="black" stroke="black" points="138.331,-349.205 139.42,-359.744 145.141,-350.826 138.331,-349.205"/>
<g id="a_edge10&#45;headlabel"><a xlink:href="dir_000056_000035.html" target="_top" xlink:title="4">
<text text-anchor="middle" x="136.402" y="-342.55" font-family="Helvetica,sans-Serif" font-size="10.00">4</text>
</a>
</g>
</g>
<!-- dir_d080e052e6032887076b6b5756e5361d&#45;&gt;dir_a1f42069ba95676f6b9abbd5065ccf6d -->
<g id="edge11" class="edge"><title>dir_d080e052e6032887076b6b5756e5361d&#45;&gt;dir_a1f42069ba95676f6b9abbd5065ccf6d</title>
<path fill="none" stroke="black" d="M337.893,-108.232C330.647,-145.481 305.336,-233.723 289.389,-278.278"/>
<polygon fill="black" stroke="black" points="286.035,-277.256 285.846,-287.849 292.6,-279.686 286.035,-277.256"/>
<g id="a_edge11&#45;headlabel"><a xlink:href="dir_000056_000055.html" target="_top" xlink:title="8">
<text text-anchor="middle" x="284.62" y="-270.399" font-family="Helvetica,sans-Serif" font-size="10.00">8</text>
</a>
</g>
</g>
<!-- dir_d080e052e6032887076b6b5756e5361d&#45;&gt;dir_cb2b5dfd43482fb277f6333d539f1f06 -->
<g id="edge12" class="edge"><title>dir_d080e052e6032887076b6b5756e5361d&#45;&gt;dir_cb2b5dfd43482fb277f6333d539f1f06</title>
<path fill="none" stroke="black" d="M343.954,-108.189C347.021,-132.424 348.248,-176.888 346.877,-205.679"/>
<polygon fill="black" stroke="black" points="343.37,-205.668 346.223,-215.871 350.356,-206.116 343.37,-205.668"/>
<g id="a_edge12&#45;headlabel"><a xlink:href="dir_000056_000040.html" target="_top" xlink:title="2">
<text text-anchor="middle" x="340.767" y="-199.399" font-family="Helvetica,sans-Serif" font-size="10.00">2</text>
</a>
</g>
</g>
<!-- dir_d080e052e6032887076b6b5756e5361d&#45;&gt;dir_1efe152df2f2e9cd3517b1174a4598d7 -->
<g id="edge13" class="edge"><title>dir_d080e052e6032887076b6b5756e5361d&#45;&gt;dir_1efe152df2f2e9cd3517b1174a4598d7</title>
<path fill="none" stroke="black" d="M311.671,-76.1609C287.727,-64.9121 252.74,-48.4751 226.423,-36.1113"/>
<polygon fill="black" stroke="black" points="227.695,-32.842 217.156,-31.7577 224.718,-39.1777 227.695,-32.842"/>
<g id="a_edge13&#45;headlabel"><a xlink:href="dir_000056_000054.html" target="_top" xlink:title="3">
<text text-anchor="middle" x="232.156" y="-29.3006" font-family="Helvetica,sans-Serif" font-size="10.00">3</text>
</a>
</g>
</g>
<!-- dir_d080e052e6032887076b6b5756e5361d&#45;&gt;dir_f5906172d2c9558d453eb81ef8e5bf93 -->
<g id="edge14" class="edge"><title>dir_d080e052e6032887076b6b5756e5361d&#45;&gt;dir_f5906172d2c9558d453eb81ef8e5bf93</title>
<path fill="none" stroke="black" d="M366.347,-76.8069C392.237,-65.2638 431.275,-47.8584 459.749,-35.1629"/>
<polygon fill="black" stroke="black" points="461.258,-38.3222 468.966,-31.0533 458.407,-31.9289 461.258,-38.3222"/>
<g id="a_edge14&#45;headlabel"><a xlink:href="dir_000056_000053.html" target="_top" xlink:title="14">
<text text-anchor="middle" x="459.131" y="-39.8792" font-family="Helvetica,sans-Serif" font-size="10.00">14</text>
</a>
</g>
</g>
<!-- dir_d080e052e6032887076b6b5756e5361d&#45;&gt;dir_ff87cf903db18af0fdb6c342683ece25 -->
<g id="edge15" class="edge"><title>dir_d080e052e6032887076b6b5756e5361d&#45;&gt;dir_ff87cf903db18af0fdb6c342683ece25</title>
<path fill="none" stroke="black" d="M366.098,-105.738C380.766,-115.002 398.734,-127.155 413.458,-137.705"/>
<polygon fill="black" stroke="black" points="411.555,-140.649 421.702,-143.697 415.671,-134.986 411.555,-140.649"/>
<g id="a_edge15&#45;headlabel"><a xlink:href="dir_000056_000073.html" target="_top" xlink:title="2">
<text text-anchor="middle" x="406.978" y="-138.332" font-family="Helvetica,sans-Serif" font-size="10.00">2</text>
</a>
</g>
</g>
<!-- dir_a1f42069ba95676f6b9abbd5065ccf6d&#45;&gt;dir_1456dd235032e023892318efbecb420b -->
<g id="edge25" class="edge"><title>dir_a1f42069ba95676f6b9abbd5065ccf6d&#45;&gt;dir_1456dd235032e023892318efbecb420b</title>
<path fill="none" stroke="black" d="M249.806,-322.093C248.188,-322.743 246.578,-323.381 245,-324 221.175,-333.347 213.6,-331.989 191,-344 185.418,-346.966 179.738,-350.525 174.218,-354.191"/>
<polygon fill="black" stroke="black" points="172.017,-351.455 165.713,-359.971 175.951,-357.245 172.017,-351.455"/>
<g id="a_edge25&#45;headlabel"><a xlink:href="dir_000055_000035.html" target="_top" xlink:title="3">
<text text-anchor="middle" x="173.394" y="-344.587" font-family="Helvetica,sans-Serif" font-size="10.00">3</text>
</a>
</g>
</g>
<!-- dir_a1f42069ba95676f6b9abbd5065ccf6d&#45;&gt;dir_d080e052e6032887076b6b5756e5361d -->
<g id="edge26" class="edge"><title>dir_a1f42069ba95676f6b9abbd5065ccf6d&#45;&gt;dir_d080e052e6032887076b6b5756e5361d</title>
<path fill="none" stroke="black" d="M278.091,-287.849C285.311,-250.675 310.616,-162.439 326.576,-117.82"/>
<polygon fill="black" stroke="black" points="329.935,-118.826 330.122,-108.232 323.37,-116.397 329.935,-118.826"/>
<g id="a_edge26&#45;headlabel"><a xlink:href="dir_000055_000056.html" target="_top" xlink:title="1">
<text text-anchor="middle" x="331.351" y="-120.682" font-family="Helvetica,sans-Serif" font-size="10.00">1</text>
</a>
</g>
</g>
<!-- dir_a1f42069ba95676f6b9abbd5065ccf6d&#45;&gt;dir_cb2b5dfd43482fb277f6333d539f1f06 -->
<g id="edge27" class="edge"><title>dir_a1f42069ba95676f6b9abbd5065ccf6d&#45;&gt;dir_cb2b5dfd43482fb277f6333d539f1f06</title>
<path fill="none" stroke="black" d="M287.152,-287.697C294.219,-279.135 303.767,-268.656 312.97,-259.304"/>
<polygon fill="black" stroke="black" points="315.592,-261.634 320.222,-252.104 310.66,-256.666 315.592,-261.634"/>
<g id="a_edge27&#45;headlabel"><a xlink:href="dir_000055_000040.html" target="_top" xlink:title="2">
<text text-anchor="middle" x="315.041" y="-263.681" font-family="Helvetica,sans-Serif" font-size="10.00">2</text>
</a>
</g>
</g>
<!-- dir_cb2b5dfd43482fb277f6333d539f1f06&#45;&gt;dir_91c141b8e78af59a0323020451a6b6a2 -->
<g id="edge28" class="edge"><title>dir_cb2b5dfd43482fb277f6333d539f1f06&#45;&gt;dir_91c141b8e78af59a0323020451a6b6a2</title>
<path fill="none" stroke="black" d="M344.95,-252.177C349.38,-283.56 354.375,-351.066 325,-396 321.371,-401.552 292.867,-417.394 268.361,-430.323"/>
<polygon fill="black" stroke="black" points="266.46,-427.367 259.225,-435.108 269.708,-433.568 266.46,-427.367"/>
<g id="a_edge28&#45;headlabel"><a xlink:href="dir_000040_000031.html" target="_top" xlink:title="1">
<text text-anchor="middle" x="268.327" y="-420.685" font-family="Helvetica,sans-Serif" font-size="10.00">1</text>
</a>
</g>
</g>
<!-- dir_cb2b5dfd43482fb277f6333d539f1f06&#45;&gt;dir_1456dd235032e023892318efbecb420b -->
<g id="edge29" class="edge"><title>dir_cb2b5dfd43482fb277f6333d539f1f06&#45;&gt;dir_1456dd235032e023892318efbecb420b</title>
<path fill="none" stroke="black" d="M312.74,-248.239C292.038,-258.105 263.987,-272.503 241,-288 236.88,-290.778 193.774,-327.53 164.091,-352.927"/>
<polygon fill="black" stroke="black" points="161.439,-350.589 156.118,-359.751 165.991,-355.907 161.439,-350.589"/>
<g id="a_edge29&#45;headlabel"><a xlink:href="dir_000040_000035.html" target="_top" xlink:title="12">
<text text-anchor="middle" x="162.324" y="-343.595" font-family="Helvetica,sans-Serif" font-size="10.00">12</text>
</a>
</g>
</g>
<!-- dir_cb2b5dfd43482fb277f6333d539f1f06&#45;&gt;dir_d080e052e6032887076b6b5756e5361d -->
<g id="edge30" class="edge"><title>dir_cb2b5dfd43482fb277f6333d539f1f06&#45;&gt;dir_d080e052e6032887076b6b5756e5361d</title>
<path fill="none" stroke="black" d="M337.054,-215.871C333.984,-191.67 332.753,-147.211 334.12,-118.393"/>
<polygon fill="black" stroke="black" points="337.627,-118.392 334.772,-108.189 330.641,-117.945 337.627,-118.392"/>
<g id="a_edge30&#45;headlabel"><a xlink:href="dir_000040_000056.html" target="_top" xlink:title="10">
<text text-anchor="middle" x="340.231" y="-119.661" font-family="Helvetica,sans-Serif" font-size="10.00">10</text>
</a>
</g>
</g>
<!-- dir_cb2b5dfd43482fb277f6333d539f1f06&#45;&gt;dir_a1f42069ba95676f6b9abbd5065ccf6d -->
<g id="edge31" class="edge"><title>dir_cb2b5dfd43482fb277f6333d539f1f06&#45;&gt;dir_a1f42069ba95676f6b9abbd5065ccf6d</title>
<path fill="none" stroke="black" d="M332.012,-252.104C324.984,-260.636 315.453,-271.108 306.245,-280.478"/>
<polygon fill="black" stroke="black" points="303.607,-278.164 298.983,-287.697 308.543,-283.128 303.607,-278.164"/>
<g id="a_edge31&#45;headlabel"><a xlink:href="dir_000040_000055.html" target="_top" xlink:title="14">
<text text-anchor="middle" x="304.155" y="-271.116" font-family="Helvetica,sans-Serif" font-size="10.00">14</text>
</a>
</g>
</g>
<!-- dir_cb2b5dfd43482fb277f6333d539f1f06&#45;&gt;dir_1efe152df2f2e9cd3517b1174a4598d7 -->
<g id="edge32" class="edge"><title>dir_cb2b5dfd43482fb277f6333d539f1f06&#45;&gt;dir_1efe152df2f2e9cd3517b1174a4598d7</title>
<path fill="none" stroke="black" d="M329.818,-215.849C303.136,-178.284 239.418,-88.5755 208.06,-44.426"/>
<polygon fill="black" stroke="black" points="210.884,-42.3584 202.24,-36.2325 205.177,-46.412 210.884,-42.3584"/>
<g id="a_edge32&#45;headlabel"><a xlink:href="dir_000040_000054.html" target="_top" xlink:title="2">
<text text-anchor="middle" x="215.28" y="-41.1449" font-family="Helvetica,sans-Serif" font-size="10.00">2</text>
</a>
</g>
</g>
<!-- dir_cb2b5dfd43482fb277f6333d539f1f06&#45;&gt;dir_f5906172d2c9558d453eb81ef8e5bf93 -->
<g id="edge33" class="edge"><title>dir_cb2b5dfd43482fb277f6333d539f1f06&#45;&gt;dir_f5906172d2c9558d453eb81ef8e5bf93</title>
<path fill="none" stroke="black" d="M371.428,-230.14C402.877,-225.403 451.624,-212.895 477,-180 506.913,-141.224 504.941,-80.7813 500.608,-46.0384"/>
<polygon fill="black" stroke="black" points="504.074,-45.5513 499.22,-36.1337 497.142,-46.5226 504.074,-45.5513"/>
<g id="a_edge33&#45;headlabel"><a xlink:href="dir_000040_000053.html" target="_top" xlink:title="5">
<text text-anchor="middle" x="507.384" y="-46.2172" font-family="Helvetica,sans-Serif" font-size="10.00">5</text>
</a>
</g>
</g>
<!-- dir_cb2b5dfd43482fb277f6333d539f1f06&#45;&gt;dir_ff87cf903db18af0fdb6c342683ece25 -->
<g id="edge34" class="edge"><title>dir_cb2b5dfd43482fb277f6333d539f1f06&#45;&gt;dir_ff87cf903db18af0fdb6c342683ece25</title>
<path fill="none" stroke="black" d="M366.218,-215.876C378.923,-206.893 394.664,-195.763 408.423,-186.034"/>
<polygon fill="black" stroke="black" points="410.544,-188.821 416.689,-180.19 406.503,-183.105 410.544,-188.821"/>
<g id="a_edge34&#45;headlabel"><a xlink:href="dir_000040_000073.html" target="_top" xlink:title="1">
<text text-anchor="middle" x="409.248" y="-190.714" font-family="Helvetica,sans-Serif" font-size="10.00">1</text>
</a>
</g>
</g>
<!-- dir_ff87cf903db18af0fdb6c342683ece25&#45;&gt;dir_1456dd235032e023892318efbecb420b -->
<g id="edge38" class="edge"><title>dir_ff87cf903db18af0fdb6c342683ece25&#45;&gt;dir_1456dd235032e023892318efbecb420b</title>
<path fill="none" stroke="black" d="M413.63,-170.979C364.841,-186.401 261.973,-224.497 198,-288 178.935,-306.925 161.865,-332.395 150.487,-351.239"/>
<polygon fill="black" stroke="black" points="147.444,-349.509 145.375,-359.9 153.472,-353.067 147.444,-349.509"/>
<g id="a_edge38&#45;headlabel"><a xlink:href="dir_000073_000035.html" target="_top" xlink:title="3">
<text text-anchor="middle" x="146.826" y="-342.47" font-family="Helvetica,sans-Serif" font-size="10.00">3</text>
</a>
</g>
</g>
<!-- dir_ff87cf903db18af0fdb6c342683ece25&#45;&gt;dir_d080e052e6032887076b6b5756e5361d -->
<g id="edge39" class="edge"><title>dir_ff87cf903db18af0fdb6c342683ece25&#45;&gt;dir_d080e052e6032887076b6b5756e5361d</title>
<path fill="none" stroke="black" d="M413.732,-146.155C398.976,-136.828 380.915,-124.606 366.182,-114.037"/>
<polygon fill="black" stroke="black" points="368.086,-111.095 357.941,-108.04 363.967,-116.754 368.086,-111.095"/>
<g id="a_edge39&#45;headlabel"><a xlink:href="dir_000073_000056.html" target="_top" xlink:title="1">
<text text-anchor="middle" x="372.664" y="-108.414" font-family="Helvetica,sans-Serif" font-size="10.00">1</text>
</a>
</g>
</g>
<!-- dir_ff87cf903db18af0fdb6c342683ece25&#45;&gt;dir_1efe152df2f2e9cd3517b1174a4598d7 -->
<g id="edge40" class="edge"><title>dir_ff87cf903db18af0fdb6c342683ece25&#45;&gt;dir_1efe152df2f2e9cd3517b1174a4598d7</title>
<path fill="none" stroke="black" d="M432.76,-143.921C422.165,-123.759 401.881,-90.6228 375,-72 329.999,-40.8244 266.813,-27.8444 227.158,-22.5394"/>
<polygon fill="black" stroke="black" points="227.476,-19.052 217.121,-21.2935 226.613,-25.9987 227.476,-19.052"/>
<g id="a_edge40&#45;headlabel"><a xlink:href="dir_000073_000054.html" target="_top" xlink:title="1">
<text text-anchor="middle" x="231.393" y="-14.177" font-family="Helvetica,sans-Serif" font-size="10.00">1</text>
</a>
</g>
</g>
<!-- dir_ff87cf903db18af0fdb6c342683ece25&#45;&gt;dir_f5906172d2c9558d453eb81ef8e5bf93 -->
<g id="edge41" class="edge"><title>dir_ff87cf903db18af0fdb6c342683ece25&#45;&gt;dir_f5906172d2c9558d453eb81ef8e5bf93</title>
<path fill="none" stroke="black" d="M447.634,-143.871C457.091,-119.457 474.532,-74.4258 485.684,-45.6351"/>
<polygon fill="black" stroke="black" points="488.994,-46.7784 489.342,-36.1893 482.467,-44.2501 488.994,-46.7784"/>
<g id="a_edge41&#45;headlabel"><a xlink:href="dir_000073_000053.html" target="_top" xlink:title="1">
<text text-anchor="middle" x="490.343" y="-48.6558" font-family="Helvetica,sans-Serif" font-size="10.00">1</text>
</a>
</g>
</g>
</g>
</svg>
