<?xml version="1.0" encoding="UTF-8" standalone="no"?>
<!DOCTYPE svg PUBLIC "-//W3C//DTD SVG 1.1//EN"
 "http://www.w3.org/Graphics/SVG/1.1/DTD/svg11.dtd">
<!-- Generated by graphviz version 2.36.0 (20140111.2315)
 -->
<!-- Title: /home/travis/build/STORM&#45;IRIT/Radium&#45;Engine/src/Engine/Component Pages: 1 -->
<svg width="275pt" height="260pt"
 viewBox="0.00 0.00 275.45 260.00" xmlns="http://www.w3.org/2000/svg" xmlns:xlink="http://www.w3.org/1999/xlink">
<g id="graph0" class="graph" transform="scale(1 1) rotate(0) translate(4 256)">
<title>/home/travis/build/STORM&#45;IRIT/Radium&#45;Engine/src/Engine/Component</title>
<polygon fill="white" stroke="none" points="-4,4 -4,-256 271.451,-256 271.451,4 -4,4"/>
<g id="clust1" class="cluster"><title>clusterdir_3072bc1f55ed1280fe4fbe6b21c78379</title>
<g id="a_clust1"><a xlink:href="dir_3072bc1f55ed1280fe4fbe6b21c78379.html" target="_top" xlink:title="Engine">
<polygon fill="#ddddee" stroke="black" points="37.0366,-136 37.0366,-207 121.037,-207 121.037,-136 37.0366,-136"/>
<text text-anchor="middle" x="79.0366" y="-195" font-family="Helvetica,sans-Serif" font-size="10.00">Engine</text>
</a>
</g>
</g>
<!-- dir_d0f3276f03e9a9cb8f8ba3f2a5ea1262 -->
<g id="node1" class="node"><title>dir_d0f3276f03e9a9cb8f8ba3f2a5ea1262</title>
<g id="a_node1"><a xlink:href="dir_d0f3276f03e9a9cb8f8ba3f2a5ea1262.html" target="_top" xlink:title="Component">
<polygon fill="#eeeeff" stroke="black" points="112.287,-180 45.7866,-180 45.7866,-144 112.287,-144 112.287,-180"/>
<text text-anchor="middle" x="79.0366" y="-159.5" font-family="Helvetica,sans-Serif" font-size="10.00">Component</text>
</a>
</g>
</g>
<!-- dir_a2f0e5642e47e7ed59fe0f0829eafb5f -->
<g id="node2" class="node"><title>dir_a2f0e5642e47e7ed59fe0f0829eafb5f</title>
<g id="a_node2"><a xlink:href="dir_a2f0e5642e47e7ed59fe0f0829eafb5f.html" target="_top" xlink:title="Core">
<polygon fill="white" stroke="red" points="202.037,-252 148.037,-252 148.037,-216 202.037,-216 202.037,-252"/>
<text text-anchor="middle" x="175.037" y="-231.5" font-family="Helvetica,sans-Serif" font-size="10.00">Core</text>
</a>
</g>
</g>
<!-- dir_d0f3276f03e9a9cb8f8ba3f2a5ea1262&#45;&gt;dir_a2f0e5642e47e7ed59fe0f0829eafb5f -->
<g id="edge17" class="edge"><title>dir_d0f3276f03e9a9cb8f8ba3f2a5ea1262&#45;&gt;dir_a2f0e5642e47e7ed59fe0f0829eafb5f</title>
<path fill="none" stroke="black" d="M102.373,-180.174C113.466,-188.322 126.921,-198.183 139.037,-207 140.408,-207.998 141.81,-209.017 143.226,-210.045"/>
<polygon fill="black" stroke="black" points="141.242,-212.93 151.394,-215.962 145.349,-207.261 141.242,-212.93"/>
<g id="a_edge17&#45;headlabel"><a xlink:href="dir_000076_000022.html" target="_top" xlink:title="5">
<text text-anchor="middle" x="136.666" y="-210.62" font-family="Helvetica,sans-Serif" font-size="10.00">5</text>
</a>
</g>
</g>
<!-- dir_7205f054df4e14abb60715afe3e7e90c -->
<g id="node3" class="node"><title>dir_7205f054df4e14abb60715afe3e7e90c</title>
<g id="a_node3"><a xlink:href="dir_7205f054df4e14abb60715afe3e7e90c.html" target="_top" xlink:title="Entity">
<polygon fill="none" stroke="black" points="202.037,-180 148.037,-180 148.037,-144 202.037,-144 202.037,-180"/>
<text text-anchor="middle" x="175.037" y="-159.5" font-family="Helvetica,sans-Serif" font-size="10.00">Entity</text>
</a>
</g>
</g>
<!-- dir_d0f3276f03e9a9cb8f8ba3f2a5ea1262&#45;&gt;dir_7205f054df4e14abb60715afe3e7e90c -->
<g id="edge18" class="edge"><title>dir_d0f3276f03e9a9cb8f8ba3f2a5ea1262&#45;&gt;dir_7205f054df4e14abb60715afe3e7e90c</title>
<path fill="none" stroke="black" d="M112.412,-162C120.76,-162 129.107,-162 137.455,-162"/>
<polygon fill="black" stroke="black" points="137.638,-165.5 147.638,-162 137.638,-158.5 137.638,-165.5"/>
<g id="a_edge18&#45;headlabel"><a xlink:href="dir_000076_000077.html" target="_top" xlink:title="1">
<text text-anchor="middle" x="134.044" y="-165.839" font-family="Helvetica,sans-Serif" font-size="10.00">1</text>
</a>
</g>
</g>
<!-- dir_eecdbbfa89a6d9af25d920c499e6f44e -->
<g id="node4" class="node"><title>dir_eecdbbfa89a6d9af25d920c499e6f44e</title>
<g id="a_node4"><a xlink:href="dir_eecdbbfa89a6d9af25d920c499e6f44e.html" target="_top" xlink:title="System">
<polygon fill="none" stroke="black" points="110.037,-36 56.0366,-36 56.0366,-0 110.037,-0 110.037,-36"/>
<text text-anchor="middle" x="83.0366" y="-15.5" font-family="Helvetica,sans-Serif" font-size="10.00">System</text>
</a>
</g>
</g>
<!-- dir_d0f3276f03e9a9cb8f8ba3f2a5ea1262&#45;&gt;dir_eecdbbfa89a6d9af25d920c499e6f44e -->
<g id="edge19" class="edge"><title>dir_d0f3276f03e9a9cb8f8ba3f2a5ea1262&#45;&gt;dir_eecdbbfa89a6d9af25d920c499e6f44e</title>
<path fill="none" stroke="black" d="M73.213,-143.56C70.1052,-133.33 66.6052,-120.08 65.0366,-108 62.9763,-92.1332 62.4291,-87.7861 65.0366,-72 66.4777,-63.2752 69.1687,-54.0563 72.039,-45.7969"/>
<polygon fill="black" stroke="black" points="75.3667,-46.889 75.5569,-36.2958 68.8023,-44.4583 75.3667,-46.889"/>
<g id="a_edge19&#45;headlabel"><a xlink:href="dir_000076_000097.html" target="_top" xlink:title="1">
<text text-anchor="middle" x="76.7813" y="-48.7458" font-family="Helvetica,sans-Serif" font-size="10.00">1</text>
</a>
</g>
</g>
<!-- dir_06113b60808b1bbb52a01dfd2c3a8657 -->
<g id="node5" class="node"><title>dir_06113b60808b1bbb52a01dfd2c3a8657</title>
<g id="a_node5"><a xlink:href="dir_06113b60808b1bbb52a01dfd2c3a8657.html" target="_top" xlink:title="Managers">
<polygon fill="white" stroke="red" points="222.287,-108 163.787,-108 163.787,-72 222.287,-72 222.287,-108"/>
<text text-anchor="middle" x="193.037" y="-87.5" font-family="Helvetica,sans-Serif" font-size="10.00">Managers</text>
</a>
</g>
</g>
<!-- dir_d0f3276f03e9a9cb8f8ba3f2a5ea1262&#45;&gt;dir_06113b60808b1bbb52a01dfd2c3a8657 -->
<g id="edge20" class="edge"><title>dir_d0f3276f03e9a9cb8f8ba3f2a5ea1262&#45;&gt;dir_06113b60808b1bbb52a01dfd2c3a8657</title>
<path fill="none" stroke="black" d="M106.924,-143.876C121.83,-134.724 140.366,-123.342 156.418,-113.485"/>
<polygon fill="black" stroke="black" points="158.352,-116.405 165.042,-108.19 154.689,-110.44 158.352,-116.405"/>
<g id="a_edge20&#45;headlabel"><a xlink:href="dir_000076_000079.html" target="_top" xlink:title="1">
<text text-anchor="middle" x="156.774" y="-118.205" font-family="Helvetica,sans-Serif" font-size="10.00">1</text>
</a>
</g>
</g>
<!-- dir_54018506bb725509c19b38b6d9bcf0f6 -->
<g id="node6" class="node"><title>dir_54018506bb725509c19b38b6d9bcf0f6</title>
<g id="a_node6"><a xlink:href="dir_54018506bb725509c19b38b6d9bcf0f6.html" target="_top" xlink:title="Renderer">
<polygon fill="white" stroke="red" points="249.537,-36 194.537,-36 194.537,-0 249.537,-0 249.537,-36"/>
<text text-anchor="middle" x="222.037" y="-15.5" font-family="Helvetica,sans-Serif" font-size="10.00">Renderer</text>
</a>
</g>
</g>
<!-- dir_d0f3276f03e9a9cb8f8ba3f2a5ea1262&#45;&gt;dir_54018506bb725509c19b38b6d9bcf0f6 -->
<g id="edge21" class="edge"><title>dir_d0f3276f03e9a9cb8f8ba3f2a5ea1262&#45;&gt;dir_54018506bb725509c19b38b6d9bcf0f6</title>
<path fill="none" stroke="black" d="M91.8829,-143.682C106.096,-125.043 130.161,-94.9806 154.037,-72 164.971,-61.4757 177.91,-50.9742 189.551,-42.1283"/>
<polygon fill="black" stroke="black" points="191.835,-44.7917 197.752,-36.0031 187.645,-39.1835 191.835,-44.7917"/>
<g id="a_edge21&#45;headlabel"><a xlink:href="dir_000076_000086.html" target="_top" xlink:title="3">
<text text-anchor="middle" x="190.654" y="-46.7175" font-family="Helvetica,sans-Serif" font-size="10.00">3</text>
</a>
</g>
</g>
<!-- dir_a2f0e5642e47e7ed59fe0f0829eafb5f&#45;&gt;dir_7205f054df4e14abb60715afe3e7e90c -->
<g id="edge1" class="edge"><title>dir_a2f0e5642e47e7ed59fe0f0829eafb5f&#45;&gt;dir_7205f054df4e14abb60715afe3e7e90c</title>
<path fill="none" stroke="black" d="M169.121,-215.697C168.325,-207.983 168.099,-198.712 168.441,-190.112"/>
<polygon fill="black" stroke="black" points="171.935,-190.324 169.142,-180.104 164.952,-189.836 171.935,-190.324"/>
<g id="a_edge1&#45;headlabel"><a xlink:href="dir_000022_000077.html" target="_top" xlink:title="1">
<text text-anchor="middle" x="174.516" y="-191.608" font-family="Helvetica,sans-Serif" font-size="10.00">1</text>
</a>
</g>
</g>
<!-- dir_a2f0e5642e47e7ed59fe0f0829eafb5f&#45;&gt;dir_54018506bb725509c19b38b6d9bcf0f6 -->
<g id="edge2" class="edge"><title>dir_a2f0e5642e47e7ed59fe0f0829eafb5f&#45;&gt;dir_54018506bb725509c19b38b6d9bcf0f6</title>
<path fill="none" stroke="black" d="M202.206,-221.514C208.848,-217.849 215.341,-213.102 220.037,-207 256.987,-158.979 252.734,-131.023 239.037,-72 236.961,-63.0569 233.155,-53.8831 229.468,-45.735"/>
<polygon fill="black" stroke="black" points="232.524,-44.0028 225.156,-36.3894 226.168,-46.9358 232.524,-44.0028"/>
<g id="a_edge2&#45;headlabel"><a xlink:href="dir_000022_000086.html" target="_top" xlink:title="1">
<text text-anchor="middle" x="236.608" y="-43.5771" font-family="Helvetica,sans-Serif" font-size="10.00">1</text>
</a>
</g>
</g>
<!-- dir_7205f054df4e14abb60715afe3e7e90c&#45;&gt;dir_d0f3276f03e9a9cb8f8ba3f2a5ea1262 -->
<g id="edge6" class="edge"><title>dir_7205f054df4e14abb60715afe3e7e90c&#45;&gt;dir_d0f3276f03e9a9cb8f8ba3f2a5ea1262</title>
<path fill="none" stroke="black" d="M147.638,-162C139.29,-162 130.942,-162 122.594,-162"/>
<polygon fill="black" stroke="black" points="122.412,-158.5 112.412,-162 122.412,-165.5 122.412,-158.5"/>
<g id="a_edge6&#45;headlabel"><a xlink:href="dir_000077_000076.html" target="_top" xlink:title="1">
<text text-anchor="middle" x="126.006" y="-153.161" font-family="Helvetica,sans-Serif" font-size="10.00">1</text>
</a>
</g>
</g>
<!-- dir_7205f054df4e14abb60715afe3e7e90c&#45;&gt;dir_a2f0e5642e47e7ed59fe0f0829eafb5f -->
<g id="edge3" class="edge"><title>dir_7205f054df4e14abb60715afe3e7e90c&#45;&gt;dir_a2f0e5642e47e7ed59fe0f0829eafb5f</title>
<path fill="none" stroke="black" d="M180.932,-180.104C181.737,-187.791 181.973,-197.054 181.641,-205.665"/>
<polygon fill="black" stroke="black" points="178.145,-205.48 180.952,-215.697 185.129,-205.96 178.145,-205.48"/>
<g id="a_edge3&#45;headlabel"><a xlink:href="dir_000077_000022.html" target="_top" xlink:title="4">
<text text-anchor="middle" x="175.558" y="-199.2" font-family="Helvetica,sans-Serif" font-size="10.00">4</text>
</a>
</g>
</g>
<!-- dir_7205f054df4e14abb60715afe3e7e90c&#45;&gt;dir_eecdbbfa89a6d9af25d920c499e6f44e -->
<g id="edge4" class="edge"><title>dir_7205f054df4e14abb60715afe3e7e90c&#45;&gt;dir_eecdbbfa89a6d9af25d920c499e6f44e</title>
<path fill="none" stroke="black" d="M159.355,-143.871C140.876,-119.35 111.25,-74.0321 94.6699,-45.2589"/>
<polygon fill="black" stroke="black" points="97.5273,-43.1985 89.5824,-36.1893 91.4222,-46.6232 97.5273,-43.1985"/>
<g id="a_edge4&#45;headlabel"><a xlink:href="dir_000077_000097.html" target="_top" xlink:title="1">
<text text-anchor="middle" x="101.762" y="-42.4445" font-family="Helvetica,sans-Serif" font-size="10.00">1</text>
</a>
</g>
</g>
<!-- dir_7205f054df4e14abb60715afe3e7e90c&#45;&gt;dir_06113b60808b1bbb52a01dfd2c3a8657 -->
<g id="edge5" class="edge"><title>dir_7205f054df4e14abb60715afe3e7e90c&#45;&gt;dir_06113b60808b1bbb52a01dfd2c3a8657</title>
<path fill="none" stroke="black" d="M173.57,-143.697C174.771,-135.898 176.963,-126.509 179.554,-117.829"/>
<polygon fill="black" stroke="black" points="182.953,-118.697 182.743,-108.104 176.301,-116.516 182.953,-118.697"/>
<g id="a_edge5&#45;headlabel"><a xlink:href="dir_000077_000079.html" target="_top" xlink:title="1">
<text text-anchor="middle" x="184.53" y="-120.498" font-family="Helvetica,sans-Serif" font-size="10.00">1</text>
</a>
</g>
</g>
<!-- dir_eecdbbfa89a6d9af25d920c499e6f44e&#45;&gt;dir_d0f3276f03e9a9cb8f8ba3f2a5ea1262 -->
<g id="edge9" class="edge"><title>dir_eecdbbfa89a6d9af25d920c499e6f44e&#45;&gt;dir_d0f3276f03e9a9cb8f8ba3f2a5ea1262</title>
<path fill="none" stroke="black" d="M56.9125,-36.1842C45.4578,-45.3075 33.2286,-57.6143 27.0366,-72 20.7109,-86.6964 20.9841,-93.1889 27.0366,-108 31.5246,-118.983 39.507,-128.919 47.891,-137.142"/>
<polygon fill="black" stroke="black" points="45.545,-139.739 55.2845,-143.91 50.2717,-134.576 45.545,-139.739"/>
<g id="a_edge9&#45;headlabel"><a xlink:href="dir_000097_000076.html" target="_top" xlink:title="1">
<text text-anchor="middle" x="40.9765" y="-136.906" font-family="Helvetica,sans-Serif" font-size="10.00">1</text>
</a>
</g>
</g>
<!-- dir_eecdbbfa89a6d9af25d920c499e6f44e&#45;&gt;dir_a2f0e5642e47e7ed59fe0f0829eafb5f -->
<g id="edge7" class="edge"><title>dir_eecdbbfa89a6d9af25d920c499e6f44e&#45;&gt;dir_a2f0e5642e47e7ed59fe0f0829eafb5f</title>
<path fill="none" stroke="black" d="M55.9402,-33.612C42.1492,-42.6626 26.7105,-55.6813 19.0366,-72 -6.63337,-126.587 -8.74254,-163.489 33.0366,-207 47.158,-221.707 100.688,-228.222 137.83,-231.017"/>
<polygon fill="black" stroke="black" points="137.606,-234.51 147.825,-231.711 138.091,-227.527 137.606,-234.51"/>
<g id="a_edge7&#45;headlabel"><a xlink:href="dir_000097_000022.html" target="_top" xlink:title="1">
<text text-anchor="middle" x="133.824" y="-234.594" font-family="Helvetica,sans-Serif" font-size="10.00">1</text>
</a>
</g>
</g>
<!-- dir_eecdbbfa89a6d9af25d920c499e6f44e&#45;&gt;dir_7205f054df4e14abb60715afe3e7e90c -->
<g id="edge8" class="edge"><title>dir_eecdbbfa89a6d9af25d920c499e6f44e&#45;&gt;dir_7205f054df4e14abb60715afe3e7e90c</title>
<path fill="none" stroke="black" d="M98.7642,-36.1893C117.262,-60.7447 146.886,-106.066 163.444,-134.812"/>
<polygon fill="black" stroke="black" points="160.58,-136.861 168.524,-143.871 166.686,-133.437 160.58,-136.861"/>
<g id="a_edge8&#45;headlabel"><a xlink:href="dir_000097_000077.html" target="_top" xlink:title="1">
<text text-anchor="middle" x="156.346" y="-132.614" font-family="Helvetica,sans-Serif" font-size="10.00">1</text>
</a>
</g>
</g>
<!-- dir_06113b60808b1bbb52a01dfd2c3a8657&#45;&gt;dir_a2f0e5642e47e7ed59fe0f0829eafb5f -->
<g id="edge10" class="edge"><title>dir_06113b60808b1bbb52a01dfd2c3a8657&#45;&gt;dir_a2f0e5642e47e7ed59fe0f0829eafb5f</title>
<path fill="none" stroke="black" d="M201.813,-108.147C212.567,-131.725 227.459,-174.882 211.037,-207 210.444,-208.158 209.774,-209.277 209.038,-210.356"/>
<polygon fill="black" stroke="black" points="206.386,-208.071 202.328,-217.858 211.603,-212.738 206.386,-208.071"/>
<g id="a_edge10&#45;headlabel"><a xlink:href="dir_000079_000022.html" target="_top" xlink:title="16">
<text text-anchor="middle" x="206.666" y="-200.999" font-family="Helvetica,sans-Serif" font-size="10.00">16</text>
</a>
</g>
</g>
<!-- dir_06113b60808b1bbb52a01dfd2c3a8657&#45;&gt;dir_7205f054df4e14abb60715afe3e7e90c -->
<g id="edge11" class="edge"><title>dir_06113b60808b1bbb52a01dfd2c3a8657&#45;&gt;dir_7205f054df4e14abb60715afe3e7e90c</title>
<path fill="none" stroke="black" d="M194.533,-108.104C193.349,-115.876 191.169,-125.257 188.585,-133.949"/>
<polygon fill="black" stroke="black" points="185.179,-133.104 185.402,-143.697 191.834,-135.277 185.179,-133.104"/>
<g id="a_edge11&#45;headlabel"><a xlink:href="dir_000079_000077.html" target="_top" xlink:title="3">
<text text-anchor="middle" x="183.596" y="-126.306" font-family="Helvetica,sans-Serif" font-size="10.00">3</text>
</a>
</g>
</g>
<!-- dir_06113b60808b1bbb52a01dfd2c3a8657&#45;&gt;dir_eecdbbfa89a6d9af25d920c499e6f44e -->
<g id="edge12" class="edge"><title>dir_06113b60808b1bbb52a01dfd2c3a8657&#45;&gt;dir_eecdbbfa89a6d9af25d920c499e6f44e</title>
<path fill="none" stroke="black" d="M166.128,-71.8761C151.878,-62.8083 134.19,-51.5523 118.801,-41.7592"/>
<polygon fill="black" stroke="black" points="120.365,-38.6057 110.049,-36.1898 116.607,-44.5114 120.365,-38.6057"/>
<g id="a_edge12&#45;headlabel"><a xlink:href="dir_000079_000097.html" target="_top" xlink:title="2">
<text text-anchor="middle" x="124.922" y="-35.6402" font-family="Helvetica,sans-Serif" font-size="10.00">2</text>
</a>
</g>
</g>
<!-- dir_06113b60808b1bbb52a01dfd2c3a8657&#45;&gt;dir_54018506bb725509c19b38b6d9bcf0f6 -->
<g id="edge13" class="edge"><title>dir_06113b60808b1bbb52a01dfd2c3a8657&#45;&gt;dir_54018506bb725509c19b38b6d9bcf0f6</title>
<path fill="none" stroke="black" d="M194.289,-71.6966C196.769,-63.7284 200.543,-54.0995 204.596,-45.2641"/>
<polygon fill="black" stroke="black" points="207.825,-46.6275 209.055,-36.1043 201.531,-43.5634 207.825,-46.6275"/>
<g id="a_edge13&#45;headlabel"><a xlink:href="dir_000079_000086.html" target="_top" xlink:title="19">
<text text-anchor="middle" x="208.805" y="-48.6022" font-family="Helvetica,sans-Serif" font-size="10.00">19</text>
</a>
</g>
</g>
<!-- dir_54018506bb725509c19b38b6d9bcf0f6&#45;&gt;dir_a2f0e5642e47e7ed59fe0f0829eafb5f -->
<g id="edge14" class="edge"><title>dir_54018506bb725509c19b38b6d9bcf0f6&#45;&gt;dir_a2f0e5642e47e7ed59fe0f0829eafb5f</title>
<path fill="none" stroke="black" d="M241.01,-36.3894C247.773,-46.3849 254.117,-59.4206 257.037,-72 270.734,-131.023 274.987,-158.979 238.037,-207 231.593,-215.374 221.765,-221.196 211.689,-225.172"/>
<polygon fill="black" stroke="black" points="210.4,-221.913 202.056,-228.442 212.65,-228.542 210.4,-221.913"/>
<g id="a_edge14&#45;headlabel"><a xlink:href="dir_000086_000022.html" target="_top" xlink:title="53">
<text text-anchor="middle" x="212.891" y="-215.569" font-family="Helvetica,sans-Serif" font-size="10.00">53</text>
</a>
</g>
</g>
<!-- dir_54018506bb725509c19b38b6d9bcf0f6&#45;&gt;dir_7205f054df4e14abb60715afe3e7e90c -->
<g id="edge15" class="edge"><title>dir_54018506bb725509c19b38b6d9bcf0f6&#45;&gt;dir_7205f054df4e14abb60715afe3e7e90c</title>
<path fill="none" stroke="black" d="M228.59,-36.1574C234.58,-54.6596 241.106,-84.6056 231.037,-108 226.247,-119.126 217.847,-129.009 208.986,-137.137"/>
<polygon fill="black" stroke="black" points="206.495,-134.662 201.161,-143.816 211.039,-139.987 206.495,-134.662"/>
<g id="a_edge15&#45;headlabel"><a xlink:href="dir_000086_000077.html" target="_top" xlink:title="3">
<text text-anchor="middle" x="207.386" y="-127.669" font-family="Helvetica,sans-Serif" font-size="10.00">3</text>
</a>
</g>
</g>
<!-- dir_54018506bb725509c19b38b6d9bcf0f6&#45;&gt;dir_06113b60808b1bbb52a01dfd2c3a8657 -->
<g id="edge16" class="edge"><title>dir_54018506bb725509c19b38b6d9bcf0f6&#45;&gt;dir_06113b60808b1bbb52a01dfd2c3a8657</title>
<path fill="none" stroke="black" d="M220.846,-36.1043C218.388,-44.0447 214.627,-53.6661 210.578,-62.5146"/>
<polygon fill="black" stroke="black" points="207.339,-61.1721 206.121,-71.6966 213.637,-64.2292 207.339,-61.1721"/>
<g id="a_edge16&#45;headlabel"><a xlink:href="dir_000086_000079.html" target="_top" xlink:title="6">
<text text-anchor="middle" x="206.355" y="-54.1985" font-family="Helvetica,sans-Serif" font-size="10.00">6</text>
</a>
</g>
</g>
</g>
</svg>
