<?xml version="1.0" encoding="UTF-8" standalone="no"?>
<!DOCTYPE svg PUBLIC "-//W3C//DTD SVG 1.1//EN"
 "http://www.w3.org/Graphics/SVG/1.1/DTD/svg11.dtd">
<!-- Generated by graphviz version 2.36.0 (20140111.2315)
 -->
<!-- Title: /home/travis/build/STORM&#45;IRIT/Radium&#45;Engine/src/Core/File Pages: 1 -->
<svg width="541pt" height="591pt"
 viewBox="0.00 0.00 541.00 591.00" xmlns="http://www.w3.org/2000/svg" xmlns:xlink="http://www.w3.org/1999/xlink">
<g id="graph0" class="graph" transform="scale(1 1) rotate(0) translate(4 587)">
<title>/home/travis/build/STORM&#45;IRIT/Radium&#45;Engine/src/Core/File</title>
<polygon fill="white" stroke="none" points="-4,4 -4,-587 537,-587 537,4 -4,4"/>
<g id="clust1" class="cluster"><title>clusterdir_a2f0e5642e47e7ed59fe0f0829eafb5f</title>
<g id="a_clust1"><a xlink:href="dir_a2f0e5642e47e7ed59fe0f0829eafb5f.html" target="_top" xlink:title="Core">
<polygon fill="#ddddee" stroke="black" points="160,-416 160,-575 330,-575 330,-416 160,-416"/>
<text text-anchor="middle" x="245" y="-563" font-family="Helvetica,sans-Serif" font-size="10.00">Core</text>
</a>
</g>
</g>
<g id="clust2" class="cluster"><title>clusterdir_82af7cf9869521097845e89346391773</title>
<g id="a_clust2"><a xlink:href="dir_82af7cf9869521097845e89346391773.html" target="_top">
<polygon fill="#eeeeff" stroke="black" points="168,-424 168,-548 322,-548 322,-424 168,-424"/>
</a>
</g>
</g>
<!-- dir_82af7cf9869521097845e89346391773 -->
<g id="node1" class="node"><title>dir_82af7cf9869521097845e89346391773</title>
<text text-anchor="middle" x="203" y="-519.5" font-family="Helvetica,sans-Serif" font-size="10.00">File</text>
</g>
<!-- dir_84dea4501da675271f82d01829a4a019 -->
<g id="node3" class="node"><title>dir_84dea4501da675271f82d01829a4a019</title>
<g id="a_node3"><a xlink:href="dir_84dea4501da675271f82d01829a4a019.html" target="_top" xlink:title="KeyFrame">
<polygon fill="white" stroke="black" points="237.5,-468 176.5,-468 176.5,-432 237.5,-432 237.5,-468"/>
<text text-anchor="middle" x="207" y="-447.5" font-family="Helvetica,sans-Serif" font-size="10.00">KeyFrame</text>
</a>
</g>
</g>
<!-- dir_82af7cf9869521097845e89346391773&#45;&gt;dir_84dea4501da675271f82d01829a4a019 -->
<g id="edge27" class="edge"><title>dir_82af7cf9869521097845e89346391773&#45;&gt;dir_84dea4501da675271f82d01829a4a019</title>
<path fill="none" stroke="black" d="M203.989,-503.697C204.43,-495.983 204.959,-486.712 205.451,-478.112"/>
<polygon fill="black" stroke="black" points="208.946,-478.288 206.023,-468.104 201.958,-477.888 208.946,-478.288"/>
<g id="a_edge27&#45;headlabel"><a xlink:href="dir_000037_000039.html" target="_top" xlink:title="2">
<text text-anchor="middle" x="211.576" y="-479.538" font-family="Helvetica,sans-Serif" font-size="10.00">2</text>
</a>
</g>
</g>
<!-- dir_1456dd235032e023892318efbecb420b -->
<g id="node4" class="node"><title>dir_1456dd235032e023892318efbecb420b</title>
<g id="a_node4"><a xlink:href="dir_1456dd235032e023892318efbecb420b.html" target="_top" xlink:title="Containers">
<polygon fill="none" stroke="black" points="239,-396 175,-396 175,-360 239,-360 239,-396"/>
<text text-anchor="middle" x="207" y="-375.5" font-family="Helvetica,sans-Serif" font-size="10.00">Containers</text>
</a>
</g>
</g>
<!-- dir_82af7cf9869521097845e89346391773&#45;&gt;dir_1456dd235032e023892318efbecb420b -->
<g id="edge26" class="edge"><title>dir_82af7cf9869521097845e89346391773&#45;&gt;dir_1456dd235032e023892318efbecb420b</title>
<path fill="none" stroke="black" d="M222.039,-503.837C231.176,-494.3 241.168,-481.624 246,-468 253.725,-446.218 255.124,-437.234 246,-416 244.075,-411.52 241.311,-407.327 238.131,-403.491"/>
<polygon fill="black" stroke="black" points="240.577,-400.984 231.154,-396.14 235.499,-405.803 240.577,-400.984"/>
<g id="a_edge26&#45;headlabel"><a xlink:href="dir_000037_000035.html" target="_top" xlink:title="6">
<text text-anchor="middle" x="245.111" y="-399.136" font-family="Helvetica,sans-Serif" font-size="10.00">6</text>
</a>
</g>
</g>
<!-- dir_a1f42069ba95676f6b9abbd5065ccf6d -->
<g id="node6" class="node"><title>dir_a1f42069ba95676f6b9abbd5065ccf6d</title>
<g id="a_node6"><a xlink:href="dir_a1f42069ba95676f6b9abbd5065ccf6d.html" target="_top" xlink:title="Math">
<polygon fill="none" stroke="black" points="332,-324 278,-324 278,-288 332,-288 332,-324"/>
<text text-anchor="middle" x="305" y="-303.5" font-family="Helvetica,sans-Serif" font-size="10.00">Math</text>
</a>
</g>
</g>
<!-- dir_82af7cf9869521097845e89346391773&#45;&gt;dir_a1f42069ba95676f6b9abbd5065ccf6d -->
<g id="edge28" class="edge"><title>dir_82af7cf9869521097845e89346391773&#45;&gt;dir_a1f42069ba95676f6b9abbd5065ccf6d</title>
<path fill="none" stroke="black" d="M229.185,-503.92C241.443,-494.663 255.24,-482.212 264,-468 289.949,-425.904 299.53,-367.982 303.029,-334.312"/>
<polygon fill="black" stroke="black" points="306.52,-334.565 303.964,-324.283 299.55,-333.915 306.52,-334.565"/>
<g id="a_edge28&#45;headlabel"><a xlink:href="dir_000037_000055.html" target="_top" xlink:title="7">
<text text-anchor="middle" x="309.014" y="-335.908" font-family="Helvetica,sans-Serif" font-size="10.00">7</text>
</a>
</g>
</g>
<!-- dir_1efe152df2f2e9cd3517b1174a4598d7 -->
<g id="node8" class="node"><title>dir_1efe152df2f2e9cd3517b1174a4598d7</title>
<g id="a_node8"><a xlink:href="dir_1efe152df2f2e9cd3517b1174a4598d7.html" target="_top" xlink:title="Log">
<polygon fill="none" stroke="black" points="182,-36 128,-36 128,-0 182,-0 182,-36"/>
<text text-anchor="middle" x="155" y="-15.5" font-family="Helvetica,sans-Serif" font-size="10.00">Log</text>
</a>
</g>
</g>
<!-- dir_82af7cf9869521097845e89346391773&#45;&gt;dir_1efe152df2f2e9cd3517b1174a4598d7 -->
<g id="edge29" class="edge"><title>dir_82af7cf9869521097845e89346391773&#45;&gt;dir_1efe152df2f2e9cd3517b1174a4598d7</title>
<path fill="none" stroke="black" d="M175.749,-518.468C141.086,-513.928 81.159,-501.488 43,-468 9.98155,-439.023 0,-422.93 0,-379 0,-379 0,-379 0,-161 0,-97.1157 72.472,-54.2039 118.306,-33.4531"/>
<polygon fill="black" stroke="black" points="119.89,-36.58 127.646,-29.3619 117.082,-30.1681 119.89,-36.58"/>
<g id="a_edge29&#45;headlabel"><a xlink:href="dir_000037_000054.html" target="_top" xlink:title="7">
<text text-anchor="middle" x="117.737" y="-38.1229" font-family="Helvetica,sans-Serif" font-size="10.00">7</text>
</a>
</g>
</g>
<!-- dir_f5906172d2c9558d453eb81ef8e5bf93 -->
<g id="node9" class="node"><title>dir_f5906172d2c9558d453eb81ef8e5bf93</title>
<g id="a_node9"><a xlink:href="dir_f5906172d2c9558d453eb81ef8e5bf93.html" target="_top" xlink:title="Index">
<polygon fill="none" stroke="black" points="314,-36 260,-36 260,-0 314,-0 314,-36"/>
<text text-anchor="middle" x="287" y="-15.5" font-family="Helvetica,sans-Serif" font-size="10.00">Index</text>
</a>
</g>
</g>
<!-- dir_82af7cf9869521097845e89346391773&#45;&gt;dir_f5906172d2c9558d453eb81ef8e5bf93 -->
<g id="edge30" class="edge"><title>dir_82af7cf9869521097845e89346391773&#45;&gt;dir_f5906172d2c9558d453eb81ef8e5bf93</title>
<path fill="none" stroke="black" d="M230.246,-507.331C233.163,-506.11 236.118,-504.971 239,-504 373.557,-458.672 533,-520.987 533,-379 533,-379 533,-379 533,-161 533,-118.162 528.414,-100.007 496,-72 447.386,-29.9962 370.015,-20.4914 324.298,-18.7887"/>
<polygon fill="black" stroke="black" points="324.309,-15.2878 314.219,-18.5211 324.123,-22.2854 324.309,-15.2878"/>
<g id="a_edge30&#45;headlabel"><a xlink:href="dir_000037_000053.html" target="_top" xlink:title="1">
<text text-anchor="middle" x="327.977" y="-10.0448" font-family="Helvetica,sans-Serif" font-size="10.00">1</text>
</a>
</g>
</g>
<!-- dir_3072bc1f55ed1280fe4fbe6b21c78379 -->
<g id="node10" class="node"><title>dir_3072bc1f55ed1280fe4fbe6b21c78379</title>
<g id="a_node10"><a xlink:href="dir_3072bc1f55ed1280fe4fbe6b21c78379.html" target="_top" xlink:title="Engine">
<polygon fill="white" stroke="red" points="400,-468 346,-468 346,-432 400,-432 400,-468"/>
<text text-anchor="middle" x="373" y="-447.5" font-family="Helvetica,sans-Serif" font-size="10.00">Engine</text>
</a>
</g>
</g>
<!-- dir_82af7cf9869521097845e89346391773&#45;&gt;dir_3072bc1f55ed1280fe4fbe6b21c78379 -->
<g id="edge31" class="edge"><title>dir_82af7cf9869521097845e89346391773&#45;&gt;dir_3072bc1f55ed1280fe4fbe6b21c78379</title>
<path fill="none" stroke="black" d="M230.041,-508.001C233.051,-506.623 236.083,-505.264 239,-504 271.609,-489.87 309.289,-475.102 336.371,-464.755"/>
<polygon fill="black" stroke="black" points="337.739,-467.979 345.841,-461.152 335.25,-461.437 337.739,-467.979"/>
<g id="a_edge31&#45;headlabel"><a xlink:href="dir_000037_000075.html" target="_top" xlink:title="1">
<text text-anchor="middle" x="335.389" y="-469.411" font-family="Helvetica,sans-Serif" font-size="10.00">1</text>
</a>
</g>
</g>
<!-- dir_721a74ea40d2768c46a3c9514389a16b -->
<g id="node11" class="node"><title>dir_721a74ea40d2768c46a3c9514389a16b</title>
<g id="a_node11"><a xlink:href="dir_721a74ea40d2768c46a3c9514389a16b.html" target="_top" xlink:title="Animation">
<polygon fill="white" stroke="red" points="126.5,-180 67.5,-180 67.5,-144 126.5,-144 126.5,-180"/>
<text text-anchor="middle" x="97" y="-159.5" font-family="Helvetica,sans-Serif" font-size="10.00">Animation</text>
</a>
</g>
</g>
<!-- dir_82af7cf9869521097845e89346391773&#45;&gt;dir_721a74ea40d2768c46a3c9514389a16b -->
<g id="edge32" class="edge"><title>dir_82af7cf9869521097845e89346391773&#45;&gt;dir_721a74ea40d2768c46a3c9514389a16b</title>
<path fill="none" stroke="black" d="M175.754,-511.87C128.889,-494.245 38,-450.808 38,-379 38,-379 38,-379 38,-305 38,-261.827 61.5447,-216.533 78.887,-189.027"/>
<polygon fill="black" stroke="black" points="81.973,-190.701 84.4876,-180.409 76.1036,-186.887 81.973,-190.701"/>
<g id="a_edge32&#45;headlabel"><a xlink:href="dir_000037_000030.html" target="_top" xlink:title="2">
<text text-anchor="middle" x="82.3949" y="-192.762" font-family="Helvetica,sans-Serif" font-size="10.00">2</text>
</a>
</g>
</g>
<!-- dir_ae4577f0adf729a8fb4ff646d07da33a -->
<g id="node2" class="node"><title>dir_ae4577f0adf729a8fb4ff646d07da33a</title>
<g id="a_node2"><a xlink:href="dir_ae4577f0adf729a8fb4ff646d07da33a.html" target="_top" xlink:title="deprecated">
<polygon fill="white" stroke="black" points="313.25,-540 248.75,-540 248.75,-504 313.25,-504 313.25,-540"/>
<text text-anchor="middle" x="281" y="-519.5" font-family="Helvetica,sans-Serif" font-size="10.00">deprecated</text>
</a>
</g>
</g>
<!-- dir_d080e052e6032887076b6b5756e5361d -->
<g id="node5" class="node"><title>dir_d080e052e6032887076b6b5756e5361d</title>
<g id="a_node5"><a xlink:href="dir_d080e052e6032887076b6b5756e5361d.html" target="_top" xlink:title="Mesh">
<polygon fill="white" stroke="red" points="314,-108 260,-108 260,-72 314,-72 314,-108"/>
<text text-anchor="middle" x="287" y="-87.5" font-family="Helvetica,sans-Serif" font-size="10.00">Mesh</text>
</a>
</g>
</g>
<!-- dir_ae4577f0adf729a8fb4ff646d07da33a&#45;&gt;dir_d080e052e6032887076b6b5756e5361d -->
<g id="edge10" class="edge"><title>dir_ae4577f0adf729a8fb4ff646d07da33a&#45;&gt;dir_d080e052e6032887076b6b5756e5361d</title>
<path fill="none" stroke="black" d="M313.341,-517.585C343.799,-512.46 387.818,-499.696 409,-468 489.587,-347.409 459.88,-257.833 370,-144 357.778,-128.521 339.717,-116.23 323.561,-107.397"/>
<polygon fill="black" stroke="black" points="324.815,-104.104 314.327,-102.598 321.586,-110.315 324.815,-104.104"/>
<g id="a_edge10&#45;headlabel"><a xlink:href="dir_000038_000056.html" target="_top" xlink:title="2">
<text text-anchor="middle" x="329.314" y="-100.742" font-family="Helvetica,sans-Serif" font-size="10.00">2</text>
</a>
</g>
</g>
<!-- dir_cb2b5dfd43482fb277f6333d539f1f06 -->
<g id="node7" class="node"><title>dir_cb2b5dfd43482fb277f6333d539f1f06</title>
<g id="a_node7"><a xlink:href="dir_cb2b5dfd43482fb277f6333d539f1f06.html" target="_top" xlink:title="Geometry">
<polygon fill="white" stroke="red" points="258.25,-252 199.75,-252 199.75,-216 258.25,-216 258.25,-252"/>
<text text-anchor="middle" x="229" y="-231.5" font-family="Helvetica,sans-Serif" font-size="10.00">Geometry</text>
</a>
</g>
</g>
<!-- dir_ae4577f0adf729a8fb4ff646d07da33a&#45;&gt;dir_cb2b5dfd43482fb277f6333d539f1f06 -->
<g id="edge11" class="edge"><title>dir_ae4577f0adf729a8fb4ff646d07da33a&#45;&gt;dir_cb2b5dfd43482fb277f6333d539f1f06</title>
<path fill="none" stroke="black" d="M248.655,-506.971C215.815,-492.577 169.44,-471.767 167,-468 123.907,-401.466 178.497,-305.865 209.831,-260.611"/>
<polygon fill="black" stroke="black" points="212.826,-262.438 215.752,-252.255 207.115,-258.391 212.826,-262.438"/>
<g id="a_edge11&#45;headlabel"><a xlink:href="dir_000038_000040.html" target="_top" xlink:title="1">
<text text-anchor="middle" x="213.065" y="-264.512" font-family="Helvetica,sans-Serif" font-size="10.00">1</text>
</a>
</g>
</g>
<!-- dir_84dea4501da675271f82d01829a4a019&#45;&gt;dir_1456dd235032e023892318efbecb420b -->
<g id="edge7" class="edge"><title>dir_84dea4501da675271f82d01829a4a019&#45;&gt;dir_1456dd235032e023892318efbecb420b</title>
<path fill="none" stroke="black" d="M207,-431.697C207,-423.983 207,-414.712 207,-406.112"/>
<polygon fill="black" stroke="black" points="210.5,-406.104 207,-396.104 203.5,-406.104 210.5,-406.104"/>
<g id="a_edge7&#45;headlabel"><a xlink:href="dir_000039_000035.html" target="_top" xlink:title="1">
<text text-anchor="middle" x="213.339" y="-407.199" font-family="Helvetica,sans-Serif" font-size="10.00">1</text>
</a>
</g>
</g>
<!-- dir_84dea4501da675271f82d01829a4a019&#45;&gt;dir_a1f42069ba95676f6b9abbd5065ccf6d -->
<g id="edge8" class="edge"><title>dir_84dea4501da675271f82d01829a4a019&#45;&gt;dir_a1f42069ba95676f6b9abbd5065ccf6d</title>
<path fill="none" stroke="black" d="M221.065,-431.628C229.171,-421.421 239.421,-408.171 248,-396 262.674,-375.184 278.193,-350.776 289.326,-332.791"/>
<polygon fill="black" stroke="black" points="292.461,-334.376 294.721,-324.025 286.499,-330.707 292.461,-334.376"/>
<g id="a_edge8&#45;headlabel"><a xlink:href="dir_000039_000055.html" target="_top" xlink:title="2">
<text text-anchor="middle" x="292.995" y="-336.425" font-family="Helvetica,sans-Serif" font-size="10.00">2</text>
</a>
</g>
</g>
<!-- dir_84dea4501da675271f82d01829a4a019&#45;&gt;dir_721a74ea40d2768c46a3c9514389a16b -->
<g id="edge9" class="edge"><title>dir_84dea4501da675271f82d01829a4a019&#45;&gt;dir_721a74ea40d2768c46a3c9514389a16b</title>
<path fill="none" stroke="black" d="M191.263,-431.934C182.815,-422.039 172.777,-408.997 166,-396 129.779,-326.538 109.801,-235.256 101.559,-190.354"/>
<polygon fill="black" stroke="black" points="104.955,-189.463 99.757,-180.231 98.0638,-190.69 104.955,-189.463"/>
<g id="a_edge9&#45;headlabel"><a xlink:href="dir_000039_000030.html" target="_top" xlink:title="1">
<text text-anchor="middle" x="108.381" y="-190.005" font-family="Helvetica,sans-Serif" font-size="10.00">1</text>
</a>
</g>
</g>
<!-- dir_1456dd235032e023892318efbecb420b&#45;&gt;dir_a1f42069ba95676f6b9abbd5065ccf6d -->
<g id="edge1" class="edge"><title>dir_1456dd235032e023892318efbecb420b&#45;&gt;dir_a1f42069ba95676f6b9abbd5065ccf6d</title>
<path fill="none" stroke="black" d="M225.309,-359.697C237.686,-350.153 254.27,-338.226 269.157,-328.134"/>
<polygon fill="black" stroke="black" points="271.312,-330.903 277.681,-322.436 267.422,-325.084 271.312,-330.903"/>
<g id="a_edge1&#45;headlabel"><a xlink:href="dir_000035_000055.html" target="_top" xlink:title="1">
<text text-anchor="middle" x="269.902" y="-332.761" font-family="Helvetica,sans-Serif" font-size="10.00">1</text>
</a>
</g>
</g>
<!-- dir_d080e052e6032887076b6b5756e5361d&#45;&gt;dir_1456dd235032e023892318efbecb420b -->
<g id="edge2" class="edge"><title>dir_d080e052e6032887076b6b5756e5361d&#45;&gt;dir_1456dd235032e023892318efbecb420b</title>
<path fill="none" stroke="black" d="M286.674,-108.289C285.71,-138.18 281.916,-201.192 267,-252 256.418,-288.046 236.44,-326.598 222.454,-351.204"/>
<polygon fill="black" stroke="black" points="219.392,-349.508 217.42,-359.918 225.453,-353.01 219.392,-349.508"/>
<g id="a_edge2&#45;headlabel"><a xlink:href="dir_000056_000035.html" target="_top" xlink:title="4">
<text text-anchor="middle" x="218.732" y="-342.475" font-family="Helvetica,sans-Serif" font-size="10.00">4</text>
</a>
</g>
</g>
<!-- dir_d080e052e6032887076b6b5756e5361d&#45;&gt;dir_a1f42069ba95676f6b9abbd5065ccf6d -->
<g id="edge3" class="edge"><title>dir_d080e052e6032887076b6b5756e5361d&#45;&gt;dir_a1f42069ba95676f6b9abbd5065ccf6d</title>
<path fill="none" stroke="black" d="M300.586,-108.455C304.781,-118.69 308.281,-131.94 310,-144 316.662,-190.754 316.275,-245.899 312.654,-278.01"/>
<polygon fill="black" stroke="black" points="309.179,-277.592 311.308,-287.971 316.116,-278.53 309.179,-277.592"/>
<g id="a_edge3&#45;headlabel"><a xlink:href="dir_000056_000055.html" target="_top" xlink:title="8">
<text text-anchor="middle" x="306.847" y="-271.15" font-family="Helvetica,sans-Serif" font-size="10.00">8</text>
</a>
</g>
</g>
<!-- dir_d080e052e6032887076b6b5756e5361d&#45;&gt;dir_cb2b5dfd43482fb277f6333d539f1f06 -->
<g id="edge4" class="edge"><title>dir_d080e052e6032887076b6b5756e5361d&#45;&gt;dir_cb2b5dfd43482fb277f6333d539f1f06</title>
<path fill="none" stroke="black" d="M284.57,-108.189C277.129,-132.745 258.878,-178.066 245.071,-206.812"/>
<polygon fill="black" stroke="black" points="241.886,-205.357 240.581,-215.871 248.158,-208.466 241.886,-205.357"/>
<g id="a_edge4&#45;headlabel"><a xlink:href="dir_000056_000040.html" target="_top" xlink:title="2">
<text text-anchor="middle" x="240.938" y="-198.376" font-family="Helvetica,sans-Serif" font-size="10.00">2</text>
</a>
</g>
</g>
<!-- dir_d080e052e6032887076b6b5756e5361d&#45;&gt;dir_1efe152df2f2e9cd3517b1174a4598d7 -->
<g id="edge5" class="edge"><title>dir_d080e052e6032887076b6b5756e5361d&#45;&gt;dir_1efe152df2f2e9cd3517b1174a4598d7</title>
<path fill="none" stroke="black" d="M259.969,-74.6655C240.17,-64.1658 213.081,-49.8004 191.381,-38.293"/>
<polygon fill="black" stroke="black" points="192.923,-35.1488 182.448,-33.5558 189.643,-41.333 192.923,-35.1488"/>
<g id="a_edge5&#45;headlabel"><a xlink:href="dir_000056_000054.html" target="_top" xlink:title="3">
<text text-anchor="middle" x="197.428" y="-31.8245" font-family="Helvetica,sans-Serif" font-size="10.00">3</text>
</a>
</g>
</g>
<!-- dir_d080e052e6032887076b6b5756e5361d&#45;&gt;dir_f5906172d2c9558d453eb81ef8e5bf93 -->
<g id="edge6" class="edge"><title>dir_d080e052e6032887076b6b5756e5361d&#45;&gt;dir_f5906172d2c9558d453eb81ef8e5bf93</title>
<path fill="none" stroke="black" d="M287,-71.6966C287,-63.9827 287,-54.7125 287,-46.1124"/>
<polygon fill="black" stroke="black" points="290.5,-46.1043 287,-36.1043 283.5,-46.1044 290.5,-46.1043"/>
<g id="a_edge6&#45;headlabel"><a xlink:href="dir_000056_000053.html" target="_top" xlink:title="14">
<text text-anchor="middle" x="293.339" y="-47.199" font-family="Helvetica,sans-Serif" font-size="10.00">14</text>
</a>
</g>
</g>
<!-- dir_a1f42069ba95676f6b9abbd5065ccf6d&#45;&gt;dir_1456dd235032e023892318efbecb420b -->
<g id="edge12" class="edge"><title>dir_a1f42069ba95676f6b9abbd5065ccf6d&#45;&gt;dir_1456dd235032e023892318efbecb420b</title>
<path fill="none" stroke="black" d="M286.838,-324.19C275.184,-333.183 259.758,-344.316 245.53,-354.037"/>
<polygon fill="black" stroke="black" points="243.205,-351.383 236.871,-359.876 247.119,-357.187 243.205,-351.383"/>
<g id="a_edge12&#45;headlabel"><a xlink:href="dir_000055_000035.html" target="_top" xlink:title="3">
<text text-anchor="middle" x="244.598" y="-344.52" font-family="Helvetica,sans-Serif" font-size="10.00">3</text>
</a>
</g>
</g>
<!-- dir_a1f42069ba95676f6b9abbd5065ccf6d&#45;&gt;dir_d080e052e6032887076b6b5756e5361d -->
<g id="edge13" class="edge"><title>dir_a1f42069ba95676f6b9abbd5065ccf6d&#45;&gt;dir_d080e052e6032887076b6b5756e5361d</title>
<path fill="none" stroke="black" d="M300.437,-287.971C298.097,-258.474 299.416,-196.039 292,-144 290.792,-135.52 288.703,-126.452 286.892,-118.258"/>
<polygon fill="black" stroke="black" points="290.315,-117.523 284.836,-108.455 283.464,-118.961 290.315,-117.523"/>
<g id="a_edge13&#45;headlabel"><a xlink:href="dir_000055_000056.html" target="_top" xlink:title="1">
<text text-anchor="middle" x="293.831" y="-117.959" font-family="Helvetica,sans-Serif" font-size="10.00">1</text>
</a>
</g>
</g>
<!-- dir_a1f42069ba95676f6b9abbd5065ccf6d&#45;&gt;dir_cb2b5dfd43482fb277f6333d539f1f06 -->
<g id="edge14" class="edge"><title>dir_a1f42069ba95676f6b9abbd5065ccf6d&#45;&gt;dir_cb2b5dfd43482fb277f6333d539f1f06</title>
<path fill="none" stroke="black" d="M280.298,-287.697C270.119,-279.135 258.56,-268.656 248.926,-259.304"/>
<polygon fill="black" stroke="black" points="251.237,-256.667 241.675,-252.104 246.305,-261.634 251.237,-256.667"/>
<g id="a_edge14&#45;headlabel"><a xlink:href="dir_000055_000040.html" target="_top" xlink:title="2">
<text text-anchor="middle" x="255.789" y="-254.685" font-family="Helvetica,sans-Serif" font-size="10.00">2</text>
</a>
</g>
</g>
<!-- dir_cb2b5dfd43482fb277f6333d539f1f06&#45;&gt;dir_1456dd235032e023892318efbecb420b -->
<g id="edge15" class="edge"><title>dir_cb2b5dfd43482fb277f6333d539f1f06&#45;&gt;dir_1456dd235032e023892318efbecb420b</title>
<path fill="none" stroke="black" d="M226.337,-252.189C222.582,-276.424 215.693,-320.888 211.233,-349.679"/>
<polygon fill="black" stroke="black" points="207.726,-349.453 209.654,-359.871 214.644,-350.525 207.726,-349.453"/>
<g id="a_edge15&#45;headlabel"><a xlink:href="dir_000040_000035.html" target="_top" xlink:title="12">
<text text-anchor="middle" x="205.471" y="-342.967" font-family="Helvetica,sans-Serif" font-size="10.00">12</text>
</a>
</g>
</g>
<!-- dir_cb2b5dfd43482fb277f6333d539f1f06&#45;&gt;dir_d080e052e6032887076b6b5756e5361d -->
<g id="edge16" class="edge"><title>dir_cb2b5dfd43482fb277f6333d539f1f06&#45;&gt;dir_d080e052e6032887076b6b5756e5361d</title>
<path fill="none" stroke="black" d="M231.412,-215.871C238.835,-191.35 257.08,-146.032 270.895,-117.259"/>
<polygon fill="black" stroke="black" points="274.085,-118.704 275.388,-108.189 267.813,-115.596 274.085,-118.704"/>
<g id="a_edge16&#45;headlabel"><a xlink:href="dir_000040_000056.html" target="_top" xlink:title="10">
<text text-anchor="middle" x="275.034" y="-120.685" font-family="Helvetica,sans-Serif" font-size="10.00">10</text>
</a>
</g>
</g>
<!-- dir_cb2b5dfd43482fb277f6333d539f1f06&#45;&gt;dir_a1f42069ba95676f6b9abbd5065ccf6d -->
<g id="edge17" class="edge"><title>dir_cb2b5dfd43482fb277f6333d539f1f06&#45;&gt;dir_a1f42069ba95676f6b9abbd5065ccf6d</title>
<path fill="none" stroke="black" d="M253.465,-252.104C263.622,-260.636 275.185,-271.108 284.849,-280.478"/>
<polygon fill="black" stroke="black" points="282.564,-283.141 292.129,-287.697 287.493,-278.17 282.564,-283.141"/>
<g id="a_edge17&#45;headlabel"><a xlink:href="dir_000040_000055.html" target="_top" xlink:title="14">
<text text-anchor="middle" x="278.012" y="-280.126" font-family="Helvetica,sans-Serif" font-size="10.00">14</text>
</a>
</g>
</g>
<!-- dir_cb2b5dfd43482fb277f6333d539f1f06&#45;&gt;dir_1efe152df2f2e9cd3517b1174a4598d7 -->
<g id="edge18" class="edge"><title>dir_cb2b5dfd43482fb277f6333d539f1f06&#45;&gt;dir_1efe152df2f2e9cd3517b1174a4598d7</title>
<path fill="none" stroke="black" d="M223.069,-215.849C210.215,-178.675 179.703,-90.4388 164.274,-45.8204"/>
<polygon fill="black" stroke="black" points="167.535,-44.5395 160.959,-36.2325 160.919,-46.8272 167.535,-44.5395"/>
<g id="a_edge18&#45;headlabel"><a xlink:href="dir_000040_000054.html" target="_top" xlink:title="2">
<text text-anchor="middle" x="171.393" y="-44.5089" font-family="Helvetica,sans-Serif" font-size="10.00">2</text>
</a>
</g>
</g>
<!-- dir_cb2b5dfd43482fb277f6333d539f1f06&#45;&gt;dir_f5906172d2c9558d453eb81ef8e5bf93 -->
<g id="edge19" class="edge"><title>dir_cb2b5dfd43482fb277f6333d539f1f06&#45;&gt;dir_f5906172d2c9558d453eb81ef8e5bf93</title>
<path fill="none" stroke="black" d="M228.808,-215.918C229.014,-185.813 231.906,-121.783 251,-72 254.666,-62.442 260.349,-52.9065 266.124,-44.6126"/>
<polygon fill="black" stroke="black" points="269.004,-46.6037 272.096,-36.47 263.36,-42.4638 269.004,-46.6037"/>
<g id="a_edge19&#45;headlabel"><a xlink:href="dir_000040_000053.html" target="_top" xlink:title="5">
<text text-anchor="middle" x="269.168" y="-48.6815" font-family="Helvetica,sans-Serif" font-size="10.00">5</text>
</a>
</g>
</g>
<!-- dir_cb2b5dfd43482fb277f6333d539f1f06&#45;&gt;dir_721a74ea40d2768c46a3c9514389a16b -->
<g id="edge20" class="edge"><title>dir_cb2b5dfd43482fb277f6333d539f1f06&#45;&gt;dir_721a74ea40d2768c46a3c9514389a16b</title>
<path fill="none" stroke="black" d="M199.425,-220.161C179.581,-210.397 153.474,-196.723 132.527,-185.198"/>
<polygon fill="black" stroke="black" points="134.045,-182.037 123.603,-180.242 130.646,-188.157 134.045,-182.037"/>
<g id="a_edge20&#45;headlabel"><a xlink:href="dir_000040_000030.html" target="_top" xlink:title="1">
<text text-anchor="middle" x="138.566" y="-178.8" font-family="Helvetica,sans-Serif" font-size="10.00">1</text>
</a>
</g>
</g>
<!-- dir_3072bc1f55ed1280fe4fbe6b21c78379&#45;&gt;dir_1456dd235032e023892318efbecb420b -->
<g id="edge21" class="edge"><title>dir_3072bc1f55ed1280fe4fbe6b21c78379&#45;&gt;dir_1456dd235032e023892318efbecb420b</title>
<path fill="none" stroke="black" d="M351.41,-431.73C343.712,-426.156 334.769,-420.31 326,-416 301.559,-403.988 272.384,-394.843 249.038,-388.65"/>
<polygon fill="black" stroke="black" points="249.648,-385.193 239.091,-386.095 247.906,-391.973 249.648,-385.193"/>
<g id="a_edge21&#45;headlabel"><a xlink:href="dir_000075_000035.html" target="_top" xlink:title="5">
<text text-anchor="middle" x="253.836" y="-380.838" font-family="Helvetica,sans-Serif" font-size="10.00">5</text>
</a>
</g>
</g>
<!-- dir_3072bc1f55ed1280fe4fbe6b21c78379&#45;&gt;dir_d080e052e6032887076b6b5756e5361d -->
<g id="edge22" class="edge"><title>dir_3072bc1f55ed1280fe4fbe6b21c78379&#45;&gt;dir_d080e052e6032887076b6b5756e5361d</title>
<path fill="none" stroke="black" d="M374.581,-431.968C376.912,-405.332 381,-352.186 381,-307 381,-307 381,-307 381,-233 381,-185.167 343.456,-141.078 315.822,-115.105"/>
<polygon fill="black" stroke="black" points="318.077,-112.425 308.33,-108.272 313.36,-117.597 318.077,-112.425"/>
<g id="a_edge22&#45;headlabel"><a xlink:href="dir_000075_000056.html" target="_top" xlink:title="9">
<text text-anchor="middle" x="322.646" y="-110.249" font-family="Helvetica,sans-Serif" font-size="10.00">9</text>
</a>
</g>
</g>
<!-- dir_3072bc1f55ed1280fe4fbe6b21c78379&#45;&gt;dir_a1f42069ba95676f6b9abbd5065ccf6d -->
<g id="edge23" class="edge"><title>dir_3072bc1f55ed1280fe4fbe6b21c78379&#45;&gt;dir_a1f42069ba95676f6b9abbd5065ccf6d</title>
<path fill="none" stroke="black" d="M364.798,-431.871C353.055,-407.35 331.353,-362.032 317.575,-333.259"/>
<polygon fill="black" stroke="black" points="320.707,-331.697 313.231,-324.189 314.394,-334.72 320.707,-331.697"/>
<g id="a_edge23&#45;headlabel"><a xlink:href="dir_000075_000055.html" target="_top" xlink:title="23">
<text text-anchor="middle" x="324.821" y="-331.213" font-family="Helvetica,sans-Serif" font-size="10.00">23</text>
</a>
</g>
</g>
<!-- dir_3072bc1f55ed1280fe4fbe6b21c78379&#45;&gt;dir_1efe152df2f2e9cd3517b1174a4598d7 -->
<g id="edge24" class="edge"><title>dir_3072bc1f55ed1280fe4fbe6b21c78379&#45;&gt;dir_1efe152df2f2e9cd3517b1174a4598d7</title>
<path fill="none" stroke="black" d="M381.177,-431.764C385.569,-421.602 390.569,-408.352 393,-396 414.715,-285.651 419.552,-244.961 370,-144 353.163,-109.695 353.444,-95.0974 323,-72 284.192,-42.5572 228.641,-29.2351 192.205,-23.3713"/>
<polygon fill="black" stroke="black" points="192.416,-19.864 182.008,-21.8445 191.379,-26.7868 192.416,-19.864"/>
<g id="a_edge24&#45;headlabel"><a xlink:href="dir_000075_000054.html" target="_top" xlink:title="14">
<text text-anchor="middle" x="196.391" y="-15.0882" font-family="Helvetica,sans-Serif" font-size="10.00">14</text>
</a>
</g>
</g>
<!-- dir_3072bc1f55ed1280fe4fbe6b21c78379&#45;&gt;dir_f5906172d2c9558d453eb81ef8e5bf93 -->
<g id="edge25" class="edge"><title>dir_3072bc1f55ed1280fe4fbe6b21c78379&#45;&gt;dir_f5906172d2c9558d453eb81ef8e5bf93</title>
<path fill="none" stroke="black" d="M397.451,-431.849C409.472,-422.405 423.401,-409.809 433,-396 476.765,-333.038 495,-311.678 495,-235 495,-235 495,-235 495,-161 495,-120.031 499.721,-101.215 471,-72 432.195,-32.5279 366.03,-21.9812 324.511,-19.4311"/>
<polygon fill="black" stroke="black" points="324.421,-15.9227 314.263,-18.9332 324.082,-22.9145 324.421,-15.9227"/>
<g id="a_edge25&#45;headlabel"><a xlink:href="dir_000075_000053.html" target="_top" xlink:title="7">
<text text-anchor="middle" x="328.15" y="-10.7612" font-family="Helvetica,sans-Serif" font-size="10.00">7</text>
</a>
</g>
</g>
<!-- dir_721a74ea40d2768c46a3c9514389a16b&#45;&gt;dir_1456dd235032e023892318efbecb420b -->
<g id="edge33" class="edge"><title>dir_721a74ea40d2768c46a3c9514389a16b&#45;&gt;dir_1456dd235032e023892318efbecb420b</title>
<path fill="none" stroke="black" d="M105.858,-180.232C125.085,-217.638 170.745,-306.467 193.552,-350.838"/>
<polygon fill="black" stroke="black" points="190.5,-352.555 198.184,-359.849 196.725,-349.355 190.5,-352.555"/>
<g id="a_edge33&#45;headlabel"><a xlink:href="dir_000030_000035.html" target="_top" xlink:title="7">
<text text-anchor="middle" x="186.331" y="-348.156" font-family="Helvetica,sans-Serif" font-size="10.00">7</text>
</a>
</g>
</g>
<!-- dir_721a74ea40d2768c46a3c9514389a16b&#45;&gt;dir_d080e052e6032887076b6b5756e5361d -->
<g id="edge34" class="edge"><title>dir_721a74ea40d2768c46a3c9514389a16b&#45;&gt;dir_d080e052e6032887076b6b5756e5361d</title>
<path fill="none" stroke="black" d="M126.688,-150.062C160.078,-137.761 214.332,-117.772 250.34,-104.506"/>
<polygon fill="black" stroke="black" points="251.806,-107.696 259.979,-100.955 249.386,-101.128 251.806,-107.696"/>
<g id="a_edge34&#45;headlabel"><a xlink:href="dir_000030_000056.html" target="_top" xlink:title="7">
<text text-anchor="middle" x="249.415" y="-109.103" font-family="Helvetica,sans-Serif" font-size="10.00">7</text>
</a>
</g>
</g>
<!-- dir_721a74ea40d2768c46a3c9514389a16b&#45;&gt;dir_a1f42069ba95676f6b9abbd5065ccf6d -->
<g id="edge35" class="edge"><title>dir_721a74ea40d2768c46a3c9514389a16b&#45;&gt;dir_a1f42069ba95676f6b9abbd5065ccf6d</title>
<path fill="none" stroke="black" d="M113.432,-180.016C135.451,-202.586 173.65,-240.871 190,-252 214.329,-268.56 244.662,-282.294 268.066,-291.629"/>
<polygon fill="black" stroke="black" points="267.046,-294.988 277.635,-295.356 269.587,-288.466 267.046,-294.988"/>
<g id="a_edge35&#45;headlabel"><a xlink:href="dir_000030_000055.html" target="_top" xlink:title="7">
<text text-anchor="middle" x="262.666" y="-293.829" font-family="Helvetica,sans-Serif" font-size="10.00">7</text>
</a>
</g>
</g>
<!-- dir_721a74ea40d2768c46a3c9514389a16b&#45;&gt;dir_cb2b5dfd43482fb277f6333d539f1f06 -->
<g id="edge36" class="edge"><title>dir_721a74ea40d2768c46a3c9514389a16b&#45;&gt;dir_cb2b5dfd43482fb277f6333d539f1f06</title>
<path fill="none" stroke="black" d="M126.896,-175.997C146.778,-185.789 172.842,-199.445 193.717,-210.936"/>
<polygon fill="black" stroke="black" points="192.165,-214.078 202.606,-215.876 195.565,-207.959 192.165,-214.078"/>
<g id="a_edge36&#45;headlabel"><a xlink:href="dir_000030_000040.html" target="_top" xlink:title="1">
<text text-anchor="middle" x="187.644" y="-212.314" font-family="Helvetica,sans-Serif" font-size="10.00">1</text>
</a>
</g>
</g>
<!-- dir_721a74ea40d2768c46a3c9514389a16b&#45;&gt;dir_1efe152df2f2e9cd3517b1174a4598d7 -->
<g id="edge37" class="edge"><title>dir_721a74ea40d2768c46a3c9514389a16b&#45;&gt;dir_1efe152df2f2e9cd3517b1174a4598d7</title>
<path fill="none" stroke="black" d="M103.996,-143.871C113.968,-119.457 132.361,-74.4258 144.121,-45.6351"/>
<polygon fill="black" stroke="black" points="147.438,-46.7703 147.979,-36.1893 140.958,-44.1234 147.438,-46.7703"/>
<g id="a_edge37&#45;headlabel"><a xlink:href="dir_000030_000054.html" target="_top" xlink:title="2">
<text text-anchor="middle" x="148.707" y="-48.6716" font-family="Helvetica,sans-Serif" font-size="10.00">2</text>
</a>
</g>
</g>
<!-- dir_721a74ea40d2768c46a3c9514389a16b&#45;&gt;dir_f5906172d2c9558d453eb81ef8e5bf93 -->
<g id="edge38" class="edge"><title>dir_721a74ea40d2768c46a3c9514389a16b&#45;&gt;dir_f5906172d2c9558d453eb81ef8e5bf93</title>
<path fill="none" stroke="black" d="M119.918,-143.871C153.87,-118.497 217.617,-70.8544 255.8,-42.3181"/>
<polygon fill="black" stroke="black" points="258.085,-44.9793 264,-36.1893 253.895,-39.3723 258.085,-44.9793"/>
<g id="a_edge38&#45;headlabel"><a xlink:href="dir_000030_000053.html" target="_top" xlink:title="2">
<text text-anchor="middle" x="256.906" y="-46.9055" font-family="Helvetica,sans-Serif" font-size="10.00">2</text>
</a>
</g>
</g>
</g>
</svg>
