<?xml version="1.0" encoding="UTF-8" standalone="no"?>
<!DOCTYPE svg PUBLIC "-//W3C//DTD SVG 1.1//EN"
 "http://www.w3.org/Graphics/SVG/1.1/DTD/svg11.dtd">
<!-- Generated by graphviz version 2.36.0 (20140111.2315)
 -->
<!-- Title: /home/travis/build/STORM&#45;IRIT/Radium&#45;Engine/Plugins Pages: 1 -->
<svg width="709pt" height="132pt"
 viewBox="0.00 0.00 709.00 132.00" xmlns="http://www.w3.org/2000/svg" xmlns:xlink="http://www.w3.org/1999/xlink">
<g id="graph0" class="graph" transform="scale(1 1) rotate(0) translate(4 128)">
<title>/home/travis/build/STORM&#45;IRIT/Radium&#45;Engine/Plugins</title>
<polygon fill="white" stroke="none" points="-4,4 -4,-128 705,-128 705,4 -4,4"/>
<g id="clust1" class="cluster"><title>clusterdir_0b4eaef40a1fe20bedafe9e8e719ce66</title>
<g id="a_clust1"><a xlink:href="dir_0b4eaef40a1fe20bedafe9e8e719ce66.html" target="_top">
<polygon fill="#eeeeff" stroke="black" points="8,-64 8,-116 693,-116 693,-64 8,-64"/>
</a>
</g>
</g>
<!-- dir_0b4eaef40a1fe20bedafe9e8e719ce66 -->
<g id="node1" class="node"><title>dir_0b4eaef40a1fe20bedafe9e8e719ce66</title>
<text text-anchor="middle" x="658" y="-87.5" font-family="Helvetica,sans-Serif" font-size="10.00">Plugins</text>
</g>
<!-- dir_6f0e341094b93fe10adaef3ab2c0441b -->
<g id="node2" class="node"><title>dir_6f0e341094b93fe10adaef3ab2c0441b</title>
<g id="a_node2"><a xlink:href="dir_6f0e341094b93fe10adaef3ab2c0441b.html" target="_top" xlink:title="Animation">
<polygon fill="white" stroke="red" points="612.5,-108 553.5,-108 553.5,-72 612.5,-72 612.5,-108"/>
<text text-anchor="middle" x="583" y="-87.5" font-family="Helvetica,sans-Serif" font-size="10.00">Animation</text>
</a>
</g>
</g>
<!-- dir_68267d1309a1af8e8297ef4c3efbcdba -->
<g id="node9" class="node"><title>dir_68267d1309a1af8e8297ef4c3efbcdba</title>
<g id="a_node9"><a xlink:href="dir_68267d1309a1af8e8297ef4c3efbcdba.html" target="_top" xlink:title="src">
<polygon fill="white" stroke="red" points="360,-36 306,-36 306,-0 360,-0 360,-36"/>
<text text-anchor="middle" x="333" y="-15.5" font-family="Helvetica,sans-Serif" font-size="10.00">src</text>
</a>
</g>
</g>
<!-- dir_6f0e341094b93fe10adaef3ab2c0441b&#45;&gt;dir_68267d1309a1af8e8297ef4c3efbcdba -->
<g id="edge6" class="edge"><title>dir_6f0e341094b93fe10adaef3ab2c0441b&#45;&gt;dir_68267d1309a1af8e8297ef4c3efbcdba</title>
<path fill="none" stroke="black" d="M558.751,-71.9936C553.711,-68.9964 548.313,-66.1521 543,-64 485.054,-40.5292 412.925,-28.4993 370.051,-22.9921"/>
<polygon fill="black" stroke="black" points="370.42,-19.5112 360.067,-21.7601 369.563,-26.4585 370.42,-19.5112"/>
<g id="a_edge6&#45;headlabel"><a xlink:href="dir_000001_000021.html" target="_top" xlink:title="41">
<text text-anchor="middle" x="374.336" y="-14.6334" font-family="Helvetica,sans-Serif" font-size="10.00">41</text>
</a>
</g>
</g>
<!-- dir_7135b9149c3d25dfc12794e2c5bff893 -->
<g id="node3" class="node"><title>dir_7135b9149c3d25dfc12794e2c5bff893</title>
<g id="a_node3"><a xlink:href="dir_7135b9149c3d25dfc12794e2c5bff893.html" target="_top" xlink:title="CameraManip">
<polygon fill="white" stroke="red" points="534.25,-108 457.75,-108 457.75,-72 534.25,-72 534.25,-108"/>
<text text-anchor="middle" x="496" y="-87.5" font-family="Helvetica,sans-Serif" font-size="10.00">CameraManip</text>
</a>
</g>
</g>
<!-- dir_7135b9149c3d25dfc12794e2c5bff893&#45;&gt;dir_68267d1309a1af8e8297ef4c3efbcdba -->
<g id="edge7" class="edge"><title>dir_7135b9149c3d25dfc12794e2c5bff893&#45;&gt;dir_68267d1309a1af8e8297ef4c3efbcdba</title>
<path fill="none" stroke="black" d="M464.479,-71.9732C459.032,-69.207 453.389,-66.4492 448,-64 422.327,-52.3318 392.676,-40.7741 369.913,-32.2937"/>
<polygon fill="black" stroke="black" points="370.888,-28.9228 360.295,-28.7406 368.462,-35.4891 370.888,-28.9228"/>
<g id="a_edge7&#45;headlabel"><a xlink:href="dir_000005_000021.html" target="_top" xlink:title="11">
<text text-anchor="middle" x="375.244" y="-25.005" font-family="Helvetica,sans-Serif" font-size="10.00">11</text>
</a>
</g>
</g>
<!-- dir_32a1c999cb5aa5fd6f9e249225c96ab7 -->
<g id="node4" class="node"><title>dir_32a1c999cb5aa5fd6f9e249225c96ab7</title>
<g id="a_node4"><a xlink:href="dir_32a1c999cb5aa5fd6f9e249225c96ab7.html" target="_top" xlink:title="Dummy">
<polygon fill="white" stroke="red" points="439,-108 385,-108 385,-72 439,-72 439,-108"/>
<text text-anchor="middle" x="412" y="-87.5" font-family="Helvetica,sans-Serif" font-size="10.00">Dummy</text>
</a>
</g>
</g>
<!-- dir_32a1c999cb5aa5fd6f9e249225c96ab7&#45;&gt;dir_68267d1309a1af8e8297ef4c3efbcdba -->
<g id="edge1" class="edge"><title>dir_32a1c999cb5aa5fd6f9e249225c96ab7&#45;&gt;dir_68267d1309a1af8e8297ef4c3efbcdba</title>
<path fill="none" stroke="black" d="M392.472,-71.6966C382.618,-62.9655 370.514,-52.2405 359.804,-42.7503"/>
<polygon fill="black" stroke="black" points="362.109,-40.1166 352.303,-36.1043 357.467,-45.3558 362.109,-40.1166"/>
<g id="a_edge1&#45;headlabel"><a xlink:href="dir_000008_000021.html" target="_top" xlink:title="23">
<text text-anchor="middle" x="366.683" y="-37.8755" font-family="Helvetica,sans-Serif" font-size="10.00">23</text>
</a>
</g>
</g>
<!-- dir_476a9cdba54034296d8f7dd49b9fd70b -->
<g id="node5" class="node"><title>dir_476a9cdba54034296d8f7dd49b9fd70b</title>
<g id="a_node5"><a xlink:href="dir_476a9cdba54034296d8f7dd49b9fd70b.html" target="_top" xlink:title="FancyMesh">
<polygon fill="white" stroke="red" points="367,-108 299,-108 299,-72 367,-72 367,-108"/>
<text text-anchor="middle" x="333" y="-87.5" font-family="Helvetica,sans-Serif" font-size="10.00">FancyMesh</text>
</a>
</g>
</g>
<!-- dir_476a9cdba54034296d8f7dd49b9fd70b&#45;&gt;dir_68267d1309a1af8e8297ef4c3efbcdba -->
<g id="edge3" class="edge"><title>dir_476a9cdba54034296d8f7dd49b9fd70b&#45;&gt;dir_68267d1309a1af8e8297ef4c3efbcdba</title>
<path fill="none" stroke="black" d="M333,-71.6966C333,-63.9827 333,-54.7125 333,-46.1124"/>
<polygon fill="black" stroke="black" points="336.5,-46.1043 333,-36.1043 329.5,-46.1044 336.5,-46.1043"/>
<g id="a_edge3&#45;headlabel"><a xlink:href="dir_000010_000021.html" target="_top" xlink:title="38">
<text text-anchor="middle" x="339.339" y="-47.199" font-family="Helvetica,sans-Serif" font-size="10.00">38</text>
</a>
</g>
</g>
<!-- dir_25434094def706cc6b831b685850d58f -->
<g id="node6" class="node"><title>dir_25434094def706cc6b831b685850d58f</title>
<g id="a_node6"><a xlink:href="dir_25434094def706cc6b831b685850d58f.html" target="_top" xlink:title="MeshFeatureTracking">
<polygon fill="white" stroke="red" points="280.25,-108 169.75,-108 169.75,-72 280.25,-72 280.25,-108"/>
<text text-anchor="middle" x="225" y="-87.5" font-family="Helvetica,sans-Serif" font-size="10.00">MeshFeatureTracking</text>
</a>
</g>
</g>
<!-- dir_25434094def706cc6b831b685850d58f&#45;&gt;dir_68267d1309a1af8e8297ef4c3efbcdba -->
<g id="edge2" class="edge"><title>dir_25434094def706cc6b831b685850d58f&#45;&gt;dir_68267d1309a1af8e8297ef4c3efbcdba</title>
<path fill="none" stroke="black" d="M251.42,-71.8761C265.41,-62.8083 282.776,-51.5523 297.886,-41.7592"/>
<polygon fill="black" stroke="black" points="299.991,-44.5658 306.479,-36.1898 296.183,-38.6917 299.991,-44.5658"/>
<g id="a_edge2&#45;headlabel"><a xlink:href="dir_000012_000021.html" target="_top" xlink:title="23">
<text text-anchor="middle" x="298.519" y="-46.4034" font-family="Helvetica,sans-Serif" font-size="10.00">23</text>
</a>
</g>
</g>
<!-- dir_04165233e2d5a8af2366a0704d033b7c -->
<g id="node7" class="node"><title>dir_04165233e2d5a8af2366a0704d033b7c</title>
<g id="a_node7"><a xlink:href="dir_04165233e2d5a8af2366a0704d033b7c.html" target="_top" xlink:title="MeshPaint">
<polygon fill="white" stroke="red" points="151.25,-108 88.75,-108 88.75,-72 151.25,-72 151.25,-108"/>
<text text-anchor="middle" x="120" y="-87.5" font-family="Helvetica,sans-Serif" font-size="10.00">MeshPaint</text>
</a>
</g>
</g>
<!-- dir_04165233e2d5a8af2366a0704d033b7c&#45;&gt;dir_68267d1309a1af8e8297ef4c3efbcdba -->
<g id="edge4" class="edge"><title>dir_04165233e2d5a8af2366a0704d033b7c&#45;&gt;dir_68267d1309a1af8e8297ef4c3efbcdba</title>
<path fill="none" stroke="black" d="M145.416,-71.9411C150.444,-69.0197 155.782,-66.2167 161,-64 205.732,-44.9966 260.506,-32.3461 296.047,-25.4227"/>
<polygon fill="black" stroke="black" points="296.809,-28.8408 305.982,-23.5392 295.505,-21.9633 296.809,-28.8408"/>
<g id="a_edge4&#45;headlabel"><a xlink:href="dir_000015_000021.html" target="_top" xlink:title="42">
<text text-anchor="middle" x="293.806" y="-29.7998" font-family="Helvetica,sans-Serif" font-size="10.00">42</text>
</a>
</g>
</g>
<!-- dir_b5b12f002c9f7c7d8f4062b70579c29b -->
<g id="node8" class="node"><title>dir_b5b12f002c9f7c7d8f4062b70579c29b</title>
<g id="a_node8"><a xlink:href="dir_b5b12f002c9f7c7d8f4062b70579c29b.html" target="_top" xlink:title="Skinning">
<polygon fill="white" stroke="red" points="70,-108 16,-108 16,-72 70,-72 70,-108"/>
<text text-anchor="middle" x="43" y="-87.5" font-family="Helvetica,sans-Serif" font-size="10.00">Skinning</text>
</a>
</g>
</g>
<!-- dir_b5b12f002c9f7c7d8f4062b70579c29b&#45;&gt;dir_68267d1309a1af8e8297ef4c3efbcdba -->
<g id="edge5" class="edge"><title>dir_b5b12f002c9f7c7d8f4062b70579c29b&#45;&gt;dir_68267d1309a1af8e8297ef4c3efbcdba</title>
<path fill="none" stroke="black" d="M65.2489,-71.814C69.9255,-68.8316 74.9708,-66.0387 80,-64 152.76,-34.5058 245.043,-24.2968 295.624,-20.7963"/>
<polygon fill="black" stroke="black" points="296.007,-24.2791 305.763,-20.1467 295.559,-17.2934 296.007,-24.2791"/>
<g id="a_edge5&#45;headlabel"><a xlink:href="dir_000018_000021.html" target="_top" xlink:title="37">
<text text-anchor="middle" x="292.601" y="-24.8423" font-family="Helvetica,sans-Serif" font-size="10.00">37</text>
</a>
</g>
</g>
</g>
</svg>
