<?xml version="1.0" encoding="UTF-8" standalone="no"?>
<!DOCTYPE svg PUBLIC "-//W3C//DTD SVG 1.1//EN"
 "http://www.w3.org/Graphics/SVG/1.1/DTD/svg11.dtd">
<!-- Generated by graphviz version 2.36.0 (20140111.2315)
 -->
<!-- Title: /home/travis/build/STORM&#45;IRIT/Radium&#45;Engine/src/Engine/Managers/CameraManager Pages: 1 -->
<svg width="242pt" height="439pt"
 viewBox="0.00 0.00 242.26 439.00" xmlns="http://www.w3.org/2000/svg" xmlns:xlink="http://www.w3.org/1999/xlink">
<g id="graph0" class="graph" transform="scale(1 1) rotate(0) translate(4 435)">
<title>/home/travis/build/STORM&#45;IRIT/Radium&#45;Engine/src/Engine/Managers/CameraManager</title>
<polygon fill="white" stroke="none" points="-4,4 -4,-435 238.264,-435 238.264,4 -4,4"/>
<g id="clust1" class="cluster"><title>clusterdir_06113b60808b1bbb52a01dfd2c3a8657</title>
<g id="a_clust1"><a xlink:href="dir_06113b60808b1bbb52a01dfd2c3a8657.html" target="_top" xlink:title="Managers">
<polygon fill="#ddddee" stroke="black" points="24,-352 24,-423 128,-423 128,-352 24,-352"/>
<text text-anchor="middle" x="76" y="-411" font-family="Helvetica,sans-Serif" font-size="10.00">Managers</text>
</a>
</g>
</g>
<!-- dir_9c9d2b16f43d35e4f1c4dc94ebe4380d -->
<g id="node1" class="node"><title>dir_9c9d2b16f43d35e4f1c4dc94ebe4380d</title>
<g id="a_node1"><a xlink:href="dir_9c9d2b16f43d35e4f1c4dc94ebe4380d.html" target="_top" xlink:title="CameraManager">
<polygon fill="#eeeeff" stroke="black" points="120.25,-396 31.75,-396 31.75,-360 120.25,-360 120.25,-396"/>
<text text-anchor="middle" x="76" y="-375.5" font-family="Helvetica,sans-Serif" font-size="10.00">CameraManager</text>
</a>
</g>
</g>
<!-- dir_a2f0e5642e47e7ed59fe0f0829eafb5f -->
<g id="node2" class="node"><title>dir_a2f0e5642e47e7ed59fe0f0829eafb5f</title>
<g id="a_node2"><a xlink:href="dir_a2f0e5642e47e7ed59fe0f0829eafb5f.html" target="_top" xlink:title="Core">
<polygon fill="white" stroke="red" points="186,-252 132,-252 132,-216 186,-216 186,-252"/>
<text text-anchor="middle" x="159" y="-231.5" font-family="Helvetica,sans-Serif" font-size="10.00">Core</text>
</a>
</g>
</g>
<!-- dir_9c9d2b16f43d35e4f1c4dc94ebe4380d&#45;&gt;dir_a2f0e5642e47e7ed59fe0f0829eafb5f -->
<g id="edge1" class="edge"><title>dir_9c9d2b16f43d35e4f1c4dc94ebe4380d&#45;&gt;dir_a2f0e5642e47e7ed59fe0f0829eafb5f</title>
<path fill="none" stroke="black" d="M120.469,-374.799C156.03,-370.415 203.804,-358.062 228,-324 237.266,-310.956 235.073,-302.352 228,-288 220.893,-273.579 207.768,-261.987 194.857,-253.366"/>
<polygon fill="black" stroke="black" points="196.37,-250.185 186.031,-247.873 192.672,-256.128 196.37,-250.185"/>
<g id="a_edge1&#45;headlabel"><a xlink:href="dir_000080_000022.html" target="_top" xlink:title="4">
<text text-anchor="middle" x="200.922" y="-247.173" font-family="Helvetica,sans-Serif" font-size="10.00">4</text>
</a>
</g>
</g>
<!-- dir_7205f054df4e14abb60715afe3e7e90c -->
<g id="node3" class="node"><title>dir_7205f054df4e14abb60715afe3e7e90c</title>
<g id="a_node3"><a xlink:href="dir_7205f054df4e14abb60715afe3e7e90c.html" target="_top" xlink:title="Entity">
<polygon fill="none" stroke="black" points="149,-108 95,-108 95,-72 149,-72 149,-108"/>
<text text-anchor="middle" x="122" y="-87.5" font-family="Helvetica,sans-Serif" font-size="10.00">Entity</text>
</a>
</g>
</g>
<!-- dir_9c9d2b16f43d35e4f1c4dc94ebe4380d&#45;&gt;dir_7205f054df4e14abb60715afe3e7e90c -->
<g id="edge2" class="edge"><title>dir_9c9d2b16f43d35e4f1c4dc94ebe4380d&#45;&gt;dir_7205f054df4e14abb60715afe3e7e90c</title>
<path fill="none" stroke="black" d="M69.0132,-359.86C53.8337,-319.807 21.9173,-217.873 57,-144 63.3332,-130.664 74.8457,-119.578 86.4416,-111.052"/>
<polygon fill="black" stroke="black" points="88.5603,-113.843 94.827,-105.3 84.6007,-108.07 88.5603,-113.843"/>
<g id="a_edge2&#45;headlabel"><a xlink:href="dir_000080_000077.html" target="_top" xlink:title="1">
<text text-anchor="middle" x="87.202" y="-115.718" font-family="Helvetica,sans-Serif" font-size="10.00">1</text>
</a>
</g>
</g>
<!-- dir_eecdbbfa89a6d9af25d920c499e6f44e -->
<g id="node4" class="node"><title>dir_eecdbbfa89a6d9af25d920c499e6f44e</title>
<g id="a_node4"><a xlink:href="dir_eecdbbfa89a6d9af25d920c499e6f44e.html" target="_top" xlink:title="System">
<polygon fill="none" stroke="black" points="149,-36 95,-36 95,-0 149,-0 149,-36"/>
<text text-anchor="middle" x="122" y="-15.5" font-family="Helvetica,sans-Serif" font-size="10.00">System</text>
</a>
</g>
</g>
<!-- dir_9c9d2b16f43d35e4f1c4dc94ebe4380d&#45;&gt;dir_eecdbbfa89a6d9af25d920c499e6f44e -->
<g id="edge3" class="edge"><title>dir_9c9d2b16f43d35e4f1c4dc94ebe4380d&#45;&gt;dir_eecdbbfa89a6d9af25d920c499e6f44e</title>
<path fill="none" stroke="black" d="M59.5091,-359.772C37.1569,-334.534 0,-285.051 0,-235 0,-235 0,-235 0,-161 0,-107.666 50.1261,-64.362 86.1175,-40.1428"/>
<polygon fill="black" stroke="black" points="88.4582,-42.795 94.9242,-34.402 84.6356,-36.9308 88.4582,-42.795"/>
<g id="a_edge3&#45;headlabel"><a xlink:href="dir_000080_000097.html" target="_top" xlink:title="1">
<text text-anchor="middle" x="86.9974" y="-44.6364" font-family="Helvetica,sans-Serif" font-size="10.00">1</text>
</a>
</g>
</g>
<!-- dir_54018506bb725509c19b38b6d9bcf0f6 -->
<g id="node5" class="node"><title>dir_54018506bb725509c19b38b6d9bcf0f6</title>
<g id="a_node5"><a xlink:href="dir_54018506bb725509c19b38b6d9bcf0f6.html" target="_top" xlink:title="Renderer">
<polygon fill="white" stroke="red" points="121.5,-180 66.5,-180 66.5,-144 121.5,-144 121.5,-180"/>
<text text-anchor="middle" x="94" y="-159.5" font-family="Helvetica,sans-Serif" font-size="10.00">Renderer</text>
</a>
</g>
</g>
<!-- dir_9c9d2b16f43d35e4f1c4dc94ebe4380d&#45;&gt;dir_54018506bb725509c19b38b6d9bcf0f6 -->
<g id="edge4" class="edge"><title>dir_9c9d2b16f43d35e4f1c4dc94ebe4380d&#45;&gt;dir_54018506bb725509c19b38b6d9bcf0f6</title>
<path fill="none" stroke="black" d="M77.4426,-359.849C80.5562,-322.832 87.9287,-235.181 91.6965,-190.386"/>
<polygon fill="black" stroke="black" points="95.2,-190.491 92.5505,-180.232 88.2246,-189.904 95.2,-190.491"/>
<g id="a_edge4&#45;headlabel"><a xlink:href="dir_000080_000086.html" target="_top" xlink:title="7">
<text text-anchor="middle" x="97.7281" y="-191.811" font-family="Helvetica,sans-Serif" font-size="10.00">7</text>
</a>
</g>
</g>
<!-- dir_f60fd3cff26f751d5a136115ec0dccfa -->
<g id="node6" class="node"><title>dir_f60fd3cff26f751d5a136115ec0dccfa</title>
<g id="a_node6"><a xlink:href="dir_f60fd3cff26f751d5a136115ec0dccfa.html" target="_top" xlink:title="ComponentMessenger">
<polygon fill="none" stroke="black" points="219.25,-324 104.75,-324 104.75,-288 219.25,-288 219.25,-324"/>
<text text-anchor="middle" x="162" y="-303.5" font-family="Helvetica,sans-Serif" font-size="10.00">ComponentMessenger</text>
</a>
</g>
</g>
<!-- dir_9c9d2b16f43d35e4f1c4dc94ebe4380d&#45;&gt;dir_f60fd3cff26f751d5a136115ec0dccfa -->
<g id="edge5" class="edge"><title>dir_9c9d2b16f43d35e4f1c4dc94ebe4380d&#45;&gt;dir_f60fd3cff26f751d5a136115ec0dccfa</title>
<path fill="none" stroke="black" d="M97.2584,-359.697C108.089,-350.881 121.418,-340.032 133.16,-330.474"/>
<polygon fill="black" stroke="black" points="135.44,-333.132 140.986,-324.104 131.021,-327.703 135.44,-333.132"/>
<g id="a_edge5&#45;headlabel"><a xlink:href="dir_000080_000081.html" target="_top" xlink:title="1">
<text text-anchor="middle" x="134.444" y="-335.103" font-family="Helvetica,sans-Serif" font-size="10.00">1</text>
</a>
</g>
</g>
<!-- dir_a2f0e5642e47e7ed59fe0f0829eafb5f&#45;&gt;dir_7205f054df4e14abb60715afe3e7e90c -->
<g id="edge6" class="edge"><title>dir_a2f0e5642e47e7ed59fe0f0829eafb5f&#45;&gt;dir_7205f054df4e14abb60715afe3e7e90c</title>
<path fill="none" stroke="black" d="M149.952,-215.871C141.088,-191.67 129.212,-147.211 123.679,-118.393"/>
<polygon fill="black" stroke="black" points="127.064,-117.434 121.888,-108.189 120.169,-118.644 127.064,-117.434"/>
<g id="a_edge6&#45;headlabel"><a xlink:href="dir_000022_000077.html" target="_top" xlink:title="1">
<text text-anchor="middle" x="130.482" y="-117.984" font-family="Helvetica,sans-Serif" font-size="10.00">1</text>
</a>
</g>
</g>
<!-- dir_a2f0e5642e47e7ed59fe0f0829eafb5f&#45;&gt;dir_54018506bb725509c19b38b6d9bcf0f6 -->
<g id="edge7" class="edge"><title>dir_a2f0e5642e47e7ed59fe0f0829eafb5f&#45;&gt;dir_54018506bb725509c19b38b6d9bcf0f6</title>
<path fill="none" stroke="black" d="M137.017,-215.697C128.359,-207.305 118.664,-197.07 110.594,-187.861"/>
<polygon fill="black" stroke="black" points="113.136,-185.448 103.988,-180.104 107.807,-189.987 113.136,-185.448"/>
<g id="a_edge7&#45;headlabel"><a xlink:href="dir_000022_000086.html" target="_top" xlink:title="1">
<text text-anchor="middle" x="117.628" y="-183.844" font-family="Helvetica,sans-Serif" font-size="10.00">1</text>
</a>
</g>
</g>
<!-- dir_7205f054df4e14abb60715afe3e7e90c&#45;&gt;dir_a2f0e5642e47e7ed59fe0f0829eafb5f -->
<g id="edge8" class="edge"><title>dir_7205f054df4e14abb60715afe3e7e90c&#45;&gt;dir_a2f0e5642e47e7ed59fe0f0829eafb5f</title>
<path fill="none" stroke="black" d="M131.07,-108.189C139.939,-132.424 151.812,-176.888 157.335,-205.679"/>
<polygon fill="black" stroke="black" points="153.948,-206.626 159.121,-215.871 160.843,-205.417 153.948,-206.626"/>
<g id="a_edge8&#45;headlabel"><a xlink:href="dir_000077_000022.html" target="_top" xlink:title="4">
<text text-anchor="middle" x="150.531" y="-201.075" font-family="Helvetica,sans-Serif" font-size="10.00">4</text>
</a>
</g>
</g>
<!-- dir_7205f054df4e14abb60715afe3e7e90c&#45;&gt;dir_eecdbbfa89a6d9af25d920c499e6f44e -->
<g id="edge9" class="edge"><title>dir_7205f054df4e14abb60715afe3e7e90c&#45;&gt;dir_eecdbbfa89a6d9af25d920c499e6f44e</title>
<path fill="none" stroke="black" d="M116.084,-71.6966C115.289,-63.9827 115.062,-54.7125 115.405,-46.1124"/>
<polygon fill="black" stroke="black" points="118.898,-46.3243 116.105,-36.1043 111.915,-45.8356 118.898,-46.3243"/>
<g id="a_edge9&#45;headlabel"><a xlink:href="dir_000077_000097.html" target="_top" xlink:title="1">
<text text-anchor="middle" x="121.48" y="-47.6083" font-family="Helvetica,sans-Serif" font-size="10.00">1</text>
</a>
</g>
</g>
<!-- dir_eecdbbfa89a6d9af25d920c499e6f44e&#45;&gt;dir_a2f0e5642e47e7ed59fe0f0829eafb5f -->
<g id="edge10" class="edge"><title>dir_eecdbbfa89a6d9af25d920c499e6f44e&#45;&gt;dir_a2f0e5642e47e7ed59fe0f0829eafb5f</title>
<path fill="none" stroke="black" d="M137.176,-36.3699C144.812,-46.155 153.402,-58.9962 158,-72 173.824,-116.748 169.096,-172.968 164.118,-205.754"/>
<polygon fill="black" stroke="black" points="160.615,-205.489 162.45,-215.923 167.522,-206.622 160.615,-205.489"/>
<g id="a_edge10&#45;headlabel"><a xlink:href="dir_000097_000022.html" target="_top" xlink:title="1">
<text text-anchor="middle" x="158.395" y="-198.982" font-family="Helvetica,sans-Serif" font-size="10.00">1</text>
</a>
</g>
</g>
<!-- dir_eecdbbfa89a6d9af25d920c499e6f44e&#45;&gt;dir_7205f054df4e14abb60715afe3e7e90c -->
<g id="edge11" class="edge"><title>dir_eecdbbfa89a6d9af25d920c499e6f44e&#45;&gt;dir_7205f054df4e14abb60715afe3e7e90c</title>
<path fill="none" stroke="black" d="M127.895,-36.1043C128.701,-43.7913 128.937,-53.0537 128.604,-61.6651"/>
<polygon fill="black" stroke="black" points="125.109,-61.4805 127.916,-71.6966 132.092,-61.9597 125.109,-61.4805"/>
<g id="a_edge11&#45;headlabel"><a xlink:href="dir_000097_000077.html" target="_top" xlink:title="1">
<text text-anchor="middle" x="122.522" y="-55.2" font-family="Helvetica,sans-Serif" font-size="10.00">1</text>
</a>
</g>
</g>
<!-- dir_54018506bb725509c19b38b6d9bcf0f6&#45;&gt;dir_a2f0e5642e47e7ed59fe0f0829eafb5f -->
<g id="edge12" class="edge"><title>dir_54018506bb725509c19b38b6d9bcf0f6&#45;&gt;dir_a2f0e5642e47e7ed59fe0f0829eafb5f</title>
<path fill="none" stroke="black" d="M115.778,-180.104C124.419,-188.467 134.119,-198.694 142.214,-207.92"/>
<polygon fill="black" stroke="black" points="139.696,-210.36 148.848,-215.697 145.021,-205.817 139.696,-210.36"/>
<g id="a_edge12&#45;headlabel"><a xlink:href="dir_000086_000022.html" target="_top" xlink:title="53">
<text text-anchor="middle" x="135.203" y="-206.968" font-family="Helvetica,sans-Serif" font-size="10.00">53</text>
</a>
</g>
</g>
<!-- dir_54018506bb725509c19b38b6d9bcf0f6&#45;&gt;dir_7205f054df4e14abb60715afe3e7e90c -->
<g id="edge13" class="edge"><title>dir_54018506bb725509c19b38b6d9bcf0f6&#45;&gt;dir_7205f054df4e14abb60715afe3e7e90c</title>
<path fill="none" stroke="black" d="M100.921,-143.697C104.075,-135.813 107.878,-126.304 111.381,-117.546"/>
<polygon fill="black" stroke="black" points="114.694,-118.689 115.158,-108.104 108.195,-116.089 114.694,-118.689"/>
<g id="a_edge13&#45;headlabel"><a xlink:href="dir_000086_000077.html" target="_top" xlink:title="3">
<text text-anchor="middle" x="115.995" y="-120.581" font-family="Helvetica,sans-Serif" font-size="10.00">3</text>
</a>
</g>
</g>
<!-- dir_f60fd3cff26f751d5a136115ec0dccfa&#45;&gt;dir_a2f0e5642e47e7ed59fe0f0829eafb5f -->
<g id="edge14" class="edge"><title>dir_f60fd3cff26f751d5a136115ec0dccfa&#45;&gt;dir_a2f0e5642e47e7ed59fe0f0829eafb5f</title>
<path fill="none" stroke="black" d="M161.258,-287.697C160.928,-279.983 160.531,-270.712 160.162,-262.112"/>
<polygon fill="black" stroke="black" points="163.658,-261.945 159.733,-252.104 156.665,-262.245 163.658,-261.945"/>
<g id="a_edge14&#45;headlabel"><a xlink:href="dir_000081_000022.html" target="_top" xlink:title="2">
<text text-anchor="middle" x="166.649" y="-262.915" font-family="Helvetica,sans-Serif" font-size="10.00">2</text>
</a>
</g>
</g>
</g>
</svg>
