<?xml version="1.0" encoding="UTF-8" standalone="no"?>
<!DOCTYPE svg PUBLIC "-//W3C//DTD SVG 1.1//EN"
 "http://www.w3.org/Graphics/SVG/1.1/DTD/svg11.dtd">
<!-- Generated by graphviz version 2.36.0 (20140111.2315)
 -->
<!-- Title: /home/travis/build/STORM&#45;IRIT/Radium&#45;Engine/src/Core/Mesh/DCEL Pages: 1 -->
<svg width="295pt" height="231pt"
 viewBox="0.00 0.00 295.00 231.00" xmlns="http://www.w3.org/2000/svg" xmlns:xlink="http://www.w3.org/1999/xlink">
<g id="graph0" class="graph" transform="scale(1 1) rotate(0) translate(4 227)">
<title>/home/travis/build/STORM&#45;IRIT/Radium&#45;Engine/src/Core/Mesh/DCEL</title>
<polygon fill="white" stroke="none" points="-4,4 -4,-227 291,-227 291,4 -4,4"/>
<g id="clust1" class="cluster"><title>clusterdir_d080e052e6032887076b6b5756e5361d</title>
<g id="a_clust1"><a xlink:href="dir_d080e052e6032887076b6b5756e5361d.html" target="_top" xlink:title="Mesh">
<polygon fill="#ddddee" stroke="black" points="8,-128 8,-215 248,-215 248,-128 8,-128"/>
<text text-anchor="middle" x="128" y="-203" font-family="Helvetica,sans-Serif" font-size="10.00">Mesh</text>
</a>
</g>
</g>
<g id="clust2" class="cluster"><title>clusterdir_2675901a455951db10e33b411821b9ee</title>
<g id="a_clust2"><a xlink:href="dir_2675901a455951db10e33b411821b9ee.html" target="_top">
<polygon fill="#eeeeff" stroke="black" points="16,-136 16,-188 240,-188 240,-136 16,-136"/>
</a>
</g>
</g>
<!-- dir_2675901a455951db10e33b411821b9ee -->
<g id="node1" class="node"><title>dir_2675901a455951db10e33b411821b9ee</title>
<text text-anchor="middle" x="205" y="-159.5" font-family="Helvetica,sans-Serif" font-size="10.00">DCEL</text>
</g>
<!-- dir_1456dd235032e023892318efbecb420b -->
<g id="node4" class="node"><title>dir_1456dd235032e023892318efbecb420b</title>
<g id="a_node4"><a xlink:href="dir_1456dd235032e023892318efbecb420b.html" target="_top" xlink:title="Containers">
<polygon fill="none" stroke="black" points="177,-108 113,-108 113,-72 177,-72 177,-108"/>
<text text-anchor="middle" x="145" y="-87.5" font-family="Helvetica,sans-Serif" font-size="10.00">Containers</text>
</a>
</g>
</g>
<!-- dir_2675901a455951db10e33b411821b9ee&#45;&gt;dir_1456dd235032e023892318efbecb420b -->
<g id="edge2" class="edge"><title>dir_2675901a455951db10e33b411821b9ee&#45;&gt;dir_1456dd235032e023892318efbecb420b</title>
<path fill="none" stroke="black" d="M190.169,-143.697C182.975,-135.305 174.203,-125.07 166.31,-115.861"/>
<polygon fill="black" stroke="black" points="168.826,-113.419 159.661,-108.104 163.511,-117.975 168.826,-113.419"/>
<g id="a_edge2&#45;headlabel"><a xlink:href="dir_000057_000035.html" target="_top" xlink:title="1">
<text text-anchor="middle" x="173.321" y="-111.801" font-family="Helvetica,sans-Serif" font-size="10.00">1</text>
</a>
</g>
</g>
<!-- dir_a1f42069ba95676f6b9abbd5065ccf6d -->
<g id="node5" class="node"><title>dir_a1f42069ba95676f6b9abbd5065ccf6d</title>
<g id="a_node5"><a xlink:href="dir_a1f42069ba95676f6b9abbd5065ccf6d.html" target="_top" xlink:title="Math">
<polygon fill="none" stroke="black" points="172,-36 118,-36 118,-0 172,-0 172,-36"/>
<text text-anchor="middle" x="145" y="-15.5" font-family="Helvetica,sans-Serif" font-size="10.00">Math</text>
</a>
</g>
</g>
<!-- dir_2675901a455951db10e33b411821b9ee&#45;&gt;dir_a1f42069ba95676f6b9abbd5065ccf6d -->
<g id="edge3" class="edge"><title>dir_2675901a455951db10e33b411821b9ee&#45;&gt;dir_a1f42069ba95676f6b9abbd5065ccf6d</title>
<path fill="none" stroke="black" d="M203.627,-143.885C201.635,-125.42 196.905,-95.505 186,-72 181.447,-62.1858 174.791,-52.5077 168.161,-44.1619"/>
<polygon fill="black" stroke="black" points="170.707,-41.7498 161.619,-36.3046 165.328,-46.229 170.707,-41.7498"/>
<g id="a_edge3&#45;headlabel"><a xlink:href="dir_000057_000055.html" target="_top" xlink:title="1">
<text text-anchor="middle" x="175.189" y="-40.1953" font-family="Helvetica,sans-Serif" font-size="10.00">1</text>
</a>
</g>
</g>
<!-- dir_f5906172d2c9558d453eb81ef8e5bf93 -->
<g id="node6" class="node"><title>dir_f5906172d2c9558d453eb81ef8e5bf93</title>
<g id="a_node6"><a xlink:href="dir_f5906172d2c9558d453eb81ef8e5bf93.html" target="_top" xlink:title="Index">
<polygon fill="none" stroke="black" points="287,-108 233,-108 233,-72 287,-72 287,-108"/>
<text text-anchor="middle" x="260" y="-87.5" font-family="Helvetica,sans-Serif" font-size="10.00">Index</text>
</a>
</g>
</g>
<!-- dir_2675901a455951db10e33b411821b9ee&#45;&gt;dir_f5906172d2c9558d453eb81ef8e5bf93 -->
<g id="edge4" class="edge"><title>dir_2675901a455951db10e33b411821b9ee&#45;&gt;dir_f5906172d2c9558d453eb81ef8e5bf93</title>
<path fill="none" stroke="black" d="M218.596,-143.697C225.123,-135.389 233.068,-125.277 240.247,-116.141"/>
<polygon fill="black" stroke="black" points="243.135,-118.13 246.561,-108.104 237.631,-113.805 243.135,-118.13"/>
<g id="a_edge4&#45;headlabel"><a xlink:href="dir_000057_000053.html" target="_top" xlink:title="10">
<text text-anchor="middle" x="243.147" y="-120.211" font-family="Helvetica,sans-Serif" font-size="10.00">10</text>
</a>
</g>
</g>
<!-- dir_2d724381b1913a754e7c1695472549cc -->
<g id="node2" class="node"><title>dir_2d724381b1913a754e7c1695472549cc</title>
<g id="a_node2"><a xlink:href="dir_2d724381b1913a754e7c1695472549cc.html" target="_top" xlink:title="Iterator">
<polygon fill="white" stroke="red" points="160,-180 106,-180 106,-144 160,-144 160,-180"/>
<text text-anchor="middle" x="133" y="-159.5" font-family="Helvetica,sans-Serif" font-size="10.00">Iterator</text>
</a>
</g>
</g>
<!-- dir_44dcc2d7f7924438ebbdcade2f802f83 -->
<g id="node3" class="node"><title>dir_44dcc2d7f7924438ebbdcade2f802f83</title>
<g id="a_node3"><a xlink:href="dir_44dcc2d7f7924438ebbdcade2f802f83.html" target="_top" xlink:title="Operations">
<polygon fill="white" stroke="black" points="88,-180 24,-180 24,-144 88,-144 88,-180"/>
<text text-anchor="middle" x="56" y="-159.5" font-family="Helvetica,sans-Serif" font-size="10.00">Operations</text>
</a>
</g>
</g>
<!-- dir_1456dd235032e023892318efbecb420b&#45;&gt;dir_a1f42069ba95676f6b9abbd5065ccf6d -->
<g id="edge1" class="edge"><title>dir_1456dd235032e023892318efbecb420b&#45;&gt;dir_a1f42069ba95676f6b9abbd5065ccf6d</title>
<path fill="none" stroke="black" d="M139.084,-71.6966C138.289,-63.9827 138.062,-54.7125 138.405,-46.1124"/>
<polygon fill="black" stroke="black" points="141.898,-46.3243 139.105,-36.1043 134.915,-45.8356 141.898,-46.3243"/>
<g id="a_edge1&#45;headlabel"><a xlink:href="dir_000035_000055.html" target="_top" xlink:title="1">
<text text-anchor="middle" x="144.48" y="-47.6083" font-family="Helvetica,sans-Serif" font-size="10.00">1</text>
</a>
</g>
</g>
<!-- dir_a1f42069ba95676f6b9abbd5065ccf6d&#45;&gt;dir_1456dd235032e023892318efbecb420b -->
<g id="edge5" class="edge"><title>dir_a1f42069ba95676f6b9abbd5065ccf6d&#45;&gt;dir_1456dd235032e023892318efbecb420b</title>
<path fill="none" stroke="black" d="M150.895,-36.1043C151.701,-43.7913 151.937,-53.0537 151.604,-61.6651"/>
<polygon fill="black" stroke="black" points="148.109,-61.4805 150.916,-71.6966 155.092,-61.9597 148.109,-61.4805"/>
<g id="a_edge5&#45;headlabel"><a xlink:href="dir_000055_000035.html" target="_top" xlink:title="3">
<text text-anchor="middle" x="145.522" y="-55.2" font-family="Helvetica,sans-Serif" font-size="10.00">3</text>
</a>
</g>
</g>
</g>
</svg>
