<?xml version="1.0" encoding="UTF-8" standalone="no"?>
<!DOCTYPE svg PUBLIC "-//W3C//DTD SVG 1.1//EN"
 "http://www.w3.org/Graphics/SVG/1.1/DTD/svg11.dtd">
<!-- Generated by graphviz version 2.36.0 (20140111.2315)
 -->
<!-- Title: /home/travis/build/STORM&#45;IRIT/Radium&#45;Engine/src/Core/Animation/Skinning Pages: 1 -->
<svg width="534pt" height="655pt"
 viewBox="0.00 0.00 534.00 655.00" xmlns="http://www.w3.org/2000/svg" xmlns:xlink="http://www.w3.org/1999/xlink">
<g id="graph0" class="graph" transform="scale(1 1) rotate(0) translate(4 651)">
<title>/home/travis/build/STORM&#45;IRIT/Radium&#45;Engine/src/Core/Animation/Skinning</title>
<polygon fill="white" stroke="none" points="-4,4 -4,-651 530,-651 530,4 -4,4"/>
<g id="clust1" class="cluster"><title>clusterdir_721a74ea40d2768c46a3c9514389a16b</title>
<g id="a_clust1"><a xlink:href="dir_721a74ea40d2768c46a3c9514389a16b.html" target="_top" xlink:title="Animation">
<polygon fill="#ddddee" stroke="black" points="303,-568 303,-639 373,-639 373,-568 303,-568"/>
<text text-anchor="middle" x="338" y="-627" font-family="Helvetica,sans-Serif" font-size="10.00">Animation</text>
</a>
</g>
</g>
<!-- dir_7370db5ffd6e13fa616902e0fbacb1f0 -->
<g id="node1" class="node"><title>dir_7370db5ffd6e13fa616902e0fbacb1f0</title>
<g id="a_node1"><a xlink:href="dir_7370db5ffd6e13fa616902e0fbacb1f0.html" target="_top" xlink:title="Skinning">
<polygon fill="#eeeeff" stroke="black" points="365,-612 311,-612 311,-576 365,-576 365,-612"/>
<text text-anchor="middle" x="338" y="-591.5" font-family="Helvetica,sans-Serif" font-size="10.00">Skinning</text>
</a>
</g>
</g>
<!-- dir_2c6b9e60b5cfd48e3d1f71fa90957520 -->
<g id="node2" class="node"><title>dir_2c6b9e60b5cfd48e3d1f71fa90957520</title>
<g id="a_node2"><a xlink:href="dir_2c6b9e60b5cfd48e3d1f71fa90957520.html" target="_top" xlink:title="Pose">
<polygon fill="none" stroke="black" points="310,-540 256,-540 256,-504 310,-504 310,-540"/>
<text text-anchor="middle" x="283" y="-519.5" font-family="Helvetica,sans-Serif" font-size="10.00">Pose</text>
</a>
</g>
</g>
<!-- dir_7370db5ffd6e13fa616902e0fbacb1f0&#45;&gt;dir_2c6b9e60b5cfd48e3d1f71fa90957520 -->
<g id="edge16" class="edge"><title>dir_7370db5ffd6e13fa616902e0fbacb1f0&#45;&gt;dir_2c6b9e60b5cfd48e3d1f71fa90957520</title>
<path fill="none" stroke="black" d="M324.404,-575.697C317.877,-567.389 309.932,-557.277 302.753,-548.141"/>
<polygon fill="black" stroke="black" points="305.369,-545.805 296.439,-540.104 299.865,-550.13 305.369,-545.805"/>
<g id="a_edge16&#45;headlabel"><a xlink:href="dir_000034_000032.html" target="_top" xlink:title="5">
<text text-anchor="middle" x="309.823" y="-544.377" font-family="Helvetica,sans-Serif" font-size="10.00">5</text>
</a>
</g>
</g>
<!-- dir_91c141b8e78af59a0323020451a6b6a2 -->
<g id="node3" class="node"><title>dir_91c141b8e78af59a0323020451a6b6a2</title>
<g id="a_node3"><a xlink:href="dir_91c141b8e78af59a0323020451a6b6a2.html" target="_top" xlink:title="Handle">
<polygon fill="none" stroke="black" points="158,-252 104,-252 104,-216 158,-216 158,-252"/>
<text text-anchor="middle" x="131" y="-231.5" font-family="Helvetica,sans-Serif" font-size="10.00">Handle</text>
</a>
</g>
</g>
<!-- dir_7370db5ffd6e13fa616902e0fbacb1f0&#45;&gt;dir_91c141b8e78af59a0323020451a6b6a2 -->
<g id="edge17" class="edge"><title>dir_7370db5ffd6e13fa616902e0fbacb1f0&#45;&gt;dir_91c141b8e78af59a0323020451a6b6a2</title>
<path fill="none" stroke="black" d="M310.848,-592.557C237,-589.778 38,-571.144 38,-451 38,-451 38,-451 38,-377 38,-329.322 75.1451,-285.192 102.485,-259.168"/>
<polygon fill="black" stroke="black" points="104.927,-261.677 109.897,-252.32 100.177,-256.535 104.927,-261.677"/>
<g id="a_edge17&#45;headlabel"><a xlink:href="dir_000034_000031.html" target="_top" xlink:title="5">
<text text-anchor="middle" x="104.213" y="-263.702" font-family="Helvetica,sans-Serif" font-size="10.00">5</text>
</a>
</g>
</g>
<!-- dir_1456dd235032e023892318efbecb420b -->
<g id="node4" class="node"><title>dir_1456dd235032e023892318efbecb420b</title>
<g id="a_node4"><a xlink:href="dir_1456dd235032e023892318efbecb420b.html" target="_top" xlink:title="Containers">
<polygon fill="none" stroke="black" points="263,-468 199,-468 199,-432 263,-432 263,-468"/>
<text text-anchor="middle" x="231" y="-447.5" font-family="Helvetica,sans-Serif" font-size="10.00">Containers</text>
</a>
</g>
</g>
<!-- dir_7370db5ffd6e13fa616902e0fbacb1f0&#45;&gt;dir_1456dd235032e023892318efbecb420b -->
<g id="edge18" class="edge"><title>dir_7370db5ffd6e13fa616902e0fbacb1f0&#45;&gt;dir_1456dd235032e023892318efbecb420b</title>
<path fill="none" stroke="black" d="M310.938,-584.332C290.128,-576.226 262.41,-562.019 247,-540 234.375,-521.961 230.781,-496.973 230.112,-478.066"/>
<polygon fill="black" stroke="black" points="233.611,-477.966 230.006,-468.003 226.612,-478.039 233.611,-477.966"/>
<g id="a_edge18&#45;headlabel"><a xlink:href="dir_000034_000035.html" target="_top" xlink:title="4">
<text text-anchor="middle" x="236.488" y="-479.03" font-family="Helvetica,sans-Serif" font-size="10.00">4</text>
</a>
</g>
</g>
<!-- dir_d080e052e6032887076b6b5756e5361d -->
<g id="node5" class="node"><title>dir_d080e052e6032887076b6b5756e5361d</title>
<g id="a_node5"><a xlink:href="dir_d080e052e6032887076b6b5756e5361d.html" target="_top" xlink:title="Mesh">
<polygon fill="white" stroke="red" points="353,-108 299,-108 299,-72 353,-72 353,-108"/>
<text text-anchor="middle" x="326" y="-87.5" font-family="Helvetica,sans-Serif" font-size="10.00">Mesh</text>
</a>
</g>
</g>
<!-- dir_7370db5ffd6e13fa616902e0fbacb1f0&#45;&gt;dir_d080e052e6032887076b6b5756e5361d -->
<g id="edge19" class="edge"><title>dir_7370db5ffd6e13fa616902e0fbacb1f0&#45;&gt;dir_d080e052e6032887076b6b5756e5361d</title>
<path fill="none" stroke="black" d="M365.164,-582.072C408.39,-562.677 488,-517.879 488,-451 488,-451 488,-451 488,-233 488,-166.695 410.307,-124.124 362.529,-104.213"/>
<polygon fill="black" stroke="black" points="363.699,-100.911 353.115,-100.42 361.083,-107.404 363.699,-100.911"/>
<g id="a_edge19&#45;headlabel"><a xlink:href="dir_000034_000056.html" target="_top" xlink:title="6">
<text text-anchor="middle" x="368.094" y="-97.1209" font-family="Helvetica,sans-Serif" font-size="10.00">6</text>
</a>
</g>
</g>
<!-- dir_a1f42069ba95676f6b9abbd5065ccf6d -->
<g id="node6" class="node"><title>dir_a1f42069ba95676f6b9abbd5065ccf6d</title>
<g id="a_node6"><a xlink:href="dir_a1f42069ba95676f6b9abbd5065ccf6d.html" target="_top" xlink:title="Math">
<polygon fill="none" stroke="black" points="348,-396 294,-396 294,-360 348,-360 348,-396"/>
<text text-anchor="middle" x="321" y="-375.5" font-family="Helvetica,sans-Serif" font-size="10.00">Math</text>
</a>
</g>
</g>
<!-- dir_7370db5ffd6e13fa616902e0fbacb1f0&#45;&gt;dir_a1f42069ba95676f6b9abbd5065ccf6d -->
<g id="edge20" class="edge"><title>dir_7370db5ffd6e13fa616902e0fbacb1f0&#45;&gt;dir_a1f42069ba95676f6b9abbd5065ccf6d</title>
<path fill="none" stroke="black" d="M336.638,-575.849C333.697,-538.832 326.734,-451.181 323.176,-406.386"/>
<polygon fill="black" stroke="black" points="326.65,-405.924 322.369,-396.232 319.672,-406.478 326.65,-405.924"/>
<g id="a_edge20&#45;headlabel"><a xlink:href="dir_000034_000055.html" target="_top" xlink:title="4">
<text text-anchor="middle" x="329.765" y="-406.782" font-family="Helvetica,sans-Serif" font-size="10.00">4</text>
</a>
</g>
</g>
<!-- dir_cb2b5dfd43482fb277f6333d539f1f06 -->
<g id="node7" class="node"><title>dir_cb2b5dfd43482fb277f6333d539f1f06</title>
<g id="a_node7"><a xlink:href="dir_cb2b5dfd43482fb277f6333d539f1f06.html" target="_top" xlink:title="Geometry">
<polygon fill="white" stroke="red" points="334.25,-324 275.75,-324 275.75,-288 334.25,-288 334.25,-324"/>
<text text-anchor="middle" x="305" y="-303.5" font-family="Helvetica,sans-Serif" font-size="10.00">Geometry</text>
</a>
</g>
</g>
<!-- dir_7370db5ffd6e13fa616902e0fbacb1f0&#45;&gt;dir_cb2b5dfd43482fb277f6333d539f1f06 -->
<g id="edge21" class="edge"><title>dir_7370db5ffd6e13fa616902e0fbacb1f0&#45;&gt;dir_cb2b5dfd43482fb277f6333d539f1f06</title>
<path fill="none" stroke="black" d="M344.527,-575.814C358.547,-536.086 387.859,-435.515 357,-360 352.512,-349.017 344.53,-339.081 336.146,-330.858"/>
<polygon fill="black" stroke="black" points="338.492,-328.261 328.752,-324.09 333.765,-333.424 338.492,-328.261"/>
<g id="a_edge21&#45;headlabel"><a xlink:href="dir_000034_000040.html" target="_top" xlink:title="1">
<text text-anchor="middle" x="343.06" y="-326.094" font-family="Helvetica,sans-Serif" font-size="10.00">1</text>
</a>
</g>
</g>
<!-- dir_1efe152df2f2e9cd3517b1174a4598d7 -->
<g id="node8" class="node"><title>dir_1efe152df2f2e9cd3517b1174a4598d7</title>
<g id="a_node8"><a xlink:href="dir_1efe152df2f2e9cd3517b1174a4598d7.html" target="_top" xlink:title="Log">
<polygon fill="none" stroke="black" points="196,-36 142,-36 142,-0 196,-0 196,-36"/>
<text text-anchor="middle" x="169" y="-15.5" font-family="Helvetica,sans-Serif" font-size="10.00">Log</text>
</a>
</g>
</g>
<!-- dir_7370db5ffd6e13fa616902e0fbacb1f0&#45;&gt;dir_1efe152df2f2e9cd3517b1174a4598d7 -->
<g id="edge22" class="edge"><title>dir_7370db5ffd6e13fa616902e0fbacb1f0&#45;&gt;dir_1efe152df2f2e9cd3517b1174a4598d7</title>
<path fill="none" stroke="black" d="M310.911,-593.822C230.705,-594.724 0,-585.617 0,-451 0,-451 0,-451 0,-161 0,-92.3788 82.683,-50.2803 132.382,-31.174"/>
<polygon fill="black" stroke="black" points="133.692,-34.4212 141.847,-27.6583 131.254,-27.8592 133.692,-34.4212"/>
<g id="a_edge22&#45;headlabel"><a xlink:href="dir_000034_000054.html" target="_top" xlink:title="1">
<text text-anchor="middle" x="131.31" y="-35.8343" font-family="Helvetica,sans-Serif" font-size="10.00">1</text>
</a>
</g>
</g>
<!-- dir_f5906172d2c9558d453eb81ef8e5bf93 -->
<g id="node9" class="node"><title>dir_f5906172d2c9558d453eb81ef8e5bf93</title>
<g id="a_node9"><a xlink:href="dir_f5906172d2c9558d453eb81ef8e5bf93.html" target="_top" xlink:title="Index">
<polygon fill="none" stroke="black" points="387,-36 333,-36 333,-0 387,-0 387,-36"/>
<text text-anchor="middle" x="360" y="-15.5" font-family="Helvetica,sans-Serif" font-size="10.00">Index</text>
</a>
</g>
</g>
<!-- dir_7370db5ffd6e13fa616902e0fbacb1f0&#45;&gt;dir_f5906172d2c9558d453eb81ef8e5bf93 -->
<g id="edge23" class="edge"><title>dir_7370db5ffd6e13fa616902e0fbacb1f0&#45;&gt;dir_f5906172d2c9558d453eb81ef8e5bf93</title>
<path fill="none" stroke="black" d="M365.337,-586.126C417.478,-571.193 526,-530.556 526,-451 526,-451 526,-451 526,-161 526,-93.4091 445.546,-51.1065 396.658,-31.6408"/>
<polygon fill="black" stroke="black" points="397.63,-28.2647 387.04,-27.942 395.117,-34.7982 397.63,-28.2647"/>
<g id="a_edge23&#45;headlabel"><a xlink:href="dir_000034_000053.html" target="_top" xlink:title="1">
<text text-anchor="middle" x="402.004" y="-24.4049" font-family="Helvetica,sans-Serif" font-size="10.00">1</text>
</a>
</g>
</g>
<!-- dir_ff87cf903db18af0fdb6c342683ece25 -->
<g id="node10" class="node"><title>dir_ff87cf903db18af0fdb6c342683ece25</title>
<g id="a_node10"><a xlink:href="dir_ff87cf903db18af0fdb6c342683ece25.html" target="_top" xlink:title="Utils">
<polygon fill="white" stroke="red" points="289,-180 235,-180 235,-144 289,-144 289,-180"/>
<text text-anchor="middle" x="262" y="-159.5" font-family="Helvetica,sans-Serif" font-size="10.00">Utils</text>
</a>
</g>
</g>
<!-- dir_7370db5ffd6e13fa616902e0fbacb1f0&#45;&gt;dir_ff87cf903db18af0fdb6c342683ece25 -->
<g id="edge24" class="edge"><title>dir_7370db5ffd6e13fa616902e0fbacb1f0&#45;&gt;dir_ff87cf903db18af0fdb6c342683ece25</title>
<path fill="none" stroke="black" d="M355.576,-575.976C379.399,-550.986 419,-501.803 419,-451 419,-451 419,-451 419,-377 419,-293.929 341.141,-221.731 295.081,-186.289"/>
<polygon fill="black" stroke="black" points="296.969,-183.329 286.877,-180.104 292.756,-188.919 296.969,-183.329"/>
<g id="a_edge24&#45;headlabel"><a xlink:href="dir_000034_000073.html" target="_top" xlink:title="1">
<text text-anchor="middle" x="301.549" y="-180.725" font-family="Helvetica,sans-Serif" font-size="10.00">1</text>
</a>
</g>
</g>
<!-- dir_2c6b9e60b5cfd48e3d1f71fa90957520&#45;&gt;dir_1456dd235032e023892318efbecb420b -->
<g id="edge1" class="edge"><title>dir_2c6b9e60b5cfd48e3d1f71fa90957520&#45;&gt;dir_1456dd235032e023892318efbecb420b</title>
<path fill="none" stroke="black" d="M270.146,-503.697C263.975,-495.389 256.463,-485.277 249.676,-476.141"/>
<polygon fill="black" stroke="black" points="252.479,-474.045 243.706,-468.104 246.86,-478.219 252.479,-474.045"/>
<g id="a_edge1&#45;headlabel"><a xlink:href="dir_000032_000035.html" target="_top" xlink:title="1">
<text text-anchor="middle" x="256.902" y="-472.737" font-family="Helvetica,sans-Serif" font-size="10.00">1</text>
</a>
</g>
</g>
<!-- dir_2c6b9e60b5cfd48e3d1f71fa90957520&#45;&gt;dir_a1f42069ba95676f6b9abbd5065ccf6d -->
<g id="edge2" class="edge"><title>dir_2c6b9e60b5cfd48e3d1f71fa90957520&#45;&gt;dir_a1f42069ba95676f6b9abbd5065ccf6d</title>
<path fill="none" stroke="black" d="M287.584,-503.871C294.089,-479.564 306.063,-434.819 313.771,-406.013"/>
<polygon fill="black" stroke="black" points="317.196,-406.754 316.4,-396.189 310.434,-404.945 317.196,-406.754"/>
<g id="a_edge2&#45;headlabel"><a xlink:href="dir_000032_000055.html" target="_top" xlink:title="1">
<text text-anchor="middle" x="319.01" y="-408.461" font-family="Helvetica,sans-Serif" font-size="10.00">1</text>
</a>
</g>
</g>
<!-- dir_91c141b8e78af59a0323020451a6b6a2&#45;&gt;dir_2c6b9e60b5cfd48e3d1f71fa90957520 -->
<g id="edge3" class="edge"><title>dir_91c141b8e78af59a0323020451a6b6a2&#45;&gt;dir_2c6b9e60b5cfd48e3d1f71fa90957520</title>
<path fill="none" stroke="black" d="M130.929,-252.168C131.614,-293.613 138.591,-400.676 190,-468 204.183,-486.574 226.873,-499.689 246.29,-508.226"/>
<polygon fill="black" stroke="black" points="245.216,-511.57 255.794,-512.165 247.897,-505.103 245.216,-511.57"/>
<g id="a_edge3&#45;headlabel"><a xlink:href="dir_000031_000032.html" target="_top" xlink:title="1">
<text text-anchor="middle" x="240.809" y="-510.316" font-family="Helvetica,sans-Serif" font-size="10.00">1</text>
</a>
</g>
</g>
<!-- dir_91c141b8e78af59a0323020451a6b6a2&#45;&gt;dir_1456dd235032e023892318efbecb420b -->
<g id="edge4" class="edge"><title>dir_91c141b8e78af59a0323020451a6b6a2&#45;&gt;dir_1456dd235032e023892318efbecb420b</title>
<path fill="none" stroke="black" d="M139.053,-252.232C156.495,-289.56 197.867,-378.095 218.644,-422.558"/>
<polygon fill="black" stroke="black" points="215.581,-424.271 222.986,-431.849 221.923,-421.308 215.581,-424.271"/>
<g id="a_edge4&#45;headlabel"><a xlink:href="dir_000031_000035.html" target="_top" xlink:title="2">
<text text-anchor="middle" x="211.487" y="-419.717" font-family="Helvetica,sans-Serif" font-size="10.00">2</text>
</a>
</g>
</g>
<!-- dir_91c141b8e78af59a0323020451a6b6a2&#45;&gt;dir_d080e052e6032887076b6b5756e5361d -->
<g id="edge5" class="edge"><title>dir_91c141b8e78af59a0323020451a6b6a2&#45;&gt;dir_d080e052e6032887076b6b5756e5361d</title>
<path fill="none" stroke="black" d="M146.648,-215.818C164.587,-196.751 195.468,-165.801 226,-144 245.926,-129.772 270.147,-116.838 289.761,-107.309"/>
<polygon fill="black" stroke="black" points="291.459,-110.377 298.98,-102.914 288.447,-104.058 291.459,-110.377"/>
<g id="a_edge5&#45;headlabel"><a xlink:href="dir_000031_000056.html" target="_top" xlink:title="1">
<text text-anchor="middle" x="289.436" y="-111.986" font-family="Helvetica,sans-Serif" font-size="10.00">1</text>
</a>
</g>
</g>
<!-- dir_91c141b8e78af59a0323020451a6b6a2&#45;&gt;dir_a1f42069ba95676f6b9abbd5065ccf6d -->
<g id="edge6" class="edge"><title>dir_91c141b8e78af59a0323020451a6b6a2&#45;&gt;dir_a1f42069ba95676f6b9abbd5065ccf6d</title>
<path fill="none" stroke="black" d="M154,-252.189C187.998,-277.599 251.749,-325.244 289.891,-353.75"/>
<polygon fill="black" stroke="black" points="287.976,-356.688 298.082,-359.871 292.167,-351.081 287.976,-356.688"/>
<g id="a_edge6&#45;headlabel"><a xlink:href="dir_000031_000055.html" target="_top" xlink:title="2">
<text text-anchor="middle" x="283.397" y="-354.311" font-family="Helvetica,sans-Serif" font-size="10.00">2</text>
</a>
</g>
</g>
<!-- dir_91c141b8e78af59a0323020451a6b6a2&#45;&gt;dir_1efe152df2f2e9cd3517b1174a4598d7 -->
<g id="edge7" class="edge"><title>dir_91c141b8e78af59a0323020451a6b6a2&#45;&gt;dir_1efe152df2f2e9cd3517b1174a4598d7</title>
<path fill="none" stroke="black" d="M132.912,-215.971C136.363,-186.473 144.283,-124.037 155,-72 156.755,-63.4797 159.041,-54.2869 161.256,-45.9882"/>
<polygon fill="black" stroke="black" points="164.706,-46.6422 163.978,-36.0724 157.956,-44.7893 164.706,-46.6422"/>
<g id="a_edge7&#45;headlabel"><a xlink:href="dir_000031_000054.html" target="_top" xlink:title="1">
<text text-anchor="middle" x="166.493" y="-48.3601" font-family="Helvetica,sans-Serif" font-size="10.00">1</text>
</a>
</g>
</g>
<!-- dir_91c141b8e78af59a0323020451a6b6a2&#45;&gt;dir_ff87cf903db18af0fdb6c342683ece25 -->
<g id="edge8" class="edge"><title>dir_91c141b8e78af59a0323020451a6b6a2&#45;&gt;dir_ff87cf903db18af0fdb6c342683ece25</title>
<path fill="none" stroke="black" d="M158.143,-218.496C177.816,-207.984 204.616,-193.663 226.064,-182.203"/>
<polygon fill="black" stroke="black" points="227.721,-185.285 234.891,-177.485 224.422,-179.111 227.721,-185.285"/>
<g id="a_edge8&#45;headlabel"><a xlink:href="dir_000031_000073.html" target="_top" xlink:title="1">
<text text-anchor="middle" x="225.889" y="-186.984" font-family="Helvetica,sans-Serif" font-size="10.00">1</text>
</a>
</g>
</g>
<!-- dir_1456dd235032e023892318efbecb420b&#45;&gt;dir_a1f42069ba95676f6b9abbd5065ccf6d -->
<g id="edge9" class="edge"><title>dir_1456dd235032e023892318efbecb420b&#45;&gt;dir_a1f42069ba95676f6b9abbd5065ccf6d</title>
<path fill="none" stroke="black" d="M247.331,-431.697C258.014,-422.663 272.222,-411.495 285.356,-401.769"/>
<polygon fill="black" stroke="black" points="287.767,-404.342 293.785,-395.622 283.643,-398.687 287.767,-404.342"/>
<g id="a_edge9&#45;headlabel"><a xlink:href="dir_000035_000055.html" target="_top" xlink:title="1">
<text text-anchor="middle" x="286.536" y="-406.254" font-family="Helvetica,sans-Serif" font-size="10.00">1</text>
</a>
</g>
</g>
<!-- dir_d080e052e6032887076b6b5756e5361d&#45;&gt;dir_1456dd235032e023892318efbecb420b -->
<g id="edge10" class="edge"><title>dir_d080e052e6032887076b6b5756e5361d&#45;&gt;dir_1456dd235032e023892318efbecb420b</title>
<path fill="none" stroke="black" d="M298.908,-95.2627C246.374,-105.234 132.527,-135.64 95,-216 57.7355,-295.798 148.583,-384.074 199.45,-425.324"/>
<polygon fill="black" stroke="black" points="197.541,-428.277 207.545,-431.766 201.9,-422.8 197.541,-428.277"/>
<g id="a_edge10&#45;headlabel"><a xlink:href="dir_000056_000035.html" target="_top" xlink:title="4">
<text text-anchor="middle" x="192.96" y="-425.76" font-family="Helvetica,sans-Serif" font-size="10.00">4</text>
</a>
</g>
</g>
<!-- dir_d080e052e6032887076b6b5756e5361d&#45;&gt;dir_a1f42069ba95676f6b9abbd5065ccf6d -->
<g id="edge11" class="edge"><title>dir_d080e052e6032887076b6b5756e5361d&#45;&gt;dir_a1f42069ba95676f6b9abbd5065ccf6d</title>
<path fill="none" stroke="black" d="M340.496,-108.377C345.161,-118.586 349.161,-131.836 351,-144 371.013,-276.357 357.364,-297.085 352,-324 350.189,-333.087 346.79,-342.566 342.765,-350.953"/>
<polygon fill="black" stroke="black" points="339.622,-349.409 338.006,-359.88 345.799,-352.702 339.622,-349.409"/>
<g id="a_edge11&#45;headlabel"><a xlink:href="dir_000056_000055.html" target="_top" xlink:title="8">
<text text-anchor="middle" x="338.808" y="-342.401" font-family="Helvetica,sans-Serif" font-size="10.00">8</text>
</a>
</g>
</g>
<!-- dir_d080e052e6032887076b6b5756e5361d&#45;&gt;dir_cb2b5dfd43482fb277f6333d539f1f06 -->
<g id="edge12" class="edge"><title>dir_d080e052e6032887076b6b5756e5361d&#45;&gt;dir_cb2b5dfd43482fb277f6333d539f1f06</title>
<path fill="none" stroke="black" d="M328.194,-108.232C328.085,-145.403 319.715,-233.352 312.316,-277.996"/>
<polygon fill="black" stroke="black" points="308.869,-277.39 310.561,-287.849 315.761,-278.618 308.869,-277.39"/>
<g id="a_edge12&#45;headlabel"><a xlink:href="dir_000056_000040.html" target="_top" xlink:title="2">
<text text-anchor="middle" x="306.705" y="-270.853" font-family="Helvetica,sans-Serif" font-size="10.00">2</text>
</a>
</g>
</g>
<!-- dir_d080e052e6032887076b6b5756e5361d&#45;&gt;dir_1efe152df2f2e9cd3517b1174a4598d7 -->
<g id="edge13" class="edge"><title>dir_d080e052e6032887076b6b5756e5361d&#45;&gt;dir_1efe152df2f2e9cd3517b1174a4598d7</title>
<path fill="none" stroke="black" d="M298.653,-76.8069C272.763,-65.2638 233.725,-47.8584 205.251,-35.1629"/>
<polygon fill="black" stroke="black" points="206.593,-31.9289 196.034,-31.0533 203.742,-38.3222 206.593,-31.9289"/>
<g id="a_edge13&#45;headlabel"><a xlink:href="dir_000056_000054.html" target="_top" xlink:title="3">
<text text-anchor="middle" x="211.032" y="-28.2995" font-family="Helvetica,sans-Serif" font-size="10.00">3</text>
</a>
</g>
</g>
<!-- dir_d080e052e6032887076b6b5756e5361d&#45;&gt;dir_f5906172d2c9558d453eb81ef8e5bf93 -->
<g id="edge14" class="edge"><title>dir_d080e052e6032887076b6b5756e5361d&#45;&gt;dir_f5906172d2c9558d453eb81ef8e5bf93</title>
<path fill="none" stroke="black" d="M334.404,-71.6966C338.275,-63.7284 342.952,-54.0995 347.243,-45.2641"/>
<polygon fill="black" stroke="black" points="350.471,-46.6286 351.692,-36.1043 344.175,-43.5702 350.471,-46.6286"/>
<g id="a_edge14&#45;headlabel"><a xlink:href="dir_000056_000053.html" target="_top" xlink:title="14">
<text text-anchor="middle" x="351.455" y="-48.6025" font-family="Helvetica,sans-Serif" font-size="10.00">14</text>
</a>
</g>
</g>
<!-- dir_d080e052e6032887076b6b5756e5361d&#45;&gt;dir_ff87cf903db18af0fdb6c342683ece25 -->
<g id="edge15" class="edge"><title>dir_d080e052e6032887076b6b5756e5361d&#45;&gt;dir_ff87cf903db18af0fdb6c342683ece25</title>
<path fill="none" stroke="black" d="M316.257,-108.104C309.35,-116.636 299.968,-127.108 290.894,-136.478"/>
<polygon fill="black" stroke="black" points="288.292,-134.131 283.736,-143.697 293.262,-139.06 288.292,-134.131"/>
<g id="a_edge15&#45;headlabel"><a xlink:href="dir_000056_000073.html" target="_top" xlink:title="2">
<text text-anchor="middle" x="288.807" y="-127.08" font-family="Helvetica,sans-Serif" font-size="10.00">2</text>
</a>
</g>
</g>
<!-- dir_a1f42069ba95676f6b9abbd5065ccf6d&#45;&gt;dir_1456dd235032e023892318efbecb420b -->
<g id="edge25" class="edge"><title>dir_a1f42069ba95676f6b9abbd5065ccf6d&#45;&gt;dir_1456dd235032e023892318efbecb420b</title>
<path fill="none" stroke="black" d="M304.904,-396.104C294.429,-404.974 280.501,-415.941 267.515,-425.585"/>
<polygon fill="black" stroke="black" points="265.166,-422.967 259.163,-431.697 269.3,-428.616 265.166,-422.967"/>
<g id="a_edge25&#45;headlabel"><a xlink:href="dir_000055_000035.html" target="_top" xlink:title="3">
<text text-anchor="middle" x="266.39" y="-416.053" font-family="Helvetica,sans-Serif" font-size="10.00">3</text>
</a>
</g>
</g>
<!-- dir_a1f42069ba95676f6b9abbd5065ccf6d&#45;&gt;dir_d080e052e6032887076b6b5756e5361d -->
<g id="edge26" class="edge"><title>dir_a1f42069ba95676f6b9abbd5065ccf6d&#45;&gt;dir_d080e052e6032887076b6b5756e5361d</title>
<path fill="none" stroke="black" d="M322.256,-359.88C326.007,-349.756 331.507,-336.506 334,-324 339.364,-297.085 353.013,-276.357 333,-144 331.707,-135.447 329.345,-126.357 327.218,-118.165"/>
<polygon fill="black" stroke="black" points="330.588,-117.215 324.746,-108.377 323.801,-118.929 330.588,-117.215"/>
<g id="a_edge26&#45;headlabel"><a xlink:href="dir_000055_000056.html" target="_top" xlink:title="1">
<text text-anchor="middle" x="334.221" y="-117.505" font-family="Helvetica,sans-Serif" font-size="10.00">1</text>
</a>
</g>
</g>
<!-- dir_a1f42069ba95676f6b9abbd5065ccf6d&#45;&gt;dir_cb2b5dfd43482fb277f6333d539f1f06 -->
<g id="edge27" class="edge"><title>dir_a1f42069ba95676f6b9abbd5065ccf6d&#45;&gt;dir_cb2b5dfd43482fb277f6333d539f1f06</title>
<path fill="none" stroke="black" d="M311.129,-359.697C308.57,-351.983 306.225,-342.712 304.602,-334.112"/>
<polygon fill="black" stroke="black" points="308.038,-333.433 303.015,-324.104 301.124,-334.529 308.038,-333.433"/>
<g id="a_edge27&#45;headlabel"><a xlink:href="dir_000055_000040.html" target="_top" xlink:title="2">
<text text-anchor="middle" x="311.405" y="-334.038" font-family="Helvetica,sans-Serif" font-size="10.00">2</text>
</a>
</g>
</g>
<!-- dir_cb2b5dfd43482fb277f6333d539f1f06&#45;&gt;dir_91c141b8e78af59a0323020451a6b6a2 -->
<g id="edge28" class="edge"><title>dir_cb2b5dfd43482fb277f6333d539f1f06&#45;&gt;dir_91c141b8e78af59a0323020451a6b6a2</title>
<path fill="none" stroke="black" d="M275.634,-293.433C248.653,-282.773 207.575,-266.463 172,-252 170.617,-251.438 169.208,-250.863 167.786,-250.281"/>
<polygon fill="black" stroke="black" points="168.905,-246.957 158.325,-246.392 166.243,-253.431 168.905,-246.957"/>
<g id="a_edge28&#45;headlabel"><a xlink:href="dir_000040_000031.html" target="_top" xlink:title="1">
<text text-anchor="middle" x="173.309" y="-243.198" font-family="Helvetica,sans-Serif" font-size="10.00">1</text>
</a>
</g>
</g>
<!-- dir_cb2b5dfd43482fb277f6333d539f1f06&#45;&gt;dir_1456dd235032e023892318efbecb420b -->
<g id="edge29" class="edge"><title>dir_cb2b5dfd43482fb277f6333d539f1f06&#45;&gt;dir_1456dd235032e023892318efbecb420b</title>
<path fill="none" stroke="black" d="M296.042,-324.189C283.246,-348.745 259.627,-394.066 244.647,-422.812"/>
<polygon fill="black" stroke="black" points="241.444,-421.386 239.926,-431.871 247.651,-424.621 241.444,-421.386"/>
<g id="a_edge29&#45;headlabel"><a xlink:href="dir_000040_000035.html" target="_top" xlink:title="12">
<text text-anchor="middle" x="240.587" y="-414.386" font-family="Helvetica,sans-Serif" font-size="10.00">12</text>
</a>
</g>
</g>
<!-- dir_cb2b5dfd43482fb277f6333d539f1f06&#45;&gt;dir_d080e052e6032887076b6b5756e5361d -->
<g id="edge30" class="edge"><title>dir_cb2b5dfd43482fb277f6333d539f1f06&#45;&gt;dir_d080e052e6032887076b6b5756e5361d</title>
<path fill="none" stroke="black" d="M302.805,-287.849C302.902,-250.753 311.267,-162.81 318.667,-118.103"/>
<polygon fill="black" stroke="black" points="322.117,-118.691 320.424,-108.232 315.226,-117.465 322.117,-118.691"/>
<g id="a_edge30&#45;headlabel"><a xlink:href="dir_000040_000056.html" target="_top" xlink:title="10">
<text text-anchor="middle" x="324.283" y="-120.227" font-family="Helvetica,sans-Serif" font-size="10.00">10</text>
</a>
</g>
</g>
<!-- dir_cb2b5dfd43482fb277f6333d539f1f06&#45;&gt;dir_a1f42069ba95676f6b9abbd5065ccf6d -->
<g id="edge31" class="edge"><title>dir_cb2b5dfd43482fb277f6333d539f1f06&#45;&gt;dir_a1f42069ba95676f6b9abbd5065ccf6d</title>
<path fill="none" stroke="black" d="M314.805,-324.104C317.367,-331.791 319.721,-341.054 321.356,-349.665"/>
<polygon fill="black" stroke="black" points="317.925,-350.375 322.961,-359.697 324.837,-349.269 317.925,-350.375"/>
<g id="a_edge31&#45;headlabel"><a xlink:href="dir_000040_000055.html" target="_top" xlink:title="14">
<text text-anchor="middle" x="314.554" y="-344.774" font-family="Helvetica,sans-Serif" font-size="10.00">14</text>
</a>
</g>
</g>
<!-- dir_cb2b5dfd43482fb277f6333d539f1f06&#45;&gt;dir_1efe152df2f2e9cd3517b1174a4598d7 -->
<g id="edge32" class="edge"><title>dir_cb2b5dfd43482fb277f6333d539f1f06&#45;&gt;dir_1efe152df2f2e9cd3517b1174a4598d7</title>
<path fill="none" stroke="black" d="M292.458,-287.916C275.672,-264.486 245.732,-220.647 226,-180 204.033,-134.749 186.15,-78.7724 176.584,-46.1552"/>
<polygon fill="black" stroke="black" points="179.912,-45.0659 173.776,-36.4292 173.187,-47.0077 179.912,-45.0659"/>
<g id="a_edge32&#45;headlabel"><a xlink:href="dir_000040_000054.html" target="_top" xlink:title="2">
<text text-anchor="middle" x="183.637" y="-45.2319" font-family="Helvetica,sans-Serif" font-size="10.00">2</text>
</a>
</g>
</g>
<!-- dir_cb2b5dfd43482fb277f6333d539f1f06&#45;&gt;dir_f5906172d2c9558d453eb81ef8e5bf93 -->
<g id="edge33" class="edge"><title>dir_cb2b5dfd43482fb277f6333d539f1f06&#45;&gt;dir_f5906172d2c9558d453eb81ef8e5bf93</title>
<path fill="none" stroke="black" d="M317.262,-287.626C323.762,-277.635 331.345,-264.599 336,-252 364.015,-176.18 363.524,-152.816 362,-72 361.843,-63.6784 361.548,-54.6257 361.231,-46.3957"/>
<polygon fill="black" stroke="black" points="364.719,-46.0294 360.813,-36.1811 357.725,-46.3161 364.719,-46.0294"/>
<g id="a_edge33&#45;headlabel"><a xlink:href="dir_000040_000053.html" target="_top" xlink:title="5">
<text text-anchor="middle" x="367.703" y="-47.0049" font-family="Helvetica,sans-Serif" font-size="10.00">5</text>
</a>
</g>
</g>
<!-- dir_cb2b5dfd43482fb277f6333d539f1f06&#45;&gt;dir_ff87cf903db18af0fdb6c342683ece25 -->
<g id="edge34" class="edge"><title>dir_cb2b5dfd43482fb277f6333d539f1f06&#45;&gt;dir_ff87cf903db18af0fdb6c342683ece25</title>
<path fill="none" stroke="black" d="M298.485,-287.933C294.642,-277.603 289.801,-264.125 286,-252 279.577,-231.514 273.295,-208.057 268.77,-190.37"/>
<polygon fill="black" stroke="black" points="272.038,-189.018 266.194,-180.18 265.252,-190.733 272.038,-189.018"/>
<g id="a_edge34&#45;headlabel"><a xlink:href="dir_000040_000073.html" target="_top" xlink:title="1">
<text text-anchor="middle" x="275.672" y="-189.307" font-family="Helvetica,sans-Serif" font-size="10.00">1</text>
</a>
</g>
</g>
<!-- dir_ff87cf903db18af0fdb6c342683ece25&#45;&gt;dir_1456dd235032e023892318efbecb420b -->
<g id="edge35" class="edge"><title>dir_ff87cf903db18af0fdb6c342683ece25&#45;&gt;dir_1456dd235032e023892318efbecb420b</title>
<path fill="none" stroke="black" d="M260.124,-180.306C254.921,-228.313 240.274,-363.439 233.959,-421.702"/>
<polygon fill="black" stroke="black" points="230.444,-421.647 232.846,-431.966 237.404,-422.401 230.444,-421.647"/>
<g id="a_edge35&#45;headlabel"><a xlink:href="dir_000073_000035.html" target="_top" xlink:title="3">
<text text-anchor="middle" x="228.009" y="-415.267" font-family="Helvetica,sans-Serif" font-size="10.00">3</text>
</a>
</g>
</g>
<!-- dir_ff87cf903db18af0fdb6c342683ece25&#45;&gt;dir_d080e052e6032887076b6b5756e5361d -->
<g id="edge36" class="edge"><title>dir_ff87cf903db18af0fdb6c342683ece25&#45;&gt;dir_d080e052e6032887076b6b5756e5361d</title>
<path fill="none" stroke="black" d="M271.905,-143.697C278.849,-135.135 288.248,-124.656 297.317,-115.304"/>
<polygon fill="black" stroke="black" points="299.904,-117.666 304.467,-108.104 294.937,-112.734 299.904,-117.666"/>
<g id="a_edge36&#45;headlabel"><a xlink:href="dir_000073_000056.html" target="_top" xlink:title="1">
<text text-anchor="middle" x="299.386" y="-119.718" font-family="Helvetica,sans-Serif" font-size="10.00">1</text>
</a>
</g>
</g>
<!-- dir_ff87cf903db18af0fdb6c342683ece25&#45;&gt;dir_1efe152df2f2e9cd3517b1174a4598d7 -->
<g id="edge37" class="edge"><title>dir_ff87cf903db18af0fdb6c342683ece25&#45;&gt;dir_1efe152df2f2e9cd3517b1174a4598d7</title>
<path fill="none" stroke="black" d="M250.782,-143.871C234.653,-119.244 204.784,-73.6377 185.953,-44.8845"/>
<polygon fill="black" stroke="black" points="188.665,-42.6372 180.258,-36.1893 182.809,-46.4724 188.665,-42.6372"/>
<g id="a_edge37&#45;headlabel"><a xlink:href="dir_000073_000054.html" target="_top" xlink:title="1">
<text text-anchor="middle" x="193.009" y="-41.5887" font-family="Helvetica,sans-Serif" font-size="10.00">1</text>
</a>
</g>
</g>
<!-- dir_ff87cf903db18af0fdb6c342683ece25&#45;&gt;dir_f5906172d2c9558d453eb81ef8e5bf93 -->
<g id="edge38" class="edge"><title>dir_ff87cf903db18af0fdb6c342683ece25&#45;&gt;dir_f5906172d2c9558d453eb81ef8e5bf93</title>
<path fill="none" stroke="black" d="M264.206,-143.885C267.338,-124.877 274.513,-93.981 290,-72 298.988,-59.243 311.982,-48.2132 324.34,-39.5694"/>
<polygon fill="black" stroke="black" points="326.356,-42.432 332.738,-33.9745 322.475,-36.6066 326.356,-42.432"/>
<g id="a_edge38&#45;headlabel"><a xlink:href="dir_000073_000053.html" target="_top" xlink:title="1">
<text text-anchor="middle" x="324.939" y="-44.2879" font-family="Helvetica,sans-Serif" font-size="10.00">1</text>
</a>
</g>
</g>
</g>
</svg>
