<?xml version="1.0" encoding="UTF-8" standalone="no"?>
<!DOCTYPE svg PUBLIC "-//W3C//DTD SVG 1.1//EN"
 "http://www.w3.org/Graphics/SVG/1.1/DTD/svg11.dtd">
<!-- Generated by graphviz version 2.36.0 (20140111.2315)
 -->
<!-- Title: /home/travis/build/STORM&#45;IRIT/Radium&#45;Engine/src/Engine/Managers/LightManager Pages: 1 -->
<svg width="231pt" height="367pt"
 viewBox="0.00 0.00 231.00 367.00" xmlns="http://www.w3.org/2000/svg" xmlns:xlink="http://www.w3.org/1999/xlink">
<g id="graph0" class="graph" transform="scale(1 1) rotate(0) translate(4 363)">
<title>/home/travis/build/STORM&#45;IRIT/Radium&#45;Engine/src/Engine/Managers/LightManager</title>
<polygon fill="white" stroke="none" points="-4,4 -4,-363 227,-363 227,4 -4,4"/>
<g id="clust1" class="cluster"><title>clusterdir_06113b60808b1bbb52a01dfd2c3a8657</title>
<g id="a_clust1"><a xlink:href="dir_06113b60808b1bbb52a01dfd2c3a8657.html" target="_top" xlink:title="Managers">
<polygon fill="#ddddee" stroke="black" points="125,-280 125,-351 215,-351 215,-280 125,-280"/>
<text text-anchor="middle" x="170" y="-339" font-family="Helvetica,sans-Serif" font-size="10.00">Managers</text>
</a>
</g>
</g>
<!-- dir_aea4ed3fab8ecf600219166580b8618e -->
<g id="node1" class="node"><title>dir_aea4ed3fab8ecf600219166580b8618e</title>
<g id="a_node1"><a xlink:href="dir_aea4ed3fab8ecf600219166580b8618e.html" target="_top" xlink:title="LightManager">
<polygon fill="#eeeeff" stroke="black" points="207.25,-324 132.75,-324 132.75,-288 207.25,-288 207.25,-324"/>
<text text-anchor="middle" x="170" y="-303.5" font-family="Helvetica,sans-Serif" font-size="10.00">LightManager</text>
</a>
</g>
</g>
<!-- dir_a2f0e5642e47e7ed59fe0f0829eafb5f -->
<g id="node2" class="node"><title>dir_a2f0e5642e47e7ed59fe0f0829eafb5f</title>
<g id="a_node2"><a xlink:href="dir_a2f0e5642e47e7ed59fe0f0829eafb5f.html" target="_top" xlink:title="Core">
<polygon fill="white" stroke="red" points="94,-252 40,-252 40,-216 94,-216 94,-252"/>
<text text-anchor="middle" x="67" y="-231.5" font-family="Helvetica,sans-Serif" font-size="10.00">Core</text>
</a>
</g>
</g>
<!-- dir_aea4ed3fab8ecf600219166580b8618e&#45;&gt;dir_a2f0e5642e47e7ed59fe0f0829eafb5f -->
<g id="edge7" class="edge"><title>dir_aea4ed3fab8ecf600219166580b8618e&#45;&gt;dir_a2f0e5642e47e7ed59fe0f0829eafb5f</title>
<path fill="none" stroke="black" d="M144.803,-287.876C131.586,-278.893 115.208,-267.763 100.893,-258.034"/>
<polygon fill="black" stroke="black" points="102.532,-254.916 92.2935,-252.19 98.5969,-260.705 102.532,-254.916"/>
<g id="a_edge7&#45;headlabel"><a xlink:href="dir_000083_000022.html" target="_top" xlink:title="4">
<text text-anchor="middle" x="107.101" y="-252.088" font-family="Helvetica,sans-Serif" font-size="10.00">4</text>
</a>
</g>
</g>
<!-- dir_7205f054df4e14abb60715afe3e7e90c -->
<g id="node3" class="node"><title>dir_7205f054df4e14abb60715afe3e7e90c</title>
<g id="a_node3"><a xlink:href="dir_7205f054df4e14abb60715afe3e7e90c.html" target="_top" xlink:title="Entity">
<polygon fill="none" stroke="black" points="130,-108 76,-108 76,-72 130,-72 130,-108"/>
<text text-anchor="middle" x="103" y="-87.5" font-family="Helvetica,sans-Serif" font-size="10.00">Entity</text>
</a>
</g>
</g>
<!-- dir_aea4ed3fab8ecf600219166580b8618e&#45;&gt;dir_7205f054df4e14abb60715afe3e7e90c -->
<g id="edge8" class="edge"><title>dir_aea4ed3fab8ecf600219166580b8618e&#45;&gt;dir_7205f054df4e14abb60715afe3e7e90c</title>
<path fill="none" stroke="black" d="M174.272,-287.952C181.003,-257.35 191.082,-191.834 168,-144 161.584,-130.704 150.054,-119.626 138.468,-111.095"/>
<polygon fill="black" stroke="black" points="140.317,-108.119 130.093,-105.338 136.351,-113.888 140.317,-108.119"/>
<g id="a_edge8&#45;headlabel"><a xlink:href="dir_000083_000077.html" target="_top" xlink:title="1">
<text text-anchor="middle" x="144.887" y="-105.316" font-family="Helvetica,sans-Serif" font-size="10.00">1</text>
</a>
</g>
</g>
<!-- dir_eecdbbfa89a6d9af25d920c499e6f44e -->
<g id="node4" class="node"><title>dir_eecdbbfa89a6d9af25d920c499e6f44e</title>
<g id="a_node4"><a xlink:href="dir_eecdbbfa89a6d9af25d920c499e6f44e.html" target="_top" xlink:title="System">
<polygon fill="none" stroke="black" points="130,-36 76,-36 76,-0 130,-0 130,-36"/>
<text text-anchor="middle" x="103" y="-15.5" font-family="Helvetica,sans-Serif" font-size="10.00">System</text>
</a>
</g>
</g>
<!-- dir_aea4ed3fab8ecf600219166580b8618e&#45;&gt;dir_eecdbbfa89a6d9af25d920c499e6f44e -->
<g id="edge9" class="edge"><title>dir_aea4ed3fab8ecf600219166580b8618e&#45;&gt;dir_eecdbbfa89a6d9af25d920c499e6f44e</title>
<path fill="none" stroke="black" d="M181.046,-287.611C186.737,-277.615 193.081,-264.579 196,-252 206.881,-205.115 204.681,-189.148 188,-144 173.843,-105.684 145.48,-67.7522 125.418,-43.9015"/>
<polygon fill="black" stroke="black" points="127.872,-41.3867 118.705,-36.0749 122.559,-45.944 127.872,-41.3867"/>
<g id="a_edge9&#45;headlabel"><a xlink:href="dir_000083_000097.html" target="_top" xlink:title="1">
<text text-anchor="middle" x="132.367" y="-39.7667" font-family="Helvetica,sans-Serif" font-size="10.00">1</text>
</a>
</g>
</g>
<!-- dir_54018506bb725509c19b38b6d9bcf0f6 -->
<g id="node5" class="node"><title>dir_54018506bb725509c19b38b6d9bcf0f6</title>
<g id="a_node5"><a xlink:href="dir_54018506bb725509c19b38b6d9bcf0f6.html" target="_top" xlink:title="Renderer">
<polygon fill="white" stroke="red" points="159.5,-180 104.5,-180 104.5,-144 159.5,-144 159.5,-180"/>
<text text-anchor="middle" x="132" y="-159.5" font-family="Helvetica,sans-Serif" font-size="10.00">Renderer</text>
</a>
</g>
</g>
<!-- dir_aea4ed3fab8ecf600219166580b8618e&#45;&gt;dir_54018506bb725509c19b38b6d9bcf0f6 -->
<g id="edge10" class="edge"><title>dir_aea4ed3fab8ecf600219166580b8618e&#45;&gt;dir_54018506bb725509c19b38b6d9bcf0f6</title>
<path fill="none" stroke="black" d="M165.416,-287.871C158.911,-263.564 146.937,-218.819 139.229,-190.013"/>
<polygon fill="black" stroke="black" points="142.566,-188.945 136.6,-180.189 135.804,-190.754 142.566,-188.945"/>
<g id="a_edge10&#45;headlabel"><a xlink:href="dir_000083_000086.html" target="_top" xlink:title="10">
<text text-anchor="middle" x="146.238" y="-189.183" font-family="Helvetica,sans-Serif" font-size="10.00">10</text>
</a>
</g>
</g>
<!-- dir_f60fd3cff26f751d5a136115ec0dccfa -->
<g id="node6" class="node"><title>dir_f60fd3cff26f751d5a136115ec0dccfa</title>
<g id="a_node6"><a xlink:href="dir_f60fd3cff26f751d5a136115ec0dccfa.html" target="_top" xlink:title="ComponentMessenger">
<polygon fill="none" stroke="black" points="114.25,-324 -0.25,-324 -0.25,-288 114.25,-288 114.25,-324"/>
<text text-anchor="middle" x="57" y="-303.5" font-family="Helvetica,sans-Serif" font-size="10.00">ComponentMessenger</text>
</a>
</g>
</g>
<!-- dir_aea4ed3fab8ecf600219166580b8618e&#45;&gt;dir_f60fd3cff26f751d5a136115ec0dccfa -->
<g id="edge11" class="edge"><title>dir_aea4ed3fab8ecf600219166580b8618e&#45;&gt;dir_f60fd3cff26f751d5a136115ec0dccfa</title>
<path fill="none" stroke="black" d="M132.632,-306C129.971,-306 127.309,-306 124.648,-306"/>
<polygon fill="black" stroke="black" points="124.383,-302.5 114.383,-306 124.383,-309.5 124.383,-302.5"/>
<g id="a_edge11&#45;headlabel"><a xlink:href="dir_000083_000081.html" target="_top" xlink:title="1">
<text text-anchor="middle" x="127.977" y="-297.161" font-family="Helvetica,sans-Serif" font-size="10.00">1</text>
</a>
</g>
</g>
<!-- dir_a2f0e5642e47e7ed59fe0f0829eafb5f&#45;&gt;dir_7205f054df4e14abb60715afe3e7e90c -->
<g id="edge1" class="edge"><title>dir_a2f0e5642e47e7ed59fe0f0829eafb5f&#45;&gt;dir_7205f054df4e14abb60715afe3e7e90c</title>
<path fill="none" stroke="black" d="M66.7579,-215.871C70.3509,-191.564 81.4119,-146.819 90.7188,-118.013"/>
<polygon fill="black" stroke="black" points="94.1533,-118.784 94.0513,-108.189 87.5243,-116.535 94.1533,-118.784"/>
<g id="a_edge1&#45;headlabel"><a xlink:href="dir_000022_000077.html" target="_top" xlink:title="1">
<text text-anchor="middle" x="95.6875" y="-120.6" font-family="Helvetica,sans-Serif" font-size="10.00">1</text>
</a>
</g>
</g>
<!-- dir_a2f0e5642e47e7ed59fe0f0829eafb5f&#45;&gt;dir_54018506bb725509c19b38b6d9bcf0f6 -->
<g id="edge2" class="edge"><title>dir_a2f0e5642e47e7ed59fe0f0829eafb5f&#45;&gt;dir_54018506bb725509c19b38b6d9bcf0f6</title>
<path fill="none" stroke="black" d="M77.1517,-215.697C84.2186,-207.135 93.7669,-196.656 102.97,-187.304"/>
<polygon fill="black" stroke="black" points="105.592,-189.634 110.222,-180.104 100.66,-184.666 105.592,-189.634"/>
<g id="a_edge2&#45;headlabel"><a xlink:href="dir_000022_000086.html" target="_top" xlink:title="1">
<text text-anchor="middle" x="105.041" y="-191.681" font-family="Helvetica,sans-Serif" font-size="10.00">1</text>
</a>
</g>
</g>
<!-- dir_7205f054df4e14abb60715afe3e7e90c&#45;&gt;dir_a2f0e5642e47e7ed59fe0f0829eafb5f -->
<g id="edge3" class="edge"><title>dir_7205f054df4e14abb60715afe3e7e90c&#45;&gt;dir_a2f0e5642e47e7ed59fe0f0829eafb5f</title>
<path fill="none" stroke="black" d="M103.233,-108.189C99.6277,-132.531 88.5619,-177.28 79.2579,-206.059"/>
<polygon fill="black" stroke="black" points="75.8271,-205.277 75.9269,-215.871 82.4556,-207.527 75.8271,-205.277"/>
<g id="a_edge3&#45;headlabel"><a xlink:href="dir_000077_000022.html" target="_top" xlink:title="4">
<text text-anchor="middle" x="74.2939" y="-198.461" font-family="Helvetica,sans-Serif" font-size="10.00">4</text>
</a>
</g>
</g>
<!-- dir_7205f054df4e14abb60715afe3e7e90c&#45;&gt;dir_eecdbbfa89a6d9af25d920c499e6f44e -->
<g id="edge4" class="edge"><title>dir_7205f054df4e14abb60715afe3e7e90c&#45;&gt;dir_eecdbbfa89a6d9af25d920c499e6f44e</title>
<path fill="none" stroke="black" d="M97.0843,-71.6966C96.2886,-63.9827 96.0621,-54.7125 96.4047,-46.1124"/>
<polygon fill="black" stroke="black" points="99.8984,-46.3243 97.105,-36.1043 92.9154,-45.8356 99.8984,-46.3243"/>
<g id="a_edge4&#45;headlabel"><a xlink:href="dir_000077_000097.html" target="_top" xlink:title="1">
<text text-anchor="middle" x="102.48" y="-47.6083" font-family="Helvetica,sans-Serif" font-size="10.00">1</text>
</a>
</g>
</g>
<!-- dir_eecdbbfa89a6d9af25d920c499e6f44e&#45;&gt;dir_a2f0e5642e47e7ed59fe0f0829eafb5f -->
<g id="edge5" class="edge"><title>dir_eecdbbfa89a6d9af25d920c499e6f44e&#45;&gt;dir_a2f0e5642e47e7ed59fe0f0829eafb5f</title>
<path fill="none" stroke="black" d="M87.3901,-36.2264C79.6271,-45.9695 71.0541,-58.8163 67,-72 53.1233,-117.126 57.558,-172.792 62.1816,-205.445"/>
<polygon fill="black" stroke="black" points="58.761,-206.231 63.7307,-215.588 65.6808,-205.174 58.761,-206.231"/>
<g id="a_edge5&#45;headlabel"><a xlink:href="dir_000097_000022.html" target="_top" xlink:title="1">
<text text-anchor="middle" x="55.4117" y="-200.606" font-family="Helvetica,sans-Serif" font-size="10.00">1</text>
</a>
</g>
</g>
<!-- dir_eecdbbfa89a6d9af25d920c499e6f44e&#45;&gt;dir_7205f054df4e14abb60715afe3e7e90c -->
<g id="edge6" class="edge"><title>dir_eecdbbfa89a6d9af25d920c499e6f44e&#45;&gt;dir_7205f054df4e14abb60715afe3e7e90c</title>
<path fill="none" stroke="black" d="M108.895,-36.1043C109.701,-43.7913 109.937,-53.0537 109.604,-61.6651"/>
<polygon fill="black" stroke="black" points="106.109,-61.4805 108.916,-71.6966 113.092,-61.9597 106.109,-61.4805"/>
<g id="a_edge6&#45;headlabel"><a xlink:href="dir_000097_000077.html" target="_top" xlink:title="1">
<text text-anchor="middle" x="103.522" y="-55.2" font-family="Helvetica,sans-Serif" font-size="10.00">1</text>
</a>
</g>
</g>
<!-- dir_54018506bb725509c19b38b6d9bcf0f6&#45;&gt;dir_aea4ed3fab8ecf600219166580b8618e -->
<g id="edge14" class="edge"><title>dir_54018506bb725509c19b38b6d9bcf0f6&#45;&gt;dir_aea4ed3fab8ecf600219166580b8618e</title>
<path fill="none" stroke="black" d="M132.359,-180.096C133.143,-198.288 135.572,-227.734 143,-252 145.811,-261.183 150.143,-270.689 154.52,-279.07"/>
<polygon fill="black" stroke="black" points="151.527,-280.892 159.402,-287.979 157.666,-277.528 151.527,-280.892"/>
<g id="a_edge14&#45;headlabel"><a xlink:href="dir_000086_000083.html" target="_top" xlink:title="2">
<text text-anchor="middle" x="147.31" y="-276.604" font-family="Helvetica,sans-Serif" font-size="10.00">2</text>
</a>
</g>
</g>
<!-- dir_54018506bb725509c19b38b6d9bcf0f6&#45;&gt;dir_a2f0e5642e47e7ed59fe0f0829eafb5f -->
<g id="edge12" class="edge"><title>dir_54018506bb725509c19b38b6d9bcf0f6&#45;&gt;dir_a2f0e5642e47e7ed59fe0f0829eafb5f</title>
<path fill="none" stroke="black" d="M122.012,-180.104C114.984,-188.636 105.453,-199.108 96.2445,-208.478"/>
<polygon fill="black" stroke="black" points="93.6072,-206.164 88.9831,-215.697 98.5425,-211.128 93.6072,-206.164"/>
<g id="a_edge12&#45;headlabel"><a xlink:href="dir_000086_000022.html" target="_top" xlink:title="53">
<text text-anchor="middle" x="94.1546" y="-199.116" font-family="Helvetica,sans-Serif" font-size="10.00">53</text>
</a>
</g>
</g>
<!-- dir_54018506bb725509c19b38b6d9bcf0f6&#45;&gt;dir_7205f054df4e14abb60715afe3e7e90c -->
<g id="edge13" class="edge"><title>dir_54018506bb725509c19b38b6d9bcf0f6&#45;&gt;dir_7205f054df4e14abb60715afe3e7e90c</title>
<path fill="none" stroke="black" d="M124.831,-143.697C121.565,-135.813 117.626,-126.304 113.998,-117.546"/>
<polygon fill="black" stroke="black" points="117.147,-116.003 110.086,-108.104 110.68,-118.683 117.147,-116.003"/>
<g id="a_edge13&#45;headlabel"><a xlink:href="dir_000086_000077.html" target="_top" xlink:title="3">
<text text-anchor="middle" x="121.146" y="-115.738" font-family="Helvetica,sans-Serif" font-size="10.00">3</text>
</a>
</g>
</g>
<!-- dir_f60fd3cff26f751d5a136115ec0dccfa&#45;&gt;dir_a2f0e5642e47e7ed59fe0f0829eafb5f -->
<g id="edge15" class="edge"><title>dir_f60fd3cff26f751d5a136115ec0dccfa&#45;&gt;dir_a2f0e5642e47e7ed59fe0f0829eafb5f</title>
<path fill="none" stroke="black" d="M59.4719,-287.697C60.5739,-279.983 61.8982,-270.712 63.1268,-262.112"/>
<polygon fill="black" stroke="black" points="66.607,-262.499 64.5565,-252.104 59.6774,-261.509 66.607,-262.499"/>
<g id="a_edge15&#45;headlabel"><a xlink:href="dir_000081_000022.html" target="_top" xlink:title="2">
<text text-anchor="middle" x="68.9095" y="-263.959" font-family="Helvetica,sans-Serif" font-size="10.00">2</text>
</a>
</g>
</g>
</g>
</svg>
