<?xml version="1.0" encoding="UTF-8" standalone="no"?>
<!DOCTYPE svg PUBLIC "-//W3C//DTD SVG 1.1//EN"
 "http://www.w3.org/Graphics/SVG/1.1/DTD/svg11.dtd">
<!-- Generated by graphviz version 2.36.0 (20140111.2315)
 -->
<!-- Title: /home/travis/build/STORM&#45;IRIT/Radium&#45;Engine/src/Core/Geometry/Distance/DistanceQueries.inl Pages: 1 -->
<svg width="692pt" height="422pt"
 viewBox="0.00 0.00 692.00 422.00" xmlns="http://www.w3.org/2000/svg" xmlns:xlink="http://www.w3.org/1999/xlink">
<g id="graph0" class="graph" transform="scale(1 1) rotate(0) translate(4 418)">
<title>/home/travis/build/STORM&#45;IRIT/Radium&#45;Engine/src/Core/Geometry/Distance/DistanceQueries.inl</title>
<polygon fill="white" stroke="none" points="-4,4 -4,-418 688,-418 688,4 -4,4"/>
<!-- Node1 -->
<g id="node1" class="node"><title>Node1</title>
<polygon fill="#bfbfbf" stroke="black" points="319,-361 319,-413 467,-413 467,-361 319,-361"/>
<text text-anchor="start" x="327" y="-401" font-family="Helvetica,sans-Serif" font-size="10.00">/home/travis/build</text>
<text text-anchor="start" x="327" y="-390" font-family="Helvetica,sans-Serif" font-size="10.00">/STORM&#45;IRIT/Radium&#45;Engine</text>
<text text-anchor="start" x="327" y="-379" font-family="Helvetica,sans-Serif" font-size="10.00">/src/Core/Geometry/Distance</text>
<text text-anchor="middle" x="393" y="-368" font-family="Helvetica,sans-Serif" font-size="10.00">/DistanceQueries.inl</text>
</g>
<!-- Node2 -->
<g id="node2" class="node"><title>Node2</title>
<g id="a_node2"><a xlink:href="DistanceQueries_8hpp.html" target="_top" xlink:title="/home/travis/build\l/STORM&#45;IRIT/Radium&#45;Engine\l/src/Core/Geometry/Distance\l/DistanceQueries.hpp">
<polygon fill="white" stroke="black" points="319,-271 319,-323 467,-323 467,-271 319,-271"/>
<text text-anchor="start" x="327" y="-311" font-family="Helvetica,sans-Serif" font-size="10.00">/home/travis/build</text>
<text text-anchor="start" x="327" y="-300" font-family="Helvetica,sans-Serif" font-size="10.00">/STORM&#45;IRIT/Radium&#45;Engine</text>
<text text-anchor="start" x="327" y="-289" font-family="Helvetica,sans-Serif" font-size="10.00">/src/Core/Geometry/Distance</text>
<text text-anchor="middle" x="393" y="-278" font-family="Helvetica,sans-Serif" font-size="10.00">/DistanceQueries.hpp</text>
</a>
</g>
</g>
<!-- Node1&#45;&gt;Node2 -->
<g id="edge1" class="edge"><title>Node1&#45;&gt;Node2</title>
<path fill="none" stroke="midnightblue" d="M386.363,-350.489C386.116,-341.309 386.274,-331.616 386.838,-323.092"/>
<polygon fill="midnightblue" stroke="midnightblue" points="382.869,-350.714 386.814,-360.547 389.862,-350.4 382.869,-350.714"/>
</g>
<!-- Node2&#45;&gt;Node1 -->
<g id="edge2" class="edge"><title>Node2&#45;&gt;Node1</title>
<path fill="none" stroke="midnightblue" d="M399.626,-333.123C399.885,-342.289 399.738,-351.99 399.186,-360.547"/>
<polygon fill="midnightblue" stroke="midnightblue" points="403.121,-332.92 399.162,-323.092 396.128,-333.243 403.121,-332.92"/>
</g>
<!-- Node3 -->
<g id="node3" class="node"><title>Node3</title>
<g id="a_node3"><a xlink:href="PolyLine_8hpp.html" target="_top" xlink:title="/home/travis/build\l/STORM&#45;IRIT/Radium&#45;Engine\l/src/Core/Math/PolyLine.hpp">
<polygon fill="white" stroke="black" points="166,-186.5 166,-227.5 314,-227.5 314,-186.5 166,-186.5"/>
<text text-anchor="start" x="174" y="-215.5" font-family="Helvetica,sans-Serif" font-size="10.00">/home/travis/build</text>
<text text-anchor="start" x="174" y="-204.5" font-family="Helvetica,sans-Serif" font-size="10.00">/STORM&#45;IRIT/Radium&#45;Engine</text>
<text text-anchor="middle" x="240" y="-193.5" font-family="Helvetica,sans-Serif" font-size="10.00">/src/Core/Math/PolyLine.hpp</text>
</a>
</g>
</g>
<!-- Node2&#45;&gt;Node3 -->
<g id="edge3" class="edge"><title>Node2&#45;&gt;Node3</title>
<path fill="none" stroke="midnightblue" d="M340.287,-265.682C318.38,-253.081 293.582,-238.819 274.126,-227.628"/>
<polygon fill="midnightblue" stroke="midnightblue" points="338.743,-268.831 349.156,-270.783 342.233,-262.763 338.743,-268.831"/>
</g>
<!-- Node6 -->
<g id="node6" class="node"><title>Node6</title>
<g id="a_node6"><a xlink:href="GeometryTests_8hpp.html" target="_top" xlink:title="/home/travis/build\l/STORM&#45;IRIT/Radium&#45;Engine\l/src/Tests/CoreTests/src\l/GeometryTests.hpp">
<polygon fill="white" stroke="black" points="332,-91 332,-143 480,-143 480,-91 332,-91"/>
<text text-anchor="start" x="340" y="-131" font-family="Helvetica,sans-Serif" font-size="10.00">/home/travis/build</text>
<text text-anchor="start" x="340" y="-120" font-family="Helvetica,sans-Serif" font-size="10.00">/STORM&#45;IRIT/Radium&#45;Engine</text>
<text text-anchor="start" x="340" y="-109" font-family="Helvetica,sans-Serif" font-size="10.00">/src/Tests/CoreTests/src</text>
<text text-anchor="middle" x="406" y="-98" font-family="Helvetica,sans-Serif" font-size="10.00">/GeometryTests.hpp</text>
</a>
</g>
</g>
<!-- Node2&#45;&gt;Node6 -->
<g id="edge12" class="edge"><title>Node2&#45;&gt;Node6</title>
<path fill="none" stroke="midnightblue" d="M371.813,-262.026C367.359,-253.218 363.312,-243.522 361,-234 355.336,-210.678 353.589,-202.827 361,-180 365.353,-166.591 373.817,-153.656 382.24,-143.102"/>
<polygon fill="midnightblue" stroke="midnightblue" points="368.731,-263.686 376.546,-270.84 374.898,-260.374 368.731,-263.686"/>
</g>
<!-- Node8 -->
<g id="node8" class="node"><title>Node8</title>
<g id="a_node8"><a xlink:href="trianglekdtree_8hpp.html" target="_top" xlink:title="/home/travis/build\l/STORM&#45;IRIT/Radium&#45;Engine\l/src/Core/TreeStructures\l/trianglekdtree.hpp">
<polygon fill="white" stroke="black" points="370,-181 370,-233 518,-233 518,-181 370,-181"/>
<text text-anchor="start" x="378" y="-221" font-family="Helvetica,sans-Serif" font-size="10.00">/home/travis/build</text>
<text text-anchor="start" x="378" y="-210" font-family="Helvetica,sans-Serif" font-size="10.00">/STORM&#45;IRIT/Radium&#45;Engine</text>
<text text-anchor="start" x="378" y="-199" font-family="Helvetica,sans-Serif" font-size="10.00">/src/Core/TreeStructures</text>
<text text-anchor="middle" x="444" y="-188" font-family="Helvetica,sans-Serif" font-size="10.00">/trianglekdtree.hpp</text>
</a>
</g>
</g>
<!-- Node2&#45;&gt;Node8 -->
<g id="edge9" class="edge"><title>Node2&#45;&gt;Node8</title>
<path fill="none" stroke="midnightblue" d="M412.895,-261.671C418.416,-252.145 424.306,-241.983 429.458,-233.092"/>
<polygon fill="midnightblue" stroke="midnightblue" points="409.737,-260.14 407.751,-270.547 415.794,-263.65 409.737,-260.14"/>
</g>
<!-- Node9 -->
<g id="node9" class="node"><title>Node9</title>
<g id="a_node9"><a xlink:href="DistanceTests_8hpp.html" target="_top" xlink:title="/home/travis/build\l/STORM&#45;IRIT/Radium&#45;Engine\l/src/Tests/CoreTests/src\l/DistanceTests.hpp">
<polygon fill="white" stroke="black" points="536,-181 536,-233 684,-233 684,-181 536,-181"/>
<text text-anchor="start" x="544" y="-221" font-family="Helvetica,sans-Serif" font-size="10.00">/home/travis/build</text>
<text text-anchor="start" x="544" y="-210" font-family="Helvetica,sans-Serif" font-size="10.00">/STORM&#45;IRIT/Radium&#45;Engine</text>
<text text-anchor="start" x="544" y="-199" font-family="Helvetica,sans-Serif" font-size="10.00">/src/Tests/CoreTests/src</text>
<text text-anchor="middle" x="610" y="-188" font-family="Helvetica,sans-Serif" font-size="10.00">/DistanceTests.hpp</text>
</a>
</g>
</g>
<!-- Node2&#45;&gt;Node9 -->
<g id="edge10" class="edge"><title>Node2&#45;&gt;Node9</title>
<path fill="none" stroke="midnightblue" d="M464.301,-267.085C491.349,-256.117 521.905,-243.725 548.025,-233.133"/>
<polygon fill="midnightblue" stroke="midnightblue" points="462.845,-263.899 454.893,-270.901 465.475,-270.386 462.845,-263.899"/>
</g>
<!-- Node4 -->
<g id="node4" class="node"><title>Node4</title>
<g id="a_node4"><a xlink:href="PolyLine_8cpp.html" target="_top" xlink:title="/home/travis/build\l/STORM&#45;IRIT/Radium&#45;Engine\l/src/Core/Math/PolyLine.cpp">
<polygon fill="white" stroke="black" points="0,-96.5 0,-137.5 148,-137.5 148,-96.5 0,-96.5"/>
<text text-anchor="start" x="8" y="-125.5" font-family="Helvetica,sans-Serif" font-size="10.00">/home/travis/build</text>
<text text-anchor="start" x="8" y="-114.5" font-family="Helvetica,sans-Serif" font-size="10.00">/STORM&#45;IRIT/Radium&#45;Engine</text>
<text text-anchor="middle" x="74" y="-103.5" font-family="Helvetica,sans-Serif" font-size="10.00">/src/Core/Math/PolyLine.cpp</text>
</a>
</g>
</g>
<!-- Node3&#45;&gt;Node4 -->
<g id="edge4" class="edge"><title>Node3&#45;&gt;Node4</title>
<path fill="none" stroke="midnightblue" d="M194.18,-181.71C167.994,-167.828 135.586,-150.648 111.024,-137.627"/>
<polygon fill="midnightblue" stroke="midnightblue" points="192.685,-184.878 203.159,-186.47 195.963,-178.694 192.685,-184.878"/>
</g>
<!-- Node5 -->
<g id="node5" class="node"><title>Node5</title>
<g id="a_node5"><a xlink:href="PolyLine_8inl.html" target="_top" xlink:title="/home/travis/build\l/STORM&#45;IRIT/Radium&#45;Engine\l/src/Core/Math/PolyLine.inl">
<polygon fill="white" stroke="black" points="166,-96.5 166,-137.5 314,-137.5 314,-96.5 166,-96.5"/>
<text text-anchor="start" x="174" y="-125.5" font-family="Helvetica,sans-Serif" font-size="10.00">/home/travis/build</text>
<text text-anchor="start" x="174" y="-114.5" font-family="Helvetica,sans-Serif" font-size="10.00">/STORM&#45;IRIT/Radium&#45;Engine</text>
<text text-anchor="middle" x="240" y="-103.5" font-family="Helvetica,sans-Serif" font-size="10.00">/src/Core/Math/PolyLine.inl</text>
</a>
</g>
</g>
<!-- Node3&#45;&gt;Node5 -->
<g id="edge5" class="edge"><title>Node3&#45;&gt;Node5</title>
<path fill="none" stroke="midnightblue" d="M233.579,-176.33C232.976,-163.629 233.202,-149.14 234.257,-137.78"/>
<polygon fill="midnightblue" stroke="midnightblue" points="230.098,-176.735 234.28,-186.47 237.082,-176.252 230.098,-176.735"/>
</g>
<!-- Node3&#45;&gt;Node6 -->
<g id="edge7" class="edge"><title>Node3&#45;&gt;Node6</title>
<path fill="none" stroke="midnightblue" d="M285.933,-181.65C308.628,-169.619 335.977,-155.121 358.837,-143.002"/>
<polygon fill="midnightblue" stroke="midnightblue" points="284.037,-178.694 276.841,-186.47 287.315,-184.878 284.037,-178.694"/>
</g>
<!-- Node5&#45;&gt;Node3 -->
<g id="edge6" class="edge"><title>Node5&#45;&gt;Node3</title>
<path fill="none" stroke="midnightblue" d="M246.434,-147.95C247.025,-160.677 246.787,-175.156 245.72,-186.47"/>
<polygon fill="midnightblue" stroke="midnightblue" points="249.913,-147.519 245.743,-137.78 242.929,-147.994 249.913,-147.519"/>
</g>
<!-- Node7 -->
<g id="node7" class="node"><title>Node7</title>
<g id="a_node7"><a xlink:href="main_8cpp.html" target="_top" xlink:title="/home/travis/build\l/STORM&#45;IRIT/Radium&#45;Engine\l/src/Tests/CoreTests/src\l/main.cpp">
<polygon fill="white" stroke="black" points="408,-1 408,-53 556,-53 556,-1 408,-1"/>
<text text-anchor="start" x="416" y="-41" font-family="Helvetica,sans-Serif" font-size="10.00">/home/travis/build</text>
<text text-anchor="start" x="416" y="-30" font-family="Helvetica,sans-Serif" font-size="10.00">/STORM&#45;IRIT/Radium&#45;Engine</text>
<text text-anchor="start" x="416" y="-19" font-family="Helvetica,sans-Serif" font-size="10.00">/src/Tests/CoreTests/src</text>
<text text-anchor="middle" x="482" y="-8" font-family="Helvetica,sans-Serif" font-size="10.00">/main.cpp</text>
</a>
</g>
</g>
<!-- Node6&#45;&gt;Node7 -->
<g id="edge8" class="edge"><title>Node6&#45;&gt;Node7</title>
<path fill="none" stroke="midnightblue" d="M434.633,-82.8459C443.149,-72.9851 452.335,-62.3492 460.33,-53.0921"/>
<polygon fill="midnightblue" stroke="midnightblue" points="431.87,-80.6908 427.982,-90.5468 437.167,-85.2662 431.87,-80.6908"/>
</g>
<!-- Node9&#45;&gt;Node7 -->
<g id="edge11" class="edge"><title>Node9&#45;&gt;Node7</title>
<path fill="none" stroke="midnightblue" d="M585.906,-172.494C560.995,-137.853 522.663,-84.5463 500.183,-53.2853"/>
<polygon fill="midnightblue" stroke="midnightblue" points="583.252,-174.799 591.932,-180.874 588.936,-170.712 583.252,-174.799"/>
</g>
</g>
</svg>
