<?xml version="1.0" encoding="UTF-8" standalone="no"?>
<!DOCTYPE svg PUBLIC "-//W3C//DTD SVG 1.1//EN"
 "http://www.w3.org/Graphics/SVG/1.1/DTD/svg11.dtd">
<!-- Generated by graphviz version 2.36.0 (20140111.2315)
 -->
<!-- Title: /home/travis/build/STORM&#45;IRIT/Radium&#45;Engine/src/Core/Mesh/DCEL/Iterator/Edge/EdgeIterator.inl Pages: 1 -->
<svg width="1226pt" height="726pt"
 viewBox="0.00 0.00 1226.00 726.00" xmlns="http://www.w3.org/2000/svg" xmlns:xlink="http://www.w3.org/1999/xlink">
<g id="graph0" class="graph" transform="scale(1 1) rotate(0) translate(4 722)">
<title>/home/travis/build/STORM&#45;IRIT/Radium&#45;Engine/src/Core/Mesh/DCEL/Iterator/Edge/EdgeIterator.inl</title>
<polygon fill="white" stroke="none" points="-4,4 -4,-722 1222,-722 1222,4 -4,4"/>
<!-- Node1 -->
<g id="node1" class="node"><title>Node1</title>
<polygon fill="#bfbfbf" stroke="black" points="694,-665 694,-717 842,-717 842,-665 694,-665"/>
<text text-anchor="start" x="702" y="-705" font-family="Helvetica,sans-Serif" font-size="10.00">/home/travis/build</text>
<text text-anchor="start" x="702" y="-694" font-family="Helvetica,sans-Serif" font-size="10.00">/STORM&#45;IRIT/Radium&#45;Engine</text>
<text text-anchor="start" x="702" y="-683" font-family="Helvetica,sans-Serif" font-size="10.00">/src/Core/Mesh/DCEL/Iterator</text>
<text text-anchor="middle" x="768" y="-672" font-family="Helvetica,sans-Serif" font-size="10.00">/Edge/EdgeIterator.inl</text>
</g>
<!-- Node2 -->
<g id="node2" class="node"><title>Node2</title>
<g id="a_node2"><a xlink:href="EdgeIterator_8hpp.html" target="_top" xlink:title="Core/Mesh/DCEL/Iterator\l/Edge/EdgeIterator.hpp">
<polygon fill="white" stroke="black" points="704,-597 704,-627 832,-627 832,-597 704,-597"/>
<text text-anchor="start" x="712" y="-615" font-family="Helvetica,sans-Serif" font-size="10.00">Core/Mesh/DCEL/Iterator</text>
<text text-anchor="middle" x="768" y="-604" font-family="Helvetica,sans-Serif" font-size="10.00">/Edge/EdgeIterator.hpp</text>
</a>
</g>
</g>
<!-- Node1&#45;&gt;Node2 -->
<g id="edge1" class="edge"><title>Node1&#45;&gt;Node2</title>
<path fill="none" stroke="midnightblue" d="M761.621,-664.787C761.107,-655.932 761.127,-646.007 761.68,-637.234"/>
<polygon fill="midnightblue" stroke="midnightblue" points="765.167,-637.536 762.619,-627.252 758.198,-636.88 765.167,-637.536"/>
</g>
<!-- Node8 -->
<g id="node8" class="node"><title>Node8</title>
<g id="a_node8"><a xlink:href="DCEL_2HalfEdge_8hpp.html" target="_top" xlink:title="Core/Mesh/DCEL/HalfEdge.hpp">
<polygon fill="white" stroke="black" points="583.5,-404.5 583.5,-423.5 740.5,-423.5 740.5,-404.5 583.5,-404.5"/>
<text text-anchor="middle" x="662" y="-411.5" font-family="Helvetica,sans-Serif" font-size="10.00">Core/Mesh/DCEL/HalfEdge.hpp</text>
</a>
</g>
</g>
<!-- Node1&#45;&gt;Node8 -->
<g id="edge54" class="edge"><title>Node1&#45;&gt;Node8</title>
<path fill="none" stroke="midnightblue" d="M728.379,-664.854C715.778,-654.892 703.039,-642.365 695,-628 659.228,-564.078 658.867,-473.374 660.679,-434.219"/>
<polygon fill="midnightblue" stroke="midnightblue" points="664.198,-433.993 661.274,-423.809 657.209,-433.593 664.198,-433.993"/>
</g>
<!-- Node2&#45;&gt;Node1 -->
<g id="edge53" class="edge"><title>Node2&#45;&gt;Node1</title>
<path fill="none" stroke="midnightblue" d="M773.381,-627.252C774.4,-634.969 774.85,-644.877 774.731,-654.529"/>
<polygon fill="midnightblue" stroke="midnightblue" points="771.224,-654.673 774.379,-664.787 778.22,-654.913 771.224,-654.673"/>
</g>
<!-- Node3 -->
<g id="node3" class="node"><title>Node3</title>
<g id="a_node3"><a xlink:href="Iterator_8hpp.html" target="_top" xlink:title="Core/Mesh/DCEL/Iterator\l/Iterator.hpp">
<polygon fill="white" stroke="black" points="706,-529 706,-559 834,-559 834,-529 706,-529"/>
<text text-anchor="start" x="714" y="-547" font-family="Helvetica,sans-Serif" font-size="10.00">Core/Mesh/DCEL/Iterator</text>
<text text-anchor="middle" x="770" y="-536" font-family="Helvetica,sans-Serif" font-size="10.00">/Iterator.hpp</text>
</a>
</g>
</g>
<!-- Node2&#45;&gt;Node3 -->
<g id="edge2" class="edge"><title>Node2&#45;&gt;Node3</title>
<path fill="none" stroke="midnightblue" d="M768.434,-596.679C768.675,-588.722 768.982,-578.605 769.26,-569.436"/>
<polygon fill="midnightblue" stroke="midnightblue" points="772.762,-569.395 769.567,-559.293 765.765,-569.182 772.762,-569.395"/>
</g>
<!-- Node4 -->
<g id="node4" class="node"><title>Node4</title>
<g id="a_node4"><a xlink:href="Definition_8hpp.html" target="_top" xlink:title="Core/Mesh/DCEL/Definition.hpp">
<polygon fill="white" stroke="black" points="882,-236.5 882,-255.5 1040,-255.5 1040,-236.5 882,-236.5"/>
<text text-anchor="middle" x="961" y="-243.5" font-family="Helvetica,sans-Serif" font-size="10.00">Core/Mesh/DCEL/Definition.hpp</text>
</a>
</g>
</g>
<!-- Node3&#45;&gt;Node4 -->
<g id="edge3" class="edge"><title>Node3&#45;&gt;Node4</title>
<path fill="none" stroke="midnightblue" d="M798.316,-528.96C813.448,-520.184 831.315,-507.586 843,-492 864.667,-463.1 869,-451.121 869,-415 869,-415 869,-415 869,-357 869,-314.502 909.906,-279.77 937.166,-261.344"/>
<polygon fill="midnightblue" stroke="midnightblue" points="939.327,-264.113 945.808,-255.732 935.515,-258.242 939.327,-264.113"/>
</g>
<!-- Node6 -->
<g id="node6" class="node"><title>Node6</title>
<polygon fill="white" stroke="#bfbfbf" points="1174,-174.5 1174,-193.5 1218,-193.5 1218,-174.5 1174,-174.5"/>
<text text-anchor="middle" x="1196" y="-181.5" font-family="Helvetica,sans-Serif" font-size="10.00">vector</text>
</g>
<!-- Node3&#45;&gt;Node6 -->
<g id="edge6" class="edge"><title>Node3&#45;&gt;Node6</title>
<path fill="none" stroke="midnightblue" d="M834.171,-534.032C939.138,-517.542 1136,-478.192 1136,-415 1136,-415 1136,-415 1136,-301 1136,-261.742 1163.45,-222.525 1181.21,-201.251"/>
<polygon fill="midnightblue" stroke="midnightblue" points="1184,-203.376 1187.91,-193.527 1178.71,-198.791 1184,-203.376"/>
</g>
<!-- Node7 -->
<g id="node7" class="node"><title>Node7</title>
<g id="a_node7"><a xlink:href="Iterator_8inl.html" target="_top" xlink:title="Core/Mesh/DCEL/Iterator\l/Iterator.inl">
<polygon fill="white" stroke="black" points="706,-461 706,-491 834,-491 834,-461 706,-461"/>
<text text-anchor="start" x="714" y="-479" font-family="Helvetica,sans-Serif" font-size="10.00">Core/Mesh/DCEL/Iterator</text>
<text text-anchor="middle" x="770" y="-468" font-family="Helvetica,sans-Serif" font-size="10.00">/Iterator.inl</text>
</a>
</g>
</g>
<!-- Node3&#45;&gt;Node7 -->
<g id="edge7" class="edge"><title>Node3&#45;&gt;Node7</title>
<path fill="none" stroke="midnightblue" d="M764.322,-528.679C763.294,-520.722 763.005,-510.605 763.456,-501.436"/>
<polygon fill="midnightblue" stroke="midnightblue" points="766.959,-501.555 764.325,-491.293 759.984,-500.958 766.959,-501.555"/>
</g>
<!-- Node5 -->
<g id="node5" class="node"><title>Node5</title>
<polygon fill="white" stroke="#bfbfbf" points="1104,-174.5 1104,-193.5 1156,-193.5 1156,-174.5 1104,-174.5"/>
<text text-anchor="middle" x="1130" y="-181.5" font-family="Helvetica,sans-Serif" font-size="10.00">memory</text>
</g>
<!-- Node4&#45;&gt;Node5 -->
<g id="edge4" class="edge"><title>Node4&#45;&gt;Node5</title>
<path fill="none" stroke="midnightblue" d="M986.274,-236.377C1012.33,-227.443 1054.09,-212.994 1090,-200 1092.59,-199.062 1095.27,-198.081 1097.96,-197.088"/>
<polygon fill="midnightblue" stroke="midnightblue" points="1099.46,-200.267 1107.61,-193.501 1097.02,-193.707 1099.46,-200.267"/>
</g>
<!-- Node4&#45;&gt;Node6 -->
<g id="edge5" class="edge"><title>Node4&#45;&gt;Node6</title>
<path fill="none" stroke="midnightblue" d="M1016.08,-236.448C1057.68,-229.13 1115.83,-217.056 1165,-200 1166.91,-199.339 1168.85,-198.591 1170.79,-197.791"/>
<polygon fill="midnightblue" stroke="midnightblue" points="1172.55,-200.834 1180.21,-193.517 1169.66,-194.458 1172.55,-200.834"/>
</g>
<!-- Node7&#45;&gt;Node3 -->
<g id="edge8" class="edge"><title>Node7&#45;&gt;Node3</title>
<path fill="none" stroke="midnightblue" d="M775.675,-491.293C776.704,-499.245 776.995,-509.361 776.545,-518.532"/>
<polygon fill="midnightblue" stroke="midnightblue" points="773.042,-518.417 775.678,-528.679 780.017,-519.013 773.042,-518.417"/>
</g>
<!-- Node7&#45;&gt;Node8 -->
<g id="edge9" class="edge"><title>Node7&#45;&gt;Node8</title>
<path fill="none" stroke="midnightblue" d="M744.679,-460.933C727.109,-451.171 703.832,-438.24 686.454,-428.586"/>
<polygon fill="midnightblue" stroke="midnightblue" points="687.921,-425.397 677.48,-423.6 684.522,-431.516 687.921,-425.397"/>
</g>
<!-- Node8&#45;&gt;Node4 -->
<g id="edge22" class="edge"><title>Node8&#45;&gt;Node4</title>
<path fill="none" stroke="midnightblue" d="M688.123,-404.354C710.06,-396.507 741.773,-383.768 767,-368 810.822,-340.61 811.131,-319.315 855,-292 876.977,-278.316 903.842,-266.962 925.027,-259.082"/>
<polygon fill="midnightblue" stroke="midnightblue" points="926.414,-262.302 934.623,-255.603 924.029,-255.721 926.414,-262.302"/>
</g>
<!-- Node9 -->
<g id="node9" class="node"><title>Node9</title>
<g id="a_node9"><a xlink:href="Index_8hpp.html" target="_top" xlink:title="Core/Index/Index.hpp">
<polygon fill="white" stroke="black" points="103,-174.5 103,-193.5 213,-193.5 213,-174.5 103,-174.5"/>
<text text-anchor="middle" x="158" y="-181.5" font-family="Helvetica,sans-Serif" font-size="10.00">Core/Index/Index.hpp</text>
</a>
</g>
</g>
<!-- Node8&#45;&gt;Node9 -->
<g id="edge10" class="edge"><title>Node8&#45;&gt;Node9</title>
<path fill="none" stroke="midnightblue" d="M583.223,-407.044C526.016,-401.128 447.336,-389.672 381,-368 277.082,-334.05 221.653,-347.614 162,-256 152.015,-240.665 152.251,-219.287 154.22,-204.004"/>
<polygon fill="midnightblue" stroke="midnightblue" points="157.745,-204.143 155.923,-193.706 150.839,-203.001 157.745,-204.143"/>
</g>
<!-- Node12 -->
<g id="node12" class="node"><title>Node12</title>
<g id="a_node12"><a xlink:href="IndexedObject_8hpp.html" target="_top" xlink:title="Core/Index/IndexedObject.hpp">
<polygon fill="white" stroke="black" points="358.5,-236.5 358.5,-255.5 507.5,-255.5 507.5,-236.5 358.5,-236.5"/>
<text text-anchor="middle" x="433" y="-243.5" font-family="Helvetica,sans-Serif" font-size="10.00">Core/Index/IndexedObject.hpp</text>
</a>
</g>
</g>
<!-- Node8&#45;&gt;Node12 -->
<g id="edge13" class="edge"><title>Node8&#45;&gt;Node12</title>
<path fill="none" stroke="midnightblue" d="M643.112,-404.427C625.441,-396.08 598.603,-382.554 577,-368 527.393,-334.58 475.051,-287.036 449.286,-262.691"/>
<polygon fill="midnightblue" stroke="midnightblue" points="451.547,-260.011 441.892,-255.649 446.72,-265.08 451.547,-260.011"/>
</g>
<!-- Node20 -->
<g id="node20" class="node"><title>Node20</title>
<g id="a_node20"><a xlink:href="DCEL_2HalfEdge_8inl.html" target="_top" xlink:title="Core/Mesh/DCEL/HalfEdge.inl">
<polygon fill="white" stroke="black" points="586.5,-348.5 586.5,-367.5 737.5,-367.5 737.5,-348.5 586.5,-348.5"/>
<text text-anchor="middle" x="662" y="-355.5" font-family="Helvetica,sans-Serif" font-size="10.00">Core/Mesh/DCEL/HalfEdge.inl</text>
</a>
</g>
</g>
<!-- Node8&#45;&gt;Node20 -->
<g id="edge23" class="edge"><title>Node8&#45;&gt;Node20</title>
<path fill="none" stroke="midnightblue" d="M656.834,-404.083C655.324,-396.927 654.894,-386.635 655.542,-377.691"/>
<polygon fill="midnightblue" stroke="midnightblue" points="659.015,-378.126 656.869,-367.751 652.077,-377.2 659.015,-378.126"/>
</g>
<!-- Node10 -->
<g id="node10" class="node"><title>Node10</title>
<polygon fill="white" stroke="#bfbfbf" points="0,-112.5 0,-131.5 40,-131.5 40,-112.5 0,-112.5"/>
<text text-anchor="middle" x="20" y="-119.5" font-family="Helvetica,sans-Serif" font-size="10.00">limits</text>
</g>
<!-- Node9&#45;&gt;Node10 -->
<g id="edge11" class="edge"><title>Node9&#45;&gt;Node10</title>
<path fill="none" stroke="midnightblue" d="M138.228,-174.403C114.864,-164.245 75.7857,-147.255 48.997,-135.607"/>
<polygon fill="midnightblue" stroke="midnightblue" points="50.3016,-132.358 39.7354,-131.581 47.5105,-138.778 50.3016,-132.358"/>
</g>
<!-- Node11 -->
<g id="node11" class="node"><title>Node11</title>
<g id="a_node11"><a xlink:href="Index_8inl.html" target="_top" xlink:title="Core/Index/Index.inl">
<polygon fill="white" stroke="black" points="58,-112.5 58,-131.5 162,-131.5 162,-112.5 58,-112.5"/>
<text text-anchor="middle" x="110" y="-119.5" font-family="Helvetica,sans-Serif" font-size="10.00">Core/Index/Index.inl</text>
</a>
</g>
</g>
<!-- Node9&#45;&gt;Node11 -->
<g id="edge12" class="edge"><title>Node9&#45;&gt;Node11</title>
<path fill="none" stroke="midnightblue" d="M151.123,-174.403C143.851,-165.314 132.205,-150.756 123.159,-139.449"/>
<polygon fill="midnightblue" stroke="midnightblue" points="125.845,-137.203 116.864,-131.581 120.378,-141.576 125.845,-137.203"/>
</g>
<!-- Node12&#45;&gt;Node9 -->
<g id="edge14" class="edge"><title>Node12&#45;&gt;Node9</title>
<path fill="none" stroke="midnightblue" d="M393.891,-236.467C344.716,-225.738 260.28,-207.316 206.892,-195.667"/>
<polygon fill="midnightblue" stroke="midnightblue" points="207.49,-192.216 196.974,-193.503 205.998,-199.055 207.49,-192.216"/>
</g>
<!-- Node13 -->
<g id="node13" class="node"><title>Node13</title>
<g id="a_node13"><a xlink:href="RaCore_8hpp.html" target="_top" xlink:title="Core/RaCore.hpp">
<polygon fill="white" stroke="black" points="433.5,-112.5 433.5,-131.5 526.5,-131.5 526.5,-112.5 433.5,-112.5"/>
<text text-anchor="middle" x="480" y="-119.5" font-family="Helvetica,sans-Serif" font-size="10.00">Core/RaCore.hpp</text>
</a>
</g>
</g>
<!-- Node12&#45;&gt;Node13 -->
<g id="edge15" class="edge"><title>Node12&#45;&gt;Node13</title>
<path fill="none" stroke="midnightblue" d="M421.459,-236.49C411.521,-228.379 397.878,-215.178 392,-200 386.864,-186.737 384.578,-180.132 392,-168 401.507,-152.46 418.263,-142.07 434.621,-135.231"/>
<polygon fill="midnightblue" stroke="midnightblue" points="436.048,-138.433 444.148,-131.603 433.557,-131.891 436.048,-138.433"/>
</g>
<!-- Node14 -->
<g id="node14" class="node"><title>Node14</title>
<g id="a_node14"><a xlink:href="CoreMacros_8hpp.html" target="_top" xlink:title="Core/CoreMacros.hpp">
<polygon fill="white" stroke="black" points="423.5,-56.5 423.5,-75.5 536.5,-75.5 536.5,-56.5 423.5,-56.5"/>
<text text-anchor="middle" x="480" y="-63.5" font-family="Helvetica,sans-Serif" font-size="10.00">Core/CoreMacros.hpp</text>
</a>
</g>
</g>
<!-- Node13&#45;&gt;Node14 -->
<g id="edge16" class="edge"><title>Node13&#45;&gt;Node14</title>
<path fill="none" stroke="midnightblue" d="M480,-112.083C480,-105.006 480,-94.8611 480,-85.9865"/>
<polygon fill="midnightblue" stroke="midnightblue" points="483.5,-85.751 480,-75.7511 476.5,-85.7511 483.5,-85.751"/>
</g>
<!-- Node15 -->
<g id="node15" class="node"><title>Node15</title>
<polygon fill="white" stroke="#bfbfbf" points="324.5,-0.5 324.5,-19.5 373.5,-19.5 373.5,-0.5 324.5,-0.5"/>
<text text-anchor="middle" x="349" y="-7.5" font-family="Helvetica,sans-Serif" font-size="10.00">cassert</text>
</g>
<!-- Node14&#45;&gt;Node15 -->
<g id="edge17" class="edge"><title>Node14&#45;&gt;Node15</title>
<path fill="none" stroke="midnightblue" d="M459.243,-56.4435C437.684,-47.5566 403.737,-33.5632 379.206,-23.4514"/>
<polygon fill="midnightblue" stroke="midnightblue" points="380.239,-20.0917 369.66,-19.5164 377.572,-26.5634 380.239,-20.0917"/>
</g>
<!-- Node16 -->
<g id="node16" class="node"><title>Node16</title>
<polygon fill="white" stroke="#bfbfbf" points="391.5,-0.5 391.5,-19.5 434.5,-19.5 434.5,-0.5 391.5,-0.5"/>
<text text-anchor="middle" x="413" y="-7.5" font-family="Helvetica,sans-Serif" font-size="10.00">cstdio</text>
</g>
<!-- Node14&#45;&gt;Node16 -->
<g id="edge18" class="edge"><title>Node14&#45;&gt;Node16</title>
<path fill="none" stroke="midnightblue" d="M469.235,-56.324C459.234,-48.2631 444.113,-36.0765 432.07,-26.3695"/>
<polygon fill="midnightblue" stroke="midnightblue" points="433.943,-23.3841 423.961,-19.8339 429.55,-28.8343 433.943,-23.3841"/>
</g>
<!-- Node17 -->
<g id="node17" class="node"><title>Node17</title>
<polygon fill="white" stroke="#bfbfbf" points="453,-0.5 453,-19.5 507,-19.5 507,-0.5 453,-0.5"/>
<text text-anchor="middle" x="480" y="-7.5" font-family="Helvetica,sans-Serif" font-size="10.00">iostream</text>
</g>
<!-- Node14&#45;&gt;Node17 -->
<g id="edge19" class="edge"><title>Node14&#45;&gt;Node17</title>
<path fill="none" stroke="midnightblue" d="M480,-56.083C480,-49.0059 480,-38.8611 480,-29.9865"/>
<polygon fill="midnightblue" stroke="midnightblue" points="483.5,-29.751 480,-19.7511 476.5,-29.7511 483.5,-29.751"/>
</g>
<!-- Node18 -->
<g id="node18" class="node"><title>Node18</title>
<polygon fill="white" stroke="#bfbfbf" points="525,-0.5 525,-19.5 577,-19.5 577,-0.5 525,-0.5"/>
<text text-anchor="middle" x="551" y="-7.5" font-family="Helvetica,sans-Serif" font-size="10.00">sstream</text>
</g>
<!-- Node14&#45;&gt;Node18 -->
<g id="edge20" class="edge"><title>Node14&#45;&gt;Node18</title>
<path fill="none" stroke="midnightblue" d="M491.407,-56.324C502.109,-48.1849 518.341,-35.8395 531.163,-26.0874"/>
<polygon fill="midnightblue" stroke="midnightblue" points="533.544,-28.6734 539.385,-19.8339 529.307,-23.1018 533.544,-28.6734"/>
</g>
<!-- Node19 -->
<g id="node19" class="node"><title>Node19</title>
<polygon fill="white" stroke="#bfbfbf" points="595,-0.5 595,-19.5 639,-19.5 639,-0.5 595,-0.5"/>
<text text-anchor="middle" x="617" y="-7.5" font-family="Helvetica,sans-Serif" font-size="10.00">thread</text>
</g>
<!-- Node14&#45;&gt;Node19 -->
<g id="edge21" class="edge"><title>Node14&#45;&gt;Node19</title>
<path fill="none" stroke="midnightblue" d="M501.708,-56.4435C524.355,-47.5171 560.072,-33.4387 585.752,-23.3168"/>
<polygon fill="midnightblue" stroke="midnightblue" points="587.374,-26.4397 595.394,-19.5164 584.807,-19.9273 587.374,-26.4397"/>
</g>
<!-- Node20&#45;&gt;Node8 -->
<g id="edge24" class="edge"><title>Node20&#45;&gt;Node8</title>
<path fill="none" stroke="midnightblue" d="M667.131,-367.751C668.657,-374.858 669.104,-385.136 668.472,-394.101"/>
<polygon fill="midnightblue" stroke="midnightblue" points="664.993,-393.713 667.166,-404.083 671.934,-394.622 664.993,-393.713"/>
</g>
<!-- Node21 -->
<g id="node21" class="node"><title>Node21</title>
<g id="a_node21"><a xlink:href="Face_8hpp.html" target="_top" xlink:title="Core/Mesh/DCEL/Face.hpp">
<polygon fill="white" stroke="black" points="315,-292.5 315,-311.5 453,-311.5 453,-292.5 315,-292.5"/>
<text text-anchor="middle" x="384" y="-299.5" font-family="Helvetica,sans-Serif" font-size="10.00">Core/Mesh/DCEL/Face.hpp</text>
</a>
</g>
</g>
<!-- Node20&#45;&gt;Node21 -->
<g id="edge25" class="edge"><title>Node20&#45;&gt;Node21</title>
<path fill="none" stroke="midnightblue" d="M617.95,-348.444C569.149,-338.964 490.437,-323.675 437.97,-313.483"/>
<polygon fill="midnightblue" stroke="midnightblue" points="438.328,-309.988 427.844,-311.516 436.993,-316.859 438.328,-309.988"/>
</g>
<!-- Node23 -->
<g id="node23" class="node"><title>Node23</title>
<g id="a_node23"><a xlink:href="Vertex_8hpp.html" target="_top" xlink:title="Core/Mesh/DCEL/Vertex.hpp">
<polygon fill="white" stroke="black" points="589.5,-292.5 589.5,-311.5 734.5,-311.5 734.5,-292.5 589.5,-292.5"/>
<text text-anchor="middle" x="662" y="-299.5" font-family="Helvetica,sans-Serif" font-size="10.00">Core/Mesh/DCEL/Vertex.hpp</text>
</a>
</g>
</g>
<!-- Node20&#45;&gt;Node23 -->
<g id="edge32" class="edge"><title>Node20&#45;&gt;Node23</title>
<path fill="none" stroke="midnightblue" d="M662,-348.083C662,-341.006 662,-330.861 662,-321.986"/>
<polygon fill="midnightblue" stroke="midnightblue" points="665.5,-321.751 662,-311.751 658.5,-321.751 665.5,-321.751"/>
</g>
<!-- Node21&#45;&gt;Node4 -->
<g id="edge28" class="edge"><title>Node21&#45;&gt;Node4</title>
<path fill="none" stroke="midnightblue" d="M453.114,-294.82C545.66,-286.502 715.255,-271.108 871.625,-256.028"/>
<polygon fill="midnightblue" stroke="midnightblue" points="872.288,-259.48 881.905,-255.035 871.615,-252.513 872.288,-259.48"/>
</g>
<!-- Node21&#45;&gt;Node9 -->
<g id="edge26" class="edge"><title>Node21&#45;&gt;Node9</title>
<path fill="none" stroke="midnightblue" d="M376.473,-292.166C364.259,-278.346 338.781,-251.586 312,-236 279.712,-217.209 239.539,-204.198 208.32,-196.023"/>
<polygon fill="midnightblue" stroke="midnightblue" points="209.074,-192.604 198.52,-193.538 207.353,-199.389 209.074,-192.604"/>
</g>
<!-- Node21&#45;&gt;Node12 -->
<g id="edge27" class="edge"><title>Node21&#45;&gt;Node12</title>
<path fill="none" stroke="midnightblue" d="M392.091,-292.083C399.155,-284.298 409.588,-272.801 418.149,-263.367"/>
<polygon fill="midnightblue" stroke="midnightblue" points="420.931,-265.509 425.059,-255.751 415.747,-260.805 420.931,-265.509"/>
</g>
<!-- Node22 -->
<g id="node22" class="node"><title>Node22</title>
<g id="a_node22"><a xlink:href="Face_8inl.html" target="_top" xlink:title="Core/Mesh/DCEL/Face.inl">
<polygon fill="white" stroke="black" points="171,-236.5 171,-255.5 303,-255.5 303,-236.5 171,-236.5"/>
<text text-anchor="middle" x="237" y="-243.5" font-family="Helvetica,sans-Serif" font-size="10.00">Core/Mesh/DCEL/Face.inl</text>
</a>
</g>
</g>
<!-- Node21&#45;&gt;Node22 -->
<g id="edge29" class="edge"><title>Node21&#45;&gt;Node22</title>
<path fill="none" stroke="midnightblue" d="M355.619,-292.444C329.245,-283.478 290.468,-269.314 264.414,-259.183"/>
<polygon fill="midnightblue" stroke="midnightblue" points="265.691,-255.924 255.104,-255.516 263.126,-262.437 265.691,-255.924"/>
</g>
<!-- Node22&#45;&gt;Node8 -->
<g id="edge31" class="edge"><title>Node22&#45;&gt;Node8</title>
<path fill="none" stroke="midnightblue" d="M243.684,-255.534C255.015,-269.427 279.375,-296.897 306,-312 396.195,-363.164 514.175,-389.961 589.048,-402.778"/>
<polygon fill="midnightblue" stroke="midnightblue" points="588.879,-406.299 599.319,-404.495 590.033,-399.394 588.879,-406.299"/>
</g>
<!-- Node22&#45;&gt;Node21 -->
<g id="edge30" class="edge"><title>Node22&#45;&gt;Node21</title>
<path fill="none" stroke="midnightblue" d="M265.264,-255.516C291.601,-264.467 330.378,-278.629 356.47,-288.772"/>
<polygon fill="midnightblue" stroke="midnightblue" points="355.209,-292.037 365.796,-292.444 357.773,-285.524 355.209,-292.037"/>
</g>
<!-- Node23&#45;&gt;Node4 -->
<g id="edge49" class="edge"><title>Node23&#45;&gt;Node4</title>
<path fill="none" stroke="midnightblue" d="M709.377,-292.444C762.084,-282.925 847.229,-267.547 903.657,-257.356"/>
<polygon fill="midnightblue" stroke="midnightblue" points="904.625,-260.738 913.844,-255.516 903.381,-253.849 904.625,-260.738"/>
</g>
<!-- Node23&#45;&gt;Node9 -->
<g id="edge33" class="edge"><title>Node23&#45;&gt;Node9</title>
<path fill="none" stroke="midnightblue" d="M639.821,-292.434C617.809,-283.776 583.226,-269.746 554,-256 536.73,-247.877 534.205,-241.728 516,-236 393.793,-197.547 356.368,-221.082 230,-200 222.207,-198.7 213.975,-197.152 205.972,-195.552"/>
<polygon fill="midnightblue" stroke="midnightblue" points="206.505,-192.089 196.007,-193.512 205.102,-198.947 206.505,-192.089"/>
</g>
<!-- Node23&#45;&gt;Node12 -->
<g id="edge34" class="edge"><title>Node23&#45;&gt;Node12</title>
<path fill="none" stroke="midnightblue" d="M625.714,-292.444C586.017,-283.083 522.293,-268.056 479.088,-257.868"/>
<polygon fill="midnightblue" stroke="midnightblue" points="479.652,-254.405 469.116,-255.516 478.046,-261.218 479.652,-254.405"/>
</g>
<!-- Node24 -->
<g id="node24" class="node"><title>Node24</title>
<g id="a_node24"><a xlink:href="LinearAlgebra_8hpp.html" target="_top" xlink:title="Core/Math/LinearAlgebra.hpp">
<polygon fill="white" stroke="black" points="563.5,-236.5 563.5,-255.5 706.5,-255.5 706.5,-236.5 563.5,-236.5"/>
<text text-anchor="middle" x="635" y="-243.5" font-family="Helvetica,sans-Serif" font-size="10.00">Core/Math/LinearAlgebra.hpp</text>
</a>
</g>
</g>
<!-- Node23&#45;&gt;Node24 -->
<g id="edge35" class="edge"><title>Node23&#45;&gt;Node24</title>
<path fill="none" stroke="midnightblue" d="M657.541,-292.083C653.846,-284.691 648.477,-273.953 643.906,-264.811"/>
<polygon fill="midnightblue" stroke="midnightblue" points="646.978,-263.13 639.376,-255.751 640.717,-266.261 646.978,-263.13"/>
</g>
<!-- Node35 -->
<g id="node35" class="node"><title>Node35</title>
<g id="a_node35"><a xlink:href="Vertex_8inl.html" target="_top" xlink:title="Core/Mesh/DCEL/Vertex.inl">
<polygon fill="white" stroke="black" points="724.5,-236.5 724.5,-255.5 863.5,-255.5 863.5,-236.5 724.5,-236.5"/>
<text text-anchor="middle" x="794" y="-243.5" font-family="Helvetica,sans-Serif" font-size="10.00">Core/Mesh/DCEL/Vertex.inl</text>
</a>
</g>
</g>
<!-- Node23&#45;&gt;Node35 -->
<g id="edge50" class="edge"><title>Node23&#45;&gt;Node35</title>
<path fill="none" stroke="midnightblue" d="M677.827,-292.444C697.777,-283.478 732.179,-269.314 758.47,-259.183"/>
<polygon fill="midnightblue" stroke="midnightblue" points="760.001,-262.345 768.102,-255.516 757.511,-255.803 760.001,-262.345"/>
</g>
<!-- Node24&#45;&gt;Node13 -->
<g id="edge36" class="edge"><title>Node24&#45;&gt;Node13</title>
<path fill="none" stroke="midnightblue" d="M706.527,-236.929C709.388,-236.614 712.221,-236.303 715,-236 752.875,-231.87 1030.51,-228.319 1056,-200 1065.51,-189.429 1065.66,-178.441 1056,-168 1021.23,-130.412 675.512,-124.157 536.974,-123.165"/>
<polygon fill="midnightblue" stroke="midnightblue" points="536.6,-119.662 526.578,-123.097 536.555,-126.662 536.6,-119.662"/>
</g>
<!-- Node25 -->
<g id="node25" class="node"><title>Node25</title>
<polygon fill="white" stroke="#bfbfbf" points="401.5,-174.5 401.5,-193.5 466.5,-193.5 466.5,-174.5 401.5,-174.5"/>
<text text-anchor="middle" x="434" y="-181.5" font-family="Helvetica,sans-Serif" font-size="10.00">Eigen/Core</text>
</g>
<!-- Node24&#45;&gt;Node25 -->
<g id="edge37" class="edge"><title>Node24&#45;&gt;Node25</title>
<path fill="none" stroke="midnightblue" d="M601.683,-236.427C569.163,-227.871 518.384,-214.014 475,-200 472.065,-199.052 469.028,-198.027 465.994,-196.972"/>
<polygon fill="midnightblue" stroke="midnightblue" points="467.044,-193.63 456.449,-193.565 464.69,-200.223 467.044,-193.63"/>
</g>
<!-- Node26 -->
<g id="node26" class="node"><title>Node26</title>
<polygon fill="white" stroke="#bfbfbf" points="484.5,-174.5 484.5,-193.5 571.5,-193.5 571.5,-174.5 484.5,-174.5"/>
<text text-anchor="middle" x="528" y="-181.5" font-family="Helvetica,sans-Serif" font-size="10.00">Eigen/Geometry</text>
</g>
<!-- Node24&#45;&gt;Node26 -->
<g id="edge38" class="edge"><title>Node24&#45;&gt;Node26</title>
<path fill="none" stroke="midnightblue" d="M619.67,-236.403C602.03,-226.512 572.84,-210.144 552.142,-198.538"/>
<polygon fill="midnightblue" stroke="midnightblue" points="553.736,-195.419 543.302,-193.581 550.312,-201.524 553.736,-195.419"/>
</g>
<!-- Node27 -->
<g id="node27" class="node"><title>Node27</title>
<polygon fill="white" stroke="#bfbfbf" points="589.5,-174.5 589.5,-193.5 664.5,-193.5 664.5,-174.5 589.5,-174.5"/>
<text text-anchor="middle" x="627" y="-181.5" font-family="Helvetica,sans-Serif" font-size="10.00">Eigen/Sparse</text>
</g>
<!-- Node24&#45;&gt;Node27 -->
<g id="edge39" class="edge"><title>Node24&#45;&gt;Node27</title>
<path fill="none" stroke="midnightblue" d="M633.854,-236.403C632.725,-227.938 630.964,-214.728 629.509,-203.82"/>
<polygon fill="midnightblue" stroke="midnightblue" points="632.935,-203.03 628.144,-193.581 625.997,-203.955 632.935,-203.03"/>
</g>
<!-- Node28 -->
<g id="node28" class="node"><title>Node28</title>
<polygon fill="white" stroke="#bfbfbf" points="682.5,-174.5 682.5,-193.5 741.5,-193.5 741.5,-174.5 682.5,-174.5"/>
<text text-anchor="middle" x="712" y="-181.5" font-family="Helvetica,sans-Serif" font-size="10.00">functional</text>
</g>
<!-- Node24&#45;&gt;Node28 -->
<g id="edge40" class="edge"><title>Node24&#45;&gt;Node28</title>
<path fill="none" stroke="midnightblue" d="M646.032,-236.403C658.268,-226.869 678.229,-211.315 692.993,-199.811"/>
<polygon fill="midnightblue" stroke="midnightblue" points="695.252,-202.488 700.988,-193.581 690.949,-196.966 695.252,-202.488"/>
</g>
<!-- Node29 -->
<g id="node29" class="node"><title>Node29</title>
<polygon fill="white" stroke="#bfbfbf" points="759.5,-169 759.5,-199 892.5,-199 892.5,-169 759.5,-169"/>
<text text-anchor="start" x="767.5" y="-187" font-family="Helvetica,sans-Serif" font-size="10.00">unsupported/Eigen/Aligned</text>
<text text-anchor="middle" x="826" y="-176" font-family="Helvetica,sans-Serif" font-size="10.00">Vector3</text>
</g>
<!-- Node24&#45;&gt;Node29 -->
<g id="edge41" class="edge"><title>Node24&#45;&gt;Node29</title>
<path fill="none" stroke="midnightblue" d="M662.366,-236.403C690.746,-227.488 735.877,-213.311 771.56,-202.101"/>
<polygon fill="midnightblue" stroke="midnightblue" points="772.861,-205.361 781.353,-199.025 770.763,-198.683 772.861,-205.361"/>
</g>
<!-- Node30 -->
<g id="node30" class="node"><title>Node30</title>
<g id="a_node30"><a xlink:href="Math_8hpp.html" target="_top" xlink:title="Core/Math/Math.hpp">
<polygon fill="white" stroke="black" points="239,-174.5 239,-193.5 345,-193.5 345,-174.5 239,-174.5"/>
<text text-anchor="middle" x="292" y="-181.5" font-family="Helvetica,sans-Serif" font-size="10.00">Core/Math/Math.hpp</text>
</a>
</g>
</g>
<!-- Node24&#45;&gt;Node30 -->
<g id="edge42" class="edge"><title>Node24&#45;&gt;Node30</title>
<path fill="none" stroke="midnightblue" d="M586.221,-236.467C524.12,-225.604 416.937,-206.855 350.508,-195.235"/>
<polygon fill="midnightblue" stroke="midnightblue" points="351.065,-191.779 340.611,-193.503 349.858,-198.674 351.065,-191.779"/>
</g>
<!-- Node34 -->
<g id="node34" class="node"><title>Node34</title>
<g id="a_node34"><a xlink:href="LinearAlgebra_8inl.html" target="_top" xlink:title="Core/Math/LinearAlgebra.inl">
<polygon fill="white" stroke="black" points="910.5,-174.5 910.5,-193.5 1047.5,-193.5 1047.5,-174.5 910.5,-174.5"/>
<text text-anchor="middle" x="979" y="-181.5" font-family="Helvetica,sans-Serif" font-size="10.00">Core/Math/LinearAlgebra.inl</text>
</a>
</g>
</g>
<!-- Node24&#45;&gt;Node34 -->
<g id="edge48" class="edge"><title>Node24&#45;&gt;Node34</title>
<path fill="none" stroke="midnightblue" d="M687.55,-236.466C741.251,-227.662 827.025,-213.368 901,-200 909.007,-198.553 917.467,-196.976 925.746,-195.406"/>
<polygon fill="midnightblue" stroke="midnightblue" points="926.546,-198.817 935.712,-193.504 925.233,-191.941 926.546,-198.817"/>
</g>
<!-- Node30&#45;&gt;Node13 -->
<g id="edge43" class="edge"><title>Node30&#45;&gt;Node13</title>
<path fill="none" stroke="midnightblue" d="M318.936,-174.403C351.603,-163.978 406.819,-146.356 443.343,-134.699"/>
<polygon fill="midnightblue" stroke="midnightblue" points="444.652,-137.955 453.114,-131.581 442.523,-131.287 444.652,-137.955"/>
</g>
<!-- Node31 -->
<g id="node31" class="node"><title>Node31</title>
<polygon fill="white" stroke="#bfbfbf" points="360,-112.5 360,-131.5 416,-131.5 416,-112.5 360,-112.5"/>
<text text-anchor="middle" x="388" y="-119.5" font-family="Helvetica,sans-Serif" font-size="10.00">algorithm</text>
</g>
<!-- Node30&#45;&gt;Node31 -->
<g id="edge44" class="edge"><title>Node30&#45;&gt;Node31</title>
<path fill="none" stroke="midnightblue" d="M305.754,-174.403C321.366,-164.646 347.063,-148.585 365.583,-137.011"/>
<polygon fill="midnightblue" stroke="midnightblue" points="367.646,-139.849 374.271,-131.581 363.936,-133.913 367.646,-139.849"/>
</g>
<!-- Node32 -->
<g id="node32" class="node"><title>Node32</title>
<polygon fill="white" stroke="#bfbfbf" points="180,-112.5 180,-131.5 224,-131.5 224,-112.5 180,-112.5"/>
<text text-anchor="middle" x="202" y="-119.5" font-family="Helvetica,sans-Serif" font-size="10.00">cmath</text>
</g>
<!-- Node30&#45;&gt;Node32 -->
<g id="edge45" class="edge"><title>Node30&#45;&gt;Node32</title>
<path fill="none" stroke="midnightblue" d="M279.105,-174.403C264.536,-164.691 240.598,-148.732 223.255,-137.17"/>
<polygon fill="midnightblue" stroke="midnightblue" points="225.133,-134.215 214.871,-131.581 221.25,-140.04 225.133,-134.215"/>
</g>
<!-- Node33 -->
<g id="node33" class="node"><title>Node33</title>
<g id="a_node33"><a xlink:href="Math_8inl.html" target="_top" xlink:title="Core/Math/Math.inl">
<polygon fill="white" stroke="black" points="242,-112.5 242,-131.5 342,-131.5 342,-112.5 242,-112.5"/>
<text text-anchor="middle" x="292" y="-119.5" font-family="Helvetica,sans-Serif" font-size="10.00">Core/Math/Math.inl</text>
</a>
</g>
</g>
<!-- Node30&#45;&gt;Node33 -->
<g id="edge46" class="edge"><title>Node30&#45;&gt;Node33</title>
<path fill="none" stroke="midnightblue" d="M287.099,-174.403C285.268,-165.938 284.797,-152.728 285.685,-141.82"/>
<polygon fill="midnightblue" stroke="midnightblue" points="289.198,-141.966 287.103,-131.581 282.264,-141.006 289.198,-141.966"/>
</g>
<!-- Node33&#45;&gt;Node30 -->
<g id="edge47" class="edge"><title>Node33&#45;&gt;Node30</title>
<path fill="none" stroke="midnightblue" d="M296.897,-131.581C298.73,-140.04 299.203,-153.248 298.317,-164.16"/>
<polygon fill="midnightblue" stroke="midnightblue" points="294.803,-164.018 296.901,-174.403 301.737,-164.977 294.803,-164.018"/>
</g>
<!-- Node35&#45;&gt;Node8 -->
<g id="edge52" class="edge"><title>Node35&#45;&gt;Node8</title>
<path fill="none" stroke="midnightblue" d="M792.662,-255.69C788.947,-277.186 776.687,-333.594 746,-368 733.02,-382.553 714.186,-393.244 697.64,-400.545"/>
<polygon fill="midnightblue" stroke="midnightblue" points="696.117,-397.388 688.224,-404.455 698.801,-403.852 696.117,-397.388"/>
</g>
<!-- Node35&#45;&gt;Node23 -->
<g id="edge51" class="edge"><title>Node35&#45;&gt;Node23</title>
<path fill="none" stroke="midnightblue" d="M778.262,-255.516C758.355,-264.467 723.963,-278.629 697.648,-288.772"/>
<polygon fill="midnightblue" stroke="midnightblue" points="696.105,-285.614 688.005,-292.444 698.595,-292.156 696.105,-285.614"/>
</g>
</g>
</svg>
