<?xml version="1.0" encoding="UTF-8" standalone="no"?>
<!DOCTYPE svg PUBLIC "-//W3C//DTD SVG 1.1//EN"
 "http://www.w3.org/Graphics/SVG/1.1/DTD/svg11.dtd">
<!-- Generated by graphviz version 2.36.0 (20140111.2315)
 -->
<!-- Title: /home/travis/build/STORM&#45;IRIT/Radium&#45;Engine/src/Core/Mesh/DCEL/Iterator/Edge/EdgeIterator.hpp Pages: 1 -->
<svg width="1158pt" height="658pt"
 viewBox="0.00 0.00 1158.00 658.00" xmlns="http://www.w3.org/2000/svg" xmlns:xlink="http://www.w3.org/1999/xlink">
<g id="graph0" class="graph" transform="scale(1 1) rotate(0) translate(4 654)">
<title>/home/travis/build/STORM&#45;IRIT/Radium&#45;Engine/src/Core/Mesh/DCEL/Iterator/Edge/EdgeIterator.hpp</title>
<polygon fill="white" stroke="none" points="-4,4 -4,-654 1154,-654 1154,4 -4,4"/>
<!-- Node1 -->
<g id="node1" class="node"><title>Node1</title>
<polygon fill="#bfbfbf" stroke="black" points="513,-597 513,-649 661,-649 661,-597 513,-597"/>
<text text-anchor="start" x="521" y="-637" font-family="Helvetica,sans-Serif" font-size="10.00">/home/travis/build</text>
<text text-anchor="start" x="521" y="-626" font-family="Helvetica,sans-Serif" font-size="10.00">/STORM&#45;IRIT/Radium&#45;Engine</text>
<text text-anchor="start" x="521" y="-615" font-family="Helvetica,sans-Serif" font-size="10.00">/src/Core/Mesh/DCEL/Iterator</text>
<text text-anchor="middle" x="587" y="-604" font-family="Helvetica,sans-Serif" font-size="10.00">/Edge/EdgeIterator.hpp</text>
</g>
<!-- Node2 -->
<g id="node2" class="node"><title>Node2</title>
<g id="a_node2"><a xlink:href="Iterator_8hpp.html" target="_top" xlink:title="Core/Mesh/DCEL/Iterator\l/Iterator.hpp">
<polygon fill="white" stroke="black" points="363,-529 363,-559 491,-559 491,-529 363,-529"/>
<text text-anchor="start" x="371" y="-547" font-family="Helvetica,sans-Serif" font-size="10.00">Core/Mesh/DCEL/Iterator</text>
<text text-anchor="middle" x="427" y="-536" font-family="Helvetica,sans-Serif" font-size="10.00">/Iterator.hpp</text>
</a>
</g>
</g>
<!-- Node1&#45;&gt;Node2 -->
<g id="edge1" class="edge"><title>Node1&#45;&gt;Node2</title>
<path fill="none" stroke="midnightblue" d="M534.61,-596.787C512.006,-585.909 486.051,-573.418 465.295,-563.429"/>
<polygon fill="midnightblue" stroke="midnightblue" points="466.683,-560.213 456.155,-559.031 463.648,-566.521 466.683,-560.213"/>
</g>
<!-- Node35 -->
<g id="node35" class="node"><title>Node35</title>
<g id="a_node35"><a xlink:href="EdgeIterator_8inl.html" target="_top" xlink:title="Core/Mesh/DCEL/Iterator\l/Edge/EdgeIterator.inl">
<polygon fill="white" stroke="black" points="523,-529 523,-559 651,-559 651,-529 523,-529"/>
<text text-anchor="start" x="531" y="-547" font-family="Helvetica,sans-Serif" font-size="10.00">Core/Mesh/DCEL/Iterator</text>
<text text-anchor="middle" x="587" y="-536" font-family="Helvetica,sans-Serif" font-size="10.00">/Edge/EdgeIterator.inl</text>
</a>
</g>
</g>
<!-- Node1&#45;&gt;Node35 -->
<g id="edge52" class="edge"><title>Node1&#45;&gt;Node35</title>
<path fill="none" stroke="midnightblue" d="M580.621,-596.787C580.107,-587.932 580.127,-578.007 580.68,-569.234"/>
<polygon fill="midnightblue" stroke="midnightblue" points="584.167,-569.536 581.619,-559.252 577.198,-568.88 584.167,-569.536"/>
</g>
<!-- Node3 -->
<g id="node3" class="node"><title>Node3</title>
<g id="a_node3"><a xlink:href="Definition_8hpp.html" target="_top" xlink:title="Core/Mesh/DCEL/Definition.hpp">
<polygon fill="white" stroke="black" points="198,-236.5 198,-255.5 356,-255.5 356,-236.5 198,-236.5"/>
<text text-anchor="middle" x="277" y="-243.5" font-family="Helvetica,sans-Serif" font-size="10.00">Core/Mesh/DCEL/Definition.hpp</text>
</a>
</g>
</g>
<!-- Node2&#45;&gt;Node3 -->
<g id="edge2" class="edge"><title>Node2&#45;&gt;Node3</title>
<path fill="none" stroke="midnightblue" d="M392.783,-528.951C352.204,-509.747 290,-471.15 290,-415 290,-415 290,-415 290,-357 290,-324.576 284.361,-287.146 280.51,-265.369"/>
<polygon fill="midnightblue" stroke="midnightblue" points="283.95,-264.72 278.7,-255.517 277.065,-265.985 283.95,-264.72"/>
</g>
<!-- Node5 -->
<g id="node5" class="node"><title>Node5</title>
<polygon fill="white" stroke="#bfbfbf" points="0,-174.5 0,-193.5 44,-193.5 44,-174.5 0,-174.5"/>
<text text-anchor="middle" x="22" y="-181.5" font-family="Helvetica,sans-Serif" font-size="10.00">vector</text>
</g>
<!-- Node2&#45;&gt;Node5 -->
<g id="edge5" class="edge"><title>Node2&#45;&gt;Node5</title>
<path fill="none" stroke="midnightblue" d="M362.672,-530.518C270.278,-510.72 111,-468.79 111,-415 111,-415 111,-415 111,-301 111,-256.985 70.168,-219.377 43.8181,-199.69"/>
<polygon fill="midnightblue" stroke="midnightblue" points="45.6785,-196.717 35.5172,-193.717 41.5901,-202.399 45.6785,-196.717"/>
</g>
<!-- Node6 -->
<g id="node6" class="node"><title>Node6</title>
<g id="a_node6"><a xlink:href="Iterator_8inl.html" target="_top" xlink:title="Core/Mesh/DCEL/Iterator\l/Iterator.inl">
<polygon fill="white" stroke="black" points="363,-461 363,-491 491,-491 491,-461 363,-461"/>
<text text-anchor="start" x="371" y="-479" font-family="Helvetica,sans-Serif" font-size="10.00">Core/Mesh/DCEL/Iterator</text>
<text text-anchor="middle" x="427" y="-468" font-family="Helvetica,sans-Serif" font-size="10.00">/Iterator.inl</text>
</a>
</g>
</g>
<!-- Node2&#45;&gt;Node6 -->
<g id="edge6" class="edge"><title>Node2&#45;&gt;Node6</title>
<path fill="none" stroke="midnightblue" d="M421.322,-528.679C420.294,-520.722 420.005,-510.605 420.456,-501.436"/>
<polygon fill="midnightblue" stroke="midnightblue" points="423.959,-501.555 421.325,-491.293 416.984,-500.958 423.959,-501.555"/>
</g>
<!-- Node4 -->
<g id="node4" class="node"><title>Node4</title>
<polygon fill="white" stroke="#bfbfbf" points="62,-174.5 62,-193.5 114,-193.5 114,-174.5 62,-174.5"/>
<text text-anchor="middle" x="88" y="-181.5" font-family="Helvetica,sans-Serif" font-size="10.00">memory</text>
</g>
<!-- Node3&#45;&gt;Node4 -->
<g id="edge3" class="edge"><title>Node3&#45;&gt;Node4</title>
<path fill="none" stroke="midnightblue" d="M243.584,-236.484C212.138,-228.178 163.898,-214.679 123,-200 120.742,-199.19 118.422,-198.308 116.101,-197.391"/>
<polygon fill="midnightblue" stroke="midnightblue" points="117.304,-194.101 106.725,-193.518 114.631,-200.571 117.304,-194.101"/>
</g>
<!-- Node3&#45;&gt;Node5 -->
<g id="edge4" class="edge"><title>Node3&#45;&gt;Node5</title>
<path fill="none" stroke="midnightblue" d="M212.638,-236.484C167.249,-229.418 105.447,-217.64 53,-200 51.0874,-199.357 49.1403,-198.622 47.2011,-197.832"/>
<polygon fill="midnightblue" stroke="midnightblue" points="48.3209,-194.498 37.7661,-193.578 45.4436,-200.879 48.3209,-194.498"/>
</g>
<!-- Node6&#45;&gt;Node2 -->
<g id="edge7" class="edge"><title>Node6&#45;&gt;Node2</title>
<path fill="none" stroke="midnightblue" d="M432.675,-491.293C433.704,-499.245 433.995,-509.361 433.545,-518.532"/>
<polygon fill="midnightblue" stroke="midnightblue" points="430.042,-518.417 432.678,-528.679 437.017,-519.013 430.042,-518.417"/>
</g>
<!-- Node7 -->
<g id="node7" class="node"><title>Node7</title>
<g id="a_node7"><a xlink:href="DCEL_2HalfEdge_8hpp.html" target="_top" xlink:title="Core/Mesh/DCEL/HalfEdge.hpp">
<polygon fill="white" stroke="black" points="619.5,-404.5 619.5,-423.5 776.5,-423.5 776.5,-404.5 619.5,-404.5"/>
<text text-anchor="middle" x="698" y="-411.5" font-family="Helvetica,sans-Serif" font-size="10.00">Core/Mesh/DCEL/HalfEdge.hpp</text>
</a>
</g>
</g>
<!-- Node6&#45;&gt;Node7 -->
<g id="edge8" class="edge"><title>Node6&#45;&gt;Node7</title>
<path fill="none" stroke="midnightblue" d="M490.537,-460.933C539.159,-450.168 605.195,-435.547 649.589,-425.718"/>
<polygon fill="midnightblue" stroke="midnightblue" points="650.544,-429.092 659.551,-423.513 649.031,-422.257 650.544,-429.092"/>
</g>
<!-- Node7&#45;&gt;Node3 -->
<g id="edge21" class="edge"><title>Node7&#45;&gt;Node3</title>
<path fill="none" stroke="midnightblue" d="M672.353,-404.435C646.406,-395.664 605.208,-381.448 570,-368 472.435,-330.735 358.512,-282.228 306.095,-259.623"/>
<polygon fill="midnightblue" stroke="midnightblue" points="307.316,-256.338 296.748,-255.585 304.54,-262.764 307.316,-256.338"/>
</g>
<!-- Node8 -->
<g id="node8" class="node"><title>Node8</title>
<g id="a_node8"><a xlink:href="Index_8hpp.html" target="_top" xlink:title="Core/Index/Index.hpp">
<polygon fill="white" stroke="black" points="998,-174.5 998,-193.5 1108,-193.5 1108,-174.5 998,-174.5"/>
<text text-anchor="middle" x="1053" y="-181.5" font-family="Helvetica,sans-Serif" font-size="10.00">Core/Index/Index.hpp</text>
</a>
</g>
</g>
<!-- Node7&#45;&gt;Node8 -->
<g id="edge9" class="edge"><title>Node7&#45;&gt;Node8</title>
<path fill="none" stroke="midnightblue" d="M775.481,-404.496C817.675,-397.999 870.083,-386.835 914,-368 994.446,-333.499 1035.35,-333.521 1076,-256 1085.08,-238.68 1075.46,-217.102 1066.03,-202.308"/>
<polygon fill="midnightblue" stroke="midnightblue" points="1068.63,-199.912 1060.06,-193.679 1062.87,-203.894 1068.63,-199.912"/>
</g>
<!-- Node11 -->
<g id="node11" class="node"><title>Node11</title>
<g id="a_node11"><a xlink:href="IndexedObject_8hpp.html" target="_top" xlink:title="Core/Index/IndexedObject.hpp">
<polygon fill="white" stroke="black" points="730.5,-236.5 730.5,-255.5 879.5,-255.5 879.5,-236.5 730.5,-236.5"/>
<text text-anchor="middle" x="805" y="-243.5" font-family="Helvetica,sans-Serif" font-size="10.00">Core/Index/IndexedObject.hpp</text>
</a>
</g>
</g>
<!-- Node7&#45;&gt;Node11 -->
<g id="edge12" class="edge"><title>Node7&#45;&gt;Node11</title>
<path fill="none" stroke="midnightblue" d="M698.418,-404.457C699.852,-383.298 706.113,-327.598 733,-292 743.494,-278.106 759.634,-267.453 773.974,-260.008"/>
<polygon fill="midnightblue" stroke="midnightblue" points="775.607,-263.106 783.061,-255.577 772.539,-256.814 775.607,-263.106"/>
</g>
<!-- Node19 -->
<g id="node19" class="node"><title>Node19</title>
<g id="a_node19"><a xlink:href="DCEL_2HalfEdge_8inl.html" target="_top" xlink:title="Core/Mesh/DCEL/HalfEdge.inl">
<polygon fill="white" stroke="black" points="726.5,-348.5 726.5,-367.5 877.5,-367.5 877.5,-348.5 726.5,-348.5"/>
<text text-anchor="middle" x="802" y="-355.5" font-family="Helvetica,sans-Serif" font-size="10.00">Core/Mesh/DCEL/HalfEdge.inl</text>
</a>
</g>
</g>
<!-- Node7&#45;&gt;Node19 -->
<g id="edge22" class="edge"><title>Node7&#45;&gt;Node19</title>
<path fill="none" stroke="midnightblue" d="M709.595,-404.324C724.533,-395.585 750.451,-381.998 771.141,-371.977"/>
<polygon fill="midnightblue" stroke="midnightblue" points="772.697,-375.113 780.222,-367.655 769.688,-368.793 772.697,-375.113"/>
</g>
<!-- Node9 -->
<g id="node9" class="node"><title>Node9</title>
<polygon fill="white" stroke="#bfbfbf" points="988,-112.5 988,-131.5 1028,-131.5 1028,-112.5 988,-112.5"/>
<text text-anchor="middle" x="1008" y="-119.5" font-family="Helvetica,sans-Serif" font-size="10.00">limits</text>
</g>
<!-- Node8&#45;&gt;Node9 -->
<g id="edge10" class="edge"><title>Node8&#45;&gt;Node9</title>
<path fill="none" stroke="midnightblue" d="M1046.55,-174.403C1039.8,-165.403 1029.03,-151.041 1020.59,-139.782"/>
<polygon fill="midnightblue" stroke="midnightblue" points="1023.24,-137.481 1014.44,-131.581 1017.64,-141.681 1023.24,-137.481"/>
</g>
<!-- Node10 -->
<g id="node10" class="node"><title>Node10</title>
<g id="a_node10"><a xlink:href="Index_8inl.html" target="_top" xlink:title="Core/Index/Index.inl">
<polygon fill="white" stroke="black" points="1046,-112.5 1046,-131.5 1150,-131.5 1150,-112.5 1046,-112.5"/>
<text text-anchor="middle" x="1098" y="-119.5" font-family="Helvetica,sans-Serif" font-size="10.00">Core/Index/Index.inl</text>
</a>
</g>
</g>
<!-- Node8&#45;&gt;Node10 -->
<g id="edge11" class="edge"><title>Node8&#45;&gt;Node10</title>
<path fill="none" stroke="midnightblue" d="M1059.45,-174.403C1066.2,-165.403 1076.97,-151.041 1085.41,-139.782"/>
<polygon fill="midnightblue" stroke="midnightblue" points="1088.36,-141.681 1091.56,-131.581 1082.76,-137.481 1088.36,-141.681"/>
</g>
<!-- Node11&#45;&gt;Node8 -->
<g id="edge13" class="edge"><title>Node11&#45;&gt;Node8</title>
<path fill="none" stroke="midnightblue" d="M840.269,-236.467C884.34,-225.805 959.813,-207.545 1008,-195.886"/>
<polygon fill="midnightblue" stroke="midnightblue" points="1008.96,-199.257 1017.85,-193.503 1007.31,-192.453 1008.96,-199.257"/>
</g>
<!-- Node12 -->
<g id="node12" class="node"><title>Node12</title>
<g id="a_node12"><a xlink:href="RaCore_8hpp.html" target="_top" xlink:title="Core/RaCore.hpp">
<polygon fill="white" stroke="black" points="560.5,-112.5 560.5,-131.5 653.5,-131.5 653.5,-112.5 560.5,-112.5"/>
<text text-anchor="middle" x="607" y="-119.5" font-family="Helvetica,sans-Serif" font-size="10.00">Core/RaCore.hpp</text>
</a>
</g>
</g>
<!-- Node11&#45;&gt;Node12 -->
<g id="edge14" class="edge"><title>Node11&#45;&gt;Node12</title>
<path fill="none" stroke="midnightblue" d="M857.253,-236.427C910.549,-225.515 981.299,-203.673 950,-168 931.436,-146.841 756.116,-132.539 663.585,-126.399"/>
<polygon fill="midnightblue" stroke="midnightblue" points="663.747,-122.902 653.54,-125.743 663.291,-129.887 663.747,-122.902"/>
</g>
<!-- Node13 -->
<g id="node13" class="node"><title>Node13</title>
<g id="a_node13"><a xlink:href="CoreMacros_8hpp.html" target="_top" xlink:title="Core/CoreMacros.hpp">
<polygon fill="white" stroke="black" points="550.5,-56.5 550.5,-75.5 663.5,-75.5 663.5,-56.5 550.5,-56.5"/>
<text text-anchor="middle" x="607" y="-63.5" font-family="Helvetica,sans-Serif" font-size="10.00">Core/CoreMacros.hpp</text>
</a>
</g>
</g>
<!-- Node12&#45;&gt;Node13 -->
<g id="edge15" class="edge"><title>Node12&#45;&gt;Node13</title>
<path fill="none" stroke="midnightblue" d="M607,-112.083C607,-105.006 607,-94.8611 607,-85.9865"/>
<polygon fill="midnightblue" stroke="midnightblue" points="610.5,-85.751 607,-75.7511 603.5,-85.7511 610.5,-85.751"/>
</g>
<!-- Node14 -->
<g id="node14" class="node"><title>Node14</title>
<polygon fill="white" stroke="#bfbfbf" points="451.5,-0.5 451.5,-19.5 500.5,-19.5 500.5,-0.5 451.5,-0.5"/>
<text text-anchor="middle" x="476" y="-7.5" font-family="Helvetica,sans-Serif" font-size="10.00">cassert</text>
</g>
<!-- Node13&#45;&gt;Node14 -->
<g id="edge16" class="edge"><title>Node13&#45;&gt;Node14</title>
<path fill="none" stroke="midnightblue" d="M586.243,-56.4435C564.684,-47.5566 530.737,-33.5632 506.206,-23.4514"/>
<polygon fill="midnightblue" stroke="midnightblue" points="507.239,-20.0917 496.66,-19.5164 504.572,-26.5634 507.239,-20.0917"/>
</g>
<!-- Node15 -->
<g id="node15" class="node"><title>Node15</title>
<polygon fill="white" stroke="#bfbfbf" points="518.5,-0.5 518.5,-19.5 561.5,-19.5 561.5,-0.5 518.5,-0.5"/>
<text text-anchor="middle" x="540" y="-7.5" font-family="Helvetica,sans-Serif" font-size="10.00">cstdio</text>
</g>
<!-- Node13&#45;&gt;Node15 -->
<g id="edge17" class="edge"><title>Node13&#45;&gt;Node15</title>
<path fill="none" stroke="midnightblue" d="M596.235,-56.324C586.234,-48.2631 571.113,-36.0765 559.07,-26.3695"/>
<polygon fill="midnightblue" stroke="midnightblue" points="560.943,-23.3841 550.961,-19.8339 556.55,-28.8343 560.943,-23.3841"/>
</g>
<!-- Node16 -->
<g id="node16" class="node"><title>Node16</title>
<polygon fill="white" stroke="#bfbfbf" points="580,-0.5 580,-19.5 634,-19.5 634,-0.5 580,-0.5"/>
<text text-anchor="middle" x="607" y="-7.5" font-family="Helvetica,sans-Serif" font-size="10.00">iostream</text>
</g>
<!-- Node13&#45;&gt;Node16 -->
<g id="edge18" class="edge"><title>Node13&#45;&gt;Node16</title>
<path fill="none" stroke="midnightblue" d="M607,-56.083C607,-49.0059 607,-38.8611 607,-29.9865"/>
<polygon fill="midnightblue" stroke="midnightblue" points="610.5,-29.751 607,-19.7511 603.5,-29.7511 610.5,-29.751"/>
</g>
<!-- Node17 -->
<g id="node17" class="node"><title>Node17</title>
<polygon fill="white" stroke="#bfbfbf" points="652,-0.5 652,-19.5 704,-19.5 704,-0.5 652,-0.5"/>
<text text-anchor="middle" x="678" y="-7.5" font-family="Helvetica,sans-Serif" font-size="10.00">sstream</text>
</g>
<!-- Node13&#45;&gt;Node17 -->
<g id="edge19" class="edge"><title>Node13&#45;&gt;Node17</title>
<path fill="none" stroke="midnightblue" d="M618.407,-56.324C629.109,-48.1849 645.341,-35.8395 658.163,-26.0874"/>
<polygon fill="midnightblue" stroke="midnightblue" points="660.544,-28.6734 666.385,-19.8339 656.307,-23.1018 660.544,-28.6734"/>
</g>
<!-- Node18 -->
<g id="node18" class="node"><title>Node18</title>
<polygon fill="white" stroke="#bfbfbf" points="722,-0.5 722,-19.5 766,-19.5 766,-0.5 722,-0.5"/>
<text text-anchor="middle" x="744" y="-7.5" font-family="Helvetica,sans-Serif" font-size="10.00">thread</text>
</g>
<!-- Node13&#45;&gt;Node18 -->
<g id="edge20" class="edge"><title>Node13&#45;&gt;Node18</title>
<path fill="none" stroke="midnightblue" d="M628.708,-56.4435C651.355,-47.5171 687.072,-33.4387 712.752,-23.3168"/>
<polygon fill="midnightblue" stroke="midnightblue" points="714.374,-26.4397 722.394,-19.5164 711.807,-19.9273 714.374,-26.4397"/>
</g>
<!-- Node19&#45;&gt;Node7 -->
<g id="edge23" class="edge"><title>Node19&#45;&gt;Node7</title>
<path fill="none" stroke="midnightblue" d="M790.678,-367.516C775.748,-376.27 749.549,-390.007 728.707,-400.096"/>
<polygon fill="midnightblue" stroke="midnightblue" points="727.095,-396.987 719.568,-404.444 730.102,-403.308 727.095,-396.987"/>
</g>
<!-- Node20 -->
<g id="node20" class="node"><title>Node20</title>
<g id="a_node20"><a xlink:href="Face_8hpp.html" target="_top" xlink:title="Core/Mesh/DCEL/Face.hpp">
<polygon fill="white" stroke="black" points="742,-292.5 742,-311.5 880,-311.5 880,-292.5 742,-292.5"/>
<text text-anchor="middle" x="811" y="-299.5" font-family="Helvetica,sans-Serif" font-size="10.00">Core/Mesh/DCEL/Face.hpp</text>
</a>
</g>
</g>
<!-- Node19&#45;&gt;Node20 -->
<g id="edge24" class="edge"><title>Node19&#45;&gt;Node20</title>
<path fill="none" stroke="midnightblue" d="M803.486,-348.083C804.679,-340.927 806.394,-330.635 807.885,-321.691"/>
<polygon fill="midnightblue" stroke="midnightblue" points="811.35,-322.19 809.541,-311.751 804.445,-321.04 811.35,-322.19"/>
</g>
<!-- Node22 -->
<g id="node22" class="node"><title>Node22</title>
<g id="a_node22"><a xlink:href="Vertex_8hpp.html" target="_top" xlink:title="Core/Mesh/DCEL/Vertex.hpp">
<polygon fill="white" stroke="black" points="524.5,-292.5 524.5,-311.5 669.5,-311.5 669.5,-292.5 524.5,-292.5"/>
<text text-anchor="middle" x="597" y="-299.5" font-family="Helvetica,sans-Serif" font-size="10.00">Core/Mesh/DCEL/Vertex.hpp</text>
</a>
</g>
</g>
<!-- Node19&#45;&gt;Node22 -->
<g id="edge31" class="edge"><title>Node19&#45;&gt;Node22</title>
<path fill="none" stroke="midnightblue" d="M769.517,-348.444C734.28,-339.162 677.896,-324.309 639.241,-314.127"/>
<polygon fill="midnightblue" stroke="midnightblue" points="639.893,-310.679 629.331,-311.516 638.109,-317.448 639.893,-310.679"/>
</g>
<!-- Node20&#45;&gt;Node3 -->
<g id="edge27" class="edge"><title>Node20&#45;&gt;Node3</title>
<path fill="none" stroke="midnightblue" d="M741.852,-294.053C656.232,-285.444 505.631,-270.28 366.174,-256.118"/>
<polygon fill="midnightblue" stroke="midnightblue" points="366.456,-252.629 356.154,-255.1 365.749,-259.593 366.456,-252.629"/>
</g>
<!-- Node20&#45;&gt;Node8 -->
<g id="edge25" class="edge"><title>Node20&#45;&gt;Node8</title>
<path fill="none" stroke="midnightblue" d="M825.659,-292.392C851.961,-277.002 906.261,-245.49 926,-236 956.814,-221.185 993.114,-206.911 1019,-197.251"/>
<polygon fill="midnightblue" stroke="midnightblue" points="1020.55,-200.408 1028.72,-193.658 1018.12,-193.843 1020.55,-200.408"/>
</g>
<!-- Node20&#45;&gt;Node11 -->
<g id="edge26" class="edge"><title>Node20&#45;&gt;Node11</title>
<path fill="none" stroke="midnightblue" d="M810.009,-292.083C809.214,-284.927 808.071,-274.635 807.077,-265.691"/>
<polygon fill="midnightblue" stroke="midnightblue" points="810.555,-265.303 805.972,-255.751 803.598,-266.076 810.555,-265.303"/>
</g>
<!-- Node21 -->
<g id="node21" class="node"><title>Node21</title>
<g id="a_node21"><a xlink:href="Face_8inl.html" target="_top" xlink:title="Core/Mesh/DCEL/Face.inl">
<polygon fill="white" stroke="black" points="935,-236.5 935,-255.5 1067,-255.5 1067,-236.5 935,-236.5"/>
<text text-anchor="middle" x="1001" y="-243.5" font-family="Helvetica,sans-Serif" font-size="10.00">Core/Mesh/DCEL/Face.inl</text>
</a>
</g>
</g>
<!-- Node20&#45;&gt;Node21 -->
<g id="edge28" class="edge"><title>Node20&#45;&gt;Node21</title>
<path fill="none" stroke="midnightblue" d="M836.017,-292.444C866.64,-283.162 918.734,-268.309 956.267,-258.127"/>
<polygon fill="midnightblue" stroke="midnightblue" points="957.21,-261.498 965.955,-255.516 955.389,-254.739 957.21,-261.498"/>
</g>
<!-- Node21&#45;&gt;Node7 -->
<g id="edge30" class="edge"><title>Node21&#45;&gt;Node7</title>
<path fill="none" stroke="midnightblue" d="M995.472,-255.632C980.67,-278.004 937.724,-338.187 886,-368 855.96,-385.315 819.548,-395.983 786.799,-402.55"/>
<polygon fill="midnightblue" stroke="midnightblue" points="785.934,-399.151 776.764,-404.459 787.242,-406.028 785.934,-399.151"/>
</g>
<!-- Node21&#45;&gt;Node20 -->
<g id="edge29" class="edge"><title>Node21&#45;&gt;Node20</title>
<path fill="none" stroke="midnightblue" d="M976.115,-255.516C945.554,-264.782 893.47,-279.633 855.895,-289.829"/>
<polygon fill="midnightblue" stroke="midnightblue" points="854.939,-286.462 846.195,-292.444 856.761,-293.22 854.939,-286.462"/>
</g>
<!-- Node22&#45;&gt;Node3 -->
<g id="edge48" class="edge"><title>Node22&#45;&gt;Node3</title>
<path fill="none" stroke="midnightblue" d="M546.295,-292.444C489.653,-282.885 398.004,-267.419 337.621,-257.23"/>
<polygon fill="midnightblue" stroke="midnightblue" points="337.911,-253.729 327.468,-255.516 336.746,-260.632 337.911,-253.729"/>
</g>
<!-- Node22&#45;&gt;Node8 -->
<g id="edge32" class="edge"><title>Node22&#45;&gt;Node8</title>
<path fill="none" stroke="midnightblue" d="M613.493,-292.385C630.81,-283.336 658.828,-268.685 683,-256 699.9,-247.131 702.874,-241.976 721,-236 727.304,-233.922 892.653,-208.991 987.573,-194.773"/>
<polygon fill="midnightblue" stroke="midnightblue" points="988.286,-198.206 997.657,-193.263 987.249,-191.283 988.286,-198.206"/>
</g>
<!-- Node22&#45;&gt;Node11 -->
<g id="edge33" class="edge"><title>Node22&#45;&gt;Node11</title>
<path fill="none" stroke="midnightblue" d="M629.958,-292.444C665.787,-283.142 723.163,-268.246 762.391,-258.062"/>
<polygon fill="midnightblue" stroke="midnightblue" points="763.396,-261.417 772.196,-255.516 761.637,-254.642 763.396,-261.417"/>
</g>
<!-- Node23 -->
<g id="node23" class="node"><title>Node23</title>
<g id="a_node23"><a xlink:href="LinearAlgebra_8hpp.html" target="_top" xlink:title="Core/Math/LinearAlgebra.hpp">
<polygon fill="white" stroke="black" points="531.5,-236.5 531.5,-255.5 674.5,-255.5 674.5,-236.5 531.5,-236.5"/>
<text text-anchor="middle" x="603" y="-243.5" font-family="Helvetica,sans-Serif" font-size="10.00">Core/Math/LinearAlgebra.hpp</text>
</a>
</g>
</g>
<!-- Node22&#45;&gt;Node23 -->
<g id="edge34" class="edge"><title>Node22&#45;&gt;Node23</title>
<path fill="none" stroke="midnightblue" d="M597.991,-292.083C598.786,-284.927 599.929,-274.635 600.923,-265.691"/>
<polygon fill="midnightblue" stroke="midnightblue" points="604.402,-266.076 602.028,-255.751 597.445,-265.303 604.402,-266.076"/>
</g>
<!-- Node34 -->
<g id="node34" class="node"><title>Node34</title>
<g id="a_node34"><a xlink:href="Vertex_8inl.html" target="_top" xlink:title="Core/Mesh/DCEL/Vertex.inl">
<polygon fill="white" stroke="black" points="374.5,-236.5 374.5,-255.5 513.5,-255.5 513.5,-236.5 374.5,-236.5"/>
<text text-anchor="middle" x="444" y="-243.5" font-family="Helvetica,sans-Serif" font-size="10.00">Core/Mesh/DCEL/Vertex.inl</text>
</a>
</g>
</g>
<!-- Node22&#45;&gt;Node34 -->
<g id="edge49" class="edge"><title>Node22&#45;&gt;Node34</title>
<path fill="none" stroke="midnightblue" d="M567.668,-292.444C540.177,-283.438 499.591,-269.189 472.409,-259.049"/>
<polygon fill="midnightblue" stroke="midnightblue" points="473.642,-255.773 463.05,-255.516 471.17,-262.322 473.642,-255.773"/>
</g>
<!-- Node23&#45;&gt;Node12 -->
<g id="edge35" class="edge"><title>Node23&#45;&gt;Node12</title>
<path fill="none" stroke="midnightblue" d="M600.08,-236.438C595.607,-222.206 587.977,-192.793 592,-168 593.468,-158.957 596.492,-149.275 599.444,-141.218"/>
<polygon fill="midnightblue" stroke="midnightblue" points="602.763,-142.339 603.144,-131.751 596.244,-139.791 602.763,-142.339"/>
</g>
<!-- Node24 -->
<g id="node24" class="node"><title>Node24</title>
<polygon fill="white" stroke="#bfbfbf" points="601.5,-174.5 601.5,-193.5 666.5,-193.5 666.5,-174.5 601.5,-174.5"/>
<text text-anchor="middle" x="634" y="-181.5" font-family="Helvetica,sans-Serif" font-size="10.00">Eigen/Core</text>
</g>
<!-- Node23&#45;&gt;Node24 -->
<g id="edge36" class="edge"><title>Node23&#45;&gt;Node24</title>
<path fill="none" stroke="midnightblue" d="M607.442,-236.403C611.953,-227.671 619.074,-213.889 624.807,-202.794"/>
<polygon fill="midnightblue" stroke="midnightblue" points="628.086,-204.071 629.567,-193.581 621.867,-200.858 628.086,-204.071"/>
</g>
<!-- Node25 -->
<g id="node25" class="node"><title>Node25</title>
<polygon fill="white" stroke="#bfbfbf" points="684.5,-174.5 684.5,-193.5 771.5,-193.5 771.5,-174.5 684.5,-174.5"/>
<text text-anchor="middle" x="728" y="-181.5" font-family="Helvetica,sans-Serif" font-size="10.00">Eigen/Geometry</text>
</g>
<!-- Node23&#45;&gt;Node25 -->
<g id="edge37" class="edge"><title>Node23&#45;&gt;Node25</title>
<path fill="none" stroke="midnightblue" d="M620.909,-236.403C641.887,-226.334 676.85,-209.552 701.093,-197.915"/>
<polygon fill="midnightblue" stroke="midnightblue" points="702.623,-201.063 710.124,-193.581 699.594,-194.753 702.623,-201.063"/>
</g>
<!-- Node26 -->
<g id="node26" class="node"><title>Node26</title>
<polygon fill="white" stroke="#bfbfbf" points="789.5,-174.5 789.5,-193.5 864.5,-193.5 864.5,-174.5 789.5,-174.5"/>
<text text-anchor="middle" x="827" y="-181.5" font-family="Helvetica,sans-Serif" font-size="10.00">Eigen/Sparse</text>
</g>
<!-- Node23&#45;&gt;Node26 -->
<g id="edge38" class="edge"><title>Node23&#45;&gt;Node26</title>
<path fill="none" stroke="midnightblue" d="M639.104,-236.493C674.994,-227.878 731.535,-213.881 780,-200 783.783,-198.917 787.721,-197.739 791.638,-196.536"/>
<polygon fill="midnightblue" stroke="midnightblue" points="792.731,-199.861 801.227,-193.532 790.638,-193.181 792.731,-199.861"/>
</g>
<!-- Node27 -->
<g id="node27" class="node"><title>Node27</title>
<polygon fill="white" stroke="#bfbfbf" points="882.5,-174.5 882.5,-193.5 941.5,-193.5 941.5,-174.5 882.5,-174.5"/>
<text text-anchor="middle" x="912" y="-181.5" font-family="Helvetica,sans-Serif" font-size="10.00">functional</text>
</g>
<!-- Node23&#45;&gt;Node27 -->
<g id="edge39" class="edge"><title>Node23&#45;&gt;Node27</title>
<path fill="none" stroke="midnightblue" d="M674.623,-237.069C729.534,-230.029 806.864,-218.031 873,-200 876.15,-199.141 879.397,-198.121 882.61,-197.023"/>
<polygon fill="midnightblue" stroke="midnightblue" points="883.832,-200.303 892.017,-193.575 881.423,-193.73 883.832,-200.303"/>
</g>
<!-- Node28 -->
<g id="node28" class="node"><title>Node28</title>
<polygon fill="white" stroke="#bfbfbf" points="132.5,-169 132.5,-199 265.5,-199 265.5,-169 132.5,-169"/>
<text text-anchor="start" x="140.5" y="-187" font-family="Helvetica,sans-Serif" font-size="10.00">unsupported/Eigen/Aligned</text>
<text text-anchor="middle" x="199" y="-176" font-family="Helvetica,sans-Serif" font-size="10.00">Vector3</text>
</g>
<!-- Node23&#45;&gt;Node28 -->
<g id="edge40" class="edge"><title>Node23&#45;&gt;Node28</title>
<path fill="none" stroke="midnightblue" d="M531.248,-236.476C466.752,-228.518 369.207,-215.757 275.545,-200.206"/>
<polygon fill="midnightblue" stroke="midnightblue" points="276.058,-196.743 265.617,-198.544 274.902,-203.647 276.058,-196.743"/>
</g>
<!-- Node29 -->
<g id="node29" class="node"><title>Node29</title>
<g id="a_node29"><a xlink:href="Math_8hpp.html" target="_top" xlink:title="Core/Math/Math.hpp">
<polygon fill="white" stroke="black" points="439,-174.5 439,-193.5 545,-193.5 545,-174.5 439,-174.5"/>
<text text-anchor="middle" x="492" y="-181.5" font-family="Helvetica,sans-Serif" font-size="10.00">Core/Math/Math.hpp</text>
</a>
</g>
</g>
<!-- Node23&#45;&gt;Node29 -->
<g id="edge41" class="edge"><title>Node23&#45;&gt;Node29</title>
<path fill="none" stroke="midnightblue" d="M587.096,-236.403C568.715,-226.468 538.244,-209.997 516.755,-198.381"/>
<polygon fill="midnightblue" stroke="midnightblue" points="518.335,-195.257 507.874,-193.581 515.007,-201.415 518.335,-195.257"/>
</g>
<!-- Node33 -->
<g id="node33" class="node"><title>Node33</title>
<g id="a_node33"><a xlink:href="LinearAlgebra_8inl.html" target="_top" xlink:title="Core/Math/LinearAlgebra.inl">
<polygon fill="white" stroke="black" points="283.5,-174.5 283.5,-193.5 420.5,-193.5 420.5,-174.5 283.5,-174.5"/>
<text text-anchor="middle" x="352" y="-181.5" font-family="Helvetica,sans-Serif" font-size="10.00">Core/Math/LinearAlgebra.inl</text>
</a>
</g>
</g>
<!-- Node23&#45;&gt;Node33 -->
<g id="edge47" class="edge"><title>Node23&#45;&gt;Node33</title>
<path fill="none" stroke="midnightblue" d="M567.304,-236.467C522.7,-225.805 446.314,-207.545 397.54,-195.886"/>
<polygon fill="midnightblue" stroke="midnightblue" points="398.112,-192.424 387.572,-193.503 396.485,-199.232 398.112,-192.424"/>
</g>
<!-- Node29&#45;&gt;Node12 -->
<g id="edge42" class="edge"><title>Node29&#45;&gt;Node12</title>
<path fill="none" stroke="midnightblue" d="M508.477,-174.403C527.605,-164.423 559.373,-147.849 581.652,-136.225"/>
<polygon fill="midnightblue" stroke="midnightblue" points="583.307,-139.309 590.554,-131.581 580.069,-133.103 583.307,-139.309"/>
</g>
<!-- Node30 -->
<g id="node30" class="node"><title>Node30</title>
<polygon fill="white" stroke="#bfbfbf" points="306,-112.5 306,-131.5 362,-131.5 362,-112.5 306,-112.5"/>
<text text-anchor="middle" x="334" y="-119.5" font-family="Helvetica,sans-Serif" font-size="10.00">algorithm</text>
</g>
<!-- Node29&#45;&gt;Node30 -->
<g id="edge43" class="edge"><title>Node29&#45;&gt;Node30</title>
<path fill="none" stroke="midnightblue" d="M469.362,-174.403C442.26,-164.111 396.69,-146.806 365.996,-135.15"/>
<polygon fill="midnightblue" stroke="midnightblue" points="367.187,-131.859 356.596,-131.581 364.702,-138.403 367.187,-131.859"/>
</g>
<!-- Node31 -->
<g id="node31" class="node"><title>Node31</title>
<polygon fill="white" stroke="#bfbfbf" points="380,-112.5 380,-131.5 424,-131.5 424,-112.5 380,-112.5"/>
<text text-anchor="middle" x="402" y="-119.5" font-family="Helvetica,sans-Serif" font-size="10.00">cmath</text>
</g>
<!-- Node29&#45;&gt;Node31 -->
<g id="edge44" class="edge"><title>Node29&#45;&gt;Node31</title>
<path fill="none" stroke="midnightblue" d="M479.105,-174.403C464.536,-164.691 440.598,-148.732 423.255,-137.17"/>
<polygon fill="midnightblue" stroke="midnightblue" points="425.133,-134.215 414.871,-131.581 421.25,-140.04 425.133,-134.215"/>
</g>
<!-- Node32 -->
<g id="node32" class="node"><title>Node32</title>
<g id="a_node32"><a xlink:href="Math_8inl.html" target="_top" xlink:title="Core/Math/Math.inl">
<polygon fill="white" stroke="black" points="442,-112.5 442,-131.5 542,-131.5 542,-112.5 442,-112.5"/>
<text text-anchor="middle" x="492" y="-119.5" font-family="Helvetica,sans-Serif" font-size="10.00">Core/Math/Math.inl</text>
</a>
</g>
</g>
<!-- Node29&#45;&gt;Node32 -->
<g id="edge45" class="edge"><title>Node29&#45;&gt;Node32</title>
<path fill="none" stroke="midnightblue" d="M487.099,-174.403C485.268,-165.938 484.797,-152.728 485.685,-141.82"/>
<polygon fill="midnightblue" stroke="midnightblue" points="489.198,-141.966 487.103,-131.581 482.264,-141.006 489.198,-141.966"/>
</g>
<!-- Node32&#45;&gt;Node29 -->
<g id="edge46" class="edge"><title>Node32&#45;&gt;Node29</title>
<path fill="none" stroke="midnightblue" d="M496.897,-131.581C498.73,-140.04 499.203,-153.248 498.317,-164.16"/>
<polygon fill="midnightblue" stroke="midnightblue" points="494.803,-164.018 496.901,-174.403 501.737,-164.977 494.803,-164.018"/>
</g>
<!-- Node34&#45;&gt;Node7 -->
<g id="edge51" class="edge"><title>Node34&#45;&gt;Node7</title>
<path fill="none" stroke="midnightblue" d="M452.175,-255.706C464.832,-268.89 490.295,-294.258 515,-312 566.544,-349.017 633.061,-382.59 670.043,-400.152"/>
<polygon fill="midnightblue" stroke="midnightblue" points="668.679,-403.378 679.218,-404.467 671.659,-397.044 668.679,-403.378"/>
</g>
<!-- Node34&#45;&gt;Node22 -->
<g id="edge50" class="edge"><title>Node34&#45;&gt;Node22</title>
<path fill="none" stroke="midnightblue" d="M473.21,-255.516C500.662,-264.506 541.248,-278.754 568.47,-288.906"/>
<polygon fill="midnightblue" stroke="midnightblue" points="567.254,-292.188 577.845,-292.444 569.725,-285.638 567.254,-292.188"/>
</g>
<!-- Node35&#45;&gt;Node1 -->
<g id="edge53" class="edge"><title>Node35&#45;&gt;Node1</title>
<path fill="none" stroke="midnightblue" d="M592.381,-559.252C593.4,-566.969 593.85,-576.877 593.731,-586.529"/>
<polygon fill="midnightblue" stroke="midnightblue" points="590.224,-586.673 593.379,-596.787 597.22,-586.913 590.224,-586.673"/>
</g>
<!-- Node35&#45;&gt;Node7 -->
<g id="edge54" class="edge"><title>Node35&#45;&gt;Node7</title>
<path fill="none" stroke="midnightblue" d="M599.303,-528.813C620.095,-504.836 662.056,-456.449 683.964,-431.186"/>
<polygon fill="midnightblue" stroke="midnightblue" points="686.658,-433.422 690.565,-423.574 681.369,-428.836 686.658,-433.422"/>
</g>
</g>
</svg>
