<?xml version="1.0" encoding="UTF-8" standalone="no"?>
<!DOCTYPE svg PUBLIC "-//W3C//DTD SVG 1.1//EN"
 "http://www.w3.org/Graphics/SVG/1.1/DTD/svg11.dtd">
<!-- Generated by graphviz version 2.36.0 (20140111.2315)
 -->
<!-- Title: /home/travis/build/STORM&#45;IRIT/Radium&#45;Engine/src/Core/Mesh/DCEL/Face.cpp Pages: 1 -->
<svg width="1158pt" height="622pt"
 viewBox="0.00 0.00 1158.00 622.00" xmlns="http://www.w3.org/2000/svg" xmlns:xlink="http://www.w3.org/1999/xlink">
<g id="graph0" class="graph" transform="scale(1 1) rotate(0) translate(4 618)">
<title>/home/travis/build/STORM&#45;IRIT/Radium&#45;Engine/src/Core/Mesh/DCEL/Face.cpp</title>
<polygon fill="white" stroke="none" points="-4,4 -4,-618 1154,-618 1154,4 -4,4"/>
<!-- Node1 -->
<g id="node1" class="node"><title>Node1</title>
<polygon fill="#bfbfbf" stroke="black" points="500,-572.5 500,-613.5 658,-613.5 658,-572.5 500,-572.5"/>
<text text-anchor="start" x="508" y="-601.5" font-family="Helvetica,sans-Serif" font-size="10.00">/home/travis/build</text>
<text text-anchor="start" x="508" y="-590.5" font-family="Helvetica,sans-Serif" font-size="10.00">/STORM&#45;IRIT/Radium&#45;Engine</text>
<text text-anchor="middle" x="579" y="-579.5" font-family="Helvetica,sans-Serif" font-size="10.00">/src/Core/Mesh/DCEL/Face.cpp</text>
</g>
<!-- Node2 -->
<g id="node2" class="node"><title>Node2</title>
<g id="a_node2"><a xlink:href="Face_8hpp.html" target="_top" xlink:title="Core/Mesh/DCEL/Face.hpp">
<polygon fill="white" stroke="black" points="688,-516.5 688,-535.5 826,-535.5 826,-516.5 688,-516.5"/>
<text text-anchor="middle" x="757" y="-523.5" font-family="Helvetica,sans-Serif" font-size="10.00">Core/Mesh/DCEL/Face.hpp</text>
</a>
</g>
</g>
<!-- Node1&#45;&gt;Node2 -->
<g id="edge1" class="edge"><title>Node1&#45;&gt;Node2</title>
<path fill="none" stroke="midnightblue" d="M632.406,-572.498C662.058,-561.67 698.022,-548.537 723.674,-539.17"/>
<polygon fill="midnightblue" stroke="midnightblue" points="725.113,-542.37 733.305,-535.652 722.712,-535.795 725.113,-542.37"/>
</g>
<!-- Node18 -->
<g id="node18" class="node"><title>Node18</title>
<g id="a_node18"><a xlink:href="DCEL_2HalfEdge_8hpp.html" target="_top" xlink:title="Core/Mesh/DCEL/HalfEdge.hpp">
<polygon fill="white" stroke="black" points="667.5,-404.5 667.5,-423.5 824.5,-423.5 824.5,-404.5 667.5,-404.5"/>
<text text-anchor="middle" x="746" y="-411.5" font-family="Helvetica,sans-Serif" font-size="10.00">Core/Mesh/DCEL/HalfEdge.hpp</text>
</a>
</g>
</g>
<!-- Node1&#45;&gt;Node18 -->
<g id="edge47" class="edge"><title>Node1&#45;&gt;Node18</title>
<path fill="none" stroke="midnightblue" d="M591.723,-572.179C609.756,-544.989 644.725,-495.464 682,-460 694.353,-448.247 709.98,-437.2 722.7,-428.993"/>
<polygon fill="midnightblue" stroke="midnightblue" points="724.756,-431.834 731.36,-423.549 721.031,-425.908 724.756,-431.834"/>
</g>
<!-- Node3 -->
<g id="node3" class="node"><title>Node3</title>
<g id="a_node3"><a xlink:href="Index_8hpp.html" target="_top" xlink:title="Core/Index/Index.hpp">
<polygon fill="white" stroke="black" points="998,-174.5 998,-193.5 1108,-193.5 1108,-174.5 998,-174.5"/>
<text text-anchor="middle" x="1053" y="-181.5" font-family="Helvetica,sans-Serif" font-size="10.00">Core/Index/Index.hpp</text>
</a>
</g>
</g>
<!-- Node2&#45;&gt;Node3 -->
<g id="edge2" class="edge"><title>Node2&#45;&gt;Node3</title>
<path fill="none" stroke="midnightblue" d="M826.399,-520.245C870.435,-514.942 927.483,-503.724 973,-480 1010.36,-460.527 1042,-457.131 1042,-415 1042,-415 1042,-415 1042,-301 1042,-266.562 1046.86,-226.629 1050.12,-203.738"/>
<polygon fill="midnightblue" stroke="midnightblue" points="1053.61,-204.109 1051.61,-193.704 1046.68,-203.085 1053.61,-204.109"/>
</g>
<!-- Node6 -->
<g id="node6" class="node"><title>Node6</title>
<g id="a_node6"><a xlink:href="IndexedObject_8hpp.html" target="_top" xlink:title="Core/Index/IndexedObject.hpp">
<polygon fill="white" stroke="black" points="752.5,-236.5 752.5,-255.5 901.5,-255.5 901.5,-236.5 752.5,-236.5"/>
<text text-anchor="middle" x="827" y="-243.5" font-family="Helvetica,sans-Serif" font-size="10.00">Core/Index/IndexedObject.hpp</text>
</a>
</g>
</g>
<!-- Node2&#45;&gt;Node6 -->
<g id="edge5" class="edge"><title>Node2&#45;&gt;Node6</title>
<path fill="none" stroke="midnightblue" d="M826.035,-519.992C892.498,-510.964 983,-485.692 983,-415 983,-415 983,-415 983,-357 983,-302.816 919.365,-272.974 873.38,-258.483"/>
<polygon fill="midnightblue" stroke="midnightblue" points="874.159,-255.063 863.575,-255.538 872.145,-261.767 874.159,-255.063"/>
</g>
<!-- Node14 -->
<g id="node14" class="node"><title>Node14</title>
<g id="a_node14"><a xlink:href="Definition_8hpp.html" target="_top" xlink:title="Core/Mesh/DCEL/Definition.hpp">
<polygon fill="white" stroke="black" points="220,-236.5 220,-255.5 378,-255.5 378,-236.5 220,-236.5"/>
<text text-anchor="middle" x="299" y="-243.5" font-family="Helvetica,sans-Serif" font-size="10.00">Core/Mesh/DCEL/Definition.hpp</text>
</a>
</g>
</g>
<!-- Node2&#45;&gt;Node14 -->
<g id="edge14" class="edge"><title>Node2&#45;&gt;Node14</title>
<path fill="none" stroke="midnightblue" d="M703.034,-516.451C617.159,-501.303 459,-466.426 459,-415 459,-415 459,-415 459,-357 459,-302.241 394.575,-272.685 347.487,-258.395"/>
<polygon fill="midnightblue" stroke="midnightblue" points="348.31,-254.99 337.732,-255.574 346.366,-261.714 348.31,-254.99"/>
</g>
<!-- Node17 -->
<g id="node17" class="node"><title>Node17</title>
<g id="a_node17"><a xlink:href="Face_8inl.html" target="_top" xlink:title="Core/Mesh/DCEL/Face.inl">
<polygon fill="white" stroke="black" points="691,-460.5 691,-479.5 823,-479.5 823,-460.5 691,-460.5"/>
<text text-anchor="middle" x="757" y="-467.5" font-family="Helvetica,sans-Serif" font-size="10.00">Core/Mesh/DCEL/Face.inl</text>
</a>
</g>
</g>
<!-- Node2&#45;&gt;Node17 -->
<g id="edge17" class="edge"><title>Node2&#45;&gt;Node17</title>
<path fill="none" stroke="midnightblue" d="M751.834,-516.083C750.324,-508.927 749.894,-498.635 750.542,-489.691"/>
<polygon fill="midnightblue" stroke="midnightblue" points="754.015,-490.126 751.869,-479.751 747.077,-489.2 754.015,-490.126"/>
</g>
<!-- Node4 -->
<g id="node4" class="node"><title>Node4</title>
<polygon fill="white" stroke="#bfbfbf" points="988,-112.5 988,-131.5 1028,-131.5 1028,-112.5 988,-112.5"/>
<text text-anchor="middle" x="1008" y="-119.5" font-family="Helvetica,sans-Serif" font-size="10.00">limits</text>
</g>
<!-- Node3&#45;&gt;Node4 -->
<g id="edge3" class="edge"><title>Node3&#45;&gt;Node4</title>
<path fill="none" stroke="midnightblue" d="M1046.55,-174.403C1039.8,-165.403 1029.03,-151.041 1020.59,-139.782"/>
<polygon fill="midnightblue" stroke="midnightblue" points="1023.24,-137.481 1014.44,-131.581 1017.64,-141.681 1023.24,-137.481"/>
</g>
<!-- Node5 -->
<g id="node5" class="node"><title>Node5</title>
<g id="a_node5"><a xlink:href="Index_8inl.html" target="_top" xlink:title="Core/Index/Index.inl">
<polygon fill="white" stroke="black" points="1046,-112.5 1046,-131.5 1150,-131.5 1150,-112.5 1046,-112.5"/>
<text text-anchor="middle" x="1098" y="-119.5" font-family="Helvetica,sans-Serif" font-size="10.00">Core/Index/Index.inl</text>
</a>
</g>
</g>
<!-- Node3&#45;&gt;Node5 -->
<g id="edge4" class="edge"><title>Node3&#45;&gt;Node5</title>
<path fill="none" stroke="midnightblue" d="M1059.45,-174.403C1066.2,-165.403 1076.97,-151.041 1085.41,-139.782"/>
<polygon fill="midnightblue" stroke="midnightblue" points="1088.36,-141.681 1091.56,-131.581 1082.76,-137.481 1088.36,-141.681"/>
</g>
<!-- Node6&#45;&gt;Node3 -->
<g id="edge6" class="edge"><title>Node6&#45;&gt;Node3</title>
<path fill="none" stroke="midnightblue" d="M859.38,-236.403C899.238,-225.822 967.019,-207.827 1010.89,-196.18"/>
<polygon fill="midnightblue" stroke="midnightblue" points="1011.91,-199.529 1020.68,-193.581 1010.12,-192.764 1011.91,-199.529"/>
</g>
<!-- Node7 -->
<g id="node7" class="node"><title>Node7</title>
<g id="a_node7"><a xlink:href="RaCore_8hpp.html" target="_top" xlink:title="Core/RaCore.hpp">
<polygon fill="white" stroke="black" points="578.5,-112.5 578.5,-131.5 671.5,-131.5 671.5,-112.5 578.5,-112.5"/>
<text text-anchor="middle" x="625" y="-119.5" font-family="Helvetica,sans-Serif" font-size="10.00">Core/RaCore.hpp</text>
</a>
</g>
</g>
<!-- Node6&#45;&gt;Node7 -->
<g id="edge7" class="edge"><title>Node6&#45;&gt;Node7</title>
<path fill="none" stroke="midnightblue" d="M892.233,-236.47C914.269,-230.123 936.648,-219.103 950,-200 958.148,-188.343 959.342,-178.724 950,-168 915.88,-128.83 765.404,-122.632 681.693,-122.307"/>
<polygon fill="midnightblue" stroke="midnightblue" points="681.584,-118.806 671.58,-122.294 681.575,-125.806 681.584,-118.806"/>
</g>
<!-- Node8 -->
<g id="node8" class="node"><title>Node8</title>
<g id="a_node8"><a xlink:href="CoreMacros_8hpp.html" target="_top" xlink:title="Core/CoreMacros.hpp">
<polygon fill="white" stroke="black" points="568.5,-56.5 568.5,-75.5 681.5,-75.5 681.5,-56.5 568.5,-56.5"/>
<text text-anchor="middle" x="625" y="-63.5" font-family="Helvetica,sans-Serif" font-size="10.00">Core/CoreMacros.hpp</text>
</a>
</g>
</g>
<!-- Node7&#45;&gt;Node8 -->
<g id="edge8" class="edge"><title>Node7&#45;&gt;Node8</title>
<path fill="none" stroke="midnightblue" d="M625,-112.083C625,-105.006 625,-94.8611 625,-85.9865"/>
<polygon fill="midnightblue" stroke="midnightblue" points="628.5,-85.751 625,-75.7511 621.5,-85.7511 628.5,-85.751"/>
</g>
<!-- Node9 -->
<g id="node9" class="node"><title>Node9</title>
<polygon fill="white" stroke="#bfbfbf" points="469.5,-0.5 469.5,-19.5 518.5,-19.5 518.5,-0.5 469.5,-0.5"/>
<text text-anchor="middle" x="494" y="-7.5" font-family="Helvetica,sans-Serif" font-size="10.00">cassert</text>
</g>
<!-- Node8&#45;&gt;Node9 -->
<g id="edge9" class="edge"><title>Node8&#45;&gt;Node9</title>
<path fill="none" stroke="midnightblue" d="M604.243,-56.4435C582.684,-47.5566 548.737,-33.5632 524.206,-23.4514"/>
<polygon fill="midnightblue" stroke="midnightblue" points="525.239,-20.0917 514.66,-19.5164 522.572,-26.5634 525.239,-20.0917"/>
</g>
<!-- Node10 -->
<g id="node10" class="node"><title>Node10</title>
<polygon fill="white" stroke="#bfbfbf" points="536.5,-0.5 536.5,-19.5 579.5,-19.5 579.5,-0.5 536.5,-0.5"/>
<text text-anchor="middle" x="558" y="-7.5" font-family="Helvetica,sans-Serif" font-size="10.00">cstdio</text>
</g>
<!-- Node8&#45;&gt;Node10 -->
<g id="edge10" class="edge"><title>Node8&#45;&gt;Node10</title>
<path fill="none" stroke="midnightblue" d="M614.235,-56.324C604.234,-48.2631 589.113,-36.0765 577.07,-26.3695"/>
<polygon fill="midnightblue" stroke="midnightblue" points="578.943,-23.3841 568.961,-19.8339 574.55,-28.8343 578.943,-23.3841"/>
</g>
<!-- Node11 -->
<g id="node11" class="node"><title>Node11</title>
<polygon fill="white" stroke="#bfbfbf" points="598,-0.5 598,-19.5 652,-19.5 652,-0.5 598,-0.5"/>
<text text-anchor="middle" x="625" y="-7.5" font-family="Helvetica,sans-Serif" font-size="10.00">iostream</text>
</g>
<!-- Node8&#45;&gt;Node11 -->
<g id="edge11" class="edge"><title>Node8&#45;&gt;Node11</title>
<path fill="none" stroke="midnightblue" d="M625,-56.083C625,-49.0059 625,-38.8611 625,-29.9865"/>
<polygon fill="midnightblue" stroke="midnightblue" points="628.5,-29.751 625,-19.7511 621.5,-29.7511 628.5,-29.751"/>
</g>
<!-- Node12 -->
<g id="node12" class="node"><title>Node12</title>
<polygon fill="white" stroke="#bfbfbf" points="670,-0.5 670,-19.5 722,-19.5 722,-0.5 670,-0.5"/>
<text text-anchor="middle" x="696" y="-7.5" font-family="Helvetica,sans-Serif" font-size="10.00">sstream</text>
</g>
<!-- Node8&#45;&gt;Node12 -->
<g id="edge12" class="edge"><title>Node8&#45;&gt;Node12</title>
<path fill="none" stroke="midnightblue" d="M636.407,-56.324C647.109,-48.1849 663.341,-35.8395 676.163,-26.0874"/>
<polygon fill="midnightblue" stroke="midnightblue" points="678.544,-28.6734 684.385,-19.8339 674.307,-23.1018 678.544,-28.6734"/>
</g>
<!-- Node13 -->
<g id="node13" class="node"><title>Node13</title>
<polygon fill="white" stroke="#bfbfbf" points="740,-0.5 740,-19.5 784,-19.5 784,-0.5 740,-0.5"/>
<text text-anchor="middle" x="762" y="-7.5" font-family="Helvetica,sans-Serif" font-size="10.00">thread</text>
</g>
<!-- Node8&#45;&gt;Node13 -->
<g id="edge13" class="edge"><title>Node8&#45;&gt;Node13</title>
<path fill="none" stroke="midnightblue" d="M646.708,-56.4435C669.355,-47.5171 705.072,-33.4387 730.752,-23.3168"/>
<polygon fill="midnightblue" stroke="midnightblue" points="732.374,-26.4397 740.394,-19.5164 729.807,-19.9273 732.374,-26.4397"/>
</g>
<!-- Node15 -->
<g id="node15" class="node"><title>Node15</title>
<polygon fill="white" stroke="#bfbfbf" points="0,-174.5 0,-193.5 52,-193.5 52,-174.5 0,-174.5"/>
<text text-anchor="middle" x="26" y="-181.5" font-family="Helvetica,sans-Serif" font-size="10.00">memory</text>
</g>
<!-- Node14&#45;&gt;Node15 -->
<g id="edge15" class="edge"><title>Node14&#45;&gt;Node15</title>
<path fill="none" stroke="midnightblue" d="M233.17,-236.497C184.863,-229.31 118.018,-217.381 61,-200 58.5101,-199.241 55.9581,-198.361 53.422,-197.414"/>
<polygon fill="midnightblue" stroke="midnightblue" points="54.4676,-194.062 43.885,-193.553 51.8409,-200.55 54.4676,-194.062"/>
</g>
<!-- Node16 -->
<g id="node16" class="node"><title>Node16</title>
<polygon fill="white" stroke="#bfbfbf" points="70,-174.5 70,-193.5 114,-193.5 114,-174.5 70,-174.5"/>
<text text-anchor="middle" x="92" y="-181.5" font-family="Helvetica,sans-Serif" font-size="10.00">vector</text>
</g>
<!-- Node14&#45;&gt;Node16 -->
<g id="edge16" class="edge"><title>Node14&#45;&gt;Node16</title>
<path fill="none" stroke="midnightblue" d="M255.593,-236.444C219.516,-228.732 167.135,-216.135 123,-200 121.147,-199.323 119.256,-198.57 117.369,-197.774"/>
<polygon fill="midnightblue" stroke="midnightblue" points="118.695,-194.532 108.145,-193.567 115.791,-200.901 118.695,-194.532"/>
</g>
<!-- Node17&#45;&gt;Node2 -->
<g id="edge18" class="edge"><title>Node17&#45;&gt;Node2</title>
<path fill="none" stroke="midnightblue" d="M762.131,-479.751C763.657,-486.858 764.104,-497.136 763.472,-506.101"/>
<polygon fill="midnightblue" stroke="midnightblue" points="759.993,-505.713 762.166,-516.083 766.934,-506.622 759.993,-505.713"/>
</g>
<!-- Node17&#45;&gt;Node18 -->
<g id="edge19" class="edge"><title>Node17&#45;&gt;Node18</title>
<path fill="none" stroke="midnightblue" d="M755.184,-460.083C753.726,-452.927 751.629,-442.635 749.807,-433.691"/>
<polygon fill="midnightblue" stroke="midnightblue" points="753.208,-432.851 747.783,-423.751 746.349,-434.248 753.208,-432.851"/>
</g>
<!-- Node18&#45;&gt;Node3 -->
<g id="edge20" class="edge"><title>Node18&#45;&gt;Node3</title>
<path fill="none" stroke="midnightblue" d="M751.023,-404.2C758.921,-390.895 775.288,-365.37 794,-348 868.104,-279.211 975.167,-222.616 1025.23,-198.101"/>
<polygon fill="midnightblue" stroke="midnightblue" points="1026.98,-201.141 1034.46,-193.632 1023.93,-194.841 1026.98,-201.141"/>
</g>
<!-- Node18&#45;&gt;Node6 -->
<g id="edge21" class="edge"><title>Node18&#45;&gt;Node6</title>
<path fill="none" stroke="midnightblue" d="M747.02,-404.286C748.732,-391.522 752.828,-367.178 761,-348 774.681,-315.893 798.51,-282.797 813.483,-263.599"/>
<polygon fill="midnightblue" stroke="midnightblue" points="816.373,-265.589 819.855,-255.583 810.893,-261.233 816.373,-265.589"/>
</g>
<!-- Node18&#45;&gt;Node14 -->
<g id="edge22" class="edge"><title>Node18&#45;&gt;Node14</title>
<path fill="none" stroke="midnightblue" d="M716.133,-404.496C688.81,-396.344 647.513,-383.074 613,-368 548.119,-339.662 538.874,-317.946 473,-292 434.422,-276.805 389.012,-265.26 354.256,-257.67"/>
<polygon fill="midnightblue" stroke="midnightblue" points="354.803,-254.208 344.292,-255.538 353.338,-261.053 354.803,-254.208"/>
</g>
<!-- Node19 -->
<g id="node19" class="node"><title>Node19</title>
<g id="a_node19"><a xlink:href="DCEL_2HalfEdge_8inl.html" target="_top" xlink:title="Core/Mesh/DCEL/HalfEdge.inl">
<polygon fill="white" stroke="black" points="803.5,-348.5 803.5,-367.5 954.5,-367.5 954.5,-348.5 803.5,-348.5"/>
<text text-anchor="middle" x="879" y="-355.5" font-family="Helvetica,sans-Serif" font-size="10.00">Core/Mesh/DCEL/HalfEdge.inl</text>
</a>
</g>
</g>
<!-- Node18&#45;&gt;Node19 -->
<g id="edge23" class="edge"><title>Node18&#45;&gt;Node19</title>
<path fill="none" stroke="midnightblue" d="M761.985,-404.444C782.102,-395.478 816.765,-381.314 843.244,-371.183"/>
<polygon fill="midnightblue" stroke="midnightblue" points="844.828,-374.326 852.944,-367.516 842.353,-367.778 844.828,-374.326"/>
</g>
<!-- Node19&#45;&gt;Node2 -->
<g id="edge25" class="edge"><title>Node19&#45;&gt;Node2</title>
<path fill="none" stroke="midnightblue" d="M877.638,-367.598C873.884,-388.884 861.632,-444.85 832,-480 820.358,-493.809 803.344,-504.501 788.462,-511.991"/>
<polygon fill="midnightblue" stroke="midnightblue" points="786.601,-509 779.069,-516.451 789.604,-515.323 786.601,-509"/>
</g>
<!-- Node19&#45;&gt;Node18 -->
<g id="edge24" class="edge"><title>Node19&#45;&gt;Node18</title>
<path fill="none" stroke="midnightblue" d="M863.104,-367.516C842.943,-376.506 808.072,-390.754 781.524,-400.906"/>
<polygon fill="midnightblue" stroke="midnightblue" points="780.28,-397.634 772.163,-404.444 782.755,-404.182 780.28,-397.634"/>
</g>
<!-- Node20 -->
<g id="node20" class="node"><title>Node20</title>
<g id="a_node20"><a xlink:href="Vertex_8hpp.html" target="_top" xlink:title="Core/Mesh/DCEL/Vertex.hpp">
<polygon fill="white" stroke="black" points="563.5,-292.5 563.5,-311.5 708.5,-311.5 708.5,-292.5 563.5,-292.5"/>
<text text-anchor="middle" x="636" y="-299.5" font-family="Helvetica,sans-Serif" font-size="10.00">Core/Mesh/DCEL/Vertex.hpp</text>
</a>
</g>
</g>
<!-- Node19&#45;&gt;Node20 -->
<g id="edge26" class="edge"><title>Node19&#45;&gt;Node20</title>
<path fill="none" stroke="midnightblue" d="M840.496,-348.444C798.194,-339.043 730.181,-323.929 684.327,-313.739"/>
<polygon fill="midnightblue" stroke="midnightblue" points="684.845,-310.269 674.324,-311.516 683.327,-317.102 684.845,-310.269"/>
</g>
<!-- Node20&#45;&gt;Node3 -->
<g id="edge27" class="edge"><title>Node20&#45;&gt;Node3</title>
<path fill="none" stroke="midnightblue" d="M648.677,-292.451C672.502,-276.528 723.329,-243.28 743,-236 754.394,-231.783 900.126,-208.726 987.658,-195.101"/>
<polygon fill="midnightblue" stroke="midnightblue" points="988.426,-198.523 997.769,-193.528 987.35,-191.607 988.426,-198.523"/>
</g>
<!-- Node20&#45;&gt;Node6 -->
<g id="edge28" class="edge"><title>Node20&#45;&gt;Node6</title>
<path fill="none" stroke="midnightblue" d="M666.265,-292.444C698.955,-283.201 751.182,-268.436 787.183,-258.257"/>
<polygon fill="midnightblue" stroke="midnightblue" points="788.206,-261.605 796.877,-255.516 786.302,-254.869 788.206,-261.605"/>
</g>
<!-- Node20&#45;&gt;Node14 -->
<g id="edge43" class="edge"><title>Node20&#45;&gt;Node14</title>
<path fill="none" stroke="midnightblue" d="M582.601,-292.444C522.703,-282.846 425.634,-267.292 362.055,-257.104"/>
<polygon fill="midnightblue" stroke="midnightblue" points="362.577,-253.643 352.149,-255.516 361.469,-260.555 362.577,-253.643"/>
</g>
<!-- Node21 -->
<g id="node21" class="node"><title>Node21</title>
<g id="a_node21"><a xlink:href="LinearAlgebra_8hpp.html" target="_top" xlink:title="Core/Math/LinearAlgebra.hpp">
<polygon fill="white" stroke="black" points="553.5,-236.5 553.5,-255.5 696.5,-255.5 696.5,-236.5 553.5,-236.5"/>
<text text-anchor="middle" x="625" y="-243.5" font-family="Helvetica,sans-Serif" font-size="10.00">Core/Math/LinearAlgebra.hpp</text>
</a>
</g>
</g>
<!-- Node20&#45;&gt;Node21 -->
<g id="edge29" class="edge"><title>Node20&#45;&gt;Node21</title>
<path fill="none" stroke="midnightblue" d="M634.184,-292.083C632.726,-284.927 630.629,-274.635 628.807,-265.691"/>
<polygon fill="midnightblue" stroke="midnightblue" points="632.208,-264.851 626.783,-255.751 625.349,-266.248 632.208,-264.851"/>
</g>
<!-- Node32 -->
<g id="node32" class="node"><title>Node32</title>
<g id="a_node32"><a xlink:href="Vertex_8inl.html" target="_top" xlink:title="Core/Mesh/DCEL/Vertex.inl">
<polygon fill="white" stroke="black" points="396.5,-236.5 396.5,-255.5 535.5,-255.5 535.5,-236.5 396.5,-236.5"/>
<text text-anchor="middle" x="466" y="-243.5" font-family="Helvetica,sans-Serif" font-size="10.00">Core/Mesh/DCEL/Vertex.inl</text>
</a>
</g>
</g>
<!-- Node20&#45;&gt;Node32 -->
<g id="edge44" class="edge"><title>Node20&#45;&gt;Node32</title>
<path fill="none" stroke="midnightblue" d="M603.974,-292.444C573.382,-283.359 527.785,-268.939 497.406,-258.783"/>
<polygon fill="midnightblue" stroke="midnightblue" points="498.325,-255.399 487.731,-255.516 496.086,-262.032 498.325,-255.399"/>
</g>
<!-- Node21&#45;&gt;Node7 -->
<g id="edge30" class="edge"><title>Node21&#45;&gt;Node7</title>
<path fill="none" stroke="midnightblue" d="M625,-236.226C625,-216.53 625,-168.437 625,-141.7"/>
<polygon fill="midnightblue" stroke="midnightblue" points="628.5,-141.694 625,-131.694 621.5,-141.694 628.5,-141.694"/>
</g>
<!-- Node22 -->
<g id="node22" class="node"><title>Node22</title>
<polygon fill="white" stroke="#bfbfbf" points="256.5,-174.5 256.5,-193.5 321.5,-193.5 321.5,-174.5 256.5,-174.5"/>
<text text-anchor="middle" x="289" y="-181.5" font-family="Helvetica,sans-Serif" font-size="10.00">Eigen/Core</text>
</g>
<!-- Node21&#45;&gt;Node22 -->
<g id="edge31" class="edge"><title>Node21&#45;&gt;Node22</title>
<path fill="none" stroke="midnightblue" d="M559.006,-236.493C485.688,-226.765 372.092,-210.795 330,-200 326.593,-199.126 323.074,-198.076 319.595,-196.943"/>
<polygon fill="midnightblue" stroke="midnightblue" points="320.621,-193.594 310.026,-193.604 318.315,-200.203 320.621,-193.594"/>
</g>
<!-- Node23 -->
<g id="node23" class="node"><title>Node23</title>
<polygon fill="white" stroke="#bfbfbf" points="339.5,-174.5 339.5,-193.5 426.5,-193.5 426.5,-174.5 339.5,-174.5"/>
<text text-anchor="middle" x="383" y="-181.5" font-family="Helvetica,sans-Serif" font-size="10.00">Eigen/Geometry</text>
</g>
<!-- Node21&#45;&gt;Node23 -->
<g id="edge32" class="edge"><title>Node21&#45;&gt;Node23</title>
<path fill="none" stroke="midnightblue" d="M586.654,-236.49C548.182,-227.818 487.297,-213.727 435,-200 430.587,-198.842 425.976,-197.583 421.403,-196.304"/>
<polygon fill="midnightblue" stroke="midnightblue" points="422.116,-192.868 411.54,-193.501 420.203,-199.601 422.116,-192.868"/>
</g>
<!-- Node24 -->
<g id="node24" class="node"><title>Node24</title>
<polygon fill="white" stroke="#bfbfbf" points="444.5,-174.5 444.5,-193.5 519.5,-193.5 519.5,-174.5 444.5,-174.5"/>
<text text-anchor="middle" x="482" y="-181.5" font-family="Helvetica,sans-Serif" font-size="10.00">Eigen/Sparse</text>
</g>
<!-- Node21&#45;&gt;Node24 -->
<g id="edge33" class="edge"><title>Node21&#45;&gt;Node24</title>
<path fill="none" stroke="midnightblue" d="M604.512,-236.403C580.194,-226.2 539.451,-209.105 511.683,-197.454"/>
<polygon fill="midnightblue" stroke="midnightblue" points="513.026,-194.222 502.45,-193.581 510.317,-200.677 513.026,-194.222"/>
</g>
<!-- Node25 -->
<g id="node25" class="node"><title>Node25</title>
<polygon fill="white" stroke="#bfbfbf" points="537.5,-174.5 537.5,-193.5 596.5,-193.5 596.5,-174.5 537.5,-174.5"/>
<text text-anchor="middle" x="567" y="-181.5" font-family="Helvetica,sans-Serif" font-size="10.00">functional</text>
</g>
<!-- Node21&#45;&gt;Node25 -->
<g id="edge34" class="edge"><title>Node21&#45;&gt;Node25</title>
<path fill="none" stroke="midnightblue" d="M616.69,-236.403C607.732,-227.136 593.277,-212.183 582.261,-200.788"/>
<polygon fill="midnightblue" stroke="midnightblue" points="584.761,-198.338 575.295,-193.581 579.728,-203.203 584.761,-198.338"/>
</g>
<!-- Node26 -->
<g id="node26" class="node"><title>Node26</title>
<polygon fill="white" stroke="#bfbfbf" points="653.5,-169 653.5,-199 786.5,-199 786.5,-169 653.5,-169"/>
<text text-anchor="start" x="661.5" y="-187" font-family="Helvetica,sans-Serif" font-size="10.00">unsupported/Eigen/Aligned</text>
<text text-anchor="middle" x="720" y="-176" font-family="Helvetica,sans-Serif" font-size="10.00">Vector3</text>
</g>
<!-- Node21&#45;&gt;Node26 -->
<g id="edge35" class="edge"><title>Node21&#45;&gt;Node26</title>
<path fill="none" stroke="midnightblue" d="M638.611,-236.403C651.718,-228.125 672.008,-215.311 689.05,-204.547"/>
<polygon fill="midnightblue" stroke="midnightblue" points="691.024,-207.44 697.61,-199.141 687.286,-201.522 691.024,-207.44"/>
</g>
<!-- Node27 -->
<g id="node27" class="node"><title>Node27</title>
<g id="a_node27"><a xlink:href="Math_8hpp.html" target="_top" xlink:title="Core/Math/Math.hpp">
<polygon fill="white" stroke="black" points="132,-174.5 132,-193.5 238,-193.5 238,-174.5 132,-174.5"/>
<text text-anchor="middle" x="185" y="-181.5" font-family="Helvetica,sans-Serif" font-size="10.00">Core/Math/Math.hpp</text>
</a>
</g>
</g>
<!-- Node21&#45;&gt;Node27 -->
<g id="edge36" class="edge"><title>Node21&#45;&gt;Node27</title>
<path fill="none" stroke="midnightblue" d="M553.418,-236.944C452.23,-225.485 276.352,-205.278 247,-200 240.562,-198.842 233.795,-197.42 227.193,-195.918"/>
<polygon fill="midnightblue" stroke="midnightblue" points="227.562,-192.409 217.025,-193.516 225.953,-199.221 227.562,-192.409"/>
</g>
<!-- Node31 -->
<g id="node31" class="node"><title>Node31</title>
<g id="a_node31"><a xlink:href="LinearAlgebra_8inl.html" target="_top" xlink:title="Core/Math/LinearAlgebra.inl">
<polygon fill="white" stroke="black" points="804.5,-174.5 804.5,-193.5 941.5,-193.5 941.5,-174.5 804.5,-174.5"/>
<text text-anchor="middle" x="873" y="-181.5" font-family="Helvetica,sans-Serif" font-size="10.00">Core/Math/LinearAlgebra.inl</text>
</a>
</g>
</g>
<!-- Node21&#45;&gt;Node31 -->
<g id="edge42" class="edge"><title>Node21&#45;&gt;Node31</title>
<path fill="none" stroke="midnightblue" d="M660.269,-236.467C704.34,-225.805 779.813,-207.545 828.004,-195.886"/>
<polygon fill="midnightblue" stroke="midnightblue" points="828.956,-199.257 837.853,-193.503 827.31,-192.453 828.956,-199.257"/>
</g>
<!-- Node27&#45;&gt;Node7 -->
<g id="edge37" class="edge"><title>Node27&#45;&gt;Node7</title>
<path fill="none" stroke="midnightblue" d="M217.025,-174.484C226.615,-172.142 237.19,-169.764 247,-168 360.219,-147.639 494.228,-134.163 568.414,-127.621"/>
<polygon fill="midnightblue" stroke="midnightblue" points="568.818,-131.1 578.476,-126.744 568.21,-124.126 568.818,-131.1"/>
</g>
<!-- Node28 -->
<g id="node28" class="node"><title>Node28</title>
<polygon fill="white" stroke="#bfbfbf" points="205,-112.5 205,-131.5 261,-131.5 261,-112.5 205,-112.5"/>
<text text-anchor="middle" x="233" y="-119.5" font-family="Helvetica,sans-Serif" font-size="10.00">algorithm</text>
</g>
<!-- Node27&#45;&gt;Node28 -->
<g id="edge38" class="edge"><title>Node27&#45;&gt;Node28</title>
<path fill="none" stroke="midnightblue" d="M191.877,-174.403C199.149,-165.314 210.795,-150.756 219.841,-139.449"/>
<polygon fill="midnightblue" stroke="midnightblue" points="222.622,-141.576 226.136,-131.581 217.155,-137.203 222.622,-141.576"/>
</g>
<!-- Node29 -->
<g id="node29" class="node"><title>Node29</title>
<polygon fill="white" stroke="#bfbfbf" points="279,-112.5 279,-131.5 323,-131.5 323,-112.5 279,-112.5"/>
<text text-anchor="middle" x="301" y="-119.5" font-family="Helvetica,sans-Serif" font-size="10.00">cmath</text>
</g>
<!-- Node27&#45;&gt;Node29 -->
<g id="edge39" class="edge"><title>Node27&#45;&gt;Node29</title>
<path fill="none" stroke="midnightblue" d="M201.62,-174.403C220.915,-164.423 252.959,-147.849 275.431,-136.225"/>
<polygon fill="midnightblue" stroke="midnightblue" points="277.137,-139.284 284.411,-131.581 273.921,-133.066 277.137,-139.284"/>
</g>
<!-- Node30 -->
<g id="node30" class="node"><title>Node30</title>
<g id="a_node30"><a xlink:href="Math_8inl.html" target="_top" xlink:title="Core/Math/Math.inl">
<polygon fill="white" stroke="black" points="87,-112.5 87,-131.5 187,-131.5 187,-112.5 87,-112.5"/>
<text text-anchor="middle" x="137" y="-119.5" font-family="Helvetica,sans-Serif" font-size="10.00">Core/Math/Math.inl</text>
</a>
</g>
</g>
<!-- Node27&#45;&gt;Node30 -->
<g id="edge40" class="edge"><title>Node27&#45;&gt;Node30</title>
<path fill="none" stroke="midnightblue" d="M173.222,-174.403C164.166,-165.493 152.411,-151.325 144.531,-140.118"/>
<polygon fill="midnightblue" stroke="midnightblue" points="147.359,-138.048 138.967,-131.581 141.495,-141.87 147.359,-138.048"/>
</g>
<!-- Node30&#45;&gt;Node27 -->
<g id="edge41" class="edge"><title>Node30&#45;&gt;Node27</title>
<path fill="none" stroke="midnightblue" d="M148.762,-131.581C157.814,-140.485 169.57,-154.652 177.455,-165.862"/>
<polygon fill="midnightblue" stroke="midnightblue" points="174.63,-167.938 183.023,-174.403 180.494,-164.115 174.63,-167.938"/>
</g>
<!-- Node32&#45;&gt;Node18 -->
<g id="edge46" class="edge"><title>Node32&#45;&gt;Node18</title>
<path fill="none" stroke="midnightblue" d="M476.467,-255.549C492.592,-268.527 524.716,-293.631 554,-312 610.235,-347.274 680.045,-381.852 718.083,-399.972"/>
<polygon fill="midnightblue" stroke="midnightblue" points="716.95,-403.308 727.486,-404.424 719.946,-396.981 716.95,-403.308"/>
</g>
<!-- Node32&#45;&gt;Node20 -->
<g id="edge45" class="edge"><title>Node32&#45;&gt;Node20</title>
<path fill="none" stroke="midnightblue" d="M497.891,-255.516C528.439,-264.585 574.036,-279.004 604.46,-289.172"/>
<polygon fill="midnightblue" stroke="midnightblue" points="603.558,-292.562 614.152,-292.444 605.796,-285.929 603.558,-292.562"/>
</g>
</g>
</svg>
