<?xml version="1.0" encoding="UTF-8" standalone="no"?>
<!DOCTYPE svg PUBLIC "-//W3C//DTD SVG 1.1//EN"
 "http://www.w3.org/Graphics/SVG/1.1/DTD/svg11.dtd">
<!-- Generated by graphviz version 2.36.0 (20140111.2315)
 -->
<!-- Title: /home/travis/build/STORM&#45;IRIT/Radium&#45;Engine/src/Core/Mesh/DCEL/Face.inl Pages: 1 -->
<svg width="1169pt" height="510pt"
 viewBox="0.00 0.00 1169.00 510.00" xmlns="http://www.w3.org/2000/svg" xmlns:xlink="http://www.w3.org/1999/xlink">
<g id="graph0" class="graph" transform="scale(1 1) rotate(0) translate(4 506)">
<title>/home/travis/build/STORM&#45;IRIT/Radium&#45;Engine/src/Core/Mesh/DCEL/Face.inl</title>
<polygon fill="white" stroke="none" points="-4,4 -4,-506 1165,-506 1165,4 -4,4"/>
<!-- Node1 -->
<g id="node1" class="node"><title>Node1</title>
<polygon fill="#bfbfbf" stroke="black" points="143,-460.5 143,-501.5 295,-501.5 295,-460.5 143,-460.5"/>
<text text-anchor="start" x="151" y="-489.5" font-family="Helvetica,sans-Serif" font-size="10.00">/home/travis/build</text>
<text text-anchor="start" x="151" y="-478.5" font-family="Helvetica,sans-Serif" font-size="10.00">/STORM&#45;IRIT/Radium&#45;Engine</text>
<text text-anchor="middle" x="219" y="-467.5" font-family="Helvetica,sans-Serif" font-size="10.00">/src/Core/Mesh/DCEL/Face.inl</text>
</g>
<!-- Node2 -->
<g id="node2" class="node"><title>Node2</title>
<g id="a_node2"><a xlink:href="Face_8hpp.html" target="_top" xlink:title="Core/Mesh/DCEL/Face.hpp">
<polygon fill="white" stroke="black" points="157,-292.5 157,-311.5 295,-311.5 295,-292.5 157,-292.5"/>
<text text-anchor="middle" x="226" y="-299.5" font-family="Helvetica,sans-Serif" font-size="10.00">Core/Mesh/DCEL/Face.hpp</text>
</a>
</g>
</g>
<!-- Node1&#45;&gt;Node2 -->
<g id="edge1" class="edge"><title>Node1&#45;&gt;Node2</title>
<path fill="none" stroke="midnightblue" d="M215.343,-460.382C213.587,-426.082 216.395,-355.658 220.888,-321.883"/>
<polygon fill="midnightblue" stroke="midnightblue" points="224.412,-322.012 222.543,-311.584 217.501,-320.902 224.412,-322.012"/>
</g>
<!-- Node17 -->
<g id="node17" class="node"><title>Node17</title>
<g id="a_node17"><a xlink:href="DCEL_2HalfEdge_8hpp.html" target="_top" xlink:title="Core/Mesh/DCEL/HalfEdge.hpp">
<polygon fill="white" stroke="black" points="256.5,-404.5 256.5,-423.5 413.5,-423.5 413.5,-404.5 256.5,-404.5"/>
<text text-anchor="middle" x="335" y="-411.5" font-family="Helvetica,sans-Serif" font-size="10.00">Core/Mesh/DCEL/HalfEdge.hpp</text>
</a>
</g>
</g>
<!-- Node1&#45;&gt;Node17 -->
<g id="edge18" class="edge"><title>Node1&#45;&gt;Node17</title>
<path fill="none" stroke="midnightblue" d="M253.804,-460.498C272.102,-450.245 294.088,-437.925 310.564,-428.693"/>
<polygon fill="midnightblue" stroke="midnightblue" points="312.546,-431.594 319.559,-423.652 309.124,-425.488 312.546,-431.594"/>
</g>
<!-- Node2&#45;&gt;Node1 -->
<g id="edge17" class="edge"><title>Node2&#45;&gt;Node1</title>
<path fill="none" stroke="midnightblue" d="M228.778,-311.584C231.804,-336.39 229.623,-409.029 225.365,-450.354"/>
<polygon fill="midnightblue" stroke="midnightblue" points="221.878,-450.046 224.208,-460.382 228.832,-450.849 221.878,-450.046"/>
</g>
<!-- Node3 -->
<g id="node3" class="node"><title>Node3</title>
<g id="a_node3"><a xlink:href="Index_8hpp.html" target="_top" xlink:title="Core/Index/Index.hpp">
<polygon fill="white" stroke="black" points="53,-174.5 53,-193.5 163,-193.5 163,-174.5 53,-174.5"/>
<text text-anchor="middle" x="108" y="-181.5" font-family="Helvetica,sans-Serif" font-size="10.00">Core/Index/Index.hpp</text>
</a>
</g>
</g>
<!-- Node2&#45;&gt;Node3 -->
<g id="edge2" class="edge"><title>Node2&#45;&gt;Node3</title>
<path fill="none" stroke="midnightblue" d="M211.859,-292.345C198.712,-283.941 178.962,-270.375 164,-256 146.75,-239.427 130.195,-217.429 119.619,-202.335"/>
<polygon fill="midnightblue" stroke="midnightblue" points="122.4,-200.202 113.854,-193.94 116.63,-204.165 122.4,-200.202"/>
</g>
<!-- Node6 -->
<g id="node6" class="node"><title>Node6</title>
<g id="a_node6"><a xlink:href="IndexedObject_8hpp.html" target="_top" xlink:title="Core/Index/IndexedObject.hpp">
<polygon fill="white" stroke="black" points="173.5,-236.5 173.5,-255.5 322.5,-255.5 322.5,-236.5 173.5,-236.5"/>
<text text-anchor="middle" x="248" y="-243.5" font-family="Helvetica,sans-Serif" font-size="10.00">Core/Index/IndexedObject.hpp</text>
</a>
</g>
</g>
<!-- Node2&#45;&gt;Node6 -->
<g id="edge5" class="edge"><title>Node2&#45;&gt;Node6</title>
<path fill="none" stroke="midnightblue" d="M229.633,-292.083C232.612,-284.77 236.926,-274.181 240.625,-265.103"/>
<polygon fill="midnightblue" stroke="midnightblue" points="243.903,-266.333 244.435,-255.751 237.42,-263.691 243.903,-266.333"/>
</g>
<!-- Node14 -->
<g id="node14" class="node"><title>Node14</title>
<g id="a_node14"><a xlink:href="Definition_8hpp.html" target="_top" xlink:title="Core/Mesh/DCEL/Definition.hpp">
<polygon fill="white" stroke="black" points="559,-236.5 559,-255.5 717,-255.5 717,-236.5 559,-236.5"/>
<text text-anchor="middle" x="638" y="-243.5" font-family="Helvetica,sans-Serif" font-size="10.00">Core/Mesh/DCEL/Definition.hpp</text>
</a>
</g>
</g>
<!-- Node2&#45;&gt;Node14 -->
<g id="edge14" class="edge"><title>Node2&#45;&gt;Node14</title>
<path fill="none" stroke="midnightblue" d="M291.283,-292.444C365.114,-282.767 485.139,-267.035 562.823,-256.853"/>
<polygon fill="midnightblue" stroke="midnightblue" points="563.562,-260.286 573.023,-255.516 562.653,-253.346 563.562,-260.286"/>
</g>
<!-- Node4 -->
<g id="node4" class="node"><title>Node4</title>
<polygon fill="white" stroke="#bfbfbf" points="0,-112.5 0,-131.5 40,-131.5 40,-112.5 0,-112.5"/>
<text text-anchor="middle" x="20" y="-119.5" font-family="Helvetica,sans-Serif" font-size="10.00">limits</text>
</g>
<!-- Node3&#45;&gt;Node4 -->
<g id="edge3" class="edge"><title>Node3&#45;&gt;Node4</title>
<path fill="none" stroke="midnightblue" d="M95.3917,-174.403C81.2768,-164.78 58.1688,-149.024 41.2506,-137.489"/>
<polygon fill="midnightblue" stroke="midnightblue" points="42.8188,-134.322 32.5849,-131.581 38.8755,-140.106 42.8188,-134.322"/>
</g>
<!-- Node5 -->
<g id="node5" class="node"><title>Node5</title>
<g id="a_node5"><a xlink:href="Index_8inl.html" target="_top" xlink:title="Core/Index/Index.inl">
<polygon fill="white" stroke="black" points="58,-112.5 58,-131.5 162,-131.5 162,-112.5 58,-112.5"/>
<text text-anchor="middle" x="110" y="-119.5" font-family="Helvetica,sans-Serif" font-size="10.00">Core/Index/Index.inl</text>
</a>
</g>
</g>
<!-- Node3&#45;&gt;Node5 -->
<g id="edge4" class="edge"><title>Node3&#45;&gt;Node5</title>
<path fill="none" stroke="midnightblue" d="M108.287,-174.403C108.569,-165.938 109.009,-152.728 109.373,-141.82"/>
<polygon fill="midnightblue" stroke="midnightblue" points="112.879,-141.692 109.714,-131.581 105.883,-141.458 112.879,-141.692"/>
</g>
<!-- Node6&#45;&gt;Node3 -->
<g id="edge6" class="edge"><title>Node6&#45;&gt;Node3</title>
<path fill="none" stroke="midnightblue" d="M227.941,-236.403C204.238,-226.245 164.594,-209.255 137.417,-197.607"/>
<polygon fill="midnightblue" stroke="midnightblue" points="138.592,-194.303 128.021,-193.581 135.834,-200.737 138.592,-194.303"/>
</g>
<!-- Node7 -->
<g id="node7" class="node"><title>Node7</title>
<g id="a_node7"><a xlink:href="RaCore_8hpp.html" target="_top" xlink:title="Core/RaCore.hpp">
<polygon fill="white" stroke="black" points="182.5,-112.5 182.5,-131.5 275.5,-131.5 275.5,-112.5 182.5,-112.5"/>
<text text-anchor="middle" x="229" y="-119.5" font-family="Helvetica,sans-Serif" font-size="10.00">Core/RaCore.hpp</text>
</a>
</g>
</g>
<!-- Node6&#45;&gt;Node7 -->
<g id="edge7" class="edge"><title>Node6&#45;&gt;Node7</title>
<path fill="none" stroke="midnightblue" d="M238.98,-236.34C230.928,-227.932 219.702,-214.363 215,-200 208.611,-180.485 214.645,-157.177 220.66,-141.355"/>
<polygon fill="midnightblue" stroke="midnightblue" points="224.052,-142.313 224.669,-131.736 217.591,-139.62 224.052,-142.313"/>
</g>
<!-- Node8 -->
<g id="node8" class="node"><title>Node8</title>
<g id="a_node8"><a xlink:href="CoreMacros_8hpp.html" target="_top" xlink:title="Core/CoreMacros.hpp">
<polygon fill="white" stroke="black" points="172.5,-56.5 172.5,-75.5 285.5,-75.5 285.5,-56.5 172.5,-56.5"/>
<text text-anchor="middle" x="229" y="-63.5" font-family="Helvetica,sans-Serif" font-size="10.00">Core/CoreMacros.hpp</text>
</a>
</g>
</g>
<!-- Node7&#45;&gt;Node8 -->
<g id="edge8" class="edge"><title>Node7&#45;&gt;Node8</title>
<path fill="none" stroke="midnightblue" d="M229,-112.083C229,-105.006 229,-94.8611 229,-85.9865"/>
<polygon fill="midnightblue" stroke="midnightblue" points="232.5,-85.751 229,-75.7511 225.5,-85.7511 232.5,-85.751"/>
</g>
<!-- Node9 -->
<g id="node9" class="node"><title>Node9</title>
<polygon fill="white" stroke="#bfbfbf" points="73.5,-0.5 73.5,-19.5 122.5,-19.5 122.5,-0.5 73.5,-0.5"/>
<text text-anchor="middle" x="98" y="-7.5" font-family="Helvetica,sans-Serif" font-size="10.00">cassert</text>
</g>
<!-- Node8&#45;&gt;Node9 -->
<g id="edge9" class="edge"><title>Node8&#45;&gt;Node9</title>
<path fill="none" stroke="midnightblue" d="M208.243,-56.4435C186.684,-47.5566 152.737,-33.5632 128.206,-23.4514"/>
<polygon fill="midnightblue" stroke="midnightblue" points="129.239,-20.0917 118.66,-19.5164 126.572,-26.5634 129.239,-20.0917"/>
</g>
<!-- Node10 -->
<g id="node10" class="node"><title>Node10</title>
<polygon fill="white" stroke="#bfbfbf" points="140.5,-0.5 140.5,-19.5 183.5,-19.5 183.5,-0.5 140.5,-0.5"/>
<text text-anchor="middle" x="162" y="-7.5" font-family="Helvetica,sans-Serif" font-size="10.00">cstdio</text>
</g>
<!-- Node8&#45;&gt;Node10 -->
<g id="edge10" class="edge"><title>Node8&#45;&gt;Node10</title>
<path fill="none" stroke="midnightblue" d="M218.235,-56.324C208.234,-48.2631 193.113,-36.0765 181.07,-26.3695"/>
<polygon fill="midnightblue" stroke="midnightblue" points="182.943,-23.3841 172.961,-19.8339 178.55,-28.8343 182.943,-23.3841"/>
</g>
<!-- Node11 -->
<g id="node11" class="node"><title>Node11</title>
<polygon fill="white" stroke="#bfbfbf" points="202,-0.5 202,-19.5 256,-19.5 256,-0.5 202,-0.5"/>
<text text-anchor="middle" x="229" y="-7.5" font-family="Helvetica,sans-Serif" font-size="10.00">iostream</text>
</g>
<!-- Node8&#45;&gt;Node11 -->
<g id="edge11" class="edge"><title>Node8&#45;&gt;Node11</title>
<path fill="none" stroke="midnightblue" d="M229,-56.083C229,-49.0059 229,-38.8611 229,-29.9865"/>
<polygon fill="midnightblue" stroke="midnightblue" points="232.5,-29.751 229,-19.7511 225.5,-29.7511 232.5,-29.751"/>
</g>
<!-- Node12 -->
<g id="node12" class="node"><title>Node12</title>
<polygon fill="white" stroke="#bfbfbf" points="274,-0.5 274,-19.5 326,-19.5 326,-0.5 274,-0.5"/>
<text text-anchor="middle" x="300" y="-7.5" font-family="Helvetica,sans-Serif" font-size="10.00">sstream</text>
</g>
<!-- Node8&#45;&gt;Node12 -->
<g id="edge12" class="edge"><title>Node8&#45;&gt;Node12</title>
<path fill="none" stroke="midnightblue" d="M240.407,-56.324C251.109,-48.1849 267.341,-35.8395 280.163,-26.0874"/>
<polygon fill="midnightblue" stroke="midnightblue" points="282.544,-28.6734 288.385,-19.8339 278.307,-23.1018 282.544,-28.6734"/>
</g>
<!-- Node13 -->
<g id="node13" class="node"><title>Node13</title>
<polygon fill="white" stroke="#bfbfbf" points="344,-0.5 344,-19.5 388,-19.5 388,-0.5 344,-0.5"/>
<text text-anchor="middle" x="366" y="-7.5" font-family="Helvetica,sans-Serif" font-size="10.00">thread</text>
</g>
<!-- Node8&#45;&gt;Node13 -->
<g id="edge13" class="edge"><title>Node8&#45;&gt;Node13</title>
<path fill="none" stroke="midnightblue" d="M250.708,-56.4435C273.355,-47.5171 309.072,-33.4387 334.752,-23.3168"/>
<polygon fill="midnightblue" stroke="midnightblue" points="336.374,-26.4397 344.394,-19.5164 333.807,-19.9273 336.374,-26.4397"/>
</g>
<!-- Node15 -->
<g id="node15" class="node"><title>Node15</title>
<polygon fill="white" stroke="#bfbfbf" points="1047,-174.5 1047,-193.5 1099,-193.5 1099,-174.5 1047,-174.5"/>
<text text-anchor="middle" x="1073" y="-181.5" font-family="Helvetica,sans-Serif" font-size="10.00">memory</text>
</g>
<!-- Node14&#45;&gt;Node15 -->
<g id="edge15" class="edge"><title>Node14&#45;&gt;Node15</title>
<path fill="none" stroke="midnightblue" d="M717.206,-236.645C829.13,-224.756 1021.75,-203.951 1037,-200 1039.98,-199.227 1043.05,-198.254 1046.06,-197.177"/>
<polygon fill="midnightblue" stroke="midnightblue" points="1047.38,-200.421 1055.4,-193.5 1044.81,-193.908 1047.38,-200.421"/>
</g>
<!-- Node16 -->
<g id="node16" class="node"><title>Node16</title>
<polygon fill="white" stroke="#bfbfbf" points="1117,-174.5 1117,-193.5 1161,-193.5 1161,-174.5 1117,-174.5"/>
<text text-anchor="middle" x="1139" y="-181.5" font-family="Helvetica,sans-Serif" font-size="10.00">vector</text>
</g>
<!-- Node14&#45;&gt;Node16 -->
<g id="edge16" class="edge"><title>Node14&#45;&gt;Node16</title>
<path fill="none" stroke="midnightblue" d="M717.151,-236.875C720.138,-236.578 723.096,-236.285 726,-236 895.713,-219.325 943.754,-245.866 1108,-200 1110.2,-199.386 1112.43,-198.621 1114.64,-197.765"/>
<polygon fill="midnightblue" stroke="midnightblue" points="1116.27,-200.872 1123.97,-193.602 1113.41,-194.479 1116.27,-200.872"/>
</g>
<!-- Node17&#45;&gt;Node3 -->
<g id="edge19" class="edge"><title>Node17&#45;&gt;Node3</title>
<path fill="none" stroke="midnightblue" d="M303.954,-404.473C262.341,-391.447 188.979,-362.616 148,-312 122.025,-279.917 112.825,-230.797 109.636,-204.02"/>
<polygon fill="midnightblue" stroke="midnightblue" points="113.082,-203.318 108.58,-193.728 106.119,-204.033 113.082,-203.318"/>
</g>
<!-- Node17&#45;&gt;Node6 -->
<g id="edge20" class="edge"><title>Node17&#45;&gt;Node6</title>
<path fill="none" stroke="midnightblue" d="M362.679,-404.491C391.604,-394.002 430.869,-374.287 416,-348 389.068,-300.384 329.719,-272.744 289.283,-258.767"/>
<polygon fill="midnightblue" stroke="midnightblue" points="290.288,-255.413 279.695,-255.585 288.083,-262.057 290.288,-255.413"/>
</g>
<!-- Node17&#45;&gt;Node14 -->
<g id="edge21" class="edge"><title>Node17&#45;&gt;Node14</title>
<path fill="none" stroke="midnightblue" d="M412.557,-404.474C476.044,-393.501 563.907,-368.544 618,-312 629.85,-299.613 634.692,-280.369 636.663,-266.031"/>
<polygon fill="midnightblue" stroke="midnightblue" points="640.173,-266.111 637.708,-255.807 633.209,-265.4 640.173,-266.111"/>
</g>
<!-- Node18 -->
<g id="node18" class="node"><title>Node18</title>
<g id="a_node18"><a xlink:href="DCEL_2HalfEdge_8inl.html" target="_top" xlink:title="Core/Mesh/DCEL/HalfEdge.inl">
<polygon fill="white" stroke="black" points="256.5,-348.5 256.5,-367.5 407.5,-367.5 407.5,-348.5 256.5,-348.5"/>
<text text-anchor="middle" x="332" y="-355.5" font-family="Helvetica,sans-Serif" font-size="10.00">Core/Mesh/DCEL/HalfEdge.inl</text>
</a>
</g>
</g>
<!-- Node17&#45;&gt;Node18 -->
<g id="edge22" class="edge"><title>Node17&#45;&gt;Node18</title>
<path fill="none" stroke="midnightblue" d="M329.338,-404.083C327.452,-397.006 326.451,-386.861 326.576,-377.986"/>
<polygon fill="midnightblue" stroke="midnightblue" points="330.086,-377.988 327.355,-367.751 323.106,-377.457 330.086,-377.988"/>
</g>
<!-- Node18&#45;&gt;Node2 -->
<g id="edge24" class="edge"><title>Node18&#45;&gt;Node2</title>
<path fill="none" stroke="midnightblue" d="M314.969,-348.324C297.97,-339.664 271.624,-326.242 252.007,-316.249"/>
<polygon fill="midnightblue" stroke="midnightblue" points="253.488,-313.075 242.988,-311.655 250.31,-319.312 253.488,-313.075"/>
</g>
<!-- Node18&#45;&gt;Node17 -->
<g id="edge23" class="edge"><title>Node18&#45;&gt;Node17</title>
<path fill="none" stroke="midnightblue" d="M337.617,-367.751C339.538,-374.858 340.556,-385.136 340.422,-394.101"/>
<polygon fill="midnightblue" stroke="midnightblue" points="336.932,-393.848 339.671,-404.083 343.912,-394.374 336.932,-393.848"/>
</g>
<!-- Node19 -->
<g id="node19" class="node"><title>Node19</title>
<g id="a_node19"><a xlink:href="Vertex_8hpp.html" target="_top" xlink:title="Core/Mesh/DCEL/Vertex.hpp">
<polygon fill="white" stroke="black" points="464.5,-292.5 464.5,-311.5 609.5,-311.5 609.5,-292.5 464.5,-292.5"/>
<text text-anchor="middle" x="537" y="-299.5" font-family="Helvetica,sans-Serif" font-size="10.00">Core/Mesh/DCEL/Vertex.hpp</text>
</a>
</g>
</g>
<!-- Node18&#45;&gt;Node19 -->
<g id="edge25" class="edge"><title>Node18&#45;&gt;Node19</title>
<path fill="none" stroke="midnightblue" d="M364.483,-348.444C399.72,-339.162 456.104,-324.309 494.759,-314.127"/>
<polygon fill="midnightblue" stroke="midnightblue" points="495.891,-317.448 504.669,-311.516 494.107,-310.679 495.891,-317.448"/>
</g>
<!-- Node19&#45;&gt;Node3 -->
<g id="edge26" class="edge"><title>Node19&#45;&gt;Node3</title>
<path fill="none" stroke="midnightblue" d="M507.196,-292.419C477.03,-283.636 429.103,-269.411 388,-256 362.477,-247.673 356.793,-243.449 331,-236 273.889,-219.507 207.328,-204.865 161.891,-195.549"/>
<polygon fill="midnightblue" stroke="midnightblue" points="162.454,-192.092 151.957,-193.528 161.059,-198.951 162.454,-192.092"/>
</g>
<!-- Node19&#45;&gt;Node6 -->
<g id="edge27" class="edge"><title>Node19&#45;&gt;Node6</title>
<path fill="none" stroke="midnightblue" d="M491.207,-292.444C440.263,-282.925 357.966,-267.547 303.426,-257.356"/>
<polygon fill="midnightblue" stroke="midnightblue" points="304.051,-253.913 293.579,-255.516 302.766,-260.794 304.051,-253.913"/>
</g>
<!-- Node19&#45;&gt;Node14 -->
<g id="edge42" class="edge"><title>Node19&#45;&gt;Node14</title>
<path fill="none" stroke="midnightblue" d="M553.227,-292.324C569.351,-283.703 594.3,-270.364 612.964,-260.386"/>
<polygon fill="midnightblue" stroke="midnightblue" points="614.644,-263.456 621.813,-255.655 611.344,-257.283 614.644,-263.456"/>
</g>
<!-- Node20 -->
<g id="node20" class="node"><title>Node20</title>
<g id="a_node20"><a xlink:href="LinearAlgebra_8hpp.html" target="_top" xlink:title="Core/Math/LinearAlgebra.hpp">
<polygon fill="white" stroke="black" points="397.5,-236.5 397.5,-255.5 540.5,-255.5 540.5,-236.5 397.5,-236.5"/>
<text text-anchor="middle" x="469" y="-243.5" font-family="Helvetica,sans-Serif" font-size="10.00">Core/Math/LinearAlgebra.hpp</text>
</a>
</g>
</g>
<!-- Node19&#45;&gt;Node20 -->
<g id="edge28" class="edge"><title>Node19&#45;&gt;Node20</title>
<path fill="none" stroke="midnightblue" d="M526.075,-292.324C515.825,-284.185 500.279,-271.839 487.999,-262.087"/>
<polygon fill="midnightblue" stroke="midnightblue" points="490.132,-259.312 480.124,-255.834 485.779,-264.794 490.132,-259.312"/>
</g>
<!-- Node31 -->
<g id="node31" class="node"><title>Node31</title>
<g id="a_node31"><a xlink:href="Vertex_8inl.html" target="_top" xlink:title="Core/Mesh/DCEL/Vertex.inl">
<polygon fill="white" stroke="black" points="735.5,-236.5 735.5,-255.5 874.5,-255.5 874.5,-236.5 735.5,-236.5"/>
<text text-anchor="middle" x="805" y="-243.5" font-family="Helvetica,sans-Serif" font-size="10.00">Core/Mesh/DCEL/Vertex.inl</text>
</a>
</g>
</g>
<!-- Node19&#45;&gt;Node31 -->
<g id="edge43" class="edge"><title>Node19&#45;&gt;Node31</title>
<path fill="none" stroke="midnightblue" d="M574.377,-292.444C619.437,-282.944 695.412,-267.611 747.827,-257.42"/>
<polygon fill="midnightblue" stroke="midnightblue" points="748.501,-260.854 757.653,-255.516 747.17,-253.982 748.501,-260.854"/>
</g>
<!-- Node20&#45;&gt;Node7 -->
<g id="edge29" class="edge"><title>Node20&#45;&gt;Node7</title>
<path fill="none" stroke="midnightblue" d="M411.163,-236.484C349.707,-226.927 259.759,-211.286 248,-200 232.354,-184.983 228.768,-159.299 228.325,-141.757"/>
<polygon fill="midnightblue" stroke="midnightblue" points="231.826,-141.622 228.393,-131.599 224.826,-141.575 231.826,-141.622"/>
</g>
<!-- Node21 -->
<g id="node21" class="node"><title>Node21</title>
<polygon fill="white" stroke="#bfbfbf" points="257.5,-174.5 257.5,-193.5 322.5,-193.5 322.5,-174.5 257.5,-174.5"/>
<text text-anchor="middle" x="290" y="-181.5" font-family="Helvetica,sans-Serif" font-size="10.00">Eigen/Core</text>
</g>
<!-- Node20&#45;&gt;Node21 -->
<g id="edge30" class="edge"><title>Node20&#45;&gt;Node21</title>
<path fill="none" stroke="midnightblue" d="M441.933,-236.487C414.04,-227.641 369.344,-213.261 331,-200 328.247,-199.048 325.396,-198.043 322.539,-197.024"/>
<polygon fill="midnightblue" stroke="midnightblue" points="323.529,-193.66 312.934,-193.553 321.15,-200.243 323.529,-193.66"/>
</g>
<!-- Node22 -->
<g id="node22" class="node"><title>Node22</title>
<polygon fill="white" stroke="#bfbfbf" points="340.5,-174.5 340.5,-193.5 427.5,-193.5 427.5,-174.5 340.5,-174.5"/>
<text text-anchor="middle" x="384" y="-181.5" font-family="Helvetica,sans-Serif" font-size="10.00">Eigen/Geometry</text>
</g>
<!-- Node20&#45;&gt;Node22 -->
<g id="edge31" class="edge"><title>Node20&#45;&gt;Node22</title>
<path fill="none" stroke="midnightblue" d="M456.822,-236.403C443.188,-226.78 420.868,-211.024 404.526,-199.489"/>
<polygon fill="midnightblue" stroke="midnightblue" points="406.344,-196.488 396.156,-193.581 402.307,-202.207 406.344,-196.488"/>
</g>
<!-- Node23 -->
<g id="node23" class="node"><title>Node23</title>
<polygon fill="white" stroke="#bfbfbf" points="445.5,-174.5 445.5,-193.5 520.5,-193.5 520.5,-174.5 445.5,-174.5"/>
<text text-anchor="middle" x="483" y="-181.5" font-family="Helvetica,sans-Serif" font-size="10.00">Eigen/Sparse</text>
</g>
<!-- Node20&#45;&gt;Node23 -->
<g id="edge32" class="edge"><title>Node20&#45;&gt;Node23</title>
<path fill="none" stroke="midnightblue" d="M471.006,-236.403C473.002,-227.849 476.128,-214.45 478.689,-203.476"/>
<polygon fill="midnightblue" stroke="midnightblue" points="482.134,-204.114 480.998,-193.581 475.317,-202.524 482.134,-204.114"/>
</g>
<!-- Node24 -->
<g id="node24" class="node"><title>Node24</title>
<polygon fill="white" stroke="#bfbfbf" points="538.5,-174.5 538.5,-193.5 597.5,-193.5 597.5,-174.5 538.5,-174.5"/>
<text text-anchor="middle" x="568" y="-181.5" font-family="Helvetica,sans-Serif" font-size="10.00">functional</text>
</g>
<!-- Node20&#45;&gt;Node24 -->
<g id="edge33" class="edge"><title>Node20&#45;&gt;Node24</title>
<path fill="none" stroke="midnightblue" d="M483.184,-236.403C499.358,-226.601 526.026,-210.439 545.143,-198.853"/>
<polygon fill="midnightblue" stroke="midnightblue" points="547.104,-201.757 553.842,-193.581 543.476,-195.77 547.104,-201.757"/>
</g>
<!-- Node25 -->
<g id="node25" class="node"><title>Node25</title>
<polygon fill="white" stroke="#bfbfbf" points="740.5,-169 740.5,-199 873.5,-199 873.5,-169 740.5,-169"/>
<text text-anchor="start" x="748.5" y="-187" font-family="Helvetica,sans-Serif" font-size="10.00">unsupported/Eigen/Aligned</text>
<text text-anchor="middle" x="807" y="-176" font-family="Helvetica,sans-Serif" font-size="10.00">Vector3</text>
</g>
<!-- Node20&#45;&gt;Node25 -->
<g id="edge34" class="edge"><title>Node20&#45;&gt;Node25</title>
<path fill="none" stroke="midnightblue" d="M520.562,-236.449C573.252,-227.631 657.414,-213.326 730,-200 730.105,-199.981 730.209,-199.962 730.314,-199.942"/>
<polygon fill="midnightblue" stroke="midnightblue" points="731.048,-203.366 740.24,-198.097 729.768,-196.484 731.048,-203.366"/>
</g>
<!-- Node26 -->
<g id="node26" class="node"><title>Node26</title>
<g id="a_node26"><a xlink:href="Math_8hpp.html" target="_top" xlink:title="Core/Math/Math.hpp">
<polygon fill="white" stroke="black" points="616,-174.5 616,-193.5 722,-193.5 722,-174.5 616,-174.5"/>
<text text-anchor="middle" x="669" y="-181.5" font-family="Helvetica,sans-Serif" font-size="10.00">Core/Math/Math.hpp</text>
</a>
</g>
</g>
<!-- Node20&#45;&gt;Node26 -->
<g id="edge35" class="edge"><title>Node20&#45;&gt;Node26</title>
<path fill="none" stroke="midnightblue" d="M497.655,-236.403C532.556,-225.933 591.65,-208.205 630.5,-196.55"/>
<polygon fill="midnightblue" stroke="midnightblue" points="631.826,-199.807 640.398,-193.581 629.814,-193.102 631.826,-199.807"/>
</g>
<!-- Node30 -->
<g id="node30" class="node"><title>Node30</title>
<g id="a_node30"><a xlink:href="LinearAlgebra_8inl.html" target="_top" xlink:title="Core/Math/LinearAlgebra.inl">
<polygon fill="white" stroke="black" points="891.5,-174.5 891.5,-193.5 1028.5,-193.5 1028.5,-174.5 891.5,-174.5"/>
<text text-anchor="middle" x="960" y="-181.5" font-family="Helvetica,sans-Serif" font-size="10.00">Core/Math/LinearAlgebra.inl</text>
</a>
</g>
</g>
<!-- Node20&#45;&gt;Node30 -->
<g id="edge41" class="edge"><title>Node20&#45;&gt;Node30</title>
<path fill="none" stroke="midnightblue" d="M540.552,-237.039C543.745,-236.687 546.906,-236.34 550,-236 697.534,-219.805 735.224,-222.033 882,-200 890.719,-198.691 899.948,-197.1 908.889,-195.45"/>
<polygon fill="midnightblue" stroke="midnightblue" points="909.642,-198.87 918.818,-193.574 908.342,-191.992 909.642,-198.87"/>
</g>
<!-- Node26&#45;&gt;Node7 -->
<g id="edge36" class="edge"><title>Node26&#45;&gt;Node7</title>
<path fill="none" stroke="midnightblue" d="M636.451,-174.497C626.706,-172.155 615.962,-169.774 606,-168 493.197,-147.908 359.768,-134.354 285.73,-127.723"/>
<polygon fill="midnightblue" stroke="midnightblue" points="285.955,-124.229 275.685,-126.833 285.337,-131.202 285.955,-124.229"/>
</g>
<!-- Node27 -->
<g id="node27" class="node"><title>Node27</title>
<polygon fill="white" stroke="#bfbfbf" points="528,-112.5 528,-131.5 584,-131.5 584,-112.5 528,-112.5"/>
<text text-anchor="middle" x="556" y="-119.5" font-family="Helvetica,sans-Serif" font-size="10.00">algorithm</text>
</g>
<!-- Node26&#45;&gt;Node27 -->
<g id="edge37" class="edge"><title>Node26&#45;&gt;Node27</title>
<path fill="none" stroke="midnightblue" d="M652.81,-174.403C634.098,-164.468 603.077,-147.997 581.201,-136.381"/>
<polygon fill="midnightblue" stroke="midnightblue" points="582.634,-133.179 572.16,-131.581 579.351,-139.362 582.634,-133.179"/>
</g>
<!-- Node28 -->
<g id="node28" class="node"><title>Node28</title>
<polygon fill="white" stroke="#bfbfbf" points="602,-112.5 602,-131.5 646,-131.5 646,-112.5 602,-112.5"/>
<text text-anchor="middle" x="624" y="-119.5" font-family="Helvetica,sans-Serif" font-size="10.00">cmath</text>
</g>
<!-- Node26&#45;&gt;Node28 -->
<g id="edge38" class="edge"><title>Node26&#45;&gt;Node28</title>
<path fill="none" stroke="midnightblue" d="M662.553,-174.403C655.803,-165.403 645.031,-151.041 636.587,-139.782"/>
<polygon fill="midnightblue" stroke="midnightblue" points="639.235,-137.481 630.435,-131.581 633.635,-141.681 639.235,-137.481"/>
</g>
<!-- Node29 -->
<g id="node29" class="node"><title>Node29</title>
<g id="a_node29"><a xlink:href="Math_8inl.html" target="_top" xlink:title="Core/Math/Math.inl">
<polygon fill="white" stroke="black" points="664,-112.5 664,-131.5 764,-131.5 764,-112.5 664,-112.5"/>
<text text-anchor="middle" x="714" y="-119.5" font-family="Helvetica,sans-Serif" font-size="10.00">Core/Math/Math.inl</text>
</a>
</g>
</g>
<!-- Node26&#45;&gt;Node29 -->
<g id="edge39" class="edge"><title>Node26&#45;&gt;Node29</title>
<path fill="none" stroke="midnightblue" d="M670.547,-174.403C675.445,-165.225 686.125,-150.47 695.85,-139.117"/>
<polygon fill="midnightblue" stroke="midnightblue" points="698.555,-141.345 702.667,-131.581 693.364,-136.649 698.555,-141.345"/>
</g>
<!-- Node29&#45;&gt;Node26 -->
<g id="edge40" class="edge"><title>Node29&#45;&gt;Node26</title>
<path fill="none" stroke="midnightblue" d="M712.462,-131.581C707.57,-140.752 696.893,-155.506 687.166,-166.863"/>
<polygon fill="midnightblue" stroke="midnightblue" points="684.459,-164.639 680.348,-174.403 689.651,-169.334 684.459,-164.639"/>
</g>
<!-- Node31&#45;&gt;Node17 -->
<g id="edge45" class="edge"><title>Node31&#45;&gt;Node17</title>
<path fill="none" stroke="midnightblue" d="M791.386,-255.654C755.905,-277.817 657.086,-337.046 567,-368 518.12,-384.795 461.169,-395.958 415.925,-402.964"/>
<polygon fill="midnightblue" stroke="midnightblue" points="415.235,-399.529 405.87,-404.483 416.28,-406.45 415.235,-399.529"/>
</g>
<!-- Node31&#45;&gt;Node19 -->
<g id="edge44" class="edge"><title>Node31&#45;&gt;Node19</title>
<path fill="none" stroke="midnightblue" d="M767.813,-255.516C722.84,-264.999 646.875,-280.332 594.394,-290.537"/>
<polygon fill="midnightblue" stroke="midnightblue" points="593.706,-287.105 584.554,-292.444 595.037,-293.978 593.706,-287.105"/>
</g>
</g>
</svg>
