<?xml version="1.0" encoding="UTF-8" standalone="no"?>
<!DOCTYPE svg PUBLIC "-//W3C//DTD SVG 1.1//EN"
 "http://www.w3.org/Graphics/SVG/1.1/DTD/svg11.dtd">
<!-- Generated by graphviz version 2.36.0 (20140111.2315)
 -->
<!-- Title: /home/travis/build/STORM&#45;IRIT/Radium&#45;Engine/src/Core/Mesh/DCEL/Face.hpp Pages: 1 -->
<svg width="1126pt" height="566pt"
 viewBox="0.00 0.00 1126.00 566.00" xmlns="http://www.w3.org/2000/svg" xmlns:xlink="http://www.w3.org/1999/xlink">
<g id="graph0" class="graph" transform="scale(1 1) rotate(0) translate(4 562)">
<title>/home/travis/build/STORM&#45;IRIT/Radium&#45;Engine/src/Core/Mesh/DCEL/Face.hpp</title>
<polygon fill="white" stroke="none" points="-4,4 -4,-562 1122,-562 1122,4 -4,4"/>
<!-- Node1 -->
<g id="node1" class="node"><title>Node1</title>
<polygon fill="#bfbfbf" stroke="black" points="233,-516.5 233,-557.5 391,-557.5 391,-516.5 233,-516.5"/>
<text text-anchor="start" x="241" y="-545.5" font-family="Helvetica,sans-Serif" font-size="10.00">/home/travis/build</text>
<text text-anchor="start" x="241" y="-534.5" font-family="Helvetica,sans-Serif" font-size="10.00">/STORM&#45;IRIT/Radium&#45;Engine</text>
<text text-anchor="middle" x="312" y="-523.5" font-family="Helvetica,sans-Serif" font-size="10.00">/src/Core/Mesh/DCEL/Face.hpp</text>
</g>
<!-- Node2 -->
<g id="node2" class="node"><title>Node2</title>
<g id="a_node2"><a xlink:href="Index_8hpp.html" target="_top" xlink:title="Core/Index/Index.hpp">
<polygon fill="white" stroke="black" points="10,-174.5 10,-193.5 120,-193.5 120,-174.5 10,-174.5"/>
<text text-anchor="middle" x="65" y="-181.5" font-family="Helvetica,sans-Serif" font-size="10.00">Core/Index/Index.hpp</text>
</a>
</g>
</g>
<!-- Node1&#45;&gt;Node2 -->
<g id="edge1" class="edge"><title>Node1&#45;&gt;Node2</title>
<path fill="none" stroke="midnightblue" d="M232.828,-529.8C160.582,-519.302 65,-491.043 65,-415 65,-415 65,-415 65,-301 65,-266.716 65,-226.732 65,-203.79"/>
<polygon fill="midnightblue" stroke="midnightblue" points="68.5001,-203.731 65,-193.731 61.5001,-203.731 68.5001,-203.731"/>
</g>
<!-- Node5 -->
<g id="node5" class="node"><title>Node5</title>
<g id="a_node5"><a xlink:href="IndexedObject_8hpp.html" target="_top" xlink:title="Core/Index/IndexedObject.hpp">
<polygon fill="white" stroke="black" points="130.5,-236.5 130.5,-255.5 279.5,-255.5 279.5,-236.5 130.5,-236.5"/>
<text text-anchor="middle" x="205" y="-243.5" font-family="Helvetica,sans-Serif" font-size="10.00">Core/Index/IndexedObject.hpp</text>
</a>
</g>
</g>
<!-- Node1&#45;&gt;Node5 -->
<g id="edge4" class="edge"><title>Node1&#45;&gt;Node5</title>
<path fill="none" stroke="midnightblue" d="M277.85,-516.449C246.536,-495.691 205,-459.728 205,-415 205,-415 205,-415 205,-357 205,-324.948 205,-287.643 205,-265.749"/>
<polygon fill="midnightblue" stroke="midnightblue" points="208.5,-265.558 205,-255.558 201.5,-265.558 208.5,-265.558"/>
</g>
<!-- Node13 -->
<g id="node13" class="node"><title>Node13</title>
<g id="a_node13"><a xlink:href="Definition_8hpp.html" target="_top" xlink:title="Core/Mesh/DCEL/Definition.hpp">
<polygon fill="white" stroke="black" points="655,-236.5 655,-255.5 813,-255.5 813,-236.5 655,-236.5"/>
<text text-anchor="middle" x="734" y="-243.5" font-family="Helvetica,sans-Serif" font-size="10.00">Core/Mesh/DCEL/Definition.hpp</text>
</a>
</g>
</g>
<!-- Node1&#45;&gt;Node13 -->
<g id="edge13" class="edge"><title>Node1&#45;&gt;Node13</title>
<path fill="none" stroke="midnightblue" d="M391.241,-526.861C502.083,-511.834 690,-477.187 690,-415 690,-415 690,-415 690,-357 690,-322.04 709.396,-285.013 722.432,-264.075"/>
<polygon fill="midnightblue" stroke="midnightblue" points="725.388,-265.949 727.882,-255.651 719.511,-262.146 725.388,-265.949"/>
</g>
<!-- Node16 -->
<g id="node16" class="node"><title>Node16</title>
<g id="a_node16"><a xlink:href="Face_8inl.html" target="_top" xlink:title="Core/Mesh/DCEL/Face.inl">
<polygon fill="white" stroke="black" points="246,-460.5 246,-479.5 378,-479.5 378,-460.5 246,-460.5"/>
<text text-anchor="middle" x="312" y="-467.5" font-family="Helvetica,sans-Serif" font-size="10.00">Core/Mesh/DCEL/Face.inl</text>
</a>
</g>
</g>
<!-- Node1&#45;&gt;Node16 -->
<g id="edge16" class="edge"><title>Node1&#45;&gt;Node16</title>
<path fill="none" stroke="midnightblue" d="M305.755,-516.498C305.057,-507.969 305.083,-498.011 305.833,-489.59"/>
<polygon fill="midnightblue" stroke="midnightblue" points="309.303,-490.044 307.236,-479.652 302.372,-489.065 309.303,-490.044"/>
</g>
<!-- Node3 -->
<g id="node3" class="node"><title>Node3</title>
<polygon fill="white" stroke="#bfbfbf" points="0,-112.5 0,-131.5 40,-131.5 40,-112.5 0,-112.5"/>
<text text-anchor="middle" x="20" y="-119.5" font-family="Helvetica,sans-Serif" font-size="10.00">limits</text>
</g>
<!-- Node2&#45;&gt;Node3 -->
<g id="edge2" class="edge"><title>Node2&#45;&gt;Node3</title>
<path fill="none" stroke="midnightblue" d="M58.5526,-174.403C51.8026,-165.403 41.0306,-151.041 32.5868,-139.782"/>
<polygon fill="midnightblue" stroke="midnightblue" points="35.2355,-137.481 26.4354,-131.581 29.6355,-141.681 35.2355,-137.481"/>
</g>
<!-- Node4 -->
<g id="node4" class="node"><title>Node4</title>
<g id="a_node4"><a xlink:href="Index_8inl.html" target="_top" xlink:title="Core/Index/Index.inl">
<polygon fill="white" stroke="black" points="58,-112.5 58,-131.5 162,-131.5 162,-112.5 58,-112.5"/>
<text text-anchor="middle" x="110" y="-119.5" font-family="Helvetica,sans-Serif" font-size="10.00">Core/Index/Index.inl</text>
</a>
</g>
</g>
<!-- Node2&#45;&gt;Node4 -->
<g id="edge3" class="edge"><title>Node2&#45;&gt;Node4</title>
<path fill="none" stroke="midnightblue" d="M71.4474,-174.403C78.1974,-165.403 88.9694,-151.041 97.4132,-139.782"/>
<polygon fill="midnightblue" stroke="midnightblue" points="100.365,-141.681 103.565,-131.581 94.7645,-137.481 100.365,-141.681"/>
</g>
<!-- Node5&#45;&gt;Node2 -->
<g id="edge5" class="edge"><title>Node5&#45;&gt;Node2</title>
<path fill="none" stroke="midnightblue" d="M184.941,-236.403C161.238,-226.245 121.594,-209.255 94.4172,-197.607"/>
<polygon fill="midnightblue" stroke="midnightblue" points="95.5916,-194.303 85.0214,-193.581 92.8341,-200.737 95.5916,-194.303"/>
</g>
<!-- Node6 -->
<g id="node6" class="node"><title>Node6</title>
<g id="a_node6"><a xlink:href="RaCore_8hpp.html" target="_top" xlink:title="Core/RaCore.hpp">
<polygon fill="white" stroke="black" points="537.5,-112.5 537.5,-131.5 630.5,-131.5 630.5,-112.5 537.5,-112.5"/>
<text text-anchor="middle" x="584" y="-119.5" font-family="Helvetica,sans-Serif" font-size="10.00">Core/RaCore.hpp</text>
</a>
</g>
</g>
<!-- Node5&#45;&gt;Node6 -->
<g id="edge6" class="edge"><title>Node5&#45;&gt;Node6</title>
<path fill="none" stroke="midnightblue" d="M194.952,-236.487C178.175,-221.282 148.077,-189.075 167,-168 190.623,-141.691 418.453,-129.4 527.016,-125"/>
<polygon fill="midnightblue" stroke="midnightblue" points="527.285,-128.492 537.138,-124.599 527.008,-121.498 527.285,-128.492"/>
</g>
<!-- Node7 -->
<g id="node7" class="node"><title>Node7</title>
<g id="a_node7"><a xlink:href="CoreMacros_8hpp.html" target="_top" xlink:title="Core/CoreMacros.hpp">
<polygon fill="white" stroke="black" points="527.5,-56.5 527.5,-75.5 640.5,-75.5 640.5,-56.5 527.5,-56.5"/>
<text text-anchor="middle" x="584" y="-63.5" font-family="Helvetica,sans-Serif" font-size="10.00">Core/CoreMacros.hpp</text>
</a>
</g>
</g>
<!-- Node6&#45;&gt;Node7 -->
<g id="edge7" class="edge"><title>Node6&#45;&gt;Node7</title>
<path fill="none" stroke="midnightblue" d="M584,-112.083C584,-105.006 584,-94.8611 584,-85.9865"/>
<polygon fill="midnightblue" stroke="midnightblue" points="587.5,-85.751 584,-75.7511 580.5,-85.7511 587.5,-85.751"/>
</g>
<!-- Node8 -->
<g id="node8" class="node"><title>Node8</title>
<polygon fill="white" stroke="#bfbfbf" points="428.5,-0.5 428.5,-19.5 477.5,-19.5 477.5,-0.5 428.5,-0.5"/>
<text text-anchor="middle" x="453" y="-7.5" font-family="Helvetica,sans-Serif" font-size="10.00">cassert</text>
</g>
<!-- Node7&#45;&gt;Node8 -->
<g id="edge8" class="edge"><title>Node7&#45;&gt;Node8</title>
<path fill="none" stroke="midnightblue" d="M563.243,-56.4435C541.684,-47.5566 507.737,-33.5632 483.206,-23.4514"/>
<polygon fill="midnightblue" stroke="midnightblue" points="484.239,-20.0917 473.66,-19.5164 481.572,-26.5634 484.239,-20.0917"/>
</g>
<!-- Node9 -->
<g id="node9" class="node"><title>Node9</title>
<polygon fill="white" stroke="#bfbfbf" points="495.5,-0.5 495.5,-19.5 538.5,-19.5 538.5,-0.5 495.5,-0.5"/>
<text text-anchor="middle" x="517" y="-7.5" font-family="Helvetica,sans-Serif" font-size="10.00">cstdio</text>
</g>
<!-- Node7&#45;&gt;Node9 -->
<g id="edge9" class="edge"><title>Node7&#45;&gt;Node9</title>
<path fill="none" stroke="midnightblue" d="M573.235,-56.324C563.234,-48.2631 548.113,-36.0765 536.07,-26.3695"/>
<polygon fill="midnightblue" stroke="midnightblue" points="537.943,-23.3841 527.961,-19.8339 533.55,-28.8343 537.943,-23.3841"/>
</g>
<!-- Node10 -->
<g id="node10" class="node"><title>Node10</title>
<polygon fill="white" stroke="#bfbfbf" points="557,-0.5 557,-19.5 611,-19.5 611,-0.5 557,-0.5"/>
<text text-anchor="middle" x="584" y="-7.5" font-family="Helvetica,sans-Serif" font-size="10.00">iostream</text>
</g>
<!-- Node7&#45;&gt;Node10 -->
<g id="edge10" class="edge"><title>Node7&#45;&gt;Node10</title>
<path fill="none" stroke="midnightblue" d="M584,-56.083C584,-49.0059 584,-38.8611 584,-29.9865"/>
<polygon fill="midnightblue" stroke="midnightblue" points="587.5,-29.751 584,-19.7511 580.5,-29.7511 587.5,-29.751"/>
</g>
<!-- Node11 -->
<g id="node11" class="node"><title>Node11</title>
<polygon fill="white" stroke="#bfbfbf" points="629,-0.5 629,-19.5 681,-19.5 681,-0.5 629,-0.5"/>
<text text-anchor="middle" x="655" y="-7.5" font-family="Helvetica,sans-Serif" font-size="10.00">sstream</text>
</g>
<!-- Node7&#45;&gt;Node11 -->
<g id="edge11" class="edge"><title>Node7&#45;&gt;Node11</title>
<path fill="none" stroke="midnightblue" d="M595.407,-56.324C606.109,-48.1849 622.341,-35.8395 635.163,-26.0874"/>
<polygon fill="midnightblue" stroke="midnightblue" points="637.544,-28.6734 643.385,-19.8339 633.307,-23.1018 637.544,-28.6734"/>
</g>
<!-- Node12 -->
<g id="node12" class="node"><title>Node12</title>
<polygon fill="white" stroke="#bfbfbf" points="699,-0.5 699,-19.5 743,-19.5 743,-0.5 699,-0.5"/>
<text text-anchor="middle" x="721" y="-7.5" font-family="Helvetica,sans-Serif" font-size="10.00">thread</text>
</g>
<!-- Node7&#45;&gt;Node12 -->
<g id="edge12" class="edge"><title>Node7&#45;&gt;Node12</title>
<path fill="none" stroke="midnightblue" d="M605.708,-56.4435C628.355,-47.5171 664.072,-33.4387 689.752,-23.3168"/>
<polygon fill="midnightblue" stroke="midnightblue" points="691.374,-26.4397 699.394,-19.5164 688.807,-19.9273 691.374,-26.4397"/>
</g>
<!-- Node14 -->
<g id="node14" class="node"><title>Node14</title>
<polygon fill="white" stroke="#bfbfbf" points="1004,-174.5 1004,-193.5 1056,-193.5 1056,-174.5 1004,-174.5"/>
<text text-anchor="middle" x="1030" y="-181.5" font-family="Helvetica,sans-Serif" font-size="10.00">memory</text>
</g>
<!-- Node13&#45;&gt;Node14 -->
<g id="edge14" class="edge"><title>Node13&#45;&gt;Node14</title>
<path fill="none" stroke="midnightblue" d="M809.537,-236.463C861.974,-229.44 933.078,-217.722 994,-200 996.651,-199.229 999.372,-198.323 1002.07,-197.344"/>
<polygon fill="midnightblue" stroke="midnightblue" points="1003.58,-200.513 1011.6,-193.595 1001.01,-193.999 1003.58,-200.513"/>
</g>
<!-- Node15 -->
<g id="node15" class="node"><title>Node15</title>
<polygon fill="white" stroke="#bfbfbf" points="1074,-174.5 1074,-193.5 1118,-193.5 1118,-174.5 1074,-174.5"/>
<text text-anchor="middle" x="1096" y="-181.5" font-family="Helvetica,sans-Serif" font-size="10.00">vector</text>
</g>
<!-- Node13&#45;&gt;Node15 -->
<g id="edge15" class="edge"><title>Node13&#45;&gt;Node15</title>
<path fill="none" stroke="midnightblue" d="M813.059,-241.259C881.064,-236.397 981.159,-225.284 1065,-200 1067.14,-199.355 1069.31,-198.578 1071.47,-197.723"/>
<polygon fill="midnightblue" stroke="midnightblue" points="1072.92,-200.908 1080.62,-193.625 1070.06,-194.519 1072.92,-200.908"/>
</g>
<!-- Node16&#45;&gt;Node1 -->
<g id="edge17" class="edge"><title>Node16&#45;&gt;Node1</title>
<path fill="none" stroke="midnightblue" d="M316.764,-479.652C318.227,-486.524 318.881,-496.559 318.728,-506.263"/>
<polygon fill="midnightblue" stroke="midnightblue" points="315.221,-506.344 318.245,-516.498 322.213,-506.674 315.221,-506.344"/>
</g>
<!-- Node17 -->
<g id="node17" class="node"><title>Node17</title>
<g id="a_node17"><a xlink:href="DCEL_2HalfEdge_8hpp.html" target="_top" xlink:title="Core/Mesh/DCEL/HalfEdge.hpp">
<polygon fill="white" stroke="black" points="233.5,-404.5 233.5,-423.5 390.5,-423.5 390.5,-404.5 233.5,-404.5"/>
<text text-anchor="middle" x="312" y="-411.5" font-family="Helvetica,sans-Serif" font-size="10.00">Core/Mesh/DCEL/HalfEdge.hpp</text>
</a>
</g>
</g>
<!-- Node16&#45;&gt;Node17 -->
<g id="edge18" class="edge"><title>Node16&#45;&gt;Node17</title>
<path fill="none" stroke="midnightblue" d="M312,-460.083C312,-453.006 312,-442.861 312,-433.986"/>
<polygon fill="midnightblue" stroke="midnightblue" points="315.5,-433.751 312,-423.751 308.5,-433.751 315.5,-433.751"/>
</g>
<!-- Node17&#45;&gt;Node2 -->
<g id="edge19" class="edge"><title>Node17&#45;&gt;Node2</title>
<path fill="none" stroke="midnightblue" d="M299.612,-404.272C268.019,-381.717 182.591,-318.846 121,-256 104.256,-238.915 87.6052,-217.015 76.8683,-202.084"/>
<polygon fill="midnightblue" stroke="midnightblue" points="79.634,-199.933 70.9994,-193.794 73.9207,-203.978 79.634,-199.933"/>
</g>
<!-- Node17&#45;&gt;Node5 -->
<g id="edge20" class="edge"><title>Node17&#45;&gt;Node5</title>
<path fill="none" stroke="midnightblue" d="M306.247,-404.075C289.186,-377.606 238.653,-299.209 216.093,-264.21"/>
<polygon fill="midnightblue" stroke="midnightblue" points="218.882,-262.077 210.523,-255.568 212.999,-265.87 218.882,-262.077"/>
</g>
<!-- Node17&#45;&gt;Node13 -->
<g id="edge21" class="edge"><title>Node17&#45;&gt;Node13</title>
<path fill="none" stroke="midnightblue" d="M362.057,-404.448C400.508,-397.064 454.547,-384.906 500,-368 581.525,-337.678 671.067,-285.627 711.719,-260.868"/>
<polygon fill="midnightblue" stroke="midnightblue" points="713.609,-263.815 720.302,-255.602 709.948,-257.848 713.609,-263.815"/>
</g>
<!-- Node18 -->
<g id="node18" class="node"><title>Node18</title>
<g id="a_node18"><a xlink:href="DCEL_2HalfEdge_8inl.html" target="_top" xlink:title="Core/Mesh/DCEL/HalfEdge.inl">
<polygon fill="white" stroke="black" points="340.5,-348.5 340.5,-367.5 491.5,-367.5 491.5,-348.5 340.5,-348.5"/>
<text text-anchor="middle" x="416" y="-355.5" font-family="Helvetica,sans-Serif" font-size="10.00">Core/Mesh/DCEL/HalfEdge.inl</text>
</a>
</g>
</g>
<!-- Node17&#45;&gt;Node18 -->
<g id="edge22" class="edge"><title>Node17&#45;&gt;Node18</title>
<path fill="none" stroke="midnightblue" d="M323.595,-404.324C338.533,-395.585 364.451,-381.998 385.141,-371.977"/>
<polygon fill="midnightblue" stroke="midnightblue" points="386.697,-375.113 394.222,-367.655 383.688,-368.793 386.697,-375.113"/>
</g>
<!-- Node18&#45;&gt;Node1 -->
<g id="edge24" class="edge"><title>Node18&#45;&gt;Node1</title>
<path fill="none" stroke="midnightblue" d="M415.887,-367.702C415.221,-388.751 411.117,-443.376 387,-480 379.161,-491.904 367.89,-502.225 356.458,-510.649"/>
<polygon fill="midnightblue" stroke="midnightblue" points="354.351,-507.852 348.152,-516.445 358.356,-513.593 354.351,-507.852"/>
</g>
<!-- Node18&#45;&gt;Node17 -->
<g id="edge23" class="edge"><title>Node18&#45;&gt;Node17</title>
<path fill="none" stroke="midnightblue" d="M404.678,-367.516C389.748,-376.27 363.549,-390.007 342.707,-400.096"/>
<polygon fill="midnightblue" stroke="midnightblue" points="341.095,-396.987 333.568,-404.444 344.102,-403.308 341.095,-396.987"/>
</g>
<!-- Node19 -->
<g id="node19" class="node"><title>Node19</title>
<g id="a_node19"><a xlink:href="Vertex_8hpp.html" target="_top" xlink:title="Core/Mesh/DCEL/Vertex.hpp">
<polygon fill="white" stroke="black" points="343.5,-292.5 343.5,-311.5 488.5,-311.5 488.5,-292.5 343.5,-292.5"/>
<text text-anchor="middle" x="416" y="-299.5" font-family="Helvetica,sans-Serif" font-size="10.00">Core/Mesh/DCEL/Vertex.hpp</text>
</a>
</g>
</g>
<!-- Node18&#45;&gt;Node19 -->
<g id="edge25" class="edge"><title>Node18&#45;&gt;Node19</title>
<path fill="none" stroke="midnightblue" d="M416,-348.083C416,-341.006 416,-330.861 416,-321.986"/>
<polygon fill="midnightblue" stroke="midnightblue" points="419.5,-321.751 416,-311.751 412.5,-321.751 419.5,-321.751"/>
</g>
<!-- Node19&#45;&gt;Node2 -->
<g id="edge26" class="edge"><title>Node19&#45;&gt;Node2</title>
<path fill="none" stroke="midnightblue" d="M425.59,-292.081C438.926,-278.619 459.846,-252.893 445,-236 403.877,-189.209 228.707,-208.532 167,-200 155.088,-198.353 142.402,-196.537 130.17,-194.755"/>
<polygon fill="midnightblue" stroke="midnightblue" points="130.43,-191.256 120.029,-193.27 129.416,-198.182 130.43,-191.256"/>
</g>
<!-- Node19&#45;&gt;Node5 -->
<g id="edge27" class="edge"><title>Node19&#45;&gt;Node5</title>
<path fill="none" stroke="midnightblue" d="M382.566,-292.444C346.144,-283.122 287.77,-268.183 247.971,-257.997"/>
<polygon fill="midnightblue" stroke="midnightblue" points="248.833,-254.605 238.277,-255.516 247.097,-261.387 248.833,-254.605"/>
</g>
<!-- Node19&#45;&gt;Node13 -->
<g id="edge42" class="edge"><title>Node19&#45;&gt;Node13</title>
<path fill="none" stroke="midnightblue" d="M466.388,-292.444C522.676,-282.885 613.752,-267.419 673.758,-257.23"/>
<polygon fill="midnightblue" stroke="midnightblue" points="674.575,-260.641 683.848,-255.516 673.403,-253.74 674.575,-260.641"/>
</g>
<!-- Node20 -->
<g id="node20" class="node"><title>Node20</title>
<g id="a_node20"><a xlink:href="LinearAlgebra_8hpp.html" target="_top" xlink:title="Core/Math/LinearAlgebra.hpp">
<polygon fill="white" stroke="black" points="493.5,-236.5 493.5,-255.5 636.5,-255.5 636.5,-236.5 493.5,-236.5"/>
<text text-anchor="middle" x="565" y="-243.5" font-family="Helvetica,sans-Serif" font-size="10.00">Core/Math/LinearAlgebra.hpp</text>
</a>
</g>
</g>
<!-- Node19&#45;&gt;Node20 -->
<g id="edge28" class="edge"><title>Node19&#45;&gt;Node20</title>
<path fill="none" stroke="midnightblue" d="M439.609,-292.444C464.458,-283.438 503.774,-269.189 531.754,-259.049"/>
<polygon fill="midnightblue" stroke="midnightblue" points="533.292,-262.214 541.501,-255.516 530.907,-255.633 533.292,-262.214"/>
</g>
<!-- Node31 -->
<g id="node31" class="node"><title>Node31</title>
<g id="a_node31"><a xlink:href="Vertex_8inl.html" target="_top" xlink:title="Core/Mesh/DCEL/Vertex.inl">
<polygon fill="white" stroke="black" points="297.5,-236.5 297.5,-255.5 436.5,-255.5 436.5,-236.5 297.5,-236.5"/>
<text text-anchor="middle" x="367" y="-243.5" font-family="Helvetica,sans-Serif" font-size="10.00">Core/Mesh/DCEL/Vertex.inl</text>
</a>
</g>
</g>
<!-- Node19&#45;&gt;Node31 -->
<g id="edge43" class="edge"><title>Node19&#45;&gt;Node31</title>
<path fill="none" stroke="midnightblue" d="M403.012,-292.324C394.393,-284.654 383.648,-273.25 375.942,-263.8"/>
<polygon fill="midnightblue" stroke="midnightblue" points="378.714,-261.663 369.867,-255.834 373.148,-265.908 378.714,-261.663"/>
</g>
<!-- Node20&#45;&gt;Node6 -->
<g id="edge29" class="edge"><title>Node20&#45;&gt;Node6</title>
<path fill="none" stroke="midnightblue" d="M594.121,-236.441C611.643,-229.62 632.523,-218.141 643,-200 650.113,-187.684 649.309,-180.746 643,-168 636.397,-154.659 623.735,-144.194 611.829,-136.726"/>
<polygon fill="midnightblue" stroke="midnightblue" points="613.391,-133.587 602.984,-131.602 609.882,-139.643 613.391,-133.587"/>
</g>
<!-- Node21 -->
<g id="node21" class="node"><title>Node21</title>
<polygon fill="white" stroke="#bfbfbf" points="815.5,-174.5 815.5,-193.5 880.5,-193.5 880.5,-174.5 815.5,-174.5"/>
<text text-anchor="middle" x="848" y="-181.5" font-family="Helvetica,sans-Serif" font-size="10.00">Eigen/Core</text>
</g>
<!-- Node20&#45;&gt;Node21 -->
<g id="edge30" class="edge"><title>Node20&#45;&gt;Node21</title>
<path fill="none" stroke="midnightblue" d="M624.239,-236.436C673.155,-228.759 744.171,-216.214 805,-200 808.572,-199.048 812.273,-197.943 815.937,-196.774"/>
<polygon fill="midnightblue" stroke="midnightblue" points="817.069,-200.086 825.436,-193.586 814.842,-193.45 817.069,-200.086"/>
</g>
<!-- Node22 -->
<g id="node22" class="node"><title>Node22</title>
<polygon fill="white" stroke="#bfbfbf" points="898.5,-174.5 898.5,-193.5 985.5,-193.5 985.5,-174.5 898.5,-174.5"/>
<text text-anchor="middle" x="942" y="-181.5" font-family="Helvetica,sans-Serif" font-size="10.00">Eigen/Geometry</text>
</g>
<!-- Node20&#45;&gt;Node22 -->
<g id="edge31" class="edge"><title>Node20&#45;&gt;Node22</title>
<path fill="none" stroke="midnightblue" d="M634.487,-236.49C714.757,-226.458 841.828,-209.902 889,-200 894.133,-198.923 899.499,-197.618 904.763,-196.234"/>
<polygon fill="midnightblue" stroke="midnightblue" points="905.955,-199.536 914.671,-193.511 904.101,-192.786 905.955,-199.536"/>
</g>
<!-- Node23 -->
<g id="node23" class="node"><title>Node23</title>
<polygon fill="white" stroke="#bfbfbf" points="176.5,-174.5 176.5,-193.5 251.5,-193.5 251.5,-174.5 176.5,-174.5"/>
<text text-anchor="middle" x="214" y="-181.5" font-family="Helvetica,sans-Serif" font-size="10.00">Eigen/Sparse</text>
</g>
<!-- Node20&#45;&gt;Node23 -->
<g id="edge32" class="edge"><title>Node20&#45;&gt;Node23</title>
<path fill="none" stroke="midnightblue" d="M498.185,-236.482C422.495,-226.597 303.963,-210.333 260,-200 255.86,-199.027 251.559,-197.852 247.322,-196.594"/>
<polygon fill="midnightblue" stroke="midnightblue" points="248.247,-193.216 237.658,-193.56 246.151,-199.894 248.247,-193.216"/>
</g>
<!-- Node24 -->
<g id="node24" class="node"><title>Node24</title>
<polygon fill="white" stroke="#bfbfbf" points="269.5,-174.5 269.5,-193.5 328.5,-193.5 328.5,-174.5 269.5,-174.5"/>
<text text-anchor="middle" x="299" y="-181.5" font-family="Helvetica,sans-Serif" font-size="10.00">functional</text>
</g>
<!-- Node20&#45;&gt;Node24 -->
<g id="edge33" class="edge"><title>Node20&#45;&gt;Node24</title>
<path fill="none" stroke="midnightblue" d="M506.673,-236.478C460.187,-228.974 393.717,-216.642 337,-200 334.193,-199.176 331.303,-198.229 328.432,-197.218"/>
<polygon fill="midnightblue" stroke="midnightblue" points="329.471,-193.87 318.879,-193.631 327.01,-200.423 329.471,-193.87"/>
</g>
<!-- Node25 -->
<g id="node25" class="node"><title>Node25</title>
<polygon fill="white" stroke="#bfbfbf" points="346.5,-169 346.5,-199 479.5,-199 479.5,-169 346.5,-169"/>
<text text-anchor="start" x="354.5" y="-187" font-family="Helvetica,sans-Serif" font-size="10.00">unsupported/Eigen/Aligned</text>
<text text-anchor="middle" x="413" y="-176" font-family="Helvetica,sans-Serif" font-size="10.00">Vector3</text>
</g>
<!-- Node20&#45;&gt;Node25 -->
<g id="edge34" class="edge"><title>Node20&#45;&gt;Node25</title>
<path fill="none" stroke="midnightblue" d="M543.222,-236.403C521.119,-227.679 486.25,-213.914 458.154,-202.824"/>
<polygon fill="midnightblue" stroke="midnightblue" points="459.117,-199.441 448.531,-199.025 456.547,-205.953 459.117,-199.441"/>
</g>
<!-- Node26 -->
<g id="node26" class="node"><title>Node26</title>
<g id="a_node26"><a xlink:href="Math_8hpp.html" target="_top" xlink:title="Core/Math/Math.hpp">
<polygon fill="white" stroke="black" points="691,-174.5 691,-193.5 797,-193.5 797,-174.5 691,-174.5"/>
<text text-anchor="middle" x="744" y="-181.5" font-family="Helvetica,sans-Serif" font-size="10.00">Core/Math/Math.hpp</text>
</a>
</g>
</g>
<!-- Node20&#45;&gt;Node26 -->
<g id="edge35" class="edge"><title>Node20&#45;&gt;Node26</title>
<path fill="none" stroke="midnightblue" d="M590.646,-236.403C621.617,-226.022 673.873,-208.506 708.651,-196.849"/>
<polygon fill="midnightblue" stroke="midnightblue" points="710.032,-200.077 718.401,-193.581 707.807,-193.44 710.032,-200.077"/>
</g>
<!-- Node30 -->
<g id="node30" class="node"><title>Node30</title>
<g id="a_node30"><a xlink:href="LinearAlgebra_8inl.html" target="_top" xlink:title="Core/Math/LinearAlgebra.inl">
<polygon fill="white" stroke="black" points="497.5,-174.5 497.5,-193.5 634.5,-193.5 634.5,-174.5 497.5,-174.5"/>
<text text-anchor="middle" x="566" y="-181.5" font-family="Helvetica,sans-Serif" font-size="10.00">Core/Math/LinearAlgebra.inl</text>
</a>
</g>
</g>
<!-- Node20&#45;&gt;Node30 -->
<g id="edge41" class="edge"><title>Node20&#45;&gt;Node30</title>
<path fill="none" stroke="midnightblue" d="M565.143,-236.403C565.284,-227.938 565.505,-214.728 565.686,-203.82"/>
<polygon fill="midnightblue" stroke="midnightblue" points="569.19,-203.638 565.857,-193.581 562.191,-203.521 569.19,-203.638"/>
</g>
<!-- Node26&#45;&gt;Node6 -->
<g id="edge36" class="edge"><title>Node26&#45;&gt;Node6</title>
<path fill="none" stroke="midnightblue" d="M721.076,-174.403C693.63,-164.111 647.484,-146.806 616.401,-135.15"/>
<polygon fill="midnightblue" stroke="midnightblue" points="617.474,-131.815 606.882,-131.581 615.016,-138.369 617.474,-131.815"/>
</g>
<!-- Node27 -->
<g id="node27" class="node"><title>Node27</title>
<polygon fill="white" stroke="#bfbfbf" points="648,-112.5 648,-131.5 704,-131.5 704,-112.5 648,-112.5"/>
<text text-anchor="middle" x="676" y="-119.5" font-family="Helvetica,sans-Serif" font-size="10.00">algorithm</text>
</g>
<!-- Node26&#45;&gt;Node27 -->
<g id="edge37" class="edge"><title>Node26&#45;&gt;Node27</title>
<path fill="none" stroke="midnightblue" d="M734.257,-174.403C723.653,-165.047 706.481,-149.895 693.521,-138.46"/>
<polygon fill="midnightblue" stroke="midnightblue" points="695.539,-135.572 685.725,-131.581 690.907,-140.821 695.539,-135.572"/>
</g>
<!-- Node28 -->
<g id="node28" class="node"><title>Node28</title>
<polygon fill="white" stroke="#bfbfbf" points="722,-112.5 722,-131.5 766,-131.5 766,-112.5 722,-112.5"/>
<text text-anchor="middle" x="744" y="-119.5" font-family="Helvetica,sans-Serif" font-size="10.00">cmath</text>
</g>
<!-- Node26&#45;&gt;Node28 -->
<g id="edge38" class="edge"><title>Node26&#45;&gt;Node28</title>
<path fill="none" stroke="midnightblue" d="M744,-174.403C744,-165.938 744,-152.728 744,-141.82"/>
<polygon fill="midnightblue" stroke="midnightblue" points="747.5,-141.581 744,-131.581 740.5,-141.581 747.5,-141.581"/>
</g>
<!-- Node29 -->
<g id="node29" class="node"><title>Node29</title>
<g id="a_node29"><a xlink:href="Math_8inl.html" target="_top" xlink:title="Core/Math/Math.inl">
<polygon fill="white" stroke="black" points="784,-112.5 784,-131.5 884,-131.5 884,-112.5 784,-112.5"/>
<text text-anchor="middle" x="834" y="-119.5" font-family="Helvetica,sans-Serif" font-size="10.00">Core/Math/Math.inl</text>
</a>
</g>
</g>
<!-- Node26&#45;&gt;Node29 -->
<g id="edge39" class="edge"><title>Node26&#45;&gt;Node29</title>
<path fill="none" stroke="midnightblue" d="M751.994,-174.403C764.577,-164.601 788.524,-148.439 807.429,-136.853"/>
<polygon fill="midnightblue" stroke="midnightblue" points="809.451,-139.721 816.232,-131.581 805.854,-133.716 809.451,-139.721"/>
</g>
<!-- Node29&#45;&gt;Node26 -->
<g id="edge40" class="edge"><title>Node29&#45;&gt;Node26</title>
<path fill="none" stroke="midnightblue" d="M826.026,-131.581C813.456,-141.376 789.512,-157.538 770.602,-169.129"/>
<polygon fill="midnightblue" stroke="midnightblue" points="768.576,-166.262 761.795,-174.403 772.173,-172.268 768.576,-166.262"/>
</g>
<!-- Node31&#45;&gt;Node17 -->
<g id="edge45" class="edge"><title>Node31&#45;&gt;Node17</title>
<path fill="none" stroke="midnightblue" d="M358.854,-255.553C351.202,-264.093 340.05,-277.939 334,-292 319.285,-326.202 314.409,-369.954 312.796,-394.375"/>
<polygon fill="midnightblue" stroke="midnightblue" points="309.298,-394.232 312.248,-404.408 316.288,-394.614 309.298,-394.232"/>
</g>
<!-- Node31&#45;&gt;Node19 -->
<g id="edge44" class="edge"><title>Node31&#45;&gt;Node19</title>
<path fill="none" stroke="midnightblue" d="M380.072,-255.751C388.573,-263.327 399.117,-274.505 406.776,-283.855"/>
<polygon fill="midnightblue" stroke="midnightblue" points="404.217,-286.27 413.075,-292.083 409.775,-282.015 404.217,-286.27"/>
</g>
</g>
</svg>
