<?xml version="1.0" encoding="UTF-8" standalone="no"?>
<!DOCTYPE svg PUBLIC "-//W3C//DTD SVG 1.1//EN"
 "http://www.w3.org/Graphics/SVG/1.1/DTD/svg11.dtd">
<!-- Generated by graphviz version 2.36.0 (20140111.2315)
 -->
<!-- Title: /home/travis/build/STORM&#45;IRIT/Radium&#45;Engine/src/Core/Mesh/DCEL/Iterator/Face/FaceIterator.hpp Pages: 1 -->
<svg width="1203pt" height="658pt"
 viewBox="0.00 0.00 1203.00 658.00" xmlns="http://www.w3.org/2000/svg" xmlns:xlink="http://www.w3.org/1999/xlink">
<g id="graph0" class="graph" transform="scale(1 1) rotate(0) translate(4 654)">
<title>/home/travis/build/STORM&#45;IRIT/Radium&#45;Engine/src/Core/Mesh/DCEL/Iterator/Face/FaceIterator.hpp</title>
<polygon fill="white" stroke="none" points="-4,4 -4,-654 1199,-654 1199,4 -4,4"/>
<!-- Node1 -->
<g id="node1" class="node"><title>Node1</title>
<polygon fill="#bfbfbf" stroke="black" points="484,-597 484,-649 632,-649 632,-597 484,-597"/>
<text text-anchor="start" x="492" y="-637" font-family="Helvetica,sans-Serif" font-size="10.00">/home/travis/build</text>
<text text-anchor="start" x="492" y="-626" font-family="Helvetica,sans-Serif" font-size="10.00">/STORM&#45;IRIT/Radium&#45;Engine</text>
<text text-anchor="start" x="492" y="-615" font-family="Helvetica,sans-Serif" font-size="10.00">/src/Core/Mesh/DCEL/Iterator</text>
<text text-anchor="middle" x="558" y="-604" font-family="Helvetica,sans-Serif" font-size="10.00">/Face/FaceIterator.hpp</text>
</g>
<!-- Node2 -->
<g id="node2" class="node"><title>Node2</title>
<g id="a_node2"><a xlink:href="Iterator_8hpp.html" target="_top" xlink:title="Core/Mesh/DCEL/Iterator\l/Iterator.hpp">
<polygon fill="white" stroke="black" points="304,-529 304,-559 432,-559 432,-529 304,-529"/>
<text text-anchor="start" x="312" y="-547" font-family="Helvetica,sans-Serif" font-size="10.00">Core/Mesh/DCEL/Iterator</text>
<text text-anchor="middle" x="368" y="-536" font-family="Helvetica,sans-Serif" font-size="10.00">/Iterator.hpp</text>
</a>
</g>
</g>
<!-- Node1&#45;&gt;Node2 -->
<g id="edge1" class="edge"><title>Node1&#45;&gt;Node2</title>
<path fill="none" stroke="midnightblue" d="M496.05,-596.894C468.708,-585.813 437.193,-573.041 412.27,-562.941"/>
<polygon fill="midnightblue" stroke="midnightblue" points="413.301,-559.582 402.719,-559.07 410.672,-566.07 413.301,-559.582"/>
</g>
<!-- Node35 -->
<g id="node35" class="node"><title>Node35</title>
<g id="a_node35"><a xlink:href="FaceIterator_8inl.html" target="_top" xlink:title="Core/Mesh/DCEL/Iterator\l/Face/FaceIterator.inl">
<polygon fill="white" stroke="black" points="494,-461 494,-491 622,-491 622,-461 494,-461"/>
<text text-anchor="start" x="502" y="-479" font-family="Helvetica,sans-Serif" font-size="10.00">Core/Mesh/DCEL/Iterator</text>
<text text-anchor="middle" x="558" y="-468" font-family="Helvetica,sans-Serif" font-size="10.00">/Face/FaceIterator.inl</text>
</a>
</g>
</g>
<!-- Node1&#45;&gt;Node35 -->
<g id="edge52" class="edge"><title>Node1&#45;&gt;Node35</title>
<path fill="none" stroke="midnightblue" d="M552.733,-596.743C550.732,-569.906 550.756,-527.772 552.806,-501.304"/>
<polygon fill="midnightblue" stroke="midnightblue" points="556.322,-501.302 553.808,-491.01 549.355,-500.624 556.322,-501.302"/>
</g>
<!-- Node3 -->
<g id="node3" class="node"><title>Node3</title>
<g id="a_node3"><a xlink:href="Definition_8hpp.html" target="_top" xlink:title="Core/Mesh/DCEL/Definition.hpp">
<polygon fill="white" stroke="black" points="153,-236.5 153,-255.5 311,-255.5 311,-236.5 153,-236.5"/>
<text text-anchor="middle" x="232" y="-243.5" font-family="Helvetica,sans-Serif" font-size="10.00">Core/Mesh/DCEL/Definition.hpp</text>
</a>
</g>
</g>
<!-- Node2&#45;&gt;Node3 -->
<g id="edge2" class="edge"><title>Node2&#45;&gt;Node3</title>
<path fill="none" stroke="midnightblue" d="M341.846,-528.83C308.189,-508.466 254,-467.523 254,-415 254,-415 254,-415 254,-357 254,-324.328 244.553,-287.24 238.04,-265.553"/>
<polygon fill="midnightblue" stroke="midnightblue" points="241.291,-264.222 234.967,-255.721 234.609,-266.31 241.291,-264.222"/>
</g>
<!-- Node5 -->
<g id="node5" class="node"><title>Node5</title>
<polygon fill="white" stroke="#bfbfbf" points="0,-174.5 0,-193.5 44,-193.5 44,-174.5 0,-174.5"/>
<text text-anchor="middle" x="22" y="-181.5" font-family="Helvetica,sans-Serif" font-size="10.00">vector</text>
</g>
<!-- Node2&#45;&gt;Node5 -->
<g id="edge5" class="edge"><title>Node2&#45;&gt;Node5</title>
<path fill="none" stroke="midnightblue" d="M303.989,-542.349C217.228,-537.696 73,-514.933 73,-415 73,-415 73,-415 73,-301 73,-263.079 49.8773,-223.632 34.7707,-201.908"/>
<polygon fill="midnightblue" stroke="midnightblue" points="37.5668,-199.801 28.8781,-193.738 31.8895,-203.896 37.5668,-199.801"/>
</g>
<!-- Node6 -->
<g id="node6" class="node"><title>Node6</title>
<g id="a_node6"><a xlink:href="Iterator_8inl.html" target="_top" xlink:title="Core/Mesh/DCEL/Iterator\l/Iterator.inl">
<polygon fill="white" stroke="black" points="304,-461 304,-491 432,-491 432,-461 304,-461"/>
<text text-anchor="start" x="312" y="-479" font-family="Helvetica,sans-Serif" font-size="10.00">Core/Mesh/DCEL/Iterator</text>
<text text-anchor="middle" x="368" y="-468" font-family="Helvetica,sans-Serif" font-size="10.00">/Iterator.inl</text>
</a>
</g>
</g>
<!-- Node2&#45;&gt;Node6 -->
<g id="edge6" class="edge"><title>Node2&#45;&gt;Node6</title>
<path fill="none" stroke="midnightblue" d="M362.322,-528.679C361.294,-520.722 361.005,-510.605 361.456,-501.436"/>
<polygon fill="midnightblue" stroke="midnightblue" points="364.959,-501.555 362.325,-491.293 357.984,-500.958 364.959,-501.555"/>
</g>
<!-- Node4 -->
<g id="node4" class="node"><title>Node4</title>
<polygon fill="white" stroke="#bfbfbf" points="62,-174.5 62,-193.5 114,-193.5 114,-174.5 62,-174.5"/>
<text text-anchor="middle" x="88" y="-181.5" font-family="Helvetica,sans-Serif" font-size="10.00">memory</text>
</g>
<!-- Node3&#45;&gt;Node4 -->
<g id="edge3" class="edge"><title>Node3&#45;&gt;Node4</title>
<path fill="none" stroke="midnightblue" d="M211.069,-236.456C189.1,-227.465 153.571,-212.861 123,-200 121.172,-199.231 119.292,-198.436 117.396,-197.632"/>
<polygon fill="midnightblue" stroke="midnightblue" points="118.541,-194.316 107.97,-193.613 115.796,-200.755 118.541,-194.316"/>
</g>
<!-- Node3&#45;&gt;Node5 -->
<g id="edge4" class="edge"><title>Node3&#45;&gt;Node5</title>
<path fill="none" stroke="midnightblue" d="M187.476,-236.455C150.793,-228.788 97.7243,-216.248 53,-200 51.1456,-199.326 49.2541,-198.577 47.366,-197.783"/>
<polygon fill="midnightblue" stroke="midnightblue" points="48.6912,-194.541 38.14,-193.58 45.7893,-200.911 48.6912,-194.541"/>
</g>
<!-- Node6&#45;&gt;Node2 -->
<g id="edge7" class="edge"><title>Node6&#45;&gt;Node2</title>
<path fill="none" stroke="midnightblue" d="M373.675,-491.293C374.704,-499.245 374.995,-509.361 374.545,-518.532"/>
<polygon fill="midnightblue" stroke="midnightblue" points="371.042,-518.417 373.678,-528.679 378.017,-519.013 371.042,-518.417"/>
</g>
<!-- Node7 -->
<g id="node7" class="node"><title>Node7</title>
<g id="a_node7"><a xlink:href="DCEL_2HalfEdge_8hpp.html" target="_top" xlink:title="Core/Mesh/DCEL/HalfEdge.hpp">
<polygon fill="white" stroke="black" points="479.5,-404.5 479.5,-423.5 636.5,-423.5 636.5,-404.5 479.5,-404.5"/>
<text text-anchor="middle" x="558" y="-411.5" font-family="Helvetica,sans-Serif" font-size="10.00">Core/Mesh/DCEL/HalfEdge.hpp</text>
</a>
</g>
</g>
<!-- Node6&#45;&gt;Node7 -->
<g id="edge8" class="edge"><title>Node6&#45;&gt;Node7</title>
<path fill="none" stroke="midnightblue" d="M412.547,-460.933C445.702,-450.462 490.409,-436.345 521.47,-426.536"/>
<polygon fill="midnightblue" stroke="midnightblue" points="522.561,-429.862 531.043,-423.513 520.453,-423.187 522.561,-429.862"/>
</g>
<!-- Node7&#45;&gt;Node3 -->
<g id="edge21" class="edge"><title>Node7&#45;&gt;Node3</title>
<path fill="none" stroke="midnightblue" d="M536.412,-404.457C514.992,-395.816 481.355,-381.799 453,-368 379.264,-332.116 295.006,-283.899 255.18,-260.656"/>
<polygon fill="midnightblue" stroke="midnightblue" points="256.884,-257.598 246.486,-255.566 253.348,-263.639 256.884,-257.598"/>
</g>
<!-- Node8 -->
<g id="node8" class="node"><title>Node8</title>
<g id="a_node8"><a xlink:href="Index_8hpp.html" target="_top" xlink:title="Core/Index/Index.hpp">
<polygon fill="white" stroke="black" points="998,-174.5 998,-193.5 1108,-193.5 1108,-174.5 998,-174.5"/>
<text text-anchor="middle" x="1053" y="-181.5" font-family="Helvetica,sans-Serif" font-size="10.00">Core/Index/Index.hpp</text>
</a>
</g>
</g>
<!-- Node7&#45;&gt;Node8 -->
<g id="edge9" class="edge"><title>Node7&#45;&gt;Node8</title>
<path fill="none" stroke="midnightblue" d="M636.71,-409.142C741.741,-399.665 926.583,-367.142 1031,-256 1044.37,-241.772 1049.62,-219.566 1051.68,-203.779"/>
<polygon fill="midnightblue" stroke="midnightblue" points="1055.18,-203.921 1052.68,-193.625 1048.22,-203.231 1055.18,-203.921"/>
</g>
<!-- Node11 -->
<g id="node11" class="node"><title>Node11</title>
<g id="a_node11"><a xlink:href="IndexedObject_8hpp.html" target="_top" xlink:title="Core/Index/IndexedObject.hpp">
<polygon fill="white" stroke="black" points="685.5,-236.5 685.5,-255.5 834.5,-255.5 834.5,-236.5 685.5,-236.5"/>
<text text-anchor="middle" x="760" y="-243.5" font-family="Helvetica,sans-Serif" font-size="10.00">Core/Index/IndexedObject.hpp</text>
</a>
</g>
</g>
<!-- Node7&#45;&gt;Node11 -->
<g id="edge12" class="edge"><title>Node7&#45;&gt;Node11</title>
<path fill="none" stroke="midnightblue" d="M582.528,-404.405C600.736,-397.032 625.216,-384.907 642,-368 668.892,-340.911 655.538,-319.509 682,-292 695.194,-278.284 713.477,-267.437 729.026,-259.832"/>
<polygon fill="midnightblue" stroke="midnightblue" points="730.698,-262.915 738.285,-255.519 727.742,-256.569 730.698,-262.915"/>
</g>
<!-- Node19 -->
<g id="node19" class="node"><title>Node19</title>
<g id="a_node19"><a xlink:href="DCEL_2HalfEdge_8inl.html" target="_top" xlink:title="Core/Mesh/DCEL/HalfEdge.inl">
<polygon fill="white" stroke="black" points="482.5,-348.5 482.5,-367.5 633.5,-367.5 633.5,-348.5 482.5,-348.5"/>
<text text-anchor="middle" x="558" y="-355.5" font-family="Helvetica,sans-Serif" font-size="10.00">Core/Mesh/DCEL/HalfEdge.inl</text>
</a>
</g>
</g>
<!-- Node7&#45;&gt;Node19 -->
<g id="edge22" class="edge"><title>Node7&#45;&gt;Node19</title>
<path fill="none" stroke="midnightblue" d="M552.834,-404.083C551.324,-396.927 550.894,-386.635 551.542,-377.691"/>
<polygon fill="midnightblue" stroke="midnightblue" points="555.015,-378.126 552.869,-367.751 548.077,-377.2 555.015,-378.126"/>
</g>
<!-- Node9 -->
<g id="node9" class="node"><title>Node9</title>
<polygon fill="white" stroke="#bfbfbf" points="1033,-112.5 1033,-131.5 1073,-131.5 1073,-112.5 1033,-112.5"/>
<text text-anchor="middle" x="1053" y="-119.5" font-family="Helvetica,sans-Serif" font-size="10.00">limits</text>
</g>
<!-- Node8&#45;&gt;Node9 -->
<g id="edge10" class="edge"><title>Node8&#45;&gt;Node9</title>
<path fill="none" stroke="midnightblue" d="M1053,-174.403C1053,-165.938 1053,-152.728 1053,-141.82"/>
<polygon fill="midnightblue" stroke="midnightblue" points="1056.5,-141.581 1053,-131.581 1049.5,-141.581 1056.5,-141.581"/>
</g>
<!-- Node10 -->
<g id="node10" class="node"><title>Node10</title>
<g id="a_node10"><a xlink:href="Index_8inl.html" target="_top" xlink:title="Core/Index/Index.inl">
<polygon fill="white" stroke="black" points="1091,-112.5 1091,-131.5 1195,-131.5 1195,-112.5 1091,-112.5"/>
<text text-anchor="middle" x="1143" y="-119.5" font-family="Helvetica,sans-Serif" font-size="10.00">Core/Index/Index.inl</text>
</a>
</g>
</g>
<!-- Node8&#45;&gt;Node10 -->
<g id="edge11" class="edge"><title>Node8&#45;&gt;Node10</title>
<path fill="none" stroke="midnightblue" d="M1065.89,-174.403C1080.46,-164.691 1104.4,-148.732 1121.75,-137.17"/>
<polygon fill="midnightblue" stroke="midnightblue" points="1123.75,-140.04 1130.13,-131.581 1119.87,-134.215 1123.75,-140.04"/>
</g>
<!-- Node11&#45;&gt;Node8 -->
<g id="edge13" class="edge"><title>Node11&#45;&gt;Node8</title>
<path fill="none" stroke="midnightblue" d="M805.509,-236.461C851.593,-227.71 924.874,-213.51 988,-200 994.169,-198.68 1000.65,-197.242 1007.04,-195.797"/>
<polygon fill="midnightblue" stroke="midnightblue" points="1007.98,-199.175 1016.95,-193.536 1006.42,-192.351 1007.98,-199.175"/>
</g>
<!-- Node12 -->
<g id="node12" class="node"><title>Node12</title>
<g id="a_node12"><a xlink:href="RaCore_8hpp.html" target="_top" xlink:title="Core/RaCore.hpp">
<polygon fill="white" stroke="black" points="668.5,-112.5 668.5,-131.5 761.5,-131.5 761.5,-112.5 668.5,-112.5"/>
<text text-anchor="middle" x="715" y="-119.5" font-family="Helvetica,sans-Serif" font-size="10.00">Core/RaCore.hpp</text>
</a>
</g>
</g>
<!-- Node11&#45;&gt;Node12 -->
<g id="edge14" class="edge"><title>Node11&#45;&gt;Node12</title>
<path fill="none" stroke="midnightblue" d="M782.459,-236.382C797.769,-229.184 816.863,-217.288 826,-200 832.645,-187.426 833.946,-179.795 826,-168 817.738,-155.735 784.393,-143.208 756.387,-134.496"/>
<polygon fill="midnightblue" stroke="midnightblue" points="757.339,-131.128 746.754,-131.581 755.311,-137.828 757.339,-131.128"/>
</g>
<!-- Node13 -->
<g id="node13" class="node"><title>Node13</title>
<g id="a_node13"><a xlink:href="CoreMacros_8hpp.html" target="_top" xlink:title="Core/CoreMacros.hpp">
<polygon fill="white" stroke="black" points="658.5,-56.5 658.5,-75.5 771.5,-75.5 771.5,-56.5 658.5,-56.5"/>
<text text-anchor="middle" x="715" y="-63.5" font-family="Helvetica,sans-Serif" font-size="10.00">Core/CoreMacros.hpp</text>
</a>
</g>
</g>
<!-- Node12&#45;&gt;Node13 -->
<g id="edge15" class="edge"><title>Node12&#45;&gt;Node13</title>
<path fill="none" stroke="midnightblue" d="M715,-112.083C715,-105.006 715,-94.8611 715,-85.9865"/>
<polygon fill="midnightblue" stroke="midnightblue" points="718.5,-85.751 715,-75.7511 711.5,-85.7511 718.5,-85.751"/>
</g>
<!-- Node14 -->
<g id="node14" class="node"><title>Node14</title>
<polygon fill="white" stroke="#bfbfbf" points="559.5,-0.5 559.5,-19.5 608.5,-19.5 608.5,-0.5 559.5,-0.5"/>
<text text-anchor="middle" x="584" y="-7.5" font-family="Helvetica,sans-Serif" font-size="10.00">cassert</text>
</g>
<!-- Node13&#45;&gt;Node14 -->
<g id="edge16" class="edge"><title>Node13&#45;&gt;Node14</title>
<path fill="none" stroke="midnightblue" d="M694.243,-56.4435C672.684,-47.5566 638.737,-33.5632 614.206,-23.4514"/>
<polygon fill="midnightblue" stroke="midnightblue" points="615.239,-20.0917 604.66,-19.5164 612.572,-26.5634 615.239,-20.0917"/>
</g>
<!-- Node15 -->
<g id="node15" class="node"><title>Node15</title>
<polygon fill="white" stroke="#bfbfbf" points="626.5,-0.5 626.5,-19.5 669.5,-19.5 669.5,-0.5 626.5,-0.5"/>
<text text-anchor="middle" x="648" y="-7.5" font-family="Helvetica,sans-Serif" font-size="10.00">cstdio</text>
</g>
<!-- Node13&#45;&gt;Node15 -->
<g id="edge17" class="edge"><title>Node13&#45;&gt;Node15</title>
<path fill="none" stroke="midnightblue" d="M704.235,-56.324C694.234,-48.2631 679.113,-36.0765 667.07,-26.3695"/>
<polygon fill="midnightblue" stroke="midnightblue" points="668.943,-23.3841 658.961,-19.8339 664.55,-28.8343 668.943,-23.3841"/>
</g>
<!-- Node16 -->
<g id="node16" class="node"><title>Node16</title>
<polygon fill="white" stroke="#bfbfbf" points="688,-0.5 688,-19.5 742,-19.5 742,-0.5 688,-0.5"/>
<text text-anchor="middle" x="715" y="-7.5" font-family="Helvetica,sans-Serif" font-size="10.00">iostream</text>
</g>
<!-- Node13&#45;&gt;Node16 -->
<g id="edge18" class="edge"><title>Node13&#45;&gt;Node16</title>
<path fill="none" stroke="midnightblue" d="M715,-56.083C715,-49.0059 715,-38.8611 715,-29.9865"/>
<polygon fill="midnightblue" stroke="midnightblue" points="718.5,-29.751 715,-19.7511 711.5,-29.7511 718.5,-29.751"/>
</g>
<!-- Node17 -->
<g id="node17" class="node"><title>Node17</title>
<polygon fill="white" stroke="#bfbfbf" points="760,-0.5 760,-19.5 812,-19.5 812,-0.5 760,-0.5"/>
<text text-anchor="middle" x="786" y="-7.5" font-family="Helvetica,sans-Serif" font-size="10.00">sstream</text>
</g>
<!-- Node13&#45;&gt;Node17 -->
<g id="edge19" class="edge"><title>Node13&#45;&gt;Node17</title>
<path fill="none" stroke="midnightblue" d="M726.407,-56.324C737.109,-48.1849 753.341,-35.8395 766.163,-26.0874"/>
<polygon fill="midnightblue" stroke="midnightblue" points="768.544,-28.6734 774.385,-19.8339 764.307,-23.1018 768.544,-28.6734"/>
</g>
<!-- Node18 -->
<g id="node18" class="node"><title>Node18</title>
<polygon fill="white" stroke="#bfbfbf" points="830,-0.5 830,-19.5 874,-19.5 874,-0.5 830,-0.5"/>
<text text-anchor="middle" x="852" y="-7.5" font-family="Helvetica,sans-Serif" font-size="10.00">thread</text>
</g>
<!-- Node13&#45;&gt;Node18 -->
<g id="edge20" class="edge"><title>Node13&#45;&gt;Node18</title>
<path fill="none" stroke="midnightblue" d="M736.708,-56.4435C759.355,-47.5171 795.072,-33.4387 820.752,-23.3168"/>
<polygon fill="midnightblue" stroke="midnightblue" points="822.374,-26.4397 830.394,-19.5164 819.807,-19.9273 822.374,-26.4397"/>
</g>
<!-- Node19&#45;&gt;Node7 -->
<g id="edge23" class="edge"><title>Node19&#45;&gt;Node7</title>
<path fill="none" stroke="midnightblue" d="M563.131,-367.751C564.657,-374.858 565.104,-385.136 564.472,-394.101"/>
<polygon fill="midnightblue" stroke="midnightblue" points="560.993,-393.713 563.166,-404.083 567.934,-394.622 560.993,-393.713"/>
</g>
<!-- Node20 -->
<g id="node20" class="node"><title>Node20</title>
<g id="a_node20"><a xlink:href="Face_8hpp.html" target="_top" xlink:title="Core/Mesh/DCEL/Face.hpp">
<polygon fill="white" stroke="black" points="691,-292.5 691,-311.5 829,-311.5 829,-292.5 691,-292.5"/>
<text text-anchor="middle" x="760" y="-299.5" font-family="Helvetica,sans-Serif" font-size="10.00">Core/Mesh/DCEL/Face.hpp</text>
</a>
</g>
</g>
<!-- Node19&#45;&gt;Node20 -->
<g id="edge24" class="edge"><title>Node19&#45;&gt;Node20</title>
<path fill="none" stroke="midnightblue" d="M590.008,-348.444C624.729,-339.162 680.288,-324.309 718.377,-314.127"/>
<polygon fill="midnightblue" stroke="midnightblue" points="719.385,-317.48 728.142,-311.516 717.578,-310.718 719.385,-317.48"/>
</g>
<!-- Node22 -->
<g id="node22" class="node"><title>Node22</title>
<g id="a_node22"><a xlink:href="Vertex_8hpp.html" target="_top" xlink:title="Core/Mesh/DCEL/Vertex.hpp">
<polygon fill="white" stroke="black" points="485.5,-292.5 485.5,-311.5 630.5,-311.5 630.5,-292.5 485.5,-292.5"/>
<text text-anchor="middle" x="558" y="-299.5" font-family="Helvetica,sans-Serif" font-size="10.00">Core/Mesh/DCEL/Vertex.hpp</text>
</a>
</g>
</g>
<!-- Node19&#45;&gt;Node22 -->
<g id="edge31" class="edge"><title>Node19&#45;&gt;Node22</title>
<path fill="none" stroke="midnightblue" d="M558,-348.083C558,-341.006 558,-330.861 558,-321.986"/>
<polygon fill="midnightblue" stroke="midnightblue" points="561.5,-321.751 558,-311.751 554.5,-321.751 561.5,-321.751"/>
</g>
<!-- Node20&#45;&gt;Node3 -->
<g id="edge27" class="edge"><title>Node20&#45;&gt;Node3</title>
<path fill="none" stroke="midnightblue" d="M690.973,-293.94C596.29,-284.257 426.007,-266.842 321.593,-256.163"/>
<polygon fill="midnightblue" stroke="midnightblue" points="321.69,-252.655 311.386,-255.119 320.978,-259.618 321.69,-252.655"/>
</g>
<!-- Node20&#45;&gt;Node8 -->
<g id="edge25" class="edge"><title>Node20&#45;&gt;Node8</title>
<path fill="none" stroke="midnightblue" d="M775.934,-292.329C807.54,-275.145 875.598,-238.224 881,-236 922.285,-219 971.265,-205.048 1006.38,-196.06"/>
<polygon fill="midnightblue" stroke="midnightblue" points="1007.51,-199.384 1016.35,-193.545 1005.8,-192.597 1007.51,-199.384"/>
</g>
<!-- Node20&#45;&gt;Node11 -->
<g id="edge26" class="edge"><title>Node20&#45;&gt;Node11</title>
<path fill="none" stroke="midnightblue" d="M760,-292.083C760,-285.006 760,-274.861 760,-265.986"/>
<polygon fill="midnightblue" stroke="midnightblue" points="763.5,-265.751 760,-255.751 756.5,-265.751 763.5,-265.751"/>
</g>
<!-- Node21 -->
<g id="node21" class="node"><title>Node21</title>
<g id="a_node21"><a xlink:href="Face_8inl.html" target="_top" xlink:title="Core/Mesh/DCEL/Face.inl">
<polygon fill="white" stroke="black" points="890,-236.5 890,-255.5 1022,-255.5 1022,-236.5 890,-236.5"/>
<text text-anchor="middle" x="956" y="-243.5" font-family="Helvetica,sans-Serif" font-size="10.00">Core/Mesh/DCEL/Face.inl</text>
</a>
</g>
</g>
<!-- Node20&#45;&gt;Node21 -->
<g id="edge28" class="edge"><title>Node20&#45;&gt;Node21</title>
<path fill="none" stroke="midnightblue" d="M785.968,-292.444C817.622,-283.162 871.366,-268.309 910.031,-258.127"/>
<polygon fill="midnightblue" stroke="midnightblue" points="911.22,-261.434 920.009,-255.516 909.448,-254.662 911.22,-261.434"/>
</g>
<!-- Node21&#45;&gt;Node7 -->
<g id="edge30" class="edge"><title>Node21&#45;&gt;Node7</title>
<path fill="none" stroke="midnightblue" d="M942.2,-255.538C920.538,-268.724 876.996,-294.358 838,-312 753.784,-350.099 650.56,-384.265 596.003,-401.394"/>
<polygon fill="midnightblue" stroke="midnightblue" points="594.902,-398.072 586.398,-404.392 596.987,-404.754 594.902,-398.072"/>
</g>
<!-- Node21&#45;&gt;Node20 -->
<g id="edge29" class="edge"><title>Node21&#45;&gt;Node20</title>
<path fill="none" stroke="midnightblue" d="M930.168,-255.516C898.578,-264.782 844.844,-279.633 806.136,-289.829"/>
<polygon fill="midnightblue" stroke="midnightblue" points="804.934,-286.526 796.146,-292.444 806.706,-293.298 804.934,-286.526"/>
</g>
<!-- Node22&#45;&gt;Node3 -->
<g id="edge48" class="edge"><title>Node22&#45;&gt;Node3</title>
<path fill="none" stroke="midnightblue" d="M506.344,-292.444C448.521,-282.865 354.887,-267.356 293.377,-257.167"/>
<polygon fill="midnightblue" stroke="midnightblue" points="293.852,-253.698 283.414,-255.516 292.708,-260.604 293.852,-253.698"/>
</g>
<!-- Node22&#45;&gt;Node8 -->
<g id="edge32" class="edge"><title>Node22&#45;&gt;Node8</title>
<path fill="none" stroke="midnightblue" d="M573.508,-292.249C604.272,-274.919 670.542,-237.744 676,-236 808.968,-193.526 850.445,-223.731 988,-200 994.901,-198.809 1002.17,-197.344 1009.24,-195.801"/>
<polygon fill="midnightblue" stroke="midnightblue" points="1010.43,-199.123 1019.41,-193.506 1008.88,-192.294 1010.43,-199.123"/>
</g>
<!-- Node22&#45;&gt;Node11 -->
<g id="edge33" class="edge"><title>Node22&#45;&gt;Node11</title>
<path fill="none" stroke="midnightblue" d="M590.008,-292.444C624.729,-283.162 680.288,-268.309 718.377,-258.127"/>
<polygon fill="midnightblue" stroke="midnightblue" points="719.385,-261.48 728.142,-255.516 717.578,-254.718 719.385,-261.48"/>
</g>
<!-- Node23 -->
<g id="node23" class="node"><title>Node23</title>
<g id="a_node23"><a xlink:href="LinearAlgebra_8hpp.html" target="_top" xlink:title="Core/Math/LinearAlgebra.hpp">
<polygon fill="white" stroke="black" points="486.5,-236.5 486.5,-255.5 629.5,-255.5 629.5,-236.5 486.5,-236.5"/>
<text text-anchor="middle" x="558" y="-243.5" font-family="Helvetica,sans-Serif" font-size="10.00">Core/Math/LinearAlgebra.hpp</text>
</a>
</g>
</g>
<!-- Node22&#45;&gt;Node23 -->
<g id="edge34" class="edge"><title>Node22&#45;&gt;Node23</title>
<path fill="none" stroke="midnightblue" d="M558,-292.083C558,-285.006 558,-274.861 558,-265.986"/>
<polygon fill="midnightblue" stroke="midnightblue" points="561.5,-265.751 558,-255.751 554.5,-265.751 561.5,-265.751"/>
</g>
<!-- Node34 -->
<g id="node34" class="node"><title>Node34</title>
<g id="a_node34"><a xlink:href="Vertex_8inl.html" target="_top" xlink:title="Core/Mesh/DCEL/Vertex.inl">
<polygon fill="white" stroke="black" points="329.5,-236.5 329.5,-255.5 468.5,-255.5 468.5,-236.5 329.5,-236.5"/>
<text text-anchor="middle" x="399" y="-243.5" font-family="Helvetica,sans-Serif" font-size="10.00">Core/Mesh/DCEL/Vertex.inl</text>
</a>
</g>
</g>
<!-- Node22&#45;&gt;Node34 -->
<g id="edge49" class="edge"><title>Node22&#45;&gt;Node34</title>
<path fill="none" stroke="midnightblue" d="M527.717,-292.444C499.226,-283.438 457.057,-269.189 428.748,-259.049"/>
<polygon fill="midnightblue" stroke="midnightblue" points="429.59,-255.632 418.996,-255.516 427.206,-262.213 429.59,-255.632"/>
</g>
<!-- Node23&#45;&gt;Node12 -->
<g id="edge35" class="edge"><title>Node23&#45;&gt;Node12</title>
<path fill="none" stroke="midnightblue" d="M574.191,-236.401C589.601,-227.933 613.166,-214.233 632,-200 657.335,-180.854 683.751,-155.206 699.792,-138.888"/>
<polygon fill="midnightblue" stroke="midnightblue" points="702.322,-141.307 706.783,-131.697 697.303,-136.427 702.322,-141.307"/>
</g>
<!-- Node24 -->
<g id="node24" class="node"><title>Node24</title>
<polygon fill="white" stroke="#bfbfbf" points="132.5,-174.5 132.5,-193.5 197.5,-193.5 197.5,-174.5 132.5,-174.5"/>
<text text-anchor="middle" x="165" y="-181.5" font-family="Helvetica,sans-Serif" font-size="10.00">Eigen/Core</text>
</g>
<!-- Node23&#45;&gt;Node24 -->
<g id="edge36" class="edge"><title>Node23&#45;&gt;Node24</title>
<path fill="none" stroke="midnightblue" d="M486.497,-236.726C391.513,-225.602 232.562,-206.47 206,-200 202.507,-199.149 198.9,-198.098 195.342,-196.951"/>
<polygon fill="midnightblue" stroke="midnightblue" points="196.174,-193.535 185.579,-193.549 193.87,-200.145 196.174,-193.535"/>
</g>
<!-- Node25 -->
<g id="node25" class="node"><title>Node25</title>
<polygon fill="white" stroke="#bfbfbf" points="215.5,-174.5 215.5,-193.5 302.5,-193.5 302.5,-174.5 215.5,-174.5"/>
<text text-anchor="middle" x="259" y="-181.5" font-family="Helvetica,sans-Serif" font-size="10.00">Eigen/Geometry</text>
</g>
<!-- Node23&#45;&gt;Node25 -->
<g id="edge37" class="edge"><title>Node23&#45;&gt;Node25</title>
<path fill="none" stroke="midnightblue" d="M502.244,-236.487C451.965,-228.421 376.137,-215.287 311,-200 306.275,-198.891 301.339,-197.619 296.471,-196.294"/>
<polygon fill="midnightblue" stroke="midnightblue" points="297.234,-192.874 286.66,-193.538 295.341,-199.613 297.234,-192.874"/>
</g>
<!-- Node26 -->
<g id="node26" class="node"><title>Node26</title>
<polygon fill="white" stroke="#bfbfbf" points="320.5,-174.5 320.5,-193.5 395.5,-193.5 395.5,-174.5 320.5,-174.5"/>
<text text-anchor="middle" x="358" y="-181.5" font-family="Helvetica,sans-Serif" font-size="10.00">Eigen/Sparse</text>
</g>
<!-- Node23&#45;&gt;Node26 -->
<g id="edge38" class="edge"><title>Node23&#45;&gt;Node26</title>
<path fill="none" stroke="midnightblue" d="M527.818,-236.479C496.71,-227.627 446.846,-213.242 404,-200 400.607,-198.951 397.08,-197.84 393.555,-196.715"/>
<polygon fill="midnightblue" stroke="midnightblue" points="394.336,-193.289 383.744,-193.55 392.187,-199.951 394.336,-193.289"/>
</g>
<!-- Node27 -->
<g id="node27" class="node"><title>Node27</title>
<polygon fill="white" stroke="#bfbfbf" points="413.5,-174.5 413.5,-193.5 472.5,-193.5 472.5,-174.5 413.5,-174.5"/>
<text text-anchor="middle" x="443" y="-181.5" font-family="Helvetica,sans-Serif" font-size="10.00">functional</text>
</g>
<!-- Node23&#45;&gt;Node27 -->
<g id="edge39" class="edge"><title>Node23&#45;&gt;Node27</title>
<path fill="none" stroke="midnightblue" d="M541.523,-236.403C522.395,-226.423 490.627,-209.849 468.348,-198.225"/>
<polygon fill="midnightblue" stroke="midnightblue" points="469.931,-195.103 459.446,-193.581 466.693,-201.309 469.931,-195.103"/>
</g>
<!-- Node28 -->
<g id="node28" class="node"><title>Node28</title>
<polygon fill="white" stroke="#bfbfbf" points="490.5,-169 490.5,-199 623.5,-199 623.5,-169 490.5,-169"/>
<text text-anchor="start" x="498.5" y="-187" font-family="Helvetica,sans-Serif" font-size="10.00">unsupported/Eigen/Aligned</text>
<text text-anchor="middle" x="557" y="-176" font-family="Helvetica,sans-Serif" font-size="10.00">Vector3</text>
</g>
<!-- Node23&#45;&gt;Node28 -->
<g id="edge40" class="edge"><title>Node23&#45;&gt;Node28</title>
<path fill="none" stroke="midnightblue" d="M557.857,-236.403C557.739,-229.341 557.566,-218.975 557.407,-209.399"/>
<polygon fill="midnightblue" stroke="midnightblue" points="560.902,-209.081 557.236,-199.141 553.903,-209.198 560.902,-209.081"/>
</g>
<!-- Node29 -->
<g id="node29" class="node"><title>Node29</title>
<g id="a_node29"><a xlink:href="Math_8hpp.html" target="_top" xlink:title="Core/Math/Math.hpp">
<polygon fill="white" stroke="black" points="874,-174.5 874,-193.5 980,-193.5 980,-174.5 874,-174.5"/>
<text text-anchor="middle" x="927" y="-181.5" font-family="Helvetica,sans-Serif" font-size="10.00">Core/Math/Math.hpp</text>
</a>
</g>
</g>
<!-- Node23&#45;&gt;Node29 -->
<g id="edge41" class="edge"><title>Node23&#45;&gt;Node29</title>
<path fill="none" stroke="midnightblue" d="M610.477,-236.467C677.422,-225.582 793.066,-206.778 864.497,-195.163"/>
<polygon fill="midnightblue" stroke="midnightblue" points="865.396,-198.563 874.704,-193.503 864.272,-191.654 865.396,-198.563"/>
</g>
<!-- Node33 -->
<g id="node33" class="node"><title>Node33</title>
<g id="a_node33"><a xlink:href="LinearAlgebra_8inl.html" target="_top" xlink:title="Core/Math/LinearAlgebra.inl">
<polygon fill="white" stroke="black" points="680.5,-174.5 680.5,-193.5 817.5,-193.5 817.5,-174.5 680.5,-174.5"/>
<text text-anchor="middle" x="749" y="-181.5" font-family="Helvetica,sans-Serif" font-size="10.00">Core/Math/LinearAlgebra.inl</text>
</a>
</g>
</g>
<!-- Node23&#45;&gt;Node33 -->
<g id="edge47" class="edge"><title>Node23&#45;&gt;Node33</title>
<path fill="none" stroke="midnightblue" d="M585.366,-236.403C618.554,-225.978 674.651,-208.356 711.758,-196.699"/>
<polygon fill="midnightblue" stroke="midnightblue" points="713.194,-199.917 721.685,-193.581 711.096,-193.239 713.194,-199.917"/>
</g>
<!-- Node29&#45;&gt;Node12 -->
<g id="edge42" class="edge"><title>Node29&#45;&gt;Node12</title>
<path fill="none" stroke="midnightblue" d="M896.626,-174.403C859.394,-163.866 796.19,-145.978 755.024,-134.328"/>
<polygon fill="midnightblue" stroke="midnightblue" points="755.893,-130.936 745.318,-131.581 753.987,-137.672 755.893,-130.936"/>
</g>
<!-- Node30 -->
<g id="node30" class="node"><title>Node30</title>
<polygon fill="white" stroke="#bfbfbf" points="779,-112.5 779,-131.5 835,-131.5 835,-112.5 779,-112.5"/>
<text text-anchor="middle" x="807" y="-119.5" font-family="Helvetica,sans-Serif" font-size="10.00">algorithm</text>
</g>
<!-- Node29&#45;&gt;Node30 -->
<g id="edge43" class="edge"><title>Node29&#45;&gt;Node30</title>
<path fill="none" stroke="midnightblue" d="M909.807,-174.403C889.757,-164.379 856.401,-147.701 833.14,-136.07"/>
<polygon fill="midnightblue" stroke="midnightblue" points="834.671,-132.922 824.161,-131.581 831.54,-139.183 834.671,-132.922"/>
</g>
<!-- Node31 -->
<g id="node31" class="node"><title>Node31</title>
<polygon fill="white" stroke="#bfbfbf" points="853,-112.5 853,-131.5 897,-131.5 897,-112.5 853,-112.5"/>
<text text-anchor="middle" x="875" y="-119.5" font-family="Helvetica,sans-Serif" font-size="10.00">cmath</text>
</g>
<!-- Node29&#45;&gt;Node31 -->
<g id="edge44" class="edge"><title>Node29&#45;&gt;Node31</title>
<path fill="none" stroke="midnightblue" d="M919.55,-174.403C911.672,-165.314 899.055,-150.756 889.256,-139.449"/>
<polygon fill="midnightblue" stroke="midnightblue" points="891.631,-136.845 882.437,-131.581 886.341,-141.43 891.631,-136.845"/>
</g>
<!-- Node32 -->
<g id="node32" class="node"><title>Node32</title>
<g id="a_node32"><a xlink:href="Math_8inl.html" target="_top" xlink:title="Core/Math/Math.inl">
<polygon fill="white" stroke="black" points="915,-112.5 915,-131.5 1015,-131.5 1015,-112.5 915,-112.5"/>
<text text-anchor="middle" x="965" y="-119.5" font-family="Helvetica,sans-Serif" font-size="10.00">Core/Math/Math.inl</text>
</a>
</g>
</g>
<!-- Node29&#45;&gt;Node32 -->
<g id="edge45" class="edge"><title>Node29&#45;&gt;Node32</title>
<path fill="none" stroke="midnightblue" d="M927.544,-174.403C931.334,-165.314 940.156,-150.756 948.486,-139.449"/>
<polygon fill="midnightblue" stroke="midnightblue" points="951.242,-141.606 954.668,-131.581 945.738,-137.281 951.242,-141.606"/>
</g>
<!-- Node32&#45;&gt;Node29 -->
<g id="edge46" class="edge"><title>Node32&#45;&gt;Node29</title>
<path fill="none" stroke="midnightblue" d="M964.463,-131.581C960.678,-140.663 951.859,-155.22 943.529,-166.531"/>
<polygon fill="midnightblue" stroke="midnightblue" points="940.77,-164.377 937.345,-174.403 946.275,-168.701 940.77,-164.377"/>
</g>
<!-- Node34&#45;&gt;Node7 -->
<g id="edge51" class="edge"><title>Node34&#45;&gt;Node7</title>
<path fill="none" stroke="midnightblue" d="M402.389,-255.691C411.139,-277.188 436.396,-333.598 473,-368 487.849,-381.956 507.859,-392.833 524.734,-400.395"/>
<polygon fill="midnightblue" stroke="midnightblue" points="523.674,-403.748 534.245,-404.462 526.427,-397.312 523.674,-403.748"/>
</g>
<!-- Node34&#45;&gt;Node22 -->
<g id="edge50" class="edge"><title>Node34&#45;&gt;Node22</title>
<path fill="none" stroke="midnightblue" d="M429.156,-255.516C457.607,-264.506 499.776,-278.754 528.126,-288.906"/>
<polygon fill="midnightblue" stroke="midnightblue" points="527.301,-292.329 537.895,-292.444 529.684,-285.748 527.301,-292.329"/>
</g>
<!-- Node35&#45;&gt;Node1 -->
<g id="edge53" class="edge"><title>Node35&#45;&gt;Node1</title>
<path fill="none" stroke="midnightblue" d="M562.192,-491.01C564.879,-512.847 565.449,-555.68 563.902,-586.426"/>
<polygon fill="midnightblue" stroke="midnightblue" points="560.388,-586.547 563.267,-596.743 567.375,-586.977 560.388,-586.547"/>
</g>
<!-- Node35&#45;&gt;Node7 -->
<g id="edge55" class="edge"><title>Node35&#45;&gt;Node7</title>
<path fill="none" stroke="midnightblue" d="M558,-460.781C558,-452.781 558,-442.689 558,-434.017"/>
<polygon fill="midnightblue" stroke="midnightblue" points="561.5,-433.73 558,-423.731 554.5,-433.731 561.5,-433.73"/>
</g>
<!-- Node35&#45;&gt;Node20 -->
<g id="edge54" class="edge"><title>Node35&#45;&gt;Node20</title>
<path fill="none" stroke="midnightblue" d="M586.717,-460.803C604.328,-451.471 626.893,-438.361 645,-424 686.053,-391.441 726.478,-344.519 746.687,-319.762"/>
<polygon fill="midnightblue" stroke="midnightblue" points="749.627,-321.692 753.181,-311.711 744.178,-317.297 749.627,-321.692"/>
</g>
</g>
</svg>
