<?xml version="1.0" encoding="UTF-8" standalone="no"?>
<!DOCTYPE svg PUBLIC "-//W3C//DTD SVG 1.1//EN"
 "http://www.w3.org/Graphics/SVG/1.1/DTD/svg11.dtd">
<!-- Generated by graphviz version 2.36.0 (20140111.2315)
 -->
<!-- Title: /home/travis/build/STORM&#45;IRIT/Radium&#45;Engine/src/Core/Mesh/DCEL/Iterator/Face/FaceIterator.inl Pages: 1 -->
<svg width="1196pt" height="726pt"
 viewBox="0.00 0.00 1196.00 726.00" xmlns="http://www.w3.org/2000/svg" xmlns:xlink="http://www.w3.org/1999/xlink">
<g id="graph0" class="graph" transform="scale(1 1) rotate(0) translate(4 722)">
<title>/home/travis/build/STORM&#45;IRIT/Radium&#45;Engine/src/Core/Mesh/DCEL/Iterator/Face/FaceIterator.inl</title>
<polygon fill="white" stroke="none" points="-4,4 -4,-722 1192,-722 1192,4 -4,4"/>
<!-- Node1 -->
<g id="node1" class="node"><title>Node1</title>
<polygon fill="#bfbfbf" stroke="black" points="738,-665 738,-717 886,-717 886,-665 738,-665"/>
<text text-anchor="start" x="746" y="-705" font-family="Helvetica,sans-Serif" font-size="10.00">/home/travis/build</text>
<text text-anchor="start" x="746" y="-694" font-family="Helvetica,sans-Serif" font-size="10.00">/STORM&#45;IRIT/Radium&#45;Engine</text>
<text text-anchor="start" x="746" y="-683" font-family="Helvetica,sans-Serif" font-size="10.00">/src/Core/Mesh/DCEL/Iterator</text>
<text text-anchor="middle" x="812" y="-672" font-family="Helvetica,sans-Serif" font-size="10.00">/Face/FaceIterator.inl</text>
</g>
<!-- Node2 -->
<g id="node2" class="node"><title>Node2</title>
<g id="a_node2"><a xlink:href="FaceIterator_8hpp.html" target="_top" xlink:title="Core/Mesh/DCEL/Iterator\l/Face/FaceIterator.hpp">
<polygon fill="white" stroke="black" points="702,-597 702,-627 830,-627 830,-597 702,-597"/>
<text text-anchor="start" x="710" y="-615" font-family="Helvetica,sans-Serif" font-size="10.00">Core/Mesh/DCEL/Iterator</text>
<text text-anchor="middle" x="766" y="-604" font-family="Helvetica,sans-Serif" font-size="10.00">/Face/FaceIterator.hpp</text>
</a>
</g>
</g>
<!-- Node1&#45;&gt;Node2 -->
<g id="edge1" class="edge"><title>Node1&#45;&gt;Node2</title>
<path fill="none" stroke="midnightblue" d="M790.559,-664.787C784.564,-655.64 778.456,-645.351 773.698,-636.37"/>
<polygon fill="midnightblue" stroke="midnightblue" points="776.739,-634.627 769.133,-627.252 770.48,-637.761 776.739,-634.627"/>
</g>
<!-- Node8 -->
<g id="node8" class="node"><title>Node8</title>
<g id="a_node8"><a xlink:href="DCEL_2HalfEdge_8hpp.html" target="_top" xlink:title="Core/Mesh/DCEL/HalfEdge.hpp">
<polygon fill="white" stroke="black" points="779.5,-404.5 779.5,-423.5 936.5,-423.5 936.5,-404.5 779.5,-404.5"/>
<text text-anchor="middle" x="858" y="-411.5" font-family="Helvetica,sans-Serif" font-size="10.00">Core/Mesh/DCEL/HalfEdge.hpp</text>
</a>
</g>
</g>
<!-- Node1&#45;&gt;Node8 -->
<g id="edge55" class="edge"><title>Node1&#45;&gt;Node8</title>
<path fill="none" stroke="midnightblue" d="M825.213,-664.714C830.373,-653.72 835.807,-640.513 839,-628 856.808,-558.21 858.537,-471.871 858.33,-434.146"/>
<polygon fill="midnightblue" stroke="midnightblue" points="861.825,-433.649 858.213,-423.689 854.825,-433.728 861.825,-433.649"/>
</g>
<!-- Node21 -->
<g id="node21" class="node"><title>Node21</title>
<g id="a_node21"><a xlink:href="Face_8hpp.html" target="_top" xlink:title="Core/Mesh/DCEL/Face.hpp">
<polygon fill="white" stroke="black" points="957,-292.5 957,-311.5 1095,-311.5 1095,-292.5 957,-292.5"/>
<text text-anchor="middle" x="1026" y="-299.5" font-family="Helvetica,sans-Serif" font-size="10.00">Core/Mesh/DCEL/Face.hpp</text>
</a>
</g>
</g>
<!-- Node1&#45;&gt;Node21 -->
<g id="edge54" class="edge"><title>Node1&#45;&gt;Node21</title>
<path fill="none" stroke="midnightblue" d="M886.238,-682.396C967.079,-669.533 1085,-635.294 1085,-545 1085,-545 1085,-545 1085,-413 1085,-382.775 1079.66,-374.434 1065,-348 1059.13,-337.422 1050.48,-327.113 1042.82,-319.037"/>
<polygon fill="midnightblue" stroke="midnightblue" points="1045.15,-316.416 1035.62,-311.778 1040.18,-321.344 1045.15,-316.416"/>
</g>
<!-- Node2&#45;&gt;Node1 -->
<g id="edge53" class="edge"><title>Node2&#45;&gt;Node1</title>
<path fill="none" stroke="midnightblue" d="M779.895,-627.252C785.764,-635.297 792.437,-645.724 798.258,-655.76"/>
<polygon fill="midnightblue" stroke="midnightblue" points="795.375,-657.775 803.317,-664.787 801.482,-654.353 795.375,-657.775"/>
</g>
<!-- Node3 -->
<g id="node3" class="node"><title>Node3</title>
<g id="a_node3"><a xlink:href="Iterator_8hpp.html" target="_top" xlink:title="Core/Mesh/DCEL/Iterator\l/Iterator.hpp">
<polygon fill="white" stroke="black" points="536,-529 536,-559 664,-559 664,-529 536,-529"/>
<text text-anchor="start" x="544" y="-547" font-family="Helvetica,sans-Serif" font-size="10.00">Core/Mesh/DCEL/Iterator</text>
<text text-anchor="middle" x="600" y="-536" font-family="Helvetica,sans-Serif" font-size="10.00">/Iterator.hpp</text>
</a>
</g>
</g>
<!-- Node2&#45;&gt;Node3 -->
<g id="edge2" class="edge"><title>Node2&#45;&gt;Node3</title>
<path fill="none" stroke="midnightblue" d="M730.389,-596.841C705.359,-586.89 671.683,-573.5 644.825,-562.822"/>
<polygon fill="midnightblue" stroke="midnightblue" points="645.853,-559.464 635.267,-559.022 643.266,-565.969 645.853,-559.464"/>
</g>
<!-- Node4 -->
<g id="node4" class="node"><title>Node4</title>
<g id="a_node4"><a xlink:href="Definition_8hpp.html" target="_top" xlink:title="Core/Mesh/DCEL/Definition.hpp">
<polygon fill="white" stroke="black" points="281,-236.5 281,-255.5 439,-255.5 439,-236.5 281,-236.5"/>
<text text-anchor="middle" x="360" y="-243.5" font-family="Helvetica,sans-Serif" font-size="10.00">Core/Mesh/DCEL/Definition.hpp</text>
</a>
</g>
</g>
<!-- Node3&#45;&gt;Node4 -->
<g id="edge3" class="edge"><title>Node3&#45;&gt;Node4</title>
<path fill="none" stroke="midnightblue" d="M535.774,-533.017C471.786,-518.99 383,-486.623 383,-415 383,-415 383,-415 383,-357 383,-324.12 373.032,-286.86 366.221,-265.235"/>
<polygon fill="midnightblue" stroke="midnightblue" points="369.54,-264.125 363.102,-255.711 362.888,-266.303 369.54,-264.125"/>
</g>
<!-- Node6 -->
<g id="node6" class="node"><title>Node6</title>
<polygon fill="white" stroke="#bfbfbf" points="0,-174.5 0,-193.5 44,-193.5 44,-174.5 0,-174.5"/>
<text text-anchor="middle" x="22" y="-181.5" font-family="Helvetica,sans-Serif" font-size="10.00">vector</text>
</g>
<!-- Node3&#45;&gt;Node6 -->
<g id="edge6" class="edge"><title>Node3&#45;&gt;Node6</title>
<path fill="none" stroke="midnightblue" d="M535.526,-538.15C411.097,-527.008 150,-494.193 150,-415 150,-415 150,-415 150,-301 150,-272.8 80.9228,-223.431 44.2593,-199.214"/>
<polygon fill="midnightblue" stroke="midnightblue" points="45.9856,-196.162 35.6982,-193.628 42.1601,-202.024 45.9856,-196.162"/>
</g>
<!-- Node7 -->
<g id="node7" class="node"><title>Node7</title>
<g id="a_node7"><a xlink:href="Iterator_8inl.html" target="_top" xlink:title="Core/Mesh/DCEL/Iterator\l/Iterator.inl">
<polygon fill="white" stroke="black" points="536,-461 536,-491 664,-491 664,-461 536,-461"/>
<text text-anchor="start" x="544" y="-479" font-family="Helvetica,sans-Serif" font-size="10.00">Core/Mesh/DCEL/Iterator</text>
<text text-anchor="middle" x="600" y="-468" font-family="Helvetica,sans-Serif" font-size="10.00">/Iterator.inl</text>
</a>
</g>
</g>
<!-- Node3&#45;&gt;Node7 -->
<g id="edge7" class="edge"><title>Node3&#45;&gt;Node7</title>
<path fill="none" stroke="midnightblue" d="M594.322,-528.679C593.294,-520.722 593.005,-510.605 593.456,-501.436"/>
<polygon fill="midnightblue" stroke="midnightblue" points="596.959,-501.555 594.325,-491.293 589.984,-500.958 596.959,-501.555"/>
</g>
<!-- Node5 -->
<g id="node5" class="node"><title>Node5</title>
<polygon fill="white" stroke="#bfbfbf" points="62,-174.5 62,-193.5 114,-193.5 114,-174.5 62,-174.5"/>
<text text-anchor="middle" x="88" y="-181.5" font-family="Helvetica,sans-Serif" font-size="10.00">memory</text>
</g>
<!-- Node4&#45;&gt;Node5 -->
<g id="edge4" class="edge"><title>Node4&#45;&gt;Node5</title>
<path fill="none" stroke="midnightblue" d="M294.448,-236.468C246.344,-229.267 179.78,-217.332 123,-200 120.51,-199.24 117.959,-198.359 115.423,-197.412"/>
<polygon fill="midnightblue" stroke="midnightblue" points="116.468,-194.06 105.886,-193.551 113.841,-200.548 116.468,-194.06"/>
</g>
<!-- Node4&#45;&gt;Node6 -->
<g id="edge5" class="edge"><title>Node4&#45;&gt;Node6</title>
<path fill="none" stroke="midnightblue" d="M280.951,-240.066C218.072,-234.565 128.436,-223.178 53,-200 50.8639,-199.344 48.6908,-198.559 46.537,-197.698"/>
<polygon fill="midnightblue" stroke="midnightblue" points="47.9492,-194.496 37.393,-193.592 45.0814,-200.881 47.9492,-194.496"/>
</g>
<!-- Node7&#45;&gt;Node3 -->
<g id="edge8" class="edge"><title>Node7&#45;&gt;Node3</title>
<path fill="none" stroke="midnightblue" d="M605.675,-491.293C606.704,-499.245 606.995,-509.361 606.545,-518.532"/>
<polygon fill="midnightblue" stroke="midnightblue" points="603.042,-518.417 605.678,-528.679 610.017,-519.013 603.042,-518.417"/>
</g>
<!-- Node7&#45;&gt;Node8 -->
<g id="edge9" class="edge"><title>Node7&#45;&gt;Node8</title>
<path fill="none" stroke="midnightblue" d="M660.49,-460.933C706.681,-450.19 769.383,-435.609 811.644,-425.78"/>
<polygon fill="midnightblue" stroke="midnightblue" points="812.448,-429.187 821.395,-423.513 810.863,-422.369 812.448,-429.187"/>
</g>
<!-- Node8&#45;&gt;Node4 -->
<g id="edge22" class="edge"><title>Node8&#45;&gt;Node4</title>
<path fill="none" stroke="midnightblue" d="M815.828,-404.469C777.842,-396.39 720.664,-383.249 672,-368 565.531,-334.637 443.219,-283.235 388.752,-259.635"/>
<polygon fill="midnightblue" stroke="midnightblue" points="389.957,-256.342 379.391,-255.562 387.164,-262.761 389.957,-256.342"/>
</g>
<!-- Node9 -->
<g id="node9" class="node"><title>Node9</title>
<g id="a_node9"><a xlink:href="Index_8hpp.html" target="_top" xlink:title="Core/Index/Index.hpp">
<polygon fill="white" stroke="black" points="998,-174.5 998,-193.5 1108,-193.5 1108,-174.5 998,-174.5"/>
<text text-anchor="middle" x="1053" y="-181.5" font-family="Helvetica,sans-Serif" font-size="10.00">Core/Index/Index.hpp</text>
</a>
</g>
</g>
<!-- Node8&#45;&gt;Node9 -->
<g id="edge10" class="edge"><title>Node8&#45;&gt;Node9</title>
<path fill="none" stroke="midnightblue" d="M862.35,-404.21C868.885,-391.351 881.973,-366.891 896,-348 940.105,-288.601 1004.27,-228.397 1035.12,-200.708"/>
<polygon fill="midnightblue" stroke="midnightblue" points="1037.75,-203.051 1042.89,-193.788 1033.1,-197.823 1037.75,-203.051"/>
</g>
<!-- Node12 -->
<g id="node12" class="node"><title>Node12</title>
<g id="a_node12"><a xlink:href="IndexedObject_8hpp.html" target="_top" xlink:title="Core/Index/IndexedObject.hpp">
<polygon fill="white" stroke="black" points="813.5,-236.5 813.5,-255.5 962.5,-255.5 962.5,-236.5 813.5,-236.5"/>
<text text-anchor="middle" x="888" y="-243.5" font-family="Helvetica,sans-Serif" font-size="10.00">Core/Index/IndexedObject.hpp</text>
</a>
</g>
</g>
<!-- Node8&#45;&gt;Node12 -->
<g id="edge13" class="edge"><title>Node8&#45;&gt;Node12</title>
<path fill="none" stroke="midnightblue" d="M858.217,-404.114C858.63,-391.545 859.796,-367.89 863,-348 867.727,-318.657 876.704,-285.312 882.516,-265.23"/>
<polygon fill="midnightblue" stroke="midnightblue" points="885.9,-266.129 885.372,-255.547 879.186,-264.148 885.9,-266.129"/>
</g>
<!-- Node20 -->
<g id="node20" class="node"><title>Node20</title>
<g id="a_node20"><a xlink:href="DCEL_2HalfEdge_8inl.html" target="_top" xlink:title="Core/Mesh/DCEL/HalfEdge.inl">
<polygon fill="white" stroke="black" points="905.5,-348.5 905.5,-367.5 1056.5,-367.5 1056.5,-348.5 905.5,-348.5"/>
<text text-anchor="middle" x="981" y="-355.5" font-family="Helvetica,sans-Serif" font-size="10.00">Core/Mesh/DCEL/HalfEdge.inl</text>
</a>
</g>
</g>
<!-- Node8&#45;&gt;Node20 -->
<g id="edge23" class="edge"><title>Node8&#45;&gt;Node20</title>
<path fill="none" stroke="midnightblue" d="M872.647,-404.324C890.984,-395.428 922.469,-381.507 946.878,-371.439"/>
<polygon fill="midnightblue" stroke="midnightblue" points="948.234,-374.666 956.177,-367.655 945.595,-368.183 948.234,-374.666"/>
</g>
<!-- Node10 -->
<g id="node10" class="node"><title>Node10</title>
<polygon fill="white" stroke="#bfbfbf" points="988,-112.5 988,-131.5 1028,-131.5 1028,-112.5 988,-112.5"/>
<text text-anchor="middle" x="1008" y="-119.5" font-family="Helvetica,sans-Serif" font-size="10.00">limits</text>
</g>
<!-- Node9&#45;&gt;Node10 -->
<g id="edge11" class="edge"><title>Node9&#45;&gt;Node10</title>
<path fill="none" stroke="midnightblue" d="M1046.55,-174.403C1039.8,-165.403 1029.03,-151.041 1020.59,-139.782"/>
<polygon fill="midnightblue" stroke="midnightblue" points="1023.24,-137.481 1014.44,-131.581 1017.64,-141.681 1023.24,-137.481"/>
</g>
<!-- Node11 -->
<g id="node11" class="node"><title>Node11</title>
<g id="a_node11"><a xlink:href="Index_8inl.html" target="_top" xlink:title="Core/Index/Index.inl">
<polygon fill="white" stroke="black" points="1046,-112.5 1046,-131.5 1150,-131.5 1150,-112.5 1046,-112.5"/>
<text text-anchor="middle" x="1098" y="-119.5" font-family="Helvetica,sans-Serif" font-size="10.00">Core/Index/Index.inl</text>
</a>
</g>
</g>
<!-- Node9&#45;&gt;Node11 -->
<g id="edge12" class="edge"><title>Node9&#45;&gt;Node11</title>
<path fill="none" stroke="midnightblue" d="M1059.45,-174.403C1066.2,-165.403 1076.97,-151.041 1085.41,-139.782"/>
<polygon fill="midnightblue" stroke="midnightblue" points="1088.36,-141.681 1091.56,-131.581 1082.76,-137.481 1088.36,-141.681"/>
</g>
<!-- Node12&#45;&gt;Node9 -->
<g id="edge14" class="edge"><title>Node12&#45;&gt;Node9</title>
<path fill="none" stroke="midnightblue" d="M911.64,-236.403C940.066,-226.067 987.945,-208.656 1020,-196.999"/>
<polygon fill="midnightblue" stroke="midnightblue" points="1021.2,-200.287 1029.4,-193.581 1018.81,-193.709 1021.2,-200.287"/>
</g>
<!-- Node13 -->
<g id="node13" class="node"><title>Node13</title>
<g id="a_node13"><a xlink:href="RaCore_8hpp.html" target="_top" xlink:title="Core/RaCore.hpp">
<polygon fill="white" stroke="black" points="730.5,-112.5 730.5,-131.5 823.5,-131.5 823.5,-112.5 730.5,-112.5"/>
<text text-anchor="middle" x="777" y="-119.5" font-family="Helvetica,sans-Serif" font-size="10.00">Core/RaCore.hpp</text>
</a>
</g>
</g>
<!-- Node12&#45;&gt;Node13 -->
<g id="edge15" class="edge"><title>Node12&#45;&gt;Node13</title>
<path fill="none" stroke="midnightblue" d="M908.223,-236.495C922.771,-229.168 941.301,-217.063 950,-200 956.46,-187.329 958.699,-179.251 950,-168 935.705,-149.511 878.352,-137.202 833.552,-130.2"/>
<polygon fill="midnightblue" stroke="midnightblue" points="834.037,-126.734 823.627,-128.702 832.992,-133.655 834.037,-126.734"/>
</g>
<!-- Node14 -->
<g id="node14" class="node"><title>Node14</title>
<g id="a_node14"><a xlink:href="CoreMacros_8hpp.html" target="_top" xlink:title="Core/CoreMacros.hpp">
<polygon fill="white" stroke="black" points="720.5,-56.5 720.5,-75.5 833.5,-75.5 833.5,-56.5 720.5,-56.5"/>
<text text-anchor="middle" x="777" y="-63.5" font-family="Helvetica,sans-Serif" font-size="10.00">Core/CoreMacros.hpp</text>
</a>
</g>
</g>
<!-- Node13&#45;&gt;Node14 -->
<g id="edge16" class="edge"><title>Node13&#45;&gt;Node14</title>
<path fill="none" stroke="midnightblue" d="M777,-112.083C777,-105.006 777,-94.8611 777,-85.9865"/>
<polygon fill="midnightblue" stroke="midnightblue" points="780.5,-85.751 777,-75.7511 773.5,-85.7511 780.5,-85.751"/>
</g>
<!-- Node15 -->
<g id="node15" class="node"><title>Node15</title>
<polygon fill="white" stroke="#bfbfbf" points="621.5,-0.5 621.5,-19.5 670.5,-19.5 670.5,-0.5 621.5,-0.5"/>
<text text-anchor="middle" x="646" y="-7.5" font-family="Helvetica,sans-Serif" font-size="10.00">cassert</text>
</g>
<!-- Node14&#45;&gt;Node15 -->
<g id="edge17" class="edge"><title>Node14&#45;&gt;Node15</title>
<path fill="none" stroke="midnightblue" d="M756.243,-56.4435C734.684,-47.5566 700.737,-33.5632 676.206,-23.4514"/>
<polygon fill="midnightblue" stroke="midnightblue" points="677.239,-20.0917 666.66,-19.5164 674.572,-26.5634 677.239,-20.0917"/>
</g>
<!-- Node16 -->
<g id="node16" class="node"><title>Node16</title>
<polygon fill="white" stroke="#bfbfbf" points="688.5,-0.5 688.5,-19.5 731.5,-19.5 731.5,-0.5 688.5,-0.5"/>
<text text-anchor="middle" x="710" y="-7.5" font-family="Helvetica,sans-Serif" font-size="10.00">cstdio</text>
</g>
<!-- Node14&#45;&gt;Node16 -->
<g id="edge18" class="edge"><title>Node14&#45;&gt;Node16</title>
<path fill="none" stroke="midnightblue" d="M766.235,-56.324C756.234,-48.2631 741.113,-36.0765 729.07,-26.3695"/>
<polygon fill="midnightblue" stroke="midnightblue" points="730.943,-23.3841 720.961,-19.8339 726.55,-28.8343 730.943,-23.3841"/>
</g>
<!-- Node17 -->
<g id="node17" class="node"><title>Node17</title>
<polygon fill="white" stroke="#bfbfbf" points="750,-0.5 750,-19.5 804,-19.5 804,-0.5 750,-0.5"/>
<text text-anchor="middle" x="777" y="-7.5" font-family="Helvetica,sans-Serif" font-size="10.00">iostream</text>
</g>
<!-- Node14&#45;&gt;Node17 -->
<g id="edge19" class="edge"><title>Node14&#45;&gt;Node17</title>
<path fill="none" stroke="midnightblue" d="M777,-56.083C777,-49.0059 777,-38.8611 777,-29.9865"/>
<polygon fill="midnightblue" stroke="midnightblue" points="780.5,-29.751 777,-19.7511 773.5,-29.7511 780.5,-29.751"/>
</g>
<!-- Node18 -->
<g id="node18" class="node"><title>Node18</title>
<polygon fill="white" stroke="#bfbfbf" points="822,-0.5 822,-19.5 874,-19.5 874,-0.5 822,-0.5"/>
<text text-anchor="middle" x="848" y="-7.5" font-family="Helvetica,sans-Serif" font-size="10.00">sstream</text>
</g>
<!-- Node14&#45;&gt;Node18 -->
<g id="edge20" class="edge"><title>Node14&#45;&gt;Node18</title>
<path fill="none" stroke="midnightblue" d="M788.407,-56.324C799.109,-48.1849 815.341,-35.8395 828.163,-26.0874"/>
<polygon fill="midnightblue" stroke="midnightblue" points="830.544,-28.6734 836.385,-19.8339 826.307,-23.1018 830.544,-28.6734"/>
</g>
<!-- Node19 -->
<g id="node19" class="node"><title>Node19</title>
<polygon fill="white" stroke="#bfbfbf" points="892,-0.5 892,-19.5 936,-19.5 936,-0.5 892,-0.5"/>
<text text-anchor="middle" x="914" y="-7.5" font-family="Helvetica,sans-Serif" font-size="10.00">thread</text>
</g>
<!-- Node14&#45;&gt;Node19 -->
<g id="edge21" class="edge"><title>Node14&#45;&gt;Node19</title>
<path fill="none" stroke="midnightblue" d="M798.708,-56.4435C821.355,-47.5171 857.072,-33.4387 882.752,-23.3168"/>
<polygon fill="midnightblue" stroke="midnightblue" points="884.374,-26.4397 892.394,-19.5164 881.807,-19.9273 884.374,-26.4397"/>
</g>
<!-- Node20&#45;&gt;Node8 -->
<g id="edge24" class="edge"><title>Node20&#45;&gt;Node8</title>
<path fill="none" stroke="midnightblue" d="M966.681,-367.516C948.347,-376.427 916.516,-390.504 891.936,-400.638"/>
<polygon fill="midnightblue" stroke="midnightblue" points="890.523,-397.434 882.578,-404.444 893.16,-403.918 890.523,-397.434"/>
</g>
<!-- Node20&#45;&gt;Node21 -->
<g id="edge25" class="edge"><title>Node20&#45;&gt;Node21</title>
<path fill="none" stroke="midnightblue" d="M988.431,-348.083C994.853,-340.377 1004.31,-329.033 1012.12,-319.653"/>
<polygon fill="midnightblue" stroke="midnightblue" points="1014.99,-321.674 1018.71,-311.751 1009.62,-317.193 1014.99,-321.674"/>
</g>
<!-- Node23 -->
<g id="node23" class="node"><title>Node23</title>
<g id="a_node23"><a xlink:href="Vertex_8hpp.html" target="_top" xlink:title="Core/Mesh/DCEL/Vertex.hpp">
<polygon fill="white" stroke="black" points="613.5,-292.5 613.5,-311.5 758.5,-311.5 758.5,-292.5 613.5,-292.5"/>
<text text-anchor="middle" x="686" y="-299.5" font-family="Helvetica,sans-Serif" font-size="10.00">Core/Mesh/DCEL/Vertex.hpp</text>
</a>
</g>
</g>
<!-- Node20&#45;&gt;Node23 -->
<g id="edge32" class="edge"><title>Node20&#45;&gt;Node23</title>
<path fill="none" stroke="midnightblue" d="M934.256,-348.444C882.255,-338.925 798.249,-323.547 742.576,-313.356"/>
<polygon fill="midnightblue" stroke="midnightblue" points="742.992,-309.874 732.525,-311.516 741.731,-316.76 742.992,-309.874"/>
</g>
<!-- Node21&#45;&gt;Node4 -->
<g id="edge28" class="edge"><title>Node21&#45;&gt;Node4</title>
<path fill="none" stroke="midnightblue" d="M956.557,-296.139C849.891,-288.552 639.028,-273.076 449.308,-256.098"/>
<polygon fill="midnightblue" stroke="midnightblue" points="449.418,-252.594 439.145,-255.186 448.792,-259.566 449.418,-252.594"/>
</g>
<!-- Node21&#45;&gt;Node9 -->
<g id="edge26" class="edge"><title>Node21&#45;&gt;Node9</title>
<path fill="none" stroke="midnightblue" d="M1028.03,-292.281C1032.41,-273.463 1042.83,-228.697 1048.73,-203.34"/>
<polygon fill="midnightblue" stroke="midnightblue" points="1052.16,-204.038 1051.02,-193.505 1045.34,-202.451 1052.16,-204.038"/>
</g>
<!-- Node21&#45;&gt;Node12 -->
<g id="edge27" class="edge"><title>Node21&#45;&gt;Node12</title>
<path fill="none" stroke="midnightblue" d="M1004.13,-292.444C981.221,-283.478 945.025,-269.314 919.134,-259.183"/>
<polygon fill="midnightblue" stroke="midnightblue" points="920.352,-255.901 909.764,-255.516 917.801,-262.42 920.352,-255.901"/>
</g>
<!-- Node22 -->
<g id="node22" class="node"><title>Node22</title>
<g id="a_node22"><a xlink:href="Face_8inl.html" target="_top" xlink:title="Core/Mesh/DCEL/Face.inl">
<polygon fill="white" stroke="black" points="1056,-236.5 1056,-255.5 1188,-255.5 1188,-236.5 1056,-236.5"/>
<text text-anchor="middle" x="1122" y="-243.5" font-family="Helvetica,sans-Serif" font-size="10.00">Core/Mesh/DCEL/Face.inl</text>
</a>
</g>
</g>
<!-- Node21&#45;&gt;Node22 -->
<g id="edge29" class="edge"><title>Node21&#45;&gt;Node22</title>
<path fill="none" stroke="midnightblue" d="M1036.31,-292.324C1049.83,-283.664 1073.43,-270.242 1092.54,-260.249"/>
<polygon fill="midnightblue" stroke="midnightblue" points="1094.2,-263.332 1101.5,-255.655 1091.01,-257.103 1094.2,-263.332"/>
</g>
<!-- Node22&#45;&gt;Node8 -->
<g id="edge31" class="edge"><title>Node22&#45;&gt;Node8</title>
<path fill="none" stroke="midnightblue" d="M1120.93,-255.67C1117.58,-278.676 1104.99,-341.326 1065,-368 1030.31,-391.137 985.755,-402.606 946.868,-408.205"/>
<polygon fill="midnightblue" stroke="midnightblue" points="946.042,-404.784 936.59,-409.57 946.963,-411.723 946.042,-404.784"/>
</g>
<!-- Node22&#45;&gt;Node21 -->
<g id="edge30" class="edge"><title>Node22&#45;&gt;Node21</title>
<path fill="none" stroke="midnightblue" d="M1111.72,-255.655C1098.22,-264.307 1074.63,-277.727 1055.5,-287.726"/>
<polygon fill="midnightblue" stroke="midnightblue" points="1053.84,-284.646 1046.54,-292.324 1057.03,-290.875 1053.84,-284.646"/>
</g>
<!-- Node23&#45;&gt;Node4 -->
<g id="edge49" class="edge"><title>Node23&#45;&gt;Node4</title>
<path fill="none" stroke="midnightblue" d="M634.344,-292.444C576.521,-282.865 482.887,-267.356 421.377,-257.167"/>
<polygon fill="midnightblue" stroke="midnightblue" points="421.852,-253.698 411.414,-255.516 420.708,-260.604 421.852,-253.698"/>
</g>
<!-- Node23&#45;&gt;Node9 -->
<g id="edge33" class="edge"><title>Node23&#45;&gt;Node9</title>
<path fill="none" stroke="midnightblue" d="M701.521,-292.288C732.31,-275.03 798.623,-237.98 804,-236 837.832,-223.544 929.922,-206.211 992.115,-195.302"/>
<polygon fill="midnightblue" stroke="midnightblue" points="992.958,-198.707 1002.21,-193.541 991.756,-191.811 992.958,-198.707"/>
</g>
<!-- Node23&#45;&gt;Node12 -->
<g id="edge34" class="edge"><title>Node23&#45;&gt;Node12</title>
<path fill="none" stroke="midnightblue" d="M718.008,-292.444C752.729,-283.162 808.288,-268.309 846.377,-258.127"/>
<polygon fill="midnightblue" stroke="midnightblue" points="847.385,-261.48 856.142,-255.516 845.578,-254.718 847.385,-261.48"/>
</g>
<!-- Node24 -->
<g id="node24" class="node"><title>Node24</title>
<g id="a_node24"><a xlink:href="LinearAlgebra_8hpp.html" target="_top" xlink:title="Core/Math/LinearAlgebra.hpp">
<polygon fill="white" stroke="black" points="614.5,-236.5 614.5,-255.5 757.5,-255.5 757.5,-236.5 614.5,-236.5"/>
<text text-anchor="middle" x="686" y="-243.5" font-family="Helvetica,sans-Serif" font-size="10.00">Core/Math/LinearAlgebra.hpp</text>
</a>
</g>
</g>
<!-- Node23&#45;&gt;Node24 -->
<g id="edge35" class="edge"><title>Node23&#45;&gt;Node24</title>
<path fill="none" stroke="midnightblue" d="M686,-292.083C686,-285.006 686,-274.861 686,-265.986"/>
<polygon fill="midnightblue" stroke="midnightblue" points="689.5,-265.751 686,-255.751 682.5,-265.751 689.5,-265.751"/>
</g>
<!-- Node35 -->
<g id="node35" class="node"><title>Node35</title>
<g id="a_node35"><a xlink:href="Vertex_8inl.html" target="_top" xlink:title="Core/Mesh/DCEL/Vertex.inl">
<polygon fill="white" stroke="black" points="457.5,-236.5 457.5,-255.5 596.5,-255.5 596.5,-236.5 457.5,-236.5"/>
<text text-anchor="middle" x="527" y="-243.5" font-family="Helvetica,sans-Serif" font-size="10.00">Core/Mesh/DCEL/Vertex.inl</text>
</a>
</g>
</g>
<!-- Node23&#45;&gt;Node35 -->
<g id="edge50" class="edge"><title>Node23&#45;&gt;Node35</title>
<path fill="none" stroke="midnightblue" d="M655.717,-292.444C627.226,-283.438 585.057,-269.189 556.748,-259.049"/>
<polygon fill="midnightblue" stroke="midnightblue" points="557.59,-255.632 546.996,-255.516 555.206,-262.213 557.59,-255.632"/>
</g>
<!-- Node24&#45;&gt;Node13 -->
<g id="edge36" class="edge"><title>Node24&#45;&gt;Node13</title>
<path fill="none" stroke="midnightblue" d="M693.576,-236.197C701.203,-227.241 713.208,-212.884 723,-200 738.218,-179.977 754.672,-156.173 765.366,-140.387"/>
<polygon fill="midnightblue" stroke="midnightblue" points="768.534,-141.949 771.217,-131.7 762.728,-138.038 768.534,-141.949"/>
</g>
<!-- Node25 -->
<g id="node25" class="node"><title>Node25</title>
<polygon fill="white" stroke="#bfbfbf" points="771.5,-174.5 771.5,-193.5 836.5,-193.5 836.5,-174.5 771.5,-174.5"/>
<text text-anchor="middle" x="804" y="-181.5" font-family="Helvetica,sans-Serif" font-size="10.00">Eigen/Core</text>
</g>
<!-- Node24&#45;&gt;Node25 -->
<g id="edge37" class="edge"><title>Node24&#45;&gt;Node25</title>
<path fill="none" stroke="midnightblue" d="M702.907,-236.403C722.534,-226.423 755.131,-209.849 777.99,-198.225"/>
<polygon fill="midnightblue" stroke="midnightblue" points="779.797,-201.233 787.125,-193.581 776.625,-194.993 779.797,-201.233"/>
</g>
<!-- Node26 -->
<g id="node26" class="node"><title>Node26</title>
<polygon fill="white" stroke="#bfbfbf" points="854.5,-174.5 854.5,-193.5 941.5,-193.5 941.5,-174.5 854.5,-174.5"/>
<text text-anchor="middle" x="898" y="-181.5" font-family="Helvetica,sans-Serif" font-size="10.00">Eigen/Geometry</text>
</g>
<!-- Node24&#45;&gt;Node26 -->
<g id="edge38" class="edge"><title>Node24&#45;&gt;Node26</title>
<path fill="none" stroke="midnightblue" d="M716.374,-236.403C753.606,-225.866 816.81,-207.978 857.976,-196.328"/>
<polygon fill="midnightblue" stroke="midnightblue" points="859.013,-199.672 867.682,-193.581 857.107,-192.936 859.013,-199.672"/>
</g>
<!-- Node27 -->
<g id="node27" class="node"><title>Node27</title>
<polygon fill="white" stroke="#bfbfbf" points="132.5,-174.5 132.5,-193.5 207.5,-193.5 207.5,-174.5 132.5,-174.5"/>
<text text-anchor="middle" x="170" y="-181.5" font-family="Helvetica,sans-Serif" font-size="10.00">Eigen/Sparse</text>
</g>
<!-- Node24&#45;&gt;Node27 -->
<g id="edge39" class="edge"><title>Node24&#45;&gt;Node27</title>
<path fill="none" stroke="midnightblue" d="M614.454,-236.978C611.26,-236.643 608.097,-236.315 605,-236 432.265,-218.412 386.036,-235.132 216,-200 211.743,-199.12 207.327,-197.983 202.991,-196.729"/>
<polygon fill="midnightblue" stroke="midnightblue" points="203.718,-193.29 193.129,-193.655 201.635,-199.973 203.718,-193.29"/>
</g>
<!-- Node28 -->
<g id="node28" class="node"><title>Node28</title>
<polygon fill="white" stroke="#bfbfbf" points="225.5,-174.5 225.5,-193.5 284.5,-193.5 284.5,-174.5 225.5,-174.5"/>
<text text-anchor="middle" x="255" y="-181.5" font-family="Helvetica,sans-Serif" font-size="10.00">functional</text>
</g>
<!-- Node24&#45;&gt;Node28 -->
<g id="edge40" class="edge"><title>Node24&#45;&gt;Node28</title>
<path fill="none" stroke="midnightblue" d="M614.308,-237.031C503.056,-224.63 300.714,-201.929 293,-200 289.934,-199.233 286.784,-198.279 283.672,-197.226"/>
<polygon fill="midnightblue" stroke="midnightblue" points="284.603,-193.838 274.01,-193.632 282.163,-200.399 284.603,-193.838"/>
</g>
<!-- Node29 -->
<g id="node29" class="node"><title>Node29</title>
<polygon fill="white" stroke="#bfbfbf" points="302.5,-169 302.5,-199 435.5,-199 435.5,-169 302.5,-169"/>
<text text-anchor="start" x="310.5" y="-187" font-family="Helvetica,sans-Serif" font-size="10.00">unsupported/Eigen/Aligned</text>
<text text-anchor="middle" x="369" y="-176" font-family="Helvetica,sans-Serif" font-size="10.00">Vector3</text>
</g>
<!-- Node24&#45;&gt;Node29 -->
<g id="edge41" class="edge"><title>Node24&#45;&gt;Node29</title>
<path fill="none" stroke="midnightblue" d="M639.12,-236.477C592.438,-227.946 518.463,-214.311 445.47,-200.271"/>
<polygon fill="midnightblue" stroke="midnightblue" points="446.129,-196.834 435.647,-198.378 444.804,-203.707 446.129,-196.834"/>
</g>
<!-- Node30 -->
<g id="node30" class="node"><title>Node30</title>
<g id="a_node30"><a xlink:href="Math_8hpp.html" target="_top" xlink:title="Core/Math/Math.hpp">
<polygon fill="white" stroke="black" points="609,-174.5 609,-193.5 715,-193.5 715,-174.5 609,-174.5"/>
<text text-anchor="middle" x="662" y="-181.5" font-family="Helvetica,sans-Serif" font-size="10.00">Core/Math/Math.hpp</text>
</a>
</g>
</g>
<!-- Node24&#45;&gt;Node30 -->
<g id="edge42" class="edge"><title>Node24&#45;&gt;Node30</title>
<path fill="none" stroke="midnightblue" d="M682.561,-236.403C679.104,-227.76 673.668,-214.17 669.254,-203.134"/>
<polygon fill="midnightblue" stroke="midnightblue" points="672.396,-201.565 665.432,-193.581 665.897,-204.165 672.396,-201.565"/>
</g>
<!-- Node34 -->
<g id="node34" class="node"><title>Node34</title>
<g id="a_node34"><a xlink:href="LinearAlgebra_8inl.html" target="_top" xlink:title="Core/Math/LinearAlgebra.inl">
<polygon fill="white" stroke="black" points="453.5,-174.5 453.5,-193.5 590.5,-193.5 590.5,-174.5 453.5,-174.5"/>
<text text-anchor="middle" x="522" y="-181.5" font-family="Helvetica,sans-Serif" font-size="10.00">Core/Math/LinearAlgebra.inl</text>
</a>
</g>
</g>
<!-- Node24&#45;&gt;Node34 -->
<g id="edge48" class="edge"><title>Node24&#45;&gt;Node34</title>
<path fill="none" stroke="midnightblue" d="M662.503,-236.403C634.371,-226.111 587.071,-208.806 555.211,-197.15"/>
<polygon fill="midnightblue" stroke="midnightblue" points="556.047,-193.73 545.454,-193.581 553.642,-200.303 556.047,-193.73"/>
</g>
<!-- Node30&#45;&gt;Node13 -->
<g id="edge43" class="edge"><title>Node30&#45;&gt;Node13</title>
<path fill="none" stroke="midnightblue" d="M678.477,-174.403C697.605,-164.423 729.373,-147.849 751.652,-136.225"/>
<polygon fill="midnightblue" stroke="midnightblue" points="753.307,-139.309 760.554,-131.581 750.069,-133.103 753.307,-139.309"/>
</g>
<!-- Node31 -->
<g id="node31" class="node"><title>Node31</title>
<polygon fill="white" stroke="#bfbfbf" points="476,-112.5 476,-131.5 532,-131.5 532,-112.5 476,-112.5"/>
<text text-anchor="middle" x="504" y="-119.5" font-family="Helvetica,sans-Serif" font-size="10.00">algorithm</text>
</g>
<!-- Node30&#45;&gt;Node31 -->
<g id="edge44" class="edge"><title>Node30&#45;&gt;Node31</title>
<path fill="none" stroke="midnightblue" d="M639.362,-174.403C612.26,-164.111 566.69,-146.806 535.996,-135.15"/>
<polygon fill="midnightblue" stroke="midnightblue" points="537.187,-131.859 526.596,-131.581 534.702,-138.403 537.187,-131.859"/>
</g>
<!-- Node32 -->
<g id="node32" class="node"><title>Node32</title>
<polygon fill="white" stroke="#bfbfbf" points="550,-112.5 550,-131.5 594,-131.5 594,-112.5 550,-112.5"/>
<text text-anchor="middle" x="572" y="-119.5" font-family="Helvetica,sans-Serif" font-size="10.00">cmath</text>
</g>
<!-- Node30&#45;&gt;Node32 -->
<g id="edge45" class="edge"><title>Node30&#45;&gt;Node32</title>
<path fill="none" stroke="midnightblue" d="M649.105,-174.403C634.536,-164.691 610.598,-148.732 593.255,-137.17"/>
<polygon fill="midnightblue" stroke="midnightblue" points="595.133,-134.215 584.871,-131.581 591.25,-140.04 595.133,-134.215"/>
</g>
<!-- Node33 -->
<g id="node33" class="node"><title>Node33</title>
<g id="a_node33"><a xlink:href="Math_8inl.html" target="_top" xlink:title="Core/Math/Math.inl">
<polygon fill="white" stroke="black" points="612,-112.5 612,-131.5 712,-131.5 712,-112.5 612,-112.5"/>
<text text-anchor="middle" x="662" y="-119.5" font-family="Helvetica,sans-Serif" font-size="10.00">Core/Math/Math.inl</text>
</a>
</g>
</g>
<!-- Node30&#45;&gt;Node33 -->
<g id="edge46" class="edge"><title>Node30&#45;&gt;Node33</title>
<path fill="none" stroke="midnightblue" d="M657.099,-174.403C655.268,-165.938 654.797,-152.728 655.685,-141.82"/>
<polygon fill="midnightblue" stroke="midnightblue" points="659.198,-141.966 657.103,-131.581 652.264,-141.006 659.198,-141.966"/>
</g>
<!-- Node33&#45;&gt;Node30 -->
<g id="edge47" class="edge"><title>Node33&#45;&gt;Node30</title>
<path fill="none" stroke="midnightblue" d="M666.897,-131.581C668.73,-140.04 669.203,-153.248 668.317,-164.16"/>
<polygon fill="midnightblue" stroke="midnightblue" points="664.803,-164.018 666.901,-174.403 671.737,-164.977 664.803,-164.018"/>
</g>
<!-- Node35&#45;&gt;Node8 -->
<g id="edge52" class="edge"><title>Node35&#45;&gt;Node8</title>
<path fill="none" stroke="midnightblue" d="M535.294,-255.607C548.689,-269.115 576.387,-295.456 604,-312 674.604,-354.301 766.125,-385.643 817.814,-401.46"/>
<polygon fill="midnightblue" stroke="midnightblue" points="817.018,-404.875 827.603,-404.415 819.041,-398.174 817.018,-404.875"/>
</g>
<!-- Node35&#45;&gt;Node23 -->
<g id="edge51" class="edge"><title>Node35&#45;&gt;Node23</title>
<path fill="none" stroke="midnightblue" d="M557.156,-255.516C585.607,-264.506 627.776,-278.754 656.126,-288.906"/>
<polygon fill="midnightblue" stroke="midnightblue" points="655.301,-292.329 665.895,-292.444 657.684,-285.748 655.301,-292.329"/>
</g>
</g>
</svg>
