<?xml version="1.0" encoding="UTF-8" standalone="no"?>
<!DOCTYPE svg PUBLIC "-//W3C//DTD SVG 1.1//EN"
 "http://www.w3.org/Graphics/SVG/1.1/DTD/svg11.dtd">
<!-- Generated by graphviz version 2.36.0 (20140111.2315)
 -->
<!-- Title: /home/travis/build/STORM&#45;IRIT/Radium&#45;Engine/Plugins/FancyMesh/src/FancyMeshPlugin.cpp Pages: 1 -->
<svg width="1042pt" height="342pt"
 viewBox="0.00 0.00 1041.84 342.00" xmlns="http://www.w3.org/2000/svg" xmlns:xlink="http://www.w3.org/1999/xlink">
<g id="graph0" class="graph" transform="scale(1 1) rotate(0) translate(4 338)">
<title>/home/travis/build/STORM&#45;IRIT/Radium&#45;Engine/Plugins/FancyMesh/src/FancyMeshPlugin.cpp</title>
<polygon fill="white" stroke="none" points="-4,4 -4,-338 1037.84,-338 1037.84,4 -4,4"/>
<!-- Node1 -->
<g id="node1" class="node"><title>Node1</title>
<polygon fill="#bfbfbf" stroke="black" points="442.839,-281 442.839,-333 618.839,-333 618.839,-281 442.839,-281"/>
<text text-anchor="start" x="450.839" y="-321" font-family="Helvetica,sans-Serif" font-size="10.00">/home/travis/build</text>
<text text-anchor="start" x="450.839" y="-310" font-family="Helvetica,sans-Serif" font-size="10.00">/STORM&#45;IRIT/Radium&#45;Engine</text>
<text text-anchor="start" x="450.839" y="-299" font-family="Helvetica,sans-Serif" font-size="10.00">/Plugins/FancyMesh/src/FancyMesh</text>
<text text-anchor="middle" x="530.839" y="-288" font-family="Helvetica,sans-Serif" font-size="10.00">Plugin.cpp</text>
</g>
<!-- Node2 -->
<g id="node2" class="node"><title>Node2</title>
<g id="a_node2"><a xlink:href="FancyMeshPlugin_8hpp.html" target="_top" xlink:title="FancyMeshPlugin.hpp">
<polygon fill="white" stroke="black" points="125.339,-224.5 125.339,-243.5 238.339,-243.5 238.339,-224.5 125.339,-224.5"/>
<text text-anchor="middle" x="181.839" y="-231.5" font-family="Helvetica,sans-Serif" font-size="10.00">FancyMeshPlugin.hpp</text>
</a>
</g>
</g>
<!-- Node1&#45;&gt;Node2 -->
<g id="edge1" class="edge"><title>Node1&#45;&gt;Node2</title>
<path fill="none" stroke="midnightblue" d="M442.771,-288.084C376.807,-274.664 288.797,-256.76 233.726,-245.556"/>
<polygon fill="midnightblue" stroke="midnightblue" points="234.336,-242.108 223.839,-243.544 232.94,-248.968 234.336,-242.108"/>
</g>
<!-- Node16 -->
<g id="node16" class="node"><title>Node16</title>
<g id="a_node16"><a xlink:href="RadiumEngine_8hpp.html" target="_top" xlink:title="Engine/RadiumEngine.hpp">
<polygon fill="white" stroke="black" points="704.839,-224.5 704.839,-243.5 836.839,-243.5 836.839,-224.5 704.839,-224.5"/>
<text text-anchor="middle" x="770.839" y="-231.5" font-family="Helvetica,sans-Serif" font-size="10.00">Engine/RadiumEngine.hpp</text>
</a>
</g>
</g>
<!-- Node1&#45;&gt;Node16 -->
<g id="edge16" class="edge"><title>Node1&#45;&gt;Node16</title>
<path fill="none" stroke="midnightblue" d="M615.454,-280.968C655.275,-269.188 700.805,-255.718 732.238,-246.419"/>
<polygon fill="midnightblue" stroke="midnightblue" points="733.327,-249.747 741.924,-243.554 731.341,-243.035 733.327,-249.747"/>
</g>
<!-- Node22 -->
<g id="node22" class="node"><title>Node22</title>
<g id="a_node22"><a xlink:href="FancyMeshSystem_8hpp.html" target="_top" xlink:title="FancyMeshSystem.hpp">
<polygon fill="white" stroke="black" points="470.839,-224.5 470.839,-243.5 590.839,-243.5 590.839,-224.5 470.839,-224.5"/>
<text text-anchor="middle" x="530.839" y="-231.5" font-family="Helvetica,sans-Serif" font-size="10.00">FancyMeshSystem.hpp</text>
</a>
</g>
</g>
<!-- Node1&#45;&gt;Node22 -->
<g id="edge26" class="edge"><title>Node1&#45;&gt;Node22</title>
<path fill="none" stroke="midnightblue" d="M530.839,-280.768C530.839,-271.89 530.839,-262.074 530.839,-253.816"/>
<polygon fill="midnightblue" stroke="midnightblue" points="534.339,-253.757 530.839,-243.757 527.339,-253.757 534.339,-253.757"/>
</g>
<!-- Node3 -->
<g id="node3" class="node"><title>Node3</title>
<polygon fill="white" stroke="#bfbfbf" points="86.8386,-168.5 86.8386,-187.5 138.839,-187.5 138.839,-168.5 86.8386,-168.5"/>
<text text-anchor="middle" x="112.839" y="-175.5" font-family="Helvetica,sans-Serif" font-size="10.00">QAction</text>
</g>
<!-- Node2&#45;&gt;Node3 -->
<g id="edge2" class="edge"><title>Node2&#45;&gt;Node3</title>
<path fill="none" stroke="midnightblue" d="M170.753,-224.324C160.353,-216.185 144.578,-203.839 132.117,-194.087"/>
<polygon fill="midnightblue" stroke="midnightblue" points="134.159,-191.241 124.126,-187.834 129.844,-196.753 134.159,-191.241"/>
</g>
<!-- Node4 -->
<g id="node4" class="node"><title>Node4</title>
<polygon fill="white" stroke="#bfbfbf" points="15.3386,-168.5 15.3386,-187.5 68.3386,-187.5 68.3386,-168.5 15.3386,-168.5"/>
<text text-anchor="middle" x="41.8386" y="-175.5" font-family="Helvetica,sans-Serif" font-size="10.00">QObject</text>
</g>
<!-- Node2&#45;&gt;Node4 -->
<g id="edge3" class="edge"><title>Node2&#45;&gt;Node4</title>
<path fill="none" stroke="midnightblue" d="M159.655,-224.444C136.41,-215.478 99.6898,-201.314 73.4234,-191.183"/>
<polygon fill="midnightblue" stroke="midnightblue" points="74.5079,-187.85 63.9183,-187.516 71.9887,-194.381 74.5079,-187.85"/>
</g>
<!-- Node5 -->
<g id="node5" class="node"><title>Node5</title>
<polygon fill="white" stroke="#bfbfbf" points="91.8386,-112.5 91.8386,-131.5 145.839,-131.5 145.839,-112.5 91.8386,-112.5"/>
<text text-anchor="middle" x="118.839" y="-119.5" font-family="Helvetica,sans-Serif" font-size="10.00">QtPlugin</text>
</g>
<!-- Node2&#45;&gt;Node5 -->
<g id="edge4" class="edge"><title>Node2&#45;&gt;Node5</title>
<path fill="none" stroke="midnightblue" d="M125.125,-226.059C79.44,-219.165 20.4907,-206.87 5.83862,-188 -17.8841,-157.449 40.4327,-138.719 81.8215,-129.644"/>
<polygon fill="midnightblue" stroke="midnightblue" points="82.5826,-133.061 91.6586,-127.595 81.1549,-126.208 82.5826,-133.061"/>
</g>
<!-- Node6 -->
<g id="node6" class="node"><title>Node6</title>
<g id="a_node6"><a xlink:href="RadiumPluginInterface_8hpp.html" target="_top" xlink:title="PluginBase/RadiumPluginInterface.hpp">
<polygon fill="white" stroke="black" points="157.339,-168.5 157.339,-187.5 344.339,-187.5 344.339,-168.5 157.339,-168.5"/>
<text text-anchor="middle" x="250.839" y="-175.5" font-family="Helvetica,sans-Serif" font-size="10.00">PluginBase/RadiumPluginInterface.hpp</text>
</a>
</g>
</g>
<!-- Node2&#45;&gt;Node6 -->
<g id="edge5" class="edge"><title>Node2&#45;&gt;Node6</title>
<path fill="none" stroke="midnightblue" d="M192.925,-224.324C203.325,-216.185 219.099,-203.839 231.56,-194.087"/>
<polygon fill="midnightblue" stroke="midnightblue" points="233.833,-196.753 239.551,-187.834 229.519,-191.241 233.833,-196.753"/>
</g>
<!-- Node9 -->
<g id="node9" class="node"><title>Node9</title>
<g id="a_node9"><a xlink:href="FancyMeshPluginMacros_8hpp.html" target="_top" xlink:title="FancyMeshPluginMacros.hpp">
<polygon fill="white" stroke="black" points="362.839,-168.5 362.839,-187.5 508.839,-187.5 508.839,-168.5 362.839,-168.5"/>
<text text-anchor="middle" x="435.839" y="-175.5" font-family="Helvetica,sans-Serif" font-size="10.00">FancyMeshPluginMacros.hpp</text>
</a>
</g>
</g>
<!-- Node2&#45;&gt;Node9 -->
<g id="edge9" class="edge"><title>Node2&#45;&gt;Node9</title>
<path fill="none" stroke="midnightblue" d="M222.086,-224.444C266.488,-215.004 337.992,-199.802 385.927,-189.611"/>
<polygon fill="midnightblue" stroke="midnightblue" points="386.726,-193.02 395.78,-187.516 385.271,-186.173 386.726,-193.02"/>
</g>
<!-- Node6&#45;&gt;Node5 -->
<g id="edge8" class="edge"><title>Node6&#45;&gt;Node5</title>
<path fill="none" stroke="midnightblue" d="M229.923,-168.444C208.103,-159.517 173.689,-145.439 148.946,-135.317"/>
<polygon fill="midnightblue" stroke="midnightblue" points="150.237,-132.063 139.657,-131.516 147.587,-138.542 150.237,-132.063"/>
</g>
<!-- Node7 -->
<g id="node7" class="node"><title>Node7</title>
<polygon fill="white" stroke="#bfbfbf" points="510.839,-112.5 510.839,-131.5 562.839,-131.5 562.839,-112.5 510.839,-112.5"/>
<text text-anchor="middle" x="536.839" y="-119.5" font-family="Helvetica,sans-Serif" font-size="10.00">memory</text>
</g>
<!-- Node6&#45;&gt;Node7 -->
<g id="edge6" class="edge"><title>Node6&#45;&gt;Node7</title>
<path fill="none" stroke="midnightblue" d="M296.156,-168.444C352.741,-157.76 448.414,-139.696 500.463,-129.868"/>
<polygon fill="midnightblue" stroke="midnightblue" points="501.396,-133.254 510.573,-127.959 500.097,-126.375 501.396,-133.254"/>
</g>
<!-- Node8 -->
<g id="node8" class="node"><title>Node8</title>
<polygon fill="white" stroke="#bfbfbf" points="612.839,-112.5 612.839,-131.5 656.839,-131.5 656.839,-112.5 612.839,-112.5"/>
<text text-anchor="middle" x="634.839" y="-119.5" font-family="Helvetica,sans-Serif" font-size="10.00">vector</text>
</g>
<!-- Node6&#45;&gt;Node8 -->
<g id="edge7" class="edge"><title>Node6&#45;&gt;Node8</title>
<path fill="none" stroke="midnightblue" d="M312.084,-168.463C376.683,-159.447 481.435,-144.794 571.839,-132 581.8,-130.59 592.647,-129.045 602.488,-127.638"/>
<polygon fill="midnightblue" stroke="midnightblue" points="603.279,-131.061 612.682,-126.18 602.287,-124.131 603.279,-131.061"/>
</g>
<!-- Node10 -->
<g id="node10" class="node"><title>Node10</title>
<g id="a_node10"><a xlink:href="CoreMacros_8hpp.html" target="_top" xlink:title="Core/CoreMacros.hpp">
<polygon fill="white" stroke="black" points="676.339,-56.5 676.339,-75.5 789.339,-75.5 789.339,-56.5 676.339,-56.5"/>
<text text-anchor="middle" x="732.839" y="-63.5" font-family="Helvetica,sans-Serif" font-size="10.00">Core/CoreMacros.hpp</text>
</a>
</g>
</g>
<!-- Node9&#45;&gt;Node10 -->
<g id="edge10" class="edge"><title>Node9&#45;&gt;Node10</title>
<path fill="none" stroke="midnightblue" d="M442.008,-168.207C452.526,-153.941 475.376,-125.948 501.839,-112 552.961,-85.054 618.107,-74.1468 666.175,-69.781"/>
<polygon fill="midnightblue" stroke="midnightblue" points="666.489,-73.267 676.162,-68.9452 665.905,-66.2914 666.489,-73.267"/>
</g>
<!-- Node11 -->
<g id="node11" class="node"><title>Node11</title>
<polygon fill="white" stroke="#bfbfbf" points="577.339,-0.5 577.339,-19.5 626.339,-19.5 626.339,-0.5 577.339,-0.5"/>
<text text-anchor="middle" x="601.839" y="-7.5" font-family="Helvetica,sans-Serif" font-size="10.00">cassert</text>
</g>
<!-- Node10&#45;&gt;Node11 -->
<g id="edge11" class="edge"><title>Node10&#45;&gt;Node11</title>
<path fill="none" stroke="midnightblue" d="M712.081,-56.4435C690.522,-47.5566 656.575,-33.5632 632.045,-23.4514"/>
<polygon fill="midnightblue" stroke="midnightblue" points="633.078,-20.0917 622.499,-19.5164 630.41,-26.5634 633.078,-20.0917"/>
</g>
<!-- Node12 -->
<g id="node12" class="node"><title>Node12</title>
<polygon fill="white" stroke="#bfbfbf" points="644.339,-0.5 644.339,-19.5 687.339,-19.5 687.339,-0.5 644.339,-0.5"/>
<text text-anchor="middle" x="665.839" y="-7.5" font-family="Helvetica,sans-Serif" font-size="10.00">cstdio</text>
</g>
<!-- Node10&#45;&gt;Node12 -->
<g id="edge12" class="edge"><title>Node10&#45;&gt;Node12</title>
<path fill="none" stroke="midnightblue" d="M722.074,-56.324C712.072,-48.2631 696.952,-36.0765 684.908,-26.3695"/>
<polygon fill="midnightblue" stroke="midnightblue" points="686.782,-23.3841 676.799,-19.8339 682.389,-28.8343 686.782,-23.3841"/>
</g>
<!-- Node13 -->
<g id="node13" class="node"><title>Node13</title>
<polygon fill="white" stroke="#bfbfbf" points="705.839,-0.5 705.839,-19.5 759.839,-19.5 759.839,-0.5 705.839,-0.5"/>
<text text-anchor="middle" x="732.839" y="-7.5" font-family="Helvetica,sans-Serif" font-size="10.00">iostream</text>
</g>
<!-- Node10&#45;&gt;Node13 -->
<g id="edge13" class="edge"><title>Node10&#45;&gt;Node13</title>
<path fill="none" stroke="midnightblue" d="M732.839,-56.083C732.839,-49.0059 732.839,-38.8611 732.839,-29.9865"/>
<polygon fill="midnightblue" stroke="midnightblue" points="736.339,-29.751 732.839,-19.7511 729.339,-29.7511 736.339,-29.751"/>
</g>
<!-- Node14 -->
<g id="node14" class="node"><title>Node14</title>
<polygon fill="white" stroke="#bfbfbf" points="777.839,-0.5 777.839,-19.5 829.839,-19.5 829.839,-0.5 777.839,-0.5"/>
<text text-anchor="middle" x="803.839" y="-7.5" font-family="Helvetica,sans-Serif" font-size="10.00">sstream</text>
</g>
<!-- Node10&#45;&gt;Node14 -->
<g id="edge14" class="edge"><title>Node10&#45;&gt;Node14</title>
<path fill="none" stroke="midnightblue" d="M744.246,-56.324C754.947,-48.1849 771.179,-35.8395 784.001,-26.0874"/>
<polygon fill="midnightblue" stroke="midnightblue" points="786.383,-28.6734 792.224,-19.8339 782.145,-23.1018 786.383,-28.6734"/>
</g>
<!-- Node15 -->
<g id="node15" class="node"><title>Node15</title>
<polygon fill="white" stroke="#bfbfbf" points="847.839,-0.5 847.839,-19.5 891.839,-19.5 891.839,-0.5 847.839,-0.5"/>
<text text-anchor="middle" x="869.839" y="-7.5" font-family="Helvetica,sans-Serif" font-size="10.00">thread</text>
</g>
<!-- Node10&#45;&gt;Node15 -->
<g id="edge15" class="edge"><title>Node10&#45;&gt;Node15</title>
<path fill="none" stroke="midnightblue" d="M754.547,-56.4435C777.193,-47.5171 812.911,-33.4387 838.59,-23.3168"/>
<polygon fill="midnightblue" stroke="midnightblue" points="840.212,-26.4397 848.232,-19.5164 837.645,-19.9273 840.212,-26.4397"/>
</g>
<!-- Node16&#45;&gt;Node7 -->
<g id="edge24" class="edge"><title>Node16&#45;&gt;Node7</title>
<path fill="none" stroke="midnightblue" d="M704.834,-226.628C649.87,-220.013 577.257,-207.808 555.839,-188 543.171,-176.284 538.783,-156.638 537.345,-142.005"/>
<polygon fill="midnightblue" stroke="midnightblue" points="540.813,-141.365 536.722,-131.592 533.826,-141.783 540.813,-141.365"/>
</g>
<!-- Node16&#45;&gt;Node8 -->
<g id="edge23" class="edge"><title>Node16&#45;&gt;Node8</title>
<path fill="none" stroke="midnightblue" d="M764.455,-224.2C754.5,-210.893 734.194,-185.367 712.839,-168 697.37,-155.42 677.956,-144.207 662.366,-136.12"/>
<polygon fill="midnightblue" stroke="midnightblue" points="663.728,-132.886 653.223,-131.504 660.573,-139.135 663.728,-132.886"/>
</g>
<!-- Node17 -->
<g id="node17" class="node"><title>Node17</title>
<g id="a_node17"><a xlink:href="RaEngine_8hpp.html" target="_top" xlink:title="Engine/RaEngine.hpp">
<polygon fill="white" stroke="black" points="677.339,-112.5 677.339,-131.5 788.339,-131.5 788.339,-112.5 677.339,-112.5"/>
<text text-anchor="middle" x="732.839" y="-119.5" font-family="Helvetica,sans-Serif" font-size="10.00">Engine/RaEngine.hpp</text>
</a>
</g>
</g>
<!-- Node16&#45;&gt;Node17 -->
<g id="edge17" class="edge"><title>Node16&#45;&gt;Node17</title>
<path fill="none" stroke="midnightblue" d="M767.857,-224.368C761.697,-206.537 747.45,-165.295 739.151,-141.272"/>
<polygon fill="midnightblue" stroke="midnightblue" points="742.38,-139.9 735.807,-131.591 735.764,-142.186 742.38,-139.9"/>
</g>
<!-- Node18 -->
<g id="node18" class="node"><title>Node18</title>
<g id="a_node18"><a xlink:href="Singleton_8hpp.html" target="_top" xlink:title="Core/Utils/Singleton.hpp">
<polygon fill="white" stroke="black" points="799.339,-168.5 799.339,-187.5 922.339,-187.5 922.339,-168.5 799.339,-168.5"/>
<text text-anchor="middle" x="860.839" y="-175.5" font-family="Helvetica,sans-Serif" font-size="10.00">Core/Utils/Singleton.hpp</text>
</a>
</g>
</g>
<!-- Node16&#45;&gt;Node18 -->
<g id="edge19" class="edge"><title>Node16&#45;&gt;Node18</title>
<path fill="none" stroke="midnightblue" d="M785.299,-224.324C799.338,-215.9 820.887,-202.971 837.382,-193.074"/>
<polygon fill="midnightblue" stroke="midnightblue" points="839.64,-195.801 846.414,-187.655 836.039,-189.798 839.64,-195.801"/>
</g>
<!-- Node20 -->
<g id="node20" class="node"><title>Node20</title>
<polygon fill="white" stroke="#bfbfbf" points="940.339,-168.5 940.339,-187.5 975.339,-187.5 975.339,-168.5 940.339,-168.5"/>
<text text-anchor="middle" x="957.839" y="-175.5" font-family="Helvetica,sans-Serif" font-size="10.00">map</text>
</g>
<!-- Node16&#45;&gt;Node20 -->
<g id="edge22" class="edge"><title>Node16&#45;&gt;Node20</title>
<path fill="none" stroke="midnightblue" d="M802.844,-224.48C833.276,-216.272 880.542,-203.252 930.475,-188.003"/>
<polygon fill="midnightblue" stroke="midnightblue" points="931.628,-191.31 940.159,-185.027 929.572,-184.619 931.628,-191.31"/>
</g>
<!-- Node21 -->
<g id="node21" class="node"><title>Node21</title>
<polygon fill="white" stroke="#bfbfbf" points="993.339,-168.5 993.339,-187.5 1034.34,-187.5 1034.34,-168.5 993.339,-168.5"/>
<text text-anchor="middle" x="1013.84" y="-175.5" font-family="Helvetica,sans-Serif" font-size="10.00">string</text>
</g>
<!-- Node16&#45;&gt;Node21 -->
<g id="edge25" class="edge"><title>Node16&#45;&gt;Node21</title>
<path fill="none" stroke="midnightblue" d="M816.799,-224.438C857.996,-216.506 920.26,-203.886 983.501,-187.911"/>
<polygon fill="midnightblue" stroke="midnightblue" points="984.421,-191.288 993.245,-185.424 982.69,-184.505 984.421,-191.288"/>
</g>
<!-- Node17&#45;&gt;Node10 -->
<g id="edge18" class="edge"><title>Node17&#45;&gt;Node10</title>
<path fill="none" stroke="midnightblue" d="M732.839,-112.083C732.839,-105.006 732.839,-94.8611 732.839,-85.9865"/>
<polygon fill="midnightblue" stroke="midnightblue" points="736.339,-85.751 732.839,-75.7511 729.339,-85.7511 736.339,-85.751"/>
</g>
<!-- Node19 -->
<g id="node19" class="node"><title>Node19</title>
<g id="a_node19"><a xlink:href="RaCore_8hpp.html" target="_top" xlink:title="Core/RaCore.hpp">
<polygon fill="white" stroke="black" points="811.339,-112.5 811.339,-131.5 904.339,-131.5 904.339,-112.5 811.339,-112.5"/>
<text text-anchor="middle" x="857.839" y="-119.5" font-family="Helvetica,sans-Serif" font-size="10.00">Core/RaCore.hpp</text>
</a>
</g>
</g>
<!-- Node18&#45;&gt;Node19 -->
<g id="edge20" class="edge"><title>Node18&#45;&gt;Node19</title>
<path fill="none" stroke="midnightblue" d="M860.343,-168.083C859.95,-161.006 859.386,-150.861 858.893,-141.986"/>
<polygon fill="midnightblue" stroke="midnightblue" points="862.374,-141.542 858.325,-131.751 855.385,-141.93 862.374,-141.542"/>
</g>
<!-- Node19&#45;&gt;Node10 -->
<g id="edge21" class="edge"><title>Node19&#45;&gt;Node10</title>
<path fill="none" stroke="midnightblue" d="M838.032,-112.444C817.552,-103.596 785.356,-89.6875 761.974,-79.5865"/>
<polygon fill="midnightblue" stroke="midnightblue" points="763.121,-76.2692 752.553,-75.5164 760.345,-82.6953 763.121,-76.2692"/>
</g>
<!-- Node22&#45;&gt;Node9 -->
<g id="edge27" class="edge"><title>Node22&#45;&gt;Node9</title>
<path fill="none" stroke="midnightblue" d="M515.575,-224.324C500.617,-215.822 477.584,-202.729 460.112,-192.797"/>
<polygon fill="midnightblue" stroke="midnightblue" points="461.487,-189.553 451.064,-187.655 458.028,-195.639 461.487,-189.553"/>
</g>
<!-- Node23 -->
<g id="node23" class="node"><title>Node23</title>
<g id="a_node23"><a xlink:href="System_8hpp.html" target="_top" xlink:title="Engine/System/System.hpp">
<polygon fill="white" stroke="black" points="565.339,-168.5 565.339,-187.5 704.339,-187.5 704.339,-168.5 565.339,-168.5"/>
<text text-anchor="middle" x="634.839" y="-175.5" font-family="Helvetica,sans-Serif" font-size="10.00">Engine/System/System.hpp</text>
</a>
</g>
</g>
<!-- Node22&#45;&gt;Node23 -->
<g id="edge28" class="edge"><title>Node22&#45;&gt;Node23</title>
<path fill="none" stroke="midnightblue" d="M547.548,-224.324C564.151,-215.703 589.841,-202.364 609.059,-192.386"/>
<polygon fill="midnightblue" stroke="midnightblue" points="610.909,-195.369 618.171,-187.655 607.683,-189.156 610.909,-195.369"/>
</g>
<!-- Node23&#45;&gt;Node7 -->
<g id="edge31" class="edge"><title>Node23&#45;&gt;Node7</title>
<path fill="none" stroke="midnightblue" d="M619.093,-168.324C603.52,-159.743 579.461,-146.486 561.379,-136.522"/>
<polygon fill="midnightblue" stroke="midnightblue" points="562.992,-133.415 552.545,-131.655 559.614,-139.546 562.992,-133.415"/>
</g>
<!-- Node23&#45;&gt;Node8 -->
<g id="edge30" class="edge"><title>Node23&#45;&gt;Node8</title>
<path fill="none" stroke="midnightblue" d="M634.839,-168.083C634.839,-161.006 634.839,-150.861 634.839,-141.986"/>
<polygon fill="midnightblue" stroke="midnightblue" points="638.339,-141.751 634.839,-131.751 631.339,-141.751 638.339,-141.751"/>
</g>
<!-- Node23&#45;&gt;Node17 -->
<g id="edge29" class="edge"><title>Node23&#45;&gt;Node17</title>
<path fill="none" stroke="midnightblue" d="M650.584,-168.324C666.157,-159.743 690.216,-146.486 708.298,-136.522"/>
<polygon fill="midnightblue" stroke="midnightblue" points="710.063,-139.546 717.132,-131.655 706.685,-133.415 710.063,-139.546"/>
</g>
</g>
</svg>
