<?xml version="1.0" encoding="UTF-8" standalone="no"?>
<!DOCTYPE svg PUBLIC "-//W3C//DTD SVG 1.1//EN"
 "http://www.w3.org/Graphics/SVG/1.1/DTD/svg11.dtd">
<!-- Generated by graphviz version 2.36.0 (20140111.2315)
 -->
<!-- Title: /home/travis/build/STORM&#45;IRIT/Radium&#45;Engine/src/Core/Mesh/DCEL/Iterator/Face/FFEIterator.hpp Pages: 1 -->
<svg width="1185pt" height="726pt"
 viewBox="0.00 0.00 1185.10 726.00" xmlns="http://www.w3.org/2000/svg" xmlns:xlink="http://www.w3.org/1999/xlink">
<g id="graph0" class="graph" transform="scale(1 1) rotate(0) translate(4 722)">
<title>/home/travis/build/STORM&#45;IRIT/Radium&#45;Engine/src/Core/Mesh/DCEL/Iterator/Face/FFEIterator.hpp</title>
<polygon fill="white" stroke="none" points="-4,4 -4,-722 1181.1,-722 1181.1,4 -4,4"/>
<!-- Node1 -->
<g id="node1" class="node"><title>Node1</title>
<polygon fill="#bfbfbf" stroke="black" points="753,-665 753,-717 901,-717 901,-665 753,-665"/>
<text text-anchor="start" x="761" y="-705" font-family="Helvetica,sans-Serif" font-size="10.00">/home/travis/build</text>
<text text-anchor="start" x="761" y="-694" font-family="Helvetica,sans-Serif" font-size="10.00">/STORM&#45;IRIT/Radium&#45;Engine</text>
<text text-anchor="start" x="761" y="-683" font-family="Helvetica,sans-Serif" font-size="10.00">/src/Core/Mesh/DCEL/Iterator</text>
<text text-anchor="middle" x="827" y="-672" font-family="Helvetica,sans-Serif" font-size="10.00">/Face/FFEIterator.hpp</text>
</g>
<!-- Node2 -->
<g id="node2" class="node"><title>Node2</title>
<g id="a_node2"><a xlink:href="FaceIterator_8hpp.html" target="_top" xlink:title="Core/Mesh/DCEL/Iterator\l/Face/FaceIterator.hpp">
<polygon fill="white" stroke="black" points="598,-597 598,-627 726,-627 726,-597 598,-597"/>
<text text-anchor="start" x="606" y="-615" font-family="Helvetica,sans-Serif" font-size="10.00">Core/Mesh/DCEL/Iterator</text>
<text text-anchor="middle" x="662" y="-604" font-family="Helvetica,sans-Serif" font-size="10.00">/Face/FaceIterator.hpp</text>
</a>
</g>
</g>
<!-- Node1&#45;&gt;Node2 -->
<g id="edge1" class="edge"><title>Node1&#45;&gt;Node2</title>
<path fill="none" stroke="midnightblue" d="M772.973,-664.787C749.558,-653.86 722.655,-641.306 701.202,-631.294"/>
<polygon fill="midnightblue" stroke="midnightblue" points="702.608,-628.088 692.066,-627.031 699.647,-634.431 702.608,-628.088"/>
</g>
<!-- Node37 -->
<g id="node37" class="node"><title>Node37</title>
<g id="a_node37"><a xlink:href="FFEIterator_8inl.html" target="_top" xlink:title="Core/Mesh/DCEL/Iterator\l/Face/FFEIterator.inl">
<polygon fill="white" stroke="black" points="763,-597 763,-627 891,-627 891,-597 763,-597"/>
<text text-anchor="start" x="771" y="-615" font-family="Helvetica,sans-Serif" font-size="10.00">Core/Mesh/DCEL/Iterator</text>
<text text-anchor="middle" x="827" y="-604" font-family="Helvetica,sans-Serif" font-size="10.00">/Face/FFEIterator.inl</text>
</a>
</g>
</g>
<!-- Node1&#45;&gt;Node37 -->
<g id="edge57" class="edge"><title>Node1&#45;&gt;Node37</title>
<path fill="none" stroke="midnightblue" d="M820.621,-664.787C820.107,-655.932 820.127,-646.007 820.68,-637.234"/>
<polygon fill="midnightblue" stroke="midnightblue" points="824.167,-637.536 821.619,-627.252 817.198,-636.88 824.167,-637.536"/>
</g>
<!-- Node3 -->
<g id="node3" class="node"><title>Node3</title>
<g id="a_node3"><a xlink:href="Iterator_8hpp.html" target="_top" xlink:title="Core/Mesh/DCEL/Iterator\l/Iterator.hpp">
<polygon fill="white" stroke="black" points="349,-529 349,-559 477,-559 477,-529 349,-529"/>
<text text-anchor="start" x="357" y="-547" font-family="Helvetica,sans-Serif" font-size="10.00">Core/Mesh/DCEL/Iterator</text>
<text text-anchor="middle" x="413" y="-536" font-family="Helvetica,sans-Serif" font-size="10.00">/Iterator.hpp</text>
</a>
</g>
</g>
<!-- Node2&#45;&gt;Node3 -->
<g id="edge2" class="edge"><title>Node2&#45;&gt;Node3</title>
<path fill="none" stroke="midnightblue" d="M608.889,-596.922C569.964,-586.605 516.976,-572.56 475.926,-561.679"/>
<polygon fill="midnightblue" stroke="midnightblue" points="476.593,-558.235 466.03,-559.056 474.799,-565.001 476.593,-558.235"/>
</g>
<!-- Node36 -->
<g id="node36" class="node"><title>Node36</title>
<g id="a_node36"><a xlink:href="FaceIterator_8inl.html" target="_top" xlink:title="Core/Mesh/DCEL/Iterator\l/Face/FaceIterator.inl">
<polygon fill="white" stroke="black" points="598,-461 598,-491 726,-491 726,-461 598,-461"/>
<text text-anchor="start" x="606" y="-479" font-family="Helvetica,sans-Serif" font-size="10.00">Core/Mesh/DCEL/Iterator</text>
<text text-anchor="middle" x="662" y="-468" font-family="Helvetica,sans-Serif" font-size="10.00">/Face/FaceIterator.inl</text>
</a>
</g>
</g>
<!-- Node2&#45;&gt;Node36 -->
<g id="edge53" class="edge"><title>Node2&#45;&gt;Node36</title>
<path fill="none" stroke="midnightblue" d="M657.63,-596.66C654.825,-573.891 654.499,-529.203 656.654,-501.349"/>
<polygon fill="midnightblue" stroke="midnightblue" points="660.152,-501.53 657.642,-491.237 653.186,-500.849 660.152,-501.53"/>
</g>
<!-- Node4 -->
<g id="node4" class="node"><title>Node4</title>
<g id="a_node4"><a xlink:href="Definition_8hpp.html" target="_top" xlink:title="Core/Mesh/DCEL/Definition.hpp">
<polygon fill="white" stroke="black" points="242,-236.5 242,-255.5 400,-255.5 400,-236.5 242,-236.5"/>
<text text-anchor="middle" x="321" y="-243.5" font-family="Helvetica,sans-Serif" font-size="10.00">Core/Mesh/DCEL/Definition.hpp</text>
</a>
</g>
</g>
<!-- Node3&#45;&gt;Node4 -->
<g id="edge3" class="edge"><title>Node3&#45;&gt;Node4</title>
<path fill="none" stroke="midnightblue" d="M383.442,-528.912C368.314,-520.266 350.848,-507.806 340,-492 320.055,-462.937 321,-450.249 321,-415 321,-415 321,-415 321,-357 321,-324.948 321,-287.643 321,-265.749"/>
<polygon fill="midnightblue" stroke="midnightblue" points="324.5,-265.558 321,-255.558 317.5,-265.558 324.5,-265.558"/>
</g>
<!-- Node6 -->
<g id="node6" class="node"><title>Node6</title>
<polygon fill="white" stroke="#bfbfbf" points="0,-174.5 0,-193.5 44,-193.5 44,-174.5 0,-174.5"/>
<text text-anchor="middle" x="22" y="-181.5" font-family="Helvetica,sans-Serif" font-size="10.00">vector</text>
</g>
<!-- Node3&#45;&gt;Node6 -->
<g id="edge6" class="edge"><title>Node3&#45;&gt;Node6</title>
<path fill="none" stroke="midnightblue" d="M348.989,-542.349C262.228,-537.696 118,-514.933 118,-415 118,-415 118,-415 118,-301 118,-255.711 74.0319,-218.593 45.6072,-199.329"/>
<polygon fill="midnightblue" stroke="midnightblue" points="47.2878,-196.247 37,-193.714 43.4631,-202.109 47.2878,-196.247"/>
</g>
<!-- Node7 -->
<g id="node7" class="node"><title>Node7</title>
<g id="a_node7"><a xlink:href="Iterator_8inl.html" target="_top" xlink:title="Core/Mesh/DCEL/Iterator\l/Iterator.inl">
<polygon fill="white" stroke="black" points="349,-461 349,-491 477,-491 477,-461 349,-461"/>
<text text-anchor="start" x="357" y="-479" font-family="Helvetica,sans-Serif" font-size="10.00">Core/Mesh/DCEL/Iterator</text>
<text text-anchor="middle" x="413" y="-468" font-family="Helvetica,sans-Serif" font-size="10.00">/Iterator.inl</text>
</a>
</g>
</g>
<!-- Node3&#45;&gt;Node7 -->
<g id="edge7" class="edge"><title>Node3&#45;&gt;Node7</title>
<path fill="none" stroke="midnightblue" d="M407.322,-528.679C406.294,-520.722 406.005,-510.605 406.456,-501.436"/>
<polygon fill="midnightblue" stroke="midnightblue" points="409.959,-501.555 407.325,-491.293 402.984,-500.958 409.959,-501.555"/>
</g>
<!-- Node5 -->
<g id="node5" class="node"><title>Node5</title>
<polygon fill="white" stroke="#bfbfbf" points="62,-174.5 62,-193.5 114,-193.5 114,-174.5 62,-174.5"/>
<text text-anchor="middle" x="88" y="-181.5" font-family="Helvetica,sans-Serif" font-size="10.00">memory</text>
</g>
<!-- Node4&#45;&gt;Node5 -->
<g id="edge4" class="edge"><title>Node4&#45;&gt;Node5</title>
<path fill="none" stroke="midnightblue" d="M272.325,-236.495C231.833,-228.813 172.954,-216.232 123,-200 120.579,-199.213 118.095,-198.324 115.621,-197.381"/>
<polygon fill="midnightblue" stroke="midnightblue" points="116.869,-194.11 106.288,-193.578 114.228,-200.593 116.869,-194.11"/>
</g>
<!-- Node4&#45;&gt;Node6 -->
<g id="edge5" class="edge"><title>Node4&#45;&gt;Node6</title>
<path fill="none" stroke="midnightblue" d="M241.916,-237.697C187.8,-231.259 114.921,-219.733 53,-200 50.8709,-199.321 48.7027,-198.521 46.5522,-197.65"/>
<polygon fill="midnightblue" stroke="midnightblue" points="47.9685,-194.449 37.4141,-193.524 45.0883,-200.829 47.9685,-194.449"/>
</g>
<!-- Node7&#45;&gt;Node3 -->
<g id="edge8" class="edge"><title>Node7&#45;&gt;Node3</title>
<path fill="none" stroke="midnightblue" d="M418.675,-491.293C419.704,-499.245 419.995,-509.361 419.545,-518.532"/>
<polygon fill="midnightblue" stroke="midnightblue" points="416.042,-518.417 418.678,-528.679 423.017,-519.013 416.042,-518.417"/>
</g>
<!-- Node8 -->
<g id="node8" class="node"><title>Node8</title>
<g id="a_node8"><a xlink:href="DCEL_2HalfEdge_8hpp.html" target="_top" xlink:title="Core/Mesh/DCEL/HalfEdge.hpp">
<polygon fill="white" stroke="black" points="565.5,-404.5 565.5,-423.5 722.5,-423.5 722.5,-404.5 565.5,-404.5"/>
<text text-anchor="middle" x="644" y="-411.5" font-family="Helvetica,sans-Serif" font-size="10.00">Core/Mesh/DCEL/HalfEdge.hpp</text>
</a>
</g>
</g>
<!-- Node7&#45;&gt;Node8 -->
<g id="edge9" class="edge"><title>Node7&#45;&gt;Node8</title>
<path fill="none" stroke="midnightblue" d="M467.159,-460.933C508.168,-450.281 563.71,-435.855 601.534,-426.03"/>
<polygon fill="midnightblue" stroke="midnightblue" points="602.427,-429.414 611.226,-423.513 600.667,-422.639 602.427,-429.414"/>
</g>
<!-- Node8&#45;&gt;Node4 -->
<g id="edge22" class="edge"><title>Node8&#45;&gt;Node4</title>
<path fill="none" stroke="midnightblue" d="M627.626,-404.358C612.342,-395.962 589.22,-382.403 571,-368 533.525,-338.377 536.473,-315.704 495,-292 465.178,-274.955 428.828,-264.248 397.08,-257.58"/>
<polygon fill="midnightblue" stroke="midnightblue" points="397.44,-254.083 386.947,-255.555 396.067,-260.947 397.44,-254.083"/>
</g>
<!-- Node9 -->
<g id="node9" class="node"><title>Node9</title>
<g id="a_node9"><a xlink:href="Index_8hpp.html" target="_top" xlink:title="Core/Index/Index.hpp">
<polygon fill="white" stroke="black" points="999,-174.5 999,-193.5 1109,-193.5 1109,-174.5 999,-174.5"/>
<text text-anchor="middle" x="1054" y="-181.5" font-family="Helvetica,sans-Serif" font-size="10.00">Core/Index/Index.hpp</text>
</a>
</g>
</g>
<!-- Node8&#45;&gt;Node9 -->
<g id="edge10" class="edge"><title>Node8&#45;&gt;Node9</title>
<path fill="none" stroke="midnightblue" d="M644.097,-404.16C644.73,-390.331 647.97,-363.559 663,-348 698.446,-311.306 723.699,-328.428 772,-312 843.328,-287.741 863.576,-287.535 932,-256 968.742,-239.066 1008.83,-214.447 1032.67,-199.096"/>
<polygon fill="midnightblue" stroke="midnightblue" points="1034.78,-201.898 1041.26,-193.513 1030.97,-196.029 1034.78,-201.898"/>
</g>
<!-- Node12 -->
<g id="node12" class="node"><title>Node12</title>
<g id="a_node12"><a xlink:href="IndexedObject_8hpp.html" target="_top" xlink:title="Core/Index/IndexedObject.hpp">
<polygon fill="white" stroke="black" points="774.5,-236.5 774.5,-255.5 923.5,-255.5 923.5,-236.5 774.5,-236.5"/>
<text text-anchor="middle" x="849" y="-243.5" font-family="Helvetica,sans-Serif" font-size="10.00">Core/Index/IndexedObject.hpp</text>
</a>
</g>
</g>
<!-- Node8&#45;&gt;Node12 -->
<g id="edge13" class="edge"><title>Node8&#45;&gt;Node12</title>
<path fill="none" stroke="midnightblue" d="M638.082,-404.114C629.961,-390.697 617.692,-365.027 630,-348 659.888,-306.653 692.549,-333.099 739,-312 771.516,-297.231 806.641,-275.329 828.232,-261.108"/>
<polygon fill="midnightblue" stroke="midnightblue" points="830.228,-263.984 836.609,-255.527 826.347,-258.159 830.228,-263.984"/>
</g>
<!-- Node20 -->
<g id="node20" class="node"><title>Node20</title>
<g id="a_node20"><a xlink:href="DCEL_2HalfEdge_8inl.html" target="_top" xlink:title="Core/Mesh/DCEL/HalfEdge.inl">
<polygon fill="white" stroke="black" points="672.5,-348.5 672.5,-367.5 823.5,-367.5 823.5,-348.5 672.5,-348.5"/>
<text text-anchor="middle" x="748" y="-355.5" font-family="Helvetica,sans-Serif" font-size="10.00">Core/Mesh/DCEL/HalfEdge.inl</text>
</a>
</g>
</g>
<!-- Node8&#45;&gt;Node20 -->
<g id="edge23" class="edge"><title>Node8&#45;&gt;Node20</title>
<path fill="none" stroke="midnightblue" d="M655.595,-404.324C670.533,-395.585 696.451,-381.998 717.141,-371.977"/>
<polygon fill="midnightblue" stroke="midnightblue" points="718.697,-375.113 726.222,-367.655 715.688,-368.793 718.697,-375.113"/>
</g>
<!-- Node10 -->
<g id="node10" class="node"><title>Node10</title>
<polygon fill="white" stroke="#bfbfbf" points="989,-112.5 989,-131.5 1029,-131.5 1029,-112.5 989,-112.5"/>
<text text-anchor="middle" x="1009" y="-119.5" font-family="Helvetica,sans-Serif" font-size="10.00">limits</text>
</g>
<!-- Node9&#45;&gt;Node10 -->
<g id="edge11" class="edge"><title>Node9&#45;&gt;Node10</title>
<path fill="none" stroke="midnightblue" d="M1047.55,-174.403C1040.8,-165.403 1030.03,-151.041 1021.59,-139.782"/>
<polygon fill="midnightblue" stroke="midnightblue" points="1024.24,-137.481 1015.44,-131.581 1018.64,-141.681 1024.24,-137.481"/>
</g>
<!-- Node11 -->
<g id="node11" class="node"><title>Node11</title>
<g id="a_node11"><a xlink:href="Index_8inl.html" target="_top" xlink:title="Core/Index/Index.inl">
<polygon fill="white" stroke="black" points="1047,-112.5 1047,-131.5 1151,-131.5 1151,-112.5 1047,-112.5"/>
<text text-anchor="middle" x="1099" y="-119.5" font-family="Helvetica,sans-Serif" font-size="10.00">Core/Index/Index.inl</text>
</a>
</g>
</g>
<!-- Node9&#45;&gt;Node11 -->
<g id="edge12" class="edge"><title>Node9&#45;&gt;Node11</title>
<path fill="none" stroke="midnightblue" d="M1060.45,-174.403C1067.2,-165.403 1077.97,-151.041 1086.41,-139.782"/>
<polygon fill="midnightblue" stroke="midnightblue" points="1089.36,-141.681 1092.56,-131.581 1083.76,-137.481 1089.36,-141.681"/>
</g>
<!-- Node12&#45;&gt;Node9 -->
<g id="edge14" class="edge"><title>Node12&#45;&gt;Node9</title>
<path fill="none" stroke="midnightblue" d="M878.372,-236.403C914.297,-225.889 975.232,-208.054 1015.04,-196.402"/>
<polygon fill="midnightblue" stroke="midnightblue" points="1016.07,-199.749 1024.68,-193.581 1014.1,-193.031 1016.07,-199.749"/>
</g>
<!-- Node13 -->
<g id="node13" class="node"><title>Node13</title>
<g id="a_node13"><a xlink:href="RaCore_8hpp.html" target="_top" xlink:title="Core/RaCore.hpp">
<polygon fill="white" stroke="black" points="697.5,-112.5 697.5,-131.5 790.5,-131.5 790.5,-112.5 697.5,-112.5"/>
<text text-anchor="middle" x="744" y="-119.5" font-family="Helvetica,sans-Serif" font-size="10.00">Core/RaCore.hpp</text>
</a>
</g>
</g>
<!-- Node12&#45;&gt;Node13 -->
<g id="edge15" class="edge"><title>Node12&#45;&gt;Node13</title>
<path fill="none" stroke="midnightblue" d="M895.357,-236.467C916.075,-230.095 938.581,-219.052 951,-200 958.766,-188.085 959.925,-179.073 951,-168 932.463,-145 855.677,-133.146 801.047,-127.506"/>
<polygon fill="midnightblue" stroke="midnightblue" points="801.077,-123.992 790.782,-126.491 800.389,-130.958 801.077,-123.992"/>
</g>
<!-- Node14 -->
<g id="node14" class="node"><title>Node14</title>
<g id="a_node14"><a xlink:href="CoreMacros_8hpp.html" target="_top" xlink:title="Core/CoreMacros.hpp">
<polygon fill="white" stroke="black" points="687.5,-56.5 687.5,-75.5 800.5,-75.5 800.5,-56.5 687.5,-56.5"/>
<text text-anchor="middle" x="744" y="-63.5" font-family="Helvetica,sans-Serif" font-size="10.00">Core/CoreMacros.hpp</text>
</a>
</g>
</g>
<!-- Node13&#45;&gt;Node14 -->
<g id="edge16" class="edge"><title>Node13&#45;&gt;Node14</title>
<path fill="none" stroke="midnightblue" d="M744,-112.083C744,-105.006 744,-94.8611 744,-85.9865"/>
<polygon fill="midnightblue" stroke="midnightblue" points="747.5,-85.751 744,-75.7511 740.5,-85.7511 747.5,-85.751"/>
</g>
<!-- Node15 -->
<g id="node15" class="node"><title>Node15</title>
<polygon fill="white" stroke="#bfbfbf" points="588.5,-0.5 588.5,-19.5 637.5,-19.5 637.5,-0.5 588.5,-0.5"/>
<text text-anchor="middle" x="613" y="-7.5" font-family="Helvetica,sans-Serif" font-size="10.00">cassert</text>
</g>
<!-- Node14&#45;&gt;Node15 -->
<g id="edge17" class="edge"><title>Node14&#45;&gt;Node15</title>
<path fill="none" stroke="midnightblue" d="M723.243,-56.4435C701.684,-47.5566 667.737,-33.5632 643.206,-23.4514"/>
<polygon fill="midnightblue" stroke="midnightblue" points="644.239,-20.0917 633.66,-19.5164 641.572,-26.5634 644.239,-20.0917"/>
</g>
<!-- Node16 -->
<g id="node16" class="node"><title>Node16</title>
<polygon fill="white" stroke="#bfbfbf" points="655.5,-0.5 655.5,-19.5 698.5,-19.5 698.5,-0.5 655.5,-0.5"/>
<text text-anchor="middle" x="677" y="-7.5" font-family="Helvetica,sans-Serif" font-size="10.00">cstdio</text>
</g>
<!-- Node14&#45;&gt;Node16 -->
<g id="edge18" class="edge"><title>Node14&#45;&gt;Node16</title>
<path fill="none" stroke="midnightblue" d="M733.235,-56.324C723.234,-48.2631 708.113,-36.0765 696.07,-26.3695"/>
<polygon fill="midnightblue" stroke="midnightblue" points="697.943,-23.3841 687.961,-19.8339 693.55,-28.8343 697.943,-23.3841"/>
</g>
<!-- Node17 -->
<g id="node17" class="node"><title>Node17</title>
<polygon fill="white" stroke="#bfbfbf" points="717,-0.5 717,-19.5 771,-19.5 771,-0.5 717,-0.5"/>
<text text-anchor="middle" x="744" y="-7.5" font-family="Helvetica,sans-Serif" font-size="10.00">iostream</text>
</g>
<!-- Node14&#45;&gt;Node17 -->
<g id="edge19" class="edge"><title>Node14&#45;&gt;Node17</title>
<path fill="none" stroke="midnightblue" d="M744,-56.083C744,-49.0059 744,-38.8611 744,-29.9865"/>
<polygon fill="midnightblue" stroke="midnightblue" points="747.5,-29.751 744,-19.7511 740.5,-29.7511 747.5,-29.751"/>
</g>
<!-- Node18 -->
<g id="node18" class="node"><title>Node18</title>
<polygon fill="white" stroke="#bfbfbf" points="789,-0.5 789,-19.5 841,-19.5 841,-0.5 789,-0.5"/>
<text text-anchor="middle" x="815" y="-7.5" font-family="Helvetica,sans-Serif" font-size="10.00">sstream</text>
</g>
<!-- Node14&#45;&gt;Node18 -->
<g id="edge20" class="edge"><title>Node14&#45;&gt;Node18</title>
<path fill="none" stroke="midnightblue" d="M755.407,-56.324C766.109,-48.1849 782.341,-35.8395 795.163,-26.0874"/>
<polygon fill="midnightblue" stroke="midnightblue" points="797.544,-28.6734 803.385,-19.8339 793.307,-23.1018 797.544,-28.6734"/>
</g>
<!-- Node19 -->
<g id="node19" class="node"><title>Node19</title>
<polygon fill="white" stroke="#bfbfbf" points="859,-0.5 859,-19.5 903,-19.5 903,-0.5 859,-0.5"/>
<text text-anchor="middle" x="881" y="-7.5" font-family="Helvetica,sans-Serif" font-size="10.00">thread</text>
</g>
<!-- Node14&#45;&gt;Node19 -->
<g id="edge21" class="edge"><title>Node14&#45;&gt;Node19</title>
<path fill="none" stroke="midnightblue" d="M765.708,-56.4435C788.355,-47.5171 824.072,-33.4387 849.752,-23.3168"/>
<polygon fill="midnightblue" stroke="midnightblue" points="851.374,-26.4397 859.394,-19.5164 848.807,-19.9273 851.374,-26.4397"/>
</g>
<!-- Node20&#45;&gt;Node8 -->
<g id="edge24" class="edge"><title>Node20&#45;&gt;Node8</title>
<path fill="none" stroke="midnightblue" d="M736.678,-367.516C721.748,-376.27 695.549,-390.007 674.707,-400.096"/>
<polygon fill="midnightblue" stroke="midnightblue" points="673.095,-396.987 665.568,-404.444 676.102,-403.308 673.095,-396.987"/>
</g>
<!-- Node21 -->
<g id="node21" class="node"><title>Node21</title>
<g id="a_node21"><a xlink:href="Face_8hpp.html" target="_top" xlink:title="Core/Mesh/DCEL/Face.hpp">
<polygon fill="white" stroke="black" points="917,-292.5 917,-311.5 1055,-311.5 1055,-292.5 917,-292.5"/>
<text text-anchor="middle" x="986" y="-299.5" font-family="Helvetica,sans-Serif" font-size="10.00">Core/Mesh/DCEL/Face.hpp</text>
</a>
</g>
</g>
<!-- Node20&#45;&gt;Node21 -->
<g id="edge25" class="edge"><title>Node20&#45;&gt;Node21</title>
<path fill="none" stroke="midnightblue" d="M785.712,-348.444C827.143,-339.043 893.757,-323.929 938.667,-313.739"/>
<polygon fill="midnightblue" stroke="midnightblue" points="939.487,-317.142 948.465,-311.516 937.938,-310.316 939.487,-317.142"/>
</g>
<!-- Node23 -->
<g id="node23" class="node"><title>Node23</title>
<g id="a_node23"><a xlink:href="Vertex_8hpp.html" target="_top" xlink:title="Core/Mesh/DCEL/Vertex.hpp">
<polygon fill="white" stroke="black" points="585.5,-292.5 585.5,-311.5 730.5,-311.5 730.5,-292.5 585.5,-292.5"/>
<text text-anchor="middle" x="658" y="-299.5" font-family="Helvetica,sans-Serif" font-size="10.00">Core/Mesh/DCEL/Vertex.hpp</text>
</a>
</g>
</g>
<!-- Node20&#45;&gt;Node23 -->
<g id="edge32" class="edge"><title>Node20&#45;&gt;Node23</title>
<path fill="none" stroke="midnightblue" d="M733.54,-348.324C719.5,-339.9 697.952,-326.971 681.457,-317.074"/>
<polygon fill="midnightblue" stroke="midnightblue" points="682.8,-313.798 672.424,-311.655 679.198,-319.801 682.8,-313.798"/>
</g>
<!-- Node21&#45;&gt;Node4 -->
<g id="edge28" class="edge"><title>Node21&#45;&gt;Node4</title>
<path fill="none" stroke="midnightblue" d="M916.677,-296.135C810.196,-288.543 599.698,-273.06 410.291,-256.097"/>
<polygon fill="midnightblue" stroke="midnightblue" points="410.419,-252.595 400.145,-255.185 409.792,-259.566 410.419,-252.595"/>
</g>
<!-- Node21&#45;&gt;Node9 -->
<g id="edge26" class="edge"><title>Node21&#45;&gt;Node9</title>
<path fill="none" stroke="midnightblue" d="M987.799,-292.107C990.685,-279.12 997.157,-254.501 1008,-236 1015.63,-222.98 1026.96,-210.369 1036.46,-200.944"/>
<polygon fill="midnightblue" stroke="midnightblue" points="1039.09,-203.278 1043.9,-193.838 1034.25,-198.218 1039.09,-203.278"/>
</g>
<!-- Node21&#45;&gt;Node12 -->
<g id="edge27" class="edge"><title>Node21&#45;&gt;Node12</title>
<path fill="none" stroke="midnightblue" d="M964.292,-292.444C941.645,-283.517 905.928,-269.439 880.248,-259.317"/>
<polygon fill="midnightblue" stroke="midnightblue" points="881.193,-255.927 870.606,-255.516 878.626,-262.44 881.193,-255.927"/>
</g>
<!-- Node22 -->
<g id="node22" class="node"><title>Node22</title>
<g id="a_node22"><a xlink:href="Face_8inl.html" target="_top" xlink:title="Core/Mesh/DCEL/Face.inl">
<polygon fill="white" stroke="black" points="1017,-236.5 1017,-255.5 1149,-255.5 1149,-236.5 1017,-236.5"/>
<text text-anchor="middle" x="1083" y="-243.5" font-family="Helvetica,sans-Serif" font-size="10.00">Core/Mesh/DCEL/Face.inl</text>
</a>
</g>
</g>
<!-- Node21&#45;&gt;Node22 -->
<g id="edge29" class="edge"><title>Node21&#45;&gt;Node22</title>
<path fill="none" stroke="midnightblue" d="M996.47,-292.324C1010.15,-283.664 1034,-270.242 1053.3,-260.249"/>
<polygon fill="midnightblue" stroke="midnightblue" points="1055.01,-263.304 1062.34,-255.655 1051.84,-257.063 1055.01,-263.304"/>
</g>
<!-- Node22&#45;&gt;Node8 -->
<g id="edge31" class="edge"><title>Node22&#45;&gt;Node8</title>
<path fill="none" stroke="midnightblue" d="M1083.06,-255.537C1082.68,-269.434 1079.83,-296.909 1064,-312 1016.02,-357.75 833.995,-388.481 725.954,-403.117"/>
<polygon fill="midnightblue" stroke="midnightblue" points="725.184,-399.688 715.736,-404.483 726.112,-406.626 725.184,-399.688"/>
</g>
<!-- Node22&#45;&gt;Node21 -->
<g id="edge30" class="edge"><title>Node22&#45;&gt;Node21</title>
<path fill="none" stroke="midnightblue" d="M1072.56,-255.655C1058.9,-264.307 1035.06,-277.727 1015.75,-287.726"/>
<polygon fill="midnightblue" stroke="midnightblue" points="1014.03,-284.674 1006.7,-292.324 1017.2,-290.915 1014.03,-284.674"/>
</g>
<!-- Node23&#45;&gt;Node4 -->
<g id="edge49" class="edge"><title>Node23&#45;&gt;Node4</title>
<path fill="none" stroke="midnightblue" d="M604.601,-292.444C544.703,-282.846 447.634,-267.292 384.055,-257.104"/>
<polygon fill="midnightblue" stroke="midnightblue" points="384.577,-253.643 374.149,-255.516 383.469,-260.555 384.577,-253.643"/>
</g>
<!-- Node23&#45;&gt;Node9 -->
<g id="edge33" class="edge"><title>Node23&#45;&gt;Node9</title>
<path fill="none" stroke="midnightblue" d="M670.685,-292.471C694.523,-276.584 745.372,-243.394 765,-236 785.619,-228.232 910.328,-207.676 989.042,-195.161"/>
<polygon fill="midnightblue" stroke="midnightblue" points="990.024,-198.549 999.352,-193.525 988.928,-191.635 990.024,-198.549"/>
</g>
<!-- Node23&#45;&gt;Node12 -->
<g id="edge34" class="edge"><title>Node23&#45;&gt;Node12</title>
<path fill="none" stroke="midnightblue" d="M688.265,-292.444C720.955,-283.201 773.182,-268.436 809.183,-258.257"/>
<polygon fill="midnightblue" stroke="midnightblue" points="810.206,-261.605 818.877,-255.516 808.302,-254.869 810.206,-261.605"/>
</g>
<!-- Node24 -->
<g id="node24" class="node"><title>Node24</title>
<g id="a_node24"><a xlink:href="LinearAlgebra_8hpp.html" target="_top" xlink:title="Core/Math/LinearAlgebra.hpp">
<polygon fill="white" stroke="black" points="575.5,-236.5 575.5,-255.5 718.5,-255.5 718.5,-236.5 575.5,-236.5"/>
<text text-anchor="middle" x="647" y="-243.5" font-family="Helvetica,sans-Serif" font-size="10.00">Core/Math/LinearAlgebra.hpp</text>
</a>
</g>
</g>
<!-- Node23&#45;&gt;Node24 -->
<g id="edge35" class="edge"><title>Node23&#45;&gt;Node24</title>
<path fill="none" stroke="midnightblue" d="M656.184,-292.083C654.726,-284.927 652.629,-274.635 650.807,-265.691"/>
<polygon fill="midnightblue" stroke="midnightblue" points="654.208,-264.851 648.783,-255.751 647.349,-266.248 654.208,-264.851"/>
</g>
<!-- Node35 -->
<g id="node35" class="node"><title>Node35</title>
<g id="a_node35"><a xlink:href="Vertex_8inl.html" target="_top" xlink:title="Core/Mesh/DCEL/Vertex.inl">
<polygon fill="white" stroke="black" points="418.5,-236.5 418.5,-255.5 557.5,-255.5 557.5,-236.5 418.5,-236.5"/>
<text text-anchor="middle" x="488" y="-243.5" font-family="Helvetica,sans-Serif" font-size="10.00">Core/Mesh/DCEL/Vertex.inl</text>
</a>
</g>
</g>
<!-- Node23&#45;&gt;Node35 -->
<g id="edge50" class="edge"><title>Node23&#45;&gt;Node35</title>
<path fill="none" stroke="midnightblue" d="M625.974,-292.444C595.382,-283.359 549.785,-268.939 519.406,-258.783"/>
<polygon fill="midnightblue" stroke="midnightblue" points="520.325,-255.399 509.731,-255.516 518.086,-262.032 520.325,-255.399"/>
</g>
<!-- Node24&#45;&gt;Node13 -->
<g id="edge36" class="edge"><title>Node24&#45;&gt;Node13</title>
<path fill="none" stroke="midnightblue" d="M671.677,-236.453C688.802,-229.289 710.822,-217.406 724,-200 736.87,-183.001 741.491,-158.503 743.132,-141.732"/>
<polygon fill="midnightblue" stroke="midnightblue" points="746.638,-141.766 743.856,-131.543 739.655,-141.27 746.638,-141.766"/>
</g>
<!-- Node25 -->
<g id="node25" class="node"><title>Node25</title>
<polygon fill="white" stroke="#bfbfbf" points="772.5,-174.5 772.5,-193.5 837.5,-193.5 837.5,-174.5 772.5,-174.5"/>
<text text-anchor="middle" x="805" y="-181.5" font-family="Helvetica,sans-Serif" font-size="10.00">Eigen/Core</text>
</g>
<!-- Node24&#45;&gt;Node25 -->
<g id="edge37" class="edge"><title>Node24&#45;&gt;Node25</title>
<path fill="none" stroke="midnightblue" d="M669.638,-236.403C696.74,-226.111 742.31,-208.806 773.004,-197.15"/>
<polygon fill="midnightblue" stroke="midnightblue" points="774.298,-200.403 782.404,-193.581 771.813,-193.859 774.298,-200.403"/>
</g>
<!-- Node26 -->
<g id="node26" class="node"><title>Node26</title>
<polygon fill="white" stroke="#bfbfbf" points="855.5,-174.5 855.5,-193.5 942.5,-193.5 942.5,-174.5 855.5,-174.5"/>
<text text-anchor="middle" x="899" y="-181.5" font-family="Helvetica,sans-Serif" font-size="10.00">Eigen/Geometry</text>
</g>
<!-- Node24&#45;&gt;Node26 -->
<g id="edge38" class="edge"><title>Node24&#45;&gt;Node26</title>
<path fill="none" stroke="midnightblue" d="M687.552,-236.494C727.872,-227.881 791.419,-213.884 846,-200 850.622,-198.824 855.455,-197.537 860.241,-196.227"/>
<polygon fill="midnightblue" stroke="midnightblue" points="861.222,-199.587 869.917,-193.533 859.344,-192.844 861.222,-199.587"/>
</g>
<!-- Node27 -->
<g id="node27" class="node"><title>Node27</title>
<polygon fill="white" stroke="#bfbfbf" points="132.5,-174.5 132.5,-193.5 207.5,-193.5 207.5,-174.5 132.5,-174.5"/>
<text text-anchor="middle" x="170" y="-181.5" font-family="Helvetica,sans-Serif" font-size="10.00">Eigen/Sparse</text>
</g>
<!-- Node24&#45;&gt;Node27 -->
<g id="edge39" class="edge"><title>Node24&#45;&gt;Node27</title>
<path fill="none" stroke="midnightblue" d="M575.45,-237.018C572.256,-236.672 569.095,-236.331 566,-236 410.511,-219.365 368.978,-232.423 216,-200 211.747,-199.099 207.334,-197.949 203,-196.688"/>
<polygon fill="midnightblue" stroke="midnightblue" points="203.728,-193.249 193.139,-193.608 201.641,-199.93 203.728,-193.249"/>
</g>
<!-- Node28 -->
<g id="node28" class="node"><title>Node28</title>
<polygon fill="white" stroke="#bfbfbf" points="225.5,-174.5 225.5,-193.5 284.5,-193.5 284.5,-174.5 225.5,-174.5"/>
<text text-anchor="middle" x="255" y="-181.5" font-family="Helvetica,sans-Serif" font-size="10.00">functional</text>
</g>
<!-- Node24&#45;&gt;Node28 -->
<g id="edge40" class="edge"><title>Node24&#45;&gt;Node28</title>
<path fill="none" stroke="midnightblue" d="M575.47,-236.875C479.966,-225.878 319.666,-206.843 293,-200 289.939,-199.214 286.791,-198.248 283.681,-197.187"/>
<polygon fill="midnightblue" stroke="midnightblue" points="284.615,-193.8 274.023,-193.584 282.169,-200.358 284.615,-193.8"/>
</g>
<!-- Node29 -->
<g id="node29" class="node"><title>Node29</title>
<polygon fill="white" stroke="#bfbfbf" points="302.5,-169 302.5,-199 435.5,-199 435.5,-169 302.5,-169"/>
<text text-anchor="start" x="310.5" y="-187" font-family="Helvetica,sans-Serif" font-size="10.00">unsupported/Eigen/Aligned</text>
<text text-anchor="middle" x="369" y="-176" font-family="Helvetica,sans-Serif" font-size="10.00">Vector3</text>
</g>
<!-- Node24&#45;&gt;Node29 -->
<g id="edge41" class="edge"><title>Node24&#45;&gt;Node29</title>
<path fill="none" stroke="midnightblue" d="M607.465,-236.467C565.075,-227.318 496.77,-212.576 444.105,-201.21"/>
<polygon fill="midnightblue" stroke="midnightblue" points="444.642,-197.745 434.129,-199.057 443.165,-204.588 444.642,-197.745"/>
</g>
<!-- Node30 -->
<g id="node30" class="node"><title>Node30</title>
<g id="a_node30"><a xlink:href="Math_8hpp.html" target="_top" xlink:title="Core/Math/Math.hpp">
<polygon fill="white" stroke="black" points="454,-174.5 454,-193.5 560,-193.5 560,-174.5 454,-174.5"/>
<text text-anchor="middle" x="507" y="-181.5" font-family="Helvetica,sans-Serif" font-size="10.00">Core/Math/Math.hpp</text>
</a>
</g>
</g>
<!-- Node24&#45;&gt;Node30 -->
<g id="edge42" class="edge"><title>Node24&#45;&gt;Node30</title>
<path fill="none" stroke="midnightblue" d="M626.941,-236.403C603.238,-226.245 563.594,-209.255 536.417,-197.607"/>
<polygon fill="midnightblue" stroke="midnightblue" points="537.592,-194.303 527.021,-193.581 534.834,-200.737 537.592,-194.303"/>
</g>
<!-- Node34 -->
<g id="node34" class="node"><title>Node34</title>
<g id="a_node34"><a xlink:href="LinearAlgebra_8inl.html" target="_top" xlink:title="Core/Math/LinearAlgebra.inl">
<polygon fill="white" stroke="black" points="578.5,-174.5 578.5,-193.5 715.5,-193.5 715.5,-174.5 578.5,-174.5"/>
<text text-anchor="middle" x="647" y="-181.5" font-family="Helvetica,sans-Serif" font-size="10.00">Core/Math/LinearAlgebra.inl</text>
</a>
</g>
</g>
<!-- Node24&#45;&gt;Node34 -->
<g id="edge48" class="edge"><title>Node24&#45;&gt;Node34</title>
<path fill="none" stroke="midnightblue" d="M647,-236.403C647,-227.938 647,-214.728 647,-203.82"/>
<polygon fill="midnightblue" stroke="midnightblue" points="650.5,-203.581 647,-193.581 643.5,-203.581 650.5,-203.581"/>
</g>
<!-- Node30&#45;&gt;Node13 -->
<g id="edge43" class="edge"><title>Node30&#45;&gt;Node13</title>
<path fill="none" stroke="midnightblue" d="M540.705,-174.467C582.733,-163.827 654.645,-145.622 700.711,-133.959"/>
<polygon fill="midnightblue" stroke="midnightblue" points="701.576,-137.351 710.412,-131.503 699.858,-130.565 701.576,-137.351"/>
</g>
<!-- Node31 -->
<g id="node31" class="node"><title>Node31</title>
<polygon fill="white" stroke="#bfbfbf" points="520,-112.5 520,-131.5 576,-131.5 576,-112.5 520,-112.5"/>
<text text-anchor="middle" x="548" y="-119.5" font-family="Helvetica,sans-Serif" font-size="10.00">algorithm</text>
</g>
<!-- Node30&#45;&gt;Node31 -->
<g id="edge44" class="edge"><title>Node30&#45;&gt;Node31</title>
<path fill="none" stroke="midnightblue" d="M512.874,-174.403C518.963,-165.493 528.645,-151.325 536.303,-140.118"/>
<polygon fill="midnightblue" stroke="midnightblue" points="539.384,-141.812 542.137,-131.581 533.605,-137.862 539.384,-141.812"/>
</g>
<!-- Node32 -->
<g id="node32" class="node"><title>Node32</title>
<polygon fill="white" stroke="#bfbfbf" points="594,-112.5 594,-131.5 638,-131.5 638,-112.5 594,-112.5"/>
<text text-anchor="middle" x="616" y="-119.5" font-family="Helvetica,sans-Serif" font-size="10.00">cmath</text>
</g>
<!-- Node30&#45;&gt;Node32 -->
<g id="edge45" class="edge"><title>Node30&#45;&gt;Node32</title>
<path fill="none" stroke="midnightblue" d="M522.617,-174.403C540.586,-164.512 570.321,-148.144 591.406,-136.538"/>
<polygon fill="midnightblue" stroke="midnightblue" points="593.339,-139.469 600.412,-131.581 589.964,-133.337 593.339,-139.469"/>
</g>
<!-- Node33 -->
<g id="node33" class="node"><title>Node33</title>
<g id="a_node33"><a xlink:href="Math_8inl.html" target="_top" xlink:title="Core/Math/Math.inl">
<polygon fill="white" stroke="black" points="402,-112.5 402,-131.5 502,-131.5 502,-112.5 402,-112.5"/>
<text text-anchor="middle" x="452" y="-119.5" font-family="Helvetica,sans-Serif" font-size="10.00">Core/Math/Math.inl</text>
</a>
</g>
</g>
<!-- Node30&#45;&gt;Node33 -->
<g id="edge46" class="edge"><title>Node30&#45;&gt;Node33</title>
<path fill="none" stroke="midnightblue" d="M494.219,-174.403C484.023,-165.403 470.447,-151.041 461.254,-139.782"/>
<polygon fill="midnightblue" stroke="midnightblue" points="463.829,-137.389 454.968,-131.581 458.273,-141.647 463.829,-137.389"/>
</g>
<!-- Node33&#45;&gt;Node30 -->
<g id="edge47" class="edge"><title>Node33&#45;&gt;Node30</title>
<path fill="none" stroke="midnightblue" d="M464.763,-131.581C474.955,-140.574 488.532,-154.936 497.73,-166.198"/>
<polygon fill="midnightblue" stroke="midnightblue" points="495.159,-168.596 504.02,-174.403 500.714,-164.338 495.159,-168.596"/>
</g>
<!-- Node35&#45;&gt;Node8 -->
<g id="edge52" class="edge"><title>Node35&#45;&gt;Node8</title>
<path fill="none" stroke="midnightblue" d="M497.305,-255.645C506.652,-264.478 521.307,-278.742 533,-292 561.285,-324.07 562.578,-336.969 592,-368 602.14,-378.694 614.591,-389.538 624.767,-397.9"/>
<polygon fill="midnightblue" stroke="midnightblue" points="622.699,-400.728 632.679,-404.283 627.094,-395.28 622.699,-400.728"/>
</g>
<!-- Node35&#45;&gt;Node23 -->
<g id="edge51" class="edge"><title>Node35&#45;&gt;Node23</title>
<path fill="none" stroke="midnightblue" d="M519.891,-255.516C550.439,-264.585 596.036,-279.004 626.46,-289.172"/>
<polygon fill="midnightblue" stroke="midnightblue" points="625.558,-292.562 636.152,-292.444 627.796,-285.929 625.558,-292.562"/>
</g>
<!-- Node36&#45;&gt;Node2 -->
<g id="edge54" class="edge"><title>Node36&#45;&gt;Node2</title>
<path fill="none" stroke="midnightblue" d="M666.358,-491.237C669.17,-513.94 669.503,-558.619 667.356,-586.524"/>
<polygon fill="midnightblue" stroke="midnightblue" points="663.855,-586.368 666.37,-596.66 670.822,-587.046 663.855,-586.368"/>
</g>
<!-- Node36&#45;&gt;Node8 -->
<g id="edge56" class="edge"><title>Node36&#45;&gt;Node8</title>
<path fill="none" stroke="midnightblue" d="M657.734,-460.781C655.28,-452.601 652.17,-442.234 649.53,-433.434"/>
<polygon fill="midnightblue" stroke="midnightblue" points="652.845,-432.303 646.619,-423.731 646.14,-434.315 652.845,-432.303"/>
</g>
<!-- Node36&#45;&gt;Node21 -->
<g id="edge55" class="edge"><title>Node36&#45;&gt;Node21</title>
<path fill="none" stroke="midnightblue" d="M688.514,-460.925C749.789,-428.396 900.556,-348.359 960.664,-316.45"/>
<polygon fill="midnightblue" stroke="midnightblue" points="962.637,-319.365 969.829,-311.585 959.355,-313.182 962.637,-319.365"/>
</g>
<!-- Node37&#45;&gt;Node1 -->
<g id="edge58" class="edge"><title>Node37&#45;&gt;Node1</title>
<path fill="none" stroke="midnightblue" d="M832.381,-627.252C833.4,-634.969 833.85,-644.877 833.731,-654.529"/>
<polygon fill="midnightblue" stroke="midnightblue" points="830.224,-654.673 833.379,-664.787 837.22,-654.913 830.224,-654.673"/>
</g>
<!-- Node37&#45;&gt;Node8 -->
<g id="edge69" class="edge"><title>Node37&#45;&gt;Node8</title>
<path fill="none" stroke="midnightblue" d="M762.947,-598.562C706.209,-583.786 626.706,-553.009 589,-492 581.523,-479.902 582.91,-472.852 589,-460 595.128,-447.068 606.994,-436.617 618.141,-429.053"/>
<polygon fill="midnightblue" stroke="midnightblue" points="620.195,-431.896 626.802,-423.614 616.472,-425.968 620.195,-431.896"/>
</g>
<!-- Node37&#45;&gt;Node21 -->
<g id="edge59" class="edge"><title>Node37&#45;&gt;Node21</title>
<path fill="none" stroke="midnightblue" d="M891.216,-599.252C954.569,-583.52 1042,-548.802 1042,-477 1042,-477 1042,-477 1042,-413 1042,-376.436 1017.12,-339.747 1000.53,-319.342"/>
<polygon fill="midnightblue" stroke="midnightblue" points="1003.15,-317.021 994.023,-311.642 997.805,-321.539 1003.15,-317.021"/>
</g>
<!-- Node38 -->
<g id="node38" class="node"><title>Node38</title>
<g id="a_node38"><a xlink:href="FullEdge_8hpp.html" target="_top" xlink:title="Core/Mesh/DCEL/FullEdge.hpp">
<polygon fill="white" stroke="black" points="786.5,-534.5 786.5,-553.5 941.5,-553.5 941.5,-534.5 786.5,-534.5"/>
<text text-anchor="middle" x="864" y="-541.5" font-family="Helvetica,sans-Serif" font-size="10.00">Core/Mesh/DCEL/FullEdge.hpp</text>
</a>
</g>
</g>
<!-- Node37&#45;&gt;Node38 -->
<g id="edge60" class="edge"><title>Node37&#45;&gt;Node38</title>
<path fill="none" stroke="midnightblue" d="M835.028,-596.679C840.626,-586.694 848.131,-573.307 854.1,-562.66"/>
<polygon fill="midnightblue" stroke="midnightblue" points="857.214,-564.263 859.051,-553.828 851.108,-560.84 857.214,-564.263"/>
</g>
<!-- Node38&#45;&gt;Node4 -->
<g id="edge63" class="edge"><title>Node38&#45;&gt;Node4</title>
<path fill="none" stroke="midnightblue" d="M786.291,-540.002C729.132,-535.15 650.94,-522.841 589,-492 471.797,-433.642 368.369,-308.716 333.508,-263.646"/>
<polygon fill="midnightblue" stroke="midnightblue" points="336.149,-261.338 327.297,-255.516 330.586,-265.587 336.149,-261.338"/>
</g>
<!-- Node38&#45;&gt;Node9 -->
<g id="edge61" class="edge"><title>Node38&#45;&gt;Node9</title>
<path fill="none" stroke="midnightblue" d="M908.513,-534.479C994.927,-516.66 1177,-472.314 1177,-415 1177,-415 1177,-415 1177,-301 1177,-270.902 1177.38,-259.027 1158,-236 1142.28,-217.321 1118.08,-204.889 1096.98,-196.979"/>
<polygon fill="midnightblue" stroke="midnightblue" points="1098.14,-193.677 1087.54,-193.657 1095.81,-200.279 1098.14,-193.677"/>
</g>
<!-- Node38&#45;&gt;Node12 -->
<g id="edge62" class="edge"><title>Node38&#45;&gt;Node12</title>
<path fill="none" stroke="midnightblue" d="M890.933,-534.462C910.337,-526.736 935.113,-513.256 947,-492 953.942,-479.587 950.043,-473.893 947,-460 930.045,-382.583 882.196,-299.722 860.251,-264.476"/>
<polygon fill="midnightblue" stroke="midnightblue" points="863.096,-262.426 854.796,-255.841 857.178,-266.164 863.096,-262.426"/>
</g>
<!-- Node39 -->
<g id="node39" class="node"><title>Node39</title>
<g id="a_node39"><a xlink:href="FullEdge_8inl.html" target="_top" xlink:title="Core/Mesh/DCEL/FullEdge.inl">
<polygon fill="white" stroke="black" points="789.5,-466.5 789.5,-485.5 938.5,-485.5 938.5,-466.5 789.5,-466.5"/>
<text text-anchor="middle" x="864" y="-473.5" font-family="Helvetica,sans-Serif" font-size="10.00">Core/Mesh/DCEL/FullEdge.inl</text>
</a>
</g>
</g>
<!-- Node38&#45;&gt;Node39 -->
<g id="edge64" class="edge"><title>Node38&#45;&gt;Node39</title>
<path fill="none" stroke="midnightblue" d="M859.269,-534.372C857.199,-524.643 856.721,-508.528 857.835,-495.85"/>
<polygon fill="midnightblue" stroke="midnightblue" points="861.316,-496.227 859.224,-485.841 854.382,-495.265 861.316,-496.227"/>
</g>
<!-- Node39&#45;&gt;Node8 -->
<g id="edge67" class="edge"><title>Node39&#45;&gt;Node8</title>
<path fill="none" stroke="midnightblue" d="M832.479,-466.403C793.761,-455.844 727.976,-437.903 685.264,-426.254"/>
<polygon fill="midnightblue" stroke="midnightblue" points="686.031,-422.835 675.462,-423.581 684.189,-429.589 686.031,-422.835"/>
</g>
<!-- Node39&#45;&gt;Node21 -->
<g id="edge66" class="edge"><title>Node39&#45;&gt;Node21</title>
<path fill="none" stroke="midnightblue" d="M883.909,-466.462C901.44,-458.016 926.523,-443.526 942,-424 966.564,-393.011 978.19,-347.069 983.029,-321.639"/>
<polygon fill="midnightblue" stroke="midnightblue" points="986.523,-321.979 984.797,-311.526 979.627,-320.774 986.523,-321.979"/>
</g>
<!-- Node39&#45;&gt;Node23 -->
<g id="edge68" class="edge"><title>Node39&#45;&gt;Node23</title>
<path fill="none" stroke="midnightblue" d="M864.578,-466.492C865.623,-443.816 865.177,-381.385 832,-348 808.081,-323.931 773.084,-312.191 740.737,-306.648"/>
<polygon fill="midnightblue" stroke="midnightblue" points="741.215,-303.18 730.799,-305.12 740.151,-310.099 741.215,-303.18"/>
</g>
<!-- Node39&#45;&gt;Node38 -->
<g id="edge65" class="edge"><title>Node39&#45;&gt;Node38</title>
<path fill="none" stroke="midnightblue" d="M868.776,-485.841C870.823,-495.662 871.278,-511.798 870.141,-524.425"/>
<polygon fill="midnightblue" stroke="midnightblue" points="866.669,-523.979 868.731,-534.372 873.6,-524.962 866.669,-523.979"/>
</g>
</g>
</svg>
