<?xml version="1.0" encoding="UTF-8" standalone="no"?>
<!DOCTYPE svg PUBLIC "-//W3C//DTD SVG 1.1//EN"
 "http://www.w3.org/Graphics/SVG/1.1/DTD/svg11.dtd">
<!-- Generated by graphviz version 2.36.0 (20140111.2315)
 -->
<!-- Title: /home/travis/build/STORM&#45;IRIT/Radium&#45;Engine/src/Core/Mesh/DCEL/Iterator/Face/FFEIterator.inl Pages: 1 -->
<svg width="1437pt" height="794pt"
 viewBox="0.00 0.00 1437.00 794.00" xmlns="http://www.w3.org/2000/svg" xmlns:xlink="http://www.w3.org/1999/xlink">
<g id="graph0" class="graph" transform="scale(1 1) rotate(0) translate(4 790)">
<title>/home/travis/build/STORM&#45;IRIT/Radium&#45;Engine/src/Core/Mesh/DCEL/Iterator/Face/FFEIterator.inl</title>
<polygon fill="white" stroke="none" points="-4,4 -4,-790 1433,-790 1433,4 -4,4"/>
<!-- Node1 -->
<g id="node1" class="node"><title>Node1</title>
<polygon fill="#bfbfbf" stroke="black" points="240,-733 240,-785 388,-785 388,-733 240,-733"/>
<text text-anchor="start" x="248" y="-773" font-family="Helvetica,sans-Serif" font-size="10.00">/home/travis/build</text>
<text text-anchor="start" x="248" y="-762" font-family="Helvetica,sans-Serif" font-size="10.00">/STORM&#45;IRIT/Radium&#45;Engine</text>
<text text-anchor="start" x="248" y="-751" font-family="Helvetica,sans-Serif" font-size="10.00">/src/Core/Mesh/DCEL/Iterator</text>
<text text-anchor="middle" x="314" y="-740" font-family="Helvetica,sans-Serif" font-size="10.00">/Face/FFEIterator.inl</text>
</g>
<!-- Node2 -->
<g id="node2" class="node"><title>Node2</title>
<g id="a_node2"><a xlink:href="FFEIterator_8hpp.html" target="_top" xlink:title="Core/Mesh/DCEL/Iterator\l/Face/FFEIterator.hpp">
<polygon fill="white" stroke="black" points="250,-665 250,-695 378,-695 378,-665 250,-665"/>
<text text-anchor="start" x="258" y="-683" font-family="Helvetica,sans-Serif" font-size="10.00">Core/Mesh/DCEL/Iterator</text>
<text text-anchor="middle" x="314" y="-672" font-family="Helvetica,sans-Serif" font-size="10.00">/Face/FFEIterator.hpp</text>
</a>
</g>
</g>
<!-- Node1&#45;&gt;Node2 -->
<g id="edge1" class="edge"><title>Node1&#45;&gt;Node2</title>
<path fill="none" stroke="midnightblue" d="M307.621,-732.787C307.107,-723.932 307.127,-714.007 307.68,-705.234"/>
<polygon fill="midnightblue" stroke="midnightblue" points="311.167,-705.536 308.619,-695.252 304.198,-704.88 311.167,-705.536"/>
</g>
<!-- Node9 -->
<g id="node9" class="node"><title>Node9</title>
<g id="a_node9"><a xlink:href="DCEL_2HalfEdge_8hpp.html" target="_top" xlink:title="Core/Mesh/DCEL/HalfEdge.hpp">
<polygon fill="white" stroke="black" points="294.5,-404.5 294.5,-423.5 451.5,-423.5 451.5,-404.5 294.5,-404.5"/>
<text text-anchor="middle" x="373" y="-411.5" font-family="Helvetica,sans-Serif" font-size="10.00">Core/Mesh/DCEL/HalfEdge.hpp</text>
</a>
</g>
</g>
<!-- Node1&#45;&gt;Node9 -->
<g id="edge69" class="edge"><title>Node1&#45;&gt;Node9</title>
<path fill="none" stroke="midnightblue" d="M352.669,-732.822C365.34,-722.781 378.368,-710.211 387,-696 406.647,-663.656 406,-650.843 406,-613 406,-613 406,-613 406,-543 406,-502.819 390.563,-457.725 380.806,-433.235"/>
<polygon fill="midnightblue" stroke="midnightblue" points="383.963,-431.71 376.915,-423.799 377.491,-434.378 383.963,-431.71"/>
</g>
<!-- Node22 -->
<g id="node22" class="node"><title>Node22</title>
<g id="a_node22"><a xlink:href="Face_8hpp.html" target="_top" xlink:title="Core/Mesh/DCEL/Face.hpp">
<polygon fill="white" stroke="black" points="218,-292.5 218,-311.5 356,-311.5 356,-292.5 218,-292.5"/>
<text text-anchor="middle" x="287" y="-299.5" font-family="Helvetica,sans-Serif" font-size="10.00">Core/Mesh/DCEL/Face.hpp</text>
</a>
</g>
</g>
<!-- Node1&#45;&gt;Node22 -->
<g id="edge59" class="edge"><title>Node1&#45;&gt;Node22</title>
<path fill="none" stroke="midnightblue" d="M239.674,-750.781C157.927,-738.266 38,-704.339 38,-613 38,-613 38,-613 38,-543 38,-423.397 188.769,-344.61 255.669,-315.537"/>
<polygon fill="midnightblue" stroke="midnightblue" points="257.071,-318.744 264.903,-311.609 254.331,-312.303 257.071,-318.744"/>
</g>
<!-- Node38 -->
<g id="node38" class="node"><title>Node38</title>
<g id="a_node38"><a xlink:href="FullEdge_8hpp.html" target="_top" xlink:title="Core/Mesh/DCEL/FullEdge.hpp">
<polygon fill="white" stroke="black" points="472.5,-534.5 472.5,-553.5 627.5,-553.5 627.5,-534.5 472.5,-534.5"/>
<text text-anchor="middle" x="550" y="-541.5" font-family="Helvetica,sans-Serif" font-size="10.00">Core/Mesh/DCEL/FullEdge.hpp</text>
</a>
</g>
</g>
<!-- Node1&#45;&gt;Node38 -->
<g id="edge60" class="edge"><title>Node1&#45;&gt;Node38</title>
<path fill="none" stroke="midnightblue" d="M364.52,-732.946C382.873,-722.714 403.211,-709.988 420,-696 470.122,-654.242 516.947,-592.061 538.131,-562.21"/>
<polygon fill="midnightblue" stroke="midnightblue" points="541.208,-563.919 544.08,-553.721 535.475,-559.902 541.208,-563.919"/>
</g>
<!-- Node2&#45;&gt;Node1 -->
<g id="edge58" class="edge"><title>Node2&#45;&gt;Node1</title>
<path fill="none" stroke="midnightblue" d="M319.381,-695.252C320.4,-702.969 320.85,-712.877 320.731,-722.529"/>
<polygon fill="midnightblue" stroke="midnightblue" points="317.224,-722.673 320.379,-732.787 324.22,-722.913 317.224,-722.673"/>
</g>
<!-- Node3 -->
<g id="node3" class="node"><title>Node3</title>
<g id="a_node3"><a xlink:href="FaceIterator_8hpp.html" target="_top" xlink:title="Core/Mesh/DCEL/Iterator\l/Face/FaceIterator.hpp">
<polygon fill="white" stroke="black" points="250,-597 250,-627 378,-627 378,-597 250,-597"/>
<text text-anchor="start" x="258" y="-615" font-family="Helvetica,sans-Serif" font-size="10.00">Core/Mesh/DCEL/Iterator</text>
<text text-anchor="middle" x="314" y="-604" font-family="Helvetica,sans-Serif" font-size="10.00">/Face/FaceIterator.hpp</text>
</a>
</g>
</g>
<!-- Node2&#45;&gt;Node3 -->
<g id="edge2" class="edge"><title>Node2&#45;&gt;Node3</title>
<path fill="none" stroke="midnightblue" d="M314,-664.679C314,-656.722 314,-646.605 314,-637.436"/>
<polygon fill="midnightblue" stroke="midnightblue" points="317.5,-637.293 314,-627.293 310.5,-637.293 317.5,-637.293"/>
</g>
<!-- Node4 -->
<g id="node4" class="node"><title>Node4</title>
<g id="a_node4"><a xlink:href="Iterator_8hpp.html" target="_top" xlink:title="Core/Mesh/DCEL/Iterator\l/Iterator.hpp">
<polygon fill="white" stroke="black" points="104,-529 104,-559 232,-559 232,-529 104,-529"/>
<text text-anchor="start" x="112" y="-547" font-family="Helvetica,sans-Serif" font-size="10.00">Core/Mesh/DCEL/Iterator</text>
<text text-anchor="middle" x="168" y="-536" font-family="Helvetica,sans-Serif" font-size="10.00">/Iterator.hpp</text>
</a>
</g>
</g>
<!-- Node3&#45;&gt;Node4 -->
<g id="edge3" class="edge"><title>Node3&#45;&gt;Node4</title>
<path fill="none" stroke="midnightblue" d="M282.679,-596.841C260.955,-587.021 231.824,-573.852 208.36,-563.245"/>
<polygon fill="midnightblue" stroke="midnightblue" points="209.572,-559.952 199.018,-559.022 206.688,-566.33 209.572,-559.952"/>
</g>
<!-- Node37 -->
<g id="node37" class="node"><title>Node37</title>
<g id="a_node37"><a xlink:href="FaceIterator_8inl.html" target="_top" xlink:title="Core/Mesh/DCEL/Iterator\l/Face/FaceIterator.inl">
<polygon fill="white" stroke="black" points="250,-461 250,-491 378,-491 378,-461 250,-461"/>
<text text-anchor="start" x="258" y="-479" font-family="Helvetica,sans-Serif" font-size="10.00">Core/Mesh/DCEL/Iterator</text>
<text text-anchor="middle" x="314" y="-468" font-family="Helvetica,sans-Serif" font-size="10.00">/Face/FaceIterator.inl</text>
</a>
</g>
</g>
<!-- Node3&#45;&gt;Node37 -->
<g id="edge54" class="edge"><title>Node3&#45;&gt;Node37</title>
<path fill="none" stroke="midnightblue" d="M309.63,-596.66C306.825,-573.891 306.499,-529.203 308.654,-501.349"/>
<polygon fill="midnightblue" stroke="midnightblue" points="312.152,-501.53 309.642,-491.237 305.186,-500.849 312.152,-501.53"/>
</g>
<!-- Node5 -->
<g id="node5" class="node"><title>Node5</title>
<g id="a_node5"><a xlink:href="Definition_8hpp.html" target="_top" xlink:title="Core/Mesh/DCEL/Definition.hpp">
<polygon fill="white" stroke="black" points="40,-236.5 40,-255.5 198,-255.5 198,-236.5 40,-236.5"/>
<text text-anchor="middle" x="119" y="-243.5" font-family="Helvetica,sans-Serif" font-size="10.00">Core/Mesh/DCEL/Definition.hpp</text>
</a>
</g>
</g>
<!-- Node4&#45;&gt;Node5 -->
<g id="edge4" class="edge"><title>Node4&#45;&gt;Node5</title>
<path fill="none" stroke="midnightblue" d="M138.442,-528.912C123.314,-520.266 105.848,-507.806 95,-492 75.0548,-462.937 76,-450.249 76,-415 76,-415 76,-415 76,-357 76,-322.306 94.7847,-285.42 107.523,-264.396"/>
<polygon fill="midnightblue" stroke="midnightblue" points="110.65,-265.998 113.021,-255.672 104.728,-262.266 110.65,-265.998"/>
</g>
<!-- Node7 -->
<g id="node7" class="node"><title>Node7</title>
<polygon fill="white" stroke="#bfbfbf" points="5,-174.5 5,-193.5 49,-193.5 49,-174.5 5,-174.5"/>
<text text-anchor="middle" x="27" y="-181.5" font-family="Helvetica,sans-Serif" font-size="10.00">vector</text>
</g>
<!-- Node4&#45;&gt;Node7 -->
<g id="edge7" class="edge"><title>Node4&#45;&gt;Node7</title>
<path fill="none" stroke="midnightblue" d="M119.407,-528.912C69.7906,-511.187 0,-475.502 0,-415 0,-415 0,-415 0,-301 0,-265.639 12.0491,-225.756 20.049,-203.173"/>
<polygon fill="midnightblue" stroke="midnightblue" points="23.4131,-204.165 23.5804,-193.572 16.8434,-201.749 23.4131,-204.165"/>
</g>
<!-- Node8 -->
<g id="node8" class="node"><title>Node8</title>
<g id="a_node8"><a xlink:href="Iterator_8inl.html" target="_top" xlink:title="Core/Mesh/DCEL/Iterator\l/Iterator.inl">
<polygon fill="white" stroke="black" points="104,-461 104,-491 232,-491 232,-461 104,-461"/>
<text text-anchor="start" x="112" y="-479" font-family="Helvetica,sans-Serif" font-size="10.00">Core/Mesh/DCEL/Iterator</text>
<text text-anchor="middle" x="168" y="-468" font-family="Helvetica,sans-Serif" font-size="10.00">/Iterator.inl</text>
</a>
</g>
</g>
<!-- Node4&#45;&gt;Node8 -->
<g id="edge8" class="edge"><title>Node4&#45;&gt;Node8</title>
<path fill="none" stroke="midnightblue" d="M162.322,-528.679C161.294,-520.722 161.005,-510.605 161.456,-501.436"/>
<polygon fill="midnightblue" stroke="midnightblue" points="164.959,-501.555 162.325,-491.293 157.984,-500.958 164.959,-501.555"/>
</g>
<!-- Node6 -->
<g id="node6" class="node"><title>Node6</title>
<polygon fill="white" stroke="#bfbfbf" points="93,-174.5 93,-193.5 145,-193.5 145,-174.5 93,-174.5"/>
<text text-anchor="middle" x="119" y="-181.5" font-family="Helvetica,sans-Serif" font-size="10.00">memory</text>
</g>
<!-- Node5&#45;&gt;Node6 -->
<g id="edge5" class="edge"><title>Node5&#45;&gt;Node6</title>
<path fill="none" stroke="midnightblue" d="M119,-236.403C119,-227.938 119,-214.728 119,-203.82"/>
<polygon fill="midnightblue" stroke="midnightblue" points="122.5,-203.581 119,-193.581 115.5,-203.581 122.5,-203.581"/>
</g>
<!-- Node5&#45;&gt;Node7 -->
<g id="edge6" class="edge"><title>Node5&#45;&gt;Node7</title>
<path fill="none" stroke="midnightblue" d="M105.819,-236.403C90.9255,-226.691 66.4556,-210.732 48.7269,-199.17"/>
<polygon fill="midnightblue" stroke="midnightblue" points="50.445,-196.112 40.1569,-193.581 46.6211,-201.975 50.445,-196.112"/>
</g>
<!-- Node8&#45;&gt;Node4 -->
<g id="edge9" class="edge"><title>Node8&#45;&gt;Node4</title>
<path fill="none" stroke="midnightblue" d="M173.675,-491.293C174.704,-499.245 174.995,-509.361 174.545,-518.532"/>
<polygon fill="midnightblue" stroke="midnightblue" points="171.042,-518.417 173.678,-528.679 178.017,-519.013 171.042,-518.417"/>
</g>
<!-- Node8&#45;&gt;Node9 -->
<g id="edge10" class="edge"><title>Node8&#45;&gt;Node9</title>
<path fill="none" stroke="midnightblue" d="M216.063,-460.933C251.992,-450.417 300.491,-436.222 334.02,-426.409"/>
<polygon fill="midnightblue" stroke="midnightblue" points="335.301,-429.681 343.915,-423.513 333.334,-422.963 335.301,-429.681"/>
</g>
<!-- Node9&#45;&gt;Node5 -->
<g id="edge23" class="edge"><title>Node9&#45;&gt;Node5</title>
<path fill="none" stroke="midnightblue" d="M328.962,-404.472C300.609,-397.62 263.808,-386.096 235,-368 190.008,-339.739 150.189,-290.243 131.049,-264.176"/>
<polygon fill="midnightblue" stroke="midnightblue" points="133.644,-261.789 124.962,-255.715 127.961,-265.877 133.644,-261.789"/>
</g>
<!-- Node10 -->
<g id="node10" class="node"><title>Node10</title>
<g id="a_node10"><a xlink:href="Index_8hpp.html" target="_top" xlink:title="Core/Index/Index.hpp">
<polygon fill="white" stroke="black" points="398,-174.5 398,-193.5 508,-193.5 508,-174.5 398,-174.5"/>
<text text-anchor="middle" x="453" y="-181.5" font-family="Helvetica,sans-Serif" font-size="10.00">Core/Index/Index.hpp</text>
</a>
</g>
</g>
<!-- Node9&#45;&gt;Node10 -->
<g id="edge11" class="edge"><title>Node9&#45;&gt;Node10</title>
<path fill="none" stroke="midnightblue" d="M404.023,-404.436C422.032,-397.694 443.231,-386.302 454,-368 483.997,-317.019 428.044,-294.469 437,-236 438.695,-224.937 442.344,-212.978 445.73,-203.423"/>
<polygon fill="midnightblue" stroke="midnightblue" points="449.092,-204.425 449.323,-193.832 442.537,-201.969 449.092,-204.425"/>
</g>
<!-- Node13 -->
<g id="node13" class="node"><title>Node13</title>
<g id="a_node13"><a xlink:href="IndexedObject_8hpp.html" target="_top" xlink:title="Core/Index/IndexedObject.hpp">
<polygon fill="white" stroke="black" points="641.5,-236.5 641.5,-255.5 790.5,-255.5 790.5,-236.5 641.5,-236.5"/>
<text text-anchor="middle" x="716" y="-243.5" font-family="Helvetica,sans-Serif" font-size="10.00">Core/Index/IndexedObject.hpp</text>
</a>
</g>
</g>
<!-- Node9&#45;&gt;Node13 -->
<g id="edge14" class="edge"><title>Node9&#45;&gt;Node13</title>
<path fill="none" stroke="midnightblue" d="M451.513,-408.029C523.577,-399.384 628.761,-375.85 694,-312 706.362,-299.901 711.778,-280.619 714.151,-266.193"/>
<polygon fill="midnightblue" stroke="midnightblue" points="717.671,-266.259 715.476,-255.894 710.728,-265.366 717.671,-266.259"/>
</g>
<!-- Node21 -->
<g id="node21" class="node"><title>Node21</title>
<g id="a_node21"><a xlink:href="DCEL_2HalfEdge_8inl.html" target="_top" xlink:title="Core/Mesh/DCEL/HalfEdge.inl">
<polygon fill="white" stroke="black" points="294.5,-348.5 294.5,-367.5 445.5,-367.5 445.5,-348.5 294.5,-348.5"/>
<text text-anchor="middle" x="370" y="-355.5" font-family="Helvetica,sans-Serif" font-size="10.00">Core/Mesh/DCEL/HalfEdge.inl</text>
</a>
</g>
</g>
<!-- Node9&#45;&gt;Node21 -->
<g id="edge24" class="edge"><title>Node9&#45;&gt;Node21</title>
<path fill="none" stroke="midnightblue" d="M367.338,-404.083C365.452,-397.006 364.451,-386.861 364.576,-377.986"/>
<polygon fill="midnightblue" stroke="midnightblue" points="368.086,-377.988 365.355,-367.751 361.106,-377.457 368.086,-377.988"/>
</g>
<!-- Node11 -->
<g id="node11" class="node"><title>Node11</title>
<polygon fill="white" stroke="#bfbfbf" points="343,-112.5 343,-131.5 383,-131.5 383,-112.5 343,-112.5"/>
<text text-anchor="middle" x="363" y="-119.5" font-family="Helvetica,sans-Serif" font-size="10.00">limits</text>
</g>
<!-- Node10&#45;&gt;Node11 -->
<g id="edge12" class="edge"><title>Node10&#45;&gt;Node11</title>
<path fill="none" stroke="midnightblue" d="M440.105,-174.403C425.536,-164.691 401.598,-148.732 384.255,-137.17"/>
<polygon fill="midnightblue" stroke="midnightblue" points="386.133,-134.215 375.871,-131.581 382.25,-140.04 386.133,-134.215"/>
</g>
<!-- Node12 -->
<g id="node12" class="node"><title>Node12</title>
<g id="a_node12"><a xlink:href="Index_8inl.html" target="_top" xlink:title="Core/Index/Index.inl">
<polygon fill="white" stroke="black" points="401,-112.5 401,-131.5 505,-131.5 505,-112.5 401,-112.5"/>
<text text-anchor="middle" x="453" y="-119.5" font-family="Helvetica,sans-Serif" font-size="10.00">Core/Index/Index.inl</text>
</a>
</g>
</g>
<!-- Node10&#45;&gt;Node12 -->
<g id="edge13" class="edge"><title>Node10&#45;&gt;Node12</title>
<path fill="none" stroke="midnightblue" d="M453,-174.403C453,-165.938 453,-152.728 453,-141.82"/>
<polygon fill="midnightblue" stroke="midnightblue" points="456.5,-141.581 453,-131.581 449.5,-141.581 456.5,-141.581"/>
</g>
<!-- Node13&#45;&gt;Node10 -->
<g id="edge15" class="edge"><title>Node13&#45;&gt;Node10</title>
<path fill="none" stroke="midnightblue" d="M678.598,-236.467C631.666,-225.76 551.153,-207.392 500.077,-195.74"/>
<polygon fill="midnightblue" stroke="midnightblue" points="500.801,-192.315 490.273,-193.503 499.244,-199.14 500.801,-192.315"/>
</g>
<!-- Node14 -->
<g id="node14" class="node"><title>Node14</title>
<g id="a_node14"><a xlink:href="RaCore_8hpp.html" target="_top" xlink:title="Core/RaCore.hpp">
<polygon fill="white" stroke="black" points="776.5,-112.5 776.5,-131.5 869.5,-131.5 869.5,-112.5 776.5,-112.5"/>
<text text-anchor="middle" x="823" y="-119.5" font-family="Helvetica,sans-Serif" font-size="10.00">Core/RaCore.hpp</text>
</a>
</g>
</g>
<!-- Node13&#45;&gt;Node14 -->
<g id="edge16" class="edge"><title>Node13&#45;&gt;Node14</title>
<path fill="none" stroke="midnightblue" d="M715.898,-236.374C716.157,-220.988 718.754,-188.505 735,-168 746.936,-152.934 765.275,-142.437 782.129,-135.395"/>
<polygon fill="midnightblue" stroke="midnightblue" points="783.76,-138.516 791.82,-131.64 781.231,-131.989 783.76,-138.516"/>
</g>
<!-- Node15 -->
<g id="node15" class="node"><title>Node15</title>
<g id="a_node15"><a xlink:href="CoreMacros_8hpp.html" target="_top" xlink:title="Core/CoreMacros.hpp">
<polygon fill="white" stroke="black" points="766.5,-56.5 766.5,-75.5 879.5,-75.5 879.5,-56.5 766.5,-56.5"/>
<text text-anchor="middle" x="823" y="-63.5" font-family="Helvetica,sans-Serif" font-size="10.00">Core/CoreMacros.hpp</text>
</a>
</g>
</g>
<!-- Node14&#45;&gt;Node15 -->
<g id="edge17" class="edge"><title>Node14&#45;&gt;Node15</title>
<path fill="none" stroke="midnightblue" d="M823,-112.083C823,-105.006 823,-94.8611 823,-85.9865"/>
<polygon fill="midnightblue" stroke="midnightblue" points="826.5,-85.751 823,-75.7511 819.5,-85.7511 826.5,-85.751"/>
</g>
<!-- Node16 -->
<g id="node16" class="node"><title>Node16</title>
<polygon fill="white" stroke="#bfbfbf" points="667.5,-0.5 667.5,-19.5 716.5,-19.5 716.5,-0.5 667.5,-0.5"/>
<text text-anchor="middle" x="692" y="-7.5" font-family="Helvetica,sans-Serif" font-size="10.00">cassert</text>
</g>
<!-- Node15&#45;&gt;Node16 -->
<g id="edge18" class="edge"><title>Node15&#45;&gt;Node16</title>
<path fill="none" stroke="midnightblue" d="M802.243,-56.4435C780.684,-47.5566 746.737,-33.5632 722.206,-23.4514"/>
<polygon fill="midnightblue" stroke="midnightblue" points="723.239,-20.0917 712.66,-19.5164 720.572,-26.5634 723.239,-20.0917"/>
</g>
<!-- Node17 -->
<g id="node17" class="node"><title>Node17</title>
<polygon fill="white" stroke="#bfbfbf" points="734.5,-0.5 734.5,-19.5 777.5,-19.5 777.5,-0.5 734.5,-0.5"/>
<text text-anchor="middle" x="756" y="-7.5" font-family="Helvetica,sans-Serif" font-size="10.00">cstdio</text>
</g>
<!-- Node15&#45;&gt;Node17 -->
<g id="edge19" class="edge"><title>Node15&#45;&gt;Node17</title>
<path fill="none" stroke="midnightblue" d="M812.235,-56.324C802.234,-48.2631 787.113,-36.0765 775.07,-26.3695"/>
<polygon fill="midnightblue" stroke="midnightblue" points="776.943,-23.3841 766.961,-19.8339 772.55,-28.8343 776.943,-23.3841"/>
</g>
<!-- Node18 -->
<g id="node18" class="node"><title>Node18</title>
<polygon fill="white" stroke="#bfbfbf" points="796,-0.5 796,-19.5 850,-19.5 850,-0.5 796,-0.5"/>
<text text-anchor="middle" x="823" y="-7.5" font-family="Helvetica,sans-Serif" font-size="10.00">iostream</text>
</g>
<!-- Node15&#45;&gt;Node18 -->
<g id="edge20" class="edge"><title>Node15&#45;&gt;Node18</title>
<path fill="none" stroke="midnightblue" d="M823,-56.083C823,-49.0059 823,-38.8611 823,-29.9865"/>
<polygon fill="midnightblue" stroke="midnightblue" points="826.5,-29.751 823,-19.7511 819.5,-29.7511 826.5,-29.751"/>
</g>
<!-- Node19 -->
<g id="node19" class="node"><title>Node19</title>
<polygon fill="white" stroke="#bfbfbf" points="868,-0.5 868,-19.5 920,-19.5 920,-0.5 868,-0.5"/>
<text text-anchor="middle" x="894" y="-7.5" font-family="Helvetica,sans-Serif" font-size="10.00">sstream</text>
</g>
<!-- Node15&#45;&gt;Node19 -->
<g id="edge21" class="edge"><title>Node15&#45;&gt;Node19</title>
<path fill="none" stroke="midnightblue" d="M834.407,-56.324C845.109,-48.1849 861.341,-35.8395 874.163,-26.0874"/>
<polygon fill="midnightblue" stroke="midnightblue" points="876.544,-28.6734 882.385,-19.8339 872.307,-23.1018 876.544,-28.6734"/>
</g>
<!-- Node20 -->
<g id="node20" class="node"><title>Node20</title>
<polygon fill="white" stroke="#bfbfbf" points="938,-0.5 938,-19.5 982,-19.5 982,-0.5 938,-0.5"/>
<text text-anchor="middle" x="960" y="-7.5" font-family="Helvetica,sans-Serif" font-size="10.00">thread</text>
</g>
<!-- Node15&#45;&gt;Node20 -->
<g id="edge22" class="edge"><title>Node15&#45;&gt;Node20</title>
<path fill="none" stroke="midnightblue" d="M844.708,-56.4435C867.355,-47.5171 903.072,-33.4387 928.752,-23.3168"/>
<polygon fill="midnightblue" stroke="midnightblue" points="930.374,-26.4397 938.394,-19.5164 927.807,-19.9273 930.374,-26.4397"/>
</g>
<!-- Node21&#45;&gt;Node9 -->
<g id="edge25" class="edge"><title>Node21&#45;&gt;Node9</title>
<path fill="none" stroke="midnightblue" d="M375.617,-367.751C377.538,-374.858 378.556,-385.136 378.422,-394.101"/>
<polygon fill="midnightblue" stroke="midnightblue" points="374.932,-393.848 377.671,-404.083 381.912,-394.374 374.932,-393.848"/>
</g>
<!-- Node21&#45;&gt;Node22 -->
<g id="edge26" class="edge"><title>Node21&#45;&gt;Node22</title>
<path fill="none" stroke="midnightblue" d="M356.665,-348.324C343.838,-339.979 324.215,-327.212 309.06,-317.352"/>
<polygon fill="midnightblue" stroke="midnightblue" points="310.593,-314.174 300.302,-311.655 306.776,-320.042 310.593,-314.174"/>
</g>
<!-- Node24 -->
<g id="node24" class="node"><title>Node24</title>
<g id="a_node24"><a xlink:href="Vertex_8hpp.html" target="_top" xlink:title="Core/Mesh/DCEL/Vertex.hpp">
<polygon fill="white" stroke="black" points="540.5,-292.5 540.5,-311.5 685.5,-311.5 685.5,-292.5 540.5,-292.5"/>
<text text-anchor="middle" x="613" y="-299.5" font-family="Helvetica,sans-Serif" font-size="10.00">Core/Mesh/DCEL/Vertex.hpp</text>
</a>
</g>
</g>
<!-- Node21&#45;&gt;Node24 -->
<g id="edge33" class="edge"><title>Node21&#45;&gt;Node24</title>
<path fill="none" stroke="midnightblue" d="M408.504,-348.444C450.806,-339.043 518.819,-323.929 564.673,-313.739"/>
<polygon fill="midnightblue" stroke="midnightblue" points="565.673,-317.102 574.676,-311.516 564.155,-310.269 565.673,-317.102"/>
</g>
<!-- Node22&#45;&gt;Node5 -->
<g id="edge29" class="edge"><title>Node22&#45;&gt;Node5</title>
<path fill="none" stroke="midnightblue" d="M260.38,-292.444C231.994,-283.32 186.863,-268.813 155.247,-258.651"/>
<polygon fill="midnightblue" stroke="midnightblue" points="156.087,-255.244 145.496,-255.516 153.945,-261.909 156.087,-255.244"/>
</g>
<!-- Node22&#45;&gt;Node10 -->
<g id="edge27" class="edge"><title>Node22&#45;&gt;Node10</title>
<path fill="none" stroke="midnightblue" d="M302.333,-292.344C317.52,-283.616 341.293,-269.535 361,-256 387.298,-237.939 416.209,-215.101 434.471,-200.279"/>
<polygon fill="midnightblue" stroke="midnightblue" points="436.992,-202.739 442.523,-193.702 432.564,-197.317 436.992,-202.739"/>
</g>
<!-- Node22&#45;&gt;Node13 -->
<g id="edge28" class="edge"><title>Node22&#45;&gt;Node13</title>
<path fill="none" stroke="midnightblue" d="M354.976,-292.444C432.011,-282.747 557.342,-266.971 638.216,-256.791"/>
<polygon fill="midnightblue" stroke="midnightblue" points="638.857,-260.238 648.342,-255.516 637.983,-253.293 638.857,-260.238"/>
</g>
<!-- Node23 -->
<g id="node23" class="node"><title>Node23</title>
<g id="a_node23"><a xlink:href="Face_8inl.html" target="_top" xlink:title="Core/Mesh/DCEL/Face.inl">
<polygon fill="white" stroke="black" points="220,-236.5 220,-255.5 352,-255.5 352,-236.5 220,-236.5"/>
<text text-anchor="middle" x="286" y="-243.5" font-family="Helvetica,sans-Serif" font-size="10.00">Core/Mesh/DCEL/Face.inl</text>
</a>
</g>
</g>
<!-- Node22&#45;&gt;Node23 -->
<g id="edge30" class="edge"><title>Node22&#45;&gt;Node23</title>
<path fill="none" stroke="midnightblue" d="M281.669,-292.083C280.027,-284.927 279.406,-274.635 279.889,-265.691"/>
<polygon fill="midnightblue" stroke="midnightblue" points="283.366,-266.085 281.031,-255.751 276.412,-265.286 283.366,-266.085"/>
</g>
<!-- Node23&#45;&gt;Node9 -->
<g id="edge32" class="edge"><title>Node23&#45;&gt;Node9</title>
<path fill="none" stroke="midnightblue" d="M259.774,-255.651C232.606,-266.208 195.824,-285.925 209,-312 233.172,-359.836 291.366,-387.364 331.503,-401.262"/>
<polygon fill="midnightblue" stroke="midnightblue" points="330.44,-404.597 341.033,-404.426 332.645,-397.954 330.44,-404.597"/>
</g>
<!-- Node23&#45;&gt;Node22 -->
<g id="edge31" class="edge"><title>Node23&#45;&gt;Node22</title>
<path fill="none" stroke="midnightblue" d="M291.293,-255.751C292.951,-262.858 293.588,-273.136 293.122,-282.101"/>
<polygon fill="midnightblue" stroke="midnightblue" points="289.639,-281.755 292.001,-292.083 296.596,-282.536 289.639,-281.755"/>
</g>
<!-- Node24&#45;&gt;Node5 -->
<g id="edge50" class="edge"><title>Node24&#45;&gt;Node5</title>
<path fill="none" stroke="midnightblue" d="M540.374,-293.061C451.748,-283.373 301.99,-267.003 206.933,-256.612"/>
<polygon fill="midnightblue" stroke="midnightblue" points="207.087,-253.108 196.766,-255.501 206.326,-260.067 207.087,-253.108"/>
</g>
<!-- Node24&#45;&gt;Node10 -->
<g id="edge34" class="edge"><title>Node24&#45;&gt;Node10</title>
<path fill="none" stroke="midnightblue" d="M612.851,-292.209C612.146,-278.449 608.81,-251.768 594,-236 574.081,-214.791 544.676,-202.381 517.867,-195.128"/>
<polygon fill="midnightblue" stroke="midnightblue" points="518.681,-191.724 508.129,-192.683 516.976,-198.513 518.681,-191.724"/>
</g>
<!-- Node24&#45;&gt;Node13 -->
<g id="edge35" class="edge"><title>Node24&#45;&gt;Node13</title>
<path fill="none" stroke="midnightblue" d="M629.549,-292.324C645.992,-283.703 671.435,-270.364 690.468,-260.386"/>
<polygon fill="midnightblue" stroke="midnightblue" points="692.261,-263.398 699.492,-255.655 689.011,-257.198 692.261,-263.398"/>
</g>
<!-- Node25 -->
<g id="node25" class="node"><title>Node25</title>
<g id="a_node25"><a xlink:href="LinearAlgebra_8hpp.html" target="_top" xlink:title="Core/Math/LinearAlgebra.hpp">
<polygon fill="white" stroke="black" points="969.5,-236.5 969.5,-255.5 1112.5,-255.5 1112.5,-236.5 969.5,-236.5"/>
<text text-anchor="middle" x="1041" y="-243.5" font-family="Helvetica,sans-Serif" font-size="10.00">Core/Math/LinearAlgebra.hpp</text>
</a>
</g>
</g>
<!-- Node24&#45;&gt;Node25 -->
<g id="edge36" class="edge"><title>Node24&#45;&gt;Node25</title>
<path fill="none" stroke="midnightblue" d="M680.818,-292.444C757.673,-282.747 882.712,-266.971 963.397,-256.791"/>
<polygon fill="midnightblue" stroke="midnightblue" points="964.016,-260.241 973.499,-255.516 963.14,-253.296 964.016,-260.241"/>
</g>
<!-- Node36 -->
<g id="node36" class="node"><title>Node36</title>
<g id="a_node36"><a xlink:href="Vertex_8inl.html" target="_top" xlink:title="Core/Mesh/DCEL/Vertex.inl">
<polygon fill="white" stroke="black" points="446.5,-236.5 446.5,-255.5 585.5,-255.5 585.5,-236.5 446.5,-236.5"/>
<text text-anchor="middle" x="516" y="-243.5" font-family="Helvetica,sans-Serif" font-size="10.00">Core/Mesh/DCEL/Vertex.inl</text>
</a>
</g>
</g>
<!-- Node24&#45;&gt;Node36 -->
<g id="edge51" class="edge"><title>Node24&#45;&gt;Node36</title>
<path fill="none" stroke="midnightblue" d="M592.3,-292.324C575.345,-283.9 551.822,-270.971 535.272,-261.074"/>
<polygon fill="midnightblue" stroke="midnightblue" points="536.79,-257.899 526.436,-255.655 533.13,-263.866 536.79,-257.899"/>
</g>
<!-- Node25&#45;&gt;Node14 -->
<g id="edge37" class="edge"><title>Node25&#45;&gt;Node14</title>
<path fill="none" stroke="midnightblue" d="M1069.37,-236.495C1086.75,-229.653 1107.6,-218.13 1118,-200 1125.08,-187.664 1127.27,-178.788 1118,-168 1087.91,-132.976 956.707,-124.908 879.782,-123.239"/>
<polygon fill="midnightblue" stroke="midnightblue" points="879.827,-119.739 869.763,-123.051 879.696,-126.738 879.827,-119.739"/>
</g>
<!-- Node26 -->
<g id="node26" class="node"><title>Node26</title>
<polygon fill="white" stroke="#bfbfbf" points="1166.5,-174.5 1166.5,-193.5 1231.5,-193.5 1231.5,-174.5 1166.5,-174.5"/>
<text text-anchor="middle" x="1199" y="-181.5" font-family="Helvetica,sans-Serif" font-size="10.00">Eigen/Core</text>
</g>
<!-- Node25&#45;&gt;Node26 -->
<g id="edge38" class="edge"><title>Node25&#45;&gt;Node26</title>
<path fill="none" stroke="midnightblue" d="M1063.64,-236.403C1090.74,-226.111 1136.31,-208.806 1167,-197.15"/>
<polygon fill="midnightblue" stroke="midnightblue" points="1168.3,-200.403 1176.4,-193.581 1165.81,-193.859 1168.3,-200.403"/>
</g>
<!-- Node27 -->
<g id="node27" class="node"><title>Node27</title>
<polygon fill="white" stroke="#bfbfbf" points="1249.5,-174.5 1249.5,-193.5 1336.5,-193.5 1336.5,-174.5 1249.5,-174.5"/>
<text text-anchor="middle" x="1293" y="-181.5" font-family="Helvetica,sans-Serif" font-size="10.00">Eigen/Geometry</text>
</g>
<!-- Node25&#45;&gt;Node27 -->
<g id="edge39" class="edge"><title>Node25&#45;&gt;Node27</title>
<path fill="none" stroke="midnightblue" d="M1081.55,-236.494C1121.87,-227.881 1185.42,-213.884 1240,-200 1244.62,-198.824 1249.46,-197.537 1254.24,-196.227"/>
<polygon fill="midnightblue" stroke="midnightblue" points="1255.22,-199.587 1263.92,-193.533 1253.34,-192.844 1255.22,-199.587"/>
</g>
<!-- Node28 -->
<g id="node28" class="node"><title>Node28</title>
<polygon fill="white" stroke="#bfbfbf" points="1354.5,-174.5 1354.5,-193.5 1429.5,-193.5 1429.5,-174.5 1354.5,-174.5"/>
<text text-anchor="middle" x="1392" y="-181.5" font-family="Helvetica,sans-Serif" font-size="10.00">Eigen/Sparse</text>
</g>
<!-- Node25&#45;&gt;Node28 -->
<g id="edge40" class="edge"><title>Node25&#45;&gt;Node28</title>
<path fill="none" stroke="midnightblue" d="M1112.56,-237.722C1174.55,-230.631 1266.39,-218.235 1345,-200 1349.22,-199.02 1353.62,-197.841 1357.94,-196.58"/>
<polygon fill="midnightblue" stroke="midnightblue" points="1359.29,-199.829 1367.81,-193.544 1357.23,-193.138 1359.29,-199.829"/>
</g>
<!-- Node29 -->
<g id="node29" class="node"><title>Node29</title>
<polygon fill="white" stroke="#bfbfbf" points="744.5,-174.5 744.5,-193.5 803.5,-193.5 803.5,-174.5 744.5,-174.5"/>
<text text-anchor="middle" x="774" y="-181.5" font-family="Helvetica,sans-Serif" font-size="10.00">functional</text>
</g>
<!-- Node25&#45;&gt;Node29 -->
<g id="edge41" class="edge"><title>Node25&#45;&gt;Node29</title>
<path fill="none" stroke="midnightblue" d="M981.937,-236.427C935.27,-228.929 868.769,-216.632 812,-200 809.192,-199.177 806.303,-198.23 803.431,-197.221"/>
<polygon fill="midnightblue" stroke="midnightblue" points="804.47,-193.872 793.878,-193.634 802.009,-200.426 804.47,-193.872"/>
</g>
<!-- Node30 -->
<g id="node30" class="node"><title>Node30</title>
<polygon fill="white" stroke="#bfbfbf" points="821.5,-169 821.5,-199 954.5,-199 954.5,-169 821.5,-169"/>
<text text-anchor="start" x="829.5" y="-187" font-family="Helvetica,sans-Serif" font-size="10.00">unsupported/Eigen/Aligned</text>
<text text-anchor="middle" x="888" y="-176" font-family="Helvetica,sans-Serif" font-size="10.00">Vector3</text>
</g>
<!-- Node25&#45;&gt;Node30 -->
<g id="edge42" class="edge"><title>Node25&#45;&gt;Node30</title>
<path fill="none" stroke="midnightblue" d="M1019.08,-236.403C996.734,-227.641 961.425,-213.794 933.081,-202.679"/>
<polygon fill="midnightblue" stroke="midnightblue" points="934.352,-199.418 923.765,-199.025 931.796,-205.935 934.352,-199.418"/>
</g>
<!-- Node31 -->
<g id="node31" class="node"><title>Node31</title>
<g id="a_node31"><a xlink:href="Math_8hpp.html" target="_top" xlink:title="Core/Math/Math.hpp">
<polygon fill="white" stroke="black" points="582,-174.5 582,-193.5 688,-193.5 688,-174.5 582,-174.5"/>
<text text-anchor="middle" x="635" y="-181.5" font-family="Helvetica,sans-Serif" font-size="10.00">Core/Math/Math.hpp</text>
</a>
</g>
</g>
<!-- Node25&#45;&gt;Node31 -->
<g id="edge43" class="edge"><title>Node25&#45;&gt;Node31</title>
<path fill="none" stroke="midnightblue" d="M982.615,-236.465C921.035,-227.451 821.177,-212.8 735,-200 723.13,-198.237 710.468,-196.346 698.285,-194.521"/>
<polygon fill="midnightblue" stroke="midnightblue" points="698.599,-191.029 688.191,-193.008 697.561,-197.952 698.599,-191.029"/>
</g>
<!-- Node35 -->
<g id="node35" class="node"><title>Node35</title>
<g id="a_node35"><a xlink:href="LinearAlgebra_8inl.html" target="_top" xlink:title="Core/Math/LinearAlgebra.inl">
<polygon fill="white" stroke="black" points="972.5,-174.5 972.5,-193.5 1109.5,-193.5 1109.5,-174.5 972.5,-174.5"/>
<text text-anchor="middle" x="1041" y="-181.5" font-family="Helvetica,sans-Serif" font-size="10.00">Core/Math/LinearAlgebra.inl</text>
</a>
</g>
</g>
<!-- Node25&#45;&gt;Node35 -->
<g id="edge49" class="edge"><title>Node25&#45;&gt;Node35</title>
<path fill="none" stroke="midnightblue" d="M1041,-236.403C1041,-227.938 1041,-214.728 1041,-203.82"/>
<polygon fill="midnightblue" stroke="midnightblue" points="1044.5,-203.581 1041,-193.581 1037.5,-203.581 1044.5,-203.581"/>
</g>
<!-- Node31&#45;&gt;Node14 -->
<g id="edge44" class="edge"><title>Node31&#45;&gt;Node14</title>
<path fill="none" stroke="midnightblue" d="M661.936,-174.403C694.603,-163.978 749.819,-146.356 786.343,-134.699"/>
<polygon fill="midnightblue" stroke="midnightblue" points="787.652,-137.955 796.114,-131.581 785.523,-131.287 787.652,-137.955"/>
</g>
<!-- Node32 -->
<g id="node32" class="node"><title>Node32</title>
<polygon fill="white" stroke="#bfbfbf" points="703,-112.5 703,-131.5 759,-131.5 759,-112.5 703,-112.5"/>
<text text-anchor="middle" x="731" y="-119.5" font-family="Helvetica,sans-Serif" font-size="10.00">algorithm</text>
</g>
<!-- Node31&#45;&gt;Node32 -->
<g id="edge45" class="edge"><title>Node31&#45;&gt;Node32</title>
<path fill="none" stroke="midnightblue" d="M648.754,-174.403C664.366,-164.646 690.063,-148.585 708.583,-137.011"/>
<polygon fill="midnightblue" stroke="midnightblue" points="710.646,-139.849 717.271,-131.581 706.936,-133.913 710.646,-139.849"/>
</g>
<!-- Node33 -->
<g id="node33" class="node"><title>Node33</title>
<polygon fill="white" stroke="#bfbfbf" points="523,-112.5 523,-131.5 567,-131.5 567,-112.5 523,-112.5"/>
<text text-anchor="middle" x="545" y="-119.5" font-family="Helvetica,sans-Serif" font-size="10.00">cmath</text>
</g>
<!-- Node31&#45;&gt;Node33 -->
<g id="edge46" class="edge"><title>Node31&#45;&gt;Node33</title>
<path fill="none" stroke="midnightblue" d="M622.105,-174.403C607.536,-164.691 583.598,-148.732 566.255,-137.17"/>
<polygon fill="midnightblue" stroke="midnightblue" points="568.133,-134.215 557.871,-131.581 564.25,-140.04 568.133,-134.215"/>
</g>
<!-- Node34 -->
<g id="node34" class="node"><title>Node34</title>
<g id="a_node34"><a xlink:href="Math_8inl.html" target="_top" xlink:title="Core/Math/Math.inl">
<polygon fill="white" stroke="black" points="585,-112.5 585,-131.5 685,-131.5 685,-112.5 585,-112.5"/>
<text text-anchor="middle" x="635" y="-119.5" font-family="Helvetica,sans-Serif" font-size="10.00">Core/Math/Math.inl</text>
</a>
</g>
</g>
<!-- Node31&#45;&gt;Node34 -->
<g id="edge47" class="edge"><title>Node31&#45;&gt;Node34</title>
<path fill="none" stroke="midnightblue" d="M630.099,-174.403C628.268,-165.938 627.797,-152.728 628.685,-141.82"/>
<polygon fill="midnightblue" stroke="midnightblue" points="632.198,-141.966 630.103,-131.581 625.264,-141.006 632.198,-141.966"/>
</g>
<!-- Node34&#45;&gt;Node31 -->
<g id="edge48" class="edge"><title>Node34&#45;&gt;Node31</title>
<path fill="none" stroke="midnightblue" d="M639.897,-131.581C641.73,-140.04 642.203,-153.248 641.317,-164.16"/>
<polygon fill="midnightblue" stroke="midnightblue" points="637.803,-164.018 639.901,-174.403 644.737,-164.977 637.803,-164.018"/>
</g>
<!-- Node36&#45;&gt;Node9 -->
<g id="edge53" class="edge"><title>Node36&#45;&gt;Node9</title>
<path fill="none" stroke="midnightblue" d="M516.55,-255.511C517.47,-277.083 516.9,-334.554 488,-368 473.846,-384.381 452.966,-394.84 432.868,-401.501"/>
<polygon fill="midnightblue" stroke="midnightblue" points="431.644,-398.215 423.097,-404.475 433.683,-404.912 431.644,-398.215"/>
</g>
<!-- Node36&#45;&gt;Node24 -->
<g id="edge52" class="edge"><title>Node36&#45;&gt;Node24</title>
<path fill="none" stroke="midnightblue" d="M536.656,-255.655C553.6,-264.071 577.124,-276.999 593.686,-286.901"/>
<polygon fill="midnightblue" stroke="midnightblue" points="592.176,-290.08 602.53,-292.324 595.835,-284.113 592.176,-290.08"/>
</g>
<!-- Node37&#45;&gt;Node3 -->
<g id="edge55" class="edge"><title>Node37&#45;&gt;Node3</title>
<path fill="none" stroke="midnightblue" d="M318.358,-491.237C321.17,-513.94 321.503,-558.619 319.356,-586.524"/>
<polygon fill="midnightblue" stroke="midnightblue" points="315.855,-586.368 318.37,-596.66 322.822,-587.046 315.855,-586.368"/>
</g>
<!-- Node37&#45;&gt;Node9 -->
<g id="edge57" class="edge"><title>Node37&#45;&gt;Node9</title>
<path fill="none" stroke="midnightblue" d="M327.982,-460.781C336.821,-451.792 348.257,-440.162 357.391,-430.873"/>
<polygon fill="midnightblue" stroke="midnightblue" points="359.899,-433.315 364.415,-423.731 354.908,-428.407 359.899,-433.315"/>
</g>
<!-- Node37&#45;&gt;Node22 -->
<g id="edge56" class="edge"><title>Node37&#45;&gt;Node22</title>
<path fill="none" stroke="midnightblue" d="M303.192,-460.715C296.505,-450.949 288.541,-437.392 285,-424 275.68,-388.755 279.913,-345.698 283.609,-321.612"/>
<polygon fill="midnightblue" stroke="midnightblue" points="287.068,-322.143 285.268,-311.702 280.164,-320.987 287.068,-322.143"/>
</g>
<!-- Node38&#45;&gt;Node5 -->
<g id="edge63" class="edge"><title>Node38&#45;&gt;Node5</title>
<path fill="none" stroke="midnightblue" d="M534.592,-534.288C506.042,-518.342 442.744,-483.907 387,-460 342.818,-441.052 327.752,-445.986 285,-424 246.404,-404.151 238.123,-396.045 205,-368 178.376,-345.458 170.005,-340.58 150,-312 139.817,-297.452 131.391,-279.039 125.907,-265.528"/>
<polygon fill="midnightblue" stroke="midnightblue" points="129.052,-263.959 122.162,-255.91 122.529,-266.499 129.052,-263.959"/>
</g>
<!-- Node38&#45;&gt;Node10 -->
<g id="edge61" class="edge"><title>Node38&#45;&gt;Node10</title>
<path fill="none" stroke="midnightblue" d="M627.517,-538.228C706.667,-528.659 818,-500.078 818,-415 818,-415 818,-415 818,-301 818,-270.902 821.699,-255.764 799,-236 793.734,-231.415 617.315,-207.077 518.481,-193.748"/>
<polygon fill="midnightblue" stroke="midnightblue" points="518.668,-190.241 508.29,-192.375 517.734,-197.179 518.668,-190.241"/>
</g>
<!-- Node38&#45;&gt;Node13 -->
<g id="edge62" class="edge"><title>Node38&#45;&gt;Node13</title>
<path fill="none" stroke="midnightblue" d="M597.871,-534.487C657.605,-520.792 752,-487.655 752,-415 752,-415 752,-415 752,-357 752,-322.982 736.256,-285.85 725.591,-264.6"/>
<polygon fill="midnightblue" stroke="midnightblue" points="728.585,-262.772 720.855,-255.527 722.38,-266.012 728.585,-262.772"/>
</g>
<!-- Node39 -->
<g id="node39" class="node"><title>Node39</title>
<g id="a_node39"><a xlink:href="FullEdge_8inl.html" target="_top" xlink:title="Core/Mesh/DCEL/FullEdge.inl">
<polygon fill="white" stroke="black" points="475.5,-466.5 475.5,-485.5 624.5,-485.5 624.5,-466.5 475.5,-466.5"/>
<text text-anchor="middle" x="550" y="-473.5" font-family="Helvetica,sans-Serif" font-size="10.00">Core/Mesh/DCEL/FullEdge.inl</text>
</a>
</g>
</g>
<!-- Node38&#45;&gt;Node39 -->
<g id="edge64" class="edge"><title>Node38&#45;&gt;Node39</title>
<path fill="none" stroke="midnightblue" d="M545.269,-534.372C543.199,-524.643 542.721,-508.528 543.835,-495.85"/>
<polygon fill="midnightblue" stroke="midnightblue" points="547.316,-496.227 545.224,-485.841 540.382,-495.265 547.316,-496.227"/>
</g>
<!-- Node39&#45;&gt;Node9 -->
<g id="edge67" class="edge"><title>Node39&#45;&gt;Node9</title>
<path fill="none" stroke="midnightblue" d="M524.64,-466.403C494.016,-456.022 442.343,-438.506 407.954,-426.849"/>
<polygon fill="midnightblue" stroke="midnightblue" points="408.907,-423.476 398.313,-423.581 406.66,-430.106 408.907,-423.476"/>
</g>
<!-- Node39&#45;&gt;Node22 -->
<g id="edge66" class="edge"><title>Node39&#45;&gt;Node22</title>
<path fill="none" stroke="midnightblue" d="M546.008,-466.339C534.925,-443.282 501.433,-379.991 454,-348 428.055,-330.502 395.557,-319.793 366.142,-313.245"/>
<polygon fill="midnightblue" stroke="midnightblue" points="366.804,-309.808 356.298,-311.18 365.367,-316.659 366.804,-309.808"/>
</g>
<!-- Node39&#45;&gt;Node24 -->
<g id="edge68" class="edge"><title>Node39&#45;&gt;Node24</title>
<path fill="none" stroke="midnightblue" d="M553.211,-466.234C563.07,-439.317 593.046,-357.476 606.428,-320.942"/>
<polygon fill="midnightblue" stroke="midnightblue" points="609.718,-322.138 609.87,-311.544 603.145,-319.73 609.718,-322.138"/>
</g>
<!-- Node39&#45;&gt;Node38 -->
<g id="edge65" class="edge"><title>Node39&#45;&gt;Node38</title>
<path fill="none" stroke="midnightblue" d="M554.776,-485.841C556.823,-495.662 557.278,-511.798 556.141,-524.425"/>
<polygon fill="midnightblue" stroke="midnightblue" points="552.669,-523.979 554.731,-534.372 559.6,-524.962 552.669,-523.979"/>
</g>
</g>
</svg>
