<?xml version="1.0" encoding="UTF-8" standalone="no"?>
<!DOCTYPE svg PUBLIC "-//W3C//DTD SVG 1.1//EN"
 "http://www.w3.org/Graphics/SVG/1.1/DTD/svg11.dtd">
<!-- Generated by graphviz version 2.36.0 (20140111.2315)
 -->
<!-- Title: /home/travis/build/STORM&#45;IRIT/Radium&#45;Engine/src/Core/Mesh/DCEL/Iterator/Face/FFIterator.hpp Pages: 1 -->
<svg width="1205pt" height="726pt"
 viewBox="0.00 0.00 1205.00 726.00" xmlns="http://www.w3.org/2000/svg" xmlns:xlink="http://www.w3.org/1999/xlink">
<g id="graph0" class="graph" transform="scale(1 1) rotate(0) translate(4 722)">
<title>/home/travis/build/STORM&#45;IRIT/Radium&#45;Engine/src/Core/Mesh/DCEL/Iterator/Face/FFIterator.hpp</title>
<polygon fill="white" stroke="none" points="-4,4 -4,-722 1201,-722 1201,4 -4,4"/>
<!-- Node1 -->
<g id="node1" class="node"><title>Node1</title>
<polygon fill="#bfbfbf" stroke="black" points="91,-665 91,-717 239,-717 239,-665 91,-665"/>
<text text-anchor="start" x="99" y="-705" font-family="Helvetica,sans-Serif" font-size="10.00">/home/travis/build</text>
<text text-anchor="start" x="99" y="-694" font-family="Helvetica,sans-Serif" font-size="10.00">/STORM&#45;IRIT/Radium&#45;Engine</text>
<text text-anchor="start" x="99" y="-683" font-family="Helvetica,sans-Serif" font-size="10.00">/src/Core/Mesh/DCEL/Iterator</text>
<text text-anchor="middle" x="165" y="-672" font-family="Helvetica,sans-Serif" font-size="10.00">/Face/FFIterator.hpp</text>
</g>
<!-- Node2 -->
<g id="node2" class="node"><title>Node2</title>
<g id="a_node2"><a xlink:href="FaceIterator_8hpp.html" target="_top" xlink:title="Core/Mesh/DCEL/Iterator\l/Face/FaceIterator.hpp">
<polygon fill="white" stroke="black" points="0,-597 0,-627 128,-627 128,-597 0,-597"/>
<text text-anchor="start" x="8" y="-615" font-family="Helvetica,sans-Serif" font-size="10.00">Core/Mesh/DCEL/Iterator</text>
<text text-anchor="middle" x="64" y="-604" font-family="Helvetica,sans-Serif" font-size="10.00">/Face/FaceIterator.hpp</text>
</a>
</g>
</g>
<!-- Node1&#45;&gt;Node2 -->
<g id="edge1" class="edge"><title>Node1&#45;&gt;Node2</title>
<path fill="none" stroke="midnightblue" d="M131.929,-664.787C118.56,-654.595 103.334,-642.987 90.6901,-633.348"/>
<polygon fill="midnightblue" stroke="midnightblue" points="92.4784,-630.31 82.4039,-627.031 88.2344,-635.877 92.4784,-630.31"/>
</g>
<!-- Node37 -->
<g id="node37" class="node"><title>Node37</title>
<g id="a_node37"><a xlink:href="FFIterator_8inl.html" target="_top" xlink:title="Core/Mesh/DCEL/Iterator\l/Face/FFIterator.inl">
<polygon fill="white" stroke="black" points="101,-529 101,-559 229,-559 229,-529 101,-529"/>
<text text-anchor="start" x="109" y="-547" font-family="Helvetica,sans-Serif" font-size="10.00">Core/Mesh/DCEL/Iterator</text>
<text text-anchor="middle" x="165" y="-536" font-family="Helvetica,sans-Serif" font-size="10.00">/Face/FFIterator.inl</text>
</a>
</g>
</g>
<!-- Node1&#45;&gt;Node37 -->
<g id="edge57" class="edge"><title>Node1&#45;&gt;Node37</title>
<path fill="none" stroke="midnightblue" d="M159.733,-664.743C157.732,-637.906 157.756,-595.772 159.806,-569.304"/>
<polygon fill="midnightblue" stroke="midnightblue" points="163.322,-569.302 160.808,-559.01 156.355,-568.624 163.322,-569.302"/>
</g>
<!-- Node3 -->
<g id="node3" class="node"><title>Node3</title>
<g id="a_node3"><a xlink:href="Iterator_8hpp.html" target="_top" xlink:title="Core/Mesh/DCEL/Iterator\l/Iterator.hpp">
<polygon fill="white" stroke="black" points="461,-529 461,-559 589,-559 589,-529 461,-529"/>
<text text-anchor="start" x="469" y="-547" font-family="Helvetica,sans-Serif" font-size="10.00">Core/Mesh/DCEL/Iterator</text>
<text text-anchor="middle" x="525" y="-536" font-family="Helvetica,sans-Serif" font-size="10.00">/Iterator.hpp</text>
</a>
</g>
</g>
<!-- Node2&#45;&gt;Node3 -->
<g id="edge2" class="edge"><title>Node2&#45;&gt;Node3</title>
<path fill="none" stroke="midnightblue" d="M128.1,-601.823C212.669,-589.716 361.226,-568.447 450.636,-555.646"/>
<polygon fill="midnightblue" stroke="midnightblue" points="451.3,-559.087 460.703,-554.205 450.308,-552.158 451.3,-559.087"/>
</g>
<!-- Node36 -->
<g id="node36" class="node"><title>Node36</title>
<g id="a_node36"><a xlink:href="FaceIterator_8inl.html" target="_top" xlink:title="Core/Mesh/DCEL/Iterator\l/Face/FaceIterator.inl">
<polygon fill="white" stroke="black" points="0,-461 0,-491 128,-491 128,-461 0,-461"/>
<text text-anchor="start" x="8" y="-479" font-family="Helvetica,sans-Serif" font-size="10.00">Core/Mesh/DCEL/Iterator</text>
<text text-anchor="middle" x="64" y="-468" font-family="Helvetica,sans-Serif" font-size="10.00">/Face/FaceIterator.inl</text>
</a>
</g>
</g>
<!-- Node2&#45;&gt;Node36 -->
<g id="edge53" class="edge"><title>Node2&#45;&gt;Node36</title>
<path fill="none" stroke="midnightblue" d="M59.6296,-596.66C56.8249,-573.891 56.4995,-529.203 58.6535,-501.349"/>
<polygon fill="midnightblue" stroke="midnightblue" points="62.1524,-501.53 59.6424,-491.237 55.1856,-500.849 62.1524,-501.53"/>
</g>
<!-- Node4 -->
<g id="node4" class="node"><title>Node4</title>
<g id="a_node4"><a xlink:href="Definition_8hpp.html" target="_top" xlink:title="Core/Mesh/DCEL/Definition.hpp">
<polygon fill="white" stroke="black" points="849,-236.5 849,-255.5 1007,-255.5 1007,-236.5 849,-236.5"/>
<text text-anchor="middle" x="928" y="-243.5" font-family="Helvetica,sans-Serif" font-size="10.00">Core/Mesh/DCEL/Definition.hpp</text>
</a>
</g>
</g>
<!-- Node3&#45;&gt;Node4 -->
<g id="edge3" class="edge"><title>Node3&#45;&gt;Node4</title>
<path fill="none" stroke="midnightblue" d="M589.113,-532.564C688.39,-514.567 868,-473.872 868,-415 868,-415 868,-415 868,-357 868,-319.883 894.654,-283.378 912.431,-263.158"/>
<polygon fill="midnightblue" stroke="midnightblue" points="915.237,-265.276 919.403,-255.535 910.072,-260.552 915.237,-265.276"/>
</g>
<!-- Node6 -->
<g id="node6" class="node"><title>Node6</title>
<polygon fill="white" stroke="#bfbfbf" points="1153,-174.5 1153,-193.5 1197,-193.5 1197,-174.5 1153,-174.5"/>
<text text-anchor="middle" x="1175" y="-181.5" font-family="Helvetica,sans-Serif" font-size="10.00">vector</text>
</g>
<!-- Node3&#45;&gt;Node6 -->
<g id="edge6" class="edge"><title>Node3&#45;&gt;Node6</title>
<path fill="none" stroke="midnightblue" d="M589.195,-541.816C736.655,-537.36 1087,-516.131 1087,-415 1087,-415 1087,-415 1087,-301 1087,-257.168 1127.37,-219.495 1153.43,-199.747"/>
<polygon fill="midnightblue" stroke="midnightblue" points="1155.62,-202.478 1161.63,-193.754 1151.49,-196.824 1155.62,-202.478"/>
</g>
<!-- Node7 -->
<g id="node7" class="node"><title>Node7</title>
<g id="a_node7"><a xlink:href="Iterator_8inl.html" target="_top" xlink:title="Core/Mesh/DCEL/Iterator\l/Iterator.inl">
<polygon fill="white" stroke="black" points="461,-461 461,-491 589,-491 589,-461 461,-461"/>
<text text-anchor="start" x="469" y="-479" font-family="Helvetica,sans-Serif" font-size="10.00">Core/Mesh/DCEL/Iterator</text>
<text text-anchor="middle" x="525" y="-468" font-family="Helvetica,sans-Serif" font-size="10.00">/Iterator.inl</text>
</a>
</g>
</g>
<!-- Node3&#45;&gt;Node7 -->
<g id="edge7" class="edge"><title>Node3&#45;&gt;Node7</title>
<path fill="none" stroke="midnightblue" d="M519.322,-528.679C518.294,-520.722 518.005,-510.605 518.456,-501.436"/>
<polygon fill="midnightblue" stroke="midnightblue" points="521.959,-501.555 519.325,-491.293 514.984,-500.958 521.959,-501.555"/>
</g>
<!-- Node5 -->
<g id="node5" class="node"><title>Node5</title>
<polygon fill="white" stroke="#bfbfbf" points="1083,-174.5 1083,-193.5 1135,-193.5 1135,-174.5 1083,-174.5"/>
<text text-anchor="middle" x="1109" y="-181.5" font-family="Helvetica,sans-Serif" font-size="10.00">memory</text>
</g>
<!-- Node4&#45;&gt;Node5 -->
<g id="edge4" class="edge"><title>Node4&#45;&gt;Node5</title>
<path fill="none" stroke="midnightblue" d="M958.547,-236.426C988.083,-227.923 1033.97,-214.151 1073,-200 1075.26,-199.182 1077.58,-198.303 1079.9,-197.396"/>
<polygon fill="midnightblue" stroke="midnightblue" points="1081.36,-200.58 1089.33,-193.589 1078.74,-194.09 1081.36,-200.58"/>
</g>
<!-- Node4&#45;&gt;Node6 -->
<g id="edge5" class="edge"><title>Node4&#45;&gt;Node6</title>
<path fill="none" stroke="midnightblue" d="M988.649,-236.45C1032.54,-229.285 1092.87,-217.401 1144,-200 1145.91,-199.35 1147.86,-198.61 1149.79,-197.817"/>
<polygon fill="midnightblue" stroke="midnightblue" points="1151.55,-200.862 1159.23,-193.555 1148.67,-194.483 1151.55,-200.862"/>
</g>
<!-- Node7&#45;&gt;Node3 -->
<g id="edge8" class="edge"><title>Node7&#45;&gt;Node3</title>
<path fill="none" stroke="midnightblue" d="M530.675,-491.293C531.704,-499.245 531.995,-509.361 531.545,-518.532"/>
<polygon fill="midnightblue" stroke="midnightblue" points="528.042,-518.417 530.678,-528.679 535.017,-519.013 528.042,-518.417"/>
</g>
<!-- Node8 -->
<g id="node8" class="node"><title>Node8</title>
<g id="a_node8"><a xlink:href="DCEL_2HalfEdge_8hpp.html" target="_top" xlink:title="Core/Mesh/DCEL/HalfEdge.hpp">
<polygon fill="white" stroke="black" points="372.5,-404.5 372.5,-423.5 529.5,-423.5 529.5,-404.5 372.5,-404.5"/>
<text text-anchor="middle" x="451" y="-411.5" font-family="Helvetica,sans-Serif" font-size="10.00">Core/Mesh/DCEL/HalfEdge.hpp</text>
</a>
</g>
</g>
<!-- Node7&#45;&gt;Node8 -->
<g id="edge9" class="edge"><title>Node7&#45;&gt;Node8</title>
<path fill="none" stroke="midnightblue" d="M507.463,-460.781C496.045,-451.523 481.17,-439.462 469.554,-430.044"/>
<polygon fill="midnightblue" stroke="midnightblue" points="471.74,-427.31 461.768,-423.731 467.331,-432.747 471.74,-427.31"/>
</g>
<!-- Node8&#45;&gt;Node4 -->
<g id="edge22" class="edge"><title>Node8&#45;&gt;Node4</title>
<path fill="none" stroke="midnightblue" d="M488.736,-404.438C523.637,-396.198 576.788,-382.83 622,-368 725.992,-333.891 845.706,-283.07 899.374,-259.652"/>
<polygon fill="midnightblue" stroke="midnightblue" points="900.851,-262.826 908.608,-255.608 898.043,-256.414 900.851,-262.826"/>
</g>
<!-- Node9 -->
<g id="node9" class="node"><title>Node9</title>
<g id="a_node9"><a xlink:href="Index_8hpp.html" target="_top" xlink:title="Core/Index/Index.hpp">
<polygon fill="white" stroke="black" points="90,-174.5 90,-193.5 200,-193.5 200,-174.5 90,-174.5"/>
<text text-anchor="middle" x="145" y="-181.5" font-family="Helvetica,sans-Serif" font-size="10.00">Core/Index/Index.hpp</text>
</a>
</g>
</g>
<!-- Node8&#45;&gt;Node9 -->
<g id="edge10" class="edge"><title>Node8&#45;&gt;Node9</title>
<path fill="none" stroke="midnightblue" d="M382.7,-404.426C345.822,-397.914 300.336,-386.758 263,-368 193.643,-333.154 161.871,-326.315 129,-256 121,-238.887 127.801,-217.548 134.843,-202.755"/>
<polygon fill="midnightblue" stroke="midnightblue" points="138.05,-204.175 139.579,-193.692 131.846,-200.934 138.05,-204.175"/>
</g>
<!-- Node12 -->
<g id="node12" class="node"><title>Node12</title>
<g id="a_node12"><a xlink:href="IndexedObject_8hpp.html" target="_top" xlink:title="Core/Index/IndexedObject.hpp">
<polygon fill="white" stroke="black" points="325.5,-236.5 325.5,-255.5 474.5,-255.5 474.5,-236.5 325.5,-236.5"/>
<text text-anchor="middle" x="400" y="-243.5" font-family="Helvetica,sans-Serif" font-size="10.00">Core/Index/IndexedObject.hpp</text>
</a>
</g>
</g>
<!-- Node8&#45;&gt;Node12 -->
<g id="edge13" class="edge"><title>Node8&#45;&gt;Node12</title>
<path fill="none" stroke="midnightblue" d="M442.754,-404.489C435.028,-395.98 423.823,-382.156 418,-368 403.912,-333.748 400.665,-290.015 400.026,-265.61"/>
<polygon fill="midnightblue" stroke="midnightblue" points="403.526,-265.534 399.887,-255.584 396.526,-265.632 403.526,-265.534"/>
</g>
<!-- Node20 -->
<g id="node20" class="node"><title>Node20</title>
<g id="a_node20"><a xlink:href="DCEL_2HalfEdge_8inl.html" target="_top" xlink:title="Core/Mesh/DCEL/HalfEdge.inl">
<polygon fill="white" stroke="black" points="427.5,-348.5 427.5,-367.5 578.5,-367.5 578.5,-348.5 427.5,-348.5"/>
<text text-anchor="middle" x="503" y="-355.5" font-family="Helvetica,sans-Serif" font-size="10.00">Core/Mesh/DCEL/HalfEdge.inl</text>
</a>
</g>
</g>
<!-- Node8&#45;&gt;Node20 -->
<g id="edge23" class="edge"><title>Node8&#45;&gt;Node20</title>
<path fill="none" stroke="midnightblue" d="M454.42,-404.083C460.452,-396.062 471.634,-384.101 481.885,-374.515"/>
<polygon fill="midnightblue" stroke="midnightblue" points="484.325,-377.028 489.442,-367.751 479.656,-371.812 484.325,-377.028"/>
</g>
<!-- Node10 -->
<g id="node10" class="node"><title>Node10</title>
<polygon fill="white" stroke="#bfbfbf" points="80,-112.5 80,-131.5 120,-131.5 120,-112.5 80,-112.5"/>
<text text-anchor="middle" x="100" y="-119.5" font-family="Helvetica,sans-Serif" font-size="10.00">limits</text>
</g>
<!-- Node9&#45;&gt;Node10 -->
<g id="edge11" class="edge"><title>Node9&#45;&gt;Node10</title>
<path fill="none" stroke="midnightblue" d="M138.553,-174.403C131.803,-165.403 121.031,-151.041 112.587,-139.782"/>
<polygon fill="midnightblue" stroke="midnightblue" points="115.235,-137.481 106.435,-131.581 109.635,-141.681 115.235,-137.481"/>
</g>
<!-- Node11 -->
<g id="node11" class="node"><title>Node11</title>
<g id="a_node11"><a xlink:href="Index_8inl.html" target="_top" xlink:title="Core/Index/Index.inl">
<polygon fill="white" stroke="black" points="138,-112.5 138,-131.5 242,-131.5 242,-112.5 138,-112.5"/>
<text text-anchor="middle" x="190" y="-119.5" font-family="Helvetica,sans-Serif" font-size="10.00">Core/Index/Index.inl</text>
</a>
</g>
</g>
<!-- Node9&#45;&gt;Node11 -->
<g id="edge12" class="edge"><title>Node9&#45;&gt;Node11</title>
<path fill="none" stroke="midnightblue" d="M151.447,-174.403C158.197,-165.403 168.969,-151.041 177.413,-139.782"/>
<polygon fill="midnightblue" stroke="midnightblue" points="180.365,-141.681 183.565,-131.581 174.765,-137.481 180.365,-141.681"/>
</g>
<!-- Node12&#45;&gt;Node9 -->
<g id="edge14" class="edge"><title>Node12&#45;&gt;Node9</title>
<path fill="none" stroke="midnightblue" d="M363.736,-236.467C318.326,-225.783 240.492,-207.469 190.955,-195.813"/>
<polygon fill="midnightblue" stroke="midnightblue" points="191.675,-192.387 181.139,-193.503 190.072,-199.201 191.675,-192.387"/>
</g>
<!-- Node13 -->
<g id="node13" class="node"><title>Node13</title>
<g id="a_node13"><a xlink:href="RaCore_8hpp.html" target="_top" xlink:title="Core/RaCore.hpp">
<polygon fill="white" stroke="black" points="805.5,-112.5 805.5,-131.5 898.5,-131.5 898.5,-112.5 805.5,-112.5"/>
<text text-anchor="middle" x="852" y="-119.5" font-family="Helvetica,sans-Serif" font-size="10.00">Core/RaCore.hpp</text>
</a>
</g>
</g>
<!-- Node12&#45;&gt;Node13 -->
<g id="edge15" class="edge"><title>Node12&#45;&gt;Node13</title>
<path fill="none" stroke="midnightblue" d="M343.602,-236.457C287.271,-225.682 213.516,-204.067 247,-168 283.791,-128.371 650.879,-123.364 794.666,-122.934"/>
<polygon fill="midnightblue" stroke="midnightblue" points="795.041,-126.433 805.032,-122.91 795.024,-119.433 795.041,-126.433"/>
</g>
<!-- Node14 -->
<g id="node14" class="node"><title>Node14</title>
<g id="a_node14"><a xlink:href="CoreMacros_8hpp.html" target="_top" xlink:title="Core/CoreMacros.hpp">
<polygon fill="white" stroke="black" points="795.5,-56.5 795.5,-75.5 908.5,-75.5 908.5,-56.5 795.5,-56.5"/>
<text text-anchor="middle" x="852" y="-63.5" font-family="Helvetica,sans-Serif" font-size="10.00">Core/CoreMacros.hpp</text>
</a>
</g>
</g>
<!-- Node13&#45;&gt;Node14 -->
<g id="edge16" class="edge"><title>Node13&#45;&gt;Node14</title>
<path fill="none" stroke="midnightblue" d="M852,-112.083C852,-105.006 852,-94.8611 852,-85.9865"/>
<polygon fill="midnightblue" stroke="midnightblue" points="855.5,-85.751 852,-75.7511 848.5,-85.7511 855.5,-85.751"/>
</g>
<!-- Node15 -->
<g id="node15" class="node"><title>Node15</title>
<polygon fill="white" stroke="#bfbfbf" points="696.5,-0.5 696.5,-19.5 745.5,-19.5 745.5,-0.5 696.5,-0.5"/>
<text text-anchor="middle" x="721" y="-7.5" font-family="Helvetica,sans-Serif" font-size="10.00">cassert</text>
</g>
<!-- Node14&#45;&gt;Node15 -->
<g id="edge17" class="edge"><title>Node14&#45;&gt;Node15</title>
<path fill="none" stroke="midnightblue" d="M831.243,-56.4435C809.684,-47.5566 775.737,-33.5632 751.206,-23.4514"/>
<polygon fill="midnightblue" stroke="midnightblue" points="752.239,-20.0917 741.66,-19.5164 749.572,-26.5634 752.239,-20.0917"/>
</g>
<!-- Node16 -->
<g id="node16" class="node"><title>Node16</title>
<polygon fill="white" stroke="#bfbfbf" points="763.5,-0.5 763.5,-19.5 806.5,-19.5 806.5,-0.5 763.5,-0.5"/>
<text text-anchor="middle" x="785" y="-7.5" font-family="Helvetica,sans-Serif" font-size="10.00">cstdio</text>
</g>
<!-- Node14&#45;&gt;Node16 -->
<g id="edge18" class="edge"><title>Node14&#45;&gt;Node16</title>
<path fill="none" stroke="midnightblue" d="M841.235,-56.324C831.234,-48.2631 816.113,-36.0765 804.07,-26.3695"/>
<polygon fill="midnightblue" stroke="midnightblue" points="805.943,-23.3841 795.961,-19.8339 801.55,-28.8343 805.943,-23.3841"/>
</g>
<!-- Node17 -->
<g id="node17" class="node"><title>Node17</title>
<polygon fill="white" stroke="#bfbfbf" points="825,-0.5 825,-19.5 879,-19.5 879,-0.5 825,-0.5"/>
<text text-anchor="middle" x="852" y="-7.5" font-family="Helvetica,sans-Serif" font-size="10.00">iostream</text>
</g>
<!-- Node14&#45;&gt;Node17 -->
<g id="edge19" class="edge"><title>Node14&#45;&gt;Node17</title>
<path fill="none" stroke="midnightblue" d="M852,-56.083C852,-49.0059 852,-38.8611 852,-29.9865"/>
<polygon fill="midnightblue" stroke="midnightblue" points="855.5,-29.751 852,-19.7511 848.5,-29.7511 855.5,-29.751"/>
</g>
<!-- Node18 -->
<g id="node18" class="node"><title>Node18</title>
<polygon fill="white" stroke="#bfbfbf" points="897,-0.5 897,-19.5 949,-19.5 949,-0.5 897,-0.5"/>
<text text-anchor="middle" x="923" y="-7.5" font-family="Helvetica,sans-Serif" font-size="10.00">sstream</text>
</g>
<!-- Node14&#45;&gt;Node18 -->
<g id="edge20" class="edge"><title>Node14&#45;&gt;Node18</title>
<path fill="none" stroke="midnightblue" d="M863.407,-56.324C874.109,-48.1849 890.341,-35.8395 903.163,-26.0874"/>
<polygon fill="midnightblue" stroke="midnightblue" points="905.544,-28.6734 911.385,-19.8339 901.307,-23.1018 905.544,-28.6734"/>
</g>
<!-- Node19 -->
<g id="node19" class="node"><title>Node19</title>
<polygon fill="white" stroke="#bfbfbf" points="967,-0.5 967,-19.5 1011,-19.5 1011,-0.5 967,-0.5"/>
<text text-anchor="middle" x="989" y="-7.5" font-family="Helvetica,sans-Serif" font-size="10.00">thread</text>
</g>
<!-- Node14&#45;&gt;Node19 -->
<g id="edge21" class="edge"><title>Node14&#45;&gt;Node19</title>
<path fill="none" stroke="midnightblue" d="M873.708,-56.4435C896.355,-47.5171 932.072,-33.4387 957.752,-23.3168"/>
<polygon fill="midnightblue" stroke="midnightblue" points="959.374,-26.4397 967.394,-19.5164 956.807,-19.9273 959.374,-26.4397"/>
</g>
<!-- Node20&#45;&gt;Node8 -->
<g id="edge24" class="edge"><title>Node20&#45;&gt;Node8</title>
<path fill="none" stroke="midnightblue" d="M499.642,-367.834C493.614,-375.869 482.361,-387.909 472.06,-397.537"/>
<polygon fill="midnightblue" stroke="midnightblue" points="469.591,-395.049 464.47,-404.324 474.257,-400.267 469.591,-395.049"/>
</g>
<!-- Node21 -->
<g id="node21" class="node"><title>Node21</title>
<g id="a_node21"><a xlink:href="Face_8hpp.html" target="_top" xlink:title="Core/Mesh/DCEL/Face.hpp">
<polygon fill="white" stroke="black" points="232,-292.5 232,-311.5 370,-311.5 370,-292.5 232,-292.5"/>
<text text-anchor="middle" x="301" y="-299.5" font-family="Helvetica,sans-Serif" font-size="10.00">Core/Mesh/DCEL/Face.hpp</text>
</a>
</g>
</g>
<!-- Node20&#45;&gt;Node21 -->
<g id="edge25" class="edge"><title>Node20&#45;&gt;Node21</title>
<path fill="none" stroke="midnightblue" d="M470.992,-348.444C436.271,-339.162 380.712,-324.309 342.623,-314.127"/>
<polygon fill="midnightblue" stroke="midnightblue" points="343.422,-310.718 332.858,-311.516 341.615,-317.48 343.422,-310.718"/>
</g>
<!-- Node23 -->
<g id="node23" class="node"><title>Node23</title>
<g id="a_node23"><a xlink:href="Vertex_8hpp.html" target="_top" xlink:title="Core/Mesh/DCEL/Vertex.hpp">
<polygon fill="white" stroke="black" points="529.5,-292.5 529.5,-311.5 674.5,-311.5 674.5,-292.5 529.5,-292.5"/>
<text text-anchor="middle" x="602" y="-299.5" font-family="Helvetica,sans-Serif" font-size="10.00">Core/Mesh/DCEL/Vertex.hpp</text>
</a>
</g>
</g>
<!-- Node20&#45;&gt;Node23 -->
<g id="edge32" class="edge"><title>Node20&#45;&gt;Node23</title>
<path fill="none" stroke="midnightblue" d="M518.906,-348.324C534.638,-339.743 558.942,-326.486 577.209,-316.522"/>
<polygon fill="midnightblue" stroke="midnightblue" points="579.03,-319.516 586.133,-311.655 575.678,-313.37 579.03,-319.516"/>
</g>
<!-- Node21&#45;&gt;Node4 -->
<g id="edge28" class="edge"><title>Node21&#45;&gt;Node4</title>
<path fill="none" stroke="midnightblue" d="M370.25,-295.594C470.772,-287.66 663.262,-272.146 838.71,-256.01"/>
<polygon fill="midnightblue" stroke="midnightblue" points="839.272,-259.473 848.908,-255.07 838.629,-252.503 839.272,-259.473"/>
</g>
<!-- Node21&#45;&gt;Node9 -->
<g id="edge26" class="edge"><title>Node21&#45;&gt;Node9</title>
<path fill="none" stroke="midnightblue" d="M300.367,-292.214C298.92,-278.459 294.209,-251.787 279,-236 265.757,-222.254 220.291,-206.674 185.962,-196.392"/>
<polygon fill="midnightblue" stroke="midnightblue" points="186.744,-192.973 176.163,-193.508 184.768,-199.689 186.744,-192.973"/>
</g>
<!-- Node21&#45;&gt;Node12 -->
<g id="edge27" class="edge"><title>Node21&#45;&gt;Node12</title>
<path fill="none" stroke="midnightblue" d="M316.906,-292.324C332.638,-283.743 356.942,-270.486 375.209,-260.522"/>
<polygon fill="midnightblue" stroke="midnightblue" points="377.03,-263.516 384.133,-255.655 373.678,-257.37 377.03,-263.516"/>
</g>
<!-- Node22 -->
<g id="node22" class="node"><title>Node22</title>
<g id="a_node22"><a xlink:href="Face_8inl.html" target="_top" xlink:title="Core/Mesh/DCEL/Face.inl">
<polygon fill="white" stroke="black" points="138,-236.5 138,-255.5 270,-255.5 270,-236.5 138,-236.5"/>
<text text-anchor="middle" x="204" y="-243.5" font-family="Helvetica,sans-Serif" font-size="10.00">Core/Mesh/DCEL/Face.inl</text>
</a>
</g>
</g>
<!-- Node21&#45;&gt;Node22 -->
<g id="edge29" class="edge"><title>Node21&#45;&gt;Node22</title>
<path fill="none" stroke="midnightblue" d="M280.3,-292.324C263.345,-283.9 239.822,-270.971 223.272,-261.074"/>
<polygon fill="midnightblue" stroke="midnightblue" points="224.79,-257.899 214.436,-255.655 221.13,-263.866 224.79,-257.899"/>
</g>
<!-- Node22&#45;&gt;Node8 -->
<g id="edge31" class="edge"><title>Node22&#45;&gt;Node8</title>
<path fill="none" stroke="midnightblue" d="M204.282,-255.67C205.169,-269.265 208.75,-295.723 223,-312 267.514,-362.846 342.511,-389.237 394.267,-402.091"/>
<polygon fill="midnightblue" stroke="midnightblue" points="393.754,-405.566 404.293,-404.484 395.379,-398.758 393.754,-405.566"/>
</g>
<!-- Node22&#45;&gt;Node21 -->
<g id="edge30" class="edge"><title>Node22&#45;&gt;Node21</title>
<path fill="none" stroke="midnightblue" d="M224.656,-255.655C241.6,-264.071 265.124,-276.999 281.686,-286.901"/>
<polygon fill="midnightblue" stroke="midnightblue" points="280.176,-290.08 290.53,-292.324 283.835,-284.113 280.176,-290.08"/>
</g>
<!-- Node23&#45;&gt;Node4 -->
<g id="edge49" class="edge"><title>Node23&#45;&gt;Node4</title>
<path fill="none" stroke="midnightblue" d="M653.656,-292.444C711.479,-282.865 805.113,-267.356 866.623,-257.167"/>
<polygon fill="midnightblue" stroke="midnightblue" points="867.292,-260.604 876.586,-255.516 866.148,-253.698 867.292,-260.604"/>
</g>
<!-- Node23&#45;&gt;Node9 -->
<g id="edge33" class="edge"><title>Node23&#45;&gt;Node9</title>
<path fill="none" stroke="midnightblue" d="M586.354,-292.265C555.318,-274.965 488.466,-237.841 483,-236 479.775,-234.914 307.499,-209.179 210.187,-194.692"/>
<polygon fill="midnightblue" stroke="midnightblue" points="210.554,-191.208 200.148,-193.197 209.524,-198.132 210.554,-191.208"/>
</g>
<!-- Node23&#45;&gt;Node12 -->
<g id="edge34" class="edge"><title>Node23&#45;&gt;Node12</title>
<path fill="none" stroke="midnightblue" d="M569.992,-292.444C535.271,-283.162 479.712,-268.309 441.623,-258.127"/>
<polygon fill="midnightblue" stroke="midnightblue" points="442.422,-254.718 431.858,-255.516 440.615,-261.48 442.422,-254.718"/>
</g>
<!-- Node24 -->
<g id="node24" class="node"><title>Node24</title>
<g id="a_node24"><a xlink:href="LinearAlgebra_8hpp.html" target="_top" xlink:title="Core/Math/LinearAlgebra.hpp">
<polygon fill="white" stroke="black" points="530.5,-236.5 530.5,-255.5 673.5,-255.5 673.5,-236.5 530.5,-236.5"/>
<text text-anchor="middle" x="602" y="-243.5" font-family="Helvetica,sans-Serif" font-size="10.00">Core/Math/LinearAlgebra.hpp</text>
</a>
</g>
</g>
<!-- Node23&#45;&gt;Node24 -->
<g id="edge35" class="edge"><title>Node23&#45;&gt;Node24</title>
<path fill="none" stroke="midnightblue" d="M602,-292.083C602,-285.006 602,-274.861 602,-265.986"/>
<polygon fill="midnightblue" stroke="midnightblue" points="605.5,-265.751 602,-255.751 598.5,-265.751 605.5,-265.751"/>
</g>
<!-- Node35 -->
<g id="node35" class="node"><title>Node35</title>
<g id="a_node35"><a xlink:href="Vertex_8inl.html" target="_top" xlink:title="Core/Mesh/DCEL/Vertex.inl">
<polygon fill="white" stroke="black" points="691.5,-236.5 691.5,-255.5 830.5,-255.5 830.5,-236.5 691.5,-236.5"/>
<text text-anchor="middle" x="761" y="-243.5" font-family="Helvetica,sans-Serif" font-size="10.00">Core/Mesh/DCEL/Vertex.inl</text>
</a>
</g>
</g>
<!-- Node23&#45;&gt;Node35 -->
<g id="edge50" class="edge"><title>Node23&#45;&gt;Node35</title>
<path fill="none" stroke="midnightblue" d="M622.105,-292.444C646.969,-283.32 689.489,-268.813 721.027,-258.651"/>
<polygon fill="midnightblue" stroke="midnightblue" points="722.382,-261.892 730.844,-255.516 720.253,-255.224 722.382,-261.892"/>
</g>
<!-- Node24&#45;&gt;Node13 -->
<g id="edge36" class="edge"><title>Node24&#45;&gt;Node13</title>
<path fill="none" stroke="midnightblue" d="M673.661,-236.941C762.503,-226.603 903.264,-208.944 911,-200 920.304,-189.243 917.309,-180.746 911,-168 904.397,-154.659 891.735,-144.194 879.829,-136.726"/>
<polygon fill="midnightblue" stroke="midnightblue" points="881.391,-133.587 870.984,-131.602 877.882,-139.643 881.391,-133.587"/>
</g>
<!-- Node25 -->
<g id="node25" class="node"><title>Node25</title>
<polygon fill="white" stroke="#bfbfbf" points="256.5,-174.5 256.5,-193.5 321.5,-193.5 321.5,-174.5 256.5,-174.5"/>
<text text-anchor="middle" x="289" y="-181.5" font-family="Helvetica,sans-Serif" font-size="10.00">Eigen/Core</text>
</g>
<!-- Node24&#45;&gt;Node25 -->
<g id="edge37" class="edge"><title>Node24&#45;&gt;Node25</title>
<path fill="none" stroke="midnightblue" d="M530.216,-236.844C474.925,-229.671 396.886,-217.603 330,-200 326.598,-199.105 323.083,-198.041 319.606,-196.9"/>
<polygon fill="midnightblue" stroke="midnightblue" points="320.634,-193.551 310.039,-193.552 318.322,-200.158 320.634,-193.551"/>
</g>
<!-- Node26 -->
<g id="node26" class="node"><title>Node26</title>
<polygon fill="white" stroke="#bfbfbf" points="339.5,-174.5 339.5,-193.5 426.5,-193.5 426.5,-174.5 339.5,-174.5"/>
<text text-anchor="middle" x="383" y="-181.5" font-family="Helvetica,sans-Serif" font-size="10.00">Eigen/Geometry</text>
</g>
<!-- Node24&#45;&gt;Node26 -->
<g id="edge38" class="edge"><title>Node24&#45;&gt;Node26</title>
<path fill="none" stroke="midnightblue" d="M569.627,-236.458C535.949,-227.529 481.711,-213.029 435,-200 430.876,-198.85 426.573,-197.634 422.286,-196.412"/>
<polygon fill="midnightblue" stroke="midnightblue" points="422.977,-192.969 412.4,-193.579 421.048,-199.698 422.977,-192.969"/>
</g>
<!-- Node27 -->
<g id="node27" class="node"><title>Node27</title>
<polygon fill="white" stroke="#bfbfbf" points="444.5,-174.5 444.5,-193.5 519.5,-193.5 519.5,-174.5 444.5,-174.5"/>
<text text-anchor="middle" x="482" y="-181.5" font-family="Helvetica,sans-Serif" font-size="10.00">Eigen/Sparse</text>
</g>
<!-- Node24&#45;&gt;Node27 -->
<g id="edge39" class="edge"><title>Node24&#45;&gt;Node27</title>
<path fill="none" stroke="midnightblue" d="M584.807,-236.403C564.757,-226.379 531.401,-209.701 508.14,-198.07"/>
<polygon fill="midnightblue" stroke="midnightblue" points="509.671,-194.922 499.161,-193.581 506.54,-201.183 509.671,-194.922"/>
</g>
<!-- Node28 -->
<g id="node28" class="node"><title>Node28</title>
<polygon fill="white" stroke="#bfbfbf" points="537.5,-174.5 537.5,-193.5 596.5,-193.5 596.5,-174.5 537.5,-174.5"/>
<text text-anchor="middle" x="567" y="-181.5" font-family="Helvetica,sans-Serif" font-size="10.00">functional</text>
</g>
<!-- Node24&#45;&gt;Node28 -->
<g id="edge40" class="edge"><title>Node24&#45;&gt;Node28</title>
<path fill="none" stroke="midnightblue" d="M596.985,-236.403C591.839,-227.582 583.688,-213.608 577.182,-202.455"/>
<polygon fill="midnightblue" stroke="midnightblue" points="580.067,-200.455 572.005,-193.581 574.021,-203.982 580.067,-200.455"/>
</g>
<!-- Node29 -->
<g id="node29" class="node"><title>Node29</title>
<polygon fill="white" stroke="#bfbfbf" points="614.5,-169 614.5,-199 747.5,-199 747.5,-169 614.5,-169"/>
<text text-anchor="start" x="622.5" y="-187" font-family="Helvetica,sans-Serif" font-size="10.00">unsupported/Eigen/Aligned</text>
<text text-anchor="middle" x="681" y="-176" font-family="Helvetica,sans-Serif" font-size="10.00">Vector3</text>
</g>
<!-- Node24&#45;&gt;Node29 -->
<g id="edge41" class="edge"><title>Node24&#45;&gt;Node29</title>
<path fill="none" stroke="midnightblue" d="M613.319,-236.403C623.918,-228.353 640.167,-216.013 654.086,-205.441"/>
<polygon fill="midnightblue" stroke="midnightblue" points="656.535,-207.976 662.381,-199.141 652.301,-202.402 656.535,-207.976"/>
</g>
<!-- Node30 -->
<g id="node30" class="node"><title>Node30</title>
<g id="a_node30"><a xlink:href="Math_8hpp.html" target="_top" xlink:title="Core/Math/Math.hpp">
<polygon fill="white" stroke="black" points="959,-174.5 959,-193.5 1065,-193.5 1065,-174.5 959,-174.5"/>
<text text-anchor="middle" x="1012" y="-181.5" font-family="Helvetica,sans-Serif" font-size="10.00">Core/Math/Math.hpp</text>
</a>
</g>
</g>
<!-- Node24&#45;&gt;Node30 -->
<g id="edge42" class="edge"><title>Node24&#45;&gt;Node30</title>
<path fill="none" stroke="midnightblue" d="M672.866,-236.465C757.586,-226.127 894.289,-208.984 945,-200 952.101,-198.742 959.588,-197.241 966.881,-195.682"/>
<polygon fill="midnightblue" stroke="midnightblue" points="967.635,-199.099 976.653,-193.537 966.135,-192.262 967.635,-199.099"/>
</g>
<!-- Node34 -->
<g id="node34" class="node"><title>Node34</title>
<g id="a_node34"><a xlink:href="LinearAlgebra_8inl.html" target="_top" xlink:title="Core/Math/LinearAlgebra.inl">
<polygon fill="white" stroke="black" points="765.5,-174.5 765.5,-193.5 902.5,-193.5 902.5,-174.5 765.5,-174.5"/>
<text text-anchor="middle" x="834" y="-181.5" font-family="Helvetica,sans-Serif" font-size="10.00">Core/Math/LinearAlgebra.inl</text>
</a>
</g>
</g>
<!-- Node24&#45;&gt;Node34 -->
<g id="edge48" class="edge"><title>Node24&#45;&gt;Node34</title>
<path fill="none" stroke="midnightblue" d="M635.24,-236.403C676.242,-225.799 746.029,-207.751 791.054,-196.107"/>
<polygon fill="midnightblue" stroke="midnightblue" points="792.017,-199.473 800.822,-193.581 790.264,-192.696 792.017,-199.473"/>
</g>
<!-- Node30&#45;&gt;Node13 -->
<g id="edge43" class="edge"><title>Node30&#45;&gt;Node13</title>
<path fill="none" stroke="midnightblue" d="M989.076,-174.403C961.63,-164.111 915.484,-146.806 884.401,-135.15"/>
<polygon fill="midnightblue" stroke="midnightblue" points="885.474,-131.815 874.882,-131.581 883.016,-138.369 885.474,-131.815"/>
</g>
<!-- Node31 -->
<g id="node31" class="node"><title>Node31</title>
<polygon fill="white" stroke="#bfbfbf" points="916,-112.5 916,-131.5 972,-131.5 972,-112.5 916,-112.5"/>
<text text-anchor="middle" x="944" y="-119.5" font-family="Helvetica,sans-Serif" font-size="10.00">algorithm</text>
</g>
<!-- Node30&#45;&gt;Node31 -->
<g id="edge44" class="edge"><title>Node30&#45;&gt;Node31</title>
<path fill="none" stroke="midnightblue" d="M1002.26,-174.403C991.653,-165.047 974.481,-149.895 961.521,-138.46"/>
<polygon fill="midnightblue" stroke="midnightblue" points="963.539,-135.572 953.725,-131.581 958.907,-140.821 963.539,-135.572"/>
</g>
<!-- Node32 -->
<g id="node32" class="node"><title>Node32</title>
<polygon fill="white" stroke="#bfbfbf" points="990,-112.5 990,-131.5 1034,-131.5 1034,-112.5 990,-112.5"/>
<text text-anchor="middle" x="1012" y="-119.5" font-family="Helvetica,sans-Serif" font-size="10.00">cmath</text>
</g>
<!-- Node30&#45;&gt;Node32 -->
<g id="edge45" class="edge"><title>Node30&#45;&gt;Node32</title>
<path fill="none" stroke="midnightblue" d="M1012,-174.403C1012,-165.938 1012,-152.728 1012,-141.82"/>
<polygon fill="midnightblue" stroke="midnightblue" points="1015.5,-141.581 1012,-131.581 1008.5,-141.581 1015.5,-141.581"/>
</g>
<!-- Node33 -->
<g id="node33" class="node"><title>Node33</title>
<g id="a_node33"><a xlink:href="Math_8inl.html" target="_top" xlink:title="Core/Math/Math.inl">
<polygon fill="white" stroke="black" points="1052,-112.5 1052,-131.5 1152,-131.5 1152,-112.5 1052,-112.5"/>
<text text-anchor="middle" x="1102" y="-119.5" font-family="Helvetica,sans-Serif" font-size="10.00">Core/Math/Math.inl</text>
</a>
</g>
</g>
<!-- Node30&#45;&gt;Node33 -->
<g id="edge46" class="edge"><title>Node30&#45;&gt;Node33</title>
<path fill="none" stroke="midnightblue" d="M1019.99,-174.403C1032.58,-164.601 1056.52,-148.439 1075.43,-136.853"/>
<polygon fill="midnightblue" stroke="midnightblue" points="1077.45,-139.721 1084.23,-131.581 1073.85,-133.716 1077.45,-139.721"/>
</g>
<!-- Node33&#45;&gt;Node30 -->
<g id="edge47" class="edge"><title>Node33&#45;&gt;Node30</title>
<path fill="none" stroke="midnightblue" d="M1094.03,-131.581C1081.46,-141.376 1057.51,-157.538 1038.6,-169.129"/>
<polygon fill="midnightblue" stroke="midnightblue" points="1036.58,-166.262 1029.8,-174.403 1040.17,-172.268 1036.58,-166.262"/>
</g>
<!-- Node35&#45;&gt;Node8 -->
<g id="edge52" class="edge"><title>Node35&#45;&gt;Node8</title>
<path fill="none" stroke="midnightblue" d="M751.801,-255.537C737.611,-268.5 709.27,-293.584 683,-312 642.553,-340.354 632.025,-347.687 587,-368 556.311,-381.845 520.048,-393.631 492.689,-401.664"/>
<polygon fill="midnightblue" stroke="midnightblue" points="491.675,-398.314 483.038,-404.451 493.617,-405.039 491.675,-398.314"/>
</g>
<!-- Node35&#45;&gt;Node23 -->
<g id="edge51" class="edge"><title>Node35&#45;&gt;Node23</title>
<path fill="none" stroke="midnightblue" d="M741.004,-255.516C716.192,-264.625 673.682,-279.129 642.112,-289.304"/>
<polygon fill="midnightblue" stroke="midnightblue" points="640.744,-286.067 632.283,-292.444 642.874,-292.735 640.744,-286.067"/>
</g>
<!-- Node36&#45;&gt;Node2 -->
<g id="edge54" class="edge"><title>Node36&#45;&gt;Node2</title>
<path fill="none" stroke="midnightblue" d="M68.3576,-491.237C71.1699,-513.94 71.5028,-558.619 69.3562,-586.524"/>
<polygon fill="midnightblue" stroke="midnightblue" points="65.855,-586.368 68.3704,-596.66 72.8222,-587.046 65.855,-586.368"/>
</g>
<!-- Node36&#45;&gt;Node8 -->
<g id="edge56" class="edge"><title>Node36&#45;&gt;Node8</title>
<path fill="none" stroke="midnightblue" d="M128.34,-465.025C199.63,-453.972 313.967,-436.245 385.658,-425.131"/>
<polygon fill="midnightblue" stroke="midnightblue" points="386.57,-428.531 395.915,-423.54 385.497,-421.614 386.57,-428.531"/>
</g>
<!-- Node36&#45;&gt;Node21 -->
<g id="edge55" class="edge"><title>Node36&#45;&gt;Node21</title>
<path fill="none" stroke="midnightblue" d="M65.3764,-460.755C68.7122,-434.368 79.6744,-377.86 114,-348 143.476,-322.358 185.07,-310.755 221.547,-305.714"/>
<polygon fill="midnightblue" stroke="midnightblue" points="222.191,-309.162 231.686,-304.46 221.332,-302.214 222.191,-309.162"/>
</g>
<!-- Node37&#45;&gt;Node1 -->
<g id="edge58" class="edge"><title>Node37&#45;&gt;Node1</title>
<path fill="none" stroke="midnightblue" d="M169.192,-559.01C171.879,-580.847 172.449,-623.68 170.902,-654.426"/>
<polygon fill="midnightblue" stroke="midnightblue" points="167.388,-654.547 170.267,-664.743 174.375,-654.977 167.388,-654.547"/>
</g>
<!-- Node37&#45;&gt;Node8 -->
<g id="edge60" class="edge"><title>Node37&#45;&gt;Node8</title>
<path fill="none" stroke="midnightblue" d="M196.425,-528.936C252.433,-503.869 368.673,-451.846 422.502,-427.754"/>
<polygon fill="midnightblue" stroke="midnightblue" points="424.101,-430.873 431.798,-423.594 421.241,-424.484 424.101,-430.873"/>
</g>
<!-- Node37&#45;&gt;Node21 -->
<g id="edge59" class="edge"><title>Node37&#45;&gt;Node21</title>
<path fill="none" stroke="midnightblue" d="M173.1,-528.706C196.705,-487.051 265.381,-365.857 291.112,-320.45"/>
<polygon fill="midnightblue" stroke="midnightblue" points="294.29,-321.941 296.175,-311.515 288.199,-318.49 294.29,-321.941"/>
</g>
</g>
</svg>
