<?xml version="1.0" encoding="UTF-8" standalone="no"?>
<!DOCTYPE svg PUBLIC "-//W3C//DTD SVG 1.1//EN"
 "http://www.w3.org/Graphics/SVG/1.1/DTD/svg11.dtd">
<!-- Generated by graphviz version 2.36.0 (20140111.2315)
 -->
<!-- Title: /home/travis/build/STORM&#45;IRIT/Radium&#45;Engine/src/Core/Mesh/DCEL/Iterator/Face/FHEIterator.inl Pages: 1 -->
<svg width="1159pt" height="794pt"
 viewBox="0.00 0.00 1159.00 794.00" xmlns="http://www.w3.org/2000/svg" xmlns:xlink="http://www.w3.org/1999/xlink">
<g id="graph0" class="graph" transform="scale(1 1) rotate(0) translate(4 790)">
<title>/home/travis/build/STORM&#45;IRIT/Radium&#45;Engine/src/Core/Mesh/DCEL/Iterator/Face/FHEIterator.inl</title>
<polygon fill="white" stroke="none" points="-4,4 -4,-790 1155,-790 1155,4 -4,4"/>
<!-- Node1 -->
<g id="node1" class="node"><title>Node1</title>
<polygon fill="#bfbfbf" stroke="black" points="818,-733 818,-785 966,-785 966,-733 818,-733"/>
<text text-anchor="start" x="826" y="-773" font-family="Helvetica,sans-Serif" font-size="10.00">/home/travis/build</text>
<text text-anchor="start" x="826" y="-762" font-family="Helvetica,sans-Serif" font-size="10.00">/STORM&#45;IRIT/Radium&#45;Engine</text>
<text text-anchor="start" x="826" y="-751" font-family="Helvetica,sans-Serif" font-size="10.00">/src/Core/Mesh/DCEL/Iterator</text>
<text text-anchor="middle" x="892" y="-740" font-family="Helvetica,sans-Serif" font-size="10.00">/Face/FHEIterator.inl</text>
</g>
<!-- Node2 -->
<g id="node2" class="node"><title>Node2</title>
<g id="a_node2"><a xlink:href="FHEIterator_8hpp.html" target="_top" xlink:title="Core/Mesh/DCEL/Iterator\l/Face/FHEIterator.hpp">
<polygon fill="white" stroke="black" points="828,-665 828,-695 956,-695 956,-665 828,-665"/>
<text text-anchor="start" x="836" y="-683" font-family="Helvetica,sans-Serif" font-size="10.00">Core/Mesh/DCEL/Iterator</text>
<text text-anchor="middle" x="892" y="-672" font-family="Helvetica,sans-Serif" font-size="10.00">/Face/FHEIterator.hpp</text>
</a>
</g>
</g>
<!-- Node1&#45;&gt;Node2 -->
<g id="edge1" class="edge"><title>Node1&#45;&gt;Node2</title>
<path fill="none" stroke="midnightblue" d="M885.621,-732.787C885.107,-723.932 885.127,-714.007 885.68,-705.234"/>
<polygon fill="midnightblue" stroke="midnightblue" points="889.167,-705.536 886.619,-695.252 882.198,-704.88 889.167,-705.536"/>
</g>
<!-- Node9 -->
<g id="node9" class="node"><title>Node9</title>
<g id="a_node9"><a xlink:href="DCEL_2HalfEdge_8hpp.html" target="_top" xlink:title="Core/Mesh/DCEL/HalfEdge.hpp">
<polygon fill="white" stroke="black" points="723.5,-404.5 723.5,-423.5 880.5,-423.5 880.5,-404.5 723.5,-404.5"/>
<text text-anchor="middle" x="802" y="-411.5" font-family="Helvetica,sans-Serif" font-size="10.00">Core/Mesh/DCEL/HalfEdge.hpp</text>
</a>
</g>
</g>
<!-- Node1&#45;&gt;Node9 -->
<g id="edge60" class="edge"><title>Node1&#45;&gt;Node9</title>
<path fill="none" stroke="midnightblue" d="M853.331,-732.822C840.66,-722.781 827.632,-710.211 819,-696 799.353,-663.656 800,-650.843 800,-613 800,-613 800,-613 800,-543 800,-504.244 800.928,-458.894 801.52,-433.917"/>
<polygon fill="midnightblue" stroke="midnightblue" points="805.024,-433.773 801.771,-423.691 798.026,-433.602 805.024,-433.773"/>
</g>
<!-- Node22 -->
<g id="node22" class="node"><title>Node22</title>
<g id="a_node22"><a xlink:href="Face_8hpp.html" target="_top" xlink:title="Core/Mesh/DCEL/Face.hpp">
<polygon fill="white" stroke="black" points="742,-292.5 742,-311.5 880,-311.5 880,-292.5 742,-292.5"/>
<text text-anchor="middle" x="811" y="-299.5" font-family="Helvetica,sans-Serif" font-size="10.00">Core/Mesh/DCEL/Face.hpp</text>
</a>
</g>
</g>
<!-- Node1&#45;&gt;Node22 -->
<g id="edge59" class="edge"><title>Node1&#45;&gt;Node22</title>
<path fill="none" stroke="midnightblue" d="M930.669,-732.822C943.34,-722.781 956.368,-710.211 965,-696 984.647,-663.656 984,-650.843 984,-613 984,-613 984,-613 984,-413 984,-356.442 917.343,-327.715 866.78,-314.06"/>
<polygon fill="midnightblue" stroke="midnightblue" points="867.463,-310.622 856.907,-311.526 865.723,-317.402 867.463,-310.622"/>
</g>
<!-- Node2&#45;&gt;Node1 -->
<g id="edge58" class="edge"><title>Node2&#45;&gt;Node1</title>
<path fill="none" stroke="midnightblue" d="M897.381,-695.252C898.4,-702.969 898.85,-712.877 898.731,-722.529"/>
<polygon fill="midnightblue" stroke="midnightblue" points="895.224,-722.673 898.379,-732.787 902.22,-722.913 895.224,-722.673"/>
</g>
<!-- Node3 -->
<g id="node3" class="node"><title>Node3</title>
<g id="a_node3"><a xlink:href="FaceIterator_8hpp.html" target="_top" xlink:title="Core/Mesh/DCEL/Iterator\l/Face/FaceIterator.hpp">
<polygon fill="white" stroke="black" points="828,-597 828,-627 956,-627 956,-597 828,-597"/>
<text text-anchor="start" x="836" y="-615" font-family="Helvetica,sans-Serif" font-size="10.00">Core/Mesh/DCEL/Iterator</text>
<text text-anchor="middle" x="892" y="-604" font-family="Helvetica,sans-Serif" font-size="10.00">/Face/FaceIterator.hpp</text>
</a>
</g>
</g>
<!-- Node2&#45;&gt;Node3 -->
<g id="edge2" class="edge"><title>Node2&#45;&gt;Node3</title>
<path fill="none" stroke="midnightblue" d="M892,-664.679C892,-656.722 892,-646.605 892,-637.436"/>
<polygon fill="midnightblue" stroke="midnightblue" points="895.5,-637.293 892,-627.293 888.5,-637.293 895.5,-637.293"/>
</g>
<!-- Node4 -->
<g id="node4" class="node"><title>Node4</title>
<g id="a_node4"><a xlink:href="Iterator_8hpp.html" target="_top" xlink:title="Core/Mesh/DCEL/Iterator\l/Iterator.hpp">
<polygon fill="white" stroke="black" points="478,-529 478,-559 606,-559 606,-529 478,-529"/>
<text text-anchor="start" x="486" y="-547" font-family="Helvetica,sans-Serif" font-size="10.00">Core/Mesh/DCEL/Iterator</text>
<text text-anchor="middle" x="542" y="-536" font-family="Helvetica,sans-Serif" font-size="10.00">/Iterator.hpp</text>
</a>
</g>
</g>
<!-- Node3&#45;&gt;Node4 -->
<g id="edge3" class="edge"><title>Node3&#45;&gt;Node4</title>
<path fill="none" stroke="midnightblue" d="M827.805,-598.895C767.954,-587.608 678.729,-570.783 615.928,-558.941"/>
<polygon fill="midnightblue" stroke="midnightblue" points="616.559,-555.498 606.084,-557.084 615.262,-562.377 616.559,-555.498"/>
</g>
<!-- Node37 -->
<g id="node37" class="node"><title>Node37</title>
<g id="a_node37"><a xlink:href="FaceIterator_8inl.html" target="_top" xlink:title="Core/Mesh/DCEL/Iterator\l/Face/FaceIterator.inl">
<polygon fill="white" stroke="black" points="828,-461 828,-491 956,-491 956,-461 828,-461"/>
<text text-anchor="start" x="836" y="-479" font-family="Helvetica,sans-Serif" font-size="10.00">Core/Mesh/DCEL/Iterator</text>
<text text-anchor="middle" x="892" y="-468" font-family="Helvetica,sans-Serif" font-size="10.00">/Face/FaceIterator.inl</text>
</a>
</g>
</g>
<!-- Node3&#45;&gt;Node37 -->
<g id="edge54" class="edge"><title>Node3&#45;&gt;Node37</title>
<path fill="none" stroke="midnightblue" d="M887.63,-596.66C884.825,-573.891 884.499,-529.203 886.654,-501.349"/>
<polygon fill="midnightblue" stroke="midnightblue" points="890.152,-501.53 887.642,-491.237 883.186,-500.849 890.152,-501.53"/>
</g>
<!-- Node5 -->
<g id="node5" class="node"><title>Node5</title>
<g id="a_node5"><a xlink:href="Definition_8hpp.html" target="_top" xlink:title="Core/Mesh/DCEL/Definition.hpp">
<polygon fill="white" stroke="black" points="199,-236.5 199,-255.5 357,-255.5 357,-236.5 199,-236.5"/>
<text text-anchor="middle" x="278" y="-243.5" font-family="Helvetica,sans-Serif" font-size="10.00">Core/Mesh/DCEL/Definition.hpp</text>
</a>
</g>
</g>
<!-- Node4&#45;&gt;Node5 -->
<g id="edge4" class="edge"><title>Node4&#45;&gt;Node5</title>
<path fill="none" stroke="midnightblue" d="M477.749,-535.547C408.476,-523.516 308,-492.678 308,-415 308,-415 308,-415 308,-357 308,-323.64 294.999,-286.532 286.114,-265.067"/>
<polygon fill="midnightblue" stroke="midnightblue" points="289.216,-263.421 282.046,-255.621 282.787,-266.19 289.216,-263.421"/>
</g>
<!-- Node7 -->
<g id="node7" class="node"><title>Node7</title>
<polygon fill="white" stroke="#bfbfbf" points="0,-174.5 0,-193.5 44,-193.5 44,-174.5 0,-174.5"/>
<text text-anchor="middle" x="22" y="-181.5" font-family="Helvetica,sans-Serif" font-size="10.00">vector</text>
</g>
<!-- Node4&#45;&gt;Node7 -->
<g id="edge7" class="edge"><title>Node4&#45;&gt;Node7</title>
<path fill="none" stroke="midnightblue" d="M477.625,-537.312C357.669,-524.926 112,-490.359 112,-415 112,-415 112,-415 112,-301 112,-256.802 70.7092,-219.258 44.0633,-199.632"/>
<polygon fill="midnightblue" stroke="midnightblue" points="45.8508,-196.609 35.6691,-193.68 41.8017,-202.319 45.8508,-196.609"/>
</g>
<!-- Node8 -->
<g id="node8" class="node"><title>Node8</title>
<g id="a_node8"><a xlink:href="Iterator_8inl.html" target="_top" xlink:title="Core/Mesh/DCEL/Iterator\l/Iterator.inl">
<polygon fill="white" stroke="black" points="478,-461 478,-491 606,-491 606,-461 478,-461"/>
<text text-anchor="start" x="486" y="-479" font-family="Helvetica,sans-Serif" font-size="10.00">Core/Mesh/DCEL/Iterator</text>
<text text-anchor="middle" x="542" y="-468" font-family="Helvetica,sans-Serif" font-size="10.00">/Iterator.inl</text>
</a>
</g>
</g>
<!-- Node4&#45;&gt;Node8 -->
<g id="edge8" class="edge"><title>Node4&#45;&gt;Node8</title>
<path fill="none" stroke="midnightblue" d="M536.322,-528.679C535.294,-520.722 535.005,-510.605 535.456,-501.436"/>
<polygon fill="midnightblue" stroke="midnightblue" points="538.959,-501.555 536.325,-491.293 531.984,-500.958 538.959,-501.555"/>
</g>
<!-- Node6 -->
<g id="node6" class="node"><title>Node6</title>
<polygon fill="white" stroke="#bfbfbf" points="62,-174.5 62,-193.5 114,-193.5 114,-174.5 62,-174.5"/>
<text text-anchor="middle" x="88" y="-181.5" font-family="Helvetica,sans-Serif" font-size="10.00">memory</text>
</g>
<!-- Node5&#45;&gt;Node6 -->
<g id="edge5" class="edge"><title>Node5&#45;&gt;Node6</title>
<path fill="none" stroke="midnightblue" d="M244.059,-236.428C212.399,-228.132 164.024,-214.684 123,-200 120.742,-199.192 118.421,-198.311 116.1,-197.395"/>
<polygon fill="midnightblue" stroke="midnightblue" points="117.302,-194.105 106.723,-193.524 114.63,-200.575 117.302,-194.105"/>
</g>
<!-- Node5&#45;&gt;Node7 -->
<g id="edge6" class="edge"><title>Node5&#45;&gt;Node7</title>
<path fill="none" stroke="midnightblue" d="M212.859,-236.441C167.313,-229.381 105.491,-217.63 53,-200 51.0871,-199.358 49.1398,-198.624 47.2004,-197.834"/>
<polygon fill="midnightblue" stroke="midnightblue" points="48.3201,-194.499 37.7651,-193.581 45.4433,-200.881 48.3201,-194.499"/>
</g>
<!-- Node8&#45;&gt;Node4 -->
<g id="edge9" class="edge"><title>Node8&#45;&gt;Node4</title>
<path fill="none" stroke="midnightblue" d="M547.675,-491.293C548.704,-499.245 548.995,-509.361 548.545,-518.532"/>
<polygon fill="midnightblue" stroke="midnightblue" points="545.042,-518.417 547.678,-528.679 552.017,-519.013 545.042,-518.417"/>
</g>
<!-- Node8&#45;&gt;Node9 -->
<g id="edge10" class="edge"><title>Node8&#45;&gt;Node9</title>
<path fill="none" stroke="midnightblue" d="M602.958,-460.933C649.508,-450.19 712.696,-435.609 755.285,-425.78"/>
<polygon fill="midnightblue" stroke="midnightblue" points="756.155,-429.172 765.112,-423.513 754.581,-422.351 756.155,-429.172"/>
</g>
<!-- Node9&#45;&gt;Node5 -->
<g id="edge23" class="edge"><title>Node9&#45;&gt;Node5</title>
<path fill="none" stroke="midnightblue" d="M749.256,-404.497C705.352,-396.817 641.452,-384.236 587,-368 480.711,-336.308 359.534,-283.852 305.972,-259.785"/>
<polygon fill="midnightblue" stroke="midnightblue" points="307.331,-256.559 296.777,-255.633 304.45,-262.938 307.331,-256.559"/>
</g>
<!-- Node10 -->
<g id="node10" class="node"><title>Node10</title>
<g id="a_node10"><a xlink:href="Index_8hpp.html" target="_top" xlink:title="Core/Index/Index.hpp">
<polygon fill="white" stroke="black" points="999,-174.5 999,-193.5 1109,-193.5 1109,-174.5 999,-174.5"/>
<text text-anchor="middle" x="1054" y="-181.5" font-family="Helvetica,sans-Serif" font-size="10.00">Core/Index/Index.hpp</text>
</a>
</g>
</g>
<!-- Node9&#45;&gt;Node10 -->
<g id="edge11" class="edge"><title>Node9&#45;&gt;Node10</title>
<path fill="none" stroke="midnightblue" d="M842.017,-404.436C906.121,-388.254 1029.45,-346.37 1077,-256 1086.11,-238.693 1076.48,-217.113 1067.04,-202.315"/>
<polygon fill="midnightblue" stroke="midnightblue" points="1069.64,-199.914 1061.07,-193.683 1063.88,-203.897 1069.64,-199.914"/>
</g>
<!-- Node13 -->
<g id="node13" class="node"><title>Node13</title>
<g id="a_node13"><a xlink:href="IndexedObject_8hpp.html" target="_top" xlink:title="Core/Index/IndexedObject.hpp">
<polygon fill="white" stroke="black" points="731.5,-236.5 731.5,-255.5 880.5,-255.5 880.5,-236.5 731.5,-236.5"/>
<text text-anchor="middle" x="806" y="-243.5" font-family="Helvetica,sans-Serif" font-size="10.00">Core/Index/IndexedObject.hpp</text>
</a>
</g>
</g>
<!-- Node9&#45;&gt;Node13 -->
<g id="edge14" class="edge"><title>Node9&#45;&gt;Node13</title>
<path fill="none" stroke="midnightblue" d="M769.815,-404.488C751.461,-397.801 729.984,-386.45 719,-368 714.453,-360.362 717.914,-356.822 719,-348 722.135,-322.537 717.851,-312.704 733,-292 743.313,-277.906 759.502,-267.279 774.017,-259.902"/>
<polygon fill="midnightblue" stroke="midnightblue" points="775.706,-262.975 783.235,-255.52 772.701,-256.653 775.706,-262.975"/>
</g>
<!-- Node21 -->
<g id="node21" class="node"><title>Node21</title>
<g id="a_node21"><a xlink:href="DCEL_2HalfEdge_8inl.html" target="_top" xlink:title="Core/Mesh/DCEL/HalfEdge.inl">
<polygon fill="white" stroke="black" points="728.5,-348.5 728.5,-367.5 879.5,-367.5 879.5,-348.5 728.5,-348.5"/>
<text text-anchor="middle" x="804" y="-355.5" font-family="Helvetica,sans-Serif" font-size="10.00">Core/Mesh/DCEL/HalfEdge.inl</text>
</a>
</g>
</g>
<!-- Node9&#45;&gt;Node21 -->
<g id="edge24" class="edge"><title>Node9&#45;&gt;Node21</title>
<path fill="none" stroke="midnightblue" d="M797.164,-404.083C795.919,-396.927 795.87,-386.635 796.85,-377.691"/>
<polygon fill="midnightblue" stroke="midnightblue" points="800.314,-378.197 798.545,-367.751 793.414,-377.021 800.314,-378.197"/>
</g>
<!-- Node11 -->
<g id="node11" class="node"><title>Node11</title>
<polygon fill="white" stroke="#bfbfbf" points="989,-112.5 989,-131.5 1029,-131.5 1029,-112.5 989,-112.5"/>
<text text-anchor="middle" x="1009" y="-119.5" font-family="Helvetica,sans-Serif" font-size="10.00">limits</text>
</g>
<!-- Node10&#45;&gt;Node11 -->
<g id="edge12" class="edge"><title>Node10&#45;&gt;Node11</title>
<path fill="none" stroke="midnightblue" d="M1047.55,-174.403C1040.8,-165.403 1030.03,-151.041 1021.59,-139.782"/>
<polygon fill="midnightblue" stroke="midnightblue" points="1024.24,-137.481 1015.44,-131.581 1018.64,-141.681 1024.24,-137.481"/>
</g>
<!-- Node12 -->
<g id="node12" class="node"><title>Node12</title>
<g id="a_node12"><a xlink:href="Index_8inl.html" target="_top" xlink:title="Core/Index/Index.inl">
<polygon fill="white" stroke="black" points="1047,-112.5 1047,-131.5 1151,-131.5 1151,-112.5 1047,-112.5"/>
<text text-anchor="middle" x="1099" y="-119.5" font-family="Helvetica,sans-Serif" font-size="10.00">Core/Index/Index.inl</text>
</a>
</g>
</g>
<!-- Node10&#45;&gt;Node12 -->
<g id="edge13" class="edge"><title>Node10&#45;&gt;Node12</title>
<path fill="none" stroke="midnightblue" d="M1060.45,-174.403C1067.2,-165.403 1077.97,-151.041 1086.41,-139.782"/>
<polygon fill="midnightblue" stroke="midnightblue" points="1089.36,-141.681 1092.56,-131.581 1083.76,-137.481 1089.36,-141.681"/>
</g>
<!-- Node13&#45;&gt;Node10 -->
<g id="edge15" class="edge"><title>Node13&#45;&gt;Node10</title>
<path fill="none" stroke="midnightblue" d="M841.269,-236.467C885.34,-225.805 960.813,-207.545 1009,-195.886"/>
<polygon fill="midnightblue" stroke="midnightblue" points="1009.96,-199.257 1018.85,-193.503 1008.31,-192.453 1009.96,-199.257"/>
</g>
<!-- Node14 -->
<g id="node14" class="node"><title>Node14</title>
<g id="a_node14"><a xlink:href="RaCore_8hpp.html" target="_top" xlink:title="Core/RaCore.hpp">
<polygon fill="white" stroke="black" points="527.5,-112.5 527.5,-131.5 620.5,-131.5 620.5,-112.5 527.5,-112.5"/>
<text text-anchor="middle" x="574" y="-119.5" font-family="Helvetica,sans-Serif" font-size="10.00">Core/RaCore.hpp</text>
</a>
</g>
</g>
<!-- Node13&#45;&gt;Node14 -->
<g id="edge16" class="edge"><title>Node13&#45;&gt;Node14</title>
<path fill="none" stroke="midnightblue" d="M857.849,-236.458C911.267,-225.519 982.601,-203.597 951,-168 930.132,-144.493 731.053,-131.033 630.924,-125.699"/>
<polygon fill="midnightblue" stroke="midnightblue" points="630.847,-122.19 620.678,-125.163 630.481,-129.18 630.847,-122.19"/>
</g>
<!-- Node15 -->
<g id="node15" class="node"><title>Node15</title>
<g id="a_node15"><a xlink:href="CoreMacros_8hpp.html" target="_top" xlink:title="Core/CoreMacros.hpp">
<polygon fill="white" stroke="black" points="517.5,-56.5 517.5,-75.5 630.5,-75.5 630.5,-56.5 517.5,-56.5"/>
<text text-anchor="middle" x="574" y="-63.5" font-family="Helvetica,sans-Serif" font-size="10.00">Core/CoreMacros.hpp</text>
</a>
</g>
</g>
<!-- Node14&#45;&gt;Node15 -->
<g id="edge17" class="edge"><title>Node14&#45;&gt;Node15</title>
<path fill="none" stroke="midnightblue" d="M574,-112.083C574,-105.006 574,-94.8611 574,-85.9865"/>
<polygon fill="midnightblue" stroke="midnightblue" points="577.5,-85.751 574,-75.7511 570.5,-85.7511 577.5,-85.751"/>
</g>
<!-- Node16 -->
<g id="node16" class="node"><title>Node16</title>
<polygon fill="white" stroke="#bfbfbf" points="418.5,-0.5 418.5,-19.5 467.5,-19.5 467.5,-0.5 418.5,-0.5"/>
<text text-anchor="middle" x="443" y="-7.5" font-family="Helvetica,sans-Serif" font-size="10.00">cassert</text>
</g>
<!-- Node15&#45;&gt;Node16 -->
<g id="edge18" class="edge"><title>Node15&#45;&gt;Node16</title>
<path fill="none" stroke="midnightblue" d="M553.243,-56.4435C531.684,-47.5566 497.737,-33.5632 473.206,-23.4514"/>
<polygon fill="midnightblue" stroke="midnightblue" points="474.239,-20.0917 463.66,-19.5164 471.572,-26.5634 474.239,-20.0917"/>
</g>
<!-- Node17 -->
<g id="node17" class="node"><title>Node17</title>
<polygon fill="white" stroke="#bfbfbf" points="485.5,-0.5 485.5,-19.5 528.5,-19.5 528.5,-0.5 485.5,-0.5"/>
<text text-anchor="middle" x="507" y="-7.5" font-family="Helvetica,sans-Serif" font-size="10.00">cstdio</text>
</g>
<!-- Node15&#45;&gt;Node17 -->
<g id="edge19" class="edge"><title>Node15&#45;&gt;Node17</title>
<path fill="none" stroke="midnightblue" d="M563.235,-56.324C553.234,-48.2631 538.113,-36.0765 526.07,-26.3695"/>
<polygon fill="midnightblue" stroke="midnightblue" points="527.943,-23.3841 517.961,-19.8339 523.55,-28.8343 527.943,-23.3841"/>
</g>
<!-- Node18 -->
<g id="node18" class="node"><title>Node18</title>
<polygon fill="white" stroke="#bfbfbf" points="547,-0.5 547,-19.5 601,-19.5 601,-0.5 547,-0.5"/>
<text text-anchor="middle" x="574" y="-7.5" font-family="Helvetica,sans-Serif" font-size="10.00">iostream</text>
</g>
<!-- Node15&#45;&gt;Node18 -->
<g id="edge20" class="edge"><title>Node15&#45;&gt;Node18</title>
<path fill="none" stroke="midnightblue" d="M574,-56.083C574,-49.0059 574,-38.8611 574,-29.9865"/>
<polygon fill="midnightblue" stroke="midnightblue" points="577.5,-29.751 574,-19.7511 570.5,-29.7511 577.5,-29.751"/>
</g>
<!-- Node19 -->
<g id="node19" class="node"><title>Node19</title>
<polygon fill="white" stroke="#bfbfbf" points="619,-0.5 619,-19.5 671,-19.5 671,-0.5 619,-0.5"/>
<text text-anchor="middle" x="645" y="-7.5" font-family="Helvetica,sans-Serif" font-size="10.00">sstream</text>
</g>
<!-- Node15&#45;&gt;Node19 -->
<g id="edge21" class="edge"><title>Node15&#45;&gt;Node19</title>
<path fill="none" stroke="midnightblue" d="M585.407,-56.324C596.109,-48.1849 612.341,-35.8395 625.163,-26.0874"/>
<polygon fill="midnightblue" stroke="midnightblue" points="627.544,-28.6734 633.385,-19.8339 623.307,-23.1018 627.544,-28.6734"/>
</g>
<!-- Node20 -->
<g id="node20" class="node"><title>Node20</title>
<polygon fill="white" stroke="#bfbfbf" points="689,-0.5 689,-19.5 733,-19.5 733,-0.5 689,-0.5"/>
<text text-anchor="middle" x="711" y="-7.5" font-family="Helvetica,sans-Serif" font-size="10.00">thread</text>
</g>
<!-- Node15&#45;&gt;Node20 -->
<g id="edge22" class="edge"><title>Node15&#45;&gt;Node20</title>
<path fill="none" stroke="midnightblue" d="M595.708,-56.4435C618.355,-47.5171 654.072,-33.4387 679.752,-23.3168"/>
<polygon fill="midnightblue" stroke="midnightblue" points="681.374,-26.4397 689.394,-19.5164 678.807,-19.9273 681.374,-26.4397"/>
</g>
<!-- Node21&#45;&gt;Node9 -->
<g id="edge25" class="edge"><title>Node21&#45;&gt;Node9</title>
<path fill="none" stroke="midnightblue" d="M808.807,-367.751C810.07,-374.858 810.136,-385.136 809.172,-394.101"/>
<polygon fill="midnightblue" stroke="midnightblue" points="805.701,-393.642 807.497,-404.083 812.604,-394.8 805.701,-393.642"/>
</g>
<!-- Node21&#45;&gt;Node22 -->
<g id="edge26" class="edge"><title>Node21&#45;&gt;Node22</title>
<path fill="none" stroke="midnightblue" d="M805.156,-348.083C806.084,-340.927 807.418,-330.635 808.577,-321.691"/>
<polygon fill="midnightblue" stroke="midnightblue" points="812.051,-322.118 809.866,-311.751 805.109,-321.218 812.051,-322.118"/>
</g>
<!-- Node24 -->
<g id="node24" class="node"><title>Node24</title>
<g id="a_node24"><a xlink:href="Vertex_8hpp.html" target="_top" xlink:title="Core/Mesh/DCEL/Vertex.hpp">
<polygon fill="white" stroke="black" points="526.5,-292.5 526.5,-311.5 671.5,-311.5 671.5,-292.5 526.5,-292.5"/>
<text text-anchor="middle" x="599" y="-299.5" font-family="Helvetica,sans-Serif" font-size="10.00">Core/Mesh/DCEL/Vertex.hpp</text>
</a>
</g>
</g>
<!-- Node21&#45;&gt;Node24 -->
<g id="edge33" class="edge"><title>Node21&#45;&gt;Node24</title>
<path fill="none" stroke="midnightblue" d="M771.517,-348.444C736.28,-339.162 679.896,-324.309 641.241,-314.127"/>
<polygon fill="midnightblue" stroke="midnightblue" points="641.893,-310.679 631.331,-311.516 640.109,-317.448 641.893,-310.679"/>
</g>
<!-- Node22&#45;&gt;Node5 -->
<g id="edge29" class="edge"><title>Node22&#45;&gt;Node5</title>
<path fill="none" stroke="midnightblue" d="M741.626,-294.009C656.131,-285.389 506.112,-270.244 367.14,-256.115"/>
<polygon fill="midnightblue" stroke="midnightblue" points="367.456,-252.629 357.154,-255.1 366.748,-259.593 367.456,-252.629"/>
</g>
<!-- Node22&#45;&gt;Node10 -->
<g id="edge27" class="edge"><title>Node22&#45;&gt;Node10</title>
<path fill="none" stroke="midnightblue" d="M825.791,-292.397C852.329,-277.015 907.113,-245.516 927,-236 958.03,-221.152 994.583,-206.786 1020.49,-197.106"/>
<polygon fill="midnightblue" stroke="midnightblue" points="1022.04,-200.264 1030.2,-193.509 1019.61,-193.699 1022.04,-200.264"/>
</g>
<!-- Node22&#45;&gt;Node13 -->
<g id="edge28" class="edge"><title>Node22&#45;&gt;Node13</title>
<path fill="none" stroke="midnightblue" d="M810.174,-292.083C809.519,-285.006 808.58,-274.861 807.758,-265.986"/>
<polygon fill="midnightblue" stroke="midnightblue" points="811.217,-265.386 806.81,-255.751 804.247,-266.031 811.217,-265.386"/>
</g>
<!-- Node23 -->
<g id="node23" class="node"><title>Node23</title>
<g id="a_node23"><a xlink:href="Face_8inl.html" target="_top" xlink:title="Core/Mesh/DCEL/Face.inl">
<polygon fill="white" stroke="black" points="936,-236.5 936,-255.5 1068,-255.5 1068,-236.5 936,-236.5"/>
<text text-anchor="middle" x="1002" y="-243.5" font-family="Helvetica,sans-Serif" font-size="10.00">Core/Mesh/DCEL/Face.inl</text>
</a>
</g>
</g>
<!-- Node22&#45;&gt;Node23 -->
<g id="edge30" class="edge"><title>Node22&#45;&gt;Node23</title>
<path fill="none" stroke="midnightblue" d="M836.176,-292.444C866.97,-283.162 919.339,-268.309 957.061,-258.127"/>
<polygon fill="midnightblue" stroke="midnightblue" points="958.045,-261.487 966.797,-255.516 956.232,-254.726 958.045,-261.487"/>
</g>
<!-- Node23&#45;&gt;Node9 -->
<g id="edge32" class="edge"><title>Node23&#45;&gt;Node9</title>
<path fill="none" stroke="midnightblue" d="M995.608,-255.547C979.453,-276.714 934.921,-332.432 888,-368 870.937,-380.934 849.626,-392.115 832.487,-400.096"/>
<polygon fill="midnightblue" stroke="midnightblue" points="830.61,-397.104 822.942,-404.415 833.495,-403.482 830.61,-397.104"/>
</g>
<!-- Node23&#45;&gt;Node22 -->
<g id="edge31" class="edge"><title>Node23&#45;&gt;Node22</title>
<path fill="none" stroke="midnightblue" d="M976.957,-255.516C946.225,-264.782 893.866,-279.633 856.102,-289.829"/>
<polygon fill="midnightblue" stroke="midnightblue" points="855.105,-286.473 846.353,-292.444 856.919,-293.234 855.105,-286.473"/>
</g>
<!-- Node24&#45;&gt;Node5 -->
<g id="edge50" class="edge"><title>Node24&#45;&gt;Node5</title>
<path fill="none" stroke="midnightblue" d="M548.137,-292.444C491.317,-282.885 399.383,-267.419 338.81,-257.23"/>
<polygon fill="midnightblue" stroke="midnightblue" points="339.068,-253.724 328.625,-255.516 337.906,-260.627 339.068,-253.724"/>
</g>
<!-- Node24&#45;&gt;Node10 -->
<g id="edge34" class="edge"><title>Node24&#45;&gt;Node10</title>
<path fill="none" stroke="midnightblue" d="M615.223,-292.405C648.468,-274.794 721.292,-236.234 722,-236 728.302,-233.917 893.652,-208.988 988.572,-194.772"/>
<polygon fill="midnightblue" stroke="midnightblue" points="989.285,-198.204 998.657,-193.262 988.249,-191.281 989.285,-198.204"/>
</g>
<!-- Node24&#45;&gt;Node13 -->
<g id="edge35" class="edge"><title>Node24&#45;&gt;Node13</title>
<path fill="none" stroke="midnightblue" d="M631.8,-292.444C667.38,-283.162 724.314,-268.309 763.347,-258.127"/>
<polygon fill="midnightblue" stroke="midnightblue" points="764.561,-261.427 773.354,-255.516 762.794,-254.654 764.561,-261.427"/>
</g>
<!-- Node25 -->
<g id="node25" class="node"><title>Node25</title>
<g id="a_node25"><a xlink:href="LinearAlgebra_8hpp.html" target="_top" xlink:title="Core/Math/LinearAlgebra.hpp">
<polygon fill="white" stroke="black" points="532.5,-236.5 532.5,-255.5 675.5,-255.5 675.5,-236.5 532.5,-236.5"/>
<text text-anchor="middle" x="604" y="-243.5" font-family="Helvetica,sans-Serif" font-size="10.00">Core/Math/LinearAlgebra.hpp</text>
</a>
</g>
</g>
<!-- Node24&#45;&gt;Node25 -->
<g id="edge36" class="edge"><title>Node24&#45;&gt;Node25</title>
<path fill="none" stroke="midnightblue" d="M599.826,-292.083C600.481,-285.006 601.42,-274.861 602.242,-265.986"/>
<polygon fill="midnightblue" stroke="midnightblue" points="605.753,-266.031 603.19,-255.751 598.783,-265.386 605.753,-266.031"/>
</g>
<!-- Node36 -->
<g id="node36" class="node"><title>Node36</title>
<g id="a_node36"><a xlink:href="Vertex_8inl.html" target="_top" xlink:title="Core/Mesh/DCEL/Vertex.inl">
<polygon fill="white" stroke="black" points="375.5,-236.5 375.5,-255.5 514.5,-255.5 514.5,-236.5 375.5,-236.5"/>
<text text-anchor="middle" x="445" y="-243.5" font-family="Helvetica,sans-Serif" font-size="10.00">Core/Mesh/DCEL/Vertex.inl</text>
</a>
</g>
</g>
<!-- Node24&#45;&gt;Node36 -->
<g id="edge51" class="edge"><title>Node24&#45;&gt;Node36</title>
<path fill="none" stroke="midnightblue" d="M569.509,-292.444C541.852,-283.438 501.002,-269.189 473.632,-259.049"/>
<polygon fill="midnightblue" stroke="midnightblue" points="474.8,-255.749 464.208,-255.516 472.343,-262.304 474.8,-255.749"/>
</g>
<!-- Node25&#45;&gt;Node14 -->
<g id="edge37" class="edge"><title>Node25&#45;&gt;Node14</title>
<path fill="none" stroke="midnightblue" d="M601.842,-236.226C596.999,-216.53 585.173,-168.437 578.598,-141.7"/>
<polygon fill="midnightblue" stroke="midnightblue" points="581.925,-140.569 576.138,-131.694 575.127,-142.241 581.925,-140.569"/>
</g>
<!-- Node26 -->
<g id="node26" class="node"><title>Node26</title>
<polygon fill="white" stroke="#bfbfbf" points="602.5,-174.5 602.5,-193.5 667.5,-193.5 667.5,-174.5 602.5,-174.5"/>
<text text-anchor="middle" x="635" y="-181.5" font-family="Helvetica,sans-Serif" font-size="10.00">Eigen/Core</text>
</g>
<!-- Node25&#45;&gt;Node26 -->
<g id="edge38" class="edge"><title>Node25&#45;&gt;Node26</title>
<path fill="none" stroke="midnightblue" d="M608.442,-236.403C612.953,-227.671 620.074,-213.889 625.807,-202.794"/>
<polygon fill="midnightblue" stroke="midnightblue" points="629.086,-204.071 630.567,-193.581 622.867,-200.858 629.086,-204.071"/>
</g>
<!-- Node27 -->
<g id="node27" class="node"><title>Node27</title>
<polygon fill="white" stroke="#bfbfbf" points="685.5,-174.5 685.5,-193.5 772.5,-193.5 772.5,-174.5 685.5,-174.5"/>
<text text-anchor="middle" x="729" y="-181.5" font-family="Helvetica,sans-Serif" font-size="10.00">Eigen/Geometry</text>
</g>
<!-- Node25&#45;&gt;Node27 -->
<g id="edge39" class="edge"><title>Node25&#45;&gt;Node27</title>
<path fill="none" stroke="midnightblue" d="M621.909,-236.403C642.887,-226.334 677.85,-209.552 702.093,-197.915"/>
<polygon fill="midnightblue" stroke="midnightblue" points="703.623,-201.063 711.124,-193.581 700.594,-194.753 703.623,-201.063"/>
</g>
<!-- Node28 -->
<g id="node28" class="node"><title>Node28</title>
<polygon fill="white" stroke="#bfbfbf" points="790.5,-174.5 790.5,-193.5 865.5,-193.5 865.5,-174.5 790.5,-174.5"/>
<text text-anchor="middle" x="828" y="-181.5" font-family="Helvetica,sans-Serif" font-size="10.00">Eigen/Sparse</text>
</g>
<!-- Node25&#45;&gt;Node28 -->
<g id="edge40" class="edge"><title>Node25&#45;&gt;Node28</title>
<path fill="none" stroke="midnightblue" d="M640.104,-236.493C675.994,-227.878 732.535,-213.881 781,-200 784.783,-198.917 788.721,-197.739 792.638,-196.536"/>
<polygon fill="midnightblue" stroke="midnightblue" points="793.731,-199.861 802.227,-193.532 791.638,-193.181 793.731,-199.861"/>
</g>
<!-- Node29 -->
<g id="node29" class="node"><title>Node29</title>
<polygon fill="white" stroke="#bfbfbf" points="883.5,-174.5 883.5,-193.5 942.5,-193.5 942.5,-174.5 883.5,-174.5"/>
<text text-anchor="middle" x="913" y="-181.5" font-family="Helvetica,sans-Serif" font-size="10.00">functional</text>
</g>
<!-- Node25&#45;&gt;Node29 -->
<g id="edge41" class="edge"><title>Node25&#45;&gt;Node29</title>
<path fill="none" stroke="midnightblue" d="M675.623,-237.069C730.534,-230.029 807.864,-218.031 874,-200 877.15,-199.141 880.397,-198.121 883.61,-197.023"/>
<polygon fill="midnightblue" stroke="midnightblue" points="884.832,-200.303 893.017,-193.575 882.423,-193.73 884.832,-200.303"/>
</g>
<!-- Node30 -->
<g id="node30" class="node"><title>Node30</title>
<polygon fill="white" stroke="#bfbfbf" points="132.5,-169 132.5,-199 265.5,-199 265.5,-169 132.5,-169"/>
<text text-anchor="start" x="140.5" y="-187" font-family="Helvetica,sans-Serif" font-size="10.00">unsupported/Eigen/Aligned</text>
<text text-anchor="middle" x="199" y="-176" font-family="Helvetica,sans-Serif" font-size="10.00">Vector3</text>
</g>
<!-- Node25&#45;&gt;Node30 -->
<g id="edge42" class="edge"><title>Node25&#45;&gt;Node30</title>
<path fill="none" stroke="midnightblue" d="M532.579,-236.464C468.095,-228.475 370.38,-215.672 275.724,-200.061"/>
<polygon fill="midnightblue" stroke="midnightblue" points="276.126,-196.58 265.688,-198.393 274.978,-203.485 276.126,-196.58"/>
</g>
<!-- Node31 -->
<g id="node31" class="node"><title>Node31</title>
<g id="a_node31"><a xlink:href="Math_8hpp.html" target="_top" xlink:title="Core/Math/Math.hpp">
<polygon fill="white" stroke="black" points="284,-174.5 284,-193.5 390,-193.5 390,-174.5 284,-174.5"/>
<text text-anchor="middle" x="337" y="-181.5" font-family="Helvetica,sans-Serif" font-size="10.00">Core/Math/Math.hpp</text>
</a>
</g>
</g>
<!-- Node25&#45;&gt;Node31 -->
<g id="edge43" class="edge"><title>Node25&#45;&gt;Node31</title>
<path fill="none" stroke="midnightblue" d="M563.876,-236.457C522.508,-227.586 456.163,-213.187 399,-200 393.331,-198.692 387.378,-197.29 381.497,-195.886"/>
<polygon fill="midnightblue" stroke="midnightblue" points="382.269,-192.472 371.728,-193.54 380.634,-199.278 382.269,-192.472"/>
</g>
<!-- Node35 -->
<g id="node35" class="node"><title>Node35</title>
<g id="a_node35"><a xlink:href="LinearAlgebra_8inl.html" target="_top" xlink:title="Core/Math/LinearAlgebra.inl">
<polygon fill="white" stroke="black" points="408.5,-174.5 408.5,-193.5 545.5,-193.5 545.5,-174.5 408.5,-174.5"/>
<text text-anchor="middle" x="477" y="-181.5" font-family="Helvetica,sans-Serif" font-size="10.00">Core/Math/LinearAlgebra.inl</text>
</a>
</g>
</g>
<!-- Node25&#45;&gt;Node35 -->
<g id="edge49" class="edge"><title>Node25&#45;&gt;Node35</title>
<path fill="none" stroke="midnightblue" d="M585.804,-236.403C564.491,-226.334 528.969,-209.552 504.337,-197.915"/>
<polygon fill="midnightblue" stroke="midnightblue" points="505.699,-194.688 495.162,-193.581 502.709,-201.017 505.699,-194.688"/>
</g>
<!-- Node31&#45;&gt;Node14 -->
<g id="edge44" class="edge"><title>Node31&#45;&gt;Node14</title>
<path fill="none" stroke="midnightblue" d="M370.705,-174.467C412.733,-163.827 484.645,-145.622 530.711,-133.959"/>
<polygon fill="midnightblue" stroke="midnightblue" points="531.576,-137.351 540.412,-131.503 529.858,-130.565 531.576,-137.351"/>
</g>
<!-- Node32 -->
<g id="node32" class="node"><title>Node32</title>
<polygon fill="white" stroke="#bfbfbf" points="196,-112.5 196,-131.5 252,-131.5 252,-112.5 196,-112.5"/>
<text text-anchor="middle" x="224" y="-119.5" font-family="Helvetica,sans-Serif" font-size="10.00">algorithm</text>
</g>
<!-- Node31&#45;&gt;Node32 -->
<g id="edge45" class="edge"><title>Node31&#45;&gt;Node32</title>
<path fill="none" stroke="midnightblue" d="M320.81,-174.403C302.098,-164.468 271.077,-147.997 249.201,-136.381"/>
<polygon fill="midnightblue" stroke="midnightblue" points="250.634,-133.179 240.16,-131.581 247.351,-139.362 250.634,-133.179"/>
</g>
<!-- Node33 -->
<g id="node33" class="node"><title>Node33</title>
<polygon fill="white" stroke="#bfbfbf" points="270,-112.5 270,-131.5 314,-131.5 314,-112.5 270,-112.5"/>
<text text-anchor="middle" x="292" y="-119.5" font-family="Helvetica,sans-Serif" font-size="10.00">cmath</text>
</g>
<!-- Node31&#45;&gt;Node33 -->
<g id="edge46" class="edge"><title>Node31&#45;&gt;Node33</title>
<path fill="none" stroke="midnightblue" d="M330.553,-174.403C323.803,-165.403 313.031,-151.041 304.587,-139.782"/>
<polygon fill="midnightblue" stroke="midnightblue" points="307.235,-137.481 298.435,-131.581 301.635,-141.681 307.235,-137.481"/>
</g>
<!-- Node34 -->
<g id="node34" class="node"><title>Node34</title>
<g id="a_node34"><a xlink:href="Math_8inl.html" target="_top" xlink:title="Core/Math/Math.inl">
<polygon fill="white" stroke="black" points="332,-112.5 332,-131.5 432,-131.5 432,-112.5 332,-112.5"/>
<text text-anchor="middle" x="382" y="-119.5" font-family="Helvetica,sans-Serif" font-size="10.00">Core/Math/Math.inl</text>
</a>
</g>
</g>
<!-- Node31&#45;&gt;Node34 -->
<g id="edge47" class="edge"><title>Node31&#45;&gt;Node34</title>
<path fill="none" stroke="midnightblue" d="M338.547,-174.403C343.445,-165.225 354.125,-150.47 363.85,-139.117"/>
<polygon fill="midnightblue" stroke="midnightblue" points="366.555,-141.345 370.667,-131.581 361.364,-136.649 366.555,-141.345"/>
</g>
<!-- Node34&#45;&gt;Node31 -->
<g id="edge48" class="edge"><title>Node34&#45;&gt;Node31</title>
<path fill="none" stroke="midnightblue" d="M380.462,-131.581C375.57,-140.752 364.893,-155.506 355.166,-166.863"/>
<polygon fill="midnightblue" stroke="midnightblue" points="352.459,-164.639 348.348,-174.403 357.651,-169.334 352.459,-164.639"/>
</g>
<!-- Node36&#45;&gt;Node9 -->
<g id="edge53" class="edge"><title>Node36&#45;&gt;Node9</title>
<path fill="none" stroke="midnightblue" d="M452.566,-255.768C464.832,-269.498 490.383,-296.136 517,-312 593.942,-357.856 694.928,-387.453 753.725,-402.094"/>
<polygon fill="midnightblue" stroke="midnightblue" points="752.948,-405.507 763.493,-404.485 754.612,-398.708 752.948,-405.507"/>
</g>
<!-- Node36&#45;&gt;Node24 -->
<g id="edge52" class="edge"><title>Node36&#45;&gt;Node24</title>
<path fill="none" stroke="midnightblue" d="M474.368,-255.516C501.986,-264.506 542.836,-278.754 570.246,-288.906"/>
<polygon fill="midnightblue" stroke="midnightblue" points="569.095,-292.212 579.687,-292.444 571.551,-285.657 569.095,-292.212"/>
</g>
<!-- Node37&#45;&gt;Node3 -->
<g id="edge55" class="edge"><title>Node37&#45;&gt;Node3</title>
<path fill="none" stroke="midnightblue" d="M896.358,-491.237C899.17,-513.94 899.503,-558.619 897.356,-586.524"/>
<polygon fill="midnightblue" stroke="midnightblue" points="893.855,-586.368 896.37,-596.66 900.822,-587.046 893.855,-586.368"/>
</g>
<!-- Node37&#45;&gt;Node9 -->
<g id="edge57" class="edge"><title>Node37&#45;&gt;Node9</title>
<path fill="none" stroke="midnightblue" d="M870.671,-460.781C856.429,-451.286 837.765,-438.843 823.49,-429.327"/>
<polygon fill="midnightblue" stroke="midnightblue" points="825.096,-426.191 814.834,-423.556 821.213,-432.015 825.096,-426.191"/>
</g>
<!-- Node37&#45;&gt;Node22 -->
<g id="edge56" class="edge"><title>Node37&#45;&gt;Node22</title>
<path fill="none" stroke="midnightblue" d="M895.702,-460.819C901.339,-435.978 909.318,-383.831 888,-348 879.233,-333.264 863.642,-322.856 848.771,-315.79"/>
<polygon fill="midnightblue" stroke="midnightblue" points="849.748,-312.398 839.182,-311.617 846.955,-318.816 849.748,-312.398"/>
</g>
</g>
</svg>
