<?xml version="1.0" encoding="UTF-8" standalone="no"?>
<!DOCTYPE svg PUBLIC "-//W3C//DTD SVG 1.1//EN"
 "http://www.w3.org/Graphics/SVG/1.1/DTD/svg11.dtd">
<!-- Generated by graphviz version 2.36.0 (20140111.2315)
 -->
<!-- Title: /home/travis/build/STORM&#45;IRIT/Radium&#45;Engine/src/Core/Mesh/DCEL/FullEdge.cpp Pages: 1 -->
<svg width="1606pt" height="678pt"
 viewBox="0.00 0.00 1606.00 678.00" xmlns="http://www.w3.org/2000/svg" xmlns:xlink="http://www.w3.org/1999/xlink">
<g id="graph0" class="graph" transform="scale(1 1) rotate(0) translate(4 674)">
<title>/home/travis/build/STORM&#45;IRIT/Radium&#45;Engine/src/Core/Mesh/DCEL/FullEdge.cpp</title>
<polygon fill="white" stroke="none" points="-4,4 -4,-674 1602,-674 1602,4 -4,4"/>
<!-- Node1 -->
<g id="node1" class="node"><title>Node1</title>
<polygon fill="#bfbfbf" stroke="black" points="930,-628.5 930,-669.5 1104,-669.5 1104,-628.5 930,-628.5"/>
<text text-anchor="start" x="938" y="-657.5" font-family="Helvetica,sans-Serif" font-size="10.00">/home/travis/build</text>
<text text-anchor="start" x="938" y="-646.5" font-family="Helvetica,sans-Serif" font-size="10.00">/STORM&#45;IRIT/Radium&#45;Engine</text>
<text text-anchor="middle" x="1017" y="-635.5" font-family="Helvetica,sans-Serif" font-size="10.00">/src/Core/Mesh/DCEL/FullEdge.cpp</text>
</g>
<!-- Node2 -->
<g id="node2" class="node"><title>Node2</title>
<g id="a_node2"><a xlink:href="FullEdge_8hpp.html" target="_top" xlink:title="Core/Mesh/DCEL/FullEdge.hpp">
<polygon fill="white" stroke="black" points="1048.5,-572.5 1048.5,-591.5 1203.5,-591.5 1203.5,-572.5 1048.5,-572.5"/>
<text text-anchor="middle" x="1126" y="-579.5" font-family="Helvetica,sans-Serif" font-size="10.00">Core/Mesh/DCEL/FullEdge.hpp</text>
</a>
</g>
</g>
<!-- Node1&#45;&gt;Node2 -->
<g id="edge1" class="edge"><title>Node1&#45;&gt;Node2</title>
<path fill="none" stroke="midnightblue" d="M1049.7,-628.498C1066.74,-618.34 1087.17,-606.155 1102.6,-596.952"/>
<polygon fill="midnightblue" stroke="midnightblue" points="1104.69,-599.78 1111.49,-591.652 1101.11,-593.768 1104.69,-599.78"/>
</g>
<!-- Node20 -->
<g id="node20" class="node"><title>Node20</title>
<g id="a_node20"><a xlink:href="DCEL_2HalfEdge_8hpp.html" target="_top" xlink:title="Core/Mesh/DCEL/HalfEdge.hpp">
<polygon fill="white" stroke="black" points="1164.5,-348.5 1164.5,-367.5 1321.5,-367.5 1321.5,-348.5 1164.5,-348.5"/>
<text text-anchor="middle" x="1243" y="-355.5" font-family="Helvetica,sans-Serif" font-size="10.00">Core/Mesh/DCEL/HalfEdge.hpp</text>
</a>
</g>
</g>
<!-- Node1&#45;&gt;Node20 -->
<g id="edge55" class="edge"><title>Node1&#45;&gt;Node20</title>
<path fill="none" stroke="midnightblue" d="M1020.78,-628.283C1024.25,-612.535 1030.2,-590.173 1039,-572 1079,-489.417 1090.09,-464.585 1159,-404 1174.37,-390.485 1194.51,-379.523 1211.21,-371.803"/>
<polygon fill="midnightblue" stroke="midnightblue" points="1212.86,-374.896 1220.58,-367.637 1210.02,-368.499 1212.86,-374.896"/>
</g>
<!-- Node3 -->
<g id="node3" class="node"><title>Node3</title>
<g id="a_node3"><a xlink:href="Index_8hpp.html" target="_top" xlink:title="Core/Index/Index.hpp">
<polygon fill="white" stroke="black" points="1119,-112.5 1119,-131.5 1229,-131.5 1229,-112.5 1119,-112.5"/>
<text text-anchor="middle" x="1174" y="-119.5" font-family="Helvetica,sans-Serif" font-size="10.00">Core/Index/Index.hpp</text>
</a>
</g>
</g>
<!-- Node2&#45;&gt;Node3 -->
<g id="edge2" class="edge"><title>Node2&#45;&gt;Node3</title>
<path fill="none" stroke="midnightblue" d="M1117.87,-572.426C1074.99,-526.201 881.176,-303.751 988,-168 1003.01,-148.927 1061.47,-136.967 1108.9,-130.213"/>
<polygon fill="midnightblue" stroke="midnightblue" points="1109.4,-133.677 1118.83,-128.851 1108.45,-126.742 1109.4,-133.677"/>
</g>
<!-- Node6 -->
<g id="node6" class="node"><title>Node6</title>
<g id="a_node6"><a xlink:href="IndexedObject_8hpp.html" target="_top" xlink:title="Core/Index/IndexedObject.hpp">
<polygon fill="white" stroke="black" points="997.5,-174.5 997.5,-193.5 1146.5,-193.5 1146.5,-174.5 997.5,-174.5"/>
<text text-anchor="middle" x="1072" y="-181.5" font-family="Helvetica,sans-Serif" font-size="10.00">Core/Index/IndexedObject.hpp</text>
</a>
</g>
</g>
<!-- Node2&#45;&gt;Node6 -->
<g id="edge5" class="edge"><title>Node2&#45;&gt;Node6</title>
<path fill="none" stroke="midnightblue" d="M1048.22,-573.175C1020.67,-566.914 991.264,-555.768 970,-536 947.446,-515.032 946,-501.795 946,-471 946,-471 946,-471 946,-413 946,-323.4 1021.46,-235.93 1055.59,-200.955"/>
<polygon fill="midnightblue" stroke="midnightblue" points="1058.36,-203.135 1062.94,-193.582 1053.4,-198.193 1058.36,-203.135"/>
</g>
<!-- Node14 -->
<g id="node14" class="node"><title>Node14</title>
<g id="a_node14"><a xlink:href="Definition_8hpp.html" target="_top" xlink:title="Core/Mesh/DCEL/Definition.hpp">
<polygon fill="white" stroke="black" points="1441,-174.5 1441,-193.5 1599,-193.5 1599,-174.5 1441,-174.5"/>
<text text-anchor="middle" x="1520" y="-181.5" font-family="Helvetica,sans-Serif" font-size="10.00">Core/Mesh/DCEL/Definition.hpp</text>
</a>
</g>
</g>
<!-- Node2&#45;&gt;Node14 -->
<g id="edge14" class="edge"><title>Node2&#45;&gt;Node14</title>
<path fill="none" stroke="midnightblue" d="M1203.69,-577.707C1331.47,-570.149 1572,-545.966 1572,-471 1572,-471 1572,-471 1572,-301 1572,-262.957 1548.42,-223.553 1533.02,-201.869"/>
<polygon fill="midnightblue" stroke="midnightblue" points="1535.76,-199.69 1527.01,-193.716 1530.13,-203.843 1535.76,-199.69"/>
</g>
<!-- Node17 -->
<g id="node17" class="node"><title>Node17</title>
<g id="a_node17"><a xlink:href="FullEdge_8inl.html" target="_top" xlink:title="Core/Mesh/DCEL/FullEdge.inl">
<polygon fill="white" stroke="black" points="1163.5,-516.5 1163.5,-535.5 1312.5,-535.5 1312.5,-516.5 1163.5,-516.5"/>
<text text-anchor="middle" x="1238" y="-523.5" font-family="Helvetica,sans-Serif" font-size="10.00">Core/Mesh/DCEL/FullEdge.inl</text>
</a>
</g>
</g>
<!-- Node2&#45;&gt;Node17 -->
<g id="edge17" class="edge"><title>Node2&#45;&gt;Node17</title>
<path fill="none" stroke="midnightblue" d="M1138.88,-572.324C1155.19,-563.546 1183.3,-549.875 1205.52,-539.842"/>
<polygon fill="midnightblue" stroke="midnightblue" points="1207.22,-542.914 1214.94,-535.655 1204.38,-536.518 1207.22,-542.914"/>
</g>
<!-- Node4 -->
<g id="node4" class="node"><title>Node4</title>
<polygon fill="white" stroke="#bfbfbf" points="1109,-56.5 1109,-75.5 1149,-75.5 1149,-56.5 1109,-56.5"/>
<text text-anchor="middle" x="1129" y="-63.5" font-family="Helvetica,sans-Serif" font-size="10.00">limits</text>
</g>
<!-- Node3&#45;&gt;Node4 -->
<g id="edge3" class="edge"><title>Node3&#45;&gt;Node4</title>
<path fill="none" stroke="midnightblue" d="M1166.57,-112.083C1160.15,-104.377 1150.69,-93.0333 1142.88,-83.6531"/>
<polygon fill="midnightblue" stroke="midnightblue" points="1145.38,-81.1927 1136.29,-75.7511 1140.01,-85.674 1145.38,-81.1927"/>
</g>
<!-- Node5 -->
<g id="node5" class="node"><title>Node5</title>
<g id="a_node5"><a xlink:href="Index_8inl.html" target="_top" xlink:title="Core/Index/Index.inl">
<polygon fill="white" stroke="black" points="1167,-56.5 1167,-75.5 1271,-75.5 1271,-56.5 1167,-56.5"/>
<text text-anchor="middle" x="1219" y="-63.5" font-family="Helvetica,sans-Serif" font-size="10.00">Core/Index/Index.inl</text>
</a>
</g>
</g>
<!-- Node3&#45;&gt;Node5 -->
<g id="edge4" class="edge"><title>Node3&#45;&gt;Node5</title>
<path fill="none" stroke="midnightblue" d="M1181.43,-112.083C1187.85,-104.377 1197.31,-93.0333 1205.12,-83.6531"/>
<polygon fill="midnightblue" stroke="midnightblue" points="1207.99,-85.674 1211.71,-75.7511 1202.62,-81.1927 1207.99,-85.674"/>
</g>
<!-- Node6&#45;&gt;Node3 -->
<g id="edge6" class="edge"><title>Node6&#45;&gt;Node3</title>
<path fill="none" stroke="midnightblue" d="M1086.61,-174.403C1103.35,-164.557 1131,-148.291 1150.72,-136.695"/>
<polygon fill="midnightblue" stroke="midnightblue" points="1152.57,-139.668 1159.41,-131.581 1149.02,-133.634 1152.57,-139.668"/>
</g>
<!-- Node7 -->
<g id="node7" class="node"><title>Node7</title>
<g id="a_node7"><a xlink:href="RaCore_8hpp.html" target="_top" xlink:title="Core/RaCore.hpp">
<polygon fill="white" stroke="black" points="254.5,-112.5 254.5,-131.5 347.5,-131.5 347.5,-112.5 254.5,-112.5"/>
<text text-anchor="middle" x="301" y="-119.5" font-family="Helvetica,sans-Serif" font-size="10.00">Core/RaCore.hpp</text>
</a>
</g>
</g>
<!-- Node6&#45;&gt;Node7 -->
<g id="edge7" class="edge"><title>Node6&#45;&gt;Node7</title>
<path fill="none" stroke="midnightblue" d="M1008.12,-174.497C989.411,-172.183 968.906,-169.816 950,-168 731.409,-146.999 470.492,-131.941 357.632,-125.912"/>
<polygon fill="midnightblue" stroke="midnightblue" points="357.672,-122.41 347.5,-125.374 357.301,-129.4 357.672,-122.41"/>
</g>
<!-- Node8 -->
<g id="node8" class="node"><title>Node8</title>
<g id="a_node8"><a xlink:href="CoreMacros_8hpp.html" target="_top" xlink:title="Core/CoreMacros.hpp">
<polygon fill="white" stroke="black" points="244.5,-56.5 244.5,-75.5 357.5,-75.5 357.5,-56.5 244.5,-56.5"/>
<text text-anchor="middle" x="301" y="-63.5" font-family="Helvetica,sans-Serif" font-size="10.00">Core/CoreMacros.hpp</text>
</a>
</g>
</g>
<!-- Node7&#45;&gt;Node8 -->
<g id="edge8" class="edge"><title>Node7&#45;&gt;Node8</title>
<path fill="none" stroke="midnightblue" d="M301,-112.083C301,-105.006 301,-94.8611 301,-85.9865"/>
<polygon fill="midnightblue" stroke="midnightblue" points="304.5,-85.751 301,-75.7511 297.5,-85.7511 304.5,-85.751"/>
</g>
<!-- Node9 -->
<g id="node9" class="node"><title>Node9</title>
<polygon fill="white" stroke="#bfbfbf" points="145.5,-0.5 145.5,-19.5 194.5,-19.5 194.5,-0.5 145.5,-0.5"/>
<text text-anchor="middle" x="170" y="-7.5" font-family="Helvetica,sans-Serif" font-size="10.00">cassert</text>
</g>
<!-- Node8&#45;&gt;Node9 -->
<g id="edge9" class="edge"><title>Node8&#45;&gt;Node9</title>
<path fill="none" stroke="midnightblue" d="M280.243,-56.4435C258.684,-47.5566 224.737,-33.5632 200.206,-23.4514"/>
<polygon fill="midnightblue" stroke="midnightblue" points="201.239,-20.0917 190.66,-19.5164 198.572,-26.5634 201.239,-20.0917"/>
</g>
<!-- Node10 -->
<g id="node10" class="node"><title>Node10</title>
<polygon fill="white" stroke="#bfbfbf" points="212.5,-0.5 212.5,-19.5 255.5,-19.5 255.5,-0.5 212.5,-0.5"/>
<text text-anchor="middle" x="234" y="-7.5" font-family="Helvetica,sans-Serif" font-size="10.00">cstdio</text>
</g>
<!-- Node8&#45;&gt;Node10 -->
<g id="edge10" class="edge"><title>Node8&#45;&gt;Node10</title>
<path fill="none" stroke="midnightblue" d="M290.235,-56.324C280.234,-48.2631 265.113,-36.0765 253.07,-26.3695"/>
<polygon fill="midnightblue" stroke="midnightblue" points="254.943,-23.3841 244.961,-19.8339 250.55,-28.8343 254.943,-23.3841"/>
</g>
<!-- Node11 -->
<g id="node11" class="node"><title>Node11</title>
<polygon fill="white" stroke="#bfbfbf" points="274,-0.5 274,-19.5 328,-19.5 328,-0.5 274,-0.5"/>
<text text-anchor="middle" x="301" y="-7.5" font-family="Helvetica,sans-Serif" font-size="10.00">iostream</text>
</g>
<!-- Node8&#45;&gt;Node11 -->
<g id="edge11" class="edge"><title>Node8&#45;&gt;Node11</title>
<path fill="none" stroke="midnightblue" d="M301,-56.083C301,-49.0059 301,-38.8611 301,-29.9865"/>
<polygon fill="midnightblue" stroke="midnightblue" points="304.5,-29.751 301,-19.7511 297.5,-29.7511 304.5,-29.751"/>
</g>
<!-- Node12 -->
<g id="node12" class="node"><title>Node12</title>
<polygon fill="white" stroke="#bfbfbf" points="346,-0.5 346,-19.5 398,-19.5 398,-0.5 346,-0.5"/>
<text text-anchor="middle" x="372" y="-7.5" font-family="Helvetica,sans-Serif" font-size="10.00">sstream</text>
</g>
<!-- Node8&#45;&gt;Node12 -->
<g id="edge12" class="edge"><title>Node8&#45;&gt;Node12</title>
<path fill="none" stroke="midnightblue" d="M312.407,-56.324C323.109,-48.1849 339.341,-35.8395 352.163,-26.0874"/>
<polygon fill="midnightblue" stroke="midnightblue" points="354.544,-28.6734 360.385,-19.8339 350.307,-23.1018 354.544,-28.6734"/>
</g>
<!-- Node13 -->
<g id="node13" class="node"><title>Node13</title>
<polygon fill="white" stroke="#bfbfbf" points="416,-0.5 416,-19.5 460,-19.5 460,-0.5 416,-0.5"/>
<text text-anchor="middle" x="438" y="-7.5" font-family="Helvetica,sans-Serif" font-size="10.00">thread</text>
</g>
<!-- Node8&#45;&gt;Node13 -->
<g id="edge13" class="edge"><title>Node8&#45;&gt;Node13</title>
<path fill="none" stroke="midnightblue" d="M322.708,-56.4435C345.355,-47.5171 381.072,-33.4387 406.752,-23.3168"/>
<polygon fill="midnightblue" stroke="midnightblue" points="408.374,-26.4397 416.394,-19.5164 405.807,-19.9273 408.374,-26.4397"/>
</g>
<!-- Node15 -->
<g id="node15" class="node"><title>Node15</title>
<polygon fill="white" stroke="#bfbfbf" points="1527,-112.5 1527,-131.5 1579,-131.5 1579,-112.5 1527,-112.5"/>
<text text-anchor="middle" x="1553" y="-119.5" font-family="Helvetica,sans-Serif" font-size="10.00">memory</text>
</g>
<!-- Node14&#45;&gt;Node15 -->
<g id="edge15" class="edge"><title>Node14&#45;&gt;Node15</title>
<path fill="none" stroke="midnightblue" d="M1524.73,-174.403C1529.58,-165.582 1537.27,-151.608 1543.4,-140.455"/>
<polygon fill="midnightblue" stroke="midnightblue" points="1546.53,-142.029 1548.28,-131.581 1540.39,-138.656 1546.53,-142.029"/>
</g>
<!-- Node16 -->
<g id="node16" class="node"><title>Node16</title>
<polygon fill="white" stroke="#bfbfbf" points="1465,-112.5 1465,-131.5 1509,-131.5 1509,-112.5 1465,-112.5"/>
<text text-anchor="middle" x="1487" y="-119.5" font-family="Helvetica,sans-Serif" font-size="10.00">vector</text>
</g>
<!-- Node14&#45;&gt;Node16 -->
<g id="edge16" class="edge"><title>Node14&#45;&gt;Node16</title>
<path fill="none" stroke="midnightblue" d="M1515.27,-174.403C1510.42,-165.582 1502.73,-151.608 1496.6,-140.455"/>
<polygon fill="midnightblue" stroke="midnightblue" points="1499.61,-138.656 1491.72,-131.581 1493.47,-142.029 1499.61,-138.656"/>
</g>
<!-- Node17&#45;&gt;Node2 -->
<g id="edge18" class="edge"><title>Node17&#45;&gt;Node2</title>
<path fill="none" stroke="midnightblue" d="M1225.42,-535.516C1209.04,-544.349 1180.45,-558.255 1158.02,-568.368"/>
<polygon fill="midnightblue" stroke="midnightblue" points="1156.56,-565.187 1148.84,-572.444 1159.4,-571.585 1156.56,-565.187"/>
</g>
<!-- Node18 -->
<g id="node18" class="node"><title>Node18</title>
<g id="a_node18"><a xlink:href="Face_8hpp.html" target="_top" xlink:title="Core/Mesh/DCEL/Face.hpp">
<polygon fill="white" stroke="black" points="1285,-236.5 1285,-255.5 1423,-255.5 1423,-236.5 1285,-236.5"/>
<text text-anchor="middle" x="1354" y="-243.5" font-family="Helvetica,sans-Serif" font-size="10.00">Core/Mesh/DCEL/Face.hpp</text>
</a>
</g>
</g>
<!-- Node17&#45;&gt;Node18 -->
<g id="edge19" class="edge"><title>Node17&#45;&gt;Node18</title>
<path fill="none" stroke="midnightblue" d="M1312.79,-518.204C1376.57,-507.807 1458,-481.509 1458,-415 1458,-415 1458,-415 1458,-357 1458,-326.775 1457.21,-315.335 1438,-292 1425.87,-277.265 1407.62,-266.672 1391.22,-259.481"/>
<polygon fill="midnightblue" stroke="midnightblue" points="1392.42,-256.19 1381.84,-255.634 1389.76,-262.667 1392.42,-256.19"/>
</g>
<!-- Node17&#45;&gt;Node20 -->
<g id="edge53" class="edge"><title>Node17&#45;&gt;Node20</title>
<path fill="none" stroke="midnightblue" d="M1269.02,-516.436C1287.03,-509.694 1308.23,-498.302 1319,-480 1326.24,-467.7 1331.82,-430.632 1316,-404 1307.39,-389.509 1292.12,-379.035 1277.77,-371.858"/>
<polygon fill="midnightblue" stroke="midnightblue" points="1279.09,-368.615 1268.54,-367.609 1276.16,-374.972 1279.09,-368.615"/>
</g>
<!-- Node22 -->
<g id="node22" class="node"><title>Node22</title>
<g id="a_node22"><a xlink:href="Vertex_8hpp.html" target="_top" xlink:title="Core/Mesh/DCEL/Vertex.hpp">
<polygon fill="white" stroke="black" points="1165.5,-460.5 1165.5,-479.5 1310.5,-479.5 1310.5,-460.5 1165.5,-460.5"/>
<text text-anchor="middle" x="1238" y="-467.5" font-family="Helvetica,sans-Serif" font-size="10.00">Core/Mesh/DCEL/Vertex.hpp</text>
</a>
</g>
</g>
<!-- Node17&#45;&gt;Node22 -->
<g id="edge54" class="edge"><title>Node17&#45;&gt;Node22</title>
<path fill="none" stroke="midnightblue" d="M1238,-516.083C1238,-509.006 1238,-498.861 1238,-489.986"/>
<polygon fill="midnightblue" stroke="midnightblue" points="1241.5,-489.751 1238,-479.751 1234.5,-489.751 1241.5,-489.751"/>
</g>
<!-- Node18&#45;&gt;Node3 -->
<g id="edge20" class="edge"><title>Node18&#45;&gt;Node3</title>
<path fill="none" stroke="midnightblue" d="M1361.83,-236.464C1374.84,-221.22 1397.89,-188.956 1381,-168 1363.38,-146.143 1293.17,-134.352 1239.35,-128.393"/>
<polygon fill="midnightblue" stroke="midnightblue" points="1239.48,-124.888 1229.16,-127.313 1238.74,-131.849 1239.48,-124.888"/>
</g>
<!-- Node18&#45;&gt;Node6 -->
<g id="edge21" class="edge"><title>Node18&#45;&gt;Node6</title>
<path fill="none" stroke="midnightblue" d="M1313.9,-236.467C1263.36,-225.716 1176.52,-207.239 1121.8,-195.595"/>
<polygon fill="midnightblue" stroke="midnightblue" points="1122.48,-192.161 1111.97,-193.503 1121.02,-199.008 1122.48,-192.161"/>
</g>
<!-- Node18&#45;&gt;Node14 -->
<g id="edge22" class="edge"><title>Node18&#45;&gt;Node14</title>
<path fill="none" stroke="midnightblue" d="M1377.78,-236.403C1406.38,-226.067 1454.55,-208.656 1486.8,-196.999"/>
<polygon fill="midnightblue" stroke="midnightblue" points="1488.05,-200.271 1496.26,-193.581 1485.67,-193.688 1488.05,-200.271"/>
</g>
<!-- Node19 -->
<g id="node19" class="node"><title>Node19</title>
<g id="a_node19"><a xlink:href="Face_8inl.html" target="_top" xlink:title="Core/Mesh/DCEL/Face.inl">
<polygon fill="white" stroke="black" points="1240,-174.5 1240,-193.5 1372,-193.5 1372,-174.5 1240,-174.5"/>
<text text-anchor="middle" x="1306" y="-181.5" font-family="Helvetica,sans-Serif" font-size="10.00">Core/Mesh/DCEL/Face.inl</text>
</a>
</g>
</g>
<!-- Node18&#45;&gt;Node19 -->
<g id="edge23" class="edge"><title>Node18&#45;&gt;Node19</title>
<path fill="none" stroke="midnightblue" d="M1342.22,-236.403C1333.17,-227.493 1321.41,-213.325 1313.53,-202.118"/>
<polygon fill="midnightblue" stroke="midnightblue" points="1316.36,-200.048 1307.97,-193.581 1310.49,-203.87 1316.36,-200.048"/>
</g>
<!-- Node19&#45;&gt;Node18 -->
<g id="edge24" class="edge"><title>Node19&#45;&gt;Node18</title>
<path fill="none" stroke="midnightblue" d="M1317.76,-193.581C1326.81,-202.485 1338.57,-216.652 1346.46,-227.862"/>
<polygon fill="midnightblue" stroke="midnightblue" points="1343.63,-229.938 1352.02,-236.403 1349.49,-226.115 1343.63,-229.938"/>
</g>
<!-- Node19&#45;&gt;Node20 -->
<g id="edge25" class="edge"><title>Node19&#45;&gt;Node20</title>
<path fill="none" stroke="midnightblue" d="M1299.94,-193.652C1293.27,-203.508 1282.62,-220.287 1276,-236 1261.32,-270.815 1251.38,-314.025 1246.5,-338.254"/>
<polygon fill="midnightblue" stroke="midnightblue" points="1243.03,-337.745 1244.56,-348.229 1249.9,-339.08 1243.03,-337.745"/>
</g>
<!-- Node20&#45;&gt;Node3 -->
<g id="edge26" class="edge"><title>Node20&#45;&gt;Node3</title>
<path fill="none" stroke="midnightblue" d="M1240.53,-348.318C1232.9,-321.461 1208.88,-237.373 1188,-168 1185.34,-159.175 1182.31,-149.404 1179.75,-141.228"/>
<polygon fill="midnightblue" stroke="midnightblue" points="1183.07,-140.102 1176.73,-131.612 1176.39,-142.202 1183.07,-140.102"/>
</g>
<!-- Node20&#45;&gt;Node6 -->
<g id="edge27" class="edge"><title>Node20&#45;&gt;Node6</title>
<path fill="none" stroke="midnightblue" d="M1234.36,-348.383C1225.3,-339.333 1210.63,-324.681 1198,-312 1158.22,-272.064 1111.52,-224.924 1087.7,-200.866"/>
<polygon fill="midnightblue" stroke="midnightblue" points="1090.07,-198.28 1080.54,-193.635 1085.09,-203.204 1090.07,-198.28"/>
</g>
<!-- Node20&#45;&gt;Node14 -->
<g id="edge28" class="edge"><title>Node20&#45;&gt;Node14</title>
<path fill="none" stroke="midnightblue" d="M1321.69,-352.543C1359.65,-347.152 1404.16,-335.758 1438,-312 1477.43,-284.319 1502.47,-231.044 1513.49,-203.107"/>
<polygon fill="midnightblue" stroke="midnightblue" points="1516.76,-204.338 1517.02,-193.746 1510.22,-201.864 1516.76,-204.338"/>
</g>
<!-- Node21 -->
<g id="node21" class="node"><title>Node21</title>
<g id="a_node21"><a xlink:href="DCEL_2HalfEdge_8inl.html" target="_top" xlink:title="Core/Mesh/DCEL/HalfEdge.inl">
<polygon fill="white" stroke="black" points="1278.5,-292.5 1278.5,-311.5 1429.5,-311.5 1429.5,-292.5 1278.5,-292.5"/>
<text text-anchor="middle" x="1354" y="-299.5" font-family="Helvetica,sans-Serif" font-size="10.00">Core/Mesh/DCEL/HalfEdge.inl</text>
</a>
</g>
</g>
<!-- Node20&#45;&gt;Node21 -->
<g id="edge29" class="edge"><title>Node20&#45;&gt;Node21</title>
<path fill="none" stroke="midnightblue" d="M1255.72,-348.324C1271.86,-339.546 1299.72,-325.875 1321.76,-315.842"/>
<polygon fill="midnightblue" stroke="midnightblue" points="1323.41,-318.938 1331.1,-311.655 1320.54,-312.55 1323.41,-318.938"/>
</g>
<!-- Node21&#45;&gt;Node18 -->
<g id="edge31" class="edge"><title>Node21&#45;&gt;Node18</title>
<path fill="none" stroke="midnightblue" d="M1354,-292.083C1354,-285.006 1354,-274.861 1354,-265.986"/>
<polygon fill="midnightblue" stroke="midnightblue" points="1357.5,-265.751 1354,-255.751 1350.5,-265.751 1357.5,-265.751"/>
</g>
<!-- Node21&#45;&gt;Node20 -->
<g id="edge30" class="edge"><title>Node21&#45;&gt;Node20</title>
<path fill="none" stroke="midnightblue" d="M1341.57,-311.516C1325.44,-320.309 1297.28,-334.131 1275.08,-344.232"/>
<polygon fill="midnightblue" stroke="midnightblue" points="1273.37,-341.162 1265.68,-348.444 1276.23,-347.551 1273.37,-341.162"/>
</g>
<!-- Node21&#45;&gt;Node22 -->
<g id="edge32" class="edge"><title>Node21&#45;&gt;Node22</title>
<path fill="none" stroke="midnightblue" d="M1353.41,-311.612C1351.55,-332.928 1344.1,-388.958 1316,-424 1304.5,-438.342 1287.11,-449.003 1271.66,-456.339"/>
<polygon fill="midnightblue" stroke="midnightblue" points="1270.08,-453.213 1262.36,-460.48 1272.92,-459.608 1270.08,-453.213"/>
</g>
<!-- Node22&#45;&gt;Node3 -->
<g id="edge33" class="edge"><title>Node22&#45;&gt;Node3</title>
<path fill="none" stroke="midnightblue" d="M1209.35,-460.427C1191.71,-453.558 1170.36,-442.029 1159,-424 1129.33,-376.894 1159.35,-200.098 1170.33,-141.787"/>
<polygon fill="midnightblue" stroke="midnightblue" points="1173.8,-142.258 1172.25,-131.778 1166.93,-140.941 1173.8,-142.258"/>
</g>
<!-- Node22&#45;&gt;Node6 -->
<g id="edge34" class="edge"><title>Node22&#45;&gt;Node6</title>
<path fill="none" stroke="midnightblue" d="M1191.4,-460.44C1167.92,-453.978 1140.56,-442.863 1122,-424 1100.4,-402.047 1098,-389.795 1098,-359 1098,-359 1098,-359 1098,-301 1098,-265.705 1086.4,-225.8 1078.69,-203.194"/>
<polygon fill="midnightblue" stroke="midnightblue" points="1081.93,-201.843 1075.29,-193.583 1075.33,-204.178 1081.93,-201.843"/>
</g>
<!-- Node22&#45;&gt;Node14 -->
<g id="edge49" class="edge"><title>Node22&#45;&gt;Node14</title>
<path fill="none" stroke="midnightblue" d="M1262.24,-460.343C1282.95,-452.406 1313.1,-439.543 1337,-424 1399.81,-383.15 1411.35,-366.281 1463,-312 1485.01,-288.869 1494.92,-285.126 1508,-256 1515.44,-239.443 1518.3,-218.83 1519.38,-204.086"/>
<polygon fill="midnightblue" stroke="midnightblue" points="1522.9,-203.879 1519.92,-193.71 1515.91,-203.514 1522.9,-203.879"/>
</g>
<!-- Node23 -->
<g id="node23" class="node"><title>Node23</title>
<g id="a_node23"><a xlink:href="LinearAlgebra_8hpp.html" target="_top" xlink:title="Core/Math/LinearAlgebra.hpp">
<polygon fill="white" stroke="black" points="505.5,-236.5 505.5,-255.5 648.5,-255.5 648.5,-236.5 505.5,-236.5"/>
<text text-anchor="middle" x="577" y="-243.5" font-family="Helvetica,sans-Serif" font-size="10.00">Core/Math/LinearAlgebra.hpp</text>
</a>
</g>
</g>
<!-- Node22&#45;&gt;Node23 -->
<g id="edge35" class="edge"><title>Node22&#45;&gt;Node23</title>
<path fill="none" stroke="midnightblue" d="M1207.18,-460.499C1175.99,-451.778 1126.44,-437.599 1084,-424 903.498,-366.163 689.931,-288.558 609.658,-259.06"/>
<polygon fill="midnightblue" stroke="midnightblue" points="610.696,-255.712 600.103,-255.544 608.279,-262.282 610.696,-255.712"/>
</g>
<!-- Node34 -->
<g id="node34" class="node"><title>Node34</title>
<g id="a_node34"><a xlink:href="Vertex_8inl.html" target="_top" xlink:title="Core/Mesh/DCEL/Vertex.inl">
<polygon fill="white" stroke="black" points="1168.5,-404.5 1168.5,-423.5 1307.5,-423.5 1307.5,-404.5 1168.5,-404.5"/>
<text text-anchor="middle" x="1238" y="-411.5" font-family="Helvetica,sans-Serif" font-size="10.00">Core/Mesh/DCEL/Vertex.inl</text>
</a>
</g>
</g>
<!-- Node22&#45;&gt;Node34 -->
<g id="edge50" class="edge"><title>Node22&#45;&gt;Node34</title>
<path fill="none" stroke="midnightblue" d="M1232.83,-460.083C1231.32,-452.927 1230.89,-442.635 1231.54,-433.691"/>
<polygon fill="midnightblue" stroke="midnightblue" points="1235.02,-434.126 1232.87,-423.751 1228.08,-433.2 1235.02,-434.126"/>
</g>
<!-- Node23&#45;&gt;Node7 -->
<g id="edge36" class="edge"><title>Node23&#45;&gt;Node7</title>
<path fill="none" stroke="midnightblue" d="M505.322,-244.193C428.463,-241.628 313.699,-232.311 286,-200 271.847,-183.491 281.183,-157.623 290.214,-140.492"/>
<polygon fill="midnightblue" stroke="midnightblue" points="293.399,-141.972 295.316,-131.552 287.319,-138.502 293.399,-141.972"/>
</g>
<!-- Node24 -->
<g id="node24" class="node"><title>Node24</title>
<polygon fill="white" stroke="#bfbfbf" points="450.5,-174.5 450.5,-193.5 515.5,-193.5 515.5,-174.5 450.5,-174.5"/>
<text text-anchor="middle" x="483" y="-181.5" font-family="Helvetica,sans-Serif" font-size="10.00">Eigen/Core</text>
</g>
<!-- Node23&#45;&gt;Node24 -->
<g id="edge37" class="edge"><title>Node23&#45;&gt;Node24</title>
<path fill="none" stroke="midnightblue" d="M563.532,-236.403C548.315,-226.691 523.313,-210.732 505.199,-199.17"/>
<polygon fill="midnightblue" stroke="midnightblue" points="506.755,-196.011 496.443,-193.581 502.989,-201.911 506.755,-196.011"/>
</g>
<!-- Node25 -->
<g id="node25" class="node"><title>Node25</title>
<polygon fill="white" stroke="#bfbfbf" points="533.5,-174.5 533.5,-193.5 620.5,-193.5 620.5,-174.5 533.5,-174.5"/>
<text text-anchor="middle" x="577" y="-181.5" font-family="Helvetica,sans-Serif" font-size="10.00">Eigen/Geometry</text>
</g>
<!-- Node23&#45;&gt;Node25 -->
<g id="edge38" class="edge"><title>Node23&#45;&gt;Node25</title>
<path fill="none" stroke="midnightblue" d="M577,-236.403C577,-227.938 577,-214.728 577,-203.82"/>
<polygon fill="midnightblue" stroke="midnightblue" points="580.5,-203.581 577,-193.581 573.5,-203.581 580.5,-203.581"/>
</g>
<!-- Node26 -->
<g id="node26" class="node"><title>Node26</title>
<polygon fill="white" stroke="#bfbfbf" points="638.5,-174.5 638.5,-193.5 713.5,-193.5 713.5,-174.5 638.5,-174.5"/>
<text text-anchor="middle" x="676" y="-181.5" font-family="Helvetica,sans-Serif" font-size="10.00">Eigen/Sparse</text>
</g>
<!-- Node23&#45;&gt;Node26 -->
<g id="edge39" class="edge"><title>Node23&#45;&gt;Node26</title>
<path fill="none" stroke="midnightblue" d="M591.184,-236.403C607.358,-226.601 634.026,-210.439 653.143,-198.853"/>
<polygon fill="midnightblue" stroke="midnightblue" points="655.104,-201.757 661.842,-193.581 651.476,-195.77 655.104,-201.757"/>
</g>
<!-- Node27 -->
<g id="node27" class="node"><title>Node27</title>
<polygon fill="white" stroke="#bfbfbf" points="731.5,-174.5 731.5,-193.5 790.5,-193.5 790.5,-174.5 731.5,-174.5"/>
<text text-anchor="middle" x="761" y="-181.5" font-family="Helvetica,sans-Serif" font-size="10.00">functional</text>
</g>
<!-- Node23&#45;&gt;Node27 -->
<g id="edge40" class="edge"><title>Node23&#45;&gt;Node27</title>
<path fill="none" stroke="midnightblue" d="M606.624,-236.432C636.061,-227.772 682.407,-213.741 722,-200 724.609,-199.095 727.304,-198.127 730.002,-197.135"/>
<polygon fill="midnightblue" stroke="midnightblue" points="731.511,-200.307 739.638,-193.509 729.046,-193.756 731.511,-200.307"/>
</g>
<!-- Node28 -->
<g id="node28" class="node"><title>Node28</title>
<polygon fill="white" stroke="#bfbfbf" points="808.5,-169 808.5,-199 941.5,-199 941.5,-169 808.5,-169"/>
<text text-anchor="start" x="816.5" y="-187" font-family="Helvetica,sans-Serif" font-size="10.00">unsupported/Eigen/Aligned</text>
<text text-anchor="middle" x="875" y="-176" font-family="Helvetica,sans-Serif" font-size="10.00">Vector3</text>
</g>
<!-- Node23&#45;&gt;Node28 -->
<g id="edge41" class="edge"><title>Node23&#45;&gt;Node28</title>
<path fill="none" stroke="midnightblue" d="M619.38,-236.467C665.841,-227.113 741.348,-211.91 798.277,-200.448"/>
<polygon fill="midnightblue" stroke="midnightblue" points="799.208,-203.83 808.32,-198.425 797.826,-196.968 799.208,-203.83"/>
</g>
<!-- Node29 -->
<g id="node29" class="node"><title>Node29</title>
<g id="a_node29"><a xlink:href="Math_8hpp.html" target="_top" xlink:title="Core/Math/Math.hpp">
<polygon fill="white" stroke="black" points="133,-174.5 133,-193.5 239,-193.5 239,-174.5 133,-174.5"/>
<text text-anchor="middle" x="186" y="-181.5" font-family="Helvetica,sans-Serif" font-size="10.00">Core/Math/Math.hpp</text>
</a>
</g>
</g>
<!-- Node23&#45;&gt;Node29 -->
<g id="edge42" class="edge"><title>Node23&#45;&gt;Node29</title>
<path fill="none" stroke="midnightblue" d="M505.306,-236.76C439.473,-228.787 339.337,-215.633 253,-200 246.144,-198.759 238.926,-197.302 231.868,-195.793"/>
<polygon fill="midnightblue" stroke="midnightblue" points="232.221,-192.288 221.704,-193.565 230.722,-199.125 232.221,-192.288"/>
</g>
<!-- Node33 -->
<g id="node33" class="node"><title>Node33</title>
<g id="a_node33"><a xlink:href="LinearAlgebra_8inl.html" target="_top" xlink:title="Core/Math/LinearAlgebra.inl">
<polygon fill="white" stroke="black" points="295.5,-174.5 295.5,-193.5 432.5,-193.5 432.5,-174.5 295.5,-174.5"/>
<text text-anchor="middle" x="364" y="-181.5" font-family="Helvetica,sans-Serif" font-size="10.00">Core/Math/LinearAlgebra.inl</text>
</a>
</g>
</g>
<!-- Node23&#45;&gt;Node33 -->
<g id="edge48" class="edge"><title>Node23&#45;&gt;Node33</title>
<path fill="none" stroke="midnightblue" d="M546.482,-236.403C509.075,-225.866 445.573,-207.978 404.213,-196.328"/>
<polygon fill="midnightblue" stroke="midnightblue" points="405.036,-192.923 394.461,-193.581 403.137,-199.661 405.036,-192.923"/>
</g>
<!-- Node29&#45;&gt;Node7 -->
<g id="edge43" class="edge"><title>Node29&#45;&gt;Node7</title>
<path fill="none" stroke="midnightblue" d="M202.477,-174.403C221.605,-164.423 253.373,-147.849 275.652,-136.225"/>
<polygon fill="midnightblue" stroke="midnightblue" points="277.307,-139.309 284.554,-131.581 274.069,-133.103 277.307,-139.309"/>
</g>
<!-- Node30 -->
<g id="node30" class="node"><title>Node30</title>
<polygon fill="white" stroke="#bfbfbf" points="0,-112.5 0,-131.5 56,-131.5 56,-112.5 0,-112.5"/>
<text text-anchor="middle" x="28" y="-119.5" font-family="Helvetica,sans-Serif" font-size="10.00">algorithm</text>
</g>
<!-- Node29&#45;&gt;Node30 -->
<g id="edge44" class="edge"><title>Node29&#45;&gt;Node30</title>
<path fill="none" stroke="midnightblue" d="M163.362,-174.403C136.26,-164.111 90.6901,-146.806 59.9961,-135.15"/>
<polygon fill="midnightblue" stroke="midnightblue" points="61.1867,-131.859 50.5956,-131.581 58.7016,-138.403 61.1867,-131.859"/>
</g>
<!-- Node31 -->
<g id="node31" class="node"><title>Node31</title>
<polygon fill="white" stroke="#bfbfbf" points="74,-112.5 74,-131.5 118,-131.5 118,-112.5 74,-112.5"/>
<text text-anchor="middle" x="96" y="-119.5" font-family="Helvetica,sans-Serif" font-size="10.00">cmath</text>
</g>
<!-- Node29&#45;&gt;Node31 -->
<g id="edge45" class="edge"><title>Node29&#45;&gt;Node31</title>
<path fill="none" stroke="midnightblue" d="M173.105,-174.403C158.536,-164.691 134.598,-148.732 117.255,-137.17"/>
<polygon fill="midnightblue" stroke="midnightblue" points="119.133,-134.215 108.871,-131.581 115.25,-140.04 119.133,-134.215"/>
</g>
<!-- Node32 -->
<g id="node32" class="node"><title>Node32</title>
<g id="a_node32"><a xlink:href="Math_8inl.html" target="_top" xlink:title="Core/Math/Math.inl">
<polygon fill="white" stroke="black" points="136,-112.5 136,-131.5 236,-131.5 236,-112.5 136,-112.5"/>
<text text-anchor="middle" x="186" y="-119.5" font-family="Helvetica,sans-Serif" font-size="10.00">Core/Math/Math.inl</text>
</a>
</g>
</g>
<!-- Node29&#45;&gt;Node32 -->
<g id="edge46" class="edge"><title>Node29&#45;&gt;Node32</title>
<path fill="none" stroke="midnightblue" d="M181.099,-174.403C179.268,-165.938 178.797,-152.728 179.685,-141.82"/>
<polygon fill="midnightblue" stroke="midnightblue" points="183.198,-141.966 181.103,-131.581 176.264,-141.006 183.198,-141.966"/>
</g>
<!-- Node32&#45;&gt;Node29 -->
<g id="edge47" class="edge"><title>Node32&#45;&gt;Node29</title>
<path fill="none" stroke="midnightblue" d="M190.897,-131.581C192.73,-140.04 193.203,-153.248 192.317,-164.16"/>
<polygon fill="midnightblue" stroke="midnightblue" points="188.803,-164.018 190.901,-174.403 195.737,-164.977 188.803,-164.018"/>
</g>
<!-- Node34&#45;&gt;Node20 -->
<g id="edge52" class="edge"><title>Node34&#45;&gt;Node20</title>
<path fill="none" stroke="midnightblue" d="M1238.83,-404.083C1239.48,-397.006 1240.42,-386.861 1241.24,-377.986"/>
<polygon fill="midnightblue" stroke="midnightblue" points="1244.75,-378.031 1242.19,-367.751 1237.78,-377.386 1244.75,-378.031"/>
</g>
<!-- Node34&#45;&gt;Node22 -->
<g id="edge51" class="edge"><title>Node34&#45;&gt;Node22</title>
<path fill="none" stroke="midnightblue" d="M1243.13,-423.751C1244.66,-430.858 1245.1,-441.136 1244.47,-450.101"/>
<polygon fill="midnightblue" stroke="midnightblue" points="1240.99,-449.713 1243.17,-460.083 1247.93,-450.622 1240.99,-449.713"/>
</g>
</g>
</svg>
