<?xml version="1.0" encoding="UTF-8" standalone="no"?>
<!DOCTYPE svg PUBLIC "-//W3C//DTD SVG 1.1//EN"
 "http://www.w3.org/Graphics/SVG/1.1/DTD/svg11.dtd">
<!-- Generated by graphviz version 2.36.0 (20140111.2315)
 -->
<!-- Title: /home/travis/build/STORM&#45;IRIT/Radium&#45;Engine/src/Core/Mesh/DCEL/FullEdge.inl Pages: 1 -->
<svg width="1407pt" height="308pt"
 viewBox="0.00 0.00 1407.00 308.00" xmlns="http://www.w3.org/2000/svg" xmlns:xlink="http://www.w3.org/1999/xlink">
<g id="graph0" class="graph" transform="scale(1 1) rotate(0) translate(4 304)">
<title>/home/travis/build/STORM&#45;IRIT/Radium&#45;Engine/src/Core/Mesh/DCEL/FullEdge.inl</title>
<polygon fill="white" stroke="none" points="-4,4 -4,-304 1403,-304 1403,4 -4,4"/>
<!-- Node1 -->
<g id="node1" class="node"><title>Node1</title>
<polygon fill="#bfbfbf" stroke="black" points="605,-258.5 605,-299.5 773,-299.5 773,-258.5 605,-258.5"/>
<text text-anchor="start" x="613" y="-287.5" font-family="Helvetica,sans-Serif" font-size="10.00">/home/travis/build</text>
<text text-anchor="start" x="613" y="-276.5" font-family="Helvetica,sans-Serif" font-size="10.00">/STORM&#45;IRIT/Radium&#45;Engine</text>
<text text-anchor="middle" x="689" y="-265.5" font-family="Helvetica,sans-Serif" font-size="10.00">/src/Core/Mesh/DCEL/FullEdge.inl</text>
</g>
<!-- Node2 -->
<g id="node2" class="node"><title>Node2</title>
<g id="a_node2"><a xlink:href="FullEdge_8hpp.html" target="_top" xlink:title="/home/travis/build\l/STORM&#45;IRIT/Radium&#45;Engine\l/src/Core/Mesh/DCEL/FullEdge.hpp">
<polygon fill="white" stroke="black" points="602,-180.5 602,-221.5 776,-221.5 776,-180.5 602,-180.5"/>
<text text-anchor="start" x="610" y="-209.5" font-family="Helvetica,sans-Serif" font-size="10.00">/home/travis/build</text>
<text text-anchor="start" x="610" y="-198.5" font-family="Helvetica,sans-Serif" font-size="10.00">/STORM&#45;IRIT/Radium&#45;Engine</text>
<text text-anchor="middle" x="689" y="-187.5" font-family="Helvetica,sans-Serif" font-size="10.00">/src/Core/Mesh/DCEL/FullEdge.hpp</text>
</a>
</g>
</g>
<!-- Node1&#45;&gt;Node2 -->
<g id="edge1" class="edge"><title>Node1&#45;&gt;Node2</title>
<path fill="none" stroke="midnightblue" d="M682.395,-248.297C682.076,-239.301 682.283,-229.653 683.018,-221.506"/>
<polygon fill="midnightblue" stroke="midnightblue" points="678.911,-248.659 683.012,-258.428 685.898,-248.234 678.911,-248.659"/>
</g>
<!-- Node2&#45;&gt;Node1 -->
<g id="edge6" class="edge"><title>Node2&#45;&gt;Node1</title>
<path fill="none" stroke="midnightblue" d="M695.602,-231.63C695.924,-240.622 695.72,-250.272 694.988,-258.428"/>
<polygon fill="midnightblue" stroke="midnightblue" points="699.087,-231.273 694.982,-221.506 692.1,-231.701 699.087,-231.273"/>
</g>
<!-- Node3 -->
<g id="node3" class="node"><title>Node3</title>
<g id="a_node3"><a xlink:href="FullEdgeOperation_8cpp.html" target="_top" xlink:title="/home/travis/build\l/STORM&#45;IRIT/Radium&#45;Engine\l/src/Core/Algorithm/Subdivision\l/FullEdgeOperation.cpp">
<polygon fill="white" stroke="black" points="-0.5,-91 -0.5,-143 154.5,-143 154.5,-91 -0.5,-91"/>
<text text-anchor="start" x="7.5" y="-131" font-family="Helvetica,sans-Serif" font-size="10.00">/home/travis/build</text>
<text text-anchor="start" x="7.5" y="-120" font-family="Helvetica,sans-Serif" font-size="10.00">/STORM&#45;IRIT/Radium&#45;Engine</text>
<text text-anchor="start" x="7.5" y="-109" font-family="Helvetica,sans-Serif" font-size="10.00">/src/Core/Algorithm/Subdivision</text>
<text text-anchor="middle" x="77" y="-98" font-family="Helvetica,sans-Serif" font-size="10.00">/FullEdgeOperation.cpp</text>
</a>
</g>
</g>
<!-- Node2&#45;&gt;Node3 -->
<g id="edge2" class="edge"><title>Node2&#45;&gt;Node3</title>
<path fill="none" stroke="midnightblue" d="M591.819,-195.002C485.821,-188.308 311.563,-173.656 164,-144 160.909,-143.379 157.77,-142.696 154.609,-141.965"/>
<polygon fill="midnightblue" stroke="midnightblue" points="591.662,-198.499 601.86,-195.625 592.096,-191.513 591.662,-198.499"/>
</g>
<!-- Node4 -->
<g id="node4" class="node"><title>Node4</title>
<g id="a_node4"><a xlink:href="RotationCenterSkinning_8cpp.html" target="_top" xlink:title="/home/travis/build\l/STORM&#45;IRIT/Radium&#45;Engine\l/src/Core/Animation/Skinning\l/RotationCenterSkinning.cpp">
<polygon fill="white" stroke="black" points="173,-91 173,-143 321,-143 321,-91 173,-91"/>
<text text-anchor="start" x="181" y="-131" font-family="Helvetica,sans-Serif" font-size="10.00">/home/travis/build</text>
<text text-anchor="start" x="181" y="-120" font-family="Helvetica,sans-Serif" font-size="10.00">/STORM&#45;IRIT/Radium&#45;Engine</text>
<text text-anchor="start" x="181" y="-109" font-family="Helvetica,sans-Serif" font-size="10.00">/src/Core/Animation/Skinning</text>
<text text-anchor="middle" x="247" y="-98" font-family="Helvetica,sans-Serif" font-size="10.00">/RotationCenterSkinning.cpp</text>
</a>
</g>
</g>
<!-- Node2&#45;&gt;Node4 -->
<g id="edge3" class="edge"><title>Node2&#45;&gt;Node4</title>
<path fill="none" stroke="midnightblue" d="M591.927,-188.834C519.263,-179.517 417.714,-164.46 330,-144 327.059,-143.314 324.071,-142.576 321.061,-141.8"/>
<polygon fill="midnightblue" stroke="midnightblue" points="591.623,-192.324 601.984,-190.111 592.504,-185.379 591.623,-192.324"/>
</g>
<!-- Node5 -->
<g id="node5" class="node"><title>Node5</title>
<g id="a_node5"><a xlink:href="Dcel_8cpp.html" target="_top" xlink:title="/home/travis/build\l/STORM&#45;IRIT/Radium&#45;Engine\l/src/Core/Mesh/DCEL/Dcel.cpp">
<polygon fill="white" stroke="black" points="339,-96.5 339,-137.5 495,-137.5 495,-96.5 339,-96.5"/>
<text text-anchor="start" x="347" y="-125.5" font-family="Helvetica,sans-Serif" font-size="10.00">/home/travis/build</text>
<text text-anchor="start" x="347" y="-114.5" font-family="Helvetica,sans-Serif" font-size="10.00">/STORM&#45;IRIT/Radium&#45;Engine</text>
<text text-anchor="middle" x="417" y="-103.5" font-family="Helvetica,sans-Serif" font-size="10.00">/src/Core/Mesh/DCEL/Dcel.cpp</text>
</a>
</g>
</g>
<!-- Node2&#45;&gt;Node5 -->
<g id="edge4" class="edge"><title>Node2&#45;&gt;Node5</title>
<path fill="none" stroke="midnightblue" d="M614.4,-177.51C572.855,-164.986 521.634,-149.544 481.78,-137.529"/>
<polygon fill="midnightblue" stroke="midnightblue" points="613.61,-180.928 624.195,-180.463 615.631,-174.226 613.61,-180.928"/>
</g>
<!-- Node6 -->
<g id="node6" class="node"><title>Node6</title>
<g id="a_node6"><a xlink:href="FullEdge_8cpp.html" target="_top" xlink:title="/home/travis/build\l/STORM&#45;IRIT/Radium&#45;Engine\l/src/Core/Mesh/DCEL/FullEdge.cpp">
<polygon fill="white" stroke="black" points="513,-96.5 513,-137.5 687,-137.5 687,-96.5 513,-96.5"/>
<text text-anchor="start" x="521" y="-125.5" font-family="Helvetica,sans-Serif" font-size="10.00">/home/travis/build</text>
<text text-anchor="start" x="521" y="-114.5" font-family="Helvetica,sans-Serif" font-size="10.00">/STORM&#45;IRIT/Radium&#45;Engine</text>
<text text-anchor="middle" x="600" y="-103.5" font-family="Helvetica,sans-Serif" font-size="10.00">/src/Core/Mesh/DCEL/FullEdge.cpp</text>
</a>
</g>
</g>
<!-- Node2&#45;&gt;Node6 -->
<g id="edge5" class="edge"><title>Node2&#45;&gt;Node6</title>
<path fill="none" stroke="midnightblue" d="M659.913,-173.201C647.343,-161.62 632.901,-148.313 621.346,-137.667"/>
<polygon fill="midnightblue" stroke="midnightblue" points="657.73,-175.948 667.456,-180.15 662.473,-170.8 657.73,-175.948"/>
</g>
<!-- Node7 -->
<g id="node7" class="node"><title>Node7</title>
<g id="a_node7"><a xlink:href="FFEIterator_8inl.html" target="_top" xlink:title="/home/travis/build\l/STORM&#45;IRIT/Radium&#45;Engine\l/src/Core/Mesh/DCEL/Iterator\l/Face/FFEIterator.inl">
<polygon fill="white" stroke="black" points="705,-91 705,-143 853,-143 853,-91 705,-91"/>
<text text-anchor="start" x="713" y="-131" font-family="Helvetica,sans-Serif" font-size="10.00">/home/travis/build</text>
<text text-anchor="start" x="713" y="-120" font-family="Helvetica,sans-Serif" font-size="10.00">/STORM&#45;IRIT/Radium&#45;Engine</text>
<text text-anchor="start" x="713" y="-109" font-family="Helvetica,sans-Serif" font-size="10.00">/src/Core/Mesh/DCEL/Iterator</text>
<text text-anchor="middle" x="779" y="-98" font-family="Helvetica,sans-Serif" font-size="10.00">/Face/FFEIterator.inl</text>
</a>
</g>
</g>
<!-- Node2&#45;&gt;Node7 -->
<g id="edge7" class="edge"><title>Node2&#45;&gt;Node7</title>
<path fill="none" stroke="midnightblue" d="M718.236,-173.362C728.847,-163.695 740.797,-152.807 751.274,-143.261"/>
<polygon fill="midnightblue" stroke="midnightblue" points="715.821,-170.828 710.786,-180.15 720.536,-176.002 715.821,-170.828"/>
</g>
<!-- Node9 -->
<g id="node9" class="node"><title>Node9</title>
<g id="a_node9"><a xlink:href="VFEIterator_8inl.html" target="_top" xlink:title="/home/travis/build\l/STORM&#45;IRIT/Radium&#45;Engine\l/src/Core/Mesh/DCEL/Iterator\l/Vertex/VFEIterator.inl">
<polygon fill="white" stroke="black" points="871,-91 871,-143 1019,-143 1019,-91 871,-91"/>
<text text-anchor="start" x="879" y="-131" font-family="Helvetica,sans-Serif" font-size="10.00">/home/travis/build</text>
<text text-anchor="start" x="879" y="-120" font-family="Helvetica,sans-Serif" font-size="10.00">/STORM&#45;IRIT/Radium&#45;Engine</text>
<text text-anchor="start" x="879" y="-109" font-family="Helvetica,sans-Serif" font-size="10.00">/src/Core/Mesh/DCEL/Iterator</text>
<text text-anchor="middle" x="945" y="-98" font-family="Helvetica,sans-Serif" font-size="10.00">/Vertex/VFEIterator.inl</text>
</a>
</g>
</g>
<!-- Node2&#45;&gt;Node9 -->
<g id="edge10" class="edge"><title>Node2&#45;&gt;Node9</title>
<path fill="none" stroke="midnightblue" d="M759.544,-177.404C794.11,-166.332 835.73,-153.001 870.776,-141.775"/>
<polygon fill="midnightblue" stroke="midnightblue" points="758.449,-174.079 749.993,-180.463 760.584,-180.746 758.449,-174.079"/>
</g>
<!-- Node11 -->
<g id="node11" class="node"><title>Node11</title>
<g id="a_node11"><a xlink:href="DCEL_2Operations_2EdgeSplit_8cpp.html" target="_top" xlink:title="/home/travis/build\l/STORM&#45;IRIT/Radium&#45;Engine\l/src/Core/Mesh/DCEL/Operations\l/EdgeSplit.cpp">
<polygon fill="white" stroke="black" points="1037,-91 1037,-143 1201,-143 1201,-91 1037,-91"/>
<text text-anchor="start" x="1045" y="-131" font-family="Helvetica,sans-Serif" font-size="10.00">/home/travis/build</text>
<text text-anchor="start" x="1045" y="-120" font-family="Helvetica,sans-Serif" font-size="10.00">/STORM&#45;IRIT/Radium&#45;Engine</text>
<text text-anchor="start" x="1045" y="-109" font-family="Helvetica,sans-Serif" font-size="10.00">/src/Core/Mesh/DCEL/Operations</text>
<text text-anchor="middle" x="1119" y="-98" font-family="Helvetica,sans-Serif" font-size="10.00">/EdgeSplit.cpp</text>
</a>
</g>
</g>
<!-- Node2&#45;&gt;Node11 -->
<g id="edge13" class="edge"><title>Node2&#45;&gt;Node11</title>
<path fill="none" stroke="midnightblue" d="M786.55,-186.912C854.601,-177.045 947.314,-162.128 1028,-144 1030.89,-143.352 1033.82,-142.666 1036.77,-141.951"/>
<polygon fill="midnightblue" stroke="midnightblue" points="785.669,-183.503 776.269,-188.391 786.666,-190.431 785.669,-183.503"/>
</g>
<!-- Node12 -->
<g id="node12" class="node"><title>Node12</title>
<g id="a_node12"><a xlink:href="Convert_8cpp.html" target="_top" xlink:title="/home/travis/build\l/STORM&#45;IRIT/Radium&#45;Engine\l/src/Core/Mesh/Wrapper/Convert.cpp">
<polygon fill="white" stroke="black" points="1219,-96.5 1219,-137.5 1399,-137.5 1399,-96.5 1219,-96.5"/>
<text text-anchor="start" x="1227" y="-125.5" font-family="Helvetica,sans-Serif" font-size="10.00">/home/travis/build</text>
<text text-anchor="start" x="1227" y="-114.5" font-family="Helvetica,sans-Serif" font-size="10.00">/STORM&#45;IRIT/Radium&#45;Engine</text>
<text text-anchor="middle" x="1309" y="-103.5" font-family="Helvetica,sans-Serif" font-size="10.00">/src/Core/Mesh/Wrapper/Convert.cpp</text>
</a>
</g>
</g>
<!-- Node2&#45;&gt;Node12 -->
<g id="edge14" class="edge"><title>Node2&#45;&gt;Node12</title>
<path fill="none" stroke="midnightblue" d="M786.507,-193.899C891.657,-186.302 1063.67,-170.923 1210,-144 1219.79,-142.199 1230.03,-139.942 1240.06,-137.515"/>
<polygon fill="midnightblue" stroke="midnightblue" points="785.954,-190.429 776.229,-194.632 786.452,-197.412 785.954,-190.429"/>
</g>
<!-- Node8 -->
<g id="node8" class="node"><title>Node8</title>
<g id="a_node8"><a xlink:href="FFEIterator_8hpp.html" target="_top" xlink:title="/home/travis/build\l/STORM&#45;IRIT/Radium&#45;Engine\l/src/Core/Mesh/DCEL/Iterator\l/Face/FFEIterator.hpp">
<polygon fill="white" stroke="black" points="705,-1 705,-53 853,-53 853,-1 705,-1"/>
<text text-anchor="start" x="713" y="-41" font-family="Helvetica,sans-Serif" font-size="10.00">/home/travis/build</text>
<text text-anchor="start" x="713" y="-30" font-family="Helvetica,sans-Serif" font-size="10.00">/STORM&#45;IRIT/Radium&#45;Engine</text>
<text text-anchor="start" x="713" y="-19" font-family="Helvetica,sans-Serif" font-size="10.00">/src/Core/Mesh/DCEL/Iterator</text>
<text text-anchor="middle" x="779" y="-8" font-family="Helvetica,sans-Serif" font-size="10.00">/Face/FFEIterator.hpp</text>
</a>
</g>
</g>
<!-- Node7&#45;&gt;Node8 -->
<g id="edge8" class="edge"><title>Node7&#45;&gt;Node8</title>
<path fill="none" stroke="midnightblue" d="M772.363,-80.4892C772.116,-71.3088 772.274,-61.616 772.838,-53.0921"/>
<polygon fill="midnightblue" stroke="midnightblue" points="768.869,-80.7136 772.814,-90.5468 775.862,-80.3999 768.869,-80.7136"/>
</g>
<!-- Node8&#45;&gt;Node7 -->
<g id="edge9" class="edge"><title>Node8&#45;&gt;Node7</title>
<path fill="none" stroke="midnightblue" d="M785.626,-63.1229C785.885,-72.2885 785.738,-81.9903 785.186,-90.5468"/>
<polygon fill="midnightblue" stroke="midnightblue" points="789.121,-62.9197 785.162,-53.0921 782.128,-63.2432 789.121,-62.9197"/>
</g>
<!-- Node10 -->
<g id="node10" class="node"><title>Node10</title>
<g id="a_node10"><a xlink:href="VFEIterator_8hpp.html" target="_top" xlink:title="/home/travis/build\l/STORM&#45;IRIT/Radium&#45;Engine\l/src/Core/Mesh/DCEL/Iterator\l/Vertex/VFEIterator.hpp">
<polygon fill="white" stroke="black" points="871,-1 871,-53 1019,-53 1019,-1 871,-1"/>
<text text-anchor="start" x="879" y="-41" font-family="Helvetica,sans-Serif" font-size="10.00">/home/travis/build</text>
<text text-anchor="start" x="879" y="-30" font-family="Helvetica,sans-Serif" font-size="10.00">/STORM&#45;IRIT/Radium&#45;Engine</text>
<text text-anchor="start" x="879" y="-19" font-family="Helvetica,sans-Serif" font-size="10.00">/src/Core/Mesh/DCEL/Iterator</text>
<text text-anchor="middle" x="945" y="-8" font-family="Helvetica,sans-Serif" font-size="10.00">/Vertex/VFEIterator.hpp</text>
</a>
</g>
</g>
<!-- Node9&#45;&gt;Node10 -->
<g id="edge11" class="edge"><title>Node9&#45;&gt;Node10</title>
<path fill="none" stroke="midnightblue" d="M938.363,-80.4892C938.116,-71.3088 938.274,-61.616 938.838,-53.0921"/>
<polygon fill="midnightblue" stroke="midnightblue" points="934.869,-80.7136 938.814,-90.5468 941.862,-80.3999 934.869,-80.7136"/>
</g>
<!-- Node10&#45;&gt;Node9 -->
<g id="edge12" class="edge"><title>Node10&#45;&gt;Node9</title>
<path fill="none" stroke="midnightblue" d="M951.626,-63.1229C951.885,-72.2885 951.738,-81.9903 951.186,-90.5468"/>
<polygon fill="midnightblue" stroke="midnightblue" points="955.121,-62.9197 951.162,-53.0921 948.128,-63.2432 955.121,-62.9197"/>
</g>
</g>
</svg>
