<?xml version="1.0" encoding="UTF-8" standalone="no"?>
<!DOCTYPE svg PUBLIC "-//W3C//DTD SVG 1.1//EN"
 "http://www.w3.org/Graphics/SVG/1.1/DTD/svg11.dtd">
<!-- Generated by graphviz version 2.36.0 (20140111.2315)
 -->
<!-- Title: /home/travis/build/STORM&#45;IRIT/Radium&#45;Engine/src/Core/Mesh/DCEL/FullEdge.inl Pages: 1 -->
<svg width="1283pt" height="622pt"
 viewBox="0.00 0.00 1283.00 622.00" xmlns="http://www.w3.org/2000/svg" xmlns:xlink="http://www.w3.org/1999/xlink">
<g id="graph0" class="graph" transform="scale(1 1) rotate(0) translate(4 618)">
<title>/home/travis/build/STORM&#45;IRIT/Radium&#45;Engine/src/Core/Mesh/DCEL/FullEdge.inl</title>
<polygon fill="white" stroke="none" points="-4,4 -4,-618 1279,-618 1279,4 -4,4"/>
<!-- Node1 -->
<g id="node1" class="node"><title>Node1</title>
<polygon fill="#bfbfbf" stroke="black" points="222,-572.5 222,-613.5 390,-613.5 390,-572.5 222,-572.5"/>
<text text-anchor="start" x="230" y="-601.5" font-family="Helvetica,sans-Serif" font-size="10.00">/home/travis/build</text>
<text text-anchor="start" x="230" y="-590.5" font-family="Helvetica,sans-Serif" font-size="10.00">/STORM&#45;IRIT/Radium&#45;Engine</text>
<text text-anchor="middle" x="306" y="-579.5" font-family="Helvetica,sans-Serif" font-size="10.00">/src/Core/Mesh/DCEL/FullEdge.inl</text>
</g>
<!-- Node2 -->
<g id="node2" class="node"><title>Node2</title>
<g id="a_node2"><a xlink:href="FullEdge_8hpp.html" target="_top" xlink:title="Core/Mesh/DCEL/FullEdge.hpp">
<polygon fill="white" stroke="black" points="-0.5,-292.5 -0.5,-311.5 154.5,-311.5 154.5,-292.5 -0.5,-292.5"/>
<text text-anchor="middle" x="77" y="-299.5" font-family="Helvetica,sans-Serif" font-size="10.00">Core/Mesh/DCEL/FullEdge.hpp</text>
</a>
</g>
</g>
<!-- Node1&#45;&gt;Node2 -->
<g id="edge1" class="edge"><title>Node1&#45;&gt;Node2</title>
<path fill="none" stroke="midnightblue" d="M221.783,-577.358C164.063,-561.723 98,-530.64 98,-471 98,-471 98,-471 98,-413 98,-379.793 85.1173,-342.871 78.7687,-321.362"/>
<polygon fill="midnightblue" stroke="midnightblue" points="82.1257,-320.368 76.1472,-311.621 75.3662,-322.187 82.1257,-320.368"/>
</g>
<!-- Node17 -->
<g id="node17" class="node"><title>Node17</title>
<g id="a_node17"><a xlink:href="Face_8hpp.html" target="_top" xlink:title="Core/Mesh/DCEL/Face.hpp">
<polygon fill="white" stroke="black" points="237,-516.5 237,-535.5 375,-535.5 375,-516.5 237,-516.5"/>
<text text-anchor="middle" x="306" y="-523.5" font-family="Helvetica,sans-Serif" font-size="10.00">Core/Mesh/DCEL/Face.hpp</text>
</a>
</g>
</g>
<!-- Node1&#45;&gt;Node17 -->
<g id="edge18" class="edge"><title>Node1&#45;&gt;Node17</title>
<path fill="none" stroke="midnightblue" d="M306,-572.498C306,-564.065 306,-554.235 306,-545.874"/>
<polygon fill="midnightblue" stroke="midnightblue" points="309.5,-545.652 306,-535.652 302.5,-545.653 309.5,-545.652"/>
</g>
<!-- Node19 -->
<g id="node19" class="node"><title>Node19</title>
<g id="a_node19"><a xlink:href="DCEL_2HalfEdge_8hpp.html" target="_top" xlink:title="Core/Mesh/DCEL/HalfEdge.hpp">
<polygon fill="white" stroke="black" points="289.5,-404.5 289.5,-423.5 446.5,-423.5 446.5,-404.5 289.5,-404.5"/>
<text text-anchor="middle" x="368" y="-411.5" font-family="Helvetica,sans-Serif" font-size="10.00">Core/Mesh/DCEL/HalfEdge.hpp</text>
</a>
</g>
</g>
<!-- Node1&#45;&gt;Node19 -->
<g id="edge52" class="edge"><title>Node1&#45;&gt;Node19</title>
<path fill="none" stroke="midnightblue" d="M342.373,-572.388C372.852,-553.46 413.621,-521.575 428,-480 430.905,-471.599 431.975,-467.95 428,-460 421.272,-446.543 408.394,-436.067 396.288,-428.621"/>
<polygon fill="midnightblue" stroke="midnightblue" points="397.721,-425.41 387.296,-423.52 394.267,-431.498 397.721,-425.41"/>
</g>
<!-- Node21 -->
<g id="node21" class="node"><title>Node21</title>
<g id="a_node21"><a xlink:href="Vertex_8hpp.html" target="_top" xlink:title="Core/Mesh/DCEL/Vertex.hpp">
<polygon fill="white" stroke="black" points="433.5,-292.5 433.5,-311.5 578.5,-311.5 578.5,-292.5 433.5,-292.5"/>
<text text-anchor="middle" x="506" y="-299.5" font-family="Helvetica,sans-Serif" font-size="10.00">Core/Mesh/DCEL/Vertex.hpp</text>
</a>
</g>
</g>
<!-- Node1&#45;&gt;Node21 -->
<g id="edge53" class="edge"><title>Node1&#45;&gt;Node21</title>
<path fill="none" stroke="midnightblue" d="M390.233,-579.059C490.632,-561.205 645,-524.976 645,-471 645,-471 645,-471 645,-413 645,-361.575 585.775,-330.416 544.643,-314.978"/>
<polygon fill="midnightblue" stroke="midnightblue" points="545.733,-311.65 535.139,-311.565 543.368,-318.239 545.733,-311.65"/>
</g>
<!-- Node2&#45;&gt;Node1 -->
<g id="edge17" class="edge"><title>Node2&#45;&gt;Node1</title>
<path fill="none" stroke="midnightblue" d="M85.9446,-311.621C98.2346,-329.886 116,-374.004 116,-413 116,-471 116,-471 116,-471 116,-521.985 164.279,-552.1 212.202,-569.534"/>
<polygon fill="midnightblue" stroke="midnightblue" points="211.173,-572.882 221.767,-572.855 213.468,-566.269 211.173,-572.882"/>
</g>
<!-- Node3 -->
<g id="node3" class="node"><title>Node3</title>
<g id="a_node3"><a xlink:href="Index_8hpp.html" target="_top" xlink:title="Core/Index/Index.hpp">
<polygon fill="white" stroke="black" points="149,-174.5 149,-193.5 259,-193.5 259,-174.5 149,-174.5"/>
<text text-anchor="middle" x="204" y="-181.5" font-family="Helvetica,sans-Serif" font-size="10.00">Core/Index/Index.hpp</text>
</a>
</g>
</g>
<!-- Node2&#45;&gt;Node3 -->
<g id="edge2" class="edge"><title>Node2&#45;&gt;Node3</title>
<path fill="none" stroke="midnightblue" d="M86.5456,-292.281C107.98,-272.704 160.162,-225.041 187.175,-200.368"/>
<polygon fill="midnightblue" stroke="midnightblue" points="189.666,-202.833 194.689,-193.505 184.945,-197.665 189.666,-202.833"/>
</g>
<!-- Node6 -->
<g id="node6" class="node"><title>Node6</title>
<g id="a_node6"><a xlink:href="IndexedObject_8hpp.html" target="_top" xlink:title="Core/Index/IndexedObject.hpp">
<polygon fill="white" stroke="black" points="231.5,-236.5 231.5,-255.5 380.5,-255.5 380.5,-236.5 231.5,-236.5"/>
<text text-anchor="middle" x="306" y="-243.5" font-family="Helvetica,sans-Serif" font-size="10.00">Core/Index/IndexedObject.hpp</text>
</a>
</g>
</g>
<!-- Node2&#45;&gt;Node6 -->
<g id="edge5" class="edge"><title>Node2&#45;&gt;Node6</title>
<path fill="none" stroke="midnightblue" d="M113.286,-292.444C152.983,-283.083 216.707,-268.056 259.912,-257.868"/>
<polygon fill="midnightblue" stroke="midnightblue" points="260.954,-261.218 269.884,-255.516 259.348,-254.405 260.954,-261.218"/>
</g>
<!-- Node14 -->
<g id="node14" class="node"><title>Node14</title>
<g id="a_node14"><a xlink:href="Definition_8hpp.html" target="_top" xlink:title="Core/Mesh/DCEL/Definition.hpp">
<polygon fill="white" stroke="black" points="398,-236.5 398,-255.5 556,-255.5 556,-236.5 398,-236.5"/>
<text text-anchor="middle" x="477" y="-243.5" font-family="Helvetica,sans-Serif" font-size="10.00">Core/Mesh/DCEL/Definition.hpp</text>
</a>
</g>
</g>
<!-- Node2&#45;&gt;Node14 -->
<g id="edge14" class="edge"><title>Node2&#45;&gt;Node14</title>
<path fill="none" stroke="midnightblue" d="M140.381,-292.444C211.916,-282.786 328.116,-267.099 403.551,-256.916"/>
<polygon fill="midnightblue" stroke="midnightblue" points="404.474,-260.323 413.915,-255.516 403.537,-253.386 404.474,-260.323"/>
</g>
<!-- Node4 -->
<g id="node4" class="node"><title>Node4</title>
<polygon fill="white" stroke="#bfbfbf" points="139,-112.5 139,-131.5 179,-131.5 179,-112.5 139,-112.5"/>
<text text-anchor="middle" x="159" y="-119.5" font-family="Helvetica,sans-Serif" font-size="10.00">limits</text>
</g>
<!-- Node3&#45;&gt;Node4 -->
<g id="edge3" class="edge"><title>Node3&#45;&gt;Node4</title>
<path fill="none" stroke="midnightblue" d="M197.553,-174.403C190.803,-165.403 180.031,-151.041 171.587,-139.782"/>
<polygon fill="midnightblue" stroke="midnightblue" points="174.235,-137.481 165.435,-131.581 168.635,-141.681 174.235,-137.481"/>
</g>
<!-- Node5 -->
<g id="node5" class="node"><title>Node5</title>
<g id="a_node5"><a xlink:href="Index_8inl.html" target="_top" xlink:title="Core/Index/Index.inl">
<polygon fill="white" stroke="black" points="197,-112.5 197,-131.5 301,-131.5 301,-112.5 197,-112.5"/>
<text text-anchor="middle" x="249" y="-119.5" font-family="Helvetica,sans-Serif" font-size="10.00">Core/Index/Index.inl</text>
</a>
</g>
</g>
<!-- Node3&#45;&gt;Node5 -->
<g id="edge4" class="edge"><title>Node3&#45;&gt;Node5</title>
<path fill="none" stroke="midnightblue" d="M210.447,-174.403C217.197,-165.403 227.969,-151.041 236.413,-139.782"/>
<polygon fill="midnightblue" stroke="midnightblue" points="239.365,-141.681 242.565,-131.581 233.765,-137.481 239.365,-141.681"/>
</g>
<!-- Node6&#45;&gt;Node3 -->
<g id="edge6" class="edge"><title>Node6&#45;&gt;Node3</title>
<path fill="none" stroke="midnightblue" d="M291.386,-236.403C274.647,-226.557 246.996,-210.291 227.281,-198.695"/>
<polygon fill="midnightblue" stroke="midnightblue" points="228.981,-195.634 218.587,-193.581 225.432,-201.668 228.981,-195.634"/>
</g>
<!-- Node7 -->
<g id="node7" class="node"><title>Node7</title>
<g id="a_node7"><a xlink:href="RaCore_8hpp.html" target="_top" xlink:title="Core/RaCore.hpp">
<polygon fill="white" stroke="black" points="429.5,-112.5 429.5,-131.5 522.5,-131.5 522.5,-112.5 429.5,-112.5"/>
<text text-anchor="middle" x="476" y="-119.5" font-family="Helvetica,sans-Serif" font-size="10.00">Core/RaCore.hpp</text>
</a>
</g>
</g>
<!-- Node6&#45;&gt;Node7 -->
<g id="edge7" class="edge"><title>Node6&#45;&gt;Node7</title>
<path fill="none" stroke="midnightblue" d="M305.543,-236.31C305.208,-220.528 306.853,-187.034 325,-168 349.356,-142.453 387.522,-131.227 419.389,-126.375"/>
<polygon fill="midnightblue" stroke="midnightblue" points="420.045,-129.819 429.488,-125.014 419.11,-122.881 420.045,-129.819"/>
</g>
<!-- Node8 -->
<g id="node8" class="node"><title>Node8</title>
<g id="a_node8"><a xlink:href="CoreMacros_8hpp.html" target="_top" xlink:title="Core/CoreMacros.hpp">
<polygon fill="white" stroke="black" points="419.5,-56.5 419.5,-75.5 532.5,-75.5 532.5,-56.5 419.5,-56.5"/>
<text text-anchor="middle" x="476" y="-63.5" font-family="Helvetica,sans-Serif" font-size="10.00">Core/CoreMacros.hpp</text>
</a>
</g>
</g>
<!-- Node7&#45;&gt;Node8 -->
<g id="edge8" class="edge"><title>Node7&#45;&gt;Node8</title>
<path fill="none" stroke="midnightblue" d="M476,-112.083C476,-105.006 476,-94.8611 476,-85.9865"/>
<polygon fill="midnightblue" stroke="midnightblue" points="479.5,-85.751 476,-75.7511 472.5,-85.7511 479.5,-85.751"/>
</g>
<!-- Node9 -->
<g id="node9" class="node"><title>Node9</title>
<polygon fill="white" stroke="#bfbfbf" points="320.5,-0.5 320.5,-19.5 369.5,-19.5 369.5,-0.5 320.5,-0.5"/>
<text text-anchor="middle" x="345" y="-7.5" font-family="Helvetica,sans-Serif" font-size="10.00">cassert</text>
</g>
<!-- Node8&#45;&gt;Node9 -->
<g id="edge9" class="edge"><title>Node8&#45;&gt;Node9</title>
<path fill="none" stroke="midnightblue" d="M455.243,-56.4435C433.684,-47.5566 399.737,-33.5632 375.206,-23.4514"/>
<polygon fill="midnightblue" stroke="midnightblue" points="376.239,-20.0917 365.66,-19.5164 373.572,-26.5634 376.239,-20.0917"/>
</g>
<!-- Node10 -->
<g id="node10" class="node"><title>Node10</title>
<polygon fill="white" stroke="#bfbfbf" points="387.5,-0.5 387.5,-19.5 430.5,-19.5 430.5,-0.5 387.5,-0.5"/>
<text text-anchor="middle" x="409" y="-7.5" font-family="Helvetica,sans-Serif" font-size="10.00">cstdio</text>
</g>
<!-- Node8&#45;&gt;Node10 -->
<g id="edge10" class="edge"><title>Node8&#45;&gt;Node10</title>
<path fill="none" stroke="midnightblue" d="M465.235,-56.324C455.234,-48.2631 440.113,-36.0765 428.07,-26.3695"/>
<polygon fill="midnightblue" stroke="midnightblue" points="429.943,-23.3841 419.961,-19.8339 425.55,-28.8343 429.943,-23.3841"/>
</g>
<!-- Node11 -->
<g id="node11" class="node"><title>Node11</title>
<polygon fill="white" stroke="#bfbfbf" points="449,-0.5 449,-19.5 503,-19.5 503,-0.5 449,-0.5"/>
<text text-anchor="middle" x="476" y="-7.5" font-family="Helvetica,sans-Serif" font-size="10.00">iostream</text>
</g>
<!-- Node8&#45;&gt;Node11 -->
<g id="edge11" class="edge"><title>Node8&#45;&gt;Node11</title>
<path fill="none" stroke="midnightblue" d="M476,-56.083C476,-49.0059 476,-38.8611 476,-29.9865"/>
<polygon fill="midnightblue" stroke="midnightblue" points="479.5,-29.751 476,-19.7511 472.5,-29.7511 479.5,-29.751"/>
</g>
<!-- Node12 -->
<g id="node12" class="node"><title>Node12</title>
<polygon fill="white" stroke="#bfbfbf" points="521,-0.5 521,-19.5 573,-19.5 573,-0.5 521,-0.5"/>
<text text-anchor="middle" x="547" y="-7.5" font-family="Helvetica,sans-Serif" font-size="10.00">sstream</text>
</g>
<!-- Node8&#45;&gt;Node12 -->
<g id="edge12" class="edge"><title>Node8&#45;&gt;Node12</title>
<path fill="none" stroke="midnightblue" d="M487.407,-56.324C498.109,-48.1849 514.341,-35.8395 527.163,-26.0874"/>
<polygon fill="midnightblue" stroke="midnightblue" points="529.544,-28.6734 535.385,-19.8339 525.307,-23.1018 529.544,-28.6734"/>
</g>
<!-- Node13 -->
<g id="node13" class="node"><title>Node13</title>
<polygon fill="white" stroke="#bfbfbf" points="591,-0.5 591,-19.5 635,-19.5 635,-0.5 591,-0.5"/>
<text text-anchor="middle" x="613" y="-7.5" font-family="Helvetica,sans-Serif" font-size="10.00">thread</text>
</g>
<!-- Node8&#45;&gt;Node13 -->
<g id="edge13" class="edge"><title>Node8&#45;&gt;Node13</title>
<path fill="none" stroke="midnightblue" d="M497.708,-56.4435C520.355,-47.5171 556.072,-33.4387 581.752,-23.3168"/>
<polygon fill="midnightblue" stroke="midnightblue" points="583.374,-26.4397 591.394,-19.5164 580.807,-19.9273 583.374,-26.4397"/>
</g>
<!-- Node15 -->
<g id="node15" class="node"><title>Node15</title>
<polygon fill="white" stroke="#bfbfbf" points="334,-174.5 334,-193.5 386,-193.5 386,-174.5 334,-174.5"/>
<text text-anchor="middle" x="360" y="-181.5" font-family="Helvetica,sans-Serif" font-size="10.00">memory</text>
</g>
<!-- Node14&#45;&gt;Node15 -->
<g id="edge15" class="edge"><title>Node14&#45;&gt;Node15</title>
<path fill="none" stroke="midnightblue" d="M460.237,-236.403C440.775,-226.423 408.455,-209.849 385.789,-198.225"/>
<polygon fill="midnightblue" stroke="midnightblue" points="387.227,-195.029 376.732,-193.581 384.033,-201.258 387.227,-195.029"/>
</g>
<!-- Node16 -->
<g id="node16" class="node"><title>Node16</title>
<polygon fill="white" stroke="#bfbfbf" points="404,-174.5 404,-193.5 448,-193.5 448,-174.5 404,-174.5"/>
<text text-anchor="middle" x="426" y="-181.5" font-family="Helvetica,sans-Serif" font-size="10.00">vector</text>
</g>
<!-- Node14&#45;&gt;Node16 -->
<g id="edge16" class="edge"><title>Node14&#45;&gt;Node16</title>
<path fill="none" stroke="midnightblue" d="M469.693,-236.403C461.967,-227.314 449.592,-212.756 439.982,-201.449"/>
<polygon fill="midnightblue" stroke="midnightblue" points="442.437,-198.933 433.294,-193.581 437.103,-203.467 442.437,-198.933"/>
</g>
<!-- Node17&#45;&gt;Node3 -->
<g id="edge19" class="edge"><title>Node17&#45;&gt;Node3</title>
<path fill="none" stroke="midnightblue" d="M282.575,-516.42C246.888,-501.66 183,-467.855 183,-415 183,-415 183,-415 183,-357 183,-300.736 194.209,-234.877 200.249,-203.474"/>
<polygon fill="midnightblue" stroke="midnightblue" points="203.706,-204.034 202.21,-193.545 196.838,-202.678 203.706,-204.034"/>
</g>
<!-- Node17&#45;&gt;Node6 -->
<g id="edge20" class="edge"><title>Node17&#45;&gt;Node6</title>
<path fill="none" stroke="midnightblue" d="M289.386,-516.36C275.764,-508.518 256.859,-495.781 245,-480 226.499,-455.381 221,-445.795 221,-415 221,-415 221,-415 221,-357 221,-326.205 226.499,-316.619 245,-292 254.45,-279.425 268.374,-268.782 280.534,-261.009"/>
<polygon fill="midnightblue" stroke="midnightblue" points="282.651,-263.819 289.386,-255.64 279.02,-257.834 282.651,-263.819"/>
</g>
<!-- Node17&#45;&gt;Node14 -->
<g id="edge21" class="edge"><title>Node17&#45;&gt;Node14</title>
<path fill="none" stroke="midnightblue" d="M299.465,-516.413C286.551,-498.56 259,-455.704 259,-415 259,-415 259,-415 259,-357 259,-296.062 327.735,-268.876 388.014,-256.752"/>
<polygon fill="midnightblue" stroke="midnightblue" points="388.814,-260.162 397.989,-254.864 387.512,-253.285 388.814,-260.162"/>
</g>
<!-- Node18 -->
<g id="node18" class="node"><title>Node18</title>
<g id="a_node18"><a xlink:href="Face_8inl.html" target="_top" xlink:title="Core/Mesh/DCEL/Face.inl">
<polygon fill="white" stroke="black" points="287,-460.5 287,-479.5 419,-479.5 419,-460.5 287,-460.5"/>
<text text-anchor="middle" x="353" y="-467.5" font-family="Helvetica,sans-Serif" font-size="10.00">Core/Mesh/DCEL/Face.inl</text>
</a>
</g>
</g>
<!-- Node17&#45;&gt;Node18 -->
<g id="edge22" class="edge"><title>Node17&#45;&gt;Node18</title>
<path fill="none" stroke="midnightblue" d="M308.595,-516.083C313.832,-508.141 323.761,-496.335 333.046,-486.797"/>
<polygon fill="midnightblue" stroke="midnightblue" points="335.549,-489.245 340.252,-479.751 330.655,-484.24 335.549,-489.245"/>
</g>
<!-- Node18&#45;&gt;Node17 -->
<g id="edge23" class="edge"><title>Node18&#45;&gt;Node17</title>
<path fill="none" stroke="midnightblue" d="M350.46,-479.834C345.228,-487.791 335.236,-499.673 325.905,-509.253"/>
<polygon fill="midnightblue" stroke="midnightblue" points="323.374,-506.833 318.666,-516.324 328.265,-511.84 323.374,-506.833"/>
</g>
<!-- Node18&#45;&gt;Node19 -->
<g id="edge24" class="edge"><title>Node18&#45;&gt;Node19</title>
<path fill="none" stroke="midnightblue" d="M355.477,-460.083C357.486,-452.849 360.386,-442.409 362.89,-433.397"/>
<polygon fill="midnightblue" stroke="midnightblue" points="366.265,-434.323 365.569,-423.751 359.52,-432.449 366.265,-434.323"/>
</g>
<!-- Node19&#45;&gt;Node3 -->
<g id="edge25" class="edge"><title>Node19&#45;&gt;Node3</title>
<path fill="none" stroke="midnightblue" d="M356.871,-404.452C329.465,-382.787 258.317,-322.683 222,-256 213.082,-239.626 208.475,-218.717 206.166,-203.839"/>
<polygon fill="midnightblue" stroke="midnightblue" points="209.619,-203.256 204.815,-193.813 202.682,-204.191 209.619,-203.256"/>
</g>
<!-- Node19&#45;&gt;Node6 -->
<g id="edge26" class="edge"><title>Node19&#45;&gt;Node6</title>
<path fill="none" stroke="midnightblue" d="M364.667,-404.075C354.865,-377.832 325.999,-300.545 312.766,-265.117"/>
<polygon fill="midnightblue" stroke="midnightblue" points="315.978,-263.711 309.2,-255.568 309.42,-266.161 315.978,-263.711"/>
</g>
<!-- Node19&#45;&gt;Node14 -->
<g id="edge27" class="edge"><title>Node19&#45;&gt;Node14</title>
<path fill="none" stroke="midnightblue" d="M370.347,-404.237C376.357,-383.053 393.981,-328.151 424,-292 433.398,-280.682 445.86,-269.942 456.339,-261.794"/>
<polygon fill="midnightblue" stroke="midnightblue" points="458.678,-264.413 464.563,-255.603 454.469,-258.821 458.678,-264.413"/>
</g>
<!-- Node20 -->
<g id="node20" class="node"><title>Node20</title>
<g id="a_node20"><a xlink:href="DCEL_2HalfEdge_8inl.html" target="_top" xlink:title="Core/Mesh/DCEL/HalfEdge.inl">
<polygon fill="white" stroke="black" points="401.5,-348.5 401.5,-367.5 552.5,-367.5 552.5,-348.5 401.5,-348.5"/>
<text text-anchor="middle" x="477" y="-355.5" font-family="Helvetica,sans-Serif" font-size="10.00">Core/Mesh/DCEL/HalfEdge.inl</text>
</a>
</g>
</g>
<!-- Node19&#45;&gt;Node20 -->
<g id="edge28" class="edge"><title>Node19&#45;&gt;Node20</title>
<path fill="none" stroke="midnightblue" d="M380.398,-404.324C396.216,-395.546 423.566,-381.875 445.232,-371.842"/>
<polygon fill="midnightblue" stroke="midnightblue" points="446.772,-374.986 454.421,-367.655 443.87,-368.617 446.772,-374.986"/>
</g>
<!-- Node20&#45;&gt;Node17 -->
<g id="edge30" class="edge"><title>Node20&#45;&gt;Node17</title>
<path fill="none" stroke="midnightblue" d="M476.035,-367.774C473.124,-389.961 462.39,-448.759 428,-480 409.951,-496.397 385.413,-506.968 363.076,-513.711"/>
<polygon fill="midnightblue" stroke="midnightblue" points="362.006,-510.376 353.332,-516.459 363.906,-517.113 362.006,-510.376"/>
</g>
<!-- Node20&#45;&gt;Node19 -->
<g id="edge29" class="edge"><title>Node20&#45;&gt;Node19</title>
<path fill="none" stroke="midnightblue" d="M464.889,-367.516C449.078,-376.309 421.43,-390.131 399.608,-400.232"/>
<polygon fill="midnightblue" stroke="midnightblue" points="398.01,-397.114 390.36,-404.444 400.911,-403.484 398.01,-397.114"/>
</g>
<!-- Node20&#45;&gt;Node21 -->
<g id="edge31" class="edge"><title>Node20&#45;&gt;Node21</title>
<path fill="none" stroke="midnightblue" d="M481.789,-348.083C485.758,-340.691 491.525,-329.953 496.435,-320.811"/>
<polygon fill="midnightblue" stroke="midnightblue" points="499.653,-322.217 501.3,-311.751 493.486,-318.905 499.653,-322.217"/>
</g>
<!-- Node21&#45;&gt;Node3 -->
<g id="edge32" class="edge"><title>Node21&#45;&gt;Node3</title>
<path fill="none" stroke="midnightblue" d="M523.403,-292.444C546.321,-280.076 581.75,-256.441 564,-236 559.194,-230.465 371.706,-206.097 269.26,-193.151"/>
<polygon fill="midnightblue" stroke="midnightblue" points="269.678,-189.676 259.319,-191.896 268.802,-196.621 269.678,-189.676"/>
</g>
<!-- Node21&#45;&gt;Node6 -->
<g id="edge33" class="edge"><title>Node21&#45;&gt;Node6</title>
<path fill="none" stroke="midnightblue" d="M474.309,-292.444C439.932,-283.162 384.923,-268.309 347.211,-258.127"/>
<polygon fill="midnightblue" stroke="midnightblue" points="348.109,-254.744 337.542,-255.516 346.284,-261.502 348.109,-254.744"/>
</g>
<!-- Node21&#45;&gt;Node14 -->
<g id="edge48" class="edge"><title>Node21&#45;&gt;Node14</title>
<path fill="none" stroke="midnightblue" d="M501.211,-292.083C497.242,-284.691 491.475,-273.953 486.565,-264.811"/>
<polygon fill="midnightblue" stroke="midnightblue" points="489.514,-262.905 481.7,-255.751 483.347,-266.217 489.514,-262.905"/>
</g>
<!-- Node22 -->
<g id="node22" class="node"><title>Node22</title>
<g id="a_node22"><a xlink:href="LinearAlgebra_8hpp.html" target="_top" xlink:title="Core/Math/LinearAlgebra.hpp">
<polygon fill="white" stroke="black" points="612.5,-236.5 612.5,-255.5 755.5,-255.5 755.5,-236.5 612.5,-236.5"/>
<text text-anchor="middle" x="684" y="-243.5" font-family="Helvetica,sans-Serif" font-size="10.00">Core/Math/LinearAlgebra.hpp</text>
</a>
</g>
</g>
<!-- Node21&#45;&gt;Node22 -->
<g id="edge34" class="edge"><title>Node21&#45;&gt;Node22</title>
<path fill="none" stroke="midnightblue" d="M534.205,-292.444C564.41,-283.28 612.511,-268.688 646.029,-258.519"/>
<polygon fill="midnightblue" stroke="midnightblue" points="647.374,-261.769 655.927,-255.516 645.342,-255.07 647.374,-261.769"/>
</g>
<!-- Node33 -->
<g id="node33" class="node"><title>Node33</title>
<g id="a_node33"><a xlink:href="Vertex_8inl.html" target="_top" xlink:title="Core/Mesh/DCEL/Vertex.inl">
<polygon fill="white" stroke="black" points="773.5,-236.5 773.5,-255.5 912.5,-255.5 912.5,-236.5 773.5,-236.5"/>
<text text-anchor="middle" x="843" y="-243.5" font-family="Helvetica,sans-Serif" font-size="10.00">Core/Mesh/DCEL/Vertex.inl</text>
</a>
</g>
</g>
<!-- Node21&#45;&gt;Node33 -->
<g id="edge49" class="edge"><title>Node21&#45;&gt;Node33</title>
<path fill="none" stroke="midnightblue" d="M554.31,-292.444C612.103,-282.846 709.067,-267.292 774.544,-257.104"/>
<polygon fill="midnightblue" stroke="midnightblue" points="775.426,-260.509 784.771,-255.516 774.353,-253.592 775.426,-260.509"/>
</g>
<!-- Node22&#45;&gt;Node7 -->
<g id="edge35" class="edge"><title>Node22&#45;&gt;Node7</title>
<path fill="none" stroke="midnightblue" d="M616.536,-236.441C569.488,-229.118 512.183,-217.043 495,-200 479.603,-184.728 475.96,-159.102 475.436,-141.643"/>
<polygon fill="midnightblue" stroke="midnightblue" points="478.936,-141.545 475.449,-131.541 471.936,-141.536 478.936,-141.545"/>
</g>
<!-- Node23 -->
<g id="node23" class="node"><title>Node23</title>
<polygon fill="white" stroke="#bfbfbf" points="504.5,-174.5 504.5,-193.5 569.5,-193.5 569.5,-174.5 504.5,-174.5"/>
<text text-anchor="middle" x="537" y="-181.5" font-family="Helvetica,sans-Serif" font-size="10.00">Eigen/Core</text>
</g>
<!-- Node22&#45;&gt;Node23 -->
<g id="edge36" class="edge"><title>Node22&#45;&gt;Node23</title>
<path fill="none" stroke="midnightblue" d="M662.938,-236.403C637.941,-226.2 596.058,-209.105 567.513,-197.454"/>
<polygon fill="midnightblue" stroke="midnightblue" points="568.604,-194.119 558.022,-193.581 565.958,-200.6 568.604,-194.119"/>
</g>
<!-- Node24 -->
<g id="node24" class="node"><title>Node24</title>
<polygon fill="white" stroke="#bfbfbf" points="587.5,-174.5 587.5,-193.5 674.5,-193.5 674.5,-174.5 587.5,-174.5"/>
<text text-anchor="middle" x="631" y="-181.5" font-family="Helvetica,sans-Serif" font-size="10.00">Eigen/Geometry</text>
</g>
<!-- Node22&#45;&gt;Node24 -->
<g id="edge37" class="edge"><title>Node22&#45;&gt;Node24</title>
<path fill="none" stroke="midnightblue" d="M676.406,-236.403C668.299,-227.225 655.265,-212.47 645.237,-201.117"/>
<polygon fill="midnightblue" stroke="midnightblue" points="647.823,-198.758 638.58,-193.581 642.577,-203.392 647.823,-198.758"/>
</g>
<!-- Node25 -->
<g id="node25" class="node"><title>Node25</title>
<polygon fill="white" stroke="#bfbfbf" points="692.5,-174.5 692.5,-193.5 767.5,-193.5 767.5,-174.5 692.5,-174.5"/>
<text text-anchor="middle" x="730" y="-181.5" font-family="Helvetica,sans-Serif" font-size="10.00">Eigen/Sparse</text>
</g>
<!-- Node22&#45;&gt;Node25 -->
<g id="edge38" class="edge"><title>Node22&#45;&gt;Node25</title>
<path fill="none" stroke="midnightblue" d="M690.591,-236.403C697.491,-227.403 708.502,-213.041 717.134,-201.782"/>
<polygon fill="midnightblue" stroke="midnightblue" points="720.115,-203.646 723.422,-193.581 714.56,-199.387 720.115,-203.646"/>
</g>
<!-- Node26 -->
<g id="node26" class="node"><title>Node26</title>
<polygon fill="white" stroke="#bfbfbf" points="785.5,-174.5 785.5,-193.5 844.5,-193.5 844.5,-174.5 785.5,-174.5"/>
<text text-anchor="middle" x="815" y="-181.5" font-family="Helvetica,sans-Serif" font-size="10.00">functional</text>
</g>
<!-- Node22&#45;&gt;Node26 -->
<g id="edge39" class="edge"><title>Node22&#45;&gt;Node26</title>
<path fill="none" stroke="midnightblue" d="M702.769,-236.403C724.851,-226.29 761.719,-209.404 787.139,-197.761"/>
<polygon fill="midnightblue" stroke="midnightblue" points="788.631,-200.927 796.266,-193.581 785.716,-194.563 788.631,-200.927"/>
</g>
<!-- Node27 -->
<g id="node27" class="node"><title>Node27</title>
<polygon fill="white" stroke="#bfbfbf" points="862.5,-169 862.5,-199 995.5,-199 995.5,-169 862.5,-169"/>
<text text-anchor="start" x="870.5" y="-187" font-family="Helvetica,sans-Serif" font-size="10.00">unsupported/Eigen/Aligned</text>
<text text-anchor="middle" x="929" y="-176" font-family="Helvetica,sans-Serif" font-size="10.00">Vector3</text>
</g>
<!-- Node22&#45;&gt;Node27 -->
<g id="edge40" class="edge"><title>Node22&#45;&gt;Node27</title>
<path fill="none" stroke="midnightblue" d="M718.842,-236.467C755.889,-227.395 815.397,-212.821 861.649,-201.494"/>
<polygon fill="midnightblue" stroke="midnightblue" points="862.722,-204.835 871.603,-199.057 861.057,-198.036 862.722,-204.835"/>
</g>
<!-- Node28 -->
<g id="node28" class="node"><title>Node28</title>
<g id="a_node28"><a xlink:href="Math_8hpp.html" target="_top" xlink:title="Core/Math/Math.hpp">
<polygon fill="white" stroke="black" points="1014,-174.5 1014,-193.5 1120,-193.5 1120,-174.5 1014,-174.5"/>
<text text-anchor="middle" x="1067" y="-181.5" font-family="Helvetica,sans-Serif" font-size="10.00">Core/Math/Math.hpp</text>
</a>
</g>
</g>
<!-- Node22&#45;&gt;Node28 -->
<g id="edge41" class="edge"><title>Node22&#45;&gt;Node28</title>
<path fill="none" stroke="midnightblue" d="M755.805,-236.862C820.868,-229.023 919.242,-216.013 1004,-200 1010.38,-198.795 1017.09,-197.37 1023.65,-195.886"/>
<polygon fill="midnightblue" stroke="midnightblue" points="1024.83,-199.205 1033.78,-193.528 1023.24,-192.387 1024.83,-199.205"/>
</g>
<!-- Node32 -->
<g id="node32" class="node"><title>Node32</title>
<g id="a_node32"><a xlink:href="LinearAlgebra_8inl.html" target="_top" xlink:title="Core/Math/LinearAlgebra.inl">
<polygon fill="white" stroke="black" points="1138.5,-174.5 1138.5,-193.5 1275.5,-193.5 1275.5,-174.5 1138.5,-174.5"/>
<text text-anchor="middle" x="1207" y="-181.5" font-family="Helvetica,sans-Serif" font-size="10.00">Core/Math/LinearAlgebra.inl</text>
</a>
</g>
</g>
<!-- Node22&#45;&gt;Node32 -->
<g id="edge47" class="edge"><title>Node22&#45;&gt;Node32</title>
<path fill="none" stroke="midnightblue" d="M755.524,-236.905C758.386,-236.597 761.22,-236.294 764,-236 925.667,-218.913 967.095,-223.186 1128,-200 1137.03,-198.699 1146.6,-197.084 1155.84,-195.401"/>
<polygon fill="midnightblue" stroke="midnightblue" points="1156.52,-198.836 1165.71,-193.559 1155.23,-191.955 1156.52,-198.836"/>
</g>
<!-- Node28&#45;&gt;Node7 -->
<g id="edge42" class="edge"><title>Node28&#45;&gt;Node7</title>
<path fill="none" stroke="midnightblue" d="M1035.14,-174.441C1025.22,-172.041 1014.21,-169.642 1004,-168 833.76,-140.635 629.788,-129.219 532.721,-125.066"/>
<polygon fill="midnightblue" stroke="midnightblue" points="532.681,-121.562 522.543,-124.641 532.388,-128.556 532.681,-121.562"/>
</g>
<!-- Node29 -->
<g id="node29" class="node"><title>Node29</title>
<polygon fill="white" stroke="#bfbfbf" points="926,-112.5 926,-131.5 982,-131.5 982,-112.5 926,-112.5"/>
<text text-anchor="middle" x="954" y="-119.5" font-family="Helvetica,sans-Serif" font-size="10.00">algorithm</text>
</g>
<!-- Node28&#45;&gt;Node29 -->
<g id="edge43" class="edge"><title>Node28&#45;&gt;Node29</title>
<path fill="none" stroke="midnightblue" d="M1050.81,-174.403C1032.1,-164.468 1001.08,-147.997 979.201,-136.381"/>
<polygon fill="midnightblue" stroke="midnightblue" points="980.634,-133.179 970.16,-131.581 977.351,-139.362 980.634,-133.179"/>
</g>
<!-- Node30 -->
<g id="node30" class="node"><title>Node30</title>
<polygon fill="white" stroke="#bfbfbf" points="1000,-112.5 1000,-131.5 1044,-131.5 1044,-112.5 1000,-112.5"/>
<text text-anchor="middle" x="1022" y="-119.5" font-family="Helvetica,sans-Serif" font-size="10.00">cmath</text>
</g>
<!-- Node28&#45;&gt;Node30 -->
<g id="edge44" class="edge"><title>Node28&#45;&gt;Node30</title>
<path fill="none" stroke="midnightblue" d="M1060.55,-174.403C1053.8,-165.403 1043.03,-151.041 1034.59,-139.782"/>
<polygon fill="midnightblue" stroke="midnightblue" points="1037.24,-137.481 1028.44,-131.581 1031.64,-141.681 1037.24,-137.481"/>
</g>
<!-- Node31 -->
<g id="node31" class="node"><title>Node31</title>
<g id="a_node31"><a xlink:href="Math_8inl.html" target="_top" xlink:title="Core/Math/Math.inl">
<polygon fill="white" stroke="black" points="1062,-112.5 1062,-131.5 1162,-131.5 1162,-112.5 1062,-112.5"/>
<text text-anchor="middle" x="1112" y="-119.5" font-family="Helvetica,sans-Serif" font-size="10.00">Core/Math/Math.inl</text>
</a>
</g>
</g>
<!-- Node28&#45;&gt;Node31 -->
<g id="edge45" class="edge"><title>Node28&#45;&gt;Node31</title>
<path fill="none" stroke="midnightblue" d="M1068.55,-174.403C1073.45,-165.225 1084.12,-150.47 1093.85,-139.117"/>
<polygon fill="midnightblue" stroke="midnightblue" points="1096.56,-141.345 1100.67,-131.581 1091.36,-136.649 1096.56,-141.345"/>
</g>
<!-- Node31&#45;&gt;Node28 -->
<g id="edge46" class="edge"><title>Node31&#45;&gt;Node28</title>
<path fill="none" stroke="midnightblue" d="M1110.46,-131.581C1105.57,-140.752 1094.89,-155.506 1085.17,-166.863"/>
<polygon fill="midnightblue" stroke="midnightblue" points="1082.46,-164.639 1078.35,-174.403 1087.65,-169.334 1082.46,-164.639"/>
</g>
<!-- Node33&#45;&gt;Node19 -->
<g id="edge51" class="edge"><title>Node33&#45;&gt;Node19</title>
<path fill="none" stroke="midnightblue" d="M825.922,-255.595C782.599,-277.115 664.512,-334.019 561,-368 516.138,-382.727 463.911,-394.597 425.107,-402.44"/>
<polygon fill="midnightblue" stroke="midnightblue" points="424.165,-399.059 415.041,-404.445 425.532,-405.924 424.165,-399.059"/>
</g>
<!-- Node33&#45;&gt;Node21 -->
<g id="edge50" class="edge"><title>Node33&#45;&gt;Node21</title>
<path fill="none" stroke="midnightblue" d="M794.931,-255.516C737.248,-265.098 640.294,-280.651 574.73,-290.854"/>
<polygon fill="midnightblue" stroke="midnightblue" points="573.832,-287.451 564.487,-292.444 574.906,-294.368 573.832,-287.451"/>
</g>
</g>
</svg>
