<?xml version="1.0" encoding="UTF-8" standalone="no"?>
<!DOCTYPE svg PUBLIC "-//W3C//DTD SVG 1.1//EN"
 "http://www.w3.org/Graphics/SVG/1.1/DTD/svg11.dtd">
<!-- Generated by graphviz version 2.36.0 (20140111.2315)
 -->
<!-- Title: /home/travis/build/STORM&#45;IRIT/Radium&#45;Engine/src/Core/Mesh/DCEL/FullEdge.hpp Pages: 1 -->
<svg width="1593pt" height="230pt"
 viewBox="0.00 0.00 1593.00 230.00" xmlns="http://www.w3.org/2000/svg" xmlns:xlink="http://www.w3.org/1999/xlink">
<g id="graph0" class="graph" transform="scale(1 1) rotate(0) translate(4 226)">
<title>/home/travis/build/STORM&#45;IRIT/Radium&#45;Engine/src/Core/Mesh/DCEL/FullEdge.hpp</title>
<polygon fill="white" stroke="none" points="-4,4 -4,-226 1589,-226 1589,4 -4,4"/>
<!-- Node1 -->
<g id="node1" class="node"><title>Node1</title>
<polygon fill="#bfbfbf" stroke="black" points="702,-180.5 702,-221.5 876,-221.5 876,-180.5 702,-180.5"/>
<text text-anchor="start" x="710" y="-209.5" font-family="Helvetica,sans-Serif" font-size="10.00">/home/travis/build</text>
<text text-anchor="start" x="710" y="-198.5" font-family="Helvetica,sans-Serif" font-size="10.00">/STORM&#45;IRIT/Radium&#45;Engine</text>
<text text-anchor="middle" x="789" y="-187.5" font-family="Helvetica,sans-Serif" font-size="10.00">/src/Core/Mesh/DCEL/FullEdge.hpp</text>
</g>
<!-- Node2 -->
<g id="node2" class="node"><title>Node2</title>
<g id="a_node2"><a xlink:href="FullEdgeOperation_8cpp.html" target="_top" xlink:title="/home/travis/build\l/STORM&#45;IRIT/Radium&#45;Engine\l/src/Core/Algorithm/Subdivision\l/FullEdgeOperation.cpp">
<polygon fill="white" stroke="black" points="-0.5,-91 -0.5,-143 154.5,-143 154.5,-91 -0.5,-91"/>
<text text-anchor="start" x="7.5" y="-131" font-family="Helvetica,sans-Serif" font-size="10.00">/home/travis/build</text>
<text text-anchor="start" x="7.5" y="-120" font-family="Helvetica,sans-Serif" font-size="10.00">/STORM&#45;IRIT/Radium&#45;Engine</text>
<text text-anchor="start" x="7.5" y="-109" font-family="Helvetica,sans-Serif" font-size="10.00">/src/Core/Algorithm/Subdivision</text>
<text text-anchor="middle" x="77" y="-98" font-family="Helvetica,sans-Serif" font-size="10.00">/FullEdgeOperation.cpp</text>
</a>
</g>
</g>
<!-- Node1&#45;&gt;Node2 -->
<g id="edge1" class="edge"><title>Node1&#45;&gt;Node2</title>
<path fill="none" stroke="midnightblue" d="M691.591,-197.326C567.919,-192.55 348.443,-179.449 164,-144 160.904,-143.405 157.76,-142.744 154.596,-142.032"/>
<polygon fill="midnightblue" stroke="midnightblue" points="691.667,-200.831 701.791,-197.709 691.93,-193.836 691.667,-200.831"/>
</g>
<!-- Node3 -->
<g id="node3" class="node"><title>Node3</title>
<g id="a_node3"><a xlink:href="RotationCenterSkinning_8cpp.html" target="_top" xlink:title="/home/travis/build\l/STORM&#45;IRIT/Radium&#45;Engine\l/src/Core/Animation/Skinning\l/RotationCenterSkinning.cpp">
<polygon fill="white" stroke="black" points="173,-91 173,-143 321,-143 321,-91 173,-91"/>
<text text-anchor="start" x="181" y="-131" font-family="Helvetica,sans-Serif" font-size="10.00">/home/travis/build</text>
<text text-anchor="start" x="181" y="-120" font-family="Helvetica,sans-Serif" font-size="10.00">/STORM&#45;IRIT/Radium&#45;Engine</text>
<text text-anchor="start" x="181" y="-109" font-family="Helvetica,sans-Serif" font-size="10.00">/src/Core/Animation/Skinning</text>
<text text-anchor="middle" x="247" y="-98" font-family="Helvetica,sans-Serif" font-size="10.00">/RotationCenterSkinning.cpp</text>
</a>
</g>
</g>
<!-- Node1&#45;&gt;Node3 -->
<g id="edge2" class="edge"><title>Node1&#45;&gt;Node3</title>
<path fill="none" stroke="midnightblue" d="M691.916,-193.318C598.423,-185.672 453.414,-170.626 330,-144 327.048,-143.363 324.05,-142.667 321.033,-141.925"/>
<polygon fill="midnightblue" stroke="midnightblue" points="691.678,-196.81 701.927,-194.124 692.241,-189.832 691.678,-196.81"/>
</g>
<!-- Node4 -->
<g id="node4" class="node"><title>Node4</title>
<g id="a_node4"><a xlink:href="Dcel_8cpp.html" target="_top" xlink:title="/home/travis/build\l/STORM&#45;IRIT/Radium&#45;Engine\l/src/Core/Mesh/DCEL/Dcel.cpp">
<polygon fill="white" stroke="black" points="339,-96.5 339,-137.5 495,-137.5 495,-96.5 339,-96.5"/>
<text text-anchor="start" x="347" y="-125.5" font-family="Helvetica,sans-Serif" font-size="10.00">/home/travis/build</text>
<text text-anchor="start" x="347" y="-114.5" font-family="Helvetica,sans-Serif" font-size="10.00">/STORM&#45;IRIT/Radium&#45;Engine</text>
<text text-anchor="middle" x="417" y="-103.5" font-family="Helvetica,sans-Serif" font-size="10.00">/src/Core/Mesh/DCEL/Dcel.cpp</text>
</a>
</g>
</g>
<!-- Node1&#45;&gt;Node4 -->
<g id="edge3" class="edge"><title>Node1&#45;&gt;Node4</title>
<path fill="none" stroke="midnightblue" d="M691.691,-183.282C636.374,-173.179 565.984,-159.314 504,-144 496.195,-142.072 488.047,-139.88 480.002,-137.606"/>
<polygon fill="midnightblue" stroke="midnightblue" points="691.375,-186.781 701.839,-185.124 692.625,-179.894 691.375,-186.781"/>
</g>
<!-- Node5 -->
<g id="node5" class="node"><title>Node5</title>
<g id="a_node5"><a xlink:href="FullEdge_8cpp.html" target="_top" xlink:title="/home/travis/build\l/STORM&#45;IRIT/Radium&#45;Engine\l/src/Core/Mesh/DCEL/FullEdge.cpp">
<polygon fill="white" stroke="black" points="513,-96.5 513,-137.5 687,-137.5 687,-96.5 513,-96.5"/>
<text text-anchor="start" x="521" y="-125.5" font-family="Helvetica,sans-Serif" font-size="10.00">/home/travis/build</text>
<text text-anchor="start" x="521" y="-114.5" font-family="Helvetica,sans-Serif" font-size="10.00">/STORM&#45;IRIT/Radium&#45;Engine</text>
<text text-anchor="middle" x="600" y="-103.5" font-family="Helvetica,sans-Serif" font-size="10.00">/src/Core/Mesh/DCEL/FullEdge.cpp</text>
</a>
</g>
</g>
<!-- Node1&#45;&gt;Node5 -->
<g id="edge4" class="edge"><title>Node1&#45;&gt;Node5</title>
<path fill="none" stroke="midnightblue" d="M734.384,-176.304C706.112,-164.038 672.006,-149.241 645.228,-137.623"/>
<polygon fill="midnightblue" stroke="midnightblue" points="733.163,-179.59 743.73,-180.359 735.949,-173.168 733.163,-179.59"/>
</g>
<!-- Node6 -->
<g id="node6" class="node"><title>Node6</title>
<g id="a_node6"><a xlink:href="FullEdge_8inl.html" target="_top" xlink:title="/home/travis/build\l/STORM&#45;IRIT/Radium&#45;Engine\l/src/Core/Mesh/DCEL/FullEdge.inl">
<polygon fill="white" stroke="black" points="705,-96.5 705,-137.5 873,-137.5 873,-96.5 705,-96.5"/>
<text text-anchor="start" x="713" y="-125.5" font-family="Helvetica,sans-Serif" font-size="10.00">/home/travis/build</text>
<text text-anchor="start" x="713" y="-114.5" font-family="Helvetica,sans-Serif" font-size="10.00">/STORM&#45;IRIT/Radium&#45;Engine</text>
<text text-anchor="middle" x="789" y="-103.5" font-family="Helvetica,sans-Serif" font-size="10.00">/src/Core/Mesh/DCEL/FullEdge.inl</text>
</a>
</g>
</g>
<!-- Node1&#45;&gt;Node6 -->
<g id="edge5" class="edge"><title>Node1&#45;&gt;Node6</title>
<path fill="none" stroke="midnightblue" d="M782.466,-169.881C782.03,-159.133 782.254,-147.309 783.138,-137.667"/>
<polygon fill="midnightblue" stroke="midnightblue" points="778.991,-170.394 783.122,-180.15 785.977,-169.947 778.991,-170.394"/>
</g>
<!-- Node7 -->
<g id="node7" class="node"><title>Node7</title>
<g id="a_node7"><a xlink:href="FFEIterator_8inl.html" target="_top" xlink:title="/home/travis/build\l/STORM&#45;IRIT/Radium&#45;Engine\l/src/Core/Mesh/DCEL/Iterator\l/Face/FFEIterator.inl">
<polygon fill="white" stroke="black" points="891,-91 891,-143 1039,-143 1039,-91 891,-91"/>
<text text-anchor="start" x="899" y="-131" font-family="Helvetica,sans-Serif" font-size="10.00">/home/travis/build</text>
<text text-anchor="start" x="899" y="-120" font-family="Helvetica,sans-Serif" font-size="10.00">/STORM&#45;IRIT/Radium&#45;Engine</text>
<text text-anchor="start" x="899" y="-109" font-family="Helvetica,sans-Serif" font-size="10.00">/src/Core/Mesh/DCEL/Iterator</text>
<text text-anchor="middle" x="965" y="-98" font-family="Helvetica,sans-Serif" font-size="10.00">/Face/FFEIterator.inl</text>
</a>
</g>
</g>
<!-- Node1&#45;&gt;Node7 -->
<g id="edge7" class="edge"><title>Node1&#45;&gt;Node7</title>
<path fill="none" stroke="midnightblue" d="M840.431,-176.038C862.662,-165.68 888.682,-153.557 911.174,-143.078"/>
<polygon fill="midnightblue" stroke="midnightblue" points="838.743,-172.963 831.156,-180.359 841.699,-179.308 838.743,-172.963"/>
</g>
<!-- Node9 -->
<g id="node9" class="node"><title>Node9</title>
<g id="a_node9"><a xlink:href="VFEIterator_8inl.html" target="_top" xlink:title="/home/travis/build\l/STORM&#45;IRIT/Radium&#45;Engine\l/src/Core/Mesh/DCEL/Iterator\l/Vertex/VFEIterator.inl">
<polygon fill="white" stroke="black" points="1057,-91 1057,-143 1205,-143 1205,-91 1057,-91"/>
<text text-anchor="start" x="1065" y="-131" font-family="Helvetica,sans-Serif" font-size="10.00">/home/travis/build</text>
<text text-anchor="start" x="1065" y="-120" font-family="Helvetica,sans-Serif" font-size="10.00">/STORM&#45;IRIT/Radium&#45;Engine</text>
<text text-anchor="start" x="1065" y="-109" font-family="Helvetica,sans-Serif" font-size="10.00">/src/Core/Mesh/DCEL/Iterator</text>
<text text-anchor="middle" x="1131" y="-98" font-family="Helvetica,sans-Serif" font-size="10.00">/Vertex/VFEIterator.inl</text>
</a>
</g>
</g>
<!-- Node1&#45;&gt;Node9 -->
<g id="edge10" class="edge"><title>Node1&#45;&gt;Node9</title>
<path fill="none" stroke="midnightblue" d="M886.026,-181.194C934.866,-171.179 994.841,-158.042 1048,-144 1050.92,-143.229 1053.89,-142.419 1056.89,-141.582"/>
<polygon fill="midnightblue" stroke="midnightblue" points="885.196,-177.792 876.097,-183.219 886.594,-184.65 885.196,-177.792"/>
</g>
<!-- Node11 -->
<g id="node11" class="node"><title>Node11</title>
<g id="a_node11"><a xlink:href="DCEL_2Operations_2EdgeSplit_8cpp.html" target="_top" xlink:title="/home/travis/build\l/STORM&#45;IRIT/Radium&#45;Engine\l/src/Core/Mesh/DCEL/Operations\l/EdgeSplit.cpp">
<polygon fill="white" stroke="black" points="1223,-91 1223,-143 1387,-143 1387,-91 1223,-91"/>
<text text-anchor="start" x="1231" y="-131" font-family="Helvetica,sans-Serif" font-size="10.00">/home/travis/build</text>
<text text-anchor="start" x="1231" y="-120" font-family="Helvetica,sans-Serif" font-size="10.00">/STORM&#45;IRIT/Radium&#45;Engine</text>
<text text-anchor="start" x="1231" y="-109" font-family="Helvetica,sans-Serif" font-size="10.00">/src/Core/Mesh/DCEL/Operations</text>
<text text-anchor="middle" x="1305" y="-98" font-family="Helvetica,sans-Serif" font-size="10.00">/EdgeSplit.cpp</text>
</a>
</g>
</g>
<!-- Node1&#45;&gt;Node11 -->
<g id="edge13" class="edge"><title>Node1&#45;&gt;Node11</title>
<path fill="none" stroke="midnightblue" d="M886.395,-191.286C972.982,-182.564 1102.73,-167.096 1214,-144 1216.9,-143.399 1219.83,-142.754 1222.8,-142.074"/>
<polygon fill="midnightblue" stroke="midnightblue" points="885.92,-187.816 876.317,-192.291 886.614,-194.782 885.92,-187.816"/>
</g>
<!-- Node12 -->
<g id="node12" class="node"><title>Node12</title>
<g id="a_node12"><a xlink:href="Convert_8cpp.html" target="_top" xlink:title="/home/travis/build\l/STORM&#45;IRIT/Radium&#45;Engine\l/src/Core/Mesh/Wrapper/Convert.cpp">
<polygon fill="white" stroke="black" points="1405,-96.5 1405,-137.5 1585,-137.5 1585,-96.5 1405,-96.5"/>
<text text-anchor="start" x="1413" y="-125.5" font-family="Helvetica,sans-Serif" font-size="10.00">/home/travis/build</text>
<text text-anchor="start" x="1413" y="-114.5" font-family="Helvetica,sans-Serif" font-size="10.00">/STORM&#45;IRIT/Radium&#45;Engine</text>
<text text-anchor="middle" x="1495" y="-103.5" font-family="Helvetica,sans-Serif" font-size="10.00">/src/Core/Mesh/Wrapper/Convert.cpp</text>
</a>
</g>
</g>
<!-- Node1&#45;&gt;Node12 -->
<g id="edge14" class="edge"><title>Node1&#45;&gt;Node12</title>
<path fill="none" stroke="midnightblue" d="M886.34,-195.966C1006.78,-189.843 1217.76,-175.406 1396,-144 1405.98,-142.242 1416.42,-139.978 1426.62,-137.521"/>
<polygon fill="midnightblue" stroke="midnightblue" points="885.856,-192.486 876.043,-196.481 886.205,-199.477 885.856,-192.486"/>
</g>
<!-- Node6&#45;&gt;Node1 -->
<g id="edge6" class="edge"><title>Node6&#45;&gt;Node1</title>
<path fill="none" stroke="midnightblue" d="M795.526,-147.916C795.97,-158.65 795.754,-170.481 794.878,-180.15"/>
<polygon fill="midnightblue" stroke="midnightblue" points="799.001,-147.42 794.862,-137.667 792.016,-147.873 799.001,-147.42"/>
</g>
<!-- Node8 -->
<g id="node8" class="node"><title>Node8</title>
<g id="a_node8"><a xlink:href="FFEIterator_8hpp.html" target="_top" xlink:title="/home/travis/build\l/STORM&#45;IRIT/Radium&#45;Engine\l/src/Core/Mesh/DCEL/Iterator\l/Face/FFEIterator.hpp">
<polygon fill="white" stroke="black" points="891,-1 891,-53 1039,-53 1039,-1 891,-1"/>
<text text-anchor="start" x="899" y="-41" font-family="Helvetica,sans-Serif" font-size="10.00">/home/travis/build</text>
<text text-anchor="start" x="899" y="-30" font-family="Helvetica,sans-Serif" font-size="10.00">/STORM&#45;IRIT/Radium&#45;Engine</text>
<text text-anchor="start" x="899" y="-19" font-family="Helvetica,sans-Serif" font-size="10.00">/src/Core/Mesh/DCEL/Iterator</text>
<text text-anchor="middle" x="965" y="-8" font-family="Helvetica,sans-Serif" font-size="10.00">/Face/FFEIterator.hpp</text>
</a>
</g>
</g>
<!-- Node7&#45;&gt;Node8 -->
<g id="edge8" class="edge"><title>Node7&#45;&gt;Node8</title>
<path fill="none" stroke="midnightblue" d="M958.363,-80.4892C958.116,-71.3088 958.274,-61.616 958.838,-53.0921"/>
<polygon fill="midnightblue" stroke="midnightblue" points="954.869,-80.7136 958.814,-90.5468 961.862,-80.3999 954.869,-80.7136"/>
</g>
<!-- Node8&#45;&gt;Node7 -->
<g id="edge9" class="edge"><title>Node8&#45;&gt;Node7</title>
<path fill="none" stroke="midnightblue" d="M971.626,-63.1229C971.885,-72.2885 971.738,-81.9903 971.186,-90.5468"/>
<polygon fill="midnightblue" stroke="midnightblue" points="975.121,-62.9197 971.162,-53.0921 968.128,-63.2432 975.121,-62.9197"/>
</g>
<!-- Node10 -->
<g id="node10" class="node"><title>Node10</title>
<g id="a_node10"><a xlink:href="VFEIterator_8hpp.html" target="_top" xlink:title="/home/travis/build\l/STORM&#45;IRIT/Radium&#45;Engine\l/src/Core/Mesh/DCEL/Iterator\l/Vertex/VFEIterator.hpp">
<polygon fill="white" stroke="black" points="1057,-1 1057,-53 1205,-53 1205,-1 1057,-1"/>
<text text-anchor="start" x="1065" y="-41" font-family="Helvetica,sans-Serif" font-size="10.00">/home/travis/build</text>
<text text-anchor="start" x="1065" y="-30" font-family="Helvetica,sans-Serif" font-size="10.00">/STORM&#45;IRIT/Radium&#45;Engine</text>
<text text-anchor="start" x="1065" y="-19" font-family="Helvetica,sans-Serif" font-size="10.00">/src/Core/Mesh/DCEL/Iterator</text>
<text text-anchor="middle" x="1131" y="-8" font-family="Helvetica,sans-Serif" font-size="10.00">/Vertex/VFEIterator.hpp</text>
</a>
</g>
</g>
<!-- Node9&#45;&gt;Node10 -->
<g id="edge11" class="edge"><title>Node9&#45;&gt;Node10</title>
<path fill="none" stroke="midnightblue" d="M1124.36,-80.4892C1124.12,-71.3088 1124.27,-61.616 1124.84,-53.0921"/>
<polygon fill="midnightblue" stroke="midnightblue" points="1120.87,-80.7136 1124.81,-90.5468 1127.86,-80.3999 1120.87,-80.7136"/>
</g>
<!-- Node10&#45;&gt;Node9 -->
<g id="edge12" class="edge"><title>Node10&#45;&gt;Node9</title>
<path fill="none" stroke="midnightblue" d="M1137.63,-63.1229C1137.88,-72.2885 1137.74,-81.9903 1137.19,-90.5468"/>
<polygon fill="midnightblue" stroke="midnightblue" points="1141.12,-62.9197 1137.16,-53.0921 1134.13,-63.2432 1141.12,-62.9197"/>
</g>
</g>
</svg>
