<?xml version="1.0" encoding="UTF-8" standalone="no"?>
<!DOCTYPE svg PUBLIC "-//W3C//DTD SVG 1.1//EN"
 "http://www.w3.org/Graphics/SVG/1.1/DTD/svg11.dtd">
<!-- Generated by graphviz version 2.36.0 (20140111.2315)
 -->
<!-- Title: /home/travis/build/STORM&#45;IRIT/Radium&#45;Engine/src/Core/Mesh/DCEL/FullEdge.hpp Pages: 1 -->
<svg width="1472pt" height="622pt"
 viewBox="0.00 0.00 1472.00 622.00" xmlns="http://www.w3.org/2000/svg" xmlns:xlink="http://www.w3.org/1999/xlink">
<g id="graph0" class="graph" transform="scale(1 1) rotate(0) translate(4 618)">
<title>/home/travis/build/STORM&#45;IRIT/Radium&#45;Engine/src/Core/Mesh/DCEL/FullEdge.hpp</title>
<polygon fill="white" stroke="none" points="-4,4 -4,-618 1468,-618 1468,4 -4,4"/>
<!-- Node1 -->
<g id="node1" class="node"><title>Node1</title>
<polygon fill="#bfbfbf" stroke="black" points="143,-572.5 143,-613.5 317,-613.5 317,-572.5 143,-572.5"/>
<text text-anchor="start" x="151" y="-601.5" font-family="Helvetica,sans-Serif" font-size="10.00">/home/travis/build</text>
<text text-anchor="start" x="151" y="-590.5" font-family="Helvetica,sans-Serif" font-size="10.00">/STORM&#45;IRIT/Radium&#45;Engine</text>
<text text-anchor="middle" x="230" y="-579.5" font-family="Helvetica,sans-Serif" font-size="10.00">/src/Core/Mesh/DCEL/FullEdge.hpp</text>
</g>
<!-- Node2 -->
<g id="node2" class="node"><title>Node2</title>
<g id="a_node2"><a xlink:href="Index_8hpp.html" target="_top" xlink:title="Core/Index/Index.hpp">
<polygon fill="white" stroke="black" points="42,-112.5 42,-131.5 152,-131.5 152,-112.5 42,-112.5"/>
<text text-anchor="middle" x="97" y="-119.5" font-family="Helvetica,sans-Serif" font-size="10.00">Core/Index/Index.hpp</text>
</a>
</g>
</g>
<!-- Node1&#45;&gt;Node2 -->
<g id="edge1" class="edge"><title>Node1&#45;&gt;Node2</title>
<path fill="none" stroke="midnightblue" d="M142.879,-576.887C85.5314,-561.362 21,-530.641 21,-471 21,-471 21,-471 21,-245 21,-201.217 56.699,-160.142 79.1634,-138.63"/>
<polygon fill="midnightblue" stroke="midnightblue" points="81.7804,-140.977 86.7503,-131.62 77.0301,-135.835 81.7804,-140.977"/>
</g>
<!-- Node5 -->
<g id="node5" class="node"><title>Node5</title>
<g id="a_node5"><a xlink:href="IndexedObject_8hpp.html" target="_top" xlink:title="Core/Index/IndexedObject.hpp">
<polygon fill="white" stroke="black" points="488.5,-174.5 488.5,-193.5 637.5,-193.5 637.5,-174.5 488.5,-174.5"/>
<text text-anchor="middle" x="563" y="-181.5" font-family="Helvetica,sans-Serif" font-size="10.00">Core/Index/IndexedObject.hpp</text>
</a>
</g>
</g>
<!-- Node1&#45;&gt;Node5 -->
<g id="edge4" class="edge"><title>Node1&#45;&gt;Node5</title>
<path fill="none" stroke="midnightblue" d="M317.441,-582.883C433.517,-568.306 624,-534.685 624,-471 624,-471 624,-471 624,-301 624,-261.603 596.096,-222.435 578.033,-201.207"/>
<polygon fill="midnightblue" stroke="midnightblue" points="580.47,-198.679 571.227,-193.502 575.224,-203.314 580.47,-198.679"/>
</g>
<!-- Node13 -->
<g id="node13" class="node"><title>Node13</title>
<g id="a_node13"><a xlink:href="Definition_8hpp.html" target="_top" xlink:title="Core/Mesh/DCEL/Definition.hpp">
<polygon fill="white" stroke="black" points="313,-174.5 313,-193.5 471,-193.5 471,-174.5 313,-174.5"/>
<text text-anchor="middle" x="392" y="-181.5" font-family="Helvetica,sans-Serif" font-size="10.00">Core/Mesh/DCEL/Definition.hpp</text>
</a>
</g>
</g>
<!-- Node1&#45;&gt;Node13 -->
<g id="edge13" class="edge"><title>Node1&#45;&gt;Node13</title>
<path fill="none" stroke="midnightblue" d="M317.316,-576.439C411.456,-557.114 548,-520.545 548,-471 548,-471 548,-471 548,-301 548,-244.402 481.06,-212.178 434.879,-196.682"/>
<polygon fill="midnightblue" stroke="midnightblue" points="435.675,-193.261 425.084,-193.538 433.536,-199.927 435.675,-193.261"/>
</g>
<!-- Node16 -->
<g id="node16" class="node"><title>Node16</title>
<g id="a_node16"><a xlink:href="FullEdge_8inl.html" target="_top" xlink:title="Core/Mesh/DCEL/FullEdge.inl">
<polygon fill="white" stroke="black" points="155.5,-516.5 155.5,-535.5 304.5,-535.5 304.5,-516.5 155.5,-516.5"/>
<text text-anchor="middle" x="230" y="-523.5" font-family="Helvetica,sans-Serif" font-size="10.00">Core/Mesh/DCEL/FullEdge.inl</text>
</a>
</g>
</g>
<!-- Node1&#45;&gt;Node16 -->
<g id="edge16" class="edge"><title>Node1&#45;&gt;Node16</title>
<path fill="none" stroke="midnightblue" d="M223.755,-572.498C223.057,-563.969 223.083,-554.011 223.833,-545.59"/>
<polygon fill="midnightblue" stroke="midnightblue" points="227.303,-546.044 225.236,-535.652 220.372,-545.065 227.303,-546.044"/>
</g>
<!-- Node3 -->
<g id="node3" class="node"><title>Node3</title>
<polygon fill="white" stroke="#bfbfbf" points="122,-56.5 122,-75.5 162,-75.5 162,-56.5 122,-56.5"/>
<text text-anchor="middle" x="142" y="-63.5" font-family="Helvetica,sans-Serif" font-size="10.00">limits</text>
</g>
<!-- Node2&#45;&gt;Node3 -->
<g id="edge2" class="edge"><title>Node2&#45;&gt;Node3</title>
<path fill="none" stroke="midnightblue" d="M104.431,-112.083C110.853,-104.377 120.306,-93.0333 128.122,-83.6531"/>
<polygon fill="midnightblue" stroke="midnightblue" points="130.994,-85.674 134.707,-75.7511 125.617,-81.1927 130.994,-85.674"/>
</g>
<!-- Node4 -->
<g id="node4" class="node"><title>Node4</title>
<g id="a_node4"><a xlink:href="Index_8inl.html" target="_top" xlink:title="Core/Index/Index.inl">
<polygon fill="white" stroke="black" points="0,-56.5 0,-75.5 104,-75.5 104,-56.5 0,-56.5"/>
<text text-anchor="middle" x="52" y="-63.5" font-family="Helvetica,sans-Serif" font-size="10.00">Core/Index/Index.inl</text>
</a>
</g>
</g>
<!-- Node2&#45;&gt;Node4 -->
<g id="edge3" class="edge"><title>Node2&#45;&gt;Node4</title>
<path fill="none" stroke="midnightblue" d="M89.5692,-112.083C83.1473,-104.377 73.6944,-93.0333 65.8775,-83.6531"/>
<polygon fill="midnightblue" stroke="midnightblue" points="68.3832,-81.1927 59.2926,-75.7511 63.0057,-85.674 68.3832,-81.1927"/>
</g>
<!-- Node5&#45;&gt;Node2 -->
<g id="edge5" class="edge"><title>Node5&#45;&gt;Node2</title>
<path fill="none" stroke="midnightblue" d="M518.179,-174.488C505.534,-172.225 491.749,-169.888 479,-168 368.276,-151.607 238.782,-137.389 162.565,-129.526"/>
<polygon fill="midnightblue" stroke="midnightblue" points="162.477,-125.999 152.172,-128.459 161.762,-132.962 162.477,-125.999"/>
</g>
<!-- Node6 -->
<g id="node6" class="node"><title>Node6</title>
<g id="a_node6"><a xlink:href="RaCore_8hpp.html" target="_top" xlink:title="Core/RaCore.hpp">
<polygon fill="white" stroke="black" points="679.5,-112.5 679.5,-131.5 772.5,-131.5 772.5,-112.5 679.5,-112.5"/>
<text text-anchor="middle" x="726" y="-119.5" font-family="Helvetica,sans-Serif" font-size="10.00">Core/RaCore.hpp</text>
</a>
</g>
</g>
<!-- Node5&#45;&gt;Node6 -->
<g id="edge6" class="edge"><title>Node5&#45;&gt;Node6</title>
<path fill="none" stroke="midnightblue" d="M586.354,-174.403C614.314,-164.111 661.326,-146.806 692.991,-135.15"/>
<polygon fill="midnightblue" stroke="midnightblue" points="694.514,-138.32 702.689,-131.581 692.096,-131.75 694.514,-138.32"/>
</g>
<!-- Node7 -->
<g id="node7" class="node"><title>Node7</title>
<g id="a_node7"><a xlink:href="CoreMacros_8hpp.html" target="_top" xlink:title="Core/CoreMacros.hpp">
<polygon fill="white" stroke="black" points="669.5,-56.5 669.5,-75.5 782.5,-75.5 782.5,-56.5 669.5,-56.5"/>
<text text-anchor="middle" x="726" y="-63.5" font-family="Helvetica,sans-Serif" font-size="10.00">Core/CoreMacros.hpp</text>
</a>
</g>
</g>
<!-- Node6&#45;&gt;Node7 -->
<g id="edge7" class="edge"><title>Node6&#45;&gt;Node7</title>
<path fill="none" stroke="midnightblue" d="M726,-112.083C726,-105.006 726,-94.8611 726,-85.9865"/>
<polygon fill="midnightblue" stroke="midnightblue" points="729.5,-85.751 726,-75.7511 722.5,-85.7511 729.5,-85.751"/>
</g>
<!-- Node8 -->
<g id="node8" class="node"><title>Node8</title>
<polygon fill="white" stroke="#bfbfbf" points="570.5,-0.5 570.5,-19.5 619.5,-19.5 619.5,-0.5 570.5,-0.5"/>
<text text-anchor="middle" x="595" y="-7.5" font-family="Helvetica,sans-Serif" font-size="10.00">cassert</text>
</g>
<!-- Node7&#45;&gt;Node8 -->
<g id="edge8" class="edge"><title>Node7&#45;&gt;Node8</title>
<path fill="none" stroke="midnightblue" d="M705.243,-56.4435C683.684,-47.5566 649.737,-33.5632 625.206,-23.4514"/>
<polygon fill="midnightblue" stroke="midnightblue" points="626.239,-20.0917 615.66,-19.5164 623.572,-26.5634 626.239,-20.0917"/>
</g>
<!-- Node9 -->
<g id="node9" class="node"><title>Node9</title>
<polygon fill="white" stroke="#bfbfbf" points="637.5,-0.5 637.5,-19.5 680.5,-19.5 680.5,-0.5 637.5,-0.5"/>
<text text-anchor="middle" x="659" y="-7.5" font-family="Helvetica,sans-Serif" font-size="10.00">cstdio</text>
</g>
<!-- Node7&#45;&gt;Node9 -->
<g id="edge9" class="edge"><title>Node7&#45;&gt;Node9</title>
<path fill="none" stroke="midnightblue" d="M715.235,-56.324C705.234,-48.2631 690.113,-36.0765 678.07,-26.3695"/>
<polygon fill="midnightblue" stroke="midnightblue" points="679.943,-23.3841 669.961,-19.8339 675.55,-28.8343 679.943,-23.3841"/>
</g>
<!-- Node10 -->
<g id="node10" class="node"><title>Node10</title>
<polygon fill="white" stroke="#bfbfbf" points="699,-0.5 699,-19.5 753,-19.5 753,-0.5 699,-0.5"/>
<text text-anchor="middle" x="726" y="-7.5" font-family="Helvetica,sans-Serif" font-size="10.00">iostream</text>
</g>
<!-- Node7&#45;&gt;Node10 -->
<g id="edge10" class="edge"><title>Node7&#45;&gt;Node10</title>
<path fill="none" stroke="midnightblue" d="M726,-56.083C726,-49.0059 726,-38.8611 726,-29.9865"/>
<polygon fill="midnightblue" stroke="midnightblue" points="729.5,-29.751 726,-19.7511 722.5,-29.7511 729.5,-29.751"/>
</g>
<!-- Node11 -->
<g id="node11" class="node"><title>Node11</title>
<polygon fill="white" stroke="#bfbfbf" points="771,-0.5 771,-19.5 823,-19.5 823,-0.5 771,-0.5"/>
<text text-anchor="middle" x="797" y="-7.5" font-family="Helvetica,sans-Serif" font-size="10.00">sstream</text>
</g>
<!-- Node7&#45;&gt;Node11 -->
<g id="edge11" class="edge"><title>Node7&#45;&gt;Node11</title>
<path fill="none" stroke="midnightblue" d="M737.407,-56.324C748.109,-48.1849 764.341,-35.8395 777.163,-26.0874"/>
<polygon fill="midnightblue" stroke="midnightblue" points="779.544,-28.6734 785.385,-19.8339 775.307,-23.1018 779.544,-28.6734"/>
</g>
<!-- Node12 -->
<g id="node12" class="node"><title>Node12</title>
<polygon fill="white" stroke="#bfbfbf" points="841,-0.5 841,-19.5 885,-19.5 885,-0.5 841,-0.5"/>
<text text-anchor="middle" x="863" y="-7.5" font-family="Helvetica,sans-Serif" font-size="10.00">thread</text>
</g>
<!-- Node7&#45;&gt;Node12 -->
<g id="edge12" class="edge"><title>Node7&#45;&gt;Node12</title>
<path fill="none" stroke="midnightblue" d="M747.708,-56.4435C770.355,-47.5171 806.072,-33.4387 831.752,-23.3168"/>
<polygon fill="midnightblue" stroke="midnightblue" points="833.374,-26.4397 841.394,-19.5164 830.807,-19.9273 833.374,-26.4397"/>
</g>
<!-- Node14 -->
<g id="node14" class="node"><title>Node14</title>
<polygon fill="white" stroke="#bfbfbf" points="399,-112.5 399,-131.5 451,-131.5 451,-112.5 399,-112.5"/>
<text text-anchor="middle" x="425" y="-119.5" font-family="Helvetica,sans-Serif" font-size="10.00">memory</text>
</g>
<!-- Node13&#45;&gt;Node14 -->
<g id="edge14" class="edge"><title>Node13&#45;&gt;Node14</title>
<path fill="none" stroke="midnightblue" d="M396.728,-174.403C401.58,-165.582 409.266,-151.608 415.4,-140.455"/>
<polygon fill="midnightblue" stroke="midnightblue" points="418.528,-142.029 420.281,-131.581 412.395,-138.656 418.528,-142.029"/>
</g>
<!-- Node15 -->
<g id="node15" class="node"><title>Node15</title>
<polygon fill="white" stroke="#bfbfbf" points="337,-112.5 337,-131.5 381,-131.5 381,-112.5 337,-112.5"/>
<text text-anchor="middle" x="359" y="-119.5" font-family="Helvetica,sans-Serif" font-size="10.00">vector</text>
</g>
<!-- Node13&#45;&gt;Node15 -->
<g id="edge15" class="edge"><title>Node13&#45;&gt;Node15</title>
<path fill="none" stroke="midnightblue" d="M387.272,-174.403C382.42,-165.582 374.734,-151.608 368.6,-140.455"/>
<polygon fill="midnightblue" stroke="midnightblue" points="371.605,-138.656 363.719,-131.581 365.472,-142.029 371.605,-138.656"/>
</g>
<!-- Node16&#45;&gt;Node1 -->
<g id="edge17" class="edge"><title>Node16&#45;&gt;Node1</title>
<path fill="none" stroke="midnightblue" d="M234.764,-535.652C236.227,-542.524 236.881,-552.559 236.728,-562.263"/>
<polygon fill="midnightblue" stroke="midnightblue" points="233.221,-562.344 236.245,-572.498 240.213,-562.674 233.221,-562.344"/>
</g>
<!-- Node17 -->
<g id="node17" class="node"><title>Node17</title>
<g id="a_node17"><a xlink:href="Face_8hpp.html" target="_top" xlink:title="Core/Mesh/DCEL/Face.hpp">
<polygon fill="white" stroke="black" points="208,-236.5 208,-255.5 346,-255.5 346,-236.5 208,-236.5"/>
<text text-anchor="middle" x="277" y="-243.5" font-family="Helvetica,sans-Serif" font-size="10.00">Core/Mesh/DCEL/Face.hpp</text>
</a>
</g>
</g>
<!-- Node16&#45;&gt;Node17 -->
<g id="edge18" class="edge"><title>Node16&#45;&gt;Node17</title>
<path fill="none" stroke="midnightblue" d="M224.338,-516.459C218.857,-507.707 210.83,-493.505 207,-480 190.956,-423.428 180.389,-404.104 198,-348 209.084,-312.689 239.089,-280.645 258.766,-262.517"/>
<polygon fill="midnightblue" stroke="midnightblue" points="261.351,-264.901 266.481,-255.631 256.69,-259.679 261.351,-264.901"/>
</g>
<!-- Node19 -->
<g id="node19" class="node"><title>Node19</title>
<g id="a_node19"><a xlink:href="DCEL_2HalfEdge_8hpp.html" target="_top" xlink:title="Core/Mesh/DCEL/HalfEdge.hpp">
<polygon fill="white" stroke="black" points="207.5,-348.5 207.5,-367.5 364.5,-367.5 364.5,-348.5 207.5,-348.5"/>
<text text-anchor="middle" x="286" y="-355.5" font-family="Helvetica,sans-Serif" font-size="10.00">Core/Mesh/DCEL/HalfEdge.hpp</text>
</a>
</g>
</g>
<!-- Node16&#45;&gt;Node19 -->
<g id="edge52" class="edge"><title>Node16&#45;&gt;Node19</title>
<path fill="none" stroke="midnightblue" d="M226.191,-516.448C217.578,-495.731 198.86,-441.788 219,-404 226.55,-389.834 240.761,-379.335 254.158,-372.058"/>
<polygon fill="midnightblue" stroke="midnightblue" points="255.834,-375.133 263.212,-367.529 252.702,-368.872 255.834,-375.133"/>
</g>
<!-- Node21 -->
<g id="node21" class="node"><title>Node21</title>
<g id="a_node21"><a xlink:href="Vertex_8hpp.html" target="_top" xlink:title="Core/Mesh/DCEL/Vertex.hpp">
<polygon fill="white" stroke="black" points="274.5,-460.5 274.5,-479.5 419.5,-479.5 419.5,-460.5 274.5,-460.5"/>
<text text-anchor="middle" x="347" y="-467.5" font-family="Helvetica,sans-Serif" font-size="10.00">Core/Mesh/DCEL/Vertex.hpp</text>
</a>
</g>
</g>
<!-- Node16&#45;&gt;Node21 -->
<g id="edge53" class="edge"><title>Node16&#45;&gt;Node21</title>
<path fill="none" stroke="midnightblue" d="M248.539,-516.444C267.623,-507.636 297.575,-493.812 319.436,-483.722"/>
<polygon fill="midnightblue" stroke="midnightblue" points="320.935,-486.885 328.548,-479.516 318.001,-480.529 320.935,-486.885"/>
</g>
<!-- Node17&#45;&gt;Node2 -->
<g id="edge19" class="edge"><title>Node17&#45;&gt;Node2</title>
<path fill="none" stroke="midnightblue" d="M278.545,-236.358C280.821,-220.655 283.127,-187.284 266,-168 252.03,-152.271 203.665,-140.385 162.235,-132.79"/>
<polygon fill="midnightblue" stroke="midnightblue" points="162.61,-129.302 152.152,-130.999 161.385,-136.194 162.61,-129.302"/>
</g>
<!-- Node17&#45;&gt;Node5 -->
<g id="edge20" class="edge"><title>Node17&#45;&gt;Node5</title>
<path fill="none" stroke="midnightblue" d="M317.673,-236.467C368.922,-225.716 456.994,-207.239 512.498,-195.595"/>
<polygon fill="midnightblue" stroke="midnightblue" points="513.399,-198.982 522.467,-193.503 511.962,-192.131 513.399,-198.982"/>
</g>
<!-- Node17&#45;&gt;Node13 -->
<g id="edge21" class="edge"><title>Node17&#45;&gt;Node13</title>
<path fill="none" stroke="midnightblue" d="M293.477,-236.403C312.605,-226.423 344.373,-209.849 366.652,-198.225"/>
<polygon fill="midnightblue" stroke="midnightblue" points="368.307,-201.309 375.554,-193.581 365.069,-195.103 368.307,-201.309"/>
</g>
<!-- Node18 -->
<g id="node18" class="node"><title>Node18</title>
<g id="a_node18"><a xlink:href="Face_8inl.html" target="_top" xlink:title="Core/Mesh/DCEL/Face.inl">
<polygon fill="white" stroke="black" points="125,-174.5 125,-193.5 257,-193.5 257,-174.5 125,-174.5"/>
<text text-anchor="middle" x="191" y="-181.5" font-family="Helvetica,sans-Serif" font-size="10.00">Core/Mesh/DCEL/Face.inl</text>
</a>
</g>
</g>
<!-- Node17&#45;&gt;Node18 -->
<g id="edge22" class="edge"><title>Node17&#45;&gt;Node18</title>
<path fill="none" stroke="midnightblue" d="M259.778,-236.403C244.049,-226.869 221.418,-211.315 206.315,-199.811"/>
<polygon fill="midnightblue" stroke="midnightblue" points="208.424,-197.016 198.402,-193.581 204.094,-202.516 208.424,-197.016"/>
</g>
<!-- Node18&#45;&gt;Node17 -->
<g id="edge23" class="edge"><title>Node18&#45;&gt;Node17</title>
<path fill="none" stroke="midnightblue" d="M208.196,-193.581C223.917,-203.109 246.548,-218.661 261.659,-230.17"/>
<polygon fill="midnightblue" stroke="midnightblue" points="259.556,-232.969 269.579,-236.403 263.886,-227.468 259.556,-232.969"/>
</g>
<!-- Node18&#45;&gt;Node19 -->
<g id="edge24" class="edge"><title>Node18&#45;&gt;Node19</title>
<path fill="none" stroke="midnightblue" d="M189.971,-193.693C187.835,-215.772 185.148,-274.881 212,-312 222.266,-326.191 238.51,-336.784 253.167,-344.116"/>
<polygon fill="midnightblue" stroke="midnightblue" points="251.949,-347.41 262.491,-348.468 254.91,-341.067 251.949,-347.41"/>
</g>
<!-- Node19&#45;&gt;Node2 -->
<g id="edge25" class="edge"><title>Node19&#45;&gt;Node2</title>
<path fill="none" stroke="midnightblue" d="M262.167,-348.371C243.365,-340.77 217.199,-328.361 198,-312 151.044,-271.985 142.107,-255.897 116,-200 107.279,-181.328 102.261,-158.169 99.597,-142.152"/>
<polygon fill="midnightblue" stroke="midnightblue" points="103.006,-141.285 98.054,-131.918 96.084,-142.328 103.006,-141.285"/>
</g>
<!-- Node19&#45;&gt;Node5 -->
<g id="edge26" class="edge"><title>Node19&#45;&gt;Node5</title>
<path fill="none" stroke="midnightblue" d="M322.503,-348.454C349.108,-341.232 385.358,-329.276 414,-312 456.549,-286.335 457.964,-267.975 496,-236 511.237,-223.191 529.222,-209.579 542.719,-199.642"/>
<polygon fill="midnightblue" stroke="midnightblue" points="544.858,-202.414 550.867,-193.688 540.728,-196.762 544.858,-202.414"/>
</g>
<!-- Node19&#45;&gt;Node13 -->
<g id="edge27" class="edge"><title>Node19&#45;&gt;Node13</title>
<path fill="none" stroke="midnightblue" d="M273.578,-348.356C256.901,-335.68 230.905,-311.444 245,-292 275.192,-250.352 315.767,-289.27 355,-256 371.193,-242.268 381.235,-219.645 386.701,-203.631"/>
<polygon fill="midnightblue" stroke="midnightblue" points="390.134,-204.379 389.774,-193.79 383.452,-202.292 390.134,-204.379"/>
</g>
<!-- Node20 -->
<g id="node20" class="node"><title>Node20</title>
<g id="a_node20"><a xlink:href="DCEL_2HalfEdge_8inl.html" target="_top" xlink:title="Core/Mesh/DCEL/HalfEdge.inl">
<polygon fill="white" stroke="black" points="254.5,-292.5 254.5,-311.5 405.5,-311.5 405.5,-292.5 254.5,-292.5"/>
<text text-anchor="middle" x="330" y="-299.5" font-family="Helvetica,sans-Serif" font-size="10.00">Core/Mesh/DCEL/HalfEdge.inl</text>
</a>
</g>
</g>
<!-- Node19&#45;&gt;Node20 -->
<g id="edge28" class="edge"><title>Node19&#45;&gt;Node20</title>
<path fill="none" stroke="midnightblue" d="M288.099,-348.083C292.848,-340.22 301.985,-328.569 310.663,-319.081"/>
<polygon fill="midnightblue" stroke="midnightblue" points="313.312,-321.377 317.738,-311.751 308.275,-316.516 313.312,-321.377"/>
</g>
<!-- Node20&#45;&gt;Node17 -->
<g id="edge30" class="edge"><title>Node20&#45;&gt;Node17</title>
<path fill="none" stroke="midnightblue" d="M321.248,-292.083C313.53,-284.22 302.095,-272.569 292.783,-263.081"/>
<polygon fill="midnightblue" stroke="midnightblue" points="295.092,-260.436 285.589,-255.751 290.096,-265.34 295.092,-260.436"/>
</g>
<!-- Node20&#45;&gt;Node19 -->
<g id="edge29" class="edge"><title>Node20&#45;&gt;Node19</title>
<path fill="none" stroke="midnightblue" d="M328,-311.751C323.314,-319.561 314.205,-331.2 305.52,-340.718"/>
<polygon fill="midnightblue" stroke="midnightblue" points="302.844,-338.451 298.432,-348.083 307.888,-343.305 302.844,-338.451"/>
</g>
<!-- Node20&#45;&gt;Node21 -->
<g id="edge31" class="edge"><title>Node20&#45;&gt;Node21</title>
<path fill="none" stroke="midnightblue" d="M342.297,-311.782C352.545,-319.887 366.482,-332.924 373,-348 381.04,-366.595 380.463,-408.834 376,-424 372.988,-434.235 366.845,-444.34 360.986,-452.373"/>
<polygon fill="midnightblue" stroke="midnightblue" points="358.068,-450.423 354.673,-460.459 363.586,-454.731 358.068,-450.423"/>
</g>
<!-- Node21&#45;&gt;Node2 -->
<g id="edge32" class="edge"><title>Node21&#45;&gt;Node2</title>
<path fill="none" stroke="midnightblue" d="M297.031,-460.49C271.363,-454.031 240.956,-442.904 219,-424 133.884,-350.715 131.335,-308.419 102,-200 96.7632,-180.646 95.9408,-157.602 96.1609,-141.799"/>
<polygon fill="midnightblue" stroke="midnightblue" points="99.6616,-141.827 96.4573,-131.728 92.6646,-141.621 99.6616,-141.827"/>
</g>
<!-- Node21&#45;&gt;Node5 -->
<g id="edge33" class="edge"><title>Node21&#45;&gt;Node5</title>
<path fill="none" stroke="midnightblue" d="M387.292,-460.434C435.561,-447.533 510,-418.062 510,-359 510,-359 510,-359 510,-301 510,-262.834 534.029,-223.472 549.728,-201.829"/>
<polygon fill="midnightblue" stroke="midnightblue" points="552.635,-203.788 555.852,-193.694 547.042,-199.579 552.635,-203.788"/>
</g>
<!-- Node21&#45;&gt;Node13 -->
<g id="edge48" class="edge"><title>Node21&#45;&gt;Node13</title>
<path fill="none" stroke="midnightblue" d="M360.978,-460.321C385.571,-443.848 434,-405.505 434,-359 434,-359 434,-359 434,-301 434,-264.224 415.106,-224.597 402.663,-202.487"/>
<polygon fill="midnightblue" stroke="midnightblue" points="405.557,-200.503 397.491,-193.634 399.513,-204.034 405.557,-200.503"/>
</g>
<!-- Node22 -->
<g id="node22" class="node"><title>Node22</title>
<g id="a_node22"><a xlink:href="LinearAlgebra_8hpp.html" target="_top" xlink:title="Core/Math/LinearAlgebra.hpp">
<polygon fill="white" stroke="black" points="934.5,-236.5 934.5,-255.5 1077.5,-255.5 1077.5,-236.5 934.5,-236.5"/>
<text text-anchor="middle" x="1006" y="-243.5" font-family="Helvetica,sans-Serif" font-size="10.00">Core/Math/LinearAlgebra.hpp</text>
</a>
</g>
</g>
<!-- Node21&#45;&gt;Node22 -->
<g id="edge34" class="edge"><title>Node21&#45;&gt;Node22</title>
<path fill="none" stroke="midnightblue" d="M385.296,-460.466C421.362,-452.146 476.753,-438.638 524,-424 697.578,-370.221 900.341,-289.859 975.75,-259.349"/>
<polygon fill="midnightblue" stroke="midnightblue" points="977.172,-262.549 985.123,-255.547 974.541,-256.062 977.172,-262.549"/>
</g>
<!-- Node33 -->
<g id="node33" class="node"><title>Node33</title>
<g id="a_node33"><a xlink:href="Vertex_8inl.html" target="_top" xlink:title="Core/Mesh/DCEL/Vertex.inl">
<polygon fill="white" stroke="black" points="228.5,-404.5 228.5,-423.5 367.5,-423.5 367.5,-404.5 228.5,-404.5"/>
<text text-anchor="middle" x="298" y="-411.5" font-family="Helvetica,sans-Serif" font-size="10.00">Core/Mesh/DCEL/Vertex.inl</text>
</a>
</g>
</g>
<!-- Node21&#45;&gt;Node33 -->
<g id="edge49" class="edge"><title>Node21&#45;&gt;Node33</title>
<path fill="none" stroke="midnightblue" d="M334.012,-460.324C325.393,-452.654 314.648,-441.25 306.942,-431.8"/>
<polygon fill="midnightblue" stroke="midnightblue" points="309.714,-429.663 300.867,-423.834 304.148,-433.908 309.714,-429.663"/>
</g>
<!-- Node22&#45;&gt;Node6 -->
<g id="edge35" class="edge"><title>Node22&#45;&gt;Node6</title>
<path fill="none" stroke="midnightblue" d="M952.686,-236.495C919.053,-229.716 875.433,-218.263 840,-200 820.07,-189.727 819.329,-180.914 801,-168 784.911,-156.665 765.889,-145.273 751.028,-136.787"/>
<polygon fill="midnightblue" stroke="midnightblue" points="752.365,-133.523 741.935,-131.66 748.927,-139.62 752.365,-133.523"/>
</g>
<!-- Node23 -->
<g id="node23" class="node"><title>Node23</title>
<polygon fill="white" stroke="#bfbfbf" points="973.5,-174.5 973.5,-193.5 1038.5,-193.5 1038.5,-174.5 973.5,-174.5"/>
<text text-anchor="middle" x="1006" y="-181.5" font-family="Helvetica,sans-Serif" font-size="10.00">Eigen/Core</text>
</g>
<!-- Node22&#45;&gt;Node23 -->
<g id="edge36" class="edge"><title>Node22&#45;&gt;Node23</title>
<path fill="none" stroke="midnightblue" d="M1006,-236.403C1006,-227.938 1006,-214.728 1006,-203.82"/>
<polygon fill="midnightblue" stroke="midnightblue" points="1009.5,-203.581 1006,-193.581 1002.5,-203.581 1009.5,-203.581"/>
</g>
<!-- Node24 -->
<g id="node24" class="node"><title>Node24</title>
<polygon fill="white" stroke="#bfbfbf" points="1056.5,-174.5 1056.5,-193.5 1143.5,-193.5 1143.5,-174.5 1056.5,-174.5"/>
<text text-anchor="middle" x="1100" y="-181.5" font-family="Helvetica,sans-Serif" font-size="10.00">Eigen/Geometry</text>
</g>
<!-- Node22&#45;&gt;Node24 -->
<g id="edge37" class="edge"><title>Node22&#45;&gt;Node24</title>
<path fill="none" stroke="midnightblue" d="M1019.47,-236.403C1034.68,-226.691 1059.69,-210.732 1077.8,-199.17"/>
<polygon fill="midnightblue" stroke="midnightblue" points="1080.01,-201.911 1086.56,-193.581 1076.24,-196.011 1080.01,-201.911"/>
</g>
<!-- Node25 -->
<g id="node25" class="node"><title>Node25</title>
<polygon fill="white" stroke="#bfbfbf" points="1161.5,-174.5 1161.5,-193.5 1236.5,-193.5 1236.5,-174.5 1161.5,-174.5"/>
<text text-anchor="middle" x="1199" y="-181.5" font-family="Helvetica,sans-Serif" font-size="10.00">Eigen/Sparse</text>
</g>
<!-- Node22&#45;&gt;Node25 -->
<g id="edge38" class="edge"><title>Node22&#45;&gt;Node25</title>
<path fill="none" stroke="midnightblue" d="M1034.01,-236.456C1063.43,-227.465 1111,-212.86 1152,-200 1155.37,-198.943 1158.88,-197.836 1162.38,-196.725"/>
<polygon fill="midnightblue" stroke="midnightblue" points="1163.7,-199.979 1172.17,-193.613 1161.58,-193.308 1163.7,-199.979"/>
</g>
<!-- Node26 -->
<g id="node26" class="node"><title>Node26</title>
<polygon fill="white" stroke="#bfbfbf" points="1254.5,-174.5 1254.5,-193.5 1313.5,-193.5 1313.5,-174.5 1254.5,-174.5"/>
<text text-anchor="middle" x="1284" y="-181.5" font-family="Helvetica,sans-Serif" font-size="10.00">functional</text>
</g>
<!-- Node22&#45;&gt;Node26 -->
<g id="edge39" class="edge"><title>Node22&#45;&gt;Node26</title>
<path fill="none" stroke="midnightblue" d="M1068.11,-236.464C1116.78,-229.021 1185.9,-216.779 1245,-200 1247.97,-199.155 1251.04,-198.176 1254.08,-197.131"/>
<polygon fill="midnightblue" stroke="midnightblue" points="1255.4,-200.374 1263.59,-193.648 1253,-193.801 1255.4,-200.374"/>
</g>
<!-- Node27 -->
<g id="node27" class="node"><title>Node27</title>
<polygon fill="white" stroke="#bfbfbf" points="1331.5,-169 1331.5,-199 1464.5,-199 1464.5,-169 1331.5,-169"/>
<text text-anchor="start" x="1339.5" y="-187" font-family="Helvetica,sans-Serif" font-size="10.00">unsupported/Eigen/Aligned</text>
<text text-anchor="middle" x="1398" y="-176" font-family="Helvetica,sans-Serif" font-size="10.00">Vector3</text>
</g>
<!-- Node22&#45;&gt;Node27 -->
<g id="edge40" class="edge"><title>Node22&#45;&gt;Node27</title>
<path fill="none" stroke="midnightblue" d="M1073.35,-236.469C1135.19,-228.395 1229.58,-215.464 1321.3,-200.065"/>
<polygon fill="midnightblue" stroke="midnightblue" points="1322.03,-203.49 1331.31,-198.372 1320.87,-196.588 1322.03,-203.49"/>
</g>
<!-- Node28 -->
<g id="node28" class="node"><title>Node28</title>
<g id="a_node28"><a xlink:href="Math_8hpp.html" target="_top" xlink:title="Core/Math/Math.hpp">
<polygon fill="white" stroke="black" points="849,-174.5 849,-193.5 955,-193.5 955,-174.5 849,-174.5"/>
<text text-anchor="middle" x="902" y="-181.5" font-family="Helvetica,sans-Serif" font-size="10.00">Core/Math/Math.hpp</text>
</a>
</g>
</g>
<!-- Node22&#45;&gt;Node28 -->
<g id="edge41" class="edge"><title>Node22&#45;&gt;Node28</title>
<path fill="none" stroke="midnightblue" d="M991.099,-236.403C974.032,-226.557 945.839,-210.291 925.738,-198.695"/>
<polygon fill="midnightblue" stroke="midnightblue" points="927.284,-195.546 916.873,-193.581 923.786,-201.61 927.284,-195.546"/>
</g>
<!-- Node32 -->
<g id="node32" class="node"><title>Node32</title>
<g id="a_node32"><a xlink:href="LinearAlgebra_8inl.html" target="_top" xlink:title="Core/Math/LinearAlgebra.inl">
<polygon fill="white" stroke="black" points="655.5,-174.5 655.5,-193.5 792.5,-193.5 792.5,-174.5 655.5,-174.5"/>
<text text-anchor="middle" x="724" y="-181.5" font-family="Helvetica,sans-Serif" font-size="10.00">Core/Math/LinearAlgebra.inl</text>
</a>
</g>
</g>
<!-- Node22&#45;&gt;Node32 -->
<g id="edge47" class="edge"><title>Node22&#45;&gt;Node32</title>
<path fill="none" stroke="midnightblue" d="M965.896,-236.467C915.363,-225.716 828.524,-207.239 773.795,-195.595"/>
<polygon fill="midnightblue" stroke="midnightblue" points="774.475,-192.161 763.966,-193.503 773.019,-199.008 774.475,-192.161"/>
</g>
<!-- Node28&#45;&gt;Node6 -->
<g id="edge42" class="edge"><title>Node28&#45;&gt;Node6</title>
<path fill="none" stroke="midnightblue" d="M876.783,-174.403C846.332,-164.022 794.951,-146.506 760.757,-134.849"/>
<polygon fill="midnightblue" stroke="midnightblue" points="761.764,-131.495 751.17,-131.581 759.505,-138.12 761.764,-131.495"/>
</g>
<!-- Node29 -->
<g id="node29" class="node"><title>Node29</title>
<polygon fill="white" stroke="#bfbfbf" points="970,-112.5 970,-131.5 1026,-131.5 1026,-112.5 970,-112.5"/>
<text text-anchor="middle" x="998" y="-119.5" font-family="Helvetica,sans-Serif" font-size="10.00">algorithm</text>
</g>
<!-- Node28&#45;&gt;Node29 -->
<g id="edge43" class="edge"><title>Node28&#45;&gt;Node29</title>
<path fill="none" stroke="midnightblue" d="M915.754,-174.403C931.366,-164.646 957.063,-148.585 975.583,-137.011"/>
<polygon fill="midnightblue" stroke="midnightblue" points="977.646,-139.849 984.271,-131.581 973.936,-133.913 977.646,-139.849"/>
</g>
<!-- Node30 -->
<g id="node30" class="node"><title>Node30</title>
<polygon fill="white" stroke="#bfbfbf" points="790,-112.5 790,-131.5 834,-131.5 834,-112.5 790,-112.5"/>
<text text-anchor="middle" x="812" y="-119.5" font-family="Helvetica,sans-Serif" font-size="10.00">cmath</text>
</g>
<!-- Node28&#45;&gt;Node30 -->
<g id="edge44" class="edge"><title>Node28&#45;&gt;Node30</title>
<path fill="none" stroke="midnightblue" d="M889.105,-174.403C874.536,-164.691 850.598,-148.732 833.255,-137.17"/>
<polygon fill="midnightblue" stroke="midnightblue" points="835.133,-134.215 824.871,-131.581 831.25,-140.04 835.133,-134.215"/>
</g>
<!-- Node31 -->
<g id="node31" class="node"><title>Node31</title>
<g id="a_node31"><a xlink:href="Math_8inl.html" target="_top" xlink:title="Core/Math/Math.inl">
<polygon fill="white" stroke="black" points="852,-112.5 852,-131.5 952,-131.5 952,-112.5 852,-112.5"/>
<text text-anchor="middle" x="902" y="-119.5" font-family="Helvetica,sans-Serif" font-size="10.00">Core/Math/Math.inl</text>
</a>
</g>
</g>
<!-- Node28&#45;&gt;Node31 -->
<g id="edge45" class="edge"><title>Node28&#45;&gt;Node31</title>
<path fill="none" stroke="midnightblue" d="M897.099,-174.403C895.268,-165.938 894.797,-152.728 895.685,-141.82"/>
<polygon fill="midnightblue" stroke="midnightblue" points="899.198,-141.966 897.103,-131.581 892.264,-141.006 899.198,-141.966"/>
</g>
<!-- Node31&#45;&gt;Node28 -->
<g id="edge46" class="edge"><title>Node31&#45;&gt;Node28</title>
<path fill="none" stroke="midnightblue" d="M906.897,-131.581C908.73,-140.04 909.203,-153.248 908.317,-164.16"/>
<polygon fill="midnightblue" stroke="midnightblue" points="904.803,-164.018 906.901,-174.403 911.737,-164.977 904.803,-164.018"/>
</g>
<!-- Node33&#45;&gt;Node19 -->
<g id="edge51" class="edge"><title>Node33&#45;&gt;Node19</title>
<path fill="none" stroke="midnightblue" d="M296.018,-404.083C294.428,-396.927 292.141,-386.635 290.154,-377.691"/>
<polygon fill="midnightblue" stroke="midnightblue" points="293.531,-376.754 287.945,-367.751 286.697,-378.272 293.531,-376.754"/>
</g>
<!-- Node33&#45;&gt;Node21 -->
<g id="edge50" class="edge"><title>Node33&#45;&gt;Node21</title>
<path fill="none" stroke="midnightblue" d="M311.072,-423.751C319.573,-431.327 330.117,-442.505 337.776,-451.855"/>
<polygon fill="midnightblue" stroke="midnightblue" points="335.217,-454.27 344.075,-460.083 340.775,-450.015 335.217,-454.27"/>
</g>
</g>
</svg>
