<?xml version="1.0" encoding="UTF-8" standalone="no"?>
<!DOCTYPE svg PUBLIC "-//W3C//DTD SVG 1.1//EN"
 "http://www.w3.org/Graphics/SVG/1.1/DTD/svg11.dtd">
<!-- Generated by graphviz version 2.36.0 (20140111.2315)
 -->
<!-- Title: /home/travis/build/STORM&#45;IRIT/Radium&#45;Engine/src/Core/Algorithm/Subdivision/FullEdgeOperation.cpp Pages: 1 -->
<svg width="1863pt" height="702pt"
 viewBox="0.00 0.00 1862.86 702.00" xmlns="http://www.w3.org/2000/svg" xmlns:xlink="http://www.w3.org/1999/xlink">
<g id="graph0" class="graph" transform="scale(1 1) rotate(0) translate(4 698)">
<title>/home/travis/build/STORM&#45;IRIT/Radium&#45;Engine/src/Core/Algorithm/Subdivision/FullEdgeOperation.cpp</title>
<polygon fill="white" stroke="none" points="-4,4 -4,-698 1858.86,-698 1858.86,4 -4,4"/>
<!-- Node1 -->
<g id="node1" class="node"><title>Node1</title>
<polygon fill="#bfbfbf" stroke="black" points="650.5,-641 650.5,-693 805.5,-693 805.5,-641 650.5,-641"/>
<text text-anchor="start" x="658.5" y="-681" font-family="Helvetica,sans-Serif" font-size="10.00">/home/travis/build</text>
<text text-anchor="start" x="658.5" y="-670" font-family="Helvetica,sans-Serif" font-size="10.00">/STORM&#45;IRIT/Radium&#45;Engine</text>
<text text-anchor="start" x="658.5" y="-659" font-family="Helvetica,sans-Serif" font-size="10.00">/src/Core/Algorithm/Subdivision</text>
<text text-anchor="middle" x="728" y="-648" font-family="Helvetica,sans-Serif" font-size="10.00">/FullEdgeOperation.cpp</text>
</g>
<!-- Node2 -->
<g id="node2" class="node"><title>Node2</title>
<g id="a_node2"><a xlink:href="FullEdgeOperation_8hpp.html" target="_top" xlink:title="Core/Algorithm/Subdivision\l/FullEdgeOperation.hpp">
<polygon fill="white" stroke="black" points="364.5,-517 364.5,-547 499.5,-547 499.5,-517 364.5,-517"/>
<text text-anchor="start" x="372.5" y="-535" font-family="Helvetica,sans-Serif" font-size="10.00">Core/Algorithm/Subdivision</text>
<text text-anchor="middle" x="432" y="-524" font-family="Helvetica,sans-Serif" font-size="10.00">/FullEdgeOperation.hpp</text>
</a>
</g>
</g>
<!-- Node1&#45;&gt;Node2 -->
<g id="edge1" class="edge"><title>Node1&#45;&gt;Node2</title>
<path fill="none" stroke="midnightblue" d="M672.325,-640.984C614.15,-614.844 524.287,-574.467 472.515,-551.204"/>
<polygon fill="midnightblue" stroke="midnightblue" points="473.863,-547.973 463.307,-547.067 470.994,-554.358 473.863,-547.973"/>
</g>
<!-- Node10 -->
<g id="node10" class="node"><title>Node10</title>
<g id="a_node10"><a xlink:href="Index_8hpp.html" target="_top" xlink:title="Core/Index/Index.hpp">
<polygon fill="white" stroke="black" points="857,-112.5 857,-131.5 967,-131.5 967,-112.5 857,-112.5"/>
<text text-anchor="middle" x="912" y="-119.5" font-family="Helvetica,sans-Serif" font-size="10.00">Core/Index/Index.hpp</text>
</a>
</g>
</g>
<!-- Node1&#45;&gt;Node10 -->
<g id="edge9" class="edge"><title>Node1&#45;&gt;Node10</title>
<path fill="none" stroke="midnightblue" d="M805.77,-664.985C1060.42,-660.645 1853,-638.65 1853,-533 1853,-533 1853,-533 1853,-245 1853,-209.642 1860.43,-190.308 1833,-168 1799.87,-141.058 1182.01,-127.764 977.277,-124.086"/>
<polygon fill="midnightblue" stroke="midnightblue" points="977.328,-120.586 967.267,-123.907 977.203,-127.585 977.328,-120.586"/>
</g>
<!-- Node13 -->
<g id="node13" class="node"><title>Node13</title>
<g id="a_node13"><a xlink:href="Dcel_8hpp.html" target="_top" xlink:title="Core/Mesh/DCEL/Dcel.hpp">
<polygon fill="white" stroke="black" points="170.5,-236.5 170.5,-255.5 307.5,-255.5 307.5,-236.5 170.5,-236.5"/>
<text text-anchor="middle" x="239" y="-243.5" font-family="Helvetica,sans-Serif" font-size="10.00">Core/Mesh/DCEL/Dcel.hpp</text>
</a>
</g>
</g>
<!-- Node1&#45;&gt;Node13 -->
<g id="edge12" class="edge"><title>Node1&#45;&gt;Node13</title>
<path fill="none" stroke="midnightblue" d="M650.465,-661.145C548.501,-653.583 375.954,-636.382 322,-604 288.236,-583.736 269,-572.378 269,-533 269,-533 269,-533 269,-357 269,-323.64 255.999,-286.532 247.114,-265.067"/>
<polygon fill="midnightblue" stroke="midnightblue" points="250.216,-263.421 243.046,-255.621 243.787,-266.19 250.216,-263.421"/>
</g>
<!-- Node20 -->
<g id="node20" class="node"><title>Node20</title>
<g id="a_node20"><a xlink:href="Definition_8hpp.html" target="_top" xlink:title="Core/Mesh/DCEL/Definition.hpp">
<polygon fill="white" stroke="black" points="334,-174.5 334,-193.5 492,-193.5 492,-174.5 334,-174.5"/>
<text text-anchor="middle" x="413" y="-181.5" font-family="Helvetica,sans-Serif" font-size="10.00">Core/Mesh/DCEL/Definition.hpp</text>
</a>
</g>
</g>
<!-- Node1&#45;&gt;Node20 -->
<g id="edge30" class="edge"><title>Node1&#45;&gt;Node20</title>
<path fill="none" stroke="midnightblue" d="M650.085,-655.693C535.766,-638.357 336,-598.668 336,-533 336,-533 336,-533 336,-301 336,-259.02 371.438,-220.612 394.231,-200.25"/>
<polygon fill="midnightblue" stroke="midnightblue" points="396.672,-202.767 401.968,-193.591 392.105,-197.462 396.672,-202.767"/>
</g>
<!-- Node24 -->
<g id="node24" class="node"><title>Node24</title>
<g id="a_node24"><a xlink:href="FullEdge_8hpp.html" target="_top" xlink:title="Core/Mesh/DCEL/FullEdge.hpp">
<polygon fill="white" stroke="black" points="650.5,-584.5 650.5,-603.5 805.5,-603.5 805.5,-584.5 650.5,-584.5"/>
<text text-anchor="middle" x="728" y="-591.5" font-family="Helvetica,sans-Serif" font-size="10.00">Core/Mesh/DCEL/FullEdge.hpp</text>
</a>
</g>
</g>
<!-- Node1&#45;&gt;Node24 -->
<g id="edge31" class="edge"><title>Node1&#45;&gt;Node24</title>
<path fill="none" stroke="midnightblue" d="M728,-640.768C728,-631.89 728,-622.074 728,-613.816"/>
<polygon fill="midnightblue" stroke="midnightblue" points="731.5,-613.757 728,-603.757 724.5,-613.757 731.5,-613.757"/>
</g>
<!-- Node28 -->
<g id="node28" class="node"><title>Node28</title>
<g id="a_node28"><a xlink:href="DCEL_2HalfEdge_8hpp.html" target="_top" xlink:title="Core/Mesh/DCEL/HalfEdge.hpp">
<polygon fill="white" stroke="black" points="804.5,-348.5 804.5,-367.5 961.5,-367.5 961.5,-348.5 804.5,-348.5"/>
<text text-anchor="middle" x="883" y="-355.5" font-family="Helvetica,sans-Serif" font-size="10.00">Core/Mesh/DCEL/HalfEdge.hpp</text>
</a>
</g>
</g>
<!-- Node1&#45;&gt;Node28 -->
<g id="edge73" class="edge"><title>Node1&#45;&gt;Node28</title>
<path fill="none" stroke="midnightblue" d="M805.528,-661.211C887.475,-651.454 1005,-621.955 1005,-533 1005,-533 1005,-533 1005,-469 1005,-420.568 951.312,-387.986 915.166,-371.538"/>
<polygon fill="midnightblue" stroke="midnightblue" points="916.513,-368.307 905.947,-367.515 913.713,-374.723 916.513,-368.307"/>
</g>
<!-- Node30 -->
<g id="node30" class="node"><title>Node30</title>
<g id="a_node30"><a xlink:href="Vertex_8hpp.html" target="_top" xlink:title="Core/Mesh/DCEL/Vertex.hpp">
<polygon fill="white" stroke="black" points="793.5,-460.5 793.5,-479.5 938.5,-479.5 938.5,-460.5 793.5,-460.5"/>
<text text-anchor="middle" x="866" y="-467.5" font-family="Helvetica,sans-Serif" font-size="10.00">Core/Mesh/DCEL/Vertex.hpp</text>
</a>
</g>
</g>
<!-- Node1&#45;&gt;Node30 -->
<g id="edge74" class="edge"><title>Node1&#45;&gt;Node30</title>
<path fill="none" stroke="midnightblue" d="M772.766,-640.895C787.445,-630.937 802.836,-618.402 814,-604 841.501,-568.523 856.112,-516.702 862.31,-489.401"/>
<polygon fill="midnightblue" stroke="midnightblue" points="865.733,-490.131 864.405,-479.619 858.889,-488.665 865.733,-490.131"/>
</g>
<!-- Node3 -->
<g id="node3" class="node"><title>Node3</title>
<g id="a_node3"><a xlink:href="RaCore_8hpp.html" target="_top" xlink:title="Core/RaCore.hpp">
<polygon fill="white" stroke="black" points="575.5,-112.5 575.5,-131.5 668.5,-131.5 668.5,-112.5 575.5,-112.5"/>
<text text-anchor="middle" x="622" y="-119.5" font-family="Helvetica,sans-Serif" font-size="10.00">Core/RaCore.hpp</text>
</a>
</g>
</g>
<!-- Node2&#45;&gt;Node3 -->
<g id="edge2" class="edge"><title>Node2&#45;&gt;Node3</title>
<path fill="none" stroke="midnightblue" d="M436.047,-516.849C441.891,-495.133 452,-452.194 452,-415 452,-415 452,-415 452,-357 452,-264.713 474.891,-235.336 538,-168 551.429,-153.671 570.465,-142.955 587.021,-135.583"/>
<polygon fill="midnightblue" stroke="midnightblue" points="588.562,-138.731 596.42,-131.626 585.846,-132.28 588.562,-138.731"/>
</g>
<!-- Node4 -->
<g id="node4" class="node"><title>Node4</title>
<g id="a_node4"><a xlink:href="CoreMacros_8hpp.html" target="_top" xlink:title="Core/CoreMacros.hpp">
<polygon fill="white" stroke="black" points="565.5,-56.5 565.5,-75.5 678.5,-75.5 678.5,-56.5 565.5,-56.5"/>
<text text-anchor="middle" x="622" y="-63.5" font-family="Helvetica,sans-Serif" font-size="10.00">Core/CoreMacros.hpp</text>
</a>
</g>
</g>
<!-- Node3&#45;&gt;Node4 -->
<g id="edge3" class="edge"><title>Node3&#45;&gt;Node4</title>
<path fill="none" stroke="midnightblue" d="M622,-112.083C622,-105.006 622,-94.8611 622,-85.9865"/>
<polygon fill="midnightblue" stroke="midnightblue" points="625.5,-85.751 622,-75.7511 618.5,-85.7511 625.5,-85.751"/>
</g>
<!-- Node5 -->
<g id="node5" class="node"><title>Node5</title>
<polygon fill="white" stroke="#bfbfbf" points="466.5,-0.5 466.5,-19.5 515.5,-19.5 515.5,-0.5 466.5,-0.5"/>
<text text-anchor="middle" x="491" y="-7.5" font-family="Helvetica,sans-Serif" font-size="10.00">cassert</text>
</g>
<!-- Node4&#45;&gt;Node5 -->
<g id="edge4" class="edge"><title>Node4&#45;&gt;Node5</title>
<path fill="none" stroke="midnightblue" d="M601.243,-56.4435C579.684,-47.5566 545.737,-33.5632 521.206,-23.4514"/>
<polygon fill="midnightblue" stroke="midnightblue" points="522.239,-20.0917 511.66,-19.5164 519.572,-26.5634 522.239,-20.0917"/>
</g>
<!-- Node6 -->
<g id="node6" class="node"><title>Node6</title>
<polygon fill="white" stroke="#bfbfbf" points="533.5,-0.5 533.5,-19.5 576.5,-19.5 576.5,-0.5 533.5,-0.5"/>
<text text-anchor="middle" x="555" y="-7.5" font-family="Helvetica,sans-Serif" font-size="10.00">cstdio</text>
</g>
<!-- Node4&#45;&gt;Node6 -->
<g id="edge5" class="edge"><title>Node4&#45;&gt;Node6</title>
<path fill="none" stroke="midnightblue" d="M611.235,-56.324C601.234,-48.2631 586.113,-36.0765 574.07,-26.3695"/>
<polygon fill="midnightblue" stroke="midnightblue" points="575.943,-23.3841 565.961,-19.8339 571.55,-28.8343 575.943,-23.3841"/>
</g>
<!-- Node7 -->
<g id="node7" class="node"><title>Node7</title>
<polygon fill="white" stroke="#bfbfbf" points="595,-0.5 595,-19.5 649,-19.5 649,-0.5 595,-0.5"/>
<text text-anchor="middle" x="622" y="-7.5" font-family="Helvetica,sans-Serif" font-size="10.00">iostream</text>
</g>
<!-- Node4&#45;&gt;Node7 -->
<g id="edge6" class="edge"><title>Node4&#45;&gt;Node7</title>
<path fill="none" stroke="midnightblue" d="M622,-56.083C622,-49.0059 622,-38.8611 622,-29.9865"/>
<polygon fill="midnightblue" stroke="midnightblue" points="625.5,-29.751 622,-19.7511 618.5,-29.7511 625.5,-29.751"/>
</g>
<!-- Node8 -->
<g id="node8" class="node"><title>Node8</title>
<polygon fill="white" stroke="#bfbfbf" points="667,-0.5 667,-19.5 719,-19.5 719,-0.5 667,-0.5"/>
<text text-anchor="middle" x="693" y="-7.5" font-family="Helvetica,sans-Serif" font-size="10.00">sstream</text>
</g>
<!-- Node4&#45;&gt;Node8 -->
<g id="edge7" class="edge"><title>Node4&#45;&gt;Node8</title>
<path fill="none" stroke="midnightblue" d="M633.407,-56.324C644.109,-48.1849 660.341,-35.8395 673.163,-26.0874"/>
<polygon fill="midnightblue" stroke="midnightblue" points="675.544,-28.6734 681.385,-19.8339 671.307,-23.1018 675.544,-28.6734"/>
</g>
<!-- Node9 -->
<g id="node9" class="node"><title>Node9</title>
<polygon fill="white" stroke="#bfbfbf" points="737,-0.5 737,-19.5 781,-19.5 781,-0.5 737,-0.5"/>
<text text-anchor="middle" x="759" y="-7.5" font-family="Helvetica,sans-Serif" font-size="10.00">thread</text>
</g>
<!-- Node4&#45;&gt;Node9 -->
<g id="edge8" class="edge"><title>Node4&#45;&gt;Node9</title>
<path fill="none" stroke="midnightblue" d="M643.708,-56.4435C666.355,-47.5171 702.072,-33.4387 727.752,-23.3168"/>
<polygon fill="midnightblue" stroke="midnightblue" points="729.374,-26.4397 737.394,-19.5164 726.807,-19.9273 729.374,-26.4397"/>
</g>
<!-- Node11 -->
<g id="node11" class="node"><title>Node11</title>
<polygon fill="white" stroke="#bfbfbf" points="847,-56.5 847,-75.5 887,-75.5 887,-56.5 847,-56.5"/>
<text text-anchor="middle" x="867" y="-63.5" font-family="Helvetica,sans-Serif" font-size="10.00">limits</text>
</g>
<!-- Node10&#45;&gt;Node11 -->
<g id="edge10" class="edge"><title>Node10&#45;&gt;Node11</title>
<path fill="none" stroke="midnightblue" d="M904.569,-112.083C898.147,-104.377 888.694,-93.0333 880.878,-83.6531"/>
<polygon fill="midnightblue" stroke="midnightblue" points="883.383,-81.1927 874.293,-75.7511 878.006,-85.674 883.383,-81.1927"/>
</g>
<!-- Node12 -->
<g id="node12" class="node"><title>Node12</title>
<g id="a_node12"><a xlink:href="Index_8inl.html" target="_top" xlink:title="Core/Index/Index.inl">
<polygon fill="white" stroke="black" points="905,-56.5 905,-75.5 1009,-75.5 1009,-56.5 905,-56.5"/>
<text text-anchor="middle" x="957" y="-63.5" font-family="Helvetica,sans-Serif" font-size="10.00">Core/Index/Index.inl</text>
</a>
</g>
</g>
<!-- Node10&#45;&gt;Node12 -->
<g id="edge11" class="edge"><title>Node10&#45;&gt;Node12</title>
<path fill="none" stroke="midnightblue" d="M919.431,-112.083C925.853,-104.377 935.306,-93.0333 943.122,-83.6531"/>
<polygon fill="midnightblue" stroke="midnightblue" points="945.994,-85.674 949.707,-75.7511 940.617,-81.1927 945.994,-85.674"/>
</g>
<!-- Node14 -->
<g id="node14" class="node"><title>Node14</title>
<g id="a_node14"><a xlink:href="IndexMap_8hpp.html" target="_top" xlink:title="Core/Index/IndexMap.hpp">
<polygon fill="white" stroke="black" points="148.5,-174.5 148.5,-193.5 277.5,-193.5 277.5,-174.5 148.5,-174.5"/>
<text text-anchor="middle" x="213" y="-181.5" font-family="Helvetica,sans-Serif" font-size="10.00">Core/Index/IndexMap.hpp</text>
</a>
</g>
</g>
<!-- Node13&#45;&gt;Node14 -->
<g id="edge13" class="edge"><title>Node13&#45;&gt;Node14</title>
<path fill="none" stroke="midnightblue" d="M235.275,-236.403C231.491,-227.671 225.519,-213.889 220.711,-202.794"/>
<polygon fill="midnightblue" stroke="midnightblue" points="223.906,-201.365 216.718,-193.581 217.483,-204.148 223.906,-201.365"/>
</g>
<!-- Node19 -->
<g id="node19" class="node"><title>Node19</title>
<g id="a_node19"><a xlink:href="IndexedObject_8hpp.html" target="_top" xlink:title="Core/Index/IndexedObject.hpp">
<polygon fill="white" stroke="black" points="547.5,-174.5 547.5,-193.5 696.5,-193.5 696.5,-174.5 547.5,-174.5"/>
<text text-anchor="middle" x="622" y="-181.5" font-family="Helvetica,sans-Serif" font-size="10.00">Core/Index/IndexedObject.hpp</text>
</a>
</g>
</g>
<!-- Node13&#45;&gt;Node19 -->
<g id="edge21" class="edge"><title>Node13&#45;&gt;Node19</title>
<path fill="none" stroke="midnightblue" d="M293.468,-236.467C363.095,-225.559 483.477,-206.701 557.581,-195.092"/>
<polygon fill="midnightblue" stroke="midnightblue" points="558.382,-198.509 567.72,-193.503 557.299,-191.593 558.382,-198.509"/>
</g>
<!-- Node13&#45;&gt;Node20 -->
<g id="edge24" class="edge"><title>Node13&#45;&gt;Node20</title>
<path fill="none" stroke="midnightblue" d="M263.93,-236.403C294.036,-226.022 344.832,-208.506 378.638,-196.849"/>
<polygon fill="midnightblue" stroke="midnightblue" points="379.804,-200.149 388.116,-193.581 377.522,-193.532 379.804,-200.149"/>
</g>
<!-- Node22 -->
<g id="node22" class="node"><title>Node22</title>
<polygon fill="white" stroke="#bfbfbf" points="391,-112.5 391,-131.5 435,-131.5 435,-112.5 391,-112.5"/>
<text text-anchor="middle" x="413" y="-119.5" font-family="Helvetica,sans-Serif" font-size="10.00">vector</text>
</g>
<!-- Node13&#45;&gt;Node22 -->
<g id="edge27" class="edge"><title>Node13&#45;&gt;Node22</title>
<path fill="none" stroke="midnightblue" d="M248.005,-236.395C266.571,-218.746 308.724,-179.17 325,-168 343.384,-155.383 365.776,-143.981 383.372,-135.811"/>
<polygon fill="midnightblue" stroke="midnightblue" points="384.943,-138.942 392.599,-131.617 382.047,-132.569 384.943,-138.942"/>
</g>
<!-- Node23 -->
<g id="node23" class="node"><title>Node23</title>
<g id="a_node23"><a xlink:href="Dcel_8inl.html" target="_top" xlink:title="Core/Mesh/DCEL/Dcel.inl">
<polygon fill="white" stroke="black" points="-0.5,-174.5 -0.5,-193.5 130.5,-193.5 130.5,-174.5 -0.5,-174.5"/>
<text text-anchor="middle" x="65" y="-181.5" font-family="Helvetica,sans-Serif" font-size="10.00">Core/Mesh/DCEL/Dcel.inl</text>
</a>
</g>
</g>
<!-- Node13&#45;&gt;Node23 -->
<g id="edge28" class="edge"><title>Node13&#45;&gt;Node23</title>
<path fill="none" stroke="midnightblue" d="M209.169,-236.403C177.096,-226.111 126.695,-208.806 94.6863,-197.15"/>
<polygon fill="midnightblue" stroke="midnightblue" points="95.5801,-193.75 84.9866,-193.581 93.1623,-200.319 95.5801,-193.75"/>
</g>
<!-- Node14&#45;&gt;Node3 -->
<g id="edge14" class="edge"><title>Node14&#45;&gt;Node3</title>
<path fill="none" stroke="midnightblue" d="M271.165,-174.467C349.471,-162.98 487.889,-142.674 565.389,-131.305"/>
<polygon fill="midnightblue" stroke="midnightblue" points="566.063,-134.743 575.449,-129.829 565.047,-127.818 566.063,-134.743"/>
</g>
<!-- Node14&#45;&gt;Node10 -->
<g id="edge18" class="edge"><title>Node14&#45;&gt;Node10</title>
<path fill="none" stroke="midnightblue" d="M271.923,-174.472C289.02,-172.17 307.733,-169.817 325,-168 514.065,-148.109 738.268,-133.367 846.743,-126.792"/>
<polygon fill="midnightblue" stroke="midnightblue" points="847.103,-130.277 856.874,-126.181 846.682,-123.289 847.103,-130.277"/>
</g>
<!-- Node15 -->
<g id="node15" class="node"><title>Node15</title>
<polygon fill="white" stroke="#bfbfbf" points="317,-112.5 317,-131.5 373,-131.5 373,-112.5 317,-112.5"/>
<text text-anchor="middle" x="345" y="-119.5" font-family="Helvetica,sans-Serif" font-size="10.00">algorithm</text>
</g>
<!-- Node14&#45;&gt;Node15 -->
<g id="edge15" class="edge"><title>Node14&#45;&gt;Node15</title>
<path fill="none" stroke="midnightblue" d="M231.912,-174.403C254.163,-164.29 291.312,-147.404 316.926,-135.761"/>
<polygon fill="midnightblue" stroke="midnightblue" points="318.467,-138.905 326.123,-131.581 315.571,-132.532 318.467,-138.905"/>
</g>
<!-- Node16 -->
<g id="node16" class="node"><title>Node16</title>
<polygon fill="white" stroke="#bfbfbf" points="247,-112.5 247,-131.5 299,-131.5 299,-112.5 247,-112.5"/>
<text text-anchor="middle" x="273" y="-119.5" font-family="Helvetica,sans-Serif" font-size="10.00">assert.h</text>
</g>
<!-- Node14&#45;&gt;Node16 -->
<g id="edge16" class="edge"><title>Node14&#45;&gt;Node16</title>
<path fill="none" stroke="midnightblue" d="M221.597,-174.403C230.864,-165.136 245.817,-150.183 257.212,-138.788"/>
<polygon fill="midnightblue" stroke="midnightblue" points="259.823,-141.127 264.419,-131.581 254.873,-136.177 259.823,-141.127"/>
</g>
<!-- Node17 -->
<g id="node17" class="node"><title>Node17</title>
<polygon fill="white" stroke="#bfbfbf" points="44.5,-112.5 44.5,-131.5 87.5,-131.5 87.5,-112.5 44.5,-112.5"/>
<text text-anchor="middle" x="66" y="-119.5" font-family="Helvetica,sans-Serif" font-size="10.00">deque</text>
</g>
<!-- Node14&#45;&gt;Node17 -->
<g id="edge17" class="edge"><title>Node14&#45;&gt;Node17</title>
<path fill="none" stroke="midnightblue" d="M191.938,-174.403C166.941,-164.2 125.058,-147.105 96.5134,-135.454"/>
<polygon fill="midnightblue" stroke="midnightblue" points="97.6036,-132.119 87.0224,-131.581 94.9583,-138.6 97.6036,-132.119"/>
</g>
<!-- Node18 -->
<g id="node18" class="node"><title>Node18</title>
<g id="a_node18"><a xlink:href="IndexMap_8inl.html" target="_top" xlink:title="Core/Index/IndexMap.inl">
<polygon fill="white" stroke="black" points="105.5,-112.5 105.5,-131.5 228.5,-131.5 228.5,-112.5 105.5,-112.5"/>
<text text-anchor="middle" x="167" y="-119.5" font-family="Helvetica,sans-Serif" font-size="10.00">Core/Index/IndexMap.inl</text>
</a>
</g>
</g>
<!-- Node14&#45;&gt;Node18 -->
<g id="edge19" class="edge"><title>Node14&#45;&gt;Node18</title>
<path fill="none" stroke="midnightblue" d="M201.509,-174.403C192.75,-165.493 181.467,-151.325 173.96,-140.118"/>
<polygon fill="midnightblue" stroke="midnightblue" points="176.917,-138.245 168.681,-131.581 170.964,-141.927 176.917,-138.245"/>
</g>
<!-- Node18&#45;&gt;Node14 -->
<g id="edge20" class="edge"><title>Node18&#45;&gt;Node14</title>
<path fill="none" stroke="midnightblue" d="M178.476,-131.581C187.232,-140.485 198.515,-154.652 206.026,-165.862"/>
<polygon fill="midnightblue" stroke="midnightblue" points="203.073,-167.74 211.31,-174.403 209.026,-164.058 203.073,-167.74"/>
</g>
<!-- Node19&#45;&gt;Node3 -->
<g id="edge23" class="edge"><title>Node19&#45;&gt;Node3</title>
<path fill="none" stroke="midnightblue" d="M622,-174.403C622,-165.938 622,-152.728 622,-141.82"/>
<polygon fill="midnightblue" stroke="midnightblue" points="625.5,-141.581 622,-131.581 618.5,-141.581 625.5,-141.581"/>
</g>
<!-- Node19&#45;&gt;Node10 -->
<g id="edge22" class="edge"><title>Node19&#45;&gt;Node10</title>
<path fill="none" stroke="midnightblue" d="M663.242,-174.467C715.208,-163.716 804.511,-145.239 860.792,-133.595"/>
<polygon fill="midnightblue" stroke="midnightblue" points="861.817,-136.957 870.9,-131.503 860.399,-130.102 861.817,-136.957"/>
</g>
<!-- Node21 -->
<g id="node21" class="node"><title>Node21</title>
<polygon fill="white" stroke="#bfbfbf" points="453,-112.5 453,-131.5 505,-131.5 505,-112.5 453,-112.5"/>
<text text-anchor="middle" x="479" y="-119.5" font-family="Helvetica,sans-Serif" font-size="10.00">memory</text>
</g>
<!-- Node20&#45;&gt;Node21 -->
<g id="edge25" class="edge"><title>Node20&#45;&gt;Node21</title>
<path fill="none" stroke="midnightblue" d="M422.456,-174.403C432.748,-165.047 449.416,-149.895 461.994,-138.46"/>
<polygon fill="midnightblue" stroke="midnightblue" points="464.516,-140.897 469.561,-131.581 459.808,-135.718 464.516,-140.897"/>
</g>
<!-- Node20&#45;&gt;Node22 -->
<g id="edge26" class="edge"><title>Node20&#45;&gt;Node22</title>
<path fill="none" stroke="midnightblue" d="M413,-174.403C413,-165.938 413,-152.728 413,-141.82"/>
<polygon fill="midnightblue" stroke="midnightblue" points="416.5,-141.581 413,-131.581 409.5,-141.581 416.5,-141.581"/>
</g>
<!-- Node23&#45;&gt;Node13 -->
<g id="edge29" class="edge"><title>Node23&#45;&gt;Node13</title>
<path fill="none" stroke="midnightblue" d="M94.7808,-193.581C126.835,-203.865 177.236,-221.17 209.264,-232.831"/>
<polygon fill="midnightblue" stroke="midnightblue" points="208.377,-236.235 218.971,-236.403 210.795,-229.665 208.377,-236.235"/>
</g>
<!-- Node24&#45;&gt;Node10 -->
<g id="edge32" class="edge"><title>Node24&#45;&gt;Node10</title>
<path fill="none" stroke="midnightblue" d="M805.509,-588.381C993.723,-572.464 1473.87,-502.611 1671,-200 1678.76,-188.083 1680.75,-178.35 1671,-168 1647.35,-142.911 1156.69,-128.799 977.109,-124.459"/>
<polygon fill="midnightblue" stroke="midnightblue" points="977.089,-120.958 967.008,-124.218 976.921,-127.956 977.089,-120.958"/>
</g>
<!-- Node24&#45;&gt;Node19 -->
<g id="edge33" class="edge"><title>Node24&#45;&gt;Node19</title>
<path fill="none" stroke="midnightblue" d="M695.606,-584.495C648.331,-569.899 566,-535.255 566,-471 566,-471 566,-471 566,-301 566,-262.452 591.39,-223.223 607.977,-201.707"/>
<polygon fill="midnightblue" stroke="midnightblue" points="610.931,-203.618 614.448,-193.624 605.466,-199.244 610.931,-203.618"/>
</g>
<!-- Node24&#45;&gt;Node20 -->
<g id="edge34" class="edge"><title>Node24&#45;&gt;Node20</title>
<path fill="none" stroke="midnightblue" d="M657.848,-584.424C630.664,-578.096 600.885,-567.102 579,-548 467.65,-450.811 426.616,-263.604 416.023,-203.832"/>
<polygon fill="midnightblue" stroke="midnightblue" points="419.418,-202.916 414.298,-193.641 412.516,-204.085 419.418,-202.916"/>
</g>
<!-- Node25 -->
<g id="node25" class="node"><title>Node25</title>
<g id="a_node25"><a xlink:href="FullEdge_8inl.html" target="_top" xlink:title="Core/Mesh/DCEL/FullEdge.inl">
<polygon fill="white" stroke="black" points="653.5,-522.5 653.5,-541.5 802.5,-541.5 802.5,-522.5 653.5,-522.5"/>
<text text-anchor="middle" x="728" y="-529.5" font-family="Helvetica,sans-Serif" font-size="10.00">Core/Mesh/DCEL/FullEdge.inl</text>
</a>
</g>
</g>
<!-- Node24&#45;&gt;Node25 -->
<g id="edge35" class="edge"><title>Node24&#45;&gt;Node25</title>
<path fill="none" stroke="midnightblue" d="M723.099,-584.403C721.268,-575.938 720.797,-562.728 721.685,-551.82"/>
<polygon fill="midnightblue" stroke="midnightblue" points="725.198,-551.966 723.103,-541.581 718.264,-551.006 725.198,-551.966"/>
</g>
<!-- Node25&#45;&gt;Node24 -->
<g id="edge36" class="edge"><title>Node25&#45;&gt;Node24</title>
<path fill="none" stroke="midnightblue" d="M732.897,-541.581C734.73,-550.04 735.203,-563.248 734.317,-574.16"/>
<polygon fill="midnightblue" stroke="midnightblue" points="730.803,-574.018 732.901,-584.403 737.737,-574.977 730.803,-574.018"/>
</g>
<!-- Node26 -->
<g id="node26" class="node"><title>Node26</title>
<g id="a_node26"><a xlink:href="Face_8hpp.html" target="_top" xlink:title="Core/Mesh/DCEL/Face.hpp">
<polygon fill="white" stroke="black" points="708,-236.5 708,-255.5 846,-255.5 846,-236.5 708,-236.5"/>
<text text-anchor="middle" x="777" y="-243.5" font-family="Helvetica,sans-Serif" font-size="10.00">Core/Mesh/DCEL/Face.hpp</text>
</a>
</g>
</g>
<!-- Node25&#45;&gt;Node26 -->
<g id="edge37" class="edge"><title>Node25&#45;&gt;Node26</title>
<path fill="none" stroke="midnightblue" d="M729.52,-522.189C736.337,-482.681 764.169,-321.365 773.745,-265.864"/>
<polygon fill="midnightblue" stroke="midnightblue" points="777.246,-266.158 775.498,-255.708 770.348,-264.968 777.246,-266.158"/>
</g>
<!-- Node25&#45;&gt;Node28 -->
<g id="edge71" class="edge"><title>Node25&#45;&gt;Node28</title>
<path fill="none" stroke="midnightblue" d="M731.365,-522.274C740.266,-500.119 766.355,-440.845 804,-404 817.826,-390.468 836.521,-379.579 852.253,-371.903"/>
<polygon fill="midnightblue" stroke="midnightblue" points="854.014,-374.944 861.597,-367.545 851.054,-368.601 854.014,-374.944"/>
</g>
<!-- Node25&#45;&gt;Node30 -->
<g id="edge72" class="edge"><title>Node25&#45;&gt;Node30</title>
<path fill="none" stroke="midnightblue" d="M747.772,-522.403C771.136,-512.245 810.214,-495.255 837.003,-483.607"/>
<polygon fill="midnightblue" stroke="midnightblue" points="838.489,-486.778 846.265,-479.581 835.698,-480.358 838.489,-486.778"/>
</g>
<!-- Node26&#45;&gt;Node10 -->
<g id="edge38" class="edge"><title>Node26&#45;&gt;Node10</title>
<path fill="none" stroke="midnightblue" d="M767.534,-236.198C752.442,-221.099 726.258,-189.783 743,-168 755.89,-151.229 804.809,-139.384 846.722,-132.07"/>
<polygon fill="midnightblue" stroke="midnightblue" points="847.365,-135.511 856.645,-130.399 846.202,-128.609 847.365,-135.511"/>
</g>
<!-- Node26&#45;&gt;Node19 -->
<g id="edge39" class="edge"><title>Node26&#45;&gt;Node19</title>
<path fill="none" stroke="midnightblue" d="M754.792,-236.403C728.319,-226.156 683.886,-208.956 653.78,-197.302"/>
<polygon fill="midnightblue" stroke="midnightblue" points="654.756,-193.927 644.167,-193.581 652.229,-200.455 654.756,-193.927"/>
</g>
<!-- Node26&#45;&gt;Node20 -->
<g id="edge40" class="edge"><title>Node26&#45;&gt;Node20</title>
<path fill="none" stroke="midnightblue" d="M725.234,-236.467C659.196,-225.582 545.119,-206.778 474.656,-195.163"/>
<polygon fill="midnightblue" stroke="midnightblue" points="475.023,-191.676 464.587,-193.503 473.885,-198.583 475.023,-191.676"/>
</g>
<!-- Node27 -->
<g id="node27" class="node"><title>Node27</title>
<g id="a_node27"><a xlink:href="Face_8inl.html" target="_top" xlink:title="Core/Mesh/DCEL/Face.inl">
<polygon fill="white" stroke="black" points="752,-174.5 752,-193.5 884,-193.5 884,-174.5 752,-174.5"/>
<text text-anchor="middle" x="818" y="-181.5" font-family="Helvetica,sans-Serif" font-size="10.00">Core/Mesh/DCEL/Face.inl</text>
</a>
</g>
</g>
<!-- Node26&#45;&gt;Node27 -->
<g id="edge41" class="edge"><title>Node26&#45;&gt;Node27</title>
<path fill="none" stroke="midnightblue" d="M777.974,-236.403C782.219,-227.314 791.768,-212.756 800.664,-201.449"/>
<polygon fill="midnightblue" stroke="midnightblue" points="803.512,-203.498 807.239,-193.581 798.141,-199.009 803.512,-203.498"/>
</g>
<!-- Node27&#45;&gt;Node26 -->
<g id="edge42" class="edge"><title>Node27&#45;&gt;Node26</title>
<path fill="none" stroke="midnightblue" d="M817.034,-193.581C812.795,-202.663 803.248,-217.22 794.352,-228.531"/>
<polygon fill="midnightblue" stroke="midnightblue" points="791.501,-226.485 787.775,-236.403 796.872,-230.973 791.501,-226.485"/>
</g>
<!-- Node27&#45;&gt;Node28 -->
<g id="edge43" class="edge"><title>Node27&#45;&gt;Node28</title>
<path fill="none" stroke="midnightblue" d="M826.019,-193.701C834.469,-203.336 847.562,-219.675 855,-236 870.59,-270.216 877.933,-313.963 881.03,-338.379"/>
<polygon fill="midnightblue" stroke="midnightblue" points="877.565,-338.882 882.199,-348.41 884.518,-338.073 877.565,-338.882"/>
</g>
<!-- Node28&#45;&gt;Node10 -->
<g id="edge44" class="edge"><title>Node28&#45;&gt;Node10</title>
<path fill="none" stroke="midnightblue" d="M884.44,-348.388C885.93,-339.341 888.275,-324.692 890,-312 898.438,-249.925 906.447,-176.102 910.032,-142.002"/>
<polygon fill="midnightblue" stroke="midnightblue" points="913.553,-141.99 911.11,-131.681 906.59,-141.263 913.553,-141.99"/>
</g>
<!-- Node28&#45;&gt;Node19 -->
<g id="edge45" class="edge"><title>Node28&#45;&gt;Node19</title>
<path fill="none" stroke="midnightblue" d="M863.825,-348.382C829.339,-332.478 755.212,-296.423 699,-256 675.832,-239.339 652.132,-216.423 637.259,-201.182"/>
<polygon fill="midnightblue" stroke="midnightblue" points="639.417,-198.377 629.964,-193.593 634.371,-203.228 639.417,-198.377"/>
</g>
<!-- Node28&#45;&gt;Node20 -->
<g id="edge46" class="edge"><title>Node28&#45;&gt;Node20</title>
<path fill="none" stroke="midnightblue" d="M857.732,-348.36C831.685,-339.413 789.924,-324.954 754,-312 640.004,-270.894 505.387,-220.085 445.055,-197.193"/>
<polygon fill="midnightblue" stroke="midnightblue" points="446.278,-193.913 435.687,-193.636 443.793,-200.458 446.278,-193.913"/>
</g>
<!-- Node29 -->
<g id="node29" class="node"><title>Node29</title>
<g id="a_node29"><a xlink:href="DCEL_2HalfEdge_8inl.html" target="_top" xlink:title="Core/Mesh/DCEL/HalfEdge.inl">
<polygon fill="white" stroke="black" points="940.5,-292.5 940.5,-311.5 1091.5,-311.5 1091.5,-292.5 940.5,-292.5"/>
<text text-anchor="middle" x="1016" y="-299.5" font-family="Helvetica,sans-Serif" font-size="10.00">Core/Mesh/DCEL/HalfEdge.inl</text>
</a>
</g>
</g>
<!-- Node28&#45;&gt;Node29 -->
<g id="edge47" class="edge"><title>Node28&#45;&gt;Node29</title>
<path fill="none" stroke="midnightblue" d="M898.985,-348.444C919.102,-339.478 953.765,-325.314 980.244,-315.183"/>
<polygon fill="midnightblue" stroke="midnightblue" points="981.828,-318.326 989.944,-311.516 979.353,-311.778 981.828,-318.326"/>
</g>
<!-- Node29&#45;&gt;Node26 -->
<g id="edge49" class="edge"><title>Node29&#45;&gt;Node26</title>
<path fill="none" stroke="midnightblue" d="M978.13,-292.444C936.524,-283.043 869.631,-267.929 824.531,-257.739"/>
<polygon fill="midnightblue" stroke="midnightblue" points="825.219,-254.306 814.693,-255.516 823.676,-261.134 825.219,-254.306"/>
</g>
<!-- Node29&#45;&gt;Node28 -->
<g id="edge48" class="edge"><title>Node29&#45;&gt;Node28</title>
<path fill="none" stroke="midnightblue" d="M1000.1,-311.516C979.943,-320.506 945.072,-334.754 918.524,-344.906"/>
<polygon fill="midnightblue" stroke="midnightblue" points="917.28,-341.634 909.163,-348.444 919.755,-348.182 917.28,-341.634"/>
</g>
<!-- Node29&#45;&gt;Node30 -->
<g id="edge50" class="edge"><title>Node29&#45;&gt;Node30</title>
<path fill="none" stroke="midnightblue" d="M1014.2,-311.797C1009.34,-333.535 994.023,-390.453 961,-424 946.133,-439.103 925.205,-449.764 906.774,-456.905"/>
<polygon fill="midnightblue" stroke="midnightblue" points="905.326,-453.707 897.129,-460.419 907.723,-460.284 905.326,-453.707"/>
</g>
<!-- Node30&#45;&gt;Node10 -->
<g id="edge51" class="edge"><title>Node30&#45;&gt;Node10</title>
<path fill="none" stroke="midnightblue" d="M896.534,-460.41C951.2,-443.072 1063.49,-398.011 1100,-312 1103.47,-303.818 1103.62,-300.119 1100,-292 1090.85,-271.476 976.02,-175.63 930.454,-138.113"/>
<polygon fill="midnightblue" stroke="midnightblue" points="932.502,-135.266 922.554,-131.621 928.058,-140.674 932.502,-135.266"/>
</g>
<!-- Node30&#45;&gt;Node19 -->
<g id="edge52" class="edge"><title>Node30&#45;&gt;Node19</title>
<path fill="none" stroke="midnightblue" d="M851.865,-460.339C838.722,-451.93 818.975,-438.361 804,-424 727.684,-350.809 658.094,-243.642 632.443,-202.223"/>
<polygon fill="midnightblue" stroke="midnightblue" points="635.354,-200.273 627.141,-193.58 629.387,-203.934 635.354,-200.273"/>
</g>
<!-- Node30&#45;&gt;Node20 -->
<g id="edge67" class="edge"><title>Node30&#45;&gt;Node20</title>
<path fill="none" stroke="midnightblue" d="M849.039,-460.439C831.909,-451.671 804.795,-437.457 782,-424 646.27,-343.874 489.409,-237.5 433.826,-199.362"/>
<polygon fill="midnightblue" stroke="midnightblue" points="435.73,-196.424 425.506,-193.644 431.765,-202.192 435.73,-196.424"/>
</g>
<!-- Node31 -->
<g id="node31" class="node"><title>Node31</title>
<g id="a_node31"><a xlink:href="LinearAlgebra_8hpp.html" target="_top" xlink:title="Core/Math/LinearAlgebra.hpp">
<polygon fill="white" stroke="black" points="1226.5,-236.5 1226.5,-255.5 1369.5,-255.5 1369.5,-236.5 1226.5,-236.5"/>
<text text-anchor="middle" x="1298" y="-243.5" font-family="Helvetica,sans-Serif" font-size="10.00">Core/Math/LinearAlgebra.hpp</text>
</a>
</g>
</g>
<!-- Node30&#45;&gt;Node31 -->
<g id="edge53" class="edge"><title>Node30&#45;&gt;Node31</title>
<path fill="none" stroke="midnightblue" d="M929.792,-460.491C1003.3,-450.341 1116.3,-433.552 1134,-424 1206.76,-384.73 1264.81,-300.808 1287.58,-264.423"/>
<polygon fill="midnightblue" stroke="midnightblue" points="1290.58,-266.228 1292.83,-255.874 1284.61,-262.567 1290.58,-266.228"/>
</g>
<!-- Node41 -->
<g id="node41" class="node"><title>Node41</title>
<g id="a_node41"><a xlink:href="Vertex_8inl.html" target="_top" xlink:title="Core/Mesh/DCEL/Vertex.inl">
<polygon fill="white" stroke="black" points="813.5,-404.5 813.5,-423.5 952.5,-423.5 952.5,-404.5 813.5,-404.5"/>
<text text-anchor="middle" x="883" y="-411.5" font-family="Helvetica,sans-Serif" font-size="10.00">Core/Mesh/DCEL/Vertex.inl</text>
</a>
</g>
</g>
<!-- Node30&#45;&gt;Node41 -->
<g id="edge68" class="edge"><title>Node30&#45;&gt;Node41</title>
<path fill="none" stroke="midnightblue" d="M863.641,-460.083C864.4,-452.77 867.318,-442.181 870.888,-433.103"/>
<polygon fill="midnightblue" stroke="midnightblue" points="874.185,-434.305 875.114,-423.751 867.806,-431.422 874.185,-434.305"/>
</g>
<!-- Node31&#45;&gt;Node3 -->
<g id="edge54" class="edge"><title>Node31&#45;&gt;Node3</title>
<path fill="none" stroke="midnightblue" d="M1227.3,-236.486C1168.1,-228.78 1081.57,-216.169 1007,-200 955.57,-188.848 944.367,-179.438 893,-168 819.593,-151.654 733.799,-138.372 678.728,-130.581"/>
<polygon fill="midnightblue" stroke="midnightblue" points="679.202,-127.113 668.813,-129.19 678.23,-134.045 679.202,-127.113"/>
</g>
<!-- Node32 -->
<g id="node32" class="node"><title>Node32</title>
<polygon fill="white" stroke="#bfbfbf" points="1171.5,-174.5 1171.5,-193.5 1236.5,-193.5 1236.5,-174.5 1171.5,-174.5"/>
<text text-anchor="middle" x="1204" y="-181.5" font-family="Helvetica,sans-Serif" font-size="10.00">Eigen/Core</text>
</g>
<!-- Node31&#45;&gt;Node32 -->
<g id="edge55" class="edge"><title>Node31&#45;&gt;Node32</title>
<path fill="none" stroke="midnightblue" d="M1284.53,-236.403C1269.32,-226.691 1244.31,-210.732 1226.2,-199.17"/>
<polygon fill="midnightblue" stroke="midnightblue" points="1227.76,-196.011 1217.44,-193.581 1223.99,-201.911 1227.76,-196.011"/>
</g>
<!-- Node33 -->
<g id="node33" class="node"><title>Node33</title>
<polygon fill="white" stroke="#bfbfbf" points="1254.5,-174.5 1254.5,-193.5 1341.5,-193.5 1341.5,-174.5 1254.5,-174.5"/>
<text text-anchor="middle" x="1298" y="-181.5" font-family="Helvetica,sans-Serif" font-size="10.00">Eigen/Geometry</text>
</g>
<!-- Node31&#45;&gt;Node33 -->
<g id="edge56" class="edge"><title>Node31&#45;&gt;Node33</title>
<path fill="none" stroke="midnightblue" d="M1298,-236.403C1298,-227.938 1298,-214.728 1298,-203.82"/>
<polygon fill="midnightblue" stroke="midnightblue" points="1301.5,-203.581 1298,-193.581 1294.5,-203.581 1301.5,-203.581"/>
</g>
<!-- Node34 -->
<g id="node34" class="node"><title>Node34</title>
<polygon fill="white" stroke="#bfbfbf" points="1359.5,-174.5 1359.5,-193.5 1434.5,-193.5 1434.5,-174.5 1359.5,-174.5"/>
<text text-anchor="middle" x="1397" y="-181.5" font-family="Helvetica,sans-Serif" font-size="10.00">Eigen/Sparse</text>
</g>
<!-- Node31&#45;&gt;Node34 -->
<g id="edge57" class="edge"><title>Node31&#45;&gt;Node34</title>
<path fill="none" stroke="midnightblue" d="M1312.18,-236.403C1328.36,-226.601 1355.03,-210.439 1374.14,-198.853"/>
<polygon fill="midnightblue" stroke="midnightblue" points="1376.1,-201.757 1382.84,-193.581 1372.48,-195.77 1376.1,-201.757"/>
</g>
<!-- Node35 -->
<g id="node35" class="node"><title>Node35</title>
<polygon fill="white" stroke="#bfbfbf" points="1452.5,-174.5 1452.5,-193.5 1511.5,-193.5 1511.5,-174.5 1452.5,-174.5"/>
<text text-anchor="middle" x="1482" y="-181.5" font-family="Helvetica,sans-Serif" font-size="10.00">functional</text>
</g>
<!-- Node31&#45;&gt;Node35 -->
<g id="edge58" class="edge"><title>Node31&#45;&gt;Node35</title>
<path fill="none" stroke="midnightblue" d="M1327.62,-236.432C1357.06,-227.772 1403.41,-213.741 1443,-200 1445.61,-199.095 1448.3,-198.127 1451,-197.135"/>
<polygon fill="midnightblue" stroke="midnightblue" points="1452.51,-200.307 1460.64,-193.509 1450.05,-193.756 1452.51,-200.307"/>
</g>
<!-- Node36 -->
<g id="node36" class="node"><title>Node36</title>
<polygon fill="white" stroke="#bfbfbf" points="1529.5,-169 1529.5,-199 1662.5,-199 1662.5,-169 1529.5,-169"/>
<text text-anchor="start" x="1537.5" y="-187" font-family="Helvetica,sans-Serif" font-size="10.00">unsupported/Eigen/Aligned</text>
<text text-anchor="middle" x="1596" y="-176" font-family="Helvetica,sans-Serif" font-size="10.00">Vector3</text>
</g>
<!-- Node31&#45;&gt;Node36 -->
<g id="edge59" class="edge"><title>Node31&#45;&gt;Node36</title>
<path fill="none" stroke="midnightblue" d="M1340.38,-236.467C1386.84,-227.113 1462.35,-211.91 1519.28,-200.448"/>
<polygon fill="midnightblue" stroke="midnightblue" points="1520.21,-203.83 1529.32,-198.425 1518.83,-196.968 1520.21,-203.83"/>
</g>
<!-- Node37 -->
<g id="node37" class="node"><title>Node37</title>
<g id="a_node37"><a xlink:href="Math_8hpp.html" target="_top" xlink:title="Core/Math/Math.hpp">
<polygon fill="white" stroke="black" points="1719,-174.5 1719,-193.5 1825,-193.5 1825,-174.5 1719,-174.5"/>
<text text-anchor="middle" x="1772" y="-181.5" font-family="Helvetica,sans-Serif" font-size="10.00">Core/Math/Math.hpp</text>
</a>
</g>
</g>
<!-- Node31&#45;&gt;Node37 -->
<g id="edge60" class="edge"><title>Node31&#45;&gt;Node37</title>
<path fill="none" stroke="midnightblue" d="M1369.58,-236.953C1444.73,-228.368 1566.28,-214.091 1671,-200 1683.27,-198.349 1696.36,-196.483 1708.91,-194.641"/>
<polygon fill="midnightblue" stroke="midnightblue" points="1709.45,-198.099 1718.83,-193.175 1708.43,-191.174 1709.45,-198.099"/>
</g>
<!-- Node40 -->
<g id="node40" class="node"><title>Node40</title>
<g id="a_node40"><a xlink:href="LinearAlgebra_8inl.html" target="_top" xlink:title="Core/Math/LinearAlgebra.inl">
<polygon fill="white" stroke="black" points="1016.5,-174.5 1016.5,-193.5 1153.5,-193.5 1153.5,-174.5 1016.5,-174.5"/>
<text text-anchor="middle" x="1085" y="-181.5" font-family="Helvetica,sans-Serif" font-size="10.00">Core/Math/LinearAlgebra.inl</text>
</a>
</g>
</g>
<!-- Node31&#45;&gt;Node40 -->
<g id="edge66" class="edge"><title>Node31&#45;&gt;Node40</title>
<path fill="none" stroke="midnightblue" d="M1267.48,-236.403C1230.08,-225.866 1166.57,-207.978 1125.21,-196.328"/>
<polygon fill="midnightblue" stroke="midnightblue" points="1126.04,-192.923 1115.46,-193.581 1124.14,-199.661 1126.04,-192.923"/>
</g>
<!-- Node37&#45;&gt;Node3 -->
<g id="edge61" class="edge"><title>Node37&#45;&gt;Node3</title>
<path fill="none" stroke="midnightblue" d="M1721.78,-174.484C1705.61,-172.026 1687.59,-169.583 1671,-168 1621.37,-163.263 890.251,-133.75 678.852,-125.274"/>
<polygon fill="midnightblue" stroke="midnightblue" points="678.728,-121.766 668.596,-124.863 678.448,-128.76 678.728,-121.766"/>
</g>
<!-- Node37&#45;&gt;Node15 -->
<g id="edge62" class="edge"><title>Node37&#45;&gt;Node15</title>
<path fill="none" stroke="midnightblue" d="M1722.82,-174.492C1706.39,-171.972 1687.95,-169.49 1671,-168 1103.43,-118.108 951.804,-207.096 383.262,-131.846"/>
<polygon fill="midnightblue" stroke="midnightblue" points="383.54,-128.353 373.165,-130.499 382.614,-135.291 383.54,-128.353"/>
</g>
<!-- Node38 -->
<g id="node38" class="node"><title>Node38</title>
<polygon fill="white" stroke="#bfbfbf" points="1660,-112.5 1660,-131.5 1704,-131.5 1704,-112.5 1660,-112.5"/>
<text text-anchor="middle" x="1682" y="-119.5" font-family="Helvetica,sans-Serif" font-size="10.00">cmath</text>
</g>
<!-- Node37&#45;&gt;Node38 -->
<g id="edge63" class="edge"><title>Node37&#45;&gt;Node38</title>
<path fill="none" stroke="midnightblue" d="M1759.11,-174.403C1744.54,-164.691 1720.6,-148.732 1703.25,-137.17"/>
<polygon fill="midnightblue" stroke="midnightblue" points="1705.13,-134.215 1694.87,-131.581 1701.25,-140.04 1705.13,-134.215"/>
</g>
<!-- Node39 -->
<g id="node39" class="node"><title>Node39</title>
<g id="a_node39"><a xlink:href="Math_8inl.html" target="_top" xlink:title="Core/Math/Math.inl">
<polygon fill="white" stroke="black" points="1722,-112.5 1722,-131.5 1822,-131.5 1822,-112.5 1722,-112.5"/>
<text text-anchor="middle" x="1772" y="-119.5" font-family="Helvetica,sans-Serif" font-size="10.00">Core/Math/Math.inl</text>
</a>
</g>
</g>
<!-- Node37&#45;&gt;Node39 -->
<g id="edge64" class="edge"><title>Node37&#45;&gt;Node39</title>
<path fill="none" stroke="midnightblue" d="M1767.1,-174.403C1765.27,-165.938 1764.8,-152.728 1765.69,-141.82"/>
<polygon fill="midnightblue" stroke="midnightblue" points="1769.2,-141.966 1767.1,-131.581 1762.26,-141.006 1769.2,-141.966"/>
</g>
<!-- Node39&#45;&gt;Node37 -->
<g id="edge65" class="edge"><title>Node39&#45;&gt;Node37</title>
<path fill="none" stroke="midnightblue" d="M1776.9,-131.581C1778.73,-140.04 1779.2,-153.248 1778.32,-164.16"/>
<polygon fill="midnightblue" stroke="midnightblue" points="1774.8,-164.018 1776.9,-174.403 1781.74,-164.977 1774.8,-164.018"/>
</g>
<!-- Node41&#45;&gt;Node28 -->
<g id="edge70" class="edge"><title>Node41&#45;&gt;Node28</title>
<path fill="none" stroke="midnightblue" d="M883,-404.083C883,-397.006 883,-386.861 883,-377.986"/>
<polygon fill="midnightblue" stroke="midnightblue" points="886.5,-377.751 883,-367.751 879.5,-377.751 886.5,-377.751"/>
</g>
<!-- Node41&#45;&gt;Node30 -->
<g id="edge69" class="edge"><title>Node41&#45;&gt;Node30</title>
<path fill="none" stroke="midnightblue" d="M885.376,-423.751C884.649,-431.014 881.753,-441.589 878.194,-450.69"/>
<polygon fill="midnightblue" stroke="midnightblue" points="874.879,-449.527 873.974,-460.083 881.264,-452.396 874.879,-449.527"/>
</g>
</g>
</svg>
