<?xml version="1.0" encoding="UTF-8" standalone="no"?>
<!DOCTYPE svg PUBLIC "-//W3C//DTD SVG 1.1//EN"
 "http://www.w3.org/Graphics/SVG/1.1/DTD/svg11.dtd">
<!-- Generated by graphviz version 2.36.0 (20140111.2315)
 -->
<!-- Title: /home/travis/build/STORM&#45;IRIT/Radium&#45;Engine/src/Core/Mesh/DCEL/Iterator/Face/FVIterator.hpp Pages: 1 -->
<svg width="1239pt" height="794pt"
 viewBox="0.00 0.00 1239.00 794.00" xmlns="http://www.w3.org/2000/svg" xmlns:xlink="http://www.w3.org/1999/xlink">
<g id="graph0" class="graph" transform="scale(1 1) rotate(0) translate(4 790)">
<title>/home/travis/build/STORM&#45;IRIT/Radium&#45;Engine/src/Core/Mesh/DCEL/Iterator/Face/FVIterator.hpp</title>
<polygon fill="white" stroke="none" points="-4,4 -4,-790 1235,-790 1235,4 -4,4"/>
<!-- Node1 -->
<g id="node1" class="node"><title>Node1</title>
<polygon fill="#bfbfbf" stroke="black" points="550,-733 550,-785 698,-785 698,-733 550,-733"/>
<text text-anchor="start" x="558" y="-773" font-family="Helvetica,sans-Serif" font-size="10.00">/home/travis/build</text>
<text text-anchor="start" x="558" y="-762" font-family="Helvetica,sans-Serif" font-size="10.00">/STORM&#45;IRIT/Radium&#45;Engine</text>
<text text-anchor="start" x="558" y="-751" font-family="Helvetica,sans-Serif" font-size="10.00">/src/Core/Mesh/DCEL/Iterator</text>
<text text-anchor="middle" x="624" y="-740" font-family="Helvetica,sans-Serif" font-size="10.00">/Face/FVIterator.hpp</text>
</g>
<!-- Node2 -->
<g id="node2" class="node"><title>Node2</title>
<g id="a_node2"><a xlink:href="FaceIterator_8hpp.html" target="_top" xlink:title="Core/Mesh/DCEL/Iterator\l/Face/FaceIterator.hpp">
<polygon fill="white" stroke="black" points="514,-597 514,-627 642,-627 642,-597 514,-597"/>
<text text-anchor="start" x="522" y="-615" font-family="Helvetica,sans-Serif" font-size="10.00">Core/Mesh/DCEL/Iterator</text>
<text text-anchor="middle" x="578" y="-604" font-family="Helvetica,sans-Serif" font-size="10.00">/Face/FaceIterator.hpp</text>
</a>
</g>
</g>
<!-- Node1&#45;&gt;Node2 -->
<g id="edge1" class="edge"><title>Node1&#45;&gt;Node2</title>
<path fill="none" stroke="midnightblue" d="M611.746,-732.775C606.69,-721.679 601.073,-708.379 597,-696 590.595,-676.533 585.555,-653.81 582.28,-637.066"/>
<polygon fill="midnightblue" stroke="midnightblue" points="585.678,-636.199 580.386,-627.02 578.799,-637.496 585.678,-636.199"/>
</g>
<!-- Node37 -->
<g id="node37" class="node"><title>Node37</title>
<g id="a_node37"><a xlink:href="FVIterator_8inl.html" target="_top" xlink:title="Core/Mesh/DCEL/Iterator\l/Face/FVIterator.inl">
<polygon fill="white" stroke="black" points="606,-665 606,-695 734,-695 734,-665 606,-665"/>
<text text-anchor="start" x="614" y="-683" font-family="Helvetica,sans-Serif" font-size="10.00">Core/Mesh/DCEL/Iterator</text>
<text text-anchor="middle" x="670" y="-672" font-family="Helvetica,sans-Serif" font-size="10.00">/Face/FVIterator.inl</text>
</a>
</g>
</g>
<!-- Node1&#45;&gt;Node37 -->
<g id="edge57" class="edge"><title>Node1&#45;&gt;Node37</title>
<path fill="none" stroke="midnightblue" d="M639.062,-732.787C644.585,-723.542 650.804,-713.132 656.21,-704.083"/>
<polygon fill="midnightblue" stroke="midnightblue" points="659.362,-705.632 661.486,-695.252 653.353,-702.042 659.362,-705.632"/>
</g>
<!-- Node3 -->
<g id="node3" class="node"><title>Node3</title>
<g id="a_node3"><a xlink:href="Iterator_8hpp.html" target="_top" xlink:title="Core/Mesh/DCEL/Iterator\l/Iterator.hpp">
<polygon fill="white" stroke="black" points="256,-529 256,-559 384,-559 384,-529 256,-529"/>
<text text-anchor="start" x="264" y="-547" font-family="Helvetica,sans-Serif" font-size="10.00">Core/Mesh/DCEL/Iterator</text>
<text text-anchor="middle" x="320" y="-536" font-family="Helvetica,sans-Serif" font-size="10.00">/Iterator.hpp</text>
</a>
</g>
</g>
<!-- Node2&#45;&gt;Node3 -->
<g id="edge2" class="edge"><title>Node2&#45;&gt;Node3</title>
<path fill="none" stroke="midnightblue" d="M522.969,-596.922C482.466,-586.561 427.27,-572.441 384.661,-561.541"/>
<polygon fill="midnightblue" stroke="midnightblue" points="385.502,-558.144 374.946,-559.056 383.767,-564.925 385.502,-558.144"/>
</g>
<!-- Node36 -->
<g id="node36" class="node"><title>Node36</title>
<g id="a_node36"><a xlink:href="FaceIterator_8inl.html" target="_top" xlink:title="Core/Mesh/DCEL/Iterator\l/Face/FaceIterator.inl">
<polygon fill="white" stroke="black" points="514,-461 514,-491 642,-491 642,-461 514,-461"/>
<text text-anchor="start" x="522" y="-479" font-family="Helvetica,sans-Serif" font-size="10.00">Core/Mesh/DCEL/Iterator</text>
<text text-anchor="middle" x="578" y="-468" font-family="Helvetica,sans-Serif" font-size="10.00">/Face/FaceIterator.inl</text>
</a>
</g>
</g>
<!-- Node2&#45;&gt;Node36 -->
<g id="edge53" class="edge"><title>Node2&#45;&gt;Node36</title>
<path fill="none" stroke="midnightblue" d="M573.63,-596.66C570.825,-573.891 570.499,-529.203 572.654,-501.349"/>
<polygon fill="midnightblue" stroke="midnightblue" points="576.152,-501.53 573.642,-491.237 569.186,-500.849 576.152,-501.53"/>
</g>
<!-- Node4 -->
<g id="node4" class="node"><title>Node4</title>
<g id="a_node4"><a xlink:href="Definition_8hpp.html" target="_top" xlink:title="Core/Mesh/DCEL/Definition.hpp">
<polygon fill="white" stroke="black" points="132,-236.5 132,-255.5 290,-255.5 290,-236.5 132,-236.5"/>
<text text-anchor="middle" x="211" y="-243.5" font-family="Helvetica,sans-Serif" font-size="10.00">Core/Mesh/DCEL/Definition.hpp</text>
</a>
</g>
</g>
<!-- Node3&#45;&gt;Node4 -->
<g id="edge3" class="edge"><title>Node3&#45;&gt;Node4</title>
<path fill="none" stroke="midnightblue" d="M292.929,-528.962C277.822,-520.032 259.572,-507.282 247,-492 223.233,-463.11 213,-452.41 213,-415 213,-415 213,-415 213,-357 213,-324.943 212.14,-287.639 211.548,-265.747"/>
<polygon fill="midnightblue" stroke="midnightblue" points="215.041,-265.454 211.261,-255.557 208.044,-265.651 215.041,-265.454"/>
</g>
<!-- Node6 -->
<g id="node6" class="node"><title>Node6</title>
<polygon fill="white" stroke="#bfbfbf" points="0,-174.5 0,-193.5 44,-193.5 44,-174.5 0,-174.5"/>
<text text-anchor="middle" x="22" y="-181.5" font-family="Helvetica,sans-Serif" font-size="10.00">vector</text>
</g>
<!-- Node3&#45;&gt;Node6 -->
<g id="edge6" class="edge"><title>Node3&#45;&gt;Node6</title>
<path fill="none" stroke="midnightblue" d="M255.811,-538.473C179.689,-529.209 63,-500.984 63,-415 63,-415 63,-415 63,-301 63,-264.325 44.5558,-224.663 32.409,-202.52"/>
<polygon fill="midnightblue" stroke="midnightblue" points="35.3496,-200.611 27.36,-193.652 29.2665,-204.074 35.3496,-200.611"/>
</g>
<!-- Node7 -->
<g id="node7" class="node"><title>Node7</title>
<g id="a_node7"><a xlink:href="Iterator_8inl.html" target="_top" xlink:title="Core/Mesh/DCEL/Iterator\l/Iterator.inl">
<polygon fill="white" stroke="black" points="256,-461 256,-491 384,-491 384,-461 256,-461"/>
<text text-anchor="start" x="264" y="-479" font-family="Helvetica,sans-Serif" font-size="10.00">Core/Mesh/DCEL/Iterator</text>
<text text-anchor="middle" x="320" y="-468" font-family="Helvetica,sans-Serif" font-size="10.00">/Iterator.inl</text>
</a>
</g>
</g>
<!-- Node3&#45;&gt;Node7 -->
<g id="edge7" class="edge"><title>Node3&#45;&gt;Node7</title>
<path fill="none" stroke="midnightblue" d="M314.322,-528.679C313.294,-520.722 313.005,-510.605 313.456,-501.436"/>
<polygon fill="midnightblue" stroke="midnightblue" points="316.959,-501.555 314.325,-491.293 309.984,-500.958 316.959,-501.555"/>
</g>
<!-- Node5 -->
<g id="node5" class="node"><title>Node5</title>
<polygon fill="white" stroke="#bfbfbf" points="62,-174.5 62,-193.5 114,-193.5 114,-174.5 62,-174.5"/>
<text text-anchor="middle" x="88" y="-181.5" font-family="Helvetica,sans-Serif" font-size="10.00">memory</text>
</g>
<!-- Node4&#45;&gt;Node5 -->
<g id="edge4" class="edge"><title>Node4&#45;&gt;Node5</title>
<path fill="none" stroke="midnightblue" d="M193.377,-236.403C172.826,-226.379 138.636,-209.701 114.793,-198.07"/>
<polygon fill="midnightblue" stroke="midnightblue" points="116.112,-194.819 105.59,-193.581 113.043,-201.111 116.112,-194.819"/>
</g>
<!-- Node4&#45;&gt;Node6 -->
<g id="edge5" class="edge"><title>Node4&#45;&gt;Node6</title>
<path fill="none" stroke="midnightblue" d="M174.335,-236.476C141.933,-228.492 93.6444,-215.487 53,-200 51.3483,-199.371 49.6647,-198.687 47.9786,-197.969"/>
<polygon fill="midnightblue" stroke="midnightblue" points="49.0487,-194.61 38.4986,-193.637 46.1392,-200.977 49.0487,-194.61"/>
</g>
<!-- Node7&#45;&gt;Node3 -->
<g id="edge8" class="edge"><title>Node7&#45;&gt;Node3</title>
<path fill="none" stroke="midnightblue" d="M325.675,-491.293C326.704,-499.245 326.995,-509.361 326.545,-518.532"/>
<polygon fill="midnightblue" stroke="midnightblue" points="323.042,-518.417 325.678,-528.679 330.017,-519.013 323.042,-518.417"/>
</g>
<!-- Node8 -->
<g id="node8" class="node"><title>Node8</title>
<g id="a_node8"><a xlink:href="DCEL_2HalfEdge_8hpp.html" target="_top" xlink:title="Core/Mesh/DCEL/HalfEdge.hpp">
<polygon fill="white" stroke="black" points="545.5,-404.5 545.5,-423.5 702.5,-423.5 702.5,-404.5 545.5,-404.5"/>
<text text-anchor="middle" x="624" y="-411.5" font-family="Helvetica,sans-Serif" font-size="10.00">Core/Mesh/DCEL/HalfEdge.hpp</text>
</a>
</g>
</g>
<!-- Node7&#45;&gt;Node8 -->
<g id="edge9" class="edge"><title>Node7&#45;&gt;Node8</title>
<path fill="none" stroke="midnightblue" d="M384.099,-462.349C439.462,-451.422 518.529,-435.817 570.541,-425.551"/>
<polygon fill="midnightblue" stroke="midnightblue" points="571.434,-428.942 580.567,-423.572 570.079,-422.075 571.434,-428.942"/>
</g>
<!-- Node8&#45;&gt;Node4 -->
<g id="edge22" class="edge"><title>Node8&#45;&gt;Node4</title>
<path fill="none" stroke="midnightblue" d="M602.665,-404.425C534.552,-377.047 322.096,-291.654 241.986,-259.454"/>
<polygon fill="midnightblue" stroke="midnightblue" points="243.039,-256.106 232.455,-255.624 240.428,-262.601 243.039,-256.106"/>
</g>
<!-- Node9 -->
<g id="node9" class="node"><title>Node9</title>
<g id="a_node9"><a xlink:href="Index_8hpp.html" target="_top" xlink:title="Core/Index/Index.hpp">
<polygon fill="white" stroke="black" points="998,-174.5 998,-193.5 1108,-193.5 1108,-174.5 998,-174.5"/>
<text text-anchor="middle" x="1053" y="-181.5" font-family="Helvetica,sans-Serif" font-size="10.00">Core/Index/Index.hpp</text>
</a>
</g>
</g>
<!-- Node8&#45;&gt;Node9 -->
<g id="edge10" class="edge"><title>Node8&#45;&gt;Node9</title>
<path fill="none" stroke="midnightblue" d="M702.502,-408.354C752.069,-403.093 816.437,-391.882 869,-368 941.863,-334.895 957.106,-316.06 1010,-256 1024.39,-239.656 1036.78,-217.866 1044.51,-202.756"/>
<polygon fill="midnightblue" stroke="midnightblue" points="1047.79,-204.025 1049.09,-193.511 1041.51,-200.92 1047.79,-204.025"/>
</g>
<!-- Node12 -->
<g id="node12" class="node"><title>Node12</title>
<g id="a_node12"><a xlink:href="IndexedObject_8hpp.html" target="_top" xlink:title="Core/Index/IndexedObject.hpp">
<polygon fill="white" stroke="black" points="664.5,-236.5 664.5,-255.5 813.5,-255.5 813.5,-236.5 664.5,-236.5"/>
<text text-anchor="middle" x="739" y="-243.5" font-family="Helvetica,sans-Serif" font-size="10.00">Core/Index/IndexedObject.hpp</text>
</a>
</g>
</g>
<!-- Node8&#45;&gt;Node12 -->
<g id="edge13" class="edge"><title>Node8&#45;&gt;Node12</title>
<path fill="none" stroke="midnightblue" d="M652.513,-404.432C670.942,-397.471 694.016,-385.837 708,-368 731.669,-337.809 737.429,-291.563 738.729,-265.868"/>
<polygon fill="midnightblue" stroke="midnightblue" points="742.235,-265.748 739.061,-255.64 735.238,-265.521 742.235,-265.748"/>
</g>
<!-- Node20 -->
<g id="node20" class="node"><title>Node20</title>
<g id="a_node20"><a xlink:href="DCEL_2HalfEdge_8inl.html" target="_top" xlink:title="Core/Mesh/DCEL/HalfEdge.inl">
<polygon fill="white" stroke="black" points="548.5,-348.5 548.5,-367.5 699.5,-367.5 699.5,-348.5 548.5,-348.5"/>
<text text-anchor="middle" x="624" y="-355.5" font-family="Helvetica,sans-Serif" font-size="10.00">Core/Mesh/DCEL/HalfEdge.inl</text>
</a>
</g>
</g>
<!-- Node8&#45;&gt;Node20 -->
<g id="edge23" class="edge"><title>Node8&#45;&gt;Node20</title>
<path fill="none" stroke="midnightblue" d="M618.834,-404.083C617.324,-396.927 616.894,-386.635 617.542,-377.691"/>
<polygon fill="midnightblue" stroke="midnightblue" points="621.015,-378.126 618.869,-367.751 614.077,-377.2 621.015,-378.126"/>
</g>
<!-- Node10 -->
<g id="node10" class="node"><title>Node10</title>
<polygon fill="white" stroke="#bfbfbf" points="1069,-112.5 1069,-131.5 1109,-131.5 1109,-112.5 1069,-112.5"/>
<text text-anchor="middle" x="1089" y="-119.5" font-family="Helvetica,sans-Serif" font-size="10.00">limits</text>
</g>
<!-- Node9&#45;&gt;Node10 -->
<g id="edge11" class="edge"><title>Node9&#45;&gt;Node10</title>
<path fill="none" stroke="midnightblue" d="M1058.16,-174.403C1063.45,-165.582 1071.84,-151.608 1078.53,-140.455"/>
<polygon fill="midnightblue" stroke="midnightblue" points="1081.71,-141.956 1083.85,-131.581 1075.71,-138.355 1081.71,-141.956"/>
</g>
<!-- Node11 -->
<g id="node11" class="node"><title>Node11</title>
<g id="a_node11"><a xlink:href="Index_8inl.html" target="_top" xlink:title="Core/Index/Index.inl">
<polygon fill="white" stroke="black" points="1127,-112.5 1127,-131.5 1231,-131.5 1231,-112.5 1127,-112.5"/>
<text text-anchor="middle" x="1179" y="-119.5" font-family="Helvetica,sans-Serif" font-size="10.00">Core/Index/Index.inl</text>
</a>
</g>
</g>
<!-- Node9&#45;&gt;Node11 -->
<g id="edge12" class="edge"><title>Node9&#45;&gt;Node11</title>
<path fill="none" stroke="midnightblue" d="M1071.05,-174.403C1092.2,-164.334 1127.44,-147.552 1151.88,-135.915"/>
<polygon fill="midnightblue" stroke="midnightblue" points="1153.46,-139.04 1160.98,-131.581 1150.45,-132.72 1153.46,-139.04"/>
</g>
<!-- Node12&#45;&gt;Node9 -->
<g id="edge14" class="edge"><title>Node12&#45;&gt;Node9</title>
<path fill="none" stroke="midnightblue" d="M790.165,-236.492C840.599,-227.932 919.799,-214.024 988,-200 994.253,-198.714 1000.83,-197.287 1007.29,-195.838"/>
<polygon fill="midnightblue" stroke="midnightblue" points="1008.33,-199.191 1017.31,-193.561 1006.78,-192.366 1008.33,-199.191"/>
</g>
<!-- Node13 -->
<g id="node13" class="node"><title>Node13</title>
<g id="a_node13"><a xlink:href="RaCore_8hpp.html" target="_top" xlink:title="Core/RaCore.hpp">
<polygon fill="white" stroke="black" points="704.5,-112.5 704.5,-131.5 797.5,-131.5 797.5,-112.5 704.5,-112.5"/>
<text text-anchor="middle" x="751" y="-119.5" font-family="Helvetica,sans-Serif" font-size="10.00">Core/RaCore.hpp</text>
</a>
</g>
</g>
<!-- Node12&#45;&gt;Node13 -->
<g id="edge15" class="edge"><title>Node12&#45;&gt;Node13</title>
<path fill="none" stroke="midnightblue" d="M774.013,-236.445C792.934,-229.844 814.684,-218.594 826,-200 833.394,-187.851 833.007,-180.376 826,-168 817.653,-153.258 802.338,-142.819 787.713,-135.732"/>
<polygon fill="midnightblue" stroke="midnightblue" points="788.842,-132.404 778.282,-131.547 786.003,-138.803 788.842,-132.404"/>
</g>
<!-- Node14 -->
<g id="node14" class="node"><title>Node14</title>
<g id="a_node14"><a xlink:href="CoreMacros_8hpp.html" target="_top" xlink:title="Core/CoreMacros.hpp">
<polygon fill="white" stroke="black" points="694.5,-56.5 694.5,-75.5 807.5,-75.5 807.5,-56.5 694.5,-56.5"/>
<text text-anchor="middle" x="751" y="-63.5" font-family="Helvetica,sans-Serif" font-size="10.00">Core/CoreMacros.hpp</text>
</a>
</g>
</g>
<!-- Node13&#45;&gt;Node14 -->
<g id="edge16" class="edge"><title>Node13&#45;&gt;Node14</title>
<path fill="none" stroke="midnightblue" d="M751,-112.083C751,-105.006 751,-94.8611 751,-85.9865"/>
<polygon fill="midnightblue" stroke="midnightblue" points="754.5,-85.751 751,-75.7511 747.5,-85.7511 754.5,-85.751"/>
</g>
<!-- Node15 -->
<g id="node15" class="node"><title>Node15</title>
<polygon fill="white" stroke="#bfbfbf" points="595.5,-0.5 595.5,-19.5 644.5,-19.5 644.5,-0.5 595.5,-0.5"/>
<text text-anchor="middle" x="620" y="-7.5" font-family="Helvetica,sans-Serif" font-size="10.00">cassert</text>
</g>
<!-- Node14&#45;&gt;Node15 -->
<g id="edge17" class="edge"><title>Node14&#45;&gt;Node15</title>
<path fill="none" stroke="midnightblue" d="M730.243,-56.4435C708.684,-47.5566 674.737,-33.5632 650.206,-23.4514"/>
<polygon fill="midnightblue" stroke="midnightblue" points="651.239,-20.0917 640.66,-19.5164 648.572,-26.5634 651.239,-20.0917"/>
</g>
<!-- Node16 -->
<g id="node16" class="node"><title>Node16</title>
<polygon fill="white" stroke="#bfbfbf" points="662.5,-0.5 662.5,-19.5 705.5,-19.5 705.5,-0.5 662.5,-0.5"/>
<text text-anchor="middle" x="684" y="-7.5" font-family="Helvetica,sans-Serif" font-size="10.00">cstdio</text>
</g>
<!-- Node14&#45;&gt;Node16 -->
<g id="edge18" class="edge"><title>Node14&#45;&gt;Node16</title>
<path fill="none" stroke="midnightblue" d="M740.235,-56.324C730.234,-48.2631 715.113,-36.0765 703.07,-26.3695"/>
<polygon fill="midnightblue" stroke="midnightblue" points="704.943,-23.3841 694.961,-19.8339 700.55,-28.8343 704.943,-23.3841"/>
</g>
<!-- Node17 -->
<g id="node17" class="node"><title>Node17</title>
<polygon fill="white" stroke="#bfbfbf" points="724,-0.5 724,-19.5 778,-19.5 778,-0.5 724,-0.5"/>
<text text-anchor="middle" x="751" y="-7.5" font-family="Helvetica,sans-Serif" font-size="10.00">iostream</text>
</g>
<!-- Node14&#45;&gt;Node17 -->
<g id="edge19" class="edge"><title>Node14&#45;&gt;Node17</title>
<path fill="none" stroke="midnightblue" d="M751,-56.083C751,-49.0059 751,-38.8611 751,-29.9865"/>
<polygon fill="midnightblue" stroke="midnightblue" points="754.5,-29.751 751,-19.7511 747.5,-29.7511 754.5,-29.751"/>
</g>
<!-- Node18 -->
<g id="node18" class="node"><title>Node18</title>
<polygon fill="white" stroke="#bfbfbf" points="796,-0.5 796,-19.5 848,-19.5 848,-0.5 796,-0.5"/>
<text text-anchor="middle" x="822" y="-7.5" font-family="Helvetica,sans-Serif" font-size="10.00">sstream</text>
</g>
<!-- Node14&#45;&gt;Node18 -->
<g id="edge20" class="edge"><title>Node14&#45;&gt;Node18</title>
<path fill="none" stroke="midnightblue" d="M762.407,-56.324C773.109,-48.1849 789.341,-35.8395 802.163,-26.0874"/>
<polygon fill="midnightblue" stroke="midnightblue" points="804.544,-28.6734 810.385,-19.8339 800.307,-23.1018 804.544,-28.6734"/>
</g>
<!-- Node19 -->
<g id="node19" class="node"><title>Node19</title>
<polygon fill="white" stroke="#bfbfbf" points="866,-0.5 866,-19.5 910,-19.5 910,-0.5 866,-0.5"/>
<text text-anchor="middle" x="888" y="-7.5" font-family="Helvetica,sans-Serif" font-size="10.00">thread</text>
</g>
<!-- Node14&#45;&gt;Node19 -->
<g id="edge21" class="edge"><title>Node14&#45;&gt;Node19</title>
<path fill="none" stroke="midnightblue" d="M772.708,-56.4435C795.355,-47.5171 831.072,-33.4387 856.752,-23.3168"/>
<polygon fill="midnightblue" stroke="midnightblue" points="858.374,-26.4397 866.394,-19.5164 855.807,-19.9273 858.374,-26.4397"/>
</g>
<!-- Node20&#45;&gt;Node8 -->
<g id="edge24" class="edge"><title>Node20&#45;&gt;Node8</title>
<path fill="none" stroke="midnightblue" d="M629.131,-367.751C630.657,-374.858 631.104,-385.136 630.472,-394.101"/>
<polygon fill="midnightblue" stroke="midnightblue" points="626.993,-393.713 629.166,-404.083 633.934,-394.622 626.993,-393.713"/>
</g>
<!-- Node21 -->
<g id="node21" class="node"><title>Node21</title>
<g id="a_node21"><a xlink:href="Face_8hpp.html" target="_top" xlink:title="Core/Mesh/DCEL/Face.hpp">
<polygon fill="white" stroke="black" points="769,-292.5 769,-311.5 907,-311.5 907,-292.5 769,-292.5"/>
<text text-anchor="middle" x="838" y="-299.5" font-family="Helvetica,sans-Serif" font-size="10.00">Core/Mesh/DCEL/Face.hpp</text>
</a>
</g>
</g>
<!-- Node20&#45;&gt;Node21 -->
<g id="edge25" class="edge"><title>Node20&#45;&gt;Node21</title>
<path fill="none" stroke="midnightblue" d="M657.909,-348.444C694.849,-339.122 754.054,-324.183 794.418,-313.997"/>
<polygon fill="midnightblue" stroke="midnightblue" points="795.41,-317.357 804.25,-311.516 793.697,-310.57 795.41,-317.357"/>
</g>
<!-- Node23 -->
<g id="node23" class="node"><title>Node23</title>
<g id="a_node23"><a xlink:href="Vertex_8hpp.html" target="_top" xlink:title="Core/Mesh/DCEL/Vertex.hpp">
<polygon fill="white" stroke="black" points="546.5,-292.5 546.5,-311.5 691.5,-311.5 691.5,-292.5 546.5,-292.5"/>
<text text-anchor="middle" x="619" y="-299.5" font-family="Helvetica,sans-Serif" font-size="10.00">Core/Mesh/DCEL/Vertex.hpp</text>
</a>
</g>
</g>
<!-- Node20&#45;&gt;Node23 -->
<g id="edge32" class="edge"><title>Node20&#45;&gt;Node23</title>
<path fill="none" stroke="midnightblue" d="M623.174,-348.083C622.519,-341.006 621.58,-330.861 620.758,-321.986"/>
<polygon fill="midnightblue" stroke="midnightblue" points="624.217,-321.386 619.81,-311.751 617.247,-322.031 624.217,-321.386"/>
</g>
<!-- Node21&#45;&gt;Node4 -->
<g id="edge28" class="edge"><title>Node21&#45;&gt;Node4</title>
<path fill="none" stroke="midnightblue" d="M768.619,-295.623C667.907,-287.725 475.055,-272.256 300.303,-256.106"/>
<polygon fill="midnightblue" stroke="midnightblue" points="300.428,-252.603 290.147,-255.165 299.782,-259.573 300.428,-252.603"/>
</g>
<!-- Node21&#45;&gt;Node9 -->
<g id="edge26" class="edge"><title>Node21&#45;&gt;Node9</title>
<path fill="none" stroke="midnightblue" d="M838.403,-292.471C839.531,-278.586 843.807,-251.127 860,-236 865.484,-230.877 951.909,-209.337 1007.23,-195.943"/>
<polygon fill="midnightblue" stroke="midnightblue" points="1008.27,-199.292 1017.17,-193.542 1006.63,-192.487 1008.27,-199.292"/>
</g>
<!-- Node21&#45;&gt;Node12 -->
<g id="edge27" class="edge"><title>Node21&#45;&gt;Node12</title>
<path fill="none" stroke="midnightblue" d="M822.094,-292.324C806.362,-283.743 782.058,-270.486 763.791,-260.522"/>
<polygon fill="midnightblue" stroke="midnightblue" points="765.322,-257.37 754.867,-255.655 761.97,-263.516 765.322,-257.37"/>
</g>
<!-- Node22 -->
<g id="node22" class="node"><title>Node22</title>
<g id="a_node22"><a xlink:href="Face_8inl.html" target="_top" xlink:title="Core/Mesh/DCEL/Face.inl">
<polygon fill="white" stroke="black" points="869,-236.5 869,-255.5 1001,-255.5 1001,-236.5 869,-236.5"/>
<text text-anchor="middle" x="935" y="-243.5" font-family="Helvetica,sans-Serif" font-size="10.00">Core/Mesh/DCEL/Face.inl</text>
</a>
</g>
</g>
<!-- Node21&#45;&gt;Node22 -->
<g id="edge29" class="edge"><title>Node21&#45;&gt;Node22</title>
<path fill="none" stroke="midnightblue" d="M848.47,-292.324C862.151,-283.664 885.998,-270.242 905.298,-260.249"/>
<polygon fill="midnightblue" stroke="midnightblue" points="907.013,-263.304 914.344,-255.655 903.843,-257.063 907.013,-263.304"/>
</g>
<!-- Node22&#45;&gt;Node8 -->
<g id="edge31" class="edge"><title>Node22&#45;&gt;Node8</title>
<path fill="none" stroke="midnightblue" d="M934.877,-255.816C934.208,-269.61 930.92,-296.336 916,-312 862.884,-367.764 777.506,-392.747 712.758,-403.936"/>
<polygon fill="midnightblue" stroke="midnightblue" points="711.85,-400.538 702.551,-405.616 712.987,-407.445 711.85,-400.538"/>
</g>
<!-- Node22&#45;&gt;Node21 -->
<g id="edge30" class="edge"><title>Node22&#45;&gt;Node21</title>
<path fill="none" stroke="midnightblue" d="M924.564,-255.655C910.9,-264.307 887.058,-277.727 867.75,-287.726"/>
<polygon fill="midnightblue" stroke="midnightblue" points="866.03,-284.674 858.7,-292.324 869.2,-290.915 866.03,-284.674"/>
</g>
<!-- Node23&#45;&gt;Node4 -->
<g id="edge49" class="edge"><title>Node23&#45;&gt;Node4</title>
<path fill="none" stroke="midnightblue" d="M554.351,-292.444C481.237,-282.767 362.377,-267.035 285.447,-256.853"/>
<polygon fill="midnightblue" stroke="midnightblue" points="285.719,-253.359 275.346,-255.516 284.801,-260.298 285.719,-253.359"/>
</g>
<!-- Node23&#45;&gt;Node9 -->
<g id="edge33" class="edge"><title>Node23&#45;&gt;Node9</title>
<path fill="none" stroke="midnightblue" d="M621.12,-292.056C625.066,-277.574 635.014,-249.276 655,-236 716.999,-194.816 914.607,-212.39 988,-200 994.905,-198.834 1002.18,-197.382 1009.25,-195.844"/>
<polygon fill="midnightblue" stroke="midnightblue" points="1010.43,-199.166 1019.42,-193.553 1008.89,-192.338 1010.43,-199.166"/>
</g>
<!-- Node23&#45;&gt;Node12 -->
<g id="edge34" class="edge"><title>Node23&#45;&gt;Node12</title>
<path fill="none" stroke="midnightblue" d="M638.014,-292.444C657.588,-283.636 688.308,-269.812 710.729,-259.722"/>
<polygon fill="midnightblue" stroke="midnightblue" points="712.392,-262.812 720.075,-255.516 709.519,-256.428 712.392,-262.812"/>
</g>
<!-- Node24 -->
<g id="node24" class="node"><title>Node24</title>
<g id="a_node24"><a xlink:href="LinearAlgebra_8hpp.html" target="_top" xlink:title="Core/Math/LinearAlgebra.hpp">
<polygon fill="white" stroke="black" points="465.5,-236.5 465.5,-255.5 608.5,-255.5 608.5,-236.5 465.5,-236.5"/>
<text text-anchor="middle" x="537" y="-243.5" font-family="Helvetica,sans-Serif" font-size="10.00">Core/Math/LinearAlgebra.hpp</text>
</a>
</g>
</g>
<!-- Node23&#45;&gt;Node24 -->
<g id="edge35" class="edge"><title>Node23&#45;&gt;Node24</title>
<path fill="none" stroke="midnightblue" d="M605.825,-292.324C593.153,-283.979 573.767,-271.212 558.794,-261.352"/>
<polygon fill="midnightblue" stroke="midnightblue" points="560.419,-258.231 550.142,-255.655 556.569,-264.078 560.419,-258.231"/>
</g>
<!-- Node35 -->
<g id="node35" class="node"><title>Node35</title>
<g id="a_node35"><a xlink:href="Vertex_8inl.html" target="_top" xlink:title="Core/Mesh/DCEL/Vertex.inl">
<polygon fill="white" stroke="black" points="308.5,-236.5 308.5,-255.5 447.5,-255.5 447.5,-236.5 308.5,-236.5"/>
<text text-anchor="middle" x="378" y="-243.5" font-family="Helvetica,sans-Serif" font-size="10.00">Core/Mesh/DCEL/Vertex.inl</text>
</a>
</g>
</g>
<!-- Node23&#45;&gt;Node35 -->
<g id="edge50" class="edge"><title>Node23&#45;&gt;Node35</title>
<path fill="none" stroke="midnightblue" d="M575.724,-292.444C531.801,-283.063 464.397,-267.993 420.689,-257.804"/>
<polygon fill="midnightblue" stroke="midnightblue" points="421.463,-254.39 410.929,-255.516 419.866,-261.206 421.463,-254.39"/>
</g>
<!-- Node24&#45;&gt;Node13 -->
<g id="edge36" class="edge"><title>Node24&#45;&gt;Node13</title>
<path fill="none" stroke="midnightblue" d="M465.347,-237.432C401.894,-227.969 324.431,-207.897 360,-168 381.843,-143.499 591.179,-130.426 694.242,-125.429"/>
<polygon fill="midnightblue" stroke="midnightblue" points="694.65,-128.914 704.472,-124.943 694.317,-121.922 694.65,-128.914"/>
</g>
<!-- Node25 -->
<g id="node25" class="node"><title>Node25</title>
<polygon fill="white" stroke="#bfbfbf" points="752.5,-174.5 752.5,-193.5 817.5,-193.5 817.5,-174.5 752.5,-174.5"/>
<text text-anchor="middle" x="785" y="-181.5" font-family="Helvetica,sans-Serif" font-size="10.00">Eigen/Core</text>
</g>
<!-- Node24&#45;&gt;Node25 -->
<g id="edge37" class="edge"><title>Node24&#45;&gt;Node25</title>
<path fill="none" stroke="midnightblue" d="M584.472,-236.421C626.504,-228.402 689.333,-215.377 743,-200 746.201,-199.083 749.511,-198.051 752.804,-196.968"/>
<polygon fill="midnightblue" stroke="midnightblue" points="754.185,-200.194 762.503,-193.633 751.909,-193.575 754.185,-200.194"/>
</g>
<!-- Node26 -->
<g id="node26" class="node"><title>Node26</title>
<polygon fill="white" stroke="#bfbfbf" points="132.5,-174.5 132.5,-193.5 219.5,-193.5 219.5,-174.5 132.5,-174.5"/>
<text text-anchor="middle" x="176" y="-181.5" font-family="Helvetica,sans-Serif" font-size="10.00">Eigen/Geometry</text>
</g>
<!-- Node24&#45;&gt;Node26 -->
<g id="edge38" class="edge"><title>Node24&#45;&gt;Node26</title>
<path fill="none" stroke="midnightblue" d="M471.063,-236.471C394.525,-226.38 273.041,-209.729 228,-200 223.147,-198.952 218.081,-197.697 213.098,-196.366"/>
<polygon fill="midnightblue" stroke="midnightblue" points="213.653,-192.887 203.08,-193.568 211.77,-199.629 213.653,-192.887"/>
</g>
<!-- Node27 -->
<g id="node27" class="node"><title>Node27</title>
<polygon fill="white" stroke="#bfbfbf" points="237.5,-174.5 237.5,-193.5 312.5,-193.5 312.5,-174.5 237.5,-174.5"/>
<text text-anchor="middle" x="275" y="-181.5" font-family="Helvetica,sans-Serif" font-size="10.00">Eigen/Sparse</text>
</g>
<!-- Node24&#45;&gt;Node27 -->
<g id="edge39" class="edge"><title>Node24&#45;&gt;Node27</title>
<path fill="none" stroke="midnightblue" d="M492.953,-236.491C450.319,-228.037 383.958,-214.299 327,-200 322.522,-198.876 317.847,-197.63 313.215,-196.352"/>
<polygon fill="midnightblue" stroke="midnightblue" points="313.815,-192.884 303.24,-193.534 311.912,-199.621 313.815,-192.884"/>
</g>
<!-- Node28 -->
<g id="node28" class="node"><title>Node28</title>
<polygon fill="white" stroke="#bfbfbf" points="369.5,-174.5 369.5,-193.5 428.5,-193.5 428.5,-174.5 369.5,-174.5"/>
<text text-anchor="middle" x="399" y="-181.5" font-family="Helvetica,sans-Serif" font-size="10.00">functional</text>
</g>
<!-- Node24&#45;&gt;Node28 -->
<g id="edge40" class="edge"><title>Node24&#45;&gt;Node28</title>
<path fill="none" stroke="midnightblue" d="M517.228,-236.403C493.864,-226.245 454.786,-209.255 427.997,-197.607"/>
<polygon fill="midnightblue" stroke="midnightblue" points="429.302,-194.358 418.735,-193.581 426.511,-200.778 429.302,-194.358"/>
</g>
<!-- Node29 -->
<g id="node29" class="node"><title>Node29</title>
<polygon fill="white" stroke="#bfbfbf" points="446.5,-169 446.5,-199 579.5,-199 579.5,-169 446.5,-169"/>
<text text-anchor="start" x="454.5" y="-187" font-family="Helvetica,sans-Serif" font-size="10.00">unsupported/Eigen/Aligned</text>
<text text-anchor="middle" x="513" y="-176" font-family="Helvetica,sans-Serif" font-size="10.00">Vector3</text>
</g>
<!-- Node24&#45;&gt;Node29 -->
<g id="edge41" class="edge"><title>Node24&#45;&gt;Node29</title>
<path fill="none" stroke="midnightblue" d="M533.561,-236.403C530.645,-229.113 526.321,-218.303 522.39,-208.475"/>
<polygon fill="midnightblue" stroke="midnightblue" points="525.62,-207.126 518.656,-199.141 519.121,-209.725 525.62,-207.126"/>
</g>
<!-- Node30 -->
<g id="node30" class="node"><title>Node30</title>
<g id="a_node30"><a xlink:href="Math_8hpp.html" target="_top" xlink:title="Core/Math/Math.hpp">
<polygon fill="white" stroke="black" points="874,-174.5 874,-193.5 980,-193.5 980,-174.5 874,-174.5"/>
<text text-anchor="middle" x="927" y="-181.5" font-family="Helvetica,sans-Serif" font-size="10.00">Core/Math/Math.hpp</text>
</a>
</g>
</g>
<!-- Node24&#45;&gt;Node30 -->
<g id="edge42" class="edge"><title>Node24&#45;&gt;Node30</title>
<path fill="none" stroke="midnightblue" d="M592.463,-236.467C664.066,-225.451 788.381,-206.326 863.634,-194.749"/>
<polygon fill="midnightblue" stroke="midnightblue" points="864.565,-198.147 873.916,-193.167 863.5,-191.228 864.565,-198.147"/>
</g>
<!-- Node34 -->
<g id="node34" class="node"><title>Node34</title>
<g id="a_node34"><a xlink:href="LinearAlgebra_8inl.html" target="_top" xlink:title="Core/Math/LinearAlgebra.inl">
<polygon fill="white" stroke="black" points="597.5,-174.5 597.5,-193.5 734.5,-193.5 734.5,-174.5 597.5,-174.5"/>
<text text-anchor="middle" x="666" y="-181.5" font-family="Helvetica,sans-Serif" font-size="10.00">Core/Math/LinearAlgebra.inl</text>
</a>
</g>
</g>
<!-- Node24&#45;&gt;Node34 -->
<g id="edge48" class="edge"><title>Node24&#45;&gt;Node34</title>
<path fill="none" stroke="midnightblue" d="M555.483,-236.403C577.132,-226.334 613.213,-209.552 638.232,-197.915"/>
<polygon fill="midnightblue" stroke="midnightblue" points="639.961,-200.971 647.552,-193.581 637.008,-194.624 639.961,-200.971"/>
</g>
<!-- Node30&#45;&gt;Node13 -->
<g id="edge43" class="edge"><title>Node30&#45;&gt;Node13</title>
<path fill="none" stroke="midnightblue" d="M901.783,-174.403C871.332,-164.022 819.951,-146.506 785.757,-134.849"/>
<polygon fill="midnightblue" stroke="midnightblue" points="786.764,-131.495 776.17,-131.581 784.505,-138.12 786.764,-131.495"/>
</g>
<!-- Node31 -->
<g id="node31" class="node"><title>Node31</title>
<polygon fill="white" stroke="#bfbfbf" points="995,-112.5 995,-131.5 1051,-131.5 1051,-112.5 995,-112.5"/>
<text text-anchor="middle" x="1023" y="-119.5" font-family="Helvetica,sans-Serif" font-size="10.00">algorithm</text>
</g>
<!-- Node30&#45;&gt;Node31 -->
<g id="edge44" class="edge"><title>Node30&#45;&gt;Node31</title>
<path fill="none" stroke="midnightblue" d="M940.754,-174.403C956.366,-164.646 982.063,-148.585 1000.58,-137.011"/>
<polygon fill="midnightblue" stroke="midnightblue" points="1002.65,-139.849 1009.27,-131.581 998.936,-133.913 1002.65,-139.849"/>
</g>
<!-- Node32 -->
<g id="node32" class="node"><title>Node32</title>
<polygon fill="white" stroke="#bfbfbf" points="815,-112.5 815,-131.5 859,-131.5 859,-112.5 815,-112.5"/>
<text text-anchor="middle" x="837" y="-119.5" font-family="Helvetica,sans-Serif" font-size="10.00">cmath</text>
</g>
<!-- Node30&#45;&gt;Node32 -->
<g id="edge45" class="edge"><title>Node30&#45;&gt;Node32</title>
<path fill="none" stroke="midnightblue" d="M914.105,-174.403C899.536,-164.691 875.598,-148.732 858.255,-137.17"/>
<polygon fill="midnightblue" stroke="midnightblue" points="860.133,-134.215 849.871,-131.581 856.25,-140.04 860.133,-134.215"/>
</g>
<!-- Node33 -->
<g id="node33" class="node"><title>Node33</title>
<g id="a_node33"><a xlink:href="Math_8inl.html" target="_top" xlink:title="Core/Math/Math.inl">
<polygon fill="white" stroke="black" points="877,-112.5 877,-131.5 977,-131.5 977,-112.5 877,-112.5"/>
<text text-anchor="middle" x="927" y="-119.5" font-family="Helvetica,sans-Serif" font-size="10.00">Core/Math/Math.inl</text>
</a>
</g>
</g>
<!-- Node30&#45;&gt;Node33 -->
<g id="edge46" class="edge"><title>Node30&#45;&gt;Node33</title>
<path fill="none" stroke="midnightblue" d="M922.099,-174.403C920.268,-165.938 919.797,-152.728 920.685,-141.82"/>
<polygon fill="midnightblue" stroke="midnightblue" points="924.198,-141.966 922.103,-131.581 917.264,-141.006 924.198,-141.966"/>
</g>
<!-- Node33&#45;&gt;Node30 -->
<g id="edge47" class="edge"><title>Node33&#45;&gt;Node30</title>
<path fill="none" stroke="midnightblue" d="M931.897,-131.581C933.73,-140.04 934.203,-153.248 933.317,-164.16"/>
<polygon fill="midnightblue" stroke="midnightblue" points="929.803,-164.018 931.901,-174.403 936.737,-164.977 929.803,-164.018"/>
</g>
<!-- Node35&#45;&gt;Node8 -->
<g id="edge52" class="edge"><title>Node35&#45;&gt;Node8</title>
<path fill="none" stroke="midnightblue" d="M418.247,-255.545C442.317,-262.261 472.332,-273.633 494,-292 523.944,-317.382 510.589,-340.912 539,-368 553.648,-381.966 573.481,-392.795 590.304,-400.327"/>
<polygon fill="midnightblue" stroke="midnightblue" points="589.229,-403.673 599.8,-404.379 591.977,-397.235 589.229,-403.673"/>
</g>
<!-- Node35&#45;&gt;Node23 -->
<g id="edge51" class="edge"><title>Node35&#45;&gt;Node23</title>
<path fill="none" stroke="midnightblue" d="M421.088,-255.516C464.945,-264.881 532.349,-279.95 576.124,-290.153"/>
<polygon fill="midnightblue" stroke="midnightblue" points="575.367,-293.57 585.902,-292.444 576.964,-286.755 575.367,-293.57"/>
</g>
<!-- Node36&#45;&gt;Node2 -->
<g id="edge54" class="edge"><title>Node36&#45;&gt;Node2</title>
<path fill="none" stroke="midnightblue" d="M582.358,-491.237C585.17,-513.94 585.503,-558.619 583.356,-586.524"/>
<polygon fill="midnightblue" stroke="midnightblue" points="579.855,-586.368 582.37,-596.66 586.822,-587.046 579.855,-586.368"/>
</g>
<!-- Node36&#45;&gt;Node8 -->
<g id="edge56" class="edge"><title>Node36&#45;&gt;Node8</title>
<path fill="none" stroke="midnightblue" d="M588.901,-460.781C595.586,-452.062 604.176,-440.857 611.185,-431.715"/>
<polygon fill="midnightblue" stroke="midnightblue" points="614,-433.796 617.307,-423.731 608.445,-429.537 614,-433.796"/>
</g>
<!-- Node36&#45;&gt;Node21 -->
<g id="edge55" class="edge"><title>Node36&#45;&gt;Node21</title>
<path fill="none" stroke="midnightblue" d="M628.21,-460.958C654.096,-452.458 685.497,-440.12 711,-424 758.206,-394.161 802.949,-344.983 824.535,-319.483"/>
<polygon fill="midnightblue" stroke="midnightblue" points="827.457,-321.444 831.17,-311.522 822.079,-316.963 827.457,-321.444"/>
</g>
<!-- Node37&#45;&gt;Node2 -->
<g id="edge58" class="edge"><title>Node37&#45;&gt;Node2</title>
<path fill="none" stroke="midnightblue" d="M650.037,-664.679C637.171,-655.449 620.251,-643.311 606.043,-633.118"/>
<polygon fill="midnightblue" stroke="midnightblue" points="607.773,-630.052 597.608,-627.066 603.693,-635.739 607.773,-630.052"/>
</g>
<!-- Node37&#45;&gt;Node8 -->
<g id="edge60" class="edge"><title>Node37&#45;&gt;Node8</title>
<path fill="none" stroke="midnightblue" d="M670.925,-664.991C672.808,-629.62 675.067,-534.241 651,-460 647.809,-450.158 642.136,-440.192 636.811,-432.15"/>
<polygon fill="midnightblue" stroke="midnightblue" points="639.5,-429.888 630.889,-423.714 633.771,-433.91 639.5,-429.888"/>
</g>
<!-- Node37&#45;&gt;Node21 -->
<g id="edge59" class="edge"><title>Node37&#45;&gt;Node21</title>
<path fill="none" stroke="midnightblue" d="M734.292,-669.821C842.423,-652.56 1049,-610.952 1049,-545 1049,-545 1049,-545 1049,-413 1049,-351.171 976.879,-324.039 916.967,-312.167"/>
<polygon fill="midnightblue" stroke="midnightblue" points="917.562,-308.717 907.089,-310.322 916.277,-315.598 917.562,-308.717"/>
</g>
<!-- Node37&#45;&gt;Node23 -->
<g id="edge61" class="edge"><title>Node37&#45;&gt;Node23</title>
<path fill="none" stroke="midnightblue" d="M605.883,-669.348C538.446,-655.136 442,-621.446 442,-545 442,-545 442,-545 442,-413 442,-355.898 509.276,-327.394 560.875,-313.931"/>
<polygon fill="midnightblue" stroke="midnightblue" points="561.77,-317.315 570.634,-311.511 560.086,-310.52 561.77,-317.315"/>
</g>
</g>
</svg>
