<?xml version="1.0" encoding="UTF-8" standalone="no"?>
<!DOCTYPE svg PUBLIC "-//W3C//DTD SVG 1.1//EN"
 "http://www.w3.org/Graphics/SVG/1.1/DTD/svg11.dtd">
<!-- Generated by graphviz version 2.36.0 (20140111.2315)
 -->
<!-- Title: /home/travis/build/STORM&#45;IRIT/Radium&#45;Engine/src/Core/Mesh/DCEL/Iterator/Face/FVIterator.inl Pages: 1 -->
<svg width="1156pt" height="726pt"
 viewBox="0.00 0.00 1156.20 726.00" xmlns="http://www.w3.org/2000/svg" xmlns:xlink="http://www.w3.org/1999/xlink">
<g id="graph0" class="graph" transform="scale(1 1) rotate(0) translate(4 722)">
<title>/home/travis/build/STORM&#45;IRIT/Radium&#45;Engine/src/Core/Mesh/DCEL/Iterator/Face/FVIterator.inl</title>
<polygon fill="white" stroke="none" points="-4,4 -4,-722 1152.2,-722 1152.2,4 -4,4"/>
<!-- Node1 -->
<g id="node1" class="node"><title>Node1</title>
<polygon fill="#bfbfbf" stroke="black" points="729.197,-665 729.197,-717 877.197,-717 877.197,-665 729.197,-665"/>
<text text-anchor="start" x="737.197" y="-705" font-family="Helvetica,sans-Serif" font-size="10.00">/home/travis/build</text>
<text text-anchor="start" x="737.197" y="-694" font-family="Helvetica,sans-Serif" font-size="10.00">/STORM&#45;IRIT/Radium&#45;Engine</text>
<text text-anchor="start" x="737.197" y="-683" font-family="Helvetica,sans-Serif" font-size="10.00">/src/Core/Mesh/DCEL/Iterator</text>
<text text-anchor="middle" x="803.197" y="-672" font-family="Helvetica,sans-Serif" font-size="10.00">/Face/FVIterator.inl</text>
</g>
<!-- Node2 -->
<g id="node2" class="node"><title>Node2</title>
<g id="a_node2"><a xlink:href="FaceIterator_8hpp.html" target="_top" xlink:title="Core/Mesh/DCEL/Iterator\l/Face/FaceIterator.hpp">
<polygon fill="white" stroke="black" points="693.197,-597 693.197,-627 821.197,-627 821.197,-597 693.197,-597"/>
<text text-anchor="start" x="701.197" y="-615" font-family="Helvetica,sans-Serif" font-size="10.00">Core/Mesh/DCEL/Iterator</text>
<text text-anchor="middle" x="757.197" y="-604" font-family="Helvetica,sans-Serif" font-size="10.00">/Face/FaceIterator.hpp</text>
</a>
</g>
</g>
<!-- Node1&#45;&gt;Node2 -->
<g id="edge1" class="edge"><title>Node1&#45;&gt;Node2</title>
<path fill="none" stroke="midnightblue" d="M788.134,-664.787C782.612,-655.542 776.393,-645.132 770.987,-636.083"/>
<polygon fill="midnightblue" stroke="midnightblue" points="773.844,-634.042 765.711,-627.252 767.835,-637.632 773.844,-634.042"/>
</g>
<!-- Node8 -->
<g id="node8" class="node"><title>Node8</title>
<g id="a_node8"><a xlink:href="DCEL_2HalfEdge_8hpp.html" target="_top" xlink:title="Core/Mesh/DCEL/HalfEdge.hpp">
<polygon fill="white" stroke="black" points="770.697,-404.5 770.697,-423.5 927.697,-423.5 927.697,-404.5 770.697,-404.5"/>
<text text-anchor="middle" x="849.197" y="-411.5" font-family="Helvetica,sans-Serif" font-size="10.00">Core/Mesh/DCEL/HalfEdge.hpp</text>
</a>
</g>
</g>
<!-- Node1&#45;&gt;Node8 -->
<g id="edge58" class="edge"><title>Node1&#45;&gt;Node8</title>
<path fill="none" stroke="midnightblue" d="M816.41,-664.714C821.569,-653.72 827.004,-640.513 830.197,-628 848.005,-558.21 849.734,-471.871 849.527,-434.146"/>
<polygon fill="midnightblue" stroke="midnightblue" points="853.021,-433.649 849.409,-423.689 846.022,-433.728 853.021,-433.649"/>
</g>
<!-- Node21 -->
<g id="node21" class="node"><title>Node21</title>
<g id="a_node21"><a xlink:href="Face_8hpp.html" target="_top" xlink:title="Core/Mesh/DCEL/Face.hpp">
<polygon fill="white" stroke="black" points="729.197,-292.5 729.197,-311.5 867.197,-311.5 867.197,-292.5 729.197,-292.5"/>
<text text-anchor="middle" x="798.197" y="-299.5" font-family="Helvetica,sans-Serif" font-size="10.00">Core/Mesh/DCEL/Face.hpp</text>
</a>
</g>
</g>
<!-- Node1&#45;&gt;Node21 -->
<g id="edge57" class="edge"><title>Node1&#45;&gt;Node21</title>
<path fill="none" stroke="midnightblue" d="M877.271,-686.385C967.832,-677.516 1109.2,-647.29 1109.2,-545 1109.2,-545 1109.2,-545 1109.2,-413 1109.2,-362.008 958.715,-328.731 867.103,-313.197"/>
<polygon fill="midnightblue" stroke="midnightblue" points="867.498,-309.715 857.059,-311.525 866.348,-316.62 867.498,-309.715"/>
</g>
<!-- Node23 -->
<g id="node23" class="node"><title>Node23</title>
<g id="a_node23"><a xlink:href="Vertex_8hpp.html" target="_top" xlink:title="Core/Mesh/DCEL/Vertex.hpp">
<polygon fill="white" stroke="black" points="498.697,-292.5 498.697,-311.5 643.697,-311.5 643.697,-292.5 498.697,-292.5"/>
<text text-anchor="middle" x="571.197" y="-299.5" font-family="Helvetica,sans-Serif" font-size="10.00">Core/Mesh/DCEL/Vertex.hpp</text>
</a>
</g>
</g>
<!-- Node1&#45;&gt;Node23 -->
<g id="edge59" class="edge"><title>Node1&#45;&gt;Node23</title>
<path fill="none" stroke="midnightblue" d="M728.923,-669.413C671.665,-648.489 602.197,-609.758 602.197,-545 602.197,-545 602.197,-545 602.197,-413 602.197,-379.41 588.639,-342.14 579.456,-320.747"/>
<polygon fill="midnightblue" stroke="midnightblue" points="582.648,-319.313 575.377,-311.607 576.256,-322.165 582.648,-319.313"/>
</g>
<!-- Node3 -->
<g id="node3" class="node"><title>Node3</title>
<g id="a_node3"><a xlink:href="Iterator_8hpp.html" target="_top" xlink:title="Core/Mesh/DCEL/Iterator\l/Iterator.hpp">
<polygon fill="white" stroke="black" points="877.197,-529 877.197,-559 1005.2,-559 1005.2,-529 877.197,-529"/>
<text text-anchor="start" x="885.197" y="-547" font-family="Helvetica,sans-Serif" font-size="10.00">Core/Mesh/DCEL/Iterator</text>
<text text-anchor="middle" x="941.197" y="-536" font-family="Helvetica,sans-Serif" font-size="10.00">/Iterator.hpp</text>
</a>
</g>
</g>
<!-- Node2&#45;&gt;Node3 -->
<g id="edge2" class="edge"><title>Node2&#45;&gt;Node3</title>
<path fill="none" stroke="midnightblue" d="M796.669,-596.841C824.778,-586.759 862.725,-573.147 892.682,-562.402"/>
<polygon fill="midnightblue" stroke="midnightblue" points="893.874,-565.693 902.105,-559.022 891.511,-559.104 893.874,-565.693"/>
</g>
<!-- Node36 -->
<g id="node36" class="node"><title>Node36</title>
<g id="a_node36"><a xlink:href="FaceIterator_8inl.html" target="_top" xlink:title="Core/Mesh/DCEL/Iterator\l/Face/FaceIterator.inl">
<polygon fill="white" stroke="black" points="693.197,-461 693.197,-491 821.197,-491 821.197,-461 693.197,-461"/>
<text text-anchor="start" x="701.197" y="-479" font-family="Helvetica,sans-Serif" font-size="10.00">Core/Mesh/DCEL/Iterator</text>
<text text-anchor="middle" x="757.197" y="-468" font-family="Helvetica,sans-Serif" font-size="10.00">/Face/FaceIterator.inl</text>
</a>
</g>
</g>
<!-- Node2&#45;&gt;Node36 -->
<g id="edge53" class="edge"><title>Node2&#45;&gt;Node36</title>
<path fill="none" stroke="midnightblue" d="M752.826,-596.66C750.021,-573.891 749.696,-529.203 751.85,-501.349"/>
<polygon fill="midnightblue" stroke="midnightblue" points="755.349,-501.53 752.839,-491.237 748.382,-500.849 755.349,-501.53"/>
</g>
<!-- Node4 -->
<g id="node4" class="node"><title>Node4</title>
<g id="a_node4"><a xlink:href="Definition_8hpp.html" target="_top" xlink:title="Core/Mesh/DCEL/Definition.hpp">
<polygon fill="white" stroke="black" points="961.197,-236.5 961.197,-255.5 1119.2,-255.5 1119.2,-236.5 961.197,-236.5"/>
<text text-anchor="middle" x="1040.2" y="-243.5" font-family="Helvetica,sans-Serif" font-size="10.00">Core/Mesh/DCEL/Definition.hpp</text>
</a>
</g>
</g>
<!-- Node3&#45;&gt;Node4 -->
<g id="edge3" class="edge"><title>Node3&#45;&gt;Node4</title>
<path fill="none" stroke="midnightblue" d="M970.755,-528.912C985.883,-520.266 1003.35,-507.806 1014.2,-492 1034.14,-462.937 1033.2,-450.249 1033.2,-415 1033.2,-415 1033.2,-415 1033.2,-357 1033.2,-324.883 1036.21,-287.598 1038.28,-265.726"/>
<polygon fill="midnightblue" stroke="midnightblue" points="1041.78,-265.841 1039.28,-255.546 1034.82,-265.154 1041.78,-265.841"/>
</g>
<!-- Node6 -->
<g id="node6" class="node"><title>Node6</title>
<polygon fill="white" stroke="#bfbfbf" points="1104.2,-174.5 1104.2,-193.5 1148.2,-193.5 1148.2,-174.5 1104.2,-174.5"/>
<text text-anchor="middle" x="1126.2" y="-181.5" font-family="Helvetica,sans-Serif" font-size="10.00">vector</text>
</g>
<!-- Node3&#45;&gt;Node6 -->
<g id="edge6" class="edge"><title>Node3&#45;&gt;Node6</title>
<path fill="none" stroke="midnightblue" d="M981.51,-528.956C1000.25,-520.691 1021.58,-508.562 1036.2,-492 1110.58,-407.713 1106.63,-366.518 1127.2,-256 1130.44,-238.595 1129.73,-218.375 1128.48,-203.974"/>
<polygon fill="midnightblue" stroke="midnightblue" points="1131.94,-203.425 1127.43,-193.839 1124.98,-204.146 1131.94,-203.425"/>
</g>
<!-- Node7 -->
<g id="node7" class="node"><title>Node7</title>
<g id="a_node7"><a xlink:href="Iterator_8inl.html" target="_top" xlink:title="Core/Mesh/DCEL/Iterator\l/Iterator.inl">
<polygon fill="white" stroke="black" points="877.197,-461 877.197,-491 1005.2,-491 1005.2,-461 877.197,-461"/>
<text text-anchor="start" x="885.197" y="-479" font-family="Helvetica,sans-Serif" font-size="10.00">Core/Mesh/DCEL/Iterator</text>
<text text-anchor="middle" x="941.197" y="-468" font-family="Helvetica,sans-Serif" font-size="10.00">/Iterator.inl</text>
</a>
</g>
</g>
<!-- Node3&#45;&gt;Node7 -->
<g id="edge7" class="edge"><title>Node3&#45;&gt;Node7</title>
<path fill="none" stroke="midnightblue" d="M935.518,-528.679C934.49,-520.722 934.202,-510.605 934.653,-501.436"/>
<polygon fill="midnightblue" stroke="midnightblue" points="938.155,-501.555 935.522,-491.293 931.181,-500.958 938.155,-501.555"/>
</g>
<!-- Node5 -->
<g id="node5" class="node"><title>Node5</title>
<polygon fill="white" stroke="#bfbfbf" points="1014.2,-174.5 1014.2,-193.5 1066.2,-193.5 1066.2,-174.5 1014.2,-174.5"/>
<text text-anchor="middle" x="1040.2" y="-181.5" font-family="Helvetica,sans-Serif" font-size="10.00">memory</text>
</g>
<!-- Node4&#45;&gt;Node5 -->
<g id="edge4" class="edge"><title>Node4&#45;&gt;Node5</title>
<path fill="none" stroke="midnightblue" d="M1040.2,-236.403C1040.2,-227.938 1040.2,-214.728 1040.2,-203.82"/>
<polygon fill="midnightblue" stroke="midnightblue" points="1043.7,-203.581 1040.2,-193.581 1036.7,-203.581 1043.7,-203.581"/>
</g>
<!-- Node4&#45;&gt;Node6 -->
<g id="edge5" class="edge"><title>Node4&#45;&gt;Node6</title>
<path fill="none" stroke="midnightblue" d="M1052.52,-236.403C1066.31,-226.78 1088.9,-211.024 1105.43,-199.489"/>
<polygon fill="midnightblue" stroke="midnightblue" points="1107.7,-202.173 1113.9,-193.581 1103.69,-196.432 1107.7,-202.173"/>
</g>
<!-- Node7&#45;&gt;Node3 -->
<g id="edge8" class="edge"><title>Node7&#45;&gt;Node3</title>
<path fill="none" stroke="midnightblue" d="M946.871,-491.293C947.901,-499.245 948.191,-509.361 947.742,-518.532"/>
<polygon fill="midnightblue" stroke="midnightblue" points="944.239,-518.417 946.875,-528.679 951.214,-519.013 944.239,-518.417"/>
</g>
<!-- Node7&#45;&gt;Node8 -->
<g id="edge9" class="edge"><title>Node7&#45;&gt;Node8</title>
<path fill="none" stroke="midnightblue" d="M919.394,-460.781C904.697,-451.196 885.393,-438.606 870.748,-429.056"/>
<polygon fill="midnightblue" stroke="midnightblue" points="872.603,-426.087 862.315,-423.556 868.779,-431.95 872.603,-426.087"/>
</g>
<!-- Node8&#45;&gt;Node4 -->
<g id="edge22" class="edge"><title>Node8&#45;&gt;Node4</title>
<path fill="none" stroke="midnightblue" d="M876.52,-404.5C897.348,-397.11 925.969,-384.921 947.197,-368 984.509,-338.258 1015.35,-290.479 1030.36,-264.761"/>
<polygon fill="midnightblue" stroke="midnightblue" points="1033.57,-266.2 1035.48,-255.779 1027.48,-262.735 1033.57,-266.2"/>
</g>
<!-- Node9 -->
<g id="node9" class="node"><title>Node9</title>
<g id="a_node9"><a xlink:href="Index_8hpp.html" target="_top" xlink:title="Core/Index/Index.hpp">
<polygon fill="white" stroke="black" points="843.197,-174.5 843.197,-193.5 953.197,-193.5 953.197,-174.5 843.197,-174.5"/>
<text text-anchor="middle" x="898.197" y="-181.5" font-family="Helvetica,sans-Serif" font-size="10.00">Core/Index/Index.hpp</text>
</a>
</g>
</g>
<!-- Node8&#45;&gt;Node9 -->
<g id="edge10" class="edge"><title>Node8&#45;&gt;Node9</title>
<path fill="none" stroke="midnightblue" d="M859.049,-404.344C867.996,-395.937 880.877,-382.371 888.197,-368 911.39,-322.465 908.381,-306.769 914.197,-256 915.208,-247.169 915.543,-244.786 914.197,-236 912.502,-224.937 908.853,-212.978 905.467,-203.423"/>
<polygon fill="midnightblue" stroke="midnightblue" points="908.66,-201.969 901.874,-193.832 902.104,-204.425 908.66,-201.969"/>
</g>
<!-- Node12 -->
<g id="node12" class="node"><title>Node12</title>
<g id="a_node12"><a xlink:href="IndexedObject_8hpp.html" target="_top" xlink:title="Core/Index/IndexedObject.hpp">
<polygon fill="white" stroke="black" points="568.697,-236.5 568.697,-255.5 717.697,-255.5 717.697,-236.5 568.697,-236.5"/>
<text text-anchor="middle" x="643.197" y="-243.5" font-family="Helvetica,sans-Serif" font-size="10.00">Core/Index/IndexedObject.hpp</text>
</a>
</g>
</g>
<!-- Node8&#45;&gt;Node12 -->
<g id="edge13" class="edge"><title>Node8&#45;&gt;Node12</title>
<path fill="none" stroke="midnightblue" d="M848.948,-404.15C848.081,-390.308 844.4,-363.518 829.197,-348 793.493,-311.557 764.721,-336.908 720.197,-312 696.494,-298.74 673.221,-277.658 658.574,-263.117"/>
<polygon fill="midnightblue" stroke="midnightblue" points="660.885,-260.476 651.376,-255.803 655.896,-265.386 660.885,-260.476"/>
</g>
<!-- Node20 -->
<g id="node20" class="node"><title>Node20</title>
<g id="a_node20"><a xlink:href="DCEL_2HalfEdge_8inl.html" target="_top" xlink:title="Core/Mesh/DCEL/HalfEdge.inl">
<polygon fill="white" stroke="black" points="669.697,-348.5 669.697,-367.5 820.697,-367.5 820.697,-348.5 669.697,-348.5"/>
<text text-anchor="middle" x="745.197" y="-355.5" font-family="Helvetica,sans-Serif" font-size="10.00">Core/Mesh/DCEL/HalfEdge.inl</text>
</a>
</g>
</g>
<!-- Node8&#45;&gt;Node20 -->
<g id="edge23" class="edge"><title>Node8&#45;&gt;Node20</title>
<path fill="none" stroke="midnightblue" d="M827.629,-404.444C809.326,-395.912 783.541,-382.675 765.589,-372.683"/>
<polygon fill="midnightblue" stroke="midnightblue" points="766.94,-369.425 756.519,-367.516 763.476,-375.507 766.94,-369.425"/>
</g>
<!-- Node10 -->
<g id="node10" class="node"><title>Node10</title>
<polygon fill="white" stroke="#bfbfbf" points="878.197,-112.5 878.197,-131.5 918.197,-131.5 918.197,-112.5 878.197,-112.5"/>
<text text-anchor="middle" x="898.197" y="-119.5" font-family="Helvetica,sans-Serif" font-size="10.00">limits</text>
</g>
<!-- Node9&#45;&gt;Node10 -->
<g id="edge11" class="edge"><title>Node9&#45;&gt;Node10</title>
<path fill="none" stroke="midnightblue" d="M898.197,-174.403C898.197,-165.938 898.197,-152.728 898.197,-141.82"/>
<polygon fill="midnightblue" stroke="midnightblue" points="901.697,-141.581 898.197,-131.581 894.697,-141.581 901.697,-141.581"/>
</g>
<!-- Node11 -->
<g id="node11" class="node"><title>Node11</title>
<g id="a_node11"><a xlink:href="Index_8inl.html" target="_top" xlink:title="Core/Index/Index.inl">
<polygon fill="white" stroke="black" points="936.197,-112.5 936.197,-131.5 1040.2,-131.5 1040.2,-112.5 936.197,-112.5"/>
<text text-anchor="middle" x="988.197" y="-119.5" font-family="Helvetica,sans-Serif" font-size="10.00">Core/Index/Index.inl</text>
</a>
</g>
</g>
<!-- Node9&#45;&gt;Node11 -->
<g id="edge12" class="edge"><title>Node9&#45;&gt;Node11</title>
<path fill="none" stroke="midnightblue" d="M911.091,-174.403C925.661,-164.691 949.599,-148.732 966.942,-137.17"/>
<polygon fill="midnightblue" stroke="midnightblue" points="968.947,-140.04 975.326,-131.581 965.064,-134.215 968.947,-140.04"/>
</g>
<!-- Node12&#45;&gt;Node9 -->
<g id="edge14" class="edge"><title>Node12&#45;&gt;Node9</title>
<path fill="none" stroke="midnightblue" d="M679.461,-236.467C724.871,-225.783 802.704,-207.469 852.242,-195.813"/>
<polygon fill="midnightblue" stroke="midnightblue" points="853.125,-199.201 862.057,-193.503 851.521,-192.387 853.125,-199.201"/>
</g>
<!-- Node13 -->
<g id="node13" class="node"><title>Node13</title>
<g id="a_node13"><a xlink:href="RaCore_8hpp.html" target="_top" xlink:title="Core/RaCore.hpp">
<polygon fill="white" stroke="black" points="513.697,-112.5 513.697,-131.5 606.697,-131.5 606.697,-112.5 513.697,-112.5"/>
<text text-anchor="middle" x="560.197" y="-119.5" font-family="Helvetica,sans-Serif" font-size="10.00">Core/RaCore.hpp</text>
</a>
</g>
</g>
<!-- Node12&#45;&gt;Node13 -->
<g id="edge15" class="edge"><title>Node12&#45;&gt;Node13</title>
<path fill="none" stroke="midnightblue" d="M651.236,-236.282C664.033,-221.309 686.137,-190.179 671.197,-168 662.935,-155.735 629.59,-143.208 601.584,-134.496"/>
<polygon fill="midnightblue" stroke="midnightblue" points="602.536,-131.128 591.951,-131.581 600.508,-137.828 602.536,-131.128"/>
</g>
<!-- Node14 -->
<g id="node14" class="node"><title>Node14</title>
<g id="a_node14"><a xlink:href="CoreMacros_8hpp.html" target="_top" xlink:title="Core/CoreMacros.hpp">
<polygon fill="white" stroke="black" points="503.697,-56.5 503.697,-75.5 616.697,-75.5 616.697,-56.5 503.697,-56.5"/>
<text text-anchor="middle" x="560.197" y="-63.5" font-family="Helvetica,sans-Serif" font-size="10.00">Core/CoreMacros.hpp</text>
</a>
</g>
</g>
<!-- Node13&#45;&gt;Node14 -->
<g id="edge16" class="edge"><title>Node13&#45;&gt;Node14</title>
<path fill="none" stroke="midnightblue" d="M560.197,-112.083C560.197,-105.006 560.197,-94.8611 560.197,-85.9865"/>
<polygon fill="midnightblue" stroke="midnightblue" points="563.697,-85.751 560.197,-75.7511 556.697,-85.7511 563.697,-85.751"/>
</g>
<!-- Node15 -->
<g id="node15" class="node"><title>Node15</title>
<polygon fill="white" stroke="#bfbfbf" points="404.697,-0.5 404.697,-19.5 453.697,-19.5 453.697,-0.5 404.697,-0.5"/>
<text text-anchor="middle" x="429.197" y="-7.5" font-family="Helvetica,sans-Serif" font-size="10.00">cassert</text>
</g>
<!-- Node14&#45;&gt;Node15 -->
<g id="edge17" class="edge"><title>Node14&#45;&gt;Node15</title>
<path fill="none" stroke="midnightblue" d="M539.439,-56.4435C517.88,-47.5566 483.933,-33.5632 459.403,-23.4514"/>
<polygon fill="midnightblue" stroke="midnightblue" points="460.436,-20.0917 449.857,-19.5164 457.768,-26.5634 460.436,-20.0917"/>
</g>
<!-- Node16 -->
<g id="node16" class="node"><title>Node16</title>
<polygon fill="white" stroke="#bfbfbf" points="471.697,-0.5 471.697,-19.5 514.697,-19.5 514.697,-0.5 471.697,-0.5"/>
<text text-anchor="middle" x="493.197" y="-7.5" font-family="Helvetica,sans-Serif" font-size="10.00">cstdio</text>
</g>
<!-- Node14&#45;&gt;Node16 -->
<g id="edge18" class="edge"><title>Node14&#45;&gt;Node16</title>
<path fill="none" stroke="midnightblue" d="M549.432,-56.324C539.43,-48.2631 524.31,-36.0765 512.266,-26.3695"/>
<polygon fill="midnightblue" stroke="midnightblue" points="514.139,-23.3841 504.157,-19.8339 509.747,-28.8343 514.139,-23.3841"/>
</g>
<!-- Node17 -->
<g id="node17" class="node"><title>Node17</title>
<polygon fill="white" stroke="#bfbfbf" points="533.197,-0.5 533.197,-19.5 587.197,-19.5 587.197,-0.5 533.197,-0.5"/>
<text text-anchor="middle" x="560.197" y="-7.5" font-family="Helvetica,sans-Serif" font-size="10.00">iostream</text>
</g>
<!-- Node14&#45;&gt;Node17 -->
<g id="edge19" class="edge"><title>Node14&#45;&gt;Node17</title>
<path fill="none" stroke="midnightblue" d="M560.197,-56.083C560.197,-49.0059 560.197,-38.8611 560.197,-29.9865"/>
<polygon fill="midnightblue" stroke="midnightblue" points="563.697,-29.751 560.197,-19.7511 556.697,-29.7511 563.697,-29.751"/>
</g>
<!-- Node18 -->
<g id="node18" class="node"><title>Node18</title>
<polygon fill="white" stroke="#bfbfbf" points="605.197,-0.5 605.197,-19.5 657.197,-19.5 657.197,-0.5 605.197,-0.5"/>
<text text-anchor="middle" x="631.197" y="-7.5" font-family="Helvetica,sans-Serif" font-size="10.00">sstream</text>
</g>
<!-- Node14&#45;&gt;Node18 -->
<g id="edge20" class="edge"><title>Node14&#45;&gt;Node18</title>
<path fill="none" stroke="midnightblue" d="M571.604,-56.324C582.305,-48.1849 598.537,-35.8395 611.359,-26.0874"/>
<polygon fill="midnightblue" stroke="midnightblue" points="613.741,-28.6734 619.582,-19.8339 609.503,-23.1018 613.741,-28.6734"/>
</g>
<!-- Node19 -->
<g id="node19" class="node"><title>Node19</title>
<polygon fill="white" stroke="#bfbfbf" points="675.197,-0.5 675.197,-19.5 719.197,-19.5 719.197,-0.5 675.197,-0.5"/>
<text text-anchor="middle" x="697.197" y="-7.5" font-family="Helvetica,sans-Serif" font-size="10.00">thread</text>
</g>
<!-- Node14&#45;&gt;Node19 -->
<g id="edge21" class="edge"><title>Node14&#45;&gt;Node19</title>
<path fill="none" stroke="midnightblue" d="M581.905,-56.4435C604.551,-47.5171 640.269,-33.4387 665.948,-23.3168"/>
<polygon fill="midnightblue" stroke="midnightblue" points="667.57,-26.4397 675.59,-19.5164 665.003,-19.9273 667.57,-26.4397"/>
</g>
<!-- Node20&#45;&gt;Node8 -->
<g id="edge24" class="edge"><title>Node20&#45;&gt;Node8</title>
<path fill="none" stroke="midnightblue" d="M766.975,-367.655C785.178,-376.149 810.681,-389.241 828.553,-399.177"/>
<polygon fill="midnightblue" stroke="midnightblue" points="827.179,-402.423 837.602,-404.324 830.64,-396.338 827.179,-402.423"/>
</g>
<!-- Node20&#45;&gt;Node21 -->
<g id="edge25" class="edge"><title>Node20&#45;&gt;Node21</title>
<path fill="none" stroke="midnightblue" d="M753.948,-348.083C761.666,-340.22 773.101,-328.569 782.413,-319.081"/>
<polygon fill="midnightblue" stroke="midnightblue" points="785.101,-321.34 789.608,-311.751 780.105,-316.436 785.101,-321.34"/>
</g>
<!-- Node20&#45;&gt;Node23 -->
<g id="edge32" class="edge"><title>Node20&#45;&gt;Node23</title>
<path fill="none" stroke="midnightblue" d="M717.626,-348.444C688.099,-339.28 641.079,-324.688 608.314,-314.519"/>
<polygon fill="midnightblue" stroke="midnightblue" points="609.226,-311.138 598.638,-311.516 607.152,-317.823 609.226,-311.138"/>
</g>
<!-- Node21&#45;&gt;Node4 -->
<g id="edge28" class="edge"><title>Node21&#45;&gt;Node4</title>
<path fill="none" stroke="midnightblue" d="M836.542,-292.444C878.67,-283.043 946.403,-267.929 992.069,-257.739"/>
<polygon fill="midnightblue" stroke="midnightblue" points="993.033,-261.11 1002.03,-255.516 991.508,-254.278 993.033,-261.11"/>
</g>
<!-- Node21&#45;&gt;Node9 -->
<g id="edge26" class="edge"><title>Node21&#45;&gt;Node9</title>
<path fill="none" stroke="midnightblue" d="M787.546,-292.205C773.28,-279.341 751.186,-254.873 764.197,-236 774.741,-220.705 818.545,-205.907 853.239,-196.227"/>
<polygon fill="midnightblue" stroke="midnightblue" points="854.476,-199.518 863.206,-193.515 852.637,-192.764 854.476,-199.518"/>
</g>
<!-- Node21&#45;&gt;Node12 -->
<g id="edge27" class="edge"><title>Node21&#45;&gt;Node12</title>
<path fill="none" stroke="midnightblue" d="M773.636,-292.444C747.674,-283.399 706.529,-269.064 677.399,-258.916"/>
<polygon fill="midnightblue" stroke="midnightblue" points="678.237,-255.501 667.642,-255.516 675.934,-262.112 678.237,-255.501"/>
</g>
<!-- Node22 -->
<g id="node22" class="node"><title>Node22</title>
<g id="a_node22"><a xlink:href="Face_8inl.html" target="_top" xlink:title="Core/Mesh/DCEL/Face.inl">
<polygon fill="white" stroke="black" points="773.197,-236.5 773.197,-255.5 905.197,-255.5 905.197,-236.5 773.197,-236.5"/>
<text text-anchor="middle" x="839.197" y="-243.5" font-family="Helvetica,sans-Serif" font-size="10.00">Core/Mesh/DCEL/Face.inl</text>
</a>
</g>
</g>
<!-- Node21&#45;&gt;Node22 -->
<g id="edge29" class="edge"><title>Node21&#45;&gt;Node22</title>
<path fill="none" stroke="midnightblue" d="M799.801,-292.083C804.069,-284.298 812.433,-272.801 820.509,-263.367"/>
<polygon fill="midnightblue" stroke="midnightblue" points="823.292,-265.508 827.421,-255.751 818.109,-260.803 823.292,-265.508"/>
</g>
<!-- Node22&#45;&gt;Node8 -->
<g id="edge31" class="edge"><title>Node22&#45;&gt;Node8</title>
<path fill="none" stroke="midnightblue" d="M849.635,-255.755C858.62,-264.031 870.942,-277.337 876.197,-292 888.966,-327.636 871.446,-371.417 859.228,-395.333"/>
<polygon fill="midnightblue" stroke="midnightblue" points="856.069,-393.818 854.421,-404.284 862.236,-397.131 856.069,-393.818"/>
</g>
<!-- Node22&#45;&gt;Node21 -->
<g id="edge30" class="edge"><title>Node22&#45;&gt;Node21</title>
<path fill="none" stroke="midnightblue" d="M837.683,-255.751C833.473,-263.483 825.137,-274.967 817.057,-284.431"/>
<polygon fill="midnightblue" stroke="midnightblue" points="814.248,-282.32 810.133,-292.083 819.438,-287.017 814.248,-282.32"/>
</g>
<!-- Node23&#45;&gt;Node4 -->
<g id="edge49" class="edge"><title>Node23&#45;&gt;Node4</title>
<path fill="none" stroke="midnightblue" d="M643.706,-292.651C728.007,-282.945 866.927,-266.95 955.946,-256.7"/>
<polygon fill="midnightblue" stroke="midnightblue" points="956.476,-260.163 966.01,-255.542 955.676,-253.209 956.476,-260.163"/>
</g>
<!-- Node23&#45;&gt;Node9 -->
<g id="edge33" class="edge"><title>Node23&#45;&gt;Node9</title>
<path fill="none" stroke="midnightblue" d="M565.579,-292.234C557.564,-278.508 545.273,-251.873 559.197,-236 599.694,-189.833 772.763,-210.917 833.197,-200 839.935,-198.783 847.028,-197.328 853.952,-195.809"/>
<polygon fill="midnightblue" stroke="midnightblue" points="854.932,-199.176 863.916,-193.56 853.391,-192.348 854.932,-199.176"/>
</g>
<!-- Node23&#45;&gt;Node12 -->
<g id="edge34" class="edge"><title>Node23&#45;&gt;Node12</title>
<path fill="none" stroke="midnightblue" d="M582.765,-292.324C593.617,-284.185 610.077,-271.839 623.08,-262.087"/>
<polygon fill="midnightblue" stroke="midnightblue" points="625.518,-264.634 631.418,-255.834 621.318,-259.034 625.518,-264.634"/>
</g>
<!-- Node24 -->
<g id="node24" class="node"><title>Node24</title>
<g id="a_node24"><a xlink:href="LinearAlgebra_8hpp.html" target="_top" xlink:title="Core/Math/LinearAlgebra.hpp">
<polygon fill="white" stroke="black" points="369.697,-236.5 369.697,-255.5 512.697,-255.5 512.697,-236.5 369.697,-236.5"/>
<text text-anchor="middle" x="441.197" y="-243.5" font-family="Helvetica,sans-Serif" font-size="10.00">Core/Math/LinearAlgebra.hpp</text>
</a>
</g>
</g>
<!-- Node23&#45;&gt;Node24 -->
<g id="edge35" class="edge"><title>Node23&#45;&gt;Node24</title>
<path fill="none" stroke="midnightblue" d="M550.598,-292.444C529.203,-283.557 495.515,-269.563 471.172,-259.451"/>
<polygon fill="midnightblue" stroke="midnightblue" points="472.277,-256.12 461.699,-255.516 469.591,-262.585 472.277,-256.12"/>
</g>
<!-- Node35 -->
<g id="node35" class="node"><title>Node35</title>
<g id="a_node35"><a xlink:href="Vertex_8inl.html" target="_top" xlink:title="Core/Mesh/DCEL/Vertex.inl">
<polygon fill="white" stroke="black" points="212.697,-236.5 212.697,-255.5 351.697,-255.5 351.697,-236.5 212.697,-236.5"/>
<text text-anchor="middle" x="282.197" y="-243.5" font-family="Helvetica,sans-Serif" font-size="10.00">Core/Mesh/DCEL/Vertex.inl</text>
</a>
</g>
</g>
<!-- Node23&#45;&gt;Node35 -->
<g id="edge50" class="edge"><title>Node23&#45;&gt;Node35</title>
<path fill="none" stroke="midnightblue" d="M520.315,-292.444C467.503,-282.964 385.549,-267.675 332.832,-257.483"/>
<polygon fill="midnightblue" stroke="midnightblue" points="333.179,-253.986 322.695,-255.516 331.845,-260.857 333.179,-253.986"/>
</g>
<!-- Node24&#45;&gt;Node13 -->
<g id="edge36" class="edge"><title>Node24&#45;&gt;Node13</title>
<path fill="none" stroke="midnightblue" d="M369.647,-237.015C366.453,-236.669 363.292,-236.33 360.197,-236 320.993,-231.823 33.6227,-229.258 7.19659,-200 -2.33624,-189.446 -2.44359,-178.457 7.19659,-168 40.3654,-132.022 369.31,-124.808 503.573,-123.362"/>
<polygon fill="midnightblue" stroke="midnightblue" points="503.697,-126.861 513.661,-123.26 503.626,-119.861 503.697,-126.861"/>
</g>
<!-- Node25 -->
<g id="node25" class="node"><title>Node25</title>
<polygon fill="white" stroke="#bfbfbf" points="16.6966,-174.5 16.6966,-193.5 81.6966,-193.5 81.6966,-174.5 16.6966,-174.5"/>
<text text-anchor="middle" x="49.1966" y="-181.5" font-family="Helvetica,sans-Serif" font-size="10.00">Eigen/Core</text>
</g>
<!-- Node24&#45;&gt;Node25 -->
<g id="edge37" class="edge"><title>Node24&#45;&gt;Node25</title>
<path fill="none" stroke="midnightblue" d="M369.496,-236.675C274.736,-225.54 116.646,-206.448 90.1966,-200 86.7034,-199.148 83.097,-198.097 79.5392,-196.95"/>
<polygon fill="midnightblue" stroke="midnightblue" points="80.3708,-193.533 69.776,-193.547 78.0669,-200.143 80.3708,-193.533"/>
</g>
<!-- Node26 -->
<g id="node26" class="node"><title>Node26</title>
<polygon fill="white" stroke="#bfbfbf" points="99.6966,-174.5 99.6966,-193.5 186.697,-193.5 186.697,-174.5 99.6966,-174.5"/>
<text text-anchor="middle" x="143.197" y="-181.5" font-family="Helvetica,sans-Serif" font-size="10.00">Eigen/Geometry</text>
</g>
<!-- Node24&#45;&gt;Node26 -->
<g id="edge38" class="edge"><title>Node24&#45;&gt;Node26</title>
<path fill="none" stroke="midnightblue" d="M385.668,-236.469C335.593,-228.391 260.073,-215.251 195.197,-200 190.472,-198.889 185.537,-197.616 180.668,-196.291"/>
<polygon fill="midnightblue" stroke="midnightblue" points="181.432,-192.87 170.858,-193.535 179.538,-199.609 181.432,-192.87"/>
</g>
<!-- Node27 -->
<g id="node27" class="node"><title>Node27</title>
<polygon fill="white" stroke="#bfbfbf" points="204.697,-174.5 204.697,-193.5 279.697,-193.5 279.697,-174.5 204.697,-174.5"/>
<text text-anchor="middle" x="242.197" y="-181.5" font-family="Helvetica,sans-Serif" font-size="10.00">Eigen/Sparse</text>
</g>
<!-- Node24&#45;&gt;Node27 -->
<g id="edge39" class="edge"><title>Node24&#45;&gt;Node27</title>
<path fill="none" stroke="midnightblue" d="M411.215,-236.462C380.312,-227.596 330.774,-213.2 288.197,-200 284.804,-198.948 281.278,-197.835 277.754,-196.709"/>
<polygon fill="midnightblue" stroke="midnightblue" points="278.535,-193.283 267.943,-193.542 276.385,-199.945 278.535,-193.283"/>
</g>
<!-- Node28 -->
<g id="node28" class="node"><title>Node28</title>
<polygon fill="white" stroke="#bfbfbf" points="297.697,-174.5 297.697,-193.5 356.697,-193.5 356.697,-174.5 297.697,-174.5"/>
<text text-anchor="middle" x="327.197" y="-181.5" font-family="Helvetica,sans-Serif" font-size="10.00">functional</text>
</g>
<!-- Node24&#45;&gt;Node28 -->
<g id="edge40" class="edge"><title>Node24&#45;&gt;Node28</title>
<path fill="none" stroke="midnightblue" d="M424.863,-236.403C405.985,-226.468 374.69,-209.997 352.621,-198.381"/>
<polygon fill="midnightblue" stroke="midnightblue" points="353.979,-195.141 343.5,-193.581 350.719,-201.335 353.979,-195.141"/>
</g>
<!-- Node29 -->
<g id="node29" class="node"><title>Node29</title>
<polygon fill="white" stroke="#bfbfbf" points="374.697,-169 374.697,-199 507.697,-199 507.697,-169 374.697,-169"/>
<text text-anchor="start" x="382.697" y="-187" font-family="Helvetica,sans-Serif" font-size="10.00">unsupported/Eigen/Aligned</text>
<text text-anchor="middle" x="441.197" y="-176" font-family="Helvetica,sans-Serif" font-size="10.00">Vector3</text>
</g>
<!-- Node24&#45;&gt;Node29 -->
<g id="edge41" class="edge"><title>Node24&#45;&gt;Node29</title>
<path fill="none" stroke="midnightblue" d="M441.197,-236.403C441.197,-229.341 441.197,-218.975 441.197,-209.399"/>
<polygon fill="midnightblue" stroke="midnightblue" points="444.697,-209.141 441.197,-199.141 437.697,-209.141 444.697,-209.141"/>
</g>
<!-- Node30 -->
<g id="node30" class="node"><title>Node30</title>
<g id="a_node30"><a xlink:href="Math_8hpp.html" target="_top" xlink:title="Core/Math/Math.hpp">
<polygon fill="white" stroke="black" points="719.197,-174.5 719.197,-193.5 825.197,-193.5 825.197,-174.5 719.197,-174.5"/>
<text text-anchor="middle" x="772.197" y="-181.5" font-family="Helvetica,sans-Serif" font-size="10.00">Core/Math/Math.hpp</text>
</a>
</g>
</g>
<!-- Node24&#45;&gt;Node30 -->
<g id="edge42" class="edge"><title>Node24&#45;&gt;Node30</title>
<path fill="none" stroke="midnightblue" d="M488.269,-236.467C548.074,-225.626 651.206,-206.932 715.34,-195.306"/>
<polygon fill="midnightblue" stroke="midnightblue" points="716.071,-198.731 725.286,-193.503 714.822,-191.843 716.071,-198.731"/>
</g>
<!-- Node34 -->
<g id="node34" class="node"><title>Node34</title>
<g id="a_node34"><a xlink:href="LinearAlgebra_8inl.html" target="_top" xlink:title="Core/Math/LinearAlgebra.inl">
<polygon fill="white" stroke="black" points="525.697,-174.5 525.697,-193.5 662.697,-193.5 662.697,-174.5 525.697,-174.5"/>
<text text-anchor="middle" x="594.197" y="-181.5" font-family="Helvetica,sans-Serif" font-size="10.00">Core/Math/LinearAlgebra.inl</text>
</a>
</g>
</g>
<!-- Node24&#45;&gt;Node34 -->
<g id="edge48" class="edge"><title>Node24&#45;&gt;Node34</title>
<path fill="none" stroke="midnightblue" d="M463.118,-236.403C489.249,-226.156 533.109,-208.956 562.826,-197.302"/>
<polygon fill="midnightblue" stroke="midnightblue" points="564.284,-200.49 572.316,-193.581 561.729,-193.973 564.284,-200.49"/>
</g>
<!-- Node30&#45;&gt;Node13 -->
<g id="edge43" class="edge"><title>Node30&#45;&gt;Node13</title>
<path fill="none" stroke="midnightblue" d="M741.822,-174.403C704.591,-163.866 641.387,-145.978 600.221,-134.328"/>
<polygon fill="midnightblue" stroke="midnightblue" points="601.09,-130.936 590.515,-131.581 599.184,-137.672 601.09,-130.936"/>
</g>
<!-- Node31 -->
<g id="node31" class="node"><title>Node31</title>
<polygon fill="white" stroke="#bfbfbf" points="624.197,-112.5 624.197,-131.5 680.197,-131.5 680.197,-112.5 624.197,-112.5"/>
<text text-anchor="middle" x="652.197" y="-119.5" font-family="Helvetica,sans-Serif" font-size="10.00">algorithm</text>
</g>
<!-- Node30&#45;&gt;Node31 -->
<g id="edge44" class="edge"><title>Node30&#45;&gt;Node31</title>
<path fill="none" stroke="midnightblue" d="M755.004,-174.403C734.954,-164.379 701.598,-147.701 678.336,-136.07"/>
<polygon fill="midnightblue" stroke="midnightblue" points="679.867,-132.922 669.358,-131.581 676.737,-139.183 679.867,-132.922"/>
</g>
<!-- Node32 -->
<g id="node32" class="node"><title>Node32</title>
<polygon fill="white" stroke="#bfbfbf" points="698.197,-112.5 698.197,-131.5 742.197,-131.5 742.197,-112.5 698.197,-112.5"/>
<text text-anchor="middle" x="720.197" y="-119.5" font-family="Helvetica,sans-Serif" font-size="10.00">cmath</text>
</g>
<!-- Node30&#45;&gt;Node32 -->
<g id="edge45" class="edge"><title>Node30&#45;&gt;Node32</title>
<path fill="none" stroke="midnightblue" d="M764.746,-174.403C756.869,-165.314 744.252,-150.756 734.452,-139.449"/>
<polygon fill="midnightblue" stroke="midnightblue" points="736.827,-136.845 727.633,-131.581 731.538,-141.43 736.827,-136.845"/>
</g>
<!-- Node33 -->
<g id="node33" class="node"><title>Node33</title>
<g id="a_node33"><a xlink:href="Math_8inl.html" target="_top" xlink:title="Core/Math/Math.inl">
<polygon fill="white" stroke="black" points="760.197,-112.5 760.197,-131.5 860.197,-131.5 860.197,-112.5 760.197,-112.5"/>
<text text-anchor="middle" x="810.197" y="-119.5" font-family="Helvetica,sans-Serif" font-size="10.00">Core/Math/Math.inl</text>
</a>
</g>
</g>
<!-- Node30&#45;&gt;Node33 -->
<g id="edge46" class="edge"><title>Node30&#45;&gt;Node33</title>
<path fill="none" stroke="midnightblue" d="M772.74,-174.403C776.531,-165.314 785.353,-150.756 793.683,-139.449"/>
<polygon fill="midnightblue" stroke="midnightblue" points="796.439,-141.606 799.865,-131.581 790.935,-137.281 796.439,-141.606"/>
</g>
<!-- Node33&#45;&gt;Node30 -->
<g id="edge47" class="edge"><title>Node33&#45;&gt;Node30</title>
<path fill="none" stroke="midnightblue" d="M809.659,-131.581C805.875,-140.663 797.056,-155.22 788.725,-166.531"/>
<polygon fill="midnightblue" stroke="midnightblue" points="785.966,-164.377 782.542,-174.403 791.471,-168.701 785.966,-164.377"/>
</g>
<!-- Node35&#45;&gt;Node8 -->
<g id="edge52" class="edge"><title>Node35&#45;&gt;Node8</title>
<path fill="none" stroke="midnightblue" d="M306.767,-255.583C366.718,-276.368 525.453,-330.452 660.197,-368 707.173,-381.091 761.372,-393.748 799.651,-402.287"/>
<polygon fill="midnightblue" stroke="midnightblue" points="798.995,-405.726 809.515,-404.474 800.51,-398.892 798.995,-405.726"/>
</g>
<!-- Node35&#45;&gt;Node23 -->
<g id="edge51" class="edge"><title>Node35&#45;&gt;Node23</title>
<path fill="none" stroke="midnightblue" d="M332.855,-255.516C385.695,-264.999 467.88,-280.332 520.668,-290.537"/>
<polygon fill="midnightblue" stroke="midnightblue" points="520.009,-293.974 530.492,-292.444 521.342,-287.103 520.009,-293.974"/>
</g>
<!-- Node36&#45;&gt;Node2 -->
<g id="edge54" class="edge"><title>Node36&#45;&gt;Node2</title>
<path fill="none" stroke="midnightblue" d="M761.554,-491.237C764.366,-513.94 764.699,-558.619 762.553,-586.524"/>
<polygon fill="midnightblue" stroke="midnightblue" points="759.052,-586.368 761.567,-596.66 766.019,-587.046 759.052,-586.368"/>
</g>
<!-- Node36&#45;&gt;Node8 -->
<g id="edge56" class="edge"><title>Node36&#45;&gt;Node8</title>
<path fill="none" stroke="midnightblue" d="M778.999,-460.781C793.696,-451.196 813,-438.606 827.645,-429.056"/>
<polygon fill="midnightblue" stroke="midnightblue" points="829.614,-431.95 836.078,-423.556 825.79,-426.087 829.614,-431.95"/>
</g>
<!-- Node36&#45;&gt;Node21 -->
<g id="edge55" class="edge"><title>Node36&#45;&gt;Node21</title>
<path fill="none" stroke="midnightblue" d="M732.301,-460.887C694.478,-437.624 629.968,-389.652 660.197,-348 674.184,-328.727 696.649,-317.551 719.427,-311.12"/>
<polygon fill="midnightblue" stroke="midnightblue" points="720.352,-314.496 729.185,-308.645 718.631,-307.711 720.352,-314.496"/>
</g>
</g>
</svg>
