<?xml version="1.0" encoding="UTF-8" standalone="no"?>
<!DOCTYPE svg PUBLIC "-//W3C//DTD SVG 1.1//EN"
 "http://www.w3.org/Graphics/SVG/1.1/DTD/svg11.dtd">
<!-- Generated by graphviz version 2.36.0 (20140111.2315)
 -->
<!-- Title: /home/travis/build/STORM&#45;IRIT/Radium&#45;Engine/src/Core/File/GeometryData.hpp Pages: 1 -->
<svg width="2640pt" height="398pt"
 viewBox="0.00 0.00 2640.00 398.00" xmlns="http://www.w3.org/2000/svg" xmlns:xlink="http://www.w3.org/1999/xlink">
<g id="graph0" class="graph" transform="scale(1 1) rotate(0) translate(4 394)">
<title>/home/travis/build/STORM&#45;IRIT/Radium&#45;Engine/src/Core/File/GeometryData.hpp</title>
<polygon fill="white" stroke="none" points="-4,4 -4,-394 2636,-394 2636,4 -4,4"/>
<!-- Node1 -->
<g id="node1" class="node"><title>Node1</title>
<polygon fill="#bfbfbf" stroke="black" points="1863.5,-348.5 1863.5,-389.5 2024.5,-389.5 2024.5,-348.5 1863.5,-348.5"/>
<text text-anchor="start" x="1871.5" y="-377.5" font-family="Helvetica,sans-Serif" font-size="10.00">/home/travis/build</text>
<text text-anchor="start" x="1871.5" y="-366.5" font-family="Helvetica,sans-Serif" font-size="10.00">/STORM&#45;IRIT/Radium&#45;Engine</text>
<text text-anchor="middle" x="1944" y="-355.5" font-family="Helvetica,sans-Serif" font-size="10.00">/src/Core/File/GeometryData.hpp</text>
</g>
<!-- Node2 -->
<g id="node2" class="node"><title>Node2</title>
<g id="a_node2"><a xlink:href="FileData_8inl.html" target="_top" xlink:title="/home/travis/build\l/STORM&#45;IRIT/Radium&#45;Engine\l/src/Core/File/FileData.inl">
<polygon fill="white" stroke="black" points="1508,-264.5 1508,-305.5 1656,-305.5 1656,-264.5 1508,-264.5"/>
<text text-anchor="start" x="1516" y="-293.5" font-family="Helvetica,sans-Serif" font-size="10.00">/home/travis/build</text>
<text text-anchor="start" x="1516" y="-282.5" font-family="Helvetica,sans-Serif" font-size="10.00">/STORM&#45;IRIT/Radium&#45;Engine</text>
<text text-anchor="middle" x="1582" y="-271.5" font-family="Helvetica,sans-Serif" font-size="10.00">/src/Core/File/FileData.inl</text>
</a>
</g>
</g>
<!-- Node1&#45;&gt;Node2 -->
<g id="edge1" class="edge"><title>Node1&#45;&gt;Node2</title>
<path fill="none" stroke="midnightblue" d="M1853.22,-347.436C1792.33,-333.645 1713.15,-315.707 1656.07,-302.779"/>
<polygon fill="midnightblue" stroke="midnightblue" points="1852.68,-350.904 1863.21,-349.7 1854.23,-344.077 1852.68,-350.904"/>
</g>
<!-- Node5 -->
<g id="node5" class="node"><title>Node5</title>
<g id="a_node5"><a xlink:href="CameraManager_8cpp.html" target="_top" xlink:title="/home/travis/build\l/STORM&#45;IRIT/Radium&#45;Engine\l/src/Engine/Managers/CameraManager\l/CameraManager.cpp">
<polygon fill="white" stroke="black" points="-0.5,-79 -0.5,-131 186.5,-131 186.5,-79 -0.5,-79"/>
<text text-anchor="start" x="7.5" y="-119" font-family="Helvetica,sans-Serif" font-size="10.00">/home/travis/build</text>
<text text-anchor="start" x="7.5" y="-108" font-family="Helvetica,sans-Serif" font-size="10.00">/STORM&#45;IRIT/Radium&#45;Engine</text>
<text text-anchor="start" x="7.5" y="-97" font-family="Helvetica,sans-Serif" font-size="10.00">/src/Engine/Managers/CameraManager</text>
<text text-anchor="middle" x="93" y="-86" font-family="Helvetica,sans-Serif" font-size="10.00">/CameraManager.cpp</text>
</a>
</g>
</g>
<!-- Node1&#45;&gt;Node5 -->
<g id="edge21" class="edge"><title>Node1&#45;&gt;Node5</title>
<path fill="none" stroke="midnightblue" d="M1853.08,-364.621C1700.12,-358.32 1381.74,-342.558 1114,-312 864.415,-283.514 802.091,-272.429 556,-222 425.301,-195.217 275.87,-156.242 182.962,-131.003"/>
<polygon fill="midnightblue" stroke="midnightblue" points="1853.23,-368.13 1863.36,-365.041 1853.51,-361.136 1853.23,-368.13"/>
</g>
<!-- Node6 -->
<g id="node6" class="node"><title>Node6</title>
<g id="a_node6"><a xlink:href="LightManager_8cpp.html" target="_top" xlink:title="/home/travis/build\l/STORM&#45;IRIT/Radium&#45;Engine\l/src/Engine/Managers/LightManager\l/LightManager.cpp">
<polygon fill="white" stroke="black" points="204.5,-79 204.5,-131 377.5,-131 377.5,-79 204.5,-79"/>
<text text-anchor="start" x="212.5" y="-119" font-family="Helvetica,sans-Serif" font-size="10.00">/home/travis/build</text>
<text text-anchor="start" x="212.5" y="-108" font-family="Helvetica,sans-Serif" font-size="10.00">/STORM&#45;IRIT/Radium&#45;Engine</text>
<text text-anchor="start" x="212.5" y="-97" font-family="Helvetica,sans-Serif" font-size="10.00">/src/Engine/Managers/LightManager</text>
<text text-anchor="middle" x="291" y="-86" font-family="Helvetica,sans-Serif" font-size="10.00">/LightManager.cpp</text>
</a>
</g>
</g>
<!-- Node1&#45;&gt;Node6 -->
<g id="edge22" class="edge"><title>Node1&#45;&gt;Node6</title>
<path fill="none" stroke="midnightblue" d="M1853.32,-357.539C1763.31,-346.931 1621.45,-329.61 1499,-312 1003.44,-240.734 876.396,-237.582 387,-132 383.877,-131.326 380.705,-130.614 377.506,-129.873"/>
<polygon fill="midnightblue" stroke="midnightblue" points="1853.15,-361.043 1863.49,-358.735 1853.97,-354.091 1853.15,-361.043"/>
</g>
<!-- Node14 -->
<g id="node14" class="node"><title>Node14</title>
<g id="a_node14"><a xlink:href="FancyMeshComponent_8cpp.html" target="_top" xlink:title="/home/travis/build\l/STORM&#45;IRIT/Radium&#45;Engine\l/Plugins/FancyMesh/src/FancyMesh\lComponent.cpp">
<polygon fill="white" stroke="black" points="2262,-79 2262,-131 2438,-131 2438,-79 2262,-79"/>
<text text-anchor="start" x="2270" y="-119" font-family="Helvetica,sans-Serif" font-size="10.00">/home/travis/build</text>
<text text-anchor="start" x="2270" y="-108" font-family="Helvetica,sans-Serif" font-size="10.00">/STORM&#45;IRIT/Radium&#45;Engine</text>
<text text-anchor="start" x="2270" y="-97" font-family="Helvetica,sans-Serif" font-size="10.00">/Plugins/FancyMesh/src/FancyMesh</text>
<text text-anchor="middle" x="2350" y="-86" font-family="Helvetica,sans-Serif" font-size="10.00">Component.cpp</text>
</a>
</g>
</g>
<!-- Node1&#45;&gt;Node14 -->
<g id="edge24" class="edge"><title>Node1&#45;&gt;Node14</title>
<path fill="none" stroke="midnightblue" d="M1932.77,-338.55C1925.72,-314.7 1920.72,-281.346 1937,-258 1956.62,-229.879 2151.77,-166.464 2266.66,-131.074"/>
<polygon fill="midnightblue" stroke="midnightblue" points="1929.46,-339.689 1935.86,-348.132 1936.12,-337.54 1929.46,-339.689"/>
</g>
<!-- Node15 -->
<g id="node15" class="node"><title>Node15</title>
<g id="a_node15"><a xlink:href="FancyMeshSystem_8cpp.html" target="_top" xlink:title="/home/travis/build\l/STORM&#45;IRIT/Radium&#45;Engine\l/Plugins/FancyMesh/src/FancyMesh\lSystem.cpp">
<polygon fill="white" stroke="black" points="2456,-79 2456,-131 2632,-131 2632,-79 2456,-79"/>
<text text-anchor="start" x="2464" y="-119" font-family="Helvetica,sans-Serif" font-size="10.00">/home/travis/build</text>
<text text-anchor="start" x="2464" y="-108" font-family="Helvetica,sans-Serif" font-size="10.00">/STORM&#45;IRIT/Radium&#45;Engine</text>
<text text-anchor="start" x="2464" y="-97" font-family="Helvetica,sans-Serif" font-size="10.00">/Plugins/FancyMesh/src/FancyMesh</text>
<text text-anchor="middle" x="2544" y="-86" font-family="Helvetica,sans-Serif" font-size="10.00">System.cpp</text>
</a>
</g>
</g>
<!-- Node1&#45;&gt;Node15 -->
<g id="edge28" class="edge"><title>Node1&#45;&gt;Node15</title>
<path fill="none" stroke="midnightblue" d="M2035.06,-365.457C2189.68,-360.234 2490.16,-345.818 2524,-312 2572.03,-263.992 2560.04,-174.589 2550.48,-131.08"/>
<polygon fill="midnightblue" stroke="midnightblue" points="2034.52,-361.973 2024.64,-365.802 2034.75,-368.969 2034.52,-361.973"/>
</g>
<!-- Node16 -->
<g id="node16" class="node"><title>Node16</title>
<g id="a_node16"><a xlink:href="MeshPaintSystem_8cpp.html" target="_top" xlink:title="/home/travis/build\l/STORM&#45;IRIT/Radium&#45;Engine\l/Plugins/MeshPaint/src/MeshPaint\lSystem.cpp">
<polygon fill="white" stroke="black" points="2077.5,-79 2077.5,-131 2244.5,-131 2244.5,-79 2077.5,-79"/>
<text text-anchor="start" x="2085.5" y="-119" font-family="Helvetica,sans-Serif" font-size="10.00">/home/travis/build</text>
<text text-anchor="start" x="2085.5" y="-108" font-family="Helvetica,sans-Serif" font-size="10.00">/STORM&#45;IRIT/Radium&#45;Engine</text>
<text text-anchor="start" x="2085.5" y="-97" font-family="Helvetica,sans-Serif" font-size="10.00">/Plugins/MeshPaint/src/MeshPaint</text>
<text text-anchor="middle" x="2161" y="-86" font-family="Helvetica,sans-Serif" font-size="10.00">System.cpp</text>
</a>
</g>
</g>
<!-- Node1&#45;&gt;Node16 -->
<g id="edge29" class="edge"><title>Node1&#45;&gt;Node16</title>
<path fill="none" stroke="midnightblue" d="M1911.53,-341.135C1903.62,-332.717 1896.23,-322.779 1892,-312 1868.61,-252.429 1851.53,-217.582 1892,-168 1942.48,-106.145 1990.39,-150.76 2068,-132 2071.1,-131.252 2074.25,-130.471 2077.42,-129.667"/>
<polygon fill="midnightblue" stroke="midnightblue" points="1909.29,-343.851 1918.85,-348.419 1914.23,-338.887 1909.29,-343.851"/>
</g>
<!-- Node19 -->
<g id="node19" class="node"><title>Node19</title>
<g id="a_node19"><a xlink:href="GeometryData_8cpp.html" target="_top" xlink:title="/home/travis/build\l/STORM&#45;IRIT/Radium&#45;Engine\l/src/Core/File/GeometryData.cpp">
<polygon fill="white" stroke="black" points="1972.5,-264.5 1972.5,-305.5 2133.5,-305.5 2133.5,-264.5 1972.5,-264.5"/>
<text text-anchor="start" x="1980.5" y="-293.5" font-family="Helvetica,sans-Serif" font-size="10.00">/home/travis/build</text>
<text text-anchor="start" x="1980.5" y="-282.5" font-family="Helvetica,sans-Serif" font-size="10.00">/STORM&#45;IRIT/Radium&#45;Engine</text>
<text text-anchor="middle" x="2053" y="-271.5" font-family="Helvetica,sans-Serif" font-size="10.00">/src/Core/File/GeometryData.cpp</text>
</a>
</g>
</g>
<!-- Node1&#45;&gt;Node19 -->
<g id="edge18" class="edge"><title>Node1&#45;&gt;Node19</title>
<path fill="none" stroke="midnightblue" d="M1978.48,-342.062C1994.09,-330.318 2012.24,-316.66 2026.73,-305.765"/>
<polygon fill="midnightblue" stroke="midnightblue" points="1976,-339.55 1970.11,-348.359 1980.2,-345.144 1976,-339.55"/>
</g>
<!-- Node20 -->
<g id="node20" class="node"><title>Node20</title>
<g id="a_node20"><a xlink:href="GeometryData_8inl.html" target="_top" xlink:title="/home/travis/build\l/STORM&#45;IRIT/Radium&#45;Engine\l/src/Core/File/GeometryData.inl">
<polygon fill="white" stroke="black" points="2151.5,-264.5 2151.5,-305.5 2306.5,-305.5 2306.5,-264.5 2151.5,-264.5"/>
<text text-anchor="start" x="2159.5" y="-293.5" font-family="Helvetica,sans-Serif" font-size="10.00">/home/travis/build</text>
<text text-anchor="start" x="2159.5" y="-282.5" font-family="Helvetica,sans-Serif" font-size="10.00">/STORM&#45;IRIT/Radium&#45;Engine</text>
<text text-anchor="middle" x="2229" y="-271.5" font-family="Helvetica,sans-Serif" font-size="10.00">/src/Core/File/GeometryData.inl</text>
</a>
</g>
</g>
<!-- Node1&#45;&gt;Node20 -->
<g id="edge19" class="edge"><title>Node1&#45;&gt;Node20</title>
<path fill="none" stroke="midnightblue" d="M2015.92,-345.622C2051.2,-335.48 2094.28,-323.261 2133,-312 2140.11,-309.931 2147.55,-307.745 2155,-305.556"/>
<polygon fill="midnightblue" stroke="midnightblue" points="2014.82,-342.295 2006.18,-348.425 2016.76,-349.022 2014.82,-342.295"/>
</g>
<!-- Node21 -->
<g id="node21" class="node"><title>Node21</title>
<g id="a_node21"><a xlink:href="AssimpGeometryDataLoader_8cpp.html" target="_top" xlink:title="/home/travis/build\l/STORM&#45;IRIT/Radium&#45;Engine\l/src/IO/AssimpLoader/AssimpGeometry\lDataLoader.cpp">
<polygon fill="white" stroke="black" points="2324.5,-259 2324.5,-311 2515.5,-311 2515.5,-259 2324.5,-259"/>
<text text-anchor="start" x="2332.5" y="-299" font-family="Helvetica,sans-Serif" font-size="10.00">/home/travis/build</text>
<text text-anchor="start" x="2332.5" y="-288" font-family="Helvetica,sans-Serif" font-size="10.00">/STORM&#45;IRIT/Radium&#45;Engine</text>
<text text-anchor="start" x="2332.5" y="-277" font-family="Helvetica,sans-Serif" font-size="10.00">/src/IO/AssimpLoader/AssimpGeometry</text>
<text text-anchor="middle" x="2420" y="-266" font-family="Helvetica,sans-Serif" font-size="10.00">DataLoader.cpp</text>
</a>
</g>
</g>
<!-- Node1&#45;&gt;Node21 -->
<g id="edge23" class="edge"><title>Node1&#45;&gt;Node21</title>
<path fill="none" stroke="midnightblue" d="M2034.64,-356.712C2110.01,-346.754 2219.92,-330.905 2315,-312 2318.04,-311.396 2321.12,-310.761 2324.23,-310.103"/>
<polygon fill="midnightblue" stroke="midnightblue" points="2034.17,-353.245 2024.71,-358.018 2035.08,-360.186 2034.17,-353.245"/>
</g>
<!-- Node22 -->
<g id="node22" class="node"><title>Node22</title>
<g id="a_node22"><a xlink:href="FancyMeshComponent_8hpp.html" target="_top" xlink:title="/home/travis/build\l/STORM&#45;IRIT/Radium&#45;Engine\l/Plugins/FancyMesh/src/FancyMesh\lComponent.hpp">
<polygon fill="white" stroke="black" points="2262,-169 2262,-221 2438,-221 2438,-169 2262,-169"/>
<text text-anchor="start" x="2270" y="-209" font-family="Helvetica,sans-Serif" font-size="10.00">/home/travis/build</text>
<text text-anchor="start" x="2270" y="-198" font-family="Helvetica,sans-Serif" font-size="10.00">/STORM&#45;IRIT/Radium&#45;Engine</text>
<text text-anchor="start" x="2270" y="-187" font-family="Helvetica,sans-Serif" font-size="10.00">/Plugins/FancyMesh/src/FancyMesh</text>
<text text-anchor="middle" x="2350" y="-176" font-family="Helvetica,sans-Serif" font-size="10.00">Component.hpp</text>
</a>
</g>
</g>
<!-- Node1&#45;&gt;Node22 -->
<g id="edge25" class="edge"><title>Node1&#45;&gt;Node22</title>
<path fill="none" stroke="midnightblue" d="M1940.77,-338.201C1939.85,-313.268 1943.01,-278.561 1964,-258 2005.09,-217.747 2160.99,-203.617 2261.65,-198.665"/>
<polygon fill="midnightblue" stroke="midnightblue" points="1937.28,-338.449 1941.38,-348.219 1944.27,-338.026 1937.28,-338.449"/>
</g>
<!-- Node3 -->
<g id="node3" class="node"><title>Node3</title>
<g id="a_node3"><a xlink:href="FileData_8hpp.html" target="_top" xlink:title="/home/travis/build\l/STORM&#45;IRIT/Radium&#45;Engine\l/src/Core/File/FileData.hpp">
<polygon fill="white" stroke="black" points="1325,-174.5 1325,-215.5 1473,-215.5 1473,-174.5 1325,-174.5"/>
<text text-anchor="start" x="1333" y="-203.5" font-family="Helvetica,sans-Serif" font-size="10.00">/home/travis/build</text>
<text text-anchor="start" x="1333" y="-192.5" font-family="Helvetica,sans-Serif" font-size="10.00">/STORM&#45;IRIT/Radium&#45;Engine</text>
<text text-anchor="middle" x="1399" y="-181.5" font-family="Helvetica,sans-Serif" font-size="10.00">/src/Core/File/FileData.hpp</text>
</a>
</g>
</g>
<!-- Node2&#45;&gt;Node3 -->
<g id="edge2" class="edge"><title>Node2&#45;&gt;Node3</title>
<path fill="none" stroke="midnightblue" d="M1532.24,-260.073C1503.25,-246.129 1467.13,-228.762 1439.82,-215.627"/>
<polygon fill="midnightblue" stroke="midnightblue" points="1530.86,-263.29 1541.39,-264.47 1533.89,-256.982 1530.86,-263.29"/>
</g>
<!-- Node4 -->
<g id="node4" class="node"><title>Node4</title>
<g id="a_node4"><a xlink:href="FileData_8cpp.html" target="_top" xlink:title="/home/travis/build\l/STORM&#45;IRIT/Radium&#45;Engine\l/src/Core/File/FileData.cpp">
<polygon fill="white" stroke="black" points="978,-84.5 978,-125.5 1126,-125.5 1126,-84.5 978,-84.5"/>
<text text-anchor="start" x="986" y="-113.5" font-family="Helvetica,sans-Serif" font-size="10.00">/home/travis/build</text>
<text text-anchor="start" x="986" y="-102.5" font-family="Helvetica,sans-Serif" font-size="10.00">/STORM&#45;IRIT/Radium&#45;Engine</text>
<text text-anchor="middle" x="1052" y="-91.5" font-family="Helvetica,sans-Serif" font-size="10.00">/src/Core/File/FileData.cpp</text>
</a>
</g>
</g>
<!-- Node3&#45;&gt;Node4 -->
<g id="edge3" class="edge"><title>Node3&#45;&gt;Node4</title>
<path fill="none" stroke="midnightblue" d="M1315.09,-175.935C1263.01,-164.316 1194.83,-148.374 1135,-132 1127.72,-130.007 1120.11,-127.801 1112.59,-125.541"/>
<polygon fill="midnightblue" stroke="midnightblue" points="1314.43,-179.374 1324.95,-178.126 1315.95,-172.54 1314.43,-179.374"/>
</g>
<!-- Node3&#45;&gt;Node5 -->
<g id="edge4" class="edge"><title>Node3&#45;&gt;Node5</title>
<path fill="none" stroke="midnightblue" d="M1314.5,-191.827C1077.79,-185.395 411.396,-164.82 195,-132 192.199,-131.575 189.364,-131.107 186.508,-130.601"/>
<polygon fill="midnightblue" stroke="midnightblue" points="1314.68,-195.333 1324.77,-192.105 1314.87,-188.336 1314.68,-195.333"/>
</g>
<!-- Node3&#45;&gt;Node6 -->
<g id="edge5" class="edge"><title>Node3&#45;&gt;Node6</title>
<path fill="none" stroke="midnightblue" d="M1314.84,-187.944C1238.05,-182.485 1121.42,-174.363 1020,-168 738.765,-150.357 665.16,-177.075 387,-132 383.932,-131.503 380.821,-130.947 377.688,-130.343"/>
<polygon fill="midnightblue" stroke="midnightblue" points="1314.72,-191.444 1324.94,-188.663 1315.22,-184.461 1314.72,-191.444"/>
</g>
<!-- Node7 -->
<g id="node7" class="node"><title>Node7</title>
<g id="a_node7"><a xlink:href="RadiumEngine_8cpp.html" target="_top" xlink:title="/home/travis/build\l/STORM&#45;IRIT/Radium&#45;Engine\l/src/Engine/RadiumEngine.cpp">
<polygon fill="white" stroke="black" points="1144,-84.5 1144,-125.5 1296,-125.5 1296,-84.5 1144,-84.5"/>
<text text-anchor="start" x="1152" y="-113.5" font-family="Helvetica,sans-Serif" font-size="10.00">/home/travis/build</text>
<text text-anchor="start" x="1152" y="-102.5" font-family="Helvetica,sans-Serif" font-size="10.00">/STORM&#45;IRIT/Radium&#45;Engine</text>
<text text-anchor="middle" x="1220" y="-91.5" font-family="Helvetica,sans-Serif" font-size="10.00">/src/Engine/RadiumEngine.cpp</text>
</a>
</g>
</g>
<!-- Node3&#45;&gt;Node7 -->
<g id="edge6" class="edge"><title>Node3&#45;&gt;Node7</title>
<path fill="none" stroke="midnightblue" d="M1349.96,-169.891C1321.66,-155.979 1286.52,-138.705 1259.92,-125.627"/>
<polygon fill="midnightblue" stroke="midnightblue" points="1348.76,-173.199 1359.27,-174.47 1351.84,-166.917 1348.76,-173.199"/>
</g>
<!-- Node8 -->
<g id="node8" class="node"><title>Node8</title>
<g id="a_node8"><a xlink:href="Renderer_8cpp.html" target="_top" xlink:title="/home/travis/build\l/STORM&#45;IRIT/Radium&#45;Engine\l/src/Engine/Renderer/Renderer.cpp">
<polygon fill="white" stroke="black" points="1314,-84.5 1314,-125.5 1484,-125.5 1484,-84.5 1314,-84.5"/>
<text text-anchor="start" x="1322" y="-113.5" font-family="Helvetica,sans-Serif" font-size="10.00">/home/travis/build</text>
<text text-anchor="start" x="1322" y="-102.5" font-family="Helvetica,sans-Serif" font-size="10.00">/STORM&#45;IRIT/Radium&#45;Engine</text>
<text text-anchor="middle" x="1399" y="-91.5" font-family="Helvetica,sans-Serif" font-size="10.00">/src/Engine/Renderer/Renderer.cpp</text>
</a>
</g>
</g>
<!-- Node3&#45;&gt;Node8 -->
<g id="edge7" class="edge"><title>Node3&#45;&gt;Node8</title>
<path fill="none" stroke="midnightblue" d="M1399,-164.33C1399,-151.629 1399,-137.14 1399,-125.78"/>
<polygon fill="midnightblue" stroke="midnightblue" points="1395.5,-164.47 1399,-174.47 1402.5,-164.47 1395.5,-164.47"/>
</g>
<!-- Node9 -->
<g id="node9" class="node"><title>Node9</title>
<g id="a_node9"><a xlink:href="Viewer_8cpp.html" target="_top" xlink:title="/home/travis/build\l/STORM&#45;IRIT/Radium&#45;Engine\l/src/GuiBase/Viewer/Viewer.cpp">
<polygon fill="white" stroke="black" points="1502,-84.5 1502,-125.5 1660,-125.5 1660,-84.5 1502,-84.5"/>
<text text-anchor="start" x="1510" y="-113.5" font-family="Helvetica,sans-Serif" font-size="10.00">/home/travis/build</text>
<text text-anchor="start" x="1510" y="-102.5" font-family="Helvetica,sans-Serif" font-size="10.00">/STORM&#45;IRIT/Radium&#45;Engine</text>
<text text-anchor="middle" x="1581" y="-91.5" font-family="Helvetica,sans-Serif" font-size="10.00">/src/GuiBase/Viewer/Viewer.cpp</text>
</a>
</g>
</g>
<!-- Node3&#45;&gt;Node9 -->
<g id="edge8" class="edge"><title>Node3&#45;&gt;Node9</title>
<path fill="none" stroke="midnightblue" d="M1448.49,-170.073C1477.32,-156.129 1513.24,-138.762 1540.41,-125.627"/>
<polygon fill="midnightblue" stroke="midnightblue" points="1446.87,-166.966 1439.39,-174.47 1449.92,-173.268 1446.87,-166.966"/>
</g>
<!-- Node10 -->
<g id="node10" class="node"><title>Node10</title>
<g id="a_node10"><a xlink:href="AssimpFileLoader_8cpp.html" target="_top" xlink:title="/home/travis/build\l/STORM&#45;IRIT/Radium&#45;Engine\l/src/IO/AssimpLoader/AssimpFile\lLoader.cpp">
<polygon fill="white" stroke="black" points="1678,-79 1678,-131 1842,-131 1842,-79 1678,-79"/>
<text text-anchor="start" x="1686" y="-119" font-family="Helvetica,sans-Serif" font-size="10.00">/home/travis/build</text>
<text text-anchor="start" x="1686" y="-108" font-family="Helvetica,sans-Serif" font-size="10.00">/STORM&#45;IRIT/Radium&#45;Engine</text>
<text text-anchor="start" x="1686" y="-97" font-family="Helvetica,sans-Serif" font-size="10.00">/src/IO/AssimpLoader/AssimpFile</text>
<text text-anchor="middle" x="1760" y="-86" font-family="Helvetica,sans-Serif" font-size="10.00">Loader.cpp</text>
</a>
</g>
</g>
<!-- Node3&#45;&gt;Node10 -->
<g id="edge9" class="edge"><title>Node3&#45;&gt;Node10</title>
<path fill="none" stroke="midnightblue" d="M1483.23,-175.698C1536.38,-163.873 1606.4,-147.794 1668,-132 1671.22,-131.176 1674.49,-130.321 1677.8,-129.447"/>
<polygon fill="midnightblue" stroke="midnightblue" points="1482.17,-172.347 1473.16,-177.93 1483.69,-179.181 1482.17,-172.347"/>
</g>
<!-- Node11 -->
<g id="node11" class="node"><title>Node11</title>
<g id="a_node11"><a xlink:href="CameraLoader_8cpp.html" target="_top" xlink:title="/home/travis/build\l/STORM&#45;IRIT/Radium&#45;Engine\l/src/IO/CameraLoader/CameraLoader.cpp">
<polygon fill="white" stroke="black" points="1860.5,-84.5 1860.5,-125.5 2059.5,-125.5 2059.5,-84.5 1860.5,-84.5"/>
<text text-anchor="start" x="1868.5" y="-113.5" font-family="Helvetica,sans-Serif" font-size="10.00">/home/travis/build</text>
<text text-anchor="start" x="1868.5" y="-102.5" font-family="Helvetica,sans-Serif" font-size="10.00">/STORM&#45;IRIT/Radium&#45;Engine</text>
<text text-anchor="middle" x="1960" y="-91.5" font-family="Helvetica,sans-Serif" font-size="10.00">/src/IO/CameraLoader/CameraLoader.cpp</text>
</a>
</g>
</g>
<!-- Node3&#45;&gt;Node11 -->
<g id="edge10" class="edge"><title>Node3&#45;&gt;Node11</title>
<path fill="none" stroke="midnightblue" d="M1483.34,-184.93C1574.43,-174.553 1723.62,-155.869 1851,-132 1861.13,-130.101 1871.74,-127.874 1882.2,-125.536"/>
<polygon fill="midnightblue" stroke="midnightblue" points="1482.89,-181.459 1473.35,-186.062 1483.68,-188.414 1482.89,-181.459"/>
</g>
<!-- Node12 -->
<g id="node12" class="node"><title>Node12</title>
<g id="a_node12"><a xlink:href="TinyPlyFileLoader_8cpp.html" target="_top" xlink:title="/home/travis/build\l/STORM&#45;IRIT/Radium&#45;Engine\l/src/IO/TinyPlyLoader/TinyPlyFile\lLoader.cpp">
<polygon fill="white" stroke="black" points="396,-79 396,-131 560,-131 560,-79 396,-79"/>
<text text-anchor="start" x="404" y="-119" font-family="Helvetica,sans-Serif" font-size="10.00">/home/travis/build</text>
<text text-anchor="start" x="404" y="-108" font-family="Helvetica,sans-Serif" font-size="10.00">/STORM&#45;IRIT/Radium&#45;Engine</text>
<text text-anchor="start" x="404" y="-97" font-family="Helvetica,sans-Serif" font-size="10.00">/src/IO/TinyPlyLoader/TinyPlyFile</text>
<text text-anchor="middle" x="478" y="-86" font-family="Helvetica,sans-Serif" font-size="10.00">Loader.cpp</text>
</a>
</g>
</g>
<!-- Node3&#45;&gt;Node12 -->
<g id="edge11" class="edge"><title>Node3&#45;&gt;Node12</title>
<path fill="none" stroke="midnightblue" d="M1314.83,-188.177C1111.07,-174.017 605.285,-138.469 569,-132 566.088,-131.481 563.136,-130.906 560.164,-130.286"/>
<polygon fill="midnightblue" stroke="midnightblue" points="1314.67,-191.674 1324.89,-188.876 1315.16,-184.691 1314.67,-191.674"/>
</g>
<!-- Node13 -->
<g id="node13" class="node"><title>Node13</title>
<g id="a_node13"><a xlink:href="AnimationSystem_8cpp.html" target="_top" xlink:title="/home/travis/build\l/STORM&#45;IRIT/Radium&#45;Engine\l/Plugins/Animation/src/Animation\lSystem.cpp">
<polygon fill="white" stroke="black" points="578.5,-79 578.5,-131 739.5,-131 739.5,-79 578.5,-79"/>
<text text-anchor="start" x="586.5" y="-119" font-family="Helvetica,sans-Serif" font-size="10.00">/home/travis/build</text>
<text text-anchor="start" x="586.5" y="-108" font-family="Helvetica,sans-Serif" font-size="10.00">/STORM&#45;IRIT/Radium&#45;Engine</text>
<text text-anchor="start" x="586.5" y="-97" font-family="Helvetica,sans-Serif" font-size="10.00">/Plugins/Animation/src/Animation</text>
<text text-anchor="middle" x="659" y="-86" font-family="Helvetica,sans-Serif" font-size="10.00">System.cpp</text>
</a>
</g>
</g>
<!-- Node3&#45;&gt;Node13 -->
<g id="edge12" class="edge"><title>Node3&#45;&gt;Node13</title>
<path fill="none" stroke="midnightblue" d="M1314.81,-187.931C1164.39,-176.761 855.272,-152.236 749,-132 745.964,-131.422 742.884,-130.787 739.781,-130.105"/>
<polygon fill="midnightblue" stroke="midnightblue" points="1314.7,-191.432 1324.93,-188.68 1315.21,-184.451 1314.7,-191.432"/>
</g>
<!-- Node3&#45;&gt;Node14 -->
<g id="edge13" class="edge"><title>Node3&#45;&gt;Node14</title>
<path fill="none" stroke="midnightblue" d="M1483.44,-189.91C1668.84,-180.598 2106.62,-156.702 2253,-132 2255.92,-131.507 2258.88,-130.964 2261.87,-130.382"/>
<polygon fill="midnightblue" stroke="midnightblue" points="1483.01,-186.427 1473.2,-190.423 1483.36,-193.418 1483.01,-186.427"/>
</g>
<!-- Node3&#45;&gt;Node15 -->
<g id="edge14" class="edge"><title>Node3&#45;&gt;Node15</title>
<path fill="none" stroke="midnightblue" d="M1483.3,-194.702C1661.98,-194.944 2091.51,-188.93 2446,-132 2449.22,-131.484 2452.48,-130.906 2455.76,-130.279"/>
<polygon fill="midnightblue" stroke="midnightblue" points="1483.18,-191.201 1473.18,-194.681 1483.17,-198.201 1483.18,-191.201"/>
</g>
<!-- Node3&#45;&gt;Node16 -->
<g id="edge15" class="edge"><title>Node3&#45;&gt;Node16</title>
<path fill="none" stroke="midnightblue" d="M1483.44,-191.052C1610.99,-185.503 1859.99,-170.391 2068,-132 2071.05,-131.437 2074.14,-130.82 2077.26,-130.159"/>
<polygon fill="midnightblue" stroke="midnightblue" points="1483.19,-187.559 1473.35,-191.482 1483.49,-194.553 1483.19,-187.559"/>
</g>
<!-- Node17 -->
<g id="node17" class="node"><title>Node17</title>
<g id="a_node17"><a xlink:href="SkinningSystem_8hpp.html" target="_top" xlink:title="/home/travis/build\l/STORM&#45;IRIT/Radium&#45;Engine\l/Plugins/Skinning/src/SkinningSystem.hpp">
<polygon fill="white" stroke="black" points="758,-84.5 758,-125.5 960,-125.5 960,-84.5 758,-84.5"/>
<text text-anchor="start" x="766" y="-113.5" font-family="Helvetica,sans-Serif" font-size="10.00">/home/travis/build</text>
<text text-anchor="start" x="766" y="-102.5" font-family="Helvetica,sans-Serif" font-size="10.00">/STORM&#45;IRIT/Radium&#45;Engine</text>
<text text-anchor="middle" x="859" y="-91.5" font-family="Helvetica,sans-Serif" font-size="10.00">/Plugins/Skinning/src/SkinningSystem.hpp</text>
</a>
</g>
</g>
<!-- Node3&#45;&gt;Node17 -->
<g id="edge16" class="edge"><title>Node3&#45;&gt;Node17</title>
<path fill="none" stroke="midnightblue" d="M1314.79,-184.106C1227.83,-173.364 1088.39,-154.671 969,-132 958.879,-130.078 948.282,-127.851 937.831,-125.525"/>
<polygon fill="midnightblue" stroke="midnightblue" points="1314.51,-187.598 1324.86,-185.344 1315.36,-180.651 1314.51,-187.598"/>
</g>
<!-- Node18 -->
<g id="node18" class="node"><title>Node18</title>
<g id="a_node18"><a xlink:href="SkinningPlugin_8cpp.html" target="_top" xlink:title="/home/travis/build\l/STORM&#45;IRIT/Radium&#45;Engine\l/Plugins/Skinning/src/SkinningPlugin.cpp">
<polygon fill="white" stroke="black" points="761.5,-0.5 761.5,-41.5 956.5,-41.5 956.5,-0.5 761.5,-0.5"/>
<text text-anchor="start" x="769.5" y="-29.5" font-family="Helvetica,sans-Serif" font-size="10.00">/home/travis/build</text>
<text text-anchor="start" x="769.5" y="-18.5" font-family="Helvetica,sans-Serif" font-size="10.00">/STORM&#45;IRIT/Radium&#45;Engine</text>
<text text-anchor="middle" x="859" y="-7.5" font-family="Helvetica,sans-Serif" font-size="10.00">/Plugins/Skinning/src/SkinningPlugin.cpp</text>
</a>
</g>
</g>
<!-- Node17&#45;&gt;Node18 -->
<g id="edge17" class="edge"><title>Node17&#45;&gt;Node18</title>
<path fill="none" stroke="midnightblue" d="M859,-73.881C859,-63.1328 859,-51.309 859,-41.6671"/>
<polygon fill="midnightblue" stroke="midnightblue" points="855.5,-74.1501 859,-84.1501 862.5,-74.1501 855.5,-74.1501"/>
</g>
<!-- Node20&#45;&gt;Node1 -->
<g id="edge20" class="edge"><title>Node20&#45;&gt;Node1</title>
<path fill="none" stroke="midnightblue" d="M2163.24,-308.418C2159.11,-309.635 2155,-310.836 2151,-312 2108.64,-324.32 2061.07,-337.786 2022.16,-348.425"/>
<polygon fill="midnightblue" stroke="midnightblue" points="2164.3,-311.754 2172.89,-305.556 2162.31,-305.042 2164.3,-311.754"/>
</g>
<!-- Node22&#45;&gt;Node14 -->
<g id="edge26" class="edge"><title>Node22&#45;&gt;Node14</title>
<path fill="none" stroke="midnightblue" d="M2350,-158.489C2350,-149.309 2350,-139.616 2350,-131.092"/>
<polygon fill="midnightblue" stroke="midnightblue" points="2346.5,-158.547 2350,-168.547 2353.5,-158.547 2346.5,-158.547"/>
</g>
<!-- Node22&#45;&gt;Node15 -->
<g id="edge27" class="edge"><title>Node22&#45;&gt;Node15</title>
<path fill="none" stroke="midnightblue" d="M2414.7,-164.654C2438.64,-153.792 2465.55,-141.586 2488.59,-131.133"/>
<polygon fill="midnightblue" stroke="midnightblue" points="2412.99,-161.582 2405.33,-168.901 2415.89,-167.957 2412.99,-161.582"/>
</g>
</g>
</svg>
