<?xml version="1.0" encoding="UTF-8" standalone="no"?>
<!DOCTYPE svg PUBLIC "-//W3C//DTD SVG 1.1//EN"
 "http://www.w3.org/Graphics/SVG/1.1/DTD/svg11.dtd">
<!-- Generated by graphviz version 2.36.0 (20140111.2315)
 -->
<!-- Title: /home/travis/build/STORM&#45;IRIT/Radium&#45;Engine/src/GuiBase/Viewer/Gizmo/Gizmo.hpp Pages: 1 -->
<svg width="664pt" height="242pt"
 viewBox="0.00 0.00 664.00 242.00" xmlns="http://www.w3.org/2000/svg" xmlns:xlink="http://www.w3.org/1999/xlink">
<g id="graph0" class="graph" transform="scale(1 1) rotate(0) translate(4 238)">
<title>/home/travis/build/STORM&#45;IRIT/Radium&#45;Engine/src/GuiBase/Viewer/Gizmo/Gizmo.hpp</title>
<polygon fill="white" stroke="none" points="-4,4 -4,-238 660,-238 660,4 -4,4"/>
<!-- Node1 -->
<g id="node1" class="node"><title>Node1</title>
<polygon fill="#bfbfbf" stroke="black" points="249,-181 249,-233 397,-233 397,-181 249,-181"/>
<text text-anchor="start" x="257" y="-221" font-family="Helvetica,sans-Serif" font-size="10.00">/home/travis/build</text>
<text text-anchor="start" x="257" y="-210" font-family="Helvetica,sans-Serif" font-size="10.00">/STORM&#45;IRIT/Radium&#45;Engine</text>
<text text-anchor="start" x="257" y="-199" font-family="Helvetica,sans-Serif" font-size="10.00">/src/GuiBase/Viewer/Gizmo</text>
<text text-anchor="middle" x="323" y="-188" font-family="Helvetica,sans-Serif" font-size="10.00">/Gizmo.hpp</text>
</g>
<!-- Node2 -->
<g id="node2" class="node"><title>Node2</title>
<g id="a_node2"><a xlink:href="GizmoManager_8hpp.html" target="_top" xlink:title="/home/travis/build\l/STORM&#45;IRIT/Radium&#45;Engine\l/src/GuiBase/Viewer/Gizmo\l/GizmoManager.hpp">
<polygon fill="white" stroke="black" points="415,-91 415,-143 563,-143 563,-91 415,-91"/>
<text text-anchor="start" x="423" y="-131" font-family="Helvetica,sans-Serif" font-size="10.00">/home/travis/build</text>
<text text-anchor="start" x="423" y="-120" font-family="Helvetica,sans-Serif" font-size="10.00">/STORM&#45;IRIT/Radium&#45;Engine</text>
<text text-anchor="start" x="423" y="-109" font-family="Helvetica,sans-Serif" font-size="10.00">/src/GuiBase/Viewer/Gizmo</text>
<text text-anchor="middle" x="489" y="-98" font-family="Helvetica,sans-Serif" font-size="10.00">/GizmoManager.hpp</text>
</a>
</g>
</g>
<!-- Node1&#45;&gt;Node2 -->
<g id="edge1" class="edge"><title>Node1&#45;&gt;Node2</title>
<path fill="none" stroke="midnightblue" d="M379.666,-175.96C399.864,-165.253 422.384,-153.315 441.711,-143.069"/>
<polygon fill="midnightblue" stroke="midnightblue" points="377.765,-173.007 370.569,-180.783 381.044,-179.191 377.765,-173.007"/>
</g>
<!-- Node5 -->
<g id="node5" class="node"><title>Node5</title>
<g id="a_node5"><a xlink:href="RotateGizmo_8hpp.html" target="_top" xlink:title="/home/travis/build\l/STORM&#45;IRIT/Radium&#45;Engine\l/src/GuiBase/Viewer/Gizmo\l/RotateGizmo.hpp">
<polygon fill="white" stroke="black" points="83,-91 83,-143 231,-143 231,-91 83,-91"/>
<text text-anchor="start" x="91" y="-131" font-family="Helvetica,sans-Serif" font-size="10.00">/home/travis/build</text>
<text text-anchor="start" x="91" y="-120" font-family="Helvetica,sans-Serif" font-size="10.00">/STORM&#45;IRIT/Radium&#45;Engine</text>
<text text-anchor="start" x="91" y="-109" font-family="Helvetica,sans-Serif" font-size="10.00">/src/GuiBase/Viewer/Gizmo</text>
<text text-anchor="middle" x="157" y="-98" font-family="Helvetica,sans-Serif" font-size="10.00">/RotateGizmo.hpp</text>
</a>
</g>
</g>
<!-- Node1&#45;&gt;Node5 -->
<g id="edge4" class="edge"><title>Node1&#45;&gt;Node5</title>
<path fill="none" stroke="midnightblue" d="M266.334,-175.96C246.136,-165.253 223.616,-153.315 204.289,-143.069"/>
<polygon fill="midnightblue" stroke="midnightblue" points="264.956,-179.191 275.431,-180.783 268.235,-173.007 264.956,-179.191"/>
</g>
<!-- Node7 -->
<g id="node7" class="node"><title>Node7</title>
<g id="a_node7"><a xlink:href="TranslateGizmo_8hpp.html" target="_top" xlink:title="/home/travis/build\l/STORM&#45;IRIT/Radium&#45;Engine\l/src/GuiBase/Viewer/Gizmo\l/TranslateGizmo.hpp">
<polygon fill="white" stroke="black" points="249,-91 249,-143 397,-143 397,-91 249,-91"/>
<text text-anchor="start" x="257" y="-131" font-family="Helvetica,sans-Serif" font-size="10.00">/home/travis/build</text>
<text text-anchor="start" x="257" y="-120" font-family="Helvetica,sans-Serif" font-size="10.00">/STORM&#45;IRIT/Radium&#45;Engine</text>
<text text-anchor="start" x="257" y="-109" font-family="Helvetica,sans-Serif" font-size="10.00">/src/GuiBase/Viewer/Gizmo</text>
<text text-anchor="middle" x="323" y="-98" font-family="Helvetica,sans-Serif" font-size="10.00">/TranslateGizmo.hpp</text>
</a>
</g>
</g>
<!-- Node1&#45;&gt;Node7 -->
<g id="edge7" class="edge"><title>Node1&#45;&gt;Node7</title>
<path fill="none" stroke="midnightblue" d="M323,-170.489C323,-161.309 323,-151.616 323,-143.092"/>
<polygon fill="midnightblue" stroke="midnightblue" points="319.5,-170.547 323,-180.547 326.5,-170.547 319.5,-170.547"/>
</g>
<!-- Node3 -->
<g id="node3" class="node"><title>Node3</title>
<g id="a_node3"><a xlink:href="GizmoManager_8cpp.html" target="_top" xlink:title="/home/travis/build\l/STORM&#45;IRIT/Radium&#45;Engine\l/src/GuiBase/Viewer/Gizmo\l/GizmoManager.cpp">
<polygon fill="white" stroke="black" points="166,-1 166,-53 314,-53 314,-1 166,-1"/>
<text text-anchor="start" x="174" y="-41" font-family="Helvetica,sans-Serif" font-size="10.00">/home/travis/build</text>
<text text-anchor="start" x="174" y="-30" font-family="Helvetica,sans-Serif" font-size="10.00">/STORM&#45;IRIT/Radium&#45;Engine</text>
<text text-anchor="start" x="174" y="-19" font-family="Helvetica,sans-Serif" font-size="10.00">/src/GuiBase/Viewer/Gizmo</text>
<text text-anchor="middle" x="240" y="-8" font-family="Helvetica,sans-Serif" font-size="10.00">/GizmoManager.cpp</text>
</a>
</g>
</g>
<!-- Node2&#45;&gt;Node3 -->
<g id="edge2" class="edge"><title>Node2&#45;&gt;Node3</title>
<path fill="none" stroke="midnightblue" d="M408.402,-87.5157C377.068,-76.4416 341.478,-63.8637 311.115,-53.1328"/>
<polygon fill="midnightblue" stroke="midnightblue" points="407.385,-90.8683 417.98,-90.9005 409.718,-84.2683 407.385,-90.8683"/>
</g>
<!-- Node4 -->
<g id="node4" class="node"><title>Node4</title>
<g id="a_node4"><a xlink:href="Viewer_8cpp.html" target="_top" xlink:title="/home/travis/build\l/STORM&#45;IRIT/Radium&#45;Engine\l/src/GuiBase/Viewer/Viewer.cpp">
<polygon fill="white" stroke="black" points="498,-6.5 498,-47.5 656,-47.5 656,-6.5 498,-6.5"/>
<text text-anchor="start" x="506" y="-35.5" font-family="Helvetica,sans-Serif" font-size="10.00">/home/travis/build</text>
<text text-anchor="start" x="506" y="-24.5" font-family="Helvetica,sans-Serif" font-size="10.00">/STORM&#45;IRIT/Radium&#45;Engine</text>
<text text-anchor="middle" x="577" y="-13.5" font-family="Helvetica,sans-Serif" font-size="10.00">/src/GuiBase/Viewer/Viewer.cpp</text>
</a>
</g>
</g>
<!-- Node2&#45;&gt;Node4 -->
<g id="edge3" class="edge"><title>Node2&#45;&gt;Node4</title>
<path fill="none" stroke="midnightblue" d="M521.746,-83.2545C533.763,-71.2371 546.981,-58.019 557.475,-47.5249"/>
<polygon fill="midnightblue" stroke="midnightblue" points="519.049,-81.0008 514.453,-90.5468 523.999,-85.9505 519.049,-81.0008"/>
</g>
<!-- Node5&#45;&gt;Node3 -->
<g id="edge5" class="edge"><title>Node5&#45;&gt;Node3</title>
<path fill="none" stroke="midnightblue" d="M187.994,-83.1386C197.372,-73.1958 207.516,-62.4408 216.334,-53.0921"/>
<polygon fill="midnightblue" stroke="midnightblue" points="185.322,-80.8705 181.007,-90.5468 190.415,-85.6735 185.322,-80.8705"/>
</g>
<!-- Node6 -->
<g id="node6" class="node"><title>Node6</title>
<g id="a_node6"><a xlink:href="RotateGizmo_8cpp.html" target="_top" xlink:title="/home/travis/build\l/STORM&#45;IRIT/Radium&#45;Engine\l/src/GuiBase/Viewer/Gizmo\l/RotateGizmo.cpp">
<polygon fill="white" stroke="black" points="0,-1 0,-53 148,-53 148,-1 0,-1"/>
<text text-anchor="start" x="8" y="-41" font-family="Helvetica,sans-Serif" font-size="10.00">/home/travis/build</text>
<text text-anchor="start" x="8" y="-30" font-family="Helvetica,sans-Serif" font-size="10.00">/STORM&#45;IRIT/Radium&#45;Engine</text>
<text text-anchor="start" x="8" y="-19" font-family="Helvetica,sans-Serif" font-size="10.00">/src/GuiBase/Viewer/Gizmo</text>
<text text-anchor="middle" x="74" y="-8" font-family="Helvetica,sans-Serif" font-size="10.00">/RotateGizmo.cpp</text>
</a>
</g>
</g>
<!-- Node5&#45;&gt;Node6 -->
<g id="edge6" class="edge"><title>Node5&#45;&gt;Node6</title>
<path fill="none" stroke="midnightblue" d="M126.006,-83.1386C116.628,-73.1958 106.484,-62.4408 97.6665,-53.0921"/>
<polygon fill="midnightblue" stroke="midnightblue" points="123.585,-85.6735 132.993,-90.5468 128.678,-80.8705 123.585,-85.6735"/>
</g>
<!-- Node7&#45;&gt;Node3 -->
<g id="edge8" class="edge"><title>Node7&#45;&gt;Node3</title>
<path fill="none" stroke="midnightblue" d="M292.006,-83.1386C282.628,-73.1958 272.484,-62.4408 263.666,-53.0921"/>
<polygon fill="midnightblue" stroke="midnightblue" points="289.585,-85.6735 298.993,-90.5468 294.678,-80.8705 289.585,-85.6735"/>
</g>
<!-- Node8 -->
<g id="node8" class="node"><title>Node8</title>
<g id="a_node8"><a xlink:href="TranslateGizmo_8cpp.html" target="_top" xlink:title="/home/travis/build\l/STORM&#45;IRIT/Radium&#45;Engine\l/src/GuiBase/Viewer/Gizmo\l/TranslateGizmo.cpp">
<polygon fill="white" stroke="black" points="332,-1 332,-53 480,-53 480,-1 332,-1"/>
<text text-anchor="start" x="340" y="-41" font-family="Helvetica,sans-Serif" font-size="10.00">/home/travis/build</text>
<text text-anchor="start" x="340" y="-30" font-family="Helvetica,sans-Serif" font-size="10.00">/STORM&#45;IRIT/Radium&#45;Engine</text>
<text text-anchor="start" x="340" y="-19" font-family="Helvetica,sans-Serif" font-size="10.00">/src/GuiBase/Viewer/Gizmo</text>
<text text-anchor="middle" x="406" y="-8" font-family="Helvetica,sans-Serif" font-size="10.00">/TranslateGizmo.cpp</text>
</a>
</g>
</g>
<!-- Node7&#45;&gt;Node8 -->
<g id="edge9" class="edge"><title>Node7&#45;&gt;Node8</title>
<path fill="none" stroke="midnightblue" d="M353.994,-83.1386C363.372,-73.1958 373.516,-62.4408 382.334,-53.0921"/>
<polygon fill="midnightblue" stroke="midnightblue" points="351.322,-80.8705 347.007,-90.5468 356.415,-85.6735 351.322,-80.8705"/>
</g>
</g>
</svg>
