<?xml version="1.0" encoding="UTF-8" standalone="no"?>
<!DOCTYPE svg PUBLIC "-//W3C//DTD SVG 1.1//EN"
 "http://www.w3.org/Graphics/SVG/1.1/DTD/svg11.dtd">
<!-- Generated by graphviz version 2.36.0 (20140111.2315)
 -->
<!-- Title: /home/travis/build/STORM&#45;IRIT/Radium&#45;Engine/src/Core/Mesh/HalfEdge.hpp Pages: 1 -->
<svg width="1202pt" height="398pt"
 viewBox="0.00 0.00 1202.00 398.00" xmlns="http://www.w3.org/2000/svg" xmlns:xlink="http://www.w3.org/1999/xlink">
<g id="graph0" class="graph" transform="scale(1 1) rotate(0) translate(4 394)">
<title>/home/travis/build/STORM&#45;IRIT/Radium&#45;Engine/src/Core/Mesh/HalfEdge.hpp</title>
<polygon fill="white" stroke="none" points="-4,4 -4,-394 1198,-394 1198,4 -4,4"/>
<!-- Node1 -->
<g id="node1" class="node"><title>Node1</title>
<polygon fill="#bfbfbf" stroke="black" points="920.999,-348.5 920.999,-389.5 1069,-389.5 1069,-348.5 920.999,-348.5"/>
<text text-anchor="start" x="928.999" y="-377.5" font-family="Helvetica,sans-Serif" font-size="10.00">/home/travis/build</text>
<text text-anchor="start" x="928.999" y="-366.5" font-family="Helvetica,sans-Serif" font-size="10.00">/STORM&#45;IRIT/Radium&#45;Engine</text>
<text text-anchor="middle" x="994.999" y="-355.5" font-family="Helvetica,sans-Serif" font-size="10.00">/src/Core/Mesh/HalfEdge.hpp</text>
</g>
<!-- Node2 -->
<g id="node2" class="node"><title>Node2</title>
<g id="a_node2"><a xlink:href="RaCore_8hpp.html" target="_top" xlink:title="Core/RaCore.hpp">
<polygon fill="white" stroke="black" points="416.499,-112.5 416.499,-131.5 509.499,-131.5 509.499,-112.5 416.499,-112.5"/>
<text text-anchor="middle" x="462.999" y="-119.5" font-family="Helvetica,sans-Serif" font-size="10.00">Core/RaCore.hpp</text>
</a>
</g>
</g>
<!-- Node1&#45;&gt;Node2 -->
<g id="edge1" class="edge"><title>Node1&#45;&gt;Node2</title>
<path fill="none" stroke="midnightblue" d="M920.926,-364.73C729.233,-355.372 221.242,-324.628 68.9993,-256 34.8463,-240.604 21.3462,-234.175 5.99934,-200 0.173116,-187.026 -3.55185,-178.538 5.99934,-168 32.4073,-138.864 289.549,-127.909 406.092,-124.417"/>
<polygon fill="midnightblue" stroke="midnightblue" points="406.357,-127.911 416.25,-124.121 406.153,-120.914 406.357,-127.911"/>
</g>
<!-- Node3 -->
<g id="node3" class="node"><title>Node3</title>
<g id="a_node3"><a xlink:href="CoreMacros_8hpp.html" target="_top" xlink:title="Core/CoreMacros.hpp">
<polygon fill="white" stroke="black" points="697.499,-56.5 697.499,-75.5 810.499,-75.5 810.499,-56.5 697.499,-56.5"/>
<text text-anchor="middle" x="753.999" y="-63.5" font-family="Helvetica,sans-Serif" font-size="10.00">Core/CoreMacros.hpp</text>
</a>
</g>
</g>
<!-- Node1&#45;&gt;Node3 -->
<g id="edge10" class="edge"><title>Node1&#45;&gt;Node3</title>
<path fill="none" stroke="midnightblue" d="M1008.66,-348.473C1023.47,-325.363 1045,-285.186 1045,-247 1045,-247 1045,-247 1045,-183 1045,-133.024 895.029,-95.0203 810.412,-77.555"/>
<polygon fill="midnightblue" stroke="midnightblue" points="810.928,-74.0884 800.431,-75.5275 809.534,-80.9483 810.928,-74.0884"/>
</g>
<!-- Node9 -->
<g id="node9" class="node"><title>Node9</title>
<polygon fill="white" stroke="#bfbfbf" points="916.999,-292.5 916.999,-311.5 954.999,-311.5 954.999,-292.5 916.999,-292.5"/>
<text text-anchor="middle" x="935.999" y="-299.5" font-family="Helvetica,sans-Serif" font-size="10.00">array</text>
</g>
<!-- Node1&#45;&gt;Node9 -->
<g id="edge8" class="edge"><title>Node1&#45;&gt;Node9</title>
<path fill="none" stroke="midnightblue" d="M977.297,-348.498C968.773,-339.107 958.676,-327.983 950.599,-319.085"/>
<polygon fill="midnightblue" stroke="midnightblue" points="953.166,-316.705 943.853,-311.652 947.983,-321.409 953.166,-316.705"/>
</g>
<!-- Node10 -->
<g id="node10" class="node"><title>Node10</title>
<polygon fill="white" stroke="#bfbfbf" points="972.999,-292.5 972.999,-311.5 1017,-311.5 1017,-292.5 972.999,-292.5"/>
<text text-anchor="middle" x="994.999" y="-299.5" font-family="Helvetica,sans-Serif" font-size="10.00">vector</text>
</g>
<!-- Node1&#45;&gt;Node10 -->
<g id="edge9" class="edge"><title>Node1&#45;&gt;Node10</title>
<path fill="none" stroke="midnightblue" d="M994.999,-348.498C994.999,-340.065 994.999,-330.235 994.999,-321.874"/>
<polygon fill="midnightblue" stroke="midnightblue" points="998.499,-321.652 994.999,-311.652 991.499,-321.653 998.499,-321.652"/>
</g>
<!-- Node11 -->
<g id="node11" class="node"><title>Node11</title>
<g id="a_node11"><a xlink:href="MeshTypes_8hpp.html" target="_top" xlink:title="Core/Mesh/MeshTypes.hpp">
<polygon fill="white" stroke="black" points="577.499,-292.5 577.499,-311.5 714.499,-311.5 714.499,-292.5 577.499,-292.5"/>
<text text-anchor="middle" x="645.999" y="-299.5" font-family="Helvetica,sans-Serif" font-size="10.00">Core/Mesh/MeshTypes.hpp</text>
</a>
</g>
</g>
<!-- Node1&#45;&gt;Node11 -->
<g id="edge11" class="edge"><title>Node1&#45;&gt;Node11</title>
<path fill="none" stroke="midnightblue" d="M920.985,-354.215C855.446,-342.009 761.218,-324.459 701.833,-313.399"/>
<polygon fill="midnightblue" stroke="midnightblue" points="702.36,-309.937 691.888,-311.547 701.079,-316.819 702.36,-309.937"/>
</g>
<!-- Node26 -->
<g id="node26" class="node"><title>Node26</title>
<g id="a_node26"><a xlink:href="HalfEdge_8inl.html" target="_top" xlink:title="Core/Mesh/HalfEdge.inl">
<polygon fill="white" stroke="black" points="1073.5,-292.5 1073.5,-311.5 1194.5,-311.5 1194.5,-292.5 1073.5,-292.5"/>
<text text-anchor="middle" x="1134" y="-299.5" font-family="Helvetica,sans-Serif" font-size="10.00">Core/Mesh/HalfEdge.inl</text>
</a>
</g>
</g>
<!-- Node1&#45;&gt;Node26 -->
<g id="edge30" class="edge"><title>Node1&#45;&gt;Node26</title>
<path fill="none" stroke="midnightblue" d="M1030.46,-348.498C1052.33,-337.861 1080.09,-325.001 1101.43,-315.67"/>
<polygon fill="midnightblue" stroke="midnightblue" points="1102.94,-318.83 1110.73,-311.652 1100.16,-312.403 1102.94,-318.83"/>
</g>
<!-- Node2&#45;&gt;Node3 -->
<g id="edge2" class="edge"><title>Node2&#45;&gt;Node3</title>
<path fill="none" stroke="midnightblue" d="M509.109,-112.444C560.405,-102.925 643.273,-87.5472 698.19,-77.3563"/>
<polygon fill="midnightblue" stroke="midnightblue" points="698.912,-80.7823 708.105,-75.5164 697.634,-73.8998 698.912,-80.7823"/>
</g>
<!-- Node4 -->
<g id="node4" class="node"><title>Node4</title>
<polygon fill="white" stroke="#bfbfbf" points="598.499,-0.5 598.499,-19.5 647.499,-19.5 647.499,-0.5 598.499,-0.5"/>
<text text-anchor="middle" x="622.999" y="-7.5" font-family="Helvetica,sans-Serif" font-size="10.00">cassert</text>
</g>
<!-- Node3&#45;&gt;Node4 -->
<g id="edge3" class="edge"><title>Node3&#45;&gt;Node4</title>
<path fill="none" stroke="midnightblue" d="M733.242,-56.4435C711.683,-47.5566 677.736,-33.5632 653.206,-23.4514"/>
<polygon fill="midnightblue" stroke="midnightblue" points="654.239,-20.0917 643.66,-19.5164 651.571,-26.5634 654.239,-20.0917"/>
</g>
<!-- Node5 -->
<g id="node5" class="node"><title>Node5</title>
<polygon fill="white" stroke="#bfbfbf" points="665.499,-0.5 665.499,-19.5 708.499,-19.5 708.499,-0.5 665.499,-0.5"/>
<text text-anchor="middle" x="686.999" y="-7.5" font-family="Helvetica,sans-Serif" font-size="10.00">cstdio</text>
</g>
<!-- Node3&#45;&gt;Node5 -->
<g id="edge4" class="edge"><title>Node3&#45;&gt;Node5</title>
<path fill="none" stroke="midnightblue" d="M743.235,-56.324C733.233,-48.2631 718.113,-36.0765 706.069,-26.3695"/>
<polygon fill="midnightblue" stroke="midnightblue" points="707.942,-23.3841 697.96,-19.8339 703.55,-28.8343 707.942,-23.3841"/>
</g>
<!-- Node6 -->
<g id="node6" class="node"><title>Node6</title>
<polygon fill="white" stroke="#bfbfbf" points="726.999,-0.5 726.999,-19.5 780.999,-19.5 780.999,-0.5 726.999,-0.5"/>
<text text-anchor="middle" x="753.999" y="-7.5" font-family="Helvetica,sans-Serif" font-size="10.00">iostream</text>
</g>
<!-- Node3&#45;&gt;Node6 -->
<g id="edge5" class="edge"><title>Node3&#45;&gt;Node6</title>
<path fill="none" stroke="midnightblue" d="M753.999,-56.083C753.999,-49.0059 753.999,-38.8611 753.999,-29.9865"/>
<polygon fill="midnightblue" stroke="midnightblue" points="757.499,-29.751 753.999,-19.7511 750.499,-29.7511 757.499,-29.751"/>
</g>
<!-- Node7 -->
<g id="node7" class="node"><title>Node7</title>
<polygon fill="white" stroke="#bfbfbf" points="798.999,-0.5 798.999,-19.5 850.999,-19.5 850.999,-0.5 798.999,-0.5"/>
<text text-anchor="middle" x="824.999" y="-7.5" font-family="Helvetica,sans-Serif" font-size="10.00">sstream</text>
</g>
<!-- Node3&#45;&gt;Node7 -->
<g id="edge6" class="edge"><title>Node3&#45;&gt;Node7</title>
<path fill="none" stroke="midnightblue" d="M765.407,-56.324C776.108,-48.1849 792.34,-35.8395 805.162,-26.0874"/>
<polygon fill="midnightblue" stroke="midnightblue" points="807.544,-28.6734 813.384,-19.8339 803.306,-23.1018 807.544,-28.6734"/>
</g>
<!-- Node8 -->
<g id="node8" class="node"><title>Node8</title>
<polygon fill="white" stroke="#bfbfbf" points="868.999,-0.5 868.999,-19.5 912.999,-19.5 912.999,-0.5 868.999,-0.5"/>
<text text-anchor="middle" x="890.999" y="-7.5" font-family="Helvetica,sans-Serif" font-size="10.00">thread</text>
</g>
<!-- Node3&#45;&gt;Node8 -->
<g id="edge7" class="edge"><title>Node3&#45;&gt;Node8</title>
<path fill="none" stroke="midnightblue" d="M775.707,-56.4435C798.354,-47.5171 834.071,-33.4387 859.751,-23.3168"/>
<polygon fill="midnightblue" stroke="midnightblue" points="861.373,-26.4397 869.393,-19.5164 858.806,-19.9273 861.373,-26.4397"/>
</g>
<!-- Node11&#45;&gt;Node2 -->
<g id="edge29" class="edge"><title>Node11&#45;&gt;Node2</title>
<path fill="none" stroke="midnightblue" d="M577.231,-300.67C429.296,-298.347 88.4248,-283.809 16.9993,-200 7.77428,-189.175 7.46083,-178.549 16.9993,-168 42.6229,-139.661 291.36,-128.32 405.848,-124.574"/>
<polygon fill="midnightblue" stroke="midnightblue" points="406.283,-128.062 416.167,-124.246 406.06,-121.066 406.283,-128.062"/>
</g>
<!-- Node12 -->
<g id="node12" class="node"><title>Node12</title>
<g id="a_node12"><a xlink:href="Index_8hpp.html" target="_top" xlink:title="Core/Index/Index.hpp">
<polygon fill="white" stroke="black" points="851.999,-236.5 851.999,-255.5 961.999,-255.5 961.999,-236.5 851.999,-236.5"/>
<text text-anchor="middle" x="906.999" y="-243.5" font-family="Helvetica,sans-Serif" font-size="10.00">Core/Index/Index.hpp</text>
</a>
</g>
</g>
<!-- Node11&#45;&gt;Node12 -->
<g id="edge12" class="edge"><title>Node11&#45;&gt;Node12</title>
<path fill="none" stroke="midnightblue" d="M687.356,-292.444C733.077,-282.984 806.764,-267.738 856.021,-257.547"/>
<polygon fill="midnightblue" stroke="midnightblue" points="856.753,-260.97 865.837,-255.516 855.335,-254.115 856.753,-260.97"/>
</g>
<!-- Node15 -->
<g id="node15" class="node"><title>Node15</title>
<g id="a_node15"><a xlink:href="LinearAlgebra_8hpp.html" target="_top" xlink:title="Core/Math/LinearAlgebra.hpp">
<polygon fill="white" stroke="black" points="391.499,-236.5 391.499,-255.5 534.499,-255.5 534.499,-236.5 391.499,-236.5"/>
<text text-anchor="middle" x="462.999" y="-243.5" font-family="Helvetica,sans-Serif" font-size="10.00">Core/Math/LinearAlgebra.hpp</text>
</a>
</g>
</g>
<!-- Node11&#45;&gt;Node15 -->
<g id="edge15" class="edge"><title>Node11&#45;&gt;Node15</title>
<path fill="none" stroke="midnightblue" d="M617.002,-292.444C585.815,-283.241 536.069,-268.562 501.592,-258.388"/>
<polygon fill="midnightblue" stroke="midnightblue" points="502.442,-254.99 491.861,-255.516 500.461,-261.704 502.442,-254.99"/>
</g>
<!-- Node13 -->
<g id="node13" class="node"><title>Node13</title>
<polygon fill="white" stroke="#bfbfbf" points="976.999,-174.5 976.999,-193.5 1017,-193.5 1017,-174.5 976.999,-174.5"/>
<text text-anchor="middle" x="996.999" y="-181.5" font-family="Helvetica,sans-Serif" font-size="10.00">limits</text>
</g>
<!-- Node12&#45;&gt;Node13 -->
<g id="edge13" class="edge"><title>Node12&#45;&gt;Node13</title>
<path fill="none" stroke="midnightblue" d="M919.894,-236.403C934.464,-226.691 958.401,-210.732 975.745,-199.17"/>
<polygon fill="midnightblue" stroke="midnightblue" points="977.749,-202.04 984.128,-193.581 973.866,-196.215 977.749,-202.04"/>
</g>
<!-- Node14 -->
<g id="node14" class="node"><title>Node14</title>
<g id="a_node14"><a xlink:href="Index_8inl.html" target="_top" xlink:title="Core/Index/Index.inl">
<polygon fill="white" stroke="black" points="854.999,-174.5 854.999,-193.5 958.999,-193.5 958.999,-174.5 854.999,-174.5"/>
<text text-anchor="middle" x="906.999" y="-181.5" font-family="Helvetica,sans-Serif" font-size="10.00">Core/Index/Index.inl</text>
</a>
</g>
</g>
<!-- Node12&#45;&gt;Node14 -->
<g id="edge14" class="edge"><title>Node12&#45;&gt;Node14</title>
<path fill="none" stroke="midnightblue" d="M906.999,-236.403C906.999,-227.938 906.999,-214.728 906.999,-203.82"/>
<polygon fill="midnightblue" stroke="midnightblue" points="910.499,-203.581 906.999,-193.581 903.499,-203.581 910.499,-203.581"/>
</g>
<!-- Node15&#45;&gt;Node2 -->
<g id="edge16" class="edge"><title>Node15&#45;&gt;Node2</title>
<path fill="none" stroke="midnightblue" d="M462.999,-236.226C462.999,-216.53 462.999,-168.437 462.999,-141.7"/>
<polygon fill="midnightblue" stroke="midnightblue" points="466.499,-141.694 462.999,-131.694 459.499,-141.694 466.499,-141.694"/>
</g>
<!-- Node16 -->
<g id="node16" class="node"><title>Node16</title>
<polygon fill="white" stroke="#bfbfbf" points="771.499,-174.5 771.499,-193.5 836.499,-193.5 836.499,-174.5 771.499,-174.5"/>
<text text-anchor="middle" x="803.999" y="-181.5" font-family="Helvetica,sans-Serif" font-size="10.00">Eigen/Core</text>
</g>
<!-- Node15&#45;&gt;Node16 -->
<g id="edge17" class="edge"><title>Node15&#45;&gt;Node16</title>
<path fill="none" stroke="midnightblue" d="M534.779,-237.947C595.6,-231.073 684.817,-218.866 760.999,-200 764.669,-199.091 768.467,-197.999 772.219,-196.823"/>
<polygon fill="midnightblue" stroke="midnightblue" points="773.542,-200.071 781.919,-193.584 771.325,-193.431 773.542,-200.071"/>
</g>
<!-- Node17 -->
<g id="node17" class="node"><title>Node17</title>
<polygon fill="white" stroke="#bfbfbf" points="26.4993,-174.5 26.4993,-193.5 113.499,-193.5 113.499,-174.5 26.4993,-174.5"/>
<text text-anchor="middle" x="69.9993" y="-181.5" font-family="Helvetica,sans-Serif" font-size="10.00">Eigen/Geometry</text>
</g>
<!-- Node15&#45;&gt;Node17 -->
<g id="edge18" class="edge"><title>Node15&#45;&gt;Node17</title>
<path fill="none" stroke="midnightblue" d="M391.286,-238.686C321.917,-231.839 214.061,-219.24 121.999,-200 116.955,-198.946 111.686,-197.655 106.519,-196.277"/>
<polygon fill="midnightblue" stroke="midnightblue" points="107.369,-192.881 96.796,-193.56 105.485,-199.622 107.369,-192.881"/>
</g>
<!-- Node18 -->
<g id="node18" class="node"><title>Node18</title>
<polygon fill="white" stroke="#bfbfbf" points="131.499,-174.5 131.499,-193.5 206.499,-193.5 206.499,-174.5 131.499,-174.5"/>
<text text-anchor="middle" x="168.999" y="-181.5" font-family="Helvetica,sans-Serif" font-size="10.00">Eigen/Sparse</text>
</g>
<!-- Node15&#45;&gt;Node18 -->
<g id="edge19" class="edge"><title>Node15&#45;&gt;Node18</title>
<path fill="none" stroke="midnightblue" d="M403.133,-236.471C352.598,-228.716 278.533,-216.044 214.999,-200 211.08,-199.01 207.008,-197.862 202.981,-196.651"/>
<polygon fill="midnightblue" stroke="midnightblue" points="203.759,-193.227 193.17,-193.563 201.658,-199.904 203.759,-193.227"/>
</g>
<!-- Node19 -->
<g id="node19" class="node"><title>Node19</title>
<polygon fill="white" stroke="#bfbfbf" points="224.499,-174.5 224.499,-193.5 283.499,-193.5 283.499,-174.5 224.499,-174.5"/>
<text text-anchor="middle" x="253.999" y="-181.5" font-family="Helvetica,sans-Serif" font-size="10.00">functional</text>
</g>
<!-- Node15&#45;&gt;Node19 -->
<g id="edge20" class="edge"><title>Node15&#45;&gt;Node19</title>
<path fill="none" stroke="midnightblue" d="M425.265,-236.432C390.366,-228.187 337.216,-214.816 291.999,-200 289.373,-199.139 286.665,-198.193 283.963,-197.207"/>
<polygon fill="midnightblue" stroke="midnightblue" points="284.938,-193.834 274.347,-193.546 282.447,-200.376 284.938,-193.834"/>
</g>
<!-- Node20 -->
<g id="node20" class="node"><title>Node20</title>
<polygon fill="white" stroke="#bfbfbf" points="301.499,-169 301.499,-199 434.499,-199 434.499,-169 301.499,-169"/>
<text text-anchor="start" x="309.499" y="-187" font-family="Helvetica,sans-Serif" font-size="10.00">unsupported/Eigen/Aligned</text>
<text text-anchor="middle" x="367.999" y="-176" font-family="Helvetica,sans-Serif" font-size="10.00">Vector3</text>
</g>
<!-- Node15&#45;&gt;Node20 -->
<g id="edge21" class="edge"><title>Node15&#45;&gt;Node20</title>
<path fill="none" stroke="midnightblue" d="M449.388,-236.403C436.281,-228.125 415.991,-215.311 398.949,-204.547"/>
<polygon fill="midnightblue" stroke="midnightblue" points="400.713,-201.522 390.389,-199.141 396.975,-207.44 400.713,-201.522"/>
</g>
<!-- Node21 -->
<g id="node21" class="node"><title>Node21</title>
<g id="a_node21"><a xlink:href="Math_8hpp.html" target="_top" xlink:title="Core/Math/Math.hpp">
<polygon fill="white" stroke="black" points="646.999,-174.5 646.999,-193.5 752.999,-193.5 752.999,-174.5 646.999,-174.5"/>
<text text-anchor="middle" x="699.999" y="-181.5" font-family="Helvetica,sans-Serif" font-size="10.00">Core/Math/Math.hpp</text>
</a>
</g>
</g>
<!-- Node15&#45;&gt;Node21 -->
<g id="edge22" class="edge"><title>Node15&#45;&gt;Node21</title>
<path fill="none" stroke="midnightblue" d="M496.704,-236.467C538.732,-225.827 610.644,-207.622 656.71,-195.959"/>
<polygon fill="midnightblue" stroke="midnightblue" points="657.576,-199.351 666.411,-193.503 655.858,-192.565 657.576,-199.351"/>
</g>
<!-- Node25 -->
<g id="node25" class="node"><title>Node25</title>
<g id="a_node25"><a xlink:href="LinearAlgebra_8inl.html" target="_top" xlink:title="Core/Math/LinearAlgebra.inl">
<polygon fill="white" stroke="black" points="491.499,-174.5 491.499,-193.5 628.499,-193.5 628.499,-174.5 491.499,-174.5"/>
<text text-anchor="middle" x="559.999" y="-181.5" font-family="Helvetica,sans-Serif" font-size="10.00">Core/Math/LinearAlgebra.inl</text>
</a>
</g>
</g>
<!-- Node15&#45;&gt;Node25 -->
<g id="edge28" class="edge"><title>Node15&#45;&gt;Node25</title>
<path fill="none" stroke="midnightblue" d="M476.897,-236.403C492.744,-226.601 518.874,-210.439 537.604,-198.853"/>
<polygon fill="midnightblue" stroke="midnightblue" points="539.464,-201.818 546.127,-193.581 535.782,-195.865 539.464,-201.818"/>
</g>
<!-- Node21&#45;&gt;Node2 -->
<g id="edge23" class="edge"><title>Node21&#45;&gt;Node2</title>
<path fill="none" stroke="midnightblue" d="M666.295,-174.467C624.267,-163.827 552.354,-145.622 506.289,-133.959"/>
<polygon fill="midnightblue" stroke="midnightblue" points="507.141,-130.565 496.588,-131.503 505.423,-137.351 507.141,-130.565"/>
</g>
<!-- Node22 -->
<g id="node22" class="node"><title>Node22</title>
<polygon fill="white" stroke="#bfbfbf" points="767.999,-112.5 767.999,-131.5 823.999,-131.5 823.999,-112.5 767.999,-112.5"/>
<text text-anchor="middle" x="795.999" y="-119.5" font-family="Helvetica,sans-Serif" font-size="10.00">algorithm</text>
</g>
<!-- Node21&#45;&gt;Node22 -->
<g id="edge24" class="edge"><title>Node21&#45;&gt;Node22</title>
<path fill="none" stroke="midnightblue" d="M713.754,-174.403C729.366,-164.646 755.063,-148.585 773.582,-137.011"/>
<polygon fill="midnightblue" stroke="midnightblue" points="775.645,-139.849 782.27,-131.581 771.935,-133.913 775.645,-139.849"/>
</g>
<!-- Node23 -->
<g id="node23" class="node"><title>Node23</title>
<polygon fill="white" stroke="#bfbfbf" points="587.999,-112.5 587.999,-131.5 631.999,-131.5 631.999,-112.5 587.999,-112.5"/>
<text text-anchor="middle" x="609.999" y="-119.5" font-family="Helvetica,sans-Serif" font-size="10.00">cmath</text>
</g>
<!-- Node21&#45;&gt;Node23 -->
<g id="edge25" class="edge"><title>Node21&#45;&gt;Node23</title>
<path fill="none" stroke="midnightblue" d="M687.105,-174.403C672.535,-164.691 648.597,-148.732 631.254,-137.17"/>
<polygon fill="midnightblue" stroke="midnightblue" points="633.132,-134.215 622.87,-131.581 629.249,-140.04 633.132,-134.215"/>
</g>
<!-- Node24 -->
<g id="node24" class="node"><title>Node24</title>
<g id="a_node24"><a xlink:href="Math_8inl.html" target="_top" xlink:title="Core/Math/Math.inl">
<polygon fill="white" stroke="black" points="649.999,-112.5 649.999,-131.5 749.999,-131.5 749.999,-112.5 649.999,-112.5"/>
<text text-anchor="middle" x="699.999" y="-119.5" font-family="Helvetica,sans-Serif" font-size="10.00">Core/Math/Math.inl</text>
</a>
</g>
</g>
<!-- Node21&#45;&gt;Node24 -->
<g id="edge26" class="edge"><title>Node21&#45;&gt;Node24</title>
<path fill="none" stroke="midnightblue" d="M695.099,-174.403C693.268,-165.938 692.796,-152.728 693.684,-141.82"/>
<polygon fill="midnightblue" stroke="midnightblue" points="697.198,-141.966 695.102,-131.581 690.264,-141.006 697.198,-141.966"/>
</g>
<!-- Node24&#45;&gt;Node21 -->
<g id="edge27" class="edge"><title>Node24&#45;&gt;Node21</title>
<path fill="none" stroke="midnightblue" d="M704.896,-131.581C706.729,-140.04 707.202,-153.248 706.316,-164.16"/>
<polygon fill="midnightblue" stroke="midnightblue" points="702.802,-164.018 704.9,-174.403 709.736,-164.977 702.802,-164.018"/>
</g>
<!-- Node26&#45;&gt;Node1 -->
<g id="edge31" class="edge"><title>Node26&#45;&gt;Node1</title>
<path fill="none" stroke="midnightblue" d="M1120.26,-311.652C1104.28,-319.95 1077.27,-332.859 1052.36,-344.228"/>
<polygon fill="midnightblue" stroke="midnightblue" points="1050.61,-341.18 1042.95,-348.498 1053.5,-347.555 1050.61,-341.18"/>
</g>
</g>
</svg>
