<?xml version="1.0" encoding="UTF-8" standalone="no"?>
<!DOCTYPE svg PUBLIC "-//W3C//DTD SVG 1.1//EN"
 "http://www.w3.org/Graphics/SVG/1.1/DTD/svg11.dtd">
<!-- Generated by graphviz version 2.36.0 (20140111.2315)
 -->
<!-- Title: /home/travis/build/STORM&#45;IRIT/Radium&#45;Engine/src/Core/Mesh/HalfEdge.cpp Pages: 1 -->
<svg width="2232pt" height="522pt"
 viewBox="0.00 0.00 2232.00 522.00" xmlns="http://www.w3.org/2000/svg" xmlns:xlink="http://www.w3.org/1999/xlink">
<g id="graph0" class="graph" transform="scale(1 1) rotate(0) translate(4 518)">
<title>/home/travis/build/STORM&#45;IRIT/Radium&#45;Engine/src/Core/Mesh/HalfEdge.cpp</title>
<polygon fill="white" stroke="none" points="-4,4 -4,-518 2228,-518 2228,4 -4,4"/>
<!-- Node1 -->
<g id="node1" class="node"><title>Node1</title>
<polygon fill="#bfbfbf" stroke="black" points="1110,-472.5 1110,-513.5 1258,-513.5 1258,-472.5 1110,-472.5"/>
<text text-anchor="start" x="1118" y="-501.5" font-family="Helvetica,sans-Serif" font-size="10.00">/home/travis/build</text>
<text text-anchor="start" x="1118" y="-490.5" font-family="Helvetica,sans-Serif" font-size="10.00">/STORM&#45;IRIT/Radium&#45;Engine</text>
<text text-anchor="middle" x="1184" y="-479.5" font-family="Helvetica,sans-Serif" font-size="10.00">/src/Core/Mesh/HalfEdge.cpp</text>
</g>
<!-- Node2 -->
<g id="node2" class="node"><title>Node2</title>
<g id="a_node2"><a xlink:href="HalfEdge_8hpp.html" target="_top" xlink:title="Core/Mesh/HalfEdge.hpp">
<polygon fill="white" stroke="black" points="136.5,-360.5 136.5,-379.5 263.5,-379.5 263.5,-360.5 136.5,-360.5"/>
<text text-anchor="middle" x="200" y="-367.5" font-family="Helvetica,sans-Serif" font-size="10.00">Core/Mesh/HalfEdge.hpp</text>
</a>
</g>
</g>
<!-- Node1&#45;&gt;Node2 -->
<g id="edge1" class="edge"><title>Node1&#45;&gt;Node2</title>
<path fill="none" stroke="midnightblue" d="M1109.64,-482.856C926.618,-460.35 456.021,-402.482 273.7,-380.063"/>
<polygon fill="midnightblue" stroke="midnightblue" points="274.025,-376.576 263.672,-378.83 273.17,-383.524 274.025,-376.576"/>
</g>
<!-- Node28 -->
<g id="node28" class="node"><title>Node28</title>
<g id="a_node28"><a xlink:href="TriangleMesh_8hpp.html" target="_top" xlink:title="Core/Mesh/TriangleMesh.hpp">
<polygon fill="white" stroke="black" points="1111.5,-416.5 1111.5,-435.5 1256.5,-435.5 1256.5,-416.5 1111.5,-416.5"/>
<text text-anchor="middle" x="1184" y="-423.5" font-family="Helvetica,sans-Serif" font-size="10.00">Core/Mesh/TriangleMesh.hpp</text>
</a>
</g>
</g>
<!-- Node1&#45;&gt;Node28 -->
<g id="edge33" class="edge"><title>Node1&#45;&gt;Node28</title>
<path fill="none" stroke="midnightblue" d="M1184,-472.498C1184,-464.065 1184,-454.235 1184,-445.874"/>
<polygon fill="midnightblue" stroke="midnightblue" points="1187.5,-445.652 1184,-435.652 1180.5,-445.653 1187.5,-445.652"/>
</g>
<!-- Node43 -->
<g id="node43" class="node"><title>Node43</title>
<polygon fill="white" stroke="#bfbfbf" points="1274.5,-416.5 1274.5,-435.5 1309.5,-435.5 1309.5,-416.5 1274.5,-416.5"/>
<text text-anchor="middle" x="1292" y="-423.5" font-family="Helvetica,sans-Serif" font-size="10.00">map</text>
</g>
<!-- Node1&#45;&gt;Node43 -->
<g id="edge68" class="edge"><title>Node1&#45;&gt;Node43</title>
<path fill="none" stroke="midnightblue" d="M1216.4,-472.498C1233.28,-462.34 1253.53,-450.155 1268.82,-440.952"/>
<polygon fill="midnightblue" stroke="midnightblue" points="1270.86,-443.808 1277.62,-435.652 1267.25,-437.81 1270.86,-443.808"/>
</g>
<!-- Node3 -->
<g id="node3" class="node"><title>Node3</title>
<g id="a_node3"><a xlink:href="RaCore_8hpp.html" target="_top" xlink:title="Core/RaCore.hpp">
<polygon fill="white" stroke="black" points="1182.5,-112.5 1182.5,-131.5 1275.5,-131.5 1275.5,-112.5 1182.5,-112.5"/>
<text text-anchor="middle" x="1229" y="-119.5" font-family="Helvetica,sans-Serif" font-size="10.00">Core/RaCore.hpp</text>
</a>
</g>
</g>
<!-- Node2&#45;&gt;Node3 -->
<g id="edge2" class="edge"><title>Node2&#45;&gt;Node3</title>
<path fill="none" stroke="midnightblue" d="M205.447,-360.339C210.808,-351.494 218.911,-337.221 224,-324 249.675,-257.304 207.708,-213.281 263,-168 298.309,-139.084 970.723,-126.822 1172.34,-123.786"/>
<polygon fill="midnightblue" stroke="midnightblue" points="1172.47,-127.285 1182.42,-123.636 1172.37,-120.285 1172.47,-127.285"/>
</g>
<!-- Node4 -->
<g id="node4" class="node"><title>Node4</title>
<g id="a_node4"><a xlink:href="CoreMacros_8hpp.html" target="_top" xlink:title="Core/CoreMacros.hpp">
<polygon fill="white" stroke="black" points="1172.5,-56.5 1172.5,-75.5 1285.5,-75.5 1285.5,-56.5 1172.5,-56.5"/>
<text text-anchor="middle" x="1229" y="-63.5" font-family="Helvetica,sans-Serif" font-size="10.00">Core/CoreMacros.hpp</text>
</a>
</g>
</g>
<!-- Node2&#45;&gt;Node4 -->
<g id="edge11" class="edge"><title>Node2&#45;&gt;Node4</title>
<path fill="none" stroke="midnightblue" d="M151.058,-360.47C128.052,-354.078 102.007,-343.018 85,-324 63.2248,-299.65 66,-285.666 66,-253 66,-253 66,-253 66,-183 66,-150.334 59.4835,-132.395 85,-112 127.215,-78.2574 923.597,-69.3677 1162.08,-67.4574"/>
<polygon fill="midnightblue" stroke="midnightblue" points="1162.37,-70.9554 1172.34,-67.3768 1162.31,-63.9556 1162.37,-70.9554"/>
</g>
<!-- Node10 -->
<g id="node10" class="node"><title>Node10</title>
<polygon fill="white" stroke="#bfbfbf" points="0,-304.5 0,-323.5 38,-323.5 38,-304.5 0,-304.5"/>
<text text-anchor="middle" x="19" y="-311.5" font-family="Helvetica,sans-Serif" font-size="10.00">array</text>
</g>
<!-- Node2&#45;&gt;Node10 -->
<g id="edge9" class="edge"><title>Node2&#45;&gt;Node10</title>
<path fill="none" stroke="midnightblue" d="M171.32,-360.444C137.534,-350.364 81.7291,-333.715 47.8636,-323.611"/>
<polygon fill="midnightblue" stroke="midnightblue" points="48.69,-320.205 38.1067,-320.7 46.6887,-326.913 48.69,-320.205"/>
</g>
<!-- Node11 -->
<g id="node11" class="node"><title>Node11</title>
<polygon fill="white" stroke="#bfbfbf" points="1013,-174.5 1013,-193.5 1057,-193.5 1057,-174.5 1013,-174.5"/>
<text text-anchor="middle" x="1035" y="-181.5" font-family="Helvetica,sans-Serif" font-size="10.00">vector</text>
</g>
<!-- Node2&#45;&gt;Node11 -->
<g id="edge10" class="edge"><title>Node2&#45;&gt;Node11</title>
<path fill="none" stroke="midnightblue" d="M263.623,-362.917C376.677,-351.159 619.367,-321.62 818,-268 887.972,-249.112 966.624,-215.848 1007.3,-197.695"/>
<polygon fill="midnightblue" stroke="midnightblue" points="1008.88,-200.823 1016.56,-193.529 1006,-194.439 1008.88,-200.823"/>
</g>
<!-- Node12 -->
<g id="node12" class="node"><title>Node12</title>
<g id="a_node12"><a xlink:href="MeshTypes_8hpp.html" target="_top" xlink:title="Core/Mesh/MeshTypes.hpp">
<polygon fill="white" stroke="black" points="906.5,-304.5 906.5,-323.5 1043.5,-323.5 1043.5,-304.5 906.5,-304.5"/>
<text text-anchor="middle" x="975" y="-311.5" font-family="Helvetica,sans-Serif" font-size="10.00">Core/Mesh/MeshTypes.hpp</text>
</a>
</g>
</g>
<!-- Node2&#45;&gt;Node12 -->
<g id="edge12" class="edge"><title>Node2&#45;&gt;Node12</title>
<path fill="none" stroke="midnightblue" d="M263.946,-365.023C382.771,-357.557 645.66,-340.688 867,-324 876.469,-323.286 886.402,-322.504 896.248,-321.708"/>
<polygon fill="midnightblue" stroke="midnightblue" points="896.771,-325.177 906.454,-320.876 896.202,-318.2 896.771,-325.177"/>
</g>
<!-- Node27 -->
<g id="node27" class="node"><title>Node27</title>
<g id="a_node27"><a xlink:href="HalfEdge_8inl.html" target="_top" xlink:title="Core/Mesh/HalfEdge.inl">
<polygon fill="white" stroke="black" points="94.5,-304.5 94.5,-323.5 215.5,-323.5 215.5,-304.5 94.5,-304.5"/>
<text text-anchor="middle" x="155" y="-311.5" font-family="Helvetica,sans-Serif" font-size="10.00">Core/Mesh/HalfEdge.inl</text>
</a>
</g>
</g>
<!-- Node2&#45;&gt;Node27 -->
<g id="edge31" class="edge"><title>Node2&#45;&gt;Node27</title>
<path fill="none" stroke="midnightblue" d="M187.655,-360.324C179.685,-352.733 169.906,-341.482 162.913,-332.09"/>
<polygon fill="midnightblue" stroke="midnightblue" points="165.775,-330.074 157.213,-323.834 160.014,-334.052 165.775,-330.074"/>
</g>
<!-- Node3&#45;&gt;Node4 -->
<g id="edge3" class="edge"><title>Node3&#45;&gt;Node4</title>
<path fill="none" stroke="midnightblue" d="M1229,-112.083C1229,-105.006 1229,-94.8611 1229,-85.9865"/>
<polygon fill="midnightblue" stroke="midnightblue" points="1232.5,-85.751 1229,-75.7511 1225.5,-85.7511 1232.5,-85.751"/>
</g>
<!-- Node5 -->
<g id="node5" class="node"><title>Node5</title>
<polygon fill="white" stroke="#bfbfbf" points="1303.5,-0.5 1303.5,-19.5 1352.5,-19.5 1352.5,-0.5 1303.5,-0.5"/>
<text text-anchor="middle" x="1328" y="-7.5" font-family="Helvetica,sans-Serif" font-size="10.00">cassert</text>
</g>
<!-- Node4&#45;&gt;Node5 -->
<g id="edge4" class="edge"><title>Node4&#45;&gt;Node5</title>
<path fill="none" stroke="midnightblue" d="M1244.91,-56.324C1260.64,-47.7428 1284.94,-34.486 1303.21,-24.5224"/>
<polygon fill="midnightblue" stroke="midnightblue" points="1305.03,-27.5157 1312.13,-19.6545 1301.68,-21.3704 1305.03,-27.5157"/>
</g>
<!-- Node6 -->
<g id="node6" class="node"><title>Node6</title>
<polygon fill="white" stroke="#bfbfbf" points="1107.5,-0.5 1107.5,-19.5 1150.5,-19.5 1150.5,-0.5 1107.5,-0.5"/>
<text text-anchor="middle" x="1129" y="-7.5" font-family="Helvetica,sans-Serif" font-size="10.00">cstdio</text>
</g>
<!-- Node4&#45;&gt;Node6 -->
<g id="edge5" class="edge"><title>Node4&#45;&gt;Node6</title>
<path fill="none" stroke="midnightblue" d="M1212.93,-56.324C1197.04,-47.7428 1172.49,-34.486 1154.04,-24.5224"/>
<polygon fill="midnightblue" stroke="midnightblue" points="1155.49,-21.3264 1145.03,-19.6545 1152.16,-27.4857 1155.49,-21.3264"/>
</g>
<!-- Node7 -->
<g id="node7" class="node"><title>Node7</title>
<polygon fill="white" stroke="#bfbfbf" points="1169,-0.5 1169,-19.5 1223,-19.5 1223,-0.5 1169,-0.5"/>
<text text-anchor="middle" x="1196" y="-7.5" font-family="Helvetica,sans-Serif" font-size="10.00">iostream</text>
</g>
<!-- Node4&#45;&gt;Node7 -->
<g id="edge6" class="edge"><title>Node4&#45;&gt;Node7</title>
<path fill="none" stroke="midnightblue" d="M1223.55,-56.083C1218.99,-48.6127 1212.33,-37.7244 1206.71,-28.5199"/>
<polygon fill="midnightblue" stroke="midnightblue" points="1209.55,-26.4588 1201.35,-19.7511 1203.58,-30.109 1209.55,-26.4588"/>
</g>
<!-- Node8 -->
<g id="node8" class="node"><title>Node8</title>
<polygon fill="white" stroke="#bfbfbf" points="1749,-0.5 1749,-19.5 1801,-19.5 1801,-0.5 1749,-0.5"/>
<text text-anchor="middle" x="1775" y="-7.5" font-family="Helvetica,sans-Serif" font-size="10.00">sstream</text>
</g>
<!-- Node4&#45;&gt;Node8 -->
<g id="edge7" class="edge"><title>Node4&#45;&gt;Node8</title>
<path fill="none" stroke="midnightblue" d="M1285.63,-59.3992C1397.92,-48.2932 1645.97,-23.7609 1738.9,-14.5699"/>
<polygon fill="midnightblue" stroke="midnightblue" points="1739.33,-18.0446 1748.94,-13.5772 1738.65,-11.0785 1739.33,-18.0446"/>
</g>
<!-- Node9 -->
<g id="node9" class="node"><title>Node9</title>
<polygon fill="white" stroke="#bfbfbf" points="1241,-0.5 1241,-19.5 1285,-19.5 1285,-0.5 1241,-0.5"/>
<text text-anchor="middle" x="1263" y="-7.5" font-family="Helvetica,sans-Serif" font-size="10.00">thread</text>
</g>
<!-- Node4&#45;&gt;Node9 -->
<g id="edge8" class="edge"><title>Node4&#45;&gt;Node9</title>
<path fill="none" stroke="midnightblue" d="M1234.61,-56.083C1239.37,-48.5341 1246.32,-37.4948 1252.15,-28.2298"/>
<polygon fill="midnightblue" stroke="midnightblue" points="1255.12,-30.0783 1257.49,-19.7511 1249.2,-26.3486 1255.12,-30.0783"/>
</g>
<!-- Node12&#45;&gt;Node3 -->
<g id="edge30" class="edge"><title>Node12&#45;&gt;Node3</title>
<path fill="none" stroke="midnightblue" d="M973.78,-304.33C970.786,-279.272 965.879,-206.121 1004,-168 1027.15,-144.848 1113.34,-132.875 1172.07,-127.27"/>
<polygon fill="midnightblue" stroke="midnightblue" points="1172.69,-130.727 1182.33,-126.328 1172.05,-123.757 1172.69,-130.727"/>
</g>
<!-- Node13 -->
<g id="node13" class="node"><title>Node13</title>
<g id="a_node13"><a xlink:href="Index_8hpp.html" target="_top" xlink:title="Core/Index/Index.hpp">
<polygon fill="white" stroke="black" points="1283,-242.5 1283,-261.5 1393,-261.5 1393,-242.5 1283,-242.5"/>
<text text-anchor="middle" x="1338" y="-249.5" font-family="Helvetica,sans-Serif" font-size="10.00">Core/Index/Index.hpp</text>
</a>
</g>
</g>
<!-- Node12&#45;&gt;Node13 -->
<g id="edge13" class="edge"><title>Node12&#45;&gt;Node13</title>
<path fill="none" stroke="midnightblue" d="M1026.62,-304.467C1092.48,-293.582 1206.24,-274.778 1276.51,-263.163"/>
<polygon fill="midnightblue" stroke="midnightblue" points="1277.26,-266.587 1286.55,-261.503 1276.12,-259.681 1277.26,-266.587"/>
</g>
<!-- Node16 -->
<g id="node16" class="node"><title>Node16</title>
<g id="a_node16"><a xlink:href="LinearAlgebra_8hpp.html" target="_top" xlink:title="Core/Math/LinearAlgebra.hpp">
<polygon fill="white" stroke="black" points="666.5,-242.5 666.5,-261.5 809.5,-261.5 809.5,-242.5 666.5,-242.5"/>
<text text-anchor="middle" x="738" y="-249.5" font-family="Helvetica,sans-Serif" font-size="10.00">Core/Math/LinearAlgebra.hpp</text>
</a>
</g>
</g>
<!-- Node12&#45;&gt;Node16 -->
<g id="edge16" class="edge"><title>Node12&#45;&gt;Node16</title>
<path fill="none" stroke="midnightblue" d="M941.295,-304.467C899.267,-293.827 827.355,-275.622 781.289,-263.959"/>
<polygon fill="midnightblue" stroke="midnightblue" points="782.142,-260.565 771.588,-261.503 780.424,-267.351 782.142,-260.565"/>
</g>
<!-- Node14 -->
<g id="node14" class="node"><title>Node14</title>
<polygon fill="white" stroke="#bfbfbf" points="1379,-174.5 1379,-193.5 1419,-193.5 1419,-174.5 1379,-174.5"/>
<text text-anchor="middle" x="1399" y="-181.5" font-family="Helvetica,sans-Serif" font-size="10.00">limits</text>
</g>
<!-- Node13&#45;&gt;Node14 -->
<g id="edge14" class="edge"><title>Node13&#45;&gt;Node14</title>
<path fill="none" stroke="midnightblue" d="M1345.97,-242.372C1355.6,-231.955 1372,-214.217 1384.01,-201.216"/>
<polygon fill="midnightblue" stroke="midnightblue" points="1386.61,-203.561 1390.83,-193.841 1381.47,-198.809 1386.61,-203.561"/>
</g>
<!-- Node15 -->
<g id="node15" class="node"><title>Node15</title>
<g id="a_node15"><a xlink:href="Index_8inl.html" target="_top" xlink:title="Core/Index/Index.inl">
<polygon fill="white" stroke="black" points="1257,-174.5 1257,-193.5 1361,-193.5 1361,-174.5 1257,-174.5"/>
<text text-anchor="middle" x="1309" y="-181.5" font-family="Helvetica,sans-Serif" font-size="10.00">Core/Index/Index.inl</text>
</a>
</g>
</g>
<!-- Node13&#45;&gt;Node15 -->
<g id="edge15" class="edge"><title>Node13&#45;&gt;Node15</title>
<path fill="none" stroke="midnightblue" d="M1334.21,-242.372C1329.85,-232.446 1322.57,-215.874 1316.95,-203.086"/>
<polygon fill="midnightblue" stroke="midnightblue" points="1320.11,-201.588 1312.88,-193.841 1313.7,-204.404 1320.11,-201.588"/>
</g>
<!-- Node16&#45;&gt;Node3 -->
<g id="edge17" class="edge"><title>Node16&#45;&gt;Node3</title>
<path fill="none" stroke="midnightblue" d="M789.116,-242.464C828.192,-234.709 882.698,-221.192 927,-200 948.813,-189.566 948.735,-177.433 971,-168 1036.68,-140.173 1118.76,-129.552 1172.47,-125.499"/>
<polygon fill="midnightblue" stroke="midnightblue" points="1172.75,-128.988 1182.48,-124.795 1172.26,-122.005 1172.75,-128.988"/>
</g>
<!-- Node17 -->
<g id="node17" class="node"><title>Node17</title>
<polygon fill="white" stroke="#bfbfbf" points="427.5,-174.5 427.5,-193.5 492.5,-193.5 492.5,-174.5 427.5,-174.5"/>
<text text-anchor="middle" x="460" y="-181.5" font-family="Helvetica,sans-Serif" font-size="10.00">Eigen/Core</text>
</g>
<!-- Node16&#45;&gt;Node17 -->
<g id="edge18" class="edge"><title>Node16&#45;&gt;Node17</title>
<path fill="none" stroke="midnightblue" d="M688.483,-242.418C640.189,-233.563 564.884,-218.463 501,-200 497.796,-199.074 494.482,-198.023 491.191,-196.918"/>
<polygon fill="midnightblue" stroke="midnightblue" points="492.113,-193.532 481.518,-193.509 489.786,-200.134 492.113,-193.532"/>
</g>
<!-- Node18 -->
<g id="node18" class="node"><title>Node18</title>
<polygon fill="white" stroke="#bfbfbf" points="510.5,-174.5 510.5,-193.5 597.5,-193.5 597.5,-174.5 510.5,-174.5"/>
<text text-anchor="middle" x="554" y="-181.5" font-family="Helvetica,sans-Serif" font-size="10.00">Eigen/Geometry</text>
</g>
<!-- Node16&#45;&gt;Node18 -->
<g id="edge19" class="edge"><title>Node16&#45;&gt;Node18</title>
<path fill="none" stroke="midnightblue" d="M713.945,-242.372C681.623,-230.778 624.021,-210.116 587.479,-197.009"/>
<polygon fill="midnightblue" stroke="midnightblue" points="588.364,-193.608 577.769,-193.526 586,-200.197 588.364,-193.608"/>
</g>
<!-- Node19 -->
<g id="node19" class="node"><title>Node19</title>
<polygon fill="white" stroke="#bfbfbf" points="615.5,-174.5 615.5,-193.5 690.5,-193.5 690.5,-174.5 615.5,-174.5"/>
<text text-anchor="middle" x="653" y="-181.5" font-family="Helvetica,sans-Serif" font-size="10.00">Eigen/Sparse</text>
</g>
<!-- Node16&#45;&gt;Node19 -->
<g id="edge20" class="edge"><title>Node16&#45;&gt;Node19</title>
<path fill="none" stroke="midnightblue" d="M726.888,-242.372C713.016,-231.6 689.063,-213.002 672.198,-199.906"/>
<polygon fill="midnightblue" stroke="midnightblue" points="674.16,-196.999 664.115,-193.63 669.867,-202.528 674.16,-196.999"/>
</g>
<!-- Node20 -->
<g id="node20" class="node"><title>Node20</title>
<polygon fill="white" stroke="#bfbfbf" points="708.5,-174.5 708.5,-193.5 767.5,-193.5 767.5,-174.5 708.5,-174.5"/>
<text text-anchor="middle" x="738" y="-181.5" font-family="Helvetica,sans-Serif" font-size="10.00">functional</text>
</g>
<!-- Node16&#45;&gt;Node20 -->
<g id="edge21" class="edge"><title>Node16&#45;&gt;Node20</title>
<path fill="none" stroke="midnightblue" d="M738,-242.372C738,-232.643 738,-216.528 738,-203.85"/>
<polygon fill="midnightblue" stroke="midnightblue" points="741.5,-203.841 738,-193.841 734.5,-203.841 741.5,-203.841"/>
</g>
<!-- Node21 -->
<g id="node21" class="node"><title>Node21</title>
<polygon fill="white" stroke="#bfbfbf" points="785.5,-169 785.5,-199 918.5,-199 918.5,-169 785.5,-169"/>
<text text-anchor="start" x="793.5" y="-187" font-family="Helvetica,sans-Serif" font-size="10.00">unsupported/Eigen/Aligned</text>
<text text-anchor="middle" x="852" y="-176" font-family="Helvetica,sans-Serif" font-size="10.00">Vector3</text>
</g>
<!-- Node16&#45;&gt;Node21 -->
<g id="edge22" class="edge"><title>Node16&#45;&gt;Node21</title>
<path fill="none" stroke="midnightblue" d="M752.904,-242.372C769.486,-232.771 796.807,-216.954 818.567,-204.356"/>
<polygon fill="midnightblue" stroke="midnightblue" points="820.604,-207.221 827.505,-199.181 817.097,-201.163 820.604,-207.221"/>
</g>
<!-- Node22 -->
<g id="node22" class="node"><title>Node22</title>
<g id="a_node22"><a xlink:href="Math_8hpp.html" target="_top" xlink:title="Core/Math/Math.hpp">
<polygon fill="white" stroke="black" points="110,-174.5 110,-193.5 216,-193.5 216,-174.5 110,-174.5"/>
<text text-anchor="middle" x="163" y="-181.5" font-family="Helvetica,sans-Serif" font-size="10.00">Core/Math/Math.hpp</text>
</a>
</g>
</g>
<!-- Node16&#45;&gt;Node22 -->
<g id="edge23" class="edge"><title>Node16&#45;&gt;Node22</title>
<path fill="none" stroke="midnightblue" d="M666.27,-244.244C573.169,-235.258 405.724,-218.358 263,-200 251.097,-198.469 238.421,-196.686 226.233,-194.895"/>
<polygon fill="midnightblue" stroke="midnightblue" points="226.543,-191.403 216.137,-193.394 225.514,-198.327 226.543,-191.403"/>
</g>
<!-- Node26 -->
<g id="node26" class="node"><title>Node26</title>
<g id="a_node26"><a xlink:href="LinearAlgebra_8inl.html" target="_top" xlink:title="Core/Math/LinearAlgebra.inl">
<polygon fill="white" stroke="black" points="272.5,-174.5 272.5,-193.5 409.5,-193.5 409.5,-174.5 272.5,-174.5"/>
<text text-anchor="middle" x="341" y="-181.5" font-family="Helvetica,sans-Serif" font-size="10.00">Core/Math/LinearAlgebra.inl</text>
</a>
</g>
</g>
<!-- Node16&#45;&gt;Node26 -->
<g id="edge29" class="edge"><title>Node16&#45;&gt;Node26</title>
<path fill="none" stroke="midnightblue" d="M680.673,-242.471C616.562,-232.791 509.679,-216.231 418,-200 409.991,-198.582 401.529,-197.01 393.26,-195.432"/>
<polygon fill="midnightblue" stroke="midnightblue" points="393.796,-191.97 383.314,-193.514 392.471,-198.844 393.796,-191.97"/>
</g>
<!-- Node22&#45;&gt;Node3 -->
<g id="edge24" class="edge"><title>Node22&#45;&gt;Node3</title>
<path fill="none" stroke="midnightblue" d="M195.849,-174.441C206.655,-171.949 218.776,-169.498 230,-168 414.216,-143.423 989.016,-128.48 1172.26,-124.247"/>
<polygon fill="midnightblue" stroke="midnightblue" points="1172.57,-127.741 1182.49,-124.013 1172.41,-120.743 1172.57,-127.741"/>
</g>
<!-- Node23 -->
<g id="node23" class="node"><title>Node23</title>
<polygon fill="white" stroke="#bfbfbf" points="692,-112.5 692,-131.5 748,-131.5 748,-112.5 692,-112.5"/>
<text text-anchor="middle" x="720" y="-119.5" font-family="Helvetica,sans-Serif" font-size="10.00">algorithm</text>
</g>
<!-- Node22&#45;&gt;Node23 -->
<g id="edge25" class="edge"><title>Node22&#45;&gt;Node23</title>
<path fill="none" stroke="midnightblue" d="M197.266,-174.438C207.721,-172.067 219.284,-169.684 230,-168 397.152,-141.725 598.974,-129.171 681.758,-124.834"/>
<polygon fill="midnightblue" stroke="midnightblue" points="682.137,-128.319 691.944,-124.31 681.778,-121.328 682.137,-128.319"/>
</g>
<!-- Node24 -->
<g id="node24" class="node"><title>Node24</title>
<polygon fill="white" stroke="#bfbfbf" points="94,-112.5 94,-131.5 138,-131.5 138,-112.5 94,-112.5"/>
<text text-anchor="middle" x="116" y="-119.5" font-family="Helvetica,sans-Serif" font-size="10.00">cmath</text>
</g>
<!-- Node22&#45;&gt;Node24 -->
<g id="edge26" class="edge"><title>Node22&#45;&gt;Node24</title>
<path fill="none" stroke="midnightblue" d="M156.266,-174.403C149.216,-165.403 137.965,-151.041 129.146,-139.782"/>
<polygon fill="midnightblue" stroke="midnightblue" points="131.643,-137.295 122.721,-131.581 126.133,-141.611 131.643,-137.295"/>
</g>
<!-- Node25 -->
<g id="node25" class="node"><title>Node25</title>
<g id="a_node25"><a xlink:href="Math_8inl.html" target="_top" xlink:title="Core/Math/Math.inl">
<polygon fill="white" stroke="black" points="156,-112.5 156,-131.5 256,-131.5 256,-112.5 156,-112.5"/>
<text text-anchor="middle" x="206" y="-119.5" font-family="Helvetica,sans-Serif" font-size="10.00">Core/Math/Math.inl</text>
</a>
</g>
</g>
<!-- Node22&#45;&gt;Node25 -->
<g id="edge27" class="edge"><title>Node22&#45;&gt;Node25</title>
<path fill="none" stroke="midnightblue" d="M164.26,-174.403C168.808,-165.314 178.843,-150.756 188.115,-139.449"/>
<polygon fill="midnightblue" stroke="midnightblue" points="191.035,-141.424 194.953,-131.581 185.752,-136.833 191.035,-141.424"/>
</g>
<!-- Node25&#45;&gt;Node22 -->
<g id="edge28" class="edge"><title>Node25&#45;&gt;Node22</title>
<path fill="none" stroke="midnightblue" d="M204.748,-131.581C200.206,-140.663 190.174,-155.22 180.901,-166.531"/>
<polygon fill="midnightblue" stroke="midnightblue" points="177.978,-164.559 174.061,-174.403 183.262,-169.15 177.978,-164.559"/>
</g>
<!-- Node27&#45;&gt;Node2 -->
<g id="edge32" class="edge"><title>Node27&#45;&gt;Node2</title>
<path fill="none" stroke="midnightblue" d="M167.424,-323.751C175.363,-331.327 185.079,-342.505 192.046,-351.855"/>
<polygon fill="midnightblue" stroke="midnightblue" points="189.169,-353.849 197.735,-360.083 194.927,-349.867 189.169,-353.849"/>
</g>
<!-- Node28&#45;&gt;Node3 -->
<g id="edge44" class="edge"><title>Node28&#45;&gt;Node3</title>
<path fill="none" stroke="midnightblue" d="M1256.88,-416.985C1259.96,-416.651 1263.01,-416.322 1266,-416 1372.42,-404.55 2224,-422.034 2224,-315 2224,-315 2224,-315 2224,-251 2224,-133.503 2088.38,-190.177 1973,-168 1841.53,-142.732 1436.56,-128.913 1286.08,-124.542"/>
<polygon fill="midnightblue" stroke="midnightblue" points="1285.79,-121.032 1275.69,-124.244 1285.59,-128.03 1285.79,-121.032"/>
</g>
<!-- Node28&#45;&gt;Node12 -->
<g id="edge43" class="edge"><title>Node28&#45;&gt;Node12</title>
<path fill="none" stroke="midnightblue" d="M1167.6,-416.368C1131.28,-397.251 1043.84,-351.229 1000.39,-328.361"/>
<polygon fill="midnightblue" stroke="midnightblue" points="1001.8,-325.152 991.324,-323.591 998.543,-331.346 1001.8,-325.152"/>
</g>
<!-- Node28&#45;&gt;Node16 -->
<g id="edge42" class="edge"><title>Node28&#45;&gt;Node16</title>
<path fill="none" stroke="midnightblue" d="M1157.22,-416.387C1106.14,-399.781 991.459,-361.638 897,-324 850.118,-305.32 796.769,-280.811 765.322,-266.019"/>
<polygon fill="midnightblue" stroke="midnightblue" points="766.455,-262.683 755.918,-261.577 763.465,-269.013 766.455,-262.683"/>
</g>
<!-- Node29 -->
<g id="node29" class="node"><title>Node29</title>
<g id="a_node29"><a xlink:href="VectorArray_8hpp.html" target="_top" xlink:title="Core/Containers/VectorArray.hpp">
<polygon fill="white" stroke="black" points="1061.5,-304.5 1061.5,-323.5 1222.5,-323.5 1222.5,-304.5 1061.5,-304.5"/>
<text text-anchor="middle" x="1142" y="-311.5" font-family="Helvetica,sans-Serif" font-size="10.00">Core/Containers/VectorArray.hpp</text>
</a>
</g>
</g>
<!-- Node28&#45;&gt;Node29 -->
<g id="edge34" class="edge"><title>Node28&#45;&gt;Node29</title>
<path fill="none" stroke="midnightblue" d="M1179.2,-416.22C1174.43,-407.282 1167.12,-392.939 1162,-380 1155.89,-364.56 1150.46,-346.469 1146.8,-333.299"/>
<polygon fill="midnightblue" stroke="midnightblue" points="1150.16,-332.301 1144.17,-323.559 1143.4,-334.126 1150.16,-332.301"/>
</g>
<!-- Node32 -->
<g id="node32" class="node"><title>Node32</title>
<g id="a_node32"><a xlink:href="Attribs_8hpp.html" target="_top" xlink:title="Core/Utils/Attribs.hpp">
<polygon fill="white" stroke="black" points="1170.5,-360.5 1170.5,-379.5 1281.5,-379.5 1281.5,-360.5 1170.5,-360.5"/>
<text text-anchor="middle" x="1226" y="-367.5" font-family="Helvetica,sans-Serif" font-size="10.00">Core/Utils/Attribs.hpp</text>
</a>
</g>
</g>
<!-- Node28&#45;&gt;Node32 -->
<g id="edge45" class="edge"><title>Node28&#45;&gt;Node32</title>
<path fill="none" stroke="midnightblue" d="M1190.94,-416.083C1196.93,-408.377 1205.75,-397.033 1213.05,-387.653"/>
<polygon fill="midnightblue" stroke="midnightblue" points="1215.82,-389.793 1219.19,-379.751 1210.29,-385.496 1215.82,-389.793"/>
</g>
<!-- Node42 -->
<g id="node42" class="node"><title>Node42</title>
<g id="a_node42"><a xlink:href="TriangleMesh_8inl.html" target="_top" xlink:title="Core/Mesh/TriangleMesh.inl">
<polygon fill="white" stroke="black" points="1299.5,-360.5 1299.5,-379.5 1438.5,-379.5 1438.5,-360.5 1299.5,-360.5"/>
<text text-anchor="middle" x="1369" y="-367.5" font-family="Helvetica,sans-Serif" font-size="10.00">Core/Mesh/TriangleMesh.inl</text>
</a>
</g>
</g>
<!-- Node28&#45;&gt;Node42 -->
<g id="edge66" class="edge"><title>Node28&#45;&gt;Node42</title>
<path fill="none" stroke="midnightblue" d="M1208.23,-416.444C1237.86,-407.201 1288.28,-392.436 1324.83,-382.257"/>
<polygon fill="midnightblue" stroke="midnightblue" points="1326.04,-385.555 1334.74,-379.516 1324.17,-378.808 1326.04,-385.555"/>
</g>
<!-- Node29&#45;&gt;Node3 -->
<g id="edge40" class="edge"><title>Node29&#45;&gt;Node3</title>
<path fill="none" stroke="midnightblue" d="M1163.78,-304.473C1179.32,-297.2 1199.28,-285.171 1210,-268 1234.69,-228.457 1233.74,-171.039 1231.22,-141.734"/>
<polygon fill="midnightblue" stroke="midnightblue" points="1234.69,-141.251 1230.2,-131.657 1227.73,-141.961 1234.69,-141.251"/>
</g>
<!-- Node29&#45;&gt;Node11 -->
<g id="edge41" class="edge"><title>Node29&#45;&gt;Node11</title>
<path fill="none" stroke="midnightblue" d="M1110.72,-304.442C1091.57,-297.622 1068.13,-286.143 1054,-268 1039.63,-249.542 1035.76,-222.188 1034.91,-203.989"/>
<polygon fill="midnightblue" stroke="midnightblue" points="1038.4,-203.696 1034.7,-193.77 1031.41,-203.839 1038.4,-203.696"/>
</g>
<!-- Node29&#45;&gt;Node16 -->
<g id="edge39" class="edge"><title>Node29&#45;&gt;Node16</title>
<path fill="none" stroke="midnightblue" d="M1084.55,-304.467C1010.95,-293.537 883.599,-274.624 805.472,-263.021"/>
<polygon fill="midnightblue" stroke="midnightblue" points="805.662,-259.51 795.256,-261.503 804.633,-266.435 805.662,-259.51"/>
</g>
<!-- Node30 -->
<g id="node30" class="node"><title>Node30</title>
<g id="a_node30"><a xlink:href="AlignedStdVector_8hpp.html" target="_top" xlink:title="Core/Containers/AlignedStd\lVector.hpp">
<polygon fill="white" stroke="black" points="1063,-237 1063,-267 1201,-267 1201,-237 1063,-237"/>
<text text-anchor="start" x="1071" y="-255" font-family="Helvetica,sans-Serif" font-size="10.00">Core/Containers/AlignedStd</text>
<text text-anchor="middle" x="1132" y="-244" font-family="Helvetica,sans-Serif" font-size="10.00">Vector.hpp</text>
</a>
</g>
</g>
<!-- Node29&#45;&gt;Node30 -->
<g id="edge35" class="edge"><title>Node29&#45;&gt;Node30</title>
<path fill="none" stroke="midnightblue" d="M1140.57,-304.403C1139.38,-297.265 1137.63,-286.752 1136.02,-277.09"/>
<polygon fill="midnightblue" stroke="midnightblue" points="1139.45,-276.429 1134.36,-267.141 1132.55,-277.58 1139.45,-276.429"/>
</g>
<!-- Node30&#45;&gt;Node3 -->
<g id="edge36" class="edge"><title>Node30&#45;&gt;Node3</title>
<path fill="none" stroke="midnightblue" d="M1120.08,-236.968C1106.77,-219.511 1088.96,-189.4 1104,-168 1119.57,-145.844 1147.15,-134.545 1172.46,-128.805"/>
<polygon fill="midnightblue" stroke="midnightblue" points="1173.27,-132.212 1182.38,-126.801 1171.88,-125.351 1173.27,-132.212"/>
</g>
<!-- Node30&#45;&gt;Node11 -->
<g id="edge38" class="edge"><title>Node30&#45;&gt;Node11</title>
<path fill="none" stroke="midnightblue" d="M1110.95,-236.679C1094.69,-225.611 1072.28,-210.363 1056.02,-199.3"/>
<polygon fill="midnightblue" stroke="midnightblue" points="1057.93,-196.37 1047.7,-193.638 1053.99,-202.157 1057.93,-196.37"/>
</g>
<!-- Node31 -->
<g id="node31" class="node"><title>Node31</title>
<polygon fill="white" stroke="#bfbfbf" points="1113,-174.5 1113,-193.5 1201,-193.5 1201,-174.5 1113,-174.5"/>
<text text-anchor="middle" x="1157" y="-181.5" font-family="Helvetica,sans-Serif" font-size="10.00">Eigen/StdVector</text>
</g>
<!-- Node30&#45;&gt;Node31 -->
<g id="edge37" class="edge"><title>Node30&#45;&gt;Node31</title>
<path fill="none" stroke="midnightblue" d="M1137.42,-236.679C1141.13,-226.898 1146.07,-213.852 1150.06,-203.315"/>
<polygon fill="midnightblue" stroke="midnightblue" points="1153.39,-204.42 1153.66,-193.828 1146.84,-201.94 1153.39,-204.42"/>
</g>
<!-- Node32&#45;&gt;Node3 -->
<g id="edge65" class="edge"><title>Node32&#45;&gt;Node3</title>
<path fill="none" stroke="midnightblue" d="M1247.65,-360.489C1311.98,-334.009 1493.48,-249.935 1428,-168 1410.48,-146.079 1338.42,-134.055 1286.05,-128.075"/>
<polygon fill="midnightblue" stroke="midnightblue" points="1286.18,-124.568 1275.85,-126.958 1285.41,-131.526 1286.18,-124.568"/>
</g>
<!-- Node32&#45;&gt;Node29 -->
<g id="edge46" class="edge"><title>Node32&#45;&gt;Node29</title>
<path fill="none" stroke="midnightblue" d="M1212.5,-360.324C1199.4,-351.9 1179.29,-338.971 1163.89,-329.074"/>
<polygon fill="midnightblue" stroke="midnightblue" points="1165.77,-326.118 1155.46,-323.655 1161.98,-332.006 1165.77,-326.118"/>
</g>
<!-- Node33 -->
<g id="node33" class="node"><title>Node33</title>
<g id="a_node33"><a xlink:href="IndexMap_8hpp.html" target="_top" xlink:title="Core/Index/IndexMap.hpp">
<polygon fill="white" stroke="black" points="1494.5,-304.5 1494.5,-323.5 1623.5,-323.5 1623.5,-304.5 1494.5,-304.5"/>
<text text-anchor="middle" x="1559" y="-311.5" font-family="Helvetica,sans-Serif" font-size="10.00">Core/Index/IndexMap.hpp</text>
</a>
</g>
</g>
<!-- Node32&#45;&gt;Node33 -->
<g id="edge47" class="edge"><title>Node32&#45;&gt;Node33</title>
<path fill="none" stroke="midnightblue" d="M1278.76,-360.444C1337.83,-350.865 1433.47,-335.356 1496.31,-325.167"/>
<polygon fill="midnightblue" stroke="midnightblue" points="1497.17,-328.572 1506.48,-323.516 1496.05,-321.662 1497.17,-328.572"/>
</g>
<!-- Node37 -->
<g id="node37" class="node"><title>Node37</title>
<g id="a_node37"><a xlink:href="Log_8hpp.html" target="_top" xlink:title="Core/Log/Log.hpp">
<polygon fill="white" stroke="black" points="1988,-304.5 1988,-323.5 2082,-323.5 2082,-304.5 1988,-304.5"/>
<text text-anchor="middle" x="2035" y="-311.5" font-family="Helvetica,sans-Serif" font-size="10.00">Core/Log/Log.hpp</text>
</a>
</g>
</g>
<!-- Node32&#45;&gt;Node37 -->
<g id="edge55" class="edge"><title>Node32&#45;&gt;Node37</title>
<path fill="none" stroke="midnightblue" d="M1281.64,-361.009C1284.8,-360.644 1287.94,-360.304 1291,-360 1546.51,-334.622 1852.9,-321.55 1977.8,-316.954"/>
<polygon fill="midnightblue" stroke="midnightblue" points="1978.03,-320.448 1987.89,-316.586 1977.77,-313.452 1978.03,-320.448"/>
</g>
<!-- Node33&#45;&gt;Node3 -->
<g id="edge48" class="edge"><title>Node33&#45;&gt;Node3</title>
<path fill="none" stroke="midnightblue" d="M1555.65,-304.25C1543.87,-273.587 1504.78,-172.599 1499,-168 1466.89,-142.469 1355.3,-130.908 1286.03,-126.086"/>
<polygon fill="midnightblue" stroke="midnightblue" points="1285.93,-122.571 1275.71,-125.395 1285.46,-129.555 1285.93,-122.571"/>
</g>
<!-- Node33&#45;&gt;Node13 -->
<g id="edge52" class="edge"><title>Node33&#45;&gt;Node13</title>
<path fill="none" stroke="midnightblue" d="M1527.34,-304.403C1488.44,-293.844 1422.36,-275.903 1379.45,-264.254"/>
<polygon fill="midnightblue" stroke="midnightblue" points="1380.17,-260.823 1369.61,-261.581 1378.34,-267.578 1380.17,-260.823"/>
</g>
<!-- Node33&#45;&gt;Node23 -->
<g id="edge49" class="edge"><title>Node33&#45;&gt;Node23</title>
<path fill="none" stroke="midnightblue" d="M1552.52,-304.254C1530.92,-275.353 1460.84,-183.856 1428,-168 1367.6,-138.84 897.397,-126.723 758.506,-123.758"/>
<polygon fill="midnightblue" stroke="midnightblue" points="758.41,-120.256 748.339,-123.545 758.263,-127.254 758.41,-120.256"/>
</g>
<!-- Node34 -->
<g id="node34" class="node"><title>Node34</title>
<polygon fill="white" stroke="#bfbfbf" points="1551,-242.5 1551,-261.5 1603,-261.5 1603,-242.5 1551,-242.5"/>
<text text-anchor="middle" x="1577" y="-249.5" font-family="Helvetica,sans-Serif" font-size="10.00">assert.h</text>
</g>
<!-- Node33&#45;&gt;Node34 -->
<g id="edge50" class="edge"><title>Node33&#45;&gt;Node34</title>
<path fill="none" stroke="midnightblue" d="M1561.58,-304.403C1564.15,-295.849 1568.17,-282.45 1571.46,-271.476"/>
<polygon fill="midnightblue" stroke="midnightblue" points="1574.9,-272.165 1574.43,-261.581 1568.2,-270.153 1574.9,-272.165"/>
</g>
<!-- Node35 -->
<g id="node35" class="node"><title>Node35</title>
<polygon fill="white" stroke="#bfbfbf" points="1621.5,-242.5 1621.5,-261.5 1664.5,-261.5 1664.5,-242.5 1621.5,-242.5"/>
<text text-anchor="middle" x="1643" y="-249.5" font-family="Helvetica,sans-Serif" font-size="10.00">deque</text>
</g>
<!-- Node33&#45;&gt;Node35 -->
<g id="edge51" class="edge"><title>Node33&#45;&gt;Node35</title>
<path fill="none" stroke="midnightblue" d="M1571.04,-304.403C1584.51,-294.78 1606.57,-279.024 1622.72,-267.489"/>
<polygon fill="midnightblue" stroke="midnightblue" points="1624.88,-270.241 1630.99,-261.581 1620.82,-264.545 1624.88,-270.241"/>
</g>
<!-- Node36 -->
<g id="node36" class="node"><title>Node36</title>
<g id="a_node36"><a xlink:href="IndexMap_8inl.html" target="_top" xlink:title="Core/Index/IndexMap.inl">
<polygon fill="white" stroke="black" points="1682.5,-242.5 1682.5,-261.5 1805.5,-261.5 1805.5,-242.5 1682.5,-242.5"/>
<text text-anchor="middle" x="1744" y="-249.5" font-family="Helvetica,sans-Serif" font-size="10.00">Core/Index/IndexMap.inl</text>
</a>
</g>
</g>
<!-- Node33&#45;&gt;Node36 -->
<g id="edge53" class="edge"><title>Node33&#45;&gt;Node36</title>
<path fill="none" stroke="midnightblue" d="M1580.61,-304.403C1610.62,-293.933 1665.1,-276.205 1702.93,-264.55"/>
<polygon fill="midnightblue" stroke="midnightblue" points="1704.11,-267.851 1712.65,-261.581 1702.06,-261.157 1704.11,-267.851"/>
</g>
<!-- Node36&#45;&gt;Node33 -->
<g id="edge54" class="edge"><title>Node36&#45;&gt;Node33</title>
<path fill="none" stroke="midnightblue" d="M1722.44,-261.581C1692.45,-272.044 1637.97,-289.771 1600.13,-301.432"/>
<polygon fill="midnightblue" stroke="midnightblue" points="1598.95,-298.133 1590.41,-304.403 1600.99,-304.827 1598.95,-298.133"/>
</g>
<!-- Node37&#45;&gt;Node3 -->
<g id="edge56" class="edge"><title>Node37&#45;&gt;Node3</title>
<path fill="none" stroke="midnightblue" d="M2029.41,-304.39C2023.56,-295.345 2014.09,-280.698 2006,-268 1977.77,-223.7 1988.17,-194.817 1943,-168 1887.09,-134.806 1444.92,-125.807 1285.8,-123.631"/>
<polygon fill="midnightblue" stroke="midnightblue" points="1285.78,-120.13 1275.74,-123.497 1285.69,-127.13 1285.78,-120.13"/>
</g>
<!-- Node37&#45;&gt;Node8 -->
<g id="edge57" class="edge"><title>Node37&#45;&gt;Node8</title>
<path fill="none" stroke="midnightblue" d="M2082.2,-308.382C2110.65,-303.129 2145.44,-291.917 2167,-268 2192.34,-239.892 2186,-222.843 2186,-185 2186,-185 2186,-185 2186,-121 2186,-43.7625 1911.72,-19.3095 1811.29,-12.9445"/>
<polygon fill="midnightblue" stroke="midnightblue" points="1811.22,-9.43381 1801.02,-12.3191 1810.79,-16.4209 1811.22,-9.43381"/>
</g>
<!-- Node38 -->
<g id="node38" class="node"><title>Node38</title>
<polygon fill="white" stroke="#bfbfbf" points="2112,-242.5 2112,-261.5 2158,-261.5 2158,-242.5 2112,-242.5"/>
<text text-anchor="middle" x="2135" y="-249.5" font-family="Helvetica,sans-Serif" font-size="10.00">stdio.h</text>
</g>
<!-- Node37&#45;&gt;Node38 -->
<g id="edge58" class="edge"><title>Node37&#45;&gt;Node38</title>
<path fill="none" stroke="midnightblue" d="M2049.33,-304.403C2065.66,-294.601 2092.6,-278.439 2111.91,-266.853"/>
<polygon fill="midnightblue" stroke="midnightblue" points="2113.92,-269.727 2120.7,-261.581 2110.32,-263.724 2113.92,-269.727"/>
</g>
<!-- Node39 -->
<g id="node39" class="node"><title>Node39</title>
<polygon fill="white" stroke="#bfbfbf" points="1893.5,-174.5 1893.5,-193.5 1934.5,-193.5 1934.5,-174.5 1893.5,-174.5"/>
<text text-anchor="middle" x="1914" y="-181.5" font-family="Helvetica,sans-Serif" font-size="10.00">string</text>
</g>
<!-- Node37&#45;&gt;Node39 -->
<g id="edge59" class="edge"><title>Node37&#45;&gt;Node39</title>
<path fill="none" stroke="midnightblue" d="M2043.36,-304.209C2056.67,-289.125 2079.64,-257.833 2064,-236 2036.93,-198.205 1980.22,-188.086 1944.81,-185.572"/>
<polygon fill="midnightblue" stroke="midnightblue" points="1944.73,-182.063 1934.56,-185.014 1944.35,-189.053 1944.73,-182.063"/>
</g>
<!-- Node40 -->
<g id="node40" class="node"><title>Node40</title>
<g id="a_node40"><a xlink:href="StringUtils_8hpp.html" target="_top" xlink:title="Core/String/StringUtils.hpp">
<polygon fill="white" stroke="black" points="1824,-242.5 1824,-261.5 1958,-261.5 1958,-242.5 1824,-242.5"/>
<text text-anchor="middle" x="1891" y="-249.5" font-family="Helvetica,sans-Serif" font-size="10.00">Core/String/StringUtils.hpp</text>
</a>
</g>
</g>
<!-- Node37&#45;&gt;Node40 -->
<g id="edge60" class="edge"><title>Node37&#45;&gt;Node40</title>
<path fill="none" stroke="midnightblue" d="M2014.37,-304.403C1989.88,-294.2 1948.85,-277.105 1920.89,-265.454"/>
<polygon fill="midnightblue" stroke="midnightblue" points="1922.17,-262.196 1911.59,-261.581 1919.48,-268.658 1922.17,-262.196"/>
</g>
<!-- Node41 -->
<g id="node41" class="node"><title>Node41</title>
<polygon fill="white" stroke="#bfbfbf" points="2014.5,-242.5 2014.5,-261.5 2055.5,-261.5 2055.5,-242.5 2014.5,-242.5"/>
<text text-anchor="middle" x="2035" y="-249.5" font-family="Helvetica,sans-Serif" font-size="10.00">ctime</text>
</g>
<!-- Node37&#45;&gt;Node41 -->
<g id="edge64" class="edge"><title>Node37&#45;&gt;Node41</title>
<path fill="none" stroke="midnightblue" d="M2035,-304.403C2035,-295.938 2035,-282.728 2035,-271.82"/>
<polygon fill="midnightblue" stroke="midnightblue" points="2038.5,-271.581 2035,-261.581 2031.5,-271.581 2038.5,-271.581"/>
</g>
<!-- Node40&#45;&gt;Node3 -->
<g id="edge61" class="edge"><title>Node40&#45;&gt;Node3</title>
<path fill="none" stroke="midnightblue" d="M1858.5,-242.398C1796.39,-226.179 1656.38,-190.674 1537,-168 1449.74,-151.428 1347.58,-137.587 1285.61,-129.801"/>
<polygon fill="midnightblue" stroke="midnightblue" points="1286,-126.323 1275.65,-128.558 1285.14,-133.269 1286,-126.323"/>
</g>
<!-- Node40&#45;&gt;Node11 -->
<g id="edge63" class="edge"><title>Node40&#45;&gt;Node11</title>
<path fill="none" stroke="midnightblue" d="M1852.79,-242.447C1840.46,-239.987 1826.71,-237.552 1814,-236 1500.37,-197.696 1417.2,-241.699 1104,-200 1091.91,-198.39 1078.79,-195.764 1067.27,-193.156"/>
<polygon fill="midnightblue" stroke="midnightblue" points="1067.75,-189.674 1057.21,-190.796 1066.15,-196.489 1067.75,-189.674"/>
</g>
<!-- Node40&#45;&gt;Node39 -->
<g id="edge62" class="edge"><title>Node40&#45;&gt;Node39</title>
<path fill="none" stroke="midnightblue" d="M1894.01,-242.372C1897.43,-232.544 1903.13,-216.202 1907.56,-203.467"/>
<polygon fill="midnightblue" stroke="midnightblue" points="1910.93,-204.436 1910.92,-193.841 1904.32,-202.132 1910.93,-204.436"/>
</g>
<!-- Node42&#45;&gt;Node28 -->
<g id="edge67" class="edge"><title>Node42&#45;&gt;Node28</title>
<path fill="none" stroke="midnightblue" d="M1344.9,-379.516C1315.33,-388.743 1264.92,-403.507 1228.33,-413.699"/>
<polygon fill="midnightblue" stroke="midnightblue" points="1227.11,-410.405 1218.4,-416.444 1228.97,-417.152 1227.11,-410.405"/>
</g>
</g>
</svg>
