<?xml version="1.0" encoding="UTF-8" standalone="no"?>
<!DOCTYPE svg PUBLIC "-//W3C//DTD SVG 1.1//EN"
 "http://www.w3.org/Graphics/SVG/1.1/DTD/svg11.dtd">
<!-- Generated by graphviz version 2.36.0 (20140111.2315)
 -->
<!-- Title: /home/travis/build/STORM&#45;IRIT/Radium&#45;Engine/src/Core/File/HandleData.hpp Pages: 1 -->
<svg width="2993pt" height="398pt"
 viewBox="0.00 0.00 2993.00 398.00" xmlns="http://www.w3.org/2000/svg" xmlns:xlink="http://www.w3.org/1999/xlink">
<g id="graph0" class="graph" transform="scale(1 1) rotate(0) translate(4 394)">
<title>/home/travis/build/STORM&#45;IRIT/Radium&#45;Engine/src/Core/File/HandleData.hpp</title>
<polygon fill="white" stroke="none" points="-4,4 -4,-394 2989,-394 2989,4 -4,4"/>
<!-- Node1 -->
<g id="node1" class="node"><title>Node1</title>
<polygon fill="#bfbfbf" stroke="black" points="1945.5,-348.5 1945.5,-389.5 2094.5,-389.5 2094.5,-348.5 1945.5,-348.5"/>
<text text-anchor="start" x="1953.5" y="-377.5" font-family="Helvetica,sans-Serif" font-size="10.00">/home/travis/build</text>
<text text-anchor="start" x="1953.5" y="-366.5" font-family="Helvetica,sans-Serif" font-size="10.00">/STORM&#45;IRIT/Radium&#45;Engine</text>
<text text-anchor="middle" x="2020" y="-355.5" font-family="Helvetica,sans-Serif" font-size="10.00">/src/Core/File/HandleData.hpp</text>
</g>
<!-- Node2 -->
<g id="node2" class="node"><title>Node2</title>
<g id="a_node2"><a xlink:href="FileData_8inl.html" target="_top" xlink:title="/home/travis/build\l/STORM&#45;IRIT/Radium&#45;Engine\l/src/Core/File/FileData.inl">
<polygon fill="white" stroke="black" points="1340,-264.5 1340,-305.5 1488,-305.5 1488,-264.5 1340,-264.5"/>
<text text-anchor="start" x="1348" y="-293.5" font-family="Helvetica,sans-Serif" font-size="10.00">/home/travis/build</text>
<text text-anchor="start" x="1348" y="-282.5" font-family="Helvetica,sans-Serif" font-size="10.00">/STORM&#45;IRIT/Radium&#45;Engine</text>
<text text-anchor="middle" x="1414" y="-271.5" font-family="Helvetica,sans-Serif" font-size="10.00">/src/Core/File/FileData.inl</text>
</a>
</g>
</g>
<!-- Node1&#45;&gt;Node2 -->
<g id="edge1" class="edge"><title>Node1&#45;&gt;Node2</title>
<path fill="none" stroke="midnightblue" d="M1935.33,-360.869C1837.9,-352.06 1673.27,-335.328 1533,-312 1518.4,-309.572 1502.88,-306.527 1488.05,-303.385"/>
<polygon fill="midnightblue" stroke="midnightblue" points="1935.15,-364.366 1945.42,-361.774 1935.77,-357.394 1935.15,-364.366"/>
</g>
<!-- Node17 -->
<g id="node17" class="node"><title>Node17</title>
<g id="a_node17"><a xlink:href="SkinningSystem_8hpp.html" target="_top" xlink:title="/home/travis/build\l/STORM&#45;IRIT/Radium&#45;Engine\l/Plugins/Skinning/src/SkinningSystem.hpp">
<polygon fill="white" stroke="black" points="2252,-84.5 2252,-125.5 2454,-125.5 2454,-84.5 2252,-84.5"/>
<text text-anchor="start" x="2260" y="-113.5" font-family="Helvetica,sans-Serif" font-size="10.00">/home/travis/build</text>
<text text-anchor="start" x="2260" y="-102.5" font-family="Helvetica,sans-Serif" font-size="10.00">/STORM&#45;IRIT/Radium&#45;Engine</text>
<text text-anchor="middle" x="2353" y="-91.5" font-family="Helvetica,sans-Serif" font-size="10.00">/Plugins/Skinning/src/SkinningSystem.hpp</text>
</a>
</g>
</g>
<!-- Node1&#45;&gt;Node17 -->
<g id="edge33" class="edge"><title>Node1&#45;&gt;Node17</title>
<path fill="none" stroke="midnightblue" d="M2104.93,-364.033C2234.82,-357.087 2470.51,-340.662 2496,-312 2551.98,-249.048 2441.63,-163.569 2384.42,-125.584"/>
<polygon fill="midnightblue" stroke="midnightblue" points="2104.42,-360.555 2094.62,-364.577 2104.79,-367.546 2104.42,-360.555"/>
</g>
<!-- Node19 -->
<g id="node19" class="node"><title>Node19</title>
<g id="a_node19"><a xlink:href="HandleData_8cpp.html" target="_top" xlink:title="/home/travis/build\l/STORM&#45;IRIT/Radium&#45;Engine\l/src/Core/File/HandleData.cpp">
<polygon fill="white" stroke="black" points="1778.5,-264.5 1778.5,-305.5 1927.5,-305.5 1927.5,-264.5 1778.5,-264.5"/>
<text text-anchor="start" x="1786.5" y="-293.5" font-family="Helvetica,sans-Serif" font-size="10.00">/home/travis/build</text>
<text text-anchor="start" x="1786.5" y="-282.5" font-family="Helvetica,sans-Serif" font-size="10.00">/STORM&#45;IRIT/Radium&#45;Engine</text>
<text text-anchor="middle" x="1853" y="-271.5" font-family="Helvetica,sans-Serif" font-size="10.00">/src/Core/File/HandleData.cpp</text>
</a>
</g>
</g>
<!-- Node1&#45;&gt;Node19 -->
<g id="edge18" class="edge"><title>Node1&#45;&gt;Node19</title>
<path fill="none" stroke="midnightblue" d="M1970.76,-343.823C1945.98,-331.652 1916.32,-317.089 1892.96,-305.623"/>
<polygon fill="midnightblue" stroke="midnightblue" points="1969.48,-347.093 1980,-348.359 1972.57,-340.81 1969.48,-347.093"/>
</g>
<!-- Node20 -->
<g id="node20" class="node"><title>Node20</title>
<g id="a_node20"><a xlink:href="HandleData_8inl.html" target="_top" xlink:title="/home/travis/build\l/STORM&#45;IRIT/Radium&#45;Engine\l/src/Core/File/HandleData.inl">
<polygon fill="white" stroke="black" points="1946,-264.5 1946,-305.5 2094,-305.5 2094,-264.5 1946,-264.5"/>
<text text-anchor="start" x="1954" y="-293.5" font-family="Helvetica,sans-Serif" font-size="10.00">/home/travis/build</text>
<text text-anchor="start" x="1954" y="-282.5" font-family="Helvetica,sans-Serif" font-size="10.00">/STORM&#45;IRIT/Radium&#45;Engine</text>
<text text-anchor="middle" x="2020" y="-271.5" font-family="Helvetica,sans-Serif" font-size="10.00">/src/Core/File/HandleData.inl</text>
</a>
</g>
</g>
<!-- Node1&#45;&gt;Node20 -->
<g id="edge19" class="edge"><title>Node1&#45;&gt;Node20</title>
<path fill="none" stroke="midnightblue" d="M2013.47,-337.881C2013.03,-327.133 2013.25,-315.309 2014.14,-305.667"/>
<polygon fill="midnightblue" stroke="midnightblue" points="2009.99,-338.394 2014.12,-348.15 2016.98,-337.947 2009.99,-338.394"/>
</g>
<!-- Node21 -->
<g id="node21" class="node"><title>Node21</title>
<g id="a_node21"><a xlink:href="HandleToSkeleton_8cpp.html" target="_top" xlink:title="/home/travis/build\l/STORM&#45;IRIT/Radium&#45;Engine\l/src/Core/File/HandleToSkeleton.cpp">
<polygon fill="white" stroke="black" points="2112,-264.5 2112,-305.5 2290,-305.5 2290,-264.5 2112,-264.5"/>
<text text-anchor="start" x="2120" y="-293.5" font-family="Helvetica,sans-Serif" font-size="10.00">/home/travis/build</text>
<text text-anchor="start" x="2120" y="-282.5" font-family="Helvetica,sans-Serif" font-size="10.00">/STORM&#45;IRIT/Radium&#45;Engine</text>
<text text-anchor="middle" x="2201" y="-271.5" font-family="Helvetica,sans-Serif" font-size="10.00">/src/Core/File/HandleToSkeleton.cpp</text>
</a>
</g>
</g>
<!-- Node1&#45;&gt;Node21 -->
<g id="edge21" class="edge"><title>Node1&#45;&gt;Node21</title>
<path fill="none" stroke="midnightblue" d="M2072.66,-344.144C2099.66,-331.909 2132.15,-317.19 2157.69,-305.623"/>
<polygon fill="midnightblue" stroke="midnightblue" points="2071.02,-341.044 2063.35,-348.359 2073.91,-347.42 2071.02,-341.044"/>
</g>
<!-- Node22 -->
<g id="node22" class="node"><title>Node22</title>
<g id="a_node22"><a xlink:href="AssimpHandleDataLoader_8cpp.html" target="_top" xlink:title="/home/travis/build\l/STORM&#45;IRIT/Radium&#45;Engine\l/src/IO/AssimpLoader/AssimpHandle\lDataLoader.cpp">
<polygon fill="white" stroke="black" points="2308.5,-259 2308.5,-311 2487.5,-311 2487.5,-259 2308.5,-259"/>
<text text-anchor="start" x="2316.5" y="-299" font-family="Helvetica,sans-Serif" font-size="10.00">/home/travis/build</text>
<text text-anchor="start" x="2316.5" y="-288" font-family="Helvetica,sans-Serif" font-size="10.00">/STORM&#45;IRIT/Radium&#45;Engine</text>
<text text-anchor="start" x="2316.5" y="-277" font-family="Helvetica,sans-Serif" font-size="10.00">/src/IO/AssimpLoader/AssimpHandle</text>
<text text-anchor="middle" x="2398" y="-266" font-family="Helvetica,sans-Serif" font-size="10.00">DataLoader.cpp</text>
</a>
</g>
</g>
<!-- Node1&#45;&gt;Node22 -->
<g id="edge22" class="edge"><title>Node1&#45;&gt;Node22</title>
<path fill="none" stroke="midnightblue" d="M2104.67,-352.212C2159.88,-341.604 2233.42,-326.889 2298,-312 2301.41,-311.214 2304.88,-310.397 2308.38,-309.559"/>
<polygon fill="midnightblue" stroke="midnightblue" points="2103.74,-348.826 2094.58,-354.144 2105.06,-355.701 2103.74,-348.826"/>
</g>
<!-- Node23 -->
<g id="node23" class="node"><title>Node23</title>
<g id="a_node23"><a xlink:href="AnimationComponent_8hpp.html" target="_top" xlink:title="/home/travis/build\l/STORM&#45;IRIT/Radium&#45;Engine\l/Plugins/Animation/src/Animation\lComponent.hpp">
<polygon fill="white" stroke="black" points="2587.5,-259 2587.5,-311 2748.5,-311 2748.5,-259 2587.5,-259"/>
<text text-anchor="start" x="2595.5" y="-299" font-family="Helvetica,sans-Serif" font-size="10.00">/home/travis/build</text>
<text text-anchor="start" x="2595.5" y="-288" font-family="Helvetica,sans-Serif" font-size="10.00">/STORM&#45;IRIT/Radium&#45;Engine</text>
<text text-anchor="start" x="2595.5" y="-277" font-family="Helvetica,sans-Serif" font-size="10.00">/Plugins/Animation/src/Animation</text>
<text text-anchor="middle" x="2668" y="-266" font-family="Helvetica,sans-Serif" font-size="10.00">Component.hpp</text>
</a>
</g>
</g>
<!-- Node1&#45;&gt;Node23 -->
<g id="edge23" class="edge"><title>Node1&#45;&gt;Node23</title>
<path fill="none" stroke="midnightblue" d="M2104.74,-360.704C2206.15,-351.511 2380.94,-334.192 2530,-312 2548.57,-309.236 2568.45,-305.782 2587.18,-302.304"/>
<polygon fill="midnightblue" stroke="midnightblue" points="2104.2,-357.239 2094.56,-361.623 2104.83,-364.211 2104.2,-357.239"/>
</g>
<!-- Node27 -->
<g id="node27" class="node"><title>Node27</title>
<g id="a_node27"><a xlink:href="SkinningComponent_8hpp.html" target="_top" xlink:title="/home/travis/build\l/STORM&#45;IRIT/Radium&#45;Engine\l/Plugins/Skinning/src/SkinningComponent.hpp">
<polygon fill="white" stroke="black" points="1542,-264.5 1542,-305.5 1760,-305.5 1760,-264.5 1542,-264.5"/>
<text text-anchor="start" x="1550" y="-293.5" font-family="Helvetica,sans-Serif" font-size="10.00">/home/travis/build</text>
<text text-anchor="start" x="1550" y="-282.5" font-family="Helvetica,sans-Serif" font-size="10.00">/STORM&#45;IRIT/Radium&#45;Engine</text>
<text text-anchor="middle" x="1651" y="-271.5" font-family="Helvetica,sans-Serif" font-size="10.00">/Plugins/Skinning/src/SkinningComponent.hpp</text>
</a>
</g>
</g>
<!-- Node1&#45;&gt;Node27 -->
<g id="edge30" class="edge"><title>Node1&#45;&gt;Node27</title>
<path fill="none" stroke="midnightblue" d="M1935.32,-349.183C1876.52,-336.115 1798.36,-318.746 1738.87,-305.526"/>
<polygon fill="midnightblue" stroke="midnightblue" points="1934.81,-352.653 1945.33,-351.406 1936.32,-345.82 1934.81,-352.653"/>
</g>
<!-- Node3 -->
<g id="node3" class="node"><title>Node3</title>
<g id="a_node3"><a xlink:href="FileData_8hpp.html" target="_top" xlink:title="/home/travis/build\l/STORM&#45;IRIT/Radium&#45;Engine\l/src/Core/File/FileData.hpp">
<polygon fill="white" stroke="black" points="1305,-174.5 1305,-215.5 1453,-215.5 1453,-174.5 1305,-174.5"/>
<text text-anchor="start" x="1313" y="-203.5" font-family="Helvetica,sans-Serif" font-size="10.00">/home/travis/build</text>
<text text-anchor="start" x="1313" y="-192.5" font-family="Helvetica,sans-Serif" font-size="10.00">/STORM&#45;IRIT/Radium&#45;Engine</text>
<text text-anchor="middle" x="1379" y="-181.5" font-family="Helvetica,sans-Serif" font-size="10.00">/src/Core/File/FileData.hpp</text>
</a>
</g>
</g>
<!-- Node2&#45;&gt;Node3 -->
<g id="edge2" class="edge"><title>Node2&#45;&gt;Node3</title>
<path fill="none" stroke="midnightblue" d="M1402.5,-255.09C1397.38,-242.21 1391.48,-227.367 1386.87,-215.78"/>
<polygon fill="midnightblue" stroke="midnightblue" points="1399.28,-256.471 1406.23,-264.47 1405.79,-253.884 1399.28,-256.471"/>
</g>
<!-- Node4 -->
<g id="node4" class="node"><title>Node4</title>
<g id="a_node4"><a xlink:href="FileData_8cpp.html" target="_top" xlink:title="/home/travis/build\l/STORM&#45;IRIT/Radium&#45;Engine\l/src/Core/File/FileData.cpp">
<polygon fill="white" stroke="black" points="0,-84.5 0,-125.5 148,-125.5 148,-84.5 0,-84.5"/>
<text text-anchor="start" x="8" y="-113.5" font-family="Helvetica,sans-Serif" font-size="10.00">/home/travis/build</text>
<text text-anchor="start" x="8" y="-102.5" font-family="Helvetica,sans-Serif" font-size="10.00">/STORM&#45;IRIT/Radium&#45;Engine</text>
<text text-anchor="middle" x="74" y="-91.5" font-family="Helvetica,sans-Serif" font-size="10.00">/src/Core/File/FileData.cpp</text>
</a>
</g>
</g>
<!-- Node3&#45;&gt;Node4 -->
<g id="edge3" class="edge"><title>Node3&#45;&gt;Node4</title>
<path fill="none" stroke="midnightblue" d="M1294.76,-192.495C1055.7,-187.784 376.154,-171.23 157,-132 148.082,-130.404 138.784,-128.127 129.776,-125.577"/>
<polygon fill="midnightblue" stroke="midnightblue" points="1294.72,-195.995 1304.79,-192.691 1294.86,-188.996 1294.72,-195.995"/>
</g>
<!-- Node5 -->
<g id="node5" class="node"><title>Node5</title>
<g id="a_node5"><a xlink:href="CameraManager_8cpp.html" target="_top" xlink:title="/home/travis/build\l/STORM&#45;IRIT/Radium&#45;Engine\l/src/Engine/Managers/CameraManager\l/CameraManager.cpp">
<polygon fill="white" stroke="black" points="166.5,-79 166.5,-131 353.5,-131 353.5,-79 166.5,-79"/>
<text text-anchor="start" x="174.5" y="-119" font-family="Helvetica,sans-Serif" font-size="10.00">/home/travis/build</text>
<text text-anchor="start" x="174.5" y="-108" font-family="Helvetica,sans-Serif" font-size="10.00">/STORM&#45;IRIT/Radium&#45;Engine</text>
<text text-anchor="start" x="174.5" y="-97" font-family="Helvetica,sans-Serif" font-size="10.00">/src/Engine/Managers/CameraManager</text>
<text text-anchor="middle" x="260" y="-86" font-family="Helvetica,sans-Serif" font-size="10.00">/CameraManager.cpp</text>
</a>
</g>
</g>
<!-- Node3&#45;&gt;Node5 -->
<g id="edge4" class="edge"><title>Node3&#45;&gt;Node5</title>
<path fill="none" stroke="midnightblue" d="M1294.62,-194.216C1119.62,-193.488 704.914,-185.665 362,-132 359.202,-131.562 356.368,-131.082 353.514,-130.566"/>
<polygon fill="midnightblue" stroke="midnightblue" points="1294.78,-197.716 1304.79,-194.251 1294.8,-190.716 1294.78,-197.716"/>
</g>
<!-- Node6 -->
<g id="node6" class="node"><title>Node6</title>
<g id="a_node6"><a xlink:href="LightManager_8cpp.html" target="_top" xlink:title="/home/travis/build\l/STORM&#45;IRIT/Radium&#45;Engine\l/src/Engine/Managers/LightManager\l/LightManager.cpp">
<polygon fill="white" stroke="black" points="371.5,-79 371.5,-131 544.5,-131 544.5,-79 371.5,-79"/>
<text text-anchor="start" x="379.5" y="-119" font-family="Helvetica,sans-Serif" font-size="10.00">/home/travis/build</text>
<text text-anchor="start" x="379.5" y="-108" font-family="Helvetica,sans-Serif" font-size="10.00">/STORM&#45;IRIT/Radium&#45;Engine</text>
<text text-anchor="start" x="379.5" y="-97" font-family="Helvetica,sans-Serif" font-size="10.00">/src/Engine/Managers/LightManager</text>
<text text-anchor="middle" x="458" y="-86" font-family="Helvetica,sans-Serif" font-size="10.00">/LightManager.cpp</text>
</a>
</g>
</g>
<!-- Node3&#45;&gt;Node6 -->
<g id="edge5" class="edge"><title>Node3&#45;&gt;Node6</title>
<path fill="none" stroke="midnightblue" d="M1294.69,-192.92C1144.67,-189.833 821.955,-177.927 554,-132 550.937,-131.475 547.829,-130.895 544.7,-130.271"/>
<polygon fill="midnightblue" stroke="midnightblue" points="1294.69,-196.42 1304.75,-193.119 1294.83,-189.422 1294.69,-196.42"/>
</g>
<!-- Node7 -->
<g id="node7" class="node"><title>Node7</title>
<g id="a_node7"><a xlink:href="RadiumEngine_8cpp.html" target="_top" xlink:title="/home/travis/build\l/STORM&#45;IRIT/Radium&#45;Engine\l/src/Engine/RadiumEngine.cpp">
<polygon fill="white" stroke="black" points="563,-84.5 563,-125.5 715,-125.5 715,-84.5 563,-84.5"/>
<text text-anchor="start" x="571" y="-113.5" font-family="Helvetica,sans-Serif" font-size="10.00">/home/travis/build</text>
<text text-anchor="start" x="571" y="-102.5" font-family="Helvetica,sans-Serif" font-size="10.00">/STORM&#45;IRIT/Radium&#45;Engine</text>
<text text-anchor="middle" x="639" y="-91.5" font-family="Helvetica,sans-Serif" font-size="10.00">/src/Engine/RadiumEngine.cpp</text>
</a>
</g>
</g>
<!-- Node3&#45;&gt;Node7 -->
<g id="edge6" class="edge"><title>Node3&#45;&gt;Node7</title>
<path fill="none" stroke="midnightblue" d="M1294.31,-191.453C1168.72,-186.448 926.161,-172.057 724,-132 715.372,-130.29 706.372,-128.053 697.593,-125.608"/>
<polygon fill="midnightblue" stroke="midnightblue" points="1294.49,-194.963 1304.62,-191.854 1294.77,-187.968 1294.49,-194.963"/>
</g>
<!-- Node8 -->
<g id="node8" class="node"><title>Node8</title>
<g id="a_node8"><a xlink:href="Renderer_8cpp.html" target="_top" xlink:title="/home/travis/build\l/STORM&#45;IRIT/Radium&#45;Engine\l/src/Engine/Renderer/Renderer.cpp">
<polygon fill="white" stroke="black" points="733,-84.5 733,-125.5 903,-125.5 903,-84.5 733,-84.5"/>
<text text-anchor="start" x="741" y="-113.5" font-family="Helvetica,sans-Serif" font-size="10.00">/home/travis/build</text>
<text text-anchor="start" x="741" y="-102.5" font-family="Helvetica,sans-Serif" font-size="10.00">/STORM&#45;IRIT/Radium&#45;Engine</text>
<text text-anchor="middle" x="818" y="-91.5" font-family="Helvetica,sans-Serif" font-size="10.00">/src/Engine/Renderer/Renderer.cpp</text>
</a>
</g>
</g>
<!-- Node3&#45;&gt;Node8 -->
<g id="edge7" class="edge"><title>Node3&#45;&gt;Node8</title>
<path fill="none" stroke="midnightblue" d="M1294.85,-186.356C1200.9,-177.006 1044.61,-159.009 912,-132 902.958,-130.158 893.505,-127.922 884.227,-125.544"/>
<polygon fill="midnightblue" stroke="midnightblue" points="1294.58,-189.846 1304.87,-187.344 1295.26,-182.88 1294.58,-189.846"/>
</g>
<!-- Node9 -->
<g id="node9" class="node"><title>Node9</title>
<g id="a_node9"><a xlink:href="Viewer_8cpp.html" target="_top" xlink:title="/home/travis/build\l/STORM&#45;IRIT/Radium&#45;Engine\l/src/GuiBase/Viewer/Viewer.cpp">
<polygon fill="white" stroke="black" points="921,-84.5 921,-125.5 1079,-125.5 1079,-84.5 921,-84.5"/>
<text text-anchor="start" x="929" y="-113.5" font-family="Helvetica,sans-Serif" font-size="10.00">/home/travis/build</text>
<text text-anchor="start" x="929" y="-102.5" font-family="Helvetica,sans-Serif" font-size="10.00">/STORM&#45;IRIT/Radium&#45;Engine</text>
<text text-anchor="middle" x="1000" y="-91.5" font-family="Helvetica,sans-Serif" font-size="10.00">/src/GuiBase/Viewer/Viewer.cpp</text>
</a>
</g>
</g>
<!-- Node3&#45;&gt;Node9 -->
<g id="edge8" class="edge"><title>Node3&#45;&gt;Node9</title>
<path fill="none" stroke="midnightblue" d="M1294.87,-177.868C1236.54,-166.246 1157.22,-149.571 1088,-132 1080.28,-130.04 1072.22,-127.854 1064.24,-125.605"/>
<polygon fill="midnightblue" stroke="midnightblue" points="1294.29,-181.321 1304.78,-179.834 1295.65,-174.455 1294.29,-181.321"/>
</g>
<!-- Node10 -->
<g id="node10" class="node"><title>Node10</title>
<g id="a_node10"><a xlink:href="AssimpFileLoader_8cpp.html" target="_top" xlink:title="/home/travis/build\l/STORM&#45;IRIT/Radium&#45;Engine\l/src/IO/AssimpLoader/AssimpFile\lLoader.cpp">
<polygon fill="white" stroke="black" points="1097,-79 1097,-131 1261,-131 1261,-79 1097,-79"/>
<text text-anchor="start" x="1105" y="-119" font-family="Helvetica,sans-Serif" font-size="10.00">/home/travis/build</text>
<text text-anchor="start" x="1105" y="-108" font-family="Helvetica,sans-Serif" font-size="10.00">/STORM&#45;IRIT/Radium&#45;Engine</text>
<text text-anchor="start" x="1105" y="-97" font-family="Helvetica,sans-Serif" font-size="10.00">/src/IO/AssimpLoader/AssimpFile</text>
<text text-anchor="middle" x="1179" y="-86" font-family="Helvetica,sans-Serif" font-size="10.00">Loader.cpp</text>
</a>
</g>
</g>
<!-- Node3&#45;&gt;Node10 -->
<g id="edge9" class="edge"><title>Node3&#45;&gt;Node10</title>
<path fill="none" stroke="midnightblue" d="M1325.11,-170.289C1297.49,-158.135 1263.85,-143.336 1235.82,-131.002"/>
<polygon fill="midnightblue" stroke="midnightblue" points="1324.05,-173.646 1334.61,-174.47 1326.87,-167.239 1324.05,-173.646"/>
</g>
<!-- Node11 -->
<g id="node11" class="node"><title>Node11</title>
<g id="a_node11"><a xlink:href="CameraLoader_8cpp.html" target="_top" xlink:title="/home/travis/build\l/STORM&#45;IRIT/Radium&#45;Engine\l/src/IO/CameraLoader/CameraLoader.cpp">
<polygon fill="white" stroke="black" points="1279.5,-84.5 1279.5,-125.5 1478.5,-125.5 1478.5,-84.5 1279.5,-84.5"/>
<text text-anchor="start" x="1287.5" y="-113.5" font-family="Helvetica,sans-Serif" font-size="10.00">/home/travis/build</text>
<text text-anchor="start" x="1287.5" y="-102.5" font-family="Helvetica,sans-Serif" font-size="10.00">/STORM&#45;IRIT/Radium&#45;Engine</text>
<text text-anchor="middle" x="1379" y="-91.5" font-family="Helvetica,sans-Serif" font-size="10.00">/src/IO/CameraLoader/CameraLoader.cpp</text>
</a>
</g>
</g>
<!-- Node3&#45;&gt;Node11 -->
<g id="edge10" class="edge"><title>Node3&#45;&gt;Node11</title>
<path fill="none" stroke="midnightblue" d="M1379,-164.33C1379,-151.629 1379,-137.14 1379,-125.78"/>
<polygon fill="midnightblue" stroke="midnightblue" points="1375.5,-164.47 1379,-174.47 1382.5,-164.47 1375.5,-164.47"/>
</g>
<!-- Node12 -->
<g id="node12" class="node"><title>Node12</title>
<g id="a_node12"><a xlink:href="TinyPlyFileLoader_8cpp.html" target="_top" xlink:title="/home/travis/build\l/STORM&#45;IRIT/Radium&#45;Engine\l/src/IO/TinyPlyLoader/TinyPlyFile\lLoader.cpp">
<polygon fill="white" stroke="black" points="1497,-79 1497,-131 1661,-131 1661,-79 1497,-79"/>
<text text-anchor="start" x="1505" y="-119" font-family="Helvetica,sans-Serif" font-size="10.00">/home/travis/build</text>
<text text-anchor="start" x="1505" y="-108" font-family="Helvetica,sans-Serif" font-size="10.00">/STORM&#45;IRIT/Radium&#45;Engine</text>
<text text-anchor="start" x="1505" y="-97" font-family="Helvetica,sans-Serif" font-size="10.00">/src/IO/TinyPlyLoader/TinyPlyFile</text>
<text text-anchor="middle" x="1579" y="-86" font-family="Helvetica,sans-Serif" font-size="10.00">Loader.cpp</text>
</a>
</g>
</g>
<!-- Node3&#45;&gt;Node12 -->
<g id="edge11" class="edge"><title>Node3&#45;&gt;Node12</title>
<path fill="none" stroke="midnightblue" d="M1432.89,-170.289C1460.51,-158.135 1494.15,-143.336 1522.18,-131.002"/>
<polygon fill="midnightblue" stroke="midnightblue" points="1431.13,-167.239 1423.39,-174.47 1433.95,-173.646 1431.13,-167.239"/>
</g>
<!-- Node13 -->
<g id="node13" class="node"><title>Node13</title>
<g id="a_node13"><a xlink:href="AnimationSystem_8cpp.html" target="_top" xlink:title="/home/travis/build\l/STORM&#45;IRIT/Radium&#45;Engine\l/Plugins/Animation/src/Animation\lSystem.cpp">
<polygon fill="white" stroke="black" points="2472.5,-79 2472.5,-131 2633.5,-131 2633.5,-79 2472.5,-79"/>
<text text-anchor="start" x="2480.5" y="-119" font-family="Helvetica,sans-Serif" font-size="10.00">/home/travis/build</text>
<text text-anchor="start" x="2480.5" y="-108" font-family="Helvetica,sans-Serif" font-size="10.00">/STORM&#45;IRIT/Radium&#45;Engine</text>
<text text-anchor="start" x="2480.5" y="-97" font-family="Helvetica,sans-Serif" font-size="10.00">/Plugins/Animation/src/Animation</text>
<text text-anchor="middle" x="2553" y="-86" font-family="Helvetica,sans-Serif" font-size="10.00">System.cpp</text>
</a>
</g>
</g>
<!-- Node3&#45;&gt;Node13 -->
<g id="edge12" class="edge"><title>Node3&#45;&gt;Node13</title>
<path fill="none" stroke="midnightblue" d="M1463.06,-177.799C1485.69,-173.988 1510.21,-170.355 1533,-168 1944.45,-125.482 2054.64,-197.885 2463,-132 2466.05,-131.508 2469.14,-130.945 2472.26,-130.326"/>
<polygon fill="midnightblue" stroke="midnightblue" points="1462.41,-174.358 1453.15,-179.498 1463.6,-181.257 1462.41,-174.358"/>
</g>
<!-- Node14 -->
<g id="node14" class="node"><title>Node14</title>
<g id="a_node14"><a xlink:href="FancyMeshComponent_8cpp.html" target="_top" xlink:title="/home/travis/build\l/STORM&#45;IRIT/Radium&#45;Engine\l/Plugins/FancyMesh/src/FancyMesh\lComponent.cpp">
<polygon fill="white" stroke="black" points="1679,-79 1679,-131 1855,-131 1855,-79 1679,-79"/>
<text text-anchor="start" x="1687" y="-119" font-family="Helvetica,sans-Serif" font-size="10.00">/home/travis/build</text>
<text text-anchor="start" x="1687" y="-108" font-family="Helvetica,sans-Serif" font-size="10.00">/STORM&#45;IRIT/Radium&#45;Engine</text>
<text text-anchor="start" x="1687" y="-97" font-family="Helvetica,sans-Serif" font-size="10.00">/Plugins/FancyMesh/src/FancyMesh</text>
<text text-anchor="middle" x="1767" y="-86" font-family="Helvetica,sans-Serif" font-size="10.00">Component.cpp</text>
</a>
</g>
</g>
<!-- Node3&#45;&gt;Node14 -->
<g id="edge13" class="edge"><title>Node3&#45;&gt;Node14</title>
<path fill="none" stroke="midnightblue" d="M1462.99,-177.31C1521.26,-165.436 1600.56,-148.691 1670,-132 1672.88,-131.307 1675.81,-130.592 1678.76,-129.86"/>
<polygon fill="midnightblue" stroke="midnightblue" points="1462.2,-173.899 1453.09,-179.32 1463.59,-180.759 1462.2,-173.899"/>
</g>
<!-- Node15 -->
<g id="node15" class="node"><title>Node15</title>
<g id="a_node15"><a xlink:href="FancyMeshSystem_8cpp.html" target="_top" xlink:title="/home/travis/build\l/STORM&#45;IRIT/Radium&#45;Engine\l/Plugins/FancyMesh/src/FancyMesh\lSystem.cpp">
<polygon fill="white" stroke="black" points="1873,-79 1873,-131 2049,-131 2049,-79 1873,-79"/>
<text text-anchor="start" x="1881" y="-119" font-family="Helvetica,sans-Serif" font-size="10.00">/home/travis/build</text>
<text text-anchor="start" x="1881" y="-108" font-family="Helvetica,sans-Serif" font-size="10.00">/STORM&#45;IRIT/Radium&#45;Engine</text>
<text text-anchor="start" x="1881" y="-97" font-family="Helvetica,sans-Serif" font-size="10.00">/Plugins/FancyMesh/src/FancyMesh</text>
<text text-anchor="middle" x="1961" y="-86" font-family="Helvetica,sans-Serif" font-size="10.00">System.cpp</text>
</a>
</g>
</g>
<!-- Node3&#45;&gt;Node15 -->
<g id="edge14" class="edge"><title>Node3&#45;&gt;Node15</title>
<path fill="none" stroke="midnightblue" d="M1463.19,-178.87C1485.82,-175.054 1510.31,-171.151 1533,-168 1679.14,-147.711 1717.95,-158.993 1863,-132 1866.29,-131.388 1869.63,-130.724 1872.99,-130.018"/>
<polygon fill="midnightblue" stroke="midnightblue" points="1462.55,-175.428 1453.28,-180.555 1463.72,-182.329 1462.55,-175.428"/>
</g>
<!-- Node16 -->
<g id="node16" class="node"><title>Node16</title>
<g id="a_node16"><a xlink:href="MeshPaintSystem_8cpp.html" target="_top" xlink:title="/home/travis/build\l/STORM&#45;IRIT/Radium&#45;Engine\l/Plugins/MeshPaint/src/MeshPaint\lSystem.cpp">
<polygon fill="white" stroke="black" points="2066.5,-79 2066.5,-131 2233.5,-131 2233.5,-79 2066.5,-79"/>
<text text-anchor="start" x="2074.5" y="-119" font-family="Helvetica,sans-Serif" font-size="10.00">/home/travis/build</text>
<text text-anchor="start" x="2074.5" y="-108" font-family="Helvetica,sans-Serif" font-size="10.00">/STORM&#45;IRIT/Radium&#45;Engine</text>
<text text-anchor="start" x="2074.5" y="-97" font-family="Helvetica,sans-Serif" font-size="10.00">/Plugins/MeshPaint/src/MeshPaint</text>
<text text-anchor="middle" x="2150" y="-86" font-family="Helvetica,sans-Serif" font-size="10.00">System.cpp</text>
</a>
</g>
</g>
<!-- Node3&#45;&gt;Node16 -->
<g id="edge15" class="edge"><title>Node3&#45;&gt;Node16</title>
<path fill="none" stroke="midnightblue" d="M1463.11,-178.257C1485.74,-174.444 1510.25,-170.695 1533,-168 1764.82,-140.536 1826.95,-171.632 2057,-132 2060.06,-131.473 2063.16,-130.887 2066.28,-130.253"/>
<polygon fill="midnightblue" stroke="midnightblue" points="1462.47,-174.816 1453.2,-179.951 1463.65,-181.716 1462.47,-174.816"/>
</g>
<!-- Node3&#45;&gt;Node17 -->
<g id="edge16" class="edge"><title>Node3&#45;&gt;Node17</title>
<path fill="none" stroke="midnightblue" d="M1463.08,-177.983C1485.71,-174.172 1510.23,-170.492 1533,-168 1846.64,-133.679 1929.59,-176.156 2242,-132 2253.66,-130.352 2265.9,-128.065 2277.81,-125.526"/>
<polygon fill="midnightblue" stroke="midnightblue" points="1462.43,-174.543 1453.17,-179.681 1463.62,-181.442 1462.43,-174.543"/>
</g>
<!-- Node18 -->
<g id="node18" class="node"><title>Node18</title>
<g id="a_node18"><a xlink:href="SkinningPlugin_8cpp.html" target="_top" xlink:title="/home/travis/build\l/STORM&#45;IRIT/Radium&#45;Engine\l/Plugins/Skinning/src/SkinningPlugin.cpp">
<polygon fill="white" stroke="black" points="2255.5,-0.5 2255.5,-41.5 2450.5,-41.5 2450.5,-0.5 2255.5,-0.5"/>
<text text-anchor="start" x="2263.5" y="-29.5" font-family="Helvetica,sans-Serif" font-size="10.00">/home/travis/build</text>
<text text-anchor="start" x="2263.5" y="-18.5" font-family="Helvetica,sans-Serif" font-size="10.00">/STORM&#45;IRIT/Radium&#45;Engine</text>
<text text-anchor="middle" x="2353" y="-7.5" font-family="Helvetica,sans-Serif" font-size="10.00">/Plugins/Skinning/src/SkinningPlugin.cpp</text>
</a>
</g>
</g>
<!-- Node17&#45;&gt;Node18 -->
<g id="edge17" class="edge"><title>Node17&#45;&gt;Node18</title>
<path fill="none" stroke="midnightblue" d="M2353,-73.881C2353,-63.1328 2353,-51.309 2353,-41.6671"/>
<polygon fill="midnightblue" stroke="midnightblue" points="2349.5,-74.1501 2353,-84.1501 2356.5,-74.1501 2349.5,-74.1501"/>
</g>
<!-- Node20&#45;&gt;Node1 -->
<g id="edge20" class="edge"><title>Node20&#45;&gt;Node1</title>
<path fill="none" stroke="midnightblue" d="M2026.53,-315.916C2026.97,-326.65 2026.75,-338.481 2025.88,-348.15"/>
<polygon fill="midnightblue" stroke="midnightblue" points="2030,-315.42 2025.86,-305.667 2023.02,-315.873 2030,-315.42"/>
</g>
<!-- Node23&#45;&gt;Node13 -->
<g id="edge25" class="edge"><title>Node23&#45;&gt;Node13</title>
<path fill="none" stroke="midnightblue" d="M2644.22,-250.385C2637.88,-241.24 2631.1,-231.294 2625,-222 2604.71,-191.09 2582.41,-154.776 2568.09,-131.123"/>
<polygon fill="midnightblue" stroke="midnightblue" points="2641.54,-252.658 2650.13,-258.859 2647.28,-248.654 2641.54,-252.658"/>
</g>
<!-- Node24 -->
<g id="node24" class="node"><title>Node24</title>
<g id="a_node24"><a xlink:href="AnimationComponent_8cpp.html" target="_top" xlink:title="/home/travis/build\l/STORM&#45;IRIT/Radium&#45;Engine\l/Plugins/Animation/src/Animation\lComponent.cpp">
<polygon fill="white" stroke="black" points="2824.5,-79 2824.5,-131 2985.5,-131 2985.5,-79 2824.5,-79"/>
<text text-anchor="start" x="2832.5" y="-119" font-family="Helvetica,sans-Serif" font-size="10.00">/home/travis/build</text>
<text text-anchor="start" x="2832.5" y="-108" font-family="Helvetica,sans-Serif" font-size="10.00">/STORM&#45;IRIT/Radium&#45;Engine</text>
<text text-anchor="start" x="2832.5" y="-97" font-family="Helvetica,sans-Serif" font-size="10.00">/Plugins/Animation/src/Animation</text>
<text text-anchor="middle" x="2905" y="-86" font-family="Helvetica,sans-Serif" font-size="10.00">Component.cpp</text>
</a>
</g>
</g>
<!-- Node23&#45;&gt;Node24 -->
<g id="edge24" class="edge"><title>Node23&#45;&gt;Node24</title>
<path fill="none" stroke="midnightblue" d="M2741.25,-254.613C2760.22,-245.471 2780.06,-234.469 2797,-222 2832.68,-195.737 2866.2,-156.628 2886.16,-131.217"/>
<polygon fill="midnightblue" stroke="midnightblue" points="2739.58,-251.528 2732.02,-258.949 2742.56,-257.863 2739.58,-251.528"/>
</g>
<!-- Node25 -->
<g id="node25" class="node"><title>Node25</title>
<g id="a_node25"><a xlink:href="SkeletonBoneDrawable_8hpp.html" target="_top" xlink:title="/home/travis/build\l/STORM&#45;IRIT/Radium&#45;Engine\l/Plugins/Animation/src/Drawing\l/SkeletonBoneDrawable.hpp">
<polygon fill="white" stroke="black" points="2634,-169 2634,-221 2788,-221 2788,-169 2634,-169"/>
<text text-anchor="start" x="2642" y="-209" font-family="Helvetica,sans-Serif" font-size="10.00">/home/travis/build</text>
<text text-anchor="start" x="2642" y="-198" font-family="Helvetica,sans-Serif" font-size="10.00">/STORM&#45;IRIT/Radium&#45;Engine</text>
<text text-anchor="start" x="2642" y="-187" font-family="Helvetica,sans-Serif" font-size="10.00">/Plugins/Animation/src/Drawing</text>
<text text-anchor="middle" x="2711" y="-176" font-family="Helvetica,sans-Serif" font-size="10.00">/SkeletonBoneDrawable.hpp</text>
</a>
</g>
</g>
<!-- Node23&#45;&gt;Node25 -->
<g id="edge26" class="edge"><title>Node23&#45;&gt;Node25</title>
<path fill="none" stroke="midnightblue" d="M2684.92,-249.376C2689.53,-239.935 2694.44,-229.891 2698.74,-221.092"/>
<polygon fill="midnightblue" stroke="midnightblue" points="2681.68,-248.025 2680.44,-258.547 2687.97,-251.099 2681.68,-248.025"/>
</g>
<!-- Node25&#45;&gt;Node13 -->
<g id="edge28" class="edge"><title>Node25&#45;&gt;Node13</title>
<path fill="none" stroke="midnightblue" d="M2656.8,-163.815C2637.65,-153.145 2616.32,-141.268 2598.01,-131.069"/>
<polygon fill="midnightblue" stroke="midnightblue" points="2655.28,-166.975 2665.72,-168.783 2658.69,-160.859 2655.28,-166.975"/>
</g>
<!-- Node25&#45;&gt;Node24 -->
<g id="edge27" class="edge"><title>Node25&#45;&gt;Node24</title>
<path fill="none" stroke="midnightblue" d="M2775.7,-164.654C2799.64,-153.792 2826.55,-141.586 2849.59,-131.133"/>
<polygon fill="midnightblue" stroke="midnightblue" points="2773.99,-161.582 2766.33,-168.901 2776.89,-167.957 2773.99,-161.582"/>
</g>
<!-- Node26 -->
<g id="node26" class="node"><title>Node26</title>
<g id="a_node26"><a xlink:href="SkeletonBoneDrawable_8cpp.html" target="_top" xlink:title="/home/travis/build\l/STORM&#45;IRIT/Radium&#45;Engine\l/Plugins/Animation/src/Drawing\l/SkeletonBoneDrawable.cpp">
<polygon fill="white" stroke="black" points="2652,-79 2652,-131 2806,-131 2806,-79 2652,-79"/>
<text text-anchor="start" x="2660" y="-119" font-family="Helvetica,sans-Serif" font-size="10.00">/home/travis/build</text>
<text text-anchor="start" x="2660" y="-108" font-family="Helvetica,sans-Serif" font-size="10.00">/STORM&#45;IRIT/Radium&#45;Engine</text>
<text text-anchor="start" x="2660" y="-97" font-family="Helvetica,sans-Serif" font-size="10.00">/Plugins/Animation/src/Drawing</text>
<text text-anchor="middle" x="2729" y="-86" font-family="Helvetica,sans-Serif" font-size="10.00">/SkeletonBoneDrawable.cpp</text>
</a>
</g>
</g>
<!-- Node25&#45;&gt;Node26 -->
<g id="edge29" class="edge"><title>Node25&#45;&gt;Node26</title>
<path fill="none" stroke="midnightblue" d="M2718.26,-158.489C2720.14,-149.309 2722.12,-139.616 2723.87,-131.092"/>
<polygon fill="midnightblue" stroke="midnightblue" points="2714.78,-158.048 2716.21,-168.547 2721.64,-159.451 2714.78,-158.048"/>
</g>
<!-- Node27&#45;&gt;Node17 -->
<g id="edge32" class="edge"><title>Node27&#45;&gt;Node17</title>
<path fill="none" stroke="midnightblue" d="M1737.86,-261.975C1876.16,-226.909 2144.19,-158.946 2276.01,-125.523"/>
<polygon fill="midnightblue" stroke="midnightblue" points="1736.97,-258.591 1728.13,-264.442 1738.69,-265.376 1736.97,-258.591"/>
</g>
<!-- Node28 -->
<g id="node28" class="node"><title>Node28</title>
<g id="a_node28"><a xlink:href="SkinningComponent_8cpp.html" target="_top" xlink:title="/home/travis/build\l/STORM&#45;IRIT/Radium&#45;Engine\l/Plugins/Skinning/src/SkinningComponent.cpp">
<polygon fill="white" stroke="black" points="1542,-174.5 1542,-215.5 1760,-215.5 1760,-174.5 1542,-174.5"/>
<text text-anchor="start" x="1550" y="-203.5" font-family="Helvetica,sans-Serif" font-size="10.00">/home/travis/build</text>
<text text-anchor="start" x="1550" y="-192.5" font-family="Helvetica,sans-Serif" font-size="10.00">/STORM&#45;IRIT/Radium&#45;Engine</text>
<text text-anchor="middle" x="1651" y="-181.5" font-family="Helvetica,sans-Serif" font-size="10.00">/Plugins/Skinning/src/SkinningComponent.cpp</text>
</a>
</g>
</g>
<!-- Node27&#45;&gt;Node28 -->
<g id="edge31" class="edge"><title>Node27&#45;&gt;Node28</title>
<path fill="none" stroke="midnightblue" d="M1651,-254.33C1651,-241.629 1651,-227.14 1651,-215.78"/>
<polygon fill="midnightblue" stroke="midnightblue" points="1647.5,-254.47 1651,-264.47 1654.5,-254.47 1647.5,-254.47"/>
</g>
</g>
</svg>
