<?xml version="1.0" encoding="UTF-8" standalone="no"?>
<!DOCTYPE svg PUBLIC "-//W3C//DTD SVG 1.1//EN"
 "http://www.w3.org/Graphics/SVG/1.1/DTD/svg11.dtd">
<!-- Generated by graphviz version 2.36.0 (20140111.2315)
 -->
<!-- Title: /home/travis/build/STORM&#45;IRIT/Radium&#45;Engine/src/Core/File/HandleData.inl Pages: 1 -->
<svg width="2993pt" height="476pt"
 viewBox="0.00 0.00 2993.00 476.00" xmlns="http://www.w3.org/2000/svg" xmlns:xlink="http://www.w3.org/1999/xlink">
<g id="graph0" class="graph" transform="scale(1 1) rotate(0) translate(4 472)">
<title>/home/travis/build/STORM&#45;IRIT/Radium&#45;Engine/src/Core/File/HandleData.inl</title>
<polygon fill="white" stroke="none" points="-4,4 -4,-472 2989,-472 2989,4 -4,4"/>
<!-- Node1 -->
<g id="node1" class="node"><title>Node1</title>
<polygon fill="#bfbfbf" stroke="black" points="1933,-426.5 1933,-467.5 2081,-467.5 2081,-426.5 1933,-426.5"/>
<text text-anchor="start" x="1941" y="-455.5" font-family="Helvetica,sans-Serif" font-size="10.00">/home/travis/build</text>
<text text-anchor="start" x="1941" y="-444.5" font-family="Helvetica,sans-Serif" font-size="10.00">/STORM&#45;IRIT/Radium&#45;Engine</text>
<text text-anchor="middle" x="2007" y="-433.5" font-family="Helvetica,sans-Serif" font-size="10.00">/src/Core/File/HandleData.inl</text>
</g>
<!-- Node2 -->
<g id="node2" class="node"><title>Node2</title>
<g id="a_node2"><a xlink:href="HandleData_8hpp.html" target="_top" xlink:title="/home/travis/build\l/STORM&#45;IRIT/Radium&#45;Engine\l/src/Core/File/HandleData.hpp">
<polygon fill="white" stroke="black" points="1932.5,-348.5 1932.5,-389.5 2081.5,-389.5 2081.5,-348.5 1932.5,-348.5"/>
<text text-anchor="start" x="1940.5" y="-377.5" font-family="Helvetica,sans-Serif" font-size="10.00">/home/travis/build</text>
<text text-anchor="start" x="1940.5" y="-366.5" font-family="Helvetica,sans-Serif" font-size="10.00">/STORM&#45;IRIT/Radium&#45;Engine</text>
<text text-anchor="middle" x="2007" y="-355.5" font-family="Helvetica,sans-Serif" font-size="10.00">/src/Core/File/HandleData.hpp</text>
</a>
</g>
</g>
<!-- Node1&#45;&gt;Node2 -->
<g id="edge1" class="edge"><title>Node1&#45;&gt;Node2</title>
<path fill="none" stroke="midnightblue" d="M2000.4,-416.297C2000.08,-407.301 2000.28,-397.653 2001.02,-389.506"/>
<polygon fill="midnightblue" stroke="midnightblue" points="1996.91,-416.659 2001.01,-426.428 2003.9,-416.234 1996.91,-416.659"/>
</g>
<!-- Node2&#45;&gt;Node1 -->
<g id="edge20" class="edge"><title>Node2&#45;&gt;Node1</title>
<path fill="none" stroke="midnightblue" d="M2013.6,-399.63C2013.92,-408.622 2013.72,-418.272 2012.99,-426.428"/>
<polygon fill="midnightblue" stroke="midnightblue" points="2017.09,-399.273 2012.98,-389.506 2010.1,-399.701 2017.09,-399.273"/>
</g>
<!-- Node3 -->
<g id="node3" class="node"><title>Node3</title>
<g id="a_node3"><a xlink:href="FileData_8inl.html" target="_top" xlink:title="/home/travis/build\l/STORM&#45;IRIT/Radium&#45;Engine\l/src/Core/File/FileData.inl">
<polygon fill="white" stroke="black" points="1427,-264.5 1427,-305.5 1575,-305.5 1575,-264.5 1427,-264.5"/>
<text text-anchor="start" x="1435" y="-293.5" font-family="Helvetica,sans-Serif" font-size="10.00">/home/travis/build</text>
<text text-anchor="start" x="1435" y="-282.5" font-family="Helvetica,sans-Serif" font-size="10.00">/STORM&#45;IRIT/Radium&#45;Engine</text>
<text text-anchor="middle" x="1501" y="-271.5" font-family="Helvetica,sans-Serif" font-size="10.00">/src/Core/File/FileData.inl</text>
</a>
</g>
</g>
<!-- Node2&#45;&gt;Node3 -->
<g id="edge2" class="edge"><title>Node2&#45;&gt;Node3</title>
<path fill="none" stroke="midnightblue" d="M1922.26,-354.268C1825.16,-338.532 1667.56,-312.993 1575.14,-298.015"/>
<polygon fill="midnightblue" stroke="midnightblue" points="1921.91,-357.756 1932.34,-355.901 1923.03,-350.846 1921.91,-357.756"/>
</g>
<!-- Node18 -->
<g id="node18" class="node"><title>Node18</title>
<g id="a_node18"><a xlink:href="SkinningSystem_8hpp.html" target="_top" xlink:title="/home/travis/build\l/STORM&#45;IRIT/Radium&#45;Engine\l/Plugins/Skinning/src/SkinningSystem.hpp">
<polygon fill="white" stroke="black" points="2252,-84.5 2252,-125.5 2454,-125.5 2454,-84.5 2252,-84.5"/>
<text text-anchor="start" x="2260" y="-113.5" font-family="Helvetica,sans-Serif" font-size="10.00">/home/travis/build</text>
<text text-anchor="start" x="2260" y="-102.5" font-family="Helvetica,sans-Serif" font-size="10.00">/STORM&#45;IRIT/Radium&#45;Engine</text>
<text text-anchor="middle" x="2353" y="-91.5" font-family="Helvetica,sans-Serif" font-size="10.00">/Plugins/Skinning/src/SkinningSystem.hpp</text>
</a>
</g>
</g>
<!-- Node2&#45;&gt;Node18 -->
<g id="edge33" class="edge"><title>Node2&#45;&gt;Node18</title>
<path fill="none" stroke="midnightblue" d="M1922.5,-361.53C1853.74,-354.302 1764.51,-339.764 1742,-312 1726.89,-293.357 1727.22,-276.908 1742,-258 1746.15,-252.692 2106.64,-165.324 2271.89,-125.503"/>
<polygon fill="midnightblue" stroke="midnightblue" points="1922.19,-365.016 1932.49,-362.545 1922.9,-358.052 1922.19,-365.016"/>
</g>
<!-- Node20 -->
<g id="node20" class="node"><title>Node20</title>
<g id="a_node20"><a xlink:href="HandleData_8cpp.html" target="_top" xlink:title="/home/travis/build\l/STORM&#45;IRIT/Radium&#45;Engine\l/src/Core/File/HandleData.cpp">
<polygon fill="white" stroke="black" points="1751.5,-264.5 1751.5,-305.5 1900.5,-305.5 1900.5,-264.5 1751.5,-264.5"/>
<text text-anchor="start" x="1759.5" y="-293.5" font-family="Helvetica,sans-Serif" font-size="10.00">/home/travis/build</text>
<text text-anchor="start" x="1759.5" y="-282.5" font-family="Helvetica,sans-Serif" font-size="10.00">/STORM&#45;IRIT/Radium&#45;Engine</text>
<text text-anchor="middle" x="1826" y="-271.5" font-family="Helvetica,sans-Serif" font-size="10.00">/src/Core/File/HandleData.cpp</text>
</a>
</g>
</g>
<!-- Node2&#45;&gt;Node20 -->
<g id="edge19" class="edge"><title>Node2&#45;&gt;Node20</title>
<path fill="none" stroke="midnightblue" d="M1954.34,-344.144C1927.34,-331.909 1894.85,-317.19 1869.31,-305.623"/>
<polygon fill="midnightblue" stroke="midnightblue" points="1953.09,-347.42 1963.65,-348.359 1955.98,-341.044 1953.09,-347.42"/>
</g>
<!-- Node21 -->
<g id="node21" class="node"><title>Node21</title>
<g id="a_node21"><a xlink:href="HandleToSkeleton_8cpp.html" target="_top" xlink:title="/home/travis/build\l/STORM&#45;IRIT/Radium&#45;Engine\l/src/Core/File/HandleToSkeleton.cpp">
<polygon fill="white" stroke="black" points="1918,-264.5 1918,-305.5 2096,-305.5 2096,-264.5 1918,-264.5"/>
<text text-anchor="start" x="1926" y="-293.5" font-family="Helvetica,sans-Serif" font-size="10.00">/home/travis/build</text>
<text text-anchor="start" x="1926" y="-282.5" font-family="Helvetica,sans-Serif" font-size="10.00">/STORM&#45;IRIT/Radium&#45;Engine</text>
<text text-anchor="middle" x="2007" y="-271.5" font-family="Helvetica,sans-Serif" font-size="10.00">/src/Core/File/HandleToSkeleton.cpp</text>
</a>
</g>
</g>
<!-- Node2&#45;&gt;Node21 -->
<g id="edge21" class="edge"><title>Node2&#45;&gt;Node21</title>
<path fill="none" stroke="midnightblue" d="M2007,-337.881C2007,-327.133 2007,-315.309 2007,-305.667"/>
<polygon fill="midnightblue" stroke="midnightblue" points="2003.5,-338.15 2007,-348.15 2010.5,-338.15 2003.5,-338.15"/>
</g>
<!-- Node22 -->
<g id="node22" class="node"><title>Node22</title>
<g id="a_node22"><a xlink:href="AssimpHandleDataLoader_8cpp.html" target="_top" xlink:title="/home/travis/build\l/STORM&#45;IRIT/Radium&#45;Engine\l/src/IO/AssimpLoader/AssimpHandle\lDataLoader.cpp">
<polygon fill="white" stroke="black" points="2114.5,-259 2114.5,-311 2293.5,-311 2293.5,-259 2114.5,-259"/>
<text text-anchor="start" x="2122.5" y="-299" font-family="Helvetica,sans-Serif" font-size="10.00">/home/travis/build</text>
<text text-anchor="start" x="2122.5" y="-288" font-family="Helvetica,sans-Serif" font-size="10.00">/STORM&#45;IRIT/Radium&#45;Engine</text>
<text text-anchor="start" x="2122.5" y="-277" font-family="Helvetica,sans-Serif" font-size="10.00">/src/IO/AssimpLoader/AssimpHandle</text>
<text text-anchor="middle" x="2204" y="-266" font-family="Helvetica,sans-Serif" font-size="10.00">DataLoader.cpp</text>
</a>
</g>
</g>
<!-- Node2&#45;&gt;Node22 -->
<g id="edge22" class="edge"><title>Node2&#45;&gt;Node22</title>
<path fill="none" stroke="midnightblue" d="M2063.32,-344.557C2088.43,-334.106 2118.04,-321.78 2143.61,-311.138"/>
<polygon fill="midnightblue" stroke="midnightblue" points="2061.82,-341.389 2053.94,-348.463 2064.51,-347.852 2061.82,-341.389"/>
</g>
<!-- Node23 -->
<g id="node23" class="node"><title>Node23</title>
<g id="a_node23"><a xlink:href="AnimationComponent_8hpp.html" target="_top" xlink:title="/home/travis/build\l/STORM&#45;IRIT/Radium&#45;Engine\l/Plugins/Animation/src/Animation\lComponent.hpp">
<polygon fill="white" stroke="black" points="2582.5,-259 2582.5,-311 2743.5,-311 2743.5,-259 2582.5,-259"/>
<text text-anchor="start" x="2590.5" y="-299" font-family="Helvetica,sans-Serif" font-size="10.00">/home/travis/build</text>
<text text-anchor="start" x="2590.5" y="-288" font-family="Helvetica,sans-Serif" font-size="10.00">/STORM&#45;IRIT/Radium&#45;Engine</text>
<text text-anchor="start" x="2590.5" y="-277" font-family="Helvetica,sans-Serif" font-size="10.00">/Plugins/Animation/src/Animation</text>
<text text-anchor="middle" x="2663" y="-266" font-family="Helvetica,sans-Serif" font-size="10.00">Component.hpp</text>
</a>
</g>
</g>
<!-- Node2&#45;&gt;Node23 -->
<g id="edge23" class="edge"><title>Node2&#45;&gt;Node23</title>
<path fill="none" stroke="midnightblue" d="M2092.02,-361.736C2197.33,-353.359 2382.06,-336.647 2539,-312 2553.02,-309.799 2567.84,-307.056 2582.18,-304.185"/>
<polygon fill="midnightblue" stroke="midnightblue" points="2091.46,-358.269 2081.76,-362.545 2092.01,-365.247 2091.46,-358.269"/>
</g>
<!-- Node27 -->
<g id="node27" class="node"><title>Node27</title>
<g id="a_node27"><a xlink:href="SkinningComponent_8hpp.html" target="_top" xlink:title="/home/travis/build\l/STORM&#45;IRIT/Radium&#45;Engine\l/Plugins/Skinning/src/SkinningComponent.hpp">
<polygon fill="white" stroke="black" points="2312,-264.5 2312,-305.5 2530,-305.5 2530,-264.5 2312,-264.5"/>
<text text-anchor="start" x="2320" y="-293.5" font-family="Helvetica,sans-Serif" font-size="10.00">/home/travis/build</text>
<text text-anchor="start" x="2320" y="-282.5" font-family="Helvetica,sans-Serif" font-size="10.00">/STORM&#45;IRIT/Radium&#45;Engine</text>
<text text-anchor="middle" x="2421" y="-271.5" font-family="Helvetica,sans-Serif" font-size="10.00">/Plugins/Skinning/src/SkinningComponent.hpp</text>
</a>
</g>
</g>
<!-- Node2&#45;&gt;Node27 -->
<g id="edge30" class="edge"><title>Node2&#45;&gt;Node27</title>
<path fill="none" stroke="midnightblue" d="M2091.7,-352.561C2150.73,-341.644 2231.26,-326.438 2302,-312 2312.05,-309.949 2322.56,-307.742 2333,-305.511"/>
<polygon fill="midnightblue" stroke="midnightblue" points="2090.87,-349.154 2081.67,-354.411 2092.14,-356.037 2090.87,-349.154"/>
</g>
<!-- Node4 -->
<g id="node4" class="node"><title>Node4</title>
<g id="a_node4"><a xlink:href="FileData_8hpp.html" target="_top" xlink:title="/home/travis/build\l/STORM&#45;IRIT/Radium&#45;Engine\l/src/Core/File/FileData.hpp">
<polygon fill="white" stroke="black" points="1305,-174.5 1305,-215.5 1453,-215.5 1453,-174.5 1305,-174.5"/>
<text text-anchor="start" x="1313" y="-203.5" font-family="Helvetica,sans-Serif" font-size="10.00">/home/travis/build</text>
<text text-anchor="start" x="1313" y="-192.5" font-family="Helvetica,sans-Serif" font-size="10.00">/STORM&#45;IRIT/Radium&#45;Engine</text>
<text text-anchor="middle" x="1379" y="-181.5" font-family="Helvetica,sans-Serif" font-size="10.00">/src/Core/File/FileData.hpp</text>
</a>
</g>
</g>
<!-- Node3&#45;&gt;Node4 -->
<g id="edge3" class="edge"><title>Node3&#45;&gt;Node4</title>
<path fill="none" stroke="midnightblue" d="M1465.58,-258.45C1446.73,-244.854 1423.9,-228.39 1406.42,-215.78"/>
<polygon fill="midnightblue" stroke="midnightblue" points="1463.77,-261.458 1473.92,-264.47 1467.86,-255.781 1463.77,-261.458"/>
</g>
<!-- Node5 -->
<g id="node5" class="node"><title>Node5</title>
<g id="a_node5"><a xlink:href="FileData_8cpp.html" target="_top" xlink:title="/home/travis/build\l/STORM&#45;IRIT/Radium&#45;Engine\l/src/Core/File/FileData.cpp">
<polygon fill="white" stroke="black" points="0,-84.5 0,-125.5 148,-125.5 148,-84.5 0,-84.5"/>
<text text-anchor="start" x="8" y="-113.5" font-family="Helvetica,sans-Serif" font-size="10.00">/home/travis/build</text>
<text text-anchor="start" x="8" y="-102.5" font-family="Helvetica,sans-Serif" font-size="10.00">/STORM&#45;IRIT/Radium&#45;Engine</text>
<text text-anchor="middle" x="74" y="-91.5" font-family="Helvetica,sans-Serif" font-size="10.00">/src/Core/File/FileData.cpp</text>
</a>
</g>
</g>
<!-- Node4&#45;&gt;Node5 -->
<g id="edge4" class="edge"><title>Node4&#45;&gt;Node5</title>
<path fill="none" stroke="midnightblue" d="M1294.76,-192.495C1055.7,-187.784 376.154,-171.23 157,-132 148.082,-130.404 138.784,-128.127 129.776,-125.577"/>
<polygon fill="midnightblue" stroke="midnightblue" points="1294.72,-195.995 1304.79,-192.691 1294.86,-188.996 1294.72,-195.995"/>
</g>
<!-- Node6 -->
<g id="node6" class="node"><title>Node6</title>
<g id="a_node6"><a xlink:href="CameraManager_8cpp.html" target="_top" xlink:title="/home/travis/build\l/STORM&#45;IRIT/Radium&#45;Engine\l/src/Engine/Managers/CameraManager\l/CameraManager.cpp">
<polygon fill="white" stroke="black" points="166.5,-79 166.5,-131 353.5,-131 353.5,-79 166.5,-79"/>
<text text-anchor="start" x="174.5" y="-119" font-family="Helvetica,sans-Serif" font-size="10.00">/home/travis/build</text>
<text text-anchor="start" x="174.5" y="-108" font-family="Helvetica,sans-Serif" font-size="10.00">/STORM&#45;IRIT/Radium&#45;Engine</text>
<text text-anchor="start" x="174.5" y="-97" font-family="Helvetica,sans-Serif" font-size="10.00">/src/Engine/Managers/CameraManager</text>
<text text-anchor="middle" x="260" y="-86" font-family="Helvetica,sans-Serif" font-size="10.00">/CameraManager.cpp</text>
</a>
</g>
</g>
<!-- Node4&#45;&gt;Node6 -->
<g id="edge5" class="edge"><title>Node4&#45;&gt;Node6</title>
<path fill="none" stroke="midnightblue" d="M1294.62,-194.216C1119.62,-193.488 704.914,-185.665 362,-132 359.202,-131.562 356.368,-131.082 353.514,-130.566"/>
<polygon fill="midnightblue" stroke="midnightblue" points="1294.78,-197.716 1304.79,-194.251 1294.8,-190.716 1294.78,-197.716"/>
</g>
<!-- Node7 -->
<g id="node7" class="node"><title>Node7</title>
<g id="a_node7"><a xlink:href="LightManager_8cpp.html" target="_top" xlink:title="/home/travis/build\l/STORM&#45;IRIT/Radium&#45;Engine\l/src/Engine/Managers/LightManager\l/LightManager.cpp">
<polygon fill="white" stroke="black" points="371.5,-79 371.5,-131 544.5,-131 544.5,-79 371.5,-79"/>
<text text-anchor="start" x="379.5" y="-119" font-family="Helvetica,sans-Serif" font-size="10.00">/home/travis/build</text>
<text text-anchor="start" x="379.5" y="-108" font-family="Helvetica,sans-Serif" font-size="10.00">/STORM&#45;IRIT/Radium&#45;Engine</text>
<text text-anchor="start" x="379.5" y="-97" font-family="Helvetica,sans-Serif" font-size="10.00">/src/Engine/Managers/LightManager</text>
<text text-anchor="middle" x="458" y="-86" font-family="Helvetica,sans-Serif" font-size="10.00">/LightManager.cpp</text>
</a>
</g>
</g>
<!-- Node4&#45;&gt;Node7 -->
<g id="edge6" class="edge"><title>Node4&#45;&gt;Node7</title>
<path fill="none" stroke="midnightblue" d="M1294.69,-192.92C1144.67,-189.833 821.955,-177.927 554,-132 550.937,-131.475 547.829,-130.895 544.7,-130.271"/>
<polygon fill="midnightblue" stroke="midnightblue" points="1294.69,-196.42 1304.75,-193.119 1294.83,-189.422 1294.69,-196.42"/>
</g>
<!-- Node8 -->
<g id="node8" class="node"><title>Node8</title>
<g id="a_node8"><a xlink:href="RadiumEngine_8cpp.html" target="_top" xlink:title="/home/travis/build\l/STORM&#45;IRIT/Radium&#45;Engine\l/src/Engine/RadiumEngine.cpp">
<polygon fill="white" stroke="black" points="563,-84.5 563,-125.5 715,-125.5 715,-84.5 563,-84.5"/>
<text text-anchor="start" x="571" y="-113.5" font-family="Helvetica,sans-Serif" font-size="10.00">/home/travis/build</text>
<text text-anchor="start" x="571" y="-102.5" font-family="Helvetica,sans-Serif" font-size="10.00">/STORM&#45;IRIT/Radium&#45;Engine</text>
<text text-anchor="middle" x="639" y="-91.5" font-family="Helvetica,sans-Serif" font-size="10.00">/src/Engine/RadiumEngine.cpp</text>
</a>
</g>
</g>
<!-- Node4&#45;&gt;Node8 -->
<g id="edge7" class="edge"><title>Node4&#45;&gt;Node8</title>
<path fill="none" stroke="midnightblue" d="M1294.31,-191.453C1168.72,-186.448 926.161,-172.057 724,-132 715.372,-130.29 706.372,-128.053 697.593,-125.608"/>
<polygon fill="midnightblue" stroke="midnightblue" points="1294.49,-194.963 1304.62,-191.854 1294.77,-187.968 1294.49,-194.963"/>
</g>
<!-- Node9 -->
<g id="node9" class="node"><title>Node9</title>
<g id="a_node9"><a xlink:href="Renderer_8cpp.html" target="_top" xlink:title="/home/travis/build\l/STORM&#45;IRIT/Radium&#45;Engine\l/src/Engine/Renderer/Renderer.cpp">
<polygon fill="white" stroke="black" points="733,-84.5 733,-125.5 903,-125.5 903,-84.5 733,-84.5"/>
<text text-anchor="start" x="741" y="-113.5" font-family="Helvetica,sans-Serif" font-size="10.00">/home/travis/build</text>
<text text-anchor="start" x="741" y="-102.5" font-family="Helvetica,sans-Serif" font-size="10.00">/STORM&#45;IRIT/Radium&#45;Engine</text>
<text text-anchor="middle" x="818" y="-91.5" font-family="Helvetica,sans-Serif" font-size="10.00">/src/Engine/Renderer/Renderer.cpp</text>
</a>
</g>
</g>
<!-- Node4&#45;&gt;Node9 -->
<g id="edge8" class="edge"><title>Node4&#45;&gt;Node9</title>
<path fill="none" stroke="midnightblue" d="M1294.85,-186.356C1200.9,-177.006 1044.61,-159.009 912,-132 902.958,-130.158 893.505,-127.922 884.227,-125.544"/>
<polygon fill="midnightblue" stroke="midnightblue" points="1294.58,-189.846 1304.87,-187.344 1295.26,-182.88 1294.58,-189.846"/>
</g>
<!-- Node10 -->
<g id="node10" class="node"><title>Node10</title>
<g id="a_node10"><a xlink:href="Viewer_8cpp.html" target="_top" xlink:title="/home/travis/build\l/STORM&#45;IRIT/Radium&#45;Engine\l/src/GuiBase/Viewer/Viewer.cpp">
<polygon fill="white" stroke="black" points="921,-84.5 921,-125.5 1079,-125.5 1079,-84.5 921,-84.5"/>
<text text-anchor="start" x="929" y="-113.5" font-family="Helvetica,sans-Serif" font-size="10.00">/home/travis/build</text>
<text text-anchor="start" x="929" y="-102.5" font-family="Helvetica,sans-Serif" font-size="10.00">/STORM&#45;IRIT/Radium&#45;Engine</text>
<text text-anchor="middle" x="1000" y="-91.5" font-family="Helvetica,sans-Serif" font-size="10.00">/src/GuiBase/Viewer/Viewer.cpp</text>
</a>
</g>
</g>
<!-- Node4&#45;&gt;Node10 -->
<g id="edge9" class="edge"><title>Node4&#45;&gt;Node10</title>
<path fill="none" stroke="midnightblue" d="M1294.87,-177.868C1236.54,-166.246 1157.22,-149.571 1088,-132 1080.28,-130.04 1072.22,-127.854 1064.24,-125.605"/>
<polygon fill="midnightblue" stroke="midnightblue" points="1294.29,-181.321 1304.78,-179.834 1295.65,-174.455 1294.29,-181.321"/>
</g>
<!-- Node11 -->
<g id="node11" class="node"><title>Node11</title>
<g id="a_node11"><a xlink:href="AssimpFileLoader_8cpp.html" target="_top" xlink:title="/home/travis/build\l/STORM&#45;IRIT/Radium&#45;Engine\l/src/IO/AssimpLoader/AssimpFile\lLoader.cpp">
<polygon fill="white" stroke="black" points="1097,-79 1097,-131 1261,-131 1261,-79 1097,-79"/>
<text text-anchor="start" x="1105" y="-119" font-family="Helvetica,sans-Serif" font-size="10.00">/home/travis/build</text>
<text text-anchor="start" x="1105" y="-108" font-family="Helvetica,sans-Serif" font-size="10.00">/STORM&#45;IRIT/Radium&#45;Engine</text>
<text text-anchor="start" x="1105" y="-97" font-family="Helvetica,sans-Serif" font-size="10.00">/src/IO/AssimpLoader/AssimpFile</text>
<text text-anchor="middle" x="1179" y="-86" font-family="Helvetica,sans-Serif" font-size="10.00">Loader.cpp</text>
</a>
</g>
</g>
<!-- Node4&#45;&gt;Node11 -->
<g id="edge10" class="edge"><title>Node4&#45;&gt;Node11</title>
<path fill="none" stroke="midnightblue" d="M1325.11,-170.289C1297.49,-158.135 1263.85,-143.336 1235.82,-131.002"/>
<polygon fill="midnightblue" stroke="midnightblue" points="1324.05,-173.646 1334.61,-174.47 1326.87,-167.239 1324.05,-173.646"/>
</g>
<!-- Node12 -->
<g id="node12" class="node"><title>Node12</title>
<g id="a_node12"><a xlink:href="CameraLoader_8cpp.html" target="_top" xlink:title="/home/travis/build\l/STORM&#45;IRIT/Radium&#45;Engine\l/src/IO/CameraLoader/CameraLoader.cpp">
<polygon fill="white" stroke="black" points="1279.5,-84.5 1279.5,-125.5 1478.5,-125.5 1478.5,-84.5 1279.5,-84.5"/>
<text text-anchor="start" x="1287.5" y="-113.5" font-family="Helvetica,sans-Serif" font-size="10.00">/home/travis/build</text>
<text text-anchor="start" x="1287.5" y="-102.5" font-family="Helvetica,sans-Serif" font-size="10.00">/STORM&#45;IRIT/Radium&#45;Engine</text>
<text text-anchor="middle" x="1379" y="-91.5" font-family="Helvetica,sans-Serif" font-size="10.00">/src/IO/CameraLoader/CameraLoader.cpp</text>
</a>
</g>
</g>
<!-- Node4&#45;&gt;Node12 -->
<g id="edge11" class="edge"><title>Node4&#45;&gt;Node12</title>
<path fill="none" stroke="midnightblue" d="M1379,-164.33C1379,-151.629 1379,-137.14 1379,-125.78"/>
<polygon fill="midnightblue" stroke="midnightblue" points="1375.5,-164.47 1379,-174.47 1382.5,-164.47 1375.5,-164.47"/>
</g>
<!-- Node13 -->
<g id="node13" class="node"><title>Node13</title>
<g id="a_node13"><a xlink:href="TinyPlyFileLoader_8cpp.html" target="_top" xlink:title="/home/travis/build\l/STORM&#45;IRIT/Radium&#45;Engine\l/src/IO/TinyPlyLoader/TinyPlyFile\lLoader.cpp">
<polygon fill="white" stroke="black" points="1497,-79 1497,-131 1661,-131 1661,-79 1497,-79"/>
<text text-anchor="start" x="1505" y="-119" font-family="Helvetica,sans-Serif" font-size="10.00">/home/travis/build</text>
<text text-anchor="start" x="1505" y="-108" font-family="Helvetica,sans-Serif" font-size="10.00">/STORM&#45;IRIT/Radium&#45;Engine</text>
<text text-anchor="start" x="1505" y="-97" font-family="Helvetica,sans-Serif" font-size="10.00">/src/IO/TinyPlyLoader/TinyPlyFile</text>
<text text-anchor="middle" x="1579" y="-86" font-family="Helvetica,sans-Serif" font-size="10.00">Loader.cpp</text>
</a>
</g>
</g>
<!-- Node4&#45;&gt;Node13 -->
<g id="edge12" class="edge"><title>Node4&#45;&gt;Node13</title>
<path fill="none" stroke="midnightblue" d="M1432.89,-170.289C1460.51,-158.135 1494.15,-143.336 1522.18,-131.002"/>
<polygon fill="midnightblue" stroke="midnightblue" points="1431.13,-167.239 1423.39,-174.47 1433.95,-173.646 1431.13,-167.239"/>
</g>
<!-- Node14 -->
<g id="node14" class="node"><title>Node14</title>
<g id="a_node14"><a xlink:href="AnimationSystem_8cpp.html" target="_top" xlink:title="/home/travis/build\l/STORM&#45;IRIT/Radium&#45;Engine\l/Plugins/Animation/src/Animation\lSystem.cpp">
<polygon fill="white" stroke="black" points="2472.5,-79 2472.5,-131 2633.5,-131 2633.5,-79 2472.5,-79"/>
<text text-anchor="start" x="2480.5" y="-119" font-family="Helvetica,sans-Serif" font-size="10.00">/home/travis/build</text>
<text text-anchor="start" x="2480.5" y="-108" font-family="Helvetica,sans-Serif" font-size="10.00">/STORM&#45;IRIT/Radium&#45;Engine</text>
<text text-anchor="start" x="2480.5" y="-97" font-family="Helvetica,sans-Serif" font-size="10.00">/Plugins/Animation/src/Animation</text>
<text text-anchor="middle" x="2553" y="-86" font-family="Helvetica,sans-Serif" font-size="10.00">System.cpp</text>
</a>
</g>
</g>
<!-- Node4&#45;&gt;Node14 -->
<g id="edge13" class="edge"><title>Node4&#45;&gt;Node14</title>
<path fill="none" stroke="midnightblue" d="M1463.48,-191.615C1683.64,-185.009 2271.18,-164.767 2463,-132 2466.05,-131.48 2469.14,-130.893 2472.25,-130.254"/>
<polygon fill="midnightblue" stroke="midnightblue" points="1463.17,-188.123 1453.28,-191.92 1463.38,-195.12 1463.17,-188.123"/>
</g>
<!-- Node15 -->
<g id="node15" class="node"><title>Node15</title>
<g id="a_node15"><a xlink:href="FancyMeshComponent_8cpp.html" target="_top" xlink:title="/home/travis/build\l/STORM&#45;IRIT/Radium&#45;Engine\l/Plugins/FancyMesh/src/FancyMesh\lComponent.cpp">
<polygon fill="white" stroke="black" points="1679,-79 1679,-131 1855,-131 1855,-79 1679,-79"/>
<text text-anchor="start" x="1687" y="-119" font-family="Helvetica,sans-Serif" font-size="10.00">/home/travis/build</text>
<text text-anchor="start" x="1687" y="-108" font-family="Helvetica,sans-Serif" font-size="10.00">/STORM&#45;IRIT/Radium&#45;Engine</text>
<text text-anchor="start" x="1687" y="-97" font-family="Helvetica,sans-Serif" font-size="10.00">/Plugins/FancyMesh/src/FancyMesh</text>
<text text-anchor="middle" x="1767" y="-86" font-family="Helvetica,sans-Serif" font-size="10.00">Component.cpp</text>
</a>
</g>
</g>
<!-- Node4&#45;&gt;Node15 -->
<g id="edge14" class="edge"><title>Node4&#45;&gt;Node15</title>
<path fill="none" stroke="midnightblue" d="M1462.99,-177.31C1521.26,-165.436 1600.56,-148.691 1670,-132 1672.88,-131.307 1675.81,-130.592 1678.76,-129.86"/>
<polygon fill="midnightblue" stroke="midnightblue" points="1462.2,-173.899 1453.09,-179.32 1463.59,-180.759 1462.2,-173.899"/>
</g>
<!-- Node16 -->
<g id="node16" class="node"><title>Node16</title>
<g id="a_node16"><a xlink:href="FancyMeshSystem_8cpp.html" target="_top" xlink:title="/home/travis/build\l/STORM&#45;IRIT/Radium&#45;Engine\l/Plugins/FancyMesh/src/FancyMesh\lSystem.cpp">
<polygon fill="white" stroke="black" points="1873,-79 1873,-131 2049,-131 2049,-79 1873,-79"/>
<text text-anchor="start" x="1881" y="-119" font-family="Helvetica,sans-Serif" font-size="10.00">/home/travis/build</text>
<text text-anchor="start" x="1881" y="-108" font-family="Helvetica,sans-Serif" font-size="10.00">/STORM&#45;IRIT/Radium&#45;Engine</text>
<text text-anchor="start" x="1881" y="-97" font-family="Helvetica,sans-Serif" font-size="10.00">/Plugins/FancyMesh/src/FancyMesh</text>
<text text-anchor="middle" x="1961" y="-86" font-family="Helvetica,sans-Serif" font-size="10.00">System.cpp</text>
</a>
</g>
</g>
<!-- Node4&#45;&gt;Node16 -->
<g id="edge15" class="edge"><title>Node4&#45;&gt;Node16</title>
<path fill="none" stroke="midnightblue" d="M1463.33,-186.602C1560.33,-177.306 1724.09,-159.2 1863,-132 1866.28,-131.357 1869.62,-130.667 1872.98,-129.939"/>
<polygon fill="midnightblue" stroke="midnightblue" points="1462.91,-183.126 1453.28,-187.555 1463.57,-190.094 1462.91,-183.126"/>
</g>
<!-- Node17 -->
<g id="node17" class="node"><title>Node17</title>
<g id="a_node17"><a xlink:href="MeshPaintSystem_8cpp.html" target="_top" xlink:title="/home/travis/build\l/STORM&#45;IRIT/Radium&#45;Engine\l/Plugins/MeshPaint/src/MeshPaint\lSystem.cpp">
<polygon fill="white" stroke="black" points="2066.5,-79 2066.5,-131 2233.5,-131 2233.5,-79 2066.5,-79"/>
<text text-anchor="start" x="2074.5" y="-119" font-family="Helvetica,sans-Serif" font-size="10.00">/home/travis/build</text>
<text text-anchor="start" x="2074.5" y="-108" font-family="Helvetica,sans-Serif" font-size="10.00">/STORM&#45;IRIT/Radium&#45;Engine</text>
<text text-anchor="start" x="2074.5" y="-97" font-family="Helvetica,sans-Serif" font-size="10.00">/Plugins/MeshPaint/src/MeshPaint</text>
<text text-anchor="middle" x="2150" y="-86" font-family="Helvetica,sans-Serif" font-size="10.00">System.cpp</text>
</a>
</g>
</g>
<!-- Node4&#45;&gt;Node17 -->
<g id="edge16" class="edge"><title>Node4&#45;&gt;Node17</title>
<path fill="none" stroke="midnightblue" d="M1463.26,-187.157C1631.96,-173.33 1999.97,-142.49 2057,-132 2060.05,-131.439 2063.15,-130.823 2066.26,-130.164"/>
<polygon fill="midnightblue" stroke="midnightblue" points="1462.86,-183.678 1453.18,-187.983 1463.43,-190.655 1462.86,-183.678"/>
</g>
<!-- Node4&#45;&gt;Node18 -->
<g id="edge17" class="edge"><title>Node4&#45;&gt;Node18</title>
<path fill="none" stroke="midnightblue" d="M1463.32,-187.123C1530.2,-181.73 1626.06,-174.136 1710,-168 1946.35,-150.721 2007.63,-167.14 2242,-132 2253.35,-130.298 2265.26,-128.032 2276.89,-125.546"/>
<polygon fill="midnightblue" stroke="midnightblue" points="1462.94,-183.643 1453.26,-187.936 1463.51,-190.62 1462.94,-183.643"/>
</g>
<!-- Node19 -->
<g id="node19" class="node"><title>Node19</title>
<g id="a_node19"><a xlink:href="SkinningPlugin_8cpp.html" target="_top" xlink:title="/home/travis/build\l/STORM&#45;IRIT/Radium&#45;Engine\l/Plugins/Skinning/src/SkinningPlugin.cpp">
<polygon fill="white" stroke="black" points="2255.5,-0.5 2255.5,-41.5 2450.5,-41.5 2450.5,-0.5 2255.5,-0.5"/>
<text text-anchor="start" x="2263.5" y="-29.5" font-family="Helvetica,sans-Serif" font-size="10.00">/home/travis/build</text>
<text text-anchor="start" x="2263.5" y="-18.5" font-family="Helvetica,sans-Serif" font-size="10.00">/STORM&#45;IRIT/Radium&#45;Engine</text>
<text text-anchor="middle" x="2353" y="-7.5" font-family="Helvetica,sans-Serif" font-size="10.00">/Plugins/Skinning/src/SkinningPlugin.cpp</text>
</a>
</g>
</g>
<!-- Node18&#45;&gt;Node19 -->
<g id="edge18" class="edge"><title>Node18&#45;&gt;Node19</title>
<path fill="none" stroke="midnightblue" d="M2353,-73.881C2353,-63.1328 2353,-51.309 2353,-41.6671"/>
<polygon fill="midnightblue" stroke="midnightblue" points="2349.5,-74.1501 2353,-84.1501 2356.5,-74.1501 2349.5,-74.1501"/>
</g>
<!-- Node23&#45;&gt;Node14 -->
<g id="edge25" class="edge"><title>Node23&#45;&gt;Node14</title>
<path fill="none" stroke="midnightblue" d="M2632.97,-251.105C2625.36,-242.006 2617.5,-231.902 2611,-222 2591.6,-192.446 2574.18,-155.513 2563.61,-131.367"/>
<polygon fill="midnightblue" stroke="midnightblue" points="2630.4,-253.487 2639.56,-258.812 2635.72,-248.937 2630.4,-253.487"/>
</g>
<!-- Node24 -->
<g id="node24" class="node"><title>Node24</title>
<g id="a_node24"><a xlink:href="AnimationComponent_8cpp.html" target="_top" xlink:title="/home/travis/build\l/STORM&#45;IRIT/Radium&#45;Engine\l/Plugins/Animation/src/Animation\lComponent.cpp">
<polygon fill="white" stroke="black" points="2824.5,-79 2824.5,-131 2985.5,-131 2985.5,-79 2824.5,-79"/>
<text text-anchor="start" x="2832.5" y="-119" font-family="Helvetica,sans-Serif" font-size="10.00">/home/travis/build</text>
<text text-anchor="start" x="2832.5" y="-108" font-family="Helvetica,sans-Serif" font-size="10.00">/STORM&#45;IRIT/Radium&#45;Engine</text>
<text text-anchor="start" x="2832.5" y="-97" font-family="Helvetica,sans-Serif" font-size="10.00">/Plugins/Animation/src/Animation</text>
<text text-anchor="middle" x="2905" y="-86" font-family="Helvetica,sans-Serif" font-size="10.00">Component.cpp</text>
</a>
</g>
</g>
<!-- Node23&#45;&gt;Node24 -->
<g id="edge24" class="edge"><title>Node23&#45;&gt;Node24</title>
<path fill="none" stroke="midnightblue" d="M2728.93,-254.173C2747.07,-244.851 2766.32,-233.868 2783,-222 2821.1,-194.885 2859.23,-156.351 2882.47,-131.264"/>
<polygon fill="midnightblue" stroke="midnightblue" points="2726.93,-251.265 2719.57,-258.891 2730.08,-257.516 2726.93,-251.265"/>
</g>
<!-- Node25 -->
<g id="node25" class="node"><title>Node25</title>
<g id="a_node25"><a xlink:href="SkeletonBoneDrawable_8hpp.html" target="_top" xlink:title="/home/travis/build\l/STORM&#45;IRIT/Radium&#45;Engine\l/Plugins/Animation/src/Drawing\l/SkeletonBoneDrawable.hpp">
<polygon fill="white" stroke="black" points="2620,-169 2620,-221 2774,-221 2774,-169 2620,-169"/>
<text text-anchor="start" x="2628" y="-209" font-family="Helvetica,sans-Serif" font-size="10.00">/home/travis/build</text>
<text text-anchor="start" x="2628" y="-198" font-family="Helvetica,sans-Serif" font-size="10.00">/STORM&#45;IRIT/Radium&#45;Engine</text>
<text text-anchor="start" x="2628" y="-187" font-family="Helvetica,sans-Serif" font-size="10.00">/Plugins/Animation/src/Drawing</text>
<text text-anchor="middle" x="2697" y="-176" font-family="Helvetica,sans-Serif" font-size="10.00">/SkeletonBoneDrawable.hpp</text>
</a>
</g>
</g>
<!-- Node23&#45;&gt;Node25 -->
<g id="edge26" class="edge"><title>Node23&#45;&gt;Node25</title>
<path fill="none" stroke="midnightblue" d="M2676.49,-249.081C2680.11,-239.726 2683.94,-229.799 2687.31,-221.092"/>
<polygon fill="midnightblue" stroke="midnightblue" points="2673.17,-247.957 2672.83,-258.547 2679.7,-250.48 2673.17,-247.957"/>
</g>
<!-- Node25&#45;&gt;Node14 -->
<g id="edge28" class="edge"><title>Node25&#45;&gt;Node14</title>
<path fill="none" stroke="midnightblue" d="M2646.93,-163.404C2629.74,-152.894 2610.69,-141.255 2594.27,-131.221"/>
<polygon fill="midnightblue" stroke="midnightblue" points="2645.38,-166.555 2655.74,-168.783 2649.03,-160.582 2645.38,-166.555"/>
</g>
<!-- Node25&#45;&gt;Node24 -->
<g id="edge27" class="edge"><title>Node25&#45;&gt;Node24</title>
<path fill="none" stroke="midnightblue" d="M2765.68,-164.942C2791.53,-154.008 2820.67,-141.679 2845.6,-131.133"/>
<polygon fill="midnightblue" stroke="midnightblue" points="2764.17,-161.781 2756.33,-168.901 2766.9,-168.227 2764.17,-161.781"/>
</g>
<!-- Node26 -->
<g id="node26" class="node"><title>Node26</title>
<g id="a_node26"><a xlink:href="SkeletonBoneDrawable_8cpp.html" target="_top" xlink:title="/home/travis/build\l/STORM&#45;IRIT/Radium&#45;Engine\l/Plugins/Animation/src/Drawing\l/SkeletonBoneDrawable.cpp">
<polygon fill="white" stroke="black" points="2652,-79 2652,-131 2806,-131 2806,-79 2652,-79"/>
<text text-anchor="start" x="2660" y="-119" font-family="Helvetica,sans-Serif" font-size="10.00">/home/travis/build</text>
<text text-anchor="start" x="2660" y="-108" font-family="Helvetica,sans-Serif" font-size="10.00">/STORM&#45;IRIT/Radium&#45;Engine</text>
<text text-anchor="start" x="2660" y="-97" font-family="Helvetica,sans-Serif" font-size="10.00">/Plugins/Animation/src/Drawing</text>
<text text-anchor="middle" x="2729" y="-86" font-family="Helvetica,sans-Serif" font-size="10.00">/SkeletonBoneDrawable.cpp</text>
</a>
</g>
</g>
<!-- Node25&#45;&gt;Node26 -->
<g id="edge29" class="edge"><title>Node25&#45;&gt;Node26</title>
<path fill="none" stroke="midnightblue" d="M2709.7,-159.081C2713.1,-149.726 2716.71,-139.799 2719.88,-131.092"/>
<polygon fill="midnightblue" stroke="midnightblue" points="2706.38,-157.953 2706.26,-168.547 2712.96,-160.345 2706.38,-157.953"/>
</g>
<!-- Node27&#45;&gt;Node18 -->
<g id="edge32" class="edge"><title>Node27&#45;&gt;Node18</title>
<path fill="none" stroke="midnightblue" d="M2420.22,-254.279C2418.64,-230.125 2414.2,-195.648 2402,-168 2395.08,-152.31 2383.23,-137.16 2372.92,-125.764"/>
<polygon fill="midnightblue" stroke="midnightblue" points="2416.73,-254.467 2420.75,-264.268 2423.72,-254.097 2416.73,-254.467"/>
</g>
<!-- Node28 -->
<g id="node28" class="node"><title>Node28</title>
<g id="a_node28"><a xlink:href="SkinningComponent_8cpp.html" target="_top" xlink:title="/home/travis/build\l/STORM&#45;IRIT/Radium&#45;Engine\l/Plugins/Skinning/src/SkinningComponent.cpp">
<polygon fill="white" stroke="black" points="2175,-174.5 2175,-215.5 2393,-215.5 2393,-174.5 2175,-174.5"/>
<text text-anchor="start" x="2183" y="-203.5" font-family="Helvetica,sans-Serif" font-size="10.00">/home/travis/build</text>
<text text-anchor="start" x="2183" y="-192.5" font-family="Helvetica,sans-Serif" font-size="10.00">/STORM&#45;IRIT/Radium&#45;Engine</text>
<text text-anchor="middle" x="2284" y="-181.5" font-family="Helvetica,sans-Serif" font-size="10.00">/Plugins/Skinning/src/SkinningComponent.cpp</text>
</a>
</g>
</g>
<!-- Node27&#45;&gt;Node28 -->
<g id="edge31" class="edge"><title>Node27&#45;&gt;Node28</title>
<path fill="none" stroke="midnightblue" d="M2382.08,-258.999C2360.75,-245.3 2334.69,-228.56 2314.79,-215.78"/>
<polygon fill="midnightblue" stroke="midnightblue" points="2380.29,-262.01 2390.6,-264.47 2384.07,-256.121 2380.29,-262.01"/>
</g>
</g>
</svg>
