<?xml version="1.0" encoding="UTF-8" standalone="no"?>
<!DOCTYPE svg PUBLIC "-//W3C//DTD SVG 1.1//EN"
 "http://www.w3.org/Graphics/SVG/1.1/DTD/svg11.dtd">
<!-- Generated by graphviz version 2.36.0 (20140111.2315)
 -->
<!-- Title: /home/travis/build/STORM&#45;IRIT/Radium&#45;Engine/src/Tests/CoreTests/src/IndexMapTest.hpp Pages: 1 -->
<svg width="745pt" height="398pt"
 viewBox="0.00 0.00 745.00 398.00" xmlns="http://www.w3.org/2000/svg" xmlns:xlink="http://www.w3.org/1999/xlink">
<g id="graph0" class="graph" transform="scale(1 1) rotate(0) translate(4 394)">
<title>/home/travis/build/STORM&#45;IRIT/Radium&#45;Engine/src/Tests/CoreTests/src/IndexMapTest.hpp</title>
<polygon fill="white" stroke="none" points="-4,4 -4,-394 741,-394 741,4 -4,4"/>
<!-- Node1 -->
<g id="node1" class="node"><title>Node1</title>
<polygon fill="#bfbfbf" stroke="black" points="372,-337 372,-389 520,-389 520,-337 372,-337"/>
<text text-anchor="start" x="380" y="-377" font-family="Helvetica,sans-Serif" font-size="10.00">/home/travis/build</text>
<text text-anchor="start" x="380" y="-366" font-family="Helvetica,sans-Serif" font-size="10.00">/STORM&#45;IRIT/Radium&#45;Engine</text>
<text text-anchor="start" x="380" y="-355" font-family="Helvetica,sans-Serif" font-size="10.00">/src/Tests/CoreTests/src</text>
<text text-anchor="middle" x="446" y="-344" font-family="Helvetica,sans-Serif" font-size="10.00">/IndexMapTest.hpp</text>
</g>
<!-- Node2 -->
<g id="node2" class="node"><title>Node2</title>
<g id="a_node2"><a xlink:href="IndexMap_8hpp.html" target="_top" xlink:title="Core/Index/IndexMap.hpp">
<polygon fill="white" stroke="black" points="257.5,-280.5 257.5,-299.5 386.5,-299.5 386.5,-280.5 257.5,-280.5"/>
<text text-anchor="middle" x="322" y="-287.5" font-family="Helvetica,sans-Serif" font-size="10.00">Core/Index/IndexMap.hpp</text>
</a>
</g>
</g>
<!-- Node1&#45;&gt;Node2 -->
<g id="edge1" class="edge"><title>Node1&#45;&gt;Node2</title>
<path fill="none" stroke="midnightblue" d="M402.282,-336.968C383.28,-326.088 361.763,-313.767 345.79,-304.622"/>
<polygon fill="midnightblue" stroke="midnightblue" points="347.505,-301.571 337.088,-299.639 344.027,-307.645 347.505,-301.571"/>
</g>
<!-- Node17 -->
<g id="node17" class="node"><title>Node17</title>
<g id="a_node17"><a xlink:href="Tests_8hpp.html" target="_top" xlink:title="Tests/Tests.hpp">
<polygon fill="white" stroke="black" points="526,-280.5 526,-299.5 614,-299.5 614,-280.5 526,-280.5"/>
<text text-anchor="middle" x="570" y="-287.5" font-family="Helvetica,sans-Serif" font-size="10.00">Tests/Tests.hpp</text>
</a>
</g>
</g>
<!-- Node1&#45;&gt;Node17 -->
<g id="edge17" class="edge"><title>Node1&#45;&gt;Node17</title>
<path fill="none" stroke="midnightblue" d="M489.718,-336.968C508.72,-326.088 530.237,-313.767 546.21,-304.622"/>
<polygon fill="midnightblue" stroke="midnightblue" points="547.973,-307.645 554.912,-299.639 544.495,-301.571 547.973,-307.645"/>
</g>
<!-- Node3 -->
<g id="node3" class="node"><title>Node3</title>
<g id="a_node3"><a xlink:href="RaCore_8hpp.html" target="_top" xlink:title="Core/RaCore.hpp">
<polygon fill="white" stroke="black" points="455.5,-112.5 455.5,-131.5 548.5,-131.5 548.5,-112.5 455.5,-112.5"/>
<text text-anchor="middle" x="502" y="-119.5" font-family="Helvetica,sans-Serif" font-size="10.00">Core/RaCore.hpp</text>
</a>
</g>
</g>
<!-- Node2&#45;&gt;Node3 -->
<g id="edge2" class="edge"><title>Node2&#45;&gt;Node3</title>
<path fill="none" stroke="midnightblue" d="M340.533,-280.46C355.84,-272.678 377.356,-259.975 392,-244 417.793,-215.863 406.207,-196.137 432,-168 443.898,-155.021 460.333,-144.2 474.288,-136.425"/>
<polygon fill="midnightblue" stroke="midnightblue" points="476.284,-139.328 483.467,-131.54 472.995,-133.149 476.284,-139.328"/>
</g>
<!-- Node10 -->
<g id="node10" class="node"><title>Node10</title>
<polygon fill="white" stroke="#bfbfbf" points="440,-224.5 440,-243.5 496,-243.5 496,-224.5 440,-224.5"/>
<text text-anchor="middle" x="468" y="-231.5" font-family="Helvetica,sans-Serif" font-size="10.00">algorithm</text>
</g>
<!-- Node2&#45;&gt;Node10 -->
<g id="edge9" class="edge"><title>Node2&#45;&gt;Node10</title>
<path fill="none" stroke="midnightblue" d="M345.134,-280.444C369.482,-271.438 408.007,-257.189 435.423,-247.049"/>
<polygon fill="midnightblue" stroke="midnightblue" points="436.809,-250.268 444.974,-243.516 434.381,-243.703 436.809,-250.268"/>
</g>
<!-- Node11 -->
<g id="node11" class="node"><title>Node11</title>
<polygon fill="white" stroke="#bfbfbf" points="0,-224.5 0,-243.5 52,-243.5 52,-224.5 0,-224.5"/>
<text text-anchor="middle" x="26" y="-231.5" font-family="Helvetica,sans-Serif" font-size="10.00">assert.h</text>
</g>
<!-- Node2&#45;&gt;Node11 -->
<g id="edge10" class="edge"><title>Node2&#45;&gt;Node11</title>
<path fill="none" stroke="midnightblue" d="M264.72,-280.491C213.947,-272.639 137.595,-260.079 62.4333,-244.174"/>
<polygon fill="midnightblue" stroke="midnightblue" points="62.83,-240.679 52.3192,-242.011 61.3664,-247.525 62.83,-240.679"/>
</g>
<!-- Node12 -->
<g id="node12" class="node"><title>Node12</title>
<polygon fill="white" stroke="#bfbfbf" points="70.5,-224.5 70.5,-243.5 113.5,-243.5 113.5,-224.5 70.5,-224.5"/>
<text text-anchor="middle" x="92" y="-231.5" font-family="Helvetica,sans-Serif" font-size="10.00">deque</text>
</g>
<!-- Node2&#45;&gt;Node12 -->
<g id="edge11" class="edge"><title>Node2&#45;&gt;Node12</title>
<path fill="none" stroke="midnightblue" d="M281.047,-280.493C242.742,-272.367 183.735,-259.423 123.337,-243.963"/>
<polygon fill="midnightblue" stroke="midnightblue" points="124.192,-240.569 113.635,-241.461 122.444,-247.348 124.192,-240.569"/>
</g>
<!-- Node13 -->
<g id="node13" class="node"><title>Node13</title>
<g id="a_node13"><a xlink:href="Index_8hpp.html" target="_top" xlink:title="Core/Index/Index.hpp">
<polygon fill="white" stroke="black" points="132,-224.5 132,-243.5 242,-243.5 242,-224.5 132,-224.5"/>
<text text-anchor="middle" x="187" y="-231.5" font-family="Helvetica,sans-Serif" font-size="10.00">Core/Index/Index.hpp</text>
</a>
</g>
</g>
<!-- Node2&#45;&gt;Node13 -->
<g id="edge12" class="edge"><title>Node2&#45;&gt;Node13</title>
<path fill="none" stroke="midnightblue" d="M300.609,-280.444C278.293,-271.517 243.097,-257.439 217.792,-247.317"/>
<polygon fill="midnightblue" stroke="midnightblue" points="218.876,-243.981 208.291,-243.516 216.276,-250.48 218.876,-243.981"/>
</g>
<!-- Node16 -->
<g id="node16" class="node"><title>Node16</title>
<g id="a_node16"><a xlink:href="IndexMap_8inl.html" target="_top" xlink:title="Core/Index/IndexMap.inl">
<polygon fill="white" stroke="black" points="260.5,-224.5 260.5,-243.5 383.5,-243.5 383.5,-224.5 260.5,-224.5"/>
<text text-anchor="middle" x="322" y="-231.5" font-family="Helvetica,sans-Serif" font-size="10.00">Core/Index/IndexMap.inl</text>
</a>
</g>
</g>
<!-- Node2&#45;&gt;Node16 -->
<g id="edge15" class="edge"><title>Node2&#45;&gt;Node16</title>
<path fill="none" stroke="midnightblue" d="M316.834,-280.083C315.324,-272.927 314.894,-262.635 315.542,-253.691"/>
<polygon fill="midnightblue" stroke="midnightblue" points="319.015,-254.126 316.869,-243.751 312.077,-253.2 319.015,-254.126"/>
</g>
<!-- Node4 -->
<g id="node4" class="node"><title>Node4</title>
<g id="a_node4"><a xlink:href="CoreMacros_8hpp.html" target="_top" xlink:title="Core/CoreMacros.hpp">
<polygon fill="white" stroke="black" points="521.5,-56.5 521.5,-75.5 634.5,-75.5 634.5,-56.5 521.5,-56.5"/>
<text text-anchor="middle" x="578" y="-63.5" font-family="Helvetica,sans-Serif" font-size="10.00">Core/CoreMacros.hpp</text>
</a>
</g>
</g>
<!-- Node3&#45;&gt;Node4 -->
<g id="edge3" class="edge"><title>Node3&#45;&gt;Node4</title>
<path fill="none" stroke="midnightblue" d="M514.211,-112.324C525.776,-104.107 543.375,-91.6017 557.161,-81.8069"/>
<polygon fill="midnightblue" stroke="midnightblue" points="559.443,-84.4791 565.567,-75.8339 555.388,-78.7729 559.443,-84.4791"/>
</g>
<!-- Node5 -->
<g id="node5" class="node"><title>Node5</title>
<polygon fill="white" stroke="#bfbfbf" points="422.5,-0.5 422.5,-19.5 471.5,-19.5 471.5,-0.5 422.5,-0.5"/>
<text text-anchor="middle" x="447" y="-7.5" font-family="Helvetica,sans-Serif" font-size="10.00">cassert</text>
</g>
<!-- Node4&#45;&gt;Node5 -->
<g id="edge4" class="edge"><title>Node4&#45;&gt;Node5</title>
<path fill="none" stroke="midnightblue" d="M557.243,-56.4435C535.684,-47.5566 501.737,-33.5632 477.206,-23.4514"/>
<polygon fill="midnightblue" stroke="midnightblue" points="478.239,-20.0917 467.66,-19.5164 475.572,-26.5634 478.239,-20.0917"/>
</g>
<!-- Node6 -->
<g id="node6" class="node"><title>Node6</title>
<polygon fill="white" stroke="#bfbfbf" points="489.5,-0.5 489.5,-19.5 532.5,-19.5 532.5,-0.5 489.5,-0.5"/>
<text text-anchor="middle" x="511" y="-7.5" font-family="Helvetica,sans-Serif" font-size="10.00">cstdio</text>
</g>
<!-- Node4&#45;&gt;Node6 -->
<g id="edge5" class="edge"><title>Node4&#45;&gt;Node6</title>
<path fill="none" stroke="midnightblue" d="M567.235,-56.324C557.234,-48.2631 542.113,-36.0765 530.07,-26.3695"/>
<polygon fill="midnightblue" stroke="midnightblue" points="531.943,-23.3841 521.961,-19.8339 527.55,-28.8343 531.943,-23.3841"/>
</g>
<!-- Node7 -->
<g id="node7" class="node"><title>Node7</title>
<polygon fill="white" stroke="#bfbfbf" points="551,-0.5 551,-19.5 605,-19.5 605,-0.5 551,-0.5"/>
<text text-anchor="middle" x="578" y="-7.5" font-family="Helvetica,sans-Serif" font-size="10.00">iostream</text>
</g>
<!-- Node4&#45;&gt;Node7 -->
<g id="edge6" class="edge"><title>Node4&#45;&gt;Node7</title>
<path fill="none" stroke="midnightblue" d="M578,-56.083C578,-49.0059 578,-38.8611 578,-29.9865"/>
<polygon fill="midnightblue" stroke="midnightblue" points="581.5,-29.751 578,-19.7511 574.5,-29.7511 581.5,-29.751"/>
</g>
<!-- Node8 -->
<g id="node8" class="node"><title>Node8</title>
<polygon fill="white" stroke="#bfbfbf" points="623,-0.5 623,-19.5 675,-19.5 675,-0.5 623,-0.5"/>
<text text-anchor="middle" x="649" y="-7.5" font-family="Helvetica,sans-Serif" font-size="10.00">sstream</text>
</g>
<!-- Node4&#45;&gt;Node8 -->
<g id="edge7" class="edge"><title>Node4&#45;&gt;Node8</title>
<path fill="none" stroke="midnightblue" d="M589.407,-56.324C600.109,-48.1849 616.341,-35.8395 629.163,-26.0874"/>
<polygon fill="midnightblue" stroke="midnightblue" points="631.544,-28.6734 637.385,-19.8339 627.307,-23.1018 631.544,-28.6734"/>
</g>
<!-- Node9 -->
<g id="node9" class="node"><title>Node9</title>
<polygon fill="white" stroke="#bfbfbf" points="693,-0.5 693,-19.5 737,-19.5 737,-0.5 693,-0.5"/>
<text text-anchor="middle" x="715" y="-7.5" font-family="Helvetica,sans-Serif" font-size="10.00">thread</text>
</g>
<!-- Node4&#45;&gt;Node9 -->
<g id="edge8" class="edge"><title>Node4&#45;&gt;Node9</title>
<path fill="none" stroke="midnightblue" d="M599.708,-56.4435C622.355,-47.5171 658.072,-33.4387 683.752,-23.3168"/>
<polygon fill="midnightblue" stroke="midnightblue" points="685.374,-26.4397 693.394,-19.5164 682.807,-19.9273 685.374,-26.4397"/>
</g>
<!-- Node14 -->
<g id="node14" class="node"><title>Node14</title>
<polygon fill="white" stroke="#bfbfbf" points="212,-168.5 212,-187.5 252,-187.5 252,-168.5 212,-168.5"/>
<text text-anchor="middle" x="232" y="-175.5" font-family="Helvetica,sans-Serif" font-size="10.00">limits</text>
</g>
<!-- Node13&#45;&gt;Node14 -->
<g id="edge13" class="edge"><title>Node13&#45;&gt;Node14</title>
<path fill="none" stroke="midnightblue" d="M194.431,-224.083C200.853,-216.377 210.306,-205.033 218.122,-195.653"/>
<polygon fill="midnightblue" stroke="midnightblue" points="220.994,-197.674 224.707,-187.751 215.617,-193.193 220.994,-197.674"/>
</g>
<!-- Node15 -->
<g id="node15" class="node"><title>Node15</title>
<g id="a_node15"><a xlink:href="Index_8inl.html" target="_top" xlink:title="Core/Index/Index.inl">
<polygon fill="white" stroke="black" points="90,-168.5 90,-187.5 194,-187.5 194,-168.5 90,-168.5"/>
<text text-anchor="middle" x="142" y="-175.5" font-family="Helvetica,sans-Serif" font-size="10.00">Core/Index/Index.inl</text>
</a>
</g>
</g>
<!-- Node13&#45;&gt;Node15 -->
<g id="edge14" class="edge"><title>Node13&#45;&gt;Node15</title>
<path fill="none" stroke="midnightblue" d="M179.569,-224.083C173.147,-216.377 163.694,-205.033 155.878,-195.653"/>
<polygon fill="midnightblue" stroke="midnightblue" points="158.383,-193.193 149.293,-187.751 153.006,-197.674 158.383,-193.193"/>
</g>
<!-- Node16&#45;&gt;Node2 -->
<g id="edge16" class="edge"><title>Node16&#45;&gt;Node2</title>
<path fill="none" stroke="midnightblue" d="M327.131,-243.751C328.657,-250.858 329.104,-261.136 328.472,-270.101"/>
<polygon fill="midnightblue" stroke="midnightblue" points="324.993,-269.713 327.166,-280.083 331.934,-270.622 324.993,-269.713"/>
</g>
<!-- Node17&#45;&gt;Node4 -->
<g id="edge18" class="edge"><title>Node17&#45;&gt;Node4</title>
<path fill="none" stroke="midnightblue" d="M588.005,-280.491C601.756,-272.958 619.853,-260.581 629,-244 641.07,-222.121 632.888,-212.963 634,-188 634.396,-179.12 636.226,-176.606 634,-168 625.672,-135.805 604.629,-102.932 590.842,-83.7736"/>
<polygon fill="midnightblue" stroke="midnightblue" points="593.506,-81.4899 584.745,-75.5333 587.879,-85.6537 593.506,-81.4899"/>
</g>
<!-- Node18 -->
<g id="node18" class="node"><title>Node18</title>
<g id="a_node18"><a xlink:href="Manager_8hpp.html" target="_top" xlink:title="Tests/Manager.hpp">
<polygon fill="white" stroke="black" points="519.5,-224.5 519.5,-243.5 620.5,-243.5 620.5,-224.5 519.5,-224.5"/>
<text text-anchor="middle" x="570" y="-231.5" font-family="Helvetica,sans-Serif" font-size="10.00">Tests/Manager.hpp</text>
</a>
</g>
</g>
<!-- Node17&#45;&gt;Node18 -->
<g id="edge19" class="edge"><title>Node17&#45;&gt;Node18</title>
<path fill="none" stroke="midnightblue" d="M570,-280.083C570,-273.006 570,-262.861 570,-253.986"/>
<polygon fill="midnightblue" stroke="midnightblue" points="573.5,-253.751 570,-243.751 566.5,-253.751 573.5,-253.751"/>
</g>
<!-- Node19 -->
<g id="node19" class="node"><title>Node19</title>
<g id="a_node19"><a xlink:href="Singleton_8hpp.html" target="_top" xlink:title="Core/Utils/Singleton.hpp">
<polygon fill="white" stroke="black" points="440.5,-168.5 440.5,-187.5 563.5,-187.5 563.5,-168.5 440.5,-168.5"/>
<text text-anchor="middle" x="502" y="-175.5" font-family="Helvetica,sans-Serif" font-size="10.00">Core/Utils/Singleton.hpp</text>
</a>
</g>
</g>
<!-- Node18&#45;&gt;Node19 -->
<g id="edge20" class="edge"><title>Node18&#45;&gt;Node19</title>
<path fill="none" stroke="midnightblue" d="M559.075,-224.324C548.825,-216.185 533.279,-203.839 520.999,-194.087"/>
<polygon fill="midnightblue" stroke="midnightblue" points="523.132,-191.312 513.124,-187.834 518.779,-196.794 523.132,-191.312"/>
</g>
<!-- Node20 -->
<g id="node20" class="node"><title>Node20</title>
<polygon fill="white" stroke="#bfbfbf" points="582,-168.5 582,-187.5 626,-187.5 626,-168.5 582,-168.5"/>
<text text-anchor="middle" x="604" y="-175.5" font-family="Helvetica,sans-Serif" font-size="10.00">vector</text>
</g>
<!-- Node18&#45;&gt;Node20 -->
<g id="edge22" class="edge"><title>Node18&#45;&gt;Node20</title>
<path fill="none" stroke="midnightblue" d="M575.614,-224.083C580.367,-216.534 587.318,-205.495 593.152,-196.23"/>
<polygon fill="midnightblue" stroke="midnightblue" points="596.124,-198.078 598.49,-187.751 590.2,-194.349 596.124,-198.078"/>
</g>
<!-- Node19&#45;&gt;Node3 -->
<g id="edge21" class="edge"><title>Node19&#45;&gt;Node3</title>
<path fill="none" stroke="midnightblue" d="M502,-168.083C502,-161.006 502,-150.861 502,-141.986"/>
<polygon fill="midnightblue" stroke="midnightblue" points="505.5,-141.751 502,-131.751 498.5,-141.751 505.5,-141.751"/>
</g>
</g>
</svg>
