<?xml version="1.0" encoding="UTF-8" standalone="no"?>
<!DOCTYPE svg PUBLIC "-//W3C//DTD SVG 1.1//EN"
 "http://www.w3.org/Graphics/SVG/1.1/DTD/svg11.dtd">
<!-- Generated by graphviz version 2.36.0 (20140111.2315)
 -->
<!-- Title: Graphical Class Hierarchy Pages: 1 -->
<svg width="512pt" height="475pt"
 viewBox="0.00 0.00 512.00 475.00" xmlns="http://www.w3.org/2000/svg" xmlns:xlink="http://www.w3.org/1999/xlink">
<g id="graph0" class="graph" transform="scale(1 1) rotate(0) translate(4 471)">
<title>Graphical Class Hierarchy</title>
<polygon fill="white" stroke="none" points="-4,4 -4,-471 508,-471 508,4 -4,4"/>
<!-- Node1 -->
<g id="node1" class="node"><title>Node1</title>
<g id="a_node1"><a xlink:href="classRa_1_1Engine_1_1Component.html" target="_top" xlink:title="A component is an element that can be updated by a system. ">
<polygon fill="white" stroke="black" points="0,-212.5 0,-231.5 122,-231.5 122,-212.5 0,-212.5"/>
<text text-anchor="middle" x="61" y="-219.5" font-family="Helvetica,sans-Serif" font-size="10.00">Ra::Engine::Component</text>
</a>
</g>
</g>
<!-- Node2 -->
<g id="node2" class="node"><title>Node2</title>
<g id="a_node2"><a xlink:href="classAnimationPlugin_1_1AnimationComponent.html" target="_top" xlink:title="The AnimationComponent is responsible for the management of skeleton&#45;based character animations...">
<polygon fill="white" stroke="black" points="174.5,-437 174.5,-467 311.5,-467 311.5,-437 174.5,-437"/>
<text text-anchor="start" x="182.5" y="-455" font-family="Helvetica,sans-Serif" font-size="10.00">AnimationPlugin::Animation</text>
<text text-anchor="middle" x="243" y="-444" font-family="Helvetica,sans-Serif" font-size="10.00">Component</text>
</a>
</g>
</g>
<!-- Node1&#45;&gt;Node2 -->
<g id="edge1" class="edge"><title>Node1&#45;&gt;Node2</title>
<path fill="none" stroke="midnightblue" d="M65.6619,-241.892C74.2349,-282.769 99.4828,-376.596 158,-427 162.842,-431.171 168.356,-434.646 174.192,-437.541"/>
<polygon fill="midnightblue" stroke="midnightblue" points="69.0486,-240.977 63.6722,-231.847 62.182,-242.337 69.0486,-240.977"/>
</g>
<!-- Node3 -->
<g id="node3" class="node"><title>Node3</title>
<g id="a_node3"><a xlink:href="classDummyPlugin_1_1DummyComponent.html" target="_top" xlink:title="DummyPlugin::DummyComponent">
<polygon fill="white" stroke="black" points="158.5,-398.5 158.5,-417.5 327.5,-417.5 327.5,-398.5 158.5,-398.5"/>
<text text-anchor="middle" x="243" y="-405.5" font-family="Helvetica,sans-Serif" font-size="10.00">DummyPlugin::DummyComponent</text>
</a>
</g>
</g>
<!-- Node1&#45;&gt;Node3 -->
<g id="edge2" class="edge"><title>Node1&#45;&gt;Node3</title>
<path fill="none" stroke="midnightblue" d="M67.6667,-241.659C78.8431,-276.776 107.163,-350.141 158,-388 163.771,-392.298 170.331,-395.687 177.182,-398.357"/>
<polygon fill="midnightblue" stroke="midnightblue" points="70.8941,-240.243 64.6336,-231.695 64.1975,-242.281 70.8941,-240.243"/>
</g>
<!-- Node4 -->
<g id="node4" class="node"><title>Node4</title>
<g id="a_node4"><a xlink:href="classFancyMeshPlugin_1_1FancyMeshComponent.html" target="_top" xlink:title="The FancyMeshComponent class. ">
<polygon fill="white" stroke="black" points="167,-349 167,-379 319,-379 319,-349 167,-349"/>
<text text-anchor="start" x="175" y="-367" font-family="Helvetica,sans-Serif" font-size="10.00">FancyMeshPlugin::FancyMesh</text>
<text text-anchor="middle" x="243" y="-356" font-family="Helvetica,sans-Serif" font-size="10.00">Component</text>
</a>
</g>
</g>
<!-- Node1&#45;&gt;Node4 -->
<g id="edge3" class="edge"><title>Node1&#45;&gt;Node4</title>
<path fill="none" stroke="midnightblue" d="M72.1686,-240.272C87.4589,-266.079 118.801,-312.954 158,-339 163.83,-342.873 170.276,-346.162 176.93,-348.951"/>
<polygon fill="midnightblue" stroke="midnightblue" points="75.1384,-238.416 67.1116,-231.501 69.0741,-241.912 75.1384,-238.416"/>
</g>
<!-- Node5 -->
<g id="node5" class="node"><title>Node5</title>
<g id="a_node5"><a xlink:href="classMeshFeatureTrackingPlugin_1_1MeshFeatureTrackingComponent.html" target="_top" xlink:title="MeshFeatureTrackingPlugin\l::MeshFeatureTrackingComponent">
<polygon fill="white" stroke="black" points="159.5,-300 159.5,-330 326.5,-330 326.5,-300 159.5,-300"/>
<text text-anchor="start" x="167.5" y="-318" font-family="Helvetica,sans-Serif" font-size="10.00">MeshFeatureTrackingPlugin</text>
<text text-anchor="middle" x="243" y="-307" font-family="Helvetica,sans-Serif" font-size="10.00">::MeshFeatureTrackingComponent</text>
</a>
</g>
</g>
<!-- Node1&#45;&gt;Node5 -->
<g id="edge4" class="edge"><title>Node1&#45;&gt;Node5</title>
<path fill="none" stroke="midnightblue" d="M80.737,-238.109C99.2791,-253.338 129.013,-275.898 158,-290 165.662,-293.728 173.992,-297.021 182.33,-299.891"/>
<polygon fill="midnightblue" stroke="midnightblue" points="82.966,-235.411 73.048,-231.684 78.4777,-240.782 82.966,-235.411"/>
</g>
<!-- Node6 -->
<g id="node6" class="node"><title>Node6</title>
<g id="a_node6"><a xlink:href="classMeshPaintPlugin_1_1MeshPaintComponent.html" target="_top" xlink:title="MeshPaintPlugin::MeshPaint\lComponent">
<polygon fill="white" stroke="black" points="171.5,-251 171.5,-281 314.5,-281 314.5,-251 171.5,-251"/>
<text text-anchor="start" x="179.5" y="-269" font-family="Helvetica,sans-Serif" font-size="10.00">MeshPaintPlugin::MeshPaint</text>
<text text-anchor="middle" x="243" y="-258" font-family="Helvetica,sans-Serif" font-size="10.00">Component</text>
</a>
</g>
</g>
<!-- Node1&#45;&gt;Node6 -->
<g id="edge5" class="edge"><title>Node1&#45;&gt;Node6</title>
<path fill="none" stroke="midnightblue" d="M110.907,-233.955C132.319,-239.189 157.683,-245.389 180.369,-250.935"/>
<polygon fill="midnightblue" stroke="midnightblue" points="111.602,-230.522 101.057,-231.547 109.94,-237.322 111.602,-230.522"/>
</g>
<!-- Node7 -->
<g id="node7" class="node"><title>Node7</title>
<g id="a_node7"><a xlink:href="classRa_1_1Engine_1_1Camera.html" target="_top" xlink:title="A Camera is an Engine Component storing a Camera object. ">
<polygon fill="white" stroke="black" points="190,-212.5 190,-231.5 296,-231.5 296,-212.5 190,-212.5"/>
<text text-anchor="middle" x="243" y="-219.5" font-family="Helvetica,sans-Serif" font-size="10.00">Ra::Engine::Camera</text>
</a>
</g>
</g>
<!-- Node1&#45;&gt;Node7 -->
<g id="edge6" class="edge"><title>Node1&#45;&gt;Node7</title>
<path fill="none" stroke="midnightblue" d="M132.346,-222C151.451,-222 171.797,-222 189.711,-222"/>
<polygon fill="midnightblue" stroke="midnightblue" points="132.188,-218.5 122.188,-222 132.188,-225.5 132.188,-218.5"/>
</g>
<!-- Node8 -->
<g id="node8" class="node"><title>Node8</title>
<g id="a_node8"><a xlink:href="classRa_1_1Engine_1_1DebugComponent.html" target="_top" xlink:title="Component for debug drawing. ">
<polygon fill="white" stroke="black" points="168,-174.5 168,-193.5 318,-193.5 318,-174.5 168,-174.5"/>
<text text-anchor="middle" x="243" y="-181.5" font-family="Helvetica,sans-Serif" font-size="10.00">Ra::Engine::DebugComponent</text>
</a>
</g>
</g>
<!-- Node1&#45;&gt;Node8 -->
<g id="edge7" class="edge"><title>Node1&#45;&gt;Node8</title>
<path fill="none" stroke="midnightblue" d="M117.331,-210.319C142.857,-204.93 172.776,-198.614 196.905,-193.52"/>
<polygon fill="midnightblue" stroke="midnightblue" points="116.483,-206.921 107.422,-212.411 117.929,-213.77 116.483,-206.921"/>
</g>
<!-- Node9 -->
<g id="node9" class="node"><title>Node9</title>
<g id="a_node9"><a xlink:href="classRa_1_1Engine_1_1Light.html" target="_top" xlink:title="Ra::Engine::Light">
<polygon fill="white" stroke="black" points="197,-136.5 197,-155.5 289,-155.5 289,-136.5 197,-136.5"/>
<text text-anchor="middle" x="243" y="-143.5" font-family="Helvetica,sans-Serif" font-size="10.00">Ra::Engine::Light</text>
</a>
</g>
</g>
<!-- Node1&#45;&gt;Node9 -->
<g id="edge8" class="edge"><title>Node1&#45;&gt;Node9</title>
<path fill="none" stroke="midnightblue" d="M83.386,-206.63C102.201,-193.777 130.765,-175.851 158,-165 170.223,-160.13 183.969,-156.363 196.746,-153.516"/>
<polygon fill="midnightblue" stroke="midnightblue" points="81.1898,-203.894 74.9809,-212.479 85.1883,-209.64 81.1898,-203.894"/>
</g>
<!-- Node13 -->
<g id="node13" class="node"><title>Node13</title>
<g id="a_node13"><a xlink:href="classRa_1_1Engine_1_1UiComponent.html" target="_top" xlink:title="Component for UI drawing. ">
<polygon fill="white" stroke="black" points="177.5,-98.5 177.5,-117.5 308.5,-117.5 308.5,-98.5 177.5,-98.5"/>
<text text-anchor="middle" x="243" y="-105.5" font-family="Helvetica,sans-Serif" font-size="10.00">Ra::Engine::UiComponent</text>
</a>
</g>
</g>
<!-- Node1&#45;&gt;Node13 -->
<g id="edge12" class="edge"><title>Node1&#45;&gt;Node13</title>
<path fill="none" stroke="midnightblue" d="M74.7241,-204.388C91.3576,-182.716 122.578,-146.411 158,-127 165.08,-123.12 172.911,-120.031 180.861,-117.573"/>
<polygon fill="midnightblue" stroke="midnightblue" points="71.8952,-202.327 68.7067,-212.43 77.5,-206.52 71.8952,-202.327"/>
</g>
<!-- Node14 -->
<g id="node14" class="node"><title>Node14</title>
<g id="a_node14"><a xlink:href="classSkinningPlugin_1_1SkinningComponent.html" target="_top" xlink:title="SkinningPlugin::Skinning\lComponent">
<polygon fill="white" stroke="black" points="180.5,-49 180.5,-79 305.5,-79 305.5,-49 180.5,-49"/>
<text text-anchor="start" x="188.5" y="-67" font-family="Helvetica,sans-Serif" font-size="10.00">SkinningPlugin::Skinning</text>
<text text-anchor="middle" x="243" y="-56" font-family="Helvetica,sans-Serif" font-size="10.00">Component</text>
</a>
</g>
</g>
<!-- Node1&#45;&gt;Node14 -->
<g id="edge13" class="edge"><title>Node1&#45;&gt;Node14</title>
<path fill="none" stroke="midnightblue" d="M70.6989,-202.883C84.8526,-173.916 115.607,-119.101 158,-89 164.699,-84.2432 172.31,-80.3808 180.149,-77.2472"/>
<polygon fill="midnightblue" stroke="midnightblue" points="67.3602,-201.756 66.2447,-212.292 73.687,-204.751 67.3602,-201.756"/>
</g>
<!-- Node15 -->
<g id="node15" class="node"><title>Node15</title>
<g id="a_node15"><a xlink:href="classSkinningPlugin_1_1SkinningDisplayComponent.html" target="_top" xlink:title="SkinningPlugin::Skinning\lDisplayComponent">
<polygon fill="white" stroke="black" points="180.5,-0 180.5,-30 305.5,-30 305.5,-0 180.5,-0"/>
<text text-anchor="start" x="188.5" y="-18" font-family="Helvetica,sans-Serif" font-size="10.00">SkinningPlugin::Skinning</text>
<text text-anchor="middle" x="243" y="-7" font-family="Helvetica,sans-Serif" font-size="10.00">DisplayComponent</text>
</a>
</g>
</g>
<!-- Node1&#45;&gt;Node15 -->
<g id="edge14" class="edge"><title>Node1&#45;&gt;Node15</title>
<path fill="none" stroke="midnightblue" d="M66.8931,-202.324C77.198,-165.001 104.7,-83.7524 158,-40 164.586,-34.5938 172.31,-30.3565 180.359,-27.0354"/>
<polygon fill="midnightblue" stroke="midnightblue" points="63.4,-201.845 64.2376,-212.407 70.1691,-203.628 63.4,-201.845"/>
</g>
<!-- Node10 -->
<g id="node10" class="node"><title>Node10</title>
<g id="a_node10"><a xlink:href="classRa_1_1Engine_1_1DirectionalLight.html" target="_top" xlink:title="Ra::Engine::DirectionalLight">
<polygon fill="white" stroke="black" points="364.5,-174.5 364.5,-193.5 503.5,-193.5 503.5,-174.5 364.5,-174.5"/>
<text text-anchor="middle" x="434" y="-181.5" font-family="Helvetica,sans-Serif" font-size="10.00">Ra::Engine::DirectionalLight</text>
</a>
</g>
</g>
<!-- Node9&#45;&gt;Node10 -->
<g id="edge9" class="edge"><title>Node9&#45;&gt;Node10</title>
<path fill="none" stroke="midnightblue" d="M299.089,-157.076C326.46,-162.579 359.204,-169.163 385.462,-174.442"/>
<polygon fill="midnightblue" stroke="midnightblue" points="299.764,-153.642 289.27,-155.102 298.384,-160.504 299.764,-153.642"/>
</g>
<!-- Node11 -->
<g id="node11" class="node"><title>Node11</title>
<g id="a_node11"><a xlink:href="classRa_1_1Engine_1_1PointLight.html" target="_top" xlink:title="Ra::Engine::PointLight">
<polygon fill="white" stroke="black" points="376.5,-136.5 376.5,-155.5 491.5,-155.5 491.5,-136.5 376.5,-136.5"/>
<text text-anchor="middle" x="434" y="-143.5" font-family="Helvetica,sans-Serif" font-size="10.00">Ra::Engine::PointLight</text>
</a>
</g>
</g>
<!-- Node9&#45;&gt;Node11 -->
<g id="edge10" class="edge"><title>Node9&#45;&gt;Node11</title>
<path fill="none" stroke="midnightblue" d="M299.36,-146C323.552,-146 351.901,-146 376.249,-146"/>
<polygon fill="midnightblue" stroke="midnightblue" points="299.27,-142.5 289.27,-146 299.27,-149.5 299.27,-142.5"/>
</g>
<!-- Node12 -->
<g id="node12" class="node"><title>Node12</title>
<g id="a_node12"><a xlink:href="classRa_1_1Engine_1_1SpotLight.html" target="_top" xlink:title="Ra::Engine::SpotLight">
<polygon fill="white" stroke="black" points="377.5,-98.5 377.5,-117.5 490.5,-117.5 490.5,-98.5 377.5,-98.5"/>
<text text-anchor="middle" x="434" y="-105.5" font-family="Helvetica,sans-Serif" font-size="10.00">Ra::Engine::SpotLight</text>
</a>
</g>
</g>
<!-- Node9&#45;&gt;Node12 -->
<g id="edge11" class="edge"><title>Node9&#45;&gt;Node12</title>
<path fill="none" stroke="midnightblue" d="M299.089,-134.924C326.46,-129.421 359.204,-122.837 385.462,-117.558"/>
<polygon fill="midnightblue" stroke="midnightblue" points="298.384,-131.496 289.27,-136.898 299.764,-138.358 298.384,-131.496"/>
</g>
</g>
</svg>
