<?xml version="1.0" encoding="UTF-8" standalone="no"?>
<!DOCTYPE svg PUBLIC "-//W3C//DTD SVG 1.1//EN"
 "http://www.w3.org/Graphics/SVG/1.1/DTD/svg11.dtd">
<!-- Generated by graphviz version 2.36.0 (20140111.2315)
 -->
<!-- Title: Graphical Class Hierarchy Pages: 1 -->
<svg width="514pt" height="399pt"
 viewBox="0.00 0.00 514.00 399.00" xmlns="http://www.w3.org/2000/svg" xmlns:xlink="http://www.w3.org/1999/xlink">
<g id="graph0" class="graph" transform="scale(1 1) rotate(0) translate(4 395)">
<title>Graphical Class Hierarchy</title>
<polygon fill="white" stroke="none" points="-4,4 -4,-395 510,-395 510,4 -4,4"/>
<!-- Node1 -->
<g id="node1" class="node"><title>Node1</title>
<g id="a_node1"><a xlink:href="classQObject.html" target="_top" xlink:title="QObject">
<polygon fill="white" stroke="black" points="48.5,-180.5 48.5,-199.5 101.5,-199.5 101.5,-180.5 48.5,-180.5"/>
<text text-anchor="middle" x="75" y="-187.5" font-family="Helvetica,sans-Serif" font-size="10.00">QObject</text>
</a>
</g>
</g>
<!-- Node2 -->
<g id="node2" class="node"><title>Node2</title>
<g id="a_node2"><a xlink:href="classAnimationPlugin_1_1AnimationPluginC.html" target="_top" xlink:title="AnimationPlugin::Animation\lPluginC">
<polygon fill="white" stroke="black" points="193.5,-126 193.5,-156 330.5,-156 330.5,-126 193.5,-126"/>
<text text-anchor="start" x="201.5" y="-144" font-family="Helvetica,sans-Serif" font-size="10.00">AnimationPlugin::Animation</text>
<text text-anchor="middle" x="262" y="-133" font-family="Helvetica,sans-Serif" font-size="10.00">PluginC</text>
</a>
</g>
</g>
<!-- Node1&#45;&gt;Node2 -->
<g id="edge1" class="edge"><title>Node1&#45;&gt;Node2</title>
<path fill="none" stroke="midnightblue" d="M111.611,-180.568C137.861,-173.615 174.102,-164.016 204.315,-156.014"/>
<polygon fill="midnightblue" stroke="midnightblue" points="110.494,-177.243 101.723,-183.187 112.286,-184.01 110.494,-177.243"/>
</g>
<!-- Node3 -->
<g id="node3" class="node"><title>Node3</title>
<g id="a_node3"><a xlink:href="classCameraManipPlugin_1_1CameraManipPluginC.html" target="_top" xlink:title="The CameraManipPlugin allows to change the current camera used for display, create a copy of the curr...">
<polygon fill="white" stroke="black" points="206,-77 206,-107 318,-107 318,-77 206,-77"/>
<text text-anchor="start" x="214" y="-95" font-family="Helvetica,sans-Serif" font-size="10.00">CameraManipPlugin::</text>
<text text-anchor="middle" x="262" y="-84" font-family="Helvetica,sans-Serif" font-size="10.00">CameraManipPluginC</text>
</a>
</g>
</g>
<!-- Node1&#45;&gt;Node3 -->
<g id="edge2" class="edge"><title>Node1&#45;&gt;Node3</title>
<path fill="none" stroke="midnightblue" d="M96.2144,-174.201C117.565,-158.101 152.686,-133.25 186,-117 193.525,-113.329 201.722,-109.989 209.844,-107.029"/>
<polygon fill="midnightblue" stroke="midnightblue" points="94.0364,-171.461 88.2143,-180.312 98.2857,-177.023 94.0364,-171.461"/>
</g>
<!-- Node4 -->
<g id="node4" class="node"><title>Node4</title>
<g id="a_node4"><a xlink:href="classDummyPlugin_1_1DummyPlugin.html" target="_top" xlink:title="DummyPlugin::DummyPlugin">
<polygon fill="white" stroke="black" points="189,-371.5 189,-390.5 335,-390.5 335,-371.5 189,-371.5"/>
<text text-anchor="middle" x="262" y="-378.5" font-family="Helvetica,sans-Serif" font-size="10.00">DummyPlugin::DummyPlugin</text>
</a>
</g>
</g>
<!-- Node1&#45;&gt;Node4 -->
<g id="edge3" class="edge"><title>Node1&#45;&gt;Node4</title>
<path fill="none" stroke="midnightblue" d="M111.824,-194.636C125.484,-198.132 140.127,-204.26 150,-215 195.231,-264.201 139.19,-313.299 186,-361 190.247,-365.328 195.319,-368.753 200.794,-371.458"/>
<polygon fill="midnightblue" stroke="midnightblue" points="112.178,-191.132 101.664,-192.443 110.701,-197.974 112.178,-191.132"/>
</g>
<!-- Node5 -->
<g id="node5" class="node"><title>Node5</title>
<g id="a_node5"><a xlink:href="classFancyMeshPlugin_1_1FancyMeshPluginC.html" target="_top" xlink:title="FancyMeshPlugin::FancyMesh\lPluginC">
<polygon fill="white" stroke="black" points="186,-322 186,-352 338,-352 338,-322 186,-322"/>
<text text-anchor="start" x="194" y="-340" font-family="Helvetica,sans-Serif" font-size="10.00">FancyMeshPlugin::FancyMesh</text>
<text text-anchor="middle" x="262" y="-329" font-family="Helvetica,sans-Serif" font-size="10.00">PluginC</text>
</a>
</g>
</g>
<!-- Node1&#45;&gt;Node5 -->
<g id="edge4" class="edge"><title>Node1&#45;&gt;Node5</title>
<path fill="none" stroke="midnightblue" d="M111.527,-195.299C125.014,-198.892 139.611,-204.914 150,-215 182.993,-247.031 152.942,-280.035 186,-312 190.045,-315.912 194.719,-319.212 199.715,-321.995"/>
<polygon fill="midnightblue" stroke="midnightblue" points="112.047,-191.827 101.517,-192.998 110.479,-198.649 112.047,-191.827"/>
</g>
<!-- Node6 -->
<g id="node6" class="node"><title>Node6</title>
<g id="a_node6"><a xlink:href="classMeshFeatureTrackingPlugin_1_1MeshFeatureTrackingPluginC.html" target="_top" xlink:title="MeshFeatureTrackingPlugin\l::MeshFeatureTrackingPluginC">
<polygon fill="white" stroke="black" points="186,-273 186,-303 338,-303 338,-273 186,-273"/>
<text text-anchor="start" x="194" y="-291" font-family="Helvetica,sans-Serif" font-size="10.00">MeshFeatureTrackingPlugin</text>
<text text-anchor="middle" x="262" y="-280" font-family="Helvetica,sans-Serif" font-size="10.00">::MeshFeatureTrackingPluginC</text>
</a>
</g>
</g>
<!-- Node1&#45;&gt;Node6 -->
<g id="edge5" class="edge"><title>Node1&#45;&gt;Node6</title>
<path fill="none" stroke="midnightblue" d="M111.737,-197.387C124.613,-201.21 138.732,-206.844 150,-215 171.602,-230.636 164.367,-247.408 186,-263 191.345,-266.852 197.322,-270.139 203.506,-272.936"/>
<polygon fill="midnightblue" stroke="midnightblue" points="112.321,-193.919 101.755,-194.695 110.499,-200.678 112.321,-193.919"/>
</g>
<!-- Node7 -->
<g id="node7" class="node"><title>Node7</title>
<g id="a_node7"><a xlink:href="classMeshPaintPlugin_1_1MeshPaintPluginC.html" target="_top" xlink:title="MeshPaintPlugin::MeshPaint\lPluginC">
<polygon fill="white" stroke="black" points="190.5,-224 190.5,-254 333.5,-254 333.5,-224 190.5,-224"/>
<text text-anchor="start" x="198.5" y="-242" font-family="Helvetica,sans-Serif" font-size="10.00">MeshPaintPlugin::MeshPaint</text>
<text text-anchor="middle" x="262" y="-231" font-family="Helvetica,sans-Serif" font-size="10.00">PluginC</text>
</a>
</g>
</g>
<!-- Node1&#45;&gt;Node7 -->
<g id="edge6" class="edge"><title>Node1&#45;&gt;Node7</title>
<path fill="none" stroke="midnightblue" d="M111.611,-199.432C137.861,-206.385 174.102,-215.984 204.315,-223.986"/>
<polygon fill="midnightblue" stroke="midnightblue" points="112.286,-195.99 101.723,-196.813 110.494,-202.757 112.286,-195.99"/>
</g>
<!-- Node8 -->
<g id="node8" class="node"><title>Node8</title>
<g id="a_node8"><a xlink:href="classRa_1_1Gui_1_1CameraInterface.html" target="_top" xlink:title="The CameraInterface class is the generic class for camera manipulators. ">
<polygon fill="white" stroke="black" points="197.5,-38.5 197.5,-57.5 326.5,-57.5 326.5,-38.5 197.5,-38.5"/>
<text text-anchor="middle" x="262" y="-45.5" font-family="Helvetica,sans-Serif" font-size="10.00">Ra::Gui::CameraInterface</text>
</a>
</g>
</g>
<!-- Node1&#45;&gt;Node8 -->
<g id="edge7" class="edge"><title>Node1&#45;&gt;Node8</title>
<path fill="none" stroke="midnightblue" d="M87.2001,-171.697C104.786,-144.556 141.505,-93.9523 186,-67 192.434,-63.1029 199.642,-60.0016 206.977,-57.5344"/>
<polygon fill="midnightblue" stroke="midnightblue" points="84.1835,-169.919 81.7962,-180.241 90.0995,-173.661 84.1835,-169.919"/>
</g>
<!-- Node10 -->
<g id="node10" class="node"><title>Node10</title>
<g id="a_node10"><a xlink:href="classRa_1_1Gui_1_1GizmoManager.html" target="_top" xlink:title="This class interfaces the gizmos with the ui commands. ">
<polygon fill="white" stroke="black" points="201,-0.5 201,-19.5 323,-19.5 323,-0.5 201,-0.5"/>
<text text-anchor="middle" x="262" y="-7.5" font-family="Helvetica,sans-Serif" font-size="10.00">Ra::Gui::GizmoManager</text>
</a>
</g>
</g>
<!-- Node1&#45;&gt;Node10 -->
<g id="edge9" class="edge"><title>Node1&#45;&gt;Node10</title>
<path fill="none" stroke="midnightblue" d="M83.5785,-170.927C98.1042,-136.911 133.185,-65.8947 186,-29 191.506,-25.1539 197.722,-22.0854 204.161,-19.6374"/>
<polygon fill="midnightblue" stroke="midnightblue" points="80.3239,-169.638 79.7335,-180.217 86.7918,-172.315 80.3239,-169.638"/>
</g>
<!-- Node11 -->
<g id="node11" class="node"><title>Node11</title>
<g id="a_node11"><a xlink:href="classSkinningPlugin_1_1SkinningPluginC.html" target="_top" xlink:title="SkinningPlugin::Skinning\lPluginC">
<polygon fill="white" stroke="black" points="199.5,-175 199.5,-205 324.5,-205 324.5,-175 199.5,-175"/>
<text text-anchor="start" x="207.5" y="-193" font-family="Helvetica,sans-Serif" font-size="10.00">SkinningPlugin::Skinning</text>
<text text-anchor="middle" x="262" y="-182" font-family="Helvetica,sans-Serif" font-size="10.00">PluginC</text>
</a>
</g>
</g>
<!-- Node1&#45;&gt;Node11 -->
<g id="edge10" class="edge"><title>Node1&#45;&gt;Node11</title>
<path fill="none" stroke="midnightblue" d="M111.763,-190C136.545,-190 170.18,-190 199.245,-190"/>
<polygon fill="midnightblue" stroke="midnightblue" points="111.723,-186.5 101.723,-190 111.723,-193.5 111.723,-186.5"/>
</g>
<!-- Node9 -->
<g id="node9" class="node"><title>Node9</title>
<g id="a_node9"><a xlink:href="classRa_1_1Gui_1_1TrackballCamera.html" target="_top" xlink:title="A Trackball manipulator for Cameras. ">
<polygon fill="white" stroke="black" points="374.5,-38.5 374.5,-57.5 505.5,-57.5 505.5,-38.5 374.5,-38.5"/>
<text text-anchor="middle" x="440" y="-45.5" font-family="Helvetica,sans-Serif" font-size="10.00">Ra::Gui::TrackballCamera</text>
</a>
</g>
</g>
<!-- Node8&#45;&gt;Node9 -->
<g id="edge8" class="edge"><title>Node8&#45;&gt;Node9</title>
<path fill="none" stroke="midnightblue" d="M336.886,-48C349.338,-48 362.176,-48 374.37,-48"/>
<polygon fill="midnightblue" stroke="midnightblue" points="336.54,-44.5001 326.54,-48 336.54,-51.5001 336.54,-44.5001"/>
</g>
<!-- Node12 -->
<g id="node12" class="node"><title>Node12</title>
<g id="a_node12"><a xlink:href="classRa_1_1Plugins_1_1RadiumPluginInterface.html" target="_top" xlink:title="Ra::Plugins::RadiumPlugin\lInterface">
<polygon fill="white" stroke="black" points="8,-224 8,-254 142,-254 142,-224 8,-224"/>
<text text-anchor="start" x="16" y="-242" font-family="Helvetica,sans-Serif" font-size="10.00">Ra::Plugins::RadiumPlugin</text>
<text text-anchor="middle" x="75" y="-231" font-family="Helvetica,sans-Serif" font-size="10.00">Interface</text>
</a>
</g>
</g>
<!-- Node12&#45;&gt;Node2 -->
<g id="edge11" class="edge"><title>Node12&#45;&gt;Node2</title>
<path fill="none" stroke="#8b1a1a" d="M132.374,-219.6C138.565,-216.475 144.579,-212.948 150,-209 170.148,-194.327 165.397,-180.027 186,-166 191.673,-162.138 197.99,-158.831 204.485,-156.009"/>
<polygon fill="#8b1a1a" stroke="#8b1a1a" points="130.794,-216.475 123.228,-223.891 133.768,-222.812 130.794,-216.475"/>
</g>
<!-- Node12&#45;&gt;Node3 -->
<g id="edge12" class="edge"><title>Node12&#45;&gt;Node3</title>
<path fill="none" stroke="#8b1a1a" d="M137.617,-218.889C142.113,-216.006 146.319,-212.726 150,-209 180.858,-177.764 154.167,-147.242 186,-117 191.672,-111.612 198.536,-107.383 205.781,-104.066"/>
<polygon fill="#8b1a1a" stroke="#8b1a1a" points="135.646,-215.983 128.674,-223.961 139.099,-222.072 135.646,-215.983"/>
</g>
<!-- Node12&#45;&gt;Node4 -->
<g id="edge13" class="edge"><title>Node12&#45;&gt;Node4</title>
<path fill="none" stroke="#8b1a1a" d="M91.0173,-262.667C109.85,-290.399 144.726,-335.761 186,-361 193.128,-365.359 201.202,-368.779 209.347,-371.461"/>
<polygon fill="#8b1a1a" stroke="#8b1a1a" points="93.9277,-260.723 85.4786,-254.33 88.0972,-264.596 93.9277,-260.723"/>
</g>
<!-- Node12&#45;&gt;Node5 -->
<g id="edge14" class="edge"><title>Node12&#45;&gt;Node5</title>
<path fill="none" stroke="#8b1a1a" d="M103.358,-260.126C124.902,-276.01 156.175,-297.452 186,-312 193.525,-315.671 201.722,-319.011 209.844,-321.971"/>
<polygon fill="#8b1a1a" stroke="#8b1a1a" points="105.426,-257.302 95.3191,-254.123 101.238,-262.91 105.426,-257.302"/>
</g>
<!-- Node12&#45;&gt;Node6 -->
<g id="edge15" class="edge"><title>Node12&#45;&gt;Node6</title>
<path fill="none" stroke="#8b1a1a" d="M142.535,-256.623C162.775,-261.984 184.82,-267.823 204.344,-272.994"/>
<polygon fill="#8b1a1a" stroke="#8b1a1a" points="143.326,-253.212 132.763,-254.035 141.534,-259.978 143.326,-253.212"/>
</g>
<!-- Node12&#45;&gt;Node7 -->
<g id="edge16" class="edge"><title>Node12&#45;&gt;Node7</title>
<path fill="none" stroke="#8b1a1a" d="M152.05,-239C164.712,-239 177.799,-239 190.32,-239"/>
<polygon fill="#8b1a1a" stroke="#8b1a1a" points="152.006,-235.5 142.006,-239 152.006,-242.5 152.006,-235.5"/>
</g>
<!-- Node12&#45;&gt;Node11 -->
<g id="edge17" class="edge"><title>Node12&#45;&gt;Node11</title>
<path fill="none" stroke="#8b1a1a" d="M142.535,-221.377C162.775,-216.016 184.82,-210.177 204.344,-205.006"/>
<polygon fill="#8b1a1a" stroke="#8b1a1a" points="141.534,-218.022 132.763,-223.965 143.326,-224.788 141.534,-218.022"/>
</g>
<!-- Node13 -->
<g id="node13" class="node"><title>Node13</title>
<g id="a_node13"><a xlink:href="classRa_1_1GuiBase_1_1TransformEditor.html" target="_top" xlink:title="Ra::GuiBase::TransformEditor">
<polygon fill="white" stroke="black" points="0.5,-0.5 0.5,-19.5 149.5,-19.5 149.5,-0.5 0.5,-0.5"/>
<text text-anchor="middle" x="75" y="-7.5" font-family="Helvetica,sans-Serif" font-size="10.00">Ra::GuiBase::TransformEditor</text>
</a>
</g>
</g>
<!-- Node13&#45;&gt;Node10 -->
<g id="edge18" class="edge"><title>Node13&#45;&gt;Node10</title>
<path fill="none" stroke="midnightblue" d="M159.71,-10C173.618,-10 187.793,-10 200.963,-10"/>
<polygon fill="midnightblue" stroke="midnightblue" points="159.649,-6.5001 149.648,-10 159.648,-13.5001 159.649,-6.5001"/>
</g>
</g>
</svg>
