<?xml version="1.0" encoding="UTF-8" standalone="no"?>
<!DOCTYPE svg PUBLIC "-//W3C//DTD SVG 1.1//EN"
 "http://www.w3.org/Graphics/SVG/1.1/DTD/svg11.dtd">
<!-- Generated by graphviz version 2.36.0 (20140111.2315)
 -->
<!-- Title: Graphical Class Hierarchy Pages: 1 -->
<svg width="238pt" height="38pt"
 viewBox="0.00 0.00 238.00 38.00" xmlns="http://www.w3.org/2000/svg" xmlns:xlink="http://www.w3.org/1999/xlink">
<g id="graph0" class="graph" transform="scale(1 1) rotate(0) translate(4 34)">
<title>Graphical Class Hierarchy</title>
<polygon fill="white" stroke="none" points="-4,4 -4,-34 234,-34 234,4 -4,4"/>
<!-- Node1 -->
<g id="node1" class="node"><title>Node1</title>
<g id="a_node1"><a xlink:href="classRa_1_1Core_1_1Iterator.html" target="_top" xlink:title="Ra::Core::Iterator\l\&lt; OBJECT \&gt;">
<polygon fill="white" stroke="black" points="0.5,-0 0.5,-30 93.5,-30 93.5,-0 0.5,-0"/>
<text text-anchor="start" x="8.5" y="-18" font-family="Helvetica,sans-Serif" font-size="10.00">Ra::Core::Iterator</text>
<text text-anchor="middle" x="47" y="-7" font-family="Helvetica,sans-Serif" font-size="10.00">&lt; OBJECT &gt;</text>
</a>
</g>
</g>
<!-- Node2 -->
<g id="node2" class="node"><title>Node2</title>
<g id="a_node2"><a xlink:href="classRa_1_1Core_1_1EIterator.html" target="_top" xlink:title="Ra::Core::EIterator\l\&lt; OBJECT \&gt;">
<polygon fill="white" stroke="black" points="130,-0 130,-30 230,-30 230,-0 130,-0"/>
<text text-anchor="start" x="138" y="-18" font-family="Helvetica,sans-Serif" font-size="10.00">Ra::Core::EIterator</text>
<text text-anchor="middle" x="180" y="-7" font-family="Helvetica,sans-Serif" font-size="10.00">&lt; OBJECT &gt;</text>
</a>
</g>
</g>
<!-- Node1&#45;&gt;Node2 -->
<g id="edge1" class="edge"><title>Node1&#45;&gt;Node2</title>
<path fill="none" stroke="midnightblue" d="M103.834,-15C112.488,-15 121.373,-15 129.865,-15"/>
<polygon fill="midnightblue" stroke="midnightblue" points="103.817,-11.5001 93.8174,-15 103.817,-18.5001 103.817,-11.5001"/>
</g>
</g>
</svg>
