<?xml version="1.0" encoding="UTF-8" standalone="no"?>
<!DOCTYPE svg PUBLIC "-//W3C//DTD SVG 1.1//EN"
 "http://www.w3.org/Graphics/SVG/1.1/DTD/svg11.dtd">
<!-- Generated by graphviz version 2.36.0 (20140111.2315)
 -->
<!-- Title: /home/travis/build/STORM&#45;IRIT/Radium&#45;Engine/src/Core/Mesh/DCEL/Iterator/Iterator.inl Pages: 1 -->
<svg width="1854pt" height="422pt"
 viewBox="0.00 0.00 1854.00 422.00" xmlns="http://www.w3.org/2000/svg" xmlns:xlink="http://www.w3.org/1999/xlink">
<g id="graph0" class="graph" transform="scale(1 1) rotate(0) translate(4 418)">
<title>/home/travis/build/STORM&#45;IRIT/Radium&#45;Engine/src/Core/Mesh/DCEL/Iterator/Iterator.inl</title>
<polygon fill="white" stroke="none" points="-4,4 -4,-418 1850,-418 1850,4 -4,4"/>
<!-- Node1 -->
<g id="node1" class="node"><title>Node1</title>
<polygon fill="#bfbfbf" stroke="black" points="498,-361 498,-413 646,-413 646,-361 498,-361"/>
<text text-anchor="start" x="506" y="-401" font-family="Helvetica,sans-Serif" font-size="10.00">/home/travis/build</text>
<text text-anchor="start" x="506" y="-390" font-family="Helvetica,sans-Serif" font-size="10.00">/STORM&#45;IRIT/Radium&#45;Engine</text>
<text text-anchor="start" x="506" y="-379" font-family="Helvetica,sans-Serif" font-size="10.00">/src/Core/Mesh/DCEL/Iterator</text>
<text text-anchor="middle" x="572" y="-368" font-family="Helvetica,sans-Serif" font-size="10.00">/Iterator.inl</text>
</g>
<!-- Node2 -->
<g id="node2" class="node"><title>Node2</title>
<g id="a_node2"><a xlink:href="Iterator_8hpp.html" target="_top" xlink:title="/home/travis/build\l/STORM&#45;IRIT/Radium&#45;Engine\l/src/Core/Mesh/DCEL/Iterator\l/Iterator.hpp">
<polygon fill="white" stroke="black" points="498,-271 498,-323 646,-323 646,-271 498,-271"/>
<text text-anchor="start" x="506" y="-311" font-family="Helvetica,sans-Serif" font-size="10.00">/home/travis/build</text>
<text text-anchor="start" x="506" y="-300" font-family="Helvetica,sans-Serif" font-size="10.00">/STORM&#45;IRIT/Radium&#45;Engine</text>
<text text-anchor="start" x="506" y="-289" font-family="Helvetica,sans-Serif" font-size="10.00">/src/Core/Mesh/DCEL/Iterator</text>
<text text-anchor="middle" x="572" y="-278" font-family="Helvetica,sans-Serif" font-size="10.00">/Iterator.hpp</text>
</a>
</g>
</g>
<!-- Node1&#45;&gt;Node2 -->
<g id="edge1" class="edge"><title>Node1&#45;&gt;Node2</title>
<path fill="none" stroke="midnightblue" d="M565.363,-350.489C565.116,-341.309 565.274,-331.616 565.838,-323.092"/>
<polygon fill="midnightblue" stroke="midnightblue" points="561.869,-350.714 565.814,-360.547 568.862,-350.4 561.869,-350.714"/>
</g>
<!-- Node2&#45;&gt;Node1 -->
<g id="edge20" class="edge"><title>Node2&#45;&gt;Node1</title>
<path fill="none" stroke="midnightblue" d="M578.626,-333.123C578.885,-342.289 578.738,-351.99 578.186,-360.547"/>
<polygon fill="midnightblue" stroke="midnightblue" points="582.121,-332.92 578.162,-323.092 575.128,-333.243 582.121,-332.92"/>
</g>
<!-- Node3 -->
<g id="node3" class="node"><title>Node3</title>
<g id="a_node3"><a xlink:href="EdgeIterator_8hpp.html" target="_top" xlink:title="/home/travis/build\l/STORM&#45;IRIT/Radium&#45;Engine\l/src/Core/Mesh/DCEL/Iterator\l/Edge/EdgeIterator.hpp">
<polygon fill="white" stroke="black" points="0,-181 0,-233 148,-233 148,-181 0,-181"/>
<text text-anchor="start" x="8" y="-221" font-family="Helvetica,sans-Serif" font-size="10.00">/home/travis/build</text>
<text text-anchor="start" x="8" y="-210" font-family="Helvetica,sans-Serif" font-size="10.00">/STORM&#45;IRIT/Radium&#45;Engine</text>
<text text-anchor="start" x="8" y="-199" font-family="Helvetica,sans-Serif" font-size="10.00">/src/Core/Mesh/DCEL/Iterator</text>
<text text-anchor="middle" x="74" y="-188" font-family="Helvetica,sans-Serif" font-size="10.00">/Edge/EdgeIterator.hpp</text>
</a>
</g>
</g>
<!-- Node2&#45;&gt;Node3 -->
<g id="edge2" class="edge"><title>Node2&#45;&gt;Node3</title>
<path fill="none" stroke="midnightblue" d="M488.096,-281.174C392.855,-264.344 238.955,-237.149 148.017,-221.079"/>
<polygon fill="midnightblue" stroke="midnightblue" points="487.526,-284.627 497.982,-282.921 488.744,-277.734 487.526,-284.627"/>
</g>
<!-- Node5 -->
<g id="node5" class="node"><title>Node5</title>
<g id="a_node5"><a xlink:href="FaceIterator_8hpp.html" target="_top" xlink:title="/home/travis/build\l/STORM&#45;IRIT/Radium&#45;Engine\l/src/Core/Mesh/DCEL/Iterator\l/Face/FaceIterator.hpp">
<polygon fill="white" stroke="black" points="498,-181 498,-233 646,-233 646,-181 498,-181"/>
<text text-anchor="start" x="506" y="-221" font-family="Helvetica,sans-Serif" font-size="10.00">/home/travis/build</text>
<text text-anchor="start" x="506" y="-210" font-family="Helvetica,sans-Serif" font-size="10.00">/STORM&#45;IRIT/Radium&#45;Engine</text>
<text text-anchor="start" x="506" y="-199" font-family="Helvetica,sans-Serif" font-size="10.00">/src/Core/Mesh/DCEL/Iterator</text>
<text text-anchor="middle" x="572" y="-188" font-family="Helvetica,sans-Serif" font-size="10.00">/Face/FaceIterator.hpp</text>
</a>
</g>
</g>
<!-- Node2&#45;&gt;Node5 -->
<g id="edge5" class="edge"><title>Node2&#45;&gt;Node5</title>
<path fill="none" stroke="midnightblue" d="M572,-260.489C572,-251.309 572,-241.616 572,-233.092"/>
<polygon fill="midnightblue" stroke="midnightblue" points="568.5,-260.547 572,-270.547 575.5,-260.547 568.5,-260.547"/>
</g>
<!-- Node15 -->
<g id="node15" class="node"><title>Node15</title>
<g id="a_node15"><a xlink:href="VertexIterator_8hpp.html" target="_top" xlink:title="/home/travis/build\l/STORM&#45;IRIT/Radium&#45;Engine\l/src/Core/Mesh/DCEL/Iterator\l/Vertex/VertexIterator.hpp">
<polygon fill="white" stroke="black" points="1200,-181 1200,-233 1348,-233 1348,-181 1200,-181"/>
<text text-anchor="start" x="1208" y="-221" font-family="Helvetica,sans-Serif" font-size="10.00">/home/travis/build</text>
<text text-anchor="start" x="1208" y="-210" font-family="Helvetica,sans-Serif" font-size="10.00">/STORM&#45;IRIT/Radium&#45;Engine</text>
<text text-anchor="start" x="1208" y="-199" font-family="Helvetica,sans-Serif" font-size="10.00">/src/Core/Mesh/DCEL/Iterator</text>
<text text-anchor="middle" x="1274" y="-188" font-family="Helvetica,sans-Serif" font-size="10.00">/Vertex/VertexIterator.hpp</text>
</a>
</g>
</g>
<!-- Node2&#45;&gt;Node15 -->
<g id="edge21" class="edge"><title>Node2&#45;&gt;Node15</title>
<path fill="none" stroke="midnightblue" d="M656.273,-285.436C794.812,-268.069 1068.41,-233.772 1199.96,-217.282"/>
<polygon fill="midnightblue" stroke="midnightblue" points="655.617,-281.991 646.13,-286.707 656.488,-288.936 655.617,-281.991"/>
</g>
<!-- Node4 -->
<g id="node4" class="node"><title>Node4</title>
<g id="a_node4"><a xlink:href="EdgeIterator_8inl.html" target="_top" xlink:title="/home/travis/build\l/STORM&#45;IRIT/Radium&#45;Engine\l/src/Core/Mesh/DCEL/Iterator\l/Edge/EdgeIterator.inl">
<polygon fill="white" stroke="black" points="0,-91 0,-143 148,-143 148,-91 0,-91"/>
<text text-anchor="start" x="8" y="-131" font-family="Helvetica,sans-Serif" font-size="10.00">/home/travis/build</text>
<text text-anchor="start" x="8" y="-120" font-family="Helvetica,sans-Serif" font-size="10.00">/STORM&#45;IRIT/Radium&#45;Engine</text>
<text text-anchor="start" x="8" y="-109" font-family="Helvetica,sans-Serif" font-size="10.00">/src/Core/Mesh/DCEL/Iterator</text>
<text text-anchor="middle" x="74" y="-98" font-family="Helvetica,sans-Serif" font-size="10.00">/Edge/EdgeIterator.inl</text>
</a>
</g>
</g>
<!-- Node3&#45;&gt;Node4 -->
<g id="edge3" class="edge"><title>Node3&#45;&gt;Node4</title>
<path fill="none" stroke="midnightblue" d="M67.3629,-170.489C67.1159,-161.309 67.2741,-151.616 67.8376,-143.092"/>
<polygon fill="midnightblue" stroke="midnightblue" points="63.8694,-170.714 67.814,-180.547 70.8624,-170.4 63.8694,-170.714"/>
</g>
<!-- Node4&#45;&gt;Node3 -->
<g id="edge4" class="edge"><title>Node4&#45;&gt;Node3</title>
<path fill="none" stroke="midnightblue" d="M80.6264,-153.123C80.8848,-162.289 80.738,-171.99 80.186,-180.547"/>
<polygon fill="midnightblue" stroke="midnightblue" points="84.1208,-152.92 80.1624,-143.092 77.1283,-153.243 84.1208,-152.92"/>
</g>
<!-- Node6 -->
<g id="node6" class="node"><title>Node6</title>
<g id="a_node6"><a xlink:href="FaceIterator_8inl.html" target="_top" xlink:title="/home/travis/build\l/STORM&#45;IRIT/Radium&#45;Engine\l/src/Core/Mesh/DCEL/Iterator\l/Face/FaceIterator.inl">
<polygon fill="white" stroke="black" points="166,-91 166,-143 314,-143 314,-91 166,-91"/>
<text text-anchor="start" x="174" y="-131" font-family="Helvetica,sans-Serif" font-size="10.00">/home/travis/build</text>
<text text-anchor="start" x="174" y="-120" font-family="Helvetica,sans-Serif" font-size="10.00">/STORM&#45;IRIT/Radium&#45;Engine</text>
<text text-anchor="start" x="174" y="-109" font-family="Helvetica,sans-Serif" font-size="10.00">/src/Core/Mesh/DCEL/Iterator</text>
<text text-anchor="middle" x="240" y="-98" font-family="Helvetica,sans-Serif" font-size="10.00">/Face/FaceIterator.inl</text>
</a>
</g>
</g>
<!-- Node5&#45;&gt;Node6 -->
<g id="edge6" class="edge"><title>Node5&#45;&gt;Node6</title>
<path fill="none" stroke="midnightblue" d="M488.033,-188.254C437.291,-176.444 371.599,-160.177 314,-144 312.837,-143.673 311.666,-143.342 310.488,-143.006"/>
<polygon fill="midnightblue" stroke="midnightblue" points="487.443,-191.71 497.975,-190.555 489.022,-184.89 487.443,-191.71"/>
</g>
<!-- Node7 -->
<g id="node7" class="node"><title>Node7</title>
<g id="a_node7"><a xlink:href="FFEIterator_8hpp.html" target="_top" xlink:title="/home/travis/build\l/STORM&#45;IRIT/Radium&#45;Engine\l/src/Core/Mesh/DCEL/Iterator\l/Face/FFEIterator.hpp">
<polygon fill="white" stroke="black" points="332,-91 332,-143 480,-143 480,-91 332,-91"/>
<text text-anchor="start" x="340" y="-131" font-family="Helvetica,sans-Serif" font-size="10.00">/home/travis/build</text>
<text text-anchor="start" x="340" y="-120" font-family="Helvetica,sans-Serif" font-size="10.00">/STORM&#45;IRIT/Radium&#45;Engine</text>
<text text-anchor="start" x="340" y="-109" font-family="Helvetica,sans-Serif" font-size="10.00">/src/Core/Mesh/DCEL/Iterator</text>
<text text-anchor="middle" x="406" y="-98" font-family="Helvetica,sans-Serif" font-size="10.00">/Face/FFEIterator.hpp</text>
</a>
</g>
</g>
<!-- Node5&#45;&gt;Node7 -->
<g id="edge8" class="edge"><title>Node5&#45;&gt;Node7</title>
<path fill="none" stroke="midnightblue" d="M515.334,-175.96C495.136,-165.253 472.616,-153.315 453.289,-143.069"/>
<polygon fill="midnightblue" stroke="midnightblue" points="513.956,-179.191 524.431,-180.783 517.235,-173.007 513.956,-179.191"/>
</g>
<!-- Node9 -->
<g id="node9" class="node"><title>Node9</title>
<g id="a_node9"><a xlink:href="FFIterator_8hpp.html" target="_top" xlink:title="/home/travis/build\l/STORM&#45;IRIT/Radium&#45;Engine\l/src/Core/Mesh/DCEL/Iterator\l/Face/FFIterator.hpp">
<polygon fill="white" stroke="black" points="498,-91 498,-143 646,-143 646,-91 498,-91"/>
<text text-anchor="start" x="506" y="-131" font-family="Helvetica,sans-Serif" font-size="10.00">/home/travis/build</text>
<text text-anchor="start" x="506" y="-120" font-family="Helvetica,sans-Serif" font-size="10.00">/STORM&#45;IRIT/Radium&#45;Engine</text>
<text text-anchor="start" x="506" y="-109" font-family="Helvetica,sans-Serif" font-size="10.00">/src/Core/Mesh/DCEL/Iterator</text>
<text text-anchor="middle" x="572" y="-98" font-family="Helvetica,sans-Serif" font-size="10.00">/Face/FFIterator.hpp</text>
</a>
</g>
</g>
<!-- Node5&#45;&gt;Node9 -->
<g id="edge11" class="edge"><title>Node5&#45;&gt;Node9</title>
<path fill="none" stroke="midnightblue" d="M572,-170.489C572,-161.309 572,-151.616 572,-143.092"/>
<polygon fill="midnightblue" stroke="midnightblue" points="568.5,-170.547 572,-180.547 575.5,-170.547 568.5,-170.547"/>
</g>
<!-- Node11 -->
<g id="node11" class="node"><title>Node11</title>
<g id="a_node11"><a xlink:href="FHEIterator_8hpp.html" target="_top" xlink:title="/home/travis/build\l/STORM&#45;IRIT/Radium&#45;Engine\l/src/Core/Mesh/DCEL/Iterator\l/Face/FHEIterator.hpp">
<polygon fill="white" stroke="black" points="664,-91 664,-143 812,-143 812,-91 664,-91"/>
<text text-anchor="start" x="672" y="-131" font-family="Helvetica,sans-Serif" font-size="10.00">/home/travis/build</text>
<text text-anchor="start" x="672" y="-120" font-family="Helvetica,sans-Serif" font-size="10.00">/STORM&#45;IRIT/Radium&#45;Engine</text>
<text text-anchor="start" x="672" y="-109" font-family="Helvetica,sans-Serif" font-size="10.00">/src/Core/Mesh/DCEL/Iterator</text>
<text text-anchor="middle" x="738" y="-98" font-family="Helvetica,sans-Serif" font-size="10.00">/Face/FHEIterator.hpp</text>
</a>
</g>
</g>
<!-- Node5&#45;&gt;Node11 -->
<g id="edge14" class="edge"><title>Node5&#45;&gt;Node11</title>
<path fill="none" stroke="midnightblue" d="M628.666,-175.96C648.864,-165.253 671.384,-153.315 690.711,-143.069"/>
<polygon fill="midnightblue" stroke="midnightblue" points="626.765,-173.007 619.569,-180.783 630.044,-179.191 626.765,-173.007"/>
</g>
<!-- Node13 -->
<g id="node13" class="node"><title>Node13</title>
<g id="a_node13"><a xlink:href="FVIterator_8hpp.html" target="_top" xlink:title="/home/travis/build\l/STORM&#45;IRIT/Radium&#45;Engine\l/src/Core/Mesh/DCEL/Iterator\l/Face/FVIterator.hpp">
<polygon fill="white" stroke="black" points="849,-1 849,-53 997,-53 997,-1 849,-1"/>
<text text-anchor="start" x="857" y="-41" font-family="Helvetica,sans-Serif" font-size="10.00">/home/travis/build</text>
<text text-anchor="start" x="857" y="-30" font-family="Helvetica,sans-Serif" font-size="10.00">/STORM&#45;IRIT/Radium&#45;Engine</text>
<text text-anchor="start" x="857" y="-19" font-family="Helvetica,sans-Serif" font-size="10.00">/src/Core/Mesh/DCEL/Iterator</text>
<text text-anchor="middle" x="923" y="-8" font-family="Helvetica,sans-Serif" font-size="10.00">/Face/FVIterator.hpp</text>
</a>
</g>
</g>
<!-- Node5&#45;&gt;Node13 -->
<g id="edge17" class="edge"><title>Node5&#45;&gt;Node13</title>
<path fill="none" stroke="midnightblue" d="M656.306,-199.881C707.624,-192.732 772.424,-177.29 821,-144 845.208,-127.41 839.932,-112.308 859,-90 869.956,-77.182 883.185,-64.0394 894.765,-53.1724"/>
<polygon fill="midnightblue" stroke="midnightblue" points="655.69,-196.432 646.231,-201.204 656.601,-203.373 655.69,-196.432"/>
</g>
<!-- Node14 -->
<g id="node14" class="node"><title>Node14</title>
<g id="a_node14"><a xlink:href="FVIterator_8inl.html" target="_top" xlink:title="/home/travis/build\l/STORM&#45;IRIT/Radium&#45;Engine\l/src/Core/Mesh/DCEL/Iterator\l/Face/FVIterator.inl">
<polygon fill="white" stroke="black" points="868,-91 868,-143 1016,-143 1016,-91 868,-91"/>
<text text-anchor="start" x="876" y="-131" font-family="Helvetica,sans-Serif" font-size="10.00">/home/travis/build</text>
<text text-anchor="start" x="876" y="-120" font-family="Helvetica,sans-Serif" font-size="10.00">/STORM&#45;IRIT/Radium&#45;Engine</text>
<text text-anchor="start" x="876" y="-109" font-family="Helvetica,sans-Serif" font-size="10.00">/src/Core/Mesh/DCEL/Iterator</text>
<text text-anchor="middle" x="942" y="-98" font-family="Helvetica,sans-Serif" font-size="10.00">/Face/FVIterator.inl</text>
</a>
</g>
</g>
<!-- Node5&#45;&gt;Node14 -->
<g id="edge18" class="edge"><title>Node5&#45;&gt;Node14</title>
<path fill="none" stroke="midnightblue" d="M656.179,-189.121C712.427,-177.444 787.938,-160.998 854,-144 858.474,-142.849 863.064,-141.625 867.686,-140.359"/>
<polygon fill="midnightblue" stroke="midnightblue" points="655.346,-185.72 646.262,-191.172 656.763,-192.575 655.346,-185.72"/>
</g>
<!-- Node6&#45;&gt;Node5 -->
<g id="edge7" class="edge"><title>Node6&#45;&gt;Node5</title>
<path fill="none" stroke="midnightblue" d="M323.702,-141.629C326.502,-142.442 329.274,-143.234 332,-144 387.435,-159.569 450.365,-175.221 497.933,-186.904"/>
<polygon fill="midnightblue" stroke="midnightblue" points="324.682,-138.269 314.1,-138.806 322.707,-144.985 324.682,-138.269"/>
</g>
<!-- Node8 -->
<g id="node8" class="node"><title>Node8</title>
<g id="a_node8"><a xlink:href="FFEIterator_8inl.html" target="_top" xlink:title="/home/travis/build\l/STORM&#45;IRIT/Radium&#45;Engine\l/src/Core/Mesh/DCEL/Iterator\l/Face/FFEIterator.inl">
<polygon fill="white" stroke="black" points="332,-1 332,-53 480,-53 480,-1 332,-1"/>
<text text-anchor="start" x="340" y="-41" font-family="Helvetica,sans-Serif" font-size="10.00">/home/travis/build</text>
<text text-anchor="start" x="340" y="-30" font-family="Helvetica,sans-Serif" font-size="10.00">/STORM&#45;IRIT/Radium&#45;Engine</text>
<text text-anchor="start" x="340" y="-19" font-family="Helvetica,sans-Serif" font-size="10.00">/src/Core/Mesh/DCEL/Iterator</text>
<text text-anchor="middle" x="406" y="-8" font-family="Helvetica,sans-Serif" font-size="10.00">/Face/FFEIterator.inl</text>
</a>
</g>
</g>
<!-- Node7&#45;&gt;Node8 -->
<g id="edge9" class="edge"><title>Node7&#45;&gt;Node8</title>
<path fill="none" stroke="midnightblue" d="M399.363,-80.4892C399.116,-71.3088 399.274,-61.616 399.838,-53.0921"/>
<polygon fill="midnightblue" stroke="midnightblue" points="395.869,-80.7136 399.814,-90.5468 402.862,-80.3999 395.869,-80.7136"/>
</g>
<!-- Node8&#45;&gt;Node7 -->
<g id="edge10" class="edge"><title>Node8&#45;&gt;Node7</title>
<path fill="none" stroke="midnightblue" d="M412.626,-63.1229C412.885,-72.2885 412.738,-81.9903 412.186,-90.5468"/>
<polygon fill="midnightblue" stroke="midnightblue" points="416.121,-62.9197 412.162,-53.0921 409.128,-63.2432 416.121,-62.9197"/>
</g>
<!-- Node10 -->
<g id="node10" class="node"><title>Node10</title>
<g id="a_node10"><a xlink:href="FFIterator_8inl.html" target="_top" xlink:title="/home/travis/build\l/STORM&#45;IRIT/Radium&#45;Engine\l/src/Core/Mesh/DCEL/Iterator\l/Face/FFIterator.inl">
<polygon fill="white" stroke="black" points="498,-1 498,-53 646,-53 646,-1 498,-1"/>
<text text-anchor="start" x="506" y="-41" font-family="Helvetica,sans-Serif" font-size="10.00">/home/travis/build</text>
<text text-anchor="start" x="506" y="-30" font-family="Helvetica,sans-Serif" font-size="10.00">/STORM&#45;IRIT/Radium&#45;Engine</text>
<text text-anchor="start" x="506" y="-19" font-family="Helvetica,sans-Serif" font-size="10.00">/src/Core/Mesh/DCEL/Iterator</text>
<text text-anchor="middle" x="572" y="-8" font-family="Helvetica,sans-Serif" font-size="10.00">/Face/FFIterator.inl</text>
</a>
</g>
</g>
<!-- Node9&#45;&gt;Node10 -->
<g id="edge12" class="edge"><title>Node9&#45;&gt;Node10</title>
<path fill="none" stroke="midnightblue" d="M565.363,-80.4892C565.116,-71.3088 565.274,-61.616 565.838,-53.0921"/>
<polygon fill="midnightblue" stroke="midnightblue" points="561.869,-80.7136 565.814,-90.5468 568.862,-80.3999 561.869,-80.7136"/>
</g>
<!-- Node10&#45;&gt;Node9 -->
<g id="edge13" class="edge"><title>Node10&#45;&gt;Node9</title>
<path fill="none" stroke="midnightblue" d="M578.626,-63.1229C578.885,-72.2885 578.738,-81.9903 578.186,-90.5468"/>
<polygon fill="midnightblue" stroke="midnightblue" points="582.121,-62.9197 578.162,-53.0921 575.128,-63.2432 582.121,-62.9197"/>
</g>
<!-- Node12 -->
<g id="node12" class="node"><title>Node12</title>
<g id="a_node12"><a xlink:href="FHEIterator_8inl.html" target="_top" xlink:title="/home/travis/build\l/STORM&#45;IRIT/Radium&#45;Engine\l/src/Core/Mesh/DCEL/Iterator\l/Face/FHEIterator.inl">
<polygon fill="white" stroke="black" points="664,-1 664,-53 812,-53 812,-1 664,-1"/>
<text text-anchor="start" x="672" y="-41" font-family="Helvetica,sans-Serif" font-size="10.00">/home/travis/build</text>
<text text-anchor="start" x="672" y="-30" font-family="Helvetica,sans-Serif" font-size="10.00">/STORM&#45;IRIT/Radium&#45;Engine</text>
<text text-anchor="start" x="672" y="-19" font-family="Helvetica,sans-Serif" font-size="10.00">/src/Core/Mesh/DCEL/Iterator</text>
<text text-anchor="middle" x="738" y="-8" font-family="Helvetica,sans-Serif" font-size="10.00">/Face/FHEIterator.inl</text>
</a>
</g>
</g>
<!-- Node11&#45;&gt;Node12 -->
<g id="edge15" class="edge"><title>Node11&#45;&gt;Node12</title>
<path fill="none" stroke="midnightblue" d="M731.363,-80.4892C731.116,-71.3088 731.274,-61.616 731.838,-53.0921"/>
<polygon fill="midnightblue" stroke="midnightblue" points="727.869,-80.7136 731.814,-90.5468 734.862,-80.3999 727.869,-80.7136"/>
</g>
<!-- Node12&#45;&gt;Node11 -->
<g id="edge16" class="edge"><title>Node12&#45;&gt;Node11</title>
<path fill="none" stroke="midnightblue" d="M744.626,-63.1229C744.885,-72.2885 744.738,-81.9903 744.186,-90.5468"/>
<polygon fill="midnightblue" stroke="midnightblue" points="748.121,-62.9197 744.162,-53.0921 741.128,-63.2432 748.121,-62.9197"/>
</g>
<!-- Node14&#45;&gt;Node13 -->
<g id="edge19" class="edge"><title>Node14&#45;&gt;Node13</title>
<path fill="none" stroke="midnightblue" d="M934.333,-80.4892C932.351,-71.3088 930.258,-61.616 928.418,-53.0921"/>
<polygon fill="midnightblue" stroke="midnightblue" points="930.973,-81.5107 936.504,-90.5468 937.815,-80.0333 930.973,-81.5107"/>
</g>
<!-- Node16 -->
<g id="node16" class="node"><title>Node16</title>
<g id="a_node16"><a xlink:href="VertexIterator_8inl.html" target="_top" xlink:title="/home/travis/build\l/STORM&#45;IRIT/Radium&#45;Engine\l/src/Core/Mesh/DCEL/Iterator\l/Vertex/VertexIterator.inl">
<polygon fill="white" stroke="black" points="1034,-91 1034,-143 1182,-143 1182,-91 1034,-91"/>
<text text-anchor="start" x="1042" y="-131" font-family="Helvetica,sans-Serif" font-size="10.00">/home/travis/build</text>
<text text-anchor="start" x="1042" y="-120" font-family="Helvetica,sans-Serif" font-size="10.00">/STORM&#45;IRIT/Radium&#45;Engine</text>
<text text-anchor="start" x="1042" y="-109" font-family="Helvetica,sans-Serif" font-size="10.00">/src/Core/Mesh/DCEL/Iterator</text>
<text text-anchor="middle" x="1108" y="-98" font-family="Helvetica,sans-Serif" font-size="10.00">/Vertex/VertexIterator.inl</text>
</a>
</g>
</g>
<!-- Node15&#45;&gt;Node16 -->
<g id="edge22" class="edge"><title>Node15&#45;&gt;Node16</title>
<path fill="none" stroke="midnightblue" d="M1211.17,-176.105C1190.41,-165.36 1167.86,-153.361 1149.13,-143.069"/>
<polygon fill="midnightblue" stroke="midnightblue" points="1209.77,-179.317 1220.26,-180.783 1212.97,-173.093 1209.77,-179.317"/>
</g>
<!-- Node17 -->
<g id="node17" class="node"><title>Node17</title>
<g id="a_node17"><a xlink:href="VFEIterator_8hpp.html" target="_top" xlink:title="/home/travis/build\l/STORM&#45;IRIT/Radium&#45;Engine\l/src/Core/Mesh/DCEL/Iterator\l/Vertex/VFEIterator.hpp">
<polygon fill="white" stroke="black" points="1200,-91 1200,-143 1348,-143 1348,-91 1200,-91"/>
<text text-anchor="start" x="1208" y="-131" font-family="Helvetica,sans-Serif" font-size="10.00">/home/travis/build</text>
<text text-anchor="start" x="1208" y="-120" font-family="Helvetica,sans-Serif" font-size="10.00">/STORM&#45;IRIT/Radium&#45;Engine</text>
<text text-anchor="start" x="1208" y="-109" font-family="Helvetica,sans-Serif" font-size="10.00">/src/Core/Mesh/DCEL/Iterator</text>
<text text-anchor="middle" x="1274" y="-98" font-family="Helvetica,sans-Serif" font-size="10.00">/Vertex/VFEIterator.hpp</text>
</a>
</g>
</g>
<!-- Node15&#45;&gt;Node17 -->
<g id="edge24" class="edge"><title>Node15&#45;&gt;Node17</title>
<path fill="none" stroke="midnightblue" d="M1274,-170.489C1274,-161.309 1274,-151.616 1274,-143.092"/>
<polygon fill="midnightblue" stroke="midnightblue" points="1270.5,-170.547 1274,-180.547 1277.5,-170.547 1270.5,-170.547"/>
</g>
<!-- Node19 -->
<g id="node19" class="node"><title>Node19</title>
<g id="a_node19"><a xlink:href="VFIterator_8hpp.html" target="_top" xlink:title="/home/travis/build\l/STORM&#45;IRIT/Radium&#45;Engine\l/src/Core/Mesh/DCEL/Iterator\l/Vertex/VFIterator.hpp">
<polygon fill="white" stroke="black" points="1366,-91 1366,-143 1514,-143 1514,-91 1366,-91"/>
<text text-anchor="start" x="1374" y="-131" font-family="Helvetica,sans-Serif" font-size="10.00">/home/travis/build</text>
<text text-anchor="start" x="1374" y="-120" font-family="Helvetica,sans-Serif" font-size="10.00">/STORM&#45;IRIT/Radium&#45;Engine</text>
<text text-anchor="start" x="1374" y="-109" font-family="Helvetica,sans-Serif" font-size="10.00">/src/Core/Mesh/DCEL/Iterator</text>
<text text-anchor="middle" x="1440" y="-98" font-family="Helvetica,sans-Serif" font-size="10.00">/Vertex/VFIterator.hpp</text>
</a>
</g>
</g>
<!-- Node15&#45;&gt;Node19 -->
<g id="edge27" class="edge"><title>Node15&#45;&gt;Node19</title>
<path fill="none" stroke="midnightblue" d="M1330.67,-175.96C1350.86,-165.253 1373.38,-153.315 1392.71,-143.069"/>
<polygon fill="midnightblue" stroke="midnightblue" points="1328.76,-173.007 1321.57,-180.783 1332.04,-179.191 1328.76,-173.007"/>
</g>
<!-- Node21 -->
<g id="node21" class="node"><title>Node21</title>
<g id="a_node21"><a xlink:href="VHEIterator_8hpp.html" target="_top" xlink:title="/home/travis/build\l/STORM&#45;IRIT/Radium&#45;Engine\l/src/Core/Mesh/DCEL/Iterator\l/Vertex/VHEIterator.hpp">
<polygon fill="white" stroke="black" points="1532,-91 1532,-143 1680,-143 1680,-91 1532,-91"/>
<text text-anchor="start" x="1540" y="-131" font-family="Helvetica,sans-Serif" font-size="10.00">/home/travis/build</text>
<text text-anchor="start" x="1540" y="-120" font-family="Helvetica,sans-Serif" font-size="10.00">/STORM&#45;IRIT/Radium&#45;Engine</text>
<text text-anchor="start" x="1540" y="-109" font-family="Helvetica,sans-Serif" font-size="10.00">/src/Core/Mesh/DCEL/Iterator</text>
<text text-anchor="middle" x="1606" y="-98" font-family="Helvetica,sans-Serif" font-size="10.00">/Vertex/VHEIterator.hpp</text>
</a>
</g>
</g>
<!-- Node15&#45;&gt;Node21 -->
<g id="edge30" class="edge"><title>Node15&#45;&gt;Node21</title>
<path fill="none" stroke="midnightblue" d="M1357.93,-186.419C1406.37,-174.79 1468.33,-159.355 1523,-144 1525.91,-143.183 1528.87,-142.336 1531.85,-141.467"/>
<polygon fill="midnightblue" stroke="midnightblue" points="1357.03,-183.035 1348.12,-188.767 1358.66,-189.843 1357.03,-183.035"/>
</g>
<!-- Node23 -->
<g id="node23" class="node"><title>Node23</title>
<g id="a_node23"><a xlink:href="VVIterator_8hpp.html" target="_top" xlink:title="/home/travis/build\l/STORM&#45;IRIT/Radium&#45;Engine\l/src/Core/Mesh/DCEL/Iterator\l/Vertex/VVIterator.hpp">
<polygon fill="white" stroke="black" points="1698,-91 1698,-143 1846,-143 1846,-91 1698,-91"/>
<text text-anchor="start" x="1706" y="-131" font-family="Helvetica,sans-Serif" font-size="10.00">/home/travis/build</text>
<text text-anchor="start" x="1706" y="-120" font-family="Helvetica,sans-Serif" font-size="10.00">/STORM&#45;IRIT/Radium&#45;Engine</text>
<text text-anchor="start" x="1706" y="-109" font-family="Helvetica,sans-Serif" font-size="10.00">/src/Core/Mesh/DCEL/Iterator</text>
<text text-anchor="middle" x="1772" y="-98" font-family="Helvetica,sans-Serif" font-size="10.00">/Vertex/VVIterator.hpp</text>
</a>
</g>
</g>
<!-- Node15&#45;&gt;Node23 -->
<g id="edge33" class="edge"><title>Node15&#45;&gt;Node23</title>
<path fill="none" stroke="midnightblue" d="M1358.15,-197.311C1442.5,-187.695 1575.75,-170.032 1689,-144 1691.94,-143.323 1694.93,-142.594 1697.94,-141.824"/>
<polygon fill="midnightblue" stroke="midnightblue" points="1357.66,-193.845 1348.11,-198.444 1358.44,-200.8 1357.66,-193.845"/>
</g>
<!-- Node16&#45;&gt;Node15 -->
<g id="edge23" class="edge"><title>Node16&#45;&gt;Node15</title>
<path fill="none" stroke="midnightblue" d="M1170.53,-147.74C1191.28,-158.473 1213.83,-170.474 1232.6,-180.783"/>
<polygon fill="midnightblue" stroke="midnightblue" points="1171.94,-144.533 1161.45,-143.069 1168.74,-150.757 1171.94,-144.533"/>
</g>
<!-- Node18 -->
<g id="node18" class="node"><title>Node18</title>
<g id="a_node18"><a xlink:href="VFEIterator_8inl.html" target="_top" xlink:title="/home/travis/build\l/STORM&#45;IRIT/Radium&#45;Engine\l/src/Core/Mesh/DCEL/Iterator\l/Vertex/VFEIterator.inl">
<polygon fill="white" stroke="black" points="1200,-1 1200,-53 1348,-53 1348,-1 1200,-1"/>
<text text-anchor="start" x="1208" y="-41" font-family="Helvetica,sans-Serif" font-size="10.00">/home/travis/build</text>
<text text-anchor="start" x="1208" y="-30" font-family="Helvetica,sans-Serif" font-size="10.00">/STORM&#45;IRIT/Radium&#45;Engine</text>
<text text-anchor="start" x="1208" y="-19" font-family="Helvetica,sans-Serif" font-size="10.00">/src/Core/Mesh/DCEL/Iterator</text>
<text text-anchor="middle" x="1274" y="-8" font-family="Helvetica,sans-Serif" font-size="10.00">/Vertex/VFEIterator.inl</text>
</a>
</g>
</g>
<!-- Node17&#45;&gt;Node18 -->
<g id="edge25" class="edge"><title>Node17&#45;&gt;Node18</title>
<path fill="none" stroke="midnightblue" d="M1267.36,-80.4892C1267.12,-71.3088 1267.27,-61.616 1267.84,-53.0921"/>
<polygon fill="midnightblue" stroke="midnightblue" points="1263.87,-80.7136 1267.81,-90.5468 1270.86,-80.3999 1263.87,-80.7136"/>
</g>
<!-- Node18&#45;&gt;Node17 -->
<g id="edge26" class="edge"><title>Node18&#45;&gt;Node17</title>
<path fill="none" stroke="midnightblue" d="M1280.63,-63.1229C1280.88,-72.2885 1280.74,-81.9903 1280.19,-90.5468"/>
<polygon fill="midnightblue" stroke="midnightblue" points="1284.12,-62.9197 1280.16,-53.0921 1277.13,-63.2432 1284.12,-62.9197"/>
</g>
<!-- Node20 -->
<g id="node20" class="node"><title>Node20</title>
<g id="a_node20"><a xlink:href="VFIterator_8inl.html" target="_top" xlink:title="/home/travis/build\l/STORM&#45;IRIT/Radium&#45;Engine\l/src/Core/Mesh/DCEL/Iterator\l/Vertex/VFIterator.inl">
<polygon fill="white" stroke="black" points="1366,-1 1366,-53 1514,-53 1514,-1 1366,-1"/>
<text text-anchor="start" x="1374" y="-41" font-family="Helvetica,sans-Serif" font-size="10.00">/home/travis/build</text>
<text text-anchor="start" x="1374" y="-30" font-family="Helvetica,sans-Serif" font-size="10.00">/STORM&#45;IRIT/Radium&#45;Engine</text>
<text text-anchor="start" x="1374" y="-19" font-family="Helvetica,sans-Serif" font-size="10.00">/src/Core/Mesh/DCEL/Iterator</text>
<text text-anchor="middle" x="1440" y="-8" font-family="Helvetica,sans-Serif" font-size="10.00">/Vertex/VFIterator.inl</text>
</a>
</g>
</g>
<!-- Node19&#45;&gt;Node20 -->
<g id="edge28" class="edge"><title>Node19&#45;&gt;Node20</title>
<path fill="none" stroke="midnightblue" d="M1433.36,-80.4892C1433.12,-71.3088 1433.27,-61.616 1433.84,-53.0921"/>
<polygon fill="midnightblue" stroke="midnightblue" points="1429.87,-80.7136 1433.81,-90.5468 1436.86,-80.3999 1429.87,-80.7136"/>
</g>
<!-- Node20&#45;&gt;Node19 -->
<g id="edge29" class="edge"><title>Node20&#45;&gt;Node19</title>
<path fill="none" stroke="midnightblue" d="M1446.63,-63.1229C1446.88,-72.2885 1446.74,-81.9903 1446.19,-90.5468"/>
<polygon fill="midnightblue" stroke="midnightblue" points="1450.12,-62.9197 1446.16,-53.0921 1443.13,-63.2432 1450.12,-62.9197"/>
</g>
<!-- Node22 -->
<g id="node22" class="node"><title>Node22</title>
<g id="a_node22"><a xlink:href="VHEIterator_8inl.html" target="_top" xlink:title="/home/travis/build\l/STORM&#45;IRIT/Radium&#45;Engine\l/src/Core/Mesh/DCEL/Iterator\l/Vertex/VHEIterator.inl">
<polygon fill="white" stroke="black" points="1532,-1 1532,-53 1680,-53 1680,-1 1532,-1"/>
<text text-anchor="start" x="1540" y="-41" font-family="Helvetica,sans-Serif" font-size="10.00">/home/travis/build</text>
<text text-anchor="start" x="1540" y="-30" font-family="Helvetica,sans-Serif" font-size="10.00">/STORM&#45;IRIT/Radium&#45;Engine</text>
<text text-anchor="start" x="1540" y="-19" font-family="Helvetica,sans-Serif" font-size="10.00">/src/Core/Mesh/DCEL/Iterator</text>
<text text-anchor="middle" x="1606" y="-8" font-family="Helvetica,sans-Serif" font-size="10.00">/Vertex/VHEIterator.inl</text>
</a>
</g>
</g>
<!-- Node21&#45;&gt;Node22 -->
<g id="edge31" class="edge"><title>Node21&#45;&gt;Node22</title>
<path fill="none" stroke="midnightblue" d="M1599.36,-80.4892C1599.12,-71.3088 1599.27,-61.616 1599.84,-53.0921"/>
<polygon fill="midnightblue" stroke="midnightblue" points="1595.87,-80.7136 1599.81,-90.5468 1602.86,-80.3999 1595.87,-80.7136"/>
</g>
<!-- Node22&#45;&gt;Node21 -->
<g id="edge32" class="edge"><title>Node22&#45;&gt;Node21</title>
<path fill="none" stroke="midnightblue" d="M1612.63,-63.1229C1612.88,-72.2885 1612.74,-81.9903 1612.19,-90.5468"/>
<polygon fill="midnightblue" stroke="midnightblue" points="1616.12,-62.9197 1612.16,-53.0921 1609.13,-63.2432 1616.12,-62.9197"/>
</g>
<!-- Node24 -->
<g id="node24" class="node"><title>Node24</title>
<g id="a_node24"><a xlink:href="VVIterator_8inl.html" target="_top" xlink:title="/home/travis/build\l/STORM&#45;IRIT/Radium&#45;Engine\l/src/Core/Mesh/DCEL/Iterator\l/Vertex/VVIterator.inl">
<polygon fill="white" stroke="black" points="1698,-1 1698,-53 1846,-53 1846,-1 1698,-1"/>
<text text-anchor="start" x="1706" y="-41" font-family="Helvetica,sans-Serif" font-size="10.00">/home/travis/build</text>
<text text-anchor="start" x="1706" y="-30" font-family="Helvetica,sans-Serif" font-size="10.00">/STORM&#45;IRIT/Radium&#45;Engine</text>
<text text-anchor="start" x="1706" y="-19" font-family="Helvetica,sans-Serif" font-size="10.00">/src/Core/Mesh/DCEL/Iterator</text>
<text text-anchor="middle" x="1772" y="-8" font-family="Helvetica,sans-Serif" font-size="10.00">/Vertex/VVIterator.inl</text>
</a>
</g>
</g>
<!-- Node23&#45;&gt;Node24 -->
<g id="edge34" class="edge"><title>Node23&#45;&gt;Node24</title>
<path fill="none" stroke="midnightblue" d="M1765.36,-80.4892C1765.12,-71.3088 1765.27,-61.616 1765.84,-53.0921"/>
<polygon fill="midnightblue" stroke="midnightblue" points="1761.87,-80.7136 1765.81,-90.5468 1768.86,-80.3999 1761.87,-80.7136"/>
</g>
<!-- Node24&#45;&gt;Node23 -->
<g id="edge35" class="edge"><title>Node24&#45;&gt;Node23</title>
<path fill="none" stroke="midnightblue" d="M1778.63,-63.1229C1778.88,-72.2885 1778.74,-81.9903 1778.19,-90.5468"/>
<polygon fill="midnightblue" stroke="midnightblue" points="1782.12,-62.9197 1778.16,-53.0921 1775.13,-63.2432 1782.12,-62.9197"/>
</g>
</g>
</svg>
