<?xml version="1.0" encoding="UTF-8" standalone="no"?>
<!DOCTYPE svg PUBLIC "-//W3C//DTD SVG 1.1//EN"
 "http://www.w3.org/Graphics/SVG/1.1/DTD/svg11.dtd">
<!-- Generated by graphviz version 2.36.0 (20140111.2315)
 -->
<!-- Title: /home/travis/build/STORM&#45;IRIT/Radium&#45;Engine/src/Core/Mesh/DCEL/Iterator/Iterator.hpp Pages: 1 -->
<svg width="1204pt" height="590pt"
 viewBox="0.00 0.00 1204.00 590.00" xmlns="http://www.w3.org/2000/svg" xmlns:xlink="http://www.w3.org/1999/xlink">
<g id="graph0" class="graph" transform="scale(1 1) rotate(0) translate(4 586)">
<title>/home/travis/build/STORM&#45;IRIT/Radium&#45;Engine/src/Core/Mesh/DCEL/Iterator/Iterator.hpp</title>
<polygon fill="white" stroke="none" points="-4,4 -4,-586 1200,-586 1200,4 -4,4"/>
<!-- Node1 -->
<g id="node1" class="node"><title>Node1</title>
<polygon fill="#bfbfbf" stroke="black" points="170,-529 170,-581 318,-581 318,-529 170,-529"/>
<text text-anchor="start" x="178" y="-569" font-family="Helvetica,sans-Serif" font-size="10.00">/home/travis/build</text>
<text text-anchor="start" x="178" y="-558" font-family="Helvetica,sans-Serif" font-size="10.00">/STORM&#45;IRIT/Radium&#45;Engine</text>
<text text-anchor="start" x="178" y="-547" font-family="Helvetica,sans-Serif" font-size="10.00">/src/Core/Mesh/DCEL/Iterator</text>
<text text-anchor="middle" x="244" y="-536" font-family="Helvetica,sans-Serif" font-size="10.00">/Iterator.hpp</text>
</g>
<!-- Node2 -->
<g id="node2" class="node"><title>Node2</title>
<g id="a_node2"><a xlink:href="Definition_8hpp.html" target="_top" xlink:title="Core/Mesh/DCEL/Definition.hpp">
<polygon fill="white" stroke="black" points="119,-236.5 119,-255.5 277,-255.5 277,-236.5 119,-236.5"/>
<text text-anchor="middle" x="198" y="-243.5" font-family="Helvetica,sans-Serif" font-size="10.00">Core/Mesh/DCEL/Definition.hpp</text>
</a>
</g>
</g>
<!-- Node1&#45;&gt;Node2 -->
<g id="edge1" class="edge"><title>Node1&#45;&gt;Node2</title>
<path fill="none" stroke="midnightblue" d="M230.323,-528.95C216.763,-501.732 198,-456.56 198,-415 198,-415 198,-415 198,-357 198,-324.948 198,-287.643 198,-265.749"/>
<polygon fill="midnightblue" stroke="midnightblue" points="201.5,-265.558 198,-255.558 194.5,-265.558 201.5,-265.558"/>
</g>
<!-- Node4 -->
<g id="node4" class="node"><title>Node4</title>
<polygon fill="white" stroke="#bfbfbf" points="0,-174.5 0,-193.5 44,-193.5 44,-174.5 0,-174.5"/>
<text text-anchor="middle" x="22" y="-181.5" font-family="Helvetica,sans-Serif" font-size="10.00">vector</text>
</g>
<!-- Node1&#45;&gt;Node4 -->
<g id="edge4" class="edge"><title>Node1&#45;&gt;Node4</title>
<path fill="none" stroke="midnightblue" d="M169.967,-531.995C117.358,-511.266 56,-474.365 56,-415 56,-415 56,-415 56,-301 56,-265.128 40.8423,-225.445 30.7683,-203.032"/>
<polygon fill="midnightblue" stroke="midnightblue" points="33.8451,-201.348 26.4449,-193.766 27.5017,-204.308 33.8451,-201.348"/>
</g>
<!-- Node5 -->
<g id="node5" class="node"><title>Node5</title>
<g id="a_node5"><a xlink:href="Iterator_8inl.html" target="_top" xlink:title="Core/Mesh/DCEL/Iterator\l/Iterator.inl">
<polygon fill="white" stroke="black" points="226,-461 226,-491 354,-491 354,-461 226,-461"/>
<text text-anchor="start" x="234" y="-479" font-family="Helvetica,sans-Serif" font-size="10.00">Core/Mesh/DCEL/Iterator</text>
<text text-anchor="middle" x="290" y="-468" font-family="Helvetica,sans-Serif" font-size="10.00">/Iterator.inl</text>
</a>
</g>
</g>
<!-- Node1&#45;&gt;Node5 -->
<g id="edge5" class="edge"><title>Node1&#45;&gt;Node5</title>
<path fill="none" stroke="midnightblue" d="M252.683,-528.787C257.775,-519.348 264.198,-508.694 270.347,-499.514"/>
<polygon fill="midnightblue" stroke="midnightblue" points="273.258,-501.457 276.105,-491.252 267.515,-497.455 273.258,-501.457"/>
</g>
<!-- Node3 -->
<g id="node3" class="node"><title>Node3</title>
<polygon fill="white" stroke="#bfbfbf" points="62,-174.5 62,-193.5 114,-193.5 114,-174.5 62,-174.5"/>
<text text-anchor="middle" x="88" y="-181.5" font-family="Helvetica,sans-Serif" font-size="10.00">memory</text>
</g>
<!-- Node2&#45;&gt;Node3 -->
<g id="edge2" class="edge"><title>Node2&#45;&gt;Node3</title>
<path fill="none" stroke="midnightblue" d="M182.24,-236.403C164.024,-226.468 133.827,-209.997 112.532,-198.381"/>
<polygon fill="midnightblue" stroke="midnightblue" points="114.186,-195.297 103.731,-193.581 110.834,-201.442 114.186,-195.297"/>
</g>
<!-- Node2&#45;&gt;Node4 -->
<g id="edge3" class="edge"><title>Node2&#45;&gt;Node4</title>
<path fill="none" stroke="midnightblue" d="M165.558,-236.436C135.852,-228.242 90.8814,-214.946 53,-200 51.3558,-199.351 49.678,-198.652 47.9962,-197.924"/>
<polygon fill="midnightblue" stroke="midnightblue" points="49.0746,-194.567 38.5275,-193.562 46.1462,-200.925 49.0746,-194.567"/>
</g>
<!-- Node5&#45;&gt;Node1 -->
<g id="edge6" class="edge"><title>Node5&#45;&gt;Node1</title>
<path fill="none" stroke="midnightblue" d="M286.867,-491.252C283.085,-499.379 277.22,-509.937 270.979,-520.067"/>
<polygon fill="midnightblue" stroke="midnightblue" points="267.848,-518.469 265.441,-528.787 273.757,-522.222 267.848,-518.469"/>
</g>
<!-- Node6 -->
<g id="node6" class="node"><title>Node6</title>
<g id="a_node6"><a xlink:href="DCEL_2HalfEdge_8hpp.html" target="_top" xlink:title="Core/Mesh/DCEL/HalfEdge.hpp">
<polygon fill="white" stroke="black" points="620.5,-404.5 620.5,-423.5 777.5,-423.5 777.5,-404.5 620.5,-404.5"/>
<text text-anchor="middle" x="699" y="-411.5" font-family="Helvetica,sans-Serif" font-size="10.00">Core/Mesh/DCEL/HalfEdge.hpp</text>
</a>
</g>
</g>
<!-- Node5&#45;&gt;Node6 -->
<g id="edge7" class="edge"><title>Node5&#45;&gt;Node6</title>
<path fill="none" stroke="midnightblue" d="M354.356,-465.559C429.709,-454.505 553.976,-436.275 630.905,-424.989"/>
<polygon fill="midnightblue" stroke="midnightblue" points="631.586,-428.427 640.972,-423.513 630.57,-421.501 631.586,-428.427"/>
</g>
<!-- Node6&#45;&gt;Node2 -->
<g id="edge20" class="edge"><title>Node6&#45;&gt;Node2</title>
<path fill="none" stroke="midnightblue" d="M655.998,-404.423C617.603,-396.36 560.026,-383.268 511,-368 404.175,-334.731 281.478,-283.282 226.841,-259.653"/>
<polygon fill="midnightblue" stroke="midnightblue" points="228.017,-256.348 217.451,-255.575 225.229,-262.768 228.017,-256.348"/>
</g>
<!-- Node7 -->
<g id="node7" class="node"><title>Node7</title>
<g id="a_node7"><a xlink:href="Index_8hpp.html" target="_top" xlink:title="Core/Index/Index.hpp">
<polygon fill="white" stroke="black" points="997,-174.5 997,-193.5 1107,-193.5 1107,-174.5 997,-174.5"/>
<text text-anchor="middle" x="1052" y="-181.5" font-family="Helvetica,sans-Serif" font-size="10.00">Core/Index/Index.hpp</text>
</a>
</g>
</g>
<!-- Node6&#45;&gt;Node7 -->
<g id="edge8" class="edge"><title>Node6&#45;&gt;Node7</title>
<path fill="none" stroke="midnightblue" d="M749.598,-404.445C782.357,-397.583 825.228,-386.056 860,-368 929.798,-331.757 942.123,-312.336 997,-256 1013.58,-238.981 1029.91,-217.068 1040.41,-202.117"/>
<polygon fill="midnightblue" stroke="midnightblue" points="1043.34,-204.03 1046.15,-193.813 1037.58,-200.051 1043.34,-204.03"/>
</g>
<!-- Node10 -->
<g id="node10" class="node"><title>Node10</title>
<g id="a_node10"><a xlink:href="IndexedObject_8hpp.html" target="_top" xlink:title="Core/Index/IndexedObject.hpp">
<polygon fill="white" stroke="black" points="651.5,-236.5 651.5,-255.5 800.5,-255.5 800.5,-236.5 651.5,-236.5"/>
<text text-anchor="middle" x="726" y="-243.5" font-family="Helvetica,sans-Serif" font-size="10.00">Core/Index/IndexedObject.hpp</text>
</a>
</g>
</g>
<!-- Node6&#45;&gt;Node10 -->
<g id="edge11" class="edge"><title>Node6&#45;&gt;Node10</title>
<path fill="none" stroke="midnightblue" d="M689.98,-404.34C681.928,-395.932 670.702,-382.363 666,-368 663.234,-359.552 664.346,-356.734 666,-348 670.976,-321.726 674.302,-314.966 688,-292 694.207,-281.593 702.81,-271.179 710.26,-262.994"/>
<polygon fill="midnightblue" stroke="midnightblue" points="712.885,-265.313 717.196,-255.635 707.79,-260.512 712.885,-265.313"/>
</g>
<!-- Node18 -->
<g id="node18" class="node"><title>Node18</title>
<g id="a_node18"><a xlink:href="DCEL_2HalfEdge_8inl.html" target="_top" xlink:title="Core/Mesh/DCEL/HalfEdge.inl">
<polygon fill="white" stroke="black" points="675.5,-348.5 675.5,-367.5 826.5,-367.5 826.5,-348.5 675.5,-348.5"/>
<text text-anchor="middle" x="751" y="-355.5" font-family="Helvetica,sans-Serif" font-size="10.00">Core/Mesh/DCEL/HalfEdge.inl</text>
</a>
</g>
</g>
<!-- Node6&#45;&gt;Node18 -->
<g id="edge21" class="edge"><title>Node6&#45;&gt;Node18</title>
<path fill="none" stroke="midnightblue" d="M702.42,-404.083C708.452,-396.062 719.634,-384.101 729.885,-374.515"/>
<polygon fill="midnightblue" stroke="midnightblue" points="732.325,-377.028 737.442,-367.751 727.656,-371.812 732.325,-377.028"/>
</g>
<!-- Node8 -->
<g id="node8" class="node"><title>Node8</title>
<polygon fill="white" stroke="#bfbfbf" points="1034,-112.5 1034,-131.5 1074,-131.5 1074,-112.5 1034,-112.5"/>
<text text-anchor="middle" x="1054" y="-119.5" font-family="Helvetica,sans-Serif" font-size="10.00">limits</text>
</g>
<!-- Node7&#45;&gt;Node8 -->
<g id="edge9" class="edge"><title>Node7&#45;&gt;Node8</title>
<path fill="none" stroke="midnightblue" d="M1052.29,-174.403C1052.57,-165.938 1053.01,-152.728 1053.37,-141.82"/>
<polygon fill="midnightblue" stroke="midnightblue" points="1056.88,-141.692 1053.71,-131.581 1049.88,-141.458 1056.88,-141.692"/>
</g>
<!-- Node9 -->
<g id="node9" class="node"><title>Node9</title>
<g id="a_node9"><a xlink:href="Index_8inl.html" target="_top" xlink:title="Core/Index/Index.inl">
<polygon fill="white" stroke="black" points="1092,-112.5 1092,-131.5 1196,-131.5 1196,-112.5 1092,-112.5"/>
<text text-anchor="middle" x="1144" y="-119.5" font-family="Helvetica,sans-Serif" font-size="10.00">Core/Index/Index.inl</text>
</a>
</g>
</g>
<!-- Node7&#45;&gt;Node9 -->
<g id="edge10" class="edge"><title>Node7&#45;&gt;Node9</title>
<path fill="none" stroke="midnightblue" d="M1065.18,-174.403C1080.07,-164.691 1104.54,-148.732 1122.27,-137.17"/>
<polygon fill="midnightblue" stroke="midnightblue" points="1124.38,-139.975 1130.84,-131.581 1120.56,-134.112 1124.38,-139.975"/>
</g>
<!-- Node10&#45;&gt;Node7 -->
<g id="edge12" class="edge"><title>Node10&#45;&gt;Node7</title>
<path fill="none" stroke="midnightblue" d="M780.654,-236.492C833.576,-228.038 916.006,-214.3 987,-200 993.333,-198.724 999.992,-197.292 1006.53,-195.833"/>
<polygon fill="midnightblue" stroke="midnightblue" points="1007.68,-199.162 1016.66,-193.535 1006.13,-192.336 1007.68,-199.162"/>
</g>
<!-- Node11 -->
<g id="node11" class="node"><title>Node11</title>
<g id="a_node11"><a xlink:href="RaCore_8hpp.html" target="_top" xlink:title="Core/RaCore.hpp">
<polygon fill="white" stroke="black" points="668.5,-112.5 668.5,-131.5 761.5,-131.5 761.5,-112.5 668.5,-112.5"/>
<text text-anchor="middle" x="715" y="-119.5" font-family="Helvetica,sans-Serif" font-size="10.00">Core/RaCore.hpp</text>
</a>
</g>
</g>
<!-- Node10&#45;&gt;Node11 -->
<g id="edge13" class="edge"><title>Node10&#45;&gt;Node11</title>
<path fill="none" stroke="midnightblue" d="M770.006,-236.441C790.402,-230.034 812.786,-218.969 825,-200 832.7,-188.042 832.927,-179.808 825,-168 812.843,-149.892 791.972,-139.066 771.655,-132.595"/>
<polygon fill="midnightblue" stroke="midnightblue" points="772.344,-129.152 761.766,-129.756 770.412,-135.88 772.344,-129.152"/>
</g>
<!-- Node12 -->
<g id="node12" class="node"><title>Node12</title>
<g id="a_node12"><a xlink:href="CoreMacros_8hpp.html" target="_top" xlink:title="Core/CoreMacros.hpp">
<polygon fill="white" stroke="black" points="658.5,-56.5 658.5,-75.5 771.5,-75.5 771.5,-56.5 658.5,-56.5"/>
<text text-anchor="middle" x="715" y="-63.5" font-family="Helvetica,sans-Serif" font-size="10.00">Core/CoreMacros.hpp</text>
</a>
</g>
</g>
<!-- Node11&#45;&gt;Node12 -->
<g id="edge14" class="edge"><title>Node11&#45;&gt;Node12</title>
<path fill="none" stroke="midnightblue" d="M715,-112.083C715,-105.006 715,-94.8611 715,-85.9865"/>
<polygon fill="midnightblue" stroke="midnightblue" points="718.5,-85.751 715,-75.7511 711.5,-85.7511 718.5,-85.751"/>
</g>
<!-- Node13 -->
<g id="node13" class="node"><title>Node13</title>
<polygon fill="white" stroke="#bfbfbf" points="559.5,-0.5 559.5,-19.5 608.5,-19.5 608.5,-0.5 559.5,-0.5"/>
<text text-anchor="middle" x="584" y="-7.5" font-family="Helvetica,sans-Serif" font-size="10.00">cassert</text>
</g>
<!-- Node12&#45;&gt;Node13 -->
<g id="edge15" class="edge"><title>Node12&#45;&gt;Node13</title>
<path fill="none" stroke="midnightblue" d="M694.243,-56.4435C672.684,-47.5566 638.737,-33.5632 614.206,-23.4514"/>
<polygon fill="midnightblue" stroke="midnightblue" points="615.239,-20.0917 604.66,-19.5164 612.572,-26.5634 615.239,-20.0917"/>
</g>
<!-- Node14 -->
<g id="node14" class="node"><title>Node14</title>
<polygon fill="white" stroke="#bfbfbf" points="626.5,-0.5 626.5,-19.5 669.5,-19.5 669.5,-0.5 626.5,-0.5"/>
<text text-anchor="middle" x="648" y="-7.5" font-family="Helvetica,sans-Serif" font-size="10.00">cstdio</text>
</g>
<!-- Node12&#45;&gt;Node14 -->
<g id="edge16" class="edge"><title>Node12&#45;&gt;Node14</title>
<path fill="none" stroke="midnightblue" d="M704.235,-56.324C694.234,-48.2631 679.113,-36.0765 667.07,-26.3695"/>
<polygon fill="midnightblue" stroke="midnightblue" points="668.943,-23.3841 658.961,-19.8339 664.55,-28.8343 668.943,-23.3841"/>
</g>
<!-- Node15 -->
<g id="node15" class="node"><title>Node15</title>
<polygon fill="white" stroke="#bfbfbf" points="688,-0.5 688,-19.5 742,-19.5 742,-0.5 688,-0.5"/>
<text text-anchor="middle" x="715" y="-7.5" font-family="Helvetica,sans-Serif" font-size="10.00">iostream</text>
</g>
<!-- Node12&#45;&gt;Node15 -->
<g id="edge17" class="edge"><title>Node12&#45;&gt;Node15</title>
<path fill="none" stroke="midnightblue" d="M715,-56.083C715,-49.0059 715,-38.8611 715,-29.9865"/>
<polygon fill="midnightblue" stroke="midnightblue" points="718.5,-29.751 715,-19.7511 711.5,-29.7511 718.5,-29.751"/>
</g>
<!-- Node16 -->
<g id="node16" class="node"><title>Node16</title>
<polygon fill="white" stroke="#bfbfbf" points="760,-0.5 760,-19.5 812,-19.5 812,-0.5 760,-0.5"/>
<text text-anchor="middle" x="786" y="-7.5" font-family="Helvetica,sans-Serif" font-size="10.00">sstream</text>
</g>
<!-- Node12&#45;&gt;Node16 -->
<g id="edge18" class="edge"><title>Node12&#45;&gt;Node16</title>
<path fill="none" stroke="midnightblue" d="M726.407,-56.324C737.109,-48.1849 753.341,-35.8395 766.163,-26.0874"/>
<polygon fill="midnightblue" stroke="midnightblue" points="768.544,-28.6734 774.385,-19.8339 764.307,-23.1018 768.544,-28.6734"/>
</g>
<!-- Node17 -->
<g id="node17" class="node"><title>Node17</title>
<polygon fill="white" stroke="#bfbfbf" points="830,-0.5 830,-19.5 874,-19.5 874,-0.5 830,-0.5"/>
<text text-anchor="middle" x="852" y="-7.5" font-family="Helvetica,sans-Serif" font-size="10.00">thread</text>
</g>
<!-- Node12&#45;&gt;Node17 -->
<g id="edge19" class="edge"><title>Node12&#45;&gt;Node17</title>
<path fill="none" stroke="midnightblue" d="M736.708,-56.4435C759.355,-47.5171 795.072,-33.4387 820.752,-23.3168"/>
<polygon fill="midnightblue" stroke="midnightblue" points="822.374,-26.4397 830.394,-19.5164 819.807,-19.9273 822.374,-26.4397"/>
</g>
<!-- Node18&#45;&gt;Node6 -->
<g id="edge22" class="edge"><title>Node18&#45;&gt;Node6</title>
<path fill="none" stroke="midnightblue" d="M747.642,-367.834C741.614,-375.869 730.361,-387.909 720.06,-397.537"/>
<polygon fill="midnightblue" stroke="midnightblue" points="717.591,-395.049 712.47,-404.324 722.257,-400.267 717.591,-395.049"/>
</g>
<!-- Node19 -->
<g id="node19" class="node"><title>Node19</title>
<g id="a_node19"><a xlink:href="Face_8hpp.html" target="_top" xlink:title="Core/Mesh/DCEL/Face.hpp">
<polygon fill="white" stroke="black" points="697,-292.5 697,-311.5 835,-311.5 835,-292.5 697,-292.5"/>
<text text-anchor="middle" x="766" y="-299.5" font-family="Helvetica,sans-Serif" font-size="10.00">Core/Mesh/DCEL/Face.hpp</text>
</a>
</g>
</g>
<!-- Node18&#45;&gt;Node19 -->
<g id="edge23" class="edge"><title>Node18&#45;&gt;Node19</title>
<path fill="none" stroke="midnightblue" d="M753.477,-348.083C755.486,-340.849 758.386,-330.409 760.89,-321.397"/>
<polygon fill="midnightblue" stroke="midnightblue" points="764.265,-322.323 763.569,-311.751 757.52,-320.449 764.265,-322.323"/>
</g>
<!-- Node21 -->
<g id="node21" class="node"><title>Node21</title>
<g id="a_node21"><a xlink:href="Vertex_8hpp.html" target="_top" xlink:title="Core/Mesh/DCEL/Vertex.hpp">
<polygon fill="white" stroke="black" points="451.5,-292.5 451.5,-311.5 596.5,-311.5 596.5,-292.5 451.5,-292.5"/>
<text text-anchor="middle" x="524" y="-299.5" font-family="Helvetica,sans-Serif" font-size="10.00">Core/Mesh/DCEL/Vertex.hpp</text>
</a>
</g>
</g>
<!-- Node18&#45;&gt;Node21 -->
<g id="edge30" class="edge"><title>Node18&#45;&gt;Node21</title>
<path fill="none" stroke="midnightblue" d="M715.031,-348.444C675.681,-339.083 612.513,-324.056 569.686,-313.868"/>
<polygon fill="midnightblue" stroke="midnightblue" points="570.339,-310.426 559.801,-311.516 568.719,-317.236 570.339,-310.426"/>
</g>
<!-- Node19&#45;&gt;Node2 -->
<g id="edge26" class="edge"><title>Node19&#45;&gt;Node2</title>
<path fill="none" stroke="midnightblue" d="M696.828,-294.7C605.533,-286.343 439.517,-271.005 287.165,-256.107"/>
<polygon fill="midnightblue" stroke="midnightblue" points="287.444,-252.618 277.151,-255.127 286.762,-259.585 287.444,-252.618"/>
</g>
<!-- Node19&#45;&gt;Node7 -->
<g id="edge24" class="edge"><title>Node19&#45;&gt;Node7</title>
<path fill="none" stroke="midnightblue" d="M774.116,-292.418C787.807,-278.456 816.95,-250.89 847,-236 854.208,-232.429 947.841,-209.794 1006.04,-195.906"/>
<polygon fill="midnightblue" stroke="midnightblue" points="1007.2,-199.228 1016.11,-193.505 1005.57,-192.419 1007.2,-199.228"/>
</g>
<!-- Node19&#45;&gt;Node10 -->
<g id="edge25" class="edge"><title>Node19&#45;&gt;Node10</title>
<path fill="none" stroke="midnightblue" d="M759.395,-292.083C753.745,-284.455 745.455,-273.264 738.549,-263.941"/>
<polygon fill="midnightblue" stroke="midnightblue" points="741.247,-261.703 732.482,-255.751 735.622,-265.87 741.247,-261.703"/>
</g>
<!-- Node20 -->
<g id="node20" class="node"><title>Node20</title>
<g id="a_node20"><a xlink:href="Face_8inl.html" target="_top" xlink:title="Core/Mesh/DCEL/Face.inl">
<polygon fill="white" stroke="black" points="856,-236.5 856,-255.5 988,-255.5 988,-236.5 856,-236.5"/>
<text text-anchor="middle" x="922" y="-243.5" font-family="Helvetica,sans-Serif" font-size="10.00">Core/Mesh/DCEL/Face.inl</text>
</a>
</g>
</g>
<!-- Node19&#45;&gt;Node20 -->
<g id="edge27" class="edge"><title>Node19&#45;&gt;Node20</title>
<path fill="none" stroke="midnightblue" d="M785.63,-292.444C809.987,-283.32 851.701,-268.813 882.674,-258.651"/>
<polygon fill="midnightblue" stroke="midnightblue" points="883.889,-261.936 892.317,-255.516 881.725,-255.279 883.889,-261.936"/>
</g>
<!-- Node20&#45;&gt;Node6 -->
<g id="edge29" class="edge"><title>Node20&#45;&gt;Node6</title>
<path fill="none" stroke="midnightblue" d="M918.107,-255.755C907.822,-277.899 877.749,-336.602 835,-368 812.527,-384.506 783.652,-395.185 758.294,-401.976"/>
<polygon fill="midnightblue" stroke="midnightblue" points="757.24,-398.632 748.405,-404.479 758.958,-405.418 757.24,-398.632"/>
</g>
<!-- Node20&#45;&gt;Node19 -->
<g id="edge28" class="edge"><title>Node20&#45;&gt;Node19</title>
<path fill="none" stroke="midnightblue" d="M902.477,-255.516C878.171,-264.625 836.467,-279.129 805.462,-289.304"/>
<polygon fill="midnightblue" stroke="midnightblue" points="804.235,-286.023 795.807,-292.444 806.4,-292.68 804.235,-286.023"/>
</g>
<!-- Node21&#45;&gt;Node2 -->
<g id="edge47" class="edge"><title>Node21&#45;&gt;Node2</title>
<path fill="none" stroke="midnightblue" d="M472.344,-292.444C414.521,-282.865 320.887,-267.356 259.377,-257.167"/>
<polygon fill="midnightblue" stroke="midnightblue" points="259.852,-253.698 249.414,-255.516 258.708,-260.604 259.852,-253.698"/>
</g>
<!-- Node21&#45;&gt;Node7 -->
<g id="edge31" class="edge"><title>Node21&#45;&gt;Node7</title>
<path fill="none" stroke="midnightblue" d="M539.506,-292.244C570.267,-274.905 636.532,-237.714 642,-236 789.109,-189.891 834.938,-225.381 987,-200 993.908,-198.847 1001.18,-197.402 1008.26,-195.867"/>
<polygon fill="midnightblue" stroke="midnightblue" points="1009.43,-199.189 1018.42,-193.577 1007.9,-192.36 1009.43,-199.189"/>
</g>
<!-- Node21&#45;&gt;Node10 -->
<g id="edge32" class="edge"><title>Node21&#45;&gt;Node10</title>
<path fill="none" stroke="midnightblue" d="M556.008,-292.444C590.729,-283.162 646.288,-268.309 684.377,-258.127"/>
<polygon fill="midnightblue" stroke="midnightblue" points="685.385,-261.48 694.142,-255.516 683.578,-254.718 685.385,-261.48"/>
</g>
<!-- Node22 -->
<g id="node22" class="node"><title>Node22</title>
<g id="a_node22"><a xlink:href="LinearAlgebra_8hpp.html" target="_top" xlink:title="Core/Math/LinearAlgebra.hpp">
<polygon fill="white" stroke="black" points="452.5,-236.5 452.5,-255.5 595.5,-255.5 595.5,-236.5 452.5,-236.5"/>
<text text-anchor="middle" x="524" y="-243.5" font-family="Helvetica,sans-Serif" font-size="10.00">Core/Math/LinearAlgebra.hpp</text>
</a>
</g>
</g>
<!-- Node21&#45;&gt;Node22 -->
<g id="edge33" class="edge"><title>Node21&#45;&gt;Node22</title>
<path fill="none" stroke="midnightblue" d="M524,-292.083C524,-285.006 524,-274.861 524,-265.986"/>
<polygon fill="midnightblue" stroke="midnightblue" points="527.5,-265.751 524,-255.751 520.5,-265.751 527.5,-265.751"/>
</g>
<!-- Node33 -->
<g id="node33" class="node"><title>Node33</title>
<g id="a_node33"><a xlink:href="Vertex_8inl.html" target="_top" xlink:title="Core/Mesh/DCEL/Vertex.inl">
<polygon fill="white" stroke="black" points="295.5,-236.5 295.5,-255.5 434.5,-255.5 434.5,-236.5 295.5,-236.5"/>
<text text-anchor="middle" x="365" y="-243.5" font-family="Helvetica,sans-Serif" font-size="10.00">Core/Mesh/DCEL/Vertex.inl</text>
</a>
</g>
</g>
<!-- Node21&#45;&gt;Node33 -->
<g id="edge48" class="edge"><title>Node21&#45;&gt;Node33</title>
<path fill="none" stroke="midnightblue" d="M493.717,-292.444C465.226,-283.438 423.057,-269.189 394.748,-259.049"/>
<polygon fill="midnightblue" stroke="midnightblue" points="395.59,-255.632 384.996,-255.516 393.206,-262.213 395.59,-255.632"/>
</g>
<!-- Node22&#45;&gt;Node11 -->
<g id="edge34" class="edge"><title>Node22&#45;&gt;Node11</title>
<path fill="none" stroke="midnightblue" d="M452.439,-236.723C347.361,-224.487 163.401,-202.718 161,-200 151.582,-189.343 151.359,-178.456 161,-168 194.231,-131.96 523.769,-124.782 658.274,-123.354"/>
<polygon fill="midnightblue" stroke="midnightblue" points="658.416,-126.853 668.381,-123.254 658.346,-119.853 658.416,-126.853"/>
</g>
<!-- Node23 -->
<g id="node23" class="node"><title>Node23</title>
<polygon fill="white" stroke="#bfbfbf" points="751.5,-174.5 751.5,-193.5 816.5,-193.5 816.5,-174.5 751.5,-174.5"/>
<text text-anchor="middle" x="784" y="-181.5" font-family="Helvetica,sans-Serif" font-size="10.00">Eigen/Core</text>
</g>
<!-- Node22&#45;&gt;Node23 -->
<g id="edge35" class="edge"><title>Node22&#45;&gt;Node23</title>
<path fill="none" stroke="midnightblue" d="M575.58,-236.448C620.062,-228.576 685.812,-215.75 742,-200 745.383,-199.052 748.886,-197.968 752.361,-196.828"/>
<polygon fill="midnightblue" stroke="midnightblue" points="753.637,-200.09 761.953,-193.525 751.358,-193.471 753.637,-200.09"/>
</g>
<!-- Node24 -->
<g id="node24" class="node"><title>Node24</title>
<polygon fill="white" stroke="#bfbfbf" points="170.5,-174.5 170.5,-193.5 257.5,-193.5 257.5,-174.5 170.5,-174.5"/>
<text text-anchor="middle" x="214" y="-181.5" font-family="Helvetica,sans-Serif" font-size="10.00">Eigen/Geometry</text>
</g>
<!-- Node22&#45;&gt;Node24 -->
<g id="edge36" class="edge"><title>Node22&#45;&gt;Node24</title>
<path fill="none" stroke="midnightblue" d="M464.457,-236.486C411.928,-228.531 333.453,-215.563 266,-200 261.271,-198.909 256.333,-197.647 251.463,-196.329"/>
<polygon fill="midnightblue" stroke="midnightblue" points="252.225,-192.907 241.651,-193.578 250.335,-199.647 252.225,-192.907"/>
</g>
<!-- Node25 -->
<g id="node25" class="node"><title>Node25</title>
<polygon fill="white" stroke="#bfbfbf" points="275.5,-174.5 275.5,-193.5 350.5,-193.5 350.5,-174.5 275.5,-174.5"/>
<text text-anchor="middle" x="313" y="-181.5" font-family="Helvetica,sans-Serif" font-size="10.00">Eigen/Sparse</text>
</g>
<!-- Node22&#45;&gt;Node25 -->
<g id="edge37" class="edge"><title>Node22&#45;&gt;Node25</title>
<path fill="none" stroke="midnightblue" d="M490.68,-236.425C457.257,-227.703 404.371,-213.576 359,-200 355.597,-198.982 352.064,-197.891 348.536,-196.779"/>
<polygon fill="midnightblue" stroke="midnightblue" points="349.31,-193.352 338.719,-193.632 347.174,-200.018 349.31,-193.352"/>
</g>
<!-- Node26 -->
<g id="node26" class="node"><title>Node26</title>
<polygon fill="white" stroke="#bfbfbf" points="368.5,-174.5 368.5,-193.5 427.5,-193.5 427.5,-174.5 368.5,-174.5"/>
<text text-anchor="middle" x="398" y="-181.5" font-family="Helvetica,sans-Serif" font-size="10.00">functional</text>
</g>
<!-- Node22&#45;&gt;Node26 -->
<g id="edge38" class="edge"><title>Node22&#45;&gt;Node26</title>
<path fill="none" stroke="midnightblue" d="M505.947,-236.403C484.802,-226.334 449.56,-209.552 425.122,-197.915"/>
<polygon fill="midnightblue" stroke="midnightblue" points="426.553,-194.72 416.019,-193.581 423.543,-201.04 426.553,-194.72"/>
</g>
<!-- Node27 -->
<g id="node27" class="node"><title>Node27</title>
<polygon fill="white" stroke="#bfbfbf" points="445.5,-169 445.5,-199 578.5,-199 578.5,-169 445.5,-169"/>
<text text-anchor="start" x="453.5" y="-187" font-family="Helvetica,sans-Serif" font-size="10.00">unsupported/Eigen/Aligned</text>
<text text-anchor="middle" x="512" y="-176" font-family="Helvetica,sans-Serif" font-size="10.00">Vector3</text>
</g>
<!-- Node22&#45;&gt;Node27 -->
<g id="edge39" class="edge"><title>Node22&#45;&gt;Node27</title>
<path fill="none" stroke="midnightblue" d="M522.281,-236.403C520.853,-229.265 518.75,-218.752 516.818,-209.09"/>
<polygon fill="midnightblue" stroke="midnightblue" points="520.221,-208.26 514.828,-199.141 513.357,-209.633 520.221,-208.26"/>
</g>
<!-- Node28 -->
<g id="node28" class="node"><title>Node28</title>
<g id="a_node28"><a xlink:href="Math_8hpp.html" target="_top" xlink:title="Core/Math/Math.hpp">
<polygon fill="white" stroke="black" points="873,-174.5 873,-193.5 979,-193.5 979,-174.5 873,-174.5"/>
<text text-anchor="middle" x="926" y="-181.5" font-family="Helvetica,sans-Serif" font-size="10.00">Core/Math/Math.hpp</text>
</a>
</g>
</g>
<!-- Node22&#45;&gt;Node28 -->
<g id="edge40" class="edge"><title>Node22&#45;&gt;Node28</title>
<path fill="none" stroke="midnightblue" d="M581.17,-236.467C655.646,-225.351 785.445,-205.978 862.783,-194.435"/>
<polygon fill="midnightblue" stroke="midnightblue" points="863.499,-197.867 872.873,-192.929 862.466,-190.944 863.499,-197.867"/>
</g>
<!-- Node32 -->
<g id="node32" class="node"><title>Node32</title>
<g id="a_node32"><a xlink:href="LinearAlgebra_8inl.html" target="_top" xlink:title="Core/Math/LinearAlgebra.inl">
<polygon fill="white" stroke="black" points="596.5,-174.5 596.5,-193.5 733.5,-193.5 733.5,-174.5 596.5,-174.5"/>
<text text-anchor="middle" x="665" y="-181.5" font-family="Helvetica,sans-Serif" font-size="10.00">Core/Math/LinearAlgebra.inl</text>
</a>
</g>
</g>
<!-- Node22&#45;&gt;Node32 -->
<g id="edge46" class="edge"><title>Node22&#45;&gt;Node32</title>
<path fill="none" stroke="midnightblue" d="M544.202,-236.403C568.074,-226.245 608.002,-209.255 635.373,-197.607"/>
<polygon fill="midnightblue" stroke="midnightblue" points="637.005,-200.717 644.836,-193.581 634.264,-194.276 637.005,-200.717"/>
</g>
<!-- Node28&#45;&gt;Node11 -->
<g id="edge41" class="edge"><title>Node28&#45;&gt;Node11</title>
<path fill="none" stroke="midnightblue" d="M895.769,-174.403C858.713,-163.866 795.807,-145.978 754.836,-134.328"/>
<polygon fill="midnightblue" stroke="midnightblue" points="755.751,-130.949 745.175,-131.581 753.836,-137.682 755.751,-130.949"/>
</g>
<!-- Node29 -->
<g id="node29" class="node"><title>Node29</title>
<polygon fill="white" stroke="#bfbfbf" points="898,-112.5 898,-131.5 954,-131.5 954,-112.5 898,-112.5"/>
<text text-anchor="middle" x="926" y="-119.5" font-family="Helvetica,sans-Serif" font-size="10.00">algorithm</text>
</g>
<!-- Node28&#45;&gt;Node29 -->
<g id="edge42" class="edge"><title>Node28&#45;&gt;Node29</title>
<path fill="none" stroke="midnightblue" d="M926,-174.403C926,-165.938 926,-152.728 926,-141.82"/>
<polygon fill="midnightblue" stroke="midnightblue" points="929.5,-141.581 926,-131.581 922.5,-141.581 929.5,-141.581"/>
</g>
<!-- Node30 -->
<g id="node30" class="node"><title>Node30</title>
<polygon fill="white" stroke="#bfbfbf" points="972,-112.5 972,-131.5 1016,-131.5 1016,-112.5 972,-112.5"/>
<text text-anchor="middle" x="994" y="-119.5" font-family="Helvetica,sans-Serif" font-size="10.00">cmath</text>
</g>
<!-- Node28&#45;&gt;Node30 -->
<g id="edge43" class="edge"><title>Node28&#45;&gt;Node30</title>
<path fill="none" stroke="midnightblue" d="M935.743,-174.403C946.347,-165.047 963.519,-149.895 976.479,-138.46"/>
<polygon fill="midnightblue" stroke="midnightblue" points="979.093,-140.821 984.275,-131.581 974.461,-135.572 979.093,-140.821"/>
</g>
<!-- Node31 -->
<g id="node31" class="node"><title>Node31</title>
<g id="a_node31"><a xlink:href="Math_8inl.html" target="_top" xlink:title="Core/Math/Math.inl">
<polygon fill="white" stroke="black" points="780,-112.5 780,-131.5 880,-131.5 880,-112.5 780,-112.5"/>
<text text-anchor="middle" x="830" y="-119.5" font-family="Helvetica,sans-Serif" font-size="10.00">Core/Math/Math.inl</text>
</a>
</g>
</g>
<!-- Node28&#45;&gt;Node31 -->
<g id="edge44" class="edge"><title>Node28&#45;&gt;Node31</title>
<path fill="none" stroke="midnightblue" d="M907.345,-174.403C889.865,-164.78 864.332,-149.024 847.309,-137.489"/>
<polygon fill="midnightblue" stroke="midnightblue" points="849.037,-134.427 838.832,-131.581 845.034,-140.17 849.037,-134.427"/>
</g>
<!-- Node31&#45;&gt;Node28 -->
<g id="edge45" class="edge"><title>Node31&#45;&gt;Node28</title>
<path fill="none" stroke="midnightblue" d="M848.626,-131.581C866.097,-141.198 891.63,-156.952 908.663,-168.492"/>
<polygon fill="midnightblue" stroke="midnightblue" points="906.941,-171.557 917.146,-174.403 910.943,-165.814 906.941,-171.557"/>
</g>
<!-- Node33&#45;&gt;Node6 -->
<g id="edge50" class="edge"><title>Node33&#45;&gt;Node6</title>
<path fill="none" stroke="midnightblue" d="M373.286,-255.62C386.671,-269.146 414.354,-295.512 442,-312 513.41,-354.589 606.022,-385.829 658.331,-401.55"/>
<polygon fill="midnightblue" stroke="midnightblue" points="657.655,-405 668.237,-404.486 659.644,-398.288 657.655,-405"/>
</g>
<!-- Node33&#45;&gt;Node21 -->
<g id="edge49" class="edge"><title>Node33&#45;&gt;Node21</title>
<path fill="none" stroke="midnightblue" d="M395.156,-255.516C423.607,-264.506 465.776,-278.754 494.126,-288.906"/>
<polygon fill="midnightblue" stroke="midnightblue" points="493.301,-292.329 503.895,-292.444 495.684,-285.748 493.301,-292.329"/>
</g>
</g>
</svg>
