<?xml version="1.0" encoding="UTF-8" standalone="no"?>
<!DOCTYPE svg PUBLIC "-//W3C//DTD SVG 1.1//EN"
 "http://www.w3.org/Graphics/SVG/1.1/DTD/svg11.dtd">
<!-- Generated by graphviz version 2.36.0 (20140111.2315)
 -->
<!-- Title: /home/travis/build/STORM&#45;IRIT/Radium&#45;Engine/src/Tests/Manager.hpp Pages: 1 -->
<svg width="1522pt" height="308pt"
 viewBox="0.00 0.00 1522.00 308.00" xmlns="http://www.w3.org/2000/svg" xmlns:xlink="http://www.w3.org/1999/xlink">
<g id="graph0" class="graph" transform="scale(1 1) rotate(0) translate(4 304)">
<title>/home/travis/build/STORM&#45;IRIT/Radium&#45;Engine/src/Tests/Manager.hpp</title>
<polygon fill="white" stroke="none" points="-4,4 -4,-304 1518,-304 1518,4 -4,4"/>
<!-- Node1 -->
<g id="node1" class="node"><title>Node1</title>
<polygon fill="#bfbfbf" stroke="black" points="376,-258.5 376,-299.5 524,-299.5 524,-258.5 376,-258.5"/>
<text text-anchor="start" x="384" y="-287.5" font-family="Helvetica,sans-Serif" font-size="10.00">/home/travis/build</text>
<text text-anchor="start" x="384" y="-276.5" font-family="Helvetica,sans-Serif" font-size="10.00">/STORM&#45;IRIT/Radium&#45;Engine</text>
<text text-anchor="middle" x="450" y="-265.5" font-family="Helvetica,sans-Serif" font-size="10.00">/src/Tests/Manager.hpp</text>
</g>
<!-- Node2 -->
<g id="node2" class="node"><title>Node2</title>
<g id="a_node2"><a xlink:href="Manager_8cpp.html" target="_top" xlink:title="/home/travis/build\l/STORM&#45;IRIT/Radium&#45;Engine\l/src/Tests/Manager.cpp">
<polygon fill="white" stroke="black" points="0,-96.5 0,-137.5 148,-137.5 148,-96.5 0,-96.5"/>
<text text-anchor="start" x="8" y="-125.5" font-family="Helvetica,sans-Serif" font-size="10.00">/home/travis/build</text>
<text text-anchor="start" x="8" y="-114.5" font-family="Helvetica,sans-Serif" font-size="10.00">/STORM&#45;IRIT/Radium&#45;Engine</text>
<text text-anchor="middle" x="74" y="-103.5" font-family="Helvetica,sans-Serif" font-size="10.00">/src/Tests/Manager.cpp</text>
</a>
</g>
</g>
<!-- Node1&#45;&gt;Node2 -->
<g id="edge1" class="edge"><title>Node1&#45;&gt;Node2</title>
<path fill="none" stroke="midnightblue" d="M394.662,-254.452C320.211,-222.771 189.161,-167.004 119.893,-137.529"/>
<polygon fill="midnightblue" stroke="midnightblue" points="393.323,-257.686 403.895,-258.381 396.064,-251.245 393.323,-257.686"/>
</g>
<!-- Node3 -->
<g id="node3" class="node"><title>Node3</title>
<g id="a_node3"><a xlink:href="Tests_8hpp.html" target="_top" xlink:title="/home/travis/build\l/STORM&#45;IRIT/Radium&#45;Engine\l/src/Tests/Tests.hpp">
<polygon fill="white" stroke="black" points="536,-180.5 536,-221.5 684,-221.5 684,-180.5 536,-180.5"/>
<text text-anchor="start" x="544" y="-209.5" font-family="Helvetica,sans-Serif" font-size="10.00">/home/travis/build</text>
<text text-anchor="start" x="544" y="-198.5" font-family="Helvetica,sans-Serif" font-size="10.00">/STORM&#45;IRIT/Radium&#45;Engine</text>
<text text-anchor="middle" x="610" y="-187.5" font-family="Helvetica,sans-Serif" font-size="10.00">/src/Tests/Tests.hpp</text>
</a>
</g>
</g>
<!-- Node1&#45;&gt;Node3 -->
<g id="edge2" class="edge"><title>Node1&#45;&gt;Node3</title>
<path fill="none" stroke="midnightblue" d="M500.424,-254.049C522.492,-243.566 548.054,-231.424 568.936,-221.506"/>
<polygon fill="midnightblue" stroke="midnightblue" points="498.735,-250.976 491.204,-258.428 501.738,-257.299 498.735,-250.976"/>
</g>
<!-- Node3&#45;&gt;Node2 -->
<g id="edge20" class="edge"><title>Node3&#45;&gt;Node2</title>
<path fill="none" stroke="midnightblue" d="M525.912,-194.173C434.384,-186.773 284.092,-171.525 157,-144 148.736,-142.21 140.115,-139.959 131.69,-137.534"/>
<polygon fill="midnightblue" stroke="midnightblue" points="525.708,-197.667 535.954,-194.972 526.263,-190.689 525.708,-197.667"/>
</g>
<!-- Node4 -->
<g id="node4" class="node"><title>Node4</title>
<g id="a_node4"><a xlink:href="AlgebraTests_8hpp.html" target="_top" xlink:title="/home/travis/build\l/STORM&#45;IRIT/Radium&#45;Engine\l/src/Tests/CoreTests/src\l/AlgebraTests.hpp">
<polygon fill="white" stroke="black" points="166,-91 166,-143 314,-143 314,-91 166,-91"/>
<text text-anchor="start" x="174" y="-131" font-family="Helvetica,sans-Serif" font-size="10.00">/home/travis/build</text>
<text text-anchor="start" x="174" y="-120" font-family="Helvetica,sans-Serif" font-size="10.00">/STORM&#45;IRIT/Radium&#45;Engine</text>
<text text-anchor="start" x="174" y="-109" font-family="Helvetica,sans-Serif" font-size="10.00">/src/Tests/CoreTests/src</text>
<text text-anchor="middle" x="240" y="-98" font-family="Helvetica,sans-Serif" font-size="10.00">/AlgebraTests.hpp</text>
</a>
</g>
</g>
<!-- Node3&#45;&gt;Node4 -->
<g id="edge3" class="edge"><title>Node3&#45;&gt;Node4</title>
<path fill="none" stroke="midnightblue" d="M526.04,-185.402C469.73,-175.103 394.064,-160.283 328,-144 323.514,-142.894 318.916,-141.706 314.287,-140.467"/>
<polygon fill="midnightblue" stroke="midnightblue" points="525.502,-188.861 535.967,-187.207 526.755,-181.974 525.502,-188.861"/>
</g>
<!-- Node5 -->
<g id="node5" class="node"><title>Node5</title>
<g id="a_node5"><a xlink:href="main_8cpp.html" target="_top" xlink:title="/home/travis/build\l/STORM&#45;IRIT/Radium&#45;Engine\l/src/Tests/CoreTests/src\l/main.cpp">
<polygon fill="white" stroke="black" points="702,-1 702,-53 850,-53 850,-1 702,-1"/>
<text text-anchor="start" x="710" y="-41" font-family="Helvetica,sans-Serif" font-size="10.00">/home/travis/build</text>
<text text-anchor="start" x="710" y="-30" font-family="Helvetica,sans-Serif" font-size="10.00">/STORM&#45;IRIT/Radium&#45;Engine</text>
<text text-anchor="start" x="710" y="-19" font-family="Helvetica,sans-Serif" font-size="10.00">/src/Tests/CoreTests/src</text>
<text text-anchor="middle" x="776" y="-8" font-family="Helvetica,sans-Serif" font-size="10.00">/main.cpp</text>
</a>
</g>
</g>
<!-- Node3&#45;&gt;Node5 -->
<g id="edge11" class="edge"><title>Node3&#45;&gt;Node5</title>
<path fill="none" stroke="midnightblue" d="M525.788,-192.229C461.848,-184.382 381.528,-169.657 361,-144 346.006,-125.26 345.333,-108.181 361,-90 404.155,-39.9187 594.721,-29.6863 701.982,-27.9721"/>
<polygon fill="midnightblue" stroke="midnightblue" points="525.554,-195.726 535.897,-193.43 526.38,-188.775 525.554,-195.726"/>
</g>
<!-- Node6 -->
<g id="node6" class="node"><title>Node6</title>
<g id="a_node6"><a xlink:href="AnimationTest_8hpp.html" target="_top" xlink:title="/home/travis/build\l/STORM&#45;IRIT/Radium&#45;Engine\l/src/Tests/CoreTests/src\l/AnimationTest.hpp">
<polygon fill="white" stroke="black" points="370,-91 370,-143 518,-143 518,-91 370,-91"/>
<text text-anchor="start" x="378" y="-131" font-family="Helvetica,sans-Serif" font-size="10.00">/home/travis/build</text>
<text text-anchor="start" x="378" y="-120" font-family="Helvetica,sans-Serif" font-size="10.00">/STORM&#45;IRIT/Radium&#45;Engine</text>
<text text-anchor="start" x="378" y="-109" font-family="Helvetica,sans-Serif" font-size="10.00">/src/Tests/CoreTests/src</text>
<text text-anchor="middle" x="444" y="-98" font-family="Helvetica,sans-Serif" font-size="10.00">/AnimationTest.hpp</text>
</a>
</g>
</g>
<!-- Node3&#45;&gt;Node6 -->
<g id="edge5" class="edge"><title>Node3&#45;&gt;Node6</title>
<path fill="none" stroke="midnightblue" d="M561.21,-175.899C540.304,-165.572 515.887,-153.511 494.768,-143.078"/>
<polygon fill="midnightblue" stroke="midnightblue" points="559.723,-179.068 570.239,-180.359 562.823,-172.792 559.723,-179.068"/>
</g>
<!-- Node7 -->
<g id="node7" class="node"><title>Node7</title>
<g id="a_node7"><a xlink:href="ContainersTest_8hpp.html" target="_top" xlink:title="/home/travis/build\l/STORM&#45;IRIT/Radium&#45;Engine\l/src/Tests/CoreTests/src\l/ContainersTest.hpp">
<polygon fill="white" stroke="black" points="536,-91 536,-143 684,-143 684,-91 536,-91"/>
<text text-anchor="start" x="544" y="-131" font-family="Helvetica,sans-Serif" font-size="10.00">/home/travis/build</text>
<text text-anchor="start" x="544" y="-120" font-family="Helvetica,sans-Serif" font-size="10.00">/STORM&#45;IRIT/Radium&#45;Engine</text>
<text text-anchor="start" x="544" y="-109" font-family="Helvetica,sans-Serif" font-size="10.00">/src/Tests/CoreTests/src</text>
<text text-anchor="middle" x="610" y="-98" font-family="Helvetica,sans-Serif" font-size="10.00">/ContainersTest.hpp</text>
</a>
</g>
</g>
<!-- Node3&#45;&gt;Node7 -->
<g id="edge7" class="edge"><title>Node3&#45;&gt;Node7</title>
<path fill="none" stroke="midnightblue" d="M610,-169.938C610,-161.176 610,-151.695 610,-143.261"/>
<polygon fill="midnightblue" stroke="midnightblue" points="606.5,-170.15 610,-180.15 613.5,-170.15 606.5,-170.15"/>
</g>
<!-- Node8 -->
<g id="node8" class="node"><title>Node8</title>
<g id="a_node8"><a xlink:href="IndexMapTest_8hpp.html" target="_top" xlink:title="/home/travis/build\l/STORM&#45;IRIT/Radium&#45;Engine\l/src/Tests/CoreTests/src\l/IndexMapTest.hpp">
<polygon fill="white" stroke="black" points="702,-91 702,-143 850,-143 850,-91 702,-91"/>
<text text-anchor="start" x="710" y="-131" font-family="Helvetica,sans-Serif" font-size="10.00">/home/travis/build</text>
<text text-anchor="start" x="710" y="-120" font-family="Helvetica,sans-Serif" font-size="10.00">/STORM&#45;IRIT/Radium&#45;Engine</text>
<text text-anchor="start" x="710" y="-109" font-family="Helvetica,sans-Serif" font-size="10.00">/src/Tests/CoreTests/src</text>
<text text-anchor="middle" x="776" y="-98" font-family="Helvetica,sans-Serif" font-size="10.00">/IndexMapTest.hpp</text>
</a>
</g>
</g>
<!-- Node3&#45;&gt;Node8 -->
<g id="edge9" class="edge"><title>Node3&#45;&gt;Node8</title>
<path fill="none" stroke="midnightblue" d="M658.79,-175.899C679.696,-165.572 704.113,-153.511 725.232,-143.078"/>
<polygon fill="midnightblue" stroke="midnightblue" points="657.177,-172.792 649.761,-180.359 660.277,-179.068 657.177,-172.792"/>
</g>
<!-- Node9 -->
<g id="node9" class="node"><title>Node9</title>
<g id="a_node9"><a xlink:href="Tests_2CoreTests_2src_2Mesh_8hpp.html" target="_top" xlink:title="/home/travis/build\l/STORM&#45;IRIT/Radium&#45;Engine\l/src/Tests/CoreTests/src\l/Mesh.hpp">
<polygon fill="white" stroke="black" points="868,-91 868,-143 1016,-143 1016,-91 868,-91"/>
<text text-anchor="start" x="876" y="-131" font-family="Helvetica,sans-Serif" font-size="10.00">/home/travis/build</text>
<text text-anchor="start" x="876" y="-120" font-family="Helvetica,sans-Serif" font-size="10.00">/STORM&#45;IRIT/Radium&#45;Engine</text>
<text text-anchor="start" x="876" y="-109" font-family="Helvetica,sans-Serif" font-size="10.00">/src/Tests/CoreTests/src</text>
<text text-anchor="middle" x="942" y="-98" font-family="Helvetica,sans-Serif" font-size="10.00">/Mesh.hpp</text>
</a>
</g>
</g>
<!-- Node3&#45;&gt;Node9 -->
<g id="edge12" class="edge"><title>Node3&#45;&gt;Node9</title>
<path fill="none" stroke="midnightblue" d="M694.025,-182.905C742.493,-172.595 804.453,-158.651 859,-144 861.917,-143.217 864.884,-142.397 867.877,-141.551"/>
<polygon fill="midnightblue" stroke="midnightblue" points="693.265,-179.488 684.207,-184.983 694.715,-186.336 693.265,-179.488"/>
</g>
<!-- Node10 -->
<g id="node10" class="node"><title>Node10</title>
<g id="a_node10"><a xlink:href="RayCastTest_8hpp.html" target="_top" xlink:title="/home/travis/build\l/STORM&#45;IRIT/Radium&#45;Engine\l/src/Tests/CoreTests/src\l/RayCastTest.hpp">
<polygon fill="white" stroke="black" points="1034,-91 1034,-143 1182,-143 1182,-91 1034,-91"/>
<text text-anchor="start" x="1042" y="-131" font-family="Helvetica,sans-Serif" font-size="10.00">/home/travis/build</text>
<text text-anchor="start" x="1042" y="-120" font-family="Helvetica,sans-Serif" font-size="10.00">/STORM&#45;IRIT/Radium&#45;Engine</text>
<text text-anchor="start" x="1042" y="-109" font-family="Helvetica,sans-Serif" font-size="10.00">/src/Tests/CoreTests/src</text>
<text text-anchor="middle" x="1108" y="-98" font-family="Helvetica,sans-Serif" font-size="10.00">/RayCastTest.hpp</text>
</a>
</g>
</g>
<!-- Node3&#45;&gt;Node10 -->
<g id="edge14" class="edge"><title>Node3&#45;&gt;Node10</title>
<path fill="none" stroke="midnightblue" d="M694.173,-192.862C778.539,-184.722 911.796,-169.178 1025,-144 1027.95,-143.344 1030.94,-142.632 1033.96,-141.877"/>
<polygon fill="midnightblue" stroke="midnightblue" points="693.754,-189.385 684.131,-193.818 694.418,-196.354 693.754,-189.385"/>
</g>
<!-- Node11 -->
<g id="node11" class="node"><title>Node11</title>
<g id="a_node11"><a xlink:href="StringTest_8hpp.html" target="_top" xlink:title="/home/travis/build\l/STORM&#45;IRIT/Radium&#45;Engine\l/src/Tests/CoreTests/src\l/StringTest.hpp">
<polygon fill="white" stroke="black" points="1200,-91 1200,-143 1348,-143 1348,-91 1200,-91"/>
<text text-anchor="start" x="1208" y="-131" font-family="Helvetica,sans-Serif" font-size="10.00">/home/travis/build</text>
<text text-anchor="start" x="1208" y="-120" font-family="Helvetica,sans-Serif" font-size="10.00">/STORM&#45;IRIT/Radium&#45;Engine</text>
<text text-anchor="start" x="1208" y="-109" font-family="Helvetica,sans-Serif" font-size="10.00">/src/Tests/CoreTests/src</text>
<text text-anchor="middle" x="1274" y="-98" font-family="Helvetica,sans-Serif" font-size="10.00">/StringTest.hpp</text>
</a>
</g>
</g>
<!-- Node3&#45;&gt;Node11 -->
<g id="edge16" class="edge"><title>Node3&#45;&gt;Node11</title>
<path fill="none" stroke="midnightblue" d="M694.129,-197.359C807.855,-192.55 1016.5,-179.342 1191,-144 1193.96,-143.401 1196.96,-142.736 1199.99,-142.02"/>
<polygon fill="midnightblue" stroke="midnightblue" points="693.943,-193.864 684.095,-197.772 694.23,-200.858 693.943,-193.864"/>
</g>
<!-- Node12 -->
<g id="node12" class="node"><title>Node12</title>
<g id="a_node12"><a xlink:href="Tests_2CoreTests_2src_2TopologicalMesh_8hpp.html" target="_top" xlink:title="/home/travis/build\l/STORM&#45;IRIT/Radium&#45;Engine\l/src/Tests/CoreTests/src\l/TopologicalMesh.hpp">
<polygon fill="white" stroke="black" points="1366,-91 1366,-143 1514,-143 1514,-91 1366,-91"/>
<text text-anchor="start" x="1374" y="-131" font-family="Helvetica,sans-Serif" font-size="10.00">/home/travis/build</text>
<text text-anchor="start" x="1374" y="-120" font-family="Helvetica,sans-Serif" font-size="10.00">/STORM&#45;IRIT/Radium&#45;Engine</text>
<text text-anchor="start" x="1374" y="-109" font-family="Helvetica,sans-Serif" font-size="10.00">/src/Tests/CoreTests/src</text>
<text text-anchor="middle" x="1440" y="-98" font-family="Helvetica,sans-Serif" font-size="10.00">/TopologicalMesh.hpp</text>
</a>
</g>
</g>
<!-- Node3&#45;&gt;Node12 -->
<g id="edge18" class="edge"><title>Node3&#45;&gt;Node12</title>
<path fill="none" stroke="midnightblue" d="M694.334,-199.927C833.579,-198.415 1119.77,-189.427 1357,-144 1359.82,-143.46 1362.67,-142.858 1365.55,-142.204"/>
<polygon fill="midnightblue" stroke="midnightblue" points="694.124,-196.428 684.159,-200.026 694.193,-203.428 694.124,-196.428"/>
</g>
<!-- Node4&#45;&gt;Node5 -->
<g id="edge4" class="edge"><title>Node4&#45;&gt;Node5</title>
<path fill="none" stroke="midnightblue" d="M324.166,-90.8477C325.451,-90.5568 326.73,-90.2739 328,-90 458.099,-61.9437 612.317,-43.86 701.681,-34.8425"/>
<polygon fill="midnightblue" stroke="midnightblue" points="323.13,-87.4967 314.215,-93.2226 324.755,-94.3055 323.13,-87.4967"/>
</g>
<!-- Node6&#45;&gt;Node5 -->
<g id="edge6" class="edge"><title>Node6&#45;&gt;Node5</title>
<path fill="none" stroke="midnightblue" d="M527.998,-89.7757C591.917,-71.9869 654.629,-56.5044 701.88,-45.2334"/>
<polygon fill="midnightblue" stroke="midnightblue" points="526.833,-86.4672 518.146,-92.5332 528.72,-93.2081 526.833,-86.4672"/>
</g>
<!-- Node7&#45;&gt;Node5 -->
<g id="edge8" class="edge"><title>Node7&#45;&gt;Node5</title>
<path fill="none" stroke="midnightblue" d="M666.666,-85.9601C686.864,-75.2526 709.384,-63.3145 728.711,-53.0687"/>
<polygon fill="midnightblue" stroke="midnightblue" points="664.765,-83.0066 657.569,-90.7827 668.044,-89.1913 664.765,-83.0066"/>
</g>
<!-- Node8&#45;&gt;Node5 -->
<g id="edge10" class="edge"><title>Node8&#45;&gt;Node5</title>
<path fill="none" stroke="midnightblue" d="M776,-80.4892C776,-71.3088 776,-61.616 776,-53.0921"/>
<polygon fill="midnightblue" stroke="midnightblue" points="772.5,-80.5467 776,-90.5468 779.5,-80.5468 772.5,-80.5467"/>
</g>
<!-- Node9&#45;&gt;Node5 -->
<g id="edge13" class="edge"><title>Node9&#45;&gt;Node5</title>
<path fill="none" stroke="midnightblue" d="M885.334,-85.9601C865.136,-75.2526 842.616,-63.3145 823.289,-53.0687"/>
<polygon fill="midnightblue" stroke="midnightblue" points="883.956,-89.1913 894.431,-90.7827 887.235,-83.0066 883.956,-89.1913"/>
</g>
<!-- Node10&#45;&gt;Node5 -->
<g id="edge15" class="edge"><title>Node10&#45;&gt;Node5</title>
<path fill="none" stroke="midnightblue" d="M1024,-89.7757C960.083,-71.9869 897.371,-56.5044 850.12,-45.2334"/>
<polygon fill="midnightblue" stroke="midnightblue" points="1023.28,-93.2081 1033.85,-92.5332 1025.17,-86.4672 1023.28,-93.2081"/>
</g>
<!-- Node11&#45;&gt;Node5 -->
<g id="edge17" class="edge"><title>Node11&#45;&gt;Node5</title>
<path fill="none" stroke="midnightblue" d="M1189.89,-89.8846C1065.83,-61.9653 931.436,-44.6371 850.113,-35.5562"/>
<polygon fill="midnightblue" stroke="midnightblue" points="1189.42,-93.3666 1199.94,-92.1762 1190.97,-86.5415 1189.42,-93.3666"/>
</g>
<!-- Node12&#45;&gt;Node5 -->
<g id="edge19" class="edge"><title>Node12&#45;&gt;Node5</title>
<path fill="none" stroke="midnightblue" d="M1356,-89.9634C1169.67,-52.0915 959.277,-37.0091 850.095,-31.225"/>
<polygon fill="midnightblue" stroke="midnightblue" points="1355.48,-93.4292 1365.98,-92.0182 1356.89,-86.573 1355.48,-93.4292"/>
</g>
</g>
</svg>
