<?xml version="1.0" encoding="UTF-8" standalone="no"?>
<!DOCTYPE svg PUBLIC "-//W3C//DTD SVG 1.1//EN"
 "http://www.w3.org/Graphics/SVG/1.1/DTD/svg11.dtd">
<!-- Generated by graphviz version 2.36.0 (20140111.2315)
 -->
<!-- Title: /home/travis/build/STORM&#45;IRIT/Radium&#45;Engine/src/Tests/Manager.cpp Pages: 1 -->
<svg width="332pt" height="386pt"
 viewBox="0.00 0.00 332.00 386.00" xmlns="http://www.w3.org/2000/svg" xmlns:xlink="http://www.w3.org/1999/xlink">
<g id="graph0" class="graph" transform="scale(1 1) rotate(0) translate(4 382)">
<title>/home/travis/build/STORM&#45;IRIT/Radium&#45;Engine/src/Tests/Manager.cpp</title>
<polygon fill="white" stroke="none" points="-4,4 -4,-382 328,-382 328,4 -4,4"/>
<!-- Node1 -->
<g id="node1" class="node"><title>Node1</title>
<polygon fill="#bfbfbf" stroke="black" points="132,-336.5 132,-377.5 280,-377.5 280,-336.5 132,-336.5"/>
<text text-anchor="start" x="140" y="-365.5" font-family="Helvetica,sans-Serif" font-size="10.00">/home/travis/build</text>
<text text-anchor="start" x="140" y="-354.5" font-family="Helvetica,sans-Serif" font-size="10.00">/STORM&#45;IRIT/Radium&#45;Engine</text>
<text text-anchor="middle" x="206" y="-343.5" font-family="Helvetica,sans-Serif" font-size="10.00">/src/Tests/Manager.cpp</text>
</g>
<!-- Node2 -->
<g id="node2" class="node"><title>Node2</title>
<g id="a_node2"><a xlink:href="Manager_8hpp.html" target="_top" xlink:title="Tests/Manager.hpp">
<polygon fill="white" stroke="black" points="83.5,-224.5 83.5,-243.5 184.5,-243.5 184.5,-224.5 83.5,-224.5"/>
<text text-anchor="middle" x="134" y="-231.5" font-family="Helvetica,sans-Serif" font-size="10.00">Tests/Manager.hpp</text>
</a>
</g>
</g>
<!-- Node1&#45;&gt;Node2 -->
<g id="edge1" class="edge"><title>Node1&#45;&gt;Node2</title>
<path fill="none" stroke="midnightblue" d="M182.989,-336.413C172.538,-326.447 160.797,-313.583 153,-300 144.677,-285.502 139.738,-267.057 136.992,-253.522"/>
<polygon fill="midnightblue" stroke="midnightblue" points="140.403,-252.717 135.175,-243.502 133.515,-253.966 140.403,-252.717"/>
</g>
<!-- Node12 -->
<g id="node12" class="node"><title>Node12</title>
<g id="a_node12"><a xlink:href="Tests_8hpp.html" target="_top" xlink:title="Tests/Tests.hpp">
<polygon fill="white" stroke="black" points="162,-280.5 162,-299.5 250,-299.5 250,-280.5 162,-280.5"/>
<text text-anchor="middle" x="206" y="-287.5" font-family="Helvetica,sans-Serif" font-size="10.00">Tests/Tests.hpp</text>
</a>
</g>
</g>
<!-- Node1&#45;&gt;Node12 -->
<g id="edge11" class="edge"><title>Node1&#45;&gt;Node12</title>
<path fill="none" stroke="midnightblue" d="M206,-336.498C206,-328.065 206,-318.235 206,-309.874"/>
<polygon fill="midnightblue" stroke="midnightblue" points="209.5,-309.652 206,-299.652 202.5,-309.653 209.5,-309.652"/>
</g>
<!-- Node13 -->
<g id="node13" class="node"><title>Node13</title>
<polygon fill="white" stroke="#bfbfbf" points="268,-280.5 268,-299.5 324,-299.5 324,-280.5 268,-280.5"/>
<text text-anchor="middle" x="296" y="-287.5" font-family="Helvetica,sans-Serif" font-size="10.00">algorithm</text>
</g>
<!-- Node1&#45;&gt;Node13 -->
<g id="edge14" class="edge"><title>Node1&#45;&gt;Node13</title>
<path fill="none" stroke="midnightblue" d="M233.003,-336.498C246.669,-326.628 262.986,-314.843 275.59,-305.741"/>
<polygon fill="midnightblue" stroke="midnightblue" points="277.962,-308.345 284.02,-299.652 273.864,-302.67 277.962,-308.345"/>
</g>
<!-- Node3 -->
<g id="node3" class="node"><title>Node3</title>
<g id="a_node3"><a xlink:href="Singleton_8hpp.html" target="_top" xlink:title="Core/Utils/Singleton.hpp">
<polygon fill="white" stroke="black" points="-0.5,-168.5 -0.5,-187.5 122.5,-187.5 122.5,-168.5 -0.5,-168.5"/>
<text text-anchor="middle" x="61" y="-175.5" font-family="Helvetica,sans-Serif" font-size="10.00">Core/Utils/Singleton.hpp</text>
</a>
</g>
</g>
<!-- Node2&#45;&gt;Node3 -->
<g id="edge2" class="edge"><title>Node2&#45;&gt;Node3</title>
<path fill="none" stroke="midnightblue" d="M122.271,-224.324C111.163,-216.107 94.2578,-203.602 81.0167,-193.807"/>
<polygon fill="midnightblue" stroke="midnightblue" points="83.0631,-190.967 72.9421,-187.834 78.9001,-196.595 83.0631,-190.967"/>
</g>
<!-- Node11 -->
<g id="node11" class="node"><title>Node11</title>
<polygon fill="white" stroke="#bfbfbf" points="141,-168.5 141,-187.5 185,-187.5 185,-168.5 141,-168.5"/>
<text text-anchor="middle" x="163" y="-175.5" font-family="Helvetica,sans-Serif" font-size="10.00">vector</text>
</g>
<!-- Node2&#45;&gt;Node11 -->
<g id="edge10" class="edge"><title>Node2&#45;&gt;Node11</title>
<path fill="none" stroke="midnightblue" d="M138.789,-224.083C142.758,-216.691 148.525,-205.953 153.435,-196.811"/>
<polygon fill="midnightblue" stroke="midnightblue" points="156.653,-198.217 158.3,-187.751 150.486,-194.905 156.653,-198.217"/>
</g>
<!-- Node4 -->
<g id="node4" class="node"><title>Node4</title>
<g id="a_node4"><a xlink:href="RaCore_8hpp.html" target="_top" xlink:title="Core/RaCore.hpp">
<polygon fill="white" stroke="black" points="53.5,-112.5 53.5,-131.5 146.5,-131.5 146.5,-112.5 53.5,-112.5"/>
<text text-anchor="middle" x="100" y="-119.5" font-family="Helvetica,sans-Serif" font-size="10.00">Core/RaCore.hpp</text>
</a>
</g>
</g>
<!-- Node3&#45;&gt;Node4 -->
<g id="edge3" class="edge"><title>Node3&#45;&gt;Node4</title>
<path fill="none" stroke="midnightblue" d="M67.4401,-168.083C72.9489,-160.455 81.0312,-149.264 87.765,-139.941"/>
<polygon fill="midnightblue" stroke="midnightblue" points="90.6622,-141.907 93.6798,-131.751 84.9874,-137.809 90.6622,-141.907"/>
</g>
<!-- Node5 -->
<g id="node5" class="node"><title>Node5</title>
<g id="a_node5"><a xlink:href="CoreMacros_8hpp.html" target="_top" xlink:title="Core/CoreMacros.hpp">
<polygon fill="white" stroke="black" points="99.5,-56.5 99.5,-75.5 212.5,-75.5 212.5,-56.5 99.5,-56.5"/>
<text text-anchor="middle" x="156" y="-63.5" font-family="Helvetica,sans-Serif" font-size="10.00">Core/CoreMacros.hpp</text>
</a>
</g>
</g>
<!-- Node4&#45;&gt;Node5 -->
<g id="edge4" class="edge"><title>Node4&#45;&gt;Node5</title>
<path fill="none" stroke="midnightblue" d="M108.997,-112.324C117.194,-104.42 129.506,-92.5482 139.472,-82.9377"/>
<polygon fill="midnightblue" stroke="midnightblue" points="142.07,-85.2947 146.839,-75.8339 137.211,-80.2558 142.07,-85.2947"/>
</g>
<!-- Node6 -->
<g id="node6" class="node"><title>Node6</title>
<polygon fill="white" stroke="#bfbfbf" points="0.5,-0.5 0.5,-19.5 49.5,-19.5 49.5,-0.5 0.5,-0.5"/>
<text text-anchor="middle" x="25" y="-7.5" font-family="Helvetica,sans-Serif" font-size="10.00">cassert</text>
</g>
<!-- Node5&#45;&gt;Node6 -->
<g id="edge5" class="edge"><title>Node5&#45;&gt;Node6</title>
<path fill="none" stroke="midnightblue" d="M135.243,-56.4435C113.684,-47.5566 79.7367,-33.5632 55.2062,-23.4514"/>
<polygon fill="midnightblue" stroke="midnightblue" points="56.2394,-20.0917 45.6602,-19.5164 53.5717,-26.5634 56.2394,-20.0917"/>
</g>
<!-- Node7 -->
<g id="node7" class="node"><title>Node7</title>
<polygon fill="white" stroke="#bfbfbf" points="67.5,-0.5 67.5,-19.5 110.5,-19.5 110.5,-0.5 67.5,-0.5"/>
<text text-anchor="middle" x="89" y="-7.5" font-family="Helvetica,sans-Serif" font-size="10.00">cstdio</text>
</g>
<!-- Node5&#45;&gt;Node7 -->
<g id="edge6" class="edge"><title>Node5&#45;&gt;Node7</title>
<path fill="none" stroke="midnightblue" d="M145.235,-56.324C135.234,-48.2631 120.113,-36.0765 108.07,-26.3695"/>
<polygon fill="midnightblue" stroke="midnightblue" points="109.943,-23.3841 99.9606,-19.8339 105.55,-28.8343 109.943,-23.3841"/>
</g>
<!-- Node8 -->
<g id="node8" class="node"><title>Node8</title>
<polygon fill="white" stroke="#bfbfbf" points="129,-0.5 129,-19.5 183,-19.5 183,-0.5 129,-0.5"/>
<text text-anchor="middle" x="156" y="-7.5" font-family="Helvetica,sans-Serif" font-size="10.00">iostream</text>
</g>
<!-- Node5&#45;&gt;Node8 -->
<g id="edge7" class="edge"><title>Node5&#45;&gt;Node8</title>
<path fill="none" stroke="midnightblue" d="M156,-56.083C156,-49.0059 156,-38.8611 156,-29.9865"/>
<polygon fill="midnightblue" stroke="midnightblue" points="159.5,-29.751 156,-19.7511 152.5,-29.7511 159.5,-29.751"/>
</g>
<!-- Node9 -->
<g id="node9" class="node"><title>Node9</title>
<polygon fill="white" stroke="#bfbfbf" points="201,-0.5 201,-19.5 253,-19.5 253,-0.5 201,-0.5"/>
<text text-anchor="middle" x="227" y="-7.5" font-family="Helvetica,sans-Serif" font-size="10.00">sstream</text>
</g>
<!-- Node5&#45;&gt;Node9 -->
<g id="edge8" class="edge"><title>Node5&#45;&gt;Node9</title>
<path fill="none" stroke="midnightblue" d="M167.407,-56.324C178.109,-48.1849 194.341,-35.8395 207.163,-26.0874"/>
<polygon fill="midnightblue" stroke="midnightblue" points="209.544,-28.6734 215.385,-19.8339 205.307,-23.1018 209.544,-28.6734"/>
</g>
<!-- Node10 -->
<g id="node10" class="node"><title>Node10</title>
<polygon fill="white" stroke="#bfbfbf" points="271,-0.5 271,-19.5 315,-19.5 315,-0.5 271,-0.5"/>
<text text-anchor="middle" x="293" y="-7.5" font-family="Helvetica,sans-Serif" font-size="10.00">thread</text>
</g>
<!-- Node5&#45;&gt;Node10 -->
<g id="edge9" class="edge"><title>Node5&#45;&gt;Node10</title>
<path fill="none" stroke="midnightblue" d="M177.708,-56.4435C200.355,-47.5171 236.072,-33.4387 261.752,-23.3168"/>
<polygon fill="midnightblue" stroke="midnightblue" points="263.374,-26.4397 271.394,-19.5164 260.807,-19.9273 263.374,-26.4397"/>
</g>
<!-- Node12&#45;&gt;Node2 -->
<g id="edge13" class="edge"><title>Node12&#45;&gt;Node2</title>
<path fill="none" stroke="midnightblue" d="M194.432,-280.324C183.58,-272.185 167.119,-259.839 154.117,-250.087"/>
<polygon fill="midnightblue" stroke="midnightblue" points="155.879,-247.034 145.779,-243.834 151.679,-252.634 155.879,-247.034"/>
</g>
<!-- Node12&#45;&gt;Node5 -->
<g id="edge12" class="edge"><title>Node12&#45;&gt;Node5</title>
<path fill="none" stroke="midnightblue" d="M205.793,-280.371C205.158,-260.364 202.644,-209.357 193,-168 186.026,-138.093 172.744,-104.933 164.136,-85.0392"/>
<polygon fill="midnightblue" stroke="midnightblue" points="167.252,-83.4297 160.012,-75.6946 160.848,-86.2564 167.252,-83.4297"/>
</g>
</g>
</svg>
