<?xml version="1.0" encoding="UTF-8" standalone="no"?>
<!DOCTYPE svg PUBLIC "-//W3C//DTD SVG 1.1//EN"
 "http://www.w3.org/Graphics/SVG/1.1/DTD/svg11.dtd">
<!-- Generated by graphviz version 2.36.0 (20140111.2315)
 -->
<!-- Title: /home/travis/build/STORM&#45;IRIT/Radium&#45;Engine/src/Core/Mesh/MeshUtils.hpp Pages: 1 -->
<svg width="3450pt" height="500pt"
 viewBox="0.00 0.00 3450.00 500.00" xmlns="http://www.w3.org/2000/svg" xmlns:xlink="http://www.w3.org/1999/xlink">
<g id="graph0" class="graph" transform="scale(1 1) rotate(0) translate(4 496)">
<title>/home/travis/build/STORM&#45;IRIT/Radium&#45;Engine/src/Core/Mesh/MeshUtils.hpp</title>
<polygon fill="white" stroke="none" points="-4,4 -4,-496 3446,-496 3446,4 -4,4"/>
<!-- Node1 -->
<g id="node1" class="node"><title>Node1</title>
<polygon fill="#bfbfbf" stroke="black" points="1857,-450.5 1857,-491.5 2007,-491.5 2007,-450.5 1857,-450.5"/>
<text text-anchor="start" x="1865" y="-479.5" font-family="Helvetica,sans-Serif" font-size="10.00">/home/travis/build</text>
<text text-anchor="start" x="1865" y="-468.5" font-family="Helvetica,sans-Serif" font-size="10.00">/STORM&#45;IRIT/Radium&#45;Engine</text>
<text text-anchor="middle" x="1932" y="-457.5" font-family="Helvetica,sans-Serif" font-size="10.00">/src/Core/Mesh/MeshUtils.hpp</text>
</g>
<!-- Node2 -->
<g id="node2" class="node"><title>Node2</title>
<g id="a_node2"><a xlink:href="RotationCenterSkinning_8cpp.html" target="_top" xlink:title="/home/travis/build\l/STORM&#45;IRIT/Radium&#45;Engine\l/src/Core/Animation/Skinning\l/RotationCenterSkinning.cpp">
<polygon fill="white" stroke="black" points="563,-361 563,-413 711,-413 711,-361 563,-361"/>
<text text-anchor="start" x="571" y="-401" font-family="Helvetica,sans-Serif" font-size="10.00">/home/travis/build</text>
<text text-anchor="start" x="571" y="-390" font-family="Helvetica,sans-Serif" font-size="10.00">/STORM&#45;IRIT/Radium&#45;Engine</text>
<text text-anchor="start" x="571" y="-379" font-family="Helvetica,sans-Serif" font-size="10.00">/src/Core/Animation/Skinning</text>
<text text-anchor="middle" x="637" y="-368" font-family="Helvetica,sans-Serif" font-size="10.00">/RotationCenterSkinning.cpp</text>
</a>
</g>
</g>
<!-- Node1&#45;&gt;Node2 -->
<g id="edge1" class="edge"><title>Node1&#45;&gt;Node2</title>
<path fill="none" stroke="midnightblue" d="M1846.78,-468.909C1608.19,-465.402 936.889,-452.319 720,-414 717.175,-413.501 714.312,-412.933 711.432,-412.308"/>
<polygon fill="midnightblue" stroke="midnightblue" points="1846.74,-472.409 1856.79,-469.054 1846.84,-465.409 1846.74,-472.409"/>
</g>
<!-- Node3 -->
<g id="node3" class="node"><title>Node3</title>
<g id="a_node3"><a xlink:href="DistanceQueries_8inl.html" target="_top" xlink:title="/home/travis/build\l/STORM&#45;IRIT/Radium&#45;Engine\l/src/Core/Geometry/Distance\l/DistanceQueries.inl">
<polygon fill="white" stroke="black" points="729,-361 729,-413 877,-413 877,-361 729,-361"/>
<text text-anchor="start" x="737" y="-401" font-family="Helvetica,sans-Serif" font-size="10.00">/home/travis/build</text>
<text text-anchor="start" x="737" y="-390" font-family="Helvetica,sans-Serif" font-size="10.00">/STORM&#45;IRIT/Radium&#45;Engine</text>
<text text-anchor="start" x="737" y="-379" font-family="Helvetica,sans-Serif" font-size="10.00">/src/Core/Geometry/Distance</text>
<text text-anchor="middle" x="803" y="-368" font-family="Helvetica,sans-Serif" font-size="10.00">/DistanceQueries.inl</text>
</a>
</g>
</g>
<!-- Node1&#45;&gt;Node3 -->
<g id="edge2" class="edge"><title>Node1&#45;&gt;Node3</title>
<path fill="none" stroke="midnightblue" d="M1846.38,-463.782C1632.58,-448.253 1078.06,-407.978 877.107,-393.382"/>
<polygon fill="midnightblue" stroke="midnightblue" points="1846.38,-467.291 1856.61,-464.524 1846.89,-460.309 1846.38,-467.291"/>
</g>
<!-- Node12 -->
<g id="node12" class="node"><title>Node12</title>
<g id="a_node12"><a xlink:href="MeshPrimitives_8inl.html" target="_top" xlink:title="/home/travis/build\l/STORM&#45;IRIT/Radium&#45;Engine\l/src/Core/Mesh/MeshPrimitives.inl">
<polygon fill="white" stroke="black" points="1203.5,-366.5 1203.5,-407.5 1370.5,-407.5 1370.5,-366.5 1203.5,-366.5"/>
<text text-anchor="start" x="1211.5" y="-395.5" font-family="Helvetica,sans-Serif" font-size="10.00">/home/travis/build</text>
<text text-anchor="start" x="1211.5" y="-384.5" font-family="Helvetica,sans-Serif" font-size="10.00">/STORM&#45;IRIT/Radium&#45;Engine</text>
<text text-anchor="middle" x="1287" y="-373.5" font-family="Helvetica,sans-Serif" font-size="10.00">/src/Core/Mesh/MeshPrimitives.inl</text>
</a>
</g>
</g>
<!-- Node1&#45;&gt;Node12 -->
<g id="edge15" class="edge"><title>Node1&#45;&gt;Node12</title>
<path fill="none" stroke="midnightblue" d="M1846.56,-465.164C1738.95,-458.169 1548.7,-442.789 1388,-414 1378.02,-412.212 1367.57,-409.962 1357.34,-407.538"/>
<polygon fill="midnightblue" stroke="midnightblue" points="1846.51,-468.668 1856.71,-465.815 1846.95,-461.683 1846.51,-468.668"/>
</g>
<!-- Node17 -->
<g id="node17" class="node"><title>Node17</title>
<g id="a_node17"><a xlink:href="DrawPrimitives_8cpp.html" target="_top" xlink:title="/home/travis/build\l/STORM&#45;IRIT/Radium&#45;Engine\l/src/Engine/Renderer/RenderObject\l/Primitives/DrawPrimitives.cpp">
<polygon fill="white" stroke="black" points="1756,-181 1756,-233 1928,-233 1928,-181 1756,-181"/>
<text text-anchor="start" x="1764" y="-221" font-family="Helvetica,sans-Serif" font-size="10.00">/home/travis/build</text>
<text text-anchor="start" x="1764" y="-210" font-family="Helvetica,sans-Serif" font-size="10.00">/STORM&#45;IRIT/Radium&#45;Engine</text>
<text text-anchor="start" x="1764" y="-199" font-family="Helvetica,sans-Serif" font-size="10.00">/src/Engine/Renderer/RenderObject</text>
<text text-anchor="middle" x="1842" y="-188" font-family="Helvetica,sans-Serif" font-size="10.00">/Primitives/DrawPrimitives.cpp</text>
</a>
</g>
</g>
<!-- Node1&#45;&gt;Node17 -->
<g id="edge37" class="edge"><title>Node1&#45;&gt;Node17</title>
<path fill="none" stroke="midnightblue" d="M1846.86,-466.766C1708.86,-460.64 1448.86,-445.079 1421,-414 1404.98,-396.129 1407.21,-379.642 1421,-360 1441.01,-331.501 1639.4,-268.39 1756.56,-233.11"/>
<polygon fill="midnightblue" stroke="midnightblue" points="1846.85,-470.269 1856.99,-467.208 1847.15,-463.275 1846.85,-470.269"/>
</g>
<!-- Node23 -->
<g id="node23" class="node"><title>Node23</title>
<g id="a_node23"><a xlink:href="MeshUtils_8cpp.html" target="_top" xlink:title="/home/travis/build\l/STORM&#45;IRIT/Radium&#45;Engine\l/src/Core/Mesh/MeshUtils.cpp">
<polygon fill="white" stroke="black" points="1430,-366.5 1430,-407.5 1580,-407.5 1580,-366.5 1430,-366.5"/>
<text text-anchor="start" x="1438" y="-395.5" font-family="Helvetica,sans-Serif" font-size="10.00">/home/travis/build</text>
<text text-anchor="start" x="1438" y="-384.5" font-family="Helvetica,sans-Serif" font-size="10.00">/STORM&#45;IRIT/Radium&#45;Engine</text>
<text text-anchor="middle" x="1505" y="-373.5" font-family="Helvetica,sans-Serif" font-size="10.00">/src/Core/Mesh/MeshUtils.cpp</text>
</a>
</g>
</g>
<!-- Node1&#45;&gt;Node23 -->
<g id="edge29" class="edge"><title>Node1&#45;&gt;Node23</title>
<path fill="none" stroke="midnightblue" d="M1846.74,-459.42C1776.95,-449.962 1675.91,-434.442 1589,-414 1581.12,-412.148 1572.91,-409.948 1564.83,-407.624"/>
<polygon fill="midnightblue" stroke="midnightblue" points="1846.43,-462.91 1856.81,-460.772 1847.36,-455.972 1846.43,-462.91"/>
</g>
<!-- Node24 -->
<g id="node24" class="node"><title>Node24</title>
<g id="a_node24"><a xlink:href="MeshUtils_8inl.html" target="_top" xlink:title="/home/travis/build\l/STORM&#45;IRIT/Radium&#45;Engine\l/src/Core/Mesh/MeshUtils.inl">
<polygon fill="white" stroke="black" points="1598,-366.5 1598,-407.5 1746,-407.5 1746,-366.5 1598,-366.5"/>
<text text-anchor="start" x="1606" y="-395.5" font-family="Helvetica,sans-Serif" font-size="10.00">/home/travis/build</text>
<text text-anchor="start" x="1606" y="-384.5" font-family="Helvetica,sans-Serif" font-size="10.00">/STORM&#45;IRIT/Radium&#45;Engine</text>
<text text-anchor="middle" x="1672" y="-373.5" font-family="Helvetica,sans-Serif" font-size="10.00">/src/Core/Mesh/MeshUtils.inl</text>
</a>
</g>
</g>
<!-- Node1&#45;&gt;Node24 -->
<g id="edge30" class="edge"><title>Node1&#45;&gt;Node24</title>
<path fill="none" stroke="midnightblue" d="M1854.59,-447.51C1813.94,-434.986 1765.06,-419.544 1728.07,-407.529"/>
<polygon fill="midnightblue" stroke="midnightblue" points="1853.62,-450.872 1864.2,-450.463 1855.67,-444.18 1853.62,-450.872"/>
</g>
<!-- Node25 -->
<g id="node25" class="node"><title>Node25</title>
<g id="a_node25"><a xlink:href="BVH_8inl.html" target="_top" xlink:title="/home/travis/build\l/STORM&#45;IRIT/Radium&#45;Engine\l/src/Core/TreeStructures\l/BVH.inl">
<polygon fill="white" stroke="black" points="1764,-361 1764,-413 1912,-413 1912,-361 1764,-361"/>
<text text-anchor="start" x="1772" y="-401" font-family="Helvetica,sans-Serif" font-size="10.00">/home/travis/build</text>
<text text-anchor="start" x="1772" y="-390" font-family="Helvetica,sans-Serif" font-size="10.00">/STORM&#45;IRIT/Radium&#45;Engine</text>
<text text-anchor="start" x="1772" y="-379" font-family="Helvetica,sans-Serif" font-size="10.00">/src/Core/TreeStructures</text>
<text text-anchor="middle" x="1838" y="-368" font-family="Helvetica,sans-Serif" font-size="10.00">/BVH.inl</text>
</a>
</g>
</g>
<!-- Node1&#45;&gt;Node25 -->
<g id="edge32" class="edge"><title>Node1&#45;&gt;Node25</title>
<path fill="none" stroke="midnightblue" d="M1901.46,-443.362C1890.38,-433.695 1877.9,-422.807 1866.96,-413.261"/>
<polygon fill="midnightblue" stroke="midnightblue" points="1899.41,-446.214 1909.25,-450.15 1904.01,-440.939 1899.41,-446.214"/>
</g>
<!-- Node27 -->
<g id="node27" class="node"><title>Node27</title>
<g id="a_node27"><a xlink:href="Component_8cpp.html" target="_top" xlink:title="/home/travis/build\l/STORM&#45;IRIT/Radium&#45;Engine\l/src/Engine/Component/Component.cpp">
<polygon fill="white" stroke="black" points="1930.5,-366.5 1930.5,-407.5 2121.5,-407.5 2121.5,-366.5 1930.5,-366.5"/>
<text text-anchor="start" x="1938.5" y="-395.5" font-family="Helvetica,sans-Serif" font-size="10.00">/home/travis/build</text>
<text text-anchor="start" x="1938.5" y="-384.5" font-family="Helvetica,sans-Serif" font-size="10.00">/STORM&#45;IRIT/Radium&#45;Engine</text>
<text text-anchor="middle" x="2026" y="-373.5" font-family="Helvetica,sans-Serif" font-size="10.00">/src/Engine/Component/Component.cpp</text>
</a>
</g>
</g>
<!-- Node1&#45;&gt;Node27 -->
<g id="edge35" class="edge"><title>Node1&#45;&gt;Node27</title>
<path fill="none" stroke="midnightblue" d="M1962.35,-443.528C1975.71,-431.871 1991.14,-418.414 2003.45,-407.667"/>
<polygon fill="midnightblue" stroke="midnightblue" points="1959.99,-440.939 1954.75,-450.15 1964.59,-446.214 1959.99,-440.939"/>
</g>
<!-- Node28 -->
<g id="node28" class="node"><title>Node28</title>
<g id="a_node28"><a xlink:href="Mesh_8cpp.html" target="_top" xlink:title="/home/travis/build\l/STORM&#45;IRIT/Radium&#45;Engine\l/src/Engine/Renderer/Mesh\l/Mesh.cpp">
<polygon fill="white" stroke="black" points="2140,-361 2140,-413 2288,-413 2288,-361 2140,-361"/>
<text text-anchor="start" x="2148" y="-401" font-family="Helvetica,sans-Serif" font-size="10.00">/home/travis/build</text>
<text text-anchor="start" x="2148" y="-390" font-family="Helvetica,sans-Serif" font-size="10.00">/STORM&#45;IRIT/Radium&#45;Engine</text>
<text text-anchor="start" x="2148" y="-379" font-family="Helvetica,sans-Serif" font-size="10.00">/src/Engine/Renderer/Mesh</text>
<text text-anchor="middle" x="2214" y="-368" font-family="Helvetica,sans-Serif" font-size="10.00">/Mesh.cpp</text>
</a>
</g>
</g>
<!-- Node1&#45;&gt;Node28 -->
<g id="edge36" class="edge"><title>Node1&#45;&gt;Node28</title>
<path fill="none" stroke="midnightblue" d="M2012.64,-447.677C2048.61,-437.592 2091.49,-425.404 2130,-414 2133.22,-413.046 2136.51,-412.065 2139.83,-411.067"/>
<polygon fill="midnightblue" stroke="midnightblue" points="2011.37,-444.397 2002.68,-450.463 2013.26,-451.138 2011.37,-444.397"/>
</g>
<!-- Node29 -->
<g id="node29" class="node"><title>Node29</title>
<g id="a_node29"><a xlink:href="RenderObject_8cpp.html" target="_top" xlink:title="/home/travis/build\l/STORM&#45;IRIT/Radium&#45;Engine\l/src/Engine/Renderer/RenderObject\l/RenderObject.cpp">
<polygon fill="white" stroke="black" points="2306,-361 2306,-413 2478,-413 2478,-361 2306,-361"/>
<text text-anchor="start" x="2314" y="-401" font-family="Helvetica,sans-Serif" font-size="10.00">/home/travis/build</text>
<text text-anchor="start" x="2314" y="-390" font-family="Helvetica,sans-Serif" font-size="10.00">/STORM&#45;IRIT/Radium&#45;Engine</text>
<text text-anchor="start" x="2314" y="-379" font-family="Helvetica,sans-Serif" font-size="10.00">/src/Engine/Renderer/RenderObject</text>
<text text-anchor="middle" x="2392" y="-368" font-family="Helvetica,sans-Serif" font-size="10.00">/RenderObject.cpp</text>
</a>
</g>
</g>
<!-- Node1&#45;&gt;Node29 -->
<g id="edge38" class="edge"><title>Node1&#45;&gt;Node29</title>
<path fill="none" stroke="midnightblue" d="M2017.49,-459.708C2091.79,-450.093 2202.08,-434.201 2297,-414 2299.93,-413.377 2302.9,-412.718 2305.89,-412.03"/>
<polygon fill="midnightblue" stroke="midnightblue" points="2016.73,-456.277 2007.26,-461.023 2017.62,-463.22 2016.73,-456.277"/>
</g>
<!-- Node30 -->
<g id="node30" class="node"><title>Node30</title>
<g id="a_node30"><a xlink:href="BaseApplication_8cpp.html" target="_top" xlink:title="/home/travis/build\l/STORM&#45;IRIT/Radium&#45;Engine\l/src/GuiBase/BaseApplication.cpp">
<polygon fill="white" stroke="black" points="2496,-366.5 2496,-407.5 2662,-407.5 2662,-366.5 2496,-366.5"/>
<text text-anchor="start" x="2504" y="-395.5" font-family="Helvetica,sans-Serif" font-size="10.00">/home/travis/build</text>
<text text-anchor="start" x="2504" y="-384.5" font-family="Helvetica,sans-Serif" font-size="10.00">/STORM&#45;IRIT/Radium&#45;Engine</text>
<text text-anchor="middle" x="2579" y="-373.5" font-family="Helvetica,sans-Serif" font-size="10.00">/src/GuiBase/BaseApplication.cpp</text>
</a>
</g>
</g>
<!-- Node1&#45;&gt;Node30 -->
<g id="edge39" class="edge"><title>Node1&#45;&gt;Node30</title>
<path fill="none" stroke="midnightblue" d="M2017.11,-466.042C2126.6,-459.894 2322.32,-445.328 2487,-414 2496.29,-412.232 2506.01,-409.962 2515.5,-407.502"/>
<polygon fill="midnightblue" stroke="midnightblue" points="2016.9,-462.548 2007.11,-466.593 2017.28,-469.537 2016.9,-462.548"/>
</g>
<!-- Node31 -->
<g id="node31" class="node"><title>Node31</title>
<g id="a_node31"><a xlink:href="SkeletonBoneDrawable_8hpp.html" target="_top" xlink:title="/home/travis/build\l/STORM&#45;IRIT/Radium&#45;Engine\l/Plugins/Animation/src/Drawing\l/SkeletonBoneDrawable.hpp">
<polygon fill="white" stroke="black" points="2680,-361 2680,-413 2834,-413 2834,-361 2680,-361"/>
<text text-anchor="start" x="2688" y="-401" font-family="Helvetica,sans-Serif" font-size="10.00">/home/travis/build</text>
<text text-anchor="start" x="2688" y="-390" font-family="Helvetica,sans-Serif" font-size="10.00">/STORM&#45;IRIT/Radium&#45;Engine</text>
<text text-anchor="start" x="2688" y="-379" font-family="Helvetica,sans-Serif" font-size="10.00">/Plugins/Animation/src/Drawing</text>
<text text-anchor="middle" x="2757" y="-368" font-family="Helvetica,sans-Serif" font-size="10.00">/SkeletonBoneDrawable.hpp</text>
</a>
</g>
</g>
<!-- Node1&#45;&gt;Node31 -->
<g id="edge40" class="edge"><title>Node1&#45;&gt;Node31</title>
<path fill="none" stroke="midnightblue" d="M2017.29,-469.545C2155.67,-467.468 2437.17,-457.665 2671,-414 2673.91,-413.456 2676.87,-412.85 2679.84,-412.193"/>
<polygon fill="midnightblue" stroke="midnightblue" points="2017.12,-466.047 2007.17,-469.687 2017.22,-473.047 2017.12,-466.047"/>
</g>
<!-- Node35 -->
<g id="node35" class="node"><title>Node35</title>
<g id="a_node35"><a xlink:href="DummyComponent_8cpp.html" target="_top" xlink:title="/home/travis/build\l/STORM&#45;IRIT/Radium&#45;Engine\l/Plugins/Dummy/src/DummyComponent.cpp">
<polygon fill="white" stroke="black" points="2852,-366.5 2852,-407.5 3064,-407.5 3064,-366.5 2852,-366.5"/>
<text text-anchor="start" x="2860" y="-395.5" font-family="Helvetica,sans-Serif" font-size="10.00">/home/travis/build</text>
<text text-anchor="start" x="2860" y="-384.5" font-family="Helvetica,sans-Serif" font-size="10.00">/STORM&#45;IRIT/Radium&#45;Engine</text>
<text text-anchor="middle" x="2958" y="-373.5" font-family="Helvetica,sans-Serif" font-size="10.00">/Plugins/Dummy/src/DummyComponent.cpp</text>
</a>
</g>
</g>
<!-- Node1&#45;&gt;Node35 -->
<g id="edge44" class="edge"><title>Node1&#45;&gt;Node35</title>
<path fill="none" stroke="midnightblue" d="M2017.48,-469.322C2179.38,-467.025 2541.57,-457.053 2843,-414 2854.85,-412.307 2867.3,-410.03 2879.44,-407.524"/>
<polygon fill="midnightblue" stroke="midnightblue" points="2017.06,-465.827 2007.11,-469.462 2017.15,-472.826 2017.06,-465.827"/>
</g>
<!-- Node36 -->
<g id="node36" class="node"><title>Node36</title>
<g id="a_node36"><a xlink:href="FancyMeshComponent_8cpp.html" target="_top" xlink:title="/home/travis/build\l/STORM&#45;IRIT/Radium&#45;Engine\l/Plugins/FancyMesh/src/FancyMesh\lComponent.cpp">
<polygon fill="white" stroke="black" points="3082,-361 3082,-413 3258,-413 3258,-361 3082,-361"/>
<text text-anchor="start" x="3090" y="-401" font-family="Helvetica,sans-Serif" font-size="10.00">/home/travis/build</text>
<text text-anchor="start" x="3090" y="-390" font-family="Helvetica,sans-Serif" font-size="10.00">/STORM&#45;IRIT/Radium&#45;Engine</text>
<text text-anchor="start" x="3090" y="-379" font-family="Helvetica,sans-Serif" font-size="10.00">/Plugins/FancyMesh/src/FancyMesh</text>
<text text-anchor="middle" x="3170" y="-368" font-family="Helvetica,sans-Serif" font-size="10.00">Component.cpp</text>
</a>
</g>
</g>
<!-- Node1&#45;&gt;Node36 -->
<g id="edge45" class="edge"><title>Node1&#45;&gt;Node36</title>
<path fill="none" stroke="midnightblue" d="M2017.58,-468.127C2246.44,-462.746 2868.92,-445.568 3072,-414 3075.22,-413.5 3078.48,-412.936 3081.77,-412.321"/>
<polygon fill="midnightblue" stroke="midnightblue" points="2017.23,-464.634 2007.31,-468.367 2017.39,-471.632 2017.23,-464.634"/>
</g>
<!-- Node37 -->
<g id="node37" class="node"><title>Node37</title>
<g id="a_node37"><a xlink:href="MeshPaintComponent_8cpp.html" target="_top" xlink:title="/home/travis/build\l/STORM&#45;IRIT/Radium&#45;Engine\l/Plugins/MeshPaint/src/MeshPaint\lComponent.cpp">
<polygon fill="white" stroke="black" points="3275.5,-361 3275.5,-413 3442.5,-413 3442.5,-361 3275.5,-361"/>
<text text-anchor="start" x="3283.5" y="-401" font-family="Helvetica,sans-Serif" font-size="10.00">/home/travis/build</text>
<text text-anchor="start" x="3283.5" y="-390" font-family="Helvetica,sans-Serif" font-size="10.00">/STORM&#45;IRIT/Radium&#45;Engine</text>
<text text-anchor="start" x="3283.5" y="-379" font-family="Helvetica,sans-Serif" font-size="10.00">/Plugins/MeshPaint/src/MeshPaint</text>
<text text-anchor="middle" x="3359" y="-368" font-family="Helvetica,sans-Serif" font-size="10.00">Component.cpp</text>
</a>
</g>
</g>
<!-- Node1&#45;&gt;Node37 -->
<g id="edge46" class="edge"><title>Node1&#45;&gt;Node37</title>
<path fill="none" stroke="midnightblue" d="M2017.61,-468.984C2272.57,-465.55 3024.1,-452.363 3266,-414 3269.06,-413.514 3272.17,-412.963 3275.3,-412.358"/>
<polygon fill="midnightblue" stroke="midnightblue" points="2017.25,-465.488 2007.3,-469.121 2017.35,-472.488 2017.25,-465.488"/>
</g>
<!-- Node4 -->
<g id="node4" class="node"><title>Node4</title>
<g id="a_node4"><a xlink:href="DistanceQueries_8hpp.html" target="_top" xlink:title="/home/travis/build\l/STORM&#45;IRIT/Radium&#45;Engine\l/src/Core/Geometry/Distance\l/DistanceQueries.hpp">
<polygon fill="white" stroke="black" points="421,-271 421,-323 569,-323 569,-271 421,-271"/>
<text text-anchor="start" x="429" y="-311" font-family="Helvetica,sans-Serif" font-size="10.00">/home/travis/build</text>
<text text-anchor="start" x="429" y="-300" font-family="Helvetica,sans-Serif" font-size="10.00">/STORM&#45;IRIT/Radium&#45;Engine</text>
<text text-anchor="start" x="429" y="-289" font-family="Helvetica,sans-Serif" font-size="10.00">/src/Core/Geometry/Distance</text>
<text text-anchor="middle" x="495" y="-278" font-family="Helvetica,sans-Serif" font-size="10.00">/DistanceQueries.hpp</text>
</a>
</g>
</g>
<!-- Node3&#45;&gt;Node4 -->
<g id="edge3" class="edge"><title>Node3&#45;&gt;Node4</title>
<path fill="none" stroke="midnightblue" d="M719.272,-362.458C716.48,-361.621 713.716,-360.799 711,-360 663.87,-346.129 610.911,-331.49 569.173,-319.921"/>
<polygon fill="midnightblue" stroke="midnightblue" points="718.271,-365.811 728.855,-365.348 720.292,-359.109 718.271,-365.811"/>
</g>
<!-- Node4&#45;&gt;Node3 -->
<g id="edge4" class="edge"><title>Node4&#45;&gt;Node3</title>
<path fill="none" stroke="midnightblue" d="M578.691,-318.184C623.522,-330.002 679.479,-345.426 729,-360 730.014,-360.298 731.035,-360.6 732.061,-360.904"/>
<polygon fill="midnightblue" stroke="midnightblue" points="579.57,-314.796 569.009,-315.643 577.792,-321.567 579.57,-314.796"/>
</g>
<!-- Node5 -->
<g id="node5" class="node"><title>Node5</title>
<g id="a_node5"><a xlink:href="PolyLine_8hpp.html" target="_top" xlink:title="/home/travis/build\l/STORM&#45;IRIT/Radium&#45;Engine\l/src/Core/Math/PolyLine.hpp">
<polygon fill="white" stroke="black" points="166,-186.5 166,-227.5 314,-227.5 314,-186.5 166,-186.5"/>
<text text-anchor="start" x="174" y="-215.5" font-family="Helvetica,sans-Serif" font-size="10.00">/home/travis/build</text>
<text text-anchor="start" x="174" y="-204.5" font-family="Helvetica,sans-Serif" font-size="10.00">/STORM&#45;IRIT/Radium&#45;Engine</text>
<text text-anchor="middle" x="240" y="-193.5" font-family="Helvetica,sans-Serif" font-size="10.00">/src/Core/Math/PolyLine.hpp</text>
</a>
</g>
</g>
<!-- Node4&#45;&gt;Node5 -->
<g id="edge5" class="edge"><title>Node4&#45;&gt;Node5</title>
<path fill="none" stroke="midnightblue" d="M412.766,-267.621C374.833,-254.531 330.756,-239.32 296.617,-227.538"/>
<polygon fill="midnightblue" stroke="midnightblue" points="411.674,-270.947 422.268,-270.901 413.957,-264.33 411.674,-270.947"/>
</g>
<!-- Node8 -->
<g id="node8" class="node"><title>Node8</title>
<g id="a_node8"><a xlink:href="GeometryTests_8hpp.html" target="_top" xlink:title="/home/travis/build\l/STORM&#45;IRIT/Radium&#45;Engine\l/src/Tests/CoreTests/src\l/GeometryTests.hpp">
<polygon fill="white" stroke="black" points="332,-91 332,-143 480,-143 480,-91 332,-91"/>
<text text-anchor="start" x="340" y="-131" font-family="Helvetica,sans-Serif" font-size="10.00">/home/travis/build</text>
<text text-anchor="start" x="340" y="-120" font-family="Helvetica,sans-Serif" font-size="10.00">/STORM&#45;IRIT/Radium&#45;Engine</text>
<text text-anchor="start" x="340" y="-109" font-family="Helvetica,sans-Serif" font-size="10.00">/src/Tests/CoreTests/src</text>
<text text-anchor="middle" x="406" y="-98" font-family="Helvetica,sans-Serif" font-size="10.00">/GeometryTests.hpp</text>
</a>
</g>
</g>
<!-- Node4&#45;&gt;Node8 -->
<g id="edge14" class="edge"><title>Node4&#45;&gt;Node8</title>
<path fill="none" stroke="midnightblue" d="M411.238,-274.551C391.464,-265.371 372.739,-252.366 361,-234 342.619,-205.243 364.069,-167.796 383.184,-143.34"/>
<polygon fill="midnightblue" stroke="midnightblue" points="410.121,-277.881 420.689,-278.631 412.895,-271.454 410.121,-277.881"/>
</g>
<!-- Node10 -->
<g id="node10" class="node"><title>Node10</title>
<g id="a_node10"><a xlink:href="trianglekdtree_8hpp.html" target="_top" xlink:title="/home/travis/build\l/STORM&#45;IRIT/Radium&#45;Engine\l/src/Core/TreeStructures\l/trianglekdtree.hpp">
<polygon fill="white" stroke="black" points="370,-181 370,-233 518,-233 518,-181 370,-181"/>
<text text-anchor="start" x="378" y="-221" font-family="Helvetica,sans-Serif" font-size="10.00">/home/travis/build</text>
<text text-anchor="start" x="378" y="-210" font-family="Helvetica,sans-Serif" font-size="10.00">/STORM&#45;IRIT/Radium&#45;Engine</text>
<text text-anchor="start" x="378" y="-199" font-family="Helvetica,sans-Serif" font-size="10.00">/src/Core/TreeStructures</text>
<text text-anchor="middle" x="444" y="-188" font-family="Helvetica,sans-Serif" font-size="10.00">/trianglekdtree.hpp</text>
</a>
</g>
</g>
<!-- Node4&#45;&gt;Node10 -->
<g id="edge11" class="edge"><title>Node4&#45;&gt;Node10</title>
<path fill="none" stroke="midnightblue" d="M475.105,-261.671C469.584,-252.145 463.694,-241.983 458.542,-233.092"/>
<polygon fill="midnightblue" stroke="midnightblue" points="472.206,-263.65 480.249,-270.547 478.263,-260.14 472.206,-263.65"/>
</g>
<!-- Node11 -->
<g id="node11" class="node"><title>Node11</title>
<g id="a_node11"><a xlink:href="DistanceTests_8hpp.html" target="_top" xlink:title="/home/travis/build\l/STORM&#45;IRIT/Radium&#45;Engine\l/src/Tests/CoreTests/src\l/DistanceTests.hpp">
<polygon fill="white" stroke="black" points="801,-91 801,-143 949,-143 949,-91 801,-91"/>
<text text-anchor="start" x="809" y="-131" font-family="Helvetica,sans-Serif" font-size="10.00">/home/travis/build</text>
<text text-anchor="start" x="809" y="-120" font-family="Helvetica,sans-Serif" font-size="10.00">/STORM&#45;IRIT/Radium&#45;Engine</text>
<text text-anchor="start" x="809" y="-109" font-family="Helvetica,sans-Serif" font-size="10.00">/src/Tests/CoreTests/src</text>
<text text-anchor="middle" x="875" y="-98" font-family="Helvetica,sans-Serif" font-size="10.00">/DistanceTests.hpp</text>
</a>
</g>
</g>
<!-- Node4&#45;&gt;Node11 -->
<g id="edge12" class="edge"><title>Node4&#45;&gt;Node11</title>
<path fill="none" stroke="midnightblue" d="M513.838,-261.692C531.823,-229.473 557.293,-185.416 565,-180 602.27,-153.805 721.552,-135.513 800.815,-125.888"/>
<polygon fill="midnightblue" stroke="midnightblue" points="510.553,-260.398 508.755,-270.839 516.672,-263.798 510.553,-260.398"/>
</g>
<!-- Node6 -->
<g id="node6" class="node"><title>Node6</title>
<g id="a_node6"><a xlink:href="PolyLine_8cpp.html" target="_top" xlink:title="/home/travis/build\l/STORM&#45;IRIT/Radium&#45;Engine\l/src/Core/Math/PolyLine.cpp">
<polygon fill="white" stroke="black" points="0,-96.5 0,-137.5 148,-137.5 148,-96.5 0,-96.5"/>
<text text-anchor="start" x="8" y="-125.5" font-family="Helvetica,sans-Serif" font-size="10.00">/home/travis/build</text>
<text text-anchor="start" x="8" y="-114.5" font-family="Helvetica,sans-Serif" font-size="10.00">/STORM&#45;IRIT/Radium&#45;Engine</text>
<text text-anchor="middle" x="74" y="-103.5" font-family="Helvetica,sans-Serif" font-size="10.00">/src/Core/Math/PolyLine.cpp</text>
</a>
</g>
</g>
<!-- Node5&#45;&gt;Node6 -->
<g id="edge6" class="edge"><title>Node5&#45;&gt;Node6</title>
<path fill="none" stroke="midnightblue" d="M194.18,-181.71C167.994,-167.828 135.586,-150.648 111.024,-137.627"/>
<polygon fill="midnightblue" stroke="midnightblue" points="192.685,-184.878 203.159,-186.47 195.963,-178.694 192.685,-184.878"/>
</g>
<!-- Node7 -->
<g id="node7" class="node"><title>Node7</title>
<g id="a_node7"><a xlink:href="PolyLine_8inl.html" target="_top" xlink:title="/home/travis/build\l/STORM&#45;IRIT/Radium&#45;Engine\l/src/Core/Math/PolyLine.inl">
<polygon fill="white" stroke="black" points="166,-96.5 166,-137.5 314,-137.5 314,-96.5 166,-96.5"/>
<text text-anchor="start" x="174" y="-125.5" font-family="Helvetica,sans-Serif" font-size="10.00">/home/travis/build</text>
<text text-anchor="start" x="174" y="-114.5" font-family="Helvetica,sans-Serif" font-size="10.00">/STORM&#45;IRIT/Radium&#45;Engine</text>
<text text-anchor="middle" x="240" y="-103.5" font-family="Helvetica,sans-Serif" font-size="10.00">/src/Core/Math/PolyLine.inl</text>
</a>
</g>
</g>
<!-- Node5&#45;&gt;Node7 -->
<g id="edge7" class="edge"><title>Node5&#45;&gt;Node7</title>
<path fill="none" stroke="midnightblue" d="M233.579,-176.33C232.976,-163.629 233.202,-149.14 234.257,-137.78"/>
<polygon fill="midnightblue" stroke="midnightblue" points="230.098,-176.735 234.28,-186.47 237.082,-176.252 230.098,-176.735"/>
</g>
<!-- Node5&#45;&gt;Node8 -->
<g id="edge9" class="edge"><title>Node5&#45;&gt;Node8</title>
<path fill="none" stroke="midnightblue" d="M285.933,-181.65C308.628,-169.619 335.977,-155.121 358.837,-143.002"/>
<polygon fill="midnightblue" stroke="midnightblue" points="284.037,-178.694 276.841,-186.47 287.315,-184.878 284.037,-178.694"/>
</g>
<!-- Node7&#45;&gt;Node5 -->
<g id="edge8" class="edge"><title>Node7&#45;&gt;Node5</title>
<path fill="none" stroke="midnightblue" d="M246.434,-147.95C247.025,-160.677 246.787,-175.156 245.72,-186.47"/>
<polygon fill="midnightblue" stroke="midnightblue" points="249.913,-147.519 245.743,-137.78 242.929,-147.994 249.913,-147.519"/>
</g>
<!-- Node9 -->
<g id="node9" class="node"><title>Node9</title>
<g id="a_node9"><a xlink:href="main_8cpp.html" target="_top" xlink:title="/home/travis/build\l/STORM&#45;IRIT/Radium&#45;Engine\l/src/Tests/CoreTests/src\l/main.cpp">
<polygon fill="white" stroke="black" points="959,-1 959,-53 1107,-53 1107,-1 959,-1"/>
<text text-anchor="start" x="967" y="-41" font-family="Helvetica,sans-Serif" font-size="10.00">/home/travis/build</text>
<text text-anchor="start" x="967" y="-30" font-family="Helvetica,sans-Serif" font-size="10.00">/STORM&#45;IRIT/Radium&#45;Engine</text>
<text text-anchor="start" x="967" y="-19" font-family="Helvetica,sans-Serif" font-size="10.00">/src/Tests/CoreTests/src</text>
<text text-anchor="middle" x="1033" y="-8" font-family="Helvetica,sans-Serif" font-size="10.00">/main.cpp</text>
</a>
</g>
</g>
<!-- Node8&#45;&gt;Node9 -->
<g id="edge10" class="edge"><title>Node8&#45;&gt;Node9</title>
<path fill="none" stroke="midnightblue" d="M490.223,-104.179C613.513,-86.8754 841.187,-54.9211 958.625,-38.4386"/>
<polygon fill="midnightblue" stroke="midnightblue" points="489.494,-100.747 480.078,-105.603 490.467,-107.679 489.494,-100.747"/>
</g>
<!-- Node11&#45;&gt;Node9 -->
<g id="edge13" class="edge"><title>Node11&#45;&gt;Node9</title>
<path fill="none" stroke="midnightblue" d="M929.195,-85.8154C948.353,-75.1451 969.677,-63.2684 987.99,-53.0687"/>
<polygon fill="midnightblue" stroke="midnightblue" points="927.31,-82.8591 920.276,-90.7827 930.716,-88.9746 927.31,-82.8591"/>
</g>
<!-- Node13 -->
<g id="node13" class="node"><title>Node13</title>
<g id="a_node13"><a xlink:href="MeshPrimitives_8hpp.html" target="_top" xlink:title="/home/travis/build\l/STORM&#45;IRIT/Radium&#45;Engine\l/src/Core/Mesh/MeshPrimitives.hpp">
<polygon fill="white" stroke="black" points="1200.5,-276.5 1200.5,-317.5 1373.5,-317.5 1373.5,-276.5 1200.5,-276.5"/>
<text text-anchor="start" x="1208.5" y="-305.5" font-family="Helvetica,sans-Serif" font-size="10.00">/home/travis/build</text>
<text text-anchor="start" x="1208.5" y="-294.5" font-family="Helvetica,sans-Serif" font-size="10.00">/STORM&#45;IRIT/Radium&#45;Engine</text>
<text text-anchor="middle" x="1287" y="-283.5" font-family="Helvetica,sans-Serif" font-size="10.00">/src/Core/Mesh/MeshPrimitives.hpp</text>
</a>
</g>
</g>
<!-- Node12&#45;&gt;Node13 -->
<g id="edge16" class="edge"><title>Node12&#45;&gt;Node13</title>
<path fill="none" stroke="midnightblue" d="M1280.58,-356.33C1279.98,-343.629 1280.2,-329.14 1281.26,-317.78"/>
<polygon fill="midnightblue" stroke="midnightblue" points="1277.1,-356.735 1281.28,-366.47 1284.08,-356.252 1277.1,-356.735"/>
</g>
<!-- Node13&#45;&gt;Node12 -->
<g id="edge18" class="edge"><title>Node13&#45;&gt;Node12</title>
<path fill="none" stroke="midnightblue" d="M1293.43,-327.95C1294.02,-340.677 1293.79,-355.156 1292.72,-366.47"/>
<polygon fill="midnightblue" stroke="midnightblue" points="1296.91,-327.519 1292.74,-317.78 1289.93,-327.994 1296.91,-327.519"/>
</g>
<!-- Node14 -->
<g id="node14" class="node"><title>Node14</title>
<g id="a_node14"><a xlink:href="MeshPrimitives_8cpp.html" target="_top" xlink:title="/home/travis/build\l/STORM&#45;IRIT/Radium&#45;Engine\l/src/Core/Mesh/MeshPrimitives.cpp">
<polygon fill="white" stroke="black" points="574.5,-186.5 574.5,-227.5 747.5,-227.5 747.5,-186.5 574.5,-186.5"/>
<text text-anchor="start" x="582.5" y="-215.5" font-family="Helvetica,sans-Serif" font-size="10.00">/home/travis/build</text>
<text text-anchor="start" x="582.5" y="-204.5" font-family="Helvetica,sans-Serif" font-size="10.00">/STORM&#45;IRIT/Radium&#45;Engine</text>
<text text-anchor="middle" x="661" y="-193.5" font-family="Helvetica,sans-Serif" font-size="10.00">/src/Core/Mesh/MeshPrimitives.cpp</text>
</a>
</g>
</g>
<!-- Node13&#45;&gt;Node14 -->
<g id="edge17" class="edge"><title>Node13&#45;&gt;Node14</title>
<path fill="none" stroke="midnightblue" d="M1189.99,-288.988C1083.21,-280.264 906.81,-262.884 757,-234 747.59,-232.186 737.748,-229.936 728.104,-227.525"/>
<polygon fill="midnightblue" stroke="midnightblue" points="1189.86,-292.488 1200.1,-289.805 1190.42,-285.511 1189.86,-292.488"/>
</g>
<!-- Node15 -->
<g id="node15" class="node"><title>Node15</title>
<g id="a_node15"><a xlink:href="Renderer_8cpp.html" target="_top" xlink:title="/home/travis/build\l/STORM&#45;IRIT/Radium&#45;Engine\l/src/Engine/Renderer/Renderer.cpp">
<polygon fill="white" stroke="black" points="766,-186.5 766,-227.5 936,-227.5 936,-186.5 766,-186.5"/>
<text text-anchor="start" x="774" y="-215.5" font-family="Helvetica,sans-Serif" font-size="10.00">/home/travis/build</text>
<text text-anchor="start" x="774" y="-204.5" font-family="Helvetica,sans-Serif" font-size="10.00">/STORM&#45;IRIT/Radium&#45;Engine</text>
<text text-anchor="middle" x="851" y="-193.5" font-family="Helvetica,sans-Serif" font-size="10.00">/src/Engine/Renderer/Renderer.cpp</text>
</a>
</g>
</g>
<!-- Node13&#45;&gt;Node15 -->
<g id="edge19" class="edge"><title>Node13&#45;&gt;Node15</title>
<path fill="none" stroke="midnightblue" d="M1190.52,-280.904C1121.75,-269.562 1027.28,-252.797 945,-234 936.499,-232.058 927.614,-229.845 918.844,-227.549"/>
<polygon fill="midnightblue" stroke="midnightblue" points="1190.04,-284.372 1200.47,-282.538 1191.17,-277.465 1190.04,-284.372"/>
</g>
<!-- Node16 -->
<g id="node16" class="node"><title>Node16</title>
<g id="a_node16"><a xlink:href="DebugRender_8cpp.html" target="_top" xlink:title="/home/travis/build\l/STORM&#45;IRIT/Radium&#45;Engine\l/src/Engine/Renderer/Renderers\l/DebugRender.cpp">
<polygon fill="white" stroke="black" points="954.5,-181 954.5,-233 1111.5,-233 1111.5,-181 954.5,-181"/>
<text text-anchor="start" x="962.5" y="-221" font-family="Helvetica,sans-Serif" font-size="10.00">/home/travis/build</text>
<text text-anchor="start" x="962.5" y="-210" font-family="Helvetica,sans-Serif" font-size="10.00">/STORM&#45;IRIT/Radium&#45;Engine</text>
<text text-anchor="start" x="962.5" y="-199" font-family="Helvetica,sans-Serif" font-size="10.00">/src/Engine/Renderer/Renderers</text>
<text text-anchor="middle" x="1033" y="-188" font-family="Helvetica,sans-Serif" font-size="10.00">/DebugRender.cpp</text>
</a>
</g>
</g>
<!-- Node13&#45;&gt;Node16 -->
<g id="edge20" class="edge"><title>Node13&#45;&gt;Node16</title>
<path fill="none" stroke="midnightblue" d="M1220.85,-273.082C1185.35,-260.783 1141.54,-245.605 1105.17,-233.002"/>
<polygon fill="midnightblue" stroke="midnightblue" points="1220.03,-276.503 1230.63,-276.47 1222.33,-269.889 1220.03,-276.503"/>
</g>
<!-- Node13&#45;&gt;Node17 -->
<g id="edge21" class="edge"><title>Node13&#45;&gt;Node17</title>
<path fill="none" stroke="midnightblue" d="M1367.45,-274.123C1374.38,-272.596 1381.29,-271.192 1388,-270 1545.88,-241.931 1589.34,-263.267 1747,-234 1749.94,-233.454 1752.93,-232.861 1755.93,-232.23"/>
<polygon fill="midnightblue" stroke="midnightblue" points="1366.3,-270.796 1357.34,-276.438 1367.86,-277.619 1366.3,-270.796"/>
</g>
<!-- Node18 -->
<g id="node18" class="node"><title>Node18</title>
<g id="a_node18"><a xlink:href="RotateGizmo_8cpp.html" target="_top" xlink:title="/home/travis/build\l/STORM&#45;IRIT/Radium&#45;Engine\l/src/GuiBase/Viewer/Gizmo\l/RotateGizmo.cpp">
<polygon fill="white" stroke="black" points="1130,-181 1130,-233 1278,-233 1278,-181 1130,-181"/>
<text text-anchor="start" x="1138" y="-221" font-family="Helvetica,sans-Serif" font-size="10.00">/home/travis/build</text>
<text text-anchor="start" x="1138" y="-210" font-family="Helvetica,sans-Serif" font-size="10.00">/STORM&#45;IRIT/Radium&#45;Engine</text>
<text text-anchor="start" x="1138" y="-199" font-family="Helvetica,sans-Serif" font-size="10.00">/src/GuiBase/Viewer/Gizmo</text>
<text text-anchor="middle" x="1204" y="-188" font-family="Helvetica,sans-Serif" font-size="10.00">/RotateGizmo.cpp</text>
</a>
</g>
</g>
<!-- Node13&#45;&gt;Node18 -->
<g id="edge22" class="edge"><title>Node13&#45;&gt;Node18</title>
<path fill="none" stroke="midnightblue" d="M1261.45,-268.914C1250.71,-257.521 1238.28,-244.344 1227.74,-233.166"/>
<polygon fill="midnightblue" stroke="midnightblue" points="1259.17,-271.597 1268.58,-276.47 1264.26,-266.794 1259.17,-271.597"/>
</g>
<!-- Node19 -->
<g id="node19" class="node"><title>Node19</title>
<g id="a_node19"><a xlink:href="TranslateGizmo_8cpp.html" target="_top" xlink:title="/home/travis/build\l/STORM&#45;IRIT/Radium&#45;Engine\l/src/GuiBase/Viewer/Gizmo\l/TranslateGizmo.cpp">
<polygon fill="white" stroke="black" points="1296,-181 1296,-233 1444,-233 1444,-181 1296,-181"/>
<text text-anchor="start" x="1304" y="-221" font-family="Helvetica,sans-Serif" font-size="10.00">/home/travis/build</text>
<text text-anchor="start" x="1304" y="-210" font-family="Helvetica,sans-Serif" font-size="10.00">/STORM&#45;IRIT/Radium&#45;Engine</text>
<text text-anchor="start" x="1304" y="-199" font-family="Helvetica,sans-Serif" font-size="10.00">/src/GuiBase/Viewer/Gizmo</text>
<text text-anchor="middle" x="1370" y="-188" font-family="Helvetica,sans-Serif" font-size="10.00">/TranslateGizmo.cpp</text>
</a>
</g>
</g>
<!-- Node13&#45;&gt;Node19 -->
<g id="edge23" class="edge"><title>Node13&#45;&gt;Node19</title>
<path fill="none" stroke="midnightblue" d="M1312.55,-268.914C1323.29,-257.521 1335.72,-244.344 1346.26,-233.166"/>
<polygon fill="midnightblue" stroke="midnightblue" points="1309.74,-266.794 1305.42,-276.47 1314.83,-271.597 1309.74,-266.794"/>
</g>
<!-- Node20 -->
<g id="node20" class="node"><title>Node20</title>
<g id="a_node20"><a xlink:href="Tests_2CoreTests_2src_2Mesh_8hpp.html" target="_top" xlink:title="/home/travis/build\l/STORM&#45;IRIT/Radium&#45;Engine\l/src/Tests/CoreTests/src\l/Mesh.hpp">
<polygon fill="white" stroke="black" points="1118,-91 1118,-143 1266,-143 1266,-91 1118,-91"/>
<text text-anchor="start" x="1126" y="-131" font-family="Helvetica,sans-Serif" font-size="10.00">/home/travis/build</text>
<text text-anchor="start" x="1126" y="-120" font-family="Helvetica,sans-Serif" font-size="10.00">/STORM&#45;IRIT/Radium&#45;Engine</text>
<text text-anchor="start" x="1126" y="-109" font-family="Helvetica,sans-Serif" font-size="10.00">/src/Tests/CoreTests/src</text>
<text text-anchor="middle" x="1192" y="-98" font-family="Helvetica,sans-Serif" font-size="10.00">/Mesh.hpp</text>
</a>
</g>
</g>
<!-- Node13&#45;&gt;Node20 -->
<g id="edge24" class="edge"><title>Node13&#45;&gt;Node20</title>
<path fill="none" stroke="midnightblue" d="M1373.68,-273.438C1408.56,-262.451 1442.94,-248.497 1453,-234 1466.68,-214.283 1467.88,-198.83 1453,-180 1441.27,-165.155 1339.27,-144.175 1266.32,-130.83"/>
<polygon fill="midnightblue" stroke="midnightblue" points="1372.38,-270.175 1363.85,-276.456 1374.44,-276.867 1372.38,-270.175"/>
</g>
<!-- Node21 -->
<g id="node21" class="node"><title>Node21</title>
<g id="a_node21"><a xlink:href="Tests_2CoreTests_2src_2TopologicalMesh_8hpp.html" target="_top" xlink:title="/home/travis/build\l/STORM&#45;IRIT/Radium&#45;Engine\l/src/Tests/CoreTests/src\l/TopologicalMesh.hpp">
<polygon fill="white" stroke="black" points="1360,-91 1360,-143 1508,-143 1508,-91 1360,-91"/>
<text text-anchor="start" x="1368" y="-131" font-family="Helvetica,sans-Serif" font-size="10.00">/home/travis/build</text>
<text text-anchor="start" x="1368" y="-120" font-family="Helvetica,sans-Serif" font-size="10.00">/STORM&#45;IRIT/Radium&#45;Engine</text>
<text text-anchor="start" x="1368" y="-109" font-family="Helvetica,sans-Serif" font-size="10.00">/src/Tests/CoreTests/src</text>
<text text-anchor="middle" x="1434" y="-98" font-family="Helvetica,sans-Serif" font-size="10.00">/TopologicalMesh.hpp</text>
</a>
</g>
</g>
<!-- Node13&#45;&gt;Node21 -->
<g id="edge26" class="edge"><title>Node13&#45;&gt;Node21</title>
<path fill="none" stroke="midnightblue" d="M1368.17,-273.701C1415.14,-259.982 1466.3,-243.3 1473,-234 1492.88,-206.422 1472.67,-168.004 1454.73,-143.069"/>
<polygon fill="midnightblue" stroke="midnightblue" points="1367.17,-270.346 1358.54,-276.49 1369.12,-277.07 1367.17,-270.346"/>
</g>
<!-- Node22 -->
<g id="node22" class="node"><title>Node22</title>
<g id="a_node22"><a xlink:href="MeshFeatureTrackingComponent_8cpp.html" target="_top" xlink:title="/home/travis/build\l/STORM&#45;IRIT/Radium&#45;Engine\l/Plugins/MeshFeatureTracking\l/src/MeshFeatureTrackingComponent.cpp">
<polygon fill="white" stroke="black" points="1538,-181 1538,-233 1738,-233 1738,-181 1538,-181"/>
<text text-anchor="start" x="1546" y="-221" font-family="Helvetica,sans-Serif" font-size="10.00">/home/travis/build</text>
<text text-anchor="start" x="1546" y="-210" font-family="Helvetica,sans-Serif" font-size="10.00">/STORM&#45;IRIT/Radium&#45;Engine</text>
<text text-anchor="start" x="1546" y="-199" font-family="Helvetica,sans-Serif" font-size="10.00">/Plugins/MeshFeatureTracking</text>
<text text-anchor="middle" x="1638" y="-188" font-family="Helvetica,sans-Serif" font-size="10.00">/src/MeshFeatureTrackingComponent.cpp</text>
</a>
</g>
</g>
<!-- Node13&#45;&gt;Node22 -->
<g id="edge28" class="edge"><title>Node13&#45;&gt;Node22</title>
<path fill="none" stroke="midnightblue" d="M1372.59,-273.91C1377.81,-272.582 1382.97,-271.271 1388,-270 1437.32,-257.537 1492.16,-243.909 1537.89,-232.612"/>
<polygon fill="midnightblue" stroke="midnightblue" points="1371.36,-270.612 1362.54,-276.476 1373.09,-277.394 1371.36,-270.612"/>
</g>
<!-- Node20&#45;&gt;Node9 -->
<g id="edge25" class="edge"><title>Node20&#45;&gt;Node9</title>
<path fill="none" stroke="midnightblue" d="M1137.46,-85.8154C1118.18,-75.1451 1096.72,-63.2684 1078.29,-53.0687"/>
<polygon fill="midnightblue" stroke="midnightblue" points="1135.99,-89.0026 1146.44,-90.7827 1139.38,-82.878 1135.99,-89.0026"/>
</g>
<!-- Node21&#45;&gt;Node9 -->
<g id="edge27" class="edge"><title>Node21&#45;&gt;Node9</title>
<path fill="none" stroke="midnightblue" d="M1350.07,-97.5812C1278.33,-81.8372 1176.08,-59.398 1107.26,-44.2973"/>
<polygon fill="midnightblue" stroke="midnightblue" points="1349.47,-101.032 1359.98,-99.7569 1350.97,-94.1947 1349.47,-101.032"/>
</g>
<!-- Node24&#45;&gt;Node1 -->
<g id="edge31" class="edge"><title>Node24&#45;&gt;Node1</title>
<path fill="none" stroke="midnightblue" d="M1749.38,-410.482C1790.04,-423.005 1838.91,-438.447 1875.9,-450.463"/>
<polygon fill="midnightblue" stroke="midnightblue" points="1750.36,-407.121 1739.77,-407.529 1748.3,-413.812 1750.36,-407.121"/>
</g>
<!-- Node26 -->
<g id="node26" class="node"><title>Node26</title>
<g id="a_node26"><a xlink:href="BVH_8hpp.html" target="_top" xlink:title="/home/travis/build\l/STORM&#45;IRIT/Radium&#45;Engine\l/src/Core/TreeStructures\l/BVH.hpp">
<polygon fill="white" stroke="black" points="1764,-271 1764,-323 1912,-323 1912,-271 1764,-271"/>
<text text-anchor="start" x="1772" y="-311" font-family="Helvetica,sans-Serif" font-size="10.00">/home/travis/build</text>
<text text-anchor="start" x="1772" y="-300" font-family="Helvetica,sans-Serif" font-size="10.00">/STORM&#45;IRIT/Radium&#45;Engine</text>
<text text-anchor="start" x="1772" y="-289" font-family="Helvetica,sans-Serif" font-size="10.00">/src/Core/TreeStructures</text>
<text text-anchor="middle" x="1838" y="-278" font-family="Helvetica,sans-Serif" font-size="10.00">/BVH.hpp</text>
</a>
</g>
</g>
<!-- Node25&#45;&gt;Node26 -->
<g id="edge33" class="edge"><title>Node25&#45;&gt;Node26</title>
<path fill="none" stroke="midnightblue" d="M1831.36,-350.489C1831.12,-341.309 1831.27,-331.616 1831.84,-323.092"/>
<polygon fill="midnightblue" stroke="midnightblue" points="1827.87,-350.714 1831.81,-360.547 1834.86,-350.4 1827.87,-350.714"/>
</g>
<!-- Node26&#45;&gt;Node25 -->
<g id="edge34" class="edge"><title>Node26&#45;&gt;Node25</title>
<path fill="none" stroke="midnightblue" d="M1844.63,-333.123C1844.88,-342.289 1844.74,-351.99 1844.19,-360.547"/>
<polygon fill="midnightblue" stroke="midnightblue" points="1848.12,-332.92 1844.16,-323.092 1841.13,-333.243 1848.12,-332.92"/>
</g>
<!-- Node32 -->
<g id="node32" class="node"><title>Node32</title>
<g id="a_node32"><a xlink:href="AnimationComponent_8cpp.html" target="_top" xlink:title="/home/travis/build\l/STORM&#45;IRIT/Radium&#45;Engine\l/Plugins/Animation/src/Animation\lComponent.cpp">
<polygon fill="white" stroke="black" points="2497.5,-271 2497.5,-323 2658.5,-323 2658.5,-271 2497.5,-271"/>
<text text-anchor="start" x="2505.5" y="-311" font-family="Helvetica,sans-Serif" font-size="10.00">/home/travis/build</text>
<text text-anchor="start" x="2505.5" y="-300" font-family="Helvetica,sans-Serif" font-size="10.00">/STORM&#45;IRIT/Radium&#45;Engine</text>
<text text-anchor="start" x="2505.5" y="-289" font-family="Helvetica,sans-Serif" font-size="10.00">/Plugins/Animation/src/Animation</text>
<text text-anchor="middle" x="2578" y="-278" font-family="Helvetica,sans-Serif" font-size="10.00">Component.cpp</text>
</a>
</g>
</g>
<!-- Node31&#45;&gt;Node32 -->
<g id="edge41" class="edge"><title>Node31&#45;&gt;Node32</title>
<path fill="none" stroke="midnightblue" d="M2696.48,-356.249C2674.55,-345.468 2650.02,-333.407 2628.99,-323.069"/>
<polygon fill="midnightblue" stroke="midnightblue" points="2695.19,-359.512 2705.71,-360.783 2698.28,-353.23 2695.19,-359.512"/>
</g>
<!-- Node33 -->
<g id="node33" class="node"><title>Node33</title>
<g id="a_node33"><a xlink:href="AnimationSystem_8cpp.html" target="_top" xlink:title="/home/travis/build\l/STORM&#45;IRIT/Radium&#45;Engine\l/Plugins/Animation/src/Animation\lSystem.cpp">
<polygon fill="white" stroke="black" points="2676.5,-271 2676.5,-323 2837.5,-323 2837.5,-271 2676.5,-271"/>
<text text-anchor="start" x="2684.5" y="-311" font-family="Helvetica,sans-Serif" font-size="10.00">/home/travis/build</text>
<text text-anchor="start" x="2684.5" y="-300" font-family="Helvetica,sans-Serif" font-size="10.00">/STORM&#45;IRIT/Radium&#45;Engine</text>
<text text-anchor="start" x="2684.5" y="-289" font-family="Helvetica,sans-Serif" font-size="10.00">/Plugins/Animation/src/Animation</text>
<text text-anchor="middle" x="2757" y="-278" font-family="Helvetica,sans-Serif" font-size="10.00">System.cpp</text>
</a>
</g>
</g>
<!-- Node31&#45;&gt;Node33 -->
<g id="edge42" class="edge"><title>Node31&#45;&gt;Node33</title>
<path fill="none" stroke="midnightblue" d="M2757,-350.489C2757,-341.309 2757,-331.616 2757,-323.092"/>
<polygon fill="midnightblue" stroke="midnightblue" points="2753.5,-350.547 2757,-360.547 2760.5,-350.547 2753.5,-350.547"/>
</g>
<!-- Node34 -->
<g id="node34" class="node"><title>Node34</title>
<g id="a_node34"><a xlink:href="SkeletonBoneDrawable_8cpp.html" target="_top" xlink:title="/home/travis/build\l/STORM&#45;IRIT/Radium&#45;Engine\l/Plugins/Animation/src/Drawing\l/SkeletonBoneDrawable.cpp">
<polygon fill="white" stroke="black" points="2856,-271 2856,-323 3010,-323 3010,-271 2856,-271"/>
<text text-anchor="start" x="2864" y="-311" font-family="Helvetica,sans-Serif" font-size="10.00">/home/travis/build</text>
<text text-anchor="start" x="2864" y="-300" font-family="Helvetica,sans-Serif" font-size="10.00">/STORM&#45;IRIT/Radium&#45;Engine</text>
<text text-anchor="start" x="2864" y="-289" font-family="Helvetica,sans-Serif" font-size="10.00">/Plugins/Animation/src/Drawing</text>
<text text-anchor="middle" x="2933" y="-278" font-family="Helvetica,sans-Serif" font-size="10.00">/SkeletonBoneDrawable.cpp</text>
</a>
</g>
</g>
<!-- Node31&#45;&gt;Node34 -->
<g id="edge43" class="edge"><title>Node31&#45;&gt;Node34</title>
<path fill="none" stroke="midnightblue" d="M2816.5,-356.249C2838.06,-345.468 2862.19,-333.407 2882.86,-323.069"/>
<polygon fill="midnightblue" stroke="midnightblue" points="2814.81,-353.18 2807.43,-360.783 2817.94,-359.441 2814.81,-353.18"/>
</g>
</g>
</svg>
