<?xml version="1.0" encoding="UTF-8" standalone="no"?>
<!DOCTYPE svg PUBLIC "-//W3C//DTD SVG 1.1//EN"
 "http://www.w3.org/Graphics/SVG/1.1/DTD/svg11.dtd">
<!-- Generated by graphviz version 2.36.0 (20140111.2315)
 -->
<!-- Title: /home/travis/build/STORM&#45;IRIT/Radium&#45;Engine/src/Core/Mesh/MeshPrimitives.inl Pages: 1 -->
<svg width="1617pt" height="308pt"
 viewBox="0.00 0.00 1617.00 308.00" xmlns="http://www.w3.org/2000/svg" xmlns:xlink="http://www.w3.org/1999/xlink">
<g id="graph0" class="graph" transform="scale(1 1) rotate(0) translate(4 304)">
<title>/home/travis/build/STORM&#45;IRIT/Radium&#45;Engine/src/Core/Mesh/MeshPrimitives.inl</title>
<polygon fill="white" stroke="none" points="-4,4 -4,-304 1613,-304 1613,4 -4,4"/>
<!-- Node1 -->
<g id="node1" class="node"><title>Node1</title>
<polygon fill="#bfbfbf" stroke="black" points="735.5,-258.5 735.5,-299.5 902.5,-299.5 902.5,-258.5 735.5,-258.5"/>
<text text-anchor="start" x="743.5" y="-287.5" font-family="Helvetica,sans-Serif" font-size="10.00">/home/travis/build</text>
<text text-anchor="start" x="743.5" y="-276.5" font-family="Helvetica,sans-Serif" font-size="10.00">/STORM&#45;IRIT/Radium&#45;Engine</text>
<text text-anchor="middle" x="819" y="-265.5" font-family="Helvetica,sans-Serif" font-size="10.00">/src/Core/Mesh/MeshPrimitives.inl</text>
</g>
<!-- Node2 -->
<g id="node2" class="node"><title>Node2</title>
<g id="a_node2"><a xlink:href="MeshPrimitives_8hpp.html" target="_top" xlink:title="/home/travis/build\l/STORM&#45;IRIT/Radium&#45;Engine\l/src/Core/Mesh/MeshPrimitives.hpp">
<polygon fill="white" stroke="black" points="732.5,-180.5 732.5,-221.5 905.5,-221.5 905.5,-180.5 732.5,-180.5"/>
<text text-anchor="start" x="740.5" y="-209.5" font-family="Helvetica,sans-Serif" font-size="10.00">/home/travis/build</text>
<text text-anchor="start" x="740.5" y="-198.5" font-family="Helvetica,sans-Serif" font-size="10.00">/STORM&#45;IRIT/Radium&#45;Engine</text>
<text text-anchor="middle" x="819" y="-187.5" font-family="Helvetica,sans-Serif" font-size="10.00">/src/Core/Mesh/MeshPrimitives.hpp</text>
</a>
</g>
</g>
<!-- Node1&#45;&gt;Node2 -->
<g id="edge1" class="edge"><title>Node1&#45;&gt;Node2</title>
<path fill="none" stroke="midnightblue" d="M812.395,-248.297C812.076,-239.301 812.283,-229.653 813.018,-221.506"/>
<polygon fill="midnightblue" stroke="midnightblue" points="808.911,-248.659 813.012,-258.428 815.898,-248.234 808.911,-248.659"/>
</g>
<!-- Node2&#45;&gt;Node1 -->
<g id="edge3" class="edge"><title>Node2&#45;&gt;Node1</title>
<path fill="none" stroke="midnightblue" d="M825.602,-231.63C825.924,-240.622 825.72,-250.272 824.988,-258.428"/>
<polygon fill="midnightblue" stroke="midnightblue" points="829.087,-231.273 824.982,-221.506 822.1,-231.701 829.087,-231.273"/>
</g>
<!-- Node3 -->
<g id="node3" class="node"><title>Node3</title>
<g id="a_node3"><a xlink:href="MeshPrimitives_8cpp.html" target="_top" xlink:title="/home/travis/build\l/STORM&#45;IRIT/Radium&#45;Engine\l/src/Core/Mesh/MeshPrimitives.cpp">
<polygon fill="white" stroke="black" points="-0.5,-96.5 -0.5,-137.5 172.5,-137.5 172.5,-96.5 -0.5,-96.5"/>
<text text-anchor="start" x="7.5" y="-125.5" font-family="Helvetica,sans-Serif" font-size="10.00">/home/travis/build</text>
<text text-anchor="start" x="7.5" y="-114.5" font-family="Helvetica,sans-Serif" font-size="10.00">/STORM&#45;IRIT/Radium&#45;Engine</text>
<text text-anchor="middle" x="86" y="-103.5" font-family="Helvetica,sans-Serif" font-size="10.00">/src/Core/Mesh/MeshPrimitives.cpp</text>
</a>
</g>
</g>
<!-- Node2&#45;&gt;Node3 -->
<g id="edge2" class="edge"><title>Node2&#45;&gt;Node3</title>
<path fill="none" stroke="midnightblue" d="M721.987,-196.802C596.494,-191.45 371.5,-177.718 182,-144 172.225,-142.261 161.998,-139.991 152.015,-137.517"/>
<polygon fill="midnightblue" stroke="midnightblue" points="722.195,-200.314 732.332,-197.234 722.487,-193.32 722.195,-200.314"/>
</g>
<!-- Node4 -->
<g id="node4" class="node"><title>Node4</title>
<g id="a_node4"><a xlink:href="Renderer_8cpp.html" target="_top" xlink:title="/home/travis/build\l/STORM&#45;IRIT/Radium&#45;Engine\l/src/Engine/Renderer/Renderer.cpp">
<polygon fill="white" stroke="black" points="191,-96.5 191,-137.5 361,-137.5 361,-96.5 191,-96.5"/>
<text text-anchor="start" x="199" y="-125.5" font-family="Helvetica,sans-Serif" font-size="10.00">/home/travis/build</text>
<text text-anchor="start" x="199" y="-114.5" font-family="Helvetica,sans-Serif" font-size="10.00">/STORM&#45;IRIT/Radium&#45;Engine</text>
<text text-anchor="middle" x="276" y="-103.5" font-family="Helvetica,sans-Serif" font-size="10.00">/src/Engine/Renderer/Renderer.cpp</text>
</a>
</g>
</g>
<!-- Node2&#45;&gt;Node4 -->
<g id="edge4" class="edge"><title>Node2&#45;&gt;Node4</title>
<path fill="none" stroke="midnightblue" d="M722.067,-191.912C630.895,-183.357 490.87,-167.769 371,-144 361.775,-142.171 352.129,-139.927 342.668,-137.532"/>
<polygon fill="midnightblue" stroke="midnightblue" points="721.83,-195.405 732.111,-192.845 722.478,-188.435 721.83,-195.405"/>
</g>
<!-- Node5 -->
<g id="node5" class="node"><title>Node5</title>
<g id="a_node5"><a xlink:href="DebugRender_8cpp.html" target="_top" xlink:title="/home/travis/build\l/STORM&#45;IRIT/Radium&#45;Engine\l/src/Engine/Renderer/Renderers\l/DebugRender.cpp">
<polygon fill="white" stroke="black" points="379.5,-91 379.5,-143 536.5,-143 536.5,-91 379.5,-91"/>
<text text-anchor="start" x="387.5" y="-131" font-family="Helvetica,sans-Serif" font-size="10.00">/home/travis/build</text>
<text text-anchor="start" x="387.5" y="-120" font-family="Helvetica,sans-Serif" font-size="10.00">/STORM&#45;IRIT/Radium&#45;Engine</text>
<text text-anchor="start" x="387.5" y="-109" font-family="Helvetica,sans-Serif" font-size="10.00">/src/Engine/Renderer/Renderers</text>
<text text-anchor="middle" x="458" y="-98" font-family="Helvetica,sans-Serif" font-size="10.00">/DebugRender.cpp</text>
</a>
</g>
</g>
<!-- Node2&#45;&gt;Node5 -->
<g id="edge5" class="edge"><title>Node2&#45;&gt;Node5</title>
<path fill="none" stroke="midnightblue" d="M722.241,-182.23C669.835,-172.084 604.099,-158.514 546,-144 542.909,-143.228 539.764,-142.418 536.592,-141.58"/>
<polygon fill="midnightblue" stroke="midnightblue" points="721.72,-185.694 732.202,-184.148 723.044,-178.82 721.72,-185.694"/>
</g>
<!-- Node6 -->
<g id="node6" class="node"><title>Node6</title>
<g id="a_node6"><a xlink:href="DrawPrimitives_8cpp.html" target="_top" xlink:title="/home/travis/build\l/STORM&#45;IRIT/Radium&#45;Engine\l/src/Engine/Renderer/RenderObject\l/Primitives/DrawPrimitives.cpp">
<polygon fill="white" stroke="black" points="555,-91 555,-143 727,-143 727,-91 555,-91"/>
<text text-anchor="start" x="563" y="-131" font-family="Helvetica,sans-Serif" font-size="10.00">/home/travis/build</text>
<text text-anchor="start" x="563" y="-120" font-family="Helvetica,sans-Serif" font-size="10.00">/STORM&#45;IRIT/Radium&#45;Engine</text>
<text text-anchor="start" x="563" y="-109" font-family="Helvetica,sans-Serif" font-size="10.00">/src/Engine/Renderer/RenderObject</text>
<text text-anchor="middle" x="641" y="-98" font-family="Helvetica,sans-Serif" font-size="10.00">/Primitives/DrawPrimitives.cpp</text>
</a>
</g>
</g>
<!-- Node2&#45;&gt;Node6 -->
<g id="edge6" class="edge"><title>Node2&#45;&gt;Node6</title>
<path fill="none" stroke="midnightblue" d="M766.985,-176.038C744.5,-165.68 718.186,-153.557 695.437,-143.078"/>
<polygon fill="midnightblue" stroke="midnightblue" points="765.818,-179.354 776.365,-180.359 768.746,-172.996 765.818,-179.354"/>
</g>
<!-- Node7 -->
<g id="node7" class="node"><title>Node7</title>
<g id="a_node7"><a xlink:href="RotateGizmo_8cpp.html" target="_top" xlink:title="/home/travis/build\l/STORM&#45;IRIT/Radium&#45;Engine\l/src/GuiBase/Viewer/Gizmo\l/RotateGizmo.cpp">
<polygon fill="white" stroke="black" points="745,-91 745,-143 893,-143 893,-91 745,-91"/>
<text text-anchor="start" x="753" y="-131" font-family="Helvetica,sans-Serif" font-size="10.00">/home/travis/build</text>
<text text-anchor="start" x="753" y="-120" font-family="Helvetica,sans-Serif" font-size="10.00">/STORM&#45;IRIT/Radium&#45;Engine</text>
<text text-anchor="start" x="753" y="-109" font-family="Helvetica,sans-Serif" font-size="10.00">/src/GuiBase/Viewer/Gizmo</text>
<text text-anchor="middle" x="819" y="-98" font-family="Helvetica,sans-Serif" font-size="10.00">/RotateGizmo.cpp</text>
</a>
</g>
</g>
<!-- Node2&#45;&gt;Node7 -->
<g id="edge7" class="edge"><title>Node2&#45;&gt;Node7</title>
<path fill="none" stroke="midnightblue" d="M819,-169.938C819,-161.176 819,-151.695 819,-143.261"/>
<polygon fill="midnightblue" stroke="midnightblue" points="815.5,-170.15 819,-180.15 822.5,-170.15 815.5,-170.15"/>
</g>
<!-- Node8 -->
<g id="node8" class="node"><title>Node8</title>
<g id="a_node8"><a xlink:href="TranslateGizmo_8cpp.html" target="_top" xlink:title="/home/travis/build\l/STORM&#45;IRIT/Radium&#45;Engine\l/src/GuiBase/Viewer/Gizmo\l/TranslateGizmo.cpp">
<polygon fill="white" stroke="black" points="911,-91 911,-143 1059,-143 1059,-91 911,-91"/>
<text text-anchor="start" x="919" y="-131" font-family="Helvetica,sans-Serif" font-size="10.00">/home/travis/build</text>
<text text-anchor="start" x="919" y="-120" font-family="Helvetica,sans-Serif" font-size="10.00">/STORM&#45;IRIT/Radium&#45;Engine</text>
<text text-anchor="start" x="919" y="-109" font-family="Helvetica,sans-Serif" font-size="10.00">/src/GuiBase/Viewer/Gizmo</text>
<text text-anchor="middle" x="985" y="-98" font-family="Helvetica,sans-Serif" font-size="10.00">/TranslateGizmo.cpp</text>
</a>
</g>
</g>
<!-- Node2&#45;&gt;Node8 -->
<g id="edge8" class="edge"><title>Node2&#45;&gt;Node8</title>
<path fill="none" stroke="midnightblue" d="M867.79,-175.899C888.696,-165.572 913.113,-153.511 934.232,-143.078"/>
<polygon fill="midnightblue" stroke="midnightblue" points="866.177,-172.792 858.761,-180.359 869.277,-179.068 866.177,-172.792"/>
</g>
<!-- Node9 -->
<g id="node9" class="node"><title>Node9</title>
<g id="a_node9"><a xlink:href="Tests_2CoreTests_2src_2Mesh_8hpp.html" target="_top" xlink:title="/home/travis/build\l/STORM&#45;IRIT/Radium&#45;Engine\l/src/Tests/CoreTests/src\l/Mesh.hpp">
<polygon fill="white" stroke="black" points="1077,-91 1077,-143 1225,-143 1225,-91 1077,-91"/>
<text text-anchor="start" x="1085" y="-131" font-family="Helvetica,sans-Serif" font-size="10.00">/home/travis/build</text>
<text text-anchor="start" x="1085" y="-120" font-family="Helvetica,sans-Serif" font-size="10.00">/STORM&#45;IRIT/Radium&#45;Engine</text>
<text text-anchor="start" x="1085" y="-109" font-family="Helvetica,sans-Serif" font-size="10.00">/src/Tests/CoreTests/src</text>
<text text-anchor="middle" x="1151" y="-98" font-family="Helvetica,sans-Serif" font-size="10.00">/Mesh.hpp</text>
</a>
</g>
</g>
<!-- Node2&#45;&gt;Node9 -->
<g id="edge9" class="edge"><title>Node2&#45;&gt;Node9</title>
<path fill="none" stroke="midnightblue" d="M915.599,-180.213C961.92,-170.232 1018.07,-157.412 1068,-144 1070.92,-143.217 1073.88,-142.397 1076.88,-141.551"/>
<polygon fill="midnightblue" stroke="midnightblue" points="914.612,-176.845 905.568,-182.363 916.079,-183.689 914.612,-176.845"/>
</g>
<!-- Node11 -->
<g id="node11" class="node"><title>Node11</title>
<g id="a_node11"><a xlink:href="Tests_2CoreTests_2src_2TopologicalMesh_8hpp.html" target="_top" xlink:title="/home/travis/build\l/STORM&#45;IRIT/Radium&#45;Engine\l/src/Tests/CoreTests/src\l/TopologicalMesh.hpp">
<polygon fill="white" stroke="black" points="1243,-91 1243,-143 1391,-143 1391,-91 1243,-91"/>
<text text-anchor="start" x="1251" y="-131" font-family="Helvetica,sans-Serif" font-size="10.00">/home/travis/build</text>
<text text-anchor="start" x="1251" y="-120" font-family="Helvetica,sans-Serif" font-size="10.00">/STORM&#45;IRIT/Radium&#45;Engine</text>
<text text-anchor="start" x="1251" y="-109" font-family="Helvetica,sans-Serif" font-size="10.00">/src/Tests/CoreTests/src</text>
<text text-anchor="middle" x="1317" y="-98" font-family="Helvetica,sans-Serif" font-size="10.00">/TopologicalMesh.hpp</text>
</a>
</g>
</g>
<!-- Node2&#45;&gt;Node11 -->
<g id="edge11" class="edge"><title>Node2&#45;&gt;Node11</title>
<path fill="none" stroke="midnightblue" d="M915.703,-191.633C1000.34,-183.201 1126.25,-167.965 1234,-144 1236.95,-143.344 1239.94,-142.632 1242.96,-141.877"/>
<polygon fill="midnightblue" stroke="midnightblue" points="915.2,-188.165 905.591,-192.628 915.885,-195.132 915.2,-188.165"/>
</g>
<!-- Node12 -->
<g id="node12" class="node"><title>Node12</title>
<g id="a_node12"><a xlink:href="MeshFeatureTrackingComponent_8cpp.html" target="_top" xlink:title="/home/travis/build\l/STORM&#45;IRIT/Radium&#45;Engine\l/Plugins/MeshFeatureTracking\l/src/MeshFeatureTrackingComponent.cpp">
<polygon fill="white" stroke="black" points="1409,-91 1409,-143 1609,-143 1609,-91 1409,-91"/>
<text text-anchor="start" x="1417" y="-131" font-family="Helvetica,sans-Serif" font-size="10.00">/home/travis/build</text>
<text text-anchor="start" x="1417" y="-120" font-family="Helvetica,sans-Serif" font-size="10.00">/STORM&#45;IRIT/Radium&#45;Engine</text>
<text text-anchor="start" x="1417" y="-109" font-family="Helvetica,sans-Serif" font-size="10.00">/Plugins/MeshFeatureTracking</text>
<text text-anchor="middle" x="1509" y="-98" font-family="Helvetica,sans-Serif" font-size="10.00">/src/MeshFeatureTrackingComponent.cpp</text>
</a>
</g>
</g>
<!-- Node2&#45;&gt;Node12 -->
<g id="edge13" class="edge"><title>Node2&#45;&gt;Node12</title>
<path fill="none" stroke="midnightblue" d="M915.869,-194.765C1031.64,-187.565 1230.93,-172.174 1400,-144 1402.88,-143.52 1405.79,-143.008 1408.73,-142.467"/>
<polygon fill="midnightblue" stroke="midnightblue" points="915.385,-191.288 905.619,-195.395 915.814,-198.275 915.385,-191.288"/>
</g>
<!-- Node10 -->
<g id="node10" class="node"><title>Node10</title>
<g id="a_node10"><a xlink:href="main_8cpp.html" target="_top" xlink:title="/home/travis/build\l/STORM&#45;IRIT/Radium&#45;Engine\l/src/Tests/CoreTests/src\l/main.cpp">
<polygon fill="white" stroke="black" points="1160,-1 1160,-53 1308,-53 1308,-1 1160,-1"/>
<text text-anchor="start" x="1168" y="-41" font-family="Helvetica,sans-Serif" font-size="10.00">/home/travis/build</text>
<text text-anchor="start" x="1168" y="-30" font-family="Helvetica,sans-Serif" font-size="10.00">/STORM&#45;IRIT/Radium&#45;Engine</text>
<text text-anchor="start" x="1168" y="-19" font-family="Helvetica,sans-Serif" font-size="10.00">/src/Tests/CoreTests/src</text>
<text text-anchor="middle" x="1234" y="-8" font-family="Helvetica,sans-Serif" font-size="10.00">/main.cpp</text>
</a>
</g>
</g>
<!-- Node9&#45;&gt;Node10 -->
<g id="edge10" class="edge"><title>Node9&#45;&gt;Node10</title>
<path fill="none" stroke="midnightblue" d="M1181.99,-83.1386C1191.37,-73.1958 1201.52,-62.4408 1210.33,-53.0921"/>
<polygon fill="midnightblue" stroke="midnightblue" points="1179.32,-80.8705 1175.01,-90.5468 1184.41,-85.6735 1179.32,-80.8705"/>
</g>
<!-- Node11&#45;&gt;Node10 -->
<g id="edge12" class="edge"><title>Node11&#45;&gt;Node10</title>
<path fill="none" stroke="midnightblue" d="M1286.01,-83.1386C1276.63,-73.1958 1266.48,-62.4408 1257.67,-53.0921"/>
<polygon fill="midnightblue" stroke="midnightblue" points="1283.59,-85.6735 1292.99,-90.5468 1288.68,-80.8705 1283.59,-85.6735"/>
</g>
</g>
</svg>
