<?xml version="1.0" encoding="UTF-8" standalone="no"?>
<!DOCTYPE svg PUBLIC "-//W3C//DTD SVG 1.1//EN"
 "http://www.w3.org/Graphics/SVG/1.1/DTD/svg11.dtd">
<!-- Generated by graphviz version 2.36.0 (20140111.2315)
 -->
<!-- Title: /home/travis/build/STORM&#45;IRIT/Radium&#45;Engine/src/Engine/Renderer/Mesh/Mesh.inl Pages: 1 -->
<svg width="3354pt" height="410pt"
 viewBox="0.00 0.00 3354.00 410.00" xmlns="http://www.w3.org/2000/svg" xmlns:xlink="http://www.w3.org/1999/xlink">
<g id="graph0" class="graph" transform="scale(1 1) rotate(0) translate(4 406)">
<title>/home/travis/build/STORM&#45;IRIT/Radium&#45;Engine/src/Engine/Renderer/Mesh/Mesh.inl</title>
<polygon fill="white" stroke="none" points="-4,4 -4,-406 3350,-406 3350,4 -4,4"/>
<!-- Node1 -->
<g id="node1" class="node"><title>Node1</title>
<polygon fill="#bfbfbf" stroke="black" points="1565,-349 1565,-401 1713,-401 1713,-349 1565,-349"/>
<text text-anchor="start" x="1573" y="-389" font-family="Helvetica,sans-Serif" font-size="10.00">/home/travis/build</text>
<text text-anchor="start" x="1573" y="-378" font-family="Helvetica,sans-Serif" font-size="10.00">/STORM&#45;IRIT/Radium&#45;Engine</text>
<text text-anchor="start" x="1573" y="-367" font-family="Helvetica,sans-Serif" font-size="10.00">/src/Engine/Renderer/Mesh</text>
<text text-anchor="middle" x="1639" y="-356" font-family="Helvetica,sans-Serif" font-size="10.00">/Mesh.inl</text>
</g>
<!-- Node2 -->
<g id="node2" class="node"><title>Node2</title>
<g id="a_node2"><a xlink:href="Engine_2Renderer_2Mesh_2Mesh_8hpp.html" target="_top" xlink:title="/home/travis/build\l/STORM&#45;IRIT/Radium&#45;Engine\l/src/Engine/Renderer/Mesh\l/Mesh.hpp">
<polygon fill="white" stroke="black" points="1565,-259 1565,-311 1713,-311 1713,-259 1565,-259"/>
<text text-anchor="start" x="1573" y="-299" font-family="Helvetica,sans-Serif" font-size="10.00">/home/travis/build</text>
<text text-anchor="start" x="1573" y="-288" font-family="Helvetica,sans-Serif" font-size="10.00">/STORM&#45;IRIT/Radium&#45;Engine</text>
<text text-anchor="start" x="1573" y="-277" font-family="Helvetica,sans-Serif" font-size="10.00">/src/Engine/Renderer/Mesh</text>
<text text-anchor="middle" x="1639" y="-266" font-family="Helvetica,sans-Serif" font-size="10.00">/Mesh.hpp</text>
</a>
</g>
</g>
<!-- Node1&#45;&gt;Node2 -->
<g id="edge1" class="edge"><title>Node1&#45;&gt;Node2</title>
<path fill="none" stroke="midnightblue" d="M1632.36,-338.489C1632.12,-329.309 1632.27,-319.616 1632.84,-311.092"/>
<polygon fill="midnightblue" stroke="midnightblue" points="1628.87,-338.714 1632.81,-348.547 1635.86,-338.4 1628.87,-338.714"/>
</g>
<!-- Node2&#45;&gt;Node1 -->
<g id="edge5" class="edge"><title>Node2&#45;&gt;Node1</title>
<path fill="none" stroke="midnightblue" d="M1645.63,-321.123C1645.88,-330.289 1645.74,-339.99 1645.19,-348.547"/>
<polygon fill="midnightblue" stroke="midnightblue" points="1649.12,-320.92 1645.16,-311.092 1642.13,-321.243 1649.12,-320.92"/>
</g>
<!-- Node3 -->
<g id="node3" class="node"><title>Node3</title>
<g id="a_node3"><a xlink:href="Component_8cpp.html" target="_top" xlink:title="/home/travis/build\l/STORM&#45;IRIT/Radium&#45;Engine\l/src/Engine/Component/Component.cpp">
<polygon fill="white" stroke="black" points="-0.5,-174.5 -0.5,-215.5 190.5,-215.5 190.5,-174.5 -0.5,-174.5"/>
<text text-anchor="start" x="7.5" y="-203.5" font-family="Helvetica,sans-Serif" font-size="10.00">/home/travis/build</text>
<text text-anchor="start" x="7.5" y="-192.5" font-family="Helvetica,sans-Serif" font-size="10.00">/STORM&#45;IRIT/Radium&#45;Engine</text>
<text text-anchor="middle" x="95" y="-181.5" font-family="Helvetica,sans-Serif" font-size="10.00">/src/Engine/Component/Component.cpp</text>
</a>
</g>
</g>
<!-- Node2&#45;&gt;Node3 -->
<g id="edge2" class="edge"><title>Node2&#45;&gt;Node3</title>
<path fill="none" stroke="midnightblue" d="M1554.59,-282.576C1287.68,-277.725 464.069,-259.994 200,-222 188.847,-220.395 177.154,-218.115 165.787,-215.563"/>
<polygon fill="midnightblue" stroke="midnightblue" points="1554.54,-286.076 1564.61,-282.757 1554.67,-279.077 1554.54,-286.076"/>
</g>
<!-- Node4 -->
<g id="node4" class="node"><title>Node4</title>
<g id="a_node4"><a xlink:href="Camera_8cpp.html" target="_top" xlink:title="/home/travis/build\l/STORM&#45;IRIT/Radium&#45;Engine\l/src/Engine/Renderer/Camera\l/Camera.cpp">
<polygon fill="white" stroke="black" points="209,-169 209,-221 357,-221 357,-169 209,-169"/>
<text text-anchor="start" x="217" y="-209" font-family="Helvetica,sans-Serif" font-size="10.00">/home/travis/build</text>
<text text-anchor="start" x="217" y="-198" font-family="Helvetica,sans-Serif" font-size="10.00">/STORM&#45;IRIT/Radium&#45;Engine</text>
<text text-anchor="start" x="217" y="-187" font-family="Helvetica,sans-Serif" font-size="10.00">/src/Engine/Renderer/Camera</text>
<text text-anchor="middle" x="283" y="-176" font-family="Helvetica,sans-Serif" font-size="10.00">/Camera.cpp</text>
</a>
</g>
</g>
<!-- Node2&#45;&gt;Node4 -->
<g id="edge3" class="edge"><title>Node2&#45;&gt;Node4</title>
<path fill="none" stroke="midnightblue" d="M1554.3,-282.686C1308.05,-278.42 595.258,-262.799 366,-222 363.175,-221.497 360.313,-220.926 357.433,-220.299"/>
<polygon fill="midnightblue" stroke="midnightblue" points="1554.56,-286.191 1564.62,-282.863 1554.68,-279.192 1554.56,-286.191"/>
</g>
<!-- Node5 -->
<g id="node5" class="node"><title>Node5</title>
<g id="a_node5"><a xlink:href="Mesh_8cpp.html" target="_top" xlink:title="/home/travis/build\l/STORM&#45;IRIT/Radium&#45;Engine\l/src/Engine/Renderer/Mesh\l/Mesh.cpp">
<polygon fill="white" stroke="black" points="375,-169 375,-221 523,-221 523,-169 375,-169"/>
<text text-anchor="start" x="383" y="-209" font-family="Helvetica,sans-Serif" font-size="10.00">/home/travis/build</text>
<text text-anchor="start" x="383" y="-198" font-family="Helvetica,sans-Serif" font-size="10.00">/STORM&#45;IRIT/Radium&#45;Engine</text>
<text text-anchor="start" x="383" y="-187" font-family="Helvetica,sans-Serif" font-size="10.00">/src/Engine/Renderer/Mesh</text>
<text text-anchor="middle" x="449" y="-176" font-family="Helvetica,sans-Serif" font-size="10.00">/Mesh.cpp</text>
</a>
</g>
</g>
<!-- Node2&#45;&gt;Node5 -->
<g id="edge4" class="edge"><title>Node2&#45;&gt;Node5</title>
<path fill="none" stroke="midnightblue" d="M1554.62,-281.976C1331.21,-276.185 728.08,-257.632 532,-222 529.177,-221.487 526.316,-220.907 523.438,-220.273"/>
<polygon fill="midnightblue" stroke="midnightblue" points="1554.56,-285.475 1564.65,-282.234 1554.74,-278.478 1554.56,-285.475"/>
</g>
<!-- Node6 -->
<g id="node6" class="node"><title>Node6</title>
<g id="a_node6"><a xlink:href="Renderer_8cpp.html" target="_top" xlink:title="/home/travis/build\l/STORM&#45;IRIT/Radium&#45;Engine\l/src/Engine/Renderer/Renderer.cpp">
<polygon fill="white" stroke="black" points="541,-174.5 541,-215.5 711,-215.5 711,-174.5 541,-174.5"/>
<text text-anchor="start" x="549" y="-203.5" font-family="Helvetica,sans-Serif" font-size="10.00">/home/travis/build</text>
<text text-anchor="start" x="549" y="-192.5" font-family="Helvetica,sans-Serif" font-size="10.00">/STORM&#45;IRIT/Radium&#45;Engine</text>
<text text-anchor="middle" x="626" y="-181.5" font-family="Helvetica,sans-Serif" font-size="10.00">/src/Engine/Renderer/Renderer.cpp</text>
</a>
</g>
</g>
<!-- Node2&#45;&gt;Node6 -->
<g id="edge6" class="edge"><title>Node2&#45;&gt;Node6</title>
<path fill="none" stroke="midnightblue" d="M1554.42,-283.991C1391.67,-282.72 1024.08,-273.761 720,-222 710.152,-220.324 699.85,-218.039 689.827,-215.515"/>
<polygon fill="midnightblue" stroke="midnightblue" points="1554.82,-287.494 1564.85,-284.064 1554.87,-280.494 1554.82,-287.494"/>
</g>
<!-- Node7 -->
<g id="node7" class="node"><title>Node7</title>
<g id="a_node7"><a xlink:href="DebugRender_8cpp.html" target="_top" xlink:title="/home/travis/build\l/STORM&#45;IRIT/Radium&#45;Engine\l/src/Engine/Renderer/Renderers\l/DebugRender.cpp">
<polygon fill="white" stroke="black" points="729.5,-169 729.5,-221 886.5,-221 886.5,-169 729.5,-169"/>
<text text-anchor="start" x="737.5" y="-209" font-family="Helvetica,sans-Serif" font-size="10.00">/home/travis/build</text>
<text text-anchor="start" x="737.5" y="-198" font-family="Helvetica,sans-Serif" font-size="10.00">/STORM&#45;IRIT/Radium&#45;Engine</text>
<text text-anchor="start" x="737.5" y="-187" font-family="Helvetica,sans-Serif" font-size="10.00">/src/Engine/Renderer/Renderers</text>
<text text-anchor="middle" x="808" y="-176" font-family="Helvetica,sans-Serif" font-size="10.00">/DebugRender.cpp</text>
</a>
</g>
</g>
<!-- Node2&#45;&gt;Node7 -->
<g id="edge7" class="edge"><title>Node2&#45;&gt;Node7</title>
<path fill="none" stroke="midnightblue" d="M1554.79,-282.647C1416.09,-279.158 1131.39,-266.671 895,-222 892.212,-221.473 889.386,-220.892 886.54,-220.266"/>
<polygon fill="midnightblue" stroke="midnightblue" points="1554.85,-286.15 1564.93,-282.893 1555.01,-279.152 1554.85,-286.15"/>
</g>
<!-- Node8 -->
<g id="node8" class="node"><title>Node8</title>
<g id="a_node8"><a xlink:href="ForwardRenderer_8cpp.html" target="_top" xlink:title="/home/travis/build\l/STORM&#45;IRIT/Radium&#45;Engine\l/src/Engine/Renderer/Renderers\l/ForwardRenderer.cpp">
<polygon fill="white" stroke="black" points="904.5,-169 904.5,-221 1061.5,-221 1061.5,-169 904.5,-169"/>
<text text-anchor="start" x="912.5" y="-209" font-family="Helvetica,sans-Serif" font-size="10.00">/home/travis/build</text>
<text text-anchor="start" x="912.5" y="-198" font-family="Helvetica,sans-Serif" font-size="10.00">/STORM&#45;IRIT/Radium&#45;Engine</text>
<text text-anchor="start" x="912.5" y="-187" font-family="Helvetica,sans-Serif" font-size="10.00">/src/Engine/Renderer/Renderers</text>
<text text-anchor="middle" x="983" y="-176" font-family="Helvetica,sans-Serif" font-size="10.00">/ForwardRenderer.cpp</text>
</a>
</g>
</g>
<!-- Node2&#45;&gt;Node8 -->
<g id="edge8" class="edge"><title>Node2&#45;&gt;Node8</title>
<path fill="none" stroke="midnightblue" d="M1554.65,-279.509C1443.09,-272.497 1240.77,-256.06 1071,-222 1067.88,-221.373 1064.7,-220.686 1061.51,-219.951"/>
<polygon fill="midnightblue" stroke="midnightblue" points="1554.63,-283.014 1564.83,-280.138 1555.06,-276.028 1554.63,-283.014"/>
</g>
<!-- Node9 -->
<g id="node9" class="node"><title>Node9</title>
<g id="a_node9"><a xlink:href="DrawPrimitives_8cpp.html" target="_top" xlink:title="/home/travis/build\l/STORM&#45;IRIT/Radium&#45;Engine\l/src/Engine/Renderer/RenderObject\l/Primitives/DrawPrimitives.cpp">
<polygon fill="white" stroke="black" points="1080,-169 1080,-221 1252,-221 1252,-169 1080,-169"/>
<text text-anchor="start" x="1088" y="-209" font-family="Helvetica,sans-Serif" font-size="10.00">/home/travis/build</text>
<text text-anchor="start" x="1088" y="-198" font-family="Helvetica,sans-Serif" font-size="10.00">/STORM&#45;IRIT/Radium&#45;Engine</text>
<text text-anchor="start" x="1088" y="-187" font-family="Helvetica,sans-Serif" font-size="10.00">/src/Engine/Renderer/RenderObject</text>
<text text-anchor="middle" x="1166" y="-176" font-family="Helvetica,sans-Serif" font-size="10.00">/Primitives/DrawPrimitives.cpp</text>
</a>
</g>
</g>
<!-- Node2&#45;&gt;Node9 -->
<g id="edge9" class="edge"><title>Node2&#45;&gt;Node9</title>
<path fill="none" stroke="midnightblue" d="M1554.57,-272.732C1477.65,-261.856 1361.11,-243.847 1261,-222 1258.08,-221.362 1255.11,-220.69 1252.12,-219.991"/>
<polygon fill="midnightblue" stroke="midnightblue" points="1554.3,-276.228 1564.69,-274.154 1555.27,-269.296 1554.3,-276.228"/>
</g>
<!-- Node10 -->
<g id="node10" class="node"><title>Node10</title>
<g id="a_node10"><a xlink:href="RenderObject_8cpp.html" target="_top" xlink:title="/home/travis/build\l/STORM&#45;IRIT/Radium&#45;Engine\l/src/Engine/Renderer/RenderObject\l/RenderObject.cpp">
<polygon fill="white" stroke="black" points="1270,-169 1270,-221 1442,-221 1442,-169 1270,-169"/>
<text text-anchor="start" x="1278" y="-209" font-family="Helvetica,sans-Serif" font-size="10.00">/home/travis/build</text>
<text text-anchor="start" x="1278" y="-198" font-family="Helvetica,sans-Serif" font-size="10.00">/STORM&#45;IRIT/Radium&#45;Engine</text>
<text text-anchor="start" x="1278" y="-187" font-family="Helvetica,sans-Serif" font-size="10.00">/src/Engine/Renderer/RenderObject</text>
<text text-anchor="middle" x="1356" y="-176" font-family="Helvetica,sans-Serif" font-size="10.00">/RenderObject.cpp</text>
</a>
</g>
</g>
<!-- Node2&#45;&gt;Node10 -->
<g id="edge10" class="edge"><title>Node2&#45;&gt;Node10</title>
<path fill="none" stroke="midnightblue" d="M1554.78,-257.811C1517.37,-246.179 1473.53,-232.548 1436.56,-221.051"/>
<polygon fill="midnightblue" stroke="midnightblue" points="1554.06,-261.252 1564.65,-260.879 1556.14,-254.568 1554.06,-261.252"/>
</g>
<!-- Node11 -->
<g id="node11" class="node"><title>Node11</title>
<g id="a_node11"><a xlink:href="RenderObjectManager_8cpp.html" target="_top" xlink:title="/home/travis/build\l/STORM&#45;IRIT/Radium&#45;Engine\l/src/Engine/Renderer/RenderObject\l/RenderObjectManager.cpp">
<polygon fill="white" stroke="black" points="1460,-169 1460,-221 1632,-221 1632,-169 1460,-169"/>
<text text-anchor="start" x="1468" y="-209" font-family="Helvetica,sans-Serif" font-size="10.00">/home/travis/build</text>
<text text-anchor="start" x="1468" y="-198" font-family="Helvetica,sans-Serif" font-size="10.00">/STORM&#45;IRIT/Radium&#45;Engine</text>
<text text-anchor="start" x="1468" y="-187" font-family="Helvetica,sans-Serif" font-size="10.00">/src/Engine/Renderer/RenderObject</text>
<text text-anchor="middle" x="1546" y="-176" font-family="Helvetica,sans-Serif" font-size="10.00">/RenderObjectManager.cpp</text>
</a>
</g>
</g>
<!-- Node2&#45;&gt;Node11 -->
<g id="edge11" class="edge"><title>Node2&#45;&gt;Node11</title>
<path fill="none" stroke="midnightblue" d="M1604.58,-251.431C1593.99,-241.407 1582.49,-230.533 1572.52,-221.092"/>
<polygon fill="midnightblue" stroke="midnightblue" points="1602.43,-254.216 1612.1,-258.547 1607.24,-249.131 1602.43,-254.216"/>
</g>
<!-- Node12 -->
<g id="node12" class="node"><title>Node12</title>
<g id="a_node12"><a xlink:href="BaseApplication_8cpp.html" target="_top" xlink:title="/home/travis/build\l/STORM&#45;IRIT/Radium&#45;Engine\l/src/GuiBase/BaseApplication.cpp">
<polygon fill="white" stroke="black" points="1650,-174.5 1650,-215.5 1816,-215.5 1816,-174.5 1650,-174.5"/>
<text text-anchor="start" x="1658" y="-203.5" font-family="Helvetica,sans-Serif" font-size="10.00">/home/travis/build</text>
<text text-anchor="start" x="1658" y="-192.5" font-family="Helvetica,sans-Serif" font-size="10.00">/STORM&#45;IRIT/Radium&#45;Engine</text>
<text text-anchor="middle" x="1733" y="-181.5" font-family="Helvetica,sans-Serif" font-size="10.00">/src/GuiBase/BaseApplication.cpp</text>
</a>
</g>
</g>
<!-- Node2&#45;&gt;Node12 -->
<g id="edge12" class="edge"><title>Node2&#45;&gt;Node12</title>
<path fill="none" stroke="midnightblue" d="M1673.37,-251.822C1686.33,-239.694 1700.66,-226.272 1712.03,-215.628"/>
<polygon fill="midnightblue" stroke="midnightblue" points="1670.84,-249.393 1665.94,-258.783 1675.63,-254.504 1670.84,-249.393"/>
</g>
<!-- Node13 -->
<g id="node13" class="node"><title>Node13</title>
<g id="a_node13"><a xlink:href="RotateGizmo_8cpp.html" target="_top" xlink:title="/home/travis/build\l/STORM&#45;IRIT/Radium&#45;Engine\l/src/GuiBase/Viewer/Gizmo\l/RotateGizmo.cpp">
<polygon fill="white" stroke="black" points="1834,-169 1834,-221 1982,-221 1982,-169 1834,-169"/>
<text text-anchor="start" x="1842" y="-209" font-family="Helvetica,sans-Serif" font-size="10.00">/home/travis/build</text>
<text text-anchor="start" x="1842" y="-198" font-family="Helvetica,sans-Serif" font-size="10.00">/STORM&#45;IRIT/Radium&#45;Engine</text>
<text text-anchor="start" x="1842" y="-187" font-family="Helvetica,sans-Serif" font-size="10.00">/src/GuiBase/Viewer/Gizmo</text>
<text text-anchor="middle" x="1908" y="-176" font-family="Helvetica,sans-Serif" font-size="10.00">/RotateGizmo.cpp</text>
</a>
</g>
</g>
<!-- Node2&#45;&gt;Node13 -->
<g id="edge13" class="edge"><title>Node2&#45;&gt;Node13</title>
<path fill="none" stroke="midnightblue" d="M1723.04,-256.506C1758.43,-244.929 1799.27,-231.569 1833.56,-220.353"/>
<polygon fill="midnightblue" stroke="midnightblue" points="1721.63,-253.285 1713.22,-259.721 1723.81,-259.938 1721.63,-253.285"/>
</g>
<!-- Node14 -->
<g id="node14" class="node"><title>Node14</title>
<g id="a_node14"><a xlink:href="TranslateGizmo_8cpp.html" target="_top" xlink:title="/home/travis/build\l/STORM&#45;IRIT/Radium&#45;Engine\l/src/GuiBase/Viewer/Gizmo\l/TranslateGizmo.cpp">
<polygon fill="white" stroke="black" points="2000,-169 2000,-221 2148,-221 2148,-169 2000,-169"/>
<text text-anchor="start" x="2008" y="-209" font-family="Helvetica,sans-Serif" font-size="10.00">/home/travis/build</text>
<text text-anchor="start" x="2008" y="-198" font-family="Helvetica,sans-Serif" font-size="10.00">/STORM&#45;IRIT/Radium&#45;Engine</text>
<text text-anchor="start" x="2008" y="-187" font-family="Helvetica,sans-Serif" font-size="10.00">/src/GuiBase/Viewer/Gizmo</text>
<text text-anchor="middle" x="2074" y="-176" font-family="Helvetica,sans-Serif" font-size="10.00">/TranslateGizmo.cpp</text>
</a>
</g>
</g>
<!-- Node2&#45;&gt;Node14 -->
<g id="edge14" class="edge"><title>Node2&#45;&gt;Node14</title>
<path fill="none" stroke="midnightblue" d="M1723.39,-272.27C1795.1,-261.558 1900.5,-244.048 1991,-222 1993.93,-221.285 1996.92,-220.523 1999.92,-219.726"/>
<polygon fill="midnightblue" stroke="midnightblue" points="1722.44,-268.873 1713.06,-273.801 1723.47,-275.797 1722.44,-268.873"/>
</g>
<!-- Node15 -->
<g id="node15" class="node"><title>Node15</title>
<g id="a_node15"><a xlink:href="SkeletonBoneDrawable_8hpp.html" target="_top" xlink:title="/home/travis/build\l/STORM&#45;IRIT/Radium&#45;Engine\l/Plugins/Animation/src/Drawing\l/SkeletonBoneDrawable.hpp">
<polygon fill="white" stroke="black" points="2166,-169 2166,-221 2320,-221 2320,-169 2166,-169"/>
<text text-anchor="start" x="2174" y="-209" font-family="Helvetica,sans-Serif" font-size="10.00">/home/travis/build</text>
<text text-anchor="start" x="2174" y="-198" font-family="Helvetica,sans-Serif" font-size="10.00">/STORM&#45;IRIT/Radium&#45;Engine</text>
<text text-anchor="start" x="2174" y="-187" font-family="Helvetica,sans-Serif" font-size="10.00">/Plugins/Animation/src/Drawing</text>
<text text-anchor="middle" x="2243" y="-176" font-family="Helvetica,sans-Serif" font-size="10.00">/SkeletonBoneDrawable.hpp</text>
</a>
</g>
</g>
<!-- Node2&#45;&gt;Node15 -->
<g id="edge15" class="edge"><title>Node2&#45;&gt;Node15</title>
<path fill="none" stroke="midnightblue" d="M1723.04,-278.47C1826.12,-270.651 2005.79,-253.654 2157,-222 2159.9,-221.393 2162.84,-220.732 2165.81,-220.03"/>
<polygon fill="midnightblue" stroke="midnightblue" points="1722.71,-274.985 1713,-279.221 1723.23,-281.965 1722.71,-274.985"/>
</g>
<!-- Node19 -->
<g id="node19" class="node"><title>Node19</title>
<g id="a_node19"><a xlink:href="DummyComponent_8cpp.html" target="_top" xlink:title="/home/travis/build\l/STORM&#45;IRIT/Radium&#45;Engine\l/Plugins/Dummy/src/DummyComponent.cpp">
<polygon fill="white" stroke="black" points="2338,-174.5 2338,-215.5 2550,-215.5 2550,-174.5 2338,-174.5"/>
<text text-anchor="start" x="2346" y="-203.5" font-family="Helvetica,sans-Serif" font-size="10.00">/home/travis/build</text>
<text text-anchor="start" x="2346" y="-192.5" font-family="Helvetica,sans-Serif" font-size="10.00">/STORM&#45;IRIT/Radium&#45;Engine</text>
<text text-anchor="middle" x="2444" y="-181.5" font-family="Helvetica,sans-Serif" font-size="10.00">/Plugins/Dummy/src/DummyComponent.cpp</text>
</a>
</g>
</g>
<!-- Node2&#45;&gt;Node19 -->
<g id="edge19" class="edge"><title>Node2&#45;&gt;Node19</title>
<path fill="none" stroke="midnightblue" d="M1723.49,-280.028C1854.01,-273.078 2112.24,-256.087 2329,-222 2340.32,-220.219 2352.2,-217.973 2363.84,-215.551"/>
<polygon fill="midnightblue" stroke="midnightblue" points="1722.97,-276.55 1713.17,-280.57 1723.34,-283.54 1722.97,-276.55"/>
</g>
<!-- Node20 -->
<g id="node20" class="node"><title>Node20</title>
<g id="a_node20"><a xlink:href="FancyMeshComponent_8cpp.html" target="_top" xlink:title="/home/travis/build\l/STORM&#45;IRIT/Radium&#45;Engine\l/Plugins/FancyMesh/src/FancyMesh\lComponent.cpp">
<polygon fill="white" stroke="black" points="2568,-169 2568,-221 2744,-221 2744,-169 2568,-169"/>
<text text-anchor="start" x="2576" y="-209" font-family="Helvetica,sans-Serif" font-size="10.00">/home/travis/build</text>
<text text-anchor="start" x="2576" y="-198" font-family="Helvetica,sans-Serif" font-size="10.00">/STORM&#45;IRIT/Radium&#45;Engine</text>
<text text-anchor="start" x="2576" y="-187" font-family="Helvetica,sans-Serif" font-size="10.00">/Plugins/FancyMesh/src/FancyMesh</text>
<text text-anchor="middle" x="2656" y="-176" font-family="Helvetica,sans-Serif" font-size="10.00">Component.cpp</text>
</a>
</g>
</g>
<!-- Node2&#45;&gt;Node20 -->
<g id="edge20" class="edge"><title>Node2&#45;&gt;Node20</title>
<path fill="none" stroke="midnightblue" d="M1723.53,-283.699C1886.2,-281.931 2253.65,-272.161 2558,-222 2561.21,-221.47 2564.47,-220.882 2567.76,-220.245"/>
<polygon fill="midnightblue" stroke="midnightblue" points="1723.08,-280.204 1713.11,-283.805 1723.15,-287.203 1723.08,-280.204"/>
</g>
<!-- Node21 -->
<g id="node21" class="node"><title>Node21</title>
<g id="a_node21"><a xlink:href="MeshFeatureTrackingComponent_8cpp.html" target="_top" xlink:title="/home/travis/build\l/STORM&#45;IRIT/Radium&#45;Engine\l/Plugins/MeshFeatureTracking\l/src/MeshFeatureTrackingComponent.cpp">
<polygon fill="white" stroke="black" points="2762,-169 2762,-221 2962,-221 2962,-169 2762,-169"/>
<text text-anchor="start" x="2770" y="-209" font-family="Helvetica,sans-Serif" font-size="10.00">/home/travis/build</text>
<text text-anchor="start" x="2770" y="-198" font-family="Helvetica,sans-Serif" font-size="10.00">/STORM&#45;IRIT/Radium&#45;Engine</text>
<text text-anchor="start" x="2770" y="-187" font-family="Helvetica,sans-Serif" font-size="10.00">/Plugins/MeshFeatureTracking</text>
<text text-anchor="middle" x="2862" y="-176" font-family="Helvetica,sans-Serif" font-size="10.00">/src/MeshFeatureTrackingComponent.cpp</text>
</a>
</g>
</g>
<!-- Node2&#45;&gt;Node21 -->
<g id="edge21" class="edge"><title>Node2&#45;&gt;Node21</title>
<path fill="none" stroke="midnightblue" d="M1723.03,-284.361C1909.32,-284.06 2370.69,-277.243 2752,-222 2755.2,-221.536 2758.45,-221.023 2761.73,-220.471"/>
<polygon fill="midnightblue" stroke="midnightblue" points="1723.03,-280.861 1713.03,-284.371 1723.03,-287.861 1723.03,-280.861"/>
</g>
<!-- Node22 -->
<g id="node22" class="node"><title>Node22</title>
<g id="a_node22"><a xlink:href="MeshPaintComponent_8cpp.html" target="_top" xlink:title="/home/travis/build\l/STORM&#45;IRIT/Radium&#45;Engine\l/Plugins/MeshPaint/src/MeshPaint\lComponent.cpp">
<polygon fill="white" stroke="black" points="2980.5,-169 2980.5,-221 3147.5,-221 3147.5,-169 2980.5,-169"/>
<text text-anchor="start" x="2988.5" y="-209" font-family="Helvetica,sans-Serif" font-size="10.00">/home/travis/build</text>
<text text-anchor="start" x="2988.5" y="-198" font-family="Helvetica,sans-Serif" font-size="10.00">/STORM&#45;IRIT/Radium&#45;Engine</text>
<text text-anchor="start" x="2988.5" y="-187" font-family="Helvetica,sans-Serif" font-size="10.00">/Plugins/MeshPaint/src/MeshPaint</text>
<text text-anchor="middle" x="3064" y="-176" font-family="Helvetica,sans-Serif" font-size="10.00">Component.cpp</text>
</a>
</g>
</g>
<!-- Node2&#45;&gt;Node22 -->
<g id="edge22" class="edge"><title>Node2&#45;&gt;Node22</title>
<path fill="none" stroke="midnightblue" d="M1723.6,-282.562C1977.32,-277.852 2729.22,-260.909 2971,-222 2974.06,-221.507 2977.17,-220.95 2980.29,-220.34"/>
<polygon fill="midnightblue" stroke="midnightblue" points="1723.27,-279.067 1713.34,-282.75 1723.4,-286.066 1723.27,-279.067"/>
</g>
<!-- Node23 -->
<g id="node23" class="node"><title>Node23</title>
<g id="a_node23"><a xlink:href="SkinningDisplayComponent_8hpp.html" target="_top" xlink:title="/home/travis/build\l/STORM&#45;IRIT/Radium&#45;Engine\l/Plugins/Skinning/src/Display\l/SkinningDisplayComponent.hpp">
<polygon fill="white" stroke="black" points="3165.5,-169 3165.5,-221 3324.5,-221 3324.5,-169 3165.5,-169"/>
<text text-anchor="start" x="3173.5" y="-209" font-family="Helvetica,sans-Serif" font-size="10.00">/home/travis/build</text>
<text text-anchor="start" x="3173.5" y="-198" font-family="Helvetica,sans-Serif" font-size="10.00">/STORM&#45;IRIT/Radium&#45;Engine</text>
<text text-anchor="start" x="3173.5" y="-187" font-family="Helvetica,sans-Serif" font-size="10.00">/Plugins/Skinning/src/Display</text>
<text text-anchor="middle" x="3245" y="-176" font-family="Helvetica,sans-Serif" font-size="10.00">/SkinningDisplayComponent.hpp</text>
</a>
</g>
</g>
<!-- Node2&#45;&gt;Node23 -->
<g id="edge23" class="edge"><title>Node2&#45;&gt;Node23</title>
<path fill="none" stroke="midnightblue" d="M1723.71,-283.247C2000.59,-280.359 2877.04,-267.745 3156,-222 3159.02,-221.505 3162.08,-220.94 3165.16,-220.319"/>
<polygon fill="midnightblue" stroke="midnightblue" points="1723.29,-279.751 1713.33,-283.353 1723.36,-286.75 1723.29,-279.751"/>
</g>
<!-- Node16 -->
<g id="node16" class="node"><title>Node16</title>
<g id="a_node16"><a xlink:href="AnimationComponent_8cpp.html" target="_top" xlink:title="/home/travis/build\l/STORM&#45;IRIT/Radium&#45;Engine\l/Plugins/Animation/src/Animation\lComponent.cpp">
<polygon fill="white" stroke="black" points="1983.5,-79 1983.5,-131 2144.5,-131 2144.5,-79 1983.5,-79"/>
<text text-anchor="start" x="1991.5" y="-119" font-family="Helvetica,sans-Serif" font-size="10.00">/home/travis/build</text>
<text text-anchor="start" x="1991.5" y="-108" font-family="Helvetica,sans-Serif" font-size="10.00">/STORM&#45;IRIT/Radium&#45;Engine</text>
<text text-anchor="start" x="1991.5" y="-97" font-family="Helvetica,sans-Serif" font-size="10.00">/Plugins/Animation/src/Animation</text>
<text text-anchor="middle" x="2064" y="-86" font-family="Helvetica,sans-Serif" font-size="10.00">Component.cpp</text>
</a>
</g>
</g>
<!-- Node15&#45;&gt;Node16 -->
<g id="edge16" class="edge"><title>Node15&#45;&gt;Node16</title>
<path fill="none" stroke="midnightblue" d="M2182.48,-164.249C2160.55,-153.468 2136.02,-141.407 2114.99,-131.069"/>
<polygon fill="midnightblue" stroke="midnightblue" points="2181.19,-167.512 2191.71,-168.783 2184.28,-161.23 2181.19,-167.512"/>
</g>
<!-- Node17 -->
<g id="node17" class="node"><title>Node17</title>
<g id="a_node17"><a xlink:href="AnimationSystem_8cpp.html" target="_top" xlink:title="/home/travis/build\l/STORM&#45;IRIT/Radium&#45;Engine\l/Plugins/Animation/src/Animation\lSystem.cpp">
<polygon fill="white" stroke="black" points="2162.5,-79 2162.5,-131 2323.5,-131 2323.5,-79 2162.5,-79"/>
<text text-anchor="start" x="2170.5" y="-119" font-family="Helvetica,sans-Serif" font-size="10.00">/home/travis/build</text>
<text text-anchor="start" x="2170.5" y="-108" font-family="Helvetica,sans-Serif" font-size="10.00">/STORM&#45;IRIT/Radium&#45;Engine</text>
<text text-anchor="start" x="2170.5" y="-97" font-family="Helvetica,sans-Serif" font-size="10.00">/Plugins/Animation/src/Animation</text>
<text text-anchor="middle" x="2243" y="-86" font-family="Helvetica,sans-Serif" font-size="10.00">System.cpp</text>
</a>
</g>
</g>
<!-- Node15&#45;&gt;Node17 -->
<g id="edge17" class="edge"><title>Node15&#45;&gt;Node17</title>
<path fill="none" stroke="midnightblue" d="M2243,-158.489C2243,-149.309 2243,-139.616 2243,-131.092"/>
<polygon fill="midnightblue" stroke="midnightblue" points="2239.5,-158.547 2243,-168.547 2246.5,-158.547 2239.5,-158.547"/>
</g>
<!-- Node18 -->
<g id="node18" class="node"><title>Node18</title>
<g id="a_node18"><a xlink:href="SkeletonBoneDrawable_8cpp.html" target="_top" xlink:title="/home/travis/build\l/STORM&#45;IRIT/Radium&#45;Engine\l/Plugins/Animation/src/Drawing\l/SkeletonBoneDrawable.cpp">
<polygon fill="white" stroke="black" points="2342,-79 2342,-131 2496,-131 2496,-79 2342,-79"/>
<text text-anchor="start" x="2350" y="-119" font-family="Helvetica,sans-Serif" font-size="10.00">/home/travis/build</text>
<text text-anchor="start" x="2350" y="-108" font-family="Helvetica,sans-Serif" font-size="10.00">/STORM&#45;IRIT/Radium&#45;Engine</text>
<text text-anchor="start" x="2350" y="-97" font-family="Helvetica,sans-Serif" font-size="10.00">/Plugins/Animation/src/Drawing</text>
<text text-anchor="middle" x="2419" y="-86" font-family="Helvetica,sans-Serif" font-size="10.00">/SkeletonBoneDrawable.cpp</text>
</a>
</g>
</g>
<!-- Node15&#45;&gt;Node18 -->
<g id="edge18" class="edge"><title>Node15&#45;&gt;Node18</title>
<path fill="none" stroke="midnightblue" d="M2302.5,-164.249C2324.06,-153.468 2348.19,-141.407 2368.86,-131.069"/>
<polygon fill="midnightblue" stroke="midnightblue" points="2300.81,-161.18 2293.43,-168.783 2303.94,-167.441 2300.81,-161.18"/>
</g>
<!-- Node24 -->
<g id="node24" class="node"><title>Node24</title>
<g id="a_node24"><a xlink:href="SkinningSystem_8hpp.html" target="_top" xlink:title="/home/travis/build\l/STORM&#45;IRIT/Radium&#45;Engine\l/Plugins/Skinning/src/SkinningSystem.hpp">
<polygon fill="white" stroke="black" points="3144,-84.5 3144,-125.5 3346,-125.5 3346,-84.5 3144,-84.5"/>
<text text-anchor="start" x="3152" y="-113.5" font-family="Helvetica,sans-Serif" font-size="10.00">/home/travis/build</text>
<text text-anchor="start" x="3152" y="-102.5" font-family="Helvetica,sans-Serif" font-size="10.00">/STORM&#45;IRIT/Radium&#45;Engine</text>
<text text-anchor="middle" x="3245" y="-91.5" font-family="Helvetica,sans-Serif" font-size="10.00">/Plugins/Skinning/src/SkinningSystem.hpp</text>
</a>
</g>
</g>
<!-- Node23&#45;&gt;Node24 -->
<g id="edge24" class="edge"><title>Node23&#45;&gt;Node24</title>
<path fill="none" stroke="midnightblue" d="M3245,-158.515C3245,-147.257 3245,-135.227 3245,-125.525"/>
<polygon fill="midnightblue" stroke="midnightblue" points="3241.5,-158.547 3245,-168.547 3248.5,-158.547 3241.5,-158.547"/>
</g>
<!-- Node25 -->
<g id="node25" class="node"><title>Node25</title>
<g id="a_node25"><a xlink:href="SkinningPlugin_8cpp.html" target="_top" xlink:title="/home/travis/build\l/STORM&#45;IRIT/Radium&#45;Engine\l/Plugins/Skinning/src/SkinningPlugin.cpp">
<polygon fill="white" stroke="black" points="3147.5,-0.5 3147.5,-41.5 3342.5,-41.5 3342.5,-0.5 3147.5,-0.5"/>
<text text-anchor="start" x="3155.5" y="-29.5" font-family="Helvetica,sans-Serif" font-size="10.00">/home/travis/build</text>
<text text-anchor="start" x="3155.5" y="-18.5" font-family="Helvetica,sans-Serif" font-size="10.00">/STORM&#45;IRIT/Radium&#45;Engine</text>
<text text-anchor="middle" x="3245" y="-7.5" font-family="Helvetica,sans-Serif" font-size="10.00">/Plugins/Skinning/src/SkinningPlugin.cpp</text>
</a>
</g>
</g>
<!-- Node24&#45;&gt;Node25 -->
<g id="edge25" class="edge"><title>Node24&#45;&gt;Node25</title>
<path fill="none" stroke="midnightblue" d="M3245,-73.881C3245,-63.1328 3245,-51.309 3245,-41.6671"/>
<polygon fill="midnightblue" stroke="midnightblue" points="3241.5,-74.1501 3245,-84.1501 3248.5,-74.1501 3241.5,-74.1501"/>
</g>
</g>
</svg>
