<?xml version="1.0" encoding="UTF-8" standalone="no"?>
<!DOCTYPE svg PUBLIC "-//W3C//DTD SVG 1.1//EN"
 "http://www.w3.org/Graphics/SVG/1.1/DTD/svg11.dtd">
<!-- Generated by graphviz version 2.36.0 (20140111.2315)
 -->
<!-- Title: Ra::Core::Geometry::barycentricArea Pages: 1 -->
<svg width="536pt" height="94pt"
 viewBox="0.00 0.00 536.00 94.00" xmlns="http://www.w3.org/2000/svg" xmlns:xlink="http://www.w3.org/1999/xlink">
<g id="graph0" class="graph" transform="scale(1 1) rotate(0) translate(4 90)">
<title>Ra::Core::Geometry::barycentricArea</title>
<polygon fill="white" stroke="none" points="-4,4 -4,-90 532,-90 532,4 -4,4"/>
<!-- Node1 -->
<g id="node1" class="node"><title>Node1</title>
<polygon fill="#bfbfbf" stroke="black" points="0.5,-17 0.5,-47 105.5,-47 105.5,-17 0.5,-17"/>
<text text-anchor="start" x="8.5" y="-35" font-family="Helvetica,sans-Serif" font-size="10.00">Ra::Core::Geometry</text>
<text text-anchor="middle" x="53" y="-24" font-family="Helvetica,sans-Serif" font-size="10.00">::barycentricArea</text>
</g>
<!-- Node2 -->
<g id="node2" class="node"><title>Node2</title>
<g id="a_node2"><a xlink:href="namespaceRa_1_1Core_1_1Geometry.html#a8766f80f492f927882253cf20ccd345f" target="_top" xlink:title="GLOBAL MATRIX ///. ">
<polygon fill="white" stroke="black" points="142.5,-39 142.5,-69 247.5,-69 247.5,-39 142.5,-39"/>
<text text-anchor="start" x="150.5" y="-57" font-family="Helvetica,sans-Serif" font-size="10.00">Ra::Core::Geometry</text>
<text text-anchor="middle" x="195" y="-46" font-family="Helvetica,sans-Serif" font-size="10.00">::oneRingArea</text>
</a>
</g>
</g>
<!-- Node1&#45;&gt;Node2 -->
<g id="edge1" class="edge"><title>Node1&#45;&gt;Node2</title>
<path fill="none" stroke="midnightblue" d="M105.733,-40.1295C114.448,-41.499 123.57,-42.9324 132.504,-44.3364"/>
<polygon fill="midnightblue" stroke="midnightblue" points="132.057,-47.809 142.48,-45.9039 133.144,-40.8939 132.057,-47.809"/>
</g>
<!-- Node7 -->
<g id="node7" class="node"><title>Node7</title>
<g id="a_node7"><a xlink:href="namespaceRa_1_1Core.html#abc0a3625137098b67838fe52edd480f9" target="_top" xlink:title="SIZE. ">
<polygon fill="white" stroke="black" points="155,-0.5 155,-19.5 235,-19.5 235,-0.5 155,-0.5"/>
<text text-anchor="middle" x="195" y="-7.5" font-family="Helvetica,sans-Serif" font-size="10.00">Ra::Core::size</text>
</a>
</g>
</g>
<!-- Node1&#45;&gt;Node7 -->
<g id="edge6" class="edge"><title>Node1&#45;&gt;Node7</title>
<path fill="none" stroke="midnightblue" d="M105.733,-23.8705C118.517,-21.8616 132.175,-19.7153 144.833,-17.7262"/>
<polygon fill="midnightblue" stroke="midnightblue" points="145.399,-21.1803 154.735,-16.1703 144.312,-14.2652 145.399,-21.1803"/>
</g>
<!-- Node3 -->
<g id="node3" class="node"><title>Node3</title>
<g id="a_node3"><a xlink:href="namespaceRa_1_1Core_1_1Algorithm.html#aea294cdb6f4f0d85955bdcccb22886ec" target="_top" xlink:title="Ra::Core::Algorithm::t">
<polygon fill="white" stroke="black" points="284.5,-66.5 284.5,-85.5 397.5,-85.5 397.5,-66.5 284.5,-66.5"/>
<text text-anchor="middle" x="341" y="-73.5" font-family="Helvetica,sans-Serif" font-size="10.00">Ra::Core::Algorithm::t</text>
</a>
</g>
</g>
<!-- Node2&#45;&gt;Node3 -->
<g id="edge2" class="edge"><title>Node2&#45;&gt;Node3</title>
<path fill="none" stroke="midnightblue" d="M247.581,-61.8804C256.259,-63.2062 265.368,-64.5979 274.345,-65.9693"/>
<polygon fill="midnightblue" stroke="midnightblue" points="273.98,-69.4541 284.393,-67.5046 275.037,-62.5344 273.98,-69.4541"/>
</g>
<!-- Node4 -->
<g id="node4" class="node"><title>Node4</title>
<g id="a_node4"><a xlink:href="namespaceRa_1_1Core_1_1Geometry.html#a178f2b7309fe2ea5bc31a3abcb25368e" target="_top" xlink:title="Ra::Core::Geometry\l::triangleArea">
<polygon fill="white" stroke="black" points="288.5,-17 288.5,-47 393.5,-47 393.5,-17 288.5,-17"/>
<text text-anchor="start" x="296.5" y="-35" font-family="Helvetica,sans-Serif" font-size="10.00">Ra::Core::Geometry</text>
<text text-anchor="middle" x="341" y="-24" font-family="Helvetica,sans-Serif" font-size="10.00">::triangleArea</text>
</a>
</g>
</g>
<!-- Node2&#45;&gt;Node4 -->
<g id="edge3" class="edge"><title>Node2&#45;&gt;Node4</title>
<path fill="none" stroke="midnightblue" d="M247.581,-46.1196C257.507,-44.6031 267.998,-43.0004 278.209,-41.4403"/>
<polygon fill="midnightblue" stroke="midnightblue" points="278.939,-44.8695 288.296,-39.8993 277.882,-37.9498 278.939,-44.8695"/>
</g>
<!-- Node5 -->
<g id="node5" class="node"><title>Node5</title>
<g id="a_node5"><a xlink:href="namespaceOpenMesh.html#a71e7f1dd3eac016d2b8245ac408a291c" target="_top" xlink:title="OpenMesh::cross">
<polygon fill="white" stroke="black" points="434,-41.5 434,-60.5 528,-60.5 528,-41.5 434,-41.5"/>
<text text-anchor="middle" x="481" y="-48.5" font-family="Helvetica,sans-Serif" font-size="10.00">OpenMesh::cross</text>
</a>
</g>
</g>
<!-- Node4&#45;&gt;Node5 -->
<g id="edge4" class="edge"><title>Node4&#45;&gt;Node5</title>
<path fill="none" stroke="midnightblue" d="M393.779,-39.129C403.542,-40.4732 413.797,-41.885 423.691,-43.2473"/>
<polygon fill="midnightblue" stroke="midnightblue" points="423.451,-46.7472 433.835,-44.644 424.406,-39.8126 423.451,-46.7472"/>
</g>
<!-- Node6 -->
<g id="node6" class="node"><title>Node6</title>
<g id="a_node6"><a xlink:href="namespaceOpenMesh.html#a8205f789ce08919bc11c58383574596c" target="_top" xlink:title="OpenMesh::norm">
<polygon fill="white" stroke="black" points="435,-3.5 435,-22.5 527,-22.5 527,-3.5 435,-3.5"/>
<text text-anchor="middle" x="481" y="-10.5" font-family="Helvetica,sans-Serif" font-size="10.00">OpenMesh::norm</text>
</a>
</g>
</g>
<!-- Node4&#45;&gt;Node6 -->
<g id="edge5" class="edge"><title>Node4&#45;&gt;Node6</title>
<path fill="none" stroke="midnightblue" d="M393.779,-24.871C403.874,-23.4811 414.495,-22.0188 424.699,-20.6139"/>
<polygon fill="midnightblue" stroke="midnightblue" points="425.301,-24.0641 434.73,-19.2328 424.346,-17.1296 425.301,-24.0641"/>
</g>
</g>
</svg>
