<?xml version="1.0" encoding="UTF-8" standalone="no"?>
<!DOCTYPE svg PUBLIC "-//W3C//DTD SVG 1.1//EN"
 "http://www.w3.org/Graphics/SVG/1.1/DTD/svg11.dtd">
<!-- Generated by graphviz version 2.36.0 (20140111.2315)
 -->
<!-- Title: Ra::Engine::sendGLData Pages: 1 -->
<svg width="502pt" height="77pt"
 viewBox="0.00 0.00 502.00 77.00" xmlns="http://www.w3.org/2000/svg" xmlns:xlink="http://www.w3.org/1999/xlink">
<g id="graph0" class="graph" transform="scale(1 1) rotate(0) translate(4 73)">
<title>Ra::Engine::sendGLData</title>
<polygon fill="white" stroke="none" points="-4,4 -4,-73 498,-73 498,4 -4,4"/>
<!-- Node1 -->
<g id="node1" class="node"><title>Node1</title>
<polygon fill="#bfbfbf" stroke="black" points="0,-27.5 0,-46.5 126,-46.5 126,-27.5 0,-27.5"/>
<text text-anchor="middle" x="63" y="-34.5" font-family="Helvetica,sans-Serif" font-size="10.00">Ra::Engine::sendGLData</text>
</g>
<!-- Node2 -->
<g id="node2" class="node"><title>Node2</title>
<g id="a_node2"><a xlink:href="namespaceRa_1_1Core.html#abc0a3625137098b67838fe52edd480f9" target="_top" xlink:title="SIZE. ">
<polygon fill="white" stroke="black" points="191,-49.5 191,-68.5 271,-68.5 271,-49.5 191,-49.5"/>
<text text-anchor="middle" x="231" y="-56.5" font-family="Helvetica,sans-Serif" font-size="10.00">Ra::Core::size</text>
</a>
</g>
</g>
<!-- Node1&#45;&gt;Node2 -->
<g id="edge1" class="edge"><title>Node1&#45;&gt;Node2</title>
<path fill="none" stroke="midnightblue" d="M126.285,-45.2546C144.112,-47.6173 163.302,-50.1605 180.269,-52.4091"/>
<polygon fill="midnightblue" stroke="midnightblue" points="180.141,-55.9227 190.514,-53.7669 181.06,-48.9834 180.141,-55.9227"/>
</g>
<!-- Node3 -->
<g id="node3" class="node"><title>Node3</title>
<g id="a_node3"><a xlink:href="namespaceRa_1_1Engine_1_1DrawPrimitives.html#a28eb884990e6514358e494fe87dfe751" target="_top" xlink:title="Displays given vector shown as an arrow originating from &#39;start&#39;. ">
<polygon fill="white" stroke="black" points="162,-0 162,-30 300,-30 300,-0 162,-0"/>
<text text-anchor="start" x="170" y="-18" font-family="Helvetica,sans-Serif" font-size="10.00">Ra::Engine::DrawPrimitives</text>
<text text-anchor="middle" x="231" y="-7" font-family="Helvetica,sans-Serif" font-size="10.00">::Vector</text>
</a>
</g>
</g>
<!-- Node1&#45;&gt;Node3 -->
<g id="edge2" class="edge"><title>Node1&#45;&gt;Node3</title>
<path fill="none" stroke="midnightblue" d="M126.285,-28.7454C134.616,-27.6412 143.245,-26.4976 151.806,-25.3631"/>
<polygon fill="midnightblue" stroke="midnightblue" points="152.349,-28.8218 161.802,-24.0383 151.429,-21.8825 152.349,-28.8218"/>
</g>
<!-- Node4 -->
<g id="node4" class="node"><title>Node4</title>
<g id="a_node4"><a xlink:href="namespaceRa_1_1Core_1_1Vector.html#a0464b705193d326a5102691dd58d753d" target="_top" xlink:title="Get two vectors orthogonal to a given vector. ">
<polygon fill="white" stroke="black" points="336,-0 336,-30 494,-30 494,-0 336,-0"/>
<text text-anchor="start" x="344" y="-18" font-family="Helvetica,sans-Serif" font-size="10.00">Ra::Core::Vector::getOrthogonal</text>
<text text-anchor="middle" x="415" y="-7" font-family="Helvetica,sans-Serif" font-size="10.00">Vectors</text>
</a>
</g>
</g>
<!-- Node3&#45;&gt;Node4 -->
<g id="edge3" class="edge"><title>Node3&#45;&gt;Node4</title>
<path fill="none" stroke="midnightblue" d="M300.029,-15C308.447,-15 317.146,-15 325.81,-15"/>
<polygon fill="midnightblue" stroke="midnightblue" points="325.947,-18.5001 335.947,-15 325.947,-11.5001 325.947,-18.5001"/>
</g>
</g>
</svg>
