<?xml version="1.0" encoding="UTF-8" standalone="no"?>
<!DOCTYPE svg PUBLIC "-//W3C//DTD SVG 1.1//EN"
 "http://www.w3.org/Graphics/SVG/1.1/DTD/svg11.dtd">
<!-- Generated by graphviz version 2.36.0 (20140111.2315)
 -->
<!-- Title: Ra::Core::AdjacencyQueries::getAdjacentFaces Pages: 1 -->
<svg width="476pt" height="66pt"
 viewBox="0.00 0.00 476.00 66.00" xmlns="http://www.w3.org/2000/svg" xmlns:xlink="http://www.w3.org/1999/xlink">
<g id="graph0" class="graph" transform="scale(1 1) rotate(0) translate(4 62)">
<title>Ra::Core::AdjacencyQueries::getAdjacentFaces</title>
<polygon fill="white" stroke="none" points="-4,4 -4,-62 472,-62 472,4 -4,4"/>
<!-- Node1 -->
<g id="node1" class="node"><title>Node1</title>
<polygon fill="#bfbfbf" stroke="black" points="0,-14 0,-44 142,-44 142,-14 0,-14"/>
<text text-anchor="start" x="8" y="-32" font-family="Helvetica,sans-Serif" font-size="10.00">Ra::Core::AdjacencyQueries</text>
<text text-anchor="middle" x="71" y="-21" font-family="Helvetica,sans-Serif" font-size="10.00">::getAdjacentFaces</text>
</g>
<!-- Node2 -->
<g id="node2" class="node"><title>Node2</title>
<g id="a_node2"><a xlink:href="classRa_1_1Core_1_1HalfEdgeData.html#ad52873bdccbdbbcca5829f8386cf6984" target="_top" xlink:title="Returns one of the half edges around given triangle. ">
<polygon fill="white" stroke="black" points="178.5,-14 178.5,-44 309.5,-44 309.5,-14 178.5,-14"/>
<text text-anchor="start" x="186.5" y="-32" font-family="Helvetica,sans-Serif" font-size="10.00">Ra::Core::HalfEdgeData</text>
<text text-anchor="middle" x="244" y="-21" font-family="Helvetica,sans-Serif" font-size="10.00">::getFirstTriangleHalfEdge</text>
</a>
</g>
</g>
<!-- Node1&#45;&gt;Node2 -->
<g id="edge1" class="edge"><title>Node1&#45;&gt;Node2</title>
<path fill="none" stroke="midnightblue" d="M142.046,-29C150.664,-29 159.499,-29 168.184,-29"/>
<polygon fill="midnightblue" stroke="midnightblue" points="168.289,-32.5001 178.289,-29 168.289,-25.5001 168.289,-32.5001"/>
</g>
<!-- Node3 -->
<g id="node3" class="node"><title>Node3</title>
<g id="a_node3"><a xlink:href="classRa_1_1Core_1_1Index.html#a87c70243f30c65c1a24834d1829bda01" target="_top" xlink:title="DESTRUCTOR: Must not be defined, we need it trivial to be constexpr. ">
<polygon fill="white" stroke="black" points="346,-38.5 346,-57.5 468,-57.5 468,-38.5 346,-38.5"/>
<text text-anchor="middle" x="407" y="-45.5" font-family="Helvetica,sans-Serif" font-size="10.00">Ra::Core::Index::isValid</text>
</a>
</g>
</g>
<!-- Node2&#45;&gt;Node3 -->
<g id="edge2" class="edge"><title>Node2&#45;&gt;Node3</title>
<path fill="none" stroke="midnightblue" d="M309.557,-36.6185C318.172,-37.6352 327.04,-38.6817 335.745,-39.7091"/>
<polygon fill="midnightblue" stroke="midnightblue" points="335.524,-43.2072 345.865,-40.9034 336.344,-36.2554 335.524,-43.2072"/>
</g>
<!-- Node4 -->
<g id="node4" class="node"><title>Node4</title>
<g id="a_node4"><a xlink:href="namespaceRa_1_1Core_1_1Algorithm.html#aea294cdb6f4f0d85955bdcccb22886ec" target="_top" xlink:title="Ra::Core::Algorithm::t">
<polygon fill="white" stroke="black" points="350.5,-0.5 350.5,-19.5 463.5,-19.5 463.5,-0.5 350.5,-0.5"/>
<text text-anchor="middle" x="407" y="-7.5" font-family="Helvetica,sans-Serif" font-size="10.00">Ra::Core::Algorithm::t</text>
</a>
</g>
</g>
<!-- Node2&#45;&gt;Node4 -->
<g id="edge3" class="edge"><title>Node2&#45;&gt;Node4</title>
<path fill="none" stroke="midnightblue" d="M309.557,-21.3815C319.727,-20.1813 330.251,-18.9394 340.443,-17.7365"/>
<polygon fill="midnightblue" stroke="midnightblue" points="340.979,-21.1977 350.5,-16.5497 340.158,-14.2459 340.979,-21.1977"/>
</g>
</g>
</svg>
