<?xml version="1.0" encoding="UTF-8" standalone="no"?>
<!DOCTYPE svg PUBLIC "-//W3C//DTD SVG 1.1//EN"
 "http://www.w3.org/Graphics/SVG/1.1/DTD/svg11.dtd">
<!-- Generated by graphviz version 2.36.0 (20140111.2315)
 -->
<!-- Title: Ra::Core::Animation::interpolatePoses Pages: 1 -->
<svg width="264pt" height="66pt"
 viewBox="0.00 0.00 264.00 66.00" xmlns="http://www.w3.org/2000/svg" xmlns:xlink="http://www.w3.org/1999/xlink">
<g id="graph0" class="graph" transform="scale(1 1) rotate(0) translate(4 62)">
<title>Ra::Core::Animation::interpolatePoses</title>
<polygon fill="white" stroke="none" points="-4,4 -4,-62 260,-62 260,4 -4,4"/>
<!-- Node1 -->
<g id="node1" class="node"><title>Node1</title>
<polygon fill="#bfbfbf" stroke="black" points="0,-14 0,-44 106,-44 106,-14 0,-14"/>
<text text-anchor="start" x="8" y="-32" font-family="Helvetica,sans-Serif" font-size="10.00">Ra::Core::Animation</text>
<text text-anchor="middle" x="53" y="-21" font-family="Helvetica,sans-Serif" font-size="10.00">::interpolatePoses</text>
</g>
<!-- Node2 -->
<g id="node2" class="node"><title>Node2</title>
<g id="a_node2"><a xlink:href="namespaceRa_1_1Core.html#abc0a3625137098b67838fe52edd480f9" target="_top" xlink:title="SIZE. ">
<polygon fill="white" stroke="black" points="159,-38.5 159,-57.5 239,-57.5 239,-38.5 159,-38.5"/>
<text text-anchor="middle" x="199" y="-45.5" font-family="Helvetica,sans-Serif" font-size="10.00">Ra::Core::size</text>
</a>
</g>
</g>
<!-- Node1&#45;&gt;Node2 -->
<g id="edge1" class="edge"><title>Node1&#45;&gt;Node2</title>
<path fill="none" stroke="midnightblue" d="M106.395,-35.9132C120.236,-37.7395 135.124,-39.7039 148.791,-41.5071"/>
<polygon fill="midnightblue" stroke="midnightblue" points="148.594,-45.0114 158.966,-42.8497 149.51,-38.0716 148.594,-45.0114"/>
</g>
<!-- Node3 -->
<g id="node3" class="node"><title>Node3</title>
<g id="a_node3"><a xlink:href="namespaceRa_1_1Core_1_1Algorithm.html#aea294cdb6f4f0d85955bdcccb22886ec" target="_top" xlink:title="Ra::Core::Algorithm::t">
<polygon fill="white" stroke="black" points="142.5,-0.5 142.5,-19.5 255.5,-19.5 255.5,-0.5 142.5,-0.5"/>
<text text-anchor="middle" x="199" y="-7.5" font-family="Helvetica,sans-Serif" font-size="10.00">Ra::Core::Algorithm::t</text>
</a>
</g>
</g>
<!-- Node1&#45;&gt;Node3 -->
<g id="edge2" class="edge"><title>Node1&#45;&gt;Node3</title>
<path fill="none" stroke="midnightblue" d="M106.395,-22.0868C114.833,-20.9734 123.661,-19.8086 132.364,-18.6604"/>
<polygon fill="midnightblue" stroke="midnightblue" points="133.035,-22.1021 142.492,-17.324 132.12,-15.1623 133.035,-22.1021"/>
</g>
</g>
</svg>
