<?xml version="1.0" encoding="UTF-8" standalone="no"?>
<!DOCTYPE svg PUBLIC "-//W3C//DTD SVG 1.1//EN"
 "http://www.w3.org/Graphics/SVG/1.1/DTD/svg11.dtd">
<!-- Generated by graphviz version 2.36.0 (20140111.2315)
 -->
<!-- Title: Ra::Core::Geometry::areaWeightedNormal Pages: 1 -->
<svg width="434pt" height="224pt"
 viewBox="0.00 0.00 434.00 224.00" xmlns="http://www.w3.org/2000/svg" xmlns:xlink="http://www.w3.org/1999/xlink">
<g id="graph0" class="graph" transform="scale(1 1) rotate(0) translate(4 220)">
<title>Ra::Core::Geometry::areaWeightedNormal</title>
<polygon fill="white" stroke="none" points="-4,4 -4,-220 430,-220 430,4 -4,4"/>
<!-- Node1 -->
<g id="node1" class="node"><title>Node1</title>
<polygon fill="#bfbfbf" stroke="black" points="0,-98 0,-128 114,-128 114,-98 0,-98"/>
<text text-anchor="start" x="8" y="-116" font-family="Helvetica,sans-Serif" font-size="10.00">Ra::Core::Geometry</text>
<text text-anchor="middle" x="57" y="-105" font-family="Helvetica,sans-Serif" font-size="10.00">::areaWeightedNormal</text>
</g>
<!-- Node2 -->
<g id="node2" class="node"><title>Node2</title>
<g id="a_node2"><a xlink:href="namespaceRa_1_1Core.html#a28c10004edc39878acecb94c2ca5b837" target="_top" xlink:title="NORMAL. ">
<polygon fill="white" stroke="black" points="175,-196.5 175,-215.5 245,-215.5 245,-196.5 175,-196.5"/>
<text text-anchor="middle" x="210" y="-203.5" font-family="Helvetica,sans-Serif" font-size="10.00">Ra::Core::N</text>
</a>
</g>
</g>
<!-- Node1&#45;&gt;Node2 -->
<g id="edge1" class="edge"><title>Node1&#45;&gt;Node2</title>
<path fill="none" stroke="midnightblue" d="M73.4109,-128.014C90.7775,-144.233 120.456,-169.907 150,-186 154.808,-188.619 160.022,-190.985 165.293,-193.094"/>
<polygon fill="midnightblue" stroke="midnightblue" points="164.174,-196.412 174.767,-196.615 166.613,-189.851 164.174,-196.412"/>
</g>
<!-- Node3 -->
<g id="node3" class="node"><title>Node3</title>
<g id="a_node3"><a xlink:href="classRa_1_1Core_1_1CircularIndex.html#a209650affef46390ab727a90c8b51920" target="_top" xlink:title="Ra::Core::CircularIndex\l::setSize">
<polygon fill="white" stroke="black" points="150,-147 150,-177 270,-177 270,-147 150,-147"/>
<text text-anchor="start" x="158" y="-165" font-family="Helvetica,sans-Serif" font-size="10.00">Ra::Core::CircularIndex</text>
<text text-anchor="middle" x="210" y="-154" font-family="Helvetica,sans-Serif" font-size="10.00">::setSize</text>
</a>
</g>
</g>
<!-- Node1&#45;&gt;Node3 -->
<g id="edge2" class="edge"><title>Node1&#45;&gt;Node3</title>
<path fill="none" stroke="midnightblue" d="M104.537,-128.101C119.822,-133.062 136.974,-138.627 152.892,-143.793"/>
<polygon fill="midnightblue" stroke="midnightblue" points="152.025,-147.191 162.617,-146.948 154.185,-140.533 152.025,-147.191"/>
</g>
<!-- Node5 -->
<g id="node5" class="node"><title>Node5</title>
<g id="a_node5"><a xlink:href="classRa_1_1Core_1_1CircularIndex.html#a748a857d5d9affc123a4ecc9c5ffc344" target="_top" xlink:title="Ra::Core::CircularIndex\l::setValue">
<polygon fill="white" stroke="black" points="150,-98 150,-128 270,-128 270,-98 150,-98"/>
<text text-anchor="start" x="158" y="-116" font-family="Helvetica,sans-Serif" font-size="10.00">Ra::Core::CircularIndex</text>
<text text-anchor="middle" x="210" y="-105" font-family="Helvetica,sans-Serif" font-size="10.00">::setValue</text>
</a>
</g>
</g>
<!-- Node1&#45;&gt;Node5 -->
<g id="edge4" class="edge"><title>Node1&#45;&gt;Node5</title>
<path fill="none" stroke="midnightblue" d="M114.227,-113C122.604,-113 131.32,-113 139.925,-113"/>
<polygon fill="midnightblue" stroke="midnightblue" points="139.947,-116.5 149.947,-113 139.947,-109.5 139.947,-116.5"/>
</g>
<!-- Node6 -->
<g id="node6" class="node"><title>Node6</title>
<g id="a_node6"><a xlink:href="namespaceRa_1_1Core_1_1Geometry.html#a178f2b7309fe2ea5bc31a3abcb25368e" target="_top" xlink:title="Ra::Core::Geometry\l::triangleArea">
<polygon fill="white" stroke="black" points="157.5,-0 157.5,-30 262.5,-30 262.5,-0 157.5,-0"/>
<text text-anchor="start" x="165.5" y="-18" font-family="Helvetica,sans-Serif" font-size="10.00">Ra::Core::Geometry</text>
<text text-anchor="middle" x="210" y="-7" font-family="Helvetica,sans-Serif" font-size="10.00">::triangleArea</text>
</a>
</g>
</g>
<!-- Node1&#45;&gt;Node6 -->
<g id="edge5" class="edge"><title>Node1&#45;&gt;Node6</title>
<path fill="none" stroke="midnightblue" d="M73.8799,-97.8032C91.4189,-81.6231 121.027,-56.0482 150,-39 152.677,-37.4245 155.478,-35.9058 158.342,-34.4503"/>
<polygon fill="midnightblue" stroke="midnightblue" points="160.11,-37.485 167.633,-30.0252 157.1,-31.1651 160.11,-37.485"/>
</g>
<!-- Node9 -->
<g id="node9" class="node"><title>Node9</title>
<g id="a_node9"><a xlink:href="namespaceRa_1_1Core_1_1Geometry.html#a2ce97206423345716bf1b55f60c1c227" target="_top" xlink:title="Ra::Core::Geometry\l::triangleNormal">
<polygon fill="white" stroke="black" points="157.5,-49 157.5,-79 262.5,-79 262.5,-49 157.5,-49"/>
<text text-anchor="start" x="165.5" y="-67" font-family="Helvetica,sans-Serif" font-size="10.00">Ra::Core::Geometry</text>
<text text-anchor="middle" x="210" y="-56" font-family="Helvetica,sans-Serif" font-size="10.00">::triangleNormal</text>
</a>
</g>
</g>
<!-- Node1&#45;&gt;Node9 -->
<g id="edge8" class="edge"><title>Node1&#45;&gt;Node9</title>
<path fill="none" stroke="midnightblue" d="M104.537,-97.8986C119.822,-92.9385 136.974,-87.3726 152.892,-82.2071"/>
<polygon fill="midnightblue" stroke="midnightblue" points="154.185,-85.4673 162.617,-79.0516 152.025,-78.8091 154.185,-85.4673"/>
</g>
<!-- Node4 -->
<g id="node4" class="node"><title>Node4</title>
<g id="a_node4"><a xlink:href="classRa_1_1Core_1_1CircularIndex.html#a49f32351ed0de532b6b5f125c81ad2ae" target="_top" xlink:title="DIMENSION. ">
<polygon fill="white" stroke="black" points="306,-147 306,-177 426,-177 426,-147 306,-147"/>
<text text-anchor="start" x="314" y="-165" font-family="Helvetica,sans-Serif" font-size="10.00">Ra::Core::CircularIndex</text>
<text text-anchor="middle" x="366" y="-154" font-family="Helvetica,sans-Serif" font-size="10.00">::size</text>
</a>
</g>
</g>
<!-- Node3&#45;&gt;Node4 -->
<g id="edge3" class="edge"><title>Node3&#45;&gt;Node4</title>
<path fill="none" stroke="midnightblue" d="M270.1,-162C278.422,-162 287.039,-162 295.533,-162"/>
<polygon fill="midnightblue" stroke="midnightblue" points="295.804,-165.5 305.804,-162 295.804,-158.5 295.804,-165.5"/>
</g>
<!-- Node7 -->
<g id="node7" class="node"><title>Node7</title>
<g id="a_node7"><a xlink:href="namespaceOpenMesh.html#a71e7f1dd3eac016d2b8245ac408a291c" target="_top" xlink:title="OpenMesh::cross">
<polygon fill="white" stroke="black" points="319,-48.5 319,-67.5 413,-67.5 413,-48.5 319,-48.5"/>
<text text-anchor="middle" x="366" y="-55.5" font-family="Helvetica,sans-Serif" font-size="10.00">OpenMesh::cross</text>
</a>
</g>
</g>
<!-- Node6&#45;&gt;Node7 -->
<g id="edge6" class="edge"><title>Node6&#45;&gt;Node7</title>
<path fill="none" stroke="midnightblue" d="M262.708,-29.438C281.582,-34.708 302.737,-40.6149 320.889,-45.6833"/>
<polygon fill="midnightblue" stroke="midnightblue" points="320.058,-49.0851 330.631,-48.4035 321.941,-42.343 320.058,-49.0851"/>
</g>
<!-- Node8 -->
<g id="node8" class="node"><title>Node8</title>
<g id="a_node8"><a xlink:href="namespaceOpenMesh.html#a8205f789ce08919bc11c58383574596c" target="_top" xlink:title="OpenMesh::norm">
<polygon fill="white" stroke="black" points="320,-5.5 320,-24.5 412,-24.5 412,-5.5 320,-5.5"/>
<text text-anchor="middle" x="366" y="-12.5" font-family="Helvetica,sans-Serif" font-size="10.00">OpenMesh::norm</text>
</a>
</g>
</g>
<!-- Node6&#45;&gt;Node8 -->
<g id="edge7" class="edge"><title>Node6&#45;&gt;Node8</title>
<path fill="none" stroke="midnightblue" d="M262.708,-15C277.759,-15 294.261,-15 309.534,-15"/>
<polygon fill="midnightblue" stroke="midnightblue" points="309.878,-18.5001 319.878,-15 309.878,-11.5001 309.878,-18.5001"/>
</g>
<!-- Node9&#45;&gt;Node7 -->
<g id="edge9" class="edge"><title>Node9&#45;&gt;Node7</title>
<path fill="none" stroke="midnightblue" d="M262.708,-61.9854C277.475,-61.41 293.639,-60.7803 308.668,-60.1948"/>
<polygon fill="midnightblue" stroke="midnightblue" points="309.004,-63.6844 318.86,-59.7977 308.731,-56.6897 309.004,-63.6844"/>
</g>
</g>
</svg>
