<?xml version="1.0" encoding="UTF-8" standalone="no"?>
<!DOCTYPE svg PUBLIC "-//W3C//DTD SVG 1.1//EN"
 "http://www.w3.org/Graphics/SVG/1.1/DTD/svg11.dtd">
<!-- Generated by graphviz version 2.36.0 (20140111.2315)
 -->
<!-- Title: Ra::Core::Algorithm::gradientOfFieldS Pages: 1 -->
<svg width="392pt" height="164pt"
 viewBox="0.00 0.00 392.00 164.00" xmlns="http://www.w3.org/2000/svg" xmlns:xlink="http://www.w3.org/1999/xlink">
<g id="graph0" class="graph" transform="scale(1 1) rotate(0) translate(4 160)">
<title>Ra::Core::Algorithm::gradientOfFieldS</title>
<polygon fill="white" stroke="none" points="-4,4 -4,-160 388,-160 388,4 -4,4"/>
<!-- Node1 -->
<g id="node1" class="node"><title>Node1</title>
<polygon fill="#bfbfbf" stroke="black" points="0,-71 0,-101 104,-101 104,-71 0,-71"/>
<text text-anchor="start" x="8" y="-89" font-family="Helvetica,sans-Serif" font-size="10.00">Ra::Core::Algorithm</text>
<text text-anchor="middle" x="52" y="-78" font-family="Helvetica,sans-Serif" font-size="10.00">::gradientOfFieldS</text>
</g>
<!-- Node2 -->
<g id="node2" class="node"><title>Node2</title>
<g id="a_node2"><a xlink:href="namespaceRa_1_1Core_1_1Algorithm.html#aea294cdb6f4f0d85955bdcccb22886ec" target="_top" xlink:title="Ra::Core::Algorithm::t">
<polygon fill="white" stroke="black" points="140.5,-136.5 140.5,-155.5 253.5,-155.5 253.5,-136.5 140.5,-136.5"/>
<text text-anchor="middle" x="197" y="-143.5" font-family="Helvetica,sans-Serif" font-size="10.00">Ra::Core::Algorithm::t</text>
</a>
</g>
</g>
<!-- Node1&#45;&gt;Node2 -->
<g id="edge1" class="edge"><title>Node1&#45;&gt;Node2</title>
<path fill="none" stroke="midnightblue" d="M82.8254,-101.082C99.4503,-109.227 120.646,-119.186 140,-127 145.176,-129.09 150.68,-131.149 156.139,-133.097"/>
<polygon fill="midnightblue" stroke="midnightblue" points="155.241,-136.49 165.835,-136.464 157.537,-129.877 155.241,-136.49"/>
</g>
<!-- Node3 -->
<g id="node3" class="node"><title>Node3</title>
<g id="a_node3"><a xlink:href="namespaceRa_1_1Core.html#a28c10004edc39878acecb94c2ca5b837" target="_top" xlink:title="NORMAL. ">
<polygon fill="white" stroke="black" points="162,-98.5 162,-117.5 232,-117.5 232,-98.5 162,-98.5"/>
<text text-anchor="middle" x="197" y="-105.5" font-family="Helvetica,sans-Serif" font-size="10.00">Ra::Core::N</text>
</a>
</g>
</g>
<!-- Node1&#45;&gt;Node3 -->
<g id="edge2" class="edge"><title>Node1&#45;&gt;Node3</title>
<path fill="none" stroke="midnightblue" d="M104.222,-93.8804C119.72,-96.2646 136.603,-98.8619 151.614,-101.171"/>
<polygon fill="midnightblue" stroke="midnightblue" points="151.251,-104.657 161.667,-102.718 152.315,-97.738 151.251,-104.657"/>
</g>
<!-- Node4 -->
<g id="node4" class="node"><title>Node4</title>
<g id="a_node4"><a xlink:href="namespaceRa_1_1Core_1_1Geometry.html#a2ce97206423345716bf1b55f60c1c227" target="_top" xlink:title="Ra::Core::Geometry\l::triangleNormal">
<polygon fill="white" stroke="black" points="144.5,-49 144.5,-79 249.5,-79 249.5,-49 144.5,-49"/>
<text text-anchor="start" x="152.5" y="-67" font-family="Helvetica,sans-Serif" font-size="10.00">Ra::Core::Geometry</text>
<text text-anchor="middle" x="197" y="-56" font-family="Helvetica,sans-Serif" font-size="10.00">::triangleNormal</text>
</a>
</g>
</g>
<!-- Node1&#45;&gt;Node4 -->
<g id="edge3" class="edge"><title>Node1&#45;&gt;Node4</title>
<path fill="none" stroke="midnightblue" d="M104.222,-78.1196C113.96,-76.6216 124.244,-75.0394 134.267,-73.4974"/>
<polygon fill="midnightblue" stroke="midnightblue" points="134.822,-76.9533 144.173,-71.9734 133.757,-70.0347 134.822,-76.9533"/>
</g>
<!-- Node6 -->
<g id="node6" class="node"><title>Node6</title>
<g id="a_node6"><a xlink:href="namespaceRa_1_1Core_1_1Geometry.html#a178f2b7309fe2ea5bc31a3abcb25368e" target="_top" xlink:title="Ra::Core::Geometry\l::triangleArea">
<polygon fill="white" stroke="black" points="144.5,-0 144.5,-30 249.5,-30 249.5,-0 144.5,-0"/>
<text text-anchor="start" x="152.5" y="-18" font-family="Helvetica,sans-Serif" font-size="10.00">Ra::Core::Geometry</text>
<text text-anchor="middle" x="197" y="-7" font-family="Helvetica,sans-Serif" font-size="10.00">::triangleArea</text>
</a>
</g>
</g>
<!-- Node1&#45;&gt;Node6 -->
<g id="edge5" class="edge"><title>Node1&#45;&gt;Node6</title>
<path fill="none" stroke="midnightblue" d="M80.5777,-70.8168C97.5669,-61.6141 119.877,-49.7983 140,-40 143.823,-38.1385 147.816,-36.2494 151.833,-34.3865"/>
<polygon fill="midnightblue" stroke="midnightblue" points="153.542,-37.4539 161.181,-30.113 150.631,-31.0876 153.542,-37.4539"/>
</g>
<!-- Node5 -->
<g id="node5" class="node"><title>Node5</title>
<g id="a_node5"><a xlink:href="namespaceOpenMesh.html#a71e7f1dd3eac016d2b8245ac408a291c" target="_top" xlink:title="OpenMesh::cross">
<polygon fill="white" stroke="black" points="290,-48.5 290,-67.5 384,-67.5 384,-48.5 290,-48.5"/>
<text text-anchor="middle" x="337" y="-55.5" font-family="Helvetica,sans-Serif" font-size="10.00">OpenMesh::cross</text>
</a>
</g>
</g>
<!-- Node4&#45;&gt;Node5 -->
<g id="edge4" class="edge"><title>Node4&#45;&gt;Node5</title>
<path fill="none" stroke="midnightblue" d="M249.779,-61.7488C259.542,-61.3243 269.797,-60.8784 279.691,-60.4482"/>
<polygon fill="midnightblue" stroke="midnightblue" points="279.997,-63.9383 289.835,-60.0072 279.693,-56.9449 279.997,-63.9383"/>
</g>
<!-- Node6&#45;&gt;Node5 -->
<g id="edge6" class="edge"><title>Node6&#45;&gt;Node5</title>
<path fill="none" stroke="midnightblue" d="M246.266,-30.0393C262.333,-35.0458 280.054,-40.5675 295.474,-45.3722"/>
<polygon fill="midnightblue" stroke="midnightblue" points="294.646,-48.7801 305.234,-48.4135 296.728,-42.097 294.646,-48.7801"/>
</g>
<!-- Node7 -->
<g id="node7" class="node"><title>Node7</title>
<g id="a_node7"><a xlink:href="namespaceOpenMesh.html#a8205f789ce08919bc11c58383574596c" target="_top" xlink:title="OpenMesh::norm">
<polygon fill="white" stroke="black" points="291,-5.5 291,-24.5 383,-24.5 383,-5.5 291,-5.5"/>
<text text-anchor="middle" x="337" y="-12.5" font-family="Helvetica,sans-Serif" font-size="10.00">OpenMesh::norm</text>
</a>
</g>
</g>
<!-- Node6&#45;&gt;Node7 -->
<g id="edge7" class="edge"><title>Node6&#45;&gt;Node7</title>
<path fill="none" stroke="midnightblue" d="M249.779,-15C259.874,-15 270.495,-15 280.699,-15"/>
<polygon fill="midnightblue" stroke="midnightblue" points="280.73,-18.5001 290.73,-15 280.73,-11.5001 280.73,-18.5001"/>
</g>
</g>
</svg>
