<?xml version="1.0" encoding="UTF-8" standalone="no"?>
<!DOCTYPE svg PUBLIC "-//W3C//DTD SVG 1.1//EN"
 "http://www.w3.org/Graphics/SVG/1.1/DTD/svg11.dtd">
<!-- Generated by graphviz version 2.36.0 (20140111.2315)
 -->
<!-- Title: Ra::Core::Geometry::partition Pages: 1 -->
<svg width="436pt" height="312pt"
 viewBox="0.00 0.00 436.00 312.00" xmlns="http://www.w3.org/2000/svg" xmlns:xlink="http://www.w3.org/1999/xlink">
<g id="graph0" class="graph" transform="scale(1 1) rotate(0) translate(4 308)">
<title>Ra::Core::Geometry::partition</title>
<polygon fill="white" stroke="none" points="-4,4 -4,-308 432,-308 432,4 -4,4"/>
<!-- Node1 -->
<g id="node1" class="node"><title>Node1</title>
<polygon fill="#bfbfbf" stroke="black" points="0.5,-137 0.5,-167 105.5,-167 105.5,-137 0.5,-137"/>
<text text-anchor="start" x="8.5" y="-155" font-family="Helvetica,sans-Serif" font-size="10.00">Ra::Core::Geometry</text>
<text text-anchor="middle" x="53" y="-144" font-family="Helvetica,sans-Serif" font-size="10.00">::partition</text>
</g>
<!-- Node2 -->
<g id="node2" class="node"><title>Node2</title>
<g id="a_node2"><a xlink:href="namespaceRa_1_1Core.html#abc0a3625137098b67838fe52edd480f9" target="_top" xlink:title="SIZE. ">
<polygon fill="white" stroke="black" points="165,-284.5 165,-303.5 245,-303.5 245,-284.5 165,-284.5"/>
<text text-anchor="middle" x="205" y="-291.5" font-family="Helvetica,sans-Serif" font-size="10.00">Ra::Core::size</text>
</a>
</g>
</g>
<!-- Node1&#45;&gt;Node2 -->
<g id="edge1" class="edge"><title>Node1&#45;&gt;Node2</title>
<path fill="none" stroke="midnightblue" d="M60.9248,-167.137C73.4495,-192.86 102.298,-245.115 142,-274 146.124,-277 150.719,-279.564 155.491,-281.753"/>
<polygon fill="midnightblue" stroke="midnightblue" points="154.225,-285.016 164.809,-285.513 156.845,-278.525 154.225,-285.016"/>
</g>
<!-- Node3 -->
<g id="node3" class="node"><title>Node3</title>
<g id="a_node3"><a xlink:href="classRa_1_1Core_1_1TriangleMesh.html#a495116f40cfec8bb6504698d786d4b8c" target="_top" xlink:title="Access the vertices positions. ">
<polygon fill="white" stroke="black" points="144.5,-235 144.5,-265 265.5,-265 265.5,-235 144.5,-235"/>
<text text-anchor="start" x="152.5" y="-253" font-family="Helvetica,sans-Serif" font-size="10.00">Ra::Core::TriangleMesh</text>
<text text-anchor="middle" x="205" y="-242" font-family="Helvetica,sans-Serif" font-size="10.00">::vertices</text>
</a>
</g>
</g>
<!-- Node1&#45;&gt;Node3 -->
<g id="edge2" class="edge"><title>Node1&#45;&gt;Node3</title>
<path fill="none" stroke="midnightblue" d="M69.0948,-167.045C85.7904,-183.053 114.043,-208.322 142,-225 145.23,-226.927 148.636,-228.767 152.121,-230.51"/>
<polygon fill="midnightblue" stroke="midnightblue" points="150.926,-233.816 161.466,-234.895 153.9,-227.479 150.926,-233.816"/>
</g>
<!-- Node5 -->
<g id="node5" class="node"><title>Node5</title>
<g id="a_node5"><a xlink:href="namespaceRa_1_1Core_1_1Geometry.html#a559688ce2ea83e95725208d799d07a80" target="_top" xlink:title="Ra::Core::Geometry\l::extractVertexSegment">
<polygon fill="white" stroke="black" points="145,-186 145,-216 265,-216 265,-186 145,-186"/>
<text text-anchor="start" x="153" y="-204" font-family="Helvetica,sans-Serif" font-size="10.00">Ra::Core::Geometry</text>
<text text-anchor="middle" x="205" y="-193" font-family="Helvetica,sans-Serif" font-size="10.00">::extractVertexSegment</text>
</a>
</g>
</g>
<!-- Node1&#45;&gt;Node5 -->
<g id="edge4" class="edge"><title>Node1&#45;&gt;Node5</title>
<path fill="none" stroke="midnightblue" d="M100.229,-167.101C115.413,-172.062 132.451,-177.627 148.264,-182.793"/>
<polygon fill="midnightblue" stroke="midnightblue" points="147.331,-186.17 157.924,-185.948 149.505,-179.516 147.331,-186.17"/>
</g>
<!-- Node6 -->
<g id="node6" class="node"><title>Node6</title>
<g id="a_node6"><a xlink:href="namespaceRa_1_1Core_1_1Geometry.html#ac9ed208c21d64b54f845c6ef259e7fa5" target="_top" xlink:title="Ra::Core::Geometry\l::extractBitSet">
<polygon fill="white" stroke="black" points="152.5,-137 152.5,-167 257.5,-167 257.5,-137 152.5,-137"/>
<text text-anchor="start" x="160.5" y="-155" font-family="Helvetica,sans-Serif" font-size="10.00">Ra::Core::Geometry</text>
<text text-anchor="middle" x="205" y="-144" font-family="Helvetica,sans-Serif" font-size="10.00">::extractBitSet</text>
</a>
</g>
</g>
<!-- Node1&#45;&gt;Node6 -->
<g id="edge5" class="edge"><title>Node1&#45;&gt;Node6</title>
<path fill="none" stroke="midnightblue" d="M105.621,-152C117.406,-152 130.047,-152 142.209,-152"/>
<polygon fill="midnightblue" stroke="midnightblue" points="142.283,-155.5 152.283,-152 142.283,-148.5 142.283,-155.5"/>
</g>
<!-- Node7 -->
<g id="node7" class="node"><title>Node7</title>
<g id="a_node7"><a xlink:href="namespaceRa_1_1Core_1_1Algorithm.html#aea294cdb6f4f0d85955bdcccb22886ec" target="_top" xlink:title="Ra::Core::Algorithm::t">
<polygon fill="white" stroke="black" points="148.5,-98.5 148.5,-117.5 261.5,-117.5 261.5,-98.5 148.5,-98.5"/>
<text text-anchor="middle" x="205" y="-105.5" font-family="Helvetica,sans-Serif" font-size="10.00">Ra::Core::Algorithm::t</text>
</a>
</g>
</g>
<!-- Node1&#45;&gt;Node7 -->
<g id="edge6" class="edge"><title>Node1&#45;&gt;Node7</title>
<path fill="none" stroke="midnightblue" d="M105.202,-136.981C123.506,-131.612 143.92,-125.623 161.419,-120.49"/>
<polygon fill="midnightblue" stroke="midnightblue" points="162.736,-123.752 171.347,-117.578 160.766,-117.035 162.736,-123.752"/>
</g>
<!-- Node8 -->
<g id="node8" class="node"><title>Node8</title>
<g id="a_node8"><a xlink:href="namespaceRa_1_1Core_1_1Geometry.html#a410504fc421a43d2f5b139211db1a67e" target="_top" xlink:title="Ra::Core::Geometry\l::extractTriangleSegment">
<polygon fill="white" stroke="black" points="142,-49 142,-79 268,-79 268,-49 142,-49"/>
<text text-anchor="start" x="150" y="-67" font-family="Helvetica,sans-Serif" font-size="10.00">Ra::Core::Geometry</text>
<text text-anchor="middle" x="205" y="-56" font-family="Helvetica,sans-Serif" font-size="10.00">::extractTriangleSegment</text>
</a>
</g>
</g>
<!-- Node1&#45;&gt;Node8 -->
<g id="edge7" class="edge"><title>Node1&#45;&gt;Node8</title>
<path fill="none" stroke="midnightblue" d="M72.3649,-136.866C89.5982,-123.159 116.474,-103.021 142,-89 145.662,-86.9884 149.52,-85.0482 153.447,-83.1991"/>
<polygon fill="midnightblue" stroke="midnightblue" points="154.983,-86.3462 162.674,-79.0591 152.117,-79.9597 154.983,-86.3462"/>
</g>
<!-- Node9 -->
<g id="node9" class="node"><title>Node9</title>
<g id="a_node9"><a xlink:href="classRa_1_1Core_1_1TriangleMesh.html#a40d31b7b2943947d6eac5d906f0182fd" target="_top" xlink:title="Access the vertices normals. ">
<polygon fill="white" stroke="black" points="144.5,-0 144.5,-30 265.5,-30 265.5,-0 144.5,-0"/>
<text text-anchor="start" x="152.5" y="-18" font-family="Helvetica,sans-Serif" font-size="10.00">Ra::Core::TriangleMesh</text>
<text text-anchor="middle" x="205" y="-7" font-family="Helvetica,sans-Serif" font-size="10.00">::normals</text>
</a>
</g>
</g>
<!-- Node1&#45;&gt;Node9 -->
<g id="edge8" class="edge"><title>Node1&#45;&gt;Node9</title>
<path fill="none" stroke="midnightblue" d="M62.3329,-136.889C76.0724,-113.227 105.615,-67.3204 142,-40 144.349,-38.236 146.84,-36.5765 149.421,-35.0179"/>
<polygon fill="midnightblue" stroke="midnightblue" points="151.355,-37.9507 158.473,-30.1032 148.015,-31.799 151.355,-37.9507"/>
</g>
<!-- Node4 -->
<g id="node4" class="node"><title>Node4</title>
<g id="a_node4"><a xlink:href="classRa_1_1Core_1_1AttribManager.html#aaa6088620425c1e1d74b50f1b50eb596" target="_top" xlink:title="Get attribute by handle. ">
<polygon fill="white" stroke="black" points="304.5,-117 304.5,-147 427.5,-147 427.5,-117 304.5,-117"/>
<text text-anchor="start" x="312.5" y="-135" font-family="Helvetica,sans-Serif" font-size="10.00">Ra::Core::AttribManager</text>
<text text-anchor="middle" x="366" y="-124" font-family="Helvetica,sans-Serif" font-size="10.00">::getAttrib</text>
</a>
</g>
</g>
<!-- Node3&#45;&gt;Node4 -->
<g id="edge3" class="edge"><title>Node3&#45;&gt;Node4</title>
<path fill="none" stroke="midnightblue" d="M249.422,-234.975C255.856,-232.049 262.249,-228.717 268,-225 298.443,-205.323 327.664,-175.273 345.932,-154.69"/>
<polygon fill="midnightblue" stroke="midnightblue" points="348.669,-156.876 352.605,-147.04 343.394,-152.275 348.669,-156.876"/>
</g>
<!-- Node9&#45;&gt;Node4 -->
<g id="edge9" class="edge"><title>Node9&#45;&gt;Node4</title>
<path fill="none" stroke="midnightblue" d="M249.404,-30.0524C255.841,-32.9751 262.239,-36.2984 268,-40 298.167,-59.3837 327.25,-88.8777 345.571,-109.22"/>
<polygon fill="midnightblue" stroke="midnightblue" points="343.026,-111.625 352.275,-116.792 348.267,-106.985 343.026,-111.625"/>
</g>
</g>
</svg>
