<?xml version="1.0" encoding="UTF-8" standalone="no"?>
<!DOCTYPE svg PUBLIC "-//W3C//DTD SVG 1.1//EN"
 "http://www.w3.org/Graphics/SVG/1.1/DTD/svg11.dtd">
<!-- Generated by graphviz version 2.36.0 (20140111.2315)
 -->
<!-- Title: Ra::Core::convert Pages: 1 -->
<svg width="422pt" height="126pt"
 viewBox="0.00 0.00 422.00 126.00" xmlns="http://www.w3.org/2000/svg" xmlns:xlink="http://www.w3.org/1999/xlink">
<g id="graph0" class="graph" transform="scale(1 1) rotate(0) translate(4 122)">
<title>Ra::Core::convert</title>
<polygon fill="white" stroke="none" points="-4,4 -4,-122 418,-122 418,4 -4,4"/>
<!-- Node1 -->
<g id="node1" class="node"><title>Node1</title>
<polygon fill="#bfbfbf" stroke="black" points="0.5,-44.5 0.5,-63.5 95.5,-63.5 95.5,-44.5 0.5,-44.5"/>
<text text-anchor="middle" x="48" y="-51.5" font-family="Helvetica,sans-Serif" font-size="10.00">Ra::Core::convert</text>
</g>
<!-- Node2 -->
<g id="node2" class="node"><title>Node2</title>
<g id="a_node2"><a xlink:href="classRa_1_1Core_1_1TriangleMesh.html#a495116f40cfec8bb6504698d786d4b8c" target="_top" xlink:title="Access the vertices positions. ">
<polygon fill="white" stroke="black" points="132.5,-88 132.5,-118 253.5,-118 253.5,-88 132.5,-88"/>
<text text-anchor="start" x="140.5" y="-106" font-family="Helvetica,sans-Serif" font-size="10.00">Ra::Core::TriangleMesh</text>
<text text-anchor="middle" x="193" y="-95" font-family="Helvetica,sans-Serif" font-size="10.00">::vertices</text>
</a>
</g>
</g>
<!-- Node1&#45;&gt;Node2 -->
<g id="edge1" class="edge"><title>Node1&#45;&gt;Node2</title>
<path fill="none" stroke="midnightblue" d="M76.9113,-63.564C94.3831,-69.5509 117.47,-77.4618 138.378,-84.626"/>
<polygon fill="midnightblue" stroke="midnightblue" points="137.522,-88.0324 148.117,-87.963 139.791,-81.4104 137.522,-88.0324"/>
</g>
<!-- Node4 -->
<g id="node4" class="node"><title>Node4</title>
<g id="a_node4"><a xlink:href="classRa_1_1Core_1_1TriangleMesh.html#a40d31b7b2943947d6eac5d906f0182fd" target="_top" xlink:title="Access the vertices normals. ">
<polygon fill="white" stroke="black" points="132.5,-39 132.5,-69 253.5,-69 253.5,-39 132.5,-39"/>
<text text-anchor="start" x="140.5" y="-57" font-family="Helvetica,sans-Serif" font-size="10.00">Ra::Core::TriangleMesh</text>
<text text-anchor="middle" x="193" y="-46" font-family="Helvetica,sans-Serif" font-size="10.00">::normals</text>
</a>
</g>
</g>
<!-- Node1&#45;&gt;Node4 -->
<g id="edge3" class="edge"><title>Node1&#45;&gt;Node4</title>
<path fill="none" stroke="midnightblue" d="M95.8235,-54C104.287,-54 113.275,-54 122.228,-54"/>
<polygon fill="midnightblue" stroke="midnightblue" points="122.29,-57.5001 132.29,-54 122.29,-50.5001 122.29,-57.5001"/>
</g>
<!-- Node5 -->
<g id="node5" class="node"><title>Node5</title>
<g id="a_node5"><a xlink:href="namespaceRa_1_1Core_1_1Algorithm.html#aea294cdb6f4f0d85955bdcccb22886ec" target="_top" xlink:title="Ra::Core::Algorithm::t">
<polygon fill="white" stroke="black" points="136.5,-0.5 136.5,-19.5 249.5,-19.5 249.5,-0.5 136.5,-0.5"/>
<text text-anchor="middle" x="193" y="-7.5" font-family="Helvetica,sans-Serif" font-size="10.00">Ra::Core::Algorithm::t</text>
</a>
</g>
</g>
<!-- Node1&#45;&gt;Node5 -->
<g id="edge5" class="edge"><title>Node1&#45;&gt;Node5</title>
<path fill="none" stroke="midnightblue" d="M80.0289,-44.4527C100.923,-38.0237 128.692,-29.4794 151.348,-22.5082"/>
<polygon fill="midnightblue" stroke="midnightblue" points="152.503,-25.8149 161.032,-19.5287 150.445,-19.1244 152.503,-25.8149"/>
</g>
<!-- Node3 -->
<g id="node3" class="node"><title>Node3</title>
<g id="a_node3"><a xlink:href="classRa_1_1Core_1_1AttribManager.html#aaa6088620425c1e1d74b50f1b50eb596" target="_top" xlink:title="Get attribute by handle. ">
<polygon fill="white" stroke="black" points="290.5,-63 290.5,-93 413.5,-93 413.5,-63 290.5,-63"/>
<text text-anchor="start" x="298.5" y="-81" font-family="Helvetica,sans-Serif" font-size="10.00">Ra::Core::AttribManager</text>
<text text-anchor="middle" x="352" y="-70" font-family="Helvetica,sans-Serif" font-size="10.00">::getAttrib</text>
</a>
</g>
</g>
<!-- Node2&#45;&gt;Node3 -->
<g id="edge2" class="edge"><title>Node2&#45;&gt;Node3</title>
<path fill="none" stroke="midnightblue" d="M253.803,-93.4773C262.492,-92.0937 271.505,-90.6585 280.382,-89.2449"/>
<polygon fill="midnightblue" stroke="midnightblue" points="280.997,-92.6911 290.323,-87.662 279.897,-85.7782 280.997,-92.6911"/>
</g>
<!-- Node4&#45;&gt;Node3 -->
<g id="edge4" class="edge"><title>Node4&#45;&gt;Node3</title>
<path fill="none" stroke="midnightblue" d="M253.803,-63.1418C262.492,-64.47 271.505,-65.8478 280.382,-67.2049"/>
<polygon fill="midnightblue" stroke="midnightblue" points="279.908,-70.6731 290.323,-68.7245 280.966,-63.7535 279.908,-70.6731"/>
</g>
</g>
</svg>
