<?xml version="1.0" encoding="UTF-8" standalone="no"?>
<!DOCTYPE svg PUBLIC "-//W3C//DTD SVG 1.1//EN"
 "http://www.w3.org/Graphics/SVG/1.1/DTD/svg11.dtd">
<!-- Generated by graphviz version 2.36.0 (20140111.2315)
 -->
<!-- Title: Ra::Asset::createSkeleton Pages: 1 -->
<svg width="304pt" height="175pt"
 viewBox="0.00 0.00 304.00 175.00" xmlns="http://www.w3.org/2000/svg" xmlns:xlink="http://www.w3.org/1999/xlink">
<g id="graph0" class="graph" transform="scale(1 1) rotate(0) translate(4 171)">
<title>Ra::Asset::createSkeleton</title>
<polygon fill="white" stroke="none" points="-4,4 -4,-171 300,-171 300,4 -4,4"/>
<!-- Node1 -->
<g id="node1" class="node"><title>Node1</title>
<polygon fill="#bfbfbf" stroke="black" points="0,-78.5 0,-97.5 132,-97.5 132,-78.5 0,-78.5"/>
<text text-anchor="middle" x="66" y="-85.5" font-family="Helvetica,sans-Serif" font-size="10.00">Ra::Asset::createSkeleton</text>
</g>
<!-- Node2 -->
<g id="node2" class="node"><title>Node2</title>
<g id="a_node2"><a xlink:href="namespaceRa_1_1Core.html#abc0a3625137098b67838fe52edd480f9" target="_top" xlink:title="SIZE. ">
<polygon fill="white" stroke="black" points="192,-147.5 192,-166.5 272,-166.5 272,-147.5 192,-147.5"/>
<text text-anchor="middle" x="232" y="-154.5" font-family="Helvetica,sans-Serif" font-size="10.00">Ra::Core::size</text>
</a>
</g>
</g>
<!-- Node1&#45;&gt;Node2 -->
<g id="edge1" class="edge"><title>Node1&#45;&gt;Node2</title>
<path fill="none" stroke="midnightblue" d="M84.8909,-97.6564C104.808,-108.174 138.131,-125.086 168,-137 174.374,-139.542 181.207,-141.988 187.938,-144.244"/>
<polygon fill="midnightblue" stroke="midnightblue" points="187.068,-147.641 197.66,-147.402 189.23,-140.984 187.068,-147.641"/>
</g>
<!-- Node3 -->
<g id="node3" class="node"><title>Node3</title>
<g id="a_node3"><a xlink:href="classRa_1_1Asset_1_1HandleData.html#aac2741c32466647b58b76e8310d90ecb" target="_top" xlink:title="DATA. ">
<polygon fill="white" stroke="black" points="168.5,-98 168.5,-128 295.5,-128 295.5,-98 168.5,-98"/>
<text text-anchor="start" x="176.5" y="-116" font-family="Helvetica,sans-Serif" font-size="10.00">Ra::Asset::HandleData</text>
<text text-anchor="middle" x="232" y="-105" font-family="Helvetica,sans-Serif" font-size="10.00">::getComponentDataSize</text>
</a>
</g>
</g>
<!-- Node1&#45;&gt;Node3 -->
<g id="edge2" class="edge"><title>Node1&#45;&gt;Node3</title>
<path fill="none" stroke="midnightblue" d="M129.469,-97.5227C138.942,-98.9668 148.784,-100.467 158.449,-101.94"/>
<polygon fill="midnightblue" stroke="midnightblue" points="158.02,-105.415 168.433,-103.462 159.075,-98.4952 158.02,-105.415"/>
</g>
<!-- Node4 -->
<g id="node4" class="node"><title>Node4</title>
<g id="a_node4"><a xlink:href="classRa_1_1Asset_1_1HandleData.html#adeb89ae26f34f0878a089ed7ecd64e24" target="_top" xlink:title="Ra::Asset::HandleData\l::getComponentData">
<polygon fill="white" stroke="black" points="172.5,-49 172.5,-79 291.5,-79 291.5,-49 172.5,-49"/>
<text text-anchor="start" x="180.5" y="-67" font-family="Helvetica,sans-Serif" font-size="10.00">Ra::Asset::HandleData</text>
<text text-anchor="middle" x="232" y="-56" font-family="Helvetica,sans-Serif" font-size="10.00">::getComponentData</text>
</a>
</g>
</g>
<!-- Node1&#45;&gt;Node4 -->
<g id="edge3" class="edge"><title>Node1&#45;&gt;Node4</title>
<path fill="none" stroke="midnightblue" d="M132.288,-78.4456C142.1,-77.0097 152.245,-75.5251 162.129,-74.0787"/>
<polygon fill="midnightblue" stroke="midnightblue" points="162.922,-77.5 172.31,-72.5888 161.908,-70.5738 162.922,-77.5"/>
</g>
<!-- Node5 -->
<g id="node5" class="node"><title>Node5</title>
<g id="a_node5"><a xlink:href="classRa_1_1Asset_1_1HandleData.html#abc56131631200e94ff38cf9e2af920bc" target="_top" xlink:title="Ra::Asset::HandleData\l::getEdgeData">
<polygon fill="white" stroke="black" points="172.5,-0 172.5,-30 291.5,-30 291.5,-0 172.5,-0"/>
<text text-anchor="start" x="180.5" y="-18" font-family="Helvetica,sans-Serif" font-size="10.00">Ra::Asset::HandleData</text>
<text text-anchor="middle" x="232" y="-7" font-family="Helvetica,sans-Serif" font-size="10.00">::getEdgeData</text>
</a>
</g>
</g>
<!-- Node1&#45;&gt;Node5 -->
<g id="edge4" class="edge"><title>Node1&#45;&gt;Node5</title>
<path fill="none" stroke="midnightblue" d="M86.1888,-78.4167C106.378,-68.4433 139.165,-52.5571 168,-40 172.668,-37.9673 177.557,-35.9076 182.46,-33.8881"/>
<polygon fill="midnightblue" stroke="midnightblue" points="183.904,-37.0793 191.851,-30.0717 181.269,-30.5944 183.904,-37.0793"/>
</g>
</g>
</svg>
