<?xml version="1.0" encoding="UTF-8" standalone="no"?>
<!DOCTYPE svg PUBLIC "-//W3C//DTD SVG 1.1//EN"
 "http://www.w3.org/Graphics/SVG/1.1/DTD/svg11.dtd">
<!-- Generated by graphviz version 2.36.0 (20140111.2315)
 -->
<!-- Title: Ra::Core::Animation::computeCoR Pages: 1 -->
<svg width="760pt" height="475pt"
 viewBox="0.00 0.00 760.00 475.00" xmlns="http://www.w3.org/2000/svg" xmlns:xlink="http://www.w3.org/1999/xlink">
<g id="graph0" class="graph" transform="scale(1 1) rotate(0) translate(4 471)">
<title>Ra::Core::Animation::computeCoR</title>
<polygon fill="white" stroke="none" points="-4,4 -4,-471 756,-471 756,4 -4,4"/>
<!-- Node1 -->
<g id="node1" class="node"><title>Node1</title>
<polygon fill="#bfbfbf" stroke="black" points="0,-189 0,-219 106,-219 106,-189 0,-189"/>
<text text-anchor="start" x="8" y="-207" font-family="Helvetica,sans-Serif" font-size="10.00">Ra::Core::Animation</text>
<text text-anchor="middle" x="53" y="-196" font-family="Helvetica,sans-Serif" font-size="10.00">::computeCoR</text>
</g>
<!-- Node2 -->
<g id="node2" class="node"><title>Node2</title>
<g id="a_node2"><a xlink:href="classRa_1_1Core_1_1TriangleMesh.html#a21ae39474fd85af3bfbcceb34e29d8ad" target="_top" xlink:title="Copy only the mesh faces and geometry. ">
<polygon fill="white" stroke="black" points="146.5,-388 146.5,-418 267.5,-418 267.5,-388 146.5,-388"/>
<text text-anchor="start" x="154.5" y="-406" font-family="Helvetica,sans-Serif" font-size="10.00">Ra::Core::TriangleMesh</text>
<text text-anchor="middle" x="207" y="-395" font-family="Helvetica,sans-Serif" font-size="10.00">::copyBaseGeometry</text>
</a>
</g>
</g>
<!-- Node1&#45;&gt;Node2 -->
<g id="edge1" class="edge"><title>Node1&#45;&gt;Node2</title>
<path fill="none" stroke="midnightblue" d="M62.2586,-219.014C76.7971,-244.881 108.6,-299.015 142,-340 153.909,-354.613 168.844,-369.475 181.291,-381.092"/>
<polygon fill="midnightblue" stroke="midnightblue" points="178.94,-383.684 188.671,-387.875 183.677,-378.531 178.94,-383.684"/>
</g>
<!-- Node6 -->
<g id="node6" class="node"><title>Node6</title>
<g id="a_node6"><a xlink:href="namespaceRa_1_1Core.html#a1992d0f90662705985222f69287915d0" target="_top" xlink:title="Ra::Core::convert">
<polygon fill="white" stroke="black" points="159.5,-311.5 159.5,-330.5 254.5,-330.5 254.5,-311.5 159.5,-311.5"/>
<text text-anchor="middle" x="207" y="-318.5" font-family="Helvetica,sans-Serif" font-size="10.00">Ra::Core::convert</text>
</a>
</g>
</g>
<!-- Node1&#45;&gt;Node6 -->
<g id="edge5" class="edge"><title>Node1&#45;&gt;Node6</title>
<path fill="none" stroke="midnightblue" d="M64.8602,-219.232C80.0331,-239.523 109.403,-275.368 142,-297 148.186,-301.105 155.171,-304.637 162.194,-307.631"/>
<polygon fill="midnightblue" stroke="midnightblue" points="161.138,-310.977 171.725,-311.383 163.702,-304.463 161.138,-310.977"/>
</g>
<!-- Node7 -->
<g id="node7" class="node"><title>Node7</title>
<g id="a_node7"><a xlink:href="classRa_1_1Core_1_1TriangleMesh.html#a495116f40cfec8bb6504698d786d4b8c" target="_top" xlink:title="Access the vertices positions. ">
<polygon fill="white" stroke="black" points="469.5,-245 469.5,-275 590.5,-275 590.5,-245 469.5,-245"/>
<text text-anchor="start" x="477.5" y="-263" font-family="Helvetica,sans-Serif" font-size="10.00">Ra::Core::TriangleMesh</text>
<text text-anchor="middle" x="530" y="-252" font-family="Helvetica,sans-Serif" font-size="10.00">::vertices</text>
</a>
</g>
</g>
<!-- Node1&#45;&gt;Node7 -->
<g id="edge13" class="edge"><title>Node1&#45;&gt;Node7</title>
<path fill="none" stroke="midnightblue" d="M106.091,-211.299C117.892,-212.898 130.372,-214.546 142,-216 252.771,-229.848 381.614,-244.133 459.155,-252.533"/>
<polygon fill="midnightblue" stroke="midnightblue" points="458.965,-256.033 469.283,-253.629 459.718,-249.074 458.965,-256.033"/>
</g>
<!-- Node10 -->
<g id="node10" class="node"><title>Node10</title>
<g id="a_node10"><a xlink:href="namespaceRa_1_1Core_1_1Algorithm.html#aea294cdb6f4f0d85955bdcccb22886ec" target="_top" xlink:title="Ra::Core::Algorithm::t">
<polygon fill="white" stroke="black" points="313.5,-273.5 313.5,-292.5 426.5,-292.5 426.5,-273.5 313.5,-273.5"/>
<text text-anchor="middle" x="370" y="-280.5" font-family="Helvetica,sans-Serif" font-size="10.00">Ra::Core::Algorithm::t</text>
</a>
</g>
</g>
<!-- Node1&#45;&gt;Node10 -->
<g id="edge14" class="edge"><title>Node1&#45;&gt;Node10</title>
<path fill="none" stroke="midnightblue" d="M72.6175,-219.183C89.5969,-232.125 115.94,-250.016 142,-259 194.247,-277.011 256.932,-282.521 303.18,-283.805"/>
<polygon fill="midnightblue" stroke="midnightblue" points="303.305,-287.309 313.379,-284.028 303.458,-280.31 303.305,-287.309"/>
</g>
<!-- Node11 -->
<g id="node11" class="node"><title>Node11</title>
<g id="a_node11"><a xlink:href="namespaceOpenMesh.html#a8205f789ce08919bc11c58383574596c" target="_top" xlink:title="OpenMesh::norm">
<polygon fill="white" stroke="black" points="484,-101.5 484,-120.5 576,-120.5 576,-101.5 484,-101.5"/>
<text text-anchor="middle" x="530" y="-108.5" font-family="Helvetica,sans-Serif" font-size="10.00">OpenMesh::norm</text>
</a>
</g>
</g>
<!-- Node1&#45;&gt;Node11 -->
<g id="edge11" class="edge"><title>Node1&#45;&gt;Node11</title>
<path fill="none" stroke="midnightblue" d="M67.8647,-188.896C83.9171,-172.556 112.018,-147.327 142,-136 253.964,-93.703 397.043,-98.0937 474.035,-104.727"/>
<polygon fill="midnightblue" stroke="midnightblue" points="473.721,-108.213 483.997,-105.63 474.353,-101.242 473.721,-108.213"/>
</g>
<!-- Node12 -->
<g id="node12" class="node"><title>Node12</title>
<g id="a_node12"><a xlink:href="namespaceRa_1_1Core_1_1DcelOperations.html#aaded34dd44fea8859e294864900a11ed" target="_top" xlink:title="Ra::Core::DcelOperations\l::splitEdge">
<polygon fill="white" stroke="black" points="142,-49 142,-79 272,-79 272,-49 142,-49"/>
<text text-anchor="start" x="150" y="-67" font-family="Helvetica,sans-Serif" font-size="10.00">Ra::Core::DcelOperations</text>
<text text-anchor="middle" x="207" y="-56" font-family="Helvetica,sans-Serif" font-size="10.00">::splitEdge</text>
</a>
</g>
</g>
<!-- Node1&#45;&gt;Node12 -->
<g id="edge12" class="edge"><title>Node1&#45;&gt;Node12</title>
<path fill="none" stroke="midnightblue" d="M63.0432,-188.644C77.3074,-165.521 107.034,-121.543 142,-94 146.693,-90.303 151.916,-86.9272 157.298,-83.884"/>
<polygon fill="midnightblue" stroke="midnightblue" points="159.216,-86.8299 166.439,-79.0787 155.959,-80.6339 159.216,-86.8299"/>
</g>
<!-- Node13 -->
<g id="node13" class="node"><title>Node13</title>
<g id="a_node13"><a xlink:href="namespaceRa_1_1Core_1_1MeshUtils.html#afbee0fe3203a295fb1f93b33dfb33f81" target="_top" xlink:title="Fills the given array with the vertices of a given triangle. ">
<polygon fill="white" stroke="black" points="316.5,-186 316.5,-216 423.5,-216 423.5,-186 316.5,-186"/>
<text text-anchor="start" x="324.5" y="-204" font-family="Helvetica,sans-Serif" font-size="10.00">Ra::Core::MeshUtils</text>
<text text-anchor="middle" x="370" y="-193" font-family="Helvetica,sans-Serif" font-size="10.00">::getTriangleVertices</text>
</a>
</g>
</g>
<!-- Node1&#45;&gt;Node13 -->
<g id="edge15" class="edge"><title>Node1&#45;&gt;Node13</title>
<path fill="none" stroke="midnightblue" d="M106.016,-203.505C160.91,-202.982 247.442,-202.158 306.125,-201.599"/>
<polygon fill="midnightblue" stroke="midnightblue" points="306.415,-205.096 316.381,-201.501 306.348,-198.097 306.415,-205.096"/>
</g>
<!-- Node14 -->
<g id="node14" class="node"><title>Node14</title>
<g id="a_node14"><a xlink:href="namespaceRa_1_1Core_1_1MeshUtils.html#a746199d436bb1dc31c4bccb3953743b9" target="_top" xlink:title="Returns the area of a given triangle. ">
<polygon fill="white" stroke="black" points="153.5,-145 153.5,-175 260.5,-175 260.5,-145 153.5,-145"/>
<text text-anchor="start" x="161.5" y="-163" font-family="Helvetica,sans-Serif" font-size="10.00">Ra::Core::MeshUtils</text>
<text text-anchor="middle" x="207" y="-152" font-family="Helvetica,sans-Serif" font-size="10.00">::getTriangleArea</text>
</a>
</g>
</g>
<!-- Node1&#45;&gt;Node14 -->
<g id="edge17" class="edge"><title>Node1&#45;&gt;Node14</title>
<path fill="none" stroke="midnightblue" d="M105.885,-188.981C118.289,-185.39 131.65,-181.522 144.444,-177.819"/>
<polygon fill="midnightblue" stroke="midnightblue" points="145.459,-181.169 154.091,-175.026 143.512,-174.445 145.459,-181.169"/>
</g>
<!-- Node17 -->
<g id="node17" class="node"><title>Node17</title>
<g id="a_node17"><a xlink:href="namespaceRa_1_1Core_1_1Animation.html#a71236244c5603a8a5bc63595db9b7717" target="_top" xlink:title="Computes the similarity between two weights vector. ">
<polygon fill="white" stroke="black" points="154,-0 154,-30 260,-30 260,-0 154,-0"/>
<text text-anchor="start" x="162" y="-18" font-family="Helvetica,sans-Serif" font-size="10.00">Ra::Core::Animation</text>
<text text-anchor="middle" x="207" y="-7" font-family="Helvetica,sans-Serif" font-size="10.00">::weightSimilarity</text>
</a>
</g>
</g>
<!-- Node1&#45;&gt;Node17 -->
<g id="edge22" class="edge"><title>Node1&#45;&gt;Node17</title>
<path fill="none" stroke="midnightblue" d="M58.0612,-188.955C67.456,-156.906 93.6647,-81.3766 142,-39 143.35,-37.8168 144.763,-36.6896 146.228,-35.616"/>
<polygon fill="midnightblue" stroke="midnightblue" points="148.499,-38.3226 155.099,-30.0351 144.771,-32.3976 148.499,-38.3226"/>
</g>
<!-- Node3 -->
<g id="node3" class="node"><title>Node3</title>
<g id="a_node3"><a xlink:href="classRa_1_1Core_1_1TriangleMesh.html#aa838b995226a922fc10f2f8f4c6dec31" target="_top" xlink:title="Erases all data, making the mesh empty. ">
<polygon fill="white" stroke="black" points="309.5,-388 309.5,-418 430.5,-418 430.5,-388 309.5,-388"/>
<text text-anchor="start" x="317.5" y="-406" font-family="Helvetica,sans-Serif" font-size="10.00">Ra::Core::TriangleMesh</text>
<text text-anchor="middle" x="370" y="-395" font-family="Helvetica,sans-Serif" font-size="10.00">::clear</text>
</a>
</g>
</g>
<!-- Node2&#45;&gt;Node3 -->
<g id="edge2" class="edge"><title>Node2&#45;&gt;Node3</title>
<path fill="none" stroke="midnightblue" d="M267.95,-403C278.075,-403 288.665,-403 299.019,-403"/>
<polygon fill="midnightblue" stroke="midnightblue" points="299.268,-406.5 309.268,-403 299.268,-399.5 299.268,-406.5"/>
</g>
<!-- Node5 -->
<g id="node5" class="node"><title>Node5</title>
<g id="a_node5"><a xlink:href="classRa_1_1Core_1_1AttribManager.html#ab973dc08cbca7da7108c40bb56c4a708" target="_top" xlink:title="Base copy, does nothing. ">
<polygon fill="white" stroke="black" points="308.5,-437 308.5,-467 431.5,-467 431.5,-437 308.5,-437"/>
<text text-anchor="start" x="316.5" y="-455" font-family="Helvetica,sans-Serif" font-size="10.00">Ra::Core::AttribManager</text>
<text text-anchor="middle" x="370" y="-444" font-family="Helvetica,sans-Serif" font-size="10.00">::copyAttributes</text>
</a>
</g>
</g>
<!-- Node2&#45;&gt;Node5 -->
<g id="edge4" class="edge"><title>Node2&#45;&gt;Node5</title>
<path fill="none" stroke="midnightblue" d="M257.619,-418.101C274.07,-423.108 292.549,-428.732 309.657,-433.939"/>
<polygon fill="midnightblue" stroke="midnightblue" points="308.959,-437.385 319.545,-436.948 310.997,-430.688 308.959,-437.385"/>
</g>
<!-- Node4 -->
<g id="node4" class="node"><title>Node4</title>
<g id="a_node4"><a xlink:href="classRa_1_1Core_1_1AttribManager.html#ae53b7e22a2098c6151c6b2702569a3be" target="_top" xlink:title="clear all attribs, invalidate handles. ">
<polygon fill="white" stroke="black" points="468.5,-388 468.5,-418 591.5,-418 591.5,-388 468.5,-388"/>
<text text-anchor="start" x="476.5" y="-406" font-family="Helvetica,sans-Serif" font-size="10.00">Ra::Core::AttribManager</text>
<text text-anchor="middle" x="530" y="-395" font-family="Helvetica,sans-Serif" font-size="10.00">::clear</text>
</a>
</g>
</g>
<!-- Node3&#45;&gt;Node4 -->
<g id="edge3" class="edge"><title>Node3&#45;&gt;Node4</title>
<path fill="none" stroke="midnightblue" d="M430.733,-403C439.686,-403 448.99,-403 458.146,-403"/>
<polygon fill="midnightblue" stroke="midnightblue" points="458.395,-406.5 468.395,-403 458.395,-399.5 458.395,-406.5"/>
</g>
<!-- Node6&#45;&gt;Node7 -->
<g id="edge6" class="edge"><title>Node6&#45;&gt;Node7</title>
<path fill="none" stroke="midnightblue" d="M254.622,-321.403C300.439,-320.787 372.011,-317.102 432,-302 452.421,-296.859 474.024,-287.888 491.647,-279.554"/>
<polygon fill="midnightblue" stroke="midnightblue" points="493.526,-282.532 500.995,-275.018 490.47,-276.235 493.526,-282.532"/>
</g>
<!-- Node9 -->
<g id="node9" class="node"><title>Node9</title>
<g id="a_node9"><a xlink:href="classRa_1_1Core_1_1TriangleMesh.html#a40d31b7b2943947d6eac5d906f0182fd" target="_top" xlink:title="Access the vertices normals. ">
<polygon fill="white" stroke="black" points="469.5,-309 469.5,-339 590.5,-339 590.5,-309 469.5,-309"/>
<text text-anchor="start" x="477.5" y="-327" font-family="Helvetica,sans-Serif" font-size="10.00">Ra::Core::TriangleMesh</text>
<text text-anchor="middle" x="530" y="-316" font-family="Helvetica,sans-Serif" font-size="10.00">::normals</text>
</a>
</g>
</g>
<!-- Node6&#45;&gt;Node9 -->
<g id="edge8" class="edge"><title>Node6&#45;&gt;Node9</title>
<path fill="none" stroke="midnightblue" d="M254.663,-328.903C271.428,-331.379 290.512,-333.782 308,-335 362.978,-338.83 376.977,-338.11 432,-335 440.79,-334.503 450.008,-333.755 459.116,-332.878"/>
<polygon fill="midnightblue" stroke="midnightblue" points="459.731,-336.334 469.326,-331.84 459.023,-329.369 459.731,-336.334"/>
</g>
<!-- Node6&#45;&gt;Node10 -->
<g id="edge10" class="edge"><title>Node6&#45;&gt;Node10</title>
<path fill="none" stroke="midnightblue" d="M248.627,-311.411C269.968,-306.374 296.312,-300.156 318.908,-294.823"/>
<polygon fill="midnightblue" stroke="midnightblue" points="319.736,-298.224 328.665,-292.52 318.128,-291.411 319.736,-298.224"/>
</g>
<!-- Node8 -->
<g id="node8" class="node"><title>Node8</title>
<g id="a_node8"><a xlink:href="classRa_1_1Core_1_1AttribManager.html#aaa6088620425c1e1d74b50f1b50eb596" target="_top" xlink:title="Get attribute by handle. ">
<polygon fill="white" stroke="black" points="628.5,-284 628.5,-314 751.5,-314 751.5,-284 628.5,-284"/>
<text text-anchor="start" x="636.5" y="-302" font-family="Helvetica,sans-Serif" font-size="10.00">Ra::Core::AttribManager</text>
<text text-anchor="middle" x="690" y="-291" font-family="Helvetica,sans-Serif" font-size="10.00">::getAttrib</text>
</a>
</g>
</g>
<!-- Node7&#45;&gt;Node8 -->
<g id="edge7" class="edge"><title>Node7&#45;&gt;Node8</title>
<path fill="none" stroke="midnightblue" d="M590.733,-274.744C599.782,-276.978 609.19,-279.3 618.442,-281.584"/>
<polygon fill="midnightblue" stroke="midnightblue" points="617.848,-285.042 628.395,-284.041 619.525,-278.246 617.848,-285.042"/>
</g>
<!-- Node9&#45;&gt;Node8 -->
<g id="edge9" class="edge"><title>Node9&#45;&gt;Node8</title>
<path fill="none" stroke="midnightblue" d="M590.733,-314.549C599.782,-313.117 609.19,-311.628 618.442,-310.164"/>
<polygon fill="midnightblue" stroke="midnightblue" points="619.065,-313.609 628.395,-308.589 617.971,-306.695 619.065,-313.609"/>
</g>
<!-- Node13&#45;&gt;Node7 -->
<g id="edge16" class="edge"><title>Node13&#45;&gt;Node7</title>
<path fill="none" stroke="midnightblue" d="M411.279,-216.041C431.986,-223.773 457.409,-233.267 479.323,-241.45"/>
<polygon fill="midnightblue" stroke="midnightblue" points="478.202,-244.767 488.795,-244.987 480.651,-238.209 478.202,-244.767"/>
</g>
<!-- Node14&#45;&gt;Node13 -->
<g id="edge18" class="edge"><title>Node14&#45;&gt;Node13</title>
<path fill="none" stroke="midnightblue" d="M260.717,-173.425C275.387,-177.161 291.46,-181.254 306.627,-185.116"/>
<polygon fill="midnightblue" stroke="midnightblue" points="305.885,-188.539 316.439,-187.615 307.612,-181.755 305.885,-188.539"/>
</g>
<!-- Node15 -->
<g id="node15" class="node"><title>Node15</title>
<g id="a_node15"><a xlink:href="namespaceRa_1_1Core_1_1Geometry.html#a178f2b7309fe2ea5bc31a3abcb25368e" target="_top" xlink:title="Ra::Core::Geometry\l::triangleArea">
<polygon fill="white" stroke="black" points="317.5,-137 317.5,-167 422.5,-167 422.5,-137 317.5,-137"/>
<text text-anchor="start" x="325.5" y="-155" font-family="Helvetica,sans-Serif" font-size="10.00">Ra::Core::Geometry</text>
<text text-anchor="middle" x="370" y="-144" font-family="Helvetica,sans-Serif" font-size="10.00">::triangleArea</text>
</a>
</g>
</g>
<!-- Node14&#45;&gt;Node15 -->
<g id="edge19" class="edge"><title>Node14&#45;&gt;Node15</title>
<path fill="none" stroke="midnightblue" d="M260.717,-157.381C275.471,-156.647 291.643,-155.844 306.887,-155.086"/>
<polygon fill="midnightblue" stroke="midnightblue" points="307.449,-158.563 317.263,-154.571 307.101,-151.571 307.449,-158.563"/>
</g>
<!-- Node15&#45;&gt;Node11 -->
<g id="edge21" class="edge"><title>Node15&#45;&gt;Node11</title>
<path fill="none" stroke="midnightblue" d="M422.735,-138.575C441.96,-133.586 463.64,-127.961 482.38,-123.098"/>
<polygon fill="midnightblue" stroke="midnightblue" points="483.368,-126.457 492.168,-120.558 481.609,-119.682 483.368,-126.457"/>
</g>
<!-- Node16 -->
<g id="node16" class="node"><title>Node16</title>
<g id="a_node16"><a xlink:href="namespaceOpenMesh.html#a71e7f1dd3eac016d2b8245ac408a291c" target="_top" xlink:title="OpenMesh::cross">
<polygon fill="white" stroke="black" points="483,-142.5 483,-161.5 577,-161.5 577,-142.5 483,-142.5"/>
<text text-anchor="middle" x="530" y="-149.5" font-family="Helvetica,sans-Serif" font-size="10.00">OpenMesh::cross</text>
</a>
</g>
</g>
<!-- Node15&#45;&gt;Node16 -->
<g id="edge20" class="edge"><title>Node15&#45;&gt;Node16</title>
<path fill="none" stroke="midnightblue" d="M422.735,-152C438.608,-152 456.155,-152 472.338,-152"/>
<polygon fill="midnightblue" stroke="midnightblue" points="472.746,-155.5 482.746,-152 472.745,-148.5 472.746,-155.5"/>
</g>
</g>
</svg>
