<?xml version="1.0" encoding="UTF-8" standalone="no"?>
<!DOCTYPE svg PUBLIC "-//W3C//DTD SVG 1.1//EN"
 "http://www.w3.org/Graphics/SVG/1.1/DTD/svg11.dtd">
<!-- Generated by graphviz version 2.36.0 (20140111.2315)
 -->
<!-- Title: Ra::Core::Geometry::findParametrization Pages: 1 -->
<svg width="460pt" height="508pt"
 viewBox="0.00 0.00 460.00 508.00" xmlns="http://www.w3.org/2000/svg" xmlns:xlink="http://www.w3.org/1999/xlink">
<g id="graph0" class="graph" transform="scale(1 1) rotate(0) translate(4 504)">
<title>Ra::Core::Geometry::findParametrization</title>
<polygon fill="white" stroke="none" points="-4,4 -4,-504 456,-504 456,4 -4,4"/>
<!-- Node1 -->
<g id="node1" class="node"><title>Node1</title>
<polygon fill="#bfbfbf" stroke="black" points="0.5,-245 0.5,-275 107.5,-275 107.5,-245 0.5,-245"/>
<text text-anchor="start" x="8.5" y="-263" font-family="Helvetica,sans-Serif" font-size="10.00">Ra::Core::Geometry</text>
<text text-anchor="middle" x="54" y="-252" font-family="Helvetica,sans-Serif" font-size="10.00">::findParametrization</text>
</g>
<!-- Node2 -->
<g id="node2" class="node"><title>Node2</title>
<g id="a_node2"><a xlink:href="namespaceRa_1_1Core.html#abc0a3625137098b67838fe52edd480f9" target="_top" xlink:title="SIZE. ">
<polygon fill="white" stroke="black" points="178,-480.5 178,-499.5 258,-499.5 258,-480.5 178,-480.5"/>
<text text-anchor="middle" x="218" y="-487.5" font-family="Helvetica,sans-Serif" font-size="10.00">Ra::Core::size</text>
</a>
</g>
</g>
<!-- Node1&#45;&gt;Node2 -->
<g id="edge1" class="edge"><title>Node1&#45;&gt;Node2</title>
<path fill="none" stroke="midnightblue" d="M56.8735,-275.037C62.4859,-313.543 82.7524,-416.425 144,-470 150.827,-475.972 159.279,-480.177 167.984,-483.135"/>
<polygon fill="midnightblue" stroke="midnightblue" points="167.269,-486.571 177.847,-485.971 169.204,-479.843 167.269,-486.571"/>
</g>
<!-- Node3 -->
<g id="node3" class="node"><title>Node3</title>
<g id="a_node3"><a xlink:href="classRa_1_1Core_1_1TriangleMesh.html#a495116f40cfec8bb6504698d786d4b8c" target="_top" xlink:title="Access the vertices positions. ">
<polygon fill="white" stroke="black" points="157.5,-431 157.5,-461 278.5,-461 278.5,-431 157.5,-431"/>
<text text-anchor="start" x="165.5" y="-449" font-family="Helvetica,sans-Serif" font-size="10.00">Ra::Core::TriangleMesh</text>
<text text-anchor="middle" x="218" y="-438" font-family="Helvetica,sans-Serif" font-size="10.00">::vertices</text>
</a>
</g>
</g>
<!-- Node1&#45;&gt;Node3 -->
<g id="edge2" class="edge"><title>Node1&#45;&gt;Node3</title>
<path fill="none" stroke="midnightblue" d="M59.3211,-275.271C69.0753,-307.023 95.7921,-380.57 144,-421 146.021,-422.695 148.162,-424.277 150.395,-425.753"/>
<polygon fill="midnightblue" stroke="midnightblue" points="148.976,-428.976 159.387,-430.941 152.474,-422.912 148.976,-428.976"/>
</g>
<!-- Node5 -->
<g id="node5" class="node"><title>Node5</title>
<g id="a_node5"><a xlink:href="namespaceRa_1_1Core_1_1Algorithm.html#aea294cdb6f4f0d85955bdcccb22886ec" target="_top" xlink:title="Ra::Core::Algorithm::t">
<polygon fill="white" stroke="black" points="161.5,-392.5 161.5,-411.5 274.5,-411.5 274.5,-392.5 161.5,-392.5"/>
<text text-anchor="middle" x="218" y="-399.5" font-family="Helvetica,sans-Serif" font-size="10.00">Ra::Core::Algorithm::t</text>
</a>
</g>
</g>
<!-- Node1&#45;&gt;Node5 -->
<g id="edge4" class="edge"><title>Node1&#45;&gt;Node5</title>
<path fill="none" stroke="midnightblue" d="M61.9154,-275.326C74.4494,-301.334 103.431,-354.008 144,-382 147.529,-384.435 151.344,-386.574 155.314,-388.453"/>
<polygon fill="midnightblue" stroke="midnightblue" points="154.223,-391.789 164.801,-392.383 156.902,-385.322 154.223,-391.789"/>
</g>
<!-- Node6 -->
<g id="node6" class="node"><title>Node6</title>
<g id="a_node6"><a xlink:href="namespaceRa_1_1Core_1_1Geometry.html#a2ce97206423345716bf1b55f60c1c227" target="_top" xlink:title="Ra::Core::Geometry\l::triangleNormal">
<polygon fill="white" stroke="black" points="165.5,-343 165.5,-373 270.5,-373 270.5,-343 165.5,-343"/>
<text text-anchor="start" x="173.5" y="-361" font-family="Helvetica,sans-Serif" font-size="10.00">Ra::Core::Geometry</text>
<text text-anchor="middle" x="218" y="-350" font-family="Helvetica,sans-Serif" font-size="10.00">::triangleNormal</text>
</a>
</g>
</g>
<!-- Node1&#45;&gt;Node6 -->
<g id="edge5" class="edge"><title>Node1&#45;&gt;Node6</title>
<path fill="none" stroke="midnightblue" d="M69.8241,-275.03C86.5507,-291.262 115.197,-316.948 144,-333 147.856,-335.149 151.929,-337.159 156.099,-339.03"/>
<polygon fill="midnightblue" stroke="midnightblue" points="154.761,-342.265 165.337,-342.905 157.469,-335.809 154.761,-342.265"/>
</g>
<!-- Node8 -->
<g id="node8" class="node"><title>Node8</title>
<g id="a_node8"><a xlink:href="namespaceRa_1_1Core_1_1Geometry.html#aecb62214bedc582489bc41417f946abd" target="_top" xlink:title="Ra::Core::Geometry\l::barycentricCoordinate">
<polygon fill="white" stroke="black" points="159,-294 159,-324 277,-324 277,-294 159,-294"/>
<text text-anchor="start" x="167" y="-312" font-family="Helvetica,sans-Serif" font-size="10.00">Ra::Core::Geometry</text>
<text text-anchor="middle" x="218" y="-301" font-family="Helvetica,sans-Serif" font-size="10.00">::barycentricCoordinate</text>
</a>
</g>
</g>
<!-- Node1&#45;&gt;Node8 -->
<g id="edge7" class="edge"><title>Node1&#45;&gt;Node8</title>
<path fill="none" stroke="midnightblue" d="M104.927,-275.101C121.481,-280.108 140.075,-285.732 157.288,-290.939"/>
<polygon fill="midnightblue" stroke="midnightblue" points="156.653,-294.403 167.238,-293.948 158.679,-287.703 156.653,-294.403"/>
</g>
<!-- Node9 -->
<g id="node9" class="node"><title>Node9</title>
<g id="a_node9"><a xlink:href="classRa_1_1Core_1_1Geometry_1_1Mapping.html#a88b94043360f55730de9899181cbd31f" target="_top" xlink:title="Ra::Core::Geometry\l::Mapping::isBoundToElement">
<polygon fill="white" stroke="black" points="144,-245 144,-275 292,-275 292,-245 144,-245"/>
<text text-anchor="start" x="152" y="-263" font-family="Helvetica,sans-Serif" font-size="10.00">Ra::Core::Geometry</text>
<text text-anchor="middle" x="218" y="-252" font-family="Helvetica,sans-Serif" font-size="10.00">::Mapping::isBoundToElement</text>
</a>
</g>
</g>
<!-- Node1&#45;&gt;Node9 -->
<g id="edge8" class="edge"><title>Node1&#45;&gt;Node9</title>
<path fill="none" stroke="midnightblue" d="M107.597,-260C115.988,-260 124.844,-260 133.737,-260"/>
<polygon fill="midnightblue" stroke="midnightblue" points="133.769,-263.5 143.769,-260 133.769,-256.5 133.769,-263.5"/>
</g>
<!-- Node11 -->
<g id="node11" class="node"><title>Node11</title>
<g id="a_node11"><a xlink:href="classRa_1_1Core_1_1Geometry_1_1Mapping.html#a77e6d8203213675dd143a7e48866cca2" target="_top" xlink:title="DELTA. ">
<polygon fill="white" stroke="black" points="165.5,-196 165.5,-226 270.5,-226 270.5,-196 165.5,-196"/>
<text text-anchor="start" x="173.5" y="-214" font-family="Helvetica,sans-Serif" font-size="10.00">Ra::Core::Geometry</text>
<text text-anchor="middle" x="218" y="-203" font-family="Helvetica,sans-Serif" font-size="10.00">::Mapping::getDelta</text>
</a>
</g>
</g>
<!-- Node1&#45;&gt;Node11 -->
<g id="edge10" class="edge"><title>Node1&#45;&gt;Node11</title>
<path fill="none" stroke="midnightblue" d="M104.927,-244.899C121.481,-239.892 140.075,-234.268 157.288,-229.061"/>
<polygon fill="midnightblue" stroke="midnightblue" points="158.679,-232.297 167.238,-226.052 156.653,-225.597 158.679,-232.297"/>
</g>
<!-- Node12 -->
<g id="node12" class="node"><title>Node12</title>
<g id="a_node12"><a xlink:href="classRa_1_1Core_1_1Geometry_1_1Mapping.html#a02cc79d48245d002d8fb6587a7ab6df9" target="_top" xlink:title="Ra::Core::Geometry\l::Mapping::setID">
<polygon fill="white" stroke="black" points="165.5,-147 165.5,-177 270.5,-177 270.5,-147 165.5,-147"/>
<text text-anchor="start" x="173.5" y="-165" font-family="Helvetica,sans-Serif" font-size="10.00">Ra::Core::Geometry</text>
<text text-anchor="middle" x="218" y="-154" font-family="Helvetica,sans-Serif" font-size="10.00">::Mapping::setID</text>
</a>
</g>
</g>
<!-- Node1&#45;&gt;Node12 -->
<g id="edge11" class="edge"><title>Node1&#45;&gt;Node12</title>
<path fill="none" stroke="midnightblue" d="M69.8241,-244.97C86.5507,-228.738 115.197,-203.052 144,-187 147.856,-184.851 151.929,-182.841 156.099,-180.97"/>
<polygon fill="midnightblue" stroke="midnightblue" points="157.469,-184.191 165.337,-177.095 154.761,-177.735 157.469,-184.191"/>
</g>
<!-- Node13 -->
<g id="node13" class="node"><title>Node13</title>
<g id="a_node13"><a xlink:href="classRa_1_1Core_1_1Geometry_1_1Mapping.html#a34a8b68d4ff74a12aa4019b515ca68f4" target="_top" xlink:title="Ra::Core::Geometry\l::Mapping::setDelta">
<polygon fill="white" stroke="black" points="165.5,-98 165.5,-128 270.5,-128 270.5,-98 165.5,-98"/>
<text text-anchor="start" x="173.5" y="-116" font-family="Helvetica,sans-Serif" font-size="10.00">Ra::Core::Geometry</text>
<text text-anchor="middle" x="218" y="-105" font-family="Helvetica,sans-Serif" font-size="10.00">::Mapping::setDelta</text>
</a>
</g>
</g>
<!-- Node1&#45;&gt;Node13 -->
<g id="edge12" class="edge"><title>Node1&#45;&gt;Node13</title>
<path fill="none" stroke="midnightblue" d="M62.1048,-244.94C74.9248,-219.333 104.326,-167.247 144,-138 147.678,-135.289 151.672,-132.856 155.832,-130.676"/>
<polygon fill="midnightblue" stroke="midnightblue" points="157.587,-133.719 165.147,-126.297 154.608,-127.384 157.587,-133.719"/>
</g>
<!-- Node15 -->
<g id="node15" class="node"><title>Node15</title>
<g id="a_node15"><a xlink:href="classRa_1_1Core_1_1Geometry_1_1Mapping.html#a2404a199905a44261da201539c62db97" target="_top" xlink:title="Ra::Core::Geometry\l::Mapping::setAlpha">
<polygon fill="white" stroke="black" points="165.5,-49 165.5,-79 270.5,-79 270.5,-49 165.5,-49"/>
<text text-anchor="start" x="173.5" y="-67" font-family="Helvetica,sans-Serif" font-size="10.00">Ra::Core::Geometry</text>
<text text-anchor="middle" x="218" y="-56" font-family="Helvetica,sans-Serif" font-size="10.00">::Mapping::setAlpha</text>
</a>
</g>
</g>
<!-- Node1&#45;&gt;Node15 -->
<g id="edge14" class="edge"><title>Node1&#45;&gt;Node15</title>
<path fill="none" stroke="midnightblue" d="M58.7628,-244.803C67.7372,-211.671 93.511,-132.434 144,-89 147.678,-85.8358 151.777,-83.0665 156.103,-80.6437"/>
<polygon fill="midnightblue" stroke="midnightblue" points="157.818,-83.7006 165.242,-76.1418 154.725,-77.4211 157.818,-83.7006"/>
</g>
<!-- Node16 -->
<g id="node16" class="node"><title>Node16</title>
<g id="a_node16"><a xlink:href="classRa_1_1Core_1_1Geometry_1_1Mapping.html#a982c41a377dbe1cd10e67b463c3d57b2" target="_top" xlink:title="Ra::Core::Geometry\l::Mapping::setBeta">
<polygon fill="white" stroke="black" points="165.5,-0 165.5,-30 270.5,-30 270.5,-0 165.5,-0"/>
<text text-anchor="start" x="173.5" y="-18" font-family="Helvetica,sans-Serif" font-size="10.00">Ra::Core::Geometry</text>
<text text-anchor="middle" x="218" y="-7" font-family="Helvetica,sans-Serif" font-size="10.00">::Mapping::setBeta</text>
</a>
</g>
</g>
<!-- Node1&#45;&gt;Node16 -->
<g id="edge15" class="edge"><title>Node1&#45;&gt;Node16</title>
<path fill="none" stroke="midnightblue" d="M56.8063,-244.78C62.2972,-205.251 82.3722,-98.3591 144,-40 147.581,-36.6092 151.641,-33.6766 155.969,-31.1406"/>
<polygon fill="midnightblue" stroke="midnightblue" points="157.83,-34.1211 165.161,-26.4723 154.66,-27.8798 157.83,-34.1211"/>
</g>
<!-- Node4 -->
<g id="node4" class="node"><title>Node4</title>
<g id="a_node4"><a xlink:href="classRa_1_1Core_1_1AttribManager.html#aaa6088620425c1e1d74b50f1b50eb596" target="_top" xlink:title="Get attribute by handle. ">
<polygon fill="white" stroke="black" points="328.5,-431 328.5,-461 451.5,-461 451.5,-431 328.5,-431"/>
<text text-anchor="start" x="336.5" y="-449" font-family="Helvetica,sans-Serif" font-size="10.00">Ra::Core::AttribManager</text>
<text text-anchor="middle" x="390" y="-438" font-family="Helvetica,sans-Serif" font-size="10.00">::getAttrib</text>
</a>
</g>
</g>
<!-- Node3&#45;&gt;Node4 -->
<g id="edge3" class="edge"><title>Node3&#45;&gt;Node4</title>
<path fill="none" stroke="midnightblue" d="M278.936,-446C291.608,-446 305.096,-446 318.129,-446"/>
<polygon fill="midnightblue" stroke="midnightblue" points="318.458,-449.5 328.458,-446 318.458,-442.5 318.458,-449.5"/>
</g>
<!-- Node7 -->
<g id="node7" class="node"><title>Node7</title>
<g id="a_node7"><a xlink:href="namespaceOpenMesh.html#a71e7f1dd3eac016d2b8245ac408a291c" target="_top" xlink:title="OpenMesh::cross">
<polygon fill="white" stroke="black" points="343,-348.5 343,-367.5 437,-367.5 437,-348.5 343,-348.5"/>
<text text-anchor="middle" x="390" y="-355.5" font-family="Helvetica,sans-Serif" font-size="10.00">OpenMesh::cross</text>
</a>
</g>
</g>
<!-- Node6&#45;&gt;Node7 -->
<g id="edge6" class="edge"><title>Node6&#45;&gt;Node7</title>
<path fill="none" stroke="midnightblue" d="M270.929,-358C290.47,-358 312.772,-358 332.693,-358"/>
<polygon fill="midnightblue" stroke="midnightblue" points="332.866,-361.5 342.866,-358 332.866,-354.5 332.866,-361.5"/>
</g>
<!-- Node10 -->
<g id="node10" class="node"><title>Node10</title>
<g id="a_node10"><a xlink:href="classRa_1_1Core_1_1Geometry_1_1Mapping.html#a4f14c58a7a6f13376064743c9284019c" target="_top" xlink:title="ID. ">
<polygon fill="white" stroke="black" points="337.5,-245 337.5,-275 442.5,-275 442.5,-245 337.5,-245"/>
<text text-anchor="start" x="345.5" y="-263" font-family="Helvetica,sans-Serif" font-size="10.00">Ra::Core::Geometry</text>
<text text-anchor="middle" x="390" y="-252" font-family="Helvetica,sans-Serif" font-size="10.00">::Mapping::getID</text>
</a>
</g>
</g>
<!-- Node9&#45;&gt;Node10 -->
<g id="edge9" class="edge"><title>Node9&#45;&gt;Node10</title>
<path fill="none" stroke="midnightblue" d="M292.082,-260C303.726,-260 315.675,-260 327.03,-260"/>
<polygon fill="midnightblue" stroke="midnightblue" points="327.266,-263.5 337.266,-260 327.266,-256.5 327.266,-263.5"/>
</g>
<!-- Node14 -->
<g id="node14" class="node"><title>Node14</title>
<g id="a_node14"><a xlink:href="namespaceRa_1_1Core_1_1Algorithm.html#abebfe08bb2303204bea2baea8195439d" target="_top" xlink:title="Ra::Core::Algorithm\l::delta">
<polygon fill="white" stroke="black" points="338,-98 338,-128 442,-128 442,-98 338,-98"/>
<text text-anchor="start" x="346" y="-116" font-family="Helvetica,sans-Serif" font-size="10.00">Ra::Core::Algorithm</text>
<text text-anchor="middle" x="390" y="-105" font-family="Helvetica,sans-Serif" font-size="10.00">::delta</text>
</a>
</g>
</g>
<!-- Node13&#45;&gt;Node14 -->
<g id="edge13" class="edge"><title>Node13&#45;&gt;Node14</title>
<path fill="none" stroke="midnightblue" d="M270.929,-113C288.89,-113 309.184,-113 327.817,-113"/>
<polygon fill="midnightblue" stroke="midnightblue" points="327.973,-116.5 337.973,-113 327.973,-109.5 327.973,-116.5"/>
</g>
</g>
</svg>
