<?xml version="1.0" encoding="UTF-8" standalone="no"?>
<!DOCTYPE svg PUBLIC "-//W3C//DTD SVG 1.1//EN"
 "http://www.w3.org/Graphics/SVG/1.1/DTD/svg11.dtd">
<!-- Generated by graphviz version 2.36.0 (20140111.2315)
 -->
<!-- Title: Ra::Core::AdjacencyQueries::getVertexNeighbors Pages: 1 -->
<svg width="470pt" height="117pt"
 viewBox="0.00 0.00 470.00 117.00" xmlns="http://www.w3.org/2000/svg" xmlns:xlink="http://www.w3.org/1999/xlink">
<g id="graph0" class="graph" transform="scale(1 1) rotate(0) translate(4 113)">
<title>Ra::Core::AdjacencyQueries::getVertexNeighbors</title>
<polygon fill="white" stroke="none" points="-4,4 -4,-113 466,-113 466,4 -4,4"/>
<!-- Node1 -->
<g id="node1" class="node"><title>Node1</title>
<polygon fill="#bfbfbf" stroke="black" points="0,-54 0,-84 142,-84 142,-54 0,-54"/>
<text text-anchor="start" x="8" y="-72" font-family="Helvetica,sans-Serif" font-size="10.00">Ra::Core::AdjacencyQueries</text>
<text text-anchor="middle" x="71" y="-61" font-family="Helvetica,sans-Serif" font-size="10.00">::getVertexNeighbors</text>
</g>
<!-- Node2 -->
<g id="node2" class="node"><title>Node2</title>
<g id="a_node2"><a xlink:href="classRa_1_1Core_1_1TriangleMesh.html#a495116f40cfec8bb6504698d786d4b8c" target="_top" xlink:title="Access the vertices positions. ">
<polygon fill="white" stroke="black" points="179.5,-79 179.5,-109 300.5,-109 300.5,-79 179.5,-79"/>
<text text-anchor="start" x="187.5" y="-97" font-family="Helvetica,sans-Serif" font-size="10.00">Ra::Core::TriangleMesh</text>
<text text-anchor="middle" x="240" y="-86" font-family="Helvetica,sans-Serif" font-size="10.00">::vertices</text>
</a>
</g>
</g>
<!-- Node1&#45;&gt;Node2 -->
<g id="edge1" class="edge"><title>Node1&#45;&gt;Node2</title>
<path fill="none" stroke="midnightblue" d="M142.339,-79.5298C151.277,-80.8678 160.421,-82.2367 169.348,-83.573"/>
<polygon fill="midnightblue" stroke="midnightblue" points="168.904,-87.0454 179.312,-85.0646 169.94,-80.1226 168.904,-87.0454"/>
</g>
<!-- Node4 -->
<g id="node4" class="node"><title>Node4</title>
<g id="a_node4"><a xlink:href="classRa_1_1Core_1_1HalfEdgeData.html#a0ce0f4d6008be4b69ff3b5294fb701ca" target="_top" xlink:title="Returns the half edges starting from given vertex. ">
<polygon fill="white" stroke="black" points="178,-30 178,-60 302,-60 302,-30 178,-30"/>
<text text-anchor="start" x="186" y="-48" font-family="Helvetica,sans-Serif" font-size="10.00">Ra::Core::HalfEdgeData</text>
<text text-anchor="middle" x="240" y="-37" font-family="Helvetica,sans-Serif" font-size="10.00">::getVertexHalfEdges</text>
</a>
</g>
</g>
<!-- Node1&#45;&gt;Node4 -->
<g id="edge3" class="edge"><title>Node1&#45;&gt;Node4</title>
<path fill="none" stroke="midnightblue" d="M142.339,-58.8914C150.704,-57.6892 159.25,-56.461 167.63,-55.2568"/>
<polygon fill="midnightblue" stroke="midnightblue" points="168.345,-58.6901 177.745,-53.8031 167.349,-51.7613 168.345,-58.6901"/>
</g>
<!-- Node3 -->
<g id="node3" class="node"><title>Node3</title>
<g id="a_node3"><a xlink:href="classRa_1_1Core_1_1AttribManager.html#aaa6088620425c1e1d74b50f1b50eb596" target="_top" xlink:title="Get attribute by handle. ">
<polygon fill="white" stroke="black" points="338.5,-79 338.5,-109 461.5,-109 461.5,-79 338.5,-79"/>
<text text-anchor="start" x="346.5" y="-97" font-family="Helvetica,sans-Serif" font-size="10.00">Ra::Core::AttribManager</text>
<text text-anchor="middle" x="400" y="-86" font-family="Helvetica,sans-Serif" font-size="10.00">::getAttrib</text>
</a>
</g>
</g>
<!-- Node2&#45;&gt;Node3 -->
<g id="edge2" class="edge"><title>Node2&#45;&gt;Node3</title>
<path fill="none" stroke="midnightblue" d="M300.733,-94C309.686,-94 318.99,-94 328.146,-94"/>
<polygon fill="midnightblue" stroke="midnightblue" points="328.395,-97.5001 338.395,-94 328.395,-90.5001 328.395,-97.5001"/>
</g>
<!-- Node5 -->
<g id="node5" class="node"><title>Node5</title>
<g id="a_node5"><a xlink:href="classRa_1_1Core_1_1Index.html#a87c70243f30c65c1a24834d1829bda01" target="_top" xlink:title="DESTRUCTOR: Must not be defined, we need it trivial to be constexpr. ">
<polygon fill="white" stroke="black" points="339,-38.5 339,-57.5 461,-57.5 461,-38.5 339,-38.5"/>
<text text-anchor="middle" x="400" y="-45.5" font-family="Helvetica,sans-Serif" font-size="10.00">Ra::Core::Index::isValid</text>
</a>
</g>
</g>
<!-- Node4&#45;&gt;Node5 -->
<g id="edge4" class="edge"><title>Node4&#45;&gt;Node5</title>
<path fill="none" stroke="midnightblue" d="M302.087,-46.1599C310.763,-46.3246 319.743,-46.4951 328.578,-46.6629"/>
<polygon fill="midnightblue" stroke="midnightblue" points="328.791,-50.1675 338.856,-46.858 328.924,-43.1687 328.791,-50.1675"/>
</g>
<!-- Node6 -->
<g id="node6" class="node"><title>Node6</title>
<g id="a_node6"><a xlink:href="namespaceRa_1_1Core.html#a3376e6339252cfb83de46bd312dd2cf8" target="_top" xlink:title="QUERY. ">
<polygon fill="white" stroke="black" points="355.5,-0.5 355.5,-19.5 444.5,-19.5 444.5,-0.5 355.5,-0.5"/>
<text text-anchor="middle" x="400" y="-7.5" font-family="Helvetica,sans-Serif" font-size="10.00">Ra::Core::empty</text>
</a>
</g>
</g>
<!-- Node4&#45;&gt;Node6 -->
<g id="edge5" class="edge"><title>Node4&#45;&gt;Node6</title>
<path fill="none" stroke="midnightblue" d="M302.087,-31.4681C316.482,-28.2794 331.714,-24.9051 345.733,-21.7997"/>
<polygon fill="midnightblue" stroke="midnightblue" points="346.691,-25.1725 355.697,-19.5925 345.177,-18.3381 346.691,-25.1725"/>
</g>
</g>
</svg>
