<?xml version="1.0" encoding="UTF-8" standalone="no"?>
<!DOCTYPE svg PUBLIC "-//W3C//DTD SVG 1.1//EN"
 "http://www.w3.org/Graphics/SVG/1.1/DTD/svg11.dtd">
<!-- Generated by graphviz version 2.36.0 (20140111.2315)
 -->
<!-- Title: Ra::Core::Geometry::angleWeightedNormal Pages: 1 -->
<svg width="440pt" height="214pt"
 viewBox="0.00 0.00 440.00 214.00" xmlns="http://www.w3.org/2000/svg" xmlns:xlink="http://www.w3.org/1999/xlink">
<g id="graph0" class="graph" transform="scale(1 1) rotate(0) translate(4 210)">
<title>Ra::Core::Geometry::angleWeightedNormal</title>
<polygon fill="white" stroke="none" points="-4,4 -4,-210 436,-210 436,4 -4,4"/>
<!-- Node1 -->
<g id="node1" class="node"><title>Node1</title>
<polygon fill="#bfbfbf" stroke="black" points="0.5,-88 0.5,-118 119.5,-118 119.5,-88 0.5,-88"/>
<text text-anchor="start" x="8.5" y="-106" font-family="Helvetica,sans-Serif" font-size="10.00">Ra::Core::Geometry</text>
<text text-anchor="middle" x="60" y="-95" font-family="Helvetica,sans-Serif" font-size="10.00">::angleWeightedNormal</text>
</g>
<!-- Node2 -->
<g id="node2" class="node"><title>Node2</title>
<g id="a_node2"><a xlink:href="namespaceRa_1_1Core.html#a28c10004edc39878acecb94c2ca5b837" target="_top" xlink:title="NORMAL. ">
<polygon fill="white" stroke="black" points="181,-186.5 181,-205.5 251,-205.5 251,-186.5 181,-186.5"/>
<text text-anchor="middle" x="216" y="-193.5" font-family="Helvetica,sans-Serif" font-size="10.00">Ra::Core::N</text>
</a>
</g>
</g>
<!-- Node1&#45;&gt;Node2 -->
<g id="edge1" class="edge"><title>Node1&#45;&gt;Node2</title>
<path fill="none" stroke="midnightblue" d="M77.334,-118.276C95.3905,-134.48 125.918,-159.916 156,-176 160.829,-178.582 166.055,-180.924 171.332,-183.022"/>
<polygon fill="midnightblue" stroke="midnightblue" points="170.22,-186.342 180.813,-186.531 172.649,-179.777 170.22,-186.342"/>
</g>
<!-- Node3 -->
<g id="node3" class="node"><title>Node3</title>
<g id="a_node3"><a xlink:href="classRa_1_1Core_1_1CircularIndex.html#a209650affef46390ab727a90c8b51920" target="_top" xlink:title="Ra::Core::CircularIndex\l::setSize">
<polygon fill="white" stroke="black" points="156,-137 156,-167 276,-167 276,-137 156,-137"/>
<text text-anchor="start" x="164" y="-155" font-family="Helvetica,sans-Serif" font-size="10.00">Ra::Core::CircularIndex</text>
<text text-anchor="middle" x="216" y="-144" font-family="Helvetica,sans-Serif" font-size="10.00">::setSize</text>
</a>
</g>
</g>
<!-- Node1&#45;&gt;Node3 -->
<g id="edge2" class="edge"><title>Node1&#45;&gt;Node3</title>
<path fill="none" stroke="midnightblue" d="M108.462,-118.101C124.05,-123.062 141.543,-128.627 157.778,-133.793"/>
<polygon fill="midnightblue" stroke="midnightblue" points="157.105,-137.252 167.695,-136.948 159.227,-130.581 157.105,-137.252"/>
</g>
<!-- Node5 -->
<g id="node5" class="node"><title>Node5</title>
<g id="a_node5"><a xlink:href="classRa_1_1Core_1_1CircularIndex.html#a748a857d5d9affc123a4ecc9c5ffc344" target="_top" xlink:title="Ra::Core::CircularIndex\l::setValue">
<polygon fill="white" stroke="black" points="156,-88 156,-118 276,-118 276,-88 156,-88"/>
<text text-anchor="start" x="164" y="-106" font-family="Helvetica,sans-Serif" font-size="10.00">Ra::Core::CircularIndex</text>
<text text-anchor="middle" x="216" y="-95" font-family="Helvetica,sans-Serif" font-size="10.00">::setValue</text>
</a>
</g>
</g>
<!-- Node1&#45;&gt;Node5 -->
<g id="edge4" class="edge"><title>Node1&#45;&gt;Node5</title>
<path fill="none" stroke="midnightblue" d="M119.66,-103C128.213,-103 137.087,-103 145.825,-103"/>
<polygon fill="midnightblue" stroke="midnightblue" points="145.993,-106.5 155.993,-103 145.993,-99.5001 145.993,-106.5"/>
</g>
<!-- Node6 -->
<g id="node6" class="node"><title>Node6</title>
<g id="a_node6"><a xlink:href="namespaceRa_1_1Core_1_1Vector.html#a4749dcfe36082199e05b149281a75082" target="_top" xlink:title="Get the angle between two vectors. ">
<polygon fill="white" stroke="black" points="156,-49.5 156,-68.5 276,-68.5 276,-49.5 156,-49.5"/>
<text text-anchor="middle" x="216" y="-56.5" font-family="Helvetica,sans-Serif" font-size="10.00">Ra::Core::Vector::angle</text>
</a>
</g>
</g>
<!-- Node1&#45;&gt;Node6 -->
<g id="edge5" class="edge"><title>Node1&#45;&gt;Node6</title>
<path fill="none" stroke="midnightblue" d="M113.567,-87.9808C132.535,-82.5613 153.71,-76.5114 171.786,-71.3468"/>
<polygon fill="midnightblue" stroke="midnightblue" points="172.822,-74.6909 181.476,-68.5783 170.899,-67.9602 172.822,-74.6909"/>
</g>
<!-- Node7 -->
<g id="node7" class="node"><title>Node7</title>
<g id="a_node7"><a xlink:href="namespaceRa_1_1Core_1_1Geometry.html#a2ce97206423345716bf1b55f60c1c227" target="_top" xlink:title="Ra::Core::Geometry\l::triangleNormal">
<polygon fill="white" stroke="black" points="163.5,-0 163.5,-30 268.5,-30 268.5,-0 163.5,-0"/>
<text text-anchor="start" x="171.5" y="-18" font-family="Helvetica,sans-Serif" font-size="10.00">Ra::Core::Geometry</text>
<text text-anchor="middle" x="216" y="-7" font-family="Helvetica,sans-Serif" font-size="10.00">::triangleNormal</text>
</a>
</g>
</g>
<!-- Node1&#45;&gt;Node7 -->
<g id="edge6" class="edge"><title>Node1&#45;&gt;Node7</title>
<path fill="none" stroke="midnightblue" d="M81.4413,-87.8374C100.23,-74.2961 129.155,-54.4287 156,-40 159.537,-38.099 163.249,-36.2371 167.017,-34.4411"/>
<polygon fill="midnightblue" stroke="midnightblue" points="168.797,-37.4754 176.43,-30.1275 165.881,-31.1118 168.797,-37.4754"/>
</g>
<!-- Node4 -->
<g id="node4" class="node"><title>Node4</title>
<g id="a_node4"><a xlink:href="classRa_1_1Core_1_1CircularIndex.html#a49f32351ed0de532b6b5f125c81ad2ae" target="_top" xlink:title="DIMENSION. ">
<polygon fill="white" stroke="black" points="312,-137 312,-167 432,-167 432,-137 312,-137"/>
<text text-anchor="start" x="320" y="-155" font-family="Helvetica,sans-Serif" font-size="10.00">Ra::Core::CircularIndex</text>
<text text-anchor="middle" x="372" y="-144" font-family="Helvetica,sans-Serif" font-size="10.00">::size</text>
</a>
</g>
</g>
<!-- Node3&#45;&gt;Node4 -->
<g id="edge3" class="edge"><title>Node3&#45;&gt;Node4</title>
<path fill="none" stroke="midnightblue" d="M276.1,-152C284.422,-152 293.039,-152 301.533,-152"/>
<polygon fill="midnightblue" stroke="midnightblue" points="301.804,-155.5 311.804,-152 301.804,-148.5 301.804,-155.5"/>
</g>
<!-- Node8 -->
<g id="node8" class="node"><title>Node8</title>
<g id="a_node8"><a xlink:href="namespaceOpenMesh.html#a71e7f1dd3eac016d2b8245ac408a291c" target="_top" xlink:title="OpenMesh::cross">
<polygon fill="white" stroke="black" points="325,-5.5 325,-24.5 419,-24.5 419,-5.5 325,-5.5"/>
<text text-anchor="middle" x="372" y="-12.5" font-family="Helvetica,sans-Serif" font-size="10.00">OpenMesh::cross</text>
</a>
</g>
</g>
<!-- Node7&#45;&gt;Node8 -->
<g id="edge7" class="edge"><title>Node7&#45;&gt;Node8</title>
<path fill="none" stroke="midnightblue" d="M268.708,-15C283.475,-15 299.639,-15 314.668,-15"/>
<polygon fill="midnightblue" stroke="midnightblue" points="314.86,-18.5001 324.86,-15 314.86,-11.5001 314.86,-18.5001"/>
</g>
</g>
</svg>
