<?xml version="1.0" encoding="UTF-8" standalone="no"?>
<!DOCTYPE svg PUBLIC "-//W3C//DTD SVG 1.1//EN"
 "http://www.w3.org/Graphics/SVG/1.1/DTD/svg11.dtd">
<!-- Generated by graphviz version 2.36.0 (20140111.2315)
 -->
<!-- Title: Ra::Core::AdjacencyQueries::getVertexFirstRing Pages: 1 -->
<svg width="474pt" height="165pt"
 viewBox="0.00 0.00 474.00 165.00" xmlns="http://www.w3.org/2000/svg" xmlns:xlink="http://www.w3.org/1999/xlink">
<g id="graph0" class="graph" transform="scale(1 1) rotate(0) translate(4 161)">
<title>Ra::Core::AdjacencyQueries::getVertexFirstRing</title>
<polygon fill="white" stroke="none" points="-4,4 -4,-161 470,-161 470,4 -4,4"/>
<!-- Node1 -->
<g id="node1" class="node"><title>Node1</title>
<polygon fill="#bfbfbf" stroke="black" points="0,-61 0,-91 142,-91 142,-61 0,-61"/>
<text text-anchor="start" x="8" y="-79" font-family="Helvetica,sans-Serif" font-size="10.00">Ra::Core::AdjacencyQueries</text>
<text text-anchor="middle" x="71" y="-68" font-family="Helvetica,sans-Serif" font-size="10.00">::getVertexFirstRing</text>
</g>
<!-- Node2 -->
<g id="node2" class="node"><title>Node2</title>
<g id="a_node2"><a xlink:href="classRa_1_1Core_1_1TriangleMesh.html#a495116f40cfec8bb6504698d786d4b8c" target="_top" xlink:title="Access the vertices positions. ">
<polygon fill="white" stroke="black" points="181.5,-127 181.5,-157 302.5,-157 302.5,-127 181.5,-127"/>
<text text-anchor="start" x="189.5" y="-145" font-family="Helvetica,sans-Serif" font-size="10.00">Ra::Core::TriangleMesh</text>
<text text-anchor="middle" x="242" y="-134" font-family="Helvetica,sans-Serif" font-size="10.00">::vertices</text>
</a>
</g>
</g>
<!-- Node1&#45;&gt;Node2 -->
<g id="edge1" class="edge"><title>Node1&#45;&gt;Node2</title>
<path fill="none" stroke="midnightblue" d="M110.772,-91.1417C135.14,-100.658 166.768,-113.01 192.753,-123.158"/>
<polygon fill="midnightblue" stroke="midnightblue" points="191.82,-126.551 202.408,-126.929 194.367,-120.031 191.82,-126.551"/>
</g>
<!-- Node4 -->
<g id="node4" class="node"><title>Node4</title>
<g id="a_node4"><a xlink:href="classRa_1_1Core_1_1HalfEdgeData.html#a0ce0f4d6008be4b69ff3b5294fb701ca" target="_top" xlink:title="Returns the half edges starting from given vertex. ">
<polygon fill="white" stroke="black" points="180,-39 180,-69 304,-69 304,-39 180,-39"/>
<text text-anchor="start" x="188" y="-57" font-family="Helvetica,sans-Serif" font-size="10.00">Ra::Core::HalfEdgeData</text>
<text text-anchor="middle" x="242" y="-46" font-family="Helvetica,sans-Serif" font-size="10.00">::getVertexHalfEdges</text>
</a>
</g>
</g>
<!-- Node1&#45;&gt;Node4 -->
<g id="edge3" class="edge"><title>Node1&#45;&gt;Node4</title>
<path fill="none" stroke="midnightblue" d="M142.203,-66.8611C151.296,-65.6774 160.616,-64.4641 169.727,-63.2782"/>
<polygon fill="midnightblue" stroke="midnightblue" points="170.435,-66.7156 179.899,-61.9539 169.531,-59.7742 170.435,-66.7156"/>
</g>
<!-- Node5 -->
<g id="node5" class="node"><title>Node5</title>
<g id="a_node5"><a xlink:href="classRa_1_1Core_1_1Index.html#a87c70243f30c65c1a24834d1829bda01" target="_top" xlink:title="DESTRUCTOR: Must not be defined, we need it trivial to be constexpr. ">
<polygon fill="white" stroke="black" points="343,-85.5 343,-104.5 465,-104.5 465,-85.5 343,-85.5"/>
<text text-anchor="middle" x="404" y="-92.5" font-family="Helvetica,sans-Serif" font-size="10.00">Ra::Core::Index::isValid</text>
</a>
</g>
</g>
<!-- Node1&#45;&gt;Node5 -->
<g id="edge7" class="edge"><title>Node1&#45;&gt;Node5</title>
<path fill="none" stroke="midnightblue" d="M142.197,-80.0294C198.293,-83.2494 276.548,-87.7415 332.678,-90.9634"/>
<polygon fill="midnightblue" stroke="midnightblue" points="332.706,-94.4707 342.89,-91.5496 333.108,-87.4822 332.706,-94.4707"/>
</g>
<!-- Node7 -->
<g id="node7" class="node"><title>Node7</title>
<g id="a_node7"><a xlink:href="classRa_1_1Core_1_1Index.html#a7283e7fb9cc134e04ef3cde8877f8fe2" target="_top" xlink:title="INVALID. ">
<polygon fill="white" stroke="black" points="178,-0.5 178,-19.5 306,-19.5 306,-0.5 178,-0.5"/>
<text text-anchor="middle" x="242" y="-7.5" font-family="Helvetica,sans-Serif" font-size="10.00">Ra::Core::Index::isInvalid</text>
</a>
</g>
</g>
<!-- Node1&#45;&gt;Node7 -->
<g id="edge6" class="edge"><title>Node1&#45;&gt;Node7</title>
<path fill="none" stroke="midnightblue" d="M103.117,-60.9754C124.019,-51.1892 152.331,-38.5196 178,-29 183.975,-26.7842 190.337,-24.6319 196.634,-22.6207"/>
<polygon fill="midnightblue" stroke="midnightblue" points="197.897,-25.8935 206.411,-19.5875 195.823,-19.2079 197.897,-25.8935"/>
</g>
<!-- Node3 -->
<g id="node3" class="node"><title>Node3</title>
<g id="a_node3"><a xlink:href="classRa_1_1Core_1_1AttribManager.html#aaa6088620425c1e1d74b50f1b50eb596" target="_top" xlink:title="Get attribute by handle. ">
<polygon fill="white" stroke="black" points="342.5,-127 342.5,-157 465.5,-157 465.5,-127 342.5,-127"/>
<text text-anchor="start" x="350.5" y="-145" font-family="Helvetica,sans-Serif" font-size="10.00">Ra::Core::AttribManager</text>
<text text-anchor="middle" x="404" y="-134" font-family="Helvetica,sans-Serif" font-size="10.00">::getAttrib</text>
</a>
</g>
</g>
<!-- Node2&#45;&gt;Node3 -->
<g id="edge2" class="edge"><title>Node2&#45;&gt;Node3</title>
<path fill="none" stroke="midnightblue" d="M302.578,-142C312.206,-142 322.256,-142 332.119,-142"/>
<polygon fill="midnightblue" stroke="midnightblue" points="332.304,-145.5 342.304,-142 332.304,-138.5 332.304,-145.5"/>
</g>
<!-- Node4&#45;&gt;Node5 -->
<g id="edge4" class="edge"><title>Node4&#45;&gt;Node5</title>
<path fill="none" stroke="midnightblue" d="M301.67,-69.0341C319.563,-73.6192 338.992,-78.5979 356.006,-82.9577"/>
<polygon fill="midnightblue" stroke="midnightblue" points="355.158,-86.3536 365.714,-85.4455 356.896,-79.5727 355.158,-86.3536"/>
</g>
<!-- Node6 -->
<g id="node6" class="node"><title>Node6</title>
<g id="a_node6"><a xlink:href="namespaceRa_1_1Core.html#a3376e6339252cfb83de46bd312dd2cf8" target="_top" xlink:title="QUERY. ">
<polygon fill="white" stroke="black" points="359.5,-44.5 359.5,-63.5 448.5,-63.5 448.5,-44.5 359.5,-44.5"/>
<text text-anchor="middle" x="404" y="-51.5" font-family="Helvetica,sans-Serif" font-size="10.00">Ra::Core::empty</text>
</a>
</g>
</g>
<!-- Node4&#45;&gt;Node6 -->
<g id="edge5" class="edge"><title>Node4&#45;&gt;Node6</title>
<path fill="none" stroke="midnightblue" d="M304.403,-54C319.153,-54 334.796,-54 349.172,-54"/>
<polygon fill="midnightblue" stroke="midnightblue" points="349.385,-57.5001 359.385,-54 349.385,-50.5001 349.385,-57.5001"/>
</g>
</g>
</svg>
