<?xml version="1.0" encoding="UTF-8" standalone="no"?>
<!DOCTYPE svg PUBLIC "-//W3C//DTD SVG 1.1//EN"
 "http://www.w3.org/Graphics/SVG/1.1/DTD/svg11.dtd">
<!-- Generated by graphviz version 2.36.0 (20140111.2315)
 -->
<!-- Title: Ra::Core::Geometry::angleWeightedNormal Pages: 1 -->
<svg width="414pt" height="154pt"
 viewBox="0.00 0.00 414.00 154.00" xmlns="http://www.w3.org/2000/svg" xmlns:xlink="http://www.w3.org/1999/xlink">
<g id="graph0" class="graph" transform="scale(1 1) rotate(0) translate(4 150)">
<title>Ra::Core::Geometry::angleWeightedNormal</title>
<polygon fill="white" stroke="none" points="-4,4 -4,-150 410,-150 410,4 -4,4"/>
<!-- Node1 -->
<g id="node1" class="node"><title>Node1</title>
<polygon fill="#bfbfbf" stroke="black" points="0.5,-61 0.5,-91 119.5,-91 119.5,-61 0.5,-61"/>
<text text-anchor="start" x="8.5" y="-79" font-family="Helvetica,sans-Serif" font-size="10.00">Ra::Core::Geometry</text>
<text text-anchor="middle" x="60" y="-68" font-family="Helvetica,sans-Serif" font-size="10.00">::angleWeightedNormal</text>
</g>
<!-- Node2 -->
<g id="node2" class="node"><title>Node2</title>
<g id="a_node2"><a xlink:href="namespaceRa_1_1Core.html#a28c10004edc39878acecb94c2ca5b837" target="_top" xlink:title="NORMAL. ">
<polygon fill="white" stroke="black" points="181,-126.5 181,-145.5 251,-145.5 251,-126.5 181,-126.5"/>
<text text-anchor="middle" x="216" y="-133.5" font-family="Helvetica,sans-Serif" font-size="10.00">Ra::Core::N</text>
</a>
</g>
</g>
<!-- Node1&#45;&gt;Node2 -->
<g id="edge1" class="edge"><title>Node1&#45;&gt;Node2</title>
<path fill="none" stroke="midnightblue" d="M93.6577,-91.0151C111.839,-99.1403 134.981,-109.101 156,-117 161.679,-119.134 167.718,-121.25 173.683,-123.252"/>
<polygon fill="midnightblue" stroke="midnightblue" points="172.982,-126.705 183.575,-126.496 175.164,-120.054 172.982,-126.705"/>
</g>
<!-- Node3 -->
<g id="node3" class="node"><title>Node3</title>
<g id="a_node3"><a xlink:href="namespaceRa_1_1Core_1_1Algorithm.html#aea294cdb6f4f0d85955bdcccb22886ec" target="_top" xlink:title="Ra::Core::Algorithm::t">
<polygon fill="white" stroke="black" points="159.5,-88.5 159.5,-107.5 272.5,-107.5 272.5,-88.5 159.5,-88.5"/>
<text text-anchor="middle" x="216" y="-95.5" font-family="Helvetica,sans-Serif" font-size="10.00">Ra::Core::Algorithm::t</text>
</a>
</g>
</g>
<!-- Node1&#45;&gt;Node3 -->
<g id="edge2" class="edge"><title>Node1&#45;&gt;Node3</title>
<path fill="none" stroke="midnightblue" d="M119.66,-84.38C129.312,-85.7589 139.373,-87.1961 149.186,-88.5979"/>
<polygon fill="midnightblue" stroke="midnightblue" points="148.9,-92.0926 159.294,-90.0421 149.89,-85.1629 148.9,-92.0926"/>
</g>
<!-- Node4 -->
<g id="node4" class="node"><title>Node4</title>
<g id="a_node4"><a xlink:href="namespaceRa_1_1Core_1_1Geometry.html#a2ce97206423345716bf1b55f60c1c227" target="_top" xlink:title="Ra::Core::Geometry\l::triangleNormal">
<polygon fill="white" stroke="black" points="163.5,-39 163.5,-69 268.5,-69 268.5,-39 163.5,-39"/>
<text text-anchor="start" x="171.5" y="-57" font-family="Helvetica,sans-Serif" font-size="10.00">Ra::Core::Geometry</text>
<text text-anchor="middle" x="216" y="-46" font-family="Helvetica,sans-Serif" font-size="10.00">::triangleNormal</text>
</a>
</g>
</g>
<!-- Node1&#45;&gt;Node4 -->
<g id="edge3" class="edge"><title>Node1&#45;&gt;Node4</title>
<path fill="none" stroke="midnightblue" d="M119.66,-67.62C130.593,-66.0581 142.05,-64.4214 153.078,-62.846"/>
<polygon fill="midnightblue" stroke="midnightblue" points="153.653,-66.2995 163.057,-61.4204 152.663,-59.3699 153.653,-66.2995"/>
</g>
<!-- Node6 -->
<g id="node6" class="node"><title>Node6</title>
<g id="a_node6"><a xlink:href="namespaceRa_1_1Core_1_1Vector.html#a4749dcfe36082199e05b149281a75082" target="_top" xlink:title="Get the angle between two vectors. ">
<polygon fill="white" stroke="black" points="156,-0.5 156,-19.5 276,-19.5 276,-0.5 156,-0.5"/>
<text text-anchor="middle" x="216" y="-7.5" font-family="Helvetica,sans-Serif" font-size="10.00">Ra::Core::Vector::angle</text>
</a>
</g>
</g>
<!-- Node1&#45;&gt;Node6 -->
<g id="edge5" class="edge"><title>Node1&#45;&gt;Node6</title>
<path fill="none" stroke="midnightblue" d="M89.6814,-60.9594C108.315,-51.4772 133.278,-39.3102 156,-30 161.977,-27.5511 168.376,-25.1563 174.674,-22.9238"/>
<polygon fill="midnightblue" stroke="midnightblue" points="176.103,-26.1336 184.415,-19.5645 173.821,-19.516 176.103,-26.1336"/>
</g>
<!-- Node5 -->
<g id="node5" class="node"><title>Node5</title>
<g id="a_node5"><a xlink:href="namespaceOpenMesh.html#a71e7f1dd3eac016d2b8245ac408a291c" target="_top" xlink:title="OpenMesh::cross">
<polygon fill="white" stroke="black" points="312,-44.5 312,-63.5 406,-63.5 406,-44.5 312,-44.5"/>
<text text-anchor="middle" x="359" y="-51.5" font-family="Helvetica,sans-Serif" font-size="10.00">OpenMesh::cross</text>
</a>
</g>
</g>
<!-- Node4&#45;&gt;Node5 -->
<g id="edge4" class="edge"><title>Node4&#45;&gt;Node5</title>
<path fill="none" stroke="midnightblue" d="M268.703,-54C279.424,-54 290.77,-54 301.648,-54"/>
<polygon fill="midnightblue" stroke="midnightblue" points="301.898,-57.5001 311.898,-54 301.898,-50.5001 301.898,-57.5001"/>
</g>
</g>
</svg>
