<?xml version="1.0" encoding="UTF-8" standalone="no"?>
<!DOCTYPE svg PUBLIC "-//W3C//DTD SVG 1.1//EN"
 "http://www.w3.org/Graphics/SVG/1.1/DTD/svg11.dtd">
<!-- Generated by graphviz version 2.36.0 (20140111.2315)
 -->
<!-- Title: Ra::Gui::findPointOnAxis Pages: 1 -->
<svg width="564pt" height="185pt"
 viewBox="0.00 0.00 564.00 185.00" xmlns="http://www.w3.org/2000/svg" xmlns:xlink="http://www.w3.org/1999/xlink">
<g id="graph0" class="graph" transform="scale(1 1) rotate(0) translate(4 181)">
<title>Ra::Gui::findPointOnAxis</title>
<polygon fill="white" stroke="none" points="-4,4 -4,-181 560,-181 560,4 -4,4"/>
<!-- Node1 -->
<g id="node1" class="node"><title>Node1</title>
<polygon fill="#bfbfbf" stroke="black" points="0.5,-78.5 0.5,-97.5 127.5,-97.5 127.5,-78.5 0.5,-78.5"/>
<text text-anchor="middle" x="64" y="-85.5" font-family="Helvetica,sans-Serif" font-size="10.00">Ra::Gui::findPointOnAxis</text>
</g>
<!-- Node2 -->
<g id="node2" class="node"><title>Node2</title>
<g id="a_node2"><a xlink:href="classRa_1_1Engine_1_1Camera.html#a23be7aa714c0e9c2a9429dfc9ef2c53a" target="_top" xlink:title="Return the direction the camera is looking at. ">
<polygon fill="white" stroke="black" points="165,-147 165,-177 271,-177 271,-147 165,-147"/>
<text text-anchor="start" x="173" y="-165" font-family="Helvetica,sans-Serif" font-size="10.00">Ra::Engine::Camera</text>
<text text-anchor="middle" x="218" y="-154" font-family="Helvetica,sans-Serif" font-size="10.00">::getDirection</text>
</a>
</g>
</g>
<!-- Node1&#45;&gt;Node2 -->
<g id="edge1" class="edge"><title>Node1&#45;&gt;Node2</title>
<path fill="none" stroke="midnightblue" d="M83.9269,-97.5C103.813,-107.45 136.028,-123.482 164,-137 167.761,-138.818 171.68,-140.696 175.608,-142.567"/>
<polygon fill="midnightblue" stroke="midnightblue" points="174.187,-145.767 184.722,-146.893 177.189,-139.443 174.187,-145.767"/>
</g>
<!-- Node3 -->
<g id="node3" class="node"><title>Node3</title>
<g id="a_node3"><a xlink:href="classRa_1_1Engine_1_1Camera.html#adfc7c573c5cedb70aadd8afd8274253b" target="_top" xlink:title="Return the up vector. ">
<polygon fill="white" stroke="black" points="165,-98 165,-128 271,-128 271,-98 165,-98"/>
<text text-anchor="start" x="173" y="-116" font-family="Helvetica,sans-Serif" font-size="10.00">Ra::Engine::Camera</text>
<text text-anchor="middle" x="218" y="-105" font-family="Helvetica,sans-Serif" font-size="10.00">::getUpVector</text>
</a>
</g>
</g>
<!-- Node1&#45;&gt;Node3 -->
<g id="edge2" class="edge"><title>Node1&#45;&gt;Node3</title>
<path fill="none" stroke="midnightblue" d="M122.898,-97.5227C133.325,-99.2377 144.235,-101.032 154.778,-102.766"/>
<polygon fill="midnightblue" stroke="midnightblue" points="154.311,-106.236 164.747,-104.406 155.447,-99.3291 154.311,-106.236"/>
</g>
<!-- Node4 -->
<g id="node4" class="node"><title>Node4</title>
<g id="a_node4"><a xlink:href="classRa_1_1Engine_1_1Camera.html#a2b584b5db1c28d168d1d2c12eacbee1e" target="_top" xlink:title="Return a ray emanating from the camera, passing by the point given by screen coordinates x and y...">
<polygon fill="white" stroke="black" points="164.5,-49 164.5,-79 271.5,-79 271.5,-49 164.5,-49"/>
<text text-anchor="start" x="172.5" y="-67" font-family="Helvetica,sans-Serif" font-size="10.00">Ra::Engine::Camera</text>
<text text-anchor="middle" x="218" y="-56" font-family="Helvetica,sans-Serif" font-size="10.00">::getRayFromScreen</text>
</a>
</g>
</g>
<!-- Node1&#45;&gt;Node4 -->
<g id="edge3" class="edge"><title>Node1&#45;&gt;Node4</title>
<path fill="none" stroke="midnightblue" d="M125.511,-78.4456C134.874,-76.9673 144.565,-75.4372 153.981,-73.9504"/>
<polygon fill="midnightblue" stroke="midnightblue" points="154.731,-77.3754 164.063,-72.3585 153.639,-70.461 154.731,-77.3754"/>
</g>
<!-- Node8 -->
<g id="node8" class="node"><title>Node8</title>
<g id="a_node8"><a xlink:href="namespaceRa_1_1Core_1_1RayCast.html#a3aa002fc151cea24ec8d9b3f5f5dfb76" target="_top" xlink:title="Intersect a ray with an infinite plane defined by point A and normal. ">
<polygon fill="white" stroke="black" points="164.5,-0 164.5,-30 271.5,-30 271.5,-0 164.5,-0"/>
<text text-anchor="start" x="172.5" y="-18" font-family="Helvetica,sans-Serif" font-size="10.00">Ra::Core::RayCast::</text>
<text text-anchor="middle" x="218" y="-7" font-family="Helvetica,sans-Serif" font-size="10.00">vsPlane</text>
</a>
</g>
</g>
<!-- Node1&#45;&gt;Node8 -->
<g id="edge7" class="edge"><title>Node1&#45;&gt;Node8</title>
<path fill="none" stroke="midnightblue" d="M83.8848,-78.4119C103.737,-68.3896 135.923,-52.3004 164,-39 167.298,-37.4379 170.72,-35.8387 174.166,-34.244"/>
<polygon fill="midnightblue" stroke="midnightblue" points="175.647,-37.4153 183.275,-30.062 172.726,-31.0538 175.647,-37.4153"/>
</g>
<!-- Node5 -->
<g id="node5" class="node"><title>Node5</title>
<g id="a_node5"><a xlink:href="classRa_1_1Engine_1_1Camera.html#a724a052e94817af7e602129467c8696f" target="_top" xlink:title="Return the position. ">
<polygon fill="white" stroke="black" points="308,-95 308,-125 414,-125 414,-95 308,-95"/>
<text text-anchor="start" x="316" y="-113" font-family="Helvetica,sans-Serif" font-size="10.00">Ra::Engine::Camera</text>
<text text-anchor="middle" x="361" y="-102" font-family="Helvetica,sans-Serif" font-size="10.00">::getPosition</text>
</a>
</g>
</g>
<!-- Node4&#45;&gt;Node5 -->
<g id="edge4" class="edge"><title>Node4&#45;&gt;Node5</title>
<path fill="none" stroke="midnightblue" d="M265.169,-79.0621C277.585,-83.1128 291.149,-87.5379 304.035,-91.7421"/>
<polygon fill="midnightblue" stroke="midnightblue" points="303.135,-95.1298 313.728,-94.904 305.306,-88.475 303.135,-95.1298"/>
</g>
<!-- Node6 -->
<g id="node6" class="node"><title>Node6</title>
<g id="a_node6"><a xlink:href="classRa_1_1Engine_1_1Camera.html#ad1d6eb41b5e8d52cd2ddecf47f1b2053" target="_top" xlink:title="Return the point on the screen plane (near plane) represented by screen coordinates pix...">
<polygon fill="white" stroke="black" points="308,-46 308,-76 414,-76 414,-46 308,-46"/>
<text text-anchor="start" x="316" y="-64" font-family="Helvetica,sans-Serif" font-size="10.00">Ra::Engine::Camera</text>
<text text-anchor="middle" x="361" y="-53" font-family="Helvetica,sans-Serif" font-size="10.00">::unProject</text>
</a>
</g>
</g>
<!-- Node4&#45;&gt;Node6 -->
<g id="edge5" class="edge"><title>Node4&#45;&gt;Node6</title>
<path fill="none" stroke="midnightblue" d="M271.503,-62.8829C280.057,-62.7009 288.99,-62.5109 297.751,-62.3245"/>
<polygon fill="midnightblue" stroke="midnightblue" points="297.999,-65.8201 307.922,-62.108 297.85,-58.8216 297.999,-65.8201"/>
</g>
<!-- Node7 -->
<g id="node7" class="node"><title>Node7</title>
<g id="a_node7"><a xlink:href="classRa_1_1Engine_1_1Camera.html#adb545a4a1f889d63ce4fc9a41cdeef2a" target="_top" xlink:title="Return the projection matrix. ">
<polygon fill="white" stroke="black" points="450,-46 450,-76 556,-76 556,-46 450,-46"/>
<text text-anchor="start" x="458" y="-64" font-family="Helvetica,sans-Serif" font-size="10.00">Ra::Engine::Camera</text>
<text text-anchor="middle" x="503" y="-53" font-family="Helvetica,sans-Serif" font-size="10.00">::getProjMatrix</text>
</a>
</g>
</g>
<!-- Node6&#45;&gt;Node7 -->
<g id="edge6" class="edge"><title>Node6&#45;&gt;Node7</title>
<path fill="none" stroke="midnightblue" d="M414.131,-61C422.421,-61 431.07,-61 439.568,-61"/>
<polygon fill="midnightblue" stroke="midnightblue" points="439.826,-64.5001 449.826,-61 439.826,-57.5001 439.826,-64.5001"/>
</g>
<!-- Node9 -->
<g id="node9" class="node"><title>Node9</title>
<g id="a_node9"><a xlink:href="namespaceOpenMesh.html#a575b338f0fc9ecb5393d23e977e6ac38" target="_top" xlink:title="OpenMesh::dot">
<polygon fill="white" stroke="black" points="319.5,-5.5 319.5,-24.5 402.5,-24.5 402.5,-5.5 319.5,-5.5"/>
<text text-anchor="middle" x="361" y="-12.5" font-family="Helvetica,sans-Serif" font-size="10.00">OpenMesh::dot</text>
</a>
</g>
</g>
<!-- Node8&#45;&gt;Node9 -->
<g id="edge8" class="edge"><title>Node8&#45;&gt;Node9</title>
<path fill="none" stroke="midnightblue" d="M271.503,-15C283.86,-15 297.006,-15 309.282,-15"/>
<polygon fill="midnightblue" stroke="midnightblue" points="309.353,-18.5001 319.353,-15 309.353,-11.5001 309.353,-18.5001"/>
</g>
</g>
</svg>
