<?xml version="1.0" encoding="UTF-8" standalone="no"?>
<!DOCTYPE svg PUBLIC "-//W3C//DTD SVG 1.1//EN"
 "http://www.w3.org/Graphics/SVG/1.1/DTD/svg11.dtd">
<!-- Generated by graphviz version 2.36.0 (20140111.2315)
 -->
<!-- Title: Ra::Core::Graph::storeAdjacencyList Pages: 1 -->
<svg width="362pt" height="77pt"
 viewBox="0.00 0.00 362.00 77.00" xmlns="http://www.w3.org/2000/svg" xmlns:xlink="http://www.w3.org/1999/xlink">
<g id="graph0" class="graph" transform="scale(1 1) rotate(0) translate(4 73)">
<title>Ra::Core::Graph::storeAdjacencyList</title>
<polygon fill="white" stroke="none" points="-4,4 -4,-73 358,-73 358,4 -4,4"/>
<!-- Node1 -->
<g id="node1" class="node"><title>Node1</title>
<polygon fill="#bfbfbf" stroke="black" points="0,-27.5 0,-46.5 178,-46.5 178,-27.5 0,-27.5"/>
<text text-anchor="middle" x="89" y="-34.5" font-family="Helvetica,sans-Serif" font-size="10.00">Ra::Core::Graph::storeAdjacencyList</text>
</g>
<!-- Node2 -->
<g id="node2" class="node"><title>Node2</title>
<g id="a_node2"><a xlink:href="namespaceRa_1_1Core.html#abc0a3625137098b67838fe52edd480f9" target="_top" xlink:title="SIZE. ">
<polygon fill="white" stroke="black" points="244,-49.5 244,-68.5 324,-68.5 324,-49.5 244,-49.5"/>
<text text-anchor="middle" x="284" y="-56.5" font-family="Helvetica,sans-Serif" font-size="10.00">Ra::Core::size</text>
</a>
</g>
</g>
<!-- Node1&#45;&gt;Node2 -->
<g id="edge1" class="edge"><title>Node1&#45;&gt;Node2</title>
<path fill="none" stroke="midnightblue" d="M173.53,-46.5216C194.064,-48.8623 215.397,-51.2939 233.716,-53.3822"/>
<polygon fill="midnightblue" stroke="midnightblue" points="233.51,-56.8812 243.842,-54.5364 234.303,-49.9262 233.51,-56.8812"/>
</g>
<!-- Node3 -->
<g id="node3" class="node"><title>Node3</title>
<g id="a_node3"><a xlink:href="classRa_1_1Core_1_1Graph_1_1AdjacencyList.html#a63e089f5da2ddc2da39dfd5bd6adb410" target="_top" xlink:title="SIZE. ">
<polygon fill="white" stroke="black" points="214,-0 214,-30 354,-30 354,-0 214,-0"/>
<text text-anchor="start" x="222" y="-18" font-family="Helvetica,sans-Serif" font-size="10.00">Ra::Core::Graph::Adjacency</text>
<text text-anchor="middle" x="284" y="-7" font-family="Helvetica,sans-Serif" font-size="10.00">List::size</text>
</a>
</g>
</g>
<!-- Node1&#45;&gt;Node3 -->
<g id="edge2" class="edge"><title>Node1&#45;&gt;Node3</title>
<path fill="none" stroke="midnightblue" d="M173.53,-27.4784C183.511,-26.3407 193.68,-25.1816 203.6,-24.0508"/>
<polygon fill="midnightblue" stroke="midnightblue" points="204.29,-27.4949 213.829,-22.8847 203.497,-20.5399 204.29,-27.4949"/>
</g>
</g>
</svg>
