<?xml version="1.0" encoding="UTF-8" standalone="no"?>
<!DOCTYPE svg PUBLIC "-//W3C//DTD SVG 1.1//EN"
 "http://www.w3.org/Graphics/SVG/1.1/DTD/svg11.dtd">
<!-- Generated by graphviz version 2.36.0 (20140111.2315)
 -->
<!-- Title: Ra::Core::convert Pages: 1 -->
<svg width="422pt" height="87pt"
 viewBox="0.00 0.00 422.00 87.00" xmlns="http://www.w3.org/2000/svg" xmlns:xlink="http://www.w3.org/1999/xlink">
<g id="graph0" class="graph" transform="scale(1 1) rotate(0) translate(4 83)">
<title>Ra::Core::convert</title>
<polygon fill="white" stroke="none" points="-4,4 -4,-83 418,-83 418,4 -4,4"/>
<!-- Node1 -->
<g id="node1" class="node"><title>Node1</title>
<polygon fill="#bfbfbf" stroke="black" points="0.5,-29.5 0.5,-48.5 95.5,-48.5 95.5,-29.5 0.5,-29.5"/>
<text text-anchor="middle" x="48" y="-36.5" font-family="Helvetica,sans-Serif" font-size="10.00">Ra::Core::convert</text>
</g>
<!-- Node2 -->
<g id="node2" class="node"><title>Node2</title>
<g id="a_node2"><a xlink:href="classRa_1_1Core_1_1TriangleMesh.html#a495116f40cfec8bb6504698d786d4b8c" target="_top" xlink:title="Access the vertices positions. ">
<polygon fill="white" stroke="black" points="132.5,-49 132.5,-79 253.5,-79 253.5,-49 132.5,-49"/>
<text text-anchor="start" x="140.5" y="-67" font-family="Helvetica,sans-Serif" font-size="10.00">Ra::Core::TriangleMesh</text>
<text text-anchor="middle" x="193" y="-56" font-family="Helvetica,sans-Serif" font-size="10.00">::vertices</text>
</a>
</g>
</g>
<!-- Node1&#45;&gt;Node2 -->
<g id="edge1" class="edge"><title>Node1&#45;&gt;Node2</title>
<path fill="none" stroke="midnightblue" d="M95.8235,-47.1859C104.287,-48.6655 113.275,-50.2369 122.228,-51.8021"/>
<polygon fill="midnightblue" stroke="midnightblue" points="121.837,-55.2868 132.29,-53.5613 123.043,-48.3913 121.837,-55.2868"/>
</g>
<!-- Node4 -->
<g id="node4" class="node"><title>Node4</title>
<g id="a_node4"><a xlink:href="classRa_1_1Core_1_1TriangleMesh.html#a40d31b7b2943947d6eac5d906f0182fd" target="_top" xlink:title="Access the vertices normals. ">
<polygon fill="white" stroke="black" points="132.5,-0 132.5,-30 253.5,-30 253.5,-0 132.5,-0"/>
<text text-anchor="start" x="140.5" y="-18" font-family="Helvetica,sans-Serif" font-size="10.00">Ra::Core::TriangleMesh</text>
<text text-anchor="middle" x="193" y="-7" font-family="Helvetica,sans-Serif" font-size="10.00">::normals</text>
</a>
</g>
</g>
<!-- Node1&#45;&gt;Node4 -->
<g id="edge3" class="edge"><title>Node1&#45;&gt;Node4</title>
<path fill="none" stroke="midnightblue" d="M95.8235,-31.1415C104.287,-29.7211 113.275,-28.2125 122.228,-26.71"/>
<polygon fill="midnightblue" stroke="midnightblue" points="123.008,-30.1282 132.29,-25.0212 121.849,-23.2247 123.008,-30.1282"/>
</g>
<!-- Node3 -->
<g id="node3" class="node"><title>Node3</title>
<g id="a_node3"><a xlink:href="classRa_1_1Core_1_1AttribManager.html#aaa6088620425c1e1d74b50f1b50eb596" target="_top" xlink:title="Get attribute by handle. ">
<polygon fill="white" stroke="black" points="290.5,-24 290.5,-54 413.5,-54 413.5,-24 290.5,-24"/>
<text text-anchor="start" x="298.5" y="-42" font-family="Helvetica,sans-Serif" font-size="10.00">Ra::Core::AttribManager</text>
<text text-anchor="middle" x="352" y="-31" font-family="Helvetica,sans-Serif" font-size="10.00">::getAttrib</text>
</a>
</g>
</g>
<!-- Node2&#45;&gt;Node3 -->
<g id="edge2" class="edge"><title>Node2&#45;&gt;Node3</title>
<path fill="none" stroke="midnightblue" d="M253.803,-54.4773C262.492,-53.0937 271.505,-51.6585 280.382,-50.2449"/>
<polygon fill="midnightblue" stroke="midnightblue" points="280.997,-53.6911 290.323,-48.662 279.897,-46.7782 280.997,-53.6911"/>
</g>
<!-- Node4&#45;&gt;Node3 -->
<g id="edge4" class="edge"><title>Node4&#45;&gt;Node3</title>
<path fill="none" stroke="midnightblue" d="M253.803,-24.1418C262.492,-25.47 271.505,-26.8478 280.382,-28.2049"/>
<polygon fill="midnightblue" stroke="midnightblue" points="279.908,-31.6731 290.323,-29.7245 280.966,-24.7535 279.908,-31.6731"/>
</g>
</g>
</svg>
