<?xml version="1.0" encoding="UTF-8" standalone="no"?>
<!DOCTYPE svg PUBLIC "-//W3C//DTD SVG 1.1//EN"
 "http://www.w3.org/Graphics/SVG/1.1/DTD/svg11.dtd">
<!-- Generated by graphviz version 2.36.0 (20140111.2315)
 -->
<!-- Title: Ra::Core::Geometry::cotangentWeightLaplacian Pages: 1 -->
<svg width="460pt" height="165pt"
 viewBox="0.00 0.00 460.00 165.00" xmlns="http://www.w3.org/2000/svg" xmlns:xlink="http://www.w3.org/1999/xlink">
<g id="graph0" class="graph" transform="scale(1 1) rotate(0) translate(4 161)">
<title>Ra::Core::Geometry::cotangentWeightLaplacian</title>
<polygon fill="white" stroke="none" points="-4,4 -4,-161 456,-161 456,4 -4,4"/>
<!-- Node1 -->
<g id="node1" class="node"><title>Node1</title>
<polygon fill="#bfbfbf" stroke="black" points="0.5,-63 0.5,-93 137.5,-93 137.5,-63 0.5,-63"/>
<text text-anchor="start" x="8.5" y="-81" font-family="Helvetica,sans-Serif" font-size="10.00">Ra::Core::Geometry</text>
<text text-anchor="middle" x="69" y="-70" font-family="Helvetica,sans-Serif" font-size="10.00">::cotangentWeightLaplacian</text>
</g>
<!-- Node2 -->
<g id="node2" class="node"><title>Node2</title>
<g id="a_node2"><a xlink:href="namespaceRa_1_1Core.html#a28c10004edc39878acecb94c2ca5b837" target="_top" xlink:title="NORMAL. ">
<polygon fill="white" stroke="black" points="200,-137.5 200,-156.5 270,-156.5 270,-137.5 200,-137.5"/>
<text text-anchor="middle" x="235" y="-144.5" font-family="Helvetica,sans-Serif" font-size="10.00">Ra::Core::N</text>
</a>
</g>
</g>
<!-- Node1&#45;&gt;Node2 -->
<g id="edge1" class="edge"><title>Node1&#45;&gt;Node2</title>
<path fill="none" stroke="midnightblue" d="M99.6216,-93.1061C120.208,-103.319 148.432,-116.757 174,-127 180.087,-129.438 186.599,-131.828 193.007,-134.058"/>
<polygon fill="midnightblue" stroke="midnightblue" points="192.32,-137.52 202.914,-137.416 194.567,-130.891 192.32,-137.52"/>
</g>
<!-- Node3 -->
<g id="node3" class="node"><title>Node3</title>
<g id="a_node3"><a xlink:href="classRa_1_1Core_1_1CircularIndex.html#a209650affef46390ab727a90c8b51920" target="_top" xlink:title="Ra::Core::CircularIndex\l::setSize">
<polygon fill="white" stroke="black" points="175,-88 175,-118 295,-118 295,-88 175,-88"/>
<text text-anchor="start" x="183" y="-106" font-family="Helvetica,sans-Serif" font-size="10.00">Ra::Core::CircularIndex</text>
<text text-anchor="middle" x="235" y="-95" font-family="Helvetica,sans-Serif" font-size="10.00">::setSize</text>
</a>
</g>
</g>
<!-- Node1&#45;&gt;Node3 -->
<g id="edge2" class="edge"><title>Node1&#45;&gt;Node3</title>
<path fill="none" stroke="midnightblue" d="M137.652,-88.3128C146.627,-89.6809 155.839,-91.0852 164.839,-92.4571"/>
<polygon fill="midnightblue" stroke="midnightblue" points="164.473,-95.9417 174.886,-93.9888 165.528,-89.0217 164.473,-95.9417"/>
</g>
<!-- Node5 -->
<g id="node5" class="node"><title>Node5</title>
<g id="a_node5"><a xlink:href="classRa_1_1Core_1_1CircularIndex.html#a748a857d5d9affc123a4ecc9c5ffc344" target="_top" xlink:title="Ra::Core::CircularIndex\l::setValue">
<polygon fill="white" stroke="black" points="175,-39 175,-69 295,-69 295,-39 175,-39"/>
<text text-anchor="start" x="183" y="-57" font-family="Helvetica,sans-Serif" font-size="10.00">Ra::Core::CircularIndex</text>
<text text-anchor="middle" x="235" y="-46" font-family="Helvetica,sans-Serif" font-size="10.00">::setValue</text>
</a>
</g>
</g>
<!-- Node1&#45;&gt;Node5 -->
<g id="edge4" class="edge"><title>Node1&#45;&gt;Node5</title>
<path fill="none" stroke="midnightblue" d="M137.652,-68.0997C146.627,-66.7863 155.839,-65.4382 164.839,-64.1212"/>
<polygon fill="midnightblue" stroke="midnightblue" points="165.499,-67.562 174.886,-62.6508 164.485,-60.6357 165.499,-67.562"/>
</g>
<!-- Node6 -->
<g id="node6" class="node"><title>Node6</title>
<g id="a_node6"><a xlink:href="namespaceRa_1_1Core_1_1Vector.html#aa91aaef62c026259378ace5b5b0e86da" target="_top" xlink:title="Get the cotangent of the angle between two vectors. ">
<polygon fill="white" stroke="black" points="174.5,-0.5 174.5,-19.5 295.5,-19.5 295.5,-0.5 174.5,-0.5"/>
<text text-anchor="middle" x="235" y="-7.5" font-family="Helvetica,sans-Serif" font-size="10.00">Ra::Core::Vector::cotan</text>
</a>
</g>
</g>
<!-- Node1&#45;&gt;Node6 -->
<g id="edge5" class="edge"><title>Node1&#45;&gt;Node6</title>
<path fill="none" stroke="midnightblue" d="M100.556,-62.8112C121.075,-52.8826 148.855,-39.9581 174,-30 180.31,-27.5009 187.071,-25.0427 193.697,-22.7513"/>
<polygon fill="midnightblue" stroke="midnightblue" points="194.887,-26.0439 203.241,-19.528 192.647,-19.412 194.887,-26.0439"/>
</g>
<!-- Node4 -->
<g id="node4" class="node"><title>Node4</title>
<g id="a_node4"><a xlink:href="classRa_1_1Core_1_1CircularIndex.html#a49f32351ed0de532b6b5f125c81ad2ae" target="_top" xlink:title="DIMENSION. ">
<polygon fill="white" stroke="black" points="332,-88 332,-118 452,-118 452,-88 332,-88"/>
<text text-anchor="start" x="340" y="-106" font-family="Helvetica,sans-Serif" font-size="10.00">Ra::Core::CircularIndex</text>
<text text-anchor="middle" x="392" y="-95" font-family="Helvetica,sans-Serif" font-size="10.00">::size</text>
</a>
</g>
</g>
<!-- Node3&#45;&gt;Node4 -->
<g id="edge3" class="edge"><title>Node3&#45;&gt;Node4</title>
<path fill="none" stroke="midnightblue" d="M295.041,-103C303.805,-103 312.904,-103 321.853,-103"/>
<polygon fill="midnightblue" stroke="midnightblue" points="321.867,-106.5 331.867,-103 321.866,-99.5001 321.867,-106.5"/>
</g>
</g>
</svg>
