<?xml version="1.0" encoding="UTF-8" standalone="no"?>
<!DOCTYPE svg PUBLIC "-//W3C//DTD SVG 1.1//EN"
 "http://www.w3.org/Graphics/SVG/1.1/DTD/svg11.dtd">
<!-- Generated by graphviz version 2.36.0 (20140111.2315)
 -->
<!-- Title: Ra::Core::MeshUtils::removeDuplicates Pages: 1 -->
<svg width="578pt" height="61pt"
 viewBox="0.00 0.00 578.00 61.00" xmlns="http://www.w3.org/2000/svg" xmlns:xlink="http://www.w3.org/1999/xlink">
<g id="graph0" class="graph" transform="scale(1 1) rotate(0) translate(4 57)">
<title>Ra::Core::MeshUtils::removeDuplicates</title>
<polygon fill="white" stroke="none" points="-4,4 -4,-57 574,-57 574,4 -4,4"/>
<!-- Node1 -->
<g id="node1" class="node"><title>Node1</title>
<polygon fill="#bfbfbf" stroke="black" points="0.5,-1 0.5,-31 107.5,-31 107.5,-1 0.5,-1"/>
<text text-anchor="start" x="8.5" y="-19" font-family="Helvetica,sans-Serif" font-size="10.00">Ra::Core::MeshUtils</text>
<text text-anchor="middle" x="54" y="-8" font-family="Helvetica,sans-Serif" font-size="10.00">::removeDuplicates</text>
</g>
<!-- Node2 -->
<g id="node2" class="node"><title>Node2</title>
<g id="a_node2"><a xlink:href="namespaceRa_1_1Core_1_1MeshUtils.html#a90fac2298eea201538b056baec0147ca" target="_top" xlink:title="Finds the duplicate vertices in a mesh, returning an array indicating for each vertex where to find t...">
<polygon fill="white" stroke="black" points="144.5,-23 144.5,-53 251.5,-53 251.5,-23 144.5,-23"/>
<text text-anchor="start" x="152.5" y="-41" font-family="Helvetica,sans-Serif" font-size="10.00">Ra::Core::MeshUtils</text>
<text text-anchor="middle" x="198" y="-30" font-family="Helvetica,sans-Serif" font-size="10.00">::findDuplicates</text>
</a>
</g>
</g>
<!-- Node1&#45;&gt;Node2 -->
<g id="edge1" class="edge"><title>Node1&#45;&gt;Node2</title>
<path fill="none" stroke="midnightblue" d="M107.876,-24.192C116.377,-25.5091 125.25,-26.8838 133.961,-28.2333"/>
<polygon fill="midnightblue" stroke="midnightblue" points="133.662,-31.7288 144.08,-29.8012 134.734,-24.8113 133.662,-31.7288"/>
</g>
<!-- Node3 -->
<g id="node3" class="node"><title>Node3</title>
<g id="a_node3"><a xlink:href="classRa_1_1Core_1_1TriangleMesh.html#a495116f40cfec8bb6504698d786d4b8c" target="_top" xlink:title="Access the vertices positions. ">
<polygon fill="white" stroke="black" points="288.5,-1 288.5,-31 409.5,-31 409.5,-1 288.5,-1"/>
<text text-anchor="start" x="296.5" y="-19" font-family="Helvetica,sans-Serif" font-size="10.00">Ra::Core::TriangleMesh</text>
<text text-anchor="middle" x="349" y="-8" font-family="Helvetica,sans-Serif" font-size="10.00">::vertices</text>
</a>
</g>
</g>
<!-- Node1&#45;&gt;Node3 -->
<g id="edge4" class="edge"><title>Node1&#45;&gt;Node3</title>
<path fill="none" stroke="midnightblue" d="M107.705,-14.6199C119.639,-14.3618 132.255,-14.132 144,-14 191.997,-13.4608 204.003,-13.5001 252,-14 260.447,-14.088 269.311,-14.2195 278.096,-14.3738"/>
<polygon fill="midnightblue" stroke="midnightblue" points="278.28,-17.8778 288.343,-14.5643 278.41,-10.879 278.28,-17.8778"/>
</g>
<!-- Node2&#45;&gt;Node3 -->
<g id="edge2" class="edge"><title>Node2&#45;&gt;Node3</title>
<path fill="none" stroke="midnightblue" d="M251.532,-30.2436C260.176,-28.9673 269.254,-27.627 278.239,-26.3003"/>
<polygon fill="midnightblue" stroke="midnightblue" points="278.935,-29.7355 288.317,-24.8123 277.912,-22.8106 278.935,-29.7355"/>
</g>
<!-- Node4 -->
<g id="node4" class="node"><title>Node4</title>
<g id="a_node4"><a xlink:href="classRa_1_1Core_1_1AttribManager.html#aaa6088620425c1e1d74b50f1b50eb596" target="_top" xlink:title="Get attribute by handle. ">
<polygon fill="white" stroke="black" points="446.5,-1 446.5,-31 569.5,-31 569.5,-1 446.5,-1"/>
<text text-anchor="start" x="454.5" y="-19" font-family="Helvetica,sans-Serif" font-size="10.00">Ra::Core::AttribManager</text>
<text text-anchor="middle" x="508" y="-8" font-family="Helvetica,sans-Serif" font-size="10.00">::getAttrib</text>
</a>
</g>
</g>
<!-- Node3&#45;&gt;Node4 -->
<g id="edge3" class="edge"><title>Node3&#45;&gt;Node4</title>
<path fill="none" stroke="midnightblue" d="M409.803,-16C418.398,-16 427.311,-16 436.096,-16"/>
<polygon fill="midnightblue" stroke="midnightblue" points="436.323,-19.5001 446.323,-16 436.322,-12.5001 436.323,-19.5001"/>
</g>
</g>
</svg>
