<?xml version="1.0" encoding="UTF-8" standalone="no"?>
<!DOCTYPE svg PUBLIC "-//W3C//DTD SVG 1.1//EN"
 "http://www.w3.org/Graphics/SVG/1.1/DTD/svg11.dtd">
<!-- Generated by graphviz version 2.36.0 (20140111.2315)
 -->
<!-- Title: Ra::Core::Algorithm::heat Pages: 1 -->
<svg width="388pt" height="101pt"
 viewBox="0.00 0.00 388.00 101.00" xmlns="http://www.w3.org/2000/svg" xmlns:xlink="http://www.w3.org/1999/xlink">
<g id="graph0" class="graph" transform="scale(1 1) rotate(0) translate(4 97)">
<title>Ra::Core::Algorithm::heat</title>
<polygon fill="white" stroke="none" points="-4,4 -4,-97 384,-97 384,4 -4,4"/>
<!-- Node1 -->
<g id="node1" class="node"><title>Node1</title>
<polygon fill="#bfbfbf" stroke="black" points="0,-38 0,-68 104,-68 104,-38 0,-38"/>
<text text-anchor="start" x="8" y="-56" font-family="Helvetica,sans-Serif" font-size="10.00">Ra::Core::Algorithm</text>
<text text-anchor="middle" x="52" y="-45" font-family="Helvetica,sans-Serif" font-size="10.00">::heat</text>
</g>
<!-- Node2 -->
<g id="node2" class="node"><title>Node2</title>
<g id="a_node2"><a xlink:href="namespaceRa_1_1Core_1_1Algorithm.html#abebfe08bb2303204bea2baea8195439d" target="_top" xlink:title="Ra::Core::Algorithm\l::delta">
<polygon fill="white" stroke="black" points="145,-63 145,-93 249,-93 249,-63 145,-63"/>
<text text-anchor="start" x="153" y="-81" font-family="Helvetica,sans-Serif" font-size="10.00">Ra::Core::Algorithm</text>
<text text-anchor="middle" x="197" y="-70" font-family="Helvetica,sans-Serif" font-size="10.00">::delta</text>
</a>
</g>
</g>
<!-- Node1&#45;&gt;Node2 -->
<g id="edge1" class="edge"><title>Node1&#45;&gt;Node2</title>
<path fill="none" stroke="midnightblue" d="M104.222,-61.955C114.08,-63.6783 124.498,-65.4996 134.638,-67.2724"/>
<polygon fill="midnightblue" stroke="midnightblue" points="134.201,-70.749 144.655,-69.0235 135.407,-63.8536 134.201,-70.749"/>
</g>
<!-- Node3 -->
<g id="node3" class="node"><title>Node3</title>
<g id="a_node3"><a xlink:href="classRa_1_1Core_1_1VectorArray_3_01Scalar_01_4.html#a3cfc72a2196c1216308c2a7df2f9e4cc" target="_top" xlink:title="Returns the array as an Eigen Matrix Map. ">
<polygon fill="white" stroke="black" points="140,-14 140,-44 254,-44 254,-14 140,-14"/>
<text text-anchor="start" x="148" y="-32" font-family="Helvetica,sans-Serif" font-size="10.00">Ra::Core::VectorArray</text>
<text text-anchor="middle" x="197" y="-21" font-family="Helvetica,sans-Serif" font-size="10.00">&lt; Scalar &gt;::getMap</text>
</a>
</g>
</g>
<!-- Node1&#45;&gt;Node3 -->
<g id="edge2" class="edge"><title>Node1&#45;&gt;Node3</title>
<path fill="none" stroke="midnightblue" d="M104.222,-44.4032C112.517,-43.0111 121.209,-41.5524 129.798,-40.1109"/>
<polygon fill="midnightblue" stroke="midnightblue" points="130.521,-43.5386 139.803,-38.4316 129.362,-36.6351 130.521,-43.5386"/>
</g>
<!-- Node4 -->
<g id="node4" class="node"><title>Node4</title>
<g id="a_node4"><a xlink:href="namespaceRa_1_1Core.html#a3376e6339252cfb83de46bd312dd2cf8" target="_top" xlink:title="QUERY. ">
<polygon fill="white" stroke="black" points="290.5,-38.5 290.5,-57.5 379.5,-57.5 379.5,-38.5 290.5,-38.5"/>
<text text-anchor="middle" x="335" y="-45.5" font-family="Helvetica,sans-Serif" font-size="10.00">Ra::Core::empty</text>
</a>
</g>
</g>
<!-- Node3&#45;&gt;Node4 -->
<g id="edge3" class="edge"><title>Node3&#45;&gt;Node4</title>
<path fill="none" stroke="midnightblue" d="M254.102,-36.8377C262.832,-38.0574 271.832,-39.3147 280.502,-40.526"/>
<polygon fill="midnightblue" stroke="midnightblue" points="280.104,-44.0044 290.492,-41.9217 281.073,-37.0717 280.104,-44.0044"/>
</g>
<!-- Node5 -->
<g id="node5" class="node"><title>Node5</title>
<g id="a_node5"><a xlink:href="namespaceRa_1_1Core.html#abc0a3625137098b67838fe52edd480f9" target="_top" xlink:title="SIZE. ">
<polygon fill="white" stroke="black" points="295,-0.5 295,-19.5 375,-19.5 375,-0.5 295,-0.5"/>
<text text-anchor="middle" x="335" y="-7.5" font-family="Helvetica,sans-Serif" font-size="10.00">Ra::Core::size</text>
</a>
</g>
</g>
<!-- Node3&#45;&gt;Node5 -->
<g id="edge4" class="edge"><title>Node3&#45;&gt;Node5</title>
<path fill="none" stroke="midnightblue" d="M254.102,-21.1623C264.202,-19.7511 274.665,-18.2895 284.559,-16.9072"/>
<polygon fill="midnightblue" stroke="midnightblue" points="285.207,-20.3508 294.626,-15.5008 284.238,-13.4181 285.207,-20.3508"/>
</g>
</g>
</svg>
