<?xml version="1.0" encoding="UTF-8" standalone="no"?>
<!DOCTYPE svg PUBLIC "-//W3C//DTD SVG 1.1//EN"
 "http://www.w3.org/Graphics/SVG/1.1/DTD/svg11.dtd">
<!-- Generated by graphviz version 2.36.0 (20140111.2315)
 -->
<!-- Title: Ra::Core::Geometry::meanCurvature Pages: 1 -->
<svg width="390pt" height="123pt"
 viewBox="0.00 0.00 390.00 123.00" xmlns="http://www.w3.org/2000/svg" xmlns:xlink="http://www.w3.org/1999/xlink">
<g id="graph0" class="graph" transform="scale(1 1) rotate(0) translate(4 119)">
<title>Ra::Core::Geometry::meanCurvature</title>
<polygon fill="white" stroke="none" points="-4,4 -4,-119 386,-119 386,4 -4,4"/>
<!-- Node1 -->
<g id="node1" class="node"><title>Node1</title>
<polygon fill="#bfbfbf" stroke="black" points="0.5,-49 0.5,-79 105.5,-79 105.5,-49 0.5,-49"/>
<text text-anchor="start" x="8.5" y="-67" font-family="Helvetica,sans-Serif" font-size="10.00">Ra::Core::Geometry</text>
<text text-anchor="middle" x="53" y="-56" font-family="Helvetica,sans-Serif" font-size="10.00">::meanCurvature</text>
</g>
<!-- Node2 -->
<g id="node2" class="node"><title>Node2</title>
<g id="a_node2"><a xlink:href="namespaceRa_1_1Core.html#abc0a3625137098b67838fe52edd480f9" target="_top" xlink:title="SIZE. ">
<polygon fill="white" stroke="black" points="297,-95.5 297,-114.5 377,-114.5 377,-95.5 297,-95.5"/>
<text text-anchor="middle" x="337" y="-102.5" font-family="Helvetica,sans-Serif" font-size="10.00">Ra::Core::size</text>
</a>
</g>
</g>
<!-- Node1&#45;&gt;Node2 -->
<g id="edge1" class="edge"><title>Node1&#45;&gt;Node2</title>
<path fill="none" stroke="midnightblue" d="M102.982,-79.0245C115.595,-82.4325 129.217,-85.7158 142,-88 190.731,-96.708 247.179,-101.016 286.577,-103.109"/>
<polygon fill="midnightblue" stroke="midnightblue" points="286.55,-106.612 296.713,-103.618 286.901,-99.6204 286.55,-106.612"/>
</g>
<!-- Node3 -->
<g id="node3" class="node"><title>Node3</title>
<g id="a_node3"><a xlink:href="classRa_1_1Core_1_1VectorArray_3_01Scalar_01_4.html#a3cfc72a2196c1216308c2a7df2f9e4cc" target="_top" xlink:title="Returns the array as an Eigen Matrix Map. ">
<polygon fill="white" stroke="black" points="142,-49 142,-79 256,-79 256,-49 142,-49"/>
<text text-anchor="start" x="150" y="-67" font-family="Helvetica,sans-Serif" font-size="10.00">Ra::Core::VectorArray</text>
<text text-anchor="middle" x="199" y="-56" font-family="Helvetica,sans-Serif" font-size="10.00">&lt; Scalar &gt;::getMap</text>
</a>
</g>
</g>
<!-- Node1&#45;&gt;Node3 -->
<g id="edge2" class="edge"><title>Node1&#45;&gt;Node3</title>
<path fill="none" stroke="midnightblue" d="M105.581,-64C114.049,-64 122.929,-64 131.695,-64"/>
<polygon fill="midnightblue" stroke="midnightblue" points="131.902,-67.5001 141.902,-64 131.902,-60.5001 131.902,-67.5001"/>
</g>
<!-- Node5 -->
<g id="node5" class="node"><title>Node5</title>
<g id="a_node5"><a xlink:href="classRa_1_1Core_1_1VectorArray.html#a33438b558d38baf22e7975d26b5c61ca" target="_top" xlink:title="Returns the array as an Eigen Matrix Map. ">
<polygon fill="white" stroke="black" points="142,-0 142,-30 256,-30 256,-0 142,-0"/>
<text text-anchor="start" x="150" y="-18" font-family="Helvetica,sans-Serif" font-size="10.00">Ra::Core::VectorArray</text>
<text text-anchor="middle" x="199" y="-7" font-family="Helvetica,sans-Serif" font-size="10.00">::getMap</text>
</a>
</g>
</g>
<!-- Node1&#45;&gt;Node5 -->
<g id="edge5" class="edge"><title>Node1&#45;&gt;Node5</title>
<path fill="none" stroke="midnightblue" d="M98.3797,-48.8986C112.751,-44.0083 128.853,-38.5293 143.851,-33.4256"/>
<polygon fill="midnightblue" stroke="midnightblue" points="145.179,-36.6708 153.519,-30.1359 142.924,-30.0439 145.179,-36.6708"/>
</g>
<!-- Node3&#45;&gt;Node2 -->
<g id="edge4" class="edge"><title>Node3&#45;&gt;Node2</title>
<path fill="none" stroke="midnightblue" d="M249.869,-79.0341C264.51,-83.4478 280.36,-88.2262 294.425,-92.4662"/>
<polygon fill="midnightblue" stroke="midnightblue" points="293.722,-95.9101 304.307,-95.4455 295.743,-89.208 293.722,-95.9101"/>
</g>
<!-- Node4 -->
<g id="node4" class="node"><title>Node4</title>
<g id="a_node4"><a xlink:href="namespaceRa_1_1Core.html#a3376e6339252cfb83de46bd312dd2cf8" target="_top" xlink:title="QUERY. ">
<polygon fill="white" stroke="black" points="292.5,-54.5 292.5,-73.5 381.5,-73.5 381.5,-54.5 292.5,-54.5"/>
<text text-anchor="middle" x="337" y="-61.5" font-family="Helvetica,sans-Serif" font-size="10.00">Ra::Core::empty</text>
</a>
</g>
</g>
<!-- Node3&#45;&gt;Node4 -->
<g id="edge3" class="edge"><title>Node3&#45;&gt;Node4</title>
<path fill="none" stroke="midnightblue" d="M256.102,-64C264.737,-64 273.636,-64 282.219,-64"/>
<polygon fill="midnightblue" stroke="midnightblue" points="282.492,-67.5001 292.492,-64 282.492,-60.5001 282.492,-67.5001"/>
</g>
</g>
</svg>
