<?xml version="1.0" encoding="UTF-8" standalone="no"?>
<!DOCTYPE svg PUBLIC "-//W3C//DTD SVG 1.1//EN"
 "http://www.w3.org/Graphics/SVG/1.1/DTD/svg11.dtd">
<!-- Generated by graphviz version 2.36.0 (20140111.2315)
 -->
<!-- Title: Ra::Core::fulledgeSplit Pages: 1 -->
<svg width="416pt" height="38pt"
 viewBox="0.00 0.00 416.00 38.00" xmlns="http://www.w3.org/2000/svg" xmlns:xlink="http://www.w3.org/1999/xlink">
<g id="graph0" class="graph" transform="scale(1 1) rotate(0) translate(4 34)">
<title>Ra::Core::fulledgeSplit</title>
<polygon fill="white" stroke="none" points="-4,4 -4,-34 412,-34 412,4 -4,4"/>
<!-- Node1 -->
<g id="node1" class="node"><title>Node1</title>
<polygon fill="#bfbfbf" stroke="black" points="0,-5.5 0,-24.5 116,-24.5 116,-5.5 0,-5.5"/>
<text text-anchor="middle" x="58" y="-12.5" font-family="Helvetica,sans-Serif" font-size="10.00">Ra::Core::fulledgeSplit</text>
</g>
<!-- Node2 -->
<g id="node2" class="node"><title>Node2</title>
<g id="a_node2"><a xlink:href="namespaceRa_1_1Core.html#acee0d5e9952a25bbc839c0f2111d4a33" target="_top" xlink:title="Ra::Core::insertInMap">
<polygon fill="white" stroke="black" points="152.5,-5.5 152.5,-24.5 265.5,-24.5 265.5,-5.5 152.5,-5.5"/>
<text text-anchor="middle" x="209" y="-12.5" font-family="Helvetica,sans-Serif" font-size="10.00">Ra::Core::insertInMap</text>
</a>
</g>
</g>
<!-- Node1&#45;&gt;Node2 -->
<g id="edge1" class="edge"><title>Node1&#45;&gt;Node2</title>
<path fill="none" stroke="midnightblue" d="M116.181,-15C124.675,-15 133.487,-15 142.142,-15"/>
<polygon fill="midnightblue" stroke="midnightblue" points="142.2,-18.5001 152.2,-15 142.2,-11.5001 142.2,-18.5001"/>
</g>
<!-- Node3 -->
<g id="node3" class="node"><title>Node3</title>
<g id="a_node3"><a xlink:href="classRa_1_1Core_1_1IndexMap.html#a16e39b260b9923d5c02697c1a92014e1" target="_top" xlink:title="Destructor. ">
<polygon fill="white" stroke="black" points="302.5,-0 302.5,-30 407.5,-30 407.5,-0 302.5,-0"/>
<text text-anchor="start" x="310.5" y="-18" font-family="Helvetica,sans-Serif" font-size="10.00">Ra::Core::IndexMap</text>
<text text-anchor="middle" x="355" y="-7" font-family="Helvetica,sans-Serif" font-size="10.00">::insert</text>
</a>
</g>
</g>
<!-- Node2&#45;&gt;Node3 -->
<g id="edge2" class="edge"><title>Node2&#45;&gt;Node3</title>
<path fill="none" stroke="midnightblue" d="M265.674,-15C274.321,-15 283.299,-15 292.073,-15"/>
<polygon fill="midnightblue" stroke="midnightblue" points="292.248,-18.5001 302.248,-15 292.248,-11.5001 292.248,-18.5001"/>
</g>
</g>
</svg>
