<?xml version="1.0" encoding="UTF-8" standalone="no"?>
<!DOCTYPE svg PUBLIC "-//W3C//DTD SVG 1.1//EN"
 "http://www.w3.org/Graphics/SVG/1.1/DTD/svg11.dtd">
<!-- Generated by graphviz version 2.36.0 (20140111.2315)
 -->
<!-- Title: Ra::Core::setNeighborHE Pages: 1 -->
<svg width="272pt" height="104pt"
 viewBox="0.00 0.00 272.00 104.00" xmlns="http://www.w3.org/2000/svg" xmlns:xlink="http://www.w3.org/1999/xlink">
<g id="graph0" class="graph" transform="scale(1 1) rotate(0) translate(4 100)">
<title>Ra::Core::setNeighborHE</title>
<polygon fill="white" stroke="none" points="-4,4 -4,-100 268,-100 268,4 -4,4"/>
<!-- Node1 -->
<g id="node1" class="node"><title>Node1</title>
<polygon fill="#bfbfbf" stroke="black" points="0.5,-38.5 0.5,-57.5 129.5,-57.5 129.5,-38.5 0.5,-38.5"/>
<text text-anchor="middle" x="65" y="-45.5" font-family="Helvetica,sans-Serif" font-size="10.00">Ra::Core::setNeighborHE</text>
</g>
<!-- Node2 -->
<g id="node2" class="node"><title>Node2</title>
<g id="a_node2"><a xlink:href="namespaceRa_1_1Core.html#a349b9250fb2612dae6b723485ce6e69b" target="_top" xlink:title="Ra::Core::setNext">
<polygon fill="white" stroke="black" points="166.5,-76.5 166.5,-95.5 263.5,-95.5 263.5,-76.5 166.5,-76.5"/>
<text text-anchor="middle" x="215" y="-83.5" font-family="Helvetica,sans-Serif" font-size="10.00">Ra::Core::setNext</text>
</a>
</g>
</g>
<!-- Node1&#45;&gt;Node2 -->
<g id="edge1" class="edge"><title>Node1&#45;&gt;Node2</title>
<path fill="none" stroke="midnightblue" d="M103.347,-57.589C122.701,-62.5583 146.53,-68.6767 167.113,-73.9613"/>
<polygon fill="midnightblue" stroke="midnightblue" points="166.366,-77.383 176.922,-76.4799 168.107,-70.6029 166.366,-77.383"/>
</g>
<!-- Node3 -->
<g id="node3" class="node"><title>Node3</title>
<g id="a_node3"><a xlink:href="namespaceRa_1_1Core.html#a34affe8ffb833bf00890faf6cab9d6cd" target="_top" xlink:title="Ra::Core::setPrev">
<polygon fill="white" stroke="black" points="167,-38.5 167,-57.5 263,-57.5 263,-38.5 167,-38.5"/>
<text text-anchor="middle" x="215" y="-45.5" font-family="Helvetica,sans-Serif" font-size="10.00">Ra::Core::setPrev</text>
</a>
</g>
</g>
<!-- Node1&#45;&gt;Node3 -->
<g id="edge2" class="edge"><title>Node1&#45;&gt;Node3</title>
<path fill="none" stroke="midnightblue" d="M129.624,-48C138.634,-48 147.853,-48 156.733,-48"/>
<polygon fill="midnightblue" stroke="midnightblue" points="156.969,-51.5001 166.969,-48 156.968,-44.5001 156.969,-51.5001"/>
</g>
<!-- Node4 -->
<g id="node4" class="node"><title>Node4</title>
<g id="a_node4"><a xlink:href="namespaceRa_1_1Core.html#addd76574913e812e69db197dcda6a548" target="_top" xlink:title="Ra::Core::setTwin">
<polygon fill="white" stroke="black" points="166.5,-0.5 166.5,-19.5 263.5,-19.5 263.5,-0.5 166.5,-0.5"/>
<text text-anchor="middle" x="215" y="-7.5" font-family="Helvetica,sans-Serif" font-size="10.00">Ra::Core::setTwin</text>
</a>
</g>
</g>
<!-- Node1&#45;&gt;Node4 -->
<g id="edge3" class="edge"><title>Node1&#45;&gt;Node4</title>
<path fill="none" stroke="midnightblue" d="M103.347,-38.411C122.701,-33.4417 146.53,-27.3233 167.113,-22.0387"/>
<polygon fill="midnightblue" stroke="midnightblue" points="168.107,-25.3971 176.922,-19.5201 166.366,-18.617 168.107,-25.3971"/>
</g>
</g>
</svg>
