<?xml version="1.0" encoding="UTF-8" standalone="no"?>
<!DOCTYPE svg PUBLIC "-//W3C//DTD SVG 1.1//EN"
 "http://www.w3.org/Graphics/SVG/1.1/DTD/svg11.dtd">
<!-- Generated by graphviz version 2.36.0 (20140111.2315)
 -->
<!-- Title: Ra::Core::Animation::corSkinning Pages: 1 -->
<svg width="574pt" height="126pt"
 viewBox="0.00 0.00 574.00 126.00" xmlns="http://www.w3.org/2000/svg" xmlns:xlink="http://www.w3.org/1999/xlink">
<g id="graph0" class="graph" transform="scale(1 1) rotate(0) translate(4 122)">
<title>Ra::Core::Animation::corSkinning</title>
<polygon fill="white" stroke="none" points="-4,4 -4,-122 570,-122 570,4 -4,4"/>
<!-- Node1 -->
<g id="node1" class="node"><title>Node1</title>
<polygon fill="#bfbfbf" stroke="black" points="0,-49 0,-79 106,-79 106,-49 0,-49"/>
<text text-anchor="start" x="8" y="-67" font-family="Helvetica,sans-Serif" font-size="10.00">Ra::Core::Animation</text>
<text text-anchor="middle" x="53" y="-56" font-family="Helvetica,sans-Serif" font-size="10.00">::corSkinning</text>
</g>
<!-- Node2 -->
<g id="node2" class="node"><title>Node2</title>
<g id="a_node2"><a xlink:href="namespaceRa_1_1Core.html#abc0a3625137098b67838fe52edd480f9" target="_top" xlink:title="SIZE. ">
<polygon fill="white" stroke="black" points="156,-98.5 156,-117.5 236,-117.5 236,-98.5 156,-98.5"/>
<text text-anchor="middle" x="196" y="-105.5" font-family="Helvetica,sans-Serif" font-size="10.00">Ra::Core::size</text>
</a>
</g>
</g>
<!-- Node1&#45;&gt;Node2 -->
<g id="edge1" class="edge"><title>Node1&#45;&gt;Node2</title>
<path fill="none" stroke="midnightblue" d="M102.13,-79.0192C119.175,-84.3383 138.167,-90.2647 154.512,-95.3654"/>
<polygon fill="midnightblue" stroke="midnightblue" points="153.717,-98.7839 164.306,-98.4217 155.803,-92.1017 153.717,-98.7839"/>
</g>
<!-- Node3 -->
<g id="node3" class="node"><title>Node3</title>
<g id="a_node3"><a xlink:href="namespaceRa_1_1Core_1_1Animation.html#a18e75548900106987573622831f3aae5" target="_top" xlink:title="Ra::Core::Animation\l::computeDQ">
<polygon fill="white" stroke="black" points="143,-49 143,-79 249,-79 249,-49 143,-49"/>
<text text-anchor="start" x="151" y="-67" font-family="Helvetica,sans-Serif" font-size="10.00">Ra::Core::Animation</text>
<text text-anchor="middle" x="196" y="-56" font-family="Helvetica,sans-Serif" font-size="10.00">::computeDQ</text>
</a>
</g>
</g>
<!-- Node1&#45;&gt;Node3 -->
<g id="edge2" class="edge"><title>Node1&#45;&gt;Node3</title>
<path fill="none" stroke="midnightblue" d="M106.103,-64C114.673,-64 123.634,-64 132.427,-64"/>
<polygon fill="midnightblue" stroke="midnightblue" points="132.641,-67.5001 142.641,-64 132.641,-60.5001 132.641,-67.5001"/>
</g>
<!-- Node8 -->
<g id="node8" class="node"><title>Node8</title>
<g id="a_node8"><a xlink:href="namespaceRa_1_1Core_1_1Animation.html#a19bc7bcc26d8a3662f182f6d9a61764d" target="_top" xlink:title="Ra::Core::Animation\l::linearBlendSkinning">
<polygon fill="white" stroke="black" points="142,-0 142,-30 250,-30 250,-0 142,-0"/>
<text text-anchor="start" x="150" y="-18" font-family="Helvetica,sans-Serif" font-size="10.00">Ra::Core::Animation</text>
<text text-anchor="middle" x="196" y="-7" font-family="Helvetica,sans-Serif" font-size="10.00">::linearBlendSkinning</text>
</a>
</g>
</g>
<!-- Node1&#45;&gt;Node8 -->
<g id="edge7" class="edge"><title>Node1&#45;&gt;Node8</title>
<path fill="none" stroke="midnightblue" d="M97.4552,-48.8986C111.527,-44.0083 127.293,-38.5293 141.979,-33.4256"/>
<polygon fill="midnightblue" stroke="midnightblue" points="143.149,-36.7247 151.446,-30.1359 140.851,-30.1125 143.149,-36.7247"/>
</g>
<!-- Node4 -->
<g id="node4" class="node"><title>Node4</title>
<g id="a_node4"><a xlink:href="namespaceRa_1_1Core_1_1Math.html#a90f0fe9079f5bb86c721ea4b61738470" target="_top" xlink:title="Returns the sign of any numeric type as { &#45;1, 0, 1}. ">
<polygon fill="white" stroke="black" points="293,-92.5 293,-111.5 401,-111.5 401,-92.5 293,-92.5"/>
<text text-anchor="middle" x="347" y="-99.5" font-family="Helvetica,sans-Serif" font-size="10.00">Ra::Core::Math::sign</text>
</a>
</g>
</g>
<!-- Node3&#45;&gt;Node4 -->
<g id="edge3" class="edge"><title>Node3&#45;&gt;Node4</title>
<path fill="none" stroke="midnightblue" d="M249.113,-77.2906C265.222,-81.3988 282.87,-85.8997 298.639,-89.9214"/>
<polygon fill="midnightblue" stroke="midnightblue" points="298.141,-93.4062 308.695,-92.4861 299.87,-86.6233 298.141,-93.4062"/>
</g>
<!-- Node6 -->
<g id="node6" class="node"><title>Node6</title>
<g id="a_node6"><a xlink:href="namespaceRa_1_1Core_1_1Math.html#a810d6d50b61cc01cda1d54527de864d0" target="_top" xlink:title="Returns the sign of any numeric type as { &#45;1, 1} Note: signNZ(0) returns 1 for any integral type but ...">
<polygon fill="white" stroke="black" points="286,-54.5 286,-73.5 408,-73.5 408,-54.5 286,-54.5"/>
<text text-anchor="middle" x="347" y="-61.5" font-family="Helvetica,sans-Serif" font-size="10.00">Ra::Core::Math::signNZ</text>
</a>
</g>
</g>
<!-- Node3&#45;&gt;Node6 -->
<g id="edge5" class="edge"><title>Node3&#45;&gt;Node6</title>
<path fill="none" stroke="midnightblue" d="M249.113,-64C257.71,-64 266.746,-64 275.701,-64"/>
<polygon fill="midnightblue" stroke="midnightblue" points="275.748,-67.5001 285.748,-64 275.748,-60.5001 275.748,-67.5001"/>
</g>
<!-- Node7 -->
<g id="node7" class="node"><title>Node7</title>
<g id="a_node7"><a xlink:href="namespaceOpenMesh.html#a575b338f0fc9ecb5393d23e977e6ac38" target="_top" xlink:title="OpenMesh::dot">
<polygon fill="white" stroke="black" points="305.5,-16.5 305.5,-35.5 388.5,-35.5 388.5,-16.5 305.5,-16.5"/>
<text text-anchor="middle" x="347" y="-23.5" font-family="Helvetica,sans-Serif" font-size="10.00">OpenMesh::dot</text>
</a>
</g>
</g>
<!-- Node3&#45;&gt;Node7 -->
<g id="edge6" class="edge"><title>Node3&#45;&gt;Node7</title>
<path fill="none" stroke="midnightblue" d="M249.113,-50.7094C265.222,-46.6012 282.87,-42.1003 298.639,-38.0786"/>
<polygon fill="midnightblue" stroke="midnightblue" points="299.87,-41.3767 308.695,-35.5139 298.141,-34.5938 299.87,-41.3767"/>
</g>
<!-- Node5 -->
<g id="node5" class="node"><title>Node5</title>
<g id="a_node5"><a xlink:href="namespaceRa_1_1Core_1_1Math.html#ae4e681e0738fe7e5bfd028c6270b597a" target="_top" xlink:title="Ra::Core::Math::signum">
<polygon fill="white" stroke="black" points="444,-92.5 444,-111.5 566,-111.5 566,-92.5 444,-92.5"/>
<text text-anchor="middle" x="505" y="-99.5" font-family="Helvetica,sans-Serif" font-size="10.00">Ra::Core::Math::signum</text>
</a>
</g>
</g>
<!-- Node4&#45;&gt;Node5 -->
<g id="edge4" class="edge"><title>Node4&#45;&gt;Node5</title>
<path fill="none" stroke="midnightblue" d="M401.25,-102C411.618,-102 422.636,-102 433.462,-102"/>
<polygon fill="midnightblue" stroke="midnightblue" points="433.753,-105.5 443.753,-102 433.753,-98.5001 433.753,-105.5"/>
</g>
</g>
</svg>
