<?xml version="1.0" encoding="UTF-8" standalone="no"?>
<!DOCTYPE svg PUBLIC "-//W3C//DTD SVG 1.1//EN"
 "http://www.w3.org/Graphics/SVG/1.1/DTD/svg11.dtd">
<!-- Generated by graphviz version 2.36.0 (20140111.2315)
 -->
<!-- Title: /home/travis/build/STORM&#45;IRIT/Radium&#45;Engine/src/Core/Math/PolyLine.hpp Pages: 1 -->
<svg width="488pt" height="230pt"
 viewBox="0.00 0.00 488.00 230.00" xmlns="http://www.w3.org/2000/svg" xmlns:xlink="http://www.w3.org/1999/xlink">
<g id="graph0" class="graph" transform="scale(1 1) rotate(0) translate(4 226)">
<title>/home/travis/build/STORM&#45;IRIT/Radium&#45;Engine/src/Core/Math/PolyLine.hpp</title>
<polygon fill="white" stroke="none" points="-4,4 -4,-226 484,-226 484,4 -4,4"/>
<!-- Node1 -->
<g id="node1" class="node"><title>Node1</title>
<polygon fill="#bfbfbf" stroke="black" points="166,-180.5 166,-221.5 314,-221.5 314,-180.5 166,-180.5"/>
<text text-anchor="start" x="174" y="-209.5" font-family="Helvetica,sans-Serif" font-size="10.00">/home/travis/build</text>
<text text-anchor="start" x="174" y="-198.5" font-family="Helvetica,sans-Serif" font-size="10.00">/STORM&#45;IRIT/Radium&#45;Engine</text>
<text text-anchor="middle" x="240" y="-187.5" font-family="Helvetica,sans-Serif" font-size="10.00">/src/Core/Math/PolyLine.hpp</text>
</g>
<!-- Node2 -->
<g id="node2" class="node"><title>Node2</title>
<g id="a_node2"><a xlink:href="PolyLine_8cpp.html" target="_top" xlink:title="/home/travis/build\l/STORM&#45;IRIT/Radium&#45;Engine\l/src/Core/Math/PolyLine.cpp">
<polygon fill="white" stroke="black" points="0,-96.5 0,-137.5 148,-137.5 148,-96.5 0,-96.5"/>
<text text-anchor="start" x="8" y="-125.5" font-family="Helvetica,sans-Serif" font-size="10.00">/home/travis/build</text>
<text text-anchor="start" x="8" y="-114.5" font-family="Helvetica,sans-Serif" font-size="10.00">/STORM&#45;IRIT/Radium&#45;Engine</text>
<text text-anchor="middle" x="74" y="-103.5" font-family="Helvetica,sans-Serif" font-size="10.00">/src/Core/Math/PolyLine.cpp</text>
</a>
</g>
</g>
<!-- Node1&#45;&gt;Node2 -->
<g id="edge1" class="edge"><title>Node1&#45;&gt;Node2</title>
<path fill="none" stroke="midnightblue" d="M191.056,-175.823C166.418,-163.652 136.936,-149.089 113.724,-137.623"/>
<polygon fill="midnightblue" stroke="midnightblue" points="189.723,-179.068 200.239,-180.359 192.823,-172.792 189.723,-179.068"/>
</g>
<!-- Node3 -->
<g id="node3" class="node"><title>Node3</title>
<g id="a_node3"><a xlink:href="PolyLine_8inl.html" target="_top" xlink:title="/home/travis/build\l/STORM&#45;IRIT/Radium&#45;Engine\l/src/Core/Math/PolyLine.inl">
<polygon fill="white" stroke="black" points="166,-96.5 166,-137.5 314,-137.5 314,-96.5 166,-96.5"/>
<text text-anchor="start" x="174" y="-125.5" font-family="Helvetica,sans-Serif" font-size="10.00">/home/travis/build</text>
<text text-anchor="start" x="174" y="-114.5" font-family="Helvetica,sans-Serif" font-size="10.00">/STORM&#45;IRIT/Radium&#45;Engine</text>
<text text-anchor="middle" x="240" y="-103.5" font-family="Helvetica,sans-Serif" font-size="10.00">/src/Core/Math/PolyLine.inl</text>
</a>
</g>
</g>
<!-- Node1&#45;&gt;Node3 -->
<g id="edge2" class="edge"><title>Node1&#45;&gt;Node3</title>
<path fill="none" stroke="midnightblue" d="M233.466,-169.881C233.03,-159.133 233.254,-147.309 234.138,-137.667"/>
<polygon fill="midnightblue" stroke="midnightblue" points="229.991,-170.394 234.122,-180.15 236.977,-169.947 229.991,-170.394"/>
</g>
<!-- Node4 -->
<g id="node4" class="node"><title>Node4</title>
<g id="a_node4"><a xlink:href="GeometryTests_8hpp.html" target="_top" xlink:title="/home/travis/build\l/STORM&#45;IRIT/Radium&#45;Engine\l/src/Tests/CoreTests/src\l/GeometryTests.hpp">
<polygon fill="white" stroke="black" points="332,-91 332,-143 480,-143 480,-91 332,-91"/>
<text text-anchor="start" x="340" y="-131" font-family="Helvetica,sans-Serif" font-size="10.00">/home/travis/build</text>
<text text-anchor="start" x="340" y="-120" font-family="Helvetica,sans-Serif" font-size="10.00">/STORM&#45;IRIT/Radium&#45;Engine</text>
<text text-anchor="start" x="340" y="-109" font-family="Helvetica,sans-Serif" font-size="10.00">/src/Tests/CoreTests/src</text>
<text text-anchor="middle" x="406" y="-98" font-family="Helvetica,sans-Serif" font-size="10.00">/GeometryTests.hpp</text>
</a>
</g>
</g>
<!-- Node1&#45;&gt;Node4 -->
<g id="edge4" class="edge"><title>Node1&#45;&gt;Node4</title>
<path fill="none" stroke="midnightblue" d="M288.79,-175.899C309.696,-165.572 334.113,-153.511 355.232,-143.078"/>
<polygon fill="midnightblue" stroke="midnightblue" points="287.177,-172.792 279.761,-180.359 290.277,-179.068 287.177,-172.792"/>
</g>
<!-- Node3&#45;&gt;Node1 -->
<g id="edge3" class="edge"><title>Node3&#45;&gt;Node1</title>
<path fill="none" stroke="midnightblue" d="M246.526,-147.916C246.97,-158.65 246.754,-170.481 245.878,-180.15"/>
<polygon fill="midnightblue" stroke="midnightblue" points="250.001,-147.42 245.862,-137.667 243.016,-147.873 250.001,-147.42"/>
</g>
<!-- Node5 -->
<g id="node5" class="node"><title>Node5</title>
<g id="a_node5"><a xlink:href="main_8cpp.html" target="_top" xlink:title="/home/travis/build\l/STORM&#45;IRIT/Radium&#45;Engine\l/src/Tests/CoreTests/src\l/main.cpp">
<polygon fill="white" stroke="black" points="332,-1 332,-53 480,-53 480,-1 332,-1"/>
<text text-anchor="start" x="340" y="-41" font-family="Helvetica,sans-Serif" font-size="10.00">/home/travis/build</text>
<text text-anchor="start" x="340" y="-30" font-family="Helvetica,sans-Serif" font-size="10.00">/STORM&#45;IRIT/Radium&#45;Engine</text>
<text text-anchor="start" x="340" y="-19" font-family="Helvetica,sans-Serif" font-size="10.00">/src/Tests/CoreTests/src</text>
<text text-anchor="middle" x="406" y="-8" font-family="Helvetica,sans-Serif" font-size="10.00">/main.cpp</text>
</a>
</g>
</g>
<!-- Node4&#45;&gt;Node5 -->
<g id="edge5" class="edge"><title>Node4&#45;&gt;Node5</title>
<path fill="none" stroke="midnightblue" d="M406,-80.4892C406,-71.3088 406,-61.616 406,-53.0921"/>
<polygon fill="midnightblue" stroke="midnightblue" points="402.5,-80.5467 406,-90.5468 409.5,-80.5468 402.5,-80.5467"/>
</g>
</g>
</svg>
