<?xml version="1.0" encoding="UTF-8" standalone="no"?>
<!DOCTYPE svg PUBLIC "-//W3C//DTD SVG 1.1//EN"
 "http://www.w3.org/Graphics/SVG/1.1/DTD/svg11.dtd">
<!-- Generated by graphviz version 2.36.0 (20140111.2315)
 -->
<!-- Title: /home/travis/build/STORM&#45;IRIT/Radium&#45;Engine/src/Core/Math/RayCast.inl Pages: 1 -->
<svg width="655pt" height="308pt"
 viewBox="0.00 0.00 655.00 308.00" xmlns="http://www.w3.org/2000/svg" xmlns:xlink="http://www.w3.org/1999/xlink">
<g id="graph0" class="graph" transform="scale(1 1) rotate(0) translate(4 304)">
<title>/home/travis/build/STORM&#45;IRIT/Radium&#45;Engine/src/Core/Math/RayCast.inl</title>
<polygon fill="white" stroke="none" points="-4,4 -4,-304 651,-304 651,4 -4,4"/>
<!-- Node1 -->
<g id="node1" class="node"><title>Node1</title>
<polygon fill="#bfbfbf" stroke="black" points="250,-258.5 250,-299.5 398,-299.5 398,-258.5 250,-258.5"/>
<text text-anchor="start" x="258" y="-287.5" font-family="Helvetica,sans-Serif" font-size="10.00">/home/travis/build</text>
<text text-anchor="start" x="258" y="-276.5" font-family="Helvetica,sans-Serif" font-size="10.00">/STORM&#45;IRIT/Radium&#45;Engine</text>
<text text-anchor="middle" x="324" y="-265.5" font-family="Helvetica,sans-Serif" font-size="10.00">/src/Core/Math/RayCast.inl</text>
</g>
<!-- Node2 -->
<g id="node2" class="node"><title>Node2</title>
<g id="a_node2"><a xlink:href="RayCast_8hpp.html" target="_top" xlink:title="/home/travis/build\l/STORM&#45;IRIT/Radium&#45;Engine\l/src/Core/Math/RayCast.hpp">
<polygon fill="white" stroke="black" points="250,-180.5 250,-221.5 398,-221.5 398,-180.5 250,-180.5"/>
<text text-anchor="start" x="258" y="-209.5" font-family="Helvetica,sans-Serif" font-size="10.00">/home/travis/build</text>
<text text-anchor="start" x="258" y="-198.5" font-family="Helvetica,sans-Serif" font-size="10.00">/STORM&#45;IRIT/Radium&#45;Engine</text>
<text text-anchor="middle" x="324" y="-187.5" font-family="Helvetica,sans-Serif" font-size="10.00">/src/Core/Math/RayCast.hpp</text>
</a>
</g>
</g>
<!-- Node1&#45;&gt;Node2 -->
<g id="edge1" class="edge"><title>Node1&#45;&gt;Node2</title>
<path fill="none" stroke="midnightblue" d="M317.395,-248.297C317.076,-239.301 317.283,-229.653 318.018,-221.506"/>
<polygon fill="midnightblue" stroke="midnightblue" points="313.911,-248.659 318.012,-258.428 320.898,-248.234 313.911,-248.659"/>
</g>
<!-- Node2&#45;&gt;Node1 -->
<g id="edge2" class="edge"><title>Node2&#45;&gt;Node1</title>
<path fill="none" stroke="midnightblue" d="M330.602,-231.63C330.924,-240.622 330.72,-250.272 329.988,-258.428"/>
<polygon fill="midnightblue" stroke="midnightblue" points="334.087,-231.273 329.982,-221.506 327.1,-231.701 334.087,-231.273"/>
</g>
<!-- Node3 -->
<g id="node3" class="node"><title>Node3</title>
<g id="a_node3"><a xlink:href="MeshUtils_8cpp.html" target="_top" xlink:title="/home/travis/build\l/STORM&#45;IRIT/Radium&#45;Engine\l/src/Core/Mesh/MeshUtils.cpp">
<polygon fill="white" stroke="black" points="-1,-96.5 -1,-137.5 149,-137.5 149,-96.5 -1,-96.5"/>
<text text-anchor="start" x="7" y="-125.5" font-family="Helvetica,sans-Serif" font-size="10.00">/home/travis/build</text>
<text text-anchor="start" x="7" y="-114.5" font-family="Helvetica,sans-Serif" font-size="10.00">/STORM&#45;IRIT/Radium&#45;Engine</text>
<text text-anchor="middle" x="74" y="-103.5" font-family="Helvetica,sans-Serif" font-size="10.00">/src/Core/Mesh/MeshUtils.cpp</text>
</a>
</g>
</g>
<!-- Node2&#45;&gt;Node3 -->
<g id="edge3" class="edge"><title>Node2&#45;&gt;Node3</title>
<path fill="none" stroke="midnightblue" d="M254.465,-177.193C216.455,-164.725 169.862,-149.443 133.54,-137.529"/>
<polygon fill="midnightblue" stroke="midnightblue" points="253.844,-180.672 264.436,-180.463 256.025,-174.021 253.844,-180.672"/>
</g>
<!-- Node4 -->
<g id="node4" class="node"><title>Node4</title>
<g id="a_node4"><a xlink:href="RotateGizmo_8cpp.html" target="_top" xlink:title="/home/travis/build\l/STORM&#45;IRIT/Radium&#45;Engine\l/src/GuiBase/Viewer/Gizmo\l/RotateGizmo.cpp">
<polygon fill="white" stroke="black" points="167,-91 167,-143 315,-143 315,-91 167,-91"/>
<text text-anchor="start" x="175" y="-131" font-family="Helvetica,sans-Serif" font-size="10.00">/home/travis/build</text>
<text text-anchor="start" x="175" y="-120" font-family="Helvetica,sans-Serif" font-size="10.00">/STORM&#45;IRIT/Radium&#45;Engine</text>
<text text-anchor="start" x="175" y="-109" font-family="Helvetica,sans-Serif" font-size="10.00">/src/GuiBase/Viewer/Gizmo</text>
<text text-anchor="middle" x="241" y="-98" font-family="Helvetica,sans-Serif" font-size="10.00">/RotateGizmo.cpp</text>
</a>
</g>
</g>
<!-- Node2&#45;&gt;Node4 -->
<g id="edge4" class="edge"><title>Node2&#45;&gt;Node4</title>
<path fill="none" stroke="midnightblue" d="M296.752,-173.081C287.038,-163.483 276.138,-152.714 266.569,-143.261"/>
<polygon fill="midnightblue" stroke="midnightblue" points="294.334,-175.612 303.908,-180.15 299.254,-170.632 294.334,-175.612"/>
</g>
<!-- Node5 -->
<g id="node5" class="node"><title>Node5</title>
<g id="a_node5"><a xlink:href="TranslateGizmo_8cpp.html" target="_top" xlink:title="/home/travis/build\l/STORM&#45;IRIT/Radium&#45;Engine\l/src/GuiBase/Viewer/Gizmo\l/TranslateGizmo.cpp">
<polygon fill="white" stroke="black" points="333,-91 333,-143 481,-143 481,-91 333,-91"/>
<text text-anchor="start" x="341" y="-131" font-family="Helvetica,sans-Serif" font-size="10.00">/home/travis/build</text>
<text text-anchor="start" x="341" y="-120" font-family="Helvetica,sans-Serif" font-size="10.00">/STORM&#45;IRIT/Radium&#45;Engine</text>
<text text-anchor="start" x="341" y="-109" font-family="Helvetica,sans-Serif" font-size="10.00">/src/GuiBase/Viewer/Gizmo</text>
<text text-anchor="middle" x="407" y="-98" font-family="Helvetica,sans-Serif" font-size="10.00">/TranslateGizmo.cpp</text>
</a>
</g>
</g>
<!-- Node2&#45;&gt;Node5 -->
<g id="edge5" class="edge"><title>Node2&#45;&gt;Node5</title>
<path fill="none" stroke="midnightblue" d="M351.248,-173.081C360.962,-163.483 371.862,-152.714 381.431,-143.261"/>
<polygon fill="midnightblue" stroke="midnightblue" points="348.746,-170.632 344.092,-180.15 353.666,-175.612 348.746,-170.632"/>
</g>
<!-- Node6 -->
<g id="node6" class="node"><title>Node6</title>
<g id="a_node6"><a xlink:href="RayCastTest_8hpp.html" target="_top" xlink:title="/home/travis/build\l/STORM&#45;IRIT/Radium&#45;Engine\l/src/Tests/CoreTests/src\l/RayCastTest.hpp">
<polygon fill="white" stroke="black" points="499,-91 499,-143 647,-143 647,-91 499,-91"/>
<text text-anchor="start" x="507" y="-131" font-family="Helvetica,sans-Serif" font-size="10.00">/home/travis/build</text>
<text text-anchor="start" x="507" y="-120" font-family="Helvetica,sans-Serif" font-size="10.00">/STORM&#45;IRIT/Radium&#45;Engine</text>
<text text-anchor="start" x="507" y="-109" font-family="Helvetica,sans-Serif" font-size="10.00">/src/Tests/CoreTests/src</text>
<text text-anchor="middle" x="573" y="-98" font-family="Helvetica,sans-Serif" font-size="10.00">/RayCastTest.hpp</text>
</a>
</g>
</g>
<!-- Node2&#45;&gt;Node6 -->
<g id="edge6" class="edge"><title>Node2&#45;&gt;Node6</title>
<path fill="none" stroke="midnightblue" d="M392.885,-177.315C425.851,-166.459 465.366,-153.446 498.973,-142.378"/>
<polygon fill="midnightblue" stroke="midnightblue" points="391.729,-174.011 383.325,-180.463 393.918,-180.66 391.729,-174.011"/>
</g>
<!-- Node7 -->
<g id="node7" class="node"><title>Node7</title>
<g id="a_node7"><a xlink:href="main_8cpp.html" target="_top" xlink:title="/home/travis/build\l/STORM&#45;IRIT/Radium&#45;Engine\l/src/Tests/CoreTests/src\l/main.cpp">
<polygon fill="white" stroke="black" points="499,-1 499,-53 647,-53 647,-1 499,-1"/>
<text text-anchor="start" x="507" y="-41" font-family="Helvetica,sans-Serif" font-size="10.00">/home/travis/build</text>
<text text-anchor="start" x="507" y="-30" font-family="Helvetica,sans-Serif" font-size="10.00">/STORM&#45;IRIT/Radium&#45;Engine</text>
<text text-anchor="start" x="507" y="-19" font-family="Helvetica,sans-Serif" font-size="10.00">/src/Tests/CoreTests/src</text>
<text text-anchor="middle" x="573" y="-8" font-family="Helvetica,sans-Serif" font-size="10.00">/main.cpp</text>
</a>
</g>
</g>
<!-- Node6&#45;&gt;Node7 -->
<g id="edge7" class="edge"><title>Node6&#45;&gt;Node7</title>
<path fill="none" stroke="midnightblue" d="M573,-80.4892C573,-71.3088 573,-61.616 573,-53.0921"/>
<polygon fill="midnightblue" stroke="midnightblue" points="569.5,-80.5467 573,-90.5468 576.5,-80.5468 569.5,-80.5467"/>
</g>
</g>
</svg>
