<?xml version="1.0" encoding="UTF-8" standalone="no"?>
<!DOCTYPE svg PUBLIC "-//W3C//DTD SVG 1.1//EN"
 "http://www.w3.org/Graphics/SVG/1.1/DTD/svg11.dtd">
<!-- Generated by graphviz version 2.36.0 (20140111.2315)
 -->
<!-- Title: /home/travis/build/STORM&#45;IRIT/Radium&#45;Engine/src/Tests/CoreTests/src/RayCastTest.hpp Pages: 1 -->
<svg width="2276pt" height="590pt"
 viewBox="0.00 0.00 2275.64 590.00" xmlns="http://www.w3.org/2000/svg" xmlns:xlink="http://www.w3.org/1999/xlink">
<g id="graph0" class="graph" transform="scale(1 1) rotate(0) translate(4 586)">
<title>/home/travis/build/STORM&#45;IRIT/Radium&#45;Engine/src/Tests/CoreTests/src/RayCastTest.hpp</title>
<polygon fill="white" stroke="none" points="-4,4 -4,-586 2271.64,-586 2271.64,4 -4,4"/>
<!-- Node1 -->
<g id="node1" class="node"><title>Node1</title>
<polygon fill="#bfbfbf" stroke="black" points="1317,-529 1317,-581 1465,-581 1465,-529 1317,-529"/>
<text text-anchor="start" x="1325" y="-569" font-family="Helvetica,sans-Serif" font-size="10.00">/home/travis/build</text>
<text text-anchor="start" x="1325" y="-558" font-family="Helvetica,sans-Serif" font-size="10.00">/STORM&#45;IRIT/Radium&#45;Engine</text>
<text text-anchor="start" x="1325" y="-547" font-family="Helvetica,sans-Serif" font-size="10.00">/src/Tests/CoreTests/src</text>
<text text-anchor="middle" x="1391" y="-536" font-family="Helvetica,sans-Serif" font-size="10.00">/RayCastTest.hpp</text>
</g>
<!-- Node2 -->
<g id="node2" class="node"><title>Node2</title>
<g id="a_node2"><a xlink:href="RayCast_8hpp.html" target="_top" xlink:title="Core/Math/RayCast.hpp">
<polygon fill="white" stroke="black" points="1248.5,-472.5 1248.5,-491.5 1371.5,-491.5 1371.5,-472.5 1248.5,-472.5"/>
<text text-anchor="middle" x="1310" y="-479.5" font-family="Helvetica,sans-Serif" font-size="10.00">Core/Math/RayCast.hpp</text>
</a>
</g>
</g>
<!-- Node1&#45;&gt;Node2 -->
<g id="edge1" class="edge"><title>Node1&#45;&gt;Node2</title>
<path fill="none" stroke="midnightblue" d="M1362.21,-528.768C1350.7,-518.679 1337.81,-507.379 1327.72,-498.532"/>
<polygon fill="midnightblue" stroke="midnightblue" points="1329.82,-495.717 1319.99,-491.757 1325.2,-500.981 1329.82,-495.717"/>
</g>
<!-- Node43 -->
<g id="node43" class="node"><title>Node43</title>
<g id="a_node43"><a xlink:href="Tests_8hpp.html" target="_top" xlink:title="Tests/Tests.hpp">
<polygon fill="white" stroke="black" points="1466,-304.5 1466,-323.5 1554,-323.5 1554,-304.5 1466,-304.5"/>
<text text-anchor="middle" x="1510" y="-311.5" font-family="Helvetica,sans-Serif" font-size="10.00">Tests/Tests.hpp</text>
</a>
</g>
</g>
<!-- Node1&#45;&gt;Node43 -->
<g id="edge69" class="edge"><title>Node1&#45;&gt;Node43</title>
<path fill="none" stroke="midnightblue" d="M1403.51,-528.875C1427.66,-480.38 1480.15,-374.954 1501.1,-332.872"/>
<polygon fill="midnightblue" stroke="midnightblue" points="1504.28,-334.334 1505.61,-323.822 1498.02,-331.214 1504.28,-334.334"/>
</g>
<!-- Node3 -->
<g id="node3" class="node"><title>Node3</title>
<g id="a_node3"><a xlink:href="Ray_8hpp.html" target="_top" xlink:title="Core/Math/Ray.hpp">
<polygon fill="white" stroke="black" points="1346,-304.5 1346,-323.5 1448,-323.5 1448,-304.5 1346,-304.5"/>
<text text-anchor="middle" x="1397" y="-311.5" font-family="Helvetica,sans-Serif" font-size="10.00">Core/Math/Ray.hpp</text>
</a>
</g>
</g>
<!-- Node2&#45;&gt;Node3 -->
<g id="edge2" class="edge"><title>Node2&#45;&gt;Node3</title>
<path fill="none" stroke="midnightblue" d="M1330.98,-472.441C1346.25,-465.087 1366.08,-452.97 1377,-436 1397.28,-404.476 1399.12,-359.09 1398.3,-333.814"/>
<polygon fill="midnightblue" stroke="midnightblue" points="1401.79,-333.547 1397.79,-323.737 1394.8,-333.901 1401.79,-333.547"/>
</g>
<!-- Node5 -->
<g id="node5" class="node"><title>Node5</title>
<g id="a_node5"><a xlink:href="RaCore_8hpp.html" target="_top" xlink:title="Core/RaCore.hpp">
<polygon fill="white" stroke="black" points="906.5,-112.5 906.5,-131.5 999.5,-131.5 999.5,-112.5 906.5,-112.5"/>
<text text-anchor="middle" x="953" y="-119.5" font-family="Helvetica,sans-Serif" font-size="10.00">Core/RaCore.hpp</text>
</a>
</g>
</g>
<!-- Node2&#45;&gt;Node5 -->
<g id="edge65" class="edge"><title>Node2&#45;&gt;Node5</title>
<path fill="none" stroke="midnightblue" d="M1248.33,-480.366C1037.6,-477.396 359,-460.855 359,-371 359,-371 359,-371 359,-251 359,-196.259 399.891,-190.038 450,-168 528.605,-133.43 781.42,-125.417 895.82,-123.56"/>
<polygon fill="midnightblue" stroke="midnightblue" points="896.174,-127.055 906.12,-123.403 896.067,-120.056 896.174,-127.055"/>
</g>
<!-- Node22 -->
<g id="node22" class="node"><title>Node22</title>
<g id="a_node22"><a xlink:href="TriangleMesh_8hpp.html" target="_top" xlink:title="Core/Mesh/TriangleMesh.hpp">
<polygon fill="white" stroke="black" points="901.5,-416.5 901.5,-435.5 1046.5,-435.5 1046.5,-416.5 901.5,-416.5"/>
<text text-anchor="middle" x="974" y="-423.5" font-family="Helvetica,sans-Serif" font-size="10.00">Core/Mesh/TriangleMesh.hpp</text>
</a>
</g>
</g>
<!-- Node2&#45;&gt;Node22 -->
<g id="edge25" class="edge"><title>Node2&#45;&gt;Node22</title>
<path fill="none" stroke="midnightblue" d="M1256.76,-472.444C1197.04,-462.846 1100.26,-447.292 1036.87,-437.104"/>
<polygon fill="midnightblue" stroke="midnightblue" points="1037.42,-433.648 1026.99,-435.516 1036.31,-440.559 1037.42,-433.648"/>
</g>
<!-- Node26 -->
<g id="node26" class="node"><title>Node26</title>
<polygon fill="white" stroke="#bfbfbf" points="1163,-174.5 1163,-193.5 1207,-193.5 1207,-174.5 1163,-174.5"/>
<text text-anchor="middle" x="1185" y="-181.5" font-family="Helvetica,sans-Serif" font-size="10.00">vector</text>
</g>
<!-- Node2&#45;&gt;Node26 -->
<g id="edge66" class="edge"><title>Node2&#45;&gt;Node26</title>
<path fill="none" stroke="midnightblue" d="M1289.92,-472.429C1274.66,-464.933 1254.26,-452.636 1242,-436 1224.14,-411.774 1223,-401.098 1223,-371 1223,-371 1223,-371 1223,-313 1223,-272.231 1205.06,-227.065 1193.84,-202.787"/>
<polygon fill="midnightblue" stroke="midnightblue" points="1196.98,-201.246 1189.51,-193.734 1190.67,-204.265 1196.98,-201.246"/>
</g>
<!-- Node42 -->
<g id="node42" class="node"><title>Node42</title>
<g id="a_node42"><a xlink:href="RayCast_8inl.html" target="_top" xlink:title="Core/Math/RayCast.inl">
<polygon fill="white" stroke="black" points="1251.5,-416.5 1251.5,-435.5 1368.5,-435.5 1368.5,-416.5 1251.5,-416.5"/>
<text text-anchor="middle" x="1310" y="-423.5" font-family="Helvetica,sans-Serif" font-size="10.00">Core/Math/RayCast.inl</text>
</a>
</g>
</g>
<!-- Node2&#45;&gt;Node42 -->
<g id="edge67" class="edge"><title>Node2&#45;&gt;Node42</title>
<path fill="none" stroke="midnightblue" d="M1304.83,-472.083C1303.32,-464.927 1302.89,-454.635 1303.54,-445.691"/>
<polygon fill="midnightblue" stroke="midnightblue" points="1307.02,-446.126 1304.87,-435.751 1300.08,-445.2 1307.02,-446.126"/>
</g>
<!-- Node4 -->
<g id="node4" class="node"><title>Node4</title>
<g id="a_node4"><a xlink:href="LinearAlgebra_8hpp.html" target="_top" xlink:title="Core/Math/LinearAlgebra.hpp">
<polygon fill="white" stroke="black" points="1538.5,-242.5 1538.5,-261.5 1681.5,-261.5 1681.5,-242.5 1538.5,-242.5"/>
<text text-anchor="middle" x="1610" y="-249.5" font-family="Helvetica,sans-Serif" font-size="10.00">Core/Math/LinearAlgebra.hpp</text>
</a>
</g>
</g>
<!-- Node3&#45;&gt;Node4 -->
<g id="edge3" class="edge"><title>Node3&#45;&gt;Node4</title>
<path fill="none" stroke="midnightblue" d="M1427.52,-304.403C1464.92,-293.866 1528.43,-275.978 1569.79,-264.328"/>
<polygon fill="midnightblue" stroke="midnightblue" points="1570.86,-267.661 1579.54,-261.581 1568.96,-260.923 1570.86,-267.661"/>
</g>
<!-- Node3&#45;&gt;Node5 -->
<g id="edge23" class="edge"><title>Node3&#45;&gt;Node5</title>
<path fill="none" stroke="midnightblue" d="M1357.5,-304.435C1333.19,-297.653 1302.49,-286.218 1280,-268 1238.81,-234.636 1259.27,-197.15 1215,-168 1182.11,-146.348 1076.68,-133.569 1010.01,-127.452"/>
<polygon fill="midnightblue" stroke="midnightblue" points="1009.94,-123.932 999.664,-126.528 1009.31,-130.904 1009.94,-123.932"/>
</g>
<!-- Node13 -->
<g id="node13" class="node"><title>Node13</title>
<polygon fill="white" stroke="#bfbfbf" points="2165.5,-174.5 2165.5,-193.5 2252.5,-193.5 2252.5,-174.5 2165.5,-174.5"/>
<text text-anchor="middle" x="2209" y="-181.5" font-family="Helvetica,sans-Serif" font-size="10.00">Eigen/Geometry</text>
</g>
<!-- Node3&#45;&gt;Node13 -->
<g id="edge24" class="edge"><title>Node3&#45;&gt;Node13</title>
<path fill="none" stroke="midnightblue" d="M1448.06,-305.337C1451.09,-304.884 1454.08,-304.436 1457,-304 1767.2,-257.626 1848.21,-265.207 2155,-200 2160.16,-198.903 2165.56,-197.597 2170.86,-196.221"/>
<polygon fill="midnightblue" stroke="midnightblue" points="2172.11,-199.509 2180.86,-193.523 2170.29,-192.751 2172.11,-199.509"/>
</g>
<!-- Node4&#45;&gt;Node5 -->
<g id="edge4" class="edge"><title>Node4&#45;&gt;Node5</title>
<path fill="none" stroke="midnightblue" d="M1585.96,-242.443C1558.34,-232.537 1511.71,-215.581 1472,-200 1437.5,-186.463 1430.93,-177.085 1395,-168 1259.68,-133.785 1094.83,-125.456 1009.8,-123.513"/>
<polygon fill="midnightblue" stroke="midnightblue" points="1009.65,-120.009 999.583,-123.302 1009.51,-127.008 1009.65,-120.009"/>
</g>
<!-- Node12 -->
<g id="node12" class="node"><title>Node12</title>
<polygon fill="white" stroke="#bfbfbf" points="1636.5,-174.5 1636.5,-193.5 1701.5,-193.5 1701.5,-174.5 1636.5,-174.5"/>
<text text-anchor="middle" x="1669" y="-181.5" font-family="Helvetica,sans-Serif" font-size="10.00">Eigen/Core</text>
</g>
<!-- Node4&#45;&gt;Node12 -->
<g id="edge11" class="edge"><title>Node4&#45;&gt;Node12</title>
<path fill="none" stroke="midnightblue" d="M1617.71,-242.372C1626.94,-232.053 1642.58,-214.551 1654.17,-201.585"/>
<polygon fill="midnightblue" stroke="midnightblue" points="1657.04,-203.629 1661.1,-193.841 1651.82,-198.964 1657.04,-203.629"/>
</g>
<!-- Node4&#45;&gt;Node13 -->
<g id="edge12" class="edge"><title>Node4&#45;&gt;Node13</title>
<path fill="none" stroke="midnightblue" d="M1681.54,-248.356C1786.23,-243.574 1987.01,-230.939 2155,-200 2160.56,-198.976 2166.38,-197.643 2172.06,-196.195"/>
<polygon fill="midnightblue" stroke="midnightblue" points="2173.28,-199.49 2182.03,-193.506 2171.46,-192.731 2173.28,-199.49"/>
</g>
<!-- Node14 -->
<g id="node14" class="node"><title>Node14</title>
<polygon fill="white" stroke="#bfbfbf" points="1719.5,-174.5 1719.5,-193.5 1794.5,-193.5 1794.5,-174.5 1719.5,-174.5"/>
<text text-anchor="middle" x="1757" y="-181.5" font-family="Helvetica,sans-Serif" font-size="10.00">Eigen/Sparse</text>
</g>
<!-- Node4&#45;&gt;Node14 -->
<g id="edge13" class="edge"><title>Node4&#45;&gt;Node14</title>
<path fill="none" stroke="midnightblue" d="M1629.22,-242.372C1654.53,-231.007 1699.24,-210.931 1728.5,-197.796"/>
<polygon fill="midnightblue" stroke="midnightblue" points="1730.09,-200.919 1737.78,-193.63 1727.22,-194.533 1730.09,-200.919"/>
</g>
<!-- Node15 -->
<g id="node15" class="node"><title>Node15</title>
<polygon fill="white" stroke="#bfbfbf" points="1812.5,-174.5 1812.5,-193.5 1871.5,-193.5 1871.5,-174.5 1812.5,-174.5"/>
<text text-anchor="middle" x="1842" y="-181.5" font-family="Helvetica,sans-Serif" font-size="10.00">functional</text>
</g>
<!-- Node4&#45;&gt;Node15 -->
<g id="edge14" class="edge"><title>Node4&#45;&gt;Node15</title>
<path fill="none" stroke="midnightblue" d="M1646.99,-242.494C1686.09,-233.207 1749.41,-217.328 1803,-200 1805.78,-199.1 1808.66,-198.112 1811.52,-197.085"/>
<polygon fill="midnightblue" stroke="midnightblue" points="1812.95,-200.289 1821.1,-193.519 1810.51,-193.728 1812.95,-200.289"/>
</g>
<!-- Node16 -->
<g id="node16" class="node"><title>Node16</title>
<polygon fill="white" stroke="#bfbfbf" points="1889.5,-169 1889.5,-199 2022.5,-199 2022.5,-169 1889.5,-169"/>
<text text-anchor="start" x="1897.5" y="-187" font-family="Helvetica,sans-Serif" font-size="10.00">unsupported/Eigen/Aligned</text>
<text text-anchor="middle" x="1956" y="-176" font-family="Helvetica,sans-Serif" font-size="10.00">Vector3</text>
</g>
<!-- Node4&#45;&gt;Node16 -->
<g id="edge15" class="edge"><title>Node4&#45;&gt;Node16</title>
<path fill="none" stroke="midnightblue" d="M1655.88,-242.451C1707.58,-232.794 1794.38,-216.498 1879.21,-200.143"/>
<polygon fill="midnightblue" stroke="midnightblue" points="1880.12,-203.533 1889.28,-198.201 1878.8,-196.659 1880.12,-203.533"/>
</g>
<!-- Node17 -->
<g id="node17" class="node"><title>Node17</title>
<g id="a_node17"><a xlink:href="Math_8hpp.html" target="_top" xlink:title="Core/Math/Math.hpp">
<polygon fill="white" stroke="black" points="2041,-174.5 2041,-193.5 2147,-193.5 2147,-174.5 2041,-174.5"/>
<text text-anchor="middle" x="2094" y="-181.5" font-family="Helvetica,sans-Serif" font-size="10.00">Core/Math/Math.hpp</text>
</a>
</g>
</g>
<!-- Node4&#45;&gt;Node17 -->
<g id="edge16" class="edge"><title>Node4&#45;&gt;Node17</title>
<path fill="none" stroke="midnightblue" d="M1681.5,-244.826C1765.56,-236.994 1909.07,-221.829 2031,-200 2037.62,-198.815 2044.58,-197.366 2051.37,-195.839"/>
<polygon fill="midnightblue" stroke="midnightblue" points="2052.18,-199.245 2061.12,-193.57 2050.59,-192.427 2052.18,-199.245"/>
</g>
<!-- Node21 -->
<g id="node21" class="node"><title>Node21</title>
<g id="a_node21"><a xlink:href="LinearAlgebra_8inl.html" target="_top" xlink:title="Core/Math/LinearAlgebra.inl">
<polygon fill="white" stroke="black" points="1481.5,-174.5 1481.5,-193.5 1618.5,-193.5 1618.5,-174.5 1481.5,-174.5"/>
<text text-anchor="middle" x="1550" y="-181.5" font-family="Helvetica,sans-Serif" font-size="10.00">Core/Math/LinearAlgebra.inl</text>
</a>
</g>
</g>
<!-- Node4&#45;&gt;Node21 -->
<g id="edge22" class="edge"><title>Node4&#45;&gt;Node21</title>
<path fill="none" stroke="midnightblue" d="M1602.16,-242.372C1592.78,-232.053 1576.86,-214.551 1565.08,-201.585"/>
<polygon fill="midnightblue" stroke="midnightblue" points="1567.35,-198.886 1558.04,-193.841 1562.17,-203.595 1567.35,-198.886"/>
</g>
<!-- Node6 -->
<g id="node6" class="node"><title>Node6</title>
<g id="a_node6"><a xlink:href="CoreMacros_8hpp.html" target="_top" xlink:title="Core/CoreMacros.hpp">
<polygon fill="white" stroke="black" points="896.5,-56.5 896.5,-75.5 1009.5,-75.5 1009.5,-56.5 896.5,-56.5"/>
<text text-anchor="middle" x="953" y="-63.5" font-family="Helvetica,sans-Serif" font-size="10.00">Core/CoreMacros.hpp</text>
</a>
</g>
</g>
<!-- Node5&#45;&gt;Node6 -->
<g id="edge5" class="edge"><title>Node5&#45;&gt;Node6</title>
<path fill="none" stroke="midnightblue" d="M953,-112.083C953,-105.006 953,-94.8611 953,-85.9865"/>
<polygon fill="midnightblue" stroke="midnightblue" points="956.5,-85.751 953,-75.7511 949.5,-85.7511 956.5,-85.751"/>
</g>
<!-- Node7 -->
<g id="node7" class="node"><title>Node7</title>
<polygon fill="white" stroke="#bfbfbf" points="1026.5,-0.5 1026.5,-19.5 1075.5,-19.5 1075.5,-0.5 1026.5,-0.5"/>
<text text-anchor="middle" x="1051" y="-7.5" font-family="Helvetica,sans-Serif" font-size="10.00">cassert</text>
</g>
<!-- Node6&#45;&gt;Node7 -->
<g id="edge6" class="edge"><title>Node6&#45;&gt;Node7</title>
<path fill="none" stroke="midnightblue" d="M968.745,-56.324C984.319,-47.7428 1008.38,-34.486 1026.46,-24.5224"/>
<polygon fill="midnightblue" stroke="midnightblue" points="1028.22,-27.546 1035.29,-19.6545 1024.85,-21.4152 1028.22,-27.546"/>
</g>
<!-- Node8 -->
<g id="node8" class="node"><title>Node8</title>
<polygon fill="white" stroke="#bfbfbf" points="830.5,-0.5 830.5,-19.5 873.5,-19.5 873.5,-0.5 830.5,-0.5"/>
<text text-anchor="middle" x="852" y="-7.5" font-family="Helvetica,sans-Serif" font-size="10.00">cstdio</text>
</g>
<!-- Node6&#45;&gt;Node8 -->
<g id="edge7" class="edge"><title>Node6&#45;&gt;Node8</title>
<path fill="none" stroke="midnightblue" d="M936.773,-56.324C920.649,-47.7034 895.7,-34.3643 877.036,-24.3855"/>
<polygon fill="midnightblue" stroke="midnightblue" points="878.656,-21.283 868.187,-19.6545 875.356,-27.456 878.656,-21.283"/>
</g>
<!-- Node9 -->
<g id="node9" class="node"><title>Node9</title>
<polygon fill="white" stroke="#bfbfbf" points="892,-0.5 892,-19.5 946,-19.5 946,-0.5 892,-0.5"/>
<text text-anchor="middle" x="919" y="-7.5" font-family="Helvetica,sans-Serif" font-size="10.00">iostream</text>
</g>
<!-- Node6&#45;&gt;Node9 -->
<g id="edge8" class="edge"><title>Node6&#45;&gt;Node9</title>
<path fill="none" stroke="midnightblue" d="M947.386,-56.083C942.633,-48.5341 935.682,-37.4948 929.848,-28.2298"/>
<polygon fill="midnightblue" stroke="midnightblue" points="932.8,-26.3486 924.51,-19.7511 926.876,-30.0783 932.8,-26.3486"/>
</g>
<!-- Node10 -->
<g id="node10" class="node"><title>Node10</title>
<polygon fill="white" stroke="#bfbfbf" points="509,-0.5 509,-19.5 561,-19.5 561,-0.5 509,-0.5"/>
<text text-anchor="middle" x="535" y="-7.5" font-family="Helvetica,sans-Serif" font-size="10.00">sstream</text>
</g>
<!-- Node6&#45;&gt;Node10 -->
<g id="edge9" class="edge"><title>Node6&#45;&gt;Node10</title>
<path fill="none" stroke="midnightblue" d="M896.192,-57.6611C808.961,-46.3921 644.478,-25.143 571.482,-15.713"/>
<polygon fill="midnightblue" stroke="midnightblue" points="571.763,-12.2202 561.397,-14.4101 570.866,-19.1625 571.763,-12.2202"/>
</g>
<!-- Node11 -->
<g id="node11" class="node"><title>Node11</title>
<polygon fill="white" stroke="#bfbfbf" points="964,-0.5 964,-19.5 1008,-19.5 1008,-0.5 964,-0.5"/>
<text text-anchor="middle" x="986" y="-7.5" font-family="Helvetica,sans-Serif" font-size="10.00">thread</text>
</g>
<!-- Node6&#45;&gt;Node11 -->
<g id="edge10" class="edge"><title>Node6&#45;&gt;Node11</title>
<path fill="none" stroke="midnightblue" d="M958.449,-56.083C963.014,-48.6127 969.668,-37.7244 975.293,-28.5199"/>
<polygon fill="midnightblue" stroke="midnightblue" points="978.424,-30.109 980.652,-19.7511 972.451,-26.4588 978.424,-30.109"/>
</g>
<!-- Node17&#45;&gt;Node5 -->
<g id="edge17" class="edge"><title>Node17&#45;&gt;Node5</title>
<path fill="none" stroke="midnightblue" d="M2063.46,-174.483C2053.22,-171.962 2041.69,-169.482 2031,-168 1830.93,-140.269 1202.93,-127.325 1009.97,-123.934"/>
<polygon fill="midnightblue" stroke="midnightblue" points="1009.83,-120.431 999.767,-123.757 1009.7,-127.43 1009.83,-120.431"/>
</g>
<!-- Node18 -->
<g id="node18" class="node"><title>Node18</title>
<polygon fill="white" stroke="#bfbfbf" points="1647,-112.5 1647,-131.5 1703,-131.5 1703,-112.5 1647,-112.5"/>
<text text-anchor="middle" x="1675" y="-119.5" font-family="Helvetica,sans-Serif" font-size="10.00">algorithm</text>
</g>
<!-- Node17&#45;&gt;Node18 -->
<g id="edge18" class="edge"><title>Node17&#45;&gt;Node18</title>
<path fill="none" stroke="midnightblue" d="M2061.12,-174.462C2051.46,-172.147 2040.85,-169.789 2031,-168 1916.33,-147.164 1779.13,-132.749 1713.58,-126.498"/>
<polygon fill="midnightblue" stroke="midnightblue" points="1713.59,-122.984 1703.31,-125.53 1712.94,-129.953 1713.59,-122.984"/>
</g>
<!-- Node19 -->
<g id="node19" class="node"><title>Node19</title>
<polygon fill="white" stroke="#bfbfbf" points="1982,-112.5 1982,-131.5 2026,-131.5 2026,-112.5 1982,-112.5"/>
<text text-anchor="middle" x="2004" y="-119.5" font-family="Helvetica,sans-Serif" font-size="10.00">cmath</text>
</g>
<!-- Node17&#45;&gt;Node19 -->
<g id="edge19" class="edge"><title>Node17&#45;&gt;Node19</title>
<path fill="none" stroke="midnightblue" d="M2081.11,-174.403C2066.54,-164.691 2042.6,-148.732 2025.25,-137.17"/>
<polygon fill="midnightblue" stroke="midnightblue" points="2027.13,-134.215 2016.87,-131.581 2023.25,-140.04 2027.13,-134.215"/>
</g>
<!-- Node20 -->
<g id="node20" class="node"><title>Node20</title>
<g id="a_node20"><a xlink:href="Math_8inl.html" target="_top" xlink:title="Core/Math/Math.inl">
<polygon fill="white" stroke="black" points="2044,-112.5 2044,-131.5 2144,-131.5 2144,-112.5 2044,-112.5"/>
<text text-anchor="middle" x="2094" y="-119.5" font-family="Helvetica,sans-Serif" font-size="10.00">Core/Math/Math.inl</text>
</a>
</g>
</g>
<!-- Node17&#45;&gt;Node20 -->
<g id="edge20" class="edge"><title>Node17&#45;&gt;Node20</title>
<path fill="none" stroke="midnightblue" d="M2089.1,-174.403C2087.27,-165.938 2086.8,-152.728 2087.69,-141.82"/>
<polygon fill="midnightblue" stroke="midnightblue" points="2091.2,-141.966 2089.1,-131.581 2084.26,-141.006 2091.2,-141.966"/>
</g>
<!-- Node20&#45;&gt;Node17 -->
<g id="edge21" class="edge"><title>Node20&#45;&gt;Node17</title>
<path fill="none" stroke="midnightblue" d="M2098.9,-131.581C2100.73,-140.04 2101.2,-153.248 2100.32,-164.16"/>
<polygon fill="midnightblue" stroke="midnightblue" points="2096.8,-164.018 2098.9,-174.403 2103.74,-164.977 2096.8,-164.018"/>
</g>
<!-- Node22&#45;&gt;Node4 -->
<g id="edge34" class="edge"><title>Node22&#45;&gt;Node4</title>
<path fill="none" stroke="midnightblue" d="M996.194,-416.412C1052.45,-394.906 1205.48,-338.033 1337,-304 1405.88,-286.176 1486.06,-271.954 1541.63,-263.105"/>
<polygon fill="midnightblue" stroke="midnightblue" points="1542.38,-266.53 1551.71,-261.515 1541.29,-259.616 1542.38,-266.53"/>
</g>
<!-- Node22&#45;&gt;Node5 -->
<g id="edge41" class="edge"><title>Node22&#45;&gt;Node5</title>
<path fill="none" stroke="midnightblue" d="M923.29,-416.462C897.724,-410.016 867.64,-398.91 846,-380 829.087,-365.22 759.257,-221.837 754,-200 750.671,-186.173 745.121,-179.11 754,-168 771.517,-146.079 843.575,-134.055 895.954,-128.075"/>
<polygon fill="midnightblue" stroke="midnightblue" points="896.586,-131.526 906.146,-126.958 895.824,-124.568 896.586,-131.526"/>
</g>
<!-- Node23 -->
<g id="node23" class="node"><title>Node23</title>
<g id="a_node23"><a xlink:href="VectorArray_8hpp.html" target="_top" xlink:title="Core/Containers/VectorArray.hpp">
<polygon fill="white" stroke="black" points="1020.5,-304.5 1020.5,-323.5 1181.5,-323.5 1181.5,-304.5 1020.5,-304.5"/>
<text text-anchor="middle" x="1101" y="-311.5" font-family="Helvetica,sans-Serif" font-size="10.00">Core/Containers/VectorArray.hpp</text>
</a>
</g>
</g>
<!-- Node22&#45;&gt;Node23 -->
<g id="edge26" class="edge"><title>Node22&#45;&gt;Node23</title>
<path fill="none" stroke="midnightblue" d="M983.965,-416.368C1005.39,-397.814 1056.07,-353.913 1083.18,-330.438"/>
<polygon fill="midnightblue" stroke="midnightblue" points="1085.81,-332.784 1091.08,-323.591 1081.23,-327.493 1085.81,-332.784"/>
</g>
<!-- Node27 -->
<g id="node27" class="node"><title>Node27</title>
<g id="a_node27"><a xlink:href="MeshTypes_8hpp.html" target="_top" xlink:title="Core/Mesh/MeshTypes.hpp">
<polygon fill="white" stroke="black" points="865.5,-304.5 865.5,-323.5 1002.5,-323.5 1002.5,-304.5 865.5,-304.5"/>
<text text-anchor="middle" x="934" y="-311.5" font-family="Helvetica,sans-Serif" font-size="10.00">Core/Mesh/MeshTypes.hpp</text>
</a>
</g>
</g>
<!-- Node22&#45;&gt;Node27 -->
<g id="edge35" class="edge"><title>Node22&#45;&gt;Node27</title>
<path fill="none" stroke="midnightblue" d="M982.951,-416.386C994.953,-403.747 1013.59,-379.557 1003,-360 995.251,-345.696 980.766,-335.219 967.06,-327.992"/>
<polygon fill="midnightblue" stroke="midnightblue" points="968.314,-324.71 957.788,-323.501 965.262,-331.01 968.314,-324.71"/>
</g>
<!-- Node31 -->
<g id="node31" class="node"><title>Node31</title>
<g id="a_node31"><a xlink:href="Attribs_8hpp.html" target="_top" xlink:title="Core/Utils/Attribs.hpp">
<polygon fill="white" stroke="black" points="442.5,-360.5 442.5,-379.5 553.5,-379.5 553.5,-360.5 442.5,-360.5"/>
<text text-anchor="middle" x="498" y="-367.5" font-family="Helvetica,sans-Serif" font-size="10.00">Core/Utils/Attribs.hpp</text>
</a>
</g>
</g>
<!-- Node22&#45;&gt;Node31 -->
<g id="edge42" class="edge"><title>Node22&#45;&gt;Node31</title>
<path fill="none" stroke="midnightblue" d="M901.447,-416.769C809.571,-406.346 652.59,-388.538 563.962,-378.483"/>
<polygon fill="midnightblue" stroke="midnightblue" points="564.095,-374.976 553.765,-377.326 563.306,-381.931 564.095,-374.976"/>
</g>
<!-- Node41 -->
<g id="node41" class="node"><title>Node41</title>
<g id="a_node41"><a xlink:href="TriangleMesh_8inl.html" target="_top" xlink:title="Core/Mesh/TriangleMesh.inl">
<polygon fill="white" stroke="black" points="855.5,-360.5 855.5,-379.5 994.5,-379.5 994.5,-360.5 855.5,-360.5"/>
<text text-anchor="middle" x="925" y="-367.5" font-family="Helvetica,sans-Serif" font-size="10.00">Core/Mesh/TriangleMesh.inl</text>
</a>
</g>
</g>
<!-- Node22&#45;&gt;Node41 -->
<g id="edge63" class="edge"><title>Node22&#45;&gt;Node41</title>
<path fill="none" stroke="midnightblue" d="M961.012,-416.324C952.393,-408.654 941.648,-397.25 933.942,-387.8"/>
<polygon fill="midnightblue" stroke="midnightblue" points="936.714,-385.663 927.867,-379.834 931.148,-389.908 936.714,-385.663"/>
</g>
<!-- Node23&#45;&gt;Node4 -->
<g id="edge31" class="edge"><title>Node23&#45;&gt;Node4</title>
<path fill="none" stroke="midnightblue" d="M1173.12,-304.499C1266.75,-293.462 1429.77,-274.245 1528.01,-262.665"/>
<polygon fill="midnightblue" stroke="midnightblue" points="1528.67,-266.111 1538.19,-261.465 1527.85,-259.16 1528.67,-266.111"/>
</g>
<!-- Node23&#45;&gt;Node5 -->
<g id="edge32" class="edge"><title>Node23&#45;&gt;Node5</title>
<path fill="none" stroke="midnightblue" d="M1070.88,-304.396C1051.25,-297.419 1026.34,-285.781 1010,-268 976.087,-231.085 961.403,-171.628 955.88,-141.612"/>
<polygon fill="midnightblue" stroke="midnightblue" points="959.315,-140.932 954.191,-131.658 952.413,-142.103 959.315,-140.932"/>
</g>
<!-- Node24 -->
<g id="node24" class="node"><title>Node24</title>
<g id="a_node24"><a xlink:href="AlignedStdVector_8hpp.html" target="_top" xlink:title="Core/Containers/AlignedStd\lVector.hpp">
<polygon fill="white" stroke="black" points="1019,-237 1019,-267 1157,-267 1157,-237 1019,-237"/>
<text text-anchor="start" x="1027" y="-255" font-family="Helvetica,sans-Serif" font-size="10.00">Core/Containers/AlignedStd</text>
<text text-anchor="middle" x="1088" y="-244" font-family="Helvetica,sans-Serif" font-size="10.00">Vector.hpp</text>
</a>
</g>
</g>
<!-- Node23&#45;&gt;Node24 -->
<g id="edge27" class="edge"><title>Node23&#45;&gt;Node24</title>
<path fill="none" stroke="midnightblue" d="M1099.14,-304.403C1097.59,-297.265 1095.31,-286.752 1093.22,-277.09"/>
<polygon fill="midnightblue" stroke="midnightblue" points="1096.6,-276.173 1091.06,-267.141 1089.76,-277.655 1096.6,-276.173"/>
</g>
<!-- Node23&#45;&gt;Node26 -->
<g id="edge33" class="edge"><title>Node23&#45;&gt;Node26</title>
<path fill="none" stroke="midnightblue" d="M1120.47,-304.406C1135.2,-296.897 1154.77,-284.593 1166,-268 1179.11,-248.629 1183.28,-221.49 1184.54,-203.59"/>
<polygon fill="midnightblue" stroke="midnightblue" points="1188.04,-203.716 1185.01,-193.562 1181.05,-203.386 1188.04,-203.716"/>
</g>
<!-- Node24&#45;&gt;Node5 -->
<g id="edge28" class="edge"><title>Node24&#45;&gt;Node5</title>
<path fill="none" stroke="midnightblue" d="M1074.49,-236.886C1058.31,-220.117 1030.21,-191.46 1005,-168 994.074,-157.834 981.42,-146.867 971.331,-138.305"/>
<polygon fill="midnightblue" stroke="midnightblue" points="973.455,-135.518 963.553,-131.749 968.943,-140.87 973.455,-135.518"/>
</g>
<!-- Node25 -->
<g id="node25" class="node"><title>Node25</title>
<polygon fill="white" stroke="#bfbfbf" points="1057,-174.5 1057,-193.5 1145,-193.5 1145,-174.5 1057,-174.5"/>
<text text-anchor="middle" x="1101" y="-181.5" font-family="Helvetica,sans-Serif" font-size="10.00">Eigen/StdVector</text>
</g>
<!-- Node24&#45;&gt;Node25 -->
<g id="edge29" class="edge"><title>Node24&#45;&gt;Node25</title>
<path fill="none" stroke="midnightblue" d="M1090.82,-236.679C1092.73,-226.999 1095.26,-214.123 1097.33,-203.645"/>
<polygon fill="midnightblue" stroke="midnightblue" points="1100.76,-204.316 1099.26,-193.828 1093.89,-202.963 1100.76,-204.316"/>
</g>
<!-- Node24&#45;&gt;Node26 -->
<g id="edge30" class="edge"><title>Node24&#45;&gt;Node26</title>
<path fill="none" stroke="midnightblue" d="M1109.05,-236.679C1125.31,-225.611 1147.72,-210.363 1163.98,-199.3"/>
<polygon fill="midnightblue" stroke="midnightblue" points="1166.01,-202.157 1172.3,-193.638 1162.07,-196.37 1166.01,-202.157"/>
</g>
<!-- Node27&#45;&gt;Node4 -->
<g id="edge39" class="edge"><title>Node27&#45;&gt;Node4</title>
<path fill="none" stroke="midnightblue" d="M1002.84,-304.846C1005.59,-304.554 1008.32,-304.27 1011,-304 1023.7,-302.717 1367.04,-273.591 1528.08,-259.942"/>
<polygon fill="midnightblue" stroke="midnightblue" points="1528.75,-263.398 1538.41,-259.065 1528.15,-256.423 1528.75,-263.398"/>
</g>
<!-- Node27&#45;&gt;Node5 -->
<g id="edge40" class="edge"><title>Node27&#45;&gt;Node5</title>
<path fill="none" stroke="midnightblue" d="M934.866,-304.342C937.753,-275.472 947.095,-182.048 951.123,-141.767"/>
<polygon fill="midnightblue" stroke="midnightblue" points="954.617,-142.007 952.129,-131.708 947.651,-141.311 954.617,-142.007"/>
</g>
<!-- Node28 -->
<g id="node28" class="node"><title>Node28</title>
<g id="a_node28"><a xlink:href="Index_8hpp.html" target="_top" xlink:title="Core/Index/Index.hpp">
<polygon fill="white" stroke="black" points="815,-242.5 815,-261.5 925,-261.5 925,-242.5 815,-242.5"/>
<text text-anchor="middle" x="870" y="-249.5" font-family="Helvetica,sans-Serif" font-size="10.00">Core/Index/Index.hpp</text>
</a>
</g>
</g>
<!-- Node27&#45;&gt;Node28 -->
<g id="edge36" class="edge"><title>Node27&#45;&gt;Node28</title>
<path fill="none" stroke="midnightblue" d="M924.83,-304.403C914.85,-295.047 898.688,-279.895 886.491,-268.46"/>
<polygon fill="midnightblue" stroke="midnightblue" points="888.842,-265.867 879.153,-261.581 884.054,-270.973 888.842,-265.867"/>
</g>
<!-- Node29 -->
<g id="node29" class="node"><title>Node29</title>
<polygon fill="white" stroke="#bfbfbf" points="763,-174.5 763,-193.5 803,-193.5 803,-174.5 763,-174.5"/>
<text text-anchor="middle" x="783" y="-181.5" font-family="Helvetica,sans-Serif" font-size="10.00">limits</text>
</g>
<!-- Node28&#45;&gt;Node29 -->
<g id="edge37" class="edge"><title>Node28&#45;&gt;Node29</title>
<path fill="none" stroke="midnightblue" d="M858.626,-242.372C844.428,-231.6 819.912,-213.002 802.649,-199.906"/>
<polygon fill="midnightblue" stroke="midnightblue" points="804.459,-196.886 794.377,-193.63 800.228,-202.463 804.459,-196.886"/>
</g>
<!-- Node30 -->
<g id="node30" class="node"><title>Node30</title>
<g id="a_node30"><a xlink:href="Index_8inl.html" target="_top" xlink:title="Core/Index/Index.inl">
<polygon fill="white" stroke="black" points="821,-174.5 821,-193.5 925,-193.5 925,-174.5 821,-174.5"/>
<text text-anchor="middle" x="873" y="-181.5" font-family="Helvetica,sans-Serif" font-size="10.00">Core/Index/Index.inl</text>
</a>
</g>
</g>
<!-- Node28&#45;&gt;Node30 -->
<g id="edge38" class="edge"><title>Node28&#45;&gt;Node30</title>
<path fill="none" stroke="midnightblue" d="M870.392,-242.372C870.834,-232.643 871.567,-216.528 872.143,-203.85"/>
<polygon fill="midnightblue" stroke="midnightblue" points="875.64,-203.99 872.598,-193.841 868.648,-203.672 875.64,-203.99"/>
</g>
<!-- Node31&#45;&gt;Node5 -->
<g id="edge62" class="edge"><title>Node31&#45;&gt;Node5</title>
<path fill="none" stroke="midnightblue" d="M480.498,-360.465C467.213,-352.917 449.924,-340.533 442,-324 416.854,-271.534 377.591,-256.206 491,-168 522.376,-143.597 779.798,-130.08 896.209,-125.164"/>
<polygon fill="midnightblue" stroke="midnightblue" points="896.508,-128.655 906.354,-124.742 896.217,-121.661 896.508,-128.655"/>
</g>
<!-- Node31&#45;&gt;Node23 -->
<g id="edge43" class="edge"><title>Node31&#45;&gt;Node23</title>
<path fill="none" stroke="midnightblue" d="M553.815,-364.328C646.273,-356.539 837.313,-340.238 1010.02,-324.082"/>
<polygon fill="midnightblue" stroke="midnightblue" points="1010.42,-327.56 1020.05,-323.142 1009.77,-320.59 1010.42,-327.56"/>
</g>
<!-- Node32 -->
<g id="node32" class="node"><title>Node32</title>
<g id="a_node32"><a xlink:href="IndexMap_8hpp.html" target="_top" xlink:title="Core/Index/IndexMap.hpp">
<polygon fill="white" stroke="black" points="165.5,-304.5 165.5,-323.5 294.5,-323.5 294.5,-304.5 165.5,-304.5"/>
<text text-anchor="middle" x="230" y="-311.5" font-family="Helvetica,sans-Serif" font-size="10.00">Core/Index/IndexMap.hpp</text>
</a>
</g>
</g>
<!-- Node31&#45;&gt;Node32 -->
<g id="edge44" class="edge"><title>Node31&#45;&gt;Node32</title>
<path fill="none" stroke="midnightblue" d="M455.535,-360.444C408.587,-350.984 332.924,-335.738 282.346,-325.547"/>
<polygon fill="midnightblue" stroke="midnightblue" points="282.761,-322.061 272.267,-323.516 281.378,-328.923 282.761,-322.061"/>
</g>
<!-- Node36 -->
<g id="node36" class="node"><title>Node36</title>
<g id="a_node36"><a xlink:href="Log_8hpp.html" target="_top" xlink:title="Core/Log/Log.hpp">
<polygon fill="white" stroke="black" points="451,-304.5 451,-323.5 545,-323.5 545,-304.5 451,-304.5"/>
<text text-anchor="middle" x="498" y="-311.5" font-family="Helvetica,sans-Serif" font-size="10.00">Core/Log/Log.hpp</text>
</a>
</g>
</g>
<!-- Node31&#45;&gt;Node36 -->
<g id="edge52" class="edge"><title>Node31&#45;&gt;Node36</title>
<path fill="none" stroke="midnightblue" d="M498,-360.083C498,-353.006 498,-342.861 498,-333.986"/>
<polygon fill="midnightblue" stroke="midnightblue" points="501.5,-333.751 498,-323.751 494.5,-333.751 501.5,-333.751"/>
</g>
<!-- Node32&#45;&gt;Node5 -->
<g id="edge45" class="edge"><title>Node32&#45;&gt;Node5</title>
<path fill="none" stroke="midnightblue" d="M236.658,-304.214C260.023,-273.428 337.298,-172.079 345,-168 392.964,-142.596 754.392,-129.012 896.174,-124.616"/>
<polygon fill="midnightblue" stroke="midnightblue" points="896.509,-128.107 906.397,-124.303 896.294,-121.111 896.509,-128.107"/>
</g>
<!-- Node32&#45;&gt;Node18 -->
<g id="edge46" class="edge"><title>Node32&#45;&gt;Node18</title>
<path fill="none" stroke="midnightblue" d="M294.946,-310.162C336.903,-308.348 392.676,-305.975 442,-304 548.323,-299.743 1305.06,-317.976 1399,-268 1447.58,-242.156 1425.95,-198.118 1472,-168 1522.38,-135.053 1593.26,-125.935 1636.55,-123.581"/>
<polygon fill="midnightblue" stroke="midnightblue" points="1636.84,-127.072 1646.67,-123.128 1636.53,-120.079 1636.84,-127.072"/>
</g>
<!-- Node32&#45;&gt;Node28 -->
<g id="edge49" class="edge"><title>Node32&#45;&gt;Node28</title>
<path fill="none" stroke="midnightblue" d="M294.725,-308.899C395.902,-302.194 597.604,-287.636 768,-268 780.417,-266.569 793.649,-264.803 806.329,-262.99"/>
<polygon fill="midnightblue" stroke="midnightblue" points="806.96,-266.435 816.352,-261.533 805.953,-259.508 806.96,-266.435"/>
</g>
<!-- Node33 -->
<g id="node33" class="node"><title>Node33</title>
<polygon fill="white" stroke="#bfbfbf" points="0,-242.5 0,-261.5 52,-261.5 52,-242.5 0,-242.5"/>
<text text-anchor="middle" x="26" y="-249.5" font-family="Helvetica,sans-Serif" font-size="10.00">assert.h</text>
</g>
<!-- Node32&#45;&gt;Node33 -->
<g id="edge47" class="edge"><title>Node32&#45;&gt;Node33</title>
<path fill="none" stroke="midnightblue" d="M191.604,-304.452C157.038,-296.363 105.053,-283.215 61,-268 58.7329,-267.217 56.4054,-266.355 54.0802,-265.451"/>
<polygon fill="midnightblue" stroke="midnightblue" points="55.2752,-262.158 44.6949,-261.603 52.6198,-268.635 55.2752,-262.158"/>
</g>
<!-- Node34 -->
<g id="node34" class="node"><title>Node34</title>
<polygon fill="white" stroke="#bfbfbf" points="70.5,-242.5 70.5,-261.5 113.5,-261.5 113.5,-242.5 70.5,-242.5"/>
<text text-anchor="middle" x="92" y="-249.5" font-family="Helvetica,sans-Serif" font-size="10.00">deque</text>
</g>
<!-- Node32&#45;&gt;Node34 -->
<g id="edge48" class="edge"><title>Node32&#45;&gt;Node34</title>
<path fill="none" stroke="midnightblue" d="M208.295,-304.468C186.351,-295.722 151.552,-281.525 122,-268 120.643,-267.379 119.257,-266.732 117.862,-266.071"/>
<polygon fill="midnightblue" stroke="midnightblue" points="119.243,-262.85 108.72,-261.615 116.176,-269.142 119.243,-262.85"/>
</g>
<!-- Node35 -->
<g id="node35" class="node"><title>Node35</title>
<g id="a_node35"><a xlink:href="IndexMap_8inl.html" target="_top" xlink:title="Core/Index/IndexMap.inl">
<polygon fill="white" stroke="black" points="131.5,-242.5 131.5,-261.5 254.5,-261.5 254.5,-242.5 131.5,-242.5"/>
<text text-anchor="middle" x="193" y="-249.5" font-family="Helvetica,sans-Serif" font-size="10.00">Core/Index/IndexMap.inl</text>
</a>
</g>
</g>
<!-- Node32&#45;&gt;Node35 -->
<g id="edge50" class="edge"><title>Node32&#45;&gt;Node35</title>
<path fill="none" stroke="midnightblue" d="M219.798,-304.403C212.524,-295.671 203.584,-281.889 197.746,-270.794"/>
<polygon fill="midnightblue" stroke="midnightblue" points="200.83,-269.128 193.394,-261.581 194.501,-272.118 200.83,-269.128"/>
</g>
<!-- Node35&#45;&gt;Node32 -->
<g id="edge51" class="edge"><title>Node35&#45;&gt;Node32</title>
<path fill="none" stroke="midnightblue" d="M203.189,-261.581C210.46,-270.307 219.402,-284.087 225.243,-295.186"/>
<polygon fill="midnightblue" stroke="midnightblue" points="222.162,-296.858 229.599,-304.403 228.491,-293.867 222.162,-296.858"/>
</g>
<!-- Node36&#45;&gt;Node5 -->
<g id="edge53" class="edge"><title>Node36&#45;&gt;Node5</title>
<path fill="none" stroke="midnightblue" d="M493.668,-304.335C487.064,-289.954 475.952,-260.332 483,-236 492.948,-201.654 495.628,-186.872 526,-168 586.525,-130.393 794.799,-123.859 896.383,-122.961"/>
<polygon fill="midnightblue" stroke="midnightblue" points="896.488,-126.461 906.462,-122.888 896.436,-119.461 896.488,-126.461"/>
</g>
<!-- Node36&#45;&gt;Node10 -->
<g id="edge54" class="edge"><title>Node36&#45;&gt;Node10</title>
<path fill="none" stroke="midnightblue" d="M492.616,-304.443C487.444,-295.678 479.988,-281.467 477,-268 473.92,-254.115 475.559,-250.149 477,-236 485,-157.469 514.659,-67.529 528.19,-29.5068"/>
<polygon fill="midnightblue" stroke="midnightblue" points="531.582,-30.4199 531.69,-19.8257 524.999,-28.0403 531.582,-30.4199"/>
</g>
<!-- Node37 -->
<g id="node37" class="node"><title>Node37</title>
<polygon fill="white" stroke="#bfbfbf" points="713,-242.5 713,-261.5 759,-261.5 759,-242.5 713,-242.5"/>
<text text-anchor="middle" x="736" y="-249.5" font-family="Helvetica,sans-Serif" font-size="10.00">stdio.h</text>
</g>
<!-- Node36&#45;&gt;Node37 -->
<g id="edge55" class="edge"><title>Node36&#45;&gt;Node37</title>
<path fill="none" stroke="midnightblue" d="M545.032,-305.808C587.319,-298.62 650.78,-286.033 704,-268 706.125,-267.28 708.295,-266.46 710.455,-265.583"/>
<polygon fill="midnightblue" stroke="midnightblue" points="711.949,-268.749 719.681,-261.506 709.12,-262.346 711.949,-268.749"/>
</g>
<!-- Node38 -->
<g id="node38" class="node"><title>Node38</title>
<polygon fill="white" stroke="#bfbfbf" points="535.5,-174.5 535.5,-193.5 576.5,-193.5 576.5,-174.5 535.5,-174.5"/>
<text text-anchor="middle" x="556" y="-181.5" font-family="Helvetica,sans-Serif" font-size="10.00">string</text>
</g>
<!-- Node36&#45;&gt;Node38 -->
<g id="edge56" class="edge"><title>Node36&#45;&gt;Node38</title>
<path fill="none" stroke="midnightblue" d="M494.639,-304.395C489.423,-289.591 481.058,-258.71 492,-236 499.74,-219.936 515.273,-207.365 529.099,-198.723"/>
<polygon fill="midnightblue" stroke="midnightblue" points="530.971,-201.682 537.838,-193.614 527.438,-195.639 530.971,-201.682"/>
</g>
<!-- Node39 -->
<g id="node39" class="node"><title>Node39</title>
<g id="a_node39"><a xlink:href="StringUtils_8hpp.html" target="_top" xlink:title="Core/String/StringUtils.hpp">
<polygon fill="white" stroke="black" points="561,-242.5 561,-261.5 695,-261.5 695,-242.5 561,-242.5"/>
<text text-anchor="middle" x="628" y="-249.5" font-family="Helvetica,sans-Serif" font-size="10.00">Core/String/StringUtils.hpp</text>
</a>
</g>
</g>
<!-- Node36&#45;&gt;Node39 -->
<g id="edge57" class="edge"><title>Node36&#45;&gt;Node39</title>
<path fill="none" stroke="midnightblue" d="M516.626,-304.403C538.443,-294.334 574.804,-277.552 600.017,-265.915"/>
<polygon fill="midnightblue" stroke="midnightblue" points="601.796,-268.949 609.409,-261.581 598.862,-262.593 601.796,-268.949"/>
</g>
<!-- Node40 -->
<g id="node40" class="node"><title>Node40</title>
<polygon fill="white" stroke="#bfbfbf" points="501.5,-242.5 501.5,-261.5 542.5,-261.5 542.5,-242.5 501.5,-242.5"/>
<text text-anchor="middle" x="522" y="-249.5" font-family="Helvetica,sans-Serif" font-size="10.00">ctime</text>
</g>
<!-- Node36&#45;&gt;Node40 -->
<g id="edge61" class="edge"><title>Node36&#45;&gt;Node40</title>
<path fill="none" stroke="midnightblue" d="M501.439,-304.403C504.896,-295.76 510.332,-282.17 514.746,-271.134"/>
<polygon fill="midnightblue" stroke="midnightblue" points="518.103,-272.165 518.568,-261.581 511.604,-269.565 518.103,-272.165"/>
</g>
<!-- Node39&#45;&gt;Node5 -->
<g id="edge58" class="edge"><title>Node39&#45;&gt;Node5</title>
<path fill="none" stroke="midnightblue" d="M634.884,-242.3C649.021,-225.088 683.189,-186.739 721,-168 776.599,-140.446 847.479,-129.742 896.178,-125.597"/>
<polygon fill="midnightblue" stroke="midnightblue" points="896.525,-129.081 906.22,-124.808 895.977,-122.102 896.525,-129.081"/>
</g>
<!-- Node39&#45;&gt;Node26 -->
<g id="edge60" class="edge"><title>Node39&#45;&gt;Node26</title>
<path fill="none" stroke="midnightblue" d="M666.909,-242.428C678.769,-240.057 691.877,-237.677 704,-236 902.308,-208.573 959.49,-251.306 1153,-200 1155.35,-199.376 1157.74,-198.586 1160.1,-197.696"/>
<polygon fill="midnightblue" stroke="midnightblue" points="1161.68,-200.826 1169.47,-193.642 1158.9,-194.401 1161.68,-200.826"/>
</g>
<!-- Node39&#45;&gt;Node38 -->
<g id="edge59" class="edge"><title>Node39&#45;&gt;Node38</title>
<path fill="none" stroke="midnightblue" d="M618.587,-242.372C607.116,-231.856 587.508,-213.882 573.29,-200.85"/>
<polygon fill="midnightblue" stroke="midnightblue" points="575.381,-198.018 565.645,-193.841 570.651,-203.178 575.381,-198.018"/>
</g>
<!-- Node41&#45;&gt;Node22 -->
<g id="edge64" class="edge"><title>Node41&#45;&gt;Node22</title>
<path fill="none" stroke="midnightblue" d="M938.072,-379.751C946.573,-387.327 957.117,-398.505 964.776,-407.855"/>
<polygon fill="midnightblue" stroke="midnightblue" points="962.217,-410.27 971.075,-416.083 967.775,-406.015 962.217,-410.27"/>
</g>
<!-- Node42&#45;&gt;Node2 -->
<g id="edge68" class="edge"><title>Node42&#45;&gt;Node2</title>
<path fill="none" stroke="midnightblue" d="M1315.13,-435.751C1316.66,-442.858 1317.1,-453.136 1316.47,-462.101"/>
<polygon fill="midnightblue" stroke="midnightblue" points="1312.99,-461.713 1315.17,-472.083 1319.93,-462.622 1312.99,-461.713"/>
</g>
<!-- Node43&#45;&gt;Node6 -->
<g id="edge70" class="edge"><title>Node43&#45;&gt;Node6</title>
<path fill="none" stroke="midnightblue" d="M1554.29,-312.617C1726.32,-310.23 2336.96,-292.957 2261,-168 2232.91,-121.798 2205.28,-125.791 2153,-112 2043.57,-83.1323 1256.39,-70.8603 1019.97,-67.8002"/>
<polygon fill="midnightblue" stroke="midnightblue" points="1019.84,-64.2983 1009.8,-67.6698 1019.75,-71.2977 1019.84,-64.2983"/>
</g>
<!-- Node44 -->
<g id="node44" class="node"><title>Node44</title>
<g id="a_node44"><a xlink:href="Manager_8hpp.html" target="_top" xlink:title="Tests/Manager.hpp">
<polygon fill="white" stroke="black" points="1289.5,-242.5 1289.5,-261.5 1390.5,-261.5 1390.5,-242.5 1289.5,-242.5"/>
<text text-anchor="middle" x="1340" y="-249.5" font-family="Helvetica,sans-Serif" font-size="10.00">Tests/Manager.hpp</text>
</a>
</g>
</g>
<!-- Node43&#45;&gt;Node44 -->
<g id="edge71" class="edge"><title>Node43&#45;&gt;Node44</title>
<path fill="none" stroke="midnightblue" d="M1485.64,-304.403C1456.36,-294.067 1407.03,-276.656 1374,-264.999"/>
<polygon fill="midnightblue" stroke="midnightblue" points="1374.91,-261.608 1364.31,-261.581 1372.58,-268.209 1374.91,-261.608"/>
</g>
<!-- Node44&#45;&gt;Node26 -->
<g id="edge74" class="edge"><title>Node44&#45;&gt;Node26</title>
<path fill="none" stroke="midnightblue" d="M1319.74,-242.372C1292.93,-230.958 1245.49,-210.756 1214.65,-197.625"/>
<polygon fill="midnightblue" stroke="midnightblue" points="1215.84,-194.328 1205.27,-193.63 1213.1,-200.768 1215.84,-194.328"/>
</g>
<!-- Node45 -->
<g id="node45" class="node"><title>Node45</title>
<g id="a_node45"><a xlink:href="Singleton_8hpp.html" target="_top" xlink:title="Core/Utils/Singleton.hpp">
<polygon fill="white" stroke="black" points="1263.5,-174.5 1263.5,-193.5 1386.5,-193.5 1386.5,-174.5 1263.5,-174.5"/>
<text text-anchor="middle" x="1325" y="-181.5" font-family="Helvetica,sans-Serif" font-size="10.00">Core/Utils/Singleton.hpp</text>
</a>
</g>
</g>
<!-- Node44&#45;&gt;Node45 -->
<g id="edge72" class="edge"><title>Node44&#45;&gt;Node45</title>
<path fill="none" stroke="midnightblue" d="M1338.04,-242.372C1335.83,-232.643 1332.17,-216.528 1329.28,-203.85"/>
<polygon fill="midnightblue" stroke="midnightblue" points="1332.64,-202.817 1327.01,-193.841 1325.81,-204.368 1332.64,-202.817"/>
</g>
<!-- Node45&#45;&gt;Node5 -->
<g id="edge73" class="edge"><title>Node45&#45;&gt;Node5</title>
<path fill="none" stroke="midnightblue" d="M1283.65,-174.495C1272.42,-172.281 1260.26,-169.966 1249,-168 1165.87,-153.484 1069.12,-139.28 1009.47,-130.832"/>
<polygon fill="midnightblue" stroke="midnightblue" points="1009.89,-127.356 999.501,-129.424 1008.91,-134.288 1009.89,-127.356"/>
</g>
</g>
</svg>
