<?xml version="1.0" encoding="UTF-8" standalone="no"?>
<!DOCTYPE svg PUBLIC "-//W3C//DTD SVG 1.1//EN"
 "http://www.w3.org/Graphics/SVG/1.1/DTD/svg11.dtd">
<!-- Generated by graphviz version 2.36.0 (20140111.2315)
 -->
<!-- Title: /home/travis/build/STORM&#45;IRIT/Radium&#45;Engine/src/Engine/Renderer/RenderObject/RenderObject.hpp Pages: 1 -->
<svg width="3678pt" height="332pt"
 viewBox="0.00 0.00 3678.00 332.00" xmlns="http://www.w3.org/2000/svg" xmlns:xlink="http://www.w3.org/1999/xlink">
<g id="graph0" class="graph" transform="scale(1 1) rotate(0) translate(4 328)">
<title>/home/travis/build/STORM&#45;IRIT/Radium&#45;Engine/src/Engine/Renderer/RenderObject/RenderObject.hpp</title>
<polygon fill="white" stroke="none" points="-4,4 -4,-328 3674,-328 3674,4 -4,4"/>
<!-- Node1 -->
<g id="node1" class="node"><title>Node1</title>
<polygon fill="#bfbfbf" stroke="black" points="1975,-271 1975,-323 2147,-323 2147,-271 1975,-271"/>
<text text-anchor="start" x="1983" y="-311" font-family="Helvetica,sans-Serif" font-size="10.00">/home/travis/build</text>
<text text-anchor="start" x="1983" y="-300" font-family="Helvetica,sans-Serif" font-size="10.00">/STORM&#45;IRIT/Radium&#45;Engine</text>
<text text-anchor="start" x="1983" y="-289" font-family="Helvetica,sans-Serif" font-size="10.00">/src/Engine/Renderer/RenderObject</text>
<text text-anchor="middle" x="2061" y="-278" font-family="Helvetica,sans-Serif" font-size="10.00">/RenderObject.hpp</text>
</g>
<!-- Node2 -->
<g id="node2" class="node"><title>Node2</title>
<g id="a_node2"><a xlink:href="Component_8cpp.html" target="_top" xlink:title="/home/travis/build\l/STORM&#45;IRIT/Radium&#45;Engine\l/src/Engine/Component/Component.cpp">
<polygon fill="white" stroke="black" points="-0.5,-186.5 -0.5,-227.5 190.5,-227.5 190.5,-186.5 -0.5,-186.5"/>
<text text-anchor="start" x="7.5" y="-215.5" font-family="Helvetica,sans-Serif" font-size="10.00">/home/travis/build</text>
<text text-anchor="start" x="7.5" y="-204.5" font-family="Helvetica,sans-Serif" font-size="10.00">/STORM&#45;IRIT/Radium&#45;Engine</text>
<text text-anchor="middle" x="95" y="-193.5" font-family="Helvetica,sans-Serif" font-size="10.00">/src/Engine/Component/Component.cpp</text>
</a>
</g>
</g>
<!-- Node1&#45;&gt;Node2 -->
<g id="edge1" class="edge"><title>Node1&#45;&gt;Node2</title>
<path fill="none" stroke="midnightblue" d="M1964.79,-295.484C1634.06,-293.291 545.16,-282.475 199,-234 187.757,-232.426 175.967,-230.125 164.529,-227.534"/>
<polygon fill="midnightblue" stroke="midnightblue" points="1964.8,-298.984 1974.82,-295.55 1964.85,-291.985 1964.8,-298.984"/>
</g>
<!-- Node3 -->
<g id="node3" class="node"><title>Node3</title>
<g id="a_node3"><a xlink:href="ItemEntry_8cpp.html" target="_top" xlink:title="/home/travis/build\l/STORM&#45;IRIT/Radium&#45;Engine\l/src/Engine/ItemModel/ItemEntry.cpp">
<polygon fill="white" stroke="black" points="208.5,-186.5 208.5,-227.5 387.5,-227.5 387.5,-186.5 208.5,-186.5"/>
<text text-anchor="start" x="216.5" y="-215.5" font-family="Helvetica,sans-Serif" font-size="10.00">/home/travis/build</text>
<text text-anchor="start" x="216.5" y="-204.5" font-family="Helvetica,sans-Serif" font-size="10.00">/STORM&#45;IRIT/Radium&#45;Engine</text>
<text text-anchor="middle" x="298" y="-193.5" font-family="Helvetica,sans-Serif" font-size="10.00">/src/Engine/ItemModel/ItemEntry.cpp</text>
</a>
</g>
</g>
<!-- Node1&#45;&gt;Node3 -->
<g id="edge2" class="edge"><title>Node1&#45;&gt;Node3</title>
<path fill="none" stroke="midnightblue" d="M1964.68,-295.221C1657.23,-292.293 701.683,-279.661 396,-234 385.38,-232.414 374.257,-230.107 363.474,-227.514"/>
<polygon fill="midnightblue" stroke="midnightblue" points="1964.87,-298.723 1974.9,-295.317 1964.93,-291.723 1964.87,-298.723"/>
</g>
<!-- Node4 -->
<g id="node4" class="node"><title>Node4</title>
<g id="a_node4"><a xlink:href="DefaultCameraManager_8cpp.html" target="_top" xlink:title="/home/travis/build\l/STORM&#45;IRIT/Radium&#45;Engine\l/src/Engine/Managers/CameraManager\l/DefaultCameraManager.cpp">
<polygon fill="white" stroke="black" points="405.5,-181 405.5,-233 592.5,-233 592.5,-181 405.5,-181"/>
<text text-anchor="start" x="413.5" y="-221" font-family="Helvetica,sans-Serif" font-size="10.00">/home/travis/build</text>
<text text-anchor="start" x="413.5" y="-210" font-family="Helvetica,sans-Serif" font-size="10.00">/STORM&#45;IRIT/Radium&#45;Engine</text>
<text text-anchor="start" x="413.5" y="-199" font-family="Helvetica,sans-Serif" font-size="10.00">/src/Engine/Managers/CameraManager</text>
<text text-anchor="middle" x="499" y="-188" font-family="Helvetica,sans-Serif" font-size="10.00">/DefaultCameraManager.cpp</text>
</a>
</g>
</g>
<!-- Node1&#45;&gt;Node4 -->
<g id="edge3" class="edge"><title>Node1&#45;&gt;Node4</title>
<path fill="none" stroke="midnightblue" d="M1964.66,-294.512C1683.18,-289.753 865.363,-272.877 601,-234 598.198,-233.588 595.361,-233.13 592.503,-232.634"/>
<polygon fill="midnightblue" stroke="midnightblue" points="1964.79,-298.015 1974.85,-294.683 1964.91,-291.016 1964.79,-298.015"/>
</g>
<!-- Node5 -->
<g id="node5" class="node"><title>Node5</title>
<g id="a_node5"><a xlink:href="DefaultLightManager_8cpp.html" target="_top" xlink:title="/home/travis/build\l/STORM&#45;IRIT/Radium&#45;Engine\l/src/Engine/Managers/LightManager\l/DefaultLightManager.cpp">
<polygon fill="white" stroke="black" points="610.5,-181 610.5,-233 783.5,-233 783.5,-181 610.5,-181"/>
<text text-anchor="start" x="618.5" y="-221" font-family="Helvetica,sans-Serif" font-size="10.00">/home/travis/build</text>
<text text-anchor="start" x="618.5" y="-210" font-family="Helvetica,sans-Serif" font-size="10.00">/STORM&#45;IRIT/Radium&#45;Engine</text>
<text text-anchor="start" x="618.5" y="-199" font-family="Helvetica,sans-Serif" font-size="10.00">/src/Engine/Managers/LightManager</text>
<text text-anchor="middle" x="697" y="-188" font-family="Helvetica,sans-Serif" font-size="10.00">/DefaultLightManager.cpp</text>
</a>
</g>
</g>
<!-- Node1&#45;&gt;Node5 -->
<g id="edge4" class="edge"><title>Node1&#45;&gt;Node5</title>
<path fill="none" stroke="midnightblue" d="M1964.58,-293.976C1709.03,-288.182 1018.44,-269.612 793,-234 789.93,-233.515 786.817,-232.97 783.683,-232.375"/>
<polygon fill="midnightblue" stroke="midnightblue" points="1964.52,-297.476 1974.59,-294.202 1964.67,-290.477 1964.52,-297.476"/>
</g>
<!-- Node6 -->
<g id="node6" class="node"><title>Node6</title>
<g id="a_node6"><a xlink:href="RadiumEngine_8cpp.html" target="_top" xlink:title="/home/travis/build\l/STORM&#45;IRIT/Radium&#45;Engine\l/src/Engine/RadiumEngine.cpp">
<polygon fill="white" stroke="black" points="802,-186.5 802,-227.5 954,-227.5 954,-186.5 802,-186.5"/>
<text text-anchor="start" x="810" y="-215.5" font-family="Helvetica,sans-Serif" font-size="10.00">/home/travis/build</text>
<text text-anchor="start" x="810" y="-204.5" font-family="Helvetica,sans-Serif" font-size="10.00">/STORM&#45;IRIT/Radium&#45;Engine</text>
<text text-anchor="middle" x="878" y="-193.5" font-family="Helvetica,sans-Serif" font-size="10.00">/src/Engine/RadiumEngine.cpp</text>
</a>
</g>
</g>
<!-- Node1&#45;&gt;Node6 -->
<g id="edge5" class="edge"><title>Node1&#45;&gt;Node6</title>
<path fill="none" stroke="midnightblue" d="M1964.61,-293.528C1733.72,-287.128 1153.99,-268.089 963,-234 953.885,-232.373 944.373,-230.081 935.152,-227.524"/>
<polygon fill="midnightblue" stroke="midnightblue" points="1964.58,-297.029 1974.68,-293.805 1964.78,-290.031 1964.58,-297.029"/>
</g>
<!-- Node7 -->
<g id="node7" class="node"><title>Node7</title>
<g id="a_node7"><a xlink:href="Camera_8cpp.html" target="_top" xlink:title="/home/travis/build\l/STORM&#45;IRIT/Radium&#45;Engine\l/src/Engine/Renderer/Camera\l/Camera.cpp">
<polygon fill="white" stroke="black" points="972,-181 972,-233 1120,-233 1120,-181 972,-181"/>
<text text-anchor="start" x="980" y="-221" font-family="Helvetica,sans-Serif" font-size="10.00">/home/travis/build</text>
<text text-anchor="start" x="980" y="-210" font-family="Helvetica,sans-Serif" font-size="10.00">/STORM&#45;IRIT/Radium&#45;Engine</text>
<text text-anchor="start" x="980" y="-199" font-family="Helvetica,sans-Serif" font-size="10.00">/src/Engine/Renderer/Camera</text>
<text text-anchor="middle" x="1046" y="-188" font-family="Helvetica,sans-Serif" font-size="10.00">/Camera.cpp</text>
</a>
</g>
</g>
<!-- Node1&#45;&gt;Node7 -->
<g id="edge6" class="edge"><title>Node1&#45;&gt;Node7</title>
<path fill="none" stroke="midnightblue" d="M1964.7,-292.49C1759.94,-284.555 1287.12,-263.591 1129,-234 1126.18,-233.472 1123.32,-232.88 1120.45,-232.235"/>
<polygon fill="midnightblue" stroke="midnightblue" points="1964.71,-295.993 1974.84,-292.881 1964.98,-288.998 1964.71,-295.993"/>
</g>
<!-- Node8 -->
<g id="node8" class="node"><title>Node8</title>
<g id="a_node8"><a xlink:href="Renderer_8cpp.html" target="_top" xlink:title="/home/travis/build\l/STORM&#45;IRIT/Radium&#45;Engine\l/src/Engine/Renderer/Renderer.cpp">
<polygon fill="white" stroke="black" points="1138,-186.5 1138,-227.5 1308,-227.5 1308,-186.5 1138,-186.5"/>
<text text-anchor="start" x="1146" y="-215.5" font-family="Helvetica,sans-Serif" font-size="10.00">/home/travis/build</text>
<text text-anchor="start" x="1146" y="-204.5" font-family="Helvetica,sans-Serif" font-size="10.00">/STORM&#45;IRIT/Radium&#45;Engine</text>
<text text-anchor="middle" x="1223" y="-193.5" font-family="Helvetica,sans-Serif" font-size="10.00">/src/Engine/Renderer/Renderer.cpp</text>
</a>
</g>
</g>
<!-- Node1&#45;&gt;Node8 -->
<g id="edge7" class="edge"><title>Node1&#45;&gt;Node8</title>
<path fill="none" stroke="midnightblue" d="M1964.94,-293.715C1822.48,-289.039 1547.22,-275.059 1317,-234 1307.33,-232.276 1297.22,-229.998 1287.36,-227.506"/>
<polygon fill="midnightblue" stroke="midnightblue" points="1964.86,-297.214 1974.97,-294.036 1965.09,-290.218 1964.86,-297.214"/>
</g>
<!-- Node9 -->
<g id="node9" class="node"><title>Node9</title>
<g id="a_node9"><a xlink:href="ForwardRenderer_8cpp.html" target="_top" xlink:title="/home/travis/build\l/STORM&#45;IRIT/Radium&#45;Engine\l/src/Engine/Renderer/Renderers\l/ForwardRenderer.cpp">
<polygon fill="white" stroke="black" points="1326.5,-181 1326.5,-233 1483.5,-233 1483.5,-181 1326.5,-181"/>
<text text-anchor="start" x="1334.5" y="-221" font-family="Helvetica,sans-Serif" font-size="10.00">/home/travis/build</text>
<text text-anchor="start" x="1334.5" y="-210" font-family="Helvetica,sans-Serif" font-size="10.00">/STORM&#45;IRIT/Radium&#45;Engine</text>
<text text-anchor="start" x="1334.5" y="-199" font-family="Helvetica,sans-Serif" font-size="10.00">/src/Engine/Renderer/Renderers</text>
<text text-anchor="middle" x="1405" y="-188" font-family="Helvetica,sans-Serif" font-size="10.00">/ForwardRenderer.cpp</text>
</a>
</g>
</g>
<!-- Node1&#45;&gt;Node9 -->
<g id="edge8" class="edge"><title>Node1&#45;&gt;Node9</title>
<path fill="none" stroke="midnightblue" d="M1964.56,-290.734C1850.91,-283.32 1656.8,-266.864 1493,-234 1489.88,-233.373 1486.7,-232.686 1483.51,-231.951"/>
<polygon fill="midnightblue" stroke="midnightblue" points="1964.42,-294.233 1974.63,-291.381 1964.87,-287.247 1964.42,-294.233"/>
</g>
<!-- Node10 -->
<g id="node10" class="node"><title>Node10</title>
<g id="a_node10"><a xlink:href="DrawPrimitives_8cpp.html" target="_top" xlink:title="/home/travis/build\l/STORM&#45;IRIT/Radium&#45;Engine\l/src/Engine/Renderer/RenderObject\l/Primitives/DrawPrimitives.cpp">
<polygon fill="white" stroke="black" points="1502,-181 1502,-233 1674,-233 1674,-181 1502,-181"/>
<text text-anchor="start" x="1510" y="-221" font-family="Helvetica,sans-Serif" font-size="10.00">/home/travis/build</text>
<text text-anchor="start" x="1510" y="-210" font-family="Helvetica,sans-Serif" font-size="10.00">/STORM&#45;IRIT/Radium&#45;Engine</text>
<text text-anchor="start" x="1510" y="-199" font-family="Helvetica,sans-Serif" font-size="10.00">/src/Engine/Renderer/RenderObject</text>
<text text-anchor="middle" x="1588" y="-188" font-family="Helvetica,sans-Serif" font-size="10.00">/Primitives/DrawPrimitives.cpp</text>
</a>
</g>
</g>
<!-- Node1&#45;&gt;Node10 -->
<g id="edge9" class="edge"><title>Node1&#45;&gt;Node10</title>
<path fill="none" stroke="midnightblue" d="M1964.82,-283.058C1888.11,-272.056 1778.14,-254.761 1683,-234 1680.08,-233.362 1677.11,-232.69 1674.12,-231.991"/>
<polygon fill="midnightblue" stroke="midnightblue" points="1964.55,-286.556 1974.94,-284.502 1965.54,-279.626 1964.55,-286.556"/>
</g>
<!-- Node11 -->
<g id="node11" class="node"><title>Node11</title>
<g id="a_node11"><a xlink:href="RenderObject_8cpp.html" target="_top" xlink:title="/home/travis/build\l/STORM&#45;IRIT/Radium&#45;Engine\l/src/Engine/Renderer/RenderObject\l/RenderObject.cpp">
<polygon fill="white" stroke="black" points="1692,-181 1692,-233 1864,-233 1864,-181 1692,-181"/>
<text text-anchor="start" x="1700" y="-221" font-family="Helvetica,sans-Serif" font-size="10.00">/home/travis/build</text>
<text text-anchor="start" x="1700" y="-210" font-family="Helvetica,sans-Serif" font-size="10.00">/STORM&#45;IRIT/Radium&#45;Engine</text>
<text text-anchor="start" x="1700" y="-199" font-family="Helvetica,sans-Serif" font-size="10.00">/src/Engine/Renderer/RenderObject</text>
<text text-anchor="middle" x="1778" y="-188" font-family="Helvetica,sans-Serif" font-size="10.00">/RenderObject.cpp</text>
</a>
</g>
</g>
<!-- Node1&#45;&gt;Node11 -->
<g id="edge10" class="edge"><title>Node1&#45;&gt;Node11</title>
<path fill="none" stroke="midnightblue" d="M1970.32,-267.802C1934.48,-256.659 1893.63,-243.956 1858.82,-233.133"/>
<polygon fill="midnightblue" stroke="midnightblue" points="1969.69,-271.273 1980.28,-270.901 1971.77,-264.589 1969.69,-271.273"/>
</g>
<!-- Node12 -->
<g id="node12" class="node"><title>Node12</title>
<g id="a_node12"><a xlink:href="RenderObjectManager_8cpp.html" target="_top" xlink:title="/home/travis/build\l/STORM&#45;IRIT/Radium&#45;Engine\l/src/Engine/Renderer/RenderObject\l/RenderObjectManager.cpp">
<polygon fill="white" stroke="black" points="1882,-181 1882,-233 2054,-233 2054,-181 1882,-181"/>
<text text-anchor="start" x="1890" y="-221" font-family="Helvetica,sans-Serif" font-size="10.00">/home/travis/build</text>
<text text-anchor="start" x="1890" y="-210" font-family="Helvetica,sans-Serif" font-size="10.00">/STORM&#45;IRIT/Radium&#45;Engine</text>
<text text-anchor="start" x="1890" y="-199" font-family="Helvetica,sans-Serif" font-size="10.00">/src/Engine/Renderer/RenderObject</text>
<text text-anchor="middle" x="1968" y="-188" font-family="Helvetica,sans-Serif" font-size="10.00">/RenderObjectManager.cpp</text>
</a>
</g>
</g>
<!-- Node1&#45;&gt;Node12 -->
<g id="edge11" class="edge"><title>Node1&#45;&gt;Node12</title>
<path fill="none" stroke="midnightblue" d="M2026.58,-263.431C2015.99,-253.407 2004.49,-242.533 1994.52,-233.092"/>
<polygon fill="midnightblue" stroke="midnightblue" points="2024.43,-266.216 2034.1,-270.547 2029.24,-261.131 2024.43,-266.216"/>
</g>
<!-- Node13 -->
<g id="node13" class="node"><title>Node13</title>
<g id="a_node13"><a xlink:href="BaseApplication_8cpp.html" target="_top" xlink:title="/home/travis/build\l/STORM&#45;IRIT/Radium&#45;Engine\l/src/GuiBase/BaseApplication.cpp">
<polygon fill="white" stroke="black" points="2072,-186.5 2072,-227.5 2238,-227.5 2238,-186.5 2072,-186.5"/>
<text text-anchor="start" x="2080" y="-215.5" font-family="Helvetica,sans-Serif" font-size="10.00">/home/travis/build</text>
<text text-anchor="start" x="2080" y="-204.5" font-family="Helvetica,sans-Serif" font-size="10.00">/STORM&#45;IRIT/Radium&#45;Engine</text>
<text text-anchor="middle" x="2155" y="-193.5" font-family="Helvetica,sans-Serif" font-size="10.00">/src/GuiBase/BaseApplication.cpp</text>
</a>
</g>
</g>
<!-- Node1&#45;&gt;Node13 -->
<g id="edge12" class="edge"><title>Node1&#45;&gt;Node13</title>
<path fill="none" stroke="midnightblue" d="M2095.37,-263.822C2108.33,-251.694 2122.66,-238.272 2134.03,-227.628"/>
<polygon fill="midnightblue" stroke="midnightblue" points="2092.84,-261.393 2087.94,-270.783 2097.63,-266.504 2092.84,-261.393"/>
</g>
<!-- Node14 -->
<g id="node14" class="node"><title>Node14</title>
<g id="a_node14"><a xlink:href="Gizmo_8hpp.html" target="_top" xlink:title="/home/travis/build\l/STORM&#45;IRIT/Radium&#45;Engine\l/src/GuiBase/Viewer/Gizmo\l/Gizmo.hpp">
<polygon fill="white" stroke="black" points="2256,-181 2256,-233 2404,-233 2404,-181 2256,-181"/>
<text text-anchor="start" x="2264" y="-221" font-family="Helvetica,sans-Serif" font-size="10.00">/home/travis/build</text>
<text text-anchor="start" x="2264" y="-210" font-family="Helvetica,sans-Serif" font-size="10.00">/STORM&#45;IRIT/Radium&#45;Engine</text>
<text text-anchor="start" x="2264" y="-199" font-family="Helvetica,sans-Serif" font-size="10.00">/src/GuiBase/Viewer/Gizmo</text>
<text text-anchor="middle" x="2330" y="-188" font-family="Helvetica,sans-Serif" font-size="10.00">/Gizmo.hpp</text>
</a>
</g>
</g>
<!-- Node1&#45;&gt;Node14 -->
<g id="edge13" class="edge"><title>Node1&#45;&gt;Node14</title>
<path fill="none" stroke="midnightblue" d="M2147.44,-267.721C2182.41,-256.283 2222.36,-243.213 2255.96,-232.223"/>
<polygon fill="midnightblue" stroke="midnightblue" points="2146.14,-264.465 2137.72,-270.901 2148.32,-271.118 2146.14,-264.465"/>
</g>
<!-- Node19 -->
<g id="node19" class="node"><title>Node19</title>
<g id="a_node19"><a xlink:href="RotateGizmo_8cpp.html" target="_top" xlink:title="/home/travis/build\l/STORM&#45;IRIT/Radium&#45;Engine\l/src/GuiBase/Viewer/Gizmo\l/RotateGizmo.cpp">
<polygon fill="white" stroke="black" points="2243,-1 2243,-53 2391,-53 2391,-1 2243,-1"/>
<text text-anchor="start" x="2251" y="-41" font-family="Helvetica,sans-Serif" font-size="10.00">/home/travis/build</text>
<text text-anchor="start" x="2251" y="-30" font-family="Helvetica,sans-Serif" font-size="10.00">/STORM&#45;IRIT/Radium&#45;Engine</text>
<text text-anchor="start" x="2251" y="-19" font-family="Helvetica,sans-Serif" font-size="10.00">/src/GuiBase/Viewer/Gizmo</text>
<text text-anchor="middle" x="2317" y="-8" font-family="Helvetica,sans-Serif" font-size="10.00">/RotateGizmo.cpp</text>
</a>
</g>
</g>
<!-- Node1&#45;&gt;Node19 -->
<g id="edge23" class="edge"><title>Node1&#45;&gt;Node19</title>
<path fill="none" stroke="midnightblue" d="M2157.65,-292.501C2250.39,-286.87 2380.94,-272.197 2413,-234 2454.14,-184.977 2443.61,-146.206 2413,-90 2404.6,-74.5797 2390.54,-62.4114 2375.73,-53.0896"/>
<polygon fill="midnightblue" stroke="midnightblue" points="2157.17,-289.023 2147.39,-293.097 2157.58,-296.011 2157.17,-289.023"/>
</g>
<!-- Node21 -->
<g id="node21" class="node"><title>Node21</title>
<g id="a_node21"><a xlink:href="TranslateGizmo_8cpp.html" target="_top" xlink:title="/home/travis/build\l/STORM&#45;IRIT/Radium&#45;Engine\l/src/GuiBase/Viewer/Gizmo\l/TranslateGizmo.cpp">
<polygon fill="white" stroke="black" points="2409,-1 2409,-53 2557,-53 2557,-1 2409,-1"/>
<text text-anchor="start" x="2417" y="-41" font-family="Helvetica,sans-Serif" font-size="10.00">/home/travis/build</text>
<text text-anchor="start" x="2417" y="-30" font-family="Helvetica,sans-Serif" font-size="10.00">/STORM&#45;IRIT/Radium&#45;Engine</text>
<text text-anchor="start" x="2417" y="-19" font-family="Helvetica,sans-Serif" font-size="10.00">/src/GuiBase/Viewer/Gizmo</text>
<text text-anchor="middle" x="2483" y="-8" font-family="Helvetica,sans-Serif" font-size="10.00">/TranslateGizmo.cpp</text>
</a>
</g>
</g>
<!-- Node1&#45;&gt;Node21 -->
<g id="edge24" class="edge"><title>Node1&#45;&gt;Node21</title>
<path fill="none" stroke="midnightblue" d="M2157.16,-292.393C2255.87,-286.639 2400.48,-271.833 2440,-234 2489.88,-186.251 2489.55,-96.7239 2485.96,-53.133"/>
<polygon fill="midnightblue" stroke="midnightblue" points="2156.94,-288.9 2147.15,-292.955 2157.33,-295.889 2156.94,-288.9"/>
</g>
<!-- Node22 -->
<g id="node22" class="node"><title>Node22</title>
<g id="a_node22"><a xlink:href="SkeletonBoneDrawable_8hpp.html" target="_top" xlink:title="/home/travis/build\l/STORM&#45;IRIT/Radium&#45;Engine\l/Plugins/Animation/src/Drawing\l/SkeletonBoneDrawable.hpp">
<polygon fill="white" stroke="black" points="2498,-181 2498,-233 2652,-233 2652,-181 2498,-181"/>
<text text-anchor="start" x="2506" y="-221" font-family="Helvetica,sans-Serif" font-size="10.00">/home/travis/build</text>
<text text-anchor="start" x="2506" y="-210" font-family="Helvetica,sans-Serif" font-size="10.00">/STORM&#45;IRIT/Radium&#45;Engine</text>
<text text-anchor="start" x="2506" y="-199" font-family="Helvetica,sans-Serif" font-size="10.00">/Plugins/Animation/src/Drawing</text>
<text text-anchor="middle" x="2575" y="-188" font-family="Helvetica,sans-Serif" font-size="10.00">/SkeletonBoneDrawable.hpp</text>
</a>
</g>
</g>
<!-- Node1&#45;&gt;Node22 -->
<g id="edge25" class="edge"><title>Node1&#45;&gt;Node22</title>
<path fill="none" stroke="midnightblue" d="M2157.1,-285.603C2243.26,-275.409 2372.85,-257.914 2484,-234 2488.5,-233.032 2493.1,-231.965 2497.73,-230.832"/>
<polygon fill="midnightblue" stroke="midnightblue" points="2156.59,-282.138 2147.07,-286.78 2157.41,-289.09 2156.59,-282.138"/>
</g>
<!-- Node26 -->
<g id="node26" class="node"><title>Node26</title>
<g id="a_node26"><a xlink:href="FancyMeshComponent_8cpp.html" target="_top" xlink:title="/home/travis/build\l/STORM&#45;IRIT/Radium&#45;Engine\l/Plugins/FancyMesh/src/FancyMesh\lComponent.cpp">
<polygon fill="white" stroke="black" points="2670,-181 2670,-233 2846,-233 2846,-181 2670,-181"/>
<text text-anchor="start" x="2678" y="-221" font-family="Helvetica,sans-Serif" font-size="10.00">/home/travis/build</text>
<text text-anchor="start" x="2678" y="-210" font-family="Helvetica,sans-Serif" font-size="10.00">/STORM&#45;IRIT/Radium&#45;Engine</text>
<text text-anchor="start" x="2678" y="-199" font-family="Helvetica,sans-Serif" font-size="10.00">/Plugins/FancyMesh/src/FancyMesh</text>
<text text-anchor="middle" x="2758" y="-188" font-family="Helvetica,sans-Serif" font-size="10.00">Component.cpp</text>
</a>
</g>
</g>
<!-- Node1&#45;&gt;Node26 -->
<g id="edge29" class="edge"><title>Node1&#45;&gt;Node26</title>
<path fill="none" stroke="midnightblue" d="M2157.24,-290.78C2276.31,-283.24 2484.88,-266.49 2661,-234 2663.91,-233.462 2666.87,-232.881 2669.85,-232.265"/>
<polygon fill="midnightblue" stroke="midnightblue" points="2156.82,-287.299 2147.06,-291.416 2157.26,-294.286 2156.82,-287.299"/>
</g>
<!-- Node27 -->
<g id="node27" class="node"><title>Node27</title>
<g id="a_node27"><a xlink:href="MeshFeatureTrackingComponent_8cpp.html" target="_top" xlink:title="/home/travis/build\l/STORM&#45;IRIT/Radium&#45;Engine\l/Plugins/MeshFeatureTracking\l/src/MeshFeatureTrackingComponent.cpp">
<polygon fill="white" stroke="black" points="2864,-181 2864,-233 3064,-233 3064,-181 2864,-181"/>
<text text-anchor="start" x="2872" y="-221" font-family="Helvetica,sans-Serif" font-size="10.00">/home/travis/build</text>
<text text-anchor="start" x="2872" y="-210" font-family="Helvetica,sans-Serif" font-size="10.00">/STORM&#45;IRIT/Radium&#45;Engine</text>
<text text-anchor="start" x="2872" y="-199" font-family="Helvetica,sans-Serif" font-size="10.00">/Plugins/MeshFeatureTracking</text>
<text text-anchor="middle" x="2964" y="-188" font-family="Helvetica,sans-Serif" font-size="10.00">/src/MeshFeatureTrackingComponent.cpp</text>
</a>
</g>
</g>
<!-- Node1&#45;&gt;Node27 -->
<g id="edge30" class="edge"><title>Node1&#45;&gt;Node27</title>
<path fill="none" stroke="midnightblue" d="M2157.26,-293.254C2307.03,-287.909 2604.59,-272.987 2854,-234 2857.2,-233.5 2860.44,-232.956 2863.71,-232.377"/>
<polygon fill="midnightblue" stroke="midnightblue" points="2157.04,-289.76 2147.17,-293.608 2157.28,-296.755 2157.04,-289.76"/>
</g>
<!-- Node28 -->
<g id="node28" class="node"><title>Node28</title>
<g id="a_node28"><a xlink:href="MeshPaintComponent_8cpp.html" target="_top" xlink:title="/home/travis/build\l/STORM&#45;IRIT/Radium&#45;Engine\l/Plugins/MeshPaint/src/MeshPaint\lComponent.cpp">
<polygon fill="white" stroke="black" points="3029.5,-91 3029.5,-143 3196.5,-143 3196.5,-91 3029.5,-91"/>
<text text-anchor="start" x="3037.5" y="-131" font-family="Helvetica,sans-Serif" font-size="10.00">/home/travis/build</text>
<text text-anchor="start" x="3037.5" y="-120" font-family="Helvetica,sans-Serif" font-size="10.00">/STORM&#45;IRIT/Radium&#45;Engine</text>
<text text-anchor="start" x="3037.5" y="-109" font-family="Helvetica,sans-Serif" font-size="10.00">/Plugins/MeshPaint/src/MeshPaint</text>
<text text-anchor="middle" x="3113" y="-98" font-family="Helvetica,sans-Serif" font-size="10.00">Component.cpp</text>
</a>
</g>
</g>
<!-- Node1&#45;&gt;Node28 -->
<g id="edge31" class="edge"><title>Node1&#45;&gt;Node28</title>
<path fill="none" stroke="midnightblue" d="M2157.18,-296.098C2395.84,-295.505 3001.21,-288.574 3073,-234 3100.98,-212.729 3109.51,-170.689 3112.04,-143.489"/>
<polygon fill="midnightblue" stroke="midnightblue" points="2157.12,-292.598 2147.12,-296.12 2157.13,-299.598 2157.12,-292.598"/>
</g>
<!-- Node29 -->
<g id="node29" class="node"><title>Node29</title>
<g id="a_node29"><a xlink:href="MeshPaintComponent_8hpp.html" target="_top" xlink:title="/home/travis/build\l/STORM&#45;IRIT/Radium&#45;Engine\l/Plugins/MeshPaint/src/MeshPaint\lComponent.hpp">
<polygon fill="white" stroke="black" points="3119.5,-181 3119.5,-233 3286.5,-233 3286.5,-181 3119.5,-181"/>
<text text-anchor="start" x="3127.5" y="-221" font-family="Helvetica,sans-Serif" font-size="10.00">/home/travis/build</text>
<text text-anchor="start" x="3127.5" y="-210" font-family="Helvetica,sans-Serif" font-size="10.00">/STORM&#45;IRIT/Radium&#45;Engine</text>
<text text-anchor="start" x="3127.5" y="-199" font-family="Helvetica,sans-Serif" font-size="10.00">/Plugins/MeshPaint/src/MeshPaint</text>
<text text-anchor="middle" x="3203" y="-188" font-family="Helvetica,sans-Serif" font-size="10.00">Component.hpp</text>
</a>
</g>
</g>
<!-- Node1&#45;&gt;Node29 -->
<g id="edge32" class="edge"><title>Node1&#45;&gt;Node29</title>
<path fill="none" stroke="midnightblue" d="M2157.58,-296.773C2342.79,-296.823 2760.23,-290.003 3106,-234 3110.39,-233.289 3114.87,-232.462 3119.37,-231.549"/>
<polygon fill="midnightblue" stroke="midnightblue" points="2157.33,-293.273 2147.32,-296.763 2157.32,-300.273 2157.33,-293.273"/>
</g>
<!-- Node31 -->
<g id="node31" class="node"><title>Node31</title>
<g id="a_node31"><a xlink:href="MeshPaintPlugin_8cpp.html" target="_top" xlink:title="/home/travis/build\l/STORM&#45;IRIT/Radium&#45;Engine\l/Plugins/MeshPaint/src/MeshPaint\lPlugin.cpp">
<polygon fill="white" stroke="black" points="3304.5,-181 3304.5,-233 3471.5,-233 3471.5,-181 3304.5,-181"/>
<text text-anchor="start" x="3312.5" y="-221" font-family="Helvetica,sans-Serif" font-size="10.00">/home/travis/build</text>
<text text-anchor="start" x="3312.5" y="-210" font-family="Helvetica,sans-Serif" font-size="10.00">/STORM&#45;IRIT/Radium&#45;Engine</text>
<text text-anchor="start" x="3312.5" y="-199" font-family="Helvetica,sans-Serif" font-size="10.00">/Plugins/MeshPaint/src/MeshPaint</text>
<text text-anchor="middle" x="3388" y="-188" font-family="Helvetica,sans-Serif" font-size="10.00">Plugin.cpp</text>
</a>
</g>
</g>
<!-- Node1&#45;&gt;Node31 -->
<g id="edge35" class="edge"><title>Node1&#45;&gt;Node31</title>
<path fill="none" stroke="midnightblue" d="M2157.45,-293.925C2408.26,-288.086 3076.52,-269.574 3295,-234 3298.06,-233.502 3301.17,-232.939 3304.29,-232.325"/>
<polygon fill="midnightblue" stroke="midnightblue" points="2157.18,-290.43 2147.27,-294.161 2157.34,-297.428 2157.18,-290.43"/>
</g>
<!-- Node32 -->
<g id="node32" class="node"><title>Node32</title>
<g id="a_node32"><a xlink:href="SkinningDisplayComponent_8hpp.html" target="_top" xlink:title="/home/travis/build\l/STORM&#45;IRIT/Radium&#45;Engine\l/Plugins/Skinning/src/Display\l/SkinningDisplayComponent.hpp">
<polygon fill="white" stroke="black" points="3489.5,-181 3489.5,-233 3648.5,-233 3648.5,-181 3489.5,-181"/>
<text text-anchor="start" x="3497.5" y="-221" font-family="Helvetica,sans-Serif" font-size="10.00">/home/travis/build</text>
<text text-anchor="start" x="3497.5" y="-210" font-family="Helvetica,sans-Serif" font-size="10.00">/STORM&#45;IRIT/Radium&#45;Engine</text>
<text text-anchor="start" x="3497.5" y="-199" font-family="Helvetica,sans-Serif" font-size="10.00">/Plugins/Skinning/src/Display</text>
<text text-anchor="middle" x="3569" y="-188" font-family="Helvetica,sans-Serif" font-size="10.00">/SkinningDisplayComponent.hpp</text>
</a>
</g>
</g>
<!-- Node1&#45;&gt;Node32 -->
<g id="edge36" class="edge"><title>Node1&#45;&gt;Node32</title>
<path fill="none" stroke="midnightblue" d="M2157.53,-294.803C2433.9,-290.897 3224.64,-276.244 3480,-234 3483.02,-233.501 3486.08,-232.933 3489.16,-232.308"/>
<polygon fill="midnightblue" stroke="midnightblue" points="2157.08,-291.309 2147.13,-294.948 2157.18,-298.308 2157.08,-291.309"/>
</g>
<!-- Node15 -->
<g id="node15" class="node"><title>Node15</title>
<g id="a_node15"><a xlink:href="GizmoManager_8hpp.html" target="_top" xlink:title="/home/travis/build\l/STORM&#45;IRIT/Radium&#45;Engine\l/src/GuiBase/Viewer/Gizmo\l/GizmoManager.hpp">
<polygon fill="white" stroke="black" points="1924,-91 1924,-143 2072,-143 2072,-91 1924,-91"/>
<text text-anchor="start" x="1932" y="-131" font-family="Helvetica,sans-Serif" font-size="10.00">/home/travis/build</text>
<text text-anchor="start" x="1932" y="-120" font-family="Helvetica,sans-Serif" font-size="10.00">/STORM&#45;IRIT/Radium&#45;Engine</text>
<text text-anchor="start" x="1932" y="-109" font-family="Helvetica,sans-Serif" font-size="10.00">/src/GuiBase/Viewer/Gizmo</text>
<text text-anchor="middle" x="1998" y="-98" font-family="Helvetica,sans-Serif" font-size="10.00">/GizmoManager.hpp</text>
</a>
</g>
</g>
<!-- Node14&#45;&gt;Node15 -->
<g id="edge14" class="edge"><title>Node14&#45;&gt;Node15</title>
<path fill="none" stroke="midnightblue" d="M2246.12,-179.867C2172.28,-160.874 2150.99,-162.511 2081,-144 2078.08,-143.228 2075.11,-142.418 2072.12,-141.58"/>
<polygon fill="midnightblue" stroke="midnightblue" points="2245.32,-183.278 2255.88,-182.42 2247.09,-176.505 2245.32,-183.278"/>
</g>
<!-- Node18 -->
<g id="node18" class="node"><title>Node18</title>
<g id="a_node18"><a xlink:href="RotateGizmo_8hpp.html" target="_top" xlink:title="/home/travis/build\l/STORM&#45;IRIT/Radium&#45;Engine\l/src/GuiBase/Viewer/Gizmo\l/RotateGizmo.hpp">
<polygon fill="white" stroke="black" points="2090,-91 2090,-143 2238,-143 2238,-91 2090,-91"/>
<text text-anchor="start" x="2098" y="-131" font-family="Helvetica,sans-Serif" font-size="10.00">/home/travis/build</text>
<text text-anchor="start" x="2098" y="-120" font-family="Helvetica,sans-Serif" font-size="10.00">/STORM&#45;IRIT/Radium&#45;Engine</text>
<text text-anchor="start" x="2098" y="-109" font-family="Helvetica,sans-Serif" font-size="10.00">/src/GuiBase/Viewer/Gizmo</text>
<text text-anchor="middle" x="2164" y="-98" font-family="Helvetica,sans-Serif" font-size="10.00">/RotateGizmo.hpp</text>
</a>
</g>
</g>
<!-- Node14&#45;&gt;Node18 -->
<g id="edge17" class="edge"><title>Node14&#45;&gt;Node18</title>
<path fill="none" stroke="midnightblue" d="M2273.33,-175.96C2253.14,-165.253 2230.62,-153.315 2211.29,-143.069"/>
<polygon fill="midnightblue" stroke="midnightblue" points="2271.96,-179.191 2282.43,-180.783 2275.24,-173.007 2271.96,-179.191"/>
</g>
<!-- Node20 -->
<g id="node20" class="node"><title>Node20</title>
<g id="a_node20"><a xlink:href="TranslateGizmo_8hpp.html" target="_top" xlink:title="/home/travis/build\l/STORM&#45;IRIT/Radium&#45;Engine\l/src/GuiBase/Viewer/Gizmo\l/TranslateGizmo.hpp">
<polygon fill="white" stroke="black" points="2256,-91 2256,-143 2404,-143 2404,-91 2256,-91"/>
<text text-anchor="start" x="2264" y="-131" font-family="Helvetica,sans-Serif" font-size="10.00">/home/travis/build</text>
<text text-anchor="start" x="2264" y="-120" font-family="Helvetica,sans-Serif" font-size="10.00">/STORM&#45;IRIT/Radium&#45;Engine</text>
<text text-anchor="start" x="2264" y="-109" font-family="Helvetica,sans-Serif" font-size="10.00">/src/GuiBase/Viewer/Gizmo</text>
<text text-anchor="middle" x="2330" y="-98" font-family="Helvetica,sans-Serif" font-size="10.00">/TranslateGizmo.hpp</text>
</a>
</g>
</g>
<!-- Node14&#45;&gt;Node20 -->
<g id="edge20" class="edge"><title>Node14&#45;&gt;Node20</title>
<path fill="none" stroke="midnightblue" d="M2330,-170.489C2330,-161.309 2330,-151.616 2330,-143.092"/>
<polygon fill="midnightblue" stroke="midnightblue" points="2326.5,-170.547 2330,-180.547 2333.5,-170.547 2326.5,-170.547"/>
</g>
<!-- Node16 -->
<g id="node16" class="node"><title>Node16</title>
<g id="a_node16"><a xlink:href="GizmoManager_8cpp.html" target="_top" xlink:title="/home/travis/build\l/STORM&#45;IRIT/Radium&#45;Engine\l/src/GuiBase/Viewer/Gizmo\l/GizmoManager.cpp">
<polygon fill="white" stroke="black" points="2077,-1 2077,-53 2225,-53 2225,-1 2077,-1"/>
<text text-anchor="start" x="2085" y="-41" font-family="Helvetica,sans-Serif" font-size="10.00">/home/travis/build</text>
<text text-anchor="start" x="2085" y="-30" font-family="Helvetica,sans-Serif" font-size="10.00">/STORM&#45;IRIT/Radium&#45;Engine</text>
<text text-anchor="start" x="2085" y="-19" font-family="Helvetica,sans-Serif" font-size="10.00">/src/GuiBase/Viewer/Gizmo</text>
<text text-anchor="middle" x="2151" y="-8" font-family="Helvetica,sans-Serif" font-size="10.00">/GizmoManager.cpp</text>
</a>
</g>
</g>
<!-- Node15&#45;&gt;Node16 -->
<g id="edge15" class="edge"><title>Node15&#45;&gt;Node16</title>
<path fill="none" stroke="midnightblue" d="M2050.73,-85.6704C2069.22,-75.0376 2089.76,-63.2222 2107.41,-53.0687"/>
<polygon fill="midnightblue" stroke="midnightblue" points="2048.77,-82.7629 2041.84,-90.7827 2052.26,-88.8309 2048.77,-82.7629"/>
</g>
<!-- Node17 -->
<g id="node17" class="node"><title>Node17</title>
<g id="a_node17"><a xlink:href="Viewer_8cpp.html" target="_top" xlink:title="/home/travis/build\l/STORM&#45;IRIT/Radium&#45;Engine\l/src/GuiBase/Viewer/Viewer.cpp">
<polygon fill="white" stroke="black" points="1901,-6.5 1901,-47.5 2059,-47.5 2059,-6.5 1901,-6.5"/>
<text text-anchor="start" x="1909" y="-35.5" font-family="Helvetica,sans-Serif" font-size="10.00">/home/travis/build</text>
<text text-anchor="start" x="1909" y="-24.5" font-family="Helvetica,sans-Serif" font-size="10.00">/STORM&#45;IRIT/Radium&#45;Engine</text>
<text text-anchor="middle" x="1980" y="-13.5" font-family="Helvetica,sans-Serif" font-size="10.00">/src/GuiBase/Viewer/Viewer.cpp</text>
</a>
</g>
</g>
<!-- Node15&#45;&gt;Node17 -->
<g id="edge16" class="edge"><title>Node15&#45;&gt;Node17</title>
<path fill="none" stroke="midnightblue" d="M1990.74,-80.5147C1988.44,-69.2575 1985.98,-57.227 1983.99,-47.5249"/>
<polygon fill="midnightblue" stroke="midnightblue" points="1987.36,-81.451 1992.79,-90.5468 1994.22,-80.0482 1987.36,-81.451"/>
</g>
<!-- Node18&#45;&gt;Node16 -->
<g id="edge18" class="edge"><title>Node18&#45;&gt;Node16</title>
<path fill="none" stroke="midnightblue" d="M2158.75,-80.4892C2157.4,-71.3088 2155.97,-61.616 2154.71,-53.0921"/>
<polygon fill="midnightblue" stroke="midnightblue" points="2155.32,-81.1656 2160.24,-90.5468 2162.24,-80.1426 2155.32,-81.1656"/>
</g>
<!-- Node18&#45;&gt;Node19 -->
<g id="edge19" class="edge"><title>Node18&#45;&gt;Node19</title>
<path fill="none" stroke="midnightblue" d="M2216.73,-85.6704C2235.22,-75.0376 2255.76,-63.2222 2273.41,-53.0687"/>
<polygon fill="midnightblue" stroke="midnightblue" points="2214.77,-82.7629 2207.84,-90.7827 2218.26,-88.8309 2214.77,-82.7629"/>
</g>
<!-- Node20&#45;&gt;Node16 -->
<g id="edge21" class="edge"><title>Node20&#45;&gt;Node16</title>
<path fill="none" stroke="midnightblue" d="M2269.48,-86.2492C2247.55,-75.4678 2223.02,-63.4068 2201.99,-53.0687"/>
<polygon fill="midnightblue" stroke="midnightblue" points="2268.19,-89.5118 2278.71,-90.7827 2271.28,-83.2298 2268.19,-89.5118"/>
</g>
<!-- Node20&#45;&gt;Node21 -->
<g id="edge22" class="edge"><title>Node20&#45;&gt;Node21</title>
<path fill="none" stroke="midnightblue" d="M2382.73,-85.6704C2401.22,-75.0376 2421.76,-63.2222 2439.41,-53.0687"/>
<polygon fill="midnightblue" stroke="midnightblue" points="2380.77,-82.7629 2373.84,-90.7827 2384.26,-88.8309 2380.77,-82.7629"/>
</g>
<!-- Node23 -->
<g id="node23" class="node"><title>Node23</title>
<g id="a_node23"><a xlink:href="AnimationComponent_8cpp.html" target="_top" xlink:title="/home/travis/build\l/STORM&#45;IRIT/Radium&#45;Engine\l/Plugins/Animation/src/Animation\lComponent.cpp">
<polygon fill="white" stroke="black" points="2498.5,-91 2498.5,-143 2659.5,-143 2659.5,-91 2498.5,-91"/>
<text text-anchor="start" x="2506.5" y="-131" font-family="Helvetica,sans-Serif" font-size="10.00">/home/travis/build</text>
<text text-anchor="start" x="2506.5" y="-120" font-family="Helvetica,sans-Serif" font-size="10.00">/STORM&#45;IRIT/Radium&#45;Engine</text>
<text text-anchor="start" x="2506.5" y="-109" font-family="Helvetica,sans-Serif" font-size="10.00">/Plugins/Animation/src/Animation</text>
<text text-anchor="middle" x="2579" y="-98" font-family="Helvetica,sans-Serif" font-size="10.00">Component.cpp</text>
</a>
</g>
</g>
<!-- Node22&#45;&gt;Node23 -->
<g id="edge26" class="edge"><title>Node22&#45;&gt;Node23</title>
<path fill="none" stroke="midnightblue" d="M2576.61,-170.489C2577.03,-161.309 2577.47,-151.616 2577.86,-143.092"/>
<polygon fill="midnightblue" stroke="midnightblue" points="2573.11,-170.398 2576.16,-180.547 2580.11,-170.716 2573.11,-170.398"/>
</g>
<!-- Node24 -->
<g id="node24" class="node"><title>Node24</title>
<g id="a_node24"><a xlink:href="AnimationSystem_8cpp.html" target="_top" xlink:title="/home/travis/build\l/STORM&#45;IRIT/Radium&#45;Engine\l/Plugins/Animation/src/Animation\lSystem.cpp">
<polygon fill="white" stroke="black" points="2677.5,-91 2677.5,-143 2838.5,-143 2838.5,-91 2677.5,-91"/>
<text text-anchor="start" x="2685.5" y="-131" font-family="Helvetica,sans-Serif" font-size="10.00">/home/travis/build</text>
<text text-anchor="start" x="2685.5" y="-120" font-family="Helvetica,sans-Serif" font-size="10.00">/STORM&#45;IRIT/Radium&#45;Engine</text>
<text text-anchor="start" x="2685.5" y="-109" font-family="Helvetica,sans-Serif" font-size="10.00">/Plugins/Animation/src/Animation</text>
<text text-anchor="middle" x="2758" y="-98" font-family="Helvetica,sans-Serif" font-size="10.00">System.cpp</text>
</a>
</g>
</g>
<!-- Node22&#45;&gt;Node24 -->
<g id="edge27" class="edge"><title>Node22&#45;&gt;Node24</title>
<path fill="none" stroke="midnightblue" d="M2636.57,-176.394C2659.06,-165.576 2684.27,-153.453 2705.87,-143.069"/>
<polygon fill="midnightblue" stroke="midnightblue" points="2634.94,-173.295 2627.44,-180.783 2637.97,-179.603 2634.94,-173.295"/>
</g>
<!-- Node25 -->
<g id="node25" class="node"><title>Node25</title>
<g id="a_node25"><a xlink:href="SkeletonBoneDrawable_8cpp.html" target="_top" xlink:title="/home/travis/build\l/STORM&#45;IRIT/Radium&#45;Engine\l/Plugins/Animation/src/Drawing\l/SkeletonBoneDrawable.cpp">
<polygon fill="white" stroke="black" points="2857,-91 2857,-143 3011,-143 3011,-91 2857,-91"/>
<text text-anchor="start" x="2865" y="-131" font-family="Helvetica,sans-Serif" font-size="10.00">/home/travis/build</text>
<text text-anchor="start" x="2865" y="-120" font-family="Helvetica,sans-Serif" font-size="10.00">/STORM&#45;IRIT/Radium&#45;Engine</text>
<text text-anchor="start" x="2865" y="-109" font-family="Helvetica,sans-Serif" font-size="10.00">/Plugins/Animation/src/Drawing</text>
<text text-anchor="middle" x="2934" y="-98" font-family="Helvetica,sans-Serif" font-size="10.00">/SkeletonBoneDrawable.cpp</text>
</a>
</g>
</g>
<!-- Node22&#45;&gt;Node25 -->
<g id="edge28" class="edge"><title>Node22&#45;&gt;Node25</title>
<path fill="none" stroke="midnightblue" d="M2662.05,-179.846C2744.49,-160.075 2768.26,-163.334 2847,-144 2850.21,-143.211 2853.49,-142.376 2856.79,-141.508"/>
<polygon fill="midnightblue" stroke="midnightblue" points="2661.14,-176.466 2652.25,-182.237 2662.8,-183.267 2661.14,-176.466"/>
</g>
<!-- Node29&#45;&gt;Node28 -->
<g id="edge33" class="edge"><title>Node29&#45;&gt;Node28</title>
<path fill="none" stroke="midnightblue" d="M3169.69,-173.431C3159.44,-163.407 3148.32,-152.533 3138.66,-143.092"/>
<polygon fill="midnightblue" stroke="midnightblue" points="3167.37,-176.058 3176.97,-180.547 3172.27,-171.053 3167.37,-176.058"/>
</g>
<!-- Node30 -->
<g id="node30" class="node"><title>Node30</title>
<g id="a_node30"><a xlink:href="MeshPaintSystem_8cpp.html" target="_top" xlink:title="/home/travis/build\l/STORM&#45;IRIT/Radium&#45;Engine\l/Plugins/MeshPaint/src/MeshPaint\lSystem.cpp">
<polygon fill="white" stroke="black" points="3214.5,-91 3214.5,-143 3381.5,-143 3381.5,-91 3214.5,-91"/>
<text text-anchor="start" x="3222.5" y="-131" font-family="Helvetica,sans-Serif" font-size="10.00">/home/travis/build</text>
<text text-anchor="start" x="3222.5" y="-120" font-family="Helvetica,sans-Serif" font-size="10.00">/STORM&#45;IRIT/Radium&#45;Engine</text>
<text text-anchor="start" x="3222.5" y="-109" font-family="Helvetica,sans-Serif" font-size="10.00">/Plugins/MeshPaint/src/MeshPaint</text>
<text text-anchor="middle" x="3298" y="-98" font-family="Helvetica,sans-Serif" font-size="10.00">System.cpp</text>
</a>
</g>
</g>
<!-- Node29&#45;&gt;Node30 -->
<g id="edge34" class="edge"><title>Node29&#45;&gt;Node30</title>
<path fill="none" stroke="midnightblue" d="M3237.6,-173.951C3248.53,-163.829 3260.44,-152.795 3270.77,-143.221"/>
<polygon fill="midnightblue" stroke="midnightblue" points="3235.18,-171.419 3230.22,-180.783 3239.94,-176.555 3235.18,-171.419"/>
</g>
<!-- Node33 -->
<g id="node33" class="node"><title>Node33</title>
<g id="a_node33"><a xlink:href="SkinningSystem_8hpp.html" target="_top" xlink:title="/home/travis/build\l/STORM&#45;IRIT/Radium&#45;Engine\l/Plugins/Skinning/src/SkinningSystem.hpp">
<polygon fill="white" stroke="black" points="3468,-96.5 3468,-137.5 3670,-137.5 3670,-96.5 3468,-96.5"/>
<text text-anchor="start" x="3476" y="-125.5" font-family="Helvetica,sans-Serif" font-size="10.00">/home/travis/build</text>
<text text-anchor="start" x="3476" y="-114.5" font-family="Helvetica,sans-Serif" font-size="10.00">/STORM&#45;IRIT/Radium&#45;Engine</text>
<text text-anchor="middle" x="3569" y="-103.5" font-family="Helvetica,sans-Serif" font-size="10.00">/Plugins/Skinning/src/SkinningSystem.hpp</text>
</a>
</g>
</g>
<!-- Node32&#45;&gt;Node33 -->
<g id="edge37" class="edge"><title>Node32&#45;&gt;Node33</title>
<path fill="none" stroke="midnightblue" d="M3569,-170.515C3569,-159.257 3569,-147.227 3569,-137.525"/>
<polygon fill="midnightblue" stroke="midnightblue" points="3565.5,-170.547 3569,-180.547 3572.5,-170.547 3565.5,-170.547"/>
</g>
<!-- Node34 -->
<g id="node34" class="node"><title>Node34</title>
<g id="a_node34"><a xlink:href="SkinningPlugin_8cpp.html" target="_top" xlink:title="/home/travis/build\l/STORM&#45;IRIT/Radium&#45;Engine\l/Plugins/Skinning/src/SkinningPlugin.cpp">
<polygon fill="white" stroke="black" points="3471.5,-6.5 3471.5,-47.5 3666.5,-47.5 3666.5,-6.5 3471.5,-6.5"/>
<text text-anchor="start" x="3479.5" y="-35.5" font-family="Helvetica,sans-Serif" font-size="10.00">/home/travis/build</text>
<text text-anchor="start" x="3479.5" y="-24.5" font-family="Helvetica,sans-Serif" font-size="10.00">/STORM&#45;IRIT/Radium&#45;Engine</text>
<text text-anchor="middle" x="3569" y="-13.5" font-family="Helvetica,sans-Serif" font-size="10.00">/Plugins/Skinning/src/SkinningPlugin.cpp</text>
</a>
</g>
</g>
<!-- Node33&#45;&gt;Node34 -->
<g id="edge38" class="edge"><title>Node33&#45;&gt;Node34</title>
<path fill="none" stroke="midnightblue" d="M3569,-86.3298C3569,-73.6289 3569,-59.1399 3569,-47.7798"/>
<polygon fill="midnightblue" stroke="midnightblue" points="3565.5,-86.4699 3569,-96.4699 3572.5,-86.47 3565.5,-86.4699"/>
</g>
</g>
</svg>
