<?xml version="1.0" encoding="UTF-8" standalone="no"?>
<!DOCTYPE svg PUBLIC "-//W3C//DTD SVG 1.1//EN"
 "http://www.w3.org/Graphics/SVG/1.1/DTD/svg11.dtd">
<!-- Generated by graphviz version 2.36.0 (20140111.2315)
 -->
<!-- Title: /home/travis/build/STORM&#45;IRIT/Radium&#45;Engine/src/Tests/CoreTests/src/StringTest.hpp Pages: 1 -->
<svg width="433pt" height="398pt"
 viewBox="0.00 0.00 433.00 398.00" xmlns="http://www.w3.org/2000/svg" xmlns:xlink="http://www.w3.org/1999/xlink">
<g id="graph0" class="graph" transform="scale(1 1) rotate(0) translate(4 394)">
<title>/home/travis/build/STORM&#45;IRIT/Radium&#45;Engine/src/Tests/CoreTests/src/StringTest.hpp</title>
<polygon fill="white" stroke="none" points="-4,4 -4,-394 429,-394 429,4 -4,4"/>
<!-- Node1 -->
<g id="node1" class="node"><title>Node1</title>
<polygon fill="#bfbfbf" stroke="black" points="89,-337 89,-389 237,-389 237,-337 89,-337"/>
<text text-anchor="start" x="97" y="-377" font-family="Helvetica,sans-Serif" font-size="10.00">/home/travis/build</text>
<text text-anchor="start" x="97" y="-366" font-family="Helvetica,sans-Serif" font-size="10.00">/STORM&#45;IRIT/Radium&#45;Engine</text>
<text text-anchor="start" x="97" y="-355" font-family="Helvetica,sans-Serif" font-size="10.00">/src/Tests/CoreTests/src</text>
<text text-anchor="middle" x="163" y="-344" font-family="Helvetica,sans-Serif" font-size="10.00">/StringTest.hpp</text>
</g>
<!-- Node2 -->
<g id="node2" class="node"><title>Node2</title>
<g id="a_node2"><a xlink:href="StringUtils_8hpp.html" target="_top" xlink:title="Core/String/StringUtils.hpp">
<polygon fill="white" stroke="black" points="6,-224.5 6,-243.5 140,-243.5 140,-224.5 6,-224.5"/>
<text text-anchor="middle" x="73" y="-231.5" font-family="Helvetica,sans-Serif" font-size="10.00">Core/String/StringUtils.hpp</text>
</a>
</g>
</g>
<!-- Node1&#45;&gt;Node2 -->
<g id="edge1" class="edge"><title>Node1&#45;&gt;Node2</title>
<path fill="none" stroke="midnightblue" d="M145.219,-336.909C127.379,-311.734 100.396,-273.659 84.9617,-251.879"/>
<polygon fill="midnightblue" stroke="midnightblue" points="87.7519,-249.763 79.1142,-243.628 82.0406,-253.811 87.7519,-249.763"/>
</g>
<!-- Node12 -->
<g id="node12" class="node"><title>Node12</title>
<g id="a_node12"><a xlink:href="Tests_8hpp.html" target="_top" xlink:title="Tests/Tests.hpp">
<polygon fill="white" stroke="black" points="173,-280.5 173,-299.5 261,-299.5 261,-280.5 173,-280.5"/>
<text text-anchor="middle" x="217" y="-287.5" font-family="Helvetica,sans-Serif" font-size="10.00">Tests/Tests.hpp</text>
</a>
</g>
</g>
<!-- Node1&#45;&gt;Node12 -->
<g id="edge11" class="edge"><title>Node1&#45;&gt;Node12</title>
<path fill="none" stroke="midnightblue" d="M182.19,-336.768C189.48,-327.183 197.601,-316.506 204.164,-307.877"/>
<polygon fill="midnightblue" stroke="midnightblue" points="207.072,-309.835 210.34,-299.757 201.5,-305.598 207.072,-309.835"/>
</g>
<!-- Node3 -->
<g id="node3" class="node"><title>Node3</title>
<g id="a_node3"><a xlink:href="RaCore_8hpp.html" target="_top" xlink:title="Core/RaCore.hpp">
<polygon fill="white" stroke="black" points="174.5,-112.5 174.5,-131.5 267.5,-131.5 267.5,-112.5 174.5,-112.5"/>
<text text-anchor="middle" x="221" y="-119.5" font-family="Helvetica,sans-Serif" font-size="10.00">Core/RaCore.hpp</text>
</a>
</g>
</g>
<!-- Node2&#45;&gt;Node3 -->
<g id="edge2" class="edge"><title>Node2&#45;&gt;Node3</title>
<path fill="none" stroke="midnightblue" d="M72.4986,-224.216C72.2069,-210.466 73.6995,-183.799 88,-168 107.51,-146.447 137.707,-135.209 164.4,-129.353"/>
<polygon fill="midnightblue" stroke="midnightblue" points="165.302,-132.742 174.429,-127.362 163.939,-125.876 165.302,-132.742"/>
</g>
<!-- Node10 -->
<g id="node10" class="node"><title>Node10</title>
<polygon fill="white" stroke="#bfbfbf" points="-0.5,-168.5 -0.5,-187.5 40.5,-187.5 40.5,-168.5 -0.5,-168.5"/>
<text text-anchor="middle" x="20" y="-175.5" font-family="Helvetica,sans-Serif" font-size="10.00">string</text>
</g>
<!-- Node2&#45;&gt;Node10 -->
<g id="edge9" class="edge"><title>Node2&#45;&gt;Node10</title>
<path fill="none" stroke="midnightblue" d="M64.2481,-224.083C56.5303,-216.22 45.0953,-204.569 35.7835,-195.081"/>
<polygon fill="midnightblue" stroke="midnightblue" points="38.0916,-192.436 28.589,-187.751 33.0958,-197.34 38.0916,-192.436"/>
</g>
<!-- Node11 -->
<g id="node11" class="node"><title>Node11</title>
<polygon fill="white" stroke="#bfbfbf" points="97,-168.5 97,-187.5 141,-187.5 141,-168.5 97,-168.5"/>
<text text-anchor="middle" x="119" y="-175.5" font-family="Helvetica,sans-Serif" font-size="10.00">vector</text>
</g>
<!-- Node2&#45;&gt;Node11 -->
<g id="edge10" class="edge"><title>Node2&#45;&gt;Node11</title>
<path fill="none" stroke="midnightblue" d="M80.596,-224.083C87.2275,-216.298 97.021,-204.801 105.058,-195.367"/>
<polygon fill="midnightblue" stroke="midnightblue" points="107.725,-197.633 111.545,-187.751 102.396,-193.094 107.725,-197.633"/>
</g>
<!-- Node4 -->
<g id="node4" class="node"><title>Node4</title>
<g id="a_node4"><a xlink:href="CoreMacros_8hpp.html" target="_top" xlink:title="Core/CoreMacros.hpp">
<polygon fill="white" stroke="black" points="209.5,-56.5 209.5,-75.5 322.5,-75.5 322.5,-56.5 209.5,-56.5"/>
<text text-anchor="middle" x="266" y="-63.5" font-family="Helvetica,sans-Serif" font-size="10.00">Core/CoreMacros.hpp</text>
</a>
</g>
</g>
<!-- Node3&#45;&gt;Node4 -->
<g id="edge3" class="edge"><title>Node3&#45;&gt;Node4</title>
<path fill="none" stroke="midnightblue" d="M228.431,-112.083C234.853,-104.377 244.306,-93.0333 252.122,-83.6531"/>
<polygon fill="midnightblue" stroke="midnightblue" points="254.994,-85.674 258.707,-75.7511 249.617,-81.1927 254.994,-85.674"/>
</g>
<!-- Node5 -->
<g id="node5" class="node"><title>Node5</title>
<polygon fill="white" stroke="#bfbfbf" points="110.5,-0.5 110.5,-19.5 159.5,-19.5 159.5,-0.5 110.5,-0.5"/>
<text text-anchor="middle" x="135" y="-7.5" font-family="Helvetica,sans-Serif" font-size="10.00">cassert</text>
</g>
<!-- Node4&#45;&gt;Node5 -->
<g id="edge4" class="edge"><title>Node4&#45;&gt;Node5</title>
<path fill="none" stroke="midnightblue" d="M245.243,-56.4435C223.684,-47.5566 189.737,-33.5632 165.206,-23.4514"/>
<polygon fill="midnightblue" stroke="midnightblue" points="166.239,-20.0917 155.66,-19.5164 163.572,-26.5634 166.239,-20.0917"/>
</g>
<!-- Node6 -->
<g id="node6" class="node"><title>Node6</title>
<polygon fill="white" stroke="#bfbfbf" points="177.5,-0.5 177.5,-19.5 220.5,-19.5 220.5,-0.5 177.5,-0.5"/>
<text text-anchor="middle" x="199" y="-7.5" font-family="Helvetica,sans-Serif" font-size="10.00">cstdio</text>
</g>
<!-- Node4&#45;&gt;Node6 -->
<g id="edge5" class="edge"><title>Node4&#45;&gt;Node6</title>
<path fill="none" stroke="midnightblue" d="M255.235,-56.324C245.234,-48.2631 230.113,-36.0765 218.07,-26.3695"/>
<polygon fill="midnightblue" stroke="midnightblue" points="219.943,-23.3841 209.961,-19.8339 215.55,-28.8343 219.943,-23.3841"/>
</g>
<!-- Node7 -->
<g id="node7" class="node"><title>Node7</title>
<polygon fill="white" stroke="#bfbfbf" points="239,-0.5 239,-19.5 293,-19.5 293,-0.5 239,-0.5"/>
<text text-anchor="middle" x="266" y="-7.5" font-family="Helvetica,sans-Serif" font-size="10.00">iostream</text>
</g>
<!-- Node4&#45;&gt;Node7 -->
<g id="edge6" class="edge"><title>Node4&#45;&gt;Node7</title>
<path fill="none" stroke="midnightblue" d="M266,-56.083C266,-49.0059 266,-38.8611 266,-29.9865"/>
<polygon fill="midnightblue" stroke="midnightblue" points="269.5,-29.751 266,-19.7511 262.5,-29.7511 269.5,-29.751"/>
</g>
<!-- Node8 -->
<g id="node8" class="node"><title>Node8</title>
<polygon fill="white" stroke="#bfbfbf" points="311,-0.5 311,-19.5 363,-19.5 363,-0.5 311,-0.5"/>
<text text-anchor="middle" x="337" y="-7.5" font-family="Helvetica,sans-Serif" font-size="10.00">sstream</text>
</g>
<!-- Node4&#45;&gt;Node8 -->
<g id="edge7" class="edge"><title>Node4&#45;&gt;Node8</title>
<path fill="none" stroke="midnightblue" d="M277.407,-56.324C288.109,-48.1849 304.341,-35.8395 317.163,-26.0874"/>
<polygon fill="midnightblue" stroke="midnightblue" points="319.544,-28.6734 325.385,-19.8339 315.307,-23.1018 319.544,-28.6734"/>
</g>
<!-- Node9 -->
<g id="node9" class="node"><title>Node9</title>
<polygon fill="white" stroke="#bfbfbf" points="381,-0.5 381,-19.5 425,-19.5 425,-0.5 381,-0.5"/>
<text text-anchor="middle" x="403" y="-7.5" font-family="Helvetica,sans-Serif" font-size="10.00">thread</text>
</g>
<!-- Node4&#45;&gt;Node9 -->
<g id="edge8" class="edge"><title>Node4&#45;&gt;Node9</title>
<path fill="none" stroke="midnightblue" d="M287.708,-56.4435C310.355,-47.5171 346.072,-33.4387 371.752,-23.3168"/>
<polygon fill="midnightblue" stroke="midnightblue" points="373.374,-26.4397 381.394,-19.5164 370.807,-19.9273 373.374,-26.4397"/>
</g>
<!-- Node12&#45;&gt;Node4 -->
<g id="edge12" class="edge"><title>Node12&#45;&gt;Node4</title>
<path fill="none" stroke="midnightblue" d="M233.436,-280.5C246.835,-272.742 265.242,-260.052 276,-244 290.345,-222.596 287.638,-213.546 291,-188 295.854,-151.115 282.656,-108.67 273.638,-85.129"/>
<polygon fill="midnightblue" stroke="midnightblue" points="276.84,-83.7094 269.869,-75.731 270.343,-86.3152 276.84,-83.7094"/>
</g>
<!-- Node13 -->
<g id="node13" class="node"><title>Node13</title>
<g id="a_node13"><a xlink:href="Manager_8hpp.html" target="_top" xlink:title="Tests/Manager.hpp">
<polygon fill="white" stroke="black" points="166.5,-224.5 166.5,-243.5 267.5,-243.5 267.5,-224.5 166.5,-224.5"/>
<text text-anchor="middle" x="217" y="-231.5" font-family="Helvetica,sans-Serif" font-size="10.00">Tests/Manager.hpp</text>
</a>
</g>
</g>
<!-- Node12&#45;&gt;Node13 -->
<g id="edge13" class="edge"><title>Node12&#45;&gt;Node13</title>
<path fill="none" stroke="midnightblue" d="M217,-280.083C217,-273.006 217,-262.861 217,-253.986"/>
<polygon fill="midnightblue" stroke="midnightblue" points="220.5,-253.751 217,-243.751 213.5,-253.751 220.5,-253.751"/>
</g>
<!-- Node13&#45;&gt;Node11 -->
<g id="edge16" class="edge"><title>Node13&#45;&gt;Node11</title>
<path fill="none" stroke="midnightblue" d="M201.255,-224.324C185.681,-215.743 161.623,-202.486 143.541,-192.522"/>
<polygon fill="midnightblue" stroke="midnightblue" points="145.154,-189.415 134.706,-187.655 141.776,-195.546 145.154,-189.415"/>
</g>
<!-- Node14 -->
<g id="node14" class="node"><title>Node14</title>
<g id="a_node14"><a xlink:href="Singleton_8hpp.html" target="_top" xlink:title="Core/Utils/Singleton.hpp">
<polygon fill="white" stroke="black" points="159.5,-168.5 159.5,-187.5 282.5,-187.5 282.5,-168.5 159.5,-168.5"/>
<text text-anchor="middle" x="221" y="-175.5" font-family="Helvetica,sans-Serif" font-size="10.00">Core/Utils/Singleton.hpp</text>
</a>
</g>
</g>
<!-- Node13&#45;&gt;Node14 -->
<g id="edge14" class="edge"><title>Node13&#45;&gt;Node14</title>
<path fill="none" stroke="midnightblue" d="M217.661,-224.083C218.185,-217.006 218.936,-206.861 219.594,-197.986"/>
<polygon fill="midnightblue" stroke="midnightblue" points="223.103,-197.982 220.352,-187.751 216.123,-197.465 223.103,-197.982"/>
</g>
<!-- Node14&#45;&gt;Node3 -->
<g id="edge15" class="edge"><title>Node14&#45;&gt;Node3</title>
<path fill="none" stroke="midnightblue" d="M221,-168.083C221,-161.006 221,-150.861 221,-141.986"/>
<polygon fill="midnightblue" stroke="midnightblue" points="224.5,-141.751 221,-131.751 217.5,-141.751 224.5,-141.751"/>
</g>
</g>
</svg>
