<?xml version="1.0" encoding="UTF-8" standalone="no"?>
<!DOCTYPE svg PUBLIC "-//W3C//DTD SVG 1.1//EN"
 "http://www.w3.org/Graphics/SVG/1.1/DTD/svg11.dtd">
<!-- Generated by graphviz version 2.36.0 (20140111.2315)
 -->
<!-- Title: RaTests::Foo Pages: 1 -->
<svg width="84pt" height="172pt"
 viewBox="0.00 0.00 84.00 172.00" xmlns="http://www.w3.org/2000/svg" xmlns:xlink="http://www.w3.org/1999/xlink">
<g id="graph0" class="graph" transform="scale(1 1) rotate(0) translate(4 168)">
<title>RaTests::Foo</title>
<polygon fill="white" stroke="none" points="-4,4 -4,-168 80,-168 80,4 -4,4"/>
<!-- Node1 -->
<g id="node1" class="node"><title>Node1</title>
<polygon fill="#bfbfbf" stroke="black" points="-0.5,-0.5 -0.5,-57.5 76.5,-57.5 76.5,-0.5 -0.5,-0.5"/>
<text text-anchor="middle" x="38" y="-45.5" font-family="Helvetica,sans-Serif" font-size="10.00">RaTests::Foo</text>
<polyline fill="none" stroke="black" points="-0.5,-38.5 76.5,-38.5 "/>
<text text-anchor="middle" x="38" y="-26.5" font-family="Helvetica,sans-Serif" font-size="10.00"> </text>
<polyline fill="none" stroke="black" points="-0.5,-19.5 76.5,-19.5 "/>
<text text-anchor="start" x="7.5" y="-7.5" font-family="Helvetica,sans-Serif" font-size="10.00">+ Foo()</text>
</g>
<!-- Node2 -->
<g id="node2" class="node"><title>Node2</title>
<polygon fill="white" stroke="#bfbfbf" points="23.5,-106.5 23.5,-163.5 52.5,-163.5 52.5,-106.5 23.5,-106.5"/>
<text text-anchor="middle" x="38" y="-151.5" font-family="Helvetica,sans-Serif" font-size="10.00">int</text>
<polyline fill="none" stroke="#bfbfbf" points="23.5,-144.5 52.5,-144.5 "/>
<text text-anchor="middle" x="38" y="-132.5" font-family="Helvetica,sans-Serif" font-size="10.00"> </text>
<polyline fill="none" stroke="#bfbfbf" points="23.5,-125.5 52.5,-125.5 "/>
<text text-anchor="middle" x="38" y="-113.5" font-family="Helvetica,sans-Serif" font-size="10.00"> </text>
</g>
<!-- Node2&#45;&gt;Node1 -->
<g id="edge1" class="edge"><title>Node2&#45;&gt;Node1</title>
<path fill="none" stroke="#404040" d="M38,-106.403C38,-95.2373 38,-82.1304 38,-69.9556"/>
<polygon fill="none" stroke="#404040" points="38.0001,-69.726 34,-63.726 38,-57.726 42,-63.726 38.0001,-69.726"/>
<text text-anchor="middle" x="54.5" y="-79.5" font-family="Helvetica,sans-Serif" font-size="10.00"> +value</text>
</g>
</g>
</svg>
