<?xml version="1.0" encoding="UTF-8" standalone="no"?>
<!DOCTYPE svg PUBLIC "-//W3C//DTD SVG 1.1//EN"
 "http://www.w3.org/Graphics/SVG/1.1/DTD/svg11.dtd">
<!-- Generated by graphviz version 2.36.0 (20140111.2315)
 -->
<!-- Title: RaTests::TestManager::TestEntry Pages: 1 -->
<svg width="144pt" height="206pt"
 viewBox="0.00 0.00 144.00 206.00" xmlns="http://www.w3.org/2000/svg" xmlns:xlink="http://www.w3.org/1999/xlink">
<g id="graph0" class="graph" transform="scale(1 1) rotate(0) translate(4 202)">
<title>RaTests::TestManager::TestEntry</title>
<polygon fill="white" stroke="none" points="-4,4 -4,-202 140,-202 140,4 -4,4"/>
<!-- Node1 -->
<g id="node1" class="node"><title>Node1</title>
<polygon fill="#bfbfbf" stroke="black" points="17.5,-1 17.5,-69 134.5,-69 134.5,-1 17.5,-1"/>
<text text-anchor="start" x="25.5" y="-57" font-family="Helvetica,sans-Serif" font-size="10.00">RaTests::TestManager</text>
<text text-anchor="middle" x="76" y="-46" font-family="Helvetica,sans-Serif" font-size="10.00">::TestEntry</text>
<polyline fill="none" stroke="black" points="17.5,-39 134.5,-39 "/>
<text text-anchor="middle" x="76" y="-27" font-family="Helvetica,sans-Serif" font-size="10.00"> </text>
<polyline fill="none" stroke="black" points="17.5,-20 134.5,-20 "/>
<text text-anchor="start" x="25.5" y="-8" font-family="Helvetica,sans-Serif" font-size="10.00">+ TestEntry()</text>
</g>
<!-- Node2 -->
<g id="node2" class="node"><title>Node2</title>
<g id="a_node2"><a xlink:href="classRaTests_1_1Test.html" target="_top" xlink:title="Base class for all tests. ">
<polygon fill="white" stroke="black" points="0,-118.5 0,-197.5 80,-197.5 80,-118.5 0,-118.5"/>
<text text-anchor="middle" x="40" y="-185.5" font-family="Helvetica,sans-Serif" font-size="10.00">RaTests::Test</text>
<polyline fill="none" stroke="black" points="0,-178.5 80,-178.5 "/>
<text text-anchor="middle" x="40" y="-166.5" font-family="Helvetica,sans-Serif" font-size="10.00"> </text>
<polyline fill="none" stroke="black" points="0,-159.5 80,-159.5 "/>
<text text-anchor="start" x="8" y="-147.5" font-family="Helvetica,sans-Serif" font-size="10.00">+ Test()</text>
<text text-anchor="start" x="8" y="-136.5" font-family="Helvetica,sans-Serif" font-size="10.00">+ run()</text>
<text text-anchor="start" x="8" y="-125.5" font-family="Helvetica,sans-Serif" font-size="10.00">+ ~Test()</text>
</a>
</g>
</g>
<!-- Node2&#45;&gt;Node1 -->
<g id="edge1" class="edge"><title>Node2&#45;&gt;Node1</title>
<path fill="none" stroke="#404040" d="M44.1635,-118.221C45.7818,-108.241 47.9947,-97.6093 51,-88 51.7896,-85.4755 52.6822,-82.9185 53.6483,-80.3626"/>
<polygon fill="none" stroke="#404040" points="53.6544,-80.3479 52.265,-73.2719 58.2623,-69.2678 59.6517,-76.3438 53.6544,-80.3479"/>
<text text-anchor="middle" x="71" y="-91.5" font-family="Helvetica,sans-Serif" font-size="10.00"> +m_test</text>
</g>
<!-- Node3 -->
<g id="node3" class="node"><title>Node3</title>
<polygon fill="white" stroke="#bfbfbf" points="98.5,-129.5 98.5,-186.5 127.5,-186.5 127.5,-129.5 98.5,-129.5"/>
<text text-anchor="middle" x="113" y="-174.5" font-family="Helvetica,sans-Serif" font-size="10.00">int</text>
<polyline fill="none" stroke="#bfbfbf" points="98.5,-167.5 127.5,-167.5 "/>
<text text-anchor="middle" x="113" y="-155.5" font-family="Helvetica,sans-Serif" font-size="10.00"> </text>
<polyline fill="none" stroke="#bfbfbf" points="98.5,-148.5 127.5,-148.5 "/>
<text text-anchor="middle" x="113" y="-136.5" font-family="Helvetica,sans-Serif" font-size="10.00"> </text>
</g>
<!-- Node3&#45;&gt;Node1 -->
<g id="edge2" class="edge"><title>Node3&#45;&gt;Node1</title>
<path fill="none" stroke="#404040" d="M104.511,-129.24C100.116,-114.867 94.6425,-96.9661 89.6694,-80.7028"/>
<polygon fill="none" stroke="#404040" points="89.6685,-80.6993 84.0887,-76.1313 86.1594,-69.2238 91.7391,-73.7919 89.6685,-80.6993"/>
<text text-anchor="middle" x="115.5" y="-91.5" font-family="Helvetica,sans-Serif" font-size="10.00"> +m_fails</text>
</g>
</g>
</svg>
