<?xml version="1.0" encoding="UTF-8" standalone="no"?>
<!DOCTYPE svg PUBLIC "-//W3C//DTD SVG 1.1//EN"
 "http://www.w3.org/Graphics/SVG/1.1/DTD/svg11.dtd">
<!-- Generated by graphviz version 2.36.0 (20140111.2315)
 -->
<!-- Title: Ra::Engine::ComponentMessenger::CallbackTypes&lt; T &gt; Pages: 1 -->
<svg width="742pt" height="216pt"
 viewBox="0.00 0.00 742.00 216.00" xmlns="http://www.w3.org/2000/svg" xmlns:xlink="http://www.w3.org/1999/xlink">
<g id="graph0" class="graph" transform="scale(1 1) rotate(0) translate(4 212)">
<title>Ra::Engine::ComponentMessenger::CallbackTypes&lt; T &gt;</title>
<polygon fill="white" stroke="none" points="-4,4 -4,-212 738,-212 738,4 -4,4"/>
<!-- Node1 -->
<g id="node1" class="node"><title>Node1</title>
<polygon fill="#bfbfbf" stroke="black" points="282,-139 282,-207 452,-207 452,-139 282,-139"/>
<text text-anchor="start" x="290" y="-195" font-family="Helvetica,sans-Serif" font-size="10.00">Ra::Engine::ComponentMessenger</text>
<text text-anchor="middle" x="367" y="-184" font-family="Helvetica,sans-Serif" font-size="10.00">::CallbackTypes&lt; T &gt;</text>
<polyline fill="none" stroke="black" points="282,-177 452,-177 "/>
<text text-anchor="middle" x="367" y="-165" font-family="Helvetica,sans-Serif" font-size="10.00"> </text>
<polyline fill="none" stroke="black" points="282,-158 452,-158 "/>
<text text-anchor="start" x="290" y="-146" font-family="Helvetica,sans-Serif" font-size="10.00">+ getHelper()</text>
</g>
<!-- Node2 -->
<g id="node2" class="node"><title>Node2</title>
<g id="a_node2"><a xlink:href="structRa_1_1Engine_1_1ComponentMessenger_1_1CallbackTypes.html" target="_top" xlink:title="{Ra::Engine::ComponentMessenger\l::CallbackTypes\&lt; Ra::Core\l::Index \&gt;\n||+ getHelper()\l}">
<polygon fill="white" stroke="black" points="0,-0.5 0,-79.5 170,-79.5 170,-0.5 0,-0.5"/>
<text text-anchor="start" x="8" y="-67.5" font-family="Helvetica,sans-Serif" font-size="10.00">Ra::Engine::ComponentMessenger</text>
<text text-anchor="start" x="8" y="-56.5" font-family="Helvetica,sans-Serif" font-size="10.00">::CallbackTypes&lt; Ra::Core</text>
<text text-anchor="middle" x="85" y="-45.5" font-family="Helvetica,sans-Serif" font-size="10.00">::Index &gt;</text>
<polyline fill="none" stroke="black" points="0,-38.5 170,-38.5 "/>
<text text-anchor="middle" x="85" y="-26.5" font-family="Helvetica,sans-Serif" font-size="10.00"> </text>
<polyline fill="none" stroke="black" points="0,-19.5 170,-19.5 "/>
<text text-anchor="start" x="8" y="-7.5" font-family="Helvetica,sans-Serif" font-size="10.00">+ getHelper()</text>
</a>
</g>
</g>
<!-- Node1&#45;&gt;Node2 -->
<g id="edge1" class="edge"><title>Node1&#45;&gt;Node2</title>
<path fill="none" stroke="orange" d="M271.887,-141.67C254.064,-135.122 235.773,-127.8 219,-120 193.9,-108.328 167.418,-93.3376 144.684,-79.5578"/>
<polygon fill="orange" stroke="orange" points="271.133,-145.119 281.728,-145.226 273.512,-138.535 271.133,-145.119"/>
<text text-anchor="middle" x="264.5" y="-106.5" font-family="Helvetica,sans-Serif" font-size="10.00"> &lt; Ra::Core::Index &gt;</text>
</g>
<!-- Node3 -->
<g id="node3" class="node"><title>Node3</title>
<g id="a_node3"><a xlink:href="structRa_1_1Engine_1_1ComponentMessenger_1_1CallbackTypes.html" target="_top" xlink:title="{Ra::Engine::ComponentMessenger\l::CallbackTypes\&lt; std::vector\l\&lt; Ra::Core::Index \&gt; \&gt;\n||+ getHelper()\l}">
<polygon fill="white" stroke="black" points="188,-0.5 188,-79.5 358,-79.5 358,-0.5 188,-0.5"/>
<text text-anchor="start" x="196" y="-67.5" font-family="Helvetica,sans-Serif" font-size="10.00">Ra::Engine::ComponentMessenger</text>
<text text-anchor="start" x="196" y="-56.5" font-family="Helvetica,sans-Serif" font-size="10.00">::CallbackTypes&lt; std::vector</text>
<text text-anchor="middle" x="273" y="-45.5" font-family="Helvetica,sans-Serif" font-size="10.00">&lt; Ra::Core::Index &gt; &gt;</text>
<polyline fill="none" stroke="black" points="188,-38.5 358,-38.5 "/>
<text text-anchor="middle" x="273" y="-26.5" font-family="Helvetica,sans-Serif" font-size="10.00"> </text>
<polyline fill="none" stroke="black" points="188,-19.5 358,-19.5 "/>
<text text-anchor="start" x="196" y="-7.5" font-family="Helvetica,sans-Serif" font-size="10.00">+ getHelper()</text>
</a>
</g>
</g>
<!-- Node1&#45;&gt;Node3 -->
<g id="edge2" class="edge"><title>Node1&#45;&gt;Node3</title>
<path fill="none" stroke="orange" d="M337.326,-130.646C325.614,-114.323 312.232,-95.6748 300.718,-79.6289"/>
<polygon fill="orange" stroke="orange" points="334.606,-132.859 343.28,-138.943 340.293,-128.778 334.606,-132.859"/>
<text text-anchor="start" x="328" y="-112" font-family="Helvetica,sans-Serif" font-size="10.00"> &lt; std::vector&lt; Ra::</text>
<text text-anchor="middle" x="371.5" y="-101" font-family="Helvetica,sans-Serif" font-size="10.00">Core::Index &gt; &gt;</text>
</g>
<!-- Node4 -->
<g id="node4" class="node"><title>Node4</title>
<g id="a_node4"><a xlink:href="structRa_1_1Engine_1_1ComponentMessenger_1_1CallbackTypes.html" target="_top" xlink:title="{Ra::Engine::ComponentMessenger\l::CallbackTypes\&lt; Ra::Core\l::Vector3Array \&gt;\n||+ getHelper()\l}">
<polygon fill="white" stroke="black" points="376,-0.5 376,-79.5 546,-79.5 546,-0.5 376,-0.5"/>
<text text-anchor="start" x="384" y="-67.5" font-family="Helvetica,sans-Serif" font-size="10.00">Ra::Engine::ComponentMessenger</text>
<text text-anchor="start" x="384" y="-56.5" font-family="Helvetica,sans-Serif" font-size="10.00">::CallbackTypes&lt; Ra::Core</text>
<text text-anchor="middle" x="461" y="-45.5" font-family="Helvetica,sans-Serif" font-size="10.00">::Vector3Array &gt;</text>
<polyline fill="none" stroke="black" points="376,-38.5 546,-38.5 "/>
<text text-anchor="middle" x="461" y="-26.5" font-family="Helvetica,sans-Serif" font-size="10.00"> </text>
<polyline fill="none" stroke="black" points="376,-19.5 546,-19.5 "/>
<text text-anchor="start" x="384" y="-7.5" font-family="Helvetica,sans-Serif" font-size="10.00">+ getHelper()</text>
</a>
</g>
</g>
<!-- Node1&#45;&gt;Node4 -->
<g id="edge3" class="edge"><title>Node1&#45;&gt;Node4</title>
<path fill="none" stroke="orange" d="M409.78,-131.404C413.039,-127.666 416.159,-123.839 419,-120 428.147,-107.638 436.5,-93.023 443.306,-79.7459"/>
<polygon fill="orange" stroke="orange" points="407.082,-129.169 402.945,-138.923 412.261,-133.878 407.082,-129.169"/>
<text text-anchor="middle" x="494" y="-106.5" font-family="Helvetica,sans-Serif" font-size="10.00"> &lt; Ra::Core::Vector3Array &gt;</text>
</g>
<!-- Node5 -->
<g id="node5" class="node"><title>Node5</title>
<g id="a_node5"><a xlink:href="structRa_1_1Engine_1_1ComponentMessenger_1_1CallbackTypes.html" target="_top" xlink:title="{Ra::Engine::ComponentMessenger\l::CallbackTypes\&lt; Ra::Core\l::Animation::Skeleton \&gt;\n||+ getHelper()\l}">
<polygon fill="white" stroke="black" points="564,-0.5 564,-79.5 734,-79.5 734,-0.5 564,-0.5"/>
<text text-anchor="start" x="572" y="-67.5" font-family="Helvetica,sans-Serif" font-size="10.00">Ra::Engine::ComponentMessenger</text>
<text text-anchor="start" x="572" y="-56.5" font-family="Helvetica,sans-Serif" font-size="10.00">::CallbackTypes&lt; Ra::Core</text>
<text text-anchor="middle" x="649" y="-45.5" font-family="Helvetica,sans-Serif" font-size="10.00">::Animation::Skeleton &gt;</text>
<polyline fill="none" stroke="black" points="564,-38.5 734,-38.5 "/>
<text text-anchor="middle" x="649" y="-26.5" font-family="Helvetica,sans-Serif" font-size="10.00"> </text>
<polyline fill="none" stroke="black" points="564,-19.5 734,-19.5 "/>
<text text-anchor="start" x="572" y="-7.5" font-family="Helvetica,sans-Serif" font-size="10.00">+ getHelper()</text>
</a>
</g>
</g>
<!-- Node1&#45;&gt;Node5 -->
<g id="edge4" class="edge"><title>Node1&#45;&gt;Node5</title>
<path fill="none" stroke="orange" d="M462.275,-155.552C494.532,-147.622 529.967,-136.196 560,-120 579.276,-109.605 597.848,-94.2742 612.994,-79.877"/>
<polygon fill="orange" stroke="orange" points="461.297,-152.187 452.376,-157.903 462.914,-158.998 461.297,-152.187"/>
<text text-anchor="start" x="592" y="-112" font-family="Helvetica,sans-Serif" font-size="10.00"> &lt; Ra::Core::Animation</text>
<text text-anchor="middle" x="643" y="-101" font-family="Helvetica,sans-Serif" font-size="10.00">::Skeleton &gt;</text>
</g>
</g>
</svg>
