<?xml version="1.0" encoding="UTF-8" standalone="no"?>
<!DOCTYPE svg PUBLIC "-//W3C//DTD SVG 1.1//EN"
 "http://www.w3.org/Graphics/SVG/1.1/DTD/svg11.dtd">
<!-- Generated by graphviz version 2.36.0 (20140111.2315)
 -->
<!-- Title: Ra::Core::Twin Pages: 1 -->
<svg width="90pt" height="206pt"
 viewBox="0.00 0.00 90.00 206.00" xmlns="http://www.w3.org/2000/svg" xmlns:xlink="http://www.w3.org/1999/xlink">
<g id="graph0" class="graph" transform="scale(1 1) rotate(0) translate(4 202)">
<title>Ra::Core::Twin</title>
<polygon fill="white" stroke="none" points="-4,4 -4,-202 86,-202 86,4 -4,4"/>
<!-- Node1 -->
<g id="node1" class="node"><title>Node1</title>
<polygon fill="#bfbfbf" stroke="black" points="-0.5,-1 -0.5,-91 82.5,-91 82.5,-1 -0.5,-1"/>
<text text-anchor="middle" x="41" y="-79" font-family="Helvetica,sans-Serif" font-size="10.00">Ra::Core::Twin</text>
<polyline fill="none" stroke="black" points="-0.5,-72 82.5,-72 "/>
<text text-anchor="middle" x="41" y="-60" font-family="Helvetica,sans-Serif" font-size="10.00"> </text>
<polyline fill="none" stroke="black" points="-0.5,-53 82.5,-53 "/>
<text text-anchor="start" x="7.5" y="-41" font-family="Helvetica,sans-Serif" font-size="10.00">+ Twin()</text>
<text text-anchor="start" x="7.5" y="-30" font-family="Helvetica,sans-Serif" font-size="10.00">+ Twin()</text>
<text text-anchor="start" x="7.5" y="-19" font-family="Helvetica,sans-Serif" font-size="10.00">+ operator==()</text>
<text text-anchor="start" x="7.5" y="-8" font-family="Helvetica,sans-Serif" font-size="10.00">+ operator&lt;()</text>
</g>
<!-- Node2 -->
<g id="node2" class="node"><title>Node2</title>
<polygon fill="white" stroke="#bfbfbf" points="26.5,-140.5 26.5,-197.5 55.5,-197.5 55.5,-140.5 26.5,-140.5"/>
<text text-anchor="middle" x="41" y="-185.5" font-family="Helvetica,sans-Serif" font-size="10.00">int</text>
<polyline fill="none" stroke="#bfbfbf" points="26.5,-178.5 55.5,-178.5 "/>
<text text-anchor="middle" x="41" y="-166.5" font-family="Helvetica,sans-Serif" font-size="10.00"> </text>
<polyline fill="none" stroke="#bfbfbf" points="26.5,-159.5 55.5,-159.5 "/>
<text text-anchor="middle" x="41" y="-147.5" font-family="Helvetica,sans-Serif" font-size="10.00"> </text>
</g>
<!-- Node2&#45;&gt;Node1 -->
<g id="edge1" class="edge"><title>Node2&#45;&gt;Node1</title>
<path fill="none" stroke="#404040" d="M41,-140.24C41,-129.242 41,-116.179 41,-103.364"/>
<polygon fill="none" stroke="#404040" points="41.0001,-103.23 37,-97.2296 41,-91.2295 45,-97.2295 41.0001,-103.23"/>
<text text-anchor="middle" x="56.5" y="-113.5" font-family="Helvetica,sans-Serif" font-size="10.00"> +m_id</text>
</g>
</g>
</svg>
