<?xml version="1.0" encoding="UTF-8" standalone="no"?>
<!DOCTYPE svg PUBLIC "-//W3C//DTD SVG 1.1//EN"
 "http://www.w3.org/Graphics/SVG/1.1/DTD/svg11.dtd">
<!-- Generated by graphviz version 2.36.0 (20140111.2315)
 -->
<!-- Title: /home/travis/build/STORM&#45;IRIT/Radium&#45;Engine/src/Core/Algorithm/Subdivision/SubdividerUtils.hpp Pages: 1 -->
<svg width="335pt" height="152pt"
 viewBox="0.00 0.00 335.00 152.00" xmlns="http://www.w3.org/2000/svg" xmlns:xlink="http://www.w3.org/1999/xlink">
<g id="graph0" class="graph" transform="scale(1 1) rotate(0) translate(4 148)">
<title>/home/travis/build/STORM&#45;IRIT/Radium&#45;Engine/src/Core/Algorithm/Subdivision/SubdividerUtils.hpp</title>
<polygon fill="white" stroke="none" points="-4,4 -4,-148 331,-148 331,4 -4,4"/>
<!-- Node1 -->
<g id="node1" class="node"><title>Node1</title>
<polygon fill="#bfbfbf" stroke="black" points="85.5,-91 85.5,-143 240.5,-143 240.5,-91 85.5,-91"/>
<text text-anchor="start" x="93.5" y="-131" font-family="Helvetica,sans-Serif" font-size="10.00">/home/travis/build</text>
<text text-anchor="start" x="93.5" y="-120" font-family="Helvetica,sans-Serif" font-size="10.00">/STORM&#45;IRIT/Radium&#45;Engine</text>
<text text-anchor="start" x="93.5" y="-109" font-family="Helvetica,sans-Serif" font-size="10.00">/src/Core/Algorithm/Subdivision</text>
<text text-anchor="middle" x="163" y="-98" font-family="Helvetica,sans-Serif" font-size="10.00">/SubdividerUtils.hpp</text>
</g>
<!-- Node2 -->
<g id="node2" class="node"><title>Node2</title>
<g id="a_node2"><a xlink:href="CatmullClarkSubdivider_8cpp.html" target="_top" xlink:title="/home/travis/build\l/STORM&#45;IRIT/Radium&#45;Engine\l/src/Core/Algorithm/Subdivision\l/CatmullClarkSubdivider.cpp">
<polygon fill="white" stroke="black" points="-0.5,-1 -0.5,-53 154.5,-53 154.5,-1 -0.5,-1"/>
<text text-anchor="start" x="7.5" y="-41" font-family="Helvetica,sans-Serif" font-size="10.00">/home/travis/build</text>
<text text-anchor="start" x="7.5" y="-30" font-family="Helvetica,sans-Serif" font-size="10.00">/STORM&#45;IRIT/Radium&#45;Engine</text>
<text text-anchor="start" x="7.5" y="-19" font-family="Helvetica,sans-Serif" font-size="10.00">/src/Core/Algorithm/Subdivision</text>
<text text-anchor="middle" x="77" y="-8" font-family="Helvetica,sans-Serif" font-size="10.00">/CatmullClarkSubdivider.cpp</text>
</a>
</g>
</g>
<!-- Node1&#45;&gt;Node2 -->
<g id="edge1" class="edge"><title>Node1&#45;&gt;Node2</title>
<path fill="none" stroke="midnightblue" d="M130.885,-83.1386C121.169,-73.1958 110.658,-62.4408 101.522,-53.0921"/>
<polygon fill="midnightblue" stroke="midnightblue" points="128.633,-85.8411 138.125,-90.5468 133.639,-80.9486 128.633,-85.8411"/>
</g>
<!-- Node3 -->
<g id="node3" class="node"><title>Node3</title>
<g id="a_node3"><a xlink:href="LoopSubdivider_8cpp.html" target="_top" xlink:title="/home/travis/build\l/STORM&#45;IRIT/Radium&#45;Engine\l/src/Core/Algorithm/Subdivision\l/LoopSubdivider.cpp">
<polygon fill="white" stroke="black" points="172.5,-1 172.5,-53 327.5,-53 327.5,-1 172.5,-1"/>
<text text-anchor="start" x="180.5" y="-41" font-family="Helvetica,sans-Serif" font-size="10.00">/home/travis/build</text>
<text text-anchor="start" x="180.5" y="-30" font-family="Helvetica,sans-Serif" font-size="10.00">/STORM&#45;IRIT/Radium&#45;Engine</text>
<text text-anchor="start" x="180.5" y="-19" font-family="Helvetica,sans-Serif" font-size="10.00">/src/Core/Algorithm/Subdivision</text>
<text text-anchor="middle" x="250" y="-8" font-family="Helvetica,sans-Serif" font-size="10.00">/LoopSubdivider.cpp</text>
</a>
</g>
</g>
<!-- Node1&#45;&gt;Node3 -->
<g id="edge2" class="edge"><title>Node1&#45;&gt;Node3</title>
<path fill="none" stroke="midnightblue" d="M195.199,-83.4308C205.109,-73.4069 215.86,-62.5325 225.193,-53.0921"/>
<polygon fill="midnightblue" stroke="midnightblue" points="192.706,-80.9747 188.164,-90.5468 197.684,-85.8961 192.706,-80.9747"/>
</g>
</g>
</svg>
