<?xml version="1.0" encoding="UTF-8" standalone="no"?>
<!DOCTYPE svg PUBLIC "-//W3C//DTD SVG 1.1//EN"
 "http://www.w3.org/Graphics/SVG/1.1/DTD/svg11.dtd">
<!-- Generated by graphviz version 2.36.0 (20140111.2315)
 -->
<!-- Title: /home/travis/build/STORM&#45;IRIT/Radium&#45;Engine/src/Engine/Managers/SystemDisplay/SystemDisplay.hpp Pages: 1 -->
<svg width="1922pt" height="152pt"
 viewBox="0.00 0.00 1922.00 152.00" xmlns="http://www.w3.org/2000/svg" xmlns:xlink="http://www.w3.org/1999/xlink">
<g id="graph0" class="graph" transform="scale(1 1) rotate(0) translate(4 148)">
<title>/home/travis/build/STORM&#45;IRIT/Radium&#45;Engine/src/Engine/Managers/SystemDisplay/SystemDisplay.hpp</title>
<polygon fill="white" stroke="none" points="-4,4 -4,-148 1918,-148 1918,4 -4,4"/>
<!-- Node1 -->
<g id="node1" class="node"><title>Node1</title>
<polygon fill="#bfbfbf" stroke="black" points="876,-91 876,-143 1058,-143 1058,-91 876,-91"/>
<text text-anchor="start" x="884" y="-131" font-family="Helvetica,sans-Serif" font-size="10.00">/home/travis/build</text>
<text text-anchor="start" x="884" y="-120" font-family="Helvetica,sans-Serif" font-size="10.00">/STORM&#45;IRIT/Radium&#45;Engine</text>
<text text-anchor="start" x="884" y="-109" font-family="Helvetica,sans-Serif" font-size="10.00">/src/Engine/Managers/SystemDisplay</text>
<text text-anchor="middle" x="967" y="-98" font-family="Helvetica,sans-Serif" font-size="10.00">/SystemDisplay.hpp</text>
</g>
<!-- Node2 -->
<g id="node2" class="node"><title>Node2</title>
<g id="a_node2"><a xlink:href="ItemEntry_8cpp.html" target="_top" xlink:title="/home/travis/build\l/STORM&#45;IRIT/Radium&#45;Engine\l/src/Engine/ItemModel/ItemEntry.cpp">
<polygon fill="white" stroke="black" points="-0.5,-6.5 -0.5,-47.5 178.5,-47.5 178.5,-6.5 -0.5,-6.5"/>
<text text-anchor="start" x="7.5" y="-35.5" font-family="Helvetica,sans-Serif" font-size="10.00">/home/travis/build</text>
<text text-anchor="start" x="7.5" y="-24.5" font-family="Helvetica,sans-Serif" font-size="10.00">/STORM&#45;IRIT/Radium&#45;Engine</text>
<text text-anchor="middle" x="89" y="-13.5" font-family="Helvetica,sans-Serif" font-size="10.00">/src/Engine/ItemModel/ItemEntry.cpp</text>
</a>
</g>
</g>
<!-- Node1&#45;&gt;Node2 -->
<g id="edge1" class="edge"><title>Node1&#45;&gt;Node2</title>
<path fill="none" stroke="midnightblue" d="M865.731,-113.665C716.436,-108.932 428.913,-94.8893 188,-54 177.839,-52.2753 167.2,-49.9976 156.822,-47.5058"/>
<polygon fill="midnightblue" stroke="midnightblue" points="865.697,-117.165 875.801,-113.977 865.914,-110.169 865.697,-117.165"/>
</g>
<!-- Node3 -->
<g id="node3" class="node"><title>Node3</title>
<g id="a_node3"><a xlink:href="EntityManager_8cpp.html" target="_top" xlink:title="/home/travis/build\l/STORM&#45;IRIT/Radium&#45;Engine\l/src/Engine/Managers/EntityManager\l/EntityManager.cpp">
<polygon fill="white" stroke="black" points="197,-1 197,-53 375,-53 375,-1 197,-1"/>
<text text-anchor="start" x="205" y="-41" font-family="Helvetica,sans-Serif" font-size="10.00">/home/travis/build</text>
<text text-anchor="start" x="205" y="-30" font-family="Helvetica,sans-Serif" font-size="10.00">/STORM&#45;IRIT/Radium&#45;Engine</text>
<text text-anchor="start" x="205" y="-19" font-family="Helvetica,sans-Serif" font-size="10.00">/src/Engine/Managers/EntityManager</text>
<text text-anchor="middle" x="286" y="-8" font-family="Helvetica,sans-Serif" font-size="10.00">/EntityManager.cpp</text>
</a>
</g>
</g>
<!-- Node1&#45;&gt;Node3 -->
<g id="edge2" class="edge"><title>Node1&#45;&gt;Node3</title>
<path fill="none" stroke="midnightblue" d="M865.991,-109.978C749.2,-101.926 551.528,-84.9421 384,-54 381.057,-53.4565 378.073,-52.8705 375.066,-52.2501"/>
<polygon fill="midnightblue" stroke="midnightblue" points="865.779,-113.471 875.994,-110.659 866.255,-106.488 865.779,-113.471"/>
</g>
<!-- Node4 -->
<g id="node4" class="node"><title>Node4</title>
<g id="a_node4"><a xlink:href="SystemDisplay_8cpp.html" target="_top" xlink:title="/home/travis/build\l/STORM&#45;IRIT/Radium&#45;Engine\l/src/Engine/Managers/SystemDisplay\l/SystemDisplay.cpp">
<polygon fill="white" stroke="black" points="393,-1 393,-53 575,-53 575,-1 393,-1"/>
<text text-anchor="start" x="401" y="-41" font-family="Helvetica,sans-Serif" font-size="10.00">/home/travis/build</text>
<text text-anchor="start" x="401" y="-30" font-family="Helvetica,sans-Serif" font-size="10.00">/STORM&#45;IRIT/Radium&#45;Engine</text>
<text text-anchor="start" x="401" y="-19" font-family="Helvetica,sans-Serif" font-size="10.00">/src/Engine/Managers/SystemDisplay</text>
<text text-anchor="middle" x="484" y="-8" font-family="Helvetica,sans-Serif" font-size="10.00">/SystemDisplay.cpp</text>
</a>
</g>
</g>
<!-- Node1&#45;&gt;Node4 -->
<g id="edge3" class="edge"><title>Node1&#45;&gt;Node4</title>
<path fill="none" stroke="midnightblue" d="M865.39,-102.205C787.923,-91.047 678.781,-73.9472 584,-54 581.104,-53.3904 578.165,-52.7515 575.202,-52.0894"/>
<polygon fill="midnightblue" stroke="midnightblue" points="865.233,-105.718 875.628,-103.671 866.226,-98.7887 865.233,-105.718"/>
</g>
<!-- Node5 -->
<g id="node5" class="node"><title>Node5</title>
<g id="a_node5"><a xlink:href="RenderObjectManager_8cpp.html" target="_top" xlink:title="/home/travis/build\l/STORM&#45;IRIT/Radium&#45;Engine\l/src/Engine/Renderer/RenderObject\l/RenderObjectManager.cpp">
<polygon fill="white" stroke="black" points="593,-1 593,-53 765,-53 765,-1 593,-1"/>
<text text-anchor="start" x="601" y="-41" font-family="Helvetica,sans-Serif" font-size="10.00">/home/travis/build</text>
<text text-anchor="start" x="601" y="-30" font-family="Helvetica,sans-Serif" font-size="10.00">/STORM&#45;IRIT/Radium&#45;Engine</text>
<text text-anchor="start" x="601" y="-19" font-family="Helvetica,sans-Serif" font-size="10.00">/src/Engine/Renderer/RenderObject</text>
<text text-anchor="middle" x="679" y="-8" font-family="Helvetica,sans-Serif" font-size="10.00">/RenderObjectManager.cpp</text>
</a>
</g>
</g>
<!-- Node1&#45;&gt;Node5 -->
<g id="edge4" class="edge"><title>Node1&#45;&gt;Node5</title>
<path fill="none" stroke="midnightblue" d="M875.182,-87.9445C838.602,-76.7672 796.826,-64.0025 761.253,-53.1328"/>
<polygon fill="midnightblue" stroke="midnightblue" points="874.27,-91.3255 884.856,-90.9005 876.315,-84.631 874.27,-91.3255"/>
</g>
<!-- Node6 -->
<g id="node6" class="node"><title>Node6</title>
<g id="a_node6"><a xlink:href="BaseApplication_8cpp.html" target="_top" xlink:title="/home/travis/build\l/STORM&#45;IRIT/Radium&#45;Engine\l/src/GuiBase/BaseApplication.cpp">
<polygon fill="white" stroke="black" points="783,-6.5 783,-47.5 949,-47.5 949,-6.5 783,-6.5"/>
<text text-anchor="start" x="791" y="-35.5" font-family="Helvetica,sans-Serif" font-size="10.00">/home/travis/build</text>
<text text-anchor="start" x="791" y="-24.5" font-family="Helvetica,sans-Serif" font-size="10.00">/STORM&#45;IRIT/Radium&#45;Engine</text>
<text text-anchor="middle" x="866" y="-13.5" font-family="Helvetica,sans-Serif" font-size="10.00">/src/GuiBase/BaseApplication.cpp</text>
</a>
</g>
</g>
<!-- Node1&#45;&gt;Node6 -->
<g id="edge5" class="edge"><title>Node1&#45;&gt;Node6</title>
<path fill="none" stroke="midnightblue" d="M930.459,-84.1619C916.437,-71.9452 900.858,-58.371 888.528,-47.6283"/>
<polygon fill="midnightblue" stroke="midnightblue" points="928.219,-86.8524 938.057,-90.7827 932.817,-81.5746 928.219,-86.8524"/>
</g>
<!-- Node7 -->
<g id="node7" class="node"><title>Node7</title>
<g id="a_node7"><a xlink:href="CameraInterface_8cpp.html" target="_top" xlink:title="/home/travis/build\l/STORM&#45;IRIT/Radium&#45;Engine\l/src/GuiBase/Viewer/CameraInterface.cpp">
<polygon fill="white" stroke="black" points="967.5,-6.5 967.5,-47.5 1168.5,-47.5 1168.5,-6.5 967.5,-6.5"/>
<text text-anchor="start" x="975.5" y="-35.5" font-family="Helvetica,sans-Serif" font-size="10.00">/home/travis/build</text>
<text text-anchor="start" x="975.5" y="-24.5" font-family="Helvetica,sans-Serif" font-size="10.00">/STORM&#45;IRIT/Radium&#45;Engine</text>
<text text-anchor="middle" x="1068" y="-13.5" font-family="Helvetica,sans-Serif" font-size="10.00">/src/GuiBase/Viewer/CameraInterface.cpp</text>
</a>
</g>
</g>
<!-- Node1&#45;&gt;Node7 -->
<g id="edge6" class="edge"><title>Node1&#45;&gt;Node7</title>
<path fill="none" stroke="midnightblue" d="M1003.54,-84.1619C1017.56,-71.9452 1033.14,-58.371 1045.47,-47.6283"/>
<polygon fill="midnightblue" stroke="midnightblue" points="1001.18,-81.5746 995.943,-90.7827 1005.78,-86.8524 1001.18,-81.5746"/>
</g>
<!-- Node8 -->
<g id="node8" class="node"><title>Node8</title>
<g id="a_node8"><a xlink:href="GizmoManager_8cpp.html" target="_top" xlink:title="/home/travis/build\l/STORM&#45;IRIT/Radium&#45;Engine\l/src/GuiBase/Viewer/Gizmo\l/GizmoManager.cpp">
<polygon fill="white" stroke="black" points="1187,-1 1187,-53 1335,-53 1335,-1 1187,-1"/>
<text text-anchor="start" x="1195" y="-41" font-family="Helvetica,sans-Serif" font-size="10.00">/home/travis/build</text>
<text text-anchor="start" x="1195" y="-30" font-family="Helvetica,sans-Serif" font-size="10.00">/STORM&#45;IRIT/Radium&#45;Engine</text>
<text text-anchor="start" x="1195" y="-19" font-family="Helvetica,sans-Serif" font-size="10.00">/src/GuiBase/Viewer/Gizmo</text>
<text text-anchor="middle" x="1261" y="-8" font-family="Helvetica,sans-Serif" font-size="10.00">/GizmoManager.cpp</text>
</a>
</g>
</g>
<!-- Node1&#45;&gt;Node8 -->
<g id="edge7" class="edge"><title>Node1&#45;&gt;Node8</title>
<path fill="none" stroke="midnightblue" d="M1062.63,-88.0545C1098.52,-77.488 1139.67,-65.2887 1177,-54 1180.21,-53.028 1183.5,-52.031 1186.81,-51.0205"/>
<polygon fill="midnightblue" stroke="midnightblue" points="1061.25,-84.81 1052.65,-90.9894 1063.23,-91.5255 1061.25,-84.81"/>
</g>
<!-- Node9 -->
<g id="node9" class="node"><title>Node9</title>
<g id="a_node9"><a xlink:href="Viewer_8cpp.html" target="_top" xlink:title="/home/travis/build\l/STORM&#45;IRIT/Radium&#45;Engine\l/src/GuiBase/Viewer/Viewer.cpp">
<polygon fill="white" stroke="black" points="1353,-6.5 1353,-47.5 1511,-47.5 1511,-6.5 1353,-6.5"/>
<text text-anchor="start" x="1361" y="-35.5" font-family="Helvetica,sans-Serif" font-size="10.00">/home/travis/build</text>
<text text-anchor="start" x="1361" y="-24.5" font-family="Helvetica,sans-Serif" font-size="10.00">/STORM&#45;IRIT/Radium&#45;Engine</text>
<text text-anchor="middle" x="1432" y="-13.5" font-family="Helvetica,sans-Serif" font-size="10.00">/src/GuiBase/Viewer/Viewer.cpp</text>
</a>
</g>
</g>
<!-- Node1&#45;&gt;Node9 -->
<g id="edge8" class="edge"><title>Node1&#45;&gt;Node9</title>
<path fill="none" stroke="midnightblue" d="M1068.35,-102.819C1144.63,-92.0573 1251.49,-75.1864 1344,-54 1352.23,-52.1151 1360.82,-49.8963 1369.28,-47.5626"/>
<polygon fill="midnightblue" stroke="midnightblue" points="1067.68,-99.3779 1058.27,-104.231 1068.65,-106.31 1067.68,-99.3779"/>
</g>
<!-- Node10 -->
<g id="node10" class="node"><title>Node10</title>
<g id="a_node10"><a xlink:href="MeshFeatureTrackingComponent_8cpp.html" target="_top" xlink:title="/home/travis/build\l/STORM&#45;IRIT/Radium&#45;Engine\l/Plugins/MeshFeatureTracking\l/src/MeshFeatureTrackingComponent.cpp">
<polygon fill="white" stroke="black" points="1529,-1 1529,-53 1729,-53 1729,-1 1529,-1"/>
<text text-anchor="start" x="1537" y="-41" font-family="Helvetica,sans-Serif" font-size="10.00">/home/travis/build</text>
<text text-anchor="start" x="1537" y="-30" font-family="Helvetica,sans-Serif" font-size="10.00">/STORM&#45;IRIT/Radium&#45;Engine</text>
<text text-anchor="start" x="1537" y="-19" font-family="Helvetica,sans-Serif" font-size="10.00">/Plugins/MeshFeatureTracking</text>
<text text-anchor="middle" x="1629" y="-8" font-family="Helvetica,sans-Serif" font-size="10.00">/src/MeshFeatureTrackingComponent.cpp</text>
</a>
</g>
</g>
<!-- Node1&#45;&gt;Node10 -->
<g id="edge9" class="edge"><title>Node1&#45;&gt;Node10</title>
<path fill="none" stroke="midnightblue" d="M1068.51,-108.282C1179.64,-98.978 1362.83,-81.126 1519,-54 1522.29,-53.4291 1525.62,-52.8194 1528.99,-52.1785"/>
<polygon fill="midnightblue" stroke="midnightblue" points="1067.99,-104.813 1058.32,-109.129 1068.57,-111.789 1067.99,-104.813"/>
</g>
<!-- Node11 -->
<g id="node11" class="node"><title>Node11</title>
<g id="a_node11"><a xlink:href="MeshPaintPlugin_8cpp.html" target="_top" xlink:title="/home/travis/build\l/STORM&#45;IRIT/Radium&#45;Engine\l/Plugins/MeshPaint/src/MeshPaint\lPlugin.cpp">
<polygon fill="white" stroke="black" points="1747.5,-1 1747.5,-53 1914.5,-53 1914.5,-1 1747.5,-1"/>
<text text-anchor="start" x="1755.5" y="-41" font-family="Helvetica,sans-Serif" font-size="10.00">/home/travis/build</text>
<text text-anchor="start" x="1755.5" y="-30" font-family="Helvetica,sans-Serif" font-size="10.00">/STORM&#45;IRIT/Radium&#45;Engine</text>
<text text-anchor="start" x="1755.5" y="-19" font-family="Helvetica,sans-Serif" font-size="10.00">/Plugins/MeshPaint/src/MeshPaint</text>
<text text-anchor="middle" x="1831" y="-8" font-family="Helvetica,sans-Serif" font-size="10.00">Plugin.cpp</text>
</a>
</g>
</g>
<!-- Node1&#45;&gt;Node11 -->
<g id="edge10" class="edge"><title>Node1&#45;&gt;Node11</title>
<path fill="none" stroke="midnightblue" d="M1068.66,-114.038C1216.91,-109.776 1500.61,-96.3216 1738,-54 1741.05,-53.4556 1744.15,-52.8542 1747.27,-52.2067"/>
<polygon fill="midnightblue" stroke="midnightblue" points="1068.13,-110.551 1058.23,-114.329 1068.32,-117.549 1068.13,-110.551"/>
</g>
</g>
</svg>
