<?xml version="1.0" encoding="UTF-8" standalone="no"?>
<!DOCTYPE svg PUBLIC "-//W3C//DTD SVG 1.1//EN"
 "http://www.w3.org/Graphics/SVG/1.1/DTD/svg11.dtd">
<!-- Generated by graphviz version 2.36.0 (20140111.2315)
 -->
<!-- Title: /home/travis/build/STORM&#45;IRIT/Radium&#45;Engine/src/Core/Tasks/TaskQueue.hpp Pages: 1 -->
<svg width="1975pt" height="308pt"
 viewBox="0.00 0.00 1975.00 308.00" xmlns="http://www.w3.org/2000/svg" xmlns:xlink="http://www.w3.org/1999/xlink">
<g id="graph0" class="graph" transform="scale(1 1) rotate(0) translate(4 304)">
<title>/home/travis/build/STORM&#45;IRIT/Radium&#45;Engine/src/Core/Tasks/TaskQueue.hpp</title>
<polygon fill="white" stroke="none" points="-4,4 -4,-304 1971,-304 1971,4 -4,4"/>
<!-- Node1 -->
<g id="node1" class="node"><title>Node1</title>
<polygon fill="#bfbfbf" stroke="black" points="808.5,-258.5 808.5,-299.5 967.5,-299.5 967.5,-258.5 808.5,-258.5"/>
<text text-anchor="start" x="816.5" y="-287.5" font-family="Helvetica,sans-Serif" font-size="10.00">/home/travis/build</text>
<text text-anchor="start" x="816.5" y="-276.5" font-family="Helvetica,sans-Serif" font-size="10.00">/STORM&#45;IRIT/Radium&#45;Engine</text>
<text text-anchor="middle" x="888" y="-265.5" font-family="Helvetica,sans-Serif" font-size="10.00">/src/Core/Tasks/TaskQueue.hpp</text>
</g>
<!-- Node2 -->
<g id="node2" class="node"><title>Node2</title>
<g id="a_node2"><a xlink:href="TaskQueue_8cpp.html" target="_top" xlink:title="/home/travis/build\l/STORM&#45;IRIT/Radium&#45;Engine\l/src/Core/Tasks/TaskQueue.cpp">
<polygon fill="white" stroke="black" points="-0.5,-174.5 -0.5,-215.5 158.5,-215.5 158.5,-174.5 -0.5,-174.5"/>
<text text-anchor="start" x="7.5" y="-203.5" font-family="Helvetica,sans-Serif" font-size="10.00">/home/travis/build</text>
<text text-anchor="start" x="7.5" y="-192.5" font-family="Helvetica,sans-Serif" font-size="10.00">/STORM&#45;IRIT/Radium&#45;Engine</text>
<text text-anchor="middle" x="79" y="-181.5" font-family="Helvetica,sans-Serif" font-size="10.00">/src/Core/Tasks/TaskQueue.cpp</text>
</a>
</g>
</g>
<!-- Node1&#45;&gt;Node2 -->
<g id="edge1" class="edge"><title>Node1&#45;&gt;Node2</title>
<path fill="none" stroke="midnightblue" d="M798.303,-277.055C661.17,-274.26 391.646,-263.435 167,-222 157.913,-220.324 148.427,-218.073 139.189,-215.593"/>
<polygon fill="midnightblue" stroke="midnightblue" points="798.281,-280.555 808.347,-277.25 798.417,-273.556 798.281,-280.555"/>
</g>
<!-- Node3 -->
<g id="node3" class="node"><title>Node3</title>
<g id="a_node3"><a xlink:href="CameraManager_8cpp.html" target="_top" xlink:title="/home/travis/build\l/STORM&#45;IRIT/Radium&#45;Engine\l/src/Engine/Managers/CameraManager\l/CameraManager.cpp">
<polygon fill="white" stroke="black" points="176.5,-169 176.5,-221 363.5,-221 363.5,-169 176.5,-169"/>
<text text-anchor="start" x="184.5" y="-209" font-family="Helvetica,sans-Serif" font-size="10.00">/home/travis/build</text>
<text text-anchor="start" x="184.5" y="-198" font-family="Helvetica,sans-Serif" font-size="10.00">/STORM&#45;IRIT/Radium&#45;Engine</text>
<text text-anchor="start" x="184.5" y="-187" font-family="Helvetica,sans-Serif" font-size="10.00">/src/Engine/Managers/CameraManager</text>
<text text-anchor="middle" x="270" y="-176" font-family="Helvetica,sans-Serif" font-size="10.00">/CameraManager.cpp</text>
</a>
</g>
</g>
<!-- Node1&#45;&gt;Node3 -->
<g id="edge2" class="edge"><title>Node1&#45;&gt;Node3</title>
<path fill="none" stroke="midnightblue" d="M798.299,-272.133C694.931,-264.479 520.245,-248.799 372,-222 369.213,-221.496 366.389,-220.958 363.543,-220.391"/>
<polygon fill="midnightblue" stroke="midnightblue" points="798.155,-275.631 808.384,-272.871 798.666,-268.65 798.155,-275.631"/>
</g>
<!-- Node4 -->
<g id="node4" class="node"><title>Node4</title>
<g id="a_node4"><a xlink:href="LightManager_8cpp.html" target="_top" xlink:title="/home/travis/build\l/STORM&#45;IRIT/Radium&#45;Engine\l/src/Engine/Managers/LightManager\l/LightManager.cpp">
<polygon fill="white" stroke="black" points="381.5,-169 381.5,-221 554.5,-221 554.5,-169 381.5,-169"/>
<text text-anchor="start" x="389.5" y="-209" font-family="Helvetica,sans-Serif" font-size="10.00">/home/travis/build</text>
<text text-anchor="start" x="389.5" y="-198" font-family="Helvetica,sans-Serif" font-size="10.00">/STORM&#45;IRIT/Radium&#45;Engine</text>
<text text-anchor="start" x="389.5" y="-187" font-family="Helvetica,sans-Serif" font-size="10.00">/src/Engine/Managers/LightManager</text>
<text text-anchor="middle" x="468" y="-176" font-family="Helvetica,sans-Serif" font-size="10.00">/LightManager.cpp</text>
</a>
</g>
</g>
<!-- Node1&#45;&gt;Node4 -->
<g id="edge3" class="edge"><title>Node1&#45;&gt;Node4</title>
<path fill="none" stroke="midnightblue" d="M798.272,-264.172C734.146,-253.822 645.949,-238.632 569,-222 564.31,-220.986 559.509,-219.904 554.67,-218.778"/>
<polygon fill="midnightblue" stroke="midnightblue" points="797.923,-267.661 808.352,-265.791 799.033,-260.749 797.923,-267.661"/>
</g>
<!-- Node5 -->
<g id="node5" class="node"><title>Node5</title>
<g id="a_node5"><a xlink:href="BaseApplication_8cpp.html" target="_top" xlink:title="/home/travis/build\l/STORM&#45;IRIT/Radium&#45;Engine\l/src/GuiBase/BaseApplication.cpp">
<polygon fill="white" stroke="black" points="555,-0.5 555,-41.5 721,-41.5 721,-0.5 555,-0.5"/>
<text text-anchor="start" x="563" y="-29.5" font-family="Helvetica,sans-Serif" font-size="10.00">/home/travis/build</text>
<text text-anchor="start" x="563" y="-18.5" font-family="Helvetica,sans-Serif" font-size="10.00">/STORM&#45;IRIT/Radium&#45;Engine</text>
<text text-anchor="middle" x="638" y="-7.5" font-family="Helvetica,sans-Serif" font-size="10.00">/src/GuiBase/BaseApplication.cpp</text>
</a>
</g>
</g>
<!-- Node1&#45;&gt;Node5 -->
<g id="edge4" class="edge"><title>Node1&#45;&gt;Node5</title>
<path fill="none" stroke="midnightblue" d="M798.035,-272.587C723.713,-266.015 626.569,-251.847 602,-222 561.325,-172.588 583.965,-139.406 602,-78 605.876,-64.8035 613.927,-51.7752 621.435,-41.6102"/>
<polygon fill="midnightblue" stroke="midnightblue" points="798.1,-276.105 808.36,-273.465 798.693,-269.13 798.1,-276.105"/>
</g>
<!-- Node6 -->
<g id="node6" class="node"><title>Node6</title>
<g id="a_node6"><a xlink:href="FrameTimerData_8hpp.html" target="_top" xlink:title="/home/travis/build\l/STORM&#45;IRIT/Radium&#45;Engine\l/src/GuiBase/TimerData/FrameTimer\lData.hpp">
<polygon fill="white" stroke="black" points="611,-169 611,-221 789,-221 789,-169 611,-169"/>
<text text-anchor="start" x="619" y="-209" font-family="Helvetica,sans-Serif" font-size="10.00">/home/travis/build</text>
<text text-anchor="start" x="619" y="-198" font-family="Helvetica,sans-Serif" font-size="10.00">/STORM&#45;IRIT/Radium&#45;Engine</text>
<text text-anchor="start" x="619" y="-187" font-family="Helvetica,sans-Serif" font-size="10.00">/src/GuiBase/TimerData/FrameTimer</text>
<text text-anchor="middle" x="700" y="-176" font-family="Helvetica,sans-Serif" font-size="10.00">Data.hpp</text>
</a>
</g>
</g>
<!-- Node1&#45;&gt;Node6 -->
<g id="edge5" class="edge"><title>Node1&#45;&gt;Node6</title>
<path fill="none" stroke="midnightblue" d="M833.697,-254.315C809.812,-243.897 781.736,-231.651 757.496,-221.078"/>
<polygon fill="midnightblue" stroke="midnightblue" points="832.404,-257.569 842.969,-258.359 835.203,-251.153 832.404,-257.569"/>
</g>
<!-- Node9 -->
<g id="node9" class="node"><title>Node9</title>
<g id="a_node9"><a xlink:href="AnimationSystem_8cpp.html" target="_top" xlink:title="/home/travis/build\l/STORM&#45;IRIT/Radium&#45;Engine\l/Plugins/Animation/src/Animation\lSystem.cpp">
<polygon fill="white" stroke="black" points="807.5,-169 807.5,-221 968.5,-221 968.5,-169 807.5,-169"/>
<text text-anchor="start" x="815.5" y="-209" font-family="Helvetica,sans-Serif" font-size="10.00">/home/travis/build</text>
<text text-anchor="start" x="815.5" y="-198" font-family="Helvetica,sans-Serif" font-size="10.00">/STORM&#45;IRIT/Radium&#45;Engine</text>
<text text-anchor="start" x="815.5" y="-187" font-family="Helvetica,sans-Serif" font-size="10.00">/Plugins/Animation/src/Animation</text>
<text text-anchor="middle" x="888" y="-176" font-family="Helvetica,sans-Serif" font-size="10.00">System.cpp</text>
</a>
</g>
</g>
<!-- Node1&#45;&gt;Node9 -->
<g id="edge9" class="edge"><title>Node1&#45;&gt;Node9</title>
<path fill="none" stroke="midnightblue" d="M888,-247.938C888,-239.176 888,-229.695 888,-221.261"/>
<polygon fill="midnightblue" stroke="midnightblue" points="884.5,-248.15 888,-258.15 891.5,-248.15 884.5,-248.15"/>
</g>
<!-- Node10 -->
<g id="node10" class="node"><title>Node10</title>
<g id="a_node10"><a xlink:href="DummySystem_8cpp.html" target="_top" xlink:title="/home/travis/build\l/STORM&#45;IRIT/Radium&#45;Engine\l/Plugins/Dummy/src/DummySystem.cpp">
<polygon fill="white" stroke="black" points="987,-174.5 987,-215.5 1183,-215.5 1183,-174.5 987,-174.5"/>
<text text-anchor="start" x="995" y="-203.5" font-family="Helvetica,sans-Serif" font-size="10.00">/home/travis/build</text>
<text text-anchor="start" x="995" y="-192.5" font-family="Helvetica,sans-Serif" font-size="10.00">/STORM&#45;IRIT/Radium&#45;Engine</text>
<text text-anchor="middle" x="1085" y="-181.5" font-family="Helvetica,sans-Serif" font-size="10.00">/Plugins/Dummy/src/DummySystem.cpp</text>
</a>
</g>
</g>
<!-- Node1&#45;&gt;Node10 -->
<g id="edge10" class="edge"><title>Node1&#45;&gt;Node10</title>
<path fill="none" stroke="midnightblue" d="M944.329,-254.554C973.993,-242.206 1009.95,-227.24 1038.08,-215.529"/>
<polygon fill="midnightblue" stroke="midnightblue" points="942.823,-251.389 934.936,-258.463 945.513,-257.852 942.823,-251.389"/>
</g>
<!-- Node11 -->
<g id="node11" class="node"><title>Node11</title>
<g id="a_node11"><a xlink:href="FancyMeshSystem_8cpp.html" target="_top" xlink:title="/home/travis/build\l/STORM&#45;IRIT/Radium&#45;Engine\l/Plugins/FancyMesh/src/FancyMesh\lSystem.cpp">
<polygon fill="white" stroke="black" points="1201,-169 1201,-221 1377,-221 1377,-169 1201,-169"/>
<text text-anchor="start" x="1209" y="-209" font-family="Helvetica,sans-Serif" font-size="10.00">/home/travis/build</text>
<text text-anchor="start" x="1209" y="-198" font-family="Helvetica,sans-Serif" font-size="10.00">/STORM&#45;IRIT/Radium&#45;Engine</text>
<text text-anchor="start" x="1209" y="-187" font-family="Helvetica,sans-Serif" font-size="10.00">/Plugins/FancyMesh/src/FancyMesh</text>
<text text-anchor="middle" x="1289" y="-176" font-family="Helvetica,sans-Serif" font-size="10.00">System.cpp</text>
</a>
</g>
</g>
<!-- Node1&#45;&gt;Node11 -->
<g id="edge11" class="edge"><title>Node1&#45;&gt;Node11</title>
<path fill="none" stroke="midnightblue" d="M977.669,-263.283C1038.17,-252.899 1119.68,-238.026 1191,-222 1194.26,-221.267 1197.58,-220.499 1200.93,-219.706"/>
<polygon fill="midnightblue" stroke="midnightblue" points="977.033,-259.841 967.765,-264.975 978.212,-266.741 977.033,-259.841"/>
</g>
<!-- Node12 -->
<g id="node12" class="node"><title>Node12</title>
<g id="a_node12"><a xlink:href="MeshPaintComponent_8cpp.html" target="_top" xlink:title="/home/travis/build\l/STORM&#45;IRIT/Radium&#45;Engine\l/Plugins/MeshPaint/src/MeshPaint\lComponent.cpp">
<polygon fill="white" stroke="black" points="1394.5,-169 1394.5,-221 1561.5,-221 1561.5,-169 1394.5,-169"/>
<text text-anchor="start" x="1402.5" y="-209" font-family="Helvetica,sans-Serif" font-size="10.00">/home/travis/build</text>
<text text-anchor="start" x="1402.5" y="-198" font-family="Helvetica,sans-Serif" font-size="10.00">/STORM&#45;IRIT/Radium&#45;Engine</text>
<text text-anchor="start" x="1402.5" y="-187" font-family="Helvetica,sans-Serif" font-size="10.00">/Plugins/MeshPaint/src/MeshPaint</text>
<text text-anchor="middle" x="1478" y="-176" font-family="Helvetica,sans-Serif" font-size="10.00">Component.cpp</text>
</a>
</g>
</g>
<!-- Node1&#45;&gt;Node12 -->
<g id="edge12" class="edge"><title>Node1&#45;&gt;Node12</title>
<path fill="none" stroke="midnightblue" d="M977.859,-272.231C1077.91,-264.801 1244.1,-249.45 1385,-222 1388.13,-221.391 1391.3,-220.729 1394.5,-220.025"/>
<polygon fill="midnightblue" stroke="midnightblue" points="977.506,-268.748 967.788,-272.969 978.017,-275.729 977.506,-268.748"/>
</g>
<!-- Node13 -->
<g id="node13" class="node"><title>Node13</title>
<g id="a_node13"><a xlink:href="MeshPaintSystem_8cpp.html" target="_top" xlink:title="/home/travis/build\l/STORM&#45;IRIT/Radium&#45;Engine\l/Plugins/MeshPaint/src/MeshPaint\lSystem.cpp">
<polygon fill="white" stroke="black" points="1579.5,-169 1579.5,-221 1746.5,-221 1746.5,-169 1579.5,-169"/>
<text text-anchor="start" x="1587.5" y="-209" font-family="Helvetica,sans-Serif" font-size="10.00">/home/travis/build</text>
<text text-anchor="start" x="1587.5" y="-198" font-family="Helvetica,sans-Serif" font-size="10.00">/STORM&#45;IRIT/Radium&#45;Engine</text>
<text text-anchor="start" x="1587.5" y="-187" font-family="Helvetica,sans-Serif" font-size="10.00">/Plugins/MeshPaint/src/MeshPaint</text>
<text text-anchor="middle" x="1663" y="-176" font-family="Helvetica,sans-Serif" font-size="10.00">System.cpp</text>
</a>
</g>
</g>
<!-- Node1&#45;&gt;Node13 -->
<g id="edge13" class="edge"><title>Node1&#45;&gt;Node13</title>
<path fill="none" stroke="midnightblue" d="M977.649,-276.074C1108.71,-272.033 1359.87,-259.645 1570,-222 1573.05,-221.453 1576.15,-220.849 1579.27,-220.2"/>
<polygon fill="midnightblue" stroke="midnightblue" points="977.544,-272.575 967.654,-276.373 977.754,-279.572 977.544,-272.575"/>
</g>
<!-- Node14 -->
<g id="node14" class="node"><title>Node14</title>
<g id="a_node14"><a xlink:href="SkinningSystem_8hpp.html" target="_top" xlink:title="/home/travis/build\l/STORM&#45;IRIT/Radium&#45;Engine\l/Plugins/Skinning/src/SkinningSystem.hpp">
<polygon fill="white" stroke="black" points="1765,-174.5 1765,-215.5 1967,-215.5 1967,-174.5 1765,-174.5"/>
<text text-anchor="start" x="1773" y="-203.5" font-family="Helvetica,sans-Serif" font-size="10.00">/home/travis/build</text>
<text text-anchor="start" x="1773" y="-192.5" font-family="Helvetica,sans-Serif" font-size="10.00">/STORM&#45;IRIT/Radium&#45;Engine</text>
<text text-anchor="middle" x="1866" y="-181.5" font-family="Helvetica,sans-Serif" font-size="10.00">/Plugins/Skinning/src/SkinningSystem.hpp</text>
</a>
</g>
</g>
<!-- Node1&#45;&gt;Node14 -->
<g id="edge14" class="edge"><title>Node1&#45;&gt;Node14</title>
<path fill="none" stroke="midnightblue" d="M977.802,-277.086C1135.79,-274.393 1473.41,-263.779 1755,-222 1766.45,-220.301 1778.47,-218.02 1790.19,-215.513"/>
<polygon fill="midnightblue" stroke="midnightblue" points="977.6,-273.589 967.658,-277.252 977.714,-280.588 977.6,-273.589"/>
</g>
<!-- Node7 -->
<g id="node7" class="node"><title>Node7</title>
<g id="a_node7"><a xlink:href="BaseApplication_8hpp.html" target="_top" xlink:title="/home/travis/build\l/STORM&#45;IRIT/Radium&#45;Engine\l/src/GuiBase/BaseApplication.hpp">
<polygon fill="white" stroke="black" points="611,-84.5 611,-125.5 777,-125.5 777,-84.5 611,-84.5"/>
<text text-anchor="start" x="619" y="-113.5" font-family="Helvetica,sans-Serif" font-size="10.00">/home/travis/build</text>
<text text-anchor="start" x="619" y="-102.5" font-family="Helvetica,sans-Serif" font-size="10.00">/STORM&#45;IRIT/Radium&#45;Engine</text>
<text text-anchor="middle" x="694" y="-91.5" font-family="Helvetica,sans-Serif" font-size="10.00">/src/GuiBase/BaseApplication.hpp</text>
</a>
</g>
</g>
<!-- Node6&#45;&gt;Node7 -->
<g id="edge6" class="edge"><title>Node6&#45;&gt;Node7</title>
<path fill="none" stroke="midnightblue" d="M697.581,-158.515C696.813,-147.257 695.993,-135.227 695.331,-125.525"/>
<polygon fill="midnightblue" stroke="midnightblue" points="694.092,-158.808 698.265,-168.547 701.076,-158.332 694.092,-158.808"/>
</g>
<!-- Node8 -->
<g id="node8" class="node"><title>Node8</title>
<g id="a_node8"><a xlink:href="FrameTimerData_8cpp.html" target="_top" xlink:title="/home/travis/build\l/STORM&#45;IRIT/Radium&#45;Engine\l/src/GuiBase/TimerData/FrameTimer\lData.cpp">
<polygon fill="white" stroke="black" points="795,-79 795,-131 973,-131 973,-79 795,-79"/>
<text text-anchor="start" x="803" y="-119" font-family="Helvetica,sans-Serif" font-size="10.00">/home/travis/build</text>
<text text-anchor="start" x="803" y="-108" font-family="Helvetica,sans-Serif" font-size="10.00">/STORM&#45;IRIT/Radium&#45;Engine</text>
<text text-anchor="start" x="803" y="-97" font-family="Helvetica,sans-Serif" font-size="10.00">/src/GuiBase/TimerData/FrameTimer</text>
<text text-anchor="middle" x="884" y="-86" font-family="Helvetica,sans-Serif" font-size="10.00">Data.cpp</text>
</a>
</g>
</g>
<!-- Node6&#45;&gt;Node8 -->
<g id="edge8" class="edge"><title>Node6&#45;&gt;Node8</title>
<path fill="none" stroke="midnightblue" d="M761.904,-164.394C784.524,-153.576 809.871,-141.453 831.584,-131.069"/>
<polygon fill="midnightblue" stroke="midnightblue" points="760.238,-161.311 752.727,-168.783 763.258,-167.626 760.238,-161.311"/>
</g>
<!-- Node7&#45;&gt;Node5 -->
<g id="edge7" class="edge"><title>Node7&#45;&gt;Node5</title>
<path fill="none" stroke="midnightblue" d="M674.798,-75.8829C667.106,-64.6192 658.427,-51.9117 651.431,-41.6671"/>
<polygon fill="midnightblue" stroke="midnightblue" points="671.914,-77.8659 680.444,-84.1501 677.695,-73.9182 671.914,-77.8659"/>
</g>
<!-- Node15 -->
<g id="node15" class="node"><title>Node15</title>
<g id="a_node15"><a xlink:href="SkinningPlugin_8cpp.html" target="_top" xlink:title="/home/travis/build\l/STORM&#45;IRIT/Radium&#45;Engine\l/Plugins/Skinning/src/SkinningPlugin.cpp">
<polygon fill="white" stroke="black" points="1768.5,-84.5 1768.5,-125.5 1963.5,-125.5 1963.5,-84.5 1768.5,-84.5"/>
<text text-anchor="start" x="1776.5" y="-113.5" font-family="Helvetica,sans-Serif" font-size="10.00">/home/travis/build</text>
<text text-anchor="start" x="1776.5" y="-102.5" font-family="Helvetica,sans-Serif" font-size="10.00">/STORM&#45;IRIT/Radium&#45;Engine</text>
<text text-anchor="middle" x="1866" y="-91.5" font-family="Helvetica,sans-Serif" font-size="10.00">/Plugins/Skinning/src/SkinningPlugin.cpp</text>
</a>
</g>
</g>
<!-- Node14&#45;&gt;Node15 -->
<g id="edge15" class="edge"><title>Node14&#45;&gt;Node15</title>
<path fill="none" stroke="midnightblue" d="M1866,-164.33C1866,-151.629 1866,-137.14 1866,-125.78"/>
<polygon fill="midnightblue" stroke="midnightblue" points="1862.5,-164.47 1866,-174.47 1869.5,-164.47 1862.5,-164.47"/>
</g>
</g>
</svg>
