<?xml version="1.0" encoding="UTF-8" standalone="no"?>
<!DOCTYPE svg PUBLIC "-//W3C//DTD SVG 1.1//EN"
 "http://www.w3.org/Graphics/SVG/1.1/DTD/svg11.dtd">
<!-- Generated by graphviz version 2.36.0 (20140111.2315)
 -->
<!-- Title: /home/travis/build/STORM&#45;IRIT/Radium&#45;Engine/src/Core/Mesh/TopologicalTriMesh/TopologicalMesh.inl Pages: 1 -->
<svg width="1055pt" height="332pt"
 viewBox="0.00 0.00 1055.00 332.00" xmlns="http://www.w3.org/2000/svg" xmlns:xlink="http://www.w3.org/1999/xlink">
<g id="graph0" class="graph" transform="scale(1 1) rotate(0) translate(4 328)">
<title>/home/travis/build/STORM&#45;IRIT/Radium&#45;Engine/src/Core/Mesh/TopologicalTriMesh/TopologicalMesh.inl</title>
<polygon fill="white" stroke="none" points="-4,4 -4,-328 1051,-328 1051,4 -4,4"/>
<!-- Node1 -->
<g id="node1" class="node"><title>Node1</title>
<polygon fill="#bfbfbf" stroke="black" points="428,-271 428,-323 600,-323 600,-271 428,-271"/>
<text text-anchor="start" x="436" y="-311" font-family="Helvetica,sans-Serif" font-size="10.00">/home/travis/build</text>
<text text-anchor="start" x="436" y="-300" font-family="Helvetica,sans-Serif" font-size="10.00">/STORM&#45;IRIT/Radium&#45;Engine</text>
<text text-anchor="start" x="436" y="-289" font-family="Helvetica,sans-Serif" font-size="10.00">/src/Core/Mesh/TopologicalTriMesh</text>
<text text-anchor="middle" x="514" y="-278" font-family="Helvetica,sans-Serif" font-size="10.00">/TopologicalMesh.inl</text>
</g>
<!-- Node2 -->
<g id="node2" class="node"><title>Node2</title>
<g id="a_node2"><a xlink:href="Core_2Mesh_2TopologicalTriMesh_2TopologicalMesh_8hpp.html" target="_top" xlink:title="/home/travis/build\l/STORM&#45;IRIT/Radium&#45;Engine\l/src/Core/Mesh/TopologicalTriMesh\l/TopologicalMesh.hpp">
<polygon fill="white" stroke="black" points="428,-181 428,-233 600,-233 600,-181 428,-181"/>
<text text-anchor="start" x="436" y="-221" font-family="Helvetica,sans-Serif" font-size="10.00">/home/travis/build</text>
<text text-anchor="start" x="436" y="-210" font-family="Helvetica,sans-Serif" font-size="10.00">/STORM&#45;IRIT/Radium&#45;Engine</text>
<text text-anchor="start" x="436" y="-199" font-family="Helvetica,sans-Serif" font-size="10.00">/src/Core/Mesh/TopologicalTriMesh</text>
<text text-anchor="middle" x="514" y="-188" font-family="Helvetica,sans-Serif" font-size="10.00">/TopologicalMesh.hpp</text>
</a>
</g>
</g>
<!-- Node1&#45;&gt;Node2 -->
<g id="edge1" class="edge"><title>Node1&#45;&gt;Node2</title>
<path fill="none" stroke="midnightblue" d="M507.363,-260.489C507.116,-251.309 507.274,-241.616 507.838,-233.092"/>
<polygon fill="midnightblue" stroke="midnightblue" points="503.869,-260.714 507.814,-270.547 510.862,-260.4 503.869,-260.714"/>
</g>
<!-- Node2&#45;&gt;Node1 -->
<g id="edge12" class="edge"><title>Node2&#45;&gt;Node1</title>
<path fill="none" stroke="midnightblue" d="M520.626,-243.123C520.885,-252.289 520.738,-261.99 520.186,-270.547"/>
<polygon fill="midnightblue" stroke="midnightblue" points="524.121,-242.92 520.162,-233.092 517.128,-243.243 524.121,-242.92"/>
</g>
<!-- Node3 -->
<g id="node3" class="node"><title>Node3</title>
<g id="a_node3"><a xlink:href="CatmullClarkSubdivider_8hpp.html" target="_top" xlink:title="/home/travis/build\l/STORM&#45;IRIT/Radium&#45;Engine\l/src/Core/Algorithm/Subdivision\l/CatmullClarkSubdivider.hpp">
<polygon fill="white" stroke="black" points="-0.5,-91 -0.5,-143 154.5,-143 154.5,-91 -0.5,-91"/>
<text text-anchor="start" x="7.5" y="-131" font-family="Helvetica,sans-Serif" font-size="10.00">/home/travis/build</text>
<text text-anchor="start" x="7.5" y="-120" font-family="Helvetica,sans-Serif" font-size="10.00">/STORM&#45;IRIT/Radium&#45;Engine</text>
<text text-anchor="start" x="7.5" y="-109" font-family="Helvetica,sans-Serif" font-size="10.00">/src/Core/Algorithm/Subdivision</text>
<text text-anchor="middle" x="77" y="-98" font-family="Helvetica,sans-Serif" font-size="10.00">/CatmullClarkSubdivider.hpp</text>
</a>
</g>
</g>
<!-- Node2&#45;&gt;Node3 -->
<g id="edge2" class="edge"><title>Node2&#45;&gt;Node3</title>
<path fill="none" stroke="midnightblue" d="M417.692,-192.146C346.809,-181.186 248.338,-164.361 163,-144 160.269,-143.348 157.497,-142.66 154.703,-141.943"/>
<polygon fill="midnightblue" stroke="midnightblue" points="417.53,-195.662 427.946,-193.72 418.593,-188.743 417.53,-195.662"/>
</g>
<!-- Node5 -->
<g id="node5" class="node"><title>Node5</title>
<g id="a_node5"><a xlink:href="LoopSubdivider_8hpp.html" target="_top" xlink:title="/home/travis/build\l/STORM&#45;IRIT/Radium&#45;Engine\l/src/Core/Algorithm/Subdivision\l/LoopSubdivider.hpp">
<polygon fill="white" stroke="black" points="345.5,-91 345.5,-143 500.5,-143 500.5,-91 345.5,-91"/>
<text text-anchor="start" x="353.5" y="-131" font-family="Helvetica,sans-Serif" font-size="10.00">/home/travis/build</text>
<text text-anchor="start" x="353.5" y="-120" font-family="Helvetica,sans-Serif" font-size="10.00">/STORM&#45;IRIT/Radium&#45;Engine</text>
<text text-anchor="start" x="353.5" y="-109" font-family="Helvetica,sans-Serif" font-size="10.00">/src/Core/Algorithm/Subdivision</text>
<text text-anchor="middle" x="423" y="-98" font-family="Helvetica,sans-Serif" font-size="10.00">/LoopSubdivider.hpp</text>
</a>
</g>
</g>
<!-- Node2&#45;&gt;Node5 -->
<g id="edge4" class="edge"><title>Node2&#45;&gt;Node5</title>
<path fill="none" stroke="midnightblue" d="M480.32,-173.431C469.955,-163.407 458.71,-152.533 448.948,-143.092"/>
<polygon fill="midnightblue" stroke="midnightblue" points="478.057,-176.111 487.679,-180.547 482.923,-171.079 478.057,-176.111"/>
</g>
<!-- Node7 -->
<g id="node7" class="node"><title>Node7</title>
<g id="a_node7"><a xlink:href="SubdividerUtils_8hpp.html" target="_top" xlink:title="/home/travis/build\l/STORM&#45;IRIT/Radium&#45;Engine\l/src/Core/Algorithm/Subdivision\l/SubdividerUtils.hpp">
<polygon fill="white" stroke="black" points="172.5,-91 172.5,-143 327.5,-143 327.5,-91 172.5,-91"/>
<text text-anchor="start" x="180.5" y="-131" font-family="Helvetica,sans-Serif" font-size="10.00">/home/travis/build</text>
<text text-anchor="start" x="180.5" y="-120" font-family="Helvetica,sans-Serif" font-size="10.00">/STORM&#45;IRIT/Radium&#45;Engine</text>
<text text-anchor="start" x="180.5" y="-109" font-family="Helvetica,sans-Serif" font-size="10.00">/src/Core/Algorithm/Subdivision</text>
<text text-anchor="middle" x="250" y="-98" font-family="Helvetica,sans-Serif" font-size="10.00">/SubdividerUtils.hpp</text>
</a>
</g>
</g>
<!-- Node2&#45;&gt;Node7 -->
<g id="edge6" class="edge"><title>Node2&#45;&gt;Node7</title>
<path fill="none" stroke="midnightblue" d="M428.976,-177.659C395.65,-166.55 357.73,-153.91 325.399,-143.133"/>
<polygon fill="midnightblue" stroke="midnightblue" points="428.108,-181.059 438.702,-180.901 430.321,-174.418 428.108,-181.059"/>
</g>
<!-- Node8 -->
<g id="node8" class="node"><title>Node8</title>
<g id="a_node8"><a xlink:href="TopologicalTriMesh_2Operations_2EdgeSplit_8hpp.html" target="_top" xlink:title="/home/travis/build\l/STORM&#45;IRIT/Radium&#45;Engine\l/src/Core/Mesh/TopologicalTriMesh\l/Operations/EdgeSplit.hpp">
<polygon fill="white" stroke="black" points="519,-91 519,-143 691,-143 691,-91 519,-91"/>
<text text-anchor="start" x="527" y="-131" font-family="Helvetica,sans-Serif" font-size="10.00">/home/travis/build</text>
<text text-anchor="start" x="527" y="-120" font-family="Helvetica,sans-Serif" font-size="10.00">/STORM&#45;IRIT/Radium&#45;Engine</text>
<text text-anchor="start" x="527" y="-109" font-family="Helvetica,sans-Serif" font-size="10.00">/src/Core/Mesh/TopologicalTriMesh</text>
<text text-anchor="middle" x="605" y="-98" font-family="Helvetica,sans-Serif" font-size="10.00">/Operations/EdgeSplit.hpp</text>
</a>
</g>
</g>
<!-- Node2&#45;&gt;Node8 -->
<g id="edge9" class="edge"><title>Node2&#45;&gt;Node8</title>
<path fill="none" stroke="midnightblue" d="M547.68,-173.431C558.045,-163.407 569.29,-152.533 579.052,-143.092"/>
<polygon fill="midnightblue" stroke="midnightblue" points="545.077,-171.079 540.321,-180.547 549.943,-176.111 545.077,-171.079"/>
</g>
<!-- Node10 -->
<g id="node10" class="node"><title>Node10</title>
<g id="a_node10"><a xlink:href="TopologicalMesh_8cpp.html" target="_top" xlink:title="/home/travis/build\l/STORM&#45;IRIT/Radium&#45;Engine\l/src/Core/Mesh/TopologicalTriMesh\l/TopologicalMesh.cpp">
<polygon fill="white" stroke="black" points="709,-91 709,-143 881,-143 881,-91 709,-91"/>
<text text-anchor="start" x="717" y="-131" font-family="Helvetica,sans-Serif" font-size="10.00">/home/travis/build</text>
<text text-anchor="start" x="717" y="-120" font-family="Helvetica,sans-Serif" font-size="10.00">/STORM&#45;IRIT/Radium&#45;Engine</text>
<text text-anchor="start" x="717" y="-109" font-family="Helvetica,sans-Serif" font-size="10.00">/src/Core/Mesh/TopologicalTriMesh</text>
<text text-anchor="middle" x="795" y="-98" font-family="Helvetica,sans-Serif" font-size="10.00">/TopologicalMesh.cpp</text>
</a>
</g>
</g>
<!-- Node2&#45;&gt;Node10 -->
<g id="edge11" class="edge"><title>Node2&#45;&gt;Node10</title>
<path fill="none" stroke="midnightblue" d="M604.042,-177.802C639.624,-166.659 680.185,-153.956 714.746,-143.133"/>
<polygon fill="midnightblue" stroke="midnightblue" points="602.644,-174.572 594.147,-180.901 604.736,-181.252 602.644,-174.572"/>
</g>
<!-- Node11 -->
<g id="node11" class="node"><title>Node11</title>
<g id="a_node11"><a xlink:href="Tests_2CoreTests_2src_2TopologicalMesh_8hpp.html" target="_top" xlink:title="/home/travis/build\l/STORM&#45;IRIT/Radium&#45;Engine\l/src/Tests/CoreTests/src\l/TopologicalMesh.hpp">
<polygon fill="white" stroke="black" points="899,-91 899,-143 1047,-143 1047,-91 899,-91"/>
<text text-anchor="start" x="907" y="-131" font-family="Helvetica,sans-Serif" font-size="10.00">/home/travis/build</text>
<text text-anchor="start" x="907" y="-120" font-family="Helvetica,sans-Serif" font-size="10.00">/STORM&#45;IRIT/Radium&#45;Engine</text>
<text text-anchor="start" x="907" y="-109" font-family="Helvetica,sans-Serif" font-size="10.00">/src/Tests/CoreTests/src</text>
<text text-anchor="middle" x="973" y="-98" font-family="Helvetica,sans-Serif" font-size="10.00">/TopologicalMesh.hpp</text>
</a>
</g>
</g>
<!-- Node2&#45;&gt;Node11 -->
<g id="edge13" class="edge"><title>Node2&#45;&gt;Node11</title>
<path fill="none" stroke="midnightblue" d="M610.262,-193.916C686.668,-183.416 795.909,-166.378 890,-144 892.938,-143.301 895.924,-142.553 898.931,-141.767"/>
<polygon fill="midnightblue" stroke="midnightblue" points="609.61,-190.472 600.174,-195.29 610.555,-197.408 609.61,-190.472"/>
</g>
<!-- Node4 -->
<g id="node4" class="node"><title>Node4</title>
<g id="a_node4"><a xlink:href="CatmullClarkSubdivider_8cpp.html" target="_top" xlink:title="/home/travis/build\l/STORM&#45;IRIT/Radium&#45;Engine\l/src/Core/Algorithm/Subdivision\l/CatmullClarkSubdivider.cpp">
<polygon fill="white" stroke="black" points="42.5,-1 42.5,-53 197.5,-53 197.5,-1 42.5,-1"/>
<text text-anchor="start" x="50.5" y="-41" font-family="Helvetica,sans-Serif" font-size="10.00">/home/travis/build</text>
<text text-anchor="start" x="50.5" y="-30" font-family="Helvetica,sans-Serif" font-size="10.00">/STORM&#45;IRIT/Radium&#45;Engine</text>
<text text-anchor="start" x="50.5" y="-19" font-family="Helvetica,sans-Serif" font-size="10.00">/src/Core/Algorithm/Subdivision</text>
<text text-anchor="middle" x="120" y="-8" font-family="Helvetica,sans-Serif" font-size="10.00">/CatmullClarkSubdivider.cpp</text>
</a>
</g>
</g>
<!-- Node3&#45;&gt;Node4 -->
<g id="edge3" class="edge"><title>Node3&#45;&gt;Node4</title>
<path fill="none" stroke="midnightblue" d="M93.9186,-81.376C98.5316,-71.9354 103.44,-61.8909 107.739,-53.0921"/>
<polygon fill="midnightblue" stroke="midnightblue" points="90.683,-80.0254 89.4374,-90.5468 96.9724,-83.0986 90.683,-80.0254"/>
</g>
<!-- Node6 -->
<g id="node6" class="node"><title>Node6</title>
<g id="a_node6"><a xlink:href="LoopSubdivider_8cpp.html" target="_top" xlink:title="/home/travis/build\l/STORM&#45;IRIT/Radium&#45;Engine\l/src/Core/Algorithm/Subdivision\l/LoopSubdivider.cpp">
<polygon fill="white" stroke="black" points="301.5,-1 301.5,-53 456.5,-53 456.5,-1 301.5,-1"/>
<text text-anchor="start" x="309.5" y="-41" font-family="Helvetica,sans-Serif" font-size="10.00">/home/travis/build</text>
<text text-anchor="start" x="309.5" y="-30" font-family="Helvetica,sans-Serif" font-size="10.00">/STORM&#45;IRIT/Radium&#45;Engine</text>
<text text-anchor="start" x="309.5" y="-19" font-family="Helvetica,sans-Serif" font-size="10.00">/src/Core/Algorithm/Subdivision</text>
<text text-anchor="middle" x="379" y="-8" font-family="Helvetica,sans-Serif" font-size="10.00">/LoopSubdivider.cpp</text>
</a>
</g>
</g>
<!-- Node5&#45;&gt;Node6 -->
<g id="edge5" class="edge"><title>Node5&#45;&gt;Node6</title>
<path fill="none" stroke="midnightblue" d="M405.688,-81.376C400.968,-71.9354 395.945,-61.8909 391.546,-53.0921"/>
<polygon fill="midnightblue" stroke="midnightblue" points="402.671,-83.1677 410.273,-90.5468 408.932,-80.0372 402.671,-83.1677"/>
</g>
<!-- Node7&#45;&gt;Node4 -->
<g id="edge7" class="edge"><title>Node7&#45;&gt;Node4</title>
<path fill="none" stroke="midnightblue" d="M204.373,-85.1143C188.959,-74.6802 171.946,-63.1632 157.258,-53.221"/>
<polygon fill="midnightblue" stroke="midnightblue" points="202.504,-88.0754 212.747,-90.7827 206.428,-82.2786 202.504,-88.0754"/>
</g>
<!-- Node7&#45;&gt;Node6 -->
<g id="edge8" class="edge"><title>Node7&#45;&gt;Node6</title>
<path fill="none" stroke="midnightblue" d="M295.276,-85.1143C310.571,-74.6802 327.454,-63.1632 342.028,-53.221"/>
<polygon fill="midnightblue" stroke="midnightblue" points="293.255,-82.256 286.966,-90.7827 297.2,-88.0387 293.255,-82.256"/>
</g>
<!-- Node9 -->
<g id="node9" class="node"><title>Node9</title>
<g id="a_node9"><a xlink:href="TopologicalTriMesh_2Operations_2EdgeSplit_8cpp.html" target="_top" xlink:title="/home/travis/build\l/STORM&#45;IRIT/Radium&#45;Engine\l/src/Core/Mesh/TopologicalTriMesh\l/Operations/EdgeSplit.cpp">
<polygon fill="white" stroke="black" points="519,-1 519,-53 691,-53 691,-1 519,-1"/>
<text text-anchor="start" x="527" y="-41" font-family="Helvetica,sans-Serif" font-size="10.00">/home/travis/build</text>
<text text-anchor="start" x="527" y="-30" font-family="Helvetica,sans-Serif" font-size="10.00">/STORM&#45;IRIT/Radium&#45;Engine</text>
<text text-anchor="start" x="527" y="-19" font-family="Helvetica,sans-Serif" font-size="10.00">/src/Core/Mesh/TopologicalTriMesh</text>
<text text-anchor="middle" x="605" y="-8" font-family="Helvetica,sans-Serif" font-size="10.00">/Operations/EdgeSplit.cpp</text>
</a>
</g>
</g>
<!-- Node8&#45;&gt;Node9 -->
<g id="edge10" class="edge"><title>Node8&#45;&gt;Node9</title>
<path fill="none" stroke="midnightblue" d="M605,-80.4892C605,-71.3088 605,-61.616 605,-53.0921"/>
<polygon fill="midnightblue" stroke="midnightblue" points="601.5,-80.5467 605,-90.5468 608.5,-80.5468 601.5,-80.5467"/>
</g>
<!-- Node12 -->
<g id="node12" class="node"><title>Node12</title>
<g id="a_node12"><a xlink:href="main_8cpp.html" target="_top" xlink:title="/home/travis/build\l/STORM&#45;IRIT/Radium&#45;Engine\l/src/Tests/CoreTests/src\l/main.cpp">
<polygon fill="white" stroke="black" points="899,-1 899,-53 1047,-53 1047,-1 899,-1"/>
<text text-anchor="start" x="907" y="-41" font-family="Helvetica,sans-Serif" font-size="10.00">/home/travis/build</text>
<text text-anchor="start" x="907" y="-30" font-family="Helvetica,sans-Serif" font-size="10.00">/STORM&#45;IRIT/Radium&#45;Engine</text>
<text text-anchor="start" x="907" y="-19" font-family="Helvetica,sans-Serif" font-size="10.00">/src/Tests/CoreTests/src</text>
<text text-anchor="middle" x="973" y="-8" font-family="Helvetica,sans-Serif" font-size="10.00">/main.cpp</text>
</a>
</g>
</g>
<!-- Node11&#45;&gt;Node12 -->
<g id="edge14" class="edge"><title>Node11&#45;&gt;Node12</title>
<path fill="none" stroke="midnightblue" d="M973,-80.4892C973,-71.3088 973,-61.616 973,-53.0921"/>
<polygon fill="midnightblue" stroke="midnightblue" points="969.5,-80.5467 973,-90.5468 976.5,-80.5468 969.5,-80.5467"/>
</g>
</g>
</svg>
