<?xml version="1.0" encoding="UTF-8" standalone="no"?>
<!DOCTYPE svg PUBLIC "-//W3C//DTD SVG 1.1//EN"
 "http://www.w3.org/Graphics/SVG/1.1/DTD/svg11.dtd">
<!-- Generated by graphviz version 2.36.0 (20140111.2315)
 -->
<!-- Title: /home/travis/build/STORM&#45;IRIT/Radium&#45;Engine/src/GuiBase/Viewer/TrackballCamera.hpp Pages: 1 -->
<svg width="1531pt" height="398pt"
 viewBox="0.00 0.00 1531.00 398.00" xmlns="http://www.w3.org/2000/svg" xmlns:xlink="http://www.w3.org/1999/xlink">
<g id="graph0" class="graph" transform="scale(1 1) rotate(0) translate(4 394)">
<title>/home/travis/build/STORM&#45;IRIT/Radium&#45;Engine/src/GuiBase/Viewer/TrackballCamera.hpp</title>
<polygon fill="white" stroke="none" points="-4,4 -4,-394 1527,-394 1527,4 -4,4"/>
<!-- Node1 -->
<g id="node1" class="node"><title>Node1</title>
<polygon fill="#bfbfbf" stroke="black" points="177.5,-348.5 177.5,-389.5 380.5,-389.5 380.5,-348.5 177.5,-348.5"/>
<text text-anchor="start" x="185.5" y="-377.5" font-family="Helvetica,sans-Serif" font-size="10.00">/home/travis/build</text>
<text text-anchor="start" x="185.5" y="-366.5" font-family="Helvetica,sans-Serif" font-size="10.00">/STORM&#45;IRIT/Radium&#45;Engine</text>
<text text-anchor="middle" x="279" y="-355.5" font-family="Helvetica,sans-Serif" font-size="10.00">/src/GuiBase/Viewer/TrackballCamera.hpp</text>
</g>
<!-- Node2 -->
<g id="node2" class="node"><title>Node2</title>
<g id="a_node2"><a xlink:href="CameraInterface_8hpp.html" target="_top" xlink:title="GuiBase/Viewer/CameraInterface.hpp">
<polygon fill="white" stroke="black" points="188,-292.5 188,-311.5 370,-311.5 370,-292.5 188,-292.5"/>
<text text-anchor="middle" x="279" y="-299.5" font-family="Helvetica,sans-Serif" font-size="10.00">GuiBase/Viewer/CameraInterface.hpp</text>
</a>
</g>
</g>
<!-- Node1&#45;&gt;Node2 -->
<g id="edge1" class="edge"><title>Node1&#45;&gt;Node2</title>
<path fill="none" stroke="midnightblue" d="M279,-348.498C279,-340.065 279,-330.235 279,-321.874"/>
<polygon fill="midnightblue" stroke="midnightblue" points="282.5,-321.652 279,-311.652 275.5,-321.653 282.5,-321.652"/>
</g>
<!-- Node3 -->
<g id="node3" class="node"><title>Node3</title>
<polygon fill="white" stroke="#bfbfbf" points="0,-236.5 0,-255.5 52,-255.5 52,-236.5 0,-236.5"/>
<text text-anchor="middle" x="26" y="-243.5" font-family="Helvetica,sans-Serif" font-size="10.00">memory</text>
</g>
<!-- Node2&#45;&gt;Node3 -->
<g id="edge2" class="edge"><title>Node2&#45;&gt;Node3</title>
<path fill="none" stroke="midnightblue" d="M234.606,-292.486C192.614,-284.288 127.597,-271.221 62.3818,-256.24"/>
<polygon fill="midnightblue" stroke="midnightblue" points="62.8714,-252.761 52.34,-253.918 61.2945,-259.581 62.8714,-252.761"/>
</g>
<!-- Node4 -->
<g id="node4" class="node"><title>Node4</title>
<polygon fill="white" stroke="#bfbfbf" points="70.5,-236.5 70.5,-255.5 137.5,-255.5 137.5,-236.5 70.5,-236.5"/>
<text text-anchor="middle" x="104" y="-243.5" font-family="Helvetica,sans-Serif" font-size="10.00">QKeyEvent</text>
</g>
<!-- Node2&#45;&gt;Node4 -->
<g id="edge3" class="edge"><title>Node2&#45;&gt;Node4</title>
<path fill="none" stroke="midnightblue" d="M251.271,-292.444C221.574,-283.28 174.284,-268.688 141.331,-258.519"/>
<polygon fill="midnightblue" stroke="midnightblue" points="142.187,-255.121 131.6,-255.516 140.123,-261.809 142.187,-255.121"/>
</g>
<!-- Node5 -->
<g id="node5" class="node"><title>Node5</title>
<polygon fill="white" stroke="#bfbfbf" points="155.5,-236.5 155.5,-255.5 234.5,-255.5 234.5,-236.5 155.5,-236.5"/>
<text text-anchor="middle" x="195" y="-243.5" font-family="Helvetica,sans-Serif" font-size="10.00">QMouseEvent</text>
</g>
<!-- Node2&#45;&gt;Node5 -->
<g id="edge4" class="edge"><title>Node2&#45;&gt;Node5</title>
<path fill="none" stroke="midnightblue" d="M265.504,-292.324C252.4,-283.9 232.288,-270.971 216.893,-261.074"/>
<polygon fill="midnightblue" stroke="midnightblue" points="218.767,-258.118 208.463,-255.655 214.982,-264.006 218.767,-258.118"/>
</g>
<!-- Node6 -->
<g id="node6" class="node"><title>Node6</title>
<polygon fill="white" stroke="#bfbfbf" points="252.5,-236.5 252.5,-255.5 305.5,-255.5 305.5,-236.5 252.5,-236.5"/>
<text text-anchor="middle" x="279" y="-243.5" font-family="Helvetica,sans-Serif" font-size="10.00">QObject</text>
</g>
<!-- Node2&#45;&gt;Node6 -->
<g id="edge5" class="edge"><title>Node2&#45;&gt;Node6</title>
<path fill="none" stroke="midnightblue" d="M279,-292.083C279,-285.006 279,-274.861 279,-265.986"/>
<polygon fill="midnightblue" stroke="midnightblue" points="282.5,-265.751 279,-255.751 275.5,-265.751 282.5,-265.751"/>
</g>
<!-- Node7 -->
<g id="node7" class="node"><title>Node7</title>
<g id="a_node7"><a xlink:href="CoreMacros_8hpp.html" target="_top" xlink:title="Core/CoreMacros.hpp">
<polygon fill="white" stroke="black" points="370.5,-56.5 370.5,-75.5 483.5,-75.5 483.5,-56.5 370.5,-56.5"/>
<text text-anchor="middle" x="427" y="-63.5" font-family="Helvetica,sans-Serif" font-size="10.00">Core/CoreMacros.hpp</text>
</a>
</g>
</g>
<!-- Node2&#45;&gt;Node7 -->
<g id="edge6" class="edge"><title>Node2&#45;&gt;Node7</title>
<path fill="none" stroke="midnightblue" d="M286.645,-292.495C294.231,-283.77 305.87,-269.59 314,-256 335.962,-219.288 331.568,-205.024 353,-168 371.227,-136.514 397.251,-103.027 413.086,-83.6144"/>
<polygon fill="midnightblue" stroke="midnightblue" points="415.916,-85.684 419.58,-75.743 410.516,-81.2293 415.916,-85.684"/>
</g>
<!-- Node13 -->
<g id="node13" class="node"><title>Node13</title>
<g id="a_node13"><a xlink:href="Log_8hpp.html" target="_top" xlink:title="Core/Log/Log.hpp">
<polygon fill="white" stroke="black" points="389,-236.5 389,-255.5 483,-255.5 483,-236.5 389,-236.5"/>
<text text-anchor="middle" x="436" y="-243.5" font-family="Helvetica,sans-Serif" font-size="10.00">Core/Log/Log.hpp</text>
</a>
</g>
</g>
<!-- Node2&#45;&gt;Node13 -->
<g id="edge12" class="edge"><title>Node2&#45;&gt;Node13</title>
<path fill="none" stroke="midnightblue" d="M303.877,-292.444C330.289,-283.359 372.215,-268.939 401.742,-258.783"/>
<polygon fill="midnightblue" stroke="midnightblue" points="402.921,-262.079 411.239,-255.516 400.645,-255.459 402.921,-262.079"/>
</g>
<!-- Node20 -->
<g id="node20" class="node"><title>Node20</title>
<g id="a_node20"><a xlink:href="LinearAlgebra_8hpp.html" target="_top" xlink:title="Core/Math/LinearAlgebra.hpp">
<polygon fill="white" stroke="black" points="977.5,-236.5 977.5,-255.5 1120.5,-255.5 1120.5,-236.5 977.5,-236.5"/>
<text text-anchor="middle" x="1049" y="-243.5" font-family="Helvetica,sans-Serif" font-size="10.00">Core/Math/LinearAlgebra.hpp</text>
</a>
</g>
</g>
<!-- Node2&#45;&gt;Node20 -->
<g id="edge23" class="edge"><title>Node2&#45;&gt;Node20</title>
<path fill="none" stroke="midnightblue" d="M370.353,-294.593C521.784,-283.974 822.437,-262.889 967.266,-252.732"/>
<polygon fill="midnightblue" stroke="midnightblue" points="967.69,-256.211 977.42,-252.02 967.2,-249.228 967.69,-256.211"/>
</g>
<!-- Node8 -->
<g id="node8" class="node"><title>Node8</title>
<polygon fill="white" stroke="#bfbfbf" points="402.5,-0.5 402.5,-19.5 451.5,-19.5 451.5,-0.5 402.5,-0.5"/>
<text text-anchor="middle" x="427" y="-7.5" font-family="Helvetica,sans-Serif" font-size="10.00">cassert</text>
</g>
<!-- Node7&#45;&gt;Node8 -->
<g id="edge7" class="edge"><title>Node7&#45;&gt;Node8</title>
<path fill="none" stroke="midnightblue" d="M427,-56.083C427,-49.0059 427,-38.8611 427,-29.9865"/>
<polygon fill="midnightblue" stroke="midnightblue" points="430.5,-29.751 427,-19.7511 423.5,-29.7511 430.5,-29.751"/>
</g>
<!-- Node9 -->
<g id="node9" class="node"><title>Node9</title>
<polygon fill="white" stroke="#bfbfbf" points="469.5,-0.5 469.5,-19.5 512.5,-19.5 512.5,-0.5 469.5,-0.5"/>
<text text-anchor="middle" x="491" y="-7.5" font-family="Helvetica,sans-Serif" font-size="10.00">cstdio</text>
</g>
<!-- Node7&#45;&gt;Node9 -->
<g id="edge8" class="edge"><title>Node7&#45;&gt;Node9</title>
<path fill="none" stroke="midnightblue" d="M437.283,-56.324C446.836,-48.2631 461.28,-36.0765 472.784,-26.3695"/>
<polygon fill="midnightblue" stroke="midnightblue" points="475.144,-28.9577 480.53,-19.8339 470.63,-23.6076 475.144,-28.9577"/>
</g>
<!-- Node10 -->
<g id="node10" class="node"><title>Node10</title>
<polygon fill="white" stroke="#bfbfbf" points="531,-0.5 531,-19.5 585,-19.5 585,-0.5 531,-0.5"/>
<text text-anchor="middle" x="558" y="-7.5" font-family="Helvetica,sans-Serif" font-size="10.00">iostream</text>
</g>
<!-- Node7&#45;&gt;Node10 -->
<g id="edge9" class="edge"><title>Node7&#45;&gt;Node10</title>
<path fill="none" stroke="midnightblue" d="M447.757,-56.4435C469.316,-47.5566 503.263,-33.5632 527.794,-23.4514"/>
<polygon fill="midnightblue" stroke="midnightblue" points="529.428,-26.5634 537.34,-19.5164 526.761,-20.0917 529.428,-26.5634"/>
</g>
<!-- Node11 -->
<g id="node11" class="node"><title>Node11</title>
<polygon fill="white" stroke="#bfbfbf" points="270,-0.5 270,-19.5 322,-19.5 322,-0.5 270,-0.5"/>
<text text-anchor="middle" x="296" y="-7.5" font-family="Helvetica,sans-Serif" font-size="10.00">sstream</text>
</g>
<!-- Node7&#45;&gt;Node11 -->
<g id="edge10" class="edge"><title>Node7&#45;&gt;Node11</title>
<path fill="none" stroke="midnightblue" d="M406.243,-56.4435C384.684,-47.5566 350.737,-33.5632 326.206,-23.4514"/>
<polygon fill="midnightblue" stroke="midnightblue" points="327.239,-20.0917 316.66,-19.5164 324.572,-26.5634 327.239,-20.0917"/>
</g>
<!-- Node12 -->
<g id="node12" class="node"><title>Node12</title>
<polygon fill="white" stroke="#bfbfbf" points="340,-0.5 340,-19.5 384,-19.5 384,-0.5 340,-0.5"/>
<text text-anchor="middle" x="362" y="-7.5" font-family="Helvetica,sans-Serif" font-size="10.00">thread</text>
</g>
<!-- Node7&#45;&gt;Node12 -->
<g id="edge11" class="edge"><title>Node7&#45;&gt;Node12</title>
<path fill="none" stroke="midnightblue" d="M416.557,-56.324C406.854,-48.2631 392.185,-36.0765 380.5,-26.3695"/>
<polygon fill="midnightblue" stroke="midnightblue" points="382.562,-23.532 372.633,-19.8339 378.089,-28.9163 382.562,-23.532"/>
</g>
<!-- Node13&#45;&gt;Node11 -->
<g id="edge15" class="edge"><title>Node13&#45;&gt;Node11</title>
<path fill="none" stroke="midnightblue" d="M408.852,-236.464C390.621,-229.415 367.387,-217.667 353,-200 311.014,-148.444 299.929,-66.4859 297.022,-29.8136"/>
<polygon fill="midnightblue" stroke="midnightblue" points="300.498,-29.3376 296.337,-19.5941 293.514,-29.8059 300.498,-29.3376"/>
</g>
<!-- Node14 -->
<g id="node14" class="node"><title>Node14</title>
<g id="a_node14"><a xlink:href="RaCore_8hpp.html" target="_top" xlink:title="Core/RaCore.hpp">
<polygon fill="white" stroke="black" points="639.5,-112.5 639.5,-131.5 732.5,-131.5 732.5,-112.5 639.5,-112.5"/>
<text text-anchor="middle" x="686" y="-119.5" font-family="Helvetica,sans-Serif" font-size="10.00">Core/RaCore.hpp</text>
</a>
</g>
</g>
<!-- Node13&#45;&gt;Node14 -->
<g id="edge13" class="edge"><title>Node13&#45;&gt;Node14</title>
<path fill="none" stroke="midnightblue" d="M483.229,-241.618C542.672,-236.397 640.145,-224.326 666,-200 681.843,-185.094 685.762,-159.384 686.432,-141.806"/>
<polygon fill="midnightblue" stroke="midnightblue" points="689.933,-141.646 686.496,-131.624 682.933,-141.602 689.933,-141.646"/>
</g>
<!-- Node15 -->
<g id="node15" class="node"><title>Node15</title>
<polygon fill="white" stroke="#bfbfbf" points="362,-174.5 362,-193.5 408,-193.5 408,-174.5 362,-174.5"/>
<text text-anchor="middle" x="385" y="-181.5" font-family="Helvetica,sans-Serif" font-size="10.00">stdio.h</text>
</g>
<!-- Node13&#45;&gt;Node15 -->
<g id="edge16" class="edge"><title>Node13&#45;&gt;Node15</title>
<path fill="none" stroke="midnightblue" d="M428.693,-236.403C420.967,-227.314 408.592,-212.756 398.982,-201.449"/>
<polygon fill="midnightblue" stroke="midnightblue" points="401.437,-198.933 392.294,-193.581 396.103,-203.467 401.437,-198.933"/>
</g>
<!-- Node16 -->
<g id="node16" class="node"><title>Node16</title>
<polygon fill="white" stroke="#bfbfbf" points="432.5,-112.5 432.5,-131.5 473.5,-131.5 473.5,-112.5 432.5,-112.5"/>
<text text-anchor="middle" x="453" y="-119.5" font-family="Helvetica,sans-Serif" font-size="10.00">string</text>
</g>
<!-- Node13&#45;&gt;Node16 -->
<g id="edge17" class="edge"><title>Node13&#45;&gt;Node16</title>
<path fill="none" stroke="midnightblue" d="M437.223,-236.226C439.967,-216.53 446.669,-168.437 450.394,-141.7"/>
<polygon fill="midnightblue" stroke="midnightblue" points="453.875,-142.082 451.788,-131.694 446.942,-141.116 453.875,-142.082"/>
</g>
<!-- Node17 -->
<g id="node17" class="node"><title>Node17</title>
<g id="a_node17"><a xlink:href="StringUtils_8hpp.html" target="_top" xlink:title="Core/String/StringUtils.hpp">
<polygon fill="white" stroke="black" points="464,-174.5 464,-193.5 598,-193.5 598,-174.5 464,-174.5"/>
<text text-anchor="middle" x="531" y="-181.5" font-family="Helvetica,sans-Serif" font-size="10.00">Core/String/StringUtils.hpp</text>
</a>
</g>
</g>
<!-- Node13&#45;&gt;Node17 -->
<g id="edge18" class="edge"><title>Node13&#45;&gt;Node17</title>
<path fill="none" stroke="midnightblue" d="M449.611,-236.403C465.061,-226.646 490.49,-210.585 508.816,-199.011"/>
<polygon fill="midnightblue" stroke="midnightblue" points="510.828,-201.88 517.414,-193.581 507.09,-195.961 510.828,-201.88"/>
</g>
<!-- Node19 -->
<g id="node19" class="node"><title>Node19</title>
<polygon fill="white" stroke="#bfbfbf" points="616.5,-174.5 616.5,-193.5 657.5,-193.5 657.5,-174.5 616.5,-174.5"/>
<text text-anchor="middle" x="637" y="-181.5" font-family="Helvetica,sans-Serif" font-size="10.00">ctime</text>
</g>
<!-- Node13&#45;&gt;Node19 -->
<g id="edge22" class="edge"><title>Node13&#45;&gt;Node19</title>
<path fill="none" stroke="midnightblue" d="M478.216,-236.443C513.293,-228.731 564.2,-216.134 607,-200 608.648,-199.379 610.326,-198.695 612.003,-197.972"/>
<polygon fill="midnightblue" stroke="midnightblue" points="613.826,-200.982 621.393,-193.566 610.853,-194.645 613.826,-200.982"/>
</g>
<!-- Node14&#45;&gt;Node7 -->
<g id="edge14" class="edge"><title>Node14&#45;&gt;Node7</title>
<path fill="none" stroke="midnightblue" d="M644.961,-112.444C599.684,-103.004 526.773,-87.802 477.894,-77.6111"/>
<polygon fill="midnightblue" stroke="midnightblue" points="478.351,-74.1312 467.847,-75.5164 476.922,-80.9839 478.351,-74.1312"/>
</g>
<!-- Node17&#45;&gt;Node14 -->
<g id="edge19" class="edge"><title>Node17&#45;&gt;Node14</title>
<path fill="none" stroke="midnightblue" d="M553.208,-174.403C579.681,-164.156 624.114,-146.956 654.22,-135.302"/>
<polygon fill="midnightblue" stroke="midnightblue" points="655.771,-138.455 663.833,-131.581 653.244,-131.927 655.771,-138.455"/>
</g>
<!-- Node17&#45;&gt;Node16 -->
<g id="edge20" class="edge"><title>Node17&#45;&gt;Node16</title>
<path fill="none" stroke="midnightblue" d="M519.825,-174.403C507.429,-164.869 487.21,-149.315 472.254,-137.811"/>
<polygon fill="midnightblue" stroke="midnightblue" points="474.215,-134.904 464.155,-131.581 469.947,-140.452 474.215,-134.904"/>
</g>
<!-- Node18 -->
<g id="node18" class="node"><title>Node18</title>
<polygon fill="white" stroke="#bfbfbf" points="509,-112.5 509,-131.5 553,-131.5 553,-112.5 509,-112.5"/>
<text text-anchor="middle" x="531" y="-119.5" font-family="Helvetica,sans-Serif" font-size="10.00">vector</text>
</g>
<!-- Node17&#45;&gt;Node18 -->
<g id="edge21" class="edge"><title>Node17&#45;&gt;Node18</title>
<path fill="none" stroke="midnightblue" d="M531,-174.403C531,-165.938 531,-152.728 531,-141.82"/>
<polygon fill="midnightblue" stroke="midnightblue" points="534.5,-141.581 531,-131.581 527.5,-141.581 534.5,-141.581"/>
</g>
<!-- Node20&#45;&gt;Node14 -->
<g id="edge24" class="edge"><title>Node20&#45;&gt;Node14</title>
<path fill="none" stroke="midnightblue" d="M977.358,-240.795C899.607,-235.136 781.404,-223.009 743,-200 719.994,-186.216 703.355,-159.247 694.19,-141.171"/>
<polygon fill="midnightblue" stroke="midnightblue" points="697.25,-139.457 689.77,-131.954 690.938,-142.484 697.25,-139.457"/>
</g>
<!-- Node21 -->
<g id="node21" class="node"><title>Node21</title>
<polygon fill="white" stroke="#bfbfbf" points="1260.5,-174.5 1260.5,-193.5 1325.5,-193.5 1325.5,-174.5 1260.5,-174.5"/>
<text text-anchor="middle" x="1293" y="-181.5" font-family="Helvetica,sans-Serif" font-size="10.00">Eigen/Core</text>
</g>
<!-- Node20&#45;&gt;Node21 -->
<g id="edge25" class="edge"><title>Node20&#45;&gt;Node21</title>
<path fill="none" stroke="midnightblue" d="M1094.08,-236.457C1135.06,-228.325 1197.04,-215.11 1250,-200 1253.37,-199.038 1256.87,-197.959 1260.34,-196.833"/>
<polygon fill="midnightblue" stroke="midnightblue" points="1261.59,-200.104 1269.95,-193.591 1259.35,-193.471 1261.59,-200.104"/>
</g>
<!-- Node22 -->
<g id="node22" class="node"><title>Node22</title>
<polygon fill="white" stroke="#bfbfbf" points="1343.5,-174.5 1343.5,-193.5 1430.5,-193.5 1430.5,-174.5 1343.5,-174.5"/>
<text text-anchor="middle" x="1387" y="-181.5" font-family="Helvetica,sans-Serif" font-size="10.00">Eigen/Geometry</text>
</g>
<!-- Node20&#45;&gt;Node22 -->
<g id="edge26" class="edge"><title>Node20&#45;&gt;Node22</title>
<path fill="none" stroke="midnightblue" d="M1117.67,-236.496C1175.66,-228.756 1260.73,-216.092 1334,-200 1339.01,-198.9 1344.24,-197.603 1349.39,-196.239"/>
<polygon fill="midnightblue" stroke="midnightblue" points="1350.39,-199.595 1359.1,-193.569 1348.53,-192.846 1350.39,-199.595"/>
</g>
<!-- Node23 -->
<g id="node23" class="node"><title>Node23</title>
<polygon fill="white" stroke="#bfbfbf" points="1448.5,-174.5 1448.5,-193.5 1523.5,-193.5 1523.5,-174.5 1448.5,-174.5"/>
<text text-anchor="middle" x="1486" y="-181.5" font-family="Helvetica,sans-Serif" font-size="10.00">Eigen/Sparse</text>
</g>
<!-- Node20&#45;&gt;Node23 -->
<g id="edge27" class="edge"><title>Node20&#45;&gt;Node23</title>
<path fill="none" stroke="midnightblue" d="M1120.84,-240.901C1199.61,-235.438 1329.39,-223.581 1439,-200 1443.45,-199.042 1448.09,-197.834 1452.63,-196.522"/>
<polygon fill="midnightblue" stroke="midnightblue" points="1453.8,-199.824 1462.33,-193.54 1451.75,-193.133 1453.8,-199.824"/>
</g>
<!-- Node24 -->
<g id="node24" class="node"><title>Node24</title>
<polygon fill="white" stroke="#bfbfbf" points="752.5,-174.5 752.5,-193.5 811.5,-193.5 811.5,-174.5 752.5,-174.5"/>
<text text-anchor="middle" x="782" y="-181.5" font-family="Helvetica,sans-Serif" font-size="10.00">functional</text>
</g>
<!-- Node20&#45;&gt;Node24 -->
<g id="edge28" class="edge"><title>Node20&#45;&gt;Node24</title>
<path fill="none" stroke="midnightblue" d="M989.937,-236.427C943.27,-228.929 876.769,-216.632 820,-200 817.192,-199.177 814.303,-198.23 811.431,-197.221"/>
<polygon fill="midnightblue" stroke="midnightblue" points="812.47,-193.872 801.878,-193.634 810.009,-200.426 812.47,-193.872"/>
</g>
<!-- Node25 -->
<g id="node25" class="node"><title>Node25</title>
<polygon fill="white" stroke="#bfbfbf" points="829.5,-169 829.5,-199 962.5,-199 962.5,-169 829.5,-169"/>
<text text-anchor="start" x="837.5" y="-187" font-family="Helvetica,sans-Serif" font-size="10.00">unsupported/Eigen/Aligned</text>
<text text-anchor="middle" x="896" y="-176" font-family="Helvetica,sans-Serif" font-size="10.00">Vector3</text>
</g>
<!-- Node20&#45;&gt;Node25 -->
<g id="edge29" class="edge"><title>Node20&#45;&gt;Node25</title>
<path fill="none" stroke="midnightblue" d="M1027.08,-236.403C1004.73,-227.641 969.425,-213.794 941.081,-202.679"/>
<polygon fill="midnightblue" stroke="midnightblue" points="942.352,-199.418 931.765,-199.025 939.796,-205.935 942.352,-199.418"/>
</g>
<!-- Node26 -->
<g id="node26" class="node"><title>Node26</title>
<g id="a_node26"><a xlink:href="Math_8hpp.html" target="_top" xlink:title="Core/Math/Math.hpp">
<polygon fill="white" stroke="black" points="1136,-174.5 1136,-193.5 1242,-193.5 1242,-174.5 1136,-174.5"/>
<text text-anchor="middle" x="1189" y="-181.5" font-family="Helvetica,sans-Serif" font-size="10.00">Core/Math/Math.hpp</text>
</a>
</g>
</g>
<!-- Node20&#45;&gt;Node26 -->
<g id="edge30" class="edge"><title>Node20&#45;&gt;Node26</title>
<path fill="none" stroke="midnightblue" d="M1069.06,-236.403C1092.76,-226.245 1132.41,-209.255 1159.58,-197.607"/>
<polygon fill="midnightblue" stroke="midnightblue" points="1161.17,-200.737 1168.98,-193.581 1158.41,-194.303 1161.17,-200.737"/>
</g>
<!-- Node30 -->
<g id="node30" class="node"><title>Node30</title>
<g id="a_node30"><a xlink:href="LinearAlgebra_8inl.html" target="_top" xlink:title="Core/Math/LinearAlgebra.inl">
<polygon fill="white" stroke="black" points="980.5,-174.5 980.5,-193.5 1117.5,-193.5 1117.5,-174.5 980.5,-174.5"/>
<text text-anchor="middle" x="1049" y="-181.5" font-family="Helvetica,sans-Serif" font-size="10.00">Core/Math/LinearAlgebra.inl</text>
</a>
</g>
</g>
<!-- Node20&#45;&gt;Node30 -->
<g id="edge36" class="edge"><title>Node20&#45;&gt;Node30</title>
<path fill="none" stroke="midnightblue" d="M1049,-236.403C1049,-227.938 1049,-214.728 1049,-203.82"/>
<polygon fill="midnightblue" stroke="midnightblue" points="1052.5,-203.581 1049,-193.581 1045.5,-203.581 1052.5,-203.581"/>
</g>
<!-- Node26&#45;&gt;Node14 -->
<g id="edge31" class="edge"><title>Node26&#45;&gt;Node14</title>
<path fill="none" stroke="midnightblue" d="M1156.79,-174.469C1146.96,-172.098 1136.09,-169.709 1126,-168 989.367,-144.851 826.705,-131.976 742.619,-126.395"/>
<polygon fill="midnightblue" stroke="midnightblue" points="742.722,-122.894 732.515,-125.734 742.265,-129.879 742.722,-122.894"/>
</g>
<!-- Node27 -->
<g id="node27" class="node"><title>Node27</title>
<polygon fill="white" stroke="#bfbfbf" points="1209,-112.5 1209,-131.5 1265,-131.5 1265,-112.5 1209,-112.5"/>
<text text-anchor="middle" x="1237" y="-119.5" font-family="Helvetica,sans-Serif" font-size="10.00">algorithm</text>
</g>
<!-- Node26&#45;&gt;Node27 -->
<g id="edge32" class="edge"><title>Node26&#45;&gt;Node27</title>
<path fill="none" stroke="midnightblue" d="M1195.88,-174.403C1203.15,-165.314 1214.8,-150.756 1223.84,-139.449"/>
<polygon fill="midnightblue" stroke="midnightblue" points="1226.62,-141.576 1230.14,-131.581 1221.16,-137.203 1226.62,-141.576"/>
</g>
<!-- Node28 -->
<g id="node28" class="node"><title>Node28</title>
<polygon fill="white" stroke="#bfbfbf" points="1283,-112.5 1283,-131.5 1327,-131.5 1327,-112.5 1283,-112.5"/>
<text text-anchor="middle" x="1305" y="-119.5" font-family="Helvetica,sans-Serif" font-size="10.00">cmath</text>
</g>
<!-- Node26&#45;&gt;Node28 -->
<g id="edge33" class="edge"><title>Node26&#45;&gt;Node28</title>
<path fill="none" stroke="midnightblue" d="M1205.62,-174.403C1224.92,-164.423 1256.96,-147.849 1279.43,-136.225"/>
<polygon fill="midnightblue" stroke="midnightblue" points="1281.14,-139.284 1288.41,-131.581 1277.92,-133.066 1281.14,-139.284"/>
</g>
<!-- Node29 -->
<g id="node29" class="node"><title>Node29</title>
<g id="a_node29"><a xlink:href="Math_8inl.html" target="_top" xlink:title="Core/Math/Math.inl">
<polygon fill="white" stroke="black" points="1091,-112.5 1091,-131.5 1191,-131.5 1191,-112.5 1091,-112.5"/>
<text text-anchor="middle" x="1141" y="-119.5" font-family="Helvetica,sans-Serif" font-size="10.00">Core/Math/Math.inl</text>
</a>
</g>
</g>
<!-- Node26&#45;&gt;Node29 -->
<g id="edge34" class="edge"><title>Node26&#45;&gt;Node29</title>
<path fill="none" stroke="midnightblue" d="M1177.22,-174.403C1168.17,-165.493 1156.41,-151.325 1148.53,-140.118"/>
<polygon fill="midnightblue" stroke="midnightblue" points="1151.36,-138.048 1142.97,-131.581 1145.49,-141.87 1151.36,-138.048"/>
</g>
<!-- Node29&#45;&gt;Node26 -->
<g id="edge35" class="edge"><title>Node29&#45;&gt;Node26</title>
<path fill="none" stroke="midnightblue" d="M1152.76,-131.581C1161.81,-140.485 1173.57,-154.652 1181.46,-165.862"/>
<polygon fill="midnightblue" stroke="midnightblue" points="1178.63,-167.938 1187.02,-174.403 1184.49,-164.115 1178.63,-167.938"/>
</g>
</g>
</svg>
