<?xml version="1.0" encoding="UTF-8" standalone="no"?>
<!DOCTYPE svg PUBLIC "-//W3C//DTD SVG 1.1//EN"
 "http://www.w3.org/Graphics/SVG/1.1/DTD/svg11.dtd">
<!-- Generated by graphviz version 2.36.0 (20140111.2315)
 -->
<!-- Title: /home/travis/build/STORM&#45;IRIT/Radium&#45;Engine/src/Core/Mesh/DCEL/Iterator/Vertex/VertexIterator.inl Pages: 1 -->
<svg width="1336pt" height="726pt"
 viewBox="0.00 0.00 1335.74 726.00" xmlns="http://www.w3.org/2000/svg" xmlns:xlink="http://www.w3.org/1999/xlink">
<g id="graph0" class="graph" transform="scale(1 1) rotate(0) translate(4 722)">
<title>/home/travis/build/STORM&#45;IRIT/Radium&#45;Engine/src/Core/Mesh/DCEL/Iterator/Vertex/VertexIterator.inl</title>
<polygon fill="white" stroke="none" points="-4,4 -4,-722 1331.74,-722 1331.74,4 -4,4"/>
<!-- Node1 -->
<g id="node1" class="node"><title>Node1</title>
<polygon fill="#bfbfbf" stroke="black" points="514.74,-665 514.74,-717 662.74,-717 662.74,-665 514.74,-665"/>
<text text-anchor="start" x="522.74" y="-705" font-family="Helvetica,sans-Serif" font-size="10.00">/home/travis/build</text>
<text text-anchor="start" x="522.74" y="-694" font-family="Helvetica,sans-Serif" font-size="10.00">/STORM&#45;IRIT/Radium&#45;Engine</text>
<text text-anchor="start" x="522.74" y="-683" font-family="Helvetica,sans-Serif" font-size="10.00">/src/Core/Mesh/DCEL/Iterator</text>
<text text-anchor="middle" x="588.74" y="-672" font-family="Helvetica,sans-Serif" font-size="10.00">/Vertex/VertexIterator.inl</text>
</g>
<!-- Node2 -->
<g id="node2" class="node"><title>Node2</title>
<g id="a_node2"><a xlink:href="VertexIterator_8hpp.html" target="_top" xlink:title="Core/Mesh/DCEL/Iterator\l/Vertex/VertexIterator.hpp">
<polygon fill="white" stroke="black" points="524.24,-597 524.24,-627 653.24,-627 653.24,-597 524.24,-597"/>
<text text-anchor="start" x="532.24" y="-615" font-family="Helvetica,sans-Serif" font-size="10.00">Core/Mesh/DCEL/Iterator</text>
<text text-anchor="middle" x="588.74" y="-604" font-family="Helvetica,sans-Serif" font-size="10.00">/Vertex/VertexIterator.hpp</text>
</a>
</g>
</g>
<!-- Node1&#45;&gt;Node2 -->
<g id="edge1" class="edge"><title>Node1&#45;&gt;Node2</title>
<path fill="none" stroke="midnightblue" d="M582.361,-664.787C581.847,-655.932 581.867,-646.007 582.42,-637.234"/>
<polygon fill="midnightblue" stroke="midnightblue" points="585.907,-637.536 583.359,-627.252 578.938,-636.88 585.907,-637.536"/>
</g>
<!-- Node23 -->
<g id="node23" class="node"><title>Node23</title>
<g id="a_node23"><a xlink:href="Vertex_8hpp.html" target="_top" xlink:title="Core/Mesh/DCEL/Vertex.hpp">
<polygon fill="white" stroke="black" points="478.24,-292.5 478.24,-311.5 623.24,-311.5 623.24,-292.5 478.24,-292.5"/>
<text text-anchor="middle" x="550.74" y="-299.5" font-family="Helvetica,sans-Serif" font-size="10.00">Core/Mesh/DCEL/Vertex.hpp</text>
</a>
</g>
</g>
<!-- Node1&#45;&gt;Node23 -->
<g id="edge54" class="edge"><title>Node1&#45;&gt;Node23</title>
<path fill="none" stroke="midnightblue" d="M629.364,-664.891C664.854,-639.485 710.74,-596.651 710.74,-545 710.74,-545 710.74,-545 710.74,-413 710.74,-358.241 646.315,-328.685 599.227,-314.395"/>
<polygon fill="midnightblue" stroke="midnightblue" points="600.05,-310.99 589.471,-311.574 598.105,-317.714 600.05,-310.99"/>
</g>
<!-- Node2&#45;&gt;Node1 -->
<g id="edge53" class="edge"><title>Node2&#45;&gt;Node1</title>
<path fill="none" stroke="midnightblue" d="M594.121,-627.252C595.14,-634.969 595.59,-644.877 595.471,-654.529"/>
<polygon fill="midnightblue" stroke="midnightblue" points="591.964,-654.673 595.119,-664.787 598.96,-654.913 591.964,-654.673"/>
</g>
<!-- Node3 -->
<g id="node3" class="node"><title>Node3</title>
<g id="a_node3"><a xlink:href="Iterator_8hpp.html" target="_top" xlink:title="Core/Mesh/DCEL/Iterator\l/Iterator.hpp">
<polygon fill="white" stroke="black" points="520.74,-529 520.74,-559 648.74,-559 648.74,-529 520.74,-529"/>
<text text-anchor="start" x="528.74" y="-547" font-family="Helvetica,sans-Serif" font-size="10.00">Core/Mesh/DCEL/Iterator</text>
<text text-anchor="middle" x="584.74" y="-536" font-family="Helvetica,sans-Serif" font-size="10.00">/Iterator.hpp</text>
</a>
</g>
</g>
<!-- Node2&#45;&gt;Node3 -->
<g id="edge2" class="edge"><title>Node2&#45;&gt;Node3</title>
<path fill="none" stroke="midnightblue" d="M587.872,-596.679C587.39,-588.722 586.777,-578.605 586.221,-569.436"/>
<polygon fill="midnightblue" stroke="midnightblue" points="589.705,-569.063 585.606,-559.293 582.718,-569.487 589.705,-569.063"/>
</g>
<!-- Node4 -->
<g id="node4" class="node"><title>Node4</title>
<g id="a_node4"><a xlink:href="Definition_8hpp.html" target="_top" xlink:title="Core/Mesh/DCEL/Definition.hpp">
<polygon fill="white" stroke="black" points="366.74,-236.5 366.74,-255.5 524.74,-255.5 524.74,-236.5 366.74,-236.5"/>
<text text-anchor="middle" x="445.74" y="-243.5" font-family="Helvetica,sans-Serif" font-size="10.00">Core/Mesh/DCEL/Definition.hpp</text>
</a>
</g>
</g>
<!-- Node3&#45;&gt;Node4 -->
<g id="edge3" class="edge"><title>Node3&#45;&gt;Node4</title>
<path fill="none" stroke="midnightblue" d="M582.512,-528.926C579.637,-512.196 574.004,-483.576 565.74,-460 547.459,-407.85 545.688,-391.605 511.74,-348 496.428,-328.333 482.956,-332.473 468.74,-312 459.032,-298.019 453.013,-279.517 449.58,-265.829"/>
<polygon fill="midnightblue" stroke="midnightblue" points="452.901,-264.648 447.279,-255.668 446.074,-266.194 452.901,-264.648"/>
</g>
<!-- Node6 -->
<g id="node6" class="node"><title>Node6</title>
<polygon fill="white" stroke="#bfbfbf" points="456.74,-174.5 456.74,-193.5 500.74,-193.5 500.74,-174.5 456.74,-174.5"/>
<text text-anchor="middle" x="478.74" y="-181.5" font-family="Helvetica,sans-Serif" font-size="10.00">vector</text>
</g>
<!-- Node3&#45;&gt;Node6 -->
<g id="edge6" class="edge"><title>Node3&#45;&gt;Node6</title>
<path fill="none" stroke="midnightblue" d="M601.625,-528.723C654.643,-482.232 809.59,-332.617 728.74,-236 699.619,-201.2 571.847,-210.66 527.74,-200 522.227,-198.668 516.421,-197.069 510.81,-195.418"/>
<polygon fill="midnightblue" stroke="midnightblue" points="511.612,-192.004 501.026,-192.439 509.573,-198.7 511.612,-192.004"/>
</g>
<!-- Node7 -->
<g id="node7" class="node"><title>Node7</title>
<g id="a_node7"><a xlink:href="Iterator_8inl.html" target="_top" xlink:title="Core/Mesh/DCEL/Iterator\l/Iterator.inl">
<polygon fill="white" stroke="black" points="428.74,-461 428.74,-491 556.74,-491 556.74,-461 428.74,-461"/>
<text text-anchor="start" x="436.74" y="-479" font-family="Helvetica,sans-Serif" font-size="10.00">Core/Mesh/DCEL/Iterator</text>
<text text-anchor="middle" x="492.74" y="-468" font-family="Helvetica,sans-Serif" font-size="10.00">/Iterator.inl</text>
</a>
</g>
</g>
<!-- Node3&#45;&gt;Node7 -->
<g id="edge7" class="edge"><title>Node3&#45;&gt;Node7</title>
<path fill="none" stroke="midnightblue" d="M559.099,-528.679C545.172,-519.536 528.246,-507.54 514.893,-497.407"/>
<polygon fill="midnightblue" stroke="midnightblue" points="516.752,-494.42 506.702,-491.066 512.467,-499.955 516.752,-494.42"/>
</g>
<!-- Node5 -->
<g id="node5" class="node"><title>Node5</title>
<polygon fill="white" stroke="#bfbfbf" points="386.74,-174.5 386.74,-193.5 438.74,-193.5 438.74,-174.5 386.74,-174.5"/>
<text text-anchor="middle" x="412.74" y="-181.5" font-family="Helvetica,sans-Serif" font-size="10.00">memory</text>
</g>
<!-- Node4&#45;&gt;Node5 -->
<g id="edge4" class="edge"><title>Node4&#45;&gt;Node5</title>
<path fill="none" stroke="midnightblue" d="M441.012,-236.403C436.16,-227.582 428.474,-213.608 422.34,-202.455"/>
<polygon fill="midnightblue" stroke="midnightblue" points="425.345,-200.656 417.459,-193.581 419.212,-204.029 425.345,-200.656"/>
</g>
<!-- Node4&#45;&gt;Node6 -->
<g id="edge5" class="edge"><title>Node4&#45;&gt;Node6</title>
<path fill="none" stroke="midnightblue" d="M450.468,-236.403C455.32,-227.582 463.006,-213.608 469.14,-202.455"/>
<polygon fill="midnightblue" stroke="midnightblue" points="472.268,-204.029 474.021,-193.581 466.135,-200.656 472.268,-204.029"/>
</g>
<!-- Node7&#45;&gt;Node3 -->
<g id="edge8" class="edge"><title>Node7&#45;&gt;Node3</title>
<path fill="none" stroke="midnightblue" d="M517.993,-491.066C531.863,-500.156 548.794,-512.143 562.212,-522.309"/>
<polygon fill="midnightblue" stroke="midnightblue" points="560.403,-525.334 570.456,-528.679 564.683,-519.795 560.403,-525.334"/>
</g>
<!-- Node8 -->
<g id="node8" class="node"><title>Node8</title>
<g id="a_node8"><a xlink:href="DCEL_2HalfEdge_8hpp.html" target="_top" xlink:title="Core/Mesh/DCEL/HalfEdge.hpp">
<polygon fill="white" stroke="black" points="297.24,-404.5 297.24,-423.5 454.24,-423.5 454.24,-404.5 297.24,-404.5"/>
<text text-anchor="middle" x="375.74" y="-411.5" font-family="Helvetica,sans-Serif" font-size="10.00">Core/Mesh/DCEL/HalfEdge.hpp</text>
</a>
</g>
</g>
<!-- Node7&#45;&gt;Node8 -->
<g id="edge9" class="edge"><title>Node7&#45;&gt;Node8</title>
<path fill="none" stroke="midnightblue" d="M465.309,-460.933C446.01,-451.036 420.356,-437.88 401.451,-428.185"/>
<polygon fill="midnightblue" stroke="midnightblue" points="403.005,-425.049 392.51,-423.6 399.811,-431.278 403.005,-425.049"/>
</g>
<!-- Node8&#45;&gt;Node4 -->
<g id="edge22" class="edge"><title>Node8&#45;&gt;Node4</title>
<path fill="none" stroke="midnightblue" d="M365.987,-404.359C353.379,-392.082 334.017,-368.77 342.74,-348 358.891,-309.543 397.621,-278.376 422.716,-261.291"/>
<polygon fill="midnightblue" stroke="midnightblue" points="424.856,-264.073 431.278,-255.646 421.002,-258.229 424.856,-264.073"/>
</g>
<!-- Node9 -->
<g id="node9" class="node"><title>Node9</title>
<g id="a_node9"><a xlink:href="Index_8hpp.html" target="_top" xlink:title="Core/Index/Index.hpp">
<polygon fill="white" stroke="black" points="169.74,-174.5 169.74,-193.5 279.74,-193.5 279.74,-174.5 169.74,-174.5"/>
<text text-anchor="middle" x="224.74" y="-181.5" font-family="Helvetica,sans-Serif" font-size="10.00">Core/Index/Index.hpp</text>
</a>
</g>
</g>
<!-- Node8&#45;&gt;Node9 -->
<g id="edge10" class="edge"><title>Node8&#45;&gt;Node9</title>
<path fill="none" stroke="midnightblue" d="M296.892,-408.165C204.138,-397.518 56.1462,-363.613 3.73986,-256 -0.151989,-248.008 -1.79393,-242.956 3.73986,-236 22.9339,-211.872 101.341,-198.179 159.337,-191.183"/>
<polygon fill="midnightblue" stroke="midnightblue" points="160.017,-194.628 169.546,-189.995 159.208,-187.675 160.017,-194.628"/>
</g>
<!-- Node12 -->
<g id="node12" class="node"><title>Node12</title>
<g id="a_node12"><a xlink:href="IndexedObject_8hpp.html" target="_top" xlink:title="Core/Index/IndexedObject.hpp">
<polygon fill="white" stroke="black" points="200.24,-236.5 200.24,-255.5 349.24,-255.5 349.24,-236.5 200.24,-236.5"/>
<text text-anchor="middle" x="274.74" y="-243.5" font-family="Helvetica,sans-Serif" font-size="10.00">Core/Index/IndexedObject.hpp</text>
</a>
</g>
</g>
<!-- Node8&#45;&gt;Node12 -->
<g id="edge13" class="edge"><title>Node8&#45;&gt;Node12</title>
<path fill="none" stroke="midnightblue" d="M366.988,-404.217C358.593,-395.507 345.879,-381.538 336.74,-368 313.501,-333.576 292.917,-289.308 282.317,-264.993"/>
<polygon fill="midnightblue" stroke="midnightblue" points="285.449,-263.416 278.291,-255.605 279.016,-266.175 285.449,-263.416"/>
</g>
<!-- Node20 -->
<g id="node20" class="node"><title>Node20</title>
<g id="a_node20"><a xlink:href="DCEL_2HalfEdge_8inl.html" target="_top" xlink:title="Core/Mesh/DCEL/HalfEdge.inl">
<polygon fill="white" stroke="black" points="352.24,-348.5 352.24,-367.5 503.24,-367.5 503.24,-348.5 352.24,-348.5"/>
<text text-anchor="middle" x="427.74" y="-355.5" font-family="Helvetica,sans-Serif" font-size="10.00">Core/Mesh/DCEL/HalfEdge.inl</text>
</a>
</g>
</g>
<!-- Node8&#45;&gt;Node20 -->
<g id="edge23" class="edge"><title>Node8&#45;&gt;Node20</title>
<path fill="none" stroke="midnightblue" d="M379.16,-404.083C385.192,-396.062 396.374,-384.101 406.625,-374.515"/>
<polygon fill="midnightblue" stroke="midnightblue" points="409.065,-377.028 414.182,-367.751 404.396,-371.812 409.065,-377.028"/>
</g>
<!-- Node10 -->
<g id="node10" class="node"><title>Node10</title>
<polygon fill="white" stroke="#bfbfbf" points="159.74,-112.5 159.74,-131.5 199.74,-131.5 199.74,-112.5 159.74,-112.5"/>
<text text-anchor="middle" x="179.74" y="-119.5" font-family="Helvetica,sans-Serif" font-size="10.00">limits</text>
</g>
<!-- Node9&#45;&gt;Node10 -->
<g id="edge11" class="edge"><title>Node9&#45;&gt;Node10</title>
<path fill="none" stroke="midnightblue" d="M218.292,-174.403C211.542,-165.403 200.77,-151.041 192.327,-139.782"/>
<polygon fill="midnightblue" stroke="midnightblue" points="194.975,-137.481 186.175,-131.581 189.375,-141.681 194.975,-137.481"/>
</g>
<!-- Node11 -->
<g id="node11" class="node"><title>Node11</title>
<g id="a_node11"><a xlink:href="Index_8inl.html" target="_top" xlink:title="Core/Index/Index.inl">
<polygon fill="white" stroke="black" points="217.74,-112.5 217.74,-131.5 321.74,-131.5 321.74,-112.5 217.74,-112.5"/>
<text text-anchor="middle" x="269.74" y="-119.5" font-family="Helvetica,sans-Serif" font-size="10.00">Core/Index/Index.inl</text>
</a>
</g>
</g>
<!-- Node9&#45;&gt;Node11 -->
<g id="edge12" class="edge"><title>Node9&#45;&gt;Node11</title>
<path fill="none" stroke="midnightblue" d="M231.187,-174.403C237.937,-165.403 248.709,-151.041 257.153,-139.782"/>
<polygon fill="midnightblue" stroke="midnightblue" points="260.104,-141.681 263.304,-131.581 254.504,-137.481 260.104,-141.681"/>
</g>
<!-- Node12&#45;&gt;Node9 -->
<g id="edge14" class="edge"><title>Node12&#45;&gt;Node9</title>
<path fill="none" stroke="midnightblue" d="M267.576,-236.403C260.002,-227.314 247.87,-212.756 238.447,-201.449"/>
<polygon fill="midnightblue" stroke="midnightblue" points="240.981,-199.022 231.89,-193.581 235.603,-203.503 240.981,-199.022"/>
</g>
<!-- Node13 -->
<g id="node13" class="node"><title>Node13</title>
<g id="a_node13"><a xlink:href="RaCore_8hpp.html" target="_top" xlink:title="Core/RaCore.hpp">
<polygon fill="white" stroke="black" points="482.24,-112.5 482.24,-131.5 575.24,-131.5 575.24,-112.5 482.24,-112.5"/>
<text text-anchor="middle" x="528.74" y="-119.5" font-family="Helvetica,sans-Serif" font-size="10.00">Core/RaCore.hpp</text>
</a>
</g>
</g>
<!-- Node12&#45;&gt;Node13 -->
<g id="edge15" class="edge"><title>Node12&#45;&gt;Node13</title>
<path fill="none" stroke="midnightblue" d="M283.92,-236.333C301.056,-220.588 339.639,-187.152 377.74,-168 408.811,-152.381 446.26,-141.178 476.091,-133.856"/>
<polygon fill="midnightblue" stroke="midnightblue" points="476.978,-137.242 485.895,-131.521 475.356,-130.433 476.978,-137.242"/>
</g>
<!-- Node14 -->
<g id="node14" class="node"><title>Node14</title>
<g id="a_node14"><a xlink:href="CoreMacros_8hpp.html" target="_top" xlink:title="Core/CoreMacros.hpp">
<polygon fill="white" stroke="black" points="472.24,-56.5 472.24,-75.5 585.24,-75.5 585.24,-56.5 472.24,-56.5"/>
<text text-anchor="middle" x="528.74" y="-63.5" font-family="Helvetica,sans-Serif" font-size="10.00">Core/CoreMacros.hpp</text>
</a>
</g>
</g>
<!-- Node13&#45;&gt;Node14 -->
<g id="edge16" class="edge"><title>Node13&#45;&gt;Node14</title>
<path fill="none" stroke="midnightblue" d="M528.74,-112.083C528.74,-105.006 528.74,-94.8611 528.74,-85.9865"/>
<polygon fill="midnightblue" stroke="midnightblue" points="532.24,-85.751 528.74,-75.7511 525.24,-85.7511 532.24,-85.751"/>
</g>
<!-- Node15 -->
<g id="node15" class="node"><title>Node15</title>
<polygon fill="white" stroke="#bfbfbf" points="373.24,-0.5 373.24,-19.5 422.24,-19.5 422.24,-0.5 373.24,-0.5"/>
<text text-anchor="middle" x="397.74" y="-7.5" font-family="Helvetica,sans-Serif" font-size="10.00">cassert</text>
</g>
<!-- Node14&#45;&gt;Node15 -->
<g id="edge17" class="edge"><title>Node14&#45;&gt;Node15</title>
<path fill="none" stroke="midnightblue" d="M507.983,-56.4435C486.423,-47.5566 452.477,-33.5632 427.946,-23.4514"/>
<polygon fill="midnightblue" stroke="midnightblue" points="428.979,-20.0917 418.4,-19.5164 426.312,-26.5634 428.979,-20.0917"/>
</g>
<!-- Node16 -->
<g id="node16" class="node"><title>Node16</title>
<polygon fill="white" stroke="#bfbfbf" points="440.24,-0.5 440.24,-19.5 483.24,-19.5 483.24,-0.5 440.24,-0.5"/>
<text text-anchor="middle" x="461.74" y="-7.5" font-family="Helvetica,sans-Serif" font-size="10.00">cstdio</text>
</g>
<!-- Node14&#45;&gt;Node16 -->
<g id="edge18" class="edge"><title>Node14&#45;&gt;Node16</title>
<path fill="none" stroke="midnightblue" d="M517.975,-56.324C507.974,-48.2631 492.853,-36.0765 480.809,-26.3695"/>
<polygon fill="midnightblue" stroke="midnightblue" points="482.683,-23.3841 472.7,-19.8339 478.29,-28.8343 482.683,-23.3841"/>
</g>
<!-- Node17 -->
<g id="node17" class="node"><title>Node17</title>
<polygon fill="white" stroke="#bfbfbf" points="501.74,-0.5 501.74,-19.5 555.74,-19.5 555.74,-0.5 501.74,-0.5"/>
<text text-anchor="middle" x="528.74" y="-7.5" font-family="Helvetica,sans-Serif" font-size="10.00">iostream</text>
</g>
<!-- Node14&#45;&gt;Node17 -->
<g id="edge19" class="edge"><title>Node14&#45;&gt;Node17</title>
<path fill="none" stroke="midnightblue" d="M528.74,-56.083C528.74,-49.0059 528.74,-38.8611 528.74,-29.9865"/>
<polygon fill="midnightblue" stroke="midnightblue" points="532.24,-29.751 528.74,-19.7511 525.24,-29.7511 532.24,-29.751"/>
</g>
<!-- Node18 -->
<g id="node18" class="node"><title>Node18</title>
<polygon fill="white" stroke="#bfbfbf" points="573.74,-0.5 573.74,-19.5 625.74,-19.5 625.74,-0.5 573.74,-0.5"/>
<text text-anchor="middle" x="599.74" y="-7.5" font-family="Helvetica,sans-Serif" font-size="10.00">sstream</text>
</g>
<!-- Node14&#45;&gt;Node18 -->
<g id="edge20" class="edge"><title>Node14&#45;&gt;Node18</title>
<path fill="none" stroke="midnightblue" d="M540.147,-56.324C550.849,-48.1849 567.081,-35.8395 579.903,-26.0874"/>
<polygon fill="midnightblue" stroke="midnightblue" points="582.284,-28.6734 588.125,-19.8339 578.047,-23.1018 582.284,-28.6734"/>
</g>
<!-- Node19 -->
<g id="node19" class="node"><title>Node19</title>
<polygon fill="white" stroke="#bfbfbf" points="643.74,-0.5 643.74,-19.5 687.74,-19.5 687.74,-0.5 643.74,-0.5"/>
<text text-anchor="middle" x="665.74" y="-7.5" font-family="Helvetica,sans-Serif" font-size="10.00">thread</text>
</g>
<!-- Node14&#45;&gt;Node19 -->
<g id="edge21" class="edge"><title>Node14&#45;&gt;Node19</title>
<path fill="none" stroke="midnightblue" d="M550.448,-56.4435C573.095,-47.5171 608.812,-33.4387 634.492,-23.3168"/>
<polygon fill="midnightblue" stroke="midnightblue" points="636.113,-26.4397 644.133,-19.5164 633.546,-19.9273 636.113,-26.4397"/>
</g>
<!-- Node20&#45;&gt;Node8 -->
<g id="edge24" class="edge"><title>Node20&#45;&gt;Node8</title>
<path fill="none" stroke="midnightblue" d="M424.382,-367.834C418.354,-375.869 407.101,-387.909 396.799,-397.537"/>
<polygon fill="midnightblue" stroke="midnightblue" points="394.331,-395.049 389.209,-404.324 398.997,-400.267 394.331,-395.049"/>
</g>
<!-- Node21 -->
<g id="node21" class="node"><title>Node21</title>
<g id="a_node21"><a xlink:href="Face_8hpp.html" target="_top" xlink:title="Core/Mesh/DCEL/Face.hpp">
<polygon fill="white" stroke="black" points="110.74,-292.5 110.74,-311.5 248.74,-311.5 248.74,-292.5 110.74,-292.5"/>
<text text-anchor="middle" x="179.74" y="-299.5" font-family="Helvetica,sans-Serif" font-size="10.00">Core/Mesh/DCEL/Face.hpp</text>
</a>
</g>
</g>
<!-- Node20&#45;&gt;Node21 -->
<g id="edge25" class="edge"><title>Node20&#45;&gt;Node21</title>
<path fill="none" stroke="midnightblue" d="M388.444,-348.444C345.181,-339.023 275.567,-323.866 228.766,-313.675"/>
<polygon fill="midnightblue" stroke="midnightblue" points="229.368,-310.224 218.852,-311.516 227.879,-317.064 229.368,-310.224"/>
</g>
<!-- Node20&#45;&gt;Node23 -->
<g id="edge32" class="edge"><title>Node20&#45;&gt;Node23</title>
<path fill="none" stroke="midnightblue" d="M447.23,-348.444C467.382,-339.596 499.063,-325.687 522.071,-315.586"/>
<polygon fill="midnightblue" stroke="midnightblue" points="523.592,-318.741 531.341,-311.516 520.778,-312.332 523.592,-318.741"/>
</g>
<!-- Node21&#45;&gt;Node4 -->
<g id="edge28" class="edge"><title>Node21&#45;&gt;Node4</title>
<path fill="none" stroke="midnightblue" d="M221.888,-292.444C268.486,-282.984 343.584,-267.738 393.785,-257.547"/>
<polygon fill="midnightblue" stroke="midnightblue" points="394.685,-260.936 403.789,-255.516 393.292,-254.076 394.685,-260.936"/>
</g>
<!-- Node21&#45;&gt;Node9 -->
<g id="edge26" class="edge"><title>Node21&#45;&gt;Node9</title>
<path fill="none" stroke="midnightblue" d="M180.063,-292.278C180.789,-279.504 183.14,-255.148 190.74,-236 195.619,-223.708 203.774,-211.33 210.874,-201.848"/>
<polygon fill="midnightblue" stroke="midnightblue" points="213.811,-203.774 217.217,-193.741 208.298,-199.46 213.811,-203.774"/>
</g>
<!-- Node21&#45;&gt;Node12 -->
<g id="edge27" class="edge"><title>Node21&#45;&gt;Node12</title>
<path fill="none" stroke="midnightblue" d="M195.003,-292.324C209.961,-283.822 232.995,-270.729 250.467,-260.797"/>
<polygon fill="midnightblue" stroke="midnightblue" points="252.55,-263.639 259.514,-255.655 249.091,-257.553 252.55,-263.639"/>
</g>
<!-- Node22 -->
<g id="node22" class="node"><title>Node22</title>
<g id="a_node22"><a xlink:href="Face_8inl.html" target="_top" xlink:title="Core/Mesh/DCEL/Face.inl">
<polygon fill="white" stroke="black" points="12.7399,-236.5 12.7399,-255.5 144.74,-255.5 144.74,-236.5 12.7399,-236.5"/>
<text text-anchor="middle" x="78.7399" y="-243.5" font-family="Helvetica,sans-Serif" font-size="10.00">Core/Mesh/DCEL/Face.inl</text>
</a>
</g>
</g>
<!-- Node21&#45;&gt;Node22 -->
<g id="edge29" class="edge"><title>Node21&#45;&gt;Node22</title>
<path fill="none" stroke="midnightblue" d="M158.647,-292.444C140.819,-283.912 115.77,-270.675 98.3722,-260.683"/>
<polygon fill="midnightblue" stroke="midnightblue" points="99.9828,-257.57 89.5888,-255.516 96.4337,-263.603 99.9828,-257.57"/>
</g>
<!-- Node22&#45;&gt;Node8 -->
<g id="edge31" class="edge"><title>Node22&#45;&gt;Node8</title>
<path fill="none" stroke="midnightblue" d="M79.5028,-255.813C81.1549,-269.603 86.2676,-296.324 101.74,-312 154.2,-365.149 237.004,-390.574 297.865,-402.583"/>
<polygon fill="midnightblue" stroke="midnightblue" points="297.34,-406.045 307.816,-404.466 298.641,-399.167 297.34,-406.045"/>
</g>
<!-- Node22&#45;&gt;Node21 -->
<g id="edge30" class="edge"><title>Node22&#45;&gt;Node21</title>
<path fill="none" stroke="midnightblue" d="M100.037,-255.655C117.769,-264.149 142.544,-277.241 159.864,-287.177"/>
<polygon fill="midnightblue" stroke="midnightblue" points="158.232,-290.278 168.627,-292.324 161.777,-284.242 158.232,-290.278"/>
</g>
<!-- Node23&#45;&gt;Node4 -->
<g id="edge49" class="edge"><title>Node23&#45;&gt;Node4</title>
<path fill="none" stroke="midnightblue" d="M533.87,-292.324C517.031,-283.664 490.933,-270.242 471.502,-260.249"/>
<polygon fill="midnightblue" stroke="midnightblue" points="473.062,-257.116 462.568,-255.655 469.86,-263.341 473.062,-257.116"/>
</g>
<!-- Node23&#45;&gt;Node9 -->
<g id="edge33" class="edge"><title>Node23&#45;&gt;Node9</title>
<path fill="none" stroke="midnightblue" d="M551.071,-292.344C551.099,-278.277 548.935,-250.563 532.74,-236 514.949,-220.002 375.174,-201.811 290.152,-192.062"/>
<polygon fill="midnightblue" stroke="midnightblue" points="290.398,-188.568 280.066,-190.916 289.607,-195.523 290.398,-188.568"/>
</g>
<!-- Node23&#45;&gt;Node12 -->
<g id="edge34" class="edge"><title>Node23&#45;&gt;Node12</title>
<path fill="none" stroke="midnightblue" d="M507.007,-292.444C458.557,-282.964 380.411,-267.675 328.322,-257.483"/>
<polygon fill="midnightblue" stroke="midnightblue" points="328.754,-254.002 318.268,-255.516 327.41,-260.871 328.754,-254.002"/>
</g>
<!-- Node24 -->
<g id="node24" class="node"><title>Node24</title>
<g id="a_node24"><a xlink:href="LinearAlgebra_8hpp.html" target="_top" xlink:title="Core/Math/LinearAlgebra.hpp">
<polygon fill="white" stroke="black" points="777.24,-236.5 777.24,-255.5 920.24,-255.5 920.24,-236.5 777.24,-236.5"/>
<text text-anchor="middle" x="848.74" y="-243.5" font-family="Helvetica,sans-Serif" font-size="10.00">Core/Math/LinearAlgebra.hpp</text>
</a>
</g>
</g>
<!-- Node23&#45;&gt;Node24 -->
<g id="edge35" class="edge"><title>Node23&#45;&gt;Node24</title>
<path fill="none" stroke="midnightblue" d="M597.959,-292.444C650.489,-282.925 735.35,-267.547 791.588,-257.356"/>
<polygon fill="midnightblue" stroke="midnightblue" points="792.526,-260.743 801.742,-255.516 791.278,-253.856 792.526,-260.743"/>
</g>
<!-- Node35 -->
<g id="node35" class="node"><title>Node35</title>
<g id="a_node35"><a xlink:href="Vertex_8inl.html" target="_top" xlink:title="Core/Mesh/DCEL/Vertex.inl">
<polygon fill="white" stroke="black" points="581.24,-236.5 581.24,-255.5 720.24,-255.5 720.24,-236.5 581.24,-236.5"/>
<text text-anchor="middle" x="650.74" y="-243.5" font-family="Helvetica,sans-Serif" font-size="10.00">Core/Mesh/DCEL/Vertex.inl</text>
</a>
</g>
</g>
<!-- Node23&#45;&gt;Node35 -->
<g id="edge50" class="edge"><title>Node23&#45;&gt;Node35</title>
<path fill="none" stroke="midnightblue" d="M561.692,-292.324C575.918,-283.625 600.67,-270.12 620.573,-260.113"/>
<polygon fill="midnightblue" stroke="midnightblue" points="622.186,-263.22 629.603,-255.655 619.087,-256.943 622.186,-263.22"/>
</g>
<!-- Node24&#45;&gt;Node13 -->
<g id="edge36" class="edge"><title>Node24&#45;&gt;Node13</title>
<path fill="none" stroke="midnightblue" d="M778.492,-236.488C692.238,-225.746 556.237,-207.737 547.74,-200 531.705,-185.399 528.209,-159.619 527.892,-141.941"/>
<polygon fill="midnightblue" stroke="midnightblue" points="531.396,-141.744 528.044,-131.694 524.396,-141.641 531.396,-141.744"/>
</g>
<!-- Node25 -->
<g id="node25" class="node"><title>Node25</title>
<polygon fill="white" stroke="#bfbfbf" points="1158.24,-174.5 1158.24,-193.5 1223.24,-193.5 1223.24,-174.5 1158.24,-174.5"/>
<text text-anchor="middle" x="1190.74" y="-181.5" font-family="Helvetica,sans-Serif" font-size="10.00">Eigen/Core</text>
</g>
<!-- Node24&#45;&gt;Node25 -->
<g id="edge37" class="edge"><title>Node24&#45;&gt;Node25</title>
<path fill="none" stroke="midnightblue" d="M920.456,-238.004C981.488,-231.149 1071.18,-218.94 1147.74,-200 1151.41,-199.092 1155.21,-198 1158.96,-196.825"/>
<polygon fill="midnightblue" stroke="midnightblue" points="1160.28,-200.073 1168.66,-193.586 1158.07,-193.433 1160.28,-200.073"/>
</g>
<!-- Node26 -->
<g id="node26" class="node"><title>Node26</title>
<polygon fill="white" stroke="#bfbfbf" points="1241.24,-174.5 1241.24,-193.5 1328.24,-193.5 1328.24,-174.5 1241.24,-174.5"/>
<text text-anchor="middle" x="1284.74" y="-181.5" font-family="Helvetica,sans-Serif" font-size="10.00">Eigen/Geometry</text>
</g>
<!-- Node24&#45;&gt;Node26 -->
<g id="edge38" class="edge"><title>Node24&#45;&gt;Node26</title>
<path fill="none" stroke="midnightblue" d="M920.565,-239.986C997.929,-233.791 1124.38,-221.359 1231.74,-200 1236.94,-198.965 1242.38,-197.675 1247.7,-196.288"/>
<polygon fill="midnightblue" stroke="midnightblue" points="1248.99,-199.564 1257.71,-193.545 1247.14,-192.813 1248.99,-199.564"/>
</g>
<!-- Node27 -->
<g id="node27" class="node"><title>Node27</title>
<polygon fill="white" stroke="#bfbfbf" points="557.24,-174.5 557.24,-193.5 632.24,-193.5 632.24,-174.5 557.24,-174.5"/>
<text text-anchor="middle" x="594.74" y="-181.5" font-family="Helvetica,sans-Serif" font-size="10.00">Eigen/Sparse</text>
</g>
<!-- Node24&#45;&gt;Node27 -->
<g id="edge39" class="edge"><title>Node24&#45;&gt;Node27</title>
<path fill="none" stroke="midnightblue" d="M802.972,-236.495C760.611,-228.294 696.021,-214.951 640.74,-200 636.926,-198.969 632.961,-197.81 629.029,-196.605"/>
<polygon fill="midnightblue" stroke="midnightblue" points="630.019,-193.247 619.428,-193.564 627.904,-199.921 630.019,-193.247"/>
</g>
<!-- Node28 -->
<g id="node28" class="node"><title>Node28</title>
<polygon fill="white" stroke="#bfbfbf" points="650.24,-174.5 650.24,-193.5 709.24,-193.5 709.24,-174.5 650.24,-174.5"/>
<text text-anchor="middle" x="679.74" y="-181.5" font-family="Helvetica,sans-Serif" font-size="10.00">functional</text>
</g>
<!-- Node24&#45;&gt;Node28 -->
<g id="edge40" class="edge"><title>Node24&#45;&gt;Node28</title>
<path fill="none" stroke="midnightblue" d="M822.519,-236.38C795.985,-227.566 753.838,-213.317 717.74,-200 715.353,-199.119 712.888,-198.191 710.415,-197.245"/>
<polygon fill="midnightblue" stroke="midnightblue" points="711.568,-193.938 700.979,-193.579 709.032,-200.463 711.568,-193.938"/>
</g>
<!-- Node29 -->
<g id="node29" class="node"><title>Node29</title>
<polygon fill="white" stroke="#bfbfbf" points="727.24,-169 727.24,-199 860.24,-199 860.24,-169 727.24,-169"/>
<text text-anchor="start" x="735.24" y="-187" font-family="Helvetica,sans-Serif" font-size="10.00">unsupported/Eigen/Aligned</text>
<text text-anchor="middle" x="793.74" y="-176" font-family="Helvetica,sans-Serif" font-size="10.00">Vector3</text>
</g>
<!-- Node24&#45;&gt;Node29 -->
<g id="edge41" class="edge"><title>Node24&#45;&gt;Node29</title>
<path fill="none" stroke="midnightblue" d="M840.86,-236.403C833.759,-228.657 823.016,-216.938 813.581,-206.645"/>
<polygon fill="midnightblue" stroke="midnightblue" points="816.04,-204.147 806.702,-199.141 810.879,-208.877 816.04,-204.147"/>
</g>
<!-- Node30 -->
<g id="node30" class="node"><title>Node30</title>
<g id="a_node30"><a xlink:href="Math_8hpp.html" target="_top" xlink:title="Core/Math/Math.hpp">
<polygon fill="white" stroke="black" points="1033.74,-174.5 1033.74,-193.5 1139.74,-193.5 1139.74,-174.5 1033.74,-174.5"/>
<text text-anchor="middle" x="1086.74" y="-181.5" font-family="Helvetica,sans-Serif" font-size="10.00">Core/Math/Math.hpp</text>
</a>
</g>
</g>
<!-- Node24&#45;&gt;Node30 -->
<g id="edge42" class="edge"><title>Node24&#45;&gt;Node30</title>
<path fill="none" stroke="midnightblue" d="M882.587,-236.467C924.792,-225.827 997.008,-207.622 1043.27,-195.959"/>
<polygon fill="midnightblue" stroke="midnightblue" points="1044.17,-199.342 1053.01,-193.503 1042.46,-192.554 1044.17,-199.342"/>
</g>
<!-- Node34 -->
<g id="node34" class="node"><title>Node34</title>
<g id="a_node34"><a xlink:href="LinearAlgebra_8inl.html" target="_top" xlink:title="Core/Math/LinearAlgebra.inl">
<polygon fill="white" stroke="black" points="878.24,-174.5 878.24,-193.5 1015.24,-193.5 1015.24,-174.5 878.24,-174.5"/>
<text text-anchor="middle" x="946.74" y="-181.5" font-family="Helvetica,sans-Serif" font-size="10.00">Core/Math/LinearAlgebra.inl</text>
</a>
</g>
</g>
<!-- Node24&#45;&gt;Node34 -->
<g id="edge48" class="edge"><title>Node24&#45;&gt;Node34</title>
<path fill="none" stroke="midnightblue" d="M862.781,-236.403C878.791,-226.601 905.19,-210.439 924.114,-198.853"/>
<polygon fill="midnightblue" stroke="midnightblue" points="926.024,-201.787 932.725,-193.581 922.369,-195.817 926.024,-201.787"/>
</g>
<!-- Node30&#45;&gt;Node13 -->
<g id="edge43" class="edge"><title>Node30&#45;&gt;Node13</title>
<path fill="none" stroke="midnightblue" d="M1054.87,-174.476C1044.96,-172.077 1033.95,-169.67 1023.74,-168 866.302,-142.237 678.101,-130.216 585.678,-125.525"/>
<polygon fill="midnightblue" stroke="midnightblue" points="585.588,-122.016 575.426,-125.015 585.24,-129.007 585.588,-122.016"/>
</g>
<!-- Node31 -->
<g id="node31" class="node"><title>Node31</title>
<polygon fill="white" stroke="#bfbfbf" points="1154.74,-112.5 1154.74,-131.5 1210.74,-131.5 1210.74,-112.5 1154.74,-112.5"/>
<text text-anchor="middle" x="1182.74" y="-119.5" font-family="Helvetica,sans-Serif" font-size="10.00">algorithm</text>
</g>
<!-- Node30&#45;&gt;Node31 -->
<g id="edge44" class="edge"><title>Node30&#45;&gt;Node31</title>
<path fill="none" stroke="midnightblue" d="M1100.49,-174.403C1116.11,-164.646 1141.8,-148.585 1160.32,-137.011"/>
<polygon fill="midnightblue" stroke="midnightblue" points="1162.39,-139.849 1169.01,-131.581 1158.68,-133.913 1162.39,-139.849"/>
</g>
<!-- Node32 -->
<g id="node32" class="node"><title>Node32</title>
<polygon fill="white" stroke="#bfbfbf" points="974.74,-112.5 974.74,-131.5 1018.74,-131.5 1018.74,-112.5 974.74,-112.5"/>
<text text-anchor="middle" x="996.74" y="-119.5" font-family="Helvetica,sans-Serif" font-size="10.00">cmath</text>
</g>
<!-- Node30&#45;&gt;Node32 -->
<g id="edge45" class="edge"><title>Node30&#45;&gt;Node32</title>
<path fill="none" stroke="midnightblue" d="M1073.85,-174.403C1059.28,-164.691 1035.34,-148.732 1017.99,-137.17"/>
<polygon fill="midnightblue" stroke="midnightblue" points="1019.87,-134.215 1009.61,-131.581 1015.99,-140.04 1019.87,-134.215"/>
</g>
<!-- Node33 -->
<g id="node33" class="node"><title>Node33</title>
<g id="a_node33"><a xlink:href="Math_8inl.html" target="_top" xlink:title="Core/Math/Math.inl">
<polygon fill="white" stroke="black" points="1036.74,-112.5 1036.74,-131.5 1136.74,-131.5 1136.74,-112.5 1036.74,-112.5"/>
<text text-anchor="middle" x="1086.74" y="-119.5" font-family="Helvetica,sans-Serif" font-size="10.00">Core/Math/Math.inl</text>
</a>
</g>
</g>
<!-- Node30&#45;&gt;Node33 -->
<g id="edge46" class="edge"><title>Node30&#45;&gt;Node33</title>
<path fill="none" stroke="midnightblue" d="M1081.84,-174.403C1080.01,-165.938 1079.54,-152.728 1080.43,-141.82"/>
<polygon fill="midnightblue" stroke="midnightblue" points="1083.94,-141.966 1081.84,-131.581 1077,-141.006 1083.94,-141.966"/>
</g>
<!-- Node33&#45;&gt;Node30 -->
<g id="edge47" class="edge"><title>Node33&#45;&gt;Node30</title>
<path fill="none" stroke="midnightblue" d="M1091.64,-131.581C1093.47,-140.04 1093.94,-153.248 1093.06,-164.16"/>
<polygon fill="midnightblue" stroke="midnightblue" points="1089.54,-164.018 1091.64,-174.403 1096.48,-164.977 1089.54,-164.018"/>
</g>
<!-- Node35&#45;&gt;Node8 -->
<g id="edge52" class="edge"><title>Node35&#45;&gt;Node8</title>
<path fill="none" stroke="midnightblue" d="M650.42,-255.637C649.48,-269.187 645.829,-295.584 631.74,-312 586.146,-365.123 508.88,-390.522 451.134,-402.531"/>
<polygon fill="midnightblue" stroke="midnightblue" points="450.443,-399.1 441.318,-404.483 451.809,-405.965 450.443,-399.1"/>
</g>
<!-- Node35&#45;&gt;Node23 -->
<g id="edge51" class="edge"><title>Node35&#45;&gt;Node23</title>
<path fill="none" stroke="midnightblue" d="M639.823,-255.655C625.614,-264.346 600.867,-277.849 580.956,-287.862"/>
<polygon fill="midnightblue" stroke="midnightblue" points="579.338,-284.758 571.921,-292.324 582.437,-291.034 579.338,-284.758"/>
</g>
</g>
</svg>
