<?xml version="1.0" encoding="UTF-8" standalone="no"?>
<!DOCTYPE svg PUBLIC "-//W3C//DTD SVG 1.1//EN"
 "http://www.w3.org/Graphics/SVG/1.1/DTD/svg11.dtd">
<!-- Generated by graphviz version 2.36.0 (20140111.2315)
 -->
<!-- Title: /home/travis/build/STORM&#45;IRIT/Radium&#45;Engine/src/Core/Mesh/DCEL/Vertex.inl Pages: 1 -->
<svg width="1302pt" height="510pt"
 viewBox="0.00 0.00 1302.22 510.00" xmlns="http://www.w3.org/2000/svg" xmlns:xlink="http://www.w3.org/1999/xlink">
<g id="graph0" class="graph" transform="scale(1 1) rotate(0) translate(4 506)">
<title>/home/travis/build/STORM&#45;IRIT/Radium&#45;Engine/src/Core/Mesh/DCEL/Vertex.inl</title>
<polygon fill="white" stroke="none" points="-4,4 -4,-506 1298.22,-506 1298.22,4 -4,4"/>
<!-- Node1 -->
<g id="node1" class="node"><title>Node1</title>
<polygon fill="#bfbfbf" stroke="black" points="753,-460.5 753,-501.5 911,-501.5 911,-460.5 753,-460.5"/>
<text text-anchor="start" x="761" y="-489.5" font-family="Helvetica,sans-Serif" font-size="10.00">/home/travis/build</text>
<text text-anchor="start" x="761" y="-478.5" font-family="Helvetica,sans-Serif" font-size="10.00">/STORM&#45;IRIT/Radium&#45;Engine</text>
<text text-anchor="middle" x="832" y="-467.5" font-family="Helvetica,sans-Serif" font-size="10.00">/src/Core/Mesh/DCEL/Vertex.inl</text>
</g>
<!-- Node2 -->
<g id="node2" class="node"><title>Node2</title>
<g id="a_node2"><a xlink:href="Vertex_8hpp.html" target="_top" xlink:title="Core/Mesh/DCEL/Vertex.hpp">
<polygon fill="white" stroke="black" points="759.5,-292.5 759.5,-311.5 904.5,-311.5 904.5,-292.5 759.5,-292.5"/>
<text text-anchor="middle" x="832" y="-299.5" font-family="Helvetica,sans-Serif" font-size="10.00">Core/Mesh/DCEL/Vertex.hpp</text>
</a>
</g>
</g>
<!-- Node1&#45;&gt;Node2 -->
<g id="edge1" class="edge"><title>Node1&#45;&gt;Node2</title>
<path fill="none" stroke="midnightblue" d="M827.567,-460.382C824.455,-426.082 824.478,-355.658 827.635,-321.883"/>
<polygon fill="midnightblue" stroke="midnightblue" points="831.155,-321.932 828.883,-311.584 824.206,-321.09 831.155,-321.932"/>
</g>
<!-- Node28 -->
<g id="node28" class="node"><title>Node28</title>
<g id="a_node28"><a xlink:href="DCEL_2HalfEdge_8hpp.html" target="_top" xlink:title="Core/Mesh/DCEL/HalfEdge.hpp">
<polygon fill="white" stroke="black" points="958.5,-404.5 958.5,-423.5 1115.5,-423.5 1115.5,-404.5 958.5,-404.5"/>
<text text-anchor="middle" x="1037" y="-411.5" font-family="Helvetica,sans-Serif" font-size="10.00">Core/Mesh/DCEL/HalfEdge.hpp</text>
</a>
</g>
</g>
<!-- Node1&#45;&gt;Node28 -->
<g id="edge32" class="edge"><title>Node1&#45;&gt;Node28</title>
<path fill="none" stroke="midnightblue" d="M893.507,-460.498C928.367,-449.444 970.802,-435.99 1000.45,-426.59"/>
<polygon fill="midnightblue" stroke="midnightblue" points="1001.51,-429.926 1009.98,-423.567 999.391,-423.253 1001.51,-429.926"/>
</g>
<!-- Node2&#45;&gt;Node1 -->
<g id="edge31" class="edge"><title>Node2&#45;&gt;Node1</title>
<path fill="none" stroke="midnightblue" d="M835.117,-311.584C839.125,-336.39 839.817,-409.029 837.193,-450.354"/>
<polygon fill="midnightblue" stroke="midnightblue" points="833.699,-450.146 836.433,-460.382 840.679,-450.675 833.699,-450.146"/>
</g>
<!-- Node3 -->
<g id="node3" class="node"><title>Node3</title>
<g id="a_node3"><a xlink:href="Index_8hpp.html" target="_top" xlink:title="Core/Index/Index.hpp">
<polygon fill="white" stroke="black" points="870,-174.5 870,-193.5 980,-193.5 980,-174.5 870,-174.5"/>
<text text-anchor="middle" x="925" y="-181.5" font-family="Helvetica,sans-Serif" font-size="10.00">Core/Index/Index.hpp</text>
</a>
</g>
</g>
<!-- Node2&#45;&gt;Node3 -->
<g id="edge2" class="edge"><title>Node2&#45;&gt;Node3</title>
<path fill="none" stroke="midnightblue" d="M803.823,-292.498C772.633,-281.612 729.095,-261.121 748,-236 761.721,-217.768 815.147,-204.014 859.747,-195.412"/>
<polygon fill="midnightblue" stroke="midnightblue" points="860.51,-198.83 869.694,-193.549 859.221,-191.95 860.51,-198.83"/>
</g>
<!-- Node6 -->
<g id="node6" class="node"><title>Node6</title>
<g id="a_node6"><a xlink:href="IndexedObject_8hpp.html" target="_top" xlink:title="Core/Index/IndexedObject.hpp">
<polygon fill="white" stroke="black" points="757.5,-236.5 757.5,-255.5 906.5,-255.5 906.5,-236.5 757.5,-236.5"/>
<text text-anchor="middle" x="832" y="-243.5" font-family="Helvetica,sans-Serif" font-size="10.00">Core/Index/IndexedObject.hpp</text>
</a>
</g>
</g>
<!-- Node2&#45;&gt;Node6 -->
<g id="edge5" class="edge"><title>Node2&#45;&gt;Node6</title>
<path fill="none" stroke="midnightblue" d="M832,-292.083C832,-285.006 832,-274.861 832,-265.986"/>
<polygon fill="midnightblue" stroke="midnightblue" points="835.5,-265.751 832,-255.751 828.5,-265.751 835.5,-265.751"/>
</g>
<!-- Node14 -->
<g id="node14" class="node"><title>Node14</title>
<g id="a_node14"><a xlink:href="LinearAlgebra_8hpp.html" target="_top" xlink:title="Core/Math/LinearAlgebra.hpp">
<polygon fill="white" stroke="black" points="451.5,-236.5 451.5,-255.5 594.5,-255.5 594.5,-236.5 451.5,-236.5"/>
<text text-anchor="middle" x="523" y="-243.5" font-family="Helvetica,sans-Serif" font-size="10.00">Core/Math/LinearAlgebra.hpp</text>
</a>
</g>
</g>
<!-- Node2&#45;&gt;Node14 -->
<g id="edge14" class="edge"><title>Node2&#45;&gt;Node14</title>
<path fill="none" stroke="midnightblue" d="M783.038,-292.444C728.456,-282.905 640.21,-267.483 581.899,-257.293"/>
<polygon fill="midnightblue" stroke="midnightblue" points="582.186,-253.79 571.733,-255.516 580.981,-260.686 582.186,-253.79"/>
</g>
<!-- Node25 -->
<g id="node25" class="node"><title>Node25</title>
<g id="a_node25"><a xlink:href="Definition_8hpp.html" target="_top" xlink:title="Core/Mesh/DCEL/Definition.hpp">
<polygon fill="white" stroke="black" points="962,-236.5 962,-255.5 1120,-255.5 1120,-236.5 962,-236.5"/>
<text text-anchor="middle" x="1041" y="-243.5" font-family="Helvetica,sans-Serif" font-size="10.00">Core/Mesh/DCEL/Definition.hpp</text>
</a>
</g>
</g>
<!-- Node2&#45;&gt;Node25 -->
<g id="edge28" class="edge"><title>Node2&#45;&gt;Node25</title>
<path fill="none" stroke="midnightblue" d="M865.117,-292.444C901.118,-283.142 958.77,-268.246 998.186,-258.062"/>
<polygon fill="midnightblue" stroke="midnightblue" points="999.232,-261.407 1008.04,-255.516 997.481,-254.629 999.232,-261.407"/>
</g>
<!-- Node4 -->
<g id="node4" class="node"><title>Node4</title>
<polygon fill="white" stroke="#bfbfbf" points="860,-112.5 860,-131.5 900,-131.5 900,-112.5 860,-112.5"/>
<text text-anchor="middle" x="880" y="-119.5" font-family="Helvetica,sans-Serif" font-size="10.00">limits</text>
</g>
<!-- Node3&#45;&gt;Node4 -->
<g id="edge3" class="edge"><title>Node3&#45;&gt;Node4</title>
<path fill="none" stroke="midnightblue" d="M918.553,-174.403C911.803,-165.403 901.031,-151.041 892.587,-139.782"/>
<polygon fill="midnightblue" stroke="midnightblue" points="895.235,-137.481 886.435,-131.581 889.635,-141.681 895.235,-137.481"/>
</g>
<!-- Node5 -->
<g id="node5" class="node"><title>Node5</title>
<g id="a_node5"><a xlink:href="Index_8inl.html" target="_top" xlink:title="Core/Index/Index.inl">
<polygon fill="white" stroke="black" points="918,-112.5 918,-131.5 1022,-131.5 1022,-112.5 918,-112.5"/>
<text text-anchor="middle" x="970" y="-119.5" font-family="Helvetica,sans-Serif" font-size="10.00">Core/Index/Index.inl</text>
</a>
</g>
</g>
<!-- Node3&#45;&gt;Node5 -->
<g id="edge4" class="edge"><title>Node3&#45;&gt;Node5</title>
<path fill="none" stroke="midnightblue" d="M931.447,-174.403C938.197,-165.403 948.969,-151.041 957.413,-139.782"/>
<polygon fill="midnightblue" stroke="midnightblue" points="960.365,-141.681 963.565,-131.581 954.765,-137.481 960.365,-141.681"/>
</g>
<!-- Node6&#45;&gt;Node3 -->
<g id="edge6" class="edge"><title>Node6&#45;&gt;Node3</title>
<path fill="none" stroke="midnightblue" d="M845.325,-236.403C860.38,-226.691 885.116,-210.732 903.037,-199.17"/>
<polygon fill="midnightblue" stroke="midnightblue" points="905.195,-201.943 911.7,-193.581 901.4,-196.061 905.195,-201.943"/>
</g>
<!-- Node7 -->
<g id="node7" class="node"><title>Node7</title>
<g id="a_node7"><a xlink:href="RaCore_8hpp.html" target="_top" xlink:title="Core/RaCore.hpp">
<polygon fill="white" stroke="black" points="583.5,-112.5 583.5,-131.5 676.5,-131.5 676.5,-112.5 583.5,-112.5"/>
<text text-anchor="middle" x="630" y="-119.5" font-family="Helvetica,sans-Serif" font-size="10.00">Core/RaCore.hpp</text>
</a>
</g>
</g>
<!-- Node6&#45;&gt;Node7 -->
<g id="edge7" class="edge"><title>Node6&#45;&gt;Node7</title>
<path fill="none" stroke="midnightblue" d="M833.069,-236.263C834.484,-220.405 834.987,-186.792 817,-168 799.216,-149.42 735.126,-136.907 686.896,-129.887"/>
<polygon fill="midnightblue" stroke="midnightblue" points="687.258,-126.403 676.867,-128.472 686.28,-133.335 687.258,-126.403"/>
</g>
<!-- Node8 -->
<g id="node8" class="node"><title>Node8</title>
<g id="a_node8"><a xlink:href="CoreMacros_8hpp.html" target="_top" xlink:title="Core/CoreMacros.hpp">
<polygon fill="white" stroke="black" points="573.5,-56.5 573.5,-75.5 686.5,-75.5 686.5,-56.5 573.5,-56.5"/>
<text text-anchor="middle" x="630" y="-63.5" font-family="Helvetica,sans-Serif" font-size="10.00">Core/CoreMacros.hpp</text>
</a>
</g>
</g>
<!-- Node7&#45;&gt;Node8 -->
<g id="edge8" class="edge"><title>Node7&#45;&gt;Node8</title>
<path fill="none" stroke="midnightblue" d="M630,-112.083C630,-105.006 630,-94.8611 630,-85.9865"/>
<polygon fill="midnightblue" stroke="midnightblue" points="633.5,-85.751 630,-75.7511 626.5,-85.7511 633.5,-85.751"/>
</g>
<!-- Node9 -->
<g id="node9" class="node"><title>Node9</title>
<polygon fill="white" stroke="#bfbfbf" points="474.5,-0.5 474.5,-19.5 523.5,-19.5 523.5,-0.5 474.5,-0.5"/>
<text text-anchor="middle" x="499" y="-7.5" font-family="Helvetica,sans-Serif" font-size="10.00">cassert</text>
</g>
<!-- Node8&#45;&gt;Node9 -->
<g id="edge9" class="edge"><title>Node8&#45;&gt;Node9</title>
<path fill="none" stroke="midnightblue" d="M609.243,-56.4435C587.684,-47.5566 553.737,-33.5632 529.206,-23.4514"/>
<polygon fill="midnightblue" stroke="midnightblue" points="530.239,-20.0917 519.66,-19.5164 527.572,-26.5634 530.239,-20.0917"/>
</g>
<!-- Node10 -->
<g id="node10" class="node"><title>Node10</title>
<polygon fill="white" stroke="#bfbfbf" points="541.5,-0.5 541.5,-19.5 584.5,-19.5 584.5,-0.5 541.5,-0.5"/>
<text text-anchor="middle" x="563" y="-7.5" font-family="Helvetica,sans-Serif" font-size="10.00">cstdio</text>
</g>
<!-- Node8&#45;&gt;Node10 -->
<g id="edge10" class="edge"><title>Node8&#45;&gt;Node10</title>
<path fill="none" stroke="midnightblue" d="M619.235,-56.324C609.234,-48.2631 594.113,-36.0765 582.07,-26.3695"/>
<polygon fill="midnightblue" stroke="midnightblue" points="583.943,-23.3841 573.961,-19.8339 579.55,-28.8343 583.943,-23.3841"/>
</g>
<!-- Node11 -->
<g id="node11" class="node"><title>Node11</title>
<polygon fill="white" stroke="#bfbfbf" points="603,-0.5 603,-19.5 657,-19.5 657,-0.5 603,-0.5"/>
<text text-anchor="middle" x="630" y="-7.5" font-family="Helvetica,sans-Serif" font-size="10.00">iostream</text>
</g>
<!-- Node8&#45;&gt;Node11 -->
<g id="edge11" class="edge"><title>Node8&#45;&gt;Node11</title>
<path fill="none" stroke="midnightblue" d="M630,-56.083C630,-49.0059 630,-38.8611 630,-29.9865"/>
<polygon fill="midnightblue" stroke="midnightblue" points="633.5,-29.751 630,-19.7511 626.5,-29.7511 633.5,-29.751"/>
</g>
<!-- Node12 -->
<g id="node12" class="node"><title>Node12</title>
<polygon fill="white" stroke="#bfbfbf" points="675,-0.5 675,-19.5 727,-19.5 727,-0.5 675,-0.5"/>
<text text-anchor="middle" x="701" y="-7.5" font-family="Helvetica,sans-Serif" font-size="10.00">sstream</text>
</g>
<!-- Node8&#45;&gt;Node12 -->
<g id="edge12" class="edge"><title>Node8&#45;&gt;Node12</title>
<path fill="none" stroke="midnightblue" d="M641.407,-56.324C652.109,-48.1849 668.341,-35.8395 681.163,-26.0874"/>
<polygon fill="midnightblue" stroke="midnightblue" points="683.544,-28.6734 689.385,-19.8339 679.307,-23.1018 683.544,-28.6734"/>
</g>
<!-- Node13 -->
<g id="node13" class="node"><title>Node13</title>
<polygon fill="white" stroke="#bfbfbf" points="745,-0.5 745,-19.5 789,-19.5 789,-0.5 745,-0.5"/>
<text text-anchor="middle" x="767" y="-7.5" font-family="Helvetica,sans-Serif" font-size="10.00">thread</text>
</g>
<!-- Node8&#45;&gt;Node13 -->
<g id="edge13" class="edge"><title>Node8&#45;&gt;Node13</title>
<path fill="none" stroke="midnightblue" d="M651.708,-56.4435C674.355,-47.5171 710.072,-33.4387 735.752,-23.3168"/>
<polygon fill="midnightblue" stroke="midnightblue" points="737.374,-26.4397 745.394,-19.5164 734.807,-19.9273 737.374,-26.4397"/>
</g>
<!-- Node14&#45;&gt;Node7 -->
<g id="edge15" class="edge"><title>Node14&#45;&gt;Node7</title>
<path fill="none" stroke="midnightblue" d="M522.898,-236.374C523.157,-220.988 525.754,-188.505 542,-168 553.936,-152.934 572.275,-142.437 589.129,-135.395"/>
<polygon fill="midnightblue" stroke="midnightblue" points="590.76,-138.516 598.82,-131.64 588.231,-131.989 590.76,-138.516"/>
</g>
<!-- Node15 -->
<g id="node15" class="node"><title>Node15</title>
<polygon fill="white" stroke="#bfbfbf" points="305.5,-174.5 305.5,-193.5 370.5,-193.5 370.5,-174.5 305.5,-174.5"/>
<text text-anchor="middle" x="338" y="-181.5" font-family="Helvetica,sans-Serif" font-size="10.00">Eigen/Core</text>
</g>
<!-- Node14&#45;&gt;Node15 -->
<g id="edge16" class="edge"><title>Node14&#45;&gt;Node15</title>
<path fill="none" stroke="midnightblue" d="M494.679,-236.436C465.754,-227.609 419.6,-213.297 380,-200 377.085,-199.021 374.063,-197.985 371.038,-196.933"/>
<polygon fill="midnightblue" stroke="midnightblue" points="372.086,-193.591 361.491,-193.568 369.759,-200.193 372.086,-193.591"/>
</g>
<!-- Node16 -->
<g id="node16" class="node"><title>Node16</title>
<polygon fill="white" stroke="#bfbfbf" points="551.5,-174.5 551.5,-193.5 638.5,-193.5 638.5,-174.5 551.5,-174.5"/>
<text text-anchor="middle" x="595" y="-181.5" font-family="Helvetica,sans-Serif" font-size="10.00">Eigen/Geometry</text>
</g>
<!-- Node14&#45;&gt;Node16 -->
<g id="edge17" class="edge"><title>Node14&#45;&gt;Node16</title>
<path fill="none" stroke="midnightblue" d="M533.316,-236.403C544.651,-226.958 563.073,-211.606 576.839,-200.134"/>
<polygon fill="midnightblue" stroke="midnightblue" points="579.262,-202.671 584.703,-193.581 574.78,-197.294 579.262,-202.671"/>
</g>
<!-- Node17 -->
<g id="node17" class="node"><title>Node17</title>
<polygon fill="white" stroke="#bfbfbf" points="656.5,-174.5 656.5,-193.5 731.5,-193.5 731.5,-174.5 656.5,-174.5"/>
<text text-anchor="middle" x="694" y="-181.5" font-family="Helvetica,sans-Serif" font-size="10.00">Eigen/Sparse</text>
</g>
<!-- Node14&#45;&gt;Node17 -->
<g id="edge18" class="edge"><title>Node14&#45;&gt;Node17</title>
<path fill="none" stroke="midnightblue" d="M547.5,-236.403C576.96,-226.067 626.579,-208.656 659.802,-196.999"/>
<polygon fill="midnightblue" stroke="midnightblue" points="661.268,-200.194 669.545,-193.581 658.95,-193.589 661.268,-200.194"/>
</g>
<!-- Node18 -->
<g id="node18" class="node"><title>Node18</title>
<polygon fill="white" stroke="#bfbfbf" points="749.5,-174.5 749.5,-193.5 808.5,-193.5 808.5,-174.5 749.5,-174.5"/>
<text text-anchor="middle" x="779" y="-181.5" font-family="Helvetica,sans-Serif" font-size="10.00">functional</text>
</g>
<!-- Node14&#45;&gt;Node18 -->
<g id="edge19" class="edge"><title>Node14&#45;&gt;Node18</title>
<path fill="none" stroke="midnightblue" d="M576.212,-236.459C620.511,-228.756 684.998,-216.164 740,-200 742.967,-199.128 746.027,-198.131 749.067,-197.074"/>
<polygon fill="midnightblue" stroke="midnightblue" points="750.395,-200.315 758.57,-193.576 747.977,-193.746 750.395,-200.315"/>
</g>
<!-- Node19 -->
<g id="node19" class="node"><title>Node19</title>
<polygon fill="white" stroke="#bfbfbf" points="-0.5,-169 -0.5,-199 132.5,-199 132.5,-169 -0.5,-169"/>
<text text-anchor="start" x="7.5" y="-187" font-family="Helvetica,sans-Serif" font-size="10.00">unsupported/Eigen/Aligned</text>
<text text-anchor="middle" x="66" y="-176" font-family="Helvetica,sans-Serif" font-size="10.00">Vector3</text>
</g>
<!-- Node14&#45;&gt;Node19 -->
<g id="edge20" class="edge"><title>Node14&#45;&gt;Node19</title>
<path fill="none" stroke="midnightblue" d="M451.304,-238.286C376.539,-230.892 255.749,-217.846 142.489,-200.167"/>
<polygon fill="midnightblue" stroke="midnightblue" points="143.029,-196.709 132.606,-198.609 141.94,-203.624 143.029,-196.709"/>
</g>
<!-- Node20 -->
<g id="node20" class="node"><title>Node20</title>
<g id="a_node20"><a xlink:href="Math_8hpp.html" target="_top" xlink:title="Core/Math/Math.hpp">
<polygon fill="white" stroke="black" points="389,-174.5 389,-193.5 495,-193.5 495,-174.5 389,-174.5"/>
<text text-anchor="middle" x="442" y="-181.5" font-family="Helvetica,sans-Serif" font-size="10.00">Core/Math/Math.hpp</text>
</a>
</g>
</g>
<!-- Node14&#45;&gt;Node20 -->
<g id="edge21" class="edge"><title>Node14&#45;&gt;Node20</title>
<path fill="none" stroke="midnightblue" d="M511.395,-236.403C498.523,-226.869 477.526,-211.315 461.994,-199.811"/>
<polygon fill="midnightblue" stroke="midnightblue" points="463.703,-196.72 453.584,-193.581 459.536,-202.345 463.703,-196.72"/>
</g>
<!-- Node24 -->
<g id="node24" class="node"><title>Node24</title>
<g id="a_node24"><a xlink:href="LinearAlgebra_8inl.html" target="_top" xlink:title="Core/Math/LinearAlgebra.inl">
<polygon fill="white" stroke="black" points="150.5,-174.5 150.5,-193.5 287.5,-193.5 287.5,-174.5 150.5,-174.5"/>
<text text-anchor="middle" x="219" y="-181.5" font-family="Helvetica,sans-Serif" font-size="10.00">Core/Math/LinearAlgebra.inl</text>
</a>
</g>
</g>
<!-- Node14&#45;&gt;Node24 -->
<g id="edge27" class="edge"><title>Node14&#45;&gt;Node24</title>
<path fill="none" stroke="midnightblue" d="M479.767,-236.467C425.066,-225.671 330.9,-207.086 271.947,-195.45"/>
<polygon fill="midnightblue" stroke="midnightblue" points="272.572,-192.006 262.084,-193.503 271.217,-198.874 272.572,-192.006"/>
</g>
<!-- Node20&#45;&gt;Node7 -->
<g id="edge22" class="edge"><title>Node20&#45;&gt;Node7</title>
<path fill="none" stroke="midnightblue" d="M468.936,-174.403C501.603,-163.978 556.819,-146.356 593.343,-134.699"/>
<polygon fill="midnightblue" stroke="midnightblue" points="594.652,-137.955 603.114,-131.581 592.523,-131.287 594.652,-137.955"/>
</g>
<!-- Node21 -->
<g id="node21" class="node"><title>Node21</title>
<polygon fill="white" stroke="#bfbfbf" points="510,-112.5 510,-131.5 566,-131.5 566,-112.5 510,-112.5"/>
<text text-anchor="middle" x="538" y="-119.5" font-family="Helvetica,sans-Serif" font-size="10.00">algorithm</text>
</g>
<!-- Node20&#45;&gt;Node21 -->
<g id="edge23" class="edge"><title>Node20&#45;&gt;Node21</title>
<path fill="none" stroke="midnightblue" d="M455.754,-174.403C471.366,-164.646 497.063,-148.585 515.583,-137.011"/>
<polygon fill="midnightblue" stroke="midnightblue" points="517.646,-139.849 524.271,-131.581 513.936,-133.913 517.646,-139.849"/>
</g>
<!-- Node22 -->
<g id="node22" class="node"><title>Node22</title>
<polygon fill="white" stroke="#bfbfbf" points="330,-112.5 330,-131.5 374,-131.5 374,-112.5 330,-112.5"/>
<text text-anchor="middle" x="352" y="-119.5" font-family="Helvetica,sans-Serif" font-size="10.00">cmath</text>
</g>
<!-- Node20&#45;&gt;Node22 -->
<g id="edge24" class="edge"><title>Node20&#45;&gt;Node22</title>
<path fill="none" stroke="midnightblue" d="M429.105,-174.403C414.536,-164.691 390.598,-148.732 373.255,-137.17"/>
<polygon fill="midnightblue" stroke="midnightblue" points="375.133,-134.215 364.871,-131.581 371.25,-140.04 375.133,-134.215"/>
</g>
<!-- Node23 -->
<g id="node23" class="node"><title>Node23</title>
<g id="a_node23"><a xlink:href="Math_8inl.html" target="_top" xlink:title="Core/Math/Math.inl">
<polygon fill="white" stroke="black" points="392,-112.5 392,-131.5 492,-131.5 492,-112.5 392,-112.5"/>
<text text-anchor="middle" x="442" y="-119.5" font-family="Helvetica,sans-Serif" font-size="10.00">Core/Math/Math.inl</text>
</a>
</g>
</g>
<!-- Node20&#45;&gt;Node23 -->
<g id="edge25" class="edge"><title>Node20&#45;&gt;Node23</title>
<path fill="none" stroke="midnightblue" d="M437.099,-174.403C435.268,-165.938 434.797,-152.728 435.685,-141.82"/>
<polygon fill="midnightblue" stroke="midnightblue" points="439.198,-141.966 437.103,-131.581 432.264,-141.006 439.198,-141.966"/>
</g>
<!-- Node23&#45;&gt;Node20 -->
<g id="edge26" class="edge"><title>Node23&#45;&gt;Node20</title>
<path fill="none" stroke="midnightblue" d="M446.897,-131.581C448.73,-140.04 449.203,-153.248 448.317,-164.16"/>
<polygon fill="midnightblue" stroke="midnightblue" points="444.803,-164.018 446.901,-174.403 451.737,-164.977 444.803,-164.018"/>
</g>
<!-- Node26 -->
<g id="node26" class="node"><title>Node26</title>
<polygon fill="white" stroke="#bfbfbf" points="1006,-174.5 1006,-193.5 1058,-193.5 1058,-174.5 1006,-174.5"/>
<text text-anchor="middle" x="1032" y="-181.5" font-family="Helvetica,sans-Serif" font-size="10.00">memory</text>
</g>
<!-- Node25&#45;&gt;Node26 -->
<g id="edge29" class="edge"><title>Node25&#45;&gt;Node26</title>
<path fill="none" stroke="midnightblue" d="M1039.71,-236.403C1038.43,-227.849 1036.42,-214.45 1034.77,-203.476"/>
<polygon fill="midnightblue" stroke="midnightblue" points="1038.23,-202.951 1033.29,-193.581 1031.31,-203.989 1038.23,-202.951"/>
</g>
<!-- Node27 -->
<g id="node27" class="node"><title>Node27</title>
<polygon fill="white" stroke="#bfbfbf" points="1076,-174.5 1076,-193.5 1120,-193.5 1120,-174.5 1076,-174.5"/>
<text text-anchor="middle" x="1098" y="-181.5" font-family="Helvetica,sans-Serif" font-size="10.00">vector</text>
</g>
<!-- Node25&#45;&gt;Node27 -->
<g id="edge30" class="edge"><title>Node25&#45;&gt;Node27</title>
<path fill="none" stroke="midnightblue" d="M1049.17,-236.403C1057.89,-227.225 1071.9,-212.47 1082.69,-201.117"/>
<polygon fill="midnightblue" stroke="midnightblue" points="1085.5,-203.241 1089.85,-193.581 1080.42,-198.42 1085.5,-203.241"/>
</g>
<!-- Node28&#45;&gt;Node3 -->
<g id="edge33" class="edge"><title>Node28&#45;&gt;Node3</title>
<path fill="none" stroke="midnightblue" d="M1069.79,-404.427C1150.95,-381.73 1349.69,-316.284 1279,-236 1237.25,-188.584 1059.3,-210.45 997,-200 989.297,-198.708 981.164,-197.177 973.247,-195.595"/>
<polygon fill="midnightblue" stroke="midnightblue" points="973.88,-192.152 963.382,-193.578 972.478,-199.01 973.88,-192.152"/>
</g>
<!-- Node28&#45;&gt;Node6 -->
<g id="edge34" class="edge"><title>Node28&#45;&gt;Node6</title>
<path fill="none" stroke="midnightblue" d="M1011.74,-404.369C993.332,-397.041 968.776,-384.991 952,-368 925.326,-340.983 939.399,-319.285 913,-292 899.568,-278.118 880.916,-267.358 864.895,-259.846"/>
<polygon fill="midnightblue" stroke="midnightblue" points="865.89,-256.457 855.331,-255.589 863.044,-262.853 865.89,-256.457"/>
</g>
<!-- Node28&#45;&gt;Node25 -->
<g id="edge35" class="edge"><title>Node28&#45;&gt;Node25</title>
<path fill="none" stroke="midnightblue" d="M1069.99,-404.438C1088.46,-397.769 1109.95,-386.453 1121,-368 1128.7,-355.147 1132.64,-317.289 1117,-292 1107.94,-277.343 1092.19,-266.882 1077.36,-259.758"/>
<polygon fill="midnightblue" stroke="midnightblue" points="1078.4,-256.389 1067.84,-255.548 1075.57,-262.792 1078.4,-256.389"/>
</g>
<!-- Node29 -->
<g id="node29" class="node"><title>Node29</title>
<g id="a_node29"><a xlink:href="DCEL_2HalfEdge_8inl.html" target="_top" xlink:title="Core/Mesh/DCEL/HalfEdge.inl">
<polygon fill="white" stroke="black" points="961.5,-348.5 961.5,-367.5 1112.5,-367.5 1112.5,-348.5 961.5,-348.5"/>
<text text-anchor="middle" x="1037" y="-355.5" font-family="Helvetica,sans-Serif" font-size="10.00">Core/Mesh/DCEL/HalfEdge.inl</text>
</a>
</g>
</g>
<!-- Node28&#45;&gt;Node29 -->
<g id="edge36" class="edge"><title>Node28&#45;&gt;Node29</title>
<path fill="none" stroke="midnightblue" d="M1031.83,-404.083C1030.32,-396.927 1029.89,-386.635 1030.54,-377.691"/>
<polygon fill="midnightblue" stroke="midnightblue" points="1034.02,-378.126 1031.87,-367.751 1027.08,-377.2 1034.02,-378.126"/>
</g>
<!-- Node29&#45;&gt;Node2 -->
<g id="edge45" class="edge"><title>Node29&#45;&gt;Node2</title>
<path fill="none" stroke="midnightblue" d="M1004.52,-348.444C969.28,-339.162 912.896,-324.309 874.241,-314.127"/>
<polygon fill="midnightblue" stroke="midnightblue" points="874.893,-310.679 864.331,-311.516 873.109,-317.448 874.893,-310.679"/>
</g>
<!-- Node29&#45;&gt;Node28 -->
<g id="edge37" class="edge"><title>Node29&#45;&gt;Node28</title>
<path fill="none" stroke="midnightblue" d="M1042.13,-367.751C1043.66,-374.858 1044.1,-385.136 1043.47,-394.101"/>
<polygon fill="midnightblue" stroke="midnightblue" points="1039.99,-393.713 1042.17,-404.083 1046.93,-394.622 1039.99,-393.713"/>
</g>
<!-- Node30 -->
<g id="node30" class="node"><title>Node30</title>
<g id="a_node30"><a xlink:href="Face_8hpp.html" target="_top" xlink:title="Core/Mesh/DCEL/Face.hpp">
<polygon fill="white" stroke="black" points="970,-292.5 970,-311.5 1108,-311.5 1108,-292.5 970,-292.5"/>
<text text-anchor="middle" x="1039" y="-299.5" font-family="Helvetica,sans-Serif" font-size="10.00">Core/Mesh/DCEL/Face.hpp</text>
</a>
</g>
</g>
<!-- Node29&#45;&gt;Node30 -->
<g id="edge38" class="edge"><title>Node29&#45;&gt;Node30</title>
<path fill="none" stroke="midnightblue" d="M1037.33,-348.083C1037.59,-341.006 1037.97,-330.861 1038.3,-321.986"/>
<polygon fill="midnightblue" stroke="midnightblue" points="1041.8,-321.874 1038.68,-311.751 1034.81,-321.615 1041.8,-321.874"/>
</g>
<!-- Node30&#45;&gt;Node3 -->
<g id="edge39" class="edge"><title>Node30&#45;&gt;Node3</title>
<path fill="none" stroke="midnightblue" d="M1011.74,-292.462C993.012,-285.359 968.771,-273.545 953,-256 939.742,-241.251 932.416,-219.478 928.617,-203.937"/>
<polygon fill="midnightblue" stroke="midnightblue" points="931.983,-202.941 926.44,-193.911 925.142,-204.426 931.983,-202.941"/>
</g>
<!-- Node30&#45;&gt;Node6 -->
<g id="edge40" class="edge"><title>Node30&#45;&gt;Node6</title>
<path fill="none" stroke="midnightblue" d="M1006.2,-292.444C970.62,-283.162 913.686,-268.309 874.653,-258.127"/>
<polygon fill="midnightblue" stroke="midnightblue" points="875.206,-254.654 864.646,-255.516 873.439,-261.427 875.206,-254.654"/>
</g>
<!-- Node30&#45;&gt;Node25 -->
<g id="edge41" class="edge"><title>Node30&#45;&gt;Node25</title>
<path fill="none" stroke="midnightblue" d="M1039.33,-292.083C1039.59,-285.006 1039.97,-274.861 1040.3,-265.986"/>
<polygon fill="midnightblue" stroke="midnightblue" points="1043.8,-265.874 1040.68,-255.751 1036.81,-265.615 1043.8,-265.874"/>
</g>
<!-- Node31 -->
<g id="node31" class="node"><title>Node31</title>
<g id="a_node31"><a xlink:href="Face_8inl.html" target="_top" xlink:title="Core/Mesh/DCEL/Face.inl">
<polygon fill="white" stroke="black" points="1138,-236.5 1138,-255.5 1270,-255.5 1270,-236.5 1138,-236.5"/>
<text text-anchor="middle" x="1204" y="-243.5" font-family="Helvetica,sans-Serif" font-size="10.00">Core/Mesh/DCEL/Face.inl</text>
</a>
</g>
</g>
<!-- Node30&#45;&gt;Node31 -->
<g id="edge42" class="edge"><title>Node30&#45;&gt;Node31</title>
<path fill="none" stroke="midnightblue" d="M1060.06,-292.444C1086.05,-283.28 1130.45,-268.688 1163.16,-258.519"/>
<polygon fill="midnightblue" stroke="midnightblue" points="1164.37,-261.807 1172.9,-255.516 1162.31,-255.117 1164.37,-261.807"/>
</g>
<!-- Node31&#45;&gt;Node28 -->
<g id="edge44" class="edge"><title>Node31&#45;&gt;Node28</title>
<path fill="none" stroke="midnightblue" d="M1201.48,-255.532C1194.69,-277.154 1174.05,-334.732 1138,-368 1121.47,-383.258 1098.9,-393.977 1079.3,-401.115"/>
<polygon fill="midnightblue" stroke="midnightblue" points="1077.97,-397.869 1069.65,-404.431 1080.25,-404.488 1077.97,-397.869"/>
</g>
<!-- Node31&#45;&gt;Node30 -->
<g id="edge43" class="edge"><title>Node31&#45;&gt;Node30</title>
<path fill="none" stroke="midnightblue" d="M1183.06,-255.516C1157.12,-264.664 1112.73,-279.255 1079.99,-289.436"/>
<polygon fill="midnightblue" stroke="midnightblue" points="1078.76,-286.153 1070.23,-292.444 1080.82,-292.842 1078.76,-286.153"/>
</g>
</g>
</svg>
