<?xml version="1.0" encoding="UTF-8" standalone="no"?>
<!DOCTYPE svg PUBLIC "-//W3C//DTD SVG 1.1//EN"
 "http://www.w3.org/Graphics/SVG/1.1/DTD/svg11.dtd">
<!-- Generated by graphviz version 2.36.0 (20140111.2315)
 -->
<!-- Title: /home/travis/build/STORM&#45;IRIT/Radium&#45;Engine/src/Core/Mesh/DCEL/Vertex.cpp Pages: 1 -->
<svg width="1512pt" height="566pt"
 viewBox="0.00 0.00 1512.00 566.00" xmlns="http://www.w3.org/2000/svg" xmlns:xlink="http://www.w3.org/1999/xlink">
<g id="graph0" class="graph" transform="scale(1 1) rotate(0) translate(4 562)">
<title>/home/travis/build/STORM&#45;IRIT/Radium&#45;Engine/src/Core/Mesh/DCEL/Vertex.cpp</title>
<polygon fill="white" stroke="none" points="-4,4 -4,-562 1508,-562 1508,4 -4,4"/>
<!-- Node1 -->
<g id="node1" class="node"><title>Node1</title>
<polygon fill="#bfbfbf" stroke="black" points="1250,-516.5 1250,-557.5 1414,-557.5 1414,-516.5 1250,-516.5"/>
<text text-anchor="start" x="1258" y="-545.5" font-family="Helvetica,sans-Serif" font-size="10.00">/home/travis/build</text>
<text text-anchor="start" x="1258" y="-534.5" font-family="Helvetica,sans-Serif" font-size="10.00">/STORM&#45;IRIT/Radium&#45;Engine</text>
<text text-anchor="middle" x="1332" y="-523.5" font-family="Helvetica,sans-Serif" font-size="10.00">/src/Core/Mesh/DCEL/Vertex.cpp</text>
</g>
<!-- Node2 -->
<g id="node2" class="node"><title>Node2</title>
<g id="a_node2"><a xlink:href="Vertex_8hpp.html" target="_top" xlink:title="Core/Mesh/DCEL/Vertex.hpp">
<polygon fill="white" stroke="black" points="1073.5,-460.5 1073.5,-479.5 1218.5,-479.5 1218.5,-460.5 1073.5,-460.5"/>
<text text-anchor="middle" x="1146" y="-467.5" font-family="Helvetica,sans-Serif" font-size="10.00">Core/Mesh/DCEL/Vertex.hpp</text>
</a>
</g>
</g>
<!-- Node1&#45;&gt;Node2 -->
<g id="edge1" class="edge"><title>Node1&#45;&gt;Node2</title>
<path fill="none" stroke="midnightblue" d="M1276.19,-516.498C1245.07,-505.622 1207.3,-492.421 1180.47,-483.045"/>
<polygon fill="midnightblue" stroke="midnightblue" points="1181.35,-479.647 1170.76,-479.652 1179.04,-486.256 1181.35,-479.647"/>
</g>
<!-- Node29 -->
<g id="node29" class="node"><title>Node29</title>
<g id="a_node29"><a xlink:href="DCEL_2HalfEdge_8hpp.html" target="_top" xlink:title="Core/Mesh/DCEL/HalfEdge.hpp">
<polygon fill="white" stroke="black" points="1125.5,-348.5 1125.5,-367.5 1282.5,-367.5 1282.5,-348.5 1125.5,-348.5"/>
<text text-anchor="middle" x="1204" y="-355.5" font-family="Helvetica,sans-Serif" font-size="10.00">Core/Mesh/DCEL/HalfEdge.hpp</text>
</a>
</g>
</g>
<!-- Node1&#45;&gt;Node29 -->
<g id="edge47" class="edge"><title>Node1&#45;&gt;Node29</title>
<path fill="none" stroke="midnightblue" d="M1326.99,-516.169C1319.2,-488.525 1302.01,-437.983 1273,-404 1261.76,-390.832 1245.72,-380.054 1231.93,-372.352"/>
<polygon fill="midnightblue" stroke="midnightblue" points="1233.31,-369.119 1222.83,-367.518 1230.02,-375.301 1233.31,-369.119"/>
</g>
<!-- Node3 -->
<g id="node3" class="node"><title>Node3</title>
<g id="a_node3"><a xlink:href="Index_8hpp.html" target="_top" xlink:title="Core/Index/Index.hpp">
<polygon fill="white" stroke="black" points="1024,-112.5 1024,-131.5 1134,-131.5 1134,-112.5 1024,-112.5"/>
<text text-anchor="middle" x="1079" y="-119.5" font-family="Helvetica,sans-Serif" font-size="10.00">Core/Index/Index.hpp</text>
</a>
</g>
</g>
<!-- Node2&#45;&gt;Node3 -->
<g id="edge2" class="edge"><title>Node2&#45;&gt;Node3</title>
<path fill="none" stroke="midnightblue" d="M1073.35,-462.548C1009.27,-452.393 926,-426.257 926,-359 926,-359 926,-359 926,-245 926,-209.855 920.319,-193.969 944,-168 962.002,-148.258 988.886,-137.165 1013.94,-130.937"/>
<polygon fill="midnightblue" stroke="midnightblue" points="1014.81,-134.328 1023.79,-128.705 1013.26,-127.501 1014.81,-134.328"/>
</g>
<!-- Node6 -->
<g id="node6" class="node"><title>Node6</title>
<g id="a_node6"><a xlink:href="IndexedObject_8hpp.html" target="_top" xlink:title="Core/Index/IndexedObject.hpp">
<polygon fill="white" stroke="black" points="953.5,-174.5 953.5,-193.5 1102.5,-193.5 1102.5,-174.5 953.5,-174.5"/>
<text text-anchor="middle" x="1028" y="-181.5" font-family="Helvetica,sans-Serif" font-size="10.00">Core/Index/IndexedObject.hpp</text>
</a>
</g>
</g>
<!-- Node2&#45;&gt;Node6 -->
<g id="edge5" class="edge"><title>Node2&#45;&gt;Node6</title>
<path fill="none" stroke="midnightblue" d="M1073.39,-462.824C1013.97,-456.39 935.975,-444.34 912,-424 888.517,-404.078 888,-389.795 888,-359 888,-359 888,-359 888,-301 888,-247.231 949.987,-213.658 991.468,-197.211"/>
<polygon fill="midnightblue" stroke="midnightblue" points="992.904,-200.409 1001.01,-193.584 990.416,-193.866 992.904,-200.409"/>
</g>
<!-- Node14 -->
<g id="node14" class="node"><title>Node14</title>
<g id="a_node14"><a xlink:href="LinearAlgebra_8hpp.html" target="_top" xlink:title="Core/Math/LinearAlgebra.hpp">
<polygon fill="white" stroke="black" points="573.5,-236.5 573.5,-255.5 716.5,-255.5 716.5,-236.5 573.5,-236.5"/>
<text text-anchor="middle" x="645" y="-243.5" font-family="Helvetica,sans-Serif" font-size="10.00">Core/Math/LinearAlgebra.hpp</text>
</a>
</g>
</g>
<!-- Node2&#45;&gt;Node14 -->
<g id="edge14" class="edge"><title>Node2&#45;&gt;Node14</title>
<path fill="none" stroke="midnightblue" d="M1073.4,-466.637C1016.98,-462.555 937.843,-451.823 874,-424 782.313,-384.042 694.765,-299.219 660.347,-263.453"/>
<polygon fill="midnightblue" stroke="midnightblue" points="662.544,-260.684 653.119,-255.845 657.47,-265.505 662.544,-260.684"/>
</g>
<!-- Node25 -->
<g id="node25" class="node"><title>Node25</title>
<g id="a_node25"><a xlink:href="Definition_8hpp.html" target="_top" xlink:title="Core/Mesh/DCEL/Definition.hpp">
<polygon fill="white" stroke="black" points="1346,-174.5 1346,-193.5 1504,-193.5 1504,-174.5 1346,-174.5"/>
<text text-anchor="middle" x="1425" y="-181.5" font-family="Helvetica,sans-Serif" font-size="10.00">Core/Mesh/DCEL/Definition.hpp</text>
</a>
</g>
</g>
<!-- Node2&#45;&gt;Node25 -->
<g id="edge28" class="edge"><title>Node2&#45;&gt;Node25</title>
<path fill="none" stroke="midnightblue" d="M1218.79,-467.296C1293.84,-461.204 1400,-438.531 1400,-359 1400,-359 1400,-359 1400,-301 1400,-265.769 1411.16,-225.842 1418.56,-203.216"/>
<polygon fill="midnightblue" stroke="midnightblue" points="1421.93,-204.189 1421.83,-193.594 1415.3,-201.936 1421.93,-204.189"/>
</g>
<!-- Node28 -->
<g id="node28" class="node"><title>Node28</title>
<g id="a_node28"><a xlink:href="Vertex_8inl.html" target="_top" xlink:title="Core/Mesh/DCEL/Vertex.inl">
<polygon fill="white" stroke="black" points="1125.5,-404.5 1125.5,-423.5 1264.5,-423.5 1264.5,-404.5 1125.5,-404.5"/>
<text text-anchor="middle" x="1195" y="-411.5" font-family="Helvetica,sans-Serif" font-size="10.00">Core/Mesh/DCEL/Vertex.inl</text>
</a>
</g>
</g>
<!-- Node2&#45;&gt;Node28 -->
<g id="edge31" class="edge"><title>Node2&#45;&gt;Node28</title>
<path fill="none" stroke="midnightblue" d="M1148.93,-460.083C1154.46,-452.141 1164.82,-440.335 1174.46,-430.797"/>
<polygon fill="midnightblue" stroke="midnightblue" points="1177.06,-433.16 1181.93,-423.751 1172.25,-428.068 1177.06,-433.16"/>
</g>
<!-- Node4 -->
<g id="node4" class="node"><title>Node4</title>
<polygon fill="white" stroke="#bfbfbf" points="1104,-56.5 1104,-75.5 1144,-75.5 1144,-56.5 1104,-56.5"/>
<text text-anchor="middle" x="1124" y="-63.5" font-family="Helvetica,sans-Serif" font-size="10.00">limits</text>
</g>
<!-- Node3&#45;&gt;Node4 -->
<g id="edge3" class="edge"><title>Node3&#45;&gt;Node4</title>
<path fill="none" stroke="midnightblue" d="M1086.43,-112.083C1092.85,-104.377 1102.31,-93.0333 1110.12,-83.6531"/>
<polygon fill="midnightblue" stroke="midnightblue" points="1112.99,-85.674 1116.71,-75.7511 1107.62,-81.1927 1112.99,-85.674"/>
</g>
<!-- Node5 -->
<g id="node5" class="node"><title>Node5</title>
<g id="a_node5"><a xlink:href="Index_8inl.html" target="_top" xlink:title="Core/Index/Index.inl">
<polygon fill="white" stroke="black" points="982,-56.5 982,-75.5 1086,-75.5 1086,-56.5 982,-56.5"/>
<text text-anchor="middle" x="1034" y="-63.5" font-family="Helvetica,sans-Serif" font-size="10.00">Core/Index/Index.inl</text>
</a>
</g>
</g>
<!-- Node3&#45;&gt;Node5 -->
<g id="edge4" class="edge"><title>Node3&#45;&gt;Node5</title>
<path fill="none" stroke="midnightblue" d="M1071.57,-112.083C1065.15,-104.377 1055.69,-93.0333 1047.88,-83.6531"/>
<polygon fill="midnightblue" stroke="midnightblue" points="1050.38,-81.1927 1041.29,-75.7511 1045.01,-85.674 1050.38,-81.1927"/>
</g>
<!-- Node6&#45;&gt;Node3 -->
<g id="edge6" class="edge"><title>Node6&#45;&gt;Node3</title>
<path fill="none" stroke="midnightblue" d="M1035.31,-174.403C1043.03,-165.314 1055.41,-150.756 1065.02,-139.449"/>
<polygon fill="midnightblue" stroke="midnightblue" points="1067.9,-141.467 1071.71,-131.581 1062.56,-136.933 1067.9,-141.467"/>
</g>
<!-- Node7 -->
<g id="node7" class="node"><title>Node7</title>
<g id="a_node7"><a xlink:href="RaCore_8hpp.html" target="_top" xlink:title="Core/RaCore.hpp">
<polygon fill="white" stroke="black" points="763.5,-112.5 763.5,-131.5 856.5,-131.5 856.5,-112.5 763.5,-112.5"/>
<text text-anchor="middle" x="810" y="-119.5" font-family="Helvetica,sans-Serif" font-size="10.00">Core/RaCore.hpp</text>
</a>
</g>
</g>
<!-- Node6&#45;&gt;Node7 -->
<g id="edge7" class="edge"><title>Node6&#45;&gt;Node7</title>
<path fill="none" stroke="midnightblue" d="M996.766,-174.403C958.4,-163.844 893.213,-145.903 850.889,-134.254"/>
<polygon fill="midnightblue" stroke="midnightblue" points="851.746,-130.86 841.176,-131.581 849.889,-137.609 851.746,-130.86"/>
</g>
<!-- Node8 -->
<g id="node8" class="node"><title>Node8</title>
<g id="a_node8"><a xlink:href="CoreMacros_8hpp.html" target="_top" xlink:title="Core/CoreMacros.hpp">
<polygon fill="white" stroke="black" points="753.5,-56.5 753.5,-75.5 866.5,-75.5 866.5,-56.5 753.5,-56.5"/>
<text text-anchor="middle" x="810" y="-63.5" font-family="Helvetica,sans-Serif" font-size="10.00">Core/CoreMacros.hpp</text>
</a>
</g>
</g>
<!-- Node7&#45;&gt;Node8 -->
<g id="edge8" class="edge"><title>Node7&#45;&gt;Node8</title>
<path fill="none" stroke="midnightblue" d="M810,-112.083C810,-105.006 810,-94.8611 810,-85.9865"/>
<polygon fill="midnightblue" stroke="midnightblue" points="813.5,-85.751 810,-75.7511 806.5,-85.7511 813.5,-85.751"/>
</g>
<!-- Node9 -->
<g id="node9" class="node"><title>Node9</title>
<polygon fill="white" stroke="#bfbfbf" points="654.5,-0.5 654.5,-19.5 703.5,-19.5 703.5,-0.5 654.5,-0.5"/>
<text text-anchor="middle" x="679" y="-7.5" font-family="Helvetica,sans-Serif" font-size="10.00">cassert</text>
</g>
<!-- Node8&#45;&gt;Node9 -->
<g id="edge9" class="edge"><title>Node8&#45;&gt;Node9</title>
<path fill="none" stroke="midnightblue" d="M789.243,-56.4435C767.684,-47.5566 733.737,-33.5632 709.206,-23.4514"/>
<polygon fill="midnightblue" stroke="midnightblue" points="710.239,-20.0917 699.66,-19.5164 707.572,-26.5634 710.239,-20.0917"/>
</g>
<!-- Node10 -->
<g id="node10" class="node"><title>Node10</title>
<polygon fill="white" stroke="#bfbfbf" points="721.5,-0.5 721.5,-19.5 764.5,-19.5 764.5,-0.5 721.5,-0.5"/>
<text text-anchor="middle" x="743" y="-7.5" font-family="Helvetica,sans-Serif" font-size="10.00">cstdio</text>
</g>
<!-- Node8&#45;&gt;Node10 -->
<g id="edge10" class="edge"><title>Node8&#45;&gt;Node10</title>
<path fill="none" stroke="midnightblue" d="M799.235,-56.324C789.234,-48.2631 774.113,-36.0765 762.07,-26.3695"/>
<polygon fill="midnightblue" stroke="midnightblue" points="763.943,-23.3841 753.961,-19.8339 759.55,-28.8343 763.943,-23.3841"/>
</g>
<!-- Node11 -->
<g id="node11" class="node"><title>Node11</title>
<polygon fill="white" stroke="#bfbfbf" points="783,-0.5 783,-19.5 837,-19.5 837,-0.5 783,-0.5"/>
<text text-anchor="middle" x="810" y="-7.5" font-family="Helvetica,sans-Serif" font-size="10.00">iostream</text>
</g>
<!-- Node8&#45;&gt;Node11 -->
<g id="edge11" class="edge"><title>Node8&#45;&gt;Node11</title>
<path fill="none" stroke="midnightblue" d="M810,-56.083C810,-49.0059 810,-38.8611 810,-29.9865"/>
<polygon fill="midnightblue" stroke="midnightblue" points="813.5,-29.751 810,-19.7511 806.5,-29.7511 813.5,-29.751"/>
</g>
<!-- Node12 -->
<g id="node12" class="node"><title>Node12</title>
<polygon fill="white" stroke="#bfbfbf" points="855,-0.5 855,-19.5 907,-19.5 907,-0.5 855,-0.5"/>
<text text-anchor="middle" x="881" y="-7.5" font-family="Helvetica,sans-Serif" font-size="10.00">sstream</text>
</g>
<!-- Node8&#45;&gt;Node12 -->
<g id="edge12" class="edge"><title>Node8&#45;&gt;Node12</title>
<path fill="none" stroke="midnightblue" d="M821.407,-56.324C832.109,-48.1849 848.341,-35.8395 861.163,-26.0874"/>
<polygon fill="midnightblue" stroke="midnightblue" points="863.544,-28.6734 869.385,-19.8339 859.307,-23.1018 863.544,-28.6734"/>
</g>
<!-- Node13 -->
<g id="node13" class="node"><title>Node13</title>
<polygon fill="white" stroke="#bfbfbf" points="925,-0.5 925,-19.5 969,-19.5 969,-0.5 925,-0.5"/>
<text text-anchor="middle" x="947" y="-7.5" font-family="Helvetica,sans-Serif" font-size="10.00">thread</text>
</g>
<!-- Node8&#45;&gt;Node13 -->
<g id="edge13" class="edge"><title>Node8&#45;&gt;Node13</title>
<path fill="none" stroke="midnightblue" d="M831.708,-56.4435C854.355,-47.5171 890.072,-33.4387 915.752,-23.3168"/>
<polygon fill="midnightblue" stroke="midnightblue" points="917.374,-26.4397 925.394,-19.5164 914.807,-19.9273 917.374,-26.4397"/>
</g>
<!-- Node14&#45;&gt;Node7 -->
<g id="edge15" class="edge"><title>Node14&#45;&gt;Node7</title>
<path fill="none" stroke="midnightblue" d="M716.514,-237.487C742.802,-231.297 770.802,-220.118 790,-200 804.94,-184.344 809.084,-159.009 810.051,-141.708"/>
<polygon fill="midnightblue" stroke="midnightblue" points="813.55,-141.767 810.309,-131.68 806.553,-141.587 813.55,-141.767"/>
</g>
<!-- Node15 -->
<g id="node15" class="node"><title>Node15</title>
<polygon fill="white" stroke="#bfbfbf" points="518.5,-174.5 518.5,-193.5 583.5,-193.5 583.5,-174.5 518.5,-174.5"/>
<text text-anchor="middle" x="551" y="-181.5" font-family="Helvetica,sans-Serif" font-size="10.00">Eigen/Core</text>
</g>
<!-- Node14&#45;&gt;Node15 -->
<g id="edge16" class="edge"><title>Node14&#45;&gt;Node15</title>
<path fill="none" stroke="midnightblue" d="M631.532,-236.403C616.315,-226.691 591.313,-210.732 573.199,-199.17"/>
<polygon fill="midnightblue" stroke="midnightblue" points="574.755,-196.011 564.443,-193.581 570.989,-201.911 574.755,-196.011"/>
</g>
<!-- Node16 -->
<g id="node16" class="node"><title>Node16</title>
<polygon fill="white" stroke="#bfbfbf" points="601.5,-174.5 601.5,-193.5 688.5,-193.5 688.5,-174.5 601.5,-174.5"/>
<text text-anchor="middle" x="645" y="-181.5" font-family="Helvetica,sans-Serif" font-size="10.00">Eigen/Geometry</text>
</g>
<!-- Node14&#45;&gt;Node16 -->
<g id="edge17" class="edge"><title>Node14&#45;&gt;Node16</title>
<path fill="none" stroke="midnightblue" d="M645,-236.403C645,-227.938 645,-214.728 645,-203.82"/>
<polygon fill="midnightblue" stroke="midnightblue" points="648.5,-203.581 645,-193.581 641.5,-203.581 648.5,-203.581"/>
</g>
<!-- Node17 -->
<g id="node17" class="node"><title>Node17</title>
<polygon fill="white" stroke="#bfbfbf" points="706.5,-174.5 706.5,-193.5 781.5,-193.5 781.5,-174.5 706.5,-174.5"/>
<text text-anchor="middle" x="744" y="-181.5" font-family="Helvetica,sans-Serif" font-size="10.00">Eigen/Sparse</text>
</g>
<!-- Node14&#45;&gt;Node17 -->
<g id="edge18" class="edge"><title>Node14&#45;&gt;Node17</title>
<path fill="none" stroke="midnightblue" d="M659.184,-236.403C675.358,-226.601 702.026,-210.439 721.143,-198.853"/>
<polygon fill="midnightblue" stroke="midnightblue" points="723.104,-201.757 729.842,-193.581 719.476,-195.77 723.104,-201.757"/>
</g>
<!-- Node18 -->
<g id="node18" class="node"><title>Node18</title>
<polygon fill="white" stroke="#bfbfbf" points="838.5,-174.5 838.5,-193.5 897.5,-193.5 897.5,-174.5 838.5,-174.5"/>
<text text-anchor="middle" x="868" y="-181.5" font-family="Helvetica,sans-Serif" font-size="10.00">functional</text>
</g>
<!-- Node14&#45;&gt;Node18 -->
<g id="edge19" class="edge"><title>Node14&#45;&gt;Node18</title>
<path fill="none" stroke="midnightblue" d="M682.612,-236.495C719.002,-228.043 775.602,-214.307 824,-200 827.352,-199.009 830.83,-197.924 834.294,-196.805"/>
<polygon fill="midnightblue" stroke="midnightblue" points="835.52,-200.086 843.907,-193.612 833.314,-193.443 835.52,-200.086"/>
</g>
<!-- Node19 -->
<g id="node19" class="node"><title>Node19</title>
<polygon fill="white" stroke="#bfbfbf" points="212.5,-169 212.5,-199 345.5,-199 345.5,-169 212.5,-169"/>
<text text-anchor="start" x="220.5" y="-187" font-family="Helvetica,sans-Serif" font-size="10.00">unsupported/Eigen/Aligned</text>
<text text-anchor="middle" x="279" y="-176" font-family="Helvetica,sans-Serif" font-size="10.00">Vector3</text>
</g>
<!-- Node14&#45;&gt;Node19 -->
<g id="edge20" class="edge"><title>Node14&#45;&gt;Node19</title>
<path fill="none" stroke="midnightblue" d="M584.681,-236.462C527.985,-228.258 440.508,-215.142 355.688,-200.259"/>
<polygon fill="midnightblue" stroke="midnightblue" points="356.084,-196.775 345.628,-198.484 354.867,-203.669 356.084,-196.775"/>
</g>
<!-- Node20 -->
<g id="node20" class="node"><title>Node20</title>
<g id="a_node20"><a xlink:href="Math_8hpp.html" target="_top" xlink:title="Core/Math/Math.hpp">
<polygon fill="white" stroke="black" points="88,-174.5 88,-193.5 194,-193.5 194,-174.5 88,-174.5"/>
<text text-anchor="middle" x="141" y="-181.5" font-family="Helvetica,sans-Serif" font-size="10.00">Core/Math/Math.hpp</text>
</a>
</g>
</g>
<!-- Node14&#45;&gt;Node20 -->
<g id="edge21" class="edge"><title>Node14&#45;&gt;Node20</title>
<path fill="none" stroke="midnightblue" d="M573.402,-240.714C485.649,-234.772 332.629,-222.174 203,-200 196.326,-198.858 189.303,-197.406 182.479,-195.858"/>
<polygon fill="midnightblue" stroke="midnightblue" points="183.224,-192.437 172.687,-193.544 181.614,-199.25 183.224,-192.437"/>
</g>
<!-- Node24 -->
<g id="node24" class="node"><title>Node24</title>
<g id="a_node24"><a xlink:href="LinearAlgebra_8inl.html" target="_top" xlink:title="Core/Math/LinearAlgebra.inl">
<polygon fill="white" stroke="black" points="363.5,-174.5 363.5,-193.5 500.5,-193.5 500.5,-174.5 363.5,-174.5"/>
<text text-anchor="middle" x="432" y="-181.5" font-family="Helvetica,sans-Serif" font-size="10.00">Core/Math/LinearAlgebra.inl</text>
</a>
</g>
</g>
<!-- Node14&#45;&gt;Node24 -->
<g id="edge27" class="edge"><title>Node14&#45;&gt;Node24</title>
<path fill="none" stroke="midnightblue" d="M614.482,-236.403C577.075,-225.866 513.573,-207.978 472.213,-196.328"/>
<polygon fill="midnightblue" stroke="midnightblue" points="473.036,-192.923 462.461,-193.581 471.137,-199.661 473.036,-192.923"/>
</g>
<!-- Node20&#45;&gt;Node7 -->
<g id="edge22" class="edge"><title>Node20&#45;&gt;Node7</title>
<path fill="none" stroke="midnightblue" d="M172.023,-174.443C181.861,-172.013 192.825,-169.597 203,-168 403.745,-136.492 645.401,-126.928 753.238,-124.12"/>
<polygon fill="midnightblue" stroke="midnightblue" points="753.341,-127.618 763.25,-123.868 753.166,-120.62 753.341,-127.618"/>
</g>
<!-- Node21 -->
<g id="node21" class="node"><title>Node21</title>
<polygon fill="white" stroke="#bfbfbf" points="0,-112.5 0,-131.5 56,-131.5 56,-112.5 0,-112.5"/>
<text text-anchor="middle" x="28" y="-119.5" font-family="Helvetica,sans-Serif" font-size="10.00">algorithm</text>
</g>
<!-- Node20&#45;&gt;Node21 -->
<g id="edge23" class="edge"><title>Node20&#45;&gt;Node21</title>
<path fill="none" stroke="midnightblue" d="M124.81,-174.403C106.098,-164.468 75.0769,-147.997 53.2013,-136.381"/>
<polygon fill="midnightblue" stroke="midnightblue" points="54.6337,-133.179 44.1601,-131.581 51.3509,-139.362 54.6337,-133.179"/>
</g>
<!-- Node22 -->
<g id="node22" class="node"><title>Node22</title>
<polygon fill="white" stroke="#bfbfbf" points="74,-112.5 74,-131.5 118,-131.5 118,-112.5 74,-112.5"/>
<text text-anchor="middle" x="96" y="-119.5" font-family="Helvetica,sans-Serif" font-size="10.00">cmath</text>
</g>
<!-- Node20&#45;&gt;Node22 -->
<g id="edge24" class="edge"><title>Node20&#45;&gt;Node22</title>
<path fill="none" stroke="midnightblue" d="M134.553,-174.403C127.803,-165.403 117.031,-151.041 108.587,-139.782"/>
<polygon fill="midnightblue" stroke="midnightblue" points="111.235,-137.481 102.435,-131.581 105.635,-141.681 111.235,-137.481"/>
</g>
<!-- Node23 -->
<g id="node23" class="node"><title>Node23</title>
<g id="a_node23"><a xlink:href="Math_8inl.html" target="_top" xlink:title="Core/Math/Math.inl">
<polygon fill="white" stroke="black" points="136,-112.5 136,-131.5 236,-131.5 236,-112.5 136,-112.5"/>
<text text-anchor="middle" x="186" y="-119.5" font-family="Helvetica,sans-Serif" font-size="10.00">Core/Math/Math.inl</text>
</a>
</g>
</g>
<!-- Node20&#45;&gt;Node23 -->
<g id="edge25" class="edge"><title>Node20&#45;&gt;Node23</title>
<path fill="none" stroke="midnightblue" d="M142.547,-174.403C147.445,-165.225 158.125,-150.47 167.85,-139.117"/>
<polygon fill="midnightblue" stroke="midnightblue" points="170.555,-141.345 174.667,-131.581 165.364,-136.649 170.555,-141.345"/>
</g>
<!-- Node23&#45;&gt;Node20 -->
<g id="edge26" class="edge"><title>Node23&#45;&gt;Node20</title>
<path fill="none" stroke="midnightblue" d="M184.462,-131.581C179.57,-140.752 168.893,-155.506 159.166,-166.863"/>
<polygon fill="midnightblue" stroke="midnightblue" points="156.459,-164.639 152.348,-174.403 161.651,-169.334 156.459,-164.639"/>
</g>
<!-- Node26 -->
<g id="node26" class="node"><title>Node26</title>
<polygon fill="white" stroke="#bfbfbf" points="1366,-112.5 1366,-131.5 1418,-131.5 1418,-112.5 1366,-112.5"/>
<text text-anchor="middle" x="1392" y="-119.5" font-family="Helvetica,sans-Serif" font-size="10.00">memory</text>
</g>
<!-- Node25&#45;&gt;Node26 -->
<g id="edge29" class="edge"><title>Node25&#45;&gt;Node26</title>
<path fill="none" stroke="midnightblue" d="M1420.27,-174.403C1415.42,-165.582 1407.73,-151.608 1401.6,-140.455"/>
<polygon fill="midnightblue" stroke="midnightblue" points="1404.61,-138.656 1396.72,-131.581 1398.47,-142.029 1404.61,-138.656"/>
</g>
<!-- Node27 -->
<g id="node27" class="node"><title>Node27</title>
<polygon fill="white" stroke="#bfbfbf" points="1436,-112.5 1436,-131.5 1480,-131.5 1480,-112.5 1436,-112.5"/>
<text text-anchor="middle" x="1458" y="-119.5" font-family="Helvetica,sans-Serif" font-size="10.00">vector</text>
</g>
<!-- Node25&#45;&gt;Node27 -->
<g id="edge30" class="edge"><title>Node25&#45;&gt;Node27</title>
<path fill="none" stroke="midnightblue" d="M1429.73,-174.403C1434.58,-165.582 1442.27,-151.608 1448.4,-140.455"/>
<polygon fill="midnightblue" stroke="midnightblue" points="1451.53,-142.029 1453.28,-131.581 1445.39,-138.656 1451.53,-142.029"/>
</g>
<!-- Node28&#45;&gt;Node2 -->
<g id="edge32" class="edge"><title>Node28&#45;&gt;Node2</title>
<path fill="none" stroke="midnightblue" d="M1192.13,-423.834C1186.61,-431.791 1176.17,-443.673 1166.49,-453.253"/>
<polygon fill="midnightblue" stroke="midnightblue" points="1163.86,-450.918 1158.99,-460.324 1168.66,-456.011 1163.86,-450.918"/>
</g>
<!-- Node28&#45;&gt;Node29 -->
<g id="edge33" class="edge"><title>Node28&#45;&gt;Node29</title>
<path fill="none" stroke="midnightblue" d="M1196.49,-404.083C1197.68,-396.927 1199.39,-386.635 1200.88,-377.691"/>
<polygon fill="midnightblue" stroke="midnightblue" points="1204.35,-378.19 1202.54,-367.751 1197.45,-377.04 1204.35,-378.19"/>
</g>
<!-- Node29&#45;&gt;Node3 -->
<g id="edge34" class="edge"><title>Node29&#45;&gt;Node3</title>
<path fill="none" stroke="midnightblue" d="M1202.7,-348.48C1200.44,-335.541 1194.95,-310.487 1184,-292 1172.62,-272.802 1161.41,-274.549 1149,-256 1125.32,-220.588 1131.9,-205.12 1111,-168 1105.47,-158.185 1098.28,-147.9 1092.11,-139.644"/>
<polygon fill="midnightblue" stroke="midnightblue" points="1094.81,-137.411 1085.95,-131.6 1089.25,-141.667 1094.81,-137.411"/>
</g>
<!-- Node29&#45;&gt;Node6 -->
<g id="edge35" class="edge"><title>Node29&#45;&gt;Node6</title>
<path fill="none" stroke="midnightblue" d="M1127.72,-348.471C1081.67,-341.574 1029.22,-329.999 1015,-312 990.017,-280.37 1007.09,-229.588 1019.07,-202.827"/>
<polygon fill="midnightblue" stroke="midnightblue" points="1022.35,-204.077 1023.47,-193.541 1016.03,-201.084 1022.35,-204.077"/>
</g>
<!-- Node29&#45;&gt;Node25 -->
<g id="edge36" class="edge"><title>Node29&#45;&gt;Node25</title>
<path fill="none" stroke="midnightblue" d="M1223.16,-348.468C1240.73,-340.248 1267.12,-326.893 1288,-312 1336.84,-277.158 1386.63,-226.359 1410.49,-200.855"/>
<polygon fill="midnightblue" stroke="midnightblue" points="1413.07,-203.228 1417.3,-193.515 1407.93,-198.469 1413.07,-203.228"/>
</g>
<!-- Node30 -->
<g id="node30" class="node"><title>Node30</title>
<g id="a_node30"><a xlink:href="DCEL_2HalfEdge_8inl.html" target="_top" xlink:title="Core/Mesh/DCEL/HalfEdge.inl">
<polygon fill="white" stroke="black" points="1024.5,-292.5 1024.5,-311.5 1175.5,-311.5 1175.5,-292.5 1024.5,-292.5"/>
<text text-anchor="middle" x="1100" y="-299.5" font-family="Helvetica,sans-Serif" font-size="10.00">Core/Mesh/DCEL/HalfEdge.inl</text>
</a>
</g>
</g>
<!-- Node29&#45;&gt;Node30 -->
<g id="edge37" class="edge"><title>Node29&#45;&gt;Node30</title>
<path fill="none" stroke="midnightblue" d="M1182.43,-348.444C1164.13,-339.912 1138.34,-326.675 1120.39,-316.683"/>
<polygon fill="midnightblue" stroke="midnightblue" points="1121.74,-313.425 1111.32,-311.516 1118.28,-319.507 1121.74,-313.425"/>
</g>
<!-- Node30&#45;&gt;Node2 -->
<g id="edge46" class="edge"><title>Node30&#45;&gt;Node2</title>
<path fill="none" stroke="midnightblue" d="M1099.82,-311.532C1099.68,-331.761 1100.93,-383.936 1116,-424 1119.79,-434.089 1126.22,-444.178 1132.15,-452.239"/>
<polygon fill="midnightblue" stroke="midnightblue" points="1129.57,-454.624 1138.47,-460.37 1135.1,-450.327 1129.57,-454.624"/>
</g>
<!-- Node30&#45;&gt;Node29 -->
<g id="edge38" class="edge"><title>Node30&#45;&gt;Node29</title>
<path fill="none" stroke="midnightblue" d="M1121.78,-311.655C1139.98,-320.149 1165.48,-333.241 1183.36,-343.177"/>
<polygon fill="midnightblue" stroke="midnightblue" points="1181.98,-346.423 1192.41,-348.324 1185.44,-340.338 1181.98,-346.423"/>
</g>
<!-- Node31 -->
<g id="node31" class="node"><title>Node31</title>
<g id="a_node31"><a xlink:href="Face_8hpp.html" target="_top" xlink:title="Core/Mesh/DCEL/Face.hpp">
<polygon fill="white" stroke="black" points="1158,-236.5 1158,-255.5 1296,-255.5 1296,-236.5 1158,-236.5"/>
<text text-anchor="middle" x="1227" y="-243.5" font-family="Helvetica,sans-Serif" font-size="10.00">Core/Mesh/DCEL/Face.hpp</text>
</a>
</g>
</g>
<!-- Node30&#45;&gt;Node31 -->
<g id="edge39" class="edge"><title>Node30&#45;&gt;Node31</title>
<path fill="none" stroke="midnightblue" d="M1120.12,-292.444C1141.02,-283.557 1173.93,-269.563 1197.72,-259.451"/>
<polygon fill="midnightblue" stroke="midnightblue" points="1199.14,-262.65 1206.97,-255.516 1196.4,-256.208 1199.14,-262.65"/>
</g>
<!-- Node31&#45;&gt;Node3 -->
<g id="edge40" class="edge"><title>Node31&#45;&gt;Node3</title>
<path fill="none" stroke="midnightblue" d="M1218.64,-236.486C1204.07,-221.821 1172.81,-191.141 1144,-168 1130.31,-157.003 1114.07,-145.758 1101.24,-137.259"/>
<polygon fill="midnightblue" stroke="midnightblue" points="1102.88,-134.147 1092.6,-131.6 1099.05,-140.004 1102.88,-134.147"/>
</g>
<!-- Node31&#45;&gt;Node6 -->
<g id="edge41" class="edge"><title>Node31&#45;&gt;Node6</title>
<path fill="none" stroke="midnightblue" d="M1198.49,-236.403C1163.76,-225.933 1104.96,-208.205 1066.31,-196.55"/>
<polygon fill="midnightblue" stroke="midnightblue" points="1067.04,-193.116 1056.46,-193.581 1065.02,-199.818 1067.04,-193.116"/>
</g>
<!-- Node31&#45;&gt;Node25 -->
<g id="edge42" class="edge"><title>Node31&#45;&gt;Node25</title>
<path fill="none" stroke="midnightblue" d="M1255.37,-236.403C1289.92,-225.933 1348.42,-208.205 1386.88,-196.55"/>
<polygon fill="midnightblue" stroke="midnightblue" points="1388.13,-199.83 1396.68,-193.581 1386.1,-193.131 1388.13,-199.83"/>
</g>
<!-- Node32 -->
<g id="node32" class="node"><title>Node32</title>
<g id="a_node32"><a xlink:href="Face_8inl.html" target="_top" xlink:title="Core/Mesh/DCEL/Face.inl">
<polygon fill="white" stroke="black" points="1196,-174.5 1196,-193.5 1328,-193.5 1328,-174.5 1196,-174.5"/>
<text text-anchor="middle" x="1262" y="-181.5" font-family="Helvetica,sans-Serif" font-size="10.00">Core/Mesh/DCEL/Face.inl</text>
</a>
</g>
</g>
<!-- Node31&#45;&gt;Node32 -->
<g id="edge43" class="edge"><title>Node31&#45;&gt;Node32</title>
<path fill="none" stroke="midnightblue" d="M1227.11,-236.403C1230.42,-227.403 1238.39,-213.041 1246.08,-201.782"/>
<polygon fill="midnightblue" stroke="midnightblue" points="1249,-203.714 1252.1,-193.581 1243.36,-199.573 1249,-203.714"/>
</g>
<!-- Node32&#45;&gt;Node29 -->
<g id="edge45" class="edge"><title>Node32&#45;&gt;Node29</title>
<path fill="none" stroke="midnightblue" d="M1273.48,-193.506C1289.35,-206.388 1314.98,-231.902 1305,-256 1289.2,-294.156 1251.21,-325.413 1226.59,-342.599"/>
<polygon fill="midnightblue" stroke="midnightblue" points="1224.51,-339.778 1218.19,-348.28 1228.43,-345.576 1224.51,-339.778"/>
</g>
<!-- Node32&#45;&gt;Node31 -->
<g id="edge44" class="edge"><title>Node32&#45;&gt;Node31</title>
<path fill="none" stroke="midnightblue" d="M1261.89,-193.581C1258.59,-202.574 1250.63,-216.936 1242.93,-228.198"/>
<polygon fill="midnightblue" stroke="midnightblue" points="1240.01,-226.27 1236.92,-236.403 1245.65,-230.41 1240.01,-226.27"/>
</g>
</g>
</svg>
