<?xml version="1.0" encoding="UTF-8" standalone="no"?>
<!DOCTYPE svg PUBLIC "-//W3C//DTD SVG 1.1//EN"
 "http://www.w3.org/Graphics/SVG/1.1/DTD/svg11.dtd">
<!-- Generated by graphviz version 2.36.0 (20140111.2315)
 -->
<!-- Title: /home/travis/build/STORM&#45;IRIT/Radium&#45;Engine/src/Core/Mesh/DCEL/Vertex.hpp Pages: 1 -->
<svg width="1500pt" height="510pt"
 viewBox="0.00 0.00 1500.00 510.00" xmlns="http://www.w3.org/2000/svg" xmlns:xlink="http://www.w3.org/1999/xlink">
<g id="graph0" class="graph" transform="scale(1 1) rotate(0) translate(4 506)">
<title>/home/travis/build/STORM&#45;IRIT/Radium&#45;Engine/src/Core/Mesh/DCEL/Vertex.hpp</title>
<polygon fill="white" stroke="none" points="-4,4 -4,-506 1496,-506 1496,4 -4,4"/>
<!-- Node1 -->
<g id="node1" class="node"><title>Node1</title>
<polygon fill="#bfbfbf" stroke="black" points="379,-460.5 379,-501.5 543,-501.5 543,-460.5 379,-460.5"/>
<text text-anchor="start" x="387" y="-489.5" font-family="Helvetica,sans-Serif" font-size="10.00">/home/travis/build</text>
<text text-anchor="start" x="387" y="-478.5" font-family="Helvetica,sans-Serif" font-size="10.00">/STORM&#45;IRIT/Radium&#45;Engine</text>
<text text-anchor="middle" x="461" y="-467.5" font-family="Helvetica,sans-Serif" font-size="10.00">/src/Core/Mesh/DCEL/Vertex.hpp</text>
</g>
<!-- Node2 -->
<g id="node2" class="node"><title>Node2</title>
<g id="a_node2"><a xlink:href="Index_8hpp.html" target="_top" xlink:title="Core/Index/Index.hpp">
<polygon fill="white" stroke="black" points="77,-112.5 77,-131.5 187,-131.5 187,-112.5 77,-112.5"/>
<text text-anchor="middle" x="132" y="-119.5" font-family="Helvetica,sans-Serif" font-size="10.00">Core/Index/Index.hpp</text>
</a>
</g>
</g>
<!-- Node1&#45;&gt;Node2 -->
<g id="edge1" class="edge"><title>Node1&#45;&gt;Node2</title>
<path fill="none" stroke="midnightblue" d="M378.848,-475.249C246.311,-465.308 0,-436.419 0,-359 0,-359 0,-359 0,-245 0,-190.629 61.1451,-153.755 100.204,-135.747"/>
<polygon fill="midnightblue" stroke="midnightblue" points="101.886,-138.83 109.608,-131.576 99.0477,-132.431 101.886,-138.83"/>
</g>
<!-- Node5 -->
<g id="node5" class="node"><title>Node5</title>
<g id="a_node5"><a xlink:href="IndexedObject_8hpp.html" target="_top" xlink:title="Core/Index/IndexedObject.hpp">
<polygon fill="white" stroke="black" points="253.5,-174.5 253.5,-193.5 402.5,-193.5 402.5,-174.5 253.5,-174.5"/>
<text text-anchor="middle" x="328" y="-181.5" font-family="Helvetica,sans-Serif" font-size="10.00">Core/Index/IndexedObject.hpp</text>
</a>
</g>
</g>
<!-- Node1&#45;&gt;Node5 -->
<g id="edge4" class="edge"><title>Node1&#45;&gt;Node5</title>
<path fill="none" stroke="midnightblue" d="M471.183,-460.467C482.439,-437.025 499,-396.211 499,-359 499,-359 499,-359 499,-301 499,-241.977 428.366,-210.906 377.891,-196.239"/>
<polygon fill="midnightblue" stroke="midnightblue" points="378.664,-192.821 368.092,-193.521 376.792,-199.566 378.664,-192.821"/>
</g>
<!-- Node13 -->
<g id="node13" class="node"><title>Node13</title>
<g id="a_node13"><a xlink:href="LinearAlgebra_8hpp.html" target="_top" xlink:title="Core/Math/LinearAlgebra.hpp">
<polygon fill="white" stroke="black" points="835.5,-236.5 835.5,-255.5 978.5,-255.5 978.5,-236.5 835.5,-236.5"/>
<text text-anchor="middle" x="907" y="-243.5" font-family="Helvetica,sans-Serif" font-size="10.00">Core/Math/LinearAlgebra.hpp</text>
</a>
</g>
</g>
<!-- Node1&#45;&gt;Node13 -->
<g id="edge13" class="edge"><title>Node1&#45;&gt;Node13</title>
<path fill="none" stroke="midnightblue" d="M498.641,-460.335C587.075,-414.136 806.267,-299.625 881.315,-260.418"/>
<polygon fill="midnightblue" stroke="midnightblue" points="883.284,-263.339 890.527,-255.606 880.043,-257.134 883.284,-263.339"/>
</g>
<!-- Node24 -->
<g id="node24" class="node"><title>Node24</title>
<g id="a_node24"><a xlink:href="Definition_8hpp.html" target="_top" xlink:title="Core/Mesh/DCEL/Definition.hpp">
<polygon fill="white" stroke="black" points="420,-174.5 420,-193.5 578,-193.5 578,-174.5 420,-174.5"/>
<text text-anchor="middle" x="499" y="-181.5" font-family="Helvetica,sans-Serif" font-size="10.00">Core/Mesh/DCEL/Definition.hpp</text>
</a>
</g>
</g>
<!-- Node1&#45;&gt;Node24 -->
<g id="edge27" class="edge"><title>Node1&#45;&gt;Node24</title>
<path fill="none" stroke="midnightblue" d="M483.391,-460.113C505.81,-437.9 537,-399.683 537,-359 537,-359 537,-359 537,-301 537,-264.613 519.905,-224.853 508.647,-202.614"/>
<polygon fill="midnightblue" stroke="midnightblue" points="511.716,-200.929 503.968,-193.703 505.519,-204.184 511.716,-200.929"/>
</g>
<!-- Node27 -->
<g id="node27" class="node"><title>Node27</title>
<g id="a_node27"><a xlink:href="Vertex_8inl.html" target="_top" xlink:title="Core/Mesh/DCEL/Vertex.inl">
<polygon fill="white" stroke="black" points="293.5,-404.5 293.5,-423.5 432.5,-423.5 432.5,-404.5 293.5,-404.5"/>
<text text-anchor="middle" x="363" y="-411.5" font-family="Helvetica,sans-Serif" font-size="10.00">Core/Mesh/DCEL/Vertex.inl</text>
</a>
</g>
</g>
<!-- Node1&#45;&gt;Node27 -->
<g id="edge30" class="edge"><title>Node1&#45;&gt;Node27</title>
<path fill="none" stroke="midnightblue" d="M425.351,-460.498C409.663,-450.628 392.057,-438.843 379.465,-429.741"/>
<polygon fill="midnightblue" stroke="midnightblue" points="381.393,-426.813 371.281,-423.652 377.215,-432.429 381.393,-426.813"/>
</g>
<!-- Node3 -->
<g id="node3" class="node"><title>Node3</title>
<polygon fill="white" stroke="#bfbfbf" points="157,-56.5 157,-75.5 197,-75.5 197,-56.5 157,-56.5"/>
<text text-anchor="middle" x="177" y="-63.5" font-family="Helvetica,sans-Serif" font-size="10.00">limits</text>
</g>
<!-- Node2&#45;&gt;Node3 -->
<g id="edge2" class="edge"><title>Node2&#45;&gt;Node3</title>
<path fill="none" stroke="midnightblue" d="M139.431,-112.083C145.853,-104.377 155.306,-93.0333 163.122,-83.6531"/>
<polygon fill="midnightblue" stroke="midnightblue" points="165.994,-85.674 169.707,-75.7511 160.617,-81.1927 165.994,-85.674"/>
</g>
<!-- Node4 -->
<g id="node4" class="node"><title>Node4</title>
<g id="a_node4"><a xlink:href="Index_8inl.html" target="_top" xlink:title="Core/Index/Index.inl">
<polygon fill="white" stroke="black" points="35,-56.5 35,-75.5 139,-75.5 139,-56.5 35,-56.5"/>
<text text-anchor="middle" x="87" y="-63.5" font-family="Helvetica,sans-Serif" font-size="10.00">Core/Index/Index.inl</text>
</a>
</g>
</g>
<!-- Node2&#45;&gt;Node4 -->
<g id="edge3" class="edge"><title>Node2&#45;&gt;Node4</title>
<path fill="none" stroke="midnightblue" d="M124.569,-112.083C118.147,-104.377 108.694,-93.0333 100.878,-83.6531"/>
<polygon fill="midnightblue" stroke="midnightblue" points="103.383,-81.1927 94.2926,-75.7511 98.0057,-85.674 103.383,-81.1927"/>
</g>
<!-- Node5&#45;&gt;Node2 -->
<g id="edge5" class="edge"><title>Node5&#45;&gt;Node2</title>
<path fill="none" stroke="midnightblue" d="M299.918,-174.403C265.715,-163.933 207.803,-146.205 169.73,-134.55"/>
<polygon fill="midnightblue" stroke="midnightblue" points="170.616,-131.161 160.03,-131.581 168.567,-137.855 170.616,-131.161"/>
</g>
<!-- Node6 -->
<g id="node6" class="node"><title>Node6</title>
<g id="a_node6"><a xlink:href="RaCore_8hpp.html" target="_top" xlink:title="Core/RaCore.hpp">
<polygon fill="white" stroke="black" points="1145.5,-112.5 1145.5,-131.5 1238.5,-131.5 1238.5,-112.5 1145.5,-112.5"/>
<text text-anchor="middle" x="1192" y="-119.5" font-family="Helvetica,sans-Serif" font-size="10.00">Core/RaCore.hpp</text>
</a>
</g>
</g>
<!-- Node5&#45;&gt;Node6 -->
<g id="edge6" class="edge"><title>Node5&#45;&gt;Node6</title>
<path fill="none" stroke="midnightblue" d="M369.65,-174.453C382.825,-172.024 397.477,-169.606 411,-168 680.846,-135.962 1005.96,-126.516 1135.11,-123.917"/>
<polygon fill="midnightblue" stroke="midnightblue" points="1135.24,-127.416 1145.17,-123.721 1135.1,-120.417 1135.24,-127.416"/>
</g>
<!-- Node7 -->
<g id="node7" class="node"><title>Node7</title>
<g id="a_node7"><a xlink:href="CoreMacros_8hpp.html" target="_top" xlink:title="Core/CoreMacros.hpp">
<polygon fill="white" stroke="black" points="1135.5,-56.5 1135.5,-75.5 1248.5,-75.5 1248.5,-56.5 1135.5,-56.5"/>
<text text-anchor="middle" x="1192" y="-63.5" font-family="Helvetica,sans-Serif" font-size="10.00">Core/CoreMacros.hpp</text>
</a>
</g>
</g>
<!-- Node6&#45;&gt;Node7 -->
<g id="edge7" class="edge"><title>Node6&#45;&gt;Node7</title>
<path fill="none" stroke="midnightblue" d="M1192,-112.083C1192,-105.006 1192,-94.8611 1192,-85.9865"/>
<polygon fill="midnightblue" stroke="midnightblue" points="1195.5,-85.751 1192,-75.7511 1188.5,-85.7511 1195.5,-85.751"/>
</g>
<!-- Node8 -->
<g id="node8" class="node"><title>Node8</title>
<polygon fill="white" stroke="#bfbfbf" points="1036.5,-0.5 1036.5,-19.5 1085.5,-19.5 1085.5,-0.5 1036.5,-0.5"/>
<text text-anchor="middle" x="1061" y="-7.5" font-family="Helvetica,sans-Serif" font-size="10.00">cassert</text>
</g>
<!-- Node7&#45;&gt;Node8 -->
<g id="edge8" class="edge"><title>Node7&#45;&gt;Node8</title>
<path fill="none" stroke="midnightblue" d="M1171.24,-56.4435C1149.68,-47.5566 1115.74,-33.5632 1091.21,-23.4514"/>
<polygon fill="midnightblue" stroke="midnightblue" points="1092.24,-20.0917 1081.66,-19.5164 1089.57,-26.5634 1092.24,-20.0917"/>
</g>
<!-- Node9 -->
<g id="node9" class="node"><title>Node9</title>
<polygon fill="white" stroke="#bfbfbf" points="1103.5,-0.5 1103.5,-19.5 1146.5,-19.5 1146.5,-0.5 1103.5,-0.5"/>
<text text-anchor="middle" x="1125" y="-7.5" font-family="Helvetica,sans-Serif" font-size="10.00">cstdio</text>
</g>
<!-- Node7&#45;&gt;Node9 -->
<g id="edge9" class="edge"><title>Node7&#45;&gt;Node9</title>
<path fill="none" stroke="midnightblue" d="M1181.24,-56.324C1171.23,-48.2631 1156.11,-36.0765 1144.07,-26.3695"/>
<polygon fill="midnightblue" stroke="midnightblue" points="1145.94,-23.3841 1135.96,-19.8339 1141.55,-28.8343 1145.94,-23.3841"/>
</g>
<!-- Node10 -->
<g id="node10" class="node"><title>Node10</title>
<polygon fill="white" stroke="#bfbfbf" points="1165,-0.5 1165,-19.5 1219,-19.5 1219,-0.5 1165,-0.5"/>
<text text-anchor="middle" x="1192" y="-7.5" font-family="Helvetica,sans-Serif" font-size="10.00">iostream</text>
</g>
<!-- Node7&#45;&gt;Node10 -->
<g id="edge10" class="edge"><title>Node7&#45;&gt;Node10</title>
<path fill="none" stroke="midnightblue" d="M1192,-56.083C1192,-49.0059 1192,-38.8611 1192,-29.9865"/>
<polygon fill="midnightblue" stroke="midnightblue" points="1195.5,-29.751 1192,-19.7511 1188.5,-29.7511 1195.5,-29.751"/>
</g>
<!-- Node11 -->
<g id="node11" class="node"><title>Node11</title>
<polygon fill="white" stroke="#bfbfbf" points="1237,-0.5 1237,-19.5 1289,-19.5 1289,-0.5 1237,-0.5"/>
<text text-anchor="middle" x="1263" y="-7.5" font-family="Helvetica,sans-Serif" font-size="10.00">sstream</text>
</g>
<!-- Node7&#45;&gt;Node11 -->
<g id="edge11" class="edge"><title>Node7&#45;&gt;Node11</title>
<path fill="none" stroke="midnightblue" d="M1203.41,-56.324C1214.11,-48.1849 1230.34,-35.8395 1243.16,-26.0874"/>
<polygon fill="midnightblue" stroke="midnightblue" points="1245.54,-28.6734 1251.39,-19.8339 1241.31,-23.1018 1245.54,-28.6734"/>
</g>
<!-- Node12 -->
<g id="node12" class="node"><title>Node12</title>
<polygon fill="white" stroke="#bfbfbf" points="1307,-0.5 1307,-19.5 1351,-19.5 1351,-0.5 1307,-0.5"/>
<text text-anchor="middle" x="1329" y="-7.5" font-family="Helvetica,sans-Serif" font-size="10.00">thread</text>
</g>
<!-- Node7&#45;&gt;Node12 -->
<g id="edge12" class="edge"><title>Node7&#45;&gt;Node12</title>
<path fill="none" stroke="midnightblue" d="M1213.71,-56.4435C1236.35,-47.5171 1272.07,-33.4387 1297.75,-23.3168"/>
<polygon fill="midnightblue" stroke="midnightblue" points="1299.37,-26.4397 1307.39,-19.5164 1296.81,-19.9273 1299.37,-26.4397"/>
</g>
<!-- Node13&#45;&gt;Node6 -->
<g id="edge14" class="edge"><title>Node13&#45;&gt;Node6</title>
<path fill="none" stroke="midnightblue" d="M978.823,-240.595C1074.36,-233.992 1233.34,-220.116 1251,-200 1260.38,-189.311 1257.31,-180.746 1251,-168 1244.4,-154.659 1231.74,-144.194 1219.83,-136.726"/>
<polygon fill="midnightblue" stroke="midnightblue" points="1221.39,-133.587 1210.98,-131.602 1217.88,-139.643 1221.39,-133.587"/>
</g>
<!-- Node14 -->
<g id="node14" class="node"><title>Node14</title>
<polygon fill="white" stroke="#bfbfbf" points="596.5,-174.5 596.5,-193.5 661.5,-193.5 661.5,-174.5 596.5,-174.5"/>
<text text-anchor="middle" x="629" y="-181.5" font-family="Helvetica,sans-Serif" font-size="10.00">Eigen/Core</text>
</g>
<!-- Node13&#45;&gt;Node14 -->
<g id="edge15" class="edge"><title>Node13&#45;&gt;Node14</title>
<path fill="none" stroke="midnightblue" d="M847.46,-236.455C799.156,-228.865 729.55,-216.429 670,-200 666.785,-199.113 663.464,-198.088 660.169,-196.998"/>
<polygon fill="midnightblue" stroke="midnightblue" points="661.084,-193.611 650.489,-193.609 658.771,-200.217 661.084,-193.611"/>
</g>
<!-- Node15 -->
<g id="node15" class="node"><title>Node15</title>
<polygon fill="white" stroke="#bfbfbf" points="679.5,-174.5 679.5,-193.5 766.5,-193.5 766.5,-174.5 679.5,-174.5"/>
<text text-anchor="middle" x="723" y="-181.5" font-family="Helvetica,sans-Serif" font-size="10.00">Eigen/Geometry</text>
</g>
<!-- Node13&#45;&gt;Node15 -->
<g id="edge16" class="edge"><title>Node13&#45;&gt;Node15</title>
<path fill="none" stroke="midnightblue" d="M880.637,-236.403C848.665,-225.978 794.624,-208.356 758.878,-196.699"/>
<polygon fill="midnightblue" stroke="midnightblue" points="759.906,-193.353 749.314,-193.581 757.736,-200.008 759.906,-193.353"/>
</g>
<!-- Node16 -->
<g id="node16" class="node"><title>Node16</title>
<polygon fill="white" stroke="#bfbfbf" points="784.5,-174.5 784.5,-193.5 859.5,-193.5 859.5,-174.5 784.5,-174.5"/>
<text text-anchor="middle" x="822" y="-181.5" font-family="Helvetica,sans-Serif" font-size="10.00">Eigen/Sparse</text>
</g>
<!-- Node13&#45;&gt;Node16 -->
<g id="edge17" class="edge"><title>Node13&#45;&gt;Node16</title>
<path fill="none" stroke="midnightblue" d="M894.822,-236.403C881.188,-226.78 858.868,-211.024 842.526,-199.489"/>
<polygon fill="midnightblue" stroke="midnightblue" points="844.344,-196.488 834.156,-193.581 840.307,-202.207 844.344,-196.488"/>
</g>
<!-- Node17 -->
<g id="node17" class="node"><title>Node17</title>
<polygon fill="white" stroke="#bfbfbf" points="877.5,-174.5 877.5,-193.5 936.5,-193.5 936.5,-174.5 877.5,-174.5"/>
<text text-anchor="middle" x="907" y="-181.5" font-family="Helvetica,sans-Serif" font-size="10.00">functional</text>
</g>
<!-- Node13&#45;&gt;Node17 -->
<g id="edge18" class="edge"><title>Node13&#45;&gt;Node17</title>
<path fill="none" stroke="midnightblue" d="M907,-236.403C907,-227.938 907,-214.728 907,-203.82"/>
<polygon fill="midnightblue" stroke="midnightblue" points="910.5,-203.581 907,-193.581 903.5,-203.581 910.5,-203.581"/>
</g>
<!-- Node18 -->
<g id="node18" class="node"><title>Node18</title>
<polygon fill="white" stroke="#bfbfbf" points="954.5,-169 954.5,-199 1087.5,-199 1087.5,-169 954.5,-169"/>
<text text-anchor="start" x="962.5" y="-187" font-family="Helvetica,sans-Serif" font-size="10.00">unsupported/Eigen/Aligned</text>
<text text-anchor="middle" x="1021" y="-176" font-family="Helvetica,sans-Serif" font-size="10.00">Vector3</text>
</g>
<!-- Node13&#45;&gt;Node18 -->
<g id="edge19" class="edge"><title>Node13&#45;&gt;Node18</title>
<path fill="none" stroke="midnightblue" d="M923.333,-236.403C939.422,-227.936 964.531,-214.72 985.261,-203.81"/>
<polygon fill="midnightblue" stroke="midnightblue" points="986.913,-206.896 994.132,-199.141 983.653,-200.701 986.913,-206.896"/>
</g>
<!-- Node19 -->
<g id="node19" class="node"><title>Node19</title>
<g id="a_node19"><a xlink:href="Math_8hpp.html" target="_top" xlink:title="Core/Math/Math.hpp">
<polygon fill="white" stroke="black" points="1299,-174.5 1299,-193.5 1405,-193.5 1405,-174.5 1299,-174.5"/>
<text text-anchor="middle" x="1352" y="-181.5" font-family="Helvetica,sans-Serif" font-size="10.00">Core/Math/Math.hpp</text>
</a>
</g>
</g>
<!-- Node13&#45;&gt;Node19 -->
<g id="edge20" class="edge"><title>Node13&#45;&gt;Node19</title>
<path fill="none" stroke="midnightblue" d="M978.724,-238.654C1054.99,-231.396 1178.98,-218.13 1285,-200 1292.19,-198.771 1299.77,-197.272 1307.14,-195.703"/>
<polygon fill="midnightblue" stroke="midnightblue" points="1307.99,-199.099 1317.01,-193.539 1306.5,-192.262 1307.99,-199.099"/>
</g>
<!-- Node23 -->
<g id="node23" class="node"><title>Node23</title>
<g id="a_node23"><a xlink:href="LinearAlgebra_8inl.html" target="_top" xlink:title="Core/Math/LinearAlgebra.inl">
<polygon fill="white" stroke="black" points="1105.5,-174.5 1105.5,-193.5 1242.5,-193.5 1242.5,-174.5 1105.5,-174.5"/>
<text text-anchor="middle" x="1174" y="-181.5" font-family="Helvetica,sans-Serif" font-size="10.00">Core/Math/LinearAlgebra.inl</text>
</a>
</g>
</g>
<!-- Node13&#45;&gt;Node23 -->
<g id="edge26" class="edge"><title>Node13&#45;&gt;Node23</title>
<path fill="none" stroke="midnightblue" d="M944.971,-236.467C992.617,-225.76 1074.35,-207.392 1126.21,-195.74"/>
<polygon fill="midnightblue" stroke="midnightblue" points="1127.17,-199.111 1136.16,-193.503 1125.64,-192.281 1127.17,-199.111"/>
</g>
<!-- Node19&#45;&gt;Node6 -->
<g id="edge21" class="edge"><title>Node19&#45;&gt;Node6</title>
<path fill="none" stroke="midnightblue" d="M1329.08,-174.403C1301.63,-164.111 1255.48,-146.806 1224.4,-135.15"/>
<polygon fill="midnightblue" stroke="midnightblue" points="1225.47,-131.815 1214.88,-131.581 1223.02,-138.369 1225.47,-131.815"/>
</g>
<!-- Node20 -->
<g id="node20" class="node"><title>Node20</title>
<polygon fill="white" stroke="#bfbfbf" points="1256,-112.5 1256,-131.5 1312,-131.5 1312,-112.5 1256,-112.5"/>
<text text-anchor="middle" x="1284" y="-119.5" font-family="Helvetica,sans-Serif" font-size="10.00">algorithm</text>
</g>
<!-- Node19&#45;&gt;Node20 -->
<g id="edge22" class="edge"><title>Node19&#45;&gt;Node20</title>
<path fill="none" stroke="midnightblue" d="M1342.26,-174.403C1331.65,-165.047 1314.48,-149.895 1301.52,-138.46"/>
<polygon fill="midnightblue" stroke="midnightblue" points="1303.54,-135.572 1293.72,-131.581 1298.91,-140.821 1303.54,-135.572"/>
</g>
<!-- Node21 -->
<g id="node21" class="node"><title>Node21</title>
<polygon fill="white" stroke="#bfbfbf" points="1330,-112.5 1330,-131.5 1374,-131.5 1374,-112.5 1330,-112.5"/>
<text text-anchor="middle" x="1352" y="-119.5" font-family="Helvetica,sans-Serif" font-size="10.00">cmath</text>
</g>
<!-- Node19&#45;&gt;Node21 -->
<g id="edge23" class="edge"><title>Node19&#45;&gt;Node21</title>
<path fill="none" stroke="midnightblue" d="M1352,-174.403C1352,-165.938 1352,-152.728 1352,-141.82"/>
<polygon fill="midnightblue" stroke="midnightblue" points="1355.5,-141.581 1352,-131.581 1348.5,-141.581 1355.5,-141.581"/>
</g>
<!-- Node22 -->
<g id="node22" class="node"><title>Node22</title>
<g id="a_node22"><a xlink:href="Math_8inl.html" target="_top" xlink:title="Core/Math/Math.inl">
<polygon fill="white" stroke="black" points="1392,-112.5 1392,-131.5 1492,-131.5 1492,-112.5 1392,-112.5"/>
<text text-anchor="middle" x="1442" y="-119.5" font-family="Helvetica,sans-Serif" font-size="10.00">Core/Math/Math.inl</text>
</a>
</g>
</g>
<!-- Node19&#45;&gt;Node22 -->
<g id="edge24" class="edge"><title>Node19&#45;&gt;Node22</title>
<path fill="none" stroke="midnightblue" d="M1359.99,-174.403C1372.58,-164.601 1396.52,-148.439 1415.43,-136.853"/>
<polygon fill="midnightblue" stroke="midnightblue" points="1417.45,-139.721 1424.23,-131.581 1413.85,-133.716 1417.45,-139.721"/>
</g>
<!-- Node22&#45;&gt;Node19 -->
<g id="edge25" class="edge"><title>Node22&#45;&gt;Node19</title>
<path fill="none" stroke="midnightblue" d="M1434.03,-131.581C1421.46,-141.376 1397.51,-157.538 1378.6,-169.129"/>
<polygon fill="midnightblue" stroke="midnightblue" points="1376.58,-166.262 1369.8,-174.403 1380.17,-172.268 1376.58,-166.262"/>
</g>
<!-- Node25 -->
<g id="node25" class="node"><title>Node25</title>
<polygon fill="white" stroke="#bfbfbf" points="506,-112.5 506,-131.5 558,-131.5 558,-112.5 506,-112.5"/>
<text text-anchor="middle" x="532" y="-119.5" font-family="Helvetica,sans-Serif" font-size="10.00">memory</text>
</g>
<!-- Node24&#45;&gt;Node25 -->
<g id="edge28" class="edge"><title>Node24&#45;&gt;Node25</title>
<path fill="none" stroke="midnightblue" d="M503.728,-174.403C508.58,-165.582 516.266,-151.608 522.4,-140.455"/>
<polygon fill="midnightblue" stroke="midnightblue" points="525.528,-142.029 527.281,-131.581 519.395,-138.656 525.528,-142.029"/>
</g>
<!-- Node26 -->
<g id="node26" class="node"><title>Node26</title>
<polygon fill="white" stroke="#bfbfbf" points="444,-112.5 444,-131.5 488,-131.5 488,-112.5 444,-112.5"/>
<text text-anchor="middle" x="466" y="-119.5" font-family="Helvetica,sans-Serif" font-size="10.00">vector</text>
</g>
<!-- Node24&#45;&gt;Node26 -->
<g id="edge29" class="edge"><title>Node24&#45;&gt;Node26</title>
<path fill="none" stroke="midnightblue" d="M494.272,-174.403C489.42,-165.582 481.734,-151.608 475.6,-140.455"/>
<polygon fill="midnightblue" stroke="midnightblue" points="478.605,-138.656 470.719,-131.581 472.472,-142.029 478.605,-138.656"/>
</g>
<!-- Node27&#45;&gt;Node1 -->
<g id="edge31" class="edge"><title>Node27&#45;&gt;Node1</title>
<path fill="none" stroke="midnightblue" d="M380.81,-423.652C394.393,-431.548 413.206,-443.618 429.259,-454.565"/>
<polygon fill="midnightblue" stroke="midnightblue" points="427.626,-457.691 437.842,-460.498 431.606,-451.933 427.626,-457.691"/>
</g>
<!-- Node28 -->
<g id="node28" class="node"><title>Node28</title>
<g id="a_node28"><a xlink:href="DCEL_2HalfEdge_8hpp.html" target="_top" xlink:title="Core/Mesh/DCEL/HalfEdge.hpp">
<polygon fill="white" stroke="black" points="275.5,-348.5 275.5,-367.5 432.5,-367.5 432.5,-348.5 275.5,-348.5"/>
<text text-anchor="middle" x="354" y="-355.5" font-family="Helvetica,sans-Serif" font-size="10.00">Core/Mesh/DCEL/HalfEdge.hpp</text>
</a>
</g>
</g>
<!-- Node27&#45;&gt;Node28 -->
<g id="edge32" class="edge"><title>Node27&#45;&gt;Node28</title>
<path fill="none" stroke="midnightblue" d="M361.514,-404.083C360.321,-396.927 358.606,-386.635 357.115,-377.691"/>
<polygon fill="midnightblue" stroke="midnightblue" points="360.555,-377.04 355.459,-367.751 353.65,-378.19 360.555,-377.04"/>
</g>
<!-- Node28&#45;&gt;Node2 -->
<g id="edge33" class="edge"><title>Node28&#45;&gt;Node2</title>
<path fill="none" stroke="midnightblue" d="M294.874,-348.498C260.718,-341.899 217.769,-330.634 183,-312 116.961,-276.607 87.6937,-268.35 57,-200 51.1738,-187.026 49.9927,-180.376 57,-168 65.3466,-153.258 80.662,-142.819 95.2871,-135.732"/>
<polygon fill="midnightblue" stroke="midnightblue" points="96.9971,-138.803 104.718,-131.547 94.158,-132.404 96.9971,-138.803"/>
</g>
<!-- Node28&#45;&gt;Node5 -->
<g id="edge34" class="edge"><title>Node28&#45;&gt;Node5</title>
<path fill="none" stroke="midnightblue" d="M322.191,-348.385C304.054,-341.661 282.836,-330.306 272,-312 257.399,-287.332 289.6,-280.786 304,-256 313.584,-239.504 320.062,-218.613 323.849,-203.773"/>
<polygon fill="midnightblue" stroke="midnightblue" points="327.317,-204.316 326.227,-193.777 320.507,-202.696 327.317,-204.316"/>
</g>
<!-- Node28&#45;&gt;Node24 -->
<g id="edge35" class="edge"><title>Node28&#45;&gt;Node24</title>
<path fill="none" stroke="midnightblue" d="M380.886,-348.428C399.753,-341.252 424.466,-329.364 441,-312 471.129,-280.359 487.584,-230.314 494.684,-203.467"/>
<polygon fill="midnightblue" stroke="midnightblue" points="498.146,-204.053 497.167,-193.503 491.353,-202.36 498.146,-204.053"/>
</g>
<!-- Node29 -->
<g id="node29" class="node"><title>Node29</title>
<g id="a_node29"><a xlink:href="DCEL_2HalfEdge_8inl.html" target="_top" xlink:title="Core/Mesh/DCEL/HalfEdge.inl">
<polygon fill="white" stroke="black" points="281.5,-292.5 281.5,-311.5 432.5,-311.5 432.5,-292.5 281.5,-292.5"/>
<text text-anchor="middle" x="357" y="-299.5" font-family="Helvetica,sans-Serif" font-size="10.00">Core/Mesh/DCEL/HalfEdge.inl</text>
</a>
</g>
</g>
<!-- Node28&#45;&gt;Node29 -->
<g id="edge36" class="edge"><title>Node28&#45;&gt;Node29</title>
<path fill="none" stroke="midnightblue" d="M349.329,-348.083C348.217,-340.927 348.358,-330.635 349.504,-321.691"/>
<polygon fill="midnightblue" stroke="midnightblue" points="352.965,-322.227 351.383,-311.751 346.086,-320.927 352.965,-322.227"/>
</g>
<!-- Node29&#45;&gt;Node1 -->
<g id="edge45" class="edge"><title>Node29&#45;&gt;Node1</title>
<path fill="none" stroke="midnightblue" d="M387.338,-311.579C405.8,-318.408 428.215,-329.889 441,-348 462.098,-377.887 464.782,-421.098 463.739,-449.842"/>
<polygon fill="midnightblue" stroke="midnightblue" points="460.23,-449.918 463.188,-460.092 467.22,-450.295 460.23,-449.918"/>
</g>
<!-- Node29&#45;&gt;Node28 -->
<g id="edge37" class="edge"><title>Node29&#45;&gt;Node28</title>
<path fill="none" stroke="midnightblue" d="M361.645,-311.751C362.776,-318.858 362.652,-329.136 361.522,-338.101"/>
<polygon fill="midnightblue" stroke="midnightblue" points="358.053,-337.611 359.662,-348.083 364.935,-338.894 358.053,-337.611"/>
</g>
<!-- Node30 -->
<g id="node30" class="node"><title>Node30</title>
<g id="a_node30"><a xlink:href="Face_8hpp.html" target="_top" xlink:title="Core/Mesh/DCEL/Face.hpp">
<polygon fill="white" stroke="black" points="157,-236.5 157,-255.5 295,-255.5 295,-236.5 157,-236.5"/>
<text text-anchor="middle" x="226" y="-243.5" font-family="Helvetica,sans-Serif" font-size="10.00">Core/Mesh/DCEL/Face.hpp</text>
</a>
</g>
</g>
<!-- Node29&#45;&gt;Node30 -->
<g id="edge38" class="edge"><title>Node29&#45;&gt;Node30</title>
<path fill="none" stroke="midnightblue" d="M336.243,-292.444C314.684,-283.557 280.737,-269.563 256.206,-259.451"/>
<polygon fill="midnightblue" stroke="midnightblue" points="257.239,-256.092 246.66,-255.516 254.572,-262.563 257.239,-256.092"/>
</g>
<!-- Node30&#45;&gt;Node2 -->
<g id="edge39" class="edge"><title>Node30&#45;&gt;Node2</title>
<path fill="none" stroke="midnightblue" d="M225.962,-236.481C225.48,-221.266 222.542,-189.044 207,-168 196.492,-153.772 180.018,-143.175 165.184,-135.851"/>
<polygon fill="midnightblue" stroke="midnightblue" points="166.298,-132.511 155.751,-131.505 163.369,-138.868 166.298,-132.511"/>
</g>
<!-- Node30&#45;&gt;Node5 -->
<g id="edge40" class="edge"><title>Node30&#45;&gt;Node5</title>
<path fill="none" stroke="midnightblue" d="M240.614,-236.403C257.353,-226.557 285.004,-210.291 304.719,-198.695"/>
<polygon fill="midnightblue" stroke="midnightblue" points="306.568,-201.668 313.413,-193.581 303.019,-195.634 306.568,-201.668"/>
</g>
<!-- Node30&#45;&gt;Node24 -->
<g id="edge41" class="edge"><title>Node30&#45;&gt;Node24</title>
<path fill="none" stroke="midnightblue" d="M264.824,-236.467C313.642,-225.738 397.464,-207.316 450.464,-195.667"/>
<polygon fill="midnightblue" stroke="midnightblue" points="451.294,-199.068 460.31,-193.503 449.791,-192.232 451.294,-199.068"/>
</g>
<!-- Node31 -->
<g id="node31" class="node"><title>Node31</title>
<g id="a_node31"><a xlink:href="Face_8inl.html" target="_top" xlink:title="Core/Mesh/DCEL/Face.inl">
<polygon fill="white" stroke="black" points="66,-174.5 66,-193.5 198,-193.5 198,-174.5 66,-174.5"/>
<text text-anchor="middle" x="132" y="-181.5" font-family="Helvetica,sans-Serif" font-size="10.00">Core/Mesh/DCEL/Face.inl</text>
</a>
</g>
</g>
<!-- Node30&#45;&gt;Node31 -->
<g id="edge42" class="edge"><title>Node30&#45;&gt;Node31</title>
<path fill="none" stroke="midnightblue" d="M207.632,-236.403C190.473,-226.78 165.465,-211.024 148.826,-199.489"/>
<polygon fill="midnightblue" stroke="midnightblue" points="150.719,-196.54 140.546,-193.581 146.653,-202.238 150.719,-196.54"/>
</g>
<!-- Node31&#45;&gt;Node28 -->
<g id="edge44" class="edge"><title>Node31&#45;&gt;Node28</title>
<path fill="none" stroke="midnightblue" d="M131.668,-193.885C131.59,-208.432 133.437,-237.554 148,-256 187.172,-305.617 256.951,-332.533 304.33,-345.824"/>
<polygon fill="midnightblue" stroke="midnightblue" points="303.515,-349.229 314.081,-348.457 305.339,-342.471 303.515,-349.229"/>
</g>
<!-- Node31&#45;&gt;Node30 -->
<g id="edge43" class="edge"><title>Node31&#45;&gt;Node30</title>
<path fill="none" stroke="midnightblue" d="M150.34,-193.581C167.49,-203.198 192.499,-218.952 209.147,-230.492"/>
<polygon fill="midnightblue" stroke="midnightblue" points="207.259,-233.445 217.433,-236.403 211.325,-227.746 207.259,-233.445"/>
</g>
</g>
</svg>
