<?xml version="1.0" encoding="UTF-8" standalone="no"?>
<!DOCTYPE svg PUBLIC "-//W3C//DTD SVG 1.1//EN"
 "http://www.w3.org/Graphics/SVG/1.1/DTD/svg11.dtd">
<!-- Generated by graphviz version 2.36.0 (20140111.2315)
 -->
<!-- Title: /home/travis/build/STORM&#45;IRIT/Radium&#45;Engine/src/Core/Mesh/DCEL/Iterator/Vertex/VFEIterator.hpp Pages: 1 -->
<svg width="1244pt" height="726pt"
 viewBox="0.00 0.00 1243.52 726.00" xmlns="http://www.w3.org/2000/svg" xmlns:xlink="http://www.w3.org/1999/xlink">
<g id="graph0" class="graph" transform="scale(1 1) rotate(0) translate(4 722)">
<title>/home/travis/build/STORM&#45;IRIT/Radium&#45;Engine/src/Core/Mesh/DCEL/Iterator/Vertex/VFEIterator.hpp</title>
<polygon fill="white" stroke="none" points="-4,4 -4,-722 1239.52,-722 1239.52,4 -4,4"/>
<!-- Node1 -->
<g id="node1" class="node"><title>Node1</title>
<polygon fill="#bfbfbf" stroke="black" points="519.525,-665 519.525,-717 667.525,-717 667.525,-665 519.525,-665"/>
<text text-anchor="start" x="527.525" y="-705" font-family="Helvetica,sans-Serif" font-size="10.00">/home/travis/build</text>
<text text-anchor="start" x="527.525" y="-694" font-family="Helvetica,sans-Serif" font-size="10.00">/STORM&#45;IRIT/Radium&#45;Engine</text>
<text text-anchor="start" x="527.525" y="-683" font-family="Helvetica,sans-Serif" font-size="10.00">/src/Core/Mesh/DCEL/Iterator</text>
<text text-anchor="middle" x="593.525" y="-672" font-family="Helvetica,sans-Serif" font-size="10.00">/Vertex/VFEIterator.hpp</text>
</g>
<!-- Node2 -->
<g id="node2" class="node"><title>Node2</title>
<g id="a_node2"><a xlink:href="VertexIterator_8hpp.html" target="_top" xlink:title="Core/Mesh/DCEL/Iterator\l/Vertex/VertexIterator.hpp">
<polygon fill="white" stroke="black" points="732.025,-597 732.025,-627 861.025,-627 861.025,-597 732.025,-597"/>
<text text-anchor="start" x="740.025" y="-615" font-family="Helvetica,sans-Serif" font-size="10.00">Core/Mesh/DCEL/Iterator</text>
<text text-anchor="middle" x="796.525" y="-604" font-family="Helvetica,sans-Serif" font-size="10.00">/Vertex/VertexIterator.hpp</text>
</a>
</g>
</g>
<!-- Node1&#45;&gt;Node2 -->
<g id="edge1" class="edge"><title>Node1&#45;&gt;Node2</title>
<path fill="none" stroke="midnightblue" d="M659.714,-664.894C689.185,-653.715 723.194,-640.815 749.931,-630.673"/>
<polygon fill="midnightblue" stroke="midnightblue" points="751.322,-633.889 759.431,-627.07 748.84,-627.344 751.322,-633.889"/>
</g>
<!-- Node37 -->
<g id="node37" class="node"><title>Node37</title>
<g id="a_node37"><a xlink:href="VFEIterator_8inl.html" target="_top" xlink:title="Core/Mesh/DCEL/Iterator\l/Vertex/VFEIterator.inl">
<polygon fill="white" stroke="black" points="529.525,-597 529.525,-627 657.525,-627 657.525,-597 529.525,-597"/>
<text text-anchor="start" x="537.525" y="-615" font-family="Helvetica,sans-Serif" font-size="10.00">Core/Mesh/DCEL/Iterator</text>
<text text-anchor="middle" x="593.525" y="-604" font-family="Helvetica,sans-Serif" font-size="10.00">/Vertex/VFEIterator.inl</text>
</a>
</g>
</g>
<!-- Node1&#45;&gt;Node37 -->
<g id="edge56" class="edge"><title>Node1&#45;&gt;Node37</title>
<path fill="none" stroke="midnightblue" d="M587.146,-664.787C586.632,-655.932 586.652,-646.007 587.205,-637.234"/>
<polygon fill="midnightblue" stroke="midnightblue" points="590.692,-637.536 588.144,-627.252 583.723,-636.88 590.692,-637.536"/>
</g>
<!-- Node3 -->
<g id="node3" class="node"><title>Node3</title>
<g id="a_node3"><a xlink:href="Iterator_8hpp.html" target="_top" xlink:title="Core/Mesh/DCEL/Iterator\l/Iterator.hpp">
<polygon fill="white" stroke="black" points="659.525,-529 659.525,-559 787.525,-559 787.525,-529 659.525,-529"/>
<text text-anchor="start" x="667.525" y="-547" font-family="Helvetica,sans-Serif" font-size="10.00">Core/Mesh/DCEL/Iterator</text>
<text text-anchor="middle" x="723.525" y="-536" font-family="Helvetica,sans-Serif" font-size="10.00">/Iterator.hpp</text>
</a>
</g>
</g>
<!-- Node2&#45;&gt;Node3 -->
<g id="edge2" class="edge"><title>Node2&#45;&gt;Node3</title>
<path fill="none" stroke="midnightblue" d="M780.685,-596.679C770.764,-587.71 757.808,-575.996 746.739,-565.988"/>
<polygon fill="midnightblue" stroke="midnightblue" points="748.848,-563.177 739.083,-559.066 744.154,-568.369 748.848,-563.177"/>
</g>
<!-- Node36 -->
<g id="node36" class="node"><title>Node36</title>
<g id="a_node36"><a xlink:href="VertexIterator_8inl.html" target="_top" xlink:title="Core/Mesh/DCEL/Iterator\l/Vertex/VertexIterator.inl">
<polygon fill="white" stroke="black" points="805.525,-529 805.525,-559 933.525,-559 933.525,-529 805.525,-529"/>
<text text-anchor="start" x="813.525" y="-547" font-family="Helvetica,sans-Serif" font-size="10.00">Core/Mesh/DCEL/Iterator</text>
<text text-anchor="middle" x="869.525" y="-536" font-family="Helvetica,sans-Serif" font-size="10.00">/Vertex/VertexIterator.inl</text>
</a>
</g>
</g>
<!-- Node2&#45;&gt;Node36 -->
<g id="edge53" class="edge"><title>Node2&#45;&gt;Node36</title>
<path fill="none" stroke="midnightblue" d="M806.686,-596.679C815.533,-587.623 828.434,-575.768 840.318,-565.697"/>
<polygon fill="midnightblue" stroke="midnightblue" points="842.854,-568.141 848.321,-559.066 838.388,-562.751 842.854,-568.141"/>
</g>
<!-- Node4 -->
<g id="node4" class="node"><title>Node4</title>
<g id="a_node4"><a xlink:href="Definition_8hpp.html" target="_top" xlink:title="Core/Mesh/DCEL/Definition.hpp">
<polygon fill="white" stroke="black" points="778.525,-236.5 778.525,-255.5 936.525,-255.5 936.525,-236.5 778.525,-236.5"/>
<text text-anchor="middle" x="857.525" y="-243.5" font-family="Helvetica,sans-Serif" font-size="10.00">Core/Mesh/DCEL/Definition.hpp</text>
</a>
</g>
</g>
<!-- Node3&#45;&gt;Node4 -->
<g id="edge3" class="edge"><title>Node3&#45;&gt;Node4</title>
<path fill="none" stroke="midnightblue" d="M755.816,-528.944C794.894,-509.49 855.525,-470.384 855.525,-415 855.525,-415 855.525,-415 855.525,-357 855.525,-324.943 856.385,-287.639 856.977,-265.747"/>
<polygon fill="midnightblue" stroke="midnightblue" points="860.481,-265.651 857.263,-255.557 853.483,-265.454 860.481,-265.651"/>
</g>
<!-- Node6 -->
<g id="node6" class="node"><title>Node6</title>
<polygon fill="white" stroke="#bfbfbf" points="1191.52,-174.5 1191.52,-193.5 1235.52,-193.5 1235.52,-174.5 1191.52,-174.5"/>
<text text-anchor="middle" x="1213.52" y="-181.5" font-family="Helvetica,sans-Serif" font-size="10.00">vector</text>
</g>
<!-- Node3&#45;&gt;Node6 -->
<g id="edge6" class="edge"><title>Node3&#45;&gt;Node6</title>
<path fill="none" stroke="midnightblue" d="M780.958,-528.942C883.747,-502.971 1088.52,-447.191 1088.52,-415 1088.52,-415 1088.52,-415 1088.52,-301 1088.52,-273.161 1155.98,-223.623 1191.79,-199.291"/>
<polygon fill="midnightblue" stroke="midnightblue" points="1193.8,-202.157 1200.15,-193.676 1189.89,-196.346 1193.8,-202.157"/>
</g>
<!-- Node7 -->
<g id="node7" class="node"><title>Node7</title>
<g id="a_node7"><a xlink:href="Iterator_8inl.html" target="_top" xlink:title="Core/Mesh/DCEL/Iterator\l/Iterator.inl">
<polygon fill="white" stroke="black" points="659.525,-461 659.525,-491 787.525,-491 787.525,-461 659.525,-461"/>
<text text-anchor="start" x="667.525" y="-479" font-family="Helvetica,sans-Serif" font-size="10.00">Core/Mesh/DCEL/Iterator</text>
<text text-anchor="middle" x="723.525" y="-468" font-family="Helvetica,sans-Serif" font-size="10.00">/Iterator.inl</text>
</a>
</g>
</g>
<!-- Node3&#45;&gt;Node7 -->
<g id="edge7" class="edge"><title>Node3&#45;&gt;Node7</title>
<path fill="none" stroke="midnightblue" d="M717.846,-528.679C716.819,-520.722 716.53,-510.605 716.981,-501.436"/>
<polygon fill="midnightblue" stroke="midnightblue" points="720.484,-501.555 717.85,-491.293 713.509,-500.958 720.484,-501.555"/>
</g>
<!-- Node5 -->
<g id="node5" class="node"><title>Node5</title>
<polygon fill="white" stroke="#bfbfbf" points="1121.52,-174.5 1121.52,-193.5 1173.52,-193.5 1173.52,-174.5 1121.52,-174.5"/>
<text text-anchor="middle" x="1147.52" y="-181.5" font-family="Helvetica,sans-Serif" font-size="10.00">memory</text>
</g>
<!-- Node4&#45;&gt;Node5 -->
<g id="edge4" class="edge"><title>Node4&#45;&gt;Node5</title>
<path fill="none" stroke="midnightblue" d="M929.932,-236.478C981.285,-229.395 1051.47,-217.601 1111.52,-200 1114.17,-199.223 1116.89,-198.314 1119.59,-197.333"/>
<polygon fill="midnightblue" stroke="midnightblue" points="1121.1,-200.501 1129.12,-193.58 1118.53,-193.988 1121.1,-200.501"/>
</g>
<!-- Node4&#45;&gt;Node6 -->
<g id="edge5" class="edge"><title>Node4&#45;&gt;Node6</title>
<path fill="none" stroke="midnightblue" d="M936.817,-240.959C1003.55,-235.925 1100.89,-224.729 1182.52,-200 1184.66,-199.352 1186.84,-198.574 1188.99,-197.717"/>
<polygon fill="midnightblue" stroke="midnightblue" points="1190.45,-200.901 1198.14,-193.617 1187.58,-194.514 1190.45,-200.901"/>
</g>
<!-- Node7&#45;&gt;Node3 -->
<g id="edge8" class="edge"><title>Node7&#45;&gt;Node3</title>
<path fill="none" stroke="midnightblue" d="M729.2,-491.293C730.229,-499.245 730.519,-509.361 730.07,-518.532"/>
<polygon fill="midnightblue" stroke="midnightblue" points="726.567,-518.417 729.203,-528.679 733.542,-519.013 726.567,-518.417"/>
</g>
<!-- Node8 -->
<g id="node8" class="node"><title>Node8</title>
<g id="a_node8"><a xlink:href="DCEL_2HalfEdge_8hpp.html" target="_top" xlink:title="Core/Mesh/DCEL/HalfEdge.hpp">
<polygon fill="white" stroke="black" points="390.025,-404.5 390.025,-423.5 547.025,-423.5 547.025,-404.5 390.025,-404.5"/>
<text text-anchor="middle" x="468.525" y="-411.5" font-family="Helvetica,sans-Serif" font-size="10.00">Core/Mesh/DCEL/HalfEdge.hpp</text>
</a>
</g>
</g>
<!-- Node7&#45;&gt;Node8 -->
<g id="edge9" class="edge"><title>Node7&#45;&gt;Node8</title>
<path fill="none" stroke="midnightblue" d="M663.739,-460.933C618.181,-450.213 556.373,-435.67 514.606,-425.843"/>
<polygon fill="midnightblue" stroke="midnightblue" points="515.24,-422.396 504.704,-423.513 513.636,-429.21 515.24,-422.396"/>
</g>
<!-- Node8&#45;&gt;Node4 -->
<g id="edge22" class="edge"><title>Node8&#45;&gt;Node4</title>
<path fill="none" stroke="midnightblue" d="M489.105,-404.339C510.317,-395.375 544.317,-380.903 573.525,-368 648.117,-335.048 665.324,-323.54 740.525,-292 768.622,-280.216 800.979,-267.862 824.534,-259.087"/>
<polygon fill="midnightblue" stroke="midnightblue" points="825.893,-262.316 834.052,-255.557 823.459,-255.752 825.893,-262.316"/>
</g>
<!-- Node9 -->
<g id="node9" class="node"><title>Node9</title>
<g id="a_node9"><a xlink:href="Index_8hpp.html" target="_top" xlink:title="Core/Index/Index.hpp">
<polygon fill="white" stroke="black" points="128.525,-174.5 128.525,-193.5 238.525,-193.5 238.525,-174.5 128.525,-174.5"/>
<text text-anchor="middle" x="183.525" y="-181.5" font-family="Helvetica,sans-Serif" font-size="10.00">Core/Index/Index.hpp</text>
</a>
</g>
</g>
<!-- Node8&#45;&gt;Node9 -->
<g id="edge10" class="edge"><title>Node8&#45;&gt;Node9</title>
<path fill="none" stroke="midnightblue" d="M448.376,-404.385C429.861,-396.108 401.968,-382.715 379.525,-368 314.328,-325.254 300.124,-310.649 244.525,-256 226.865,-238.642 208.617,-216.793 196.737,-201.95"/>
<polygon fill="midnightblue" stroke="midnightblue" points="199.174,-199.388 190.226,-193.715 193.683,-203.73 199.174,-199.388"/>
</g>
<!-- Node12 -->
<g id="node12" class="node"><title>Node12</title>
<g id="a_node12"><a xlink:href="IndexedObject_8hpp.html" target="_top" xlink:title="Core/Index/IndexedObject.hpp">
<polygon fill="white" stroke="black" points="254.025,-236.5 254.025,-255.5 403.025,-255.5 403.025,-236.5 254.025,-236.5"/>
<text text-anchor="middle" x="328.525" y="-243.5" font-family="Helvetica,sans-Serif" font-size="10.00">Core/Index/IndexedObject.hpp</text>
</a>
</g>
</g>
<!-- Node8&#45;&gt;Node12 -->
<g id="edge13" class="edge"><title>Node8&#45;&gt;Node12</title>
<path fill="none" stroke="midnightblue" d="M450.458,-404.465C435.233,-396.603 413.585,-383.783 398.525,-368 368.619,-336.659 346.385,-290.196 335.664,-264.937"/>
<polygon fill="midnightblue" stroke="midnightblue" points="338.829,-263.43 331.786,-255.516 332.356,-266.095 338.829,-263.43"/>
</g>
<!-- Node20 -->
<g id="node20" class="node"><title>Node20</title>
<g id="a_node20"><a xlink:href="DCEL_2HalfEdge_8inl.html" target="_top" xlink:title="Core/Mesh/DCEL/HalfEdge.inl">
<polygon fill="white" stroke="black" points="414.025,-348.5 414.025,-367.5 565.025,-367.5 565.025,-348.5 414.025,-348.5"/>
<text text-anchor="middle" x="489.525" y="-355.5" font-family="Helvetica,sans-Serif" font-size="10.00">Core/Mesh/DCEL/HalfEdge.inl</text>
</a>
</g>
</g>
<!-- Node8&#45;&gt;Node20 -->
<g id="edge23" class="edge"><title>Node8&#45;&gt;Node20</title>
<path fill="none" stroke="midnightblue" d="M466.826,-404.083C468.142,-396.691 471.91,-385.953 476.209,-376.811"/>
<polygon fill="midnightblue" stroke="midnightblue" points="479.418,-378.229 480.991,-367.751 473.227,-374.961 479.418,-378.229"/>
</g>
<!-- Node10 -->
<g id="node10" class="node"><title>Node10</title>
<polygon fill="white" stroke="#bfbfbf" points="118.525,-112.5 118.525,-131.5 158.525,-131.5 158.525,-112.5 118.525,-112.5"/>
<text text-anchor="middle" x="138.525" y="-119.5" font-family="Helvetica,sans-Serif" font-size="10.00">limits</text>
</g>
<!-- Node9&#45;&gt;Node10 -->
<g id="edge11" class="edge"><title>Node9&#45;&gt;Node10</title>
<path fill="none" stroke="midnightblue" d="M177.077,-174.403C170.327,-165.403 159.555,-151.041 151.112,-139.782"/>
<polygon fill="midnightblue" stroke="midnightblue" points="153.76,-137.481 144.96,-131.581 148.16,-141.681 153.76,-137.481"/>
</g>
<!-- Node11 -->
<g id="node11" class="node"><title>Node11</title>
<g id="a_node11"><a xlink:href="Index_8inl.html" target="_top" xlink:title="Core/Index/Index.inl">
<polygon fill="white" stroke="black" points="176.525,-112.5 176.525,-131.5 280.525,-131.5 280.525,-112.5 176.525,-112.5"/>
<text text-anchor="middle" x="228.525" y="-119.5" font-family="Helvetica,sans-Serif" font-size="10.00">Core/Index/Index.inl</text>
</a>
</g>
</g>
<!-- Node9&#45;&gt;Node11 -->
<g id="edge12" class="edge"><title>Node9&#45;&gt;Node11</title>
<path fill="none" stroke="midnightblue" d="M189.972,-174.403C196.722,-165.403 207.494,-151.041 215.938,-139.782"/>
<polygon fill="midnightblue" stroke="midnightblue" points="218.889,-141.681 222.089,-131.581 213.289,-137.481 218.889,-141.681"/>
</g>
<!-- Node12&#45;&gt;Node9 -->
<g id="edge14" class="edge"><title>Node12&#45;&gt;Node9</title>
<path fill="none" stroke="midnightblue" d="M307.75,-236.403C283.093,-226.2 241.78,-209.105 213.623,-197.454"/>
<polygon fill="midnightblue" stroke="midnightblue" points="214.84,-194.17 204.261,-193.581 212.163,-200.638 214.84,-194.17"/>
</g>
<!-- Node13 -->
<g id="node13" class="node"><title>Node13</title>
<g id="a_node13"><a xlink:href="RaCore_8hpp.html" target="_top" xlink:title="Core/RaCore.hpp">
<polygon fill="white" stroke="black" points="642.025,-112.5 642.025,-131.5 735.025,-131.5 735.025,-112.5 642.025,-112.5"/>
<text text-anchor="middle" x="688.525" y="-119.5" font-family="Helvetica,sans-Serif" font-size="10.00">Core/RaCore.hpp</text>
</a>
</g>
</g>
<!-- Node12&#45;&gt;Node13 -->
<g id="edge15" class="edge"><title>Node12&#45;&gt;Node13</title>
<path fill="none" stroke="midnightblue" d="M317.266,-236.37C298.863,-221.259 266.231,-189.568 285.525,-168 308.18,-142.674 525.886,-129.953 631.549,-125.23"/>
<polygon fill="midnightblue" stroke="midnightblue" points="631.883,-128.718 641.72,-124.784 631.577,-121.725 631.883,-128.718"/>
</g>
<!-- Node14 -->
<g id="node14" class="node"><title>Node14</title>
<g id="a_node14"><a xlink:href="CoreMacros_8hpp.html" target="_top" xlink:title="Core/CoreMacros.hpp">
<polygon fill="white" stroke="black" points="632.025,-56.5 632.025,-75.5 745.025,-75.5 745.025,-56.5 632.025,-56.5"/>
<text text-anchor="middle" x="688.525" y="-63.5" font-family="Helvetica,sans-Serif" font-size="10.00">Core/CoreMacros.hpp</text>
</a>
</g>
</g>
<!-- Node13&#45;&gt;Node14 -->
<g id="edge16" class="edge"><title>Node13&#45;&gt;Node14</title>
<path fill="none" stroke="midnightblue" d="M688.525,-112.083C688.525,-105.006 688.525,-94.8611 688.525,-85.9865"/>
<polygon fill="midnightblue" stroke="midnightblue" points="692.025,-85.751 688.525,-75.7511 685.025,-85.7511 692.025,-85.751"/>
</g>
<!-- Node15 -->
<g id="node15" class="node"><title>Node15</title>
<polygon fill="white" stroke="#bfbfbf" points="533.025,-0.5 533.025,-19.5 582.025,-19.5 582.025,-0.5 533.025,-0.5"/>
<text text-anchor="middle" x="557.525" y="-7.5" font-family="Helvetica,sans-Serif" font-size="10.00">cassert</text>
</g>
<!-- Node14&#45;&gt;Node15 -->
<g id="edge17" class="edge"><title>Node14&#45;&gt;Node15</title>
<path fill="none" stroke="midnightblue" d="M667.768,-56.4435C646.208,-47.5566 612.262,-33.5632 587.731,-23.4514"/>
<polygon fill="midnightblue" stroke="midnightblue" points="588.764,-20.0917 578.185,-19.5164 586.097,-26.5634 588.764,-20.0917"/>
</g>
<!-- Node16 -->
<g id="node16" class="node"><title>Node16</title>
<polygon fill="white" stroke="#bfbfbf" points="600.025,-0.5 600.025,-19.5 643.025,-19.5 643.025,-0.5 600.025,-0.5"/>
<text text-anchor="middle" x="621.525" y="-7.5" font-family="Helvetica,sans-Serif" font-size="10.00">cstdio</text>
</g>
<!-- Node14&#45;&gt;Node16 -->
<g id="edge18" class="edge"><title>Node14&#45;&gt;Node16</title>
<path fill="none" stroke="midnightblue" d="M677.76,-56.324C667.759,-48.2631 652.638,-36.0765 640.594,-26.3695"/>
<polygon fill="midnightblue" stroke="midnightblue" points="642.468,-23.3841 632.485,-19.8339 638.075,-28.8343 642.468,-23.3841"/>
</g>
<!-- Node17 -->
<g id="node17" class="node"><title>Node17</title>
<polygon fill="white" stroke="#bfbfbf" points="661.525,-0.5 661.525,-19.5 715.525,-19.5 715.525,-0.5 661.525,-0.5"/>
<text text-anchor="middle" x="688.525" y="-7.5" font-family="Helvetica,sans-Serif" font-size="10.00">iostream</text>
</g>
<!-- Node14&#45;&gt;Node17 -->
<g id="edge19" class="edge"><title>Node14&#45;&gt;Node17</title>
<path fill="none" stroke="midnightblue" d="M688.525,-56.083C688.525,-49.0059 688.525,-38.8611 688.525,-29.9865"/>
<polygon fill="midnightblue" stroke="midnightblue" points="692.025,-29.751 688.525,-19.7511 685.025,-29.7511 692.025,-29.751"/>
</g>
<!-- Node18 -->
<g id="node18" class="node"><title>Node18</title>
<polygon fill="white" stroke="#bfbfbf" points="733.525,-0.5 733.525,-19.5 785.525,-19.5 785.525,-0.5 733.525,-0.5"/>
<text text-anchor="middle" x="759.525" y="-7.5" font-family="Helvetica,sans-Serif" font-size="10.00">sstream</text>
</g>
<!-- Node14&#45;&gt;Node18 -->
<g id="edge20" class="edge"><title>Node14&#45;&gt;Node18</title>
<path fill="none" stroke="midnightblue" d="M699.932,-56.324C710.634,-48.1849 726.866,-35.8395 739.688,-26.0874"/>
<polygon fill="midnightblue" stroke="midnightblue" points="742.069,-28.6734 747.91,-19.8339 737.832,-23.1018 742.069,-28.6734"/>
</g>
<!-- Node19 -->
<g id="node19" class="node"><title>Node19</title>
<polygon fill="white" stroke="#bfbfbf" points="803.525,-0.5 803.525,-19.5 847.525,-19.5 847.525,-0.5 803.525,-0.5"/>
<text text-anchor="middle" x="825.525" y="-7.5" font-family="Helvetica,sans-Serif" font-size="10.00">thread</text>
</g>
<!-- Node14&#45;&gt;Node19 -->
<g id="edge21" class="edge"><title>Node14&#45;&gt;Node19</title>
<path fill="none" stroke="midnightblue" d="M710.233,-56.4435C732.88,-47.5171 768.597,-33.4387 794.277,-23.3168"/>
<polygon fill="midnightblue" stroke="midnightblue" points="795.898,-26.4397 803.918,-19.5164 793.332,-19.9273 795.898,-26.4397"/>
</g>
<!-- Node20&#45;&gt;Node8 -->
<g id="edge24" class="edge"><title>Node20&#45;&gt;Node8</title>
<path fill="none" stroke="midnightblue" d="M491.253,-367.751C489.974,-375.092 486.229,-385.817 481.938,-394.983"/>
<polygon fill="midnightblue" stroke="midnightblue" points="478.71,-393.602 477.159,-404.083 484.907,-396.857 478.71,-393.602"/>
</g>
<!-- Node21 -->
<g id="node21" class="node"><title>Node21</title>
<g id="a_node21"><a xlink:href="Face_8hpp.html" target="_top" xlink:title="Core/Mesh/DCEL/Face.hpp">
<polygon fill="white" stroke="black" points="105.525,-292.5 105.525,-311.5 243.525,-311.5 243.525,-292.5 105.525,-292.5"/>
<text text-anchor="middle" x="174.525" y="-299.5" font-family="Helvetica,sans-Serif" font-size="10.00">Core/Mesh/DCEL/Face.hpp</text>
</a>
</g>
</g>
<!-- Node20&#45;&gt;Node21 -->
<g id="edge25" class="edge"><title>Node20&#45;&gt;Node21</title>
<path fill="none" stroke="midnightblue" d="M439.612,-348.444C383.855,-338.885 293.639,-323.419 234.198,-313.23"/>
<polygon fill="midnightblue" stroke="midnightblue" points="234.652,-309.756 224.204,-311.516 233.469,-316.656 234.652,-309.756"/>
</g>
<!-- Node23 -->
<g id="node23" class="node"><title>Node23</title>
<g id="a_node23"><a xlink:href="Vertex_8hpp.html" target="_top" xlink:title="Core/Mesh/DCEL/Vertex.hpp">
<polygon fill="white" stroke="black" points="517.025,-292.5 517.025,-311.5 662.025,-311.5 662.025,-292.5 517.025,-292.5"/>
<text text-anchor="middle" x="589.525" y="-299.5" font-family="Helvetica,sans-Serif" font-size="10.00">Core/Mesh/DCEL/Vertex.hpp</text>
</a>
</g>
</g>
<!-- Node20&#45;&gt;Node23 -->
<g id="edge32" class="edge"><title>Node20&#45;&gt;Node23</title>
<path fill="none" stroke="midnightblue" d="M505.592,-348.324C521.483,-339.743 546.032,-326.486 564.483,-316.522"/>
<polygon fill="midnightblue" stroke="midnightblue" points="566.362,-319.486 573.498,-311.655 563.036,-313.326 566.362,-319.486"/>
</g>
<!-- Node21&#45;&gt;Node4 -->
<g id="edge28" class="edge"><title>Node21&#45;&gt;Node4</title>
<path fill="none" stroke="midnightblue" d="M243.62,-296.332C352.591,-288.845 571.298,-273.311 768.469,-255.981"/>
<polygon fill="midnightblue" stroke="midnightblue" points="768.782,-259.467 778.436,-255.102 768.167,-252.494 768.782,-259.467"/>
</g>
<!-- Node21&#45;&gt;Node9 -->
<g id="edge26" class="edge"><title>Node21&#45;&gt;Node9</title>
<path fill="none" stroke="midnightblue" d="M175.201,-292.281C176.655,-273.547 180.103,-229.098 182.075,-203.682"/>
<polygon fill="midnightblue" stroke="midnightblue" points="185.581,-203.746 182.865,-193.505 178.602,-203.204 185.581,-203.746"/>
</g>
<!-- Node21&#45;&gt;Node12 -->
<g id="edge27" class="edge"><title>Node21&#45;&gt;Node12</title>
<path fill="none" stroke="midnightblue" d="M198.927,-292.444C224.721,-283.399 265.601,-269.064 294.543,-258.916"/>
<polygon fill="midnightblue" stroke="midnightblue" points="295.959,-262.128 304.237,-255.516 293.642,-255.523 295.959,-262.128"/>
</g>
<!-- Node22 -->
<g id="node22" class="node"><title>Node22</title>
<g id="a_node22"><a xlink:href="Face_8inl.html" target="_top" xlink:title="Core/Mesh/DCEL/Face.inl">
<polygon fill="white" stroke="black" points="28.5249,-236.5 28.5249,-255.5 160.525,-255.5 160.525,-236.5 28.5249,-236.5"/>
<text text-anchor="middle" x="94.5249" y="-243.5" font-family="Helvetica,sans-Serif" font-size="10.00">Core/Mesh/DCEL/Face.inl</text>
</a>
</g>
</g>
<!-- Node21&#45;&gt;Node22 -->
<g id="edge29" class="edge"><title>Node21&#45;&gt;Node22</title>
<path fill="none" stroke="midnightblue" d="M156.557,-292.324C142.737,-284.185 124.109,-271.839 110.748,-262.087"/>
<polygon fill="midnightblue" stroke="midnightblue" points="112.554,-259.065 102.463,-255.834 108.336,-264.652 112.554,-259.065"/>
</g>
<!-- Node22&#45;&gt;Node8 -->
<g id="edge31" class="edge"><title>Node22&#45;&gt;Node8</title>
<path fill="none" stroke="midnightblue" d="M91.8739,-255.649C88.2939,-269.216 83.7288,-295.635 96.5249,-312 132.655,-358.207 293.73,-388.491 391.696,-402.992"/>
<polygon fill="midnightblue" stroke="midnightblue" points="391.452,-406.494 401.852,-404.473 392.461,-399.567 391.452,-406.494"/>
</g>
<!-- Node22&#45;&gt;Node21 -->
<g id="edge30" class="edge"><title>Node22&#45;&gt;Node21</title>
<path fill="none" stroke="midnightblue" d="M112.457,-255.655C126.35,-263.835 145.118,-276.277 158.504,-286.061"/>
<polygon fill="midnightblue" stroke="midnightblue" points="156.699,-289.084 166.786,-292.324 160.921,-283.5 156.699,-289.084"/>
</g>
<!-- Node23&#45;&gt;Node4 -->
<g id="edge49" class="edge"><title>Node23&#45;&gt;Node4</title>
<path fill="none" stroke="midnightblue" d="M631.99,-292.444C678.938,-282.984 754.601,-267.738 805.179,-257.547"/>
<polygon fill="midnightblue" stroke="midnightblue" points="806.147,-260.923 815.258,-255.516 804.764,-254.061 806.147,-260.923"/>
</g>
<!-- Node23&#45;&gt;Node9 -->
<g id="edge33" class="edge"><title>Node23&#45;&gt;Node9</title>
<path fill="none" stroke="midnightblue" d="M589.481,-292.237C588.895,-278.014 585.503,-250.082 568.525,-236 519.729,-195.528 348.333,-208.612 285.525,-200 273.611,-198.366 260.924,-196.557 248.692,-194.777"/>
<polygon fill="midnightblue" stroke="midnightblue" points="248.952,-191.277 238.55,-193.293 247.938,-198.204 248.952,-191.277"/>
</g>
<!-- Node23&#45;&gt;Node12 -->
<g id="edge34" class="edge"><title>Node23&#45;&gt;Node12</title>
<path fill="none" stroke="midnightblue" d="M548.169,-292.444C502.447,-282.984 428.76,-267.738 379.503,-257.547"/>
<polygon fill="midnightblue" stroke="midnightblue" points="380.189,-254.115 369.688,-255.516 378.771,-260.97 380.189,-254.115"/>
</g>
<!-- Node24 -->
<g id="node24" class="node"><title>Node24</title>
<g id="a_node24"><a xlink:href="LinearAlgebra_8hpp.html" target="_top" xlink:title="Core/Math/LinearAlgebra.hpp">
<polygon fill="white" stroke="black" points="617.025,-236.5 617.025,-255.5 760.025,-255.5 760.025,-236.5 617.025,-236.5"/>
<text text-anchor="middle" x="688.525" y="-243.5" font-family="Helvetica,sans-Serif" font-size="10.00">Core/Math/LinearAlgebra.hpp</text>
</a>
</g>
</g>
<!-- Node23&#45;&gt;Node24 -->
<g id="edge35" class="edge"><title>Node23&#45;&gt;Node24</title>
<path fill="none" stroke="midnightblue" d="M605.431,-292.324C621.163,-283.743 645.467,-270.486 663.734,-260.522"/>
<polygon fill="midnightblue" stroke="midnightblue" points="665.555,-263.516 672.658,-255.655 662.203,-257.37 665.555,-263.516"/>
</g>
<!-- Node35 -->
<g id="node35" class="node"><title>Node35</title>
<g id="a_node35"><a xlink:href="Vertex_8inl.html" target="_top" xlink:title="Core/Mesh/DCEL/Vertex.inl">
<polygon fill="white" stroke="black" points="421.025,-236.5 421.025,-255.5 560.025,-255.5 560.025,-236.5 421.025,-236.5"/>
<text text-anchor="middle" x="490.525" y="-243.5" font-family="Helvetica,sans-Serif" font-size="10.00">Core/Mesh/DCEL/Vertex.inl</text>
</a>
</g>
</g>
<!-- Node23&#45;&gt;Node35 -->
<g id="edge50" class="edge"><title>Node23&#45;&gt;Node35</title>
<path fill="none" stroke="midnightblue" d="M568.504,-292.324C551.237,-283.9 527.235,-270.971 510.318,-261.074"/>
<polygon fill="midnightblue" stroke="midnightblue" points="511.657,-257.796 501.281,-255.655 508.057,-263.799 511.657,-257.796"/>
</g>
<!-- Node24&#45;&gt;Node13 -->
<g id="edge36" class="edge"><title>Node24&#45;&gt;Node13</title>
<path fill="none" stroke="midnightblue" d="M688.525,-236.226C688.525,-216.53 688.525,-168.437 688.525,-141.7"/>
<polygon fill="midnightblue" stroke="midnightblue" points="692.025,-141.694 688.525,-131.694 685.025,-141.694 692.025,-141.694"/>
</g>
<!-- Node25 -->
<g id="node25" class="node"><title>Node25</title>
<polygon fill="white" stroke="#bfbfbf" points="717.025,-174.5 717.025,-193.5 782.025,-193.5 782.025,-174.5 717.025,-174.5"/>
<text text-anchor="middle" x="749.525" y="-181.5" font-family="Helvetica,sans-Serif" font-size="10.00">Eigen/Core</text>
</g>
<!-- Node24&#45;&gt;Node25 -->
<g id="edge37" class="edge"><title>Node24&#45;&gt;Node25</title>
<path fill="none" stroke="midnightblue" d="M697.265,-236.403C706.687,-227.136 721.889,-212.183 733.474,-200.788"/>
<polygon fill="midnightblue" stroke="midnightblue" points="736.126,-203.088 740.801,-193.581 731.218,-198.098 736.126,-203.088"/>
</g>
<!-- Node26 -->
<g id="node26" class="node"><title>Node26</title>
<polygon fill="white" stroke="#bfbfbf" points="800.025,-174.5 800.025,-193.5 887.025,-193.5 887.025,-174.5 800.025,-174.5"/>
<text text-anchor="middle" x="843.525" y="-181.5" font-family="Helvetica,sans-Serif" font-size="10.00">Eigen/Geometry</text>
</g>
<!-- Node24&#45;&gt;Node26 -->
<g id="edge38" class="edge"><title>Node24&#45;&gt;Node26</title>
<path fill="none" stroke="midnightblue" d="M710.733,-236.403C737.205,-226.156 781.638,-208.956 811.744,-197.302"/>
<polygon fill="midnightblue" stroke="midnightblue" points="813.296,-200.455 821.358,-193.581 810.769,-193.927 813.296,-200.455"/>
</g>
<!-- Node27 -->
<g id="node27" class="node"><title>Node27</title>
<polygon fill="white" stroke="#bfbfbf" points="905.025,-174.5 905.025,-193.5 980.025,-193.5 980.025,-174.5 905.025,-174.5"/>
<text text-anchor="middle" x="942.525" y="-181.5" font-family="Helvetica,sans-Serif" font-size="10.00">Eigen/Sparse</text>
</g>
<!-- Node24&#45;&gt;Node27 -->
<g id="edge39" class="edge"><title>Node24&#45;&gt;Node27</title>
<path fill="none" stroke="midnightblue" d="M733.641,-236.475C775.775,-228.211 840.281,-214.785 895.525,-200 899.416,-198.959 903.464,-197.794 907.48,-196.585"/>
<polygon fill="midnightblue" stroke="midnightblue" points="908.775,-199.848 917.287,-193.54 906.699,-193.163 908.775,-199.848"/>
</g>
<!-- Node28 -->
<g id="node28" class="node"><title>Node28</title>
<polygon fill="white" stroke="#bfbfbf" points="295.025,-174.5 295.025,-193.5 354.025,-193.5 354.025,-174.5 295.025,-174.5"/>
<text text-anchor="middle" x="324.525" y="-181.5" font-family="Helvetica,sans-Serif" font-size="10.00">functional</text>
</g>
<!-- Node24&#45;&gt;Node28 -->
<g id="edge40" class="edge"><title>Node24&#45;&gt;Node28</title>
<path fill="none" stroke="midnightblue" d="M616.983,-237.145C535.962,-227.892 409.154,-212.233 362.525,-200 359.468,-199.198 356.323,-198.221 353.215,-197.153"/>
<polygon fill="midnightblue" stroke="midnightblue" points="354.151,-193.767 343.558,-193.542 351.699,-200.323 354.151,-193.767"/>
</g>
<!-- Node29 -->
<g id="node29" class="node"><title>Node29</title>
<polygon fill="white" stroke="#bfbfbf" points="372.025,-169 372.025,-199 505.025,-199 505.025,-169 372.025,-169"/>
<text text-anchor="start" x="380.025" y="-187" font-family="Helvetica,sans-Serif" font-size="10.00">unsupported/Eigen/Aligned</text>
<text text-anchor="middle" x="438.525" y="-176" font-family="Helvetica,sans-Serif" font-size="10.00">Vector3</text>
</g>
<!-- Node24&#45;&gt;Node29 -->
<g id="edge41" class="edge"><title>Node24&#45;&gt;Node29</title>
<path fill="none" stroke="midnightblue" d="M652.971,-236.467C615.089,-227.376 554.191,-212.76 506.953,-201.423"/>
<polygon fill="midnightblue" stroke="midnightblue" points="507.634,-197.987 497.094,-199.057 506.001,-204.794 507.634,-197.987"/>
</g>
<!-- Node30 -->
<g id="node30" class="node"><title>Node30</title>
<g id="a_node30"><a xlink:href="Math_8hpp.html" target="_top" xlink:title="Core/Math/Math.hpp">
<polygon fill="white" stroke="black" points="997.525,-174.5 997.525,-193.5 1103.52,-193.5 1103.52,-174.5 997.525,-174.5"/>
<text text-anchor="middle" x="1050.52" y="-181.5" font-family="Helvetica,sans-Serif" font-size="10.00">Core/Math/Math.hpp</text>
</a>
</g>
</g>
<!-- Node24&#45;&gt;Node30 -->
<g id="edge42" class="edge"><title>Node24&#45;&gt;Node30</title>
<path fill="none" stroke="midnightblue" d="M757.033,-236.48C818.031,-228.476 909.573,-215.441 988.525,-200 994.73,-198.786 1001.25,-197.368 1007.64,-195.897"/>
<polygon fill="midnightblue" stroke="midnightblue" points="1008.58,-199.271 1017.5,-193.563 1006.96,-192.46 1008.58,-199.271"/>
</g>
<!-- Node34 -->
<g id="node34" class="node"><title>Node34</title>
<g id="a_node34"><a xlink:href="LinearAlgebra_8inl.html" target="_top" xlink:title="Core/Math/LinearAlgebra.inl">
<polygon fill="white" stroke="black" points="523.025,-174.5 523.025,-193.5 660.025,-193.5 660.025,-174.5 523.025,-174.5"/>
<text text-anchor="middle" x="591.525" y="-181.5" font-family="Helvetica,sans-Serif" font-size="10.00">Core/Math/LinearAlgebra.inl</text>
</a>
</g>
</g>
<!-- Node24&#45;&gt;Node34 -->
<g id="edge48" class="edge"><title>Node24&#45;&gt;Node34</title>
<path fill="none" stroke="midnightblue" d="M674.627,-236.403C658.781,-226.601 632.651,-210.439 613.92,-198.853"/>
<polygon fill="midnightblue" stroke="midnightblue" points="615.743,-195.865 605.397,-193.581 612.06,-201.818 615.743,-195.865"/>
</g>
<!-- Node30&#45;&gt;Node13 -->
<g id="edge43" class="edge"><title>Node30&#45;&gt;Node13</title>
<path fill="none" stroke="midnightblue" d="M1017.5,-174.437C1008.17,-172.174 997.98,-169.849 988.525,-168 904.363,-151.541 805.895,-137.814 745.368,-130.002"/>
<polygon fill="midnightblue" stroke="midnightblue" points="745.618,-126.506 735.255,-128.707 744.729,-133.449 745.618,-126.506"/>
</g>
<!-- Node31 -->
<g id="node31" class="node"><title>Node31</title>
<polygon fill="white" stroke="#bfbfbf" points="1070.52,-112.5 1070.52,-131.5 1126.52,-131.5 1126.52,-112.5 1070.52,-112.5"/>
<text text-anchor="middle" x="1098.52" y="-119.5" font-family="Helvetica,sans-Serif" font-size="10.00">algorithm</text>
</g>
<!-- Node30&#45;&gt;Node31 -->
<g id="edge44" class="edge"><title>Node30&#45;&gt;Node31</title>
<path fill="none" stroke="midnightblue" d="M1057.4,-174.403C1064.67,-165.314 1076.32,-150.756 1085.37,-139.449"/>
<polygon fill="midnightblue" stroke="midnightblue" points="1088.15,-141.576 1091.66,-131.581 1082.68,-137.203 1088.15,-141.576"/>
</g>
<!-- Node32 -->
<g id="node32" class="node"><title>Node32</title>
<polygon fill="white" stroke="#bfbfbf" points="1144.52,-112.5 1144.52,-131.5 1188.52,-131.5 1188.52,-112.5 1144.52,-112.5"/>
<text text-anchor="middle" x="1166.52" y="-119.5" font-family="Helvetica,sans-Serif" font-size="10.00">cmath</text>
</g>
<!-- Node30&#45;&gt;Node32 -->
<g id="edge45" class="edge"><title>Node30&#45;&gt;Node32</title>
<path fill="none" stroke="midnightblue" d="M1067.14,-174.403C1086.44,-164.423 1118.48,-147.849 1140.96,-136.225"/>
<polygon fill="midnightblue" stroke="midnightblue" points="1142.66,-139.284 1149.94,-131.581 1139.45,-133.066 1142.66,-139.284"/>
</g>
<!-- Node33 -->
<g id="node33" class="node"><title>Node33</title>
<g id="a_node33"><a xlink:href="Math_8inl.html" target="_top" xlink:title="Core/Math/Math.inl">
<polygon fill="white" stroke="black" points="952.525,-112.5 952.525,-131.5 1052.52,-131.5 1052.52,-112.5 952.525,-112.5"/>
<text text-anchor="middle" x="1002.52" y="-119.5" font-family="Helvetica,sans-Serif" font-size="10.00">Core/Math/Math.inl</text>
</a>
</g>
</g>
<!-- Node30&#45;&gt;Node33 -->
<g id="edge46" class="edge"><title>Node30&#45;&gt;Node33</title>
<path fill="none" stroke="midnightblue" d="M1038.75,-174.403C1029.69,-165.493 1017.94,-151.325 1010.06,-140.118"/>
<polygon fill="midnightblue" stroke="midnightblue" points="1012.88,-138.048 1004.49,-131.581 1007.02,-141.87 1012.88,-138.048"/>
</g>
<!-- Node33&#45;&gt;Node30 -->
<g id="edge47" class="edge"><title>Node33&#45;&gt;Node30</title>
<path fill="none" stroke="midnightblue" d="M1014.29,-131.581C1023.34,-140.485 1035.1,-154.652 1042.98,-165.862"/>
<polygon fill="midnightblue" stroke="midnightblue" points="1040.15,-167.938 1048.55,-174.403 1046.02,-164.115 1040.15,-167.938"/>
</g>
<!-- Node35&#45;&gt;Node8 -->
<g id="edge52" class="edge"><title>Node35&#45;&gt;Node8</title>
<path fill="none" stroke="midnightblue" d="M479.026,-255.739C459.27,-271.568 419.56,-307.152 404.525,-348 401.455,-356.342 400.428,-360.111 404.525,-368 411.678,-381.774 425.196,-392.217 437.972,-399.559"/>
<polygon fill="midnightblue" stroke="midnightblue" points="436.567,-402.775 447.042,-404.36 439.841,-396.588 436.567,-402.775"/>
</g>
<!-- Node35&#45;&gt;Node23 -->
<g id="edge51" class="edge"><title>Node35&#45;&gt;Node23</title>
<path fill="none" stroke="midnightblue" d="M511.502,-255.655C528.757,-264.071 552.76,-276.999 569.688,-286.901"/>
<polygon fill="midnightblue" stroke="midnightblue" points="568.357,-290.183 578.734,-292.324 571.957,-284.18 568.357,-290.183"/>
</g>
<!-- Node36&#45;&gt;Node2 -->
<g id="edge54" class="edge"><title>Node36&#45;&gt;Node2</title>
<path fill="none" stroke="midnightblue" d="M859.391,-559.293C850.612,-568.282 837.83,-580.036 826.011,-590.066"/>
<polygon fill="midnightblue" stroke="midnightblue" points="823.503,-587.599 818.043,-596.679 827.973,-592.986 823.503,-587.599"/>
</g>
<!-- Node36&#45;&gt;Node23 -->
<g id="edge55" class="edge"><title>Node36&#45;&gt;Node23</title>
<path fill="none" stroke="midnightblue" d="M858.433,-528.715C844.767,-511.528 820.414,-482.217 796.525,-460 733.841,-401.703 650.332,-343.556 611.326,-317.377"/>
<polygon fill="midnightblue" stroke="midnightblue" points="613.097,-314.351 602.836,-311.713 609.212,-320.174 613.097,-314.351"/>
</g>
<!-- Node37&#45;&gt;Node1 -->
<g id="edge57" class="edge"><title>Node37&#45;&gt;Node1</title>
<path fill="none" stroke="midnightblue" d="M598.906,-627.252C599.925,-634.969 600.375,-644.877 600.256,-654.529"/>
<polygon fill="midnightblue" stroke="midnightblue" points="596.749,-654.673 599.904,-664.787 603.745,-654.913 596.749,-654.673"/>
</g>
<!-- Node37&#45;&gt;Node8 -->
<g id="edge67" class="edge"><title>Node37&#45;&gt;Node8</title>
<path fill="none" stroke="midnightblue" d="M590.624,-596.721C584.254,-568.192 566.803,-503.182 532.525,-460 522.332,-447.159 507.523,-436.423 494.717,-428.662"/>
<polygon fill="midnightblue" stroke="midnightblue" points="496.253,-425.508 485.841,-423.549 492.759,-431.573 496.253,-425.508"/>
</g>
<!-- Node37&#45;&gt;Node23 -->
<g id="edge68" class="edge"><title>Node37&#45;&gt;Node23</title>
<path fill="none" stroke="midnightblue" d="M600.319,-596.899C611.249,-572.876 631.525,-522.219 631.525,-477 631.525,-477 631.525,-477 631.525,-413 631.525,-378.412 613.177,-341.492 600.735,-320.432"/>
<polygon fill="midnightblue" stroke="midnightblue" points="603.582,-318.38 595.365,-311.692 597.618,-322.045 603.582,-318.38"/>
</g>
<!-- Node38 -->
<g id="node38" class="node"><title>Node38</title>
<g id="a_node38"><a xlink:href="FullEdge_8hpp.html" target="_top" xlink:title="Core/Mesh/DCEL/FullEdge.hpp">
<polygon fill="white" stroke="black" points="372.025,-534.5 372.025,-553.5 527.025,-553.5 527.025,-534.5 372.025,-534.5"/>
<text text-anchor="middle" x="449.525" y="-541.5" font-family="Helvetica,sans-Serif" font-size="10.00">Core/Mesh/DCEL/FullEdge.hpp</text>
</a>
</g>
</g>
<!-- Node37&#45;&gt;Node38 -->
<g id="edge58" class="edge"><title>Node37&#45;&gt;Node38</title>
<path fill="none" stroke="midnightblue" d="M562.633,-596.841C537.39,-585.272 502.01,-569.055 477.571,-557.855"/>
<polygon fill="midnightblue" stroke="midnightblue" points="479.016,-554.667 468.467,-553.682 476.1,-561.03 479.016,-554.667"/>
</g>
<!-- Node38&#45;&gt;Node4 -->
<g id="edge61" class="edge"><title>Node38&#45;&gt;Node4</title>
<path fill="none" stroke="midnightblue" d="M464.487,-534.387C481.316,-524.565 509.329,-507.817 532.525,-492 652.858,-409.945 790.112,-301.193 839.026,-261.932"/>
<polygon fill="midnightblue" stroke="midnightblue" points="841.259,-264.627 846.858,-255.632 836.872,-259.172 841.259,-264.627"/>
</g>
<!-- Node38&#45;&gt;Node9 -->
<g id="edge59" class="edge"><title>Node38&#45;&gt;Node9</title>
<path fill="none" stroke="midnightblue" d="M371.828,-536.881C243.318,-524.598 0.524873,-491.295 0.524873,-415 0.524873,-415 0.524873,-415 0.524873,-301 0.524873,-270.902 -1.57462,-257.464 19.5249,-236 45.3823,-209.696 84.5438,-196.905 118.114,-190.709"/>
<polygon fill="midnightblue" stroke="midnightblue" points="119.051,-194.101 128.332,-188.99 117.89,-187.198 119.051,-194.101"/>
</g>
<!-- Node38&#45;&gt;Node12 -->
<g id="edge60" class="edge"><title>Node38&#45;&gt;Node12</title>
<path fill="none" stroke="midnightblue" d="M424.368,-534.489C405.06,-526.592 379.426,-512.874 365.525,-492 317.59,-420.021 322.124,-310.003 326.28,-266.078"/>
<polygon fill="midnightblue" stroke="midnightblue" points="329.779,-266.272 327.348,-255.96 322.818,-265.538 329.779,-266.272"/>
</g>
<!-- Node39 -->
<g id="node39" class="node"><title>Node39</title>
<g id="a_node39"><a xlink:href="FullEdge_8inl.html" target="_top" xlink:title="Core/Mesh/DCEL/FullEdge.inl">
<polygon fill="white" stroke="black" points="375.025,-466.5 375.025,-485.5 524.025,-485.5 524.025,-466.5 375.025,-466.5"/>
<text text-anchor="middle" x="449.525" y="-473.5" font-family="Helvetica,sans-Serif" font-size="10.00">Core/Mesh/DCEL/FullEdge.inl</text>
</a>
</g>
</g>
<!-- Node38&#45;&gt;Node39 -->
<g id="edge62" class="edge"><title>Node38&#45;&gt;Node39</title>
<path fill="none" stroke="midnightblue" d="M444.794,-534.372C442.723,-524.643 442.245,-508.528 443.36,-495.85"/>
<polygon fill="midnightblue" stroke="midnightblue" points="446.841,-496.227 444.749,-485.841 439.907,-495.265 446.841,-496.227"/>
</g>
<!-- Node39&#45;&gt;Node8 -->
<g id="edge65" class="edge"><title>Node39&#45;&gt;Node8</title>
<path fill="none" stroke="midnightblue" d="M452.247,-466.403C454.984,-457.76 459.288,-444.17 462.782,-433.134"/>
<polygon fill="midnightblue" stroke="midnightblue" points="466.125,-434.171 465.808,-423.581 459.452,-432.057 466.125,-434.171"/>
</g>
<!-- Node39&#45;&gt;Node21 -->
<g id="edge64" class="edge"><title>Node39&#45;&gt;Node21</title>
<path fill="none" stroke="midnightblue" d="M435.888,-466.47C391.629,-438.789 251.699,-351.269 196.871,-316.976"/>
<polygon fill="midnightblue" stroke="midnightblue" points="198.579,-313.916 188.244,-311.581 194.867,-319.851 198.579,-313.916"/>
</g>
<!-- Node39&#45;&gt;Node23 -->
<g id="edge66" class="edge"><title>Node39&#45;&gt;Node23</title>
<path fill="none" stroke="midnightblue" d="M483.525,-466.354C506.803,-458.789 536.744,-445.557 555.525,-424 580.996,-394.763 587.488,-347.813 589.077,-321.828"/>
<polygon fill="midnightblue" stroke="midnightblue" points="592.575,-321.935 589.506,-311.795 585.582,-321.636 592.575,-321.935"/>
</g>
<!-- Node39&#45;&gt;Node38 -->
<g id="edge63" class="edge"><title>Node39&#45;&gt;Node38</title>
<path fill="none" stroke="midnightblue" d="M454.301,-485.841C456.348,-495.662 456.803,-511.798 455.666,-524.425"/>
<polygon fill="midnightblue" stroke="midnightblue" points="452.194,-523.979 454.256,-534.372 459.125,-524.962 452.194,-523.979"/>
</g>
</g>
</svg>
