<?xml version="1.0" encoding="UTF-8" standalone="no"?>
<!DOCTYPE svg PUBLIC "-//W3C//DTD SVG 1.1//EN"
 "http://www.w3.org/Graphics/SVG/1.1/DTD/svg11.dtd">
<!-- Generated by graphviz version 2.36.0 (20140111.2315)
 -->
<!-- Title: /home/travis/build/STORM&#45;IRIT/Radium&#45;Engine/src/Core/Mesh/DCEL/Iterator/Vertex/VFIterator.hpp Pages: 1 -->
<svg width="1250pt" height="726pt"
 viewBox="0.00 0.00 1250.00 726.00" xmlns="http://www.w3.org/2000/svg" xmlns:xlink="http://www.w3.org/1999/xlink">
<g id="graph0" class="graph" transform="scale(1 1) rotate(0) translate(4 722)">
<title>/home/travis/build/STORM&#45;IRIT/Radium&#45;Engine/src/Core/Mesh/DCEL/Iterator/Vertex/VFIterator.hpp</title>
<polygon fill="white" stroke="none" points="-4,4 -4,-722 1246,-722 1246,4 -4,4"/>
<!-- Node1 -->
<g id="node1" class="node"><title>Node1</title>
<polygon fill="#bfbfbf" stroke="black" points="758,-665 758,-717 906,-717 906,-665 758,-665"/>
<text text-anchor="start" x="766" y="-705" font-family="Helvetica,sans-Serif" font-size="10.00">/home/travis/build</text>
<text text-anchor="start" x="766" y="-694" font-family="Helvetica,sans-Serif" font-size="10.00">/STORM&#45;IRIT/Radium&#45;Engine</text>
<text text-anchor="start" x="766" y="-683" font-family="Helvetica,sans-Serif" font-size="10.00">/src/Core/Mesh/DCEL/Iterator</text>
<text text-anchor="middle" x="832" y="-672" font-family="Helvetica,sans-Serif" font-size="10.00">/Vertex/VFIterator.hpp</text>
</g>
<!-- Node2 -->
<g id="node2" class="node"><title>Node2</title>
<g id="a_node2"><a xlink:href="VertexIterator_8hpp.html" target="_top" xlink:title="Core/Mesh/DCEL/Iterator\l/Vertex/VertexIterator.hpp">
<polygon fill="white" stroke="black" points="614.5,-597 614.5,-627 743.5,-627 743.5,-597 614.5,-597"/>
<text text-anchor="start" x="622.5" y="-615" font-family="Helvetica,sans-Serif" font-size="10.00">Core/Mesh/DCEL/Iterator</text>
<text text-anchor="middle" x="679" y="-604" font-family="Helvetica,sans-Serif" font-size="10.00">/Vertex/VertexIterator.hpp</text>
</a>
</g>
</g>
<!-- Node1&#45;&gt;Node2 -->
<g id="edge1" class="edge"><title>Node1&#45;&gt;Node2</title>
<path fill="none" stroke="midnightblue" d="M781.902,-664.787C760.385,-653.958 735.691,-641.531 715.888,-631.564"/>
<polygon fill="midnightblue" stroke="midnightblue" points="717.385,-628.4 706.879,-627.031 714.238,-634.653 717.385,-628.4"/>
</g>
<!-- Node37 -->
<g id="node37" class="node"><title>Node37</title>
<g id="a_node37"><a xlink:href="VFIterator_8inl.html" target="_top" xlink:title="Core/Mesh/DCEL/Iterator\l/Vertex/VFIterator.inl">
<polygon fill="white" stroke="black" points="768,-461 768,-491 896,-491 896,-461 768,-461"/>
<text text-anchor="start" x="776" y="-479" font-family="Helvetica,sans-Serif" font-size="10.00">Core/Mesh/DCEL/Iterator</text>
<text text-anchor="middle" x="832" y="-468" font-family="Helvetica,sans-Serif" font-size="10.00">/Vertex/VFIterator.inl</text>
</a>
</g>
</g>
<!-- Node1&#45;&gt;Node37 -->
<g id="edge56" class="edge"><title>Node1&#45;&gt;Node37</title>
<path fill="none" stroke="midnightblue" d="M827.445,-664.73C824.489,-623.343 824.518,-541.662 827.533,-501.07"/>
<polygon fill="midnightblue" stroke="midnightblue" points="831.028,-501.277 828.437,-491.004 824.056,-500.65 831.028,-501.277"/>
</g>
<!-- Node3 -->
<g id="node3" class="node"><title>Node3</title>
<g id="a_node3"><a xlink:href="Iterator_8hpp.html" target="_top" xlink:title="Core/Mesh/DCEL/Iterator\l/Iterator.hpp">
<polygon fill="white" stroke="black" points="455,-529 455,-559 583,-559 583,-529 455,-529"/>
<text text-anchor="start" x="463" y="-547" font-family="Helvetica,sans-Serif" font-size="10.00">Core/Mesh/DCEL/Iterator</text>
<text text-anchor="middle" x="519" y="-536" font-family="Helvetica,sans-Serif" font-size="10.00">/Iterator.hpp</text>
</a>
</g>
</g>
<!-- Node2&#45;&gt;Node3 -->
<g id="edge2" class="edge"><title>Node2&#45;&gt;Node3</title>
<path fill="none" stroke="midnightblue" d="M644.676,-596.841C620.657,-586.933 588.376,-573.618 562.546,-562.963"/>
<polygon fill="midnightblue" stroke="midnightblue" points="563.571,-559.6 552.992,-559.022 560.902,-566.071 563.571,-559.6"/>
</g>
<!-- Node36 -->
<g id="node36" class="node"><title>Node36</title>
<g id="a_node36"><a xlink:href="VertexIterator_8inl.html" target="_top" xlink:title="Core/Mesh/DCEL/Iterator\l/Vertex/VertexIterator.inl">
<polygon fill="white" stroke="black" points="615,-529 615,-559 743,-559 743,-529 615,-529"/>
<text text-anchor="start" x="623" y="-547" font-family="Helvetica,sans-Serif" font-size="10.00">Core/Mesh/DCEL/Iterator</text>
<text text-anchor="middle" x="679" y="-536" font-family="Helvetica,sans-Serif" font-size="10.00">/Vertex/VertexIterator.inl</text>
</a>
</g>
</g>
<!-- Node2&#45;&gt;Node36 -->
<g id="edge53" class="edge"><title>Node2&#45;&gt;Node36</title>
<path fill="none" stroke="midnightblue" d="M673.322,-596.679C672.294,-588.722 672.005,-578.605 672.456,-569.436"/>
<polygon fill="midnightblue" stroke="midnightblue" points="675.959,-569.555 673.325,-559.293 668.984,-568.958 675.959,-569.555"/>
</g>
<!-- Node4 -->
<g id="node4" class="node"><title>Node4</title>
<g id="a_node4"><a xlink:href="Definition_8hpp.html" target="_top" xlink:title="Core/Mesh/DCEL/Definition.hpp">
<polygon fill="white" stroke="black" points="334,-236.5 334,-255.5 492,-255.5 492,-236.5 334,-236.5"/>
<text text-anchor="middle" x="413" y="-243.5" font-family="Helvetica,sans-Serif" font-size="10.00">Core/Mesh/DCEL/Definition.hpp</text>
</a>
</g>
</g>
<!-- Node3&#45;&gt;Node4 -->
<g id="edge3" class="edge"><title>Node3&#45;&gt;Node4</title>
<path fill="none" stroke="midnightblue" d="M490.684,-528.96C475.552,-520.184 457.685,-507.586 446,-492 424.333,-463.1 420,-451.121 420,-415 420,-415 420,-415 420,-357 420,-324.883 416.991,-287.598 414.919,-265.726"/>
<polygon fill="midnightblue" stroke="midnightblue" points="418.38,-265.154 413.915,-255.546 411.413,-265.841 418.38,-265.154"/>
</g>
<!-- Node6 -->
<g id="node6" class="node"><title>Node6</title>
<polygon fill="white" stroke="#bfbfbf" points="0,-174.5 0,-193.5 44,-193.5 44,-174.5 0,-174.5"/>
<text text-anchor="middle" x="22" y="-181.5" font-family="Helvetica,sans-Serif" font-size="10.00">vector</text>
</g>
<!-- Node3&#45;&gt;Node6 -->
<g id="edge6" class="edge"><title>Node3&#45;&gt;Node6</title>
<path fill="none" stroke="midnightblue" d="M454.805,-533.019C353.763,-515.476 169,-475.171 169,-415 169,-415 169,-415 169,-301 169,-270.323 89.108,-221.833 47.1188,-198.466"/>
<polygon fill="midnightblue" stroke="midnightblue" points="48.7425,-195.365 38.2932,-193.614 45.3701,-201.499 48.7425,-195.365"/>
</g>
<!-- Node7 -->
<g id="node7" class="node"><title>Node7</title>
<g id="a_node7"><a xlink:href="Iterator_8inl.html" target="_top" xlink:title="Core/Mesh/DCEL/Iterator\l/Iterator.inl">
<polygon fill="white" stroke="black" points="455,-461 455,-491 583,-491 583,-461 455,-461"/>
<text text-anchor="start" x="463" y="-479" font-family="Helvetica,sans-Serif" font-size="10.00">Core/Mesh/DCEL/Iterator</text>
<text text-anchor="middle" x="519" y="-468" font-family="Helvetica,sans-Serif" font-size="10.00">/Iterator.inl</text>
</a>
</g>
</g>
<!-- Node3&#45;&gt;Node7 -->
<g id="edge7" class="edge"><title>Node3&#45;&gt;Node7</title>
<path fill="none" stroke="midnightblue" d="M513.322,-528.679C512.294,-520.722 512.005,-510.605 512.456,-501.436"/>
<polygon fill="midnightblue" stroke="midnightblue" points="515.959,-501.555 513.325,-491.293 508.984,-500.958 515.959,-501.555"/>
</g>
<!-- Node5 -->
<g id="node5" class="node"><title>Node5</title>
<polygon fill="white" stroke="#bfbfbf" points="62,-174.5 62,-193.5 114,-193.5 114,-174.5 62,-174.5"/>
<text text-anchor="middle" x="88" y="-181.5" font-family="Helvetica,sans-Serif" font-size="10.00">memory</text>
</g>
<!-- Node4&#45;&gt;Node5 -->
<g id="edge4" class="edge"><title>Node4&#45;&gt;Node5</title>
<path fill="none" stroke="midnightblue" d="M333.997,-238.149C275.026,-231.74 192.91,-220.059 123,-200 120.351,-199.24 117.637,-198.33 114.948,-197.338"/>
<polygon fill="midnightblue" stroke="midnightblue" points="116.073,-194.018 105.49,-193.515 113.45,-200.508 116.073,-194.018"/>
</g>
<!-- Node4&#45;&gt;Node6 -->
<g id="edge5" class="edge"><title>Node4&#45;&gt;Node6</title>
<path fill="none" stroke="midnightblue" d="M333.898,-242.5C259.933,-238.444 147.075,-227.818 53,-200 50.8105,-199.353 48.5845,-198.565 46.3814,-197.692"/>
<polygon fill="midnightblue" stroke="midnightblue" points="47.612,-194.408 37.0559,-193.503 44.7438,-200.794 47.612,-194.408"/>
</g>
<!-- Node7&#45;&gt;Node3 -->
<g id="edge8" class="edge"><title>Node7&#45;&gt;Node3</title>
<path fill="none" stroke="midnightblue" d="M524.675,-491.293C525.704,-499.245 525.995,-509.361 525.545,-518.532"/>
<polygon fill="midnightblue" stroke="midnightblue" points="522.042,-518.417 524.678,-528.679 529.017,-519.013 522.042,-518.417"/>
</g>
<!-- Node8 -->
<g id="node8" class="node"><title>Node8</title>
<g id="a_node8"><a xlink:href="DCEL_2HalfEdge_8hpp.html" target="_top" xlink:title="Core/Mesh/DCEL/HalfEdge.hpp">
<polygon fill="white" stroke="black" points="793.5,-404.5 793.5,-423.5 950.5,-423.5 950.5,-404.5 793.5,-404.5"/>
<text text-anchor="middle" x="872" y="-411.5" font-family="Helvetica,sans-Serif" font-size="10.00">Core/Mesh/DCEL/HalfEdge.hpp</text>
</a>
</g>
</g>
<!-- Node7&#45;&gt;Node8 -->
<g id="edge9" class="edge"><title>Node7&#45;&gt;Node8</title>
<path fill="none" stroke="midnightblue" d="M583.335,-464.065C648.459,-452.996 748.368,-436.014 811.922,-425.212"/>
<polygon fill="midnightblue" stroke="midnightblue" points="812.527,-428.659 821.799,-423.533 811.354,-421.758 812.527,-428.659"/>
</g>
<!-- Node8&#45;&gt;Node4 -->
<g id="edge22" class="edge"><title>Node8&#45;&gt;Node4</title>
<path fill="none" stroke="midnightblue" d="M848.289,-404.425C772.192,-376.904 533.99,-290.757 446.05,-258.953"/>
<polygon fill="midnightblue" stroke="midnightblue" points="447.164,-255.634 436.57,-255.524 444.783,-262.216 447.164,-255.634"/>
</g>
<!-- Node9 -->
<g id="node9" class="node"><title>Node9</title>
<g id="a_node9"><a xlink:href="Index_8hpp.html" target="_top" xlink:title="Core/Index/Index.hpp">
<polygon fill="white" stroke="black" points="998,-174.5 998,-193.5 1108,-193.5 1108,-174.5 998,-174.5"/>
<text text-anchor="middle" x="1053" y="-181.5" font-family="Helvetica,sans-Serif" font-size="10.00">Core/Index/Index.hpp</text>
</a>
</g>
</g>
<!-- Node8&#45;&gt;Node9 -->
<g id="edge10" class="edge"><title>Node8&#45;&gt;Node9</title>
<path fill="none" stroke="midnightblue" d="M907.333,-404.349C928.874,-397.534 955.69,-386.095 974,-368 1021.75,-320.81 1042.5,-240.046 1049.75,-203.696"/>
<polygon fill="midnightblue" stroke="midnightblue" points="1053.24,-204.027 1051.64,-193.554 1046.36,-202.741 1053.24,-204.027"/>
</g>
<!-- Node12 -->
<g id="node12" class="node"><title>Node12</title>
<g id="a_node12"><a xlink:href="IndexedObject_8hpp.html" target="_top" xlink:title="Core/Index/IndexedObject.hpp">
<polygon fill="white" stroke="black" points="867.5,-236.5 867.5,-255.5 1016.5,-255.5 1016.5,-236.5 867.5,-236.5"/>
<text text-anchor="middle" x="942" y="-243.5" font-family="Helvetica,sans-Serif" font-size="10.00">Core/Index/IndexedObject.hpp</text>
</a>
</g>
</g>
<!-- Node8&#45;&gt;Node12 -->
<g id="edge13" class="edge"><title>Node8&#45;&gt;Node12</title>
<path fill="none" stroke="midnightblue" d="M904.986,-404.438C923.463,-397.769 944.952,-386.453 956,-368 975.296,-335.773 961.075,-290.015 950.559,-265.017"/>
<polygon fill="midnightblue" stroke="midnightblue" points="953.661,-263.379 946.387,-255.675 947.269,-266.234 953.661,-263.379"/>
</g>
<!-- Node20 -->
<g id="node20" class="node"><title>Node20</title>
<g id="a_node20"><a xlink:href="DCEL_2HalfEdge_8inl.html" target="_top" xlink:title="Core/Mesh/DCEL/HalfEdge.inl">
<polygon fill="white" stroke="black" points="796.5,-348.5 796.5,-367.5 947.5,-367.5 947.5,-348.5 796.5,-348.5"/>
<text text-anchor="middle" x="872" y="-355.5" font-family="Helvetica,sans-Serif" font-size="10.00">Core/Mesh/DCEL/HalfEdge.inl</text>
</a>
</g>
</g>
<!-- Node8&#45;&gt;Node20 -->
<g id="edge23" class="edge"><title>Node8&#45;&gt;Node20</title>
<path fill="none" stroke="midnightblue" d="M866.834,-404.083C865.324,-396.927 864.894,-386.635 865.542,-377.691"/>
<polygon fill="midnightblue" stroke="midnightblue" points="869.015,-378.126 866.869,-367.751 862.077,-377.2 869.015,-378.126"/>
</g>
<!-- Node10 -->
<g id="node10" class="node"><title>Node10</title>
<polygon fill="white" stroke="#bfbfbf" points="988,-112.5 988,-131.5 1028,-131.5 1028,-112.5 988,-112.5"/>
<text text-anchor="middle" x="1008" y="-119.5" font-family="Helvetica,sans-Serif" font-size="10.00">limits</text>
</g>
<!-- Node9&#45;&gt;Node10 -->
<g id="edge11" class="edge"><title>Node9&#45;&gt;Node10</title>
<path fill="none" stroke="midnightblue" d="M1046.55,-174.403C1039.8,-165.403 1029.03,-151.041 1020.59,-139.782"/>
<polygon fill="midnightblue" stroke="midnightblue" points="1023.24,-137.481 1014.44,-131.581 1017.64,-141.681 1023.24,-137.481"/>
</g>
<!-- Node11 -->
<g id="node11" class="node"><title>Node11</title>
<g id="a_node11"><a xlink:href="Index_8inl.html" target="_top" xlink:title="Core/Index/Index.inl">
<polygon fill="white" stroke="black" points="1046,-112.5 1046,-131.5 1150,-131.5 1150,-112.5 1046,-112.5"/>
<text text-anchor="middle" x="1098" y="-119.5" font-family="Helvetica,sans-Serif" font-size="10.00">Core/Index/Index.inl</text>
</a>
</g>
</g>
<!-- Node9&#45;&gt;Node11 -->
<g id="edge12" class="edge"><title>Node9&#45;&gt;Node11</title>
<path fill="none" stroke="midnightblue" d="M1059.45,-174.403C1066.2,-165.403 1076.97,-151.041 1085.41,-139.782"/>
<polygon fill="midnightblue" stroke="midnightblue" points="1088.36,-141.681 1091.56,-131.581 1082.76,-137.481 1088.36,-141.681"/>
</g>
<!-- Node12&#45;&gt;Node9 -->
<g id="edge14" class="edge"><title>Node12&#45;&gt;Node9</title>
<path fill="none" stroke="midnightblue" d="M957.904,-236.403C976.285,-226.468 1006.76,-209.997 1028.24,-198.381"/>
<polygon fill="midnightblue" stroke="midnightblue" points="1029.99,-201.415 1037.13,-193.581 1026.66,-195.257 1029.99,-201.415"/>
</g>
<!-- Node13 -->
<g id="node13" class="node"><title>Node13</title>
<g id="a_node13"><a xlink:href="RaCore_8hpp.html" target="_top" xlink:title="Core/RaCore.hpp">
<polygon fill="white" stroke="black" points="526.5,-112.5 526.5,-131.5 619.5,-131.5 619.5,-112.5 526.5,-112.5"/>
<text text-anchor="middle" x="573" y="-119.5" font-family="Helvetica,sans-Serif" font-size="10.00">Core/RaCore.hpp</text>
</a>
</g>
</g>
<!-- Node12&#45;&gt;Node13 -->
<g id="edge15" class="edge"><title>Node12&#45;&gt;Node13</title>
<path fill="none" stroke="midnightblue" d="M946.581,-236.341C954.201,-220.611 967.042,-187.197 950,-168 929.132,-144.493 730.053,-131.033 629.924,-125.699"/>
<polygon fill="midnightblue" stroke="midnightblue" points="629.847,-122.19 619.678,-125.163 629.481,-129.18 629.847,-122.19"/>
</g>
<!-- Node14 -->
<g id="node14" class="node"><title>Node14</title>
<g id="a_node14"><a xlink:href="CoreMacros_8hpp.html" target="_top" xlink:title="Core/CoreMacros.hpp">
<polygon fill="white" stroke="black" points="516.5,-56.5 516.5,-75.5 629.5,-75.5 629.5,-56.5 516.5,-56.5"/>
<text text-anchor="middle" x="573" y="-63.5" font-family="Helvetica,sans-Serif" font-size="10.00">Core/CoreMacros.hpp</text>
</a>
</g>
</g>
<!-- Node13&#45;&gt;Node14 -->
<g id="edge16" class="edge"><title>Node13&#45;&gt;Node14</title>
<path fill="none" stroke="midnightblue" d="M573,-112.083C573,-105.006 573,-94.8611 573,-85.9865"/>
<polygon fill="midnightblue" stroke="midnightblue" points="576.5,-85.751 573,-75.7511 569.5,-85.7511 576.5,-85.751"/>
</g>
<!-- Node15 -->
<g id="node15" class="node"><title>Node15</title>
<polygon fill="white" stroke="#bfbfbf" points="417.5,-0.5 417.5,-19.5 466.5,-19.5 466.5,-0.5 417.5,-0.5"/>
<text text-anchor="middle" x="442" y="-7.5" font-family="Helvetica,sans-Serif" font-size="10.00">cassert</text>
</g>
<!-- Node14&#45;&gt;Node15 -->
<g id="edge17" class="edge"><title>Node14&#45;&gt;Node15</title>
<path fill="none" stroke="midnightblue" d="M552.243,-56.4435C530.684,-47.5566 496.737,-33.5632 472.206,-23.4514"/>
<polygon fill="midnightblue" stroke="midnightblue" points="473.239,-20.0917 462.66,-19.5164 470.572,-26.5634 473.239,-20.0917"/>
</g>
<!-- Node16 -->
<g id="node16" class="node"><title>Node16</title>
<polygon fill="white" stroke="#bfbfbf" points="484.5,-0.5 484.5,-19.5 527.5,-19.5 527.5,-0.5 484.5,-0.5"/>
<text text-anchor="middle" x="506" y="-7.5" font-family="Helvetica,sans-Serif" font-size="10.00">cstdio</text>
</g>
<!-- Node14&#45;&gt;Node16 -->
<g id="edge18" class="edge"><title>Node14&#45;&gt;Node16</title>
<path fill="none" stroke="midnightblue" d="M562.235,-56.324C552.234,-48.2631 537.113,-36.0765 525.07,-26.3695"/>
<polygon fill="midnightblue" stroke="midnightblue" points="526.943,-23.3841 516.961,-19.8339 522.55,-28.8343 526.943,-23.3841"/>
</g>
<!-- Node17 -->
<g id="node17" class="node"><title>Node17</title>
<polygon fill="white" stroke="#bfbfbf" points="546,-0.5 546,-19.5 600,-19.5 600,-0.5 546,-0.5"/>
<text text-anchor="middle" x="573" y="-7.5" font-family="Helvetica,sans-Serif" font-size="10.00">iostream</text>
</g>
<!-- Node14&#45;&gt;Node17 -->
<g id="edge19" class="edge"><title>Node14&#45;&gt;Node17</title>
<path fill="none" stroke="midnightblue" d="M573,-56.083C573,-49.0059 573,-38.8611 573,-29.9865"/>
<polygon fill="midnightblue" stroke="midnightblue" points="576.5,-29.751 573,-19.7511 569.5,-29.7511 576.5,-29.751"/>
</g>
<!-- Node18 -->
<g id="node18" class="node"><title>Node18</title>
<polygon fill="white" stroke="#bfbfbf" points="618,-0.5 618,-19.5 670,-19.5 670,-0.5 618,-0.5"/>
<text text-anchor="middle" x="644" y="-7.5" font-family="Helvetica,sans-Serif" font-size="10.00">sstream</text>
</g>
<!-- Node14&#45;&gt;Node18 -->
<g id="edge20" class="edge"><title>Node14&#45;&gt;Node18</title>
<path fill="none" stroke="midnightblue" d="M584.407,-56.324C595.109,-48.1849 611.341,-35.8395 624.163,-26.0874"/>
<polygon fill="midnightblue" stroke="midnightblue" points="626.544,-28.6734 632.385,-19.8339 622.307,-23.1018 626.544,-28.6734"/>
</g>
<!-- Node19 -->
<g id="node19" class="node"><title>Node19</title>
<polygon fill="white" stroke="#bfbfbf" points="688,-0.5 688,-19.5 732,-19.5 732,-0.5 688,-0.5"/>
<text text-anchor="middle" x="710" y="-7.5" font-family="Helvetica,sans-Serif" font-size="10.00">thread</text>
</g>
<!-- Node14&#45;&gt;Node19 -->
<g id="edge21" class="edge"><title>Node14&#45;&gt;Node19</title>
<path fill="none" stroke="midnightblue" d="M594.708,-56.4435C617.355,-47.5171 653.072,-33.4387 678.752,-23.3168"/>
<polygon fill="midnightblue" stroke="midnightblue" points="680.374,-26.4397 688.394,-19.5164 677.807,-19.9273 680.374,-26.4397"/>
</g>
<!-- Node20&#45;&gt;Node8 -->
<g id="edge24" class="edge"><title>Node20&#45;&gt;Node8</title>
<path fill="none" stroke="midnightblue" d="M877.131,-367.751C878.657,-374.858 879.104,-385.136 878.472,-394.101"/>
<polygon fill="midnightblue" stroke="midnightblue" points="874.993,-393.713 877.166,-404.083 881.934,-394.622 874.993,-393.713"/>
</g>
<!-- Node21 -->
<g id="node21" class="node"><title>Node21</title>
<g id="a_node21"><a xlink:href="Face_8hpp.html" target="_top" xlink:title="Core/Mesh/DCEL/Face.hpp">
<polygon fill="white" stroke="black" points="1042,-292.5 1042,-311.5 1180,-311.5 1180,-292.5 1042,-292.5"/>
<text text-anchor="middle" x="1111" y="-299.5" font-family="Helvetica,sans-Serif" font-size="10.00">Core/Mesh/DCEL/Face.hpp</text>
</a>
</g>
</g>
<!-- Node20&#45;&gt;Node21 -->
<g id="edge25" class="edge"><title>Node20&#45;&gt;Node21</title>
<path fill="none" stroke="midnightblue" d="M909.87,-348.444C951.476,-339.043 1018.37,-323.929 1063.47,-313.739"/>
<polygon fill="midnightblue" stroke="midnightblue" points="1064.32,-317.134 1073.31,-311.516 1062.78,-310.306 1064.32,-317.134"/>
</g>
<!-- Node23 -->
<g id="node23" class="node"><title>Node23</title>
<g id="a_node23"><a xlink:href="Vertex_8hpp.html" target="_top" xlink:title="Core/Mesh/DCEL/Vertex.hpp">
<polygon fill="white" stroke="black" points="606.5,-292.5 606.5,-311.5 751.5,-311.5 751.5,-292.5 606.5,-292.5"/>
<text text-anchor="middle" x="679" y="-299.5" font-family="Helvetica,sans-Serif" font-size="10.00">Core/Mesh/DCEL/Vertex.hpp</text>
</a>
</g>
</g>
<!-- Node20&#45;&gt;Node23 -->
<g id="edge32" class="edge"><title>Node20&#45;&gt;Node23</title>
<path fill="none" stroke="midnightblue" d="M841.419,-348.444C808.385,-339.201 755.612,-324.436 719.234,-314.257"/>
<polygon fill="midnightblue" stroke="midnightblue" points="720.012,-310.84 709.438,-311.516 718.125,-317.582 720.012,-310.84"/>
</g>
<!-- Node21&#45;&gt;Node4 -->
<g id="edge28" class="edge"><title>Node21&#45;&gt;Node4</title>
<path fill="none" stroke="midnightblue" d="M1041.88,-296.54C930.616,-289.22 704.624,-273.769 502.366,-256.098"/>
<polygon fill="midnightblue" stroke="midnightblue" points="502.412,-252.588 492.144,-255.201 501.8,-259.562 502.412,-252.588"/>
</g>
<!-- Node21&#45;&gt;Node9 -->
<g id="edge26" class="edge"><title>Node21&#45;&gt;Node9</title>
<path fill="none" stroke="midnightblue" d="M1106.64,-292.281C1097.15,-273.294 1074.45,-227.892 1061.83,-202.662"/>
<polygon fill="midnightblue" stroke="midnightblue" points="1064.86,-200.884 1057.25,-193.505 1058.59,-204.014 1064.86,-200.884"/>
</g>
<!-- Node21&#45;&gt;Node12 -->
<g id="edge27" class="edge"><title>Node21&#45;&gt;Node12</title>
<path fill="none" stroke="midnightblue" d="M1084.22,-292.444C1055.67,-283.32 1010.27,-268.813 978.463,-258.651"/>
<polygon fill="midnightblue" stroke="midnightblue" points="979.244,-255.226 968.653,-255.516 977.114,-261.894 979.244,-255.226"/>
</g>
<!-- Node22 -->
<g id="node22" class="node"><title>Node22</title>
<g id="a_node22"><a xlink:href="Face_8inl.html" target="_top" xlink:title="Core/Mesh/DCEL/Face.inl">
<polygon fill="white" stroke="black" points="1110,-236.5 1110,-255.5 1242,-255.5 1242,-236.5 1110,-236.5"/>
<text text-anchor="middle" x="1176" y="-243.5" font-family="Helvetica,sans-Serif" font-size="10.00">Core/Mesh/DCEL/Face.inl</text>
</a>
</g>
</g>
<!-- Node21&#45;&gt;Node22 -->
<g id="edge29" class="edge"><title>Node21&#45;&gt;Node22</title>
<path fill="none" stroke="midnightblue" d="M1116.57,-292.083C1124.76,-283.826 1139.42,-271.394 1152.25,-261.675"/>
<polygon fill="midnightblue" stroke="midnightblue" points="1154.34,-264.486 1160.34,-255.751 1150.2,-258.841 1154.34,-264.486"/>
</g>
<!-- Node22&#45;&gt;Node8 -->
<g id="edge31" class="edge"><title>Node22&#45;&gt;Node8</title>
<path fill="none" stroke="midnightblue" d="M1181.67,-255.875C1189.45,-269.278 1201.14,-294.929 1189,-312 1158.97,-354.24 1015.27,-386.891 932.02,-402.64"/>
<polygon fill="midnightblue" stroke="midnightblue" points="931.367,-399.201 922.179,-404.476 932.651,-406.082 931.367,-399.201"/>
</g>
<!-- Node22&#45;&gt;Node21 -->
<g id="edge30" class="edge"><title>Node22&#45;&gt;Node21</title>
<path fill="none" stroke="midnightblue" d="M1170.52,-255.834C1162.32,-264.106 1147.56,-276.62 1134.67,-286.38"/>
<polygon fill="midnightblue" stroke="midnightblue" points="1132.56,-283.591 1126.56,-292.324 1136.69,-289.238 1132.56,-283.591"/>
</g>
<!-- Node23&#45;&gt;Node4 -->
<g id="edge49" class="edge"><title>Node23&#45;&gt;Node4</title>
<path fill="none" stroke="midnightblue" d="M636.852,-292.444C590.254,-282.984 515.156,-267.738 464.955,-257.547"/>
<polygon fill="midnightblue" stroke="midnightblue" points="465.448,-254.076 454.951,-255.516 464.055,-260.936 465.448,-254.076"/>
</g>
<!-- Node23&#45;&gt;Node9 -->
<g id="edge33" class="edge"><title>Node23&#45;&gt;Node9</title>
<path fill="none" stroke="midnightblue" d="M679.214,-292.257C680.071,-278.064 683.966,-250.174 701,-236 743.976,-200.239 894.671,-208.029 950,-200 962.277,-198.219 975.376,-196.314 987.973,-194.48"/>
<polygon fill="midnightblue" stroke="midnightblue" points="988.552,-197.933 997.944,-193.029 987.544,-191.006 988.552,-197.933"/>
</g>
<!-- Node23&#45;&gt;Node12 -->
<g id="edge34" class="edge"><title>Node23&#45;&gt;Node12</title>
<path fill="none" stroke="midnightblue" d="M720.673,-292.444C766.745,-282.984 840.996,-267.738 890.631,-257.547"/>
<polygon fill="midnightblue" stroke="midnightblue" points="891.43,-260.956 900.522,-255.516 890.022,-254.099 891.43,-260.956"/>
</g>
<!-- Node24 -->
<g id="node24" class="node"><title>Node24</title>
<g id="a_node24"><a xlink:href="LinearAlgebra_8hpp.html" target="_top" xlink:title="Core/Math/LinearAlgebra.hpp">
<polygon fill="white" stroke="black" points="510.5,-236.5 510.5,-255.5 653.5,-255.5 653.5,-236.5 510.5,-236.5"/>
<text text-anchor="middle" x="582" y="-243.5" font-family="Helvetica,sans-Serif" font-size="10.00">Core/Math/LinearAlgebra.hpp</text>
</a>
</g>
</g>
<!-- Node23&#45;&gt;Node24 -->
<g id="edge35" class="edge"><title>Node23&#45;&gt;Node24</title>
<path fill="none" stroke="midnightblue" d="M663.415,-292.324C648.001,-283.743 624.188,-270.486 606.29,-260.522"/>
<polygon fill="midnightblue" stroke="midnightblue" points="607.986,-257.461 597.546,-255.655 604.581,-263.577 607.986,-257.461"/>
</g>
<!-- Node35 -->
<g id="node35" class="node"><title>Node35</title>
<g id="a_node35"><a xlink:href="Vertex_8inl.html" target="_top" xlink:title="Core/Mesh/DCEL/Vertex.inl">
<polygon fill="white" stroke="black" points="710.5,-236.5 710.5,-255.5 849.5,-255.5 849.5,-236.5 710.5,-236.5"/>
<text text-anchor="middle" x="780" y="-243.5" font-family="Helvetica,sans-Serif" font-size="10.00">Core/Mesh/DCEL/Vertex.inl</text>
</a>
</g>
</g>
<!-- Node23&#45;&gt;Node35 -->
<g id="edge50" class="edge"><title>Node23&#45;&gt;Node35</title>
<path fill="none" stroke="midnightblue" d="M690.113,-292.324C704.5,-283.625 729.502,-270.12 749.59,-260.113"/>
<polygon fill="midnightblue" stroke="midnightblue" points="751.258,-263.193 758.703,-255.655 748.182,-256.905 751.258,-263.193"/>
</g>
<!-- Node24&#45;&gt;Node13 -->
<g id="edge36" class="edge"><title>Node24&#45;&gt;Node13</title>
<path fill="none" stroke="midnightblue" d="M581.353,-236.226C579.9,-216.53 576.352,-168.437 574.38,-141.7"/>
<polygon fill="midnightblue" stroke="midnightblue" points="577.868,-141.41 573.641,-131.694 570.887,-141.925 577.868,-141.41"/>
</g>
<!-- Node25 -->
<g id="node25" class="node"><title>Node25</title>
<polygon fill="white" stroke="#bfbfbf" points="601.5,-174.5 601.5,-193.5 666.5,-193.5 666.5,-174.5 601.5,-174.5"/>
<text text-anchor="middle" x="634" y="-181.5" font-family="Helvetica,sans-Serif" font-size="10.00">Eigen/Core</text>
</g>
<!-- Node24&#45;&gt;Node25 -->
<g id="edge37" class="edge"><title>Node24&#45;&gt;Node25</title>
<path fill="none" stroke="midnightblue" d="M589.45,-236.403C597.328,-227.314 609.945,-212.756 619.744,-201.449"/>
<polygon fill="midnightblue" stroke="midnightblue" points="622.659,-203.43 626.563,-193.581 617.369,-198.845 622.659,-203.43"/>
</g>
<!-- Node26 -->
<g id="node26" class="node"><title>Node26</title>
<polygon fill="white" stroke="#bfbfbf" points="684.5,-174.5 684.5,-193.5 771.5,-193.5 771.5,-174.5 684.5,-174.5"/>
<text text-anchor="middle" x="728" y="-181.5" font-family="Helvetica,sans-Serif" font-size="10.00">Eigen/Geometry</text>
</g>
<!-- Node24&#45;&gt;Node26 -->
<g id="edge38" class="edge"><title>Node24&#45;&gt;Node26</title>
<path fill="none" stroke="midnightblue" d="M602.918,-236.403C627.746,-226.2 669.343,-209.105 697.694,-197.454"/>
<polygon fill="midnightblue" stroke="midnightblue" points="699.202,-200.619 707.121,-193.581 696.541,-194.144 699.202,-200.619"/>
</g>
<!-- Node27 -->
<g id="node27" class="node"><title>Node27</title>
<polygon fill="white" stroke="#bfbfbf" points="789.5,-174.5 789.5,-193.5 864.5,-193.5 864.5,-174.5 789.5,-174.5"/>
<text text-anchor="middle" x="827" y="-181.5" font-family="Helvetica,sans-Serif" font-size="10.00">Eigen/Sparse</text>
</g>
<!-- Node24&#45;&gt;Node27 -->
<g id="edge39" class="edge"><title>Node24&#45;&gt;Node27</title>
<path fill="none" stroke="midnightblue" d="M624.36,-236.468C664.628,-228.099 726.774,-214.513 780,-200 783.796,-198.965 787.743,-197.818 791.665,-196.634"/>
<polygon fill="midnightblue" stroke="midnightblue" points="792.75,-199.962 801.26,-193.652 790.672,-193.277 792.75,-199.962"/>
</g>
<!-- Node28 -->
<g id="node28" class="node"><title>Node28</title>
<polygon fill="white" stroke="#bfbfbf" points="882.5,-174.5 882.5,-193.5 941.5,-193.5 941.5,-174.5 882.5,-174.5"/>
<text text-anchor="middle" x="912" y="-181.5" font-family="Helvetica,sans-Serif" font-size="10.00">functional</text>
</g>
<!-- Node24&#45;&gt;Node28 -->
<g id="edge40" class="edge"><title>Node24&#45;&gt;Node28</title>
<path fill="none" stroke="midnightblue" d="M647.778,-236.492C720.15,-226.836 831.69,-211.003 873,-200 876.154,-199.16 879.405,-198.152 882.62,-197.06"/>
<polygon fill="midnightblue" stroke="midnightblue" points="883.838,-200.342 892.03,-193.622 881.436,-193.767 883.838,-200.342"/>
</g>
<!-- Node29 -->
<g id="node29" class="node"><title>Node29</title>
<polygon fill="white" stroke="#bfbfbf" points="256.5,-169 256.5,-199 389.5,-199 389.5,-169 256.5,-169"/>
<text text-anchor="start" x="264.5" y="-187" font-family="Helvetica,sans-Serif" font-size="10.00">unsupported/Eigen/Aligned</text>
<text text-anchor="middle" x="323" y="-176" font-family="Helvetica,sans-Serif" font-size="10.00">Vector3</text>
</g>
<!-- Node24&#45;&gt;Node29 -->
<g id="edge41" class="edge"><title>Node24&#45;&gt;Node29</title>
<path fill="none" stroke="midnightblue" d="M545.167,-236.467C505.839,-227.356 442.566,-212.699 393.585,-201.352"/>
<polygon fill="midnightblue" stroke="midnightblue" points="394.209,-197.904 383.677,-199.057 392.629,-204.723 394.209,-197.904"/>
</g>
<!-- Node30 -->
<g id="node30" class="node"><title>Node30</title>
<g id="a_node30"><a xlink:href="Math_8hpp.html" target="_top" xlink:title="Core/Math/Math.hpp">
<polygon fill="white" stroke="black" points="132,-174.5 132,-193.5 238,-193.5 238,-174.5 132,-174.5"/>
<text text-anchor="middle" x="185" y="-181.5" font-family="Helvetica,sans-Serif" font-size="10.00">Core/Math/Math.hpp</text>
</a>
</g>
</g>
<!-- Node24&#45;&gt;Node30 -->
<g id="edge42" class="edge"><title>Node24&#45;&gt;Node30</title>
<path fill="none" stroke="midnightblue" d="M512.039,-236.471C429.218,-226.222 296.313,-209.251 247,-200 240.643,-198.807 233.959,-197.378 227.429,-195.882"/>
<polygon fill="midnightblue" stroke="midnightblue" points="227.899,-192.397 217.362,-193.501 226.288,-199.209 227.899,-192.397"/>
</g>
<!-- Node34 -->
<g id="node34" class="node"><title>Node34</title>
<g id="a_node34"><a xlink:href="LinearAlgebra_8inl.html" target="_top" xlink:title="Core/Math/LinearAlgebra.inl">
<polygon fill="white" stroke="black" points="407.5,-174.5 407.5,-193.5 544.5,-193.5 544.5,-174.5 407.5,-174.5"/>
<text text-anchor="middle" x="476" y="-181.5" font-family="Helvetica,sans-Serif" font-size="10.00">Core/Math/LinearAlgebra.inl</text>
</a>
</g>
</g>
<!-- Node24&#45;&gt;Node34 -->
<g id="edge48" class="edge"><title>Node24&#45;&gt;Node34</title>
<path fill="none" stroke="midnightblue" d="M566.813,-236.403C549.338,-226.512 520.421,-210.144 499.917,-198.538"/>
<polygon fill="midnightblue" stroke="midnightblue" points="501.586,-195.461 491.159,-193.581 498.138,-201.553 501.586,-195.461"/>
</g>
<!-- Node30&#45;&gt;Node13 -->
<g id="edge43" class="edge"><title>Node30&#45;&gt;Node13</title>
<path fill="none" stroke="midnightblue" d="M217.687,-174.443C227.107,-172.154 237.425,-169.814 247,-168 340.78,-150.229 450.995,-136.488 516.256,-129.086"/>
<polygon fill="midnightblue" stroke="midnightblue" points="516.788,-132.548 526.334,-127.952 516.006,-125.592 516.788,-132.548"/>
</g>
<!-- Node31 -->
<g id="node31" class="node"><title>Node31</title>
<polygon fill="white" stroke="#bfbfbf" points="44,-112.5 44,-131.5 100,-131.5 100,-112.5 44,-112.5"/>
<text text-anchor="middle" x="72" y="-119.5" font-family="Helvetica,sans-Serif" font-size="10.00">algorithm</text>
</g>
<!-- Node30&#45;&gt;Node31 -->
<g id="edge44" class="edge"><title>Node30&#45;&gt;Node31</title>
<path fill="none" stroke="midnightblue" d="M168.81,-174.403C150.098,-164.468 119.077,-147.997 97.2013,-136.381"/>
<polygon fill="midnightblue" stroke="midnightblue" points="98.6337,-133.179 88.1601,-131.581 95.3509,-139.362 98.6337,-133.179"/>
</g>
<!-- Node32 -->
<g id="node32" class="node"><title>Node32</title>
<polygon fill="white" stroke="#bfbfbf" points="118,-112.5 118,-131.5 162,-131.5 162,-112.5 118,-112.5"/>
<text text-anchor="middle" x="140" y="-119.5" font-family="Helvetica,sans-Serif" font-size="10.00">cmath</text>
</g>
<!-- Node30&#45;&gt;Node32 -->
<g id="edge45" class="edge"><title>Node30&#45;&gt;Node32</title>
<path fill="none" stroke="midnightblue" d="M178.553,-174.403C171.803,-165.403 161.031,-151.041 152.587,-139.782"/>
<polygon fill="midnightblue" stroke="midnightblue" points="155.235,-137.481 146.435,-131.581 149.635,-141.681 155.235,-137.481"/>
</g>
<!-- Node33 -->
<g id="node33" class="node"><title>Node33</title>
<g id="a_node33"><a xlink:href="Math_8inl.html" target="_top" xlink:title="Core/Math/Math.inl">
<polygon fill="white" stroke="black" points="180,-112.5 180,-131.5 280,-131.5 280,-112.5 180,-112.5"/>
<text text-anchor="middle" x="230" y="-119.5" font-family="Helvetica,sans-Serif" font-size="10.00">Core/Math/Math.inl</text>
</a>
</g>
</g>
<!-- Node30&#45;&gt;Node33 -->
<g id="edge46" class="edge"><title>Node30&#45;&gt;Node33</title>
<path fill="none" stroke="midnightblue" d="M186.547,-174.403C191.445,-165.225 202.125,-150.47 211.85,-139.117"/>
<polygon fill="midnightblue" stroke="midnightblue" points="214.555,-141.345 218.667,-131.581 209.364,-136.649 214.555,-141.345"/>
</g>
<!-- Node33&#45;&gt;Node30 -->
<g id="edge47" class="edge"><title>Node33&#45;&gt;Node30</title>
<path fill="none" stroke="midnightblue" d="M228.462,-131.581C223.57,-140.752 212.893,-155.506 203.166,-166.863"/>
<polygon fill="midnightblue" stroke="midnightblue" points="200.459,-164.639 196.348,-174.403 205.651,-169.334 200.459,-164.639"/>
</g>
<!-- Node35&#45;&gt;Node8 -->
<g id="edge52" class="edge"><title>Node35&#45;&gt;Node8</title>
<path fill="none" stroke="midnightblue" d="M777.808,-255.79C773.041,-277.033 763.919,-332.057 787,-368 796.88,-383.386 813.861,-393.843 830.06,-400.772"/>
<polygon fill="midnightblue" stroke="midnightblue" points="828.86,-404.061 839.448,-404.455 831.417,-397.545 828.86,-404.061"/>
</g>
<!-- Node35&#45;&gt;Node23 -->
<g id="edge51" class="edge"><title>Node35&#45;&gt;Node23</title>
<path fill="none" stroke="midnightblue" d="M769.151,-255.516C754.773,-264.23 729.5,-277.884 709.265,-287.959"/>
<polygon fill="midnightblue" stroke="midnightblue" points="707.539,-284.907 700.093,-292.444 710.614,-291.196 707.539,-284.907"/>
</g>
<!-- Node36&#45;&gt;Node2 -->
<g id="edge54" class="edge"><title>Node36&#45;&gt;Node2</title>
<path fill="none" stroke="midnightblue" d="M684.675,-559.293C685.704,-567.245 685.995,-577.361 685.545,-586.532"/>
<polygon fill="midnightblue" stroke="midnightblue" points="682.042,-586.417 684.678,-596.679 689.017,-587.013 682.042,-586.417"/>
</g>
<!-- Node36&#45;&gt;Node23 -->
<g id="edge55" class="edge"><title>Node36&#45;&gt;Node23</title>
<path fill="none" stroke="midnightblue" d="M679,-528.706C679,-487.401 679,-367.888 679,-321.611"/>
<polygon fill="midnightblue" stroke="midnightblue" points="682.5,-321.515 679,-311.515 675.5,-321.515 682.5,-321.515"/>
</g>
<!-- Node37&#45;&gt;Node1 -->
<g id="edge57" class="edge"><title>Node37&#45;&gt;Node1</title>
<path fill="none" stroke="midnightblue" d="M835.563,-491.004C839.178,-523.861 839.718,-606.728 837.182,-654.524"/>
<polygon fill="midnightblue" stroke="midnightblue" points="833.675,-654.534 836.555,-664.73 840.662,-654.964 833.675,-654.534"/>
</g>
<!-- Node37&#45;&gt;Node8 -->
<g id="edge59" class="edge"><title>Node37&#45;&gt;Node8</title>
<path fill="none" stroke="midnightblue" d="M841.479,-460.781C847.172,-452.242 854.454,-441.318 860.478,-432.283"/>
<polygon fill="midnightblue" stroke="midnightblue" points="863.545,-433.993 866.18,-423.731 857.72,-430.11 863.545,-433.993"/>
</g>
<!-- Node37&#45;&gt;Node21 -->
<g id="edge58" class="edge"><title>Node37&#45;&gt;Node21</title>
<path fill="none" stroke="midnightblue" d="M875.786,-460.974C900.965,-452.048 932.715,-439.298 959,-424 1012.89,-392.633 1068.22,-343.466 1094.8,-318.566"/>
<polygon fill="midnightblue" stroke="midnightblue" points="1097.24,-321.08 1102.09,-311.665 1092.43,-315.996 1097.24,-321.08"/>
</g>
<!-- Node37&#45;&gt;Node23 -->
<g id="edge60" class="edge"><title>Node37&#45;&gt;Node23</title>
<path fill="none" stroke="midnightblue" d="M818.396,-460.854C808.699,-450.698 795.414,-436.629 784,-424 750.761,-387.223 712.91,-343.005 692.98,-319.533"/>
<polygon fill="midnightblue" stroke="midnightblue" points="695.402,-316.978 686.266,-311.612 690.062,-321.504 695.402,-316.978"/>
</g>
</g>
</svg>
