<?xml version="1.0" encoding="UTF-8" standalone="no"?>
<!DOCTYPE svg PUBLIC "-//W3C//DTD SVG 1.1//EN"
 "http://www.w3.org/Graphics/SVG/1.1/DTD/svg11.dtd">
<!-- Generated by graphviz version 2.36.0 (20140111.2315)
 -->
<!-- Title: /home/travis/build/STORM&#45;IRIT/Radium&#45;Engine/src/Core/Mesh/DCEL/Iterator/Vertex/VFIterator.inl Pages: 1 -->
<svg width="1251pt" height="794pt"
 viewBox="0.00 0.00 1251.00 794.00" xmlns="http://www.w3.org/2000/svg" xmlns:xlink="http://www.w3.org/1999/xlink">
<g id="graph0" class="graph" transform="scale(1 1) rotate(0) translate(4 790)">
<title>/home/travis/build/STORM&#45;IRIT/Radium&#45;Engine/src/Core/Mesh/DCEL/Iterator/Vertex/VFIterator.inl</title>
<polygon fill="white" stroke="none" points="-4,4 -4,-790 1247,-790 1247,4 -4,4"/>
<!-- Node1 -->
<g id="node1" class="node"><title>Node1</title>
<polygon fill="#bfbfbf" stroke="black" points="670,-733 670,-785 818,-785 818,-733 670,-733"/>
<text text-anchor="start" x="678" y="-773" font-family="Helvetica,sans-Serif" font-size="10.00">/home/travis/build</text>
<text text-anchor="start" x="678" y="-762" font-family="Helvetica,sans-Serif" font-size="10.00">/STORM&#45;IRIT/Radium&#45;Engine</text>
<text text-anchor="start" x="678" y="-751" font-family="Helvetica,sans-Serif" font-size="10.00">/src/Core/Mesh/DCEL/Iterator</text>
<text text-anchor="middle" x="744" y="-740" font-family="Helvetica,sans-Serif" font-size="10.00">/Vertex/VFIterator.inl</text>
</g>
<!-- Node2 -->
<g id="node2" class="node"><title>Node2</title>
<g id="a_node2"><a xlink:href="VFIterator_8hpp.html" target="_top" xlink:title="Core/Mesh/DCEL/Iterator\l/Vertex/VFIterator.hpp">
<polygon fill="white" stroke="black" points="588,-665 588,-695 716,-695 716,-665 588,-665"/>
<text text-anchor="start" x="596" y="-683" font-family="Helvetica,sans-Serif" font-size="10.00">Core/Mesh/DCEL/Iterator</text>
<text text-anchor="middle" x="652" y="-672" font-family="Helvetica,sans-Serif" font-size="10.00">/Vertex/VFIterator.hpp</text>
</a>
</g>
</g>
<!-- Node1&#45;&gt;Node2 -->
<g id="edge1" class="edge"><title>Node1&#45;&gt;Node2</title>
<path fill="none" stroke="midnightblue" d="M707.497,-732.787C695.061,-722.861 681.691,-711.592 671.122,-702.106"/>
<polygon fill="midnightblue" stroke="midnightblue" points="673.383,-699.431 663.647,-695.252 668.652,-704.59 673.383,-699.431"/>
</g>
<!-- Node9 -->
<g id="node9" class="node"><title>Node9</title>
<g id="a_node9"><a xlink:href="DCEL_2HalfEdge_8hpp.html" target="_top" xlink:title="Core/Mesh/DCEL/HalfEdge.hpp">
<polygon fill="white" stroke="black" points="807.5,-404.5 807.5,-423.5 964.5,-423.5 964.5,-404.5 807.5,-404.5"/>
<text text-anchor="middle" x="886" y="-411.5" font-family="Helvetica,sans-Serif" font-size="10.00">Core/Mesh/DCEL/HalfEdge.hpp</text>
</a>
</g>
</g>
<!-- Node1&#45;&gt;Node9 -->
<g id="edge59" class="edge"><title>Node1&#45;&gt;Node9</title>
<path fill="none" stroke="midnightblue" d="M771.983,-732.623C798.403,-705.755 834,-660.702 834,-613 834,-613 834,-613 834,-543 834,-500.626 858.763,-455.78 874.112,-432.053"/>
<polygon fill="midnightblue" stroke="midnightblue" points="877.176,-433.767 879.831,-423.51 871.359,-429.873 877.176,-433.767"/>
</g>
<!-- Node22 -->
<g id="node22" class="node"><title>Node22</title>
<g id="a_node22"><a xlink:href="Face_8hpp.html" target="_top" xlink:title="Core/Mesh/DCEL/Face.hpp">
<polygon fill="white" stroke="black" points="1056,-292.5 1056,-311.5 1194,-311.5 1194,-292.5 1056,-292.5"/>
<text text-anchor="middle" x="1125" y="-299.5" font-family="Helvetica,sans-Serif" font-size="10.00">Core/Mesh/DCEL/Face.hpp</text>
</a>
</g>
</g>
<!-- Node1&#45;&gt;Node22 -->
<g id="edge58" class="edge"><title>Node1&#45;&gt;Node22</title>
<path fill="none" stroke="midnightblue" d="M818.22,-743.073C921.493,-720.136 1096,-672.566 1096,-613 1096,-613 1096,-613 1096,-413 1096,-379.716 1108.57,-342.584 1117.16,-321.094"/>
<polygon fill="midnightblue" stroke="midnightblue" points="1120.48,-322.213 1121.09,-311.635 1114.02,-319.525 1120.48,-322.213"/>
</g>
<!-- Node24 -->
<g id="node24" class="node"><title>Node24</title>
<g id="a_node24"><a xlink:href="Vertex_8hpp.html" target="_top" xlink:title="Core/Mesh/DCEL/Vertex.hpp">
<polygon fill="white" stroke="black" points="608.5,-292.5 608.5,-311.5 753.5,-311.5 753.5,-292.5 608.5,-292.5"/>
<text text-anchor="middle" x="681" y="-299.5" font-family="Helvetica,sans-Serif" font-size="10.00">Core/Mesh/DCEL/Vertex.hpp</text>
</a>
</g>
</g>
<!-- Node1&#45;&gt;Node24 -->
<g id="edge60" class="edge"><title>Node1&#45;&gt;Node24</title>
<path fill="none" stroke="midnightblue" d="M744,-732.853C744,-703.936 744,-655.04 744,-613 744,-613 744,-613 744,-413 744,-375.475 716.052,-339.139 697.385,-319.055"/>
<polygon fill="midnightblue" stroke="midnightblue" points="699.762,-316.477 690.296,-311.718 694.728,-321.341 699.762,-316.477"/>
</g>
<!-- Node2&#45;&gt;Node1 -->
<g id="edge57" class="edge"><title>Node2&#45;&gt;Node1</title>
<path fill="none" stroke="midnightblue" d="M674.116,-695.031C685.698,-703.746 699.959,-715.317 712.618,-726.161"/>
<polygon fill="midnightblue" stroke="midnightblue" points="710.408,-728.877 720.255,-732.787 714.996,-723.59 710.408,-728.877"/>
</g>
<!-- Node3 -->
<g id="node3" class="node"><title>Node3</title>
<g id="a_node3"><a xlink:href="VertexIterator_8hpp.html" target="_top" xlink:title="Core/Mesh/DCEL/Iterator\l/Vertex/VertexIterator.hpp">
<polygon fill="white" stroke="black" points="586.5,-597 586.5,-627 715.5,-627 715.5,-597 586.5,-597"/>
<text text-anchor="start" x="594.5" y="-615" font-family="Helvetica,sans-Serif" font-size="10.00">Core/Mesh/DCEL/Iterator</text>
<text text-anchor="middle" x="651" y="-604" font-family="Helvetica,sans-Serif" font-size="10.00">/Vertex/VertexIterator.hpp</text>
</a>
</g>
</g>
<!-- Node2&#45;&gt;Node3 -->
<g id="edge2" class="edge"><title>Node2&#45;&gt;Node3</title>
<path fill="none" stroke="midnightblue" d="M651.783,-664.679C651.662,-656.722 651.509,-646.605 651.37,-637.436"/>
<polygon fill="midnightblue" stroke="midnightblue" points="654.868,-637.239 651.217,-627.293 647.869,-637.345 654.868,-637.239"/>
</g>
<!-- Node4 -->
<g id="node4" class="node"><title>Node4</title>
<g id="a_node4"><a xlink:href="Iterator_8hpp.html" target="_top" xlink:title="Core/Mesh/DCEL/Iterator\l/Iterator.hpp">
<polygon fill="white" stroke="black" points="441,-529 441,-559 569,-559 569,-529 441,-529"/>
<text text-anchor="start" x="449" y="-547" font-family="Helvetica,sans-Serif" font-size="10.00">Core/Mesh/DCEL/Iterator</text>
<text text-anchor="middle" x="505" y="-536" font-family="Helvetica,sans-Serif" font-size="10.00">/Iterator.hpp</text>
</a>
</g>
</g>
<!-- Node3&#45;&gt;Node4 -->
<g id="edge3" class="edge"><title>Node3&#45;&gt;Node4</title>
<path fill="none" stroke="midnightblue" d="M619.679,-596.841C597.955,-587.021 568.824,-573.852 545.36,-563.245"/>
<polygon fill="midnightblue" stroke="midnightblue" points="546.572,-559.952 536.018,-559.022 543.688,-566.33 546.572,-559.952"/>
</g>
<!-- Node37 -->
<g id="node37" class="node"><title>Node37</title>
<g id="a_node37"><a xlink:href="VertexIterator_8inl.html" target="_top" xlink:title="Core/Mesh/DCEL/Iterator\l/Vertex/VertexIterator.inl">
<polygon fill="white" stroke="black" points="587,-529 587,-559 715,-559 715,-529 587,-529"/>
<text text-anchor="start" x="595" y="-547" font-family="Helvetica,sans-Serif" font-size="10.00">Core/Mesh/DCEL/Iterator</text>
<text text-anchor="middle" x="651" y="-536" font-family="Helvetica,sans-Serif" font-size="10.00">/Vertex/VertexIterator.inl</text>
</a>
</g>
</g>
<!-- Node3&#45;&gt;Node37 -->
<g id="edge54" class="edge"><title>Node3&#45;&gt;Node37</title>
<path fill="none" stroke="midnightblue" d="M645.322,-596.679C644.294,-588.722 644.005,-578.605 644.456,-569.436"/>
<polygon fill="midnightblue" stroke="midnightblue" points="647.959,-569.555 645.325,-559.293 640.984,-568.958 647.959,-569.555"/>
</g>
<!-- Node5 -->
<g id="node5" class="node"><title>Node5</title>
<g id="a_node5"><a xlink:href="Definition_8hpp.html" target="_top" xlink:title="Core/Mesh/DCEL/Definition.hpp">
<polygon fill="white" stroke="black" points="335,-236.5 335,-255.5 493,-255.5 493,-236.5 335,-236.5"/>
<text text-anchor="middle" x="414" y="-243.5" font-family="Helvetica,sans-Serif" font-size="10.00">Core/Mesh/DCEL/Definition.hpp</text>
</a>
</g>
</g>
<!-- Node4&#45;&gt;Node5 -->
<g id="edge4" class="edge"><title>Node4&#45;&gt;Node5</title>
<path fill="none" stroke="midnightblue" d="M475.845,-528.824C460.924,-520.152 443.697,-507.696 433,-492 413.149,-462.872 414,-450.249 414,-415 414,-415 414,-415 414,-357 414,-324.948 414,-287.643 414,-265.749"/>
<polygon fill="midnightblue" stroke="midnightblue" points="417.5,-265.558 414,-255.558 410.5,-265.558 417.5,-265.558"/>
</g>
<!-- Node7 -->
<g id="node7" class="node"><title>Node7</title>
<polygon fill="white" stroke="#bfbfbf" points="0,-174.5 0,-193.5 44,-193.5 44,-174.5 0,-174.5"/>
<text text-anchor="middle" x="22" y="-181.5" font-family="Helvetica,sans-Serif" font-size="10.00">vector</text>
</g>
<!-- Node4&#45;&gt;Node7 -->
<g id="edge7" class="edge"><title>Node4&#45;&gt;Node7</title>
<path fill="none" stroke="midnightblue" d="M440.613,-532.024C343.05,-513.54 169,-472.507 169,-415 169,-415 169,-415 169,-301 169,-270.323 89.108,-221.833 47.1188,-198.466"/>
<polygon fill="midnightblue" stroke="midnightblue" points="48.7425,-195.365 38.2932,-193.614 45.3701,-201.499 48.7425,-195.365"/>
</g>
<!-- Node8 -->
<g id="node8" class="node"><title>Node8</title>
<g id="a_node8"><a xlink:href="Iterator_8inl.html" target="_top" xlink:title="Core/Mesh/DCEL/Iterator\l/Iterator.inl">
<polygon fill="white" stroke="black" points="442,-461 442,-491 570,-491 570,-461 442,-461"/>
<text text-anchor="start" x="450" y="-479" font-family="Helvetica,sans-Serif" font-size="10.00">Core/Mesh/DCEL/Iterator</text>
<text text-anchor="middle" x="506" y="-468" font-family="Helvetica,sans-Serif" font-size="10.00">/Iterator.inl</text>
</a>
</g>
</g>
<!-- Node4&#45;&gt;Node8 -->
<g id="edge8" class="edge"><title>Node4&#45;&gt;Node8</title>
<path fill="none" stroke="midnightblue" d="M499.539,-528.679C498.631,-520.722 498.496,-510.605 499.086,-501.436"/>
<polygon fill="midnightblue" stroke="midnightblue" points="502.588,-501.594 500.109,-491.293 495.623,-500.891 502.588,-501.594"/>
</g>
<!-- Node6 -->
<g id="node6" class="node"><title>Node6</title>
<polygon fill="white" stroke="#bfbfbf" points="62,-174.5 62,-193.5 114,-193.5 114,-174.5 62,-174.5"/>
<text text-anchor="middle" x="88" y="-181.5" font-family="Helvetica,sans-Serif" font-size="10.00">memory</text>
</g>
<!-- Node5&#45;&gt;Node6 -->
<g id="edge5" class="edge"><title>Node5&#45;&gt;Node6</title>
<path fill="none" stroke="midnightblue" d="M334.725,-238.178C275.55,-231.783 193.151,-220.108 123,-200 120.351,-199.241 117.636,-198.331 114.948,-197.34"/>
<polygon fill="midnightblue" stroke="midnightblue" points="116.073,-194.019 105.49,-193.517 113.45,-200.509 116.073,-194.019"/>
</g>
<!-- Node5&#45;&gt;Node7 -->
<g id="edge6" class="edge"><title>Node5&#45;&gt;Node7</title>
<path fill="none" stroke="midnightblue" d="M334.678,-242.528C260.508,-238.491 147.337,-227.878 53,-200 50.8104,-199.353 48.5843,-198.565 46.3812,-197.693"/>
<polygon fill="midnightblue" stroke="midnightblue" points="47.6117,-194.409 37.0556,-193.505 44.7437,-200.794 47.6117,-194.409"/>
</g>
<!-- Node8&#45;&gt;Node4 -->
<g id="edge9" class="edge"><title>Node8&#45;&gt;Node4</title>
<path fill="none" stroke="midnightblue" d="M511.458,-491.293C512.367,-499.245 512.504,-509.361 511.916,-518.532"/>
<polygon fill="midnightblue" stroke="midnightblue" points="508.414,-518.379 510.895,-528.679 515.379,-519.08 508.414,-518.379"/>
</g>
<!-- Node8&#45;&gt;Node9 -->
<g id="edge10" class="edge"><title>Node8&#45;&gt;Node9</title>
<path fill="none" stroke="midnightblue" d="M570.032,-464.89C640.089,-453.828 751.732,-436.2 821.839,-425.131"/>
<polygon fill="midnightblue" stroke="midnightblue" points="822.54,-428.563 831.872,-423.547 821.448,-421.649 822.54,-428.563"/>
</g>
<!-- Node9&#45;&gt;Node5 -->
<g id="edge23" class="edge"><title>Node9&#45;&gt;Node5</title>
<path fill="none" stroke="midnightblue" d="M861.617,-404.425C783.286,-376.876 537.92,-290.582 447.711,-258.856"/>
<polygon fill="midnightblue" stroke="midnightblue" points="448.832,-255.54 438.237,-255.524 446.509,-262.144 448.832,-255.54"/>
</g>
<!-- Node10 -->
<g id="node10" class="node"><title>Node10</title>
<g id="a_node10"><a xlink:href="Index_8hpp.html" target="_top" xlink:title="Core/Index/Index.hpp">
<polygon fill="white" stroke="black" points="999,-174.5 999,-193.5 1109,-193.5 1109,-174.5 999,-174.5"/>
<text text-anchor="middle" x="1054" y="-181.5" font-family="Helvetica,sans-Serif" font-size="10.00">Core/Index/Index.hpp</text>
</a>
</g>
</g>
<!-- Node9&#45;&gt;Node10 -->
<g id="edge11" class="edge"><title>Node9&#45;&gt;Node10</title>
<path fill="none" stroke="midnightblue" d="M923.331,-404.398C944.801,-397.715 970.836,-386.398 988,-368 1032.49,-320.313 1047.41,-240.445 1052.06,-204.077"/>
<polygon fill="midnightblue" stroke="midnightblue" points="1055.57,-204.228 1053.23,-193.893 1048.61,-203.427 1055.57,-204.228"/>
</g>
<!-- Node13 -->
<g id="node13" class="node"><title>Node13</title>
<g id="a_node13"><a xlink:href="IndexedObject_8hpp.html" target="_top" xlink:title="Core/Index/IndexedObject.hpp">
<polygon fill="white" stroke="black" points="868.5,-236.5 868.5,-255.5 1017.5,-255.5 1017.5,-236.5 868.5,-236.5"/>
<text text-anchor="middle" x="943" y="-243.5" font-family="Helvetica,sans-Serif" font-size="10.00">Core/Index/IndexedObject.hpp</text>
</a>
</g>
</g>
<!-- Node9&#45;&gt;Node13 -->
<g id="edge14" class="edge"><title>Node9&#45;&gt;Node13</title>
<path fill="none" stroke="midnightblue" d="M918.986,-404.438C937.463,-397.769 958.952,-386.453 970,-368 989.815,-334.906 968.656,-288.849 954.179,-264.197"/>
<polygon fill="midnightblue" stroke="midnightblue" points="957.103,-262.27 948.879,-255.591 951.143,-265.941 957.103,-262.27"/>
</g>
<!-- Node21 -->
<g id="node21" class="node"><title>Node21</title>
<g id="a_node21"><a xlink:href="DCEL_2HalfEdge_8inl.html" target="_top" xlink:title="Core/Mesh/DCEL/HalfEdge.inl">
<polygon fill="white" stroke="black" points="810.5,-348.5 810.5,-367.5 961.5,-367.5 961.5,-348.5 810.5,-348.5"/>
<text text-anchor="middle" x="886" y="-355.5" font-family="Helvetica,sans-Serif" font-size="10.00">Core/Mesh/DCEL/HalfEdge.inl</text>
</a>
</g>
</g>
<!-- Node9&#45;&gt;Node21 -->
<g id="edge24" class="edge"><title>Node9&#45;&gt;Node21</title>
<path fill="none" stroke="midnightblue" d="M880.834,-404.083C879.324,-396.927 878.894,-386.635 879.542,-377.691"/>
<polygon fill="midnightblue" stroke="midnightblue" points="883.015,-378.126 880.869,-367.751 876.077,-377.2 883.015,-378.126"/>
</g>
<!-- Node11 -->
<g id="node11" class="node"><title>Node11</title>
<polygon fill="white" stroke="#bfbfbf" points="989,-112.5 989,-131.5 1029,-131.5 1029,-112.5 989,-112.5"/>
<text text-anchor="middle" x="1009" y="-119.5" font-family="Helvetica,sans-Serif" font-size="10.00">limits</text>
</g>
<!-- Node10&#45;&gt;Node11 -->
<g id="edge12" class="edge"><title>Node10&#45;&gt;Node11</title>
<path fill="none" stroke="midnightblue" d="M1047.55,-174.403C1040.8,-165.403 1030.03,-151.041 1021.59,-139.782"/>
<polygon fill="midnightblue" stroke="midnightblue" points="1024.24,-137.481 1015.44,-131.581 1018.64,-141.681 1024.24,-137.481"/>
</g>
<!-- Node12 -->
<g id="node12" class="node"><title>Node12</title>
<g id="a_node12"><a xlink:href="Index_8inl.html" target="_top" xlink:title="Core/Index/Index.inl">
<polygon fill="white" stroke="black" points="1047,-112.5 1047,-131.5 1151,-131.5 1151,-112.5 1047,-112.5"/>
<text text-anchor="middle" x="1099" y="-119.5" font-family="Helvetica,sans-Serif" font-size="10.00">Core/Index/Index.inl</text>
</a>
</g>
</g>
<!-- Node10&#45;&gt;Node12 -->
<g id="edge13" class="edge"><title>Node10&#45;&gt;Node12</title>
<path fill="none" stroke="midnightblue" d="M1060.45,-174.403C1067.2,-165.403 1077.97,-151.041 1086.41,-139.782"/>
<polygon fill="midnightblue" stroke="midnightblue" points="1089.36,-141.681 1092.56,-131.581 1083.76,-137.481 1089.36,-141.681"/>
</g>
<!-- Node13&#45;&gt;Node10 -->
<g id="edge15" class="edge"><title>Node13&#45;&gt;Node10</title>
<path fill="none" stroke="midnightblue" d="M958.904,-236.403C977.285,-226.468 1007.76,-209.997 1029.24,-198.381"/>
<polygon fill="midnightblue" stroke="midnightblue" points="1030.99,-201.415 1038.13,-193.581 1027.66,-195.257 1030.99,-201.415"/>
</g>
<!-- Node14 -->
<g id="node14" class="node"><title>Node14</title>
<g id="a_node14"><a xlink:href="RaCore_8hpp.html" target="_top" xlink:title="Core/RaCore.hpp">
<polygon fill="white" stroke="black" points="527.5,-112.5 527.5,-131.5 620.5,-131.5 620.5,-112.5 527.5,-112.5"/>
<text text-anchor="middle" x="574" y="-119.5" font-family="Helvetica,sans-Serif" font-size="10.00">Core/RaCore.hpp</text>
</a>
</g>
</g>
<!-- Node13&#45;&gt;Node14 -->
<g id="edge16" class="edge"><title>Node13&#45;&gt;Node14</title>
<path fill="none" stroke="midnightblue" d="M947.581,-236.341C955.201,-220.611 968.042,-187.197 951,-168 930.132,-144.493 731.053,-131.033 630.924,-125.699"/>
<polygon fill="midnightblue" stroke="midnightblue" points="630.847,-122.19 620.678,-125.163 630.481,-129.18 630.847,-122.19"/>
</g>
<!-- Node15 -->
<g id="node15" class="node"><title>Node15</title>
<g id="a_node15"><a xlink:href="CoreMacros_8hpp.html" target="_top" xlink:title="Core/CoreMacros.hpp">
<polygon fill="white" stroke="black" points="517.5,-56.5 517.5,-75.5 630.5,-75.5 630.5,-56.5 517.5,-56.5"/>
<text text-anchor="middle" x="574" y="-63.5" font-family="Helvetica,sans-Serif" font-size="10.00">Core/CoreMacros.hpp</text>
</a>
</g>
</g>
<!-- Node14&#45;&gt;Node15 -->
<g id="edge17" class="edge"><title>Node14&#45;&gt;Node15</title>
<path fill="none" stroke="midnightblue" d="M574,-112.083C574,-105.006 574,-94.8611 574,-85.9865"/>
<polygon fill="midnightblue" stroke="midnightblue" points="577.5,-85.751 574,-75.7511 570.5,-85.7511 577.5,-85.751"/>
</g>
<!-- Node16 -->
<g id="node16" class="node"><title>Node16</title>
<polygon fill="white" stroke="#bfbfbf" points="418.5,-0.5 418.5,-19.5 467.5,-19.5 467.5,-0.5 418.5,-0.5"/>
<text text-anchor="middle" x="443" y="-7.5" font-family="Helvetica,sans-Serif" font-size="10.00">cassert</text>
</g>
<!-- Node15&#45;&gt;Node16 -->
<g id="edge18" class="edge"><title>Node15&#45;&gt;Node16</title>
<path fill="none" stroke="midnightblue" d="M553.243,-56.4435C531.684,-47.5566 497.737,-33.5632 473.206,-23.4514"/>
<polygon fill="midnightblue" stroke="midnightblue" points="474.239,-20.0917 463.66,-19.5164 471.572,-26.5634 474.239,-20.0917"/>
</g>
<!-- Node17 -->
<g id="node17" class="node"><title>Node17</title>
<polygon fill="white" stroke="#bfbfbf" points="485.5,-0.5 485.5,-19.5 528.5,-19.5 528.5,-0.5 485.5,-0.5"/>
<text text-anchor="middle" x="507" y="-7.5" font-family="Helvetica,sans-Serif" font-size="10.00">cstdio</text>
</g>
<!-- Node15&#45;&gt;Node17 -->
<g id="edge19" class="edge"><title>Node15&#45;&gt;Node17</title>
<path fill="none" stroke="midnightblue" d="M563.235,-56.324C553.234,-48.2631 538.113,-36.0765 526.07,-26.3695"/>
<polygon fill="midnightblue" stroke="midnightblue" points="527.943,-23.3841 517.961,-19.8339 523.55,-28.8343 527.943,-23.3841"/>
</g>
<!-- Node18 -->
<g id="node18" class="node"><title>Node18</title>
<polygon fill="white" stroke="#bfbfbf" points="547,-0.5 547,-19.5 601,-19.5 601,-0.5 547,-0.5"/>
<text text-anchor="middle" x="574" y="-7.5" font-family="Helvetica,sans-Serif" font-size="10.00">iostream</text>
</g>
<!-- Node15&#45;&gt;Node18 -->
<g id="edge20" class="edge"><title>Node15&#45;&gt;Node18</title>
<path fill="none" stroke="midnightblue" d="M574,-56.083C574,-49.0059 574,-38.8611 574,-29.9865"/>
<polygon fill="midnightblue" stroke="midnightblue" points="577.5,-29.751 574,-19.7511 570.5,-29.7511 577.5,-29.751"/>
</g>
<!-- Node19 -->
<g id="node19" class="node"><title>Node19</title>
<polygon fill="white" stroke="#bfbfbf" points="619,-0.5 619,-19.5 671,-19.5 671,-0.5 619,-0.5"/>
<text text-anchor="middle" x="645" y="-7.5" font-family="Helvetica,sans-Serif" font-size="10.00">sstream</text>
</g>
<!-- Node15&#45;&gt;Node19 -->
<g id="edge21" class="edge"><title>Node15&#45;&gt;Node19</title>
<path fill="none" stroke="midnightblue" d="M585.407,-56.324C596.109,-48.1849 612.341,-35.8395 625.163,-26.0874"/>
<polygon fill="midnightblue" stroke="midnightblue" points="627.544,-28.6734 633.385,-19.8339 623.307,-23.1018 627.544,-28.6734"/>
</g>
<!-- Node20 -->
<g id="node20" class="node"><title>Node20</title>
<polygon fill="white" stroke="#bfbfbf" points="689,-0.5 689,-19.5 733,-19.5 733,-0.5 689,-0.5"/>
<text text-anchor="middle" x="711" y="-7.5" font-family="Helvetica,sans-Serif" font-size="10.00">thread</text>
</g>
<!-- Node15&#45;&gt;Node20 -->
<g id="edge22" class="edge"><title>Node15&#45;&gt;Node20</title>
<path fill="none" stroke="midnightblue" d="M595.708,-56.4435C618.355,-47.5171 654.072,-33.4387 679.752,-23.3168"/>
<polygon fill="midnightblue" stroke="midnightblue" points="681.374,-26.4397 689.394,-19.5164 678.807,-19.9273 681.374,-26.4397"/>
</g>
<!-- Node21&#45;&gt;Node9 -->
<g id="edge25" class="edge"><title>Node21&#45;&gt;Node9</title>
<path fill="none" stroke="midnightblue" d="M891.131,-367.751C892.657,-374.858 893.104,-385.136 892.472,-394.101"/>
<polygon fill="midnightblue" stroke="midnightblue" points="888.993,-393.713 891.166,-404.083 895.934,-394.622 888.993,-393.713"/>
</g>
<!-- Node21&#45;&gt;Node22 -->
<g id="edge26" class="edge"><title>Node21&#45;&gt;Node22</title>
<path fill="none" stroke="midnightblue" d="M923.87,-348.444C965.476,-339.043 1032.37,-323.929 1077.47,-313.739"/>
<polygon fill="midnightblue" stroke="midnightblue" points="1078.32,-317.134 1087.31,-311.516 1076.78,-310.306 1078.32,-317.134"/>
</g>
<!-- Node21&#45;&gt;Node24 -->
<g id="edge33" class="edge"><title>Node21&#45;&gt;Node24</title>
<path fill="none" stroke="midnightblue" d="M853.517,-348.444C818.28,-339.162 761.896,-324.309 723.241,-314.127"/>
<polygon fill="midnightblue" stroke="midnightblue" points="723.893,-310.679 713.331,-311.516 722.109,-317.448 723.893,-310.679"/>
</g>
<!-- Node22&#45;&gt;Node5 -->
<g id="edge29" class="edge"><title>Node22&#45;&gt;Node5</title>
<path fill="none" stroke="midnightblue" d="M1055.8,-296.678C942.619,-289.459 710.571,-274.036 503.306,-256.09"/>
<polygon fill="midnightblue" stroke="midnightblue" points="503.409,-252.586 493.144,-255.207 502.803,-259.56 503.409,-252.586"/>
</g>
<!-- Node22&#45;&gt;Node10 -->
<g id="edge27" class="edge"><title>Node22&#45;&gt;Node10</title>
<path fill="none" stroke="midnightblue" d="M1119.66,-292.281C1107.99,-273.21 1080.01,-227.488 1064.61,-202.327"/>
<polygon fill="midnightblue" stroke="midnightblue" points="1067.41,-200.207 1059.21,-193.505 1061.44,-203.861 1067.41,-200.207"/>
</g>
<!-- Node22&#45;&gt;Node13 -->
<g id="edge28" class="edge"><title>Node22&#45;&gt;Node13</title>
<path fill="none" stroke="midnightblue" d="M1096.16,-292.444C1065.14,-283.241 1015.67,-268.562 981.382,-258.388"/>
<polygon fill="midnightblue" stroke="midnightblue" points="982.286,-255.006 971.704,-255.516 980.295,-261.716 982.286,-255.006"/>
</g>
<!-- Node23 -->
<g id="node23" class="node"><title>Node23</title>
<g id="a_node23"><a xlink:href="Face_8inl.html" target="_top" xlink:title="Core/Mesh/DCEL/Face.inl">
<polygon fill="white" stroke="black" points="1111,-236.5 1111,-255.5 1243,-255.5 1243,-236.5 1111,-236.5"/>
<text text-anchor="middle" x="1177" y="-243.5" font-family="Helvetica,sans-Serif" font-size="10.00">Core/Mesh/DCEL/Face.inl</text>
</a>
</g>
</g>
<!-- Node22&#45;&gt;Node23 -->
<g id="edge30" class="edge"><title>Node22&#45;&gt;Node23</title>
<path fill="none" stroke="midnightblue" d="M1128.42,-292.083C1134.45,-284.062 1145.63,-272.101 1155.89,-262.515"/>
<polygon fill="midnightblue" stroke="midnightblue" points="1158.32,-265.028 1163.44,-255.751 1153.66,-259.812 1158.32,-265.028"/>
</g>
<!-- Node23&#45;&gt;Node9 -->
<g id="edge32" class="edge"><title>Node23&#45;&gt;Node9</title>
<path fill="none" stroke="midnightblue" d="M1185.47,-255.634C1197.27,-268.724 1215.82,-293.971 1203,-312 1172.97,-354.24 1029.27,-386.891 946.02,-402.64"/>
<polygon fill="midnightblue" stroke="midnightblue" points="945.367,-399.201 936.179,-404.476 946.651,-406.082 945.367,-399.201"/>
</g>
<!-- Node23&#45;&gt;Node22 -->
<g id="edge31" class="edge"><title>Node23&#45;&gt;Node22</title>
<path fill="none" stroke="midnightblue" d="M1173.64,-255.834C1167.61,-263.869 1156.36,-275.909 1146.06,-285.537"/>
<polygon fill="midnightblue" stroke="midnightblue" points="1143.59,-283.049 1138.47,-292.324 1148.26,-288.267 1143.59,-283.049"/>
</g>
<!-- Node24&#45;&gt;Node5 -->
<g id="edge50" class="edge"><title>Node24&#45;&gt;Node5</title>
<path fill="none" stroke="midnightblue" d="M638.693,-292.444C591.92,-282.984 516.54,-267.738 466.15,-257.547"/>
<polygon fill="midnightblue" stroke="midnightblue" points="466.604,-254.068 456.109,-255.516 465.217,-260.929 466.604,-254.068"/>
</g>
<!-- Node24&#45;&gt;Node10 -->
<g id="edge34" class="edge"><title>Node24&#45;&gt;Node10</title>
<path fill="none" stroke="midnightblue" d="M681.071,-292.269C681.695,-278.093 685.143,-250.226 702,-236 744.727,-199.942 895.671,-208.029 951,-200 963.277,-198.219 976.376,-196.314 988.973,-194.48"/>
<polygon fill="midnightblue" stroke="midnightblue" points="989.552,-197.933 998.944,-193.029 988.544,-191.006 989.552,-197.933"/>
</g>
<!-- Node24&#45;&gt;Node13 -->
<g id="edge35" class="edge"><title>Node24&#45;&gt;Node13</title>
<path fill="none" stroke="midnightblue" d="M722.515,-292.444C768.412,-282.984 842.38,-267.738 891.826,-257.547"/>
<polygon fill="midnightblue" stroke="midnightblue" points="892.592,-260.963 901.68,-255.516 891.179,-254.107 892.592,-260.963"/>
</g>
<!-- Node25 -->
<g id="node25" class="node"><title>Node25</title>
<g id="a_node25"><a xlink:href="LinearAlgebra_8hpp.html" target="_top" xlink:title="Core/Math/LinearAlgebra.hpp">
<polygon fill="white" stroke="black" points="511.5,-236.5 511.5,-255.5 654.5,-255.5 654.5,-236.5 511.5,-236.5"/>
<text text-anchor="middle" x="583" y="-243.5" font-family="Helvetica,sans-Serif" font-size="10.00">Core/Math/LinearAlgebra.hpp</text>
</a>
</g>
</g>
<!-- Node24&#45;&gt;Node25 -->
<g id="edge36" class="edge"><title>Node24&#45;&gt;Node25</title>
<path fill="none" stroke="midnightblue" d="M665.255,-292.324C649.681,-283.743 625.623,-270.486 607.541,-260.522"/>
<polygon fill="midnightblue" stroke="midnightblue" points="609.154,-257.415 598.706,-255.655 605.776,-263.546 609.154,-257.415"/>
</g>
<!-- Node36 -->
<g id="node36" class="node"><title>Node36</title>
<g id="a_node36"><a xlink:href="Vertex_8inl.html" target="_top" xlink:title="Core/Mesh/DCEL/Vertex.inl">
<polygon fill="white" stroke="black" points="711.5,-236.5 711.5,-255.5 850.5,-255.5 850.5,-236.5 711.5,-236.5"/>
<text text-anchor="middle" x="781" y="-243.5" font-family="Helvetica,sans-Serif" font-size="10.00">Core/Mesh/DCEL/Vertex.inl</text>
</a>
</g>
</g>
<!-- Node24&#45;&gt;Node36 -->
<g id="edge51" class="edge"><title>Node24&#45;&gt;Node36</title>
<path fill="none" stroke="midnightblue" d="M691.952,-292.324C706.178,-283.625 730.93,-270.12 750.833,-260.113"/>
<polygon fill="midnightblue" stroke="midnightblue" points="752.446,-263.22 759.863,-255.655 749.347,-256.943 752.446,-263.22"/>
</g>
<!-- Node25&#45;&gt;Node14 -->
<g id="edge37" class="edge"><title>Node25&#45;&gt;Node14</title>
<path fill="none" stroke="midnightblue" d="M582.353,-236.226C580.9,-216.53 577.352,-168.437 575.38,-141.7"/>
<polygon fill="midnightblue" stroke="midnightblue" points="578.868,-141.41 574.641,-131.694 571.887,-141.925 578.868,-141.41"/>
</g>
<!-- Node26 -->
<g id="node26" class="node"><title>Node26</title>
<polygon fill="white" stroke="#bfbfbf" points="602.5,-174.5 602.5,-193.5 667.5,-193.5 667.5,-174.5 602.5,-174.5"/>
<text text-anchor="middle" x="635" y="-181.5" font-family="Helvetica,sans-Serif" font-size="10.00">Eigen/Core</text>
</g>
<!-- Node25&#45;&gt;Node26 -->
<g id="edge38" class="edge"><title>Node25&#45;&gt;Node26</title>
<path fill="none" stroke="midnightblue" d="M590.45,-236.403C598.328,-227.314 610.945,-212.756 620.744,-201.449"/>
<polygon fill="midnightblue" stroke="midnightblue" points="623.659,-203.43 627.563,-193.581 618.369,-198.845 623.659,-203.43"/>
</g>
<!-- Node27 -->
<g id="node27" class="node"><title>Node27</title>
<polygon fill="white" stroke="#bfbfbf" points="685.5,-174.5 685.5,-193.5 772.5,-193.5 772.5,-174.5 685.5,-174.5"/>
<text text-anchor="middle" x="729" y="-181.5" font-family="Helvetica,sans-Serif" font-size="10.00">Eigen/Geometry</text>
</g>
<!-- Node25&#45;&gt;Node27 -->
<g id="edge39" class="edge"><title>Node25&#45;&gt;Node27</title>
<path fill="none" stroke="midnightblue" d="M603.918,-236.403C628.746,-226.2 670.343,-209.105 698.694,-197.454"/>
<polygon fill="midnightblue" stroke="midnightblue" points="700.202,-200.619 708.121,-193.581 697.541,-194.144 700.202,-200.619"/>
</g>
<!-- Node28 -->
<g id="node28" class="node"><title>Node28</title>
<polygon fill="white" stroke="#bfbfbf" points="790.5,-174.5 790.5,-193.5 865.5,-193.5 865.5,-174.5 790.5,-174.5"/>
<text text-anchor="middle" x="828" y="-181.5" font-family="Helvetica,sans-Serif" font-size="10.00">Eigen/Sparse</text>
</g>
<!-- Node25&#45;&gt;Node28 -->
<g id="edge40" class="edge"><title>Node25&#45;&gt;Node28</title>
<path fill="none" stroke="midnightblue" d="M625.36,-236.468C665.628,-228.099 727.774,-214.513 781,-200 784.796,-198.965 788.743,-197.818 792.665,-196.634"/>
<polygon fill="midnightblue" stroke="midnightblue" points="793.75,-199.962 802.26,-193.652 791.672,-193.277 793.75,-199.962"/>
</g>
<!-- Node29 -->
<g id="node29" class="node"><title>Node29</title>
<polygon fill="white" stroke="#bfbfbf" points="883.5,-174.5 883.5,-193.5 942.5,-193.5 942.5,-174.5 883.5,-174.5"/>
<text text-anchor="middle" x="913" y="-181.5" font-family="Helvetica,sans-Serif" font-size="10.00">functional</text>
</g>
<!-- Node25&#45;&gt;Node29 -->
<g id="edge41" class="edge"><title>Node25&#45;&gt;Node29</title>
<path fill="none" stroke="midnightblue" d="M648.778,-236.492C721.15,-226.836 832.69,-211.003 874,-200 877.154,-199.16 880.405,-198.152 883.62,-197.06"/>
<polygon fill="midnightblue" stroke="midnightblue" points="884.838,-200.342 893.03,-193.622 882.436,-193.767 884.838,-200.342"/>
</g>
<!-- Node30 -->
<g id="node30" class="node"><title>Node30</title>
<polygon fill="white" stroke="#bfbfbf" points="132.5,-169 132.5,-199 265.5,-199 265.5,-169 132.5,-169"/>
<text text-anchor="start" x="140.5" y="-187" font-family="Helvetica,sans-Serif" font-size="10.00">unsupported/Eigen/Aligned</text>
<text text-anchor="middle" x="199" y="-176" font-family="Helvetica,sans-Serif" font-size="10.00">Vector3</text>
</g>
<!-- Node25&#45;&gt;Node30 -->
<g id="edge42" class="edge"><title>Node25&#45;&gt;Node30</title>
<path fill="none" stroke="midnightblue" d="M518.255,-236.495C458.082,-228.373 365.723,-215.357 275.795,-200.085"/>
<polygon fill="midnightblue" stroke="midnightblue" points="276.14,-196.593 265.693,-198.358 274.961,-203.493 276.14,-196.593"/>
</g>
<!-- Node31 -->
<g id="node31" class="node"><title>Node31</title>
<g id="a_node31"><a xlink:href="Math_8hpp.html" target="_top" xlink:title="Core/Math/Math.hpp">
<polygon fill="white" stroke="black" points="284,-174.5 284,-193.5 390,-193.5 390,-174.5 284,-174.5"/>
<text text-anchor="middle" x="337" y="-181.5" font-family="Helvetica,sans-Serif" font-size="10.00">Core/Math/Math.hpp</text>
</a>
</g>
</g>
<!-- Node25&#45;&gt;Node31 -->
<g id="edge43" class="edge"><title>Node25&#45;&gt;Node31</title>
<path fill="none" stroke="midnightblue" d="M548.015,-236.467C504.3,-225.805 429.435,-207.545 381.633,-195.886"/>
<polygon fill="midnightblue" stroke="midnightblue" points="382.408,-192.473 371.864,-193.503 380.75,-199.273 382.408,-192.473"/>
</g>
<!-- Node35 -->
<g id="node35" class="node"><title>Node35</title>
<g id="a_node35"><a xlink:href="LinearAlgebra_8inl.html" target="_top" xlink:title="Core/Math/LinearAlgebra.inl">
<polygon fill="white" stroke="black" points="408.5,-174.5 408.5,-193.5 545.5,-193.5 545.5,-174.5 408.5,-174.5"/>
<text text-anchor="middle" x="477" y="-181.5" font-family="Helvetica,sans-Serif" font-size="10.00">Core/Math/LinearAlgebra.inl</text>
</a>
</g>
</g>
<!-- Node25&#45;&gt;Node35 -->
<g id="edge49" class="edge"><title>Node25&#45;&gt;Node35</title>
<path fill="none" stroke="midnightblue" d="M567.813,-236.403C550.338,-226.512 521.421,-210.144 500.917,-198.538"/>
<polygon fill="midnightblue" stroke="midnightblue" points="502.586,-195.461 492.159,-193.581 499.138,-201.553 502.586,-195.461"/>
</g>
<!-- Node31&#45;&gt;Node14 -->
<g id="edge44" class="edge"><title>Node31&#45;&gt;Node14</title>
<path fill="none" stroke="midnightblue" d="M370.705,-174.467C412.733,-163.827 484.645,-145.622 530.711,-133.959"/>
<polygon fill="midnightblue" stroke="midnightblue" points="531.576,-137.351 540.412,-131.503 529.858,-130.565 531.576,-137.351"/>
</g>
<!-- Node32 -->
<g id="node32" class="node"><title>Node32</title>
<polygon fill="white" stroke="#bfbfbf" points="196,-112.5 196,-131.5 252,-131.5 252,-112.5 196,-112.5"/>
<text text-anchor="middle" x="224" y="-119.5" font-family="Helvetica,sans-Serif" font-size="10.00">algorithm</text>
</g>
<!-- Node31&#45;&gt;Node32 -->
<g id="edge45" class="edge"><title>Node31&#45;&gt;Node32</title>
<path fill="none" stroke="midnightblue" d="M320.81,-174.403C302.098,-164.468 271.077,-147.997 249.201,-136.381"/>
<polygon fill="midnightblue" stroke="midnightblue" points="250.634,-133.179 240.16,-131.581 247.351,-139.362 250.634,-133.179"/>
</g>
<!-- Node33 -->
<g id="node33" class="node"><title>Node33</title>
<polygon fill="white" stroke="#bfbfbf" points="270,-112.5 270,-131.5 314,-131.5 314,-112.5 270,-112.5"/>
<text text-anchor="middle" x="292" y="-119.5" font-family="Helvetica,sans-Serif" font-size="10.00">cmath</text>
</g>
<!-- Node31&#45;&gt;Node33 -->
<g id="edge46" class="edge"><title>Node31&#45;&gt;Node33</title>
<path fill="none" stroke="midnightblue" d="M330.553,-174.403C323.803,-165.403 313.031,-151.041 304.587,-139.782"/>
<polygon fill="midnightblue" stroke="midnightblue" points="307.235,-137.481 298.435,-131.581 301.635,-141.681 307.235,-137.481"/>
</g>
<!-- Node34 -->
<g id="node34" class="node"><title>Node34</title>
<g id="a_node34"><a xlink:href="Math_8inl.html" target="_top" xlink:title="Core/Math/Math.inl">
<polygon fill="white" stroke="black" points="332,-112.5 332,-131.5 432,-131.5 432,-112.5 332,-112.5"/>
<text text-anchor="middle" x="382" y="-119.5" font-family="Helvetica,sans-Serif" font-size="10.00">Core/Math/Math.inl</text>
</a>
</g>
</g>
<!-- Node31&#45;&gt;Node34 -->
<g id="edge47" class="edge"><title>Node31&#45;&gt;Node34</title>
<path fill="none" stroke="midnightblue" d="M338.547,-174.403C343.445,-165.225 354.125,-150.47 363.85,-139.117"/>
<polygon fill="midnightblue" stroke="midnightblue" points="366.555,-141.345 370.667,-131.581 361.364,-136.649 366.555,-141.345"/>
</g>
<!-- Node34&#45;&gt;Node31 -->
<g id="edge48" class="edge"><title>Node34&#45;&gt;Node31</title>
<path fill="none" stroke="midnightblue" d="M380.462,-131.581C375.57,-140.752 364.893,-155.506 355.166,-166.863"/>
<polygon fill="midnightblue" stroke="midnightblue" points="352.459,-164.639 348.348,-174.403 357.651,-169.334 352.459,-164.639"/>
</g>
<!-- Node36&#45;&gt;Node9 -->
<g id="edge53" class="edge"><title>Node36&#45;&gt;Node9</title>
<path fill="none" stroke="midnightblue" d="M780,-255.585C777.992,-276.842 775.626,-332.746 801,-368 811.926,-383.181 829.565,-393.692 845.949,-400.714"/>
<polygon fill="midnightblue" stroke="midnightblue" points="844.805,-404.025 855.391,-404.454 847.383,-397.517 844.805,-404.025"/>
</g>
<!-- Node36&#45;&gt;Node24 -->
<g id="edge52" class="edge"><title>Node36&#45;&gt;Node24</title>
<path fill="none" stroke="midnightblue" d="M770.083,-255.655C755.874,-264.346 731.127,-277.849 711.216,-287.862"/>
<polygon fill="midnightblue" stroke="midnightblue" points="709.598,-284.758 702.182,-292.324 712.698,-291.034 709.598,-284.758"/>
</g>
<!-- Node37&#45;&gt;Node3 -->
<g id="edge55" class="edge"><title>Node37&#45;&gt;Node3</title>
<path fill="none" stroke="midnightblue" d="M656.675,-559.293C657.704,-567.245 657.995,-577.361 657.545,-586.532"/>
<polygon fill="midnightblue" stroke="midnightblue" points="654.042,-586.417 656.678,-596.679 661.017,-587.013 654.042,-586.417"/>
</g>
<!-- Node37&#45;&gt;Node24 -->
<g id="edge56" class="edge"><title>Node37&#45;&gt;Node24</title>
<path fill="none" stroke="midnightblue" d="M652.787,-528.706C657.95,-487.401 672.889,-367.888 678.674,-321.611"/>
<polygon fill="midnightblue" stroke="midnightblue" points="682.168,-321.872 679.936,-311.515 675.222,-321.004 682.168,-321.872"/>
</g>
</g>
</svg>
