<?xml version="1.0" encoding="UTF-8" standalone="no"?>
<!DOCTYPE svg PUBLIC "-//W3C//DTD SVG 1.1//EN"
 "http://www.w3.org/Graphics/SVG/1.1/DTD/svg11.dtd">
<!-- Generated by graphviz version 2.36.0 (20140111.2315)
 -->
<!-- Title: /home/travis/build/STORM&#45;IRIT/Radium&#45;Engine/src/Core/Mesh/DCEL/Iterator/Vertex/VHEIterator.inl Pages: 1 -->
<svg width="1228pt" height="794pt"
 viewBox="0.00 0.00 1228.39 794.00" xmlns="http://www.w3.org/2000/svg" xmlns:xlink="http://www.w3.org/1999/xlink">
<g id="graph0" class="graph" transform="scale(1 1) rotate(0) translate(4 790)">
<title>/home/travis/build/STORM&#45;IRIT/Radium&#45;Engine/src/Core/Mesh/DCEL/Iterator/Vertex/VHEIterator.inl</title>
<polygon fill="white" stroke="none" points="-4,4 -4,-790 1224.39,-790 1224.39,4 -4,4"/>
<!-- Node1 -->
<g id="node1" class="node"><title>Node1</title>
<polygon fill="#bfbfbf" stroke="black" points="420,-733 420,-785 568,-785 568,-733 420,-733"/>
<text text-anchor="start" x="428" y="-773" font-family="Helvetica,sans-Serif" font-size="10.00">/home/travis/build</text>
<text text-anchor="start" x="428" y="-762" font-family="Helvetica,sans-Serif" font-size="10.00">/STORM&#45;IRIT/Radium&#45;Engine</text>
<text text-anchor="start" x="428" y="-751" font-family="Helvetica,sans-Serif" font-size="10.00">/src/Core/Mesh/DCEL/Iterator</text>
<text text-anchor="middle" x="494" y="-740" font-family="Helvetica,sans-Serif" font-size="10.00">/Vertex/VHEIterator.inl</text>
</g>
<!-- Node2 -->
<g id="node2" class="node"><title>Node2</title>
<g id="a_node2"><a xlink:href="VHEIterator_8hpp.html" target="_top" xlink:title="Core/Mesh/DCEL/Iterator\l/Vertex/VHEIterator.hpp">
<polygon fill="white" stroke="black" points="384,-665 384,-695 512,-695 512,-665 384,-665"/>
<text text-anchor="start" x="392" y="-683" font-family="Helvetica,sans-Serif" font-size="10.00">Core/Mesh/DCEL/Iterator</text>
<text text-anchor="middle" x="448" y="-672" font-family="Helvetica,sans-Serif" font-size="10.00">/Vertex/VHEIterator.hpp</text>
</a>
</g>
</g>
<!-- Node1&#45;&gt;Node2 -->
<g id="edge1" class="edge"><title>Node1&#45;&gt;Node2</title>
<path fill="none" stroke="midnightblue" d="M472.559,-732.787C466.564,-723.64 460.456,-713.351 455.698,-704.37"/>
<polygon fill="midnightblue" stroke="midnightblue" points="458.739,-702.627 451.133,-695.252 452.48,-705.761 458.739,-702.627"/>
</g>
<!-- Node9 -->
<g id="node9" class="node"><title>Node9</title>
<g id="a_node9"><a xlink:href="DCEL_2HalfEdge_8hpp.html" target="_top" xlink:title="Core/Mesh/DCEL/HalfEdge.hpp">
<polygon fill="white" stroke="black" points="641.5,-404.5 641.5,-423.5 798.5,-423.5 798.5,-404.5 641.5,-404.5"/>
<text text-anchor="middle" x="720" y="-411.5" font-family="Helvetica,sans-Serif" font-size="10.00">Core/Mesh/DCEL/HalfEdge.hpp</text>
</a>
</g>
</g>
<!-- Node1&#45;&gt;Node9 -->
<g id="edge58" class="edge"><title>Node1&#45;&gt;Node9</title>
<path fill="none" stroke="midnightblue" d="M550.836,-732.912C595.073,-709.092 649,-668.642 649,-613 649,-613 649,-613 649,-543 649,-497.961 683.031,-453.934 703.972,-431.104"/>
<polygon fill="midnightblue" stroke="midnightblue" points="706.663,-433.353 711.008,-423.69 701.585,-428.535 706.663,-433.353"/>
</g>
<!-- Node24 -->
<g id="node24" class="node"><title>Node24</title>
<g id="a_node24"><a xlink:href="Vertex_8hpp.html" target="_top" xlink:title="Core/Mesh/DCEL/Vertex.hpp">
<polygon fill="white" stroke="black" points="610.5,-292.5 610.5,-311.5 755.5,-311.5 755.5,-292.5 610.5,-292.5"/>
<text text-anchor="middle" x="683" y="-299.5" font-family="Helvetica,sans-Serif" font-size="10.00">Core/Mesh/DCEL/Vertex.hpp</text>
</a>
</g>
</g>
<!-- Node1&#45;&gt;Node24 -->
<g id="edge59" class="edge"><title>Node1&#45;&gt;Node24</title>
<path fill="none" stroke="midnightblue" d="M507.182,-732.836C520.775,-704.505 540,-656.709 540,-613 540,-613 540,-613 540,-413 540,-360.84 600.511,-329.994 642.808,-314.803"/>
<polygon fill="midnightblue" stroke="midnightblue" points="644.002,-318.094 652.323,-311.536 641.728,-311.474 644.002,-318.094"/>
</g>
<!-- Node2&#45;&gt;Node1 -->
<g id="edge57" class="edge"><title>Node2&#45;&gt;Node1</title>
<path fill="none" stroke="midnightblue" d="M461.895,-695.252C467.764,-703.297 474.437,-713.724 480.258,-723.76"/>
<polygon fill="midnightblue" stroke="midnightblue" points="477.375,-725.775 485.317,-732.787 483.482,-722.353 477.375,-725.775"/>
</g>
<!-- Node3 -->
<g id="node3" class="node"><title>Node3</title>
<g id="a_node3"><a xlink:href="VertexIterator_8hpp.html" target="_top" xlink:title="Core/Mesh/DCEL/Iterator\l/Vertex/VertexIterator.hpp">
<polygon fill="white" stroke="black" points="310.5,-597 310.5,-627 439.5,-627 439.5,-597 310.5,-597"/>
<text text-anchor="start" x="318.5" y="-615" font-family="Helvetica,sans-Serif" font-size="10.00">Core/Mesh/DCEL/Iterator</text>
<text text-anchor="middle" x="375" y="-604" font-family="Helvetica,sans-Serif" font-size="10.00">/Vertex/VertexIterator.hpp</text>
</a>
</g>
</g>
<!-- Node2&#45;&gt;Node3 -->
<g id="edge2" class="edge"><title>Node2&#45;&gt;Node3</title>
<path fill="none" stroke="midnightblue" d="M432.16,-664.679C422.24,-655.71 409.283,-643.996 398.214,-633.988"/>
<polygon fill="midnightblue" stroke="midnightblue" points="400.323,-631.177 390.558,-627.066 395.629,-636.369 400.323,-631.177"/>
</g>
<!-- Node4 -->
<g id="node4" class="node"><title>Node4</title>
<g id="a_node4"><a xlink:href="Iterator_8hpp.html" target="_top" xlink:title="Core/Mesh/DCEL/Iterator\l/Iterator.hpp">
<polygon fill="white" stroke="black" points="384,-529 384,-559 512,-559 512,-529 384,-529"/>
<text text-anchor="start" x="392" y="-547" font-family="Helvetica,sans-Serif" font-size="10.00">Core/Mesh/DCEL/Iterator</text>
<text text-anchor="middle" x="448" y="-536" font-family="Helvetica,sans-Serif" font-size="10.00">/Iterator.hpp</text>
</a>
</g>
</g>
<!-- Node3&#45;&gt;Node4 -->
<g id="edge3" class="edge"><title>Node3&#45;&gt;Node4</title>
<path fill="none" stroke="midnightblue" d="M390.84,-596.679C400.76,-587.71 413.717,-575.996 424.786,-565.988"/>
<polygon fill="midnightblue" stroke="midnightblue" points="427.371,-568.369 432.442,-559.066 422.677,-563.177 427.371,-568.369"/>
</g>
<!-- Node37 -->
<g id="node37" class="node"><title>Node37</title>
<g id="a_node37"><a xlink:href="VertexIterator_8inl.html" target="_top" xlink:title="Core/Mesh/DCEL/Iterator\l/Vertex/VertexIterator.inl">
<polygon fill="white" stroke="black" points="238,-529 238,-559 366,-559 366,-529 238,-529"/>
<text text-anchor="start" x="246" y="-547" font-family="Helvetica,sans-Serif" font-size="10.00">Core/Mesh/DCEL/Iterator</text>
<text text-anchor="middle" x="302" y="-536" font-family="Helvetica,sans-Serif" font-size="10.00">/Vertex/VertexIterator.inl</text>
</a>
</g>
</g>
<!-- Node3&#45;&gt;Node37 -->
<g id="edge54" class="edge"><title>Node3&#45;&gt;Node37</title>
<path fill="none" stroke="midnightblue" d="M353.482,-596.679C342.585,-587.857 329.66,-576.38 319.391,-566.483"/>
<polygon fill="midnightblue" stroke="midnightblue" points="321.701,-563.845 312.134,-559.293 316.775,-568.818 321.701,-563.845"/>
</g>
<!-- Node5 -->
<g id="node5" class="node"><title>Node5</title>
<g id="a_node5"><a xlink:href="Definition_8hpp.html" target="_top" xlink:title="Core/Mesh/DCEL/Definition.hpp">
<polygon fill="white" stroke="black" points="335,-236.5 335,-255.5 493,-255.5 493,-236.5 335,-236.5"/>
<text text-anchor="middle" x="414" y="-243.5" font-family="Helvetica,sans-Serif" font-size="10.00">Core/Mesh/DCEL/Definition.hpp</text>
</a>
</g>
</g>
<!-- Node4&#45;&gt;Node5 -->
<g id="edge4" class="edge"><title>Node4&#45;&gt;Node5</title>
<path fill="none" stroke="midnightblue" d="M418.442,-528.912C403.314,-520.266 385.848,-507.806 375,-492 355.055,-462.937 356,-450.249 356,-415 356,-415 356,-415 356,-357 356,-320.163 381.765,-283.565 398.95,-263.251"/>
<polygon fill="midnightblue" stroke="midnightblue" points="401.713,-265.41 405.69,-255.589 396.457,-260.786 401.713,-265.41"/>
</g>
<!-- Node7 -->
<g id="node7" class="node"><title>Node7</title>
<polygon fill="white" stroke="#bfbfbf" points="0,-174.5 0,-193.5 44,-193.5 44,-174.5 0,-174.5"/>
<text text-anchor="middle" x="22" y="-181.5" font-family="Helvetica,sans-Serif" font-size="10.00">vector</text>
</g>
<!-- Node4&#45;&gt;Node7 -->
<g id="edge7" class="edge"><title>Node4&#45;&gt;Node7</title>
<path fill="none" stroke="midnightblue" d="M418.338,-528.832C399.763,-519.417 375.701,-506.206 356,-492 221.308,-394.875 81.9235,-249.492 36.9393,-201.222"/>
<polygon fill="midnightblue" stroke="midnightblue" points="39.2452,-198.562 29.8789,-193.609 34.1128,-203.322 39.2452,-198.562"/>
</g>
<!-- Node8 -->
<g id="node8" class="node"><title>Node8</title>
<g id="a_node8"><a xlink:href="Iterator_8inl.html" target="_top" xlink:title="Core/Mesh/DCEL/Iterator\l/Iterator.inl">
<polygon fill="white" stroke="black" points="384,-461 384,-491 512,-491 512,-461 384,-461"/>
<text text-anchor="start" x="392" y="-479" font-family="Helvetica,sans-Serif" font-size="10.00">Core/Mesh/DCEL/Iterator</text>
<text text-anchor="middle" x="448" y="-468" font-family="Helvetica,sans-Serif" font-size="10.00">/Iterator.inl</text>
</a>
</g>
</g>
<!-- Node4&#45;&gt;Node8 -->
<g id="edge8" class="edge"><title>Node4&#45;&gt;Node8</title>
<path fill="none" stroke="midnightblue" d="M442.322,-528.679C441.294,-520.722 441.005,-510.605 441.456,-501.436"/>
<polygon fill="midnightblue" stroke="midnightblue" points="444.959,-501.555 442.325,-491.293 437.984,-500.958 444.959,-501.555"/>
</g>
<!-- Node6 -->
<g id="node6" class="node"><title>Node6</title>
<polygon fill="white" stroke="#bfbfbf" points="62,-174.5 62,-193.5 114,-193.5 114,-174.5 62,-174.5"/>
<text text-anchor="middle" x="88" y="-181.5" font-family="Helvetica,sans-Serif" font-size="10.00">memory</text>
</g>
<!-- Node5&#45;&gt;Node6 -->
<g id="edge5" class="edge"><title>Node5&#45;&gt;Node6</title>
<path fill="none" stroke="midnightblue" d="M345.857,-236.475C273.373,-227.049 163.665,-211.656 123,-200 120.351,-199.241 117.636,-198.331 114.948,-197.34"/>
<polygon fill="midnightblue" stroke="midnightblue" points="116.073,-194.019 105.49,-193.517 113.45,-200.509 116.073,-194.019"/>
</g>
<!-- Node5&#45;&gt;Node7 -->
<g id="edge6" class="edge"><title>Node5&#45;&gt;Node7</title>
<path fill="none" stroke="midnightblue" d="M334.722,-236.503C236.652,-225.777 79.3476,-207.786 53,-200 50.8104,-199.353 48.5843,-198.565 46.3812,-197.693"/>
<polygon fill="midnightblue" stroke="midnightblue" points="47.6117,-194.409 37.0556,-193.505 44.7437,-200.794 47.6117,-194.409"/>
</g>
<!-- Node8&#45;&gt;Node4 -->
<g id="edge9" class="edge"><title>Node8&#45;&gt;Node4</title>
<path fill="none" stroke="midnightblue" d="M453.675,-491.293C454.704,-499.245 454.995,-509.361 454.545,-518.532"/>
<polygon fill="midnightblue" stroke="midnightblue" points="451.042,-518.417 453.678,-528.679 458.017,-519.013 451.042,-518.417"/>
</g>
<!-- Node8&#45;&gt;Node9 -->
<g id="edge10" class="edge"><title>Node8&#45;&gt;Node9</title>
<path fill="none" stroke="midnightblue" d="M511.772,-460.933C560.573,-450.168 626.853,-435.547 671.411,-425.718"/>
<polygon fill="midnightblue" stroke="midnightblue" points="672.398,-429.085 681.409,-423.513 670.89,-422.249 672.398,-429.085"/>
</g>
<!-- Node9&#45;&gt;Node5 -->
<g id="edge23" class="edge"><title>Node9&#45;&gt;Node5</title>
<path fill="none" stroke="midnightblue" d="M701.293,-404.392C682.383,-395.587 652.407,-381.345 627,-368 556.886,-331.173 476.07,-283.898 437.222,-260.861"/>
<polygon fill="midnightblue" stroke="midnightblue" points="438.666,-257.648 428.282,-255.548 435.09,-263.666 438.666,-257.648"/>
</g>
<!-- Node10 -->
<g id="node10" class="node"><title>Node10</title>
<g id="a_node10"><a xlink:href="Index_8hpp.html" target="_top" xlink:title="Core/Index/Index.hpp">
<polygon fill="white" stroke="black" points="999,-174.5 999,-193.5 1109,-193.5 1109,-174.5 999,-174.5"/>
<text text-anchor="middle" x="1054" y="-181.5" font-family="Helvetica,sans-Serif" font-size="10.00">Core/Index/Index.hpp</text>
</a>
</g>
</g>
<!-- Node9&#45;&gt;Node10 -->
<g id="edge11" class="edge"><title>Node9&#45;&gt;Node10</title>
<path fill="none" stroke="midnightblue" d="M773.854,-404.427C891.348,-384.461 1164.18,-330.81 1214,-256 1240.44,-216.292 1174.29,-198.585 1119.16,-190.828"/>
<polygon fill="midnightblue" stroke="midnightblue" points="1119.39,-187.328 1109.02,-189.492 1118.48,-194.268 1119.39,-187.328"/>
</g>
<!-- Node13 -->
<g id="node13" class="node"><title>Node13</title>
<g id="a_node13"><a xlink:href="IndexedObject_8hpp.html" target="_top" xlink:title="Core/Index/IndexedObject.hpp">
<polygon fill="white" stroke="black" points="868.5,-236.5 868.5,-255.5 1017.5,-255.5 1017.5,-236.5 868.5,-236.5"/>
<text text-anchor="middle" x="943" y="-243.5" font-family="Helvetica,sans-Serif" font-size="10.00">Core/Index/IndexedObject.hpp</text>
</a>
</g>
</g>
<!-- Node9&#45;&gt;Node13 -->
<g id="edge14" class="edge"><title>Node9&#45;&gt;Node13</title>
<path fill="none" stroke="midnightblue" d="M691.202,-404.438C659.653,-393.564 615.904,-373.154 635,-348 670.991,-300.59 707.318,-330.172 764,-312 816.376,-295.209 876.27,-272.792 911.794,-259.152"/>
<polygon fill="midnightblue" stroke="midnightblue" points="913.068,-262.411 921.14,-255.549 910.55,-255.88 913.068,-262.411"/>
</g>
<!-- Node21 -->
<g id="node21" class="node"><title>Node21</title>
<g id="a_node21"><a xlink:href="DCEL_2HalfEdge_8inl.html" target="_top" xlink:title="Core/Mesh/DCEL/HalfEdge.inl">
<polygon fill="white" stroke="black" points="644.5,-348.5 644.5,-367.5 795.5,-367.5 795.5,-348.5 644.5,-348.5"/>
<text text-anchor="middle" x="720" y="-355.5" font-family="Helvetica,sans-Serif" font-size="10.00">Core/Mesh/DCEL/HalfEdge.inl</text>
</a>
</g>
</g>
<!-- Node9&#45;&gt;Node21 -->
<g id="edge24" class="edge"><title>Node9&#45;&gt;Node21</title>
<path fill="none" stroke="midnightblue" d="M714.834,-404.083C713.324,-396.927 712.894,-386.635 713.542,-377.691"/>
<polygon fill="midnightblue" stroke="midnightblue" points="717.015,-378.126 714.869,-367.751 710.077,-377.2 717.015,-378.126"/>
</g>
<!-- Node11 -->
<g id="node11" class="node"><title>Node11</title>
<polygon fill="white" stroke="#bfbfbf" points="989,-112.5 989,-131.5 1029,-131.5 1029,-112.5 989,-112.5"/>
<text text-anchor="middle" x="1009" y="-119.5" font-family="Helvetica,sans-Serif" font-size="10.00">limits</text>
</g>
<!-- Node10&#45;&gt;Node11 -->
<g id="edge12" class="edge"><title>Node10&#45;&gt;Node11</title>
<path fill="none" stroke="midnightblue" d="M1047.55,-174.403C1040.8,-165.403 1030.03,-151.041 1021.59,-139.782"/>
<polygon fill="midnightblue" stroke="midnightblue" points="1024.24,-137.481 1015.44,-131.581 1018.64,-141.681 1024.24,-137.481"/>
</g>
<!-- Node12 -->
<g id="node12" class="node"><title>Node12</title>
<g id="a_node12"><a xlink:href="Index_8inl.html" target="_top" xlink:title="Core/Index/Index.inl">
<polygon fill="white" stroke="black" points="1047,-112.5 1047,-131.5 1151,-131.5 1151,-112.5 1047,-112.5"/>
<text text-anchor="middle" x="1099" y="-119.5" font-family="Helvetica,sans-Serif" font-size="10.00">Core/Index/Index.inl</text>
</a>
</g>
</g>
<!-- Node10&#45;&gt;Node12 -->
<g id="edge13" class="edge"><title>Node10&#45;&gt;Node12</title>
<path fill="none" stroke="midnightblue" d="M1060.45,-174.403C1067.2,-165.403 1077.97,-151.041 1086.41,-139.782"/>
<polygon fill="midnightblue" stroke="midnightblue" points="1089.36,-141.681 1092.56,-131.581 1083.76,-137.481 1089.36,-141.681"/>
</g>
<!-- Node13&#45;&gt;Node10 -->
<g id="edge15" class="edge"><title>Node13&#45;&gt;Node10</title>
<path fill="none" stroke="midnightblue" d="M958.904,-236.403C977.285,-226.468 1007.76,-209.997 1029.24,-198.381"/>
<polygon fill="midnightblue" stroke="midnightblue" points="1030.99,-201.415 1038.13,-193.581 1027.66,-195.257 1030.99,-201.415"/>
</g>
<!-- Node14 -->
<g id="node14" class="node"><title>Node14</title>
<g id="a_node14"><a xlink:href="RaCore_8hpp.html" target="_top" xlink:title="Core/RaCore.hpp">
<polygon fill="white" stroke="black" points="527.5,-112.5 527.5,-131.5 620.5,-131.5 620.5,-112.5 527.5,-112.5"/>
<text text-anchor="middle" x="574" y="-119.5" font-family="Helvetica,sans-Serif" font-size="10.00">Core/RaCore.hpp</text>
</a>
</g>
</g>
<!-- Node13&#45;&gt;Node14 -->
<g id="edge16" class="edge"><title>Node13&#45;&gt;Node14</title>
<path fill="none" stroke="midnightblue" d="M947.581,-236.341C955.201,-220.611 968.042,-187.197 951,-168 930.132,-144.493 731.053,-131.033 630.924,-125.699"/>
<polygon fill="midnightblue" stroke="midnightblue" points="630.847,-122.19 620.678,-125.163 630.481,-129.18 630.847,-122.19"/>
</g>
<!-- Node15 -->
<g id="node15" class="node"><title>Node15</title>
<g id="a_node15"><a xlink:href="CoreMacros_8hpp.html" target="_top" xlink:title="Core/CoreMacros.hpp">
<polygon fill="white" stroke="black" points="517.5,-56.5 517.5,-75.5 630.5,-75.5 630.5,-56.5 517.5,-56.5"/>
<text text-anchor="middle" x="574" y="-63.5" font-family="Helvetica,sans-Serif" font-size="10.00">Core/CoreMacros.hpp</text>
</a>
</g>
</g>
<!-- Node14&#45;&gt;Node15 -->
<g id="edge17" class="edge"><title>Node14&#45;&gt;Node15</title>
<path fill="none" stroke="midnightblue" d="M574,-112.083C574,-105.006 574,-94.8611 574,-85.9865"/>
<polygon fill="midnightblue" stroke="midnightblue" points="577.5,-85.751 574,-75.7511 570.5,-85.7511 577.5,-85.751"/>
</g>
<!-- Node16 -->
<g id="node16" class="node"><title>Node16</title>
<polygon fill="white" stroke="#bfbfbf" points="418.5,-0.5 418.5,-19.5 467.5,-19.5 467.5,-0.5 418.5,-0.5"/>
<text text-anchor="middle" x="443" y="-7.5" font-family="Helvetica,sans-Serif" font-size="10.00">cassert</text>
</g>
<!-- Node15&#45;&gt;Node16 -->
<g id="edge18" class="edge"><title>Node15&#45;&gt;Node16</title>
<path fill="none" stroke="midnightblue" d="M553.243,-56.4435C531.684,-47.5566 497.737,-33.5632 473.206,-23.4514"/>
<polygon fill="midnightblue" stroke="midnightblue" points="474.239,-20.0917 463.66,-19.5164 471.572,-26.5634 474.239,-20.0917"/>
</g>
<!-- Node17 -->
<g id="node17" class="node"><title>Node17</title>
<polygon fill="white" stroke="#bfbfbf" points="485.5,-0.5 485.5,-19.5 528.5,-19.5 528.5,-0.5 485.5,-0.5"/>
<text text-anchor="middle" x="507" y="-7.5" font-family="Helvetica,sans-Serif" font-size="10.00">cstdio</text>
</g>
<!-- Node15&#45;&gt;Node17 -->
<g id="edge19" class="edge"><title>Node15&#45;&gt;Node17</title>
<path fill="none" stroke="midnightblue" d="M563.235,-56.324C553.234,-48.2631 538.113,-36.0765 526.07,-26.3695"/>
<polygon fill="midnightblue" stroke="midnightblue" points="527.943,-23.3841 517.961,-19.8339 523.55,-28.8343 527.943,-23.3841"/>
</g>
<!-- Node18 -->
<g id="node18" class="node"><title>Node18</title>
<polygon fill="white" stroke="#bfbfbf" points="547,-0.5 547,-19.5 601,-19.5 601,-0.5 547,-0.5"/>
<text text-anchor="middle" x="574" y="-7.5" font-family="Helvetica,sans-Serif" font-size="10.00">iostream</text>
</g>
<!-- Node15&#45;&gt;Node18 -->
<g id="edge20" class="edge"><title>Node15&#45;&gt;Node18</title>
<path fill="none" stroke="midnightblue" d="M574,-56.083C574,-49.0059 574,-38.8611 574,-29.9865"/>
<polygon fill="midnightblue" stroke="midnightblue" points="577.5,-29.751 574,-19.7511 570.5,-29.7511 577.5,-29.751"/>
</g>
<!-- Node19 -->
<g id="node19" class="node"><title>Node19</title>
<polygon fill="white" stroke="#bfbfbf" points="619,-0.5 619,-19.5 671,-19.5 671,-0.5 619,-0.5"/>
<text text-anchor="middle" x="645" y="-7.5" font-family="Helvetica,sans-Serif" font-size="10.00">sstream</text>
</g>
<!-- Node15&#45;&gt;Node19 -->
<g id="edge21" class="edge"><title>Node15&#45;&gt;Node19</title>
<path fill="none" stroke="midnightblue" d="M585.407,-56.324C596.109,-48.1849 612.341,-35.8395 625.163,-26.0874"/>
<polygon fill="midnightblue" stroke="midnightblue" points="627.544,-28.6734 633.385,-19.8339 623.307,-23.1018 627.544,-28.6734"/>
</g>
<!-- Node20 -->
<g id="node20" class="node"><title>Node20</title>
<polygon fill="white" stroke="#bfbfbf" points="689,-0.5 689,-19.5 733,-19.5 733,-0.5 689,-0.5"/>
<text text-anchor="middle" x="711" y="-7.5" font-family="Helvetica,sans-Serif" font-size="10.00">thread</text>
</g>
<!-- Node15&#45;&gt;Node20 -->
<g id="edge22" class="edge"><title>Node15&#45;&gt;Node20</title>
<path fill="none" stroke="midnightblue" d="M595.708,-56.4435C618.355,-47.5171 654.072,-33.4387 679.752,-23.3168"/>
<polygon fill="midnightblue" stroke="midnightblue" points="681.374,-26.4397 689.394,-19.5164 678.807,-19.9273 681.374,-26.4397"/>
</g>
<!-- Node21&#45;&gt;Node9 -->
<g id="edge25" class="edge"><title>Node21&#45;&gt;Node9</title>
<path fill="none" stroke="midnightblue" d="M725.131,-367.751C726.657,-374.858 727.104,-385.136 726.472,-394.101"/>
<polygon fill="midnightblue" stroke="midnightblue" points="722.993,-393.713 725.166,-404.083 729.934,-394.622 722.993,-393.713"/>
</g>
<!-- Node22 -->
<g id="node22" class="node"><title>Node22</title>
<g id="a_node22"><a xlink:href="Face_8hpp.html" target="_top" xlink:title="Core/Mesh/DCEL/Face.hpp">
<polygon fill="white" stroke="black" points="899,-292.5 899,-311.5 1037,-311.5 1037,-292.5 899,-292.5"/>
<text text-anchor="middle" x="968" y="-299.5" font-family="Helvetica,sans-Serif" font-size="10.00">Core/Mesh/DCEL/Face.hpp</text>
</a>
</g>
</g>
<!-- Node21&#45;&gt;Node22 -->
<g id="edge26" class="edge"><title>Node21&#45;&gt;Node22</title>
<path fill="none" stroke="midnightblue" d="M759.296,-348.444C802.559,-339.023 872.173,-323.866 918.973,-313.675"/>
<polygon fill="midnightblue" stroke="midnightblue" points="919.861,-317.064 928.888,-311.516 918.372,-310.224 919.861,-317.064"/>
</g>
<!-- Node21&#45;&gt;Node24 -->
<g id="edge33" class="edge"><title>Node21&#45;&gt;Node24</title>
<path fill="none" stroke="midnightblue" d="M713.89,-348.083C708.718,-340.534 701.154,-329.495 694.806,-320.23"/>
<polygon fill="midnightblue" stroke="midnightblue" points="697.536,-318.022 688.996,-311.751 691.761,-321.979 697.536,-318.022"/>
</g>
<!-- Node22&#45;&gt;Node5 -->
<g id="edge29" class="edge"><title>Node22&#45;&gt;Node5</title>
<path fill="none" stroke="midnightblue" d="M898.904,-294.451C809.954,-285.992 650.308,-270.717 503.267,-256.121"/>
<polygon fill="midnightblue" stroke="midnightblue" points="503.449,-252.622 493.152,-255.116 502.757,-259.588 503.449,-252.622"/>
</g>
<!-- Node22&#45;&gt;Node10 -->
<g id="edge27" class="edge"><title>Node22&#45;&gt;Node10</title>
<path fill="none" stroke="midnightblue" d="M983.186,-292.428C996.111,-284.458 1014.38,-271.5 1026,-256 1037.9,-240.132 1045.45,-218.549 1049.68,-203.358"/>
<polygon fill="midnightblue" stroke="midnightblue" points="1053.09,-204.155 1052.18,-193.599 1046.31,-202.417 1053.09,-204.155"/>
</g>
<!-- Node22&#45;&gt;Node13 -->
<g id="edge28" class="edge"><title>Node22&#45;&gt;Node13</title>
<path fill="none" stroke="midnightblue" d="M963.872,-292.083C960.486,-284.77 955.584,-274.181 951.381,-265.103"/>
<polygon fill="midnightblue" stroke="midnightblue" points="954.429,-263.355 947.051,-255.751 948.077,-266.296 954.429,-263.355"/>
</g>
<!-- Node23 -->
<g id="node23" class="node"><title>Node23</title>
<g id="a_node23"><a xlink:href="Face_8inl.html" target="_top" xlink:title="Core/Mesh/DCEL/Face.inl">
<polygon fill="white" stroke="black" points="1073,-236.5 1073,-255.5 1205,-255.5 1205,-236.5 1073,-236.5"/>
<text text-anchor="middle" x="1139" y="-243.5" font-family="Helvetica,sans-Serif" font-size="10.00">Core/Mesh/DCEL/Face.inl</text>
</a>
</g>
</g>
<!-- Node22&#45;&gt;Node23 -->
<g id="edge30" class="edge"><title>Node22&#45;&gt;Node23</title>
<path fill="none" stroke="midnightblue" d="M990.007,-292.444C1017.13,-283.241 1063.44,-268.562 1097.31,-258.388"/>
<polygon fill="midnightblue" stroke="midnightblue" points="1098.37,-261.726 1106.95,-255.516 1096.37,-255.017 1098.37,-261.726"/>
</g>
<!-- Node23&#45;&gt;Node9 -->
<g id="edge32" class="edge"><title>Node23&#45;&gt;Node9</title>
<path fill="none" stroke="midnightblue" d="M1129.06,-255.529C1112.72,-269.168 1078.73,-295.978 1046,-312 954.063,-357.004 837.749,-387.263 771.828,-402.183"/>
<polygon fill="midnightblue" stroke="midnightblue" points="770.689,-398.851 761.692,-404.446 772.214,-405.683 770.689,-398.851"/>
</g>
<!-- Node23&#45;&gt;Node22 -->
<g id="edge31" class="edge"><title>Node23&#45;&gt;Node22</title>
<path fill="none" stroke="midnightblue" d="M1117.11,-255.516C1090.04,-264.703 1043.75,-279.381 1009.83,-289.568"/>
<polygon fill="midnightblue" stroke="midnightblue" points="1008.77,-286.233 1000.18,-292.444 1010.77,-292.942 1008.77,-286.233"/>
</g>
<!-- Node24&#45;&gt;Node5 -->
<g id="edge50" class="edge"><title>Node24&#45;&gt;Node5</title>
<path fill="none" stroke="midnightblue" d="M640.376,-292.444C593.253,-282.984 517.308,-267.738 466.541,-257.547"/>
<polygon fill="midnightblue" stroke="midnightblue" points="466.918,-254.053 456.424,-255.516 465.54,-260.916 466.918,-254.053"/>
</g>
<!-- Node24&#45;&gt;Node10 -->
<g id="edge34" class="edge"><title>Node24&#45;&gt;Node10</title>
<path fill="none" stroke="midnightblue" d="M682.781,-292.294C682.94,-278.154 685.488,-250.337 702,-236 744.216,-199.345 895.671,-208.029 951,-200 963.277,-198.219 976.376,-196.314 988.973,-194.48"/>
<polygon fill="midnightblue" stroke="midnightblue" points="989.552,-197.933 998.944,-193.029 988.544,-191.006 989.552,-197.933"/>
</g>
<!-- Node24&#45;&gt;Node13 -->
<g id="edge35" class="edge"><title>Node24&#45;&gt;Node13</title>
<path fill="none" stroke="midnightblue" d="M724.198,-292.444C769.649,-283.004 842.842,-267.802 891.909,-257.611"/>
<polygon fill="midnightblue" stroke="midnightblue" points="892.916,-260.977 901.995,-255.516 891.492,-254.123 892.916,-260.977"/>
</g>
<!-- Node25 -->
<g id="node25" class="node"><title>Node25</title>
<g id="a_node25"><a xlink:href="LinearAlgebra_8hpp.html" target="_top" xlink:title="Core/Math/LinearAlgebra.hpp">
<polygon fill="white" stroke="black" points="511.5,-236.5 511.5,-255.5 654.5,-255.5 654.5,-236.5 511.5,-236.5"/>
<text text-anchor="middle" x="583" y="-243.5" font-family="Helvetica,sans-Serif" font-size="10.00">Core/Math/LinearAlgebra.hpp</text>
</a>
</g>
</g>
<!-- Node24&#45;&gt;Node25 -->
<g id="edge36" class="edge"><title>Node24&#45;&gt;Node25</title>
<path fill="none" stroke="midnightblue" d="M666.933,-292.324C651.042,-283.743 626.493,-270.486 608.042,-260.522"/>
<polygon fill="midnightblue" stroke="midnightblue" points="609.489,-257.326 599.027,-255.655 606.163,-263.486 609.489,-257.326"/>
</g>
<!-- Node36 -->
<g id="node36" class="node"><title>Node36</title>
<g id="a_node36"><a xlink:href="Vertex_8inl.html" target="_top" xlink:title="Core/Mesh/DCEL/Vertex.inl">
<polygon fill="white" stroke="black" points="711.5,-236.5 711.5,-255.5 850.5,-255.5 850.5,-236.5 711.5,-236.5"/>
<text text-anchor="middle" x="781" y="-243.5" font-family="Helvetica,sans-Serif" font-size="10.00">Core/Mesh/DCEL/Vertex.inl</text>
</a>
</g>
</g>
<!-- Node24&#45;&gt;Node36 -->
<g id="edge51" class="edge"><title>Node24&#45;&gt;Node36</title>
<path fill="none" stroke="midnightblue" d="M693.631,-292.324C707.472,-283.664 731.567,-270.242 751.053,-260.249"/>
<polygon fill="midnightblue" stroke="midnightblue" points="752.824,-263.276 760.184,-255.655 749.677,-257.023 752.824,-263.276"/>
</g>
<!-- Node25&#45;&gt;Node14 -->
<g id="edge37" class="edge"><title>Node25&#45;&gt;Node14</title>
<path fill="none" stroke="midnightblue" d="M582.353,-236.226C580.9,-216.53 577.352,-168.437 575.38,-141.7"/>
<polygon fill="midnightblue" stroke="midnightblue" points="578.868,-141.41 574.641,-131.694 571.887,-141.925 578.868,-141.41"/>
</g>
<!-- Node26 -->
<g id="node26" class="node"><title>Node26</title>
<polygon fill="white" stroke="#bfbfbf" points="602.5,-174.5 602.5,-193.5 667.5,-193.5 667.5,-174.5 602.5,-174.5"/>
<text text-anchor="middle" x="635" y="-181.5" font-family="Helvetica,sans-Serif" font-size="10.00">Eigen/Core</text>
</g>
<!-- Node25&#45;&gt;Node26 -->
<g id="edge38" class="edge"><title>Node25&#45;&gt;Node26</title>
<path fill="none" stroke="midnightblue" d="M590.45,-236.403C598.328,-227.314 610.945,-212.756 620.744,-201.449"/>
<polygon fill="midnightblue" stroke="midnightblue" points="623.659,-203.43 627.563,-193.581 618.369,-198.845 623.659,-203.43"/>
</g>
<!-- Node27 -->
<g id="node27" class="node"><title>Node27</title>
<polygon fill="white" stroke="#bfbfbf" points="685.5,-174.5 685.5,-193.5 772.5,-193.5 772.5,-174.5 685.5,-174.5"/>
<text text-anchor="middle" x="729" y="-181.5" font-family="Helvetica,sans-Serif" font-size="10.00">Eigen/Geometry</text>
</g>
<!-- Node25&#45;&gt;Node27 -->
<g id="edge39" class="edge"><title>Node25&#45;&gt;Node27</title>
<path fill="none" stroke="midnightblue" d="M603.918,-236.403C628.746,-226.2 670.343,-209.105 698.694,-197.454"/>
<polygon fill="midnightblue" stroke="midnightblue" points="700.202,-200.619 708.121,-193.581 697.541,-194.144 700.202,-200.619"/>
</g>
<!-- Node28 -->
<g id="node28" class="node"><title>Node28</title>
<polygon fill="white" stroke="#bfbfbf" points="790.5,-174.5 790.5,-193.5 865.5,-193.5 865.5,-174.5 790.5,-174.5"/>
<text text-anchor="middle" x="828" y="-181.5" font-family="Helvetica,sans-Serif" font-size="10.00">Eigen/Sparse</text>
</g>
<!-- Node25&#45;&gt;Node28 -->
<g id="edge40" class="edge"><title>Node25&#45;&gt;Node28</title>
<path fill="none" stroke="midnightblue" d="M625.36,-236.468C665.628,-228.099 727.774,-214.513 781,-200 784.796,-198.965 788.743,-197.818 792.665,-196.634"/>
<polygon fill="midnightblue" stroke="midnightblue" points="793.75,-199.962 802.26,-193.652 791.672,-193.277 793.75,-199.962"/>
</g>
<!-- Node29 -->
<g id="node29" class="node"><title>Node29</title>
<polygon fill="white" stroke="#bfbfbf" points="883.5,-174.5 883.5,-193.5 942.5,-193.5 942.5,-174.5 883.5,-174.5"/>
<text text-anchor="middle" x="913" y="-181.5" font-family="Helvetica,sans-Serif" font-size="10.00">functional</text>
</g>
<!-- Node25&#45;&gt;Node29 -->
<g id="edge41" class="edge"><title>Node25&#45;&gt;Node29</title>
<path fill="none" stroke="midnightblue" d="M648.778,-236.492C721.15,-226.836 832.69,-211.003 874,-200 877.154,-199.16 880.405,-198.152 883.62,-197.06"/>
<polygon fill="midnightblue" stroke="midnightblue" points="884.838,-200.342 893.03,-193.622 882.436,-193.767 884.838,-200.342"/>
</g>
<!-- Node30 -->
<g id="node30" class="node"><title>Node30</title>
<polygon fill="white" stroke="#bfbfbf" points="132.5,-169 132.5,-199 265.5,-199 265.5,-169 132.5,-169"/>
<text text-anchor="start" x="140.5" y="-187" font-family="Helvetica,sans-Serif" font-size="10.00">unsupported/Eigen/Aligned</text>
<text text-anchor="middle" x="199" y="-176" font-family="Helvetica,sans-Serif" font-size="10.00">Vector3</text>
</g>
<!-- Node25&#45;&gt;Node30 -->
<g id="edge42" class="edge"><title>Node25&#45;&gt;Node30</title>
<path fill="none" stroke="midnightblue" d="M518.255,-236.495C458.082,-228.373 365.723,-215.357 275.795,-200.085"/>
<polygon fill="midnightblue" stroke="midnightblue" points="276.14,-196.593 265.693,-198.358 274.961,-203.493 276.14,-196.593"/>
</g>
<!-- Node31 -->
<g id="node31" class="node"><title>Node31</title>
<g id="a_node31"><a xlink:href="Math_8hpp.html" target="_top" xlink:title="Core/Math/Math.hpp">
<polygon fill="white" stroke="black" points="284,-174.5 284,-193.5 390,-193.5 390,-174.5 284,-174.5"/>
<text text-anchor="middle" x="337" y="-181.5" font-family="Helvetica,sans-Serif" font-size="10.00">Core/Math/Math.hpp</text>
</a>
</g>
</g>
<!-- Node25&#45;&gt;Node31 -->
<g id="edge43" class="edge"><title>Node25&#45;&gt;Node31</title>
<path fill="none" stroke="midnightblue" d="M548.015,-236.467C504.3,-225.805 429.435,-207.545 381.633,-195.886"/>
<polygon fill="midnightblue" stroke="midnightblue" points="382.408,-192.473 371.864,-193.503 380.75,-199.273 382.408,-192.473"/>
</g>
<!-- Node35 -->
<g id="node35" class="node"><title>Node35</title>
<g id="a_node35"><a xlink:href="LinearAlgebra_8inl.html" target="_top" xlink:title="Core/Math/LinearAlgebra.inl">
<polygon fill="white" stroke="black" points="408.5,-174.5 408.5,-193.5 545.5,-193.5 545.5,-174.5 408.5,-174.5"/>
<text text-anchor="middle" x="477" y="-181.5" font-family="Helvetica,sans-Serif" font-size="10.00">Core/Math/LinearAlgebra.inl</text>
</a>
</g>
</g>
<!-- Node25&#45;&gt;Node35 -->
<g id="edge49" class="edge"><title>Node25&#45;&gt;Node35</title>
<path fill="none" stroke="midnightblue" d="M567.813,-236.403C550.338,-226.512 521.421,-210.144 500.917,-198.538"/>
<polygon fill="midnightblue" stroke="midnightblue" points="502.586,-195.461 492.159,-193.581 499.138,-201.553 502.586,-195.461"/>
</g>
<!-- Node31&#45;&gt;Node14 -->
<g id="edge44" class="edge"><title>Node31&#45;&gt;Node14</title>
<path fill="none" stroke="midnightblue" d="M370.705,-174.467C412.733,-163.827 484.645,-145.622 530.711,-133.959"/>
<polygon fill="midnightblue" stroke="midnightblue" points="531.576,-137.351 540.412,-131.503 529.858,-130.565 531.576,-137.351"/>
</g>
<!-- Node32 -->
<g id="node32" class="node"><title>Node32</title>
<polygon fill="white" stroke="#bfbfbf" points="196,-112.5 196,-131.5 252,-131.5 252,-112.5 196,-112.5"/>
<text text-anchor="middle" x="224" y="-119.5" font-family="Helvetica,sans-Serif" font-size="10.00">algorithm</text>
</g>
<!-- Node31&#45;&gt;Node32 -->
<g id="edge45" class="edge"><title>Node31&#45;&gt;Node32</title>
<path fill="none" stroke="midnightblue" d="M320.81,-174.403C302.098,-164.468 271.077,-147.997 249.201,-136.381"/>
<polygon fill="midnightblue" stroke="midnightblue" points="250.634,-133.179 240.16,-131.581 247.351,-139.362 250.634,-133.179"/>
</g>
<!-- Node33 -->
<g id="node33" class="node"><title>Node33</title>
<polygon fill="white" stroke="#bfbfbf" points="270,-112.5 270,-131.5 314,-131.5 314,-112.5 270,-112.5"/>
<text text-anchor="middle" x="292" y="-119.5" font-family="Helvetica,sans-Serif" font-size="10.00">cmath</text>
</g>
<!-- Node31&#45;&gt;Node33 -->
<g id="edge46" class="edge"><title>Node31&#45;&gt;Node33</title>
<path fill="none" stroke="midnightblue" d="M330.553,-174.403C323.803,-165.403 313.031,-151.041 304.587,-139.782"/>
<polygon fill="midnightblue" stroke="midnightblue" points="307.235,-137.481 298.435,-131.581 301.635,-141.681 307.235,-137.481"/>
</g>
<!-- Node34 -->
<g id="node34" class="node"><title>Node34</title>
<g id="a_node34"><a xlink:href="Math_8inl.html" target="_top" xlink:title="Core/Math/Math.inl">
<polygon fill="white" stroke="black" points="332,-112.5 332,-131.5 432,-131.5 432,-112.5 332,-112.5"/>
<text text-anchor="middle" x="382" y="-119.5" font-family="Helvetica,sans-Serif" font-size="10.00">Core/Math/Math.inl</text>
</a>
</g>
</g>
<!-- Node31&#45;&gt;Node34 -->
<g id="edge47" class="edge"><title>Node31&#45;&gt;Node34</title>
<path fill="none" stroke="midnightblue" d="M338.547,-174.403C343.445,-165.225 354.125,-150.47 363.85,-139.117"/>
<polygon fill="midnightblue" stroke="midnightblue" points="366.555,-141.345 370.667,-131.581 361.364,-136.649 366.555,-141.345"/>
</g>
<!-- Node34&#45;&gt;Node31 -->
<g id="edge48" class="edge"><title>Node34&#45;&gt;Node31</title>
<path fill="none" stroke="midnightblue" d="M380.462,-131.581C375.57,-140.752 364.893,-155.506 355.166,-166.863"/>
<polygon fill="midnightblue" stroke="midnightblue" points="352.459,-164.639 348.348,-174.403 357.651,-169.334 352.459,-164.639"/>
</g>
<!-- Node36&#45;&gt;Node9 -->
<g id="edge53" class="edge"><title>Node36&#45;&gt;Node9</title>
<path fill="none" stroke="midnightblue" d="M786.417,-255.623C798.771,-276.495 826.299,-330.758 804,-368 794.851,-383.281 778.541,-393.668 762.712,-400.575"/>
<polygon fill="midnightblue" stroke="midnightblue" points="760.988,-397.493 752.986,-404.438 763.572,-403.999 760.988,-397.493"/>
</g>
<!-- Node36&#45;&gt;Node24 -->
<g id="edge52" class="edge"><title>Node36&#45;&gt;Node24</title>
<path fill="none" stroke="midnightblue" d="M770.404,-255.655C756.58,-264.307 732.489,-277.727 712.995,-287.726"/>
<polygon fill="midnightblue" stroke="midnightblue" points="711.219,-284.702 703.86,-292.324 714.366,-290.954 711.219,-284.702"/>
</g>
<!-- Node37&#45;&gt;Node3 -->
<g id="edge55" class="edge"><title>Node37&#45;&gt;Node3</title>
<path fill="none" stroke="midnightblue" d="M323.203,-559.066C334.135,-567.896 347.169,-579.46 357.522,-589.434"/>
<polygon fill="midnightblue" stroke="midnightblue" points="355.27,-592.129 364.839,-596.679 360.196,-587.155 355.27,-592.129"/>
</g>
<!-- Node37&#45;&gt;Node24 -->
<g id="edge56" class="edge"><title>Node37&#45;&gt;Node24</title>
<path fill="none" stroke="midnightblue" d="M312.813,-528.974C326.392,-511.788 350.851,-482.219 375,-460 436.49,-403.425 451.079,-384.995 526,-348 557.979,-332.21 596.434,-321.072 627.282,-313.828"/>
<polygon fill="midnightblue" stroke="midnightblue" points="628.457,-317.15 637.431,-311.519 626.904,-310.325 628.457,-317.15"/>
</g>
</g>
</svg>
