<?xml version="1.0" encoding="UTF-8" standalone="no"?>
<!DOCTYPE svg PUBLIC "-//W3C//DTD SVG 1.1//EN"
 "http://www.w3.org/Graphics/SVG/1.1/DTD/svg11.dtd">
<!-- Generated by graphviz version 2.36.0 (20140111.2315)
 -->
<!-- Title: /home/travis/build/STORM&#45;IRIT/Radium&#45;Engine/src/Core/Mesh/DCEL/Iterator/Vertex/VVIterator.hpp Pages: 1 -->
<svg width="1226pt" height="726pt"
 viewBox="0.00 0.00 1226.00 726.00" xmlns="http://www.w3.org/2000/svg" xmlns:xlink="http://www.w3.org/1999/xlink">
<g id="graph0" class="graph" transform="scale(1 1) rotate(0) translate(4 722)">
<title>/home/travis/build/STORM&#45;IRIT/Radium&#45;Engine/src/Core/Mesh/DCEL/Iterator/Vertex/VVIterator.hpp</title>
<polygon fill="white" stroke="none" points="-4,4 -4,-722 1222,-722 1222,4 -4,4"/>
<!-- Node1 -->
<g id="node1" class="node"><title>Node1</title>
<polygon fill="#bfbfbf" stroke="black" points="620,-665 620,-717 768,-717 768,-665 620,-665"/>
<text text-anchor="start" x="628" y="-705" font-family="Helvetica,sans-Serif" font-size="10.00">/home/travis/build</text>
<text text-anchor="start" x="628" y="-694" font-family="Helvetica,sans-Serif" font-size="10.00">/STORM&#45;IRIT/Radium&#45;Engine</text>
<text text-anchor="start" x="628" y="-683" font-family="Helvetica,sans-Serif" font-size="10.00">/src/Core/Mesh/DCEL/Iterator</text>
<text text-anchor="middle" x="694" y="-672" font-family="Helvetica,sans-Serif" font-size="10.00">/Vertex/VVIterator.hpp</text>
</g>
<!-- Node2 -->
<g id="node2" class="node"><title>Node2</title>
<g id="a_node2"><a xlink:href="VertexIterator_8hpp.html" target="_top" xlink:title="Core/Mesh/DCEL/Iterator\l/Vertex/VertexIterator.hpp">
<polygon fill="white" stroke="black" points="527.5,-597 527.5,-627 656.5,-627 656.5,-597 527.5,-597"/>
<text text-anchor="start" x="535.5" y="-615" font-family="Helvetica,sans-Serif" font-size="10.00">Core/Mesh/DCEL/Iterator</text>
<text text-anchor="middle" x="592" y="-604" font-family="Helvetica,sans-Serif" font-size="10.00">/Vertex/VertexIterator.hpp</text>
</a>
</g>
</g>
<!-- Node1&#45;&gt;Node2 -->
<g id="edge1" class="edge"><title>Node1&#45;&gt;Node2</title>
<path fill="none" stroke="midnightblue" d="M660.601,-664.787C646.97,-654.497 631.427,-642.764 618.587,-633.07"/>
<polygon fill="midnightblue" stroke="midnightblue" points="620.676,-630.262 610.586,-627.031 616.459,-635.849 620.676,-630.262"/>
</g>
<!-- Node37 -->
<g id="node37" class="node"><title>Node37</title>
<g id="a_node37"><a xlink:href="VVIterator_8inl.html" target="_top" xlink:title="Core/Mesh/DCEL/Iterator\l/Vertex/VVIterator.inl">
<polygon fill="white" stroke="black" points="630,-461 630,-491 758,-491 758,-461 630,-461"/>
<text text-anchor="start" x="638" y="-479" font-family="Helvetica,sans-Serif" font-size="10.00">Core/Mesh/DCEL/Iterator</text>
<text text-anchor="middle" x="694" y="-468" font-family="Helvetica,sans-Serif" font-size="10.00">/Vertex/VVIterator.inl</text>
</a>
</g>
</g>
<!-- Node1&#45;&gt;Node37 -->
<g id="edge56" class="edge"><title>Node1&#45;&gt;Node37</title>
<path fill="none" stroke="midnightblue" d="M689.445,-664.73C686.489,-623.343 686.518,-541.662 689.533,-501.07"/>
<polygon fill="midnightblue" stroke="midnightblue" points="693.028,-501.277 690.437,-491.004 686.056,-500.65 693.028,-501.277"/>
</g>
<!-- Node3 -->
<g id="node3" class="node"><title>Node3</title>
<g id="a_node3"><a xlink:href="Iterator_8hpp.html" target="_top" xlink:title="Core/Mesh/DCEL/Iterator\l/Iterator.hpp">
<polygon fill="white" stroke="black" points="875,-529 875,-559 1003,-559 1003,-529 875,-529"/>
<text text-anchor="start" x="883" y="-547" font-family="Helvetica,sans-Serif" font-size="10.00">Core/Mesh/DCEL/Iterator</text>
<text text-anchor="middle" x="939" y="-536" font-family="Helvetica,sans-Serif" font-size="10.00">/Iterator.hpp</text>
</a>
</g>
</g>
<!-- Node2&#45;&gt;Node3 -->
<g id="edge2" class="edge"><title>Node2&#45;&gt;Node3</title>
<path fill="none" stroke="midnightblue" d="M656.861,-598.663C715.858,-587.442 802.897,-570.887 864.677,-559.136"/>
<polygon fill="midnightblue" stroke="midnightblue" points="865.581,-562.527 874.751,-557.22 864.273,-555.651 865.581,-562.527"/>
</g>
<!-- Node36 -->
<g id="node36" class="node"><title>Node36</title>
<g id="a_node36"><a xlink:href="VertexIterator_8inl.html" target="_top" xlink:title="Core/Mesh/DCEL/Iterator\l/Vertex/VertexIterator.inl">
<polygon fill="white" stroke="black" points="528,-529 528,-559 656,-559 656,-529 528,-529"/>
<text text-anchor="start" x="536" y="-547" font-family="Helvetica,sans-Serif" font-size="10.00">Core/Mesh/DCEL/Iterator</text>
<text text-anchor="middle" x="592" y="-536" font-family="Helvetica,sans-Serif" font-size="10.00">/Vertex/VertexIterator.inl</text>
</a>
</g>
</g>
<!-- Node2&#45;&gt;Node36 -->
<g id="edge53" class="edge"><title>Node2&#45;&gt;Node36</title>
<path fill="none" stroke="midnightblue" d="M586.322,-596.679C585.294,-588.722 585.005,-578.605 585.456,-569.436"/>
<polygon fill="midnightblue" stroke="midnightblue" points="588.959,-569.555 586.325,-559.293 581.984,-568.958 588.959,-569.555"/>
</g>
<!-- Node4 -->
<g id="node4" class="node"><title>Node4</title>
<g id="a_node4"><a xlink:href="Definition_8hpp.html" target="_top" xlink:title="Core/Mesh/DCEL/Definition.hpp">
<polygon fill="white" stroke="black" points="1031,-236.5 1031,-255.5 1189,-255.5 1189,-236.5 1031,-236.5"/>
<text text-anchor="middle" x="1110" y="-243.5" font-family="Helvetica,sans-Serif" font-size="10.00">Core/Mesh/DCEL/Definition.hpp</text>
</a>
</g>
</g>
<!-- Node3&#45;&gt;Node4 -->
<g id="edge3" class="edge"><title>Node3&#45;&gt;Node4</title>
<path fill="none" stroke="midnightblue" d="M981.628,-528.887C1027.82,-510.588 1095,-473.856 1095,-415 1095,-415 1095,-415 1095,-357 1095,-324.502 1101.51,-287.095 1105.95,-265.343"/>
<polygon fill="midnightblue" stroke="midnightblue" points="1109.39,-266.013 1108.04,-255.504 1102.54,-264.559 1109.39,-266.013"/>
</g>
<!-- Node6 -->
<g id="node6" class="node"><title>Node6</title>
<polygon fill="white" stroke="#bfbfbf" points="1174,-174.5 1174,-193.5 1218,-193.5 1218,-174.5 1174,-174.5"/>
<text text-anchor="middle" x="1196" y="-181.5" font-family="Helvetica,sans-Serif" font-size="10.00">vector</text>
</g>
<!-- Node3&#45;&gt;Node6 -->
<g id="edge6" class="edge"><title>Node3&#45;&gt;Node6</title>
<path fill="none" stroke="midnightblue" d="M1003.13,-540.738C1085.23,-534.02 1217,-508.649 1217,-415 1217,-415 1217,-415 1217,-301 1217,-266 1207.63,-225.995 1201.41,-203.292"/>
<polygon fill="midnightblue" stroke="midnightblue" points="1204.76,-202.295 1198.66,-193.634 1198.03,-204.21 1204.76,-202.295"/>
</g>
<!-- Node7 -->
<g id="node7" class="node"><title>Node7</title>
<g id="a_node7"><a xlink:href="Iterator_8inl.html" target="_top" xlink:title="Core/Mesh/DCEL/Iterator\l/Iterator.inl">
<polygon fill="white" stroke="black" points="875,-461 875,-491 1003,-491 1003,-461 875,-461"/>
<text text-anchor="start" x="883" y="-479" font-family="Helvetica,sans-Serif" font-size="10.00">Core/Mesh/DCEL/Iterator</text>
<text text-anchor="middle" x="939" y="-468" font-family="Helvetica,sans-Serif" font-size="10.00">/Iterator.inl</text>
</a>
</g>
</g>
<!-- Node3&#45;&gt;Node7 -->
<g id="edge7" class="edge"><title>Node3&#45;&gt;Node7</title>
<path fill="none" stroke="midnightblue" d="M933.322,-528.679C932.294,-520.722 932.005,-510.605 932.456,-501.436"/>
<polygon fill="midnightblue" stroke="midnightblue" points="935.959,-501.555 933.325,-491.293 928.984,-500.958 935.959,-501.555"/>
</g>
<!-- Node5 -->
<g id="node5" class="node"><title>Node5</title>
<polygon fill="white" stroke="#bfbfbf" points="1084,-174.5 1084,-193.5 1136,-193.5 1136,-174.5 1084,-174.5"/>
<text text-anchor="middle" x="1110" y="-181.5" font-family="Helvetica,sans-Serif" font-size="10.00">memory</text>
</g>
<!-- Node4&#45;&gt;Node5 -->
<g id="edge4" class="edge"><title>Node4&#45;&gt;Node5</title>
<path fill="none" stroke="midnightblue" d="M1110,-236.403C1110,-227.938 1110,-214.728 1110,-203.82"/>
<polygon fill="midnightblue" stroke="midnightblue" points="1113.5,-203.581 1110,-193.581 1106.5,-203.581 1113.5,-203.581"/>
</g>
<!-- Node4&#45;&gt;Node6 -->
<g id="edge5" class="edge"><title>Node4&#45;&gt;Node6</title>
<path fill="none" stroke="midnightblue" d="M1122.32,-236.403C1136.12,-226.78 1158.7,-211.024 1175.23,-199.489"/>
<polygon fill="midnightblue" stroke="midnightblue" points="1177.5,-202.173 1183.7,-193.581 1173.5,-196.432 1177.5,-202.173"/>
</g>
<!-- Node7&#45;&gt;Node3 -->
<g id="edge8" class="edge"><title>Node7&#45;&gt;Node3</title>
<path fill="none" stroke="midnightblue" d="M944.675,-491.293C945.704,-499.245 945.995,-509.361 945.545,-518.532"/>
<polygon fill="midnightblue" stroke="midnightblue" points="942.042,-518.417 944.678,-528.679 949.017,-519.013 942.042,-518.417"/>
</g>
<!-- Node8 -->
<g id="node8" class="node"><title>Node8</title>
<g id="a_node8"><a xlink:href="DCEL_2HalfEdge_8hpp.html" target="_top" xlink:title="Core/Mesh/DCEL/HalfEdge.hpp">
<polygon fill="white" stroke="black" points="760.5,-404.5 760.5,-423.5 917.5,-423.5 917.5,-404.5 760.5,-404.5"/>
<text text-anchor="middle" x="839" y="-411.5" font-family="Helvetica,sans-Serif" font-size="10.00">Core/Mesh/DCEL/HalfEdge.hpp</text>
</a>
</g>
</g>
<!-- Node7&#45;&gt;Node8 -->
<g id="edge9" class="edge"><title>Node7&#45;&gt;Node8</title>
<path fill="none" stroke="midnightblue" d="M915.554,-460.933C899.436,-451.262 878.132,-438.479 862.091,-428.855"/>
<polygon fill="midnightblue" stroke="midnightblue" points="863.709,-425.744 853.333,-423.6 860.108,-431.746 863.709,-425.744"/>
</g>
<!-- Node8&#45;&gt;Node4 -->
<g id="edge22" class="edge"><title>Node8&#45;&gt;Node4</title>
<path fill="none" stroke="midnightblue" d="M917.616,-404.665C950.381,-398.378 987.568,-387.348 1017,-368 1037.98,-354.21 1078.85,-294.539 1098.68,-264.465"/>
<polygon fill="midnightblue" stroke="midnightblue" points="1101.78,-266.121 1104.32,-255.836 1095.92,-262.288 1101.78,-266.121"/>
</g>
<!-- Node9 -->
<g id="node9" class="node"><title>Node9</title>
<g id="a_node9"><a xlink:href="Index_8hpp.html" target="_top" xlink:title="Core/Index/Index.hpp">
<polygon fill="white" stroke="black" points="865,-174.5 865,-193.5 975,-193.5 975,-174.5 865,-174.5"/>
<text text-anchor="middle" x="920" y="-181.5" font-family="Helvetica,sans-Serif" font-size="10.00">Core/Index/Index.hpp</text>
</a>
</g>
</g>
<!-- Node8&#45;&gt;Node9 -->
<g id="edge10" class="edge"><title>Node8&#45;&gt;Node9</title>
<path fill="none" stroke="midnightblue" d="M875.701,-404.424C897.215,-397.715 923.515,-386.362 941,-368 977.77,-329.386 974.282,-308.427 984,-256 985.62,-247.26 987.858,-244.008 984,-236 976.26,-219.936 960.727,-207.365 946.901,-198.723"/>
<polygon fill="midnightblue" stroke="midnightblue" points="948.562,-195.639 938.162,-193.614 945.029,-201.682 948.562,-195.639"/>
</g>
<!-- Node12 -->
<g id="node12" class="node"><title>Node12</title>
<g id="a_node12"><a xlink:href="IndexedObject_8hpp.html" target="_top" xlink:title="Core/Index/IndexedObject.hpp">
<polygon fill="white" stroke="black" points="638.5,-236.5 638.5,-255.5 787.5,-255.5 787.5,-236.5 638.5,-236.5"/>
<text text-anchor="middle" x="713" y="-243.5" font-family="Helvetica,sans-Serif" font-size="10.00">Core/Index/IndexedObject.hpp</text>
</a>
</g>
</g>
<!-- Node8&#45;&gt;Node12 -->
<g id="edge13" class="edge"><title>Node8&#45;&gt;Node12</title>
<path fill="none" stroke="midnightblue" d="M811.393,-404.467C792.812,-397.42 769.046,-385.672 754,-368 728.449,-337.989 718.615,-291.339 714.989,-265.61"/>
<polygon fill="midnightblue" stroke="midnightblue" points="718.463,-265.177 713.757,-255.685 711.516,-266.04 718.463,-265.177"/>
</g>
<!-- Node20 -->
<g id="node20" class="node"><title>Node20</title>
<g id="a_node20"><a xlink:href="DCEL_2HalfEdge_8inl.html" target="_top" xlink:title="Core/Mesh/DCEL/HalfEdge.inl">
<polygon fill="white" stroke="black" points="763.5,-348.5 763.5,-367.5 914.5,-367.5 914.5,-348.5 763.5,-348.5"/>
<text text-anchor="middle" x="839" y="-355.5" font-family="Helvetica,sans-Serif" font-size="10.00">Core/Mesh/DCEL/HalfEdge.inl</text>
</a>
</g>
</g>
<!-- Node8&#45;&gt;Node20 -->
<g id="edge23" class="edge"><title>Node8&#45;&gt;Node20</title>
<path fill="none" stroke="midnightblue" d="M833.834,-404.083C832.324,-396.927 831.894,-386.635 832.542,-377.691"/>
<polygon fill="midnightblue" stroke="midnightblue" points="836.015,-378.126 833.869,-367.751 829.077,-377.2 836.015,-378.126"/>
</g>
<!-- Node10 -->
<g id="node10" class="node"><title>Node10</title>
<polygon fill="white" stroke="#bfbfbf" points="900,-112.5 900,-131.5 940,-131.5 940,-112.5 900,-112.5"/>
<text text-anchor="middle" x="920" y="-119.5" font-family="Helvetica,sans-Serif" font-size="10.00">limits</text>
</g>
<!-- Node9&#45;&gt;Node10 -->
<g id="edge11" class="edge"><title>Node9&#45;&gt;Node10</title>
<path fill="none" stroke="midnightblue" d="M920,-174.403C920,-165.938 920,-152.728 920,-141.82"/>
<polygon fill="midnightblue" stroke="midnightblue" points="923.5,-141.581 920,-131.581 916.5,-141.581 923.5,-141.581"/>
</g>
<!-- Node11 -->
<g id="node11" class="node"><title>Node11</title>
<g id="a_node11"><a xlink:href="Index_8inl.html" target="_top" xlink:title="Core/Index/Index.inl">
<polygon fill="white" stroke="black" points="958,-112.5 958,-131.5 1062,-131.5 1062,-112.5 958,-112.5"/>
<text text-anchor="middle" x="1010" y="-119.5" font-family="Helvetica,sans-Serif" font-size="10.00">Core/Index/Index.inl</text>
</a>
</g>
</g>
<!-- Node9&#45;&gt;Node11 -->
<g id="edge12" class="edge"><title>Node9&#45;&gt;Node11</title>
<path fill="none" stroke="midnightblue" d="M932.895,-174.403C947.464,-164.691 971.402,-148.732 988.745,-137.17"/>
<polygon fill="midnightblue" stroke="midnightblue" points="990.75,-140.04 997.129,-131.581 986.867,-134.215 990.75,-140.04"/>
</g>
<!-- Node12&#45;&gt;Node9 -->
<g id="edge14" class="edge"><title>Node12&#45;&gt;Node9</title>
<path fill="none" stroke="midnightblue" d="M742.658,-236.403C778.934,-225.889 840.464,-208.054 880.664,-196.402"/>
<polygon fill="midnightblue" stroke="midnightblue" points="881.767,-199.726 890.397,-193.581 879.818,-193.003 881.767,-199.726"/>
</g>
<!-- Node13 -->
<g id="node13" class="node"><title>Node13</title>
<g id="a_node13"><a xlink:href="RaCore_8hpp.html" target="_top" xlink:title="Core/RaCore.hpp">
<polygon fill="white" stroke="black" points="535.5,-112.5 535.5,-131.5 628.5,-131.5 628.5,-112.5 535.5,-112.5"/>
<text text-anchor="middle" x="582" y="-119.5" font-family="Helvetica,sans-Serif" font-size="10.00">Core/RaCore.hpp</text>
</a>
</g>
</g>
<!-- Node12&#45;&gt;Node13 -->
<g id="edge15" class="edge"><title>Node12&#45;&gt;Node13</title>
<path fill="none" stroke="midnightblue" d="M713.147,-236.219C712.938,-220.589 710.301,-187.731 693,-168 678.744,-151.742 657.756,-141.267 637.856,-134.56"/>
<polygon fill="midnightblue" stroke="midnightblue" points="638.797,-131.187 628.209,-131.561 636.719,-137.872 638.797,-131.187"/>
</g>
<!-- Node14 -->
<g id="node14" class="node"><title>Node14</title>
<g id="a_node14"><a xlink:href="CoreMacros_8hpp.html" target="_top" xlink:title="Core/CoreMacros.hpp">
<polygon fill="white" stroke="black" points="525.5,-56.5 525.5,-75.5 638.5,-75.5 638.5,-56.5 525.5,-56.5"/>
<text text-anchor="middle" x="582" y="-63.5" font-family="Helvetica,sans-Serif" font-size="10.00">Core/CoreMacros.hpp</text>
</a>
</g>
</g>
<!-- Node13&#45;&gt;Node14 -->
<g id="edge16" class="edge"><title>Node13&#45;&gt;Node14</title>
<path fill="none" stroke="midnightblue" d="M582,-112.083C582,-105.006 582,-94.8611 582,-85.9865"/>
<polygon fill="midnightblue" stroke="midnightblue" points="585.5,-85.751 582,-75.7511 578.5,-85.7511 585.5,-85.751"/>
</g>
<!-- Node15 -->
<g id="node15" class="node"><title>Node15</title>
<polygon fill="white" stroke="#bfbfbf" points="426.5,-0.5 426.5,-19.5 475.5,-19.5 475.5,-0.5 426.5,-0.5"/>
<text text-anchor="middle" x="451" y="-7.5" font-family="Helvetica,sans-Serif" font-size="10.00">cassert</text>
</g>
<!-- Node14&#45;&gt;Node15 -->
<g id="edge17" class="edge"><title>Node14&#45;&gt;Node15</title>
<path fill="none" stroke="midnightblue" d="M561.243,-56.4435C539.684,-47.5566 505.737,-33.5632 481.206,-23.4514"/>
<polygon fill="midnightblue" stroke="midnightblue" points="482.239,-20.0917 471.66,-19.5164 479.572,-26.5634 482.239,-20.0917"/>
</g>
<!-- Node16 -->
<g id="node16" class="node"><title>Node16</title>
<polygon fill="white" stroke="#bfbfbf" points="493.5,-0.5 493.5,-19.5 536.5,-19.5 536.5,-0.5 493.5,-0.5"/>
<text text-anchor="middle" x="515" y="-7.5" font-family="Helvetica,sans-Serif" font-size="10.00">cstdio</text>
</g>
<!-- Node14&#45;&gt;Node16 -->
<g id="edge18" class="edge"><title>Node14&#45;&gt;Node16</title>
<path fill="none" stroke="midnightblue" d="M571.235,-56.324C561.234,-48.2631 546.113,-36.0765 534.07,-26.3695"/>
<polygon fill="midnightblue" stroke="midnightblue" points="535.943,-23.3841 525.961,-19.8339 531.55,-28.8343 535.943,-23.3841"/>
</g>
<!-- Node17 -->
<g id="node17" class="node"><title>Node17</title>
<polygon fill="white" stroke="#bfbfbf" points="555,-0.5 555,-19.5 609,-19.5 609,-0.5 555,-0.5"/>
<text text-anchor="middle" x="582" y="-7.5" font-family="Helvetica,sans-Serif" font-size="10.00">iostream</text>
</g>
<!-- Node14&#45;&gt;Node17 -->
<g id="edge19" class="edge"><title>Node14&#45;&gt;Node17</title>
<path fill="none" stroke="midnightblue" d="M582,-56.083C582,-49.0059 582,-38.8611 582,-29.9865"/>
<polygon fill="midnightblue" stroke="midnightblue" points="585.5,-29.751 582,-19.7511 578.5,-29.7511 585.5,-29.751"/>
</g>
<!-- Node18 -->
<g id="node18" class="node"><title>Node18</title>
<polygon fill="white" stroke="#bfbfbf" points="627,-0.5 627,-19.5 679,-19.5 679,-0.5 627,-0.5"/>
<text text-anchor="middle" x="653" y="-7.5" font-family="Helvetica,sans-Serif" font-size="10.00">sstream</text>
</g>
<!-- Node14&#45;&gt;Node18 -->
<g id="edge20" class="edge"><title>Node14&#45;&gt;Node18</title>
<path fill="none" stroke="midnightblue" d="M593.407,-56.324C604.109,-48.1849 620.341,-35.8395 633.163,-26.0874"/>
<polygon fill="midnightblue" stroke="midnightblue" points="635.544,-28.6734 641.385,-19.8339 631.307,-23.1018 635.544,-28.6734"/>
</g>
<!-- Node19 -->
<g id="node19" class="node"><title>Node19</title>
<polygon fill="white" stroke="#bfbfbf" points="697,-0.5 697,-19.5 741,-19.5 741,-0.5 697,-0.5"/>
<text text-anchor="middle" x="719" y="-7.5" font-family="Helvetica,sans-Serif" font-size="10.00">thread</text>
</g>
<!-- Node14&#45;&gt;Node19 -->
<g id="edge21" class="edge"><title>Node14&#45;&gt;Node19</title>
<path fill="none" stroke="midnightblue" d="M603.708,-56.4435C626.355,-47.5171 662.072,-33.4387 687.752,-23.3168"/>
<polygon fill="midnightblue" stroke="midnightblue" points="689.374,-26.4397 697.394,-19.5164 686.807,-19.9273 689.374,-26.4397"/>
</g>
<!-- Node20&#45;&gt;Node8 -->
<g id="edge24" class="edge"><title>Node20&#45;&gt;Node8</title>
<path fill="none" stroke="midnightblue" d="M844.131,-367.751C845.657,-374.858 846.104,-385.136 845.472,-394.101"/>
<polygon fill="midnightblue" stroke="midnightblue" points="841.993,-393.713 844.166,-404.083 848.934,-394.622 841.993,-393.713"/>
</g>
<!-- Node21 -->
<g id="node21" class="node"><title>Node21</title>
<g id="a_node21"><a xlink:href="Face_8hpp.html" target="_top" xlink:title="Core/Mesh/DCEL/Face.hpp">
<polygon fill="white" stroke="black" points="773,-292.5 773,-311.5 911,-311.5 911,-292.5 773,-292.5"/>
<text text-anchor="middle" x="842" y="-299.5" font-family="Helvetica,sans-Serif" font-size="10.00">Core/Mesh/DCEL/Face.hpp</text>
</a>
</g>
</g>
<!-- Node20&#45;&gt;Node21 -->
<g id="edge25" class="edge"><title>Node20&#45;&gt;Node21</title>
<path fill="none" stroke="midnightblue" d="M839.495,-348.083C839.889,-341.006 840.452,-330.861 840.945,-321.986"/>
<polygon fill="midnightblue" stroke="midnightblue" points="844.454,-321.93 841.514,-311.751 837.464,-321.542 844.454,-321.93"/>
</g>
<!-- Node23 -->
<g id="node23" class="node"><title>Node23</title>
<g id="a_node23"><a xlink:href="Vertex_8hpp.html" target="_top" xlink:title="Core/Mesh/DCEL/Vertex.hpp">
<polygon fill="white" stroke="black" points="561.5,-292.5 561.5,-311.5 706.5,-311.5 706.5,-292.5 561.5,-292.5"/>
<text text-anchor="middle" x="634" y="-299.5" font-family="Helvetica,sans-Serif" font-size="10.00">Core/Mesh/DCEL/Vertex.hpp</text>
</a>
</g>
</g>
<!-- Node20&#45;&gt;Node23 -->
<g id="edge32" class="edge"><title>Node20&#45;&gt;Node23</title>
<path fill="none" stroke="midnightblue" d="M806.517,-348.444C771.28,-339.162 714.896,-324.309 676.241,-314.127"/>
<polygon fill="midnightblue" stroke="midnightblue" points="676.893,-310.679 666.331,-311.516 675.109,-317.448 676.893,-310.679"/>
</g>
<!-- Node21&#45;&gt;Node4 -->
<g id="edge28" class="edge"><title>Node21&#45;&gt;Node4</title>
<path fill="none" stroke="midnightblue" d="M884.465,-292.444C931.413,-282.984 1007.08,-267.738 1057.65,-257.547"/>
<polygon fill="midnightblue" stroke="midnightblue" points="1058.62,-260.923 1067.73,-255.516 1057.24,-254.061 1058.62,-260.923"/>
</g>
<!-- Node21&#45;&gt;Node9 -->
<g id="edge26" class="edge"><title>Node21&#45;&gt;Node9</title>
<path fill="none" stroke="midnightblue" d="M837.814,-292.354C832.122,-279.248 823.758,-253.981 834,-236 844.294,-217.928 863.789,-205.601 881.619,-197.6"/>
<polygon fill="midnightblue" stroke="midnightblue" points="883.388,-200.656 891.284,-193.591 880.706,-194.19 883.388,-200.656"/>
</g>
<!-- Node21&#45;&gt;Node12 -->
<g id="edge27" class="edge"><title>Node21&#45;&gt;Node12</title>
<path fill="none" stroke="midnightblue" d="M821.56,-292.444C800.33,-283.557 766.901,-269.563 742.745,-259.451"/>
<polygon fill="midnightblue" stroke="midnightblue" points="743.921,-256.149 733.345,-255.516 741.218,-262.606 743.921,-256.149"/>
</g>
<!-- Node22 -->
<g id="node22" class="node"><title>Node22</title>
<g id="a_node22"><a xlink:href="Face_8inl.html" target="_top" xlink:title="Core/Mesh/DCEL/Face.inl">
<polygon fill="white" stroke="black" points="843,-236.5 843,-255.5 975,-255.5 975,-236.5 843,-236.5"/>
<text text-anchor="middle" x="909" y="-243.5" font-family="Helvetica,sans-Serif" font-size="10.00">Core/Mesh/DCEL/Face.inl</text>
</a>
</g>
</g>
<!-- Node21&#45;&gt;Node22 -->
<g id="edge29" class="edge"><title>Node21&#45;&gt;Node22</title>
<path fill="none" stroke="midnightblue" d="M847.65,-292.324C856.116,-284.058 871.435,-271.453 884.769,-261.632"/>
<polygon fill="midnightblue" stroke="midnightblue" points="887.042,-264.31 893.152,-255.655 882.978,-258.611 887.042,-264.31"/>
</g>
<!-- Node22&#45;&gt;Node8 -->
<g id="edge31" class="edge"><title>Node22&#45;&gt;Node8</title>
<path fill="none" stroke="midnightblue" d="M913.387,-255.675C923.328,-276.665 945.052,-331.169 923,-368 913.851,-383.281 897.541,-393.668 881.712,-400.575"/>
<polygon fill="midnightblue" stroke="midnightblue" points="879.988,-397.493 871.986,-404.438 882.572,-403.999 879.988,-397.493"/>
</g>
<!-- Node22&#45;&gt;Node21 -->
<g id="edge30" class="edge"><title>Node22&#45;&gt;Node21</title>
<path fill="none" stroke="midnightblue" d="M903.188,-255.834C894.686,-264.106 879.467,-276.62 866.214,-286.38"/>
<polygon fill="midnightblue" stroke="midnightblue" points="863.989,-283.668 857.88,-292.324 868.054,-289.367 863.989,-283.668"/>
</g>
<!-- Node23&#45;&gt;Node4 -->
<g id="edge49" class="edge"><title>Node23&#45;&gt;Node4</title>
<path fill="none" stroke="midnightblue" d="M706.553,-292.769C792.094,-283.065 934.069,-266.959 1024.77,-256.669"/>
<polygon fill="midnightblue" stroke="midnightblue" points="1025.21,-260.142 1034.75,-255.537 1024.42,-253.186 1025.21,-260.142"/>
</g>
<!-- Node23&#45;&gt;Node9 -->
<g id="edge33" class="edge"><title>Node23&#45;&gt;Node9</title>
<path fill="none" stroke="midnightblue" d="M629.828,-292.227C623.979,-278.49 615.482,-251.842 629,-236 662.011,-197.315 805.083,-209.723 855,-200 861.568,-198.721 868.483,-197.254 875.253,-195.751"/>
<polygon fill="midnightblue" stroke="midnightblue" points="876.032,-199.164 885.011,-193.54 874.485,-192.337 876.032,-199.164"/>
</g>
<!-- Node23&#45;&gt;Node12 -->
<g id="edge34" class="edge"><title>Node23&#45;&gt;Node12</title>
<path fill="none" stroke="midnightblue" d="M646.693,-292.324C658.901,-283.979 677.578,-271.212 692.003,-261.352"/>
<polygon fill="midnightblue" stroke="midnightblue" points="694.058,-264.187 700.339,-255.655 690.108,-258.408 694.058,-264.187"/>
</g>
<!-- Node24 -->
<g id="node24" class="node"><title>Node24</title>
<g id="a_node24"><a xlink:href="LinearAlgebra_8hpp.html" target="_top" xlink:title="Core/Math/LinearAlgebra.hpp">
<polygon fill="white" stroke="black" points="439.5,-236.5 439.5,-255.5 582.5,-255.5 582.5,-236.5 439.5,-236.5"/>
<text text-anchor="middle" x="511" y="-243.5" font-family="Helvetica,sans-Serif" font-size="10.00">Core/Math/LinearAlgebra.hpp</text>
</a>
</g>
</g>
<!-- Node23&#45;&gt;Node24 -->
<g id="edge35" class="edge"><title>Node23&#45;&gt;Node24</title>
<path fill="none" stroke="midnightblue" d="M614.51,-292.444C594.358,-283.596 562.677,-269.687 539.669,-259.586"/>
<polygon fill="midnightblue" stroke="midnightblue" points="540.962,-256.332 530.399,-255.516 538.148,-262.741 540.962,-256.332"/>
</g>
<!-- Node35 -->
<g id="node35" class="node"><title>Node35</title>
<g id="a_node35"><a xlink:href="Vertex_8inl.html" target="_top" xlink:title="Core/Mesh/DCEL/Vertex.inl">
<polygon fill="white" stroke="black" points="282.5,-236.5 282.5,-255.5 421.5,-255.5 421.5,-236.5 282.5,-236.5"/>
<text text-anchor="middle" x="352" y="-243.5" font-family="Helvetica,sans-Serif" font-size="10.00">Core/Mesh/DCEL/Vertex.inl</text>
</a>
</g>
</g>
<!-- Node23&#45;&gt;Node35 -->
<g id="edge50" class="edge"><title>Node23&#45;&gt;Node35</title>
<path fill="none" stroke="midnightblue" d="M584.227,-292.444C532.645,-282.964 452.673,-267.675 401.276,-257.483"/>
<polygon fill="midnightblue" stroke="midnightblue" points="401.886,-254.036 391.395,-255.516 400.519,-260.902 401.886,-254.036"/>
</g>
<!-- Node24&#45;&gt;Node13 -->
<g id="edge36" class="edge"><title>Node24&#45;&gt;Node13</title>
<path fill="none" stroke="midnightblue" d="M444.148,-236.472C400.275,-229.345 348.588,-217.5 335,-200 326.277,-188.767 325.889,-178.921 335,-168 358.755,-139.526 460.044,-129.023 525.309,-125.181"/>
<polygon fill="midnightblue" stroke="midnightblue" points="525.665,-128.667 535.457,-124.62 525.279,-121.678 525.665,-128.667"/>
</g>
<!-- Node25 -->
<g id="node25" class="node"><title>Node25</title>
<polygon fill="white" stroke="#bfbfbf" points="344.5,-174.5 344.5,-193.5 409.5,-193.5 409.5,-174.5 344.5,-174.5"/>
<text text-anchor="middle" x="377" y="-181.5" font-family="Helvetica,sans-Serif" font-size="10.00">Eigen/Core</text>
</g>
<!-- Node24&#45;&gt;Node25 -->
<g id="edge37" class="edge"><title>Node24&#45;&gt;Node25</title>
<path fill="none" stroke="midnightblue" d="M491.801,-236.403C469.213,-226.29 431.501,-209.404 405.499,-197.761"/>
<polygon fill="midnightblue" stroke="midnightblue" points="406.721,-194.473 396.163,-193.581 403.86,-200.862 406.721,-194.473"/>
</g>
<!-- Node26 -->
<g id="node26" class="node"><title>Node26</title>
<polygon fill="white" stroke="#bfbfbf" points="427.5,-174.5 427.5,-193.5 514.5,-193.5 514.5,-174.5 427.5,-174.5"/>
<text text-anchor="middle" x="471" y="-181.5" font-family="Helvetica,sans-Serif" font-size="10.00">Eigen/Geometry</text>
</g>
<!-- Node24&#45;&gt;Node26 -->
<g id="edge38" class="edge"><title>Node24&#45;&gt;Node26</title>
<path fill="none" stroke="midnightblue" d="M505.269,-236.403C499.328,-227.493 489.883,-213.325 482.412,-202.118"/>
<polygon fill="midnightblue" stroke="midnightblue" points="485.18,-199.96 476.72,-193.581 479.355,-203.843 485.18,-199.96"/>
</g>
<!-- Node27 -->
<g id="node27" class="node"><title>Node27</title>
<polygon fill="white" stroke="#bfbfbf" points="532.5,-174.5 532.5,-193.5 607.5,-193.5 607.5,-174.5 532.5,-174.5"/>
<text text-anchor="middle" x="570" y="-181.5" font-family="Helvetica,sans-Serif" font-size="10.00">Eigen/Sparse</text>
</g>
<!-- Node24&#45;&gt;Node27 -->
<g id="edge39" class="edge"><title>Node24&#45;&gt;Node27</title>
<path fill="none" stroke="midnightblue" d="M519.453,-236.403C528.566,-227.136 543.27,-212.183 554.476,-200.788"/>
<polygon fill="midnightblue" stroke="midnightblue" points="557.047,-203.165 561.562,-193.581 552.055,-198.257 557.047,-203.165"/>
</g>
<!-- Node28 -->
<g id="node28" class="node"><title>Node28</title>
<polygon fill="white" stroke="#bfbfbf" points="625.5,-174.5 625.5,-193.5 684.5,-193.5 684.5,-174.5 625.5,-174.5"/>
<text text-anchor="middle" x="655" y="-181.5" font-family="Helvetica,sans-Serif" font-size="10.00">functional</text>
</g>
<!-- Node24&#45;&gt;Node28 -->
<g id="edge40" class="edge"><title>Node24&#45;&gt;Node28</title>
<path fill="none" stroke="midnightblue" d="M531.632,-236.403C556.119,-226.2 597.147,-209.105 625.109,-197.454"/>
<polygon fill="midnightblue" stroke="midnightblue" points="626.522,-200.658 634.407,-193.581 623.83,-194.196 626.522,-200.658"/>
</g>
<!-- Node29 -->
<g id="node29" class="node"><title>Node29</title>
<polygon fill="white" stroke="#bfbfbf" points="-0.5,-169 -0.5,-199 132.5,-199 132.5,-169 -0.5,-169"/>
<text text-anchor="start" x="7.5" y="-187" font-family="Helvetica,sans-Serif" font-size="10.00">unsupported/Eigen/Aligned</text>
<text text-anchor="middle" x="66" y="-176" font-family="Helvetica,sans-Serif" font-size="10.00">Vector3</text>
</g>
<!-- Node24&#45;&gt;Node29 -->
<g id="edge41" class="edge"><title>Node24&#45;&gt;Node29</title>
<path fill="none" stroke="midnightblue" d="M439.325,-236.943C352.848,-227.112 211.411,-210.658 142.612,-200.163"/>
<polygon fill="midnightblue" stroke="midnightblue" points="143.03,-196.686 132.609,-198.596 141.946,-203.602 143.03,-196.686"/>
</g>
<!-- Node30 -->
<g id="node30" class="node"><title>Node30</title>
<g id="a_node30"><a xlink:href="Math_8hpp.html" target="_top" xlink:title="Core/Math/Math.hpp">
<polygon fill="white" stroke="black" points="741,-174.5 741,-193.5 847,-193.5 847,-174.5 741,-174.5"/>
<text text-anchor="middle" x="794" y="-181.5" font-family="Helvetica,sans-Serif" font-size="10.00">Core/Math/Math.hpp</text>
</a>
</g>
</g>
<!-- Node24&#45;&gt;Node30 -->
<g id="edge42" class="edge"><title>Node24&#45;&gt;Node30</title>
<path fill="none" stroke="midnightblue" d="M551.246,-236.467C601.958,-225.716 689.106,-207.239 744.028,-195.595"/>
<polygon fill="midnightblue" stroke="midnightblue" points="744.836,-199.001 753.892,-193.503 743.384,-192.154 744.836,-199.001"/>
</g>
<!-- Node34 -->
<g id="node34" class="node"><title>Node34</title>
<g id="a_node34"><a xlink:href="LinearAlgebra_8inl.html" target="_top" xlink:title="Core/Math/LinearAlgebra.inl">
<polygon fill="white" stroke="black" points="150.5,-174.5 150.5,-193.5 287.5,-193.5 287.5,-174.5 150.5,-174.5"/>
<text text-anchor="middle" x="219" y="-181.5" font-family="Helvetica,sans-Serif" font-size="10.00">Core/Math/LinearAlgebra.inl</text>
</a>
</g>
</g>
<!-- Node24&#45;&gt;Node34 -->
<g id="edge48" class="edge"><title>Node24&#45;&gt;Node34</title>
<path fill="none" stroke="midnightblue" d="M469.474,-236.467C417.041,-225.693 326.857,-207.162 270.209,-195.522"/>
<polygon fill="midnightblue" stroke="midnightblue" points="270.883,-192.088 260.383,-193.503 269.474,-198.945 270.883,-192.088"/>
</g>
<!-- Node30&#45;&gt;Node13 -->
<g id="edge43" class="edge"><title>Node30&#45;&gt;Node13</title>
<path fill="none" stroke="midnightblue" d="M763.626,-174.403C726.394,-163.866 663.19,-145.978 622.024,-134.328"/>
<polygon fill="midnightblue" stroke="midnightblue" points="622.893,-130.936 612.318,-131.581 620.987,-137.672 622.893,-130.936"/>
</g>
<!-- Node31 -->
<g id="node31" class="node"><title>Node31</title>
<polygon fill="white" stroke="#bfbfbf" points="646,-112.5 646,-131.5 702,-131.5 702,-112.5 646,-112.5"/>
<text text-anchor="middle" x="674" y="-119.5" font-family="Helvetica,sans-Serif" font-size="10.00">algorithm</text>
</g>
<!-- Node30&#45;&gt;Node31 -->
<g id="edge44" class="edge"><title>Node30&#45;&gt;Node31</title>
<path fill="none" stroke="midnightblue" d="M776.807,-174.403C756.757,-164.379 723.401,-147.701 700.14,-136.07"/>
<polygon fill="midnightblue" stroke="midnightblue" points="701.671,-132.922 691.161,-131.581 698.54,-139.183 701.671,-132.922"/>
</g>
<!-- Node32 -->
<g id="node32" class="node"><title>Node32</title>
<polygon fill="white" stroke="#bfbfbf" points="720,-112.5 720,-131.5 764,-131.5 764,-112.5 720,-112.5"/>
<text text-anchor="middle" x="742" y="-119.5" font-family="Helvetica,sans-Serif" font-size="10.00">cmath</text>
</g>
<!-- Node30&#45;&gt;Node32 -->
<g id="edge45" class="edge"><title>Node30&#45;&gt;Node32</title>
<path fill="none" stroke="midnightblue" d="M786.55,-174.403C778.672,-165.314 766.055,-150.756 756.256,-139.449"/>
<polygon fill="midnightblue" stroke="midnightblue" points="758.631,-136.845 749.437,-131.581 753.341,-141.43 758.631,-136.845"/>
</g>
<!-- Node33 -->
<g id="node33" class="node"><title>Node33</title>
<g id="a_node33"><a xlink:href="Math_8inl.html" target="_top" xlink:title="Core/Math/Math.inl">
<polygon fill="white" stroke="black" points="782,-112.5 782,-131.5 882,-131.5 882,-112.5 782,-112.5"/>
<text text-anchor="middle" x="832" y="-119.5" font-family="Helvetica,sans-Serif" font-size="10.00">Core/Math/Math.inl</text>
</a>
</g>
</g>
<!-- Node30&#45;&gt;Node33 -->
<g id="edge46" class="edge"><title>Node30&#45;&gt;Node33</title>
<path fill="none" stroke="midnightblue" d="M794.544,-174.403C798.334,-165.314 807.156,-150.756 815.486,-139.449"/>
<polygon fill="midnightblue" stroke="midnightblue" points="818.242,-141.606 821.668,-131.581 812.738,-137.281 818.242,-141.606"/>
</g>
<!-- Node33&#45;&gt;Node30 -->
<g id="edge47" class="edge"><title>Node33&#45;&gt;Node30</title>
<path fill="none" stroke="midnightblue" d="M831.463,-131.581C827.678,-140.663 818.859,-155.22 810.529,-166.531"/>
<polygon fill="midnightblue" stroke="midnightblue" points="807.77,-164.377 804.345,-174.403 813.275,-168.701 807.77,-164.377"/>
</g>
<!-- Node35&#45;&gt;Node8 -->
<g id="edge52" class="edge"><title>Node35&#45;&gt;Node8</title>
<path fill="none" stroke="midnightblue" d="M377.007,-255.524C457.695,-283.027 711.283,-369.466 804.327,-401.181"/>
<polygon fill="midnightblue" stroke="midnightblue" points="803.248,-404.511 813.842,-404.425 805.506,-397.885 803.248,-404.511"/>
</g>
<!-- Node35&#45;&gt;Node23 -->
<g id="edge51" class="edge"><title>Node35&#45;&gt;Node23</title>
<path fill="none" stroke="midnightblue" d="M401.555,-255.516C453.057,-264.979 533.03,-280.268 584.506,-290.473"/>
<polygon fill="midnightblue" stroke="midnightblue" points="583.914,-293.924 594.405,-292.444 585.281,-287.059 583.914,-293.924"/>
</g>
<!-- Node36&#45;&gt;Node2 -->
<g id="edge54" class="edge"><title>Node36&#45;&gt;Node2</title>
<path fill="none" stroke="midnightblue" d="M597.675,-559.293C598.704,-567.245 598.995,-577.361 598.545,-586.532"/>
<polygon fill="midnightblue" stroke="midnightblue" points="595.042,-586.417 597.678,-596.679 602.017,-587.013 595.042,-586.417"/>
</g>
<!-- Node36&#45;&gt;Node23 -->
<g id="edge55" class="edge"><title>Node36&#45;&gt;Node23</title>
<path fill="none" stroke="midnightblue" d="M594.502,-528.706C601.73,-487.401 622.645,-367.888 630.743,-321.611"/>
<polygon fill="midnightblue" stroke="midnightblue" points="634.234,-321.969 632.51,-311.515 627.338,-320.762 634.234,-321.969"/>
</g>
<!-- Node37&#45;&gt;Node1 -->
<g id="edge57" class="edge"><title>Node37&#45;&gt;Node1</title>
<path fill="none" stroke="midnightblue" d="M697.563,-491.004C701.178,-523.861 701.718,-606.728 699.182,-654.524"/>
<polygon fill="midnightblue" stroke="midnightblue" points="695.675,-654.534 698.555,-664.73 702.662,-654.964 695.675,-654.534"/>
</g>
<!-- Node37&#45;&gt;Node8 -->
<g id="edge58" class="edge"><title>Node37&#45;&gt;Node8</title>
<path fill="none" stroke="midnightblue" d="M727.996,-460.933C752.459,-450.81 785.162,-437.278 808.727,-427.527"/>
<polygon fill="midnightblue" stroke="midnightblue" points="810.315,-430.658 818.217,-423.6 807.638,-424.19 810.315,-430.658"/>
</g>
<!-- Node37&#45;&gt;Node23 -->
<g id="edge59" class="edge"><title>Node37&#45;&gt;Node23</title>
<path fill="none" stroke="midnightblue" d="M689.09,-460.925C678.281,-429.939 652.434,-355.844 640.385,-321.304"/>
<polygon fill="midnightblue" stroke="midnightblue" points="643.593,-319.874 636.995,-311.585 636.984,-322.18 643.593,-319.874"/>
</g>
</g>
</svg>
